<?xml version="1.0" encoding="UTF-8" standalone="no"?>
<!DOCTYPE svg PUBLIC "-//W3C//DTD SVG 1.1//EN"
 "http://www.w3.org/Graphics/SVG/1.1/DTD/svg11.dtd">
<!-- Generated by graphviz version 2.40.1 (20161225.0304)
 -->
<!-- Title: categories Pages: 1 -->
<svg width="555pt" height="622pt"
 viewBox="0.00 0.00 555.00 622.00" xmlns="http://www.w3.org/2000/svg" xmlns:xlink="http://www.w3.org/1999/xlink">
<g id="graph0" class="graph" transform="scale(1 1) rotate(0) translate(4 618)">
<title>categories</title>
<polygon fill="#ffffff" stroke="transparent" points="-4,4 -4,-618 551,-618 551,4 -4,4"/>
<!-- categories -->
<g id="node1" class="node">
<title>categories</title>
<polygon fill="#efefef" stroke="transparent" points="58,-225.5 58,-260.5 252,-260.5 252,-225.5 58,-225.5"/>
<polygon fill="none" stroke="#000000" points="58,-225.5 58,-260.5 252,-260.5 252,-225.5 58,-225.5"/>
<text text-anchor="start" x="64.8633" y="-238.3" font-family="Arial Bold" font-size="18.00" fill="#000000">categories</text>
<text text-anchor="start" x="147.8829" y="-238.3" font-family="Arial" font-size="14.00" fill="#000000"> </text>
<text text-anchor="start" x="151.7735" y="-238.3" font-family="Arial" font-size="14.00" fill="#666666">[BASE TABLE]</text>
<polygon fill="none" stroke="#000000" points="58,-195.5 58,-225.5 252,-225.5 252,-195.5 58,-195.5"/>
<text text-anchor="start" x="65" y="-206.9" font-family="Arial" font-size="14.00" fill="#000000">id </text>
<text text-anchor="start" x="79.7798" y="-206.9" font-family="Arial" font-size="14.00" fill="#666666">[int(10) unsigned]</text>
<polygon fill="none" stroke="#000000" points="58,-165.5 58,-195.5 252,-195.5 252,-165.5 58,-165.5"/>
<text text-anchor="start" x="65" y="-176.9" font-family="Arial" font-size="14.00" fill="#000000">name </text>
<text text-anchor="start" x="103.899" y="-176.9" font-family="Arial" font-size="14.00" fill="#666666">[varchar(255)]</text>
<polygon fill="none" stroke="#000000" points="58,-135.5 58,-165.5 252,-165.5 252,-135.5 58,-135.5"/>
<text text-anchor="start" x="65" y="-146.9" font-family="Arial" font-size="14.00" fill="#000000">slug </text>
<text text-anchor="start" x="94.5624" y="-146.9" font-family="Arial" font-size="14.00" fill="#666666">[varchar(255)]</text>
<polygon fill="none" stroke="#000000" points="58,-105.5 58,-135.5 252,-135.5 252,-105.5 58,-105.5"/>
<text text-anchor="start" x="65" y="-116.9" font-family="Arial" font-size="14.00" fill="#000000">icon </text>
<text text-anchor="start" x="94.5624" y="-116.9" font-family="Arial" font-size="14.00" fill="#666666">[varchar(255)]</text>
<polygon fill="none" stroke="#000000" points="58,-75.5 58,-105.5 252,-105.5 252,-75.5 58,-75.5"/>
<text text-anchor="start" x="65" y="-86.9" font-family="Arial" font-size="14.00" fill="#000000">created_at </text>
<text text-anchor="start" x="135.028" y="-86.9" font-family="Arial" font-size="14.00" fill="#666666">[timestamp]</text>
<polygon fill="none" stroke="#000000" points="58,-45.5 58,-75.5 252,-75.5 252,-45.5 58,-45.5"/>
<text text-anchor="start" x="65" y="-56.9" font-family="Arial" font-size="14.00" fill="#000000">updated_at </text>
<text text-anchor="start" x="138.9326" y="-56.9" font-family="Arial" font-size="14.00" fill="#666666">[timestamp]</text>
<polygon fill="none" stroke="#000000" stroke-width="3" points="56.5,-44.5 56.5,-262.5 253.5,-262.5 253.5,-44.5 56.5,-44.5"/>
</g>
<!-- category_post -->
<g id="node2" class="node">
<title>category_post</title>
<polygon fill="#efefef" stroke="transparent" points="43,-535.5 43,-570.5 267,-570.5 267,-535.5 43,-535.5"/>
<polygon fill="none" stroke="#000000" points="43,-535.5 43,-570.5 267,-570.5 267,-535.5 43,-535.5"/>
<text text-anchor="start" x="49.8531" y="-548.3" font-family="Arial Bold" font-size="18.00" fill="#000000">category_post</text>
<text text-anchor="start" x="162.8931" y="-548.3" font-family="Arial" font-size="14.00" fill="#000000"> </text>
<text text-anchor="start" x="166.7837" y="-548.3" font-family="Arial" font-size="14.00" fill="#666666">[BASE TABLE]</text>
<polygon fill="none" stroke="#000000" points="43,-505.5 43,-535.5 267,-535.5 267,-505.5 43,-505.5"/>
<text text-anchor="start" x="50" y="-516.9" font-family="Arial" font-size="14.00" fill="#000000">id </text>
<text text-anchor="start" x="64.7798" y="-516.9" font-family="Arial" font-size="14.00" fill="#666666">[int(10) unsigned]</text>
<polygon fill="none" stroke="#000000" points="43,-475.5 43,-505.5 267,-505.5 267,-475.5 43,-475.5"/>
<text text-anchor="start" x="50" y="-486.9" font-family="Arial" font-size="14.00" fill="#000000">post_id </text>
<text text-anchor="start" x="99.0182" y="-486.9" font-family="Arial" font-size="14.00" fill="#666666">[int(10) unsigned]</text>
<polygon fill="none" stroke="#000000" points="43,-445.5 43,-475.5 267,-475.5 267,-445.5 43,-445.5"/>
<text text-anchor="start" x="50" y="-456.9" font-family="Arial" font-size="14.00" fill="#000000">category_id </text>
<text text-anchor="start" x="126.244" y="-456.9" font-family="Arial" font-size="14.00" fill="#666666">[int(10) unsigned]</text>
<polygon fill="none" stroke="#000000" points="43,-415.5 43,-445.5 267,-445.5 267,-415.5 43,-415.5"/>
<text text-anchor="start" x="50" y="-426.9" font-family="Arial" font-size="14.00" fill="#000000">created_at </text>
<text text-anchor="start" x="120.028" y="-426.9" font-family="Arial" font-size="14.00" fill="#666666">[timestamp]</text>
<polygon fill="none" stroke="#000000" points="43,-385.5 43,-415.5 267,-415.5 267,-385.5 43,-385.5"/>
<text text-anchor="start" x="50" y="-396.9" font-family="Arial" font-size="14.00" fill="#000000">updated_at </text>
<text text-anchor="start" x="123.9326" y="-396.9" font-family="Arial" font-size="14.00" fill="#666666">[timestamp]</text>
</g>
<!-- category_post&#45;&gt;categories -->
<g id="edge1" class="edge">
<title>category_post:category_id&#45;&gt;categories:id</title>
<path fill="none" stroke="#000000" d="M276.6147,-457.6924C320.6217,-430.2266 304.177,-210.5 252,-210.5"/>
<polygon fill="#000000" stroke="#000000" points="276.5991,-457.6969 265.7386,-456.1804 271.7996,-459.0984 267,-460.5 267,-460.5 267,-460.5 271.7996,-459.0984 268.2614,-464.8196 276.5991,-457.6969 276.5991,-457.6969"/>
<text text-anchor="start" x="273.659" y="-470.5" font-family="Arial" font-size="10.00" fill="#000000">FOREIGN KEY (category_id) REFERENCES categories (id)</text>
</g>
</g>
</svg>
