<?xml version="1.0" encoding="UTF-8" standalone="no"?>
<!DOCTYPE svg PUBLIC "-//W3C//DTD SVG 1.1//EN"
 "http://www.w3.org/Graphics/SVG/1.1/DTD/svg11.dtd">
<!-- Generated by graphviz version 2.40.1 (20161225.0304)
 -->
<!-- Title: category_post Pages: 1 -->
<svg width="751pt" height="772pt"
 viewBox="0.00 0.00 751.00 772.00" xmlns="http://www.w3.org/2000/svg" xmlns:xlink="http://www.w3.org/1999/xlink">
<g id="graph0" class="graph" transform="scale(1 1) rotate(0) translate(4 768)">
<title>category_post</title>
<polygon fill="#ffffff" stroke="transparent" points="-4,4 -4,-768 747,-768 747,4 -4,4"/>
<!-- category_post -->
<g id="node1" class="node">
<title>category_post</title>
<polygon fill="#efefef" stroke="transparent" points="239,-682.5 239,-717.5 463,-717.5 463,-682.5 239,-682.5"/>
<polygon fill="none" stroke="#000000" points="239,-682.5 239,-717.5 463,-717.5 463,-682.5 239,-682.5"/>
<text text-anchor="start" x="245.8531" y="-695.3" font-family="Arial Bold" font-size="18.00" fill="#000000">category_post</text>
<text text-anchor="start" x="358.8931" y="-695.3" font-family="Arial" font-size="14.00" fill="#000000"> </text>
<text text-anchor="start" x="362.7837" y="-695.3" font-family="Arial" font-size="14.00" fill="#666666">[BASE TABLE]</text>
<polygon fill="none" stroke="#000000" points="239,-652.5 239,-682.5 463,-682.5 463,-652.5 239,-652.5"/>
<text text-anchor="start" x="246" y="-663.9" font-family="Arial" font-size="14.00" fill="#000000">id </text>
<text text-anchor="start" x="260.7798" y="-663.9" font-family="Arial" font-size="14.00" fill="#666666">[int(10) unsigned]</text>
<polygon fill="none" stroke="#000000" points="239,-622.5 239,-652.5 463,-652.5 463,-622.5 239,-622.5"/>
<text text-anchor="start" x="246" y="-633.9" font-family="Arial" font-size="14.00" fill="#000000">post_id </text>
<text text-anchor="start" x="295.0182" y="-633.9" font-family="Arial" font-size="14.00" fill="#666666">[int(10) unsigned]</text>
<polygon fill="none" stroke="#000000" points="239,-592.5 239,-622.5 463,-622.5 463,-592.5 239,-592.5"/>
<text text-anchor="start" x="246" y="-603.9" font-family="Arial" font-size="14.00" fill="#000000">category_id </text>
<text text-anchor="start" x="322.244" y="-603.9" font-family="Arial" font-size="14.00" fill="#666666">[int(10) unsigned]</text>
<polygon fill="none" stroke="#000000" points="239,-562.5 239,-592.5 463,-592.5 463,-562.5 239,-562.5"/>
<text text-anchor="start" x="246" y="-573.9" font-family="Arial" font-size="14.00" fill="#000000">created_at </text>
<text text-anchor="start" x="316.028" y="-573.9" font-family="Arial" font-size="14.00" fill="#666666">[timestamp]</text>
<polygon fill="none" stroke="#000000" points="239,-532.5 239,-562.5 463,-562.5 463,-532.5 239,-532.5"/>
<text text-anchor="start" x="246" y="-543.9" font-family="Arial" font-size="14.00" fill="#000000">updated_at </text>
<text text-anchor="start" x="319.9326" y="-543.9" font-family="Arial" font-size="14.00" fill="#666666">[timestamp]</text>
<polygon fill="none" stroke="#000000" stroke-width="3" points="237.5,-531.5 237.5,-719.5 464.5,-719.5 464.5,-531.5 237.5,-531.5"/>
</g>
<!-- posts -->
<g id="node2" class="node">
<title>posts</title>
<polygon fill="#efefef" stroke="transparent" points="89,-372.5 89,-407.5 304,-407.5 304,-372.5 89,-372.5"/>
<polygon fill="none" stroke="#000000" points="89,-372.5 89,-407.5 304,-407.5 304,-372.5 89,-372.5"/>
<text text-anchor="start" x="126.3658" y="-385.3" font-family="Arial Bold" font-size="18.00" fill="#000000">posts</text>
<text text-anchor="start" x="169.3804" y="-385.3" font-family="Arial" font-size="14.00" fill="#000000"> </text>
<text text-anchor="start" x="173.271" y="-385.3" font-family="Arial" font-size="14.00" fill="#666666">[BASE TABLE]</text>
<polygon fill="none" stroke="#000000" points="89,-342.5 89,-372.5 304,-372.5 304,-342.5 89,-342.5"/>
<text text-anchor="start" x="96" y="-353.9" font-family="Arial" font-size="14.00" fill="#000000">id </text>
<text text-anchor="start" x="110.7798" y="-353.9" font-family="Arial" font-size="14.00" fill="#666666">[int(10) unsigned]</text>
<polygon fill="none" stroke="#000000" points="89,-312.5 89,-342.5 304,-342.5 304,-312.5 89,-312.5"/>
<text text-anchor="start" x="96" y="-323.9" font-family="Arial" font-size="14.00" fill="#000000">title </text>
<text text-anchor="start" x="121.6676" y="-323.9" font-family="Arial" font-size="14.00" fill="#666666">[varchar(255)]</text>
<polygon fill="none" stroke="#000000" points="89,-282.5 89,-312.5 304,-312.5 304,-282.5 89,-282.5"/>
<text text-anchor="start" x="96" y="-293.9" font-family="Arial" font-size="14.00" fill="#000000">slug </text>
<text text-anchor="start" x="125.5624" y="-293.9" font-family="Arial" font-size="14.00" fill="#666666">[varchar(255)]</text>
<polygon fill="none" stroke="#000000" points="89,-252.5 89,-282.5 304,-282.5 304,-252.5 89,-252.5"/>
<text text-anchor="start" x="96" y="-263.9" font-family="Arial" font-size="14.00" fill="#000000">description </text>
<text text-anchor="start" x="167.568" y="-263.9" font-family="Arial" font-size="14.00" fill="#666666">[text]</text>
<polygon fill="none" stroke="#000000" points="89,-222.5 89,-252.5 304,-252.5 304,-222.5 89,-222.5"/>
<text text-anchor="start" x="96" y="-233.9" font-family="Arial" font-size="14.00" fill="#000000">content </text>
<text text-anchor="start" x="145.8022" y="-233.9" font-family="Arial" font-size="14.00" fill="#666666">[text]</text>
<polygon fill="none" stroke="#000000" points="89,-192.5 89,-222.5 304,-222.5 304,-192.5 89,-192.5"/>
<text text-anchor="start" x="96" y="-203.9" font-family="Arial" font-size="14.00" fill="#000000">created_by </text>
<text text-anchor="start" x="169.1374" y="-203.9" font-family="Arial" font-size="14.00" fill="#666666">[int(10) unsigned]</text>
<polygon fill="none" stroke="#000000" points="89,-162.5 89,-192.5 304,-192.5 304,-162.5 89,-162.5"/>
<text text-anchor="start" x="96" y="-173.9" font-family="Arial" font-size="14.00" fill="#000000">created_at </text>
<text text-anchor="start" x="166.028" y="-173.9" font-family="Arial" font-size="14.00" fill="#666666">[timestamp]</text>
<polygon fill="none" stroke="#000000" points="89,-132.5 89,-162.5 304,-162.5 304,-132.5 89,-132.5"/>
<text text-anchor="start" x="96" y="-143.9" font-family="Arial" font-size="14.00" fill="#000000">updated_at </text>
<text text-anchor="start" x="169.9326" y="-143.9" font-family="Arial" font-size="14.00" fill="#666666">[timestamp]</text>
<polygon fill="none" stroke="#000000" points="89,-102.5 89,-132.5 304,-132.5 304,-102.5 89,-102.5"/>
<text text-anchor="start" x="96" y="-113.9" font-family="Arial" font-size="14.00" fill="#000000">status </text>
<text text-anchor="start" x="137.237" y="-113.9" font-family="Arial" font-size="14.00" fill="#666666">[smallint(6)]</text>
<polygon fill="none" stroke="#000000" points="89,-72.5 89,-102.5 304,-102.5 304,-72.5 89,-72.5"/>
<text text-anchor="start" x="96" y="-83.9" font-family="Arial" font-size="14.00" fill="#000000">moderated_at </text>
<text text-anchor="start" x="186.2538" y="-83.9" font-family="Arial" font-size="14.00" fill="#666666">[datetime]</text>
<polygon fill="none" stroke="#000000" points="89,-42.5 89,-72.5 304,-72.5 304,-42.5 89,-42.5"/>
<text text-anchor="start" x="95.7483" y="-53.9" font-family="Arial" font-size="14.00" fill="#000000">moderated_by </text>
<text text-anchor="start" x="189.1115" y="-53.9" font-family="Arial" font-size="14.00" fill="#666666">[int(10) unsigned]</text>
</g>
<!-- category_post&#45;&gt;posts -->
<g id="edge1" class="edge">
<title>category_post:post_id&#45;&gt;posts:id</title>
<path fill="none" stroke="#000000" d="M228.9055,-636.6877C175.7159,-627.4475 206.8982,-541.4759 239,-487 255.7659,-458.5487 287.2341,-479.4513 304,-451 325.0974,-415.1983 345.5556,-357.5 304,-357.5"/>
<polygon fill="#000000" stroke="#000000" points="229.0322,-636.6978 238.639,-641.9855 234.0161,-637.0989 239,-637.5 239,-637.5 239,-637.5 234.0161,-637.0989 239.361,-633.0145 229.0322,-636.6978 229.0322,-636.6978"/>
<text text-anchor="start" x="7.495" y="-647.5" font-family="Arial" font-size="10.00" fill="#000000">FOREIGN KEY (post_id) REFERENCES posts (id)</text>
</g>
<!-- categories -->
<g id="node3" class="node">
<title>categories</title>
<polygon fill="#efefef" stroke="transparent" points="408,-297.5 408,-332.5 602,-332.5 602,-297.5 408,-297.5"/>
<polygon fill="none" stroke="#000000" points="408,-297.5 408,-332.5 602,-332.5 602,-297.5 408,-297.5"/>
<text text-anchor="start" x="414.8633" y="-310.3" font-family="Arial Bold" font-size="18.00" fill="#000000">categories</text>
<text text-anchor="start" x="497.8829" y="-310.3" font-family="Arial" font-size="14.00" fill="#000000"> </text>
<text text-anchor="start" x="501.7735" y="-310.3" font-family="Arial" font-size="14.00" fill="#666666">[BASE TABLE]</text>
<polygon fill="none" stroke="#000000" points="408,-267.5 408,-297.5 602,-297.5 602,-267.5 408,-267.5"/>
<text text-anchor="start" x="415" y="-278.9" font-family="Arial" font-size="14.00" fill="#000000">id </text>
<text text-anchor="start" x="429.7798" y="-278.9" font-family="Arial" font-size="14.00" fill="#666666">[int(10) unsigned]</text>
<polygon fill="none" stroke="#000000" points="408,-237.5 408,-267.5 602,-267.5 602,-237.5 408,-237.5"/>
<text text-anchor="start" x="415" y="-248.9" font-family="Arial" font-size="14.00" fill="#000000">name </text>
<text text-anchor="start" x="453.899" y="-248.9" font-family="Arial" font-size="14.00" fill="#666666">[varchar(255)]</text>
<polygon fill="none" stroke="#000000" points="408,-207.5 408,-237.5 602,-237.5 602,-207.5 408,-207.5"/>
<text text-anchor="start" x="415" y="-218.9" font-family="Arial" font-size="14.00" fill="#000000">slug </text>
<text text-anchor="start" x="444.5624" y="-218.9" font-family="Arial" font-size="14.00" fill="#666666">[varchar(255)]</text>
<polygon fill="none" stroke="#000000" points="408,-177.5 408,-207.5 602,-207.5 602,-177.5 408,-177.5"/>
<text text-anchor="start" x="415" y="-188.9" font-family="Arial" font-size="14.00" fill="#000000">icon </text>
<text text-anchor="start" x="444.5624" y="-188.9" font-family="Arial" font-size="14.00" fill="#666666">[varchar(255)]</text>
<polygon fill="none" stroke="#000000" points="408,-147.5 408,-177.5 602,-177.5 602,-147.5 408,-147.5"/>
<text text-anchor="start" x="415" y="-158.9" font-family="Arial" font-size="14.00" fill="#000000">created_at </text>
<text text-anchor="start" x="485.028" y="-158.9" font-family="Arial" font-size="14.00" fill="#666666">[timestamp]</text>
<polygon fill="none" stroke="#000000" points="408,-117.5 408,-147.5 602,-147.5 602,-117.5 408,-117.5"/>
<text text-anchor="start" x="415" y="-128.9" font-family="Arial" font-size="14.00" fill="#000000">updated_at </text>
<text text-anchor="start" x="488.9326" y="-128.9" font-family="Arial" font-size="14.00" fill="#666666">[timestamp]</text>
</g>
<!-- category_post&#45;&gt;categories -->
<g id="edge2" class="edge">
<title>category_post:category_id&#45;&gt;categories:id</title>
<path fill="none" stroke="#000000" d="M473.1589,-606.6698C552.4521,-592.4799 413.8139,-400.8286 408,-376 398.5255,-335.5389 366.4444,-282.5 408,-282.5"/>
<polygon fill="#000000" stroke="#000000" points="472.9668,-606.6854 462.6335,-603.015 467.9834,-607.0927 463,-607.5 463,-607.5 463,-607.5 467.9834,-607.0927 463.3665,-611.985 472.9668,-606.6854 472.9668,-606.6854"/>
<text text-anchor="start" x="469.659" y="-617.5" font-family="Arial" font-size="10.00" fill="#000000">FOREIGN KEY (category_id) REFERENCES categories (id)</text>
</g>
</g>
</svg>
