<?xml version="1.0" encoding="UTF-8" standalone="no"?>
<!DOCTYPE svg PUBLIC "-//W3C//DTD SVG 1.1//EN"
 "http://www.w3.org/Graphics/SVG/1.1/DTD/svg11.dtd">
<!-- Generated by graphviz version 2.40.1 (20161225.0304)
 -->
<!-- Title: albums Pages: 1 -->
<svg width="685pt" height="1139pt"
 viewBox="0.00 0.00 685.00 1139.00" xmlns="http://www.w3.org/2000/svg" xmlns:xlink="http://www.w3.org/1999/xlink">
<g id="graph0" class="graph" transform="scale(1 1) rotate(0) translate(4 1135)">
<title>albums</title>
<polygon fill="#ffffff" stroke="transparent" points="-4,4 -4,-1135 681,-1135 681,4 -4,4"/>
<!-- albums -->
<g id="node1" class="node">
<title>albums</title>
<polygon fill="#efefef" stroke="transparent" points="258,-532.5 258,-567.5 433,-567.5 433,-532.5 258,-532.5"/>
<polygon fill="none" stroke="#000000" points="258,-532.5 258,-567.5 433,-567.5 433,-532.5 258,-532.5"/>
<text text-anchor="start" x="267.8706" y="-545.3" font-family="Arial Bold" font-size="18.00" fill="#000000">albums</text>
<text text-anchor="start" x="325.8756" y="-545.3" font-family="Arial" font-size="14.00" fill="#000000"> </text>
<text text-anchor="start" x="329.7662" y="-545.3" font-family="Arial" font-size="14.00" fill="#666666">[BASE TABLE]</text>
<polygon fill="none" stroke="#000000" points="258,-502.5 258,-532.5 433,-532.5 433,-502.5 258,-502.5"/>
<text text-anchor="start" x="265" y="-513.9" font-family="Arial" font-size="14.00" fill="#000000">id </text>
<text text-anchor="start" x="279.7798" y="-513.9" font-family="Arial" font-size="14.00" fill="#666666">[int(10) unsigned]</text>
<polygon fill="none" stroke="#000000" points="258,-472.5 258,-502.5 433,-502.5 433,-472.5 258,-472.5"/>
<text text-anchor="start" x="264.9832" y="-483.9" font-family="Arial" font-size="14.00" fill="#000000">artist_id </text>
<text text-anchor="start" x="317.8766" y="-483.9" font-family="Arial" font-size="14.00" fill="#666666">[int(10) unsigned]</text>
<polygon fill="none" stroke="#000000" points="258,-442.5 258,-472.5 433,-472.5 433,-442.5 258,-442.5"/>
<text text-anchor="start" x="265" y="-453.9" font-family="Arial" font-size="14.00" fill="#000000">name </text>
<text text-anchor="start" x="303.899" y="-453.9" font-family="Arial" font-size="14.00" fill="#666666">[varchar(255)]</text>
<polygon fill="none" stroke="#000000" points="258,-412.5 258,-442.5 433,-442.5 433,-412.5 258,-412.5"/>
<text text-anchor="start" x="265" y="-423.9" font-family="Arial" font-size="14.00" fill="#000000">cover </text>
<text text-anchor="start" x="303.1164" y="-423.9" font-family="Arial" font-size="14.00" fill="#666666">[varchar(255)]</text>
<polygon fill="none" stroke="#000000" points="258,-382.5 258,-412.5 433,-412.5 433,-382.5 258,-382.5"/>
<text text-anchor="start" x="265" y="-393.9" font-family="Arial" font-size="14.00" fill="#000000">created_at </text>
<text text-anchor="start" x="335.028" y="-393.9" font-family="Arial" font-size="14.00" fill="#666666">[timestamp]</text>
<polygon fill="none" stroke="#000000" points="258,-352.5 258,-382.5 433,-382.5 433,-352.5 258,-352.5"/>
<text text-anchor="start" x="265" y="-363.9" font-family="Arial" font-size="14.00" fill="#000000">updated_at </text>
<text text-anchor="start" x="338.9326" y="-363.9" font-family="Arial" font-size="14.00" fill="#666666">[timestamp]</text>
<polygon fill="none" stroke="#000000" stroke-width="3" points="256,-351.5 256,-569.5 434,-569.5 434,-351.5 256,-351.5"/>
</g>
<!-- artists -->
<g id="node3" class="node">
<title>artists</title>
<polygon fill="#efefef" stroke="transparent" points="266,-192.5 266,-227.5 426,-227.5 426,-192.5 266,-192.5"/>
<polygon fill="none" stroke="#000000" points="266,-192.5 266,-227.5 426,-227.5 426,-192.5 266,-192.5"/>
<text text-anchor="start" x="273.3746" y="-205.3" font-family="Arial Bold" font-size="18.00" fill="#000000">artists</text>
<text text-anchor="start" x="321.3716" y="-205.3" font-family="Arial" font-size="14.00" fill="#000000"> </text>
<text text-anchor="start" x="325.2622" y="-205.3" font-family="Arial" font-size="14.00" fill="#666666">[BASE TABLE]</text>
<polygon fill="none" stroke="#000000" points="266,-162.5 266,-192.5 426,-192.5 426,-162.5 266,-162.5"/>
<text text-anchor="start" x="273" y="-173.9" font-family="Arial" font-size="14.00" fill="#000000">id </text>
<text text-anchor="start" x="287.7798" y="-173.9" font-family="Arial" font-size="14.00" fill="#666666">[int(10) unsigned]</text>
<polygon fill="none" stroke="#000000" points="266,-132.5 266,-162.5 426,-162.5 426,-132.5 266,-132.5"/>
<text text-anchor="start" x="273" y="-143.9" font-family="Arial" font-size="14.00" fill="#000000">name </text>
<text text-anchor="start" x="311.899" y="-143.9" font-family="Arial" font-size="14.00" fill="#666666">[varchar(255)]</text>
<polygon fill="none" stroke="#000000" points="266,-102.5 266,-132.5 426,-132.5 426,-102.5 266,-102.5"/>
<text text-anchor="start" x="273" y="-113.9" font-family="Arial" font-size="14.00" fill="#000000">image </text>
<text text-anchor="start" x="315.0056" y="-113.9" font-family="Arial" font-size="14.00" fill="#666666">[varchar(255)]</text>
<polygon fill="none" stroke="#000000" points="266,-72.5 266,-102.5 426,-102.5 426,-72.5 266,-72.5"/>
<text text-anchor="start" x="273" y="-83.9" font-family="Arial" font-size="14.00" fill="#000000">created_at </text>
<text text-anchor="start" x="343.028" y="-83.9" font-family="Arial" font-size="14.00" fill="#666666">[timestamp]</text>
<polygon fill="none" stroke="#000000" points="266,-42.5 266,-72.5 426,-72.5 426,-42.5 266,-42.5"/>
<text text-anchor="start" x="272.8647" y="-53.9" font-family="Arial" font-size="14.00" fill="#000000">updated_at </text>
<text text-anchor="start" x="346.7973" y="-53.9" font-family="Arial" font-size="14.00" fill="#666666">[timestamp]</text>
</g>
<!-- albums&#45;&gt;artists -->
<g id="edge2" class="edge">
<title>albums:artist_id&#45;&gt;artists:id</title>
<path fill="none" stroke="#000000" d="M443.1531,-486.8009C510.501,-477.0033 481.1318,-366.6131 433,-307 385.3025,-247.9247 313.6975,-330.0753 266,-271 239.8948,-238.6676 224.4444,-177.5 266,-177.5"/>
<polygon fill="#000000" stroke="#000000" points="442.9764,-486.813 432.6908,-483.0106 437.9882,-487.1565 433,-487.5 433,-487.5 433,-487.5 437.9882,-487.1565 433.3092,-491.9894 442.9764,-486.813 442.9764,-486.813"/>
<text text-anchor="start" x="439.727" y="-497.5" font-family="Arial" font-size="10.00" fill="#000000">FOREIGN KEY (artist_id) REFERENCES artists (id)</text>
</g>
<!-- songs -->
<g id="node2" class="node">
<title>songs</title>
<polygon fill="#efefef" stroke="transparent" points="255,-1052.5 255,-1087.5 437,-1087.5 437,-1052.5 255,-1052.5"/>
<polygon fill="none" stroke="#000000" points="255,-1052.5 255,-1087.5 437,-1087.5 437,-1052.5 255,-1052.5"/>
<text text-anchor="start" x="273.3638" y="-1065.3" font-family="Arial Bold" font-size="18.00" fill="#000000">songs</text>
<text text-anchor="start" x="321.3824" y="-1065.3" font-family="Arial" font-size="14.00" fill="#000000"> </text>
<text text-anchor="start" x="325.273" y="-1065.3" font-family="Arial" font-size="14.00" fill="#666666">[BASE TABLE]</text>
<polygon fill="none" stroke="#000000" points="255,-1022.5 255,-1052.5 437,-1052.5 437,-1022.5 255,-1022.5"/>
<text text-anchor="start" x="262" y="-1033.9" font-family="Arial" font-size="14.00" fill="#000000">id </text>
<text text-anchor="start" x="276.7798" y="-1033.9" font-family="Arial" font-size="14.00" fill="#666666">[varchar(32)]</text>
<polygon fill="none" stroke="#000000" points="255,-992.5 255,-1022.5 437,-1022.5 437,-992.5 255,-992.5"/>
<text text-anchor="start" x="261.5912" y="-1003.9" font-family="Arial" font-size="14.00" fill="#000000">album_id </text>
<text text-anchor="start" x="322.2686" y="-1003.9" font-family="Arial" font-size="14.00" fill="#666666">[int(10) unsigned]</text>
<polygon fill="none" stroke="#000000" points="255,-962.5 255,-992.5 437,-992.5 437,-962.5 255,-962.5"/>
<text text-anchor="start" x="262" y="-973.9" font-family="Arial" font-size="14.00" fill="#000000">artist_id </text>
<text text-anchor="start" x="314.8934" y="-973.9" font-family="Arial" font-size="14.00" fill="#666666">[int(10) unsigned]</text>
<polygon fill="none" stroke="#000000" points="255,-932.5 255,-962.5 437,-962.5 437,-932.5 255,-932.5"/>
<text text-anchor="start" x="262" y="-943.9" font-family="Arial" font-size="14.00" fill="#000000">title </text>
<text text-anchor="start" x="287.6676" y="-943.9" font-family="Arial" font-size="14.00" fill="#666666">[varchar(255)]</text>
<polygon fill="none" stroke="#000000" points="255,-902.5 255,-932.5 437,-932.5 437,-902.5 255,-902.5"/>
<text text-anchor="start" x="262" y="-913.9" font-family="Arial" font-size="14.00" fill="#000000">length </text>
<text text-anchor="start" x="304.0182" y="-913.9" font-family="Arial" font-size="14.00" fill="#666666">[double(8,2)]</text>
<polygon fill="none" stroke="#000000" points="255,-872.5 255,-902.5 437,-902.5 437,-872.5 255,-872.5"/>
<text text-anchor="start" x="262" y="-883.9" font-family="Arial" font-size="14.00" fill="#000000">track </text>
<text text-anchor="start" x="296.2244" y="-883.9" font-family="Arial" font-size="14.00" fill="#666666">[int(11)]</text>
<polygon fill="none" stroke="#000000" points="255,-842.5 255,-872.5 437,-872.5 437,-842.5 255,-842.5"/>
<text text-anchor="start" x="262" y="-853.9" font-family="Arial" font-size="14.00" fill="#000000">disc </text>
<text text-anchor="start" x="290.7798" y="-853.9" font-family="Arial" font-size="14.00" fill="#666666">[int(11)]</text>
<polygon fill="none" stroke="#000000" points="255,-812.5 255,-842.5 437,-842.5 437,-812.5 255,-812.5"/>
<text text-anchor="start" x="262" y="-823.9" font-family="Arial" font-size="14.00" fill="#000000">lyrics </text>
<text text-anchor="start" x="297.7644" y="-823.9" font-family="Arial" font-size="14.00" fill="#666666">[text]</text>
<polygon fill="none" stroke="#000000" points="255,-782.5 255,-812.5 437,-812.5 437,-782.5 255,-782.5"/>
<text text-anchor="start" x="262" y="-793.9" font-family="Arial" font-size="14.00" fill="#000000">path </text>
<text text-anchor="start" x="293.129" y="-793.9" font-family="Arial" font-size="14.00" fill="#666666">[text]</text>
<polygon fill="none" stroke="#000000" points="255,-752.5 255,-782.5 437,-782.5 437,-752.5 255,-752.5"/>
<text text-anchor="start" x="262" y="-763.9" font-family="Arial" font-size="14.00" fill="#000000">mtime </text>
<text text-anchor="start" x="303.9916" y="-763.9" font-family="Arial" font-size="14.00" fill="#666666">[int(11)]</text>
<polygon fill="none" stroke="#000000" points="255,-722.5 255,-752.5 437,-752.5 437,-722.5 255,-722.5"/>
<text text-anchor="start" x="262" y="-733.9" font-family="Arial" font-size="14.00" fill="#000000">created_at </text>
<text text-anchor="start" x="332.028" y="-733.9" font-family="Arial" font-size="14.00" fill="#666666">[timestamp]</text>
<polygon fill="none" stroke="#000000" points="255,-692.5 255,-722.5 437,-722.5 437,-692.5 255,-692.5"/>
<text text-anchor="start" x="262" y="-703.9" font-family="Arial" font-size="14.00" fill="#000000">updated_at </text>
<text text-anchor="start" x="335.9326" y="-703.9" font-family="Arial" font-size="14.00" fill="#666666">[timestamp]</text>
</g>
<!-- songs&#45;&gt;albums -->
<g id="edge1" class="edge">
<title>songs:album_id&#45;&gt;albums:id</title>
<path fill="none" stroke="#000000" d="M244.9431,-1005.7561C178.2166,-981.3788 206.9591,-708.7298 255,-650 306.1036,-587.5261 381.8964,-676.4739 433,-614 460.1552,-580.8029 475.8889,-517.5 433,-517.5"/>
<polygon fill="#000000" stroke="#000000" points="245.147,-1005.7914 254.2311,-1011.9338 250.0735,-1006.6457 255,-1007.5 255,-1007.5 255,-1007.5 250.0735,-1006.6457 255.7689,-1003.0662 245.147,-1005.7914 245.147,-1005.7914"/>
<text text-anchor="start" x="7.167" y="-1017.5" font-family="Arial" font-size="10.00" fill="#000000">FOREIGN KEY (album_id) REFERENCES albums (id)</text>
</g>
</g>
</svg>
