<?xml version="1.0" encoding="UTF-8" standalone="no"?>
<!DOCTYPE svg PUBLIC "-//W3C//DTD SVG 1.1//EN"
 "http://www.w3.org/Graphics/SVG/1.1/DTD/svg11.dtd">
<!-- Generated by graphviz version 2.40.1 (20161225.0304)
 -->
<!-- Title: songs Pages: 1 -->
<svg width="689pt" height="1199pt"
 viewBox="0.00 0.00 689.00 1199.00" xmlns="http://www.w3.org/2000/svg" xmlns:xlink="http://www.w3.org/1999/xlink">
<g id="graph0" class="graph" transform="scale(1 1) rotate(0) translate(4 1195)">
<title>songs</title>
<polygon fill="#ffffff" stroke="transparent" points="-4,4 -4,-1195 685,-1195 685,4 -4,4"/>
<!-- songs -->
<g id="node1" class="node">
<title>songs</title>
<polygon fill="#efefef" stroke="transparent" points="255,-742.5 255,-777.5 437,-777.5 437,-742.5 255,-742.5"/>
<polygon fill="none" stroke="#000000" points="255,-742.5 255,-777.5 437,-777.5 437,-742.5 255,-742.5"/>
<text text-anchor="start" x="273.3638" y="-755.3" font-family="Arial Bold" font-size="18.00" fill="#000000">songs</text>
<text text-anchor="start" x="321.3824" y="-755.3" font-family="Arial" font-size="14.00" fill="#000000"> </text>
<text text-anchor="start" x="325.273" y="-755.3" font-family="Arial" font-size="14.00" fill="#666666">[BASE TABLE]</text>
<polygon fill="none" stroke="#000000" points="255,-712.5 255,-742.5 437,-742.5 437,-712.5 255,-712.5"/>
<text text-anchor="start" x="262" y="-723.9" font-family="Arial" font-size="14.00" fill="#000000">id </text>
<text text-anchor="start" x="276.7798" y="-723.9" font-family="Arial" font-size="14.00" fill="#666666">[varchar(32)]</text>
<polygon fill="none" stroke="#000000" points="255,-682.5 255,-712.5 437,-712.5 437,-682.5 255,-682.5"/>
<text text-anchor="start" x="261.5912" y="-693.9" font-family="Arial" font-size="14.00" fill="#000000">album_id </text>
<text text-anchor="start" x="322.2686" y="-693.9" font-family="Arial" font-size="14.00" fill="#666666">[int(10) unsigned]</text>
<polygon fill="none" stroke="#000000" points="255,-652.5 255,-682.5 437,-682.5 437,-652.5 255,-652.5"/>
<text text-anchor="start" x="262" y="-663.9" font-family="Arial" font-size="14.00" fill="#000000">artist_id </text>
<text text-anchor="start" x="314.8934" y="-663.9" font-family="Arial" font-size="14.00" fill="#666666">[int(10) unsigned]</text>
<polygon fill="none" stroke="#000000" points="255,-622.5 255,-652.5 437,-652.5 437,-622.5 255,-622.5"/>
<text text-anchor="start" x="262" y="-633.9" font-family="Arial" font-size="14.00" fill="#000000">title </text>
<text text-anchor="start" x="287.6676" y="-633.9" font-family="Arial" font-size="14.00" fill="#666666">[varchar(255)]</text>
<polygon fill="none" stroke="#000000" points="255,-592.5 255,-622.5 437,-622.5 437,-592.5 255,-592.5"/>
<text text-anchor="start" x="262" y="-603.9" font-family="Arial" font-size="14.00" fill="#000000">length </text>
<text text-anchor="start" x="304.0182" y="-603.9" font-family="Arial" font-size="14.00" fill="#666666">[double(8,2)]</text>
<polygon fill="none" stroke="#000000" points="255,-562.5 255,-592.5 437,-592.5 437,-562.5 255,-562.5"/>
<text text-anchor="start" x="262" y="-573.9" font-family="Arial" font-size="14.00" fill="#000000">track </text>
<text text-anchor="start" x="296.2244" y="-573.9" font-family="Arial" font-size="14.00" fill="#666666">[int(11)]</text>
<polygon fill="none" stroke="#000000" points="255,-532.5 255,-562.5 437,-562.5 437,-532.5 255,-532.5"/>
<text text-anchor="start" x="262" y="-543.9" font-family="Arial" font-size="14.00" fill="#000000">disc </text>
<text text-anchor="start" x="290.7798" y="-543.9" font-family="Arial" font-size="14.00" fill="#666666">[int(11)]</text>
<polygon fill="none" stroke="#000000" points="255,-502.5 255,-532.5 437,-532.5 437,-502.5 255,-502.5"/>
<text text-anchor="start" x="262" y="-513.9" font-family="Arial" font-size="14.00" fill="#000000">lyrics </text>
<text text-anchor="start" x="297.7644" y="-513.9" font-family="Arial" font-size="14.00" fill="#666666">[text]</text>
<polygon fill="none" stroke="#000000" points="255,-472.5 255,-502.5 437,-502.5 437,-472.5 255,-472.5"/>
<text text-anchor="start" x="262" y="-483.9" font-family="Arial" font-size="14.00" fill="#000000">path </text>
<text text-anchor="start" x="293.129" y="-483.9" font-family="Arial" font-size="14.00" fill="#666666">[text]</text>
<polygon fill="none" stroke="#000000" points="255,-442.5 255,-472.5 437,-472.5 437,-442.5 255,-442.5"/>
<text text-anchor="start" x="262" y="-453.9" font-family="Arial" font-size="14.00" fill="#000000">mtime </text>
<text text-anchor="start" x="303.9916" y="-453.9" font-family="Arial" font-size="14.00" fill="#666666">[int(11)]</text>
<polygon fill="none" stroke="#000000" points="255,-412.5 255,-442.5 437,-442.5 437,-412.5 255,-412.5"/>
<text text-anchor="start" x="262" y="-423.9" font-family="Arial" font-size="14.00" fill="#000000">created_at </text>
<text text-anchor="start" x="332.028" y="-423.9" font-family="Arial" font-size="14.00" fill="#666666">[timestamp]</text>
<polygon fill="none" stroke="#000000" points="255,-382.5 255,-412.5 437,-412.5 437,-382.5 255,-382.5"/>
<text text-anchor="start" x="262" y="-393.9" font-family="Arial" font-size="14.00" fill="#000000">updated_at </text>
<text text-anchor="start" x="335.9326" y="-393.9" font-family="Arial" font-size="14.00" fill="#666666">[timestamp]</text>
<polygon fill="none" stroke="#000000" stroke-width="3" points="253.5,-381.5 253.5,-779.5 438.5,-779.5 438.5,-381.5 253.5,-381.5"/>
</g>
<!-- albums -->
<g id="node4" class="node">
<title>albums</title>
<polygon fill="#efefef" stroke="transparent" points="123,-222.5 123,-257.5 298,-257.5 298,-222.5 123,-222.5"/>
<polygon fill="none" stroke="#000000" points="123,-222.5 123,-257.5 298,-257.5 298,-222.5 123,-222.5"/>
<text text-anchor="start" x="132.8706" y="-235.3" font-family="Arial Bold" font-size="18.00" fill="#000000">albums</text>
<text text-anchor="start" x="190.8756" y="-235.3" font-family="Arial" font-size="14.00" fill="#000000"> </text>
<text text-anchor="start" x="194.7662" y="-235.3" font-family="Arial" font-size="14.00" fill="#666666">[BASE TABLE]</text>
<polygon fill="none" stroke="#000000" points="123,-192.5 123,-222.5 298,-222.5 298,-192.5 123,-192.5"/>
<text text-anchor="start" x="130" y="-203.9" font-family="Arial" font-size="14.00" fill="#000000">id </text>
<text text-anchor="start" x="144.7798" y="-203.9" font-family="Arial" font-size="14.00" fill="#666666">[int(10) unsigned]</text>
<polygon fill="none" stroke="#000000" points="123,-162.5 123,-192.5 298,-192.5 298,-162.5 123,-162.5"/>
<text text-anchor="start" x="129.9832" y="-173.9" font-family="Arial" font-size="14.00" fill="#000000">artist_id </text>
<text text-anchor="start" x="182.8766" y="-173.9" font-family="Arial" font-size="14.00" fill="#666666">[int(10) unsigned]</text>
<polygon fill="none" stroke="#000000" points="123,-132.5 123,-162.5 298,-162.5 298,-132.5 123,-132.5"/>
<text text-anchor="start" x="130" y="-143.9" font-family="Arial" font-size="14.00" fill="#000000">name </text>
<text text-anchor="start" x="168.899" y="-143.9" font-family="Arial" font-size="14.00" fill="#666666">[varchar(255)]</text>
<polygon fill="none" stroke="#000000" points="123,-102.5 123,-132.5 298,-132.5 298,-102.5 123,-102.5"/>
<text text-anchor="start" x="130" y="-113.9" font-family="Arial" font-size="14.00" fill="#000000">cover </text>
<text text-anchor="start" x="168.1164" y="-113.9" font-family="Arial" font-size="14.00" fill="#666666">[varchar(255)]</text>
<polygon fill="none" stroke="#000000" points="123,-72.5 123,-102.5 298,-102.5 298,-72.5 123,-72.5"/>
<text text-anchor="start" x="130" y="-83.9" font-family="Arial" font-size="14.00" fill="#000000">created_at </text>
<text text-anchor="start" x="200.028" y="-83.9" font-family="Arial" font-size="14.00" fill="#666666">[timestamp]</text>
<polygon fill="none" stroke="#000000" points="123,-42.5 123,-72.5 298,-72.5 298,-42.5 123,-42.5"/>
<text text-anchor="start" x="130" y="-53.9" font-family="Arial" font-size="14.00" fill="#000000">updated_at </text>
<text text-anchor="start" x="203.9326" y="-53.9" font-family="Arial" font-size="14.00" fill="#666666">[timestamp]</text>
</g>
<!-- songs&#45;&gt;albums -->
<g id="edge3" class="edge">
<title>songs:album_id&#45;&gt;albums:id</title>
<path fill="none" stroke="#000000" d="M244.583,-697.1773C98.9174,-687.8625 188.7293,-478.9123 255,-337 265.5461,-314.4165 287.4539,-323.5835 298,-301 315.583,-263.3476 339.5556,-207.5 298,-207.5"/>
<polygon fill="#000000" stroke="#000000" points="245.0048,-697.1903 254.8606,-701.9978 250.0024,-697.3452 255,-697.5 255,-697.5 255,-697.5 250.0024,-697.3452 255.1394,-693.0022 245.0048,-697.1903 245.0048,-697.1903"/>
<text text-anchor="start" x="7.167" y="-707.5" font-family="Arial" font-size="10.00" fill="#000000">FOREIGN KEY (album_id) REFERENCES albums (id)</text>
</g>
<!-- artists -->
<g id="node5" class="node">
<title>artists</title>
<polygon fill="#efefef" stroke="transparent" points="402,-207.5 402,-242.5 562,-242.5 562,-207.5 402,-207.5"/>
<polygon fill="none" stroke="#000000" points="402,-207.5 402,-242.5 562,-242.5 562,-207.5 402,-207.5"/>
<text text-anchor="start" x="409.3746" y="-220.3" font-family="Arial Bold" font-size="18.00" fill="#000000">artists</text>
<text text-anchor="start" x="457.3716" y="-220.3" font-family="Arial" font-size="14.00" fill="#000000"> </text>
<text text-anchor="start" x="461.2622" y="-220.3" font-family="Arial" font-size="14.00" fill="#666666">[BASE TABLE]</text>
<polygon fill="none" stroke="#000000" points="402,-177.5 402,-207.5 562,-207.5 562,-177.5 402,-177.5"/>
<text text-anchor="start" x="409" y="-188.9" font-family="Arial" font-size="14.00" fill="#000000">id </text>
<text text-anchor="start" x="423.7798" y="-188.9" font-family="Arial" font-size="14.00" fill="#666666">[int(10) unsigned]</text>
<polygon fill="none" stroke="#000000" points="402,-147.5 402,-177.5 562,-177.5 562,-147.5 402,-147.5"/>
<text text-anchor="start" x="409" y="-158.9" font-family="Arial" font-size="14.00" fill="#000000">name </text>
<text text-anchor="start" x="447.899" y="-158.9" font-family="Arial" font-size="14.00" fill="#666666">[varchar(255)]</text>
<polygon fill="none" stroke="#000000" points="402,-117.5 402,-147.5 562,-147.5 562,-117.5 402,-117.5"/>
<text text-anchor="start" x="409" y="-128.9" font-family="Arial" font-size="14.00" fill="#000000">image </text>
<text text-anchor="start" x="451.0056" y="-128.9" font-family="Arial" font-size="14.00" fill="#666666">[varchar(255)]</text>
<polygon fill="none" stroke="#000000" points="402,-87.5 402,-117.5 562,-117.5 562,-87.5 402,-87.5"/>
<text text-anchor="start" x="409" y="-98.9" font-family="Arial" font-size="14.00" fill="#000000">created_at </text>
<text text-anchor="start" x="479.028" y="-98.9" font-family="Arial" font-size="14.00" fill="#666666">[timestamp]</text>
<polygon fill="none" stroke="#000000" points="402,-57.5 402,-87.5 562,-87.5 562,-57.5 402,-57.5"/>
<text text-anchor="start" x="408.8647" y="-68.9" font-family="Arial" font-size="14.00" fill="#000000">updated_at </text>
<text text-anchor="start" x="482.7973" y="-68.9" font-family="Arial" font-size="14.00" fill="#666666">[timestamp]</text>
</g>
<!-- songs&#45;&gt;artists -->
<g id="edge4" class="edge">
<title>songs:artist_id&#45;&gt;artists:id</title>
<path fill="none" stroke="#000000" d="M447.3155,-667.1634C578.8768,-658.2425 479.4484,-473.8715 437,-337 428.8568,-310.7428 410.1432,-312.2572 402,-286 389.6906,-246.3094 360.4444,-192.5 402,-192.5"/>
<polygon fill="#000000" stroke="#000000" points="446.9947,-667.1738 436.8532,-663.0024 441.9973,-667.3369 437,-667.5 437,-667.5 437,-667.5 441.9973,-667.3369 437.1468,-671.9976 446.9947,-667.1738 446.9947,-667.1738"/>
<text text-anchor="start" x="443.727" y="-677.5" font-family="Arial" font-size="10.00" fill="#000000">FOREIGN KEY (artist_id) REFERENCES artists (id)</text>
</g>
<!-- interactions -->
<g id="node2" class="node">
<title>interactions</title>
<polygon fill="#efefef" stroke="transparent" points="88,-1112.5 88,-1147.5 291,-1147.5 291,-1112.5 88,-1112.5"/>
<polygon fill="none" stroke="#000000" points="88,-1112.5 88,-1147.5 291,-1147.5 291,-1112.5 88,-1112.5"/>
<text text-anchor="start" x="94.8651" y="-1125.3" font-family="Arial Bold" font-size="18.00" fill="#000000">interactions</text>
<text text-anchor="start" x="186.8811" y="-1125.3" font-family="Arial" font-size="14.00" fill="#000000"> </text>
<text text-anchor="start" x="190.7717" y="-1125.3" font-family="Arial" font-size="14.00" fill="#666666">[BASE TABLE]</text>
<polygon fill="none" stroke="#000000" points="88,-1082.5 88,-1112.5 291,-1112.5 291,-1082.5 88,-1082.5"/>
<text text-anchor="start" x="95" y="-1093.9" font-family="Arial" font-size="14.00" fill="#000000">id </text>
<text text-anchor="start" x="109.7798" y="-1093.9" font-family="Arial" font-size="14.00" fill="#666666">[bigint(20) unsigned]</text>
<polygon fill="none" stroke="#000000" points="88,-1052.5 88,-1082.5 291,-1082.5 291,-1052.5 88,-1052.5"/>
<text text-anchor="start" x="95" y="-1063.9" font-family="Arial" font-size="14.00" fill="#000000">user_id </text>
<text text-anchor="start" x="144.7882" y="-1063.9" font-family="Arial" font-size="14.00" fill="#666666">[int(10) unsigned]</text>
<polygon fill="none" stroke="#000000" points="88,-1022.5 88,-1052.5 291,-1052.5 291,-1022.5 88,-1022.5"/>
<text text-anchor="start" x="95" y="-1033.9" font-family="Arial" font-size="14.00" fill="#000000">song_id </text>
<text text-anchor="start" x="147.9102" y="-1033.9" font-family="Arial" font-size="14.00" fill="#666666">[varchar(32)]</text>
<polygon fill="none" stroke="#000000" points="88,-992.5 88,-1022.5 291,-1022.5 291,-992.5 88,-992.5"/>
<text text-anchor="start" x="95" y="-1003.9" font-family="Arial" font-size="14.00" fill="#000000">liked </text>
<text text-anchor="start" x="127.669" y="-1003.9" font-family="Arial" font-size="14.00" fill="#666666">[tinyint(1)]</text>
<polygon fill="none" stroke="#000000" points="88,-962.5 88,-992.5 291,-992.5 291,-962.5 88,-962.5"/>
<text text-anchor="start" x="95" y="-973.9" font-family="Arial" font-size="14.00" fill="#000000">play_count </text>
<text text-anchor="start" x="166.5834" y="-973.9" font-family="Arial" font-size="14.00" fill="#666666">[int(11)]</text>
<polygon fill="none" stroke="#000000" points="88,-932.5 88,-962.5 291,-962.5 291,-932.5 88,-932.5"/>
<text text-anchor="start" x="95" y="-943.9" font-family="Arial" font-size="14.00" fill="#000000">created_at </text>
<text text-anchor="start" x="165.028" y="-943.9" font-family="Arial" font-size="14.00" fill="#666666">[timestamp]</text>
<polygon fill="none" stroke="#000000" points="88,-902.5 88,-932.5 291,-932.5 291,-902.5 88,-902.5"/>
<text text-anchor="start" x="95" y="-913.9" font-family="Arial" font-size="14.00" fill="#000000">updated_at </text>
<text text-anchor="start" x="168.9326" y="-913.9" font-family="Arial" font-size="14.00" fill="#666666">[timestamp]</text>
</g>
<!-- interactions&#45;&gt;songs -->
<g id="edge1" class="edge">
<title>interactions:song_id&#45;&gt;songs:id</title>
<path fill="none" stroke="#000000" d="M301.2678,-1036.8244C365.364,-1027.762 319.7743,-929.4674 291,-860 282.3409,-839.095 263.6591,-844.905 255,-824 238.5871,-784.3758 212.1111,-727.5 255,-727.5"/>
<polygon fill="#000000" stroke="#000000" points="300.9784,-1036.8434 290.7045,-1033.0097 295.9892,-1037.1717 291,-1037.5 291,-1037.5 291,-1037.5 295.9892,-1037.1717 291.2955,-1041.9903 300.9784,-1036.8434 300.9784,-1036.8434"/>
<text text-anchor="start" x="297.715" y="-1047.5" font-family="Arial" font-size="10.00" fill="#000000">FOREIGN KEY (song_id) REFERENCES songs (id)</text>
</g>
<!-- playlist_song -->
<g id="node3" class="node">
<title>playlist_song</title>
<polygon fill="#efefef" stroke="transparent" points="395,-1052.5 395,-1087.5 610,-1087.5 610,-1052.5 395,-1052.5"/>
<polygon fill="none" stroke="#000000" points="395,-1052.5 395,-1087.5 610,-1087.5 610,-1052.5 395,-1052.5"/>
<text text-anchor="start" x="401.8621" y="-1065.3" font-family="Arial Bold" font-size="18.00" fill="#000000">playlist_song</text>
<text text-anchor="start" x="505.8841" y="-1065.3" font-family="Arial" font-size="14.00" fill="#000000"> </text>
<text text-anchor="start" x="509.7747" y="-1065.3" font-family="Arial" font-size="14.00" fill="#666666">[BASE TABLE]</text>
<polygon fill="none" stroke="#000000" points="395,-1022.5 395,-1052.5 610,-1052.5 610,-1022.5 395,-1022.5"/>
<text text-anchor="start" x="402" y="-1033.9" font-family="Arial" font-size="14.00" fill="#000000">id </text>
<text text-anchor="start" x="416.7798" y="-1033.9" font-family="Arial" font-size="14.00" fill="#666666">[int(10) unsigned]</text>
<polygon fill="none" stroke="#000000" points="395,-992.5 395,-1022.5 610,-1022.5 610,-992.5 395,-992.5"/>
<text text-anchor="start" x="402" y="-1003.9" font-family="Arial" font-size="14.00" fill="#000000">playlist_id </text>
<text text-anchor="start" x="467.338" y="-1003.9" font-family="Arial" font-size="14.00" fill="#666666">[int(10) unsigned]</text>
<polygon fill="none" stroke="#000000" points="395,-962.5 395,-992.5 610,-992.5 610,-962.5 395,-962.5"/>
<text text-anchor="start" x="402" y="-973.9" font-family="Arial" font-size="14.00" fill="#000000">song_id </text>
<text text-anchor="start" x="454.9102" y="-973.9" font-family="Arial" font-size="14.00" fill="#666666">[varchar(32)]</text>
</g>
<!-- playlist_song&#45;&gt;songs -->
<g id="edge2" class="edge">
<title>playlist_song:song_id&#45;&gt;songs:id</title>
<path fill="none" stroke="#000000" d="M385.3142,-974.5852C376.2608,-966.0666 390.7078,-940.5194 395,-920 412.9293,-834.2869 524.5682,-727.5 437,-727.5"/>
<polygon fill="#000000" stroke="#000000" points="385.4242,-974.6182 393.7032,-981.8091 390.2121,-976.0591 395,-977.5 395,-977.5 395,-977.5 390.2121,-976.0591 396.2968,-973.1909 385.4242,-974.6182 385.4242,-974.6182"/>
<text text-anchor="start" x="340.715" y="-961.5" font-family="Arial" font-size="10.00" fill="#000000">FOREIGN KEY (song_id) REFERENCES songs (id)</text>
</g>
</g>
</svg>
