<?xml version="1.0" encoding="UTF-8" standalone="no"?>
<!DOCTYPE svg PUBLIC "-//W3C//DTD SVG 1.1//EN"
 "http://www.w3.org/Graphics/SVG/1.1/DTD/svg11.dtd">
<!-- Generated by graphviz version 2.40.1 (20161225.0304)
 -->
<!-- Title: activity_contact Pages: 1 -->
<svg width="1129pt" height="1792pt"
 viewBox="0.00 0.00 1129.00 1792.00" xmlns="http://www.w3.org/2000/svg" xmlns:xlink="http://www.w3.org/1999/xlink">
<g id="graph0" class="graph" transform="scale(1 1) rotate(0) translate(4 1788)">
<title>activity_contact</title>
<polygon fill="#ffffff" stroke="transparent" points="-4,4 -4,-1788 1125,-1788 1125,4 -4,4"/>
<!-- activity_contact -->
<g id="node1" class="node">
<title>activity_contact</title>
<polygon fill="#efefef" stroke="transparent" points="397.5,-1702.5 397.5,-1737.5 631.5,-1737.5 631.5,-1702.5 397.5,-1702.5"/>
<polygon fill="none" stroke="#000000" points="397.5,-1702.5 397.5,-1737.5 631.5,-1737.5 631.5,-1702.5 397.5,-1702.5"/>
<text text-anchor="start" x="404.359" y="-1715.3" font-family="Arial Bold" font-size="18.00" fill="#000000">activity_contact</text>
<text text-anchor="start" x="527.3872" y="-1715.3" font-family="Arial" font-size="14.00" fill="#000000"> </text>
<text text-anchor="start" x="531.2778" y="-1715.3" font-family="Arial" font-size="14.00" fill="#666666">[BASE TABLE]</text>
<polygon fill="none" stroke="#000000" points="397.5,-1672.5 397.5,-1702.5 631.5,-1702.5 631.5,-1672.5 397.5,-1672.5"/>
<text text-anchor="start" x="404.5" y="-1683.9" font-family="Arial" font-size="14.00" fill="#000000">activity_id </text>
<text text-anchor="start" x="469.8394" y="-1683.9" font-family="Arial" font-size="14.00" fill="#666666">[int(10) unsigned]</text>
<polygon fill="none" stroke="#000000" points="397.5,-1642.5 397.5,-1672.5 631.5,-1672.5 631.5,-1642.5 397.5,-1642.5"/>
<text text-anchor="start" x="404.5" y="-1653.9" font-family="Arial" font-size="14.00" fill="#000000">contact_id </text>
<text text-anchor="start" x="472.1914" y="-1653.9" font-family="Arial" font-size="14.00" fill="#666666">[int(10) unsigned]</text>
<polygon fill="none" stroke="#000000" points="397.5,-1612.5 397.5,-1642.5 631.5,-1642.5 631.5,-1612.5 397.5,-1612.5"/>
<text text-anchor="start" x="404.5" y="-1623.9" font-family="Arial" font-size="14.00" fill="#000000">account_id </text>
<text text-anchor="start" x="476.0834" y="-1623.9" font-family="Arial" font-size="14.00" fill="#666666">[int(10) unsigned]</text>
<polygon fill="none" stroke="#000000" stroke-width="3" points="396,-1611.5 396,-1739.5 633,-1739.5 633,-1611.5 396,-1611.5"/>
</g>
<!-- activities -->
<g id="node2" class="node">
<title>activities</title>
<polygon fill="#efefef" stroke="transparent" points="43.5,-867.5 43.5,-902.5 264.5,-902.5 264.5,-867.5 43.5,-867.5"/>
<polygon fill="none" stroke="#000000" points="43.5,-867.5 43.5,-902.5 264.5,-902.5 264.5,-867.5 43.5,-867.5"/>
<text text-anchor="start" x="70.8734" y="-880.3" font-family="Arial Bold" font-size="18.00" fill="#000000">activities</text>
<text text-anchor="start" x="139.8728" y="-880.3" font-family="Arial" font-size="14.00" fill="#000000"> </text>
<text text-anchor="start" x="143.7634" y="-880.3" font-family="Arial" font-size="14.00" fill="#666666">[BASE TABLE]</text>
<polygon fill="none" stroke="#000000" points="43.5,-837.5 43.5,-867.5 264.5,-867.5 264.5,-837.5 43.5,-837.5"/>
<text text-anchor="start" x="50.5" y="-848.9" font-family="Arial" font-size="14.00" fill="#000000">id </text>
<text text-anchor="start" x="65.2798" y="-848.9" font-family="Arial" font-size="14.00" fill="#666666">[int(10) unsigned]</text>
<polygon fill="none" stroke="#000000" points="43.5,-807.5 43.5,-837.5 264.5,-837.5 264.5,-807.5 43.5,-807.5"/>
<text text-anchor="start" x="50.5" y="-818.9" font-family="Arial" font-size="14.00" fill="#000000">account_id </text>
<text text-anchor="start" x="122.0834" y="-818.9" font-family="Arial" font-size="14.00" fill="#666666">[int(10) unsigned]</text>
<polygon fill="none" stroke="#000000" points="43.5,-777.5 43.5,-807.5 264.5,-807.5 264.5,-777.5 43.5,-777.5"/>
<text text-anchor="start" x="50.141" y="-788.9" font-family="Arial" font-size="14.00" fill="#000000">activity_type_id </text>
<text text-anchor="start" x="149.7188" y="-788.9" font-family="Arial" font-size="14.00" fill="#666666">[int(10) unsigned]</text>
<polygon fill="none" stroke="#000000" points="43.5,-747.5 43.5,-777.5 264.5,-777.5 264.5,-747.5 43.5,-747.5"/>
<text text-anchor="start" x="50.5" y="-758.9" font-family="Arial" font-size="14.00" fill="#000000">summary </text>
<text text-anchor="start" x="111.9376" y="-758.9" font-family="Arial" font-size="14.00" fill="#666666">[varchar(255)]</text>
<polygon fill="none" stroke="#000000" points="43.5,-717.5 43.5,-747.5 264.5,-747.5 264.5,-717.5 43.5,-717.5"/>
<text text-anchor="start" x="50.5" y="-728.9" font-family="Arial" font-size="14.00" fill="#000000">description </text>
<text text-anchor="start" x="122.068" y="-728.9" font-family="Arial" font-size="14.00" fill="#666666">[longtext]</text>
<polygon fill="none" stroke="#000000" points="43.5,-687.5 43.5,-717.5 264.5,-717.5 264.5,-687.5 43.5,-687.5"/>
<text text-anchor="start" x="50.5" y="-698.9" font-family="Arial" font-size="14.00" fill="#000000">happened_at </text>
<text text-anchor="start" x="136.1072" y="-698.9" font-family="Arial" font-size="14.00" fill="#666666">[date]</text>
<polygon fill="none" stroke="#000000" points="43.5,-657.5 43.5,-687.5 264.5,-687.5 264.5,-657.5 43.5,-657.5"/>
<text text-anchor="start" x="50.5" y="-668.9" font-family="Arial" font-size="14.00" fill="#000000">created_at </text>
<text text-anchor="start" x="120.528" y="-668.9" font-family="Arial" font-size="14.00" fill="#666666">[timestamp]</text>
<polygon fill="none" stroke="#000000" points="43.5,-627.5 43.5,-657.5 264.5,-657.5 264.5,-627.5 43.5,-627.5"/>
<text text-anchor="start" x="50.5" y="-638.9" font-family="Arial" font-size="14.00" fill="#000000">updated_at </text>
<text text-anchor="start" x="124.4326" y="-638.9" font-family="Arial" font-size="14.00" fill="#666666">[timestamp]</text>
</g>
<!-- activity_contact&#45;&gt;activities -->
<g id="edge1" class="edge">
<title>activity_contact:activity_id&#45;&gt;activities:id</title>
<path fill="none" stroke="#000000" d="M387.4904,-1687.0174C320.5243,-1680.2331 336.1415,-1603.101 315.5,-1531 294.6922,-1458.3183 340.1016,-852.5 264.5,-852.5"/>
<polygon fill="#000000" stroke="#000000" points="387.5116,-1687.0184 397.2833,-1691.9948 392.5058,-1687.2592 397.5,-1687.5 397.5,-1687.5 397.5,-1687.5 392.5058,-1687.2592 397.7167,-1683.0052 387.5116,-1687.0184 387.5116,-1687.0184"/>
<text text-anchor="start" x="139.948" y="-1697.5" font-family="Arial" font-size="10.00" fill="#000000">FOREIGN KEY (activity_id) REFERENCES activities (id)</text>
</g>
<!-- contacts -->
<g id="node3" class="node">
<title>contacts</title>
<polygon fill="#efefef" stroke="transparent" points="368.5,-1452.5 368.5,-1487.5 659.5,-1487.5 659.5,-1452.5 368.5,-1452.5"/>
<polygon fill="none" stroke="#000000" points="368.5,-1452.5 368.5,-1487.5 659.5,-1487.5 659.5,-1452.5 368.5,-1452.5"/>
<text text-anchor="start" x="431.8616" y="-1465.3" font-family="Arial Bold" font-size="18.00" fill="#000000">contacts</text>
<text text-anchor="start" x="498.8846" y="-1465.3" font-family="Arial" font-size="14.00" fill="#000000"> </text>
<text text-anchor="start" x="502.7752" y="-1465.3" font-family="Arial" font-size="14.00" fill="#666666">[BASE TABLE]</text>
<polygon fill="none" stroke="#000000" points="368.5,-1422.5 368.5,-1452.5 659.5,-1452.5 659.5,-1422.5 368.5,-1422.5"/>
<text text-anchor="start" x="375.5" y="-1433.9" font-family="Arial" font-size="14.00" fill="#000000">id </text>
<text text-anchor="start" x="390.2798" y="-1433.9" font-family="Arial" font-size="14.00" fill="#666666">[int(10) unsigned]</text>
<polygon fill="none" stroke="#000000" points="368.5,-1392.5 368.5,-1422.5 659.5,-1422.5 659.5,-1392.5 368.5,-1392.5"/>
<text text-anchor="start" x="375.5" y="-1403.9" font-family="Arial" font-size="14.00" fill="#000000">account_id </text>
<text text-anchor="start" x="447.0834" y="-1403.9" font-family="Arial" font-size="14.00" fill="#666666">[int(10) unsigned]</text>
<polygon fill="none" stroke="#000000" points="368.5,-1362.5 368.5,-1392.5 659.5,-1392.5 659.5,-1362.5 368.5,-1362.5"/>
<text text-anchor="start" x="375.5" y="-1373.9" font-family="Arial" font-size="14.00" fill="#000000">address_book_id </text>
<text text-anchor="start" x="485.9838" y="-1373.9" font-family="Arial" font-size="14.00" fill="#666666">[bigint(20) unsigned]</text>
<polygon fill="none" stroke="#000000" points="368.5,-1332.5 368.5,-1362.5 659.5,-1362.5 659.5,-1332.5 368.5,-1332.5"/>
<text text-anchor="start" x="375.5" y="-1343.9" font-family="Arial" font-size="14.00" fill="#000000">first_name </text>
<text text-anchor="start" x="444.73" y="-1343.9" font-family="Arial" font-size="14.00" fill="#666666">[varchar(255)]</text>
<polygon fill="none" stroke="#000000" points="368.5,-1302.5 368.5,-1332.5 659.5,-1332.5 659.5,-1302.5 368.5,-1302.5"/>
<text text-anchor="start" x="375.5" y="-1313.9" font-family="Arial" font-size="14.00" fill="#000000">middle_name </text>
<text text-anchor="start" x="463.4032" y="-1313.9" font-family="Arial" font-size="14.00" fill="#666666">[varchar(255)]</text>
<polygon fill="none" stroke="#000000" points="368.5,-1272.5 368.5,-1302.5 659.5,-1302.5 659.5,-1272.5 368.5,-1272.5"/>
<text text-anchor="start" x="375.5" y="-1283.9" font-family="Arial" font-size="14.00" fill="#000000">last_name </text>
<text text-anchor="start" x="443.9614" y="-1283.9" font-family="Arial" font-size="14.00" fill="#666666">[varchar(255)]</text>
<polygon fill="none" stroke="#000000" points="368.5,-1242.5 368.5,-1272.5 659.5,-1272.5 659.5,-1242.5 368.5,-1242.5"/>
<text text-anchor="start" x="375.5" y="-1253.9" font-family="Arial" font-size="14.00" fill="#000000">nickname </text>
<text text-anchor="start" x="439.2882" y="-1253.9" font-family="Arial" font-size="14.00" fill="#666666">[varchar(255)]</text>
<polygon fill="none" stroke="#000000" points="368.5,-1212.5 368.5,-1242.5 659.5,-1242.5 659.5,-1212.5 368.5,-1212.5"/>
<text text-anchor="start" x="375.5" y="-1223.9" font-family="Arial" font-size="14.00" fill="#000000">gender_id </text>
<text text-anchor="start" x="441.636" y="-1223.9" font-family="Arial" font-size="14.00" fill="#666666">[int(11)]</text>
<polygon fill="none" stroke="#000000" points="368.5,-1182.5 368.5,-1212.5 659.5,-1212.5 659.5,-1182.5 368.5,-1182.5"/>
<text text-anchor="start" x="375.5" y="-1193.9" font-family="Arial" font-size="14.00" fill="#000000">description </text>
<text text-anchor="start" x="447.068" y="-1193.9" font-family="Arial" font-size="14.00" fill="#666666">[varchar(255)]</text>
<polygon fill="none" stroke="#000000" points="368.5,-1152.5 368.5,-1182.5 659.5,-1182.5 659.5,-1152.5 368.5,-1152.5"/>
<text text-anchor="start" x="375.5" y="-1163.9" font-family="Arial" font-size="14.00" fill="#000000">uuid </text>
<text text-anchor="start" x="405.845" y="-1163.9" font-family="Arial" font-size="14.00" fill="#666666">[char(36)]</text>
<polygon fill="none" stroke="#000000" points="368.5,-1122.5 368.5,-1152.5 659.5,-1152.5 659.5,-1122.5 368.5,-1122.5"/>
<text text-anchor="start" x="375.5" y="-1133.9" font-family="Arial" font-size="14.00" fill="#000000">is_starred </text>
<text text-anchor="start" x="440.8394" y="-1133.9" font-family="Arial" font-size="14.00" fill="#666666">[tinyint(1)]</text>
<polygon fill="none" stroke="#000000" points="368.5,-1092.5 368.5,-1122.5 659.5,-1122.5 659.5,-1092.5 368.5,-1092.5"/>
<text text-anchor="start" x="375.5" y="-1103.9" font-family="Arial" font-size="14.00" fill="#000000">is_partial </text>
<text text-anchor="start" x="435.392" y="-1103.9" font-family="Arial" font-size="14.00" fill="#666666">[tinyint(1)]</text>
<polygon fill="none" stroke="#000000" points="368.5,-1062.5 368.5,-1092.5 659.5,-1092.5 659.5,-1062.5 368.5,-1062.5"/>
<text text-anchor="start" x="375.5" y="-1073.9" font-family="Arial" font-size="14.00" fill="#000000">is_active </text>
<text text-anchor="start" x="433.8422" y="-1073.9" font-family="Arial" font-size="14.00" fill="#666666">[tinyint(1)]</text>
<polygon fill="none" stroke="#000000" points="368.5,-1032.5 368.5,-1062.5 659.5,-1062.5 659.5,-1032.5 368.5,-1032.5"/>
<text text-anchor="start" x="375.5" y="-1043.9" font-family="Arial" font-size="14.00" fill="#000000">is_dead </text>
<text text-anchor="start" x="428.4102" y="-1043.9" font-family="Arial" font-size="14.00" fill="#666666">[tinyint(1)]</text>
<polygon fill="none" stroke="#000000" points="368.5,-1002.5 368.5,-1032.5 659.5,-1032.5 659.5,-1002.5 368.5,-1002.5"/>
<text text-anchor="start" x="375.1186" y="-1013.9" font-family="Arial" font-size="14.00" fill="#000000">deceased_special_date_id </text>
<text text-anchor="start" x="544.7412" y="-1013.9" font-family="Arial" font-size="14.00" fill="#666666">[int(10) unsigned]</text>
<polygon fill="none" stroke="#000000" points="368.5,-972.5 368.5,-1002.5 659.5,-1002.5 659.5,-972.5 368.5,-972.5"/>
<text text-anchor="start" x="375.5" y="-983.9" font-family="Arial" font-size="14.00" fill="#000000">deceased_reminder_id </text>
<text text-anchor="start" x="521.7594" y="-983.9" font-family="Arial" font-size="14.00" fill="#666666">[int(10) unsigned]</text>
<polygon fill="none" stroke="#000000" points="368.5,-942.5 368.5,-972.5 659.5,-972.5 659.5,-942.5 368.5,-942.5"/>
<text text-anchor="start" x="375.5" y="-953.9" font-family="Arial" font-size="14.00" fill="#000000">last_talked_to </text>
<text text-anchor="start" x="465.7538" y="-953.9" font-family="Arial" font-size="14.00" fill="#666666">[date]</text>
<polygon fill="none" stroke="#000000" points="368.5,-912.5 368.5,-942.5 659.5,-942.5 659.5,-912.5 368.5,-912.5"/>
<text text-anchor="start" x="375.5" y="-923.9" font-family="Arial" font-size="14.00" fill="#000000">stay_in_touch_frequency </text>
<text text-anchor="start" x="535.0034" y="-923.9" font-family="Arial" font-size="14.00" fill="#666666">[int(11)]</text>
<polygon fill="none" stroke="#000000" points="368.5,-882.5 368.5,-912.5 659.5,-912.5 659.5,-882.5 368.5,-882.5"/>
<text text-anchor="start" x="375.5" y="-893.9" font-family="Arial" font-size="14.00" fill="#000000">stay_in_touch_trigger_date </text>
<text text-anchor="start" x="548.2264" y="-893.9" font-family="Arial" font-size="14.00" fill="#666666">[datetime]</text>
<polygon fill="none" stroke="#000000" points="368.5,-852.5 368.5,-882.5 659.5,-882.5 659.5,-852.5 368.5,-852.5"/>
<text text-anchor="start" x="375.5" y="-863.9" font-family="Arial" font-size="14.00" fill="#000000">birthday_special_date_id </text>
<text text-anchor="start" x="534.2152" y="-863.9" font-family="Arial" font-size="14.00" fill="#666666">[int(10) unsigned]</text>
<polygon fill="none" stroke="#000000" points="368.5,-822.5 368.5,-852.5 659.5,-852.5 659.5,-822.5 368.5,-822.5"/>
<text text-anchor="start" x="375.5" y="-833.9" font-family="Arial" font-size="14.00" fill="#000000">birthday_reminder_id </text>
<text text-anchor="start" x="510.852" y="-833.9" font-family="Arial" font-size="14.00" fill="#666666">[int(10) unsigned]</text>
<polygon fill="none" stroke="#000000" points="368.5,-792.5 368.5,-822.5 659.5,-822.5 659.5,-792.5 368.5,-792.5"/>
<text text-anchor="start" x="375.5" y="-803.9" font-family="Arial" font-size="14.00" fill="#000000">first_met_through_contact_id </text>
<text text-anchor="start" x="559.8856" y="-803.9" font-family="Arial" font-size="14.00" fill="#666666">[int(11)]</text>
<polygon fill="none" stroke="#000000" points="368.5,-762.5 368.5,-792.5 659.5,-792.5 659.5,-762.5 368.5,-762.5"/>
<text text-anchor="start" x="375.5" y="-773.9" font-family="Arial" font-size="14.00" fill="#000000">first_met_special_date_id </text>
<text text-anchor="start" x="538.0918" y="-773.9" font-family="Arial" font-size="14.00" fill="#666666">[int(10) unsigned]</text>
<polygon fill="none" stroke="#000000" points="368.5,-732.5 368.5,-762.5 659.5,-762.5 659.5,-732.5 368.5,-732.5"/>
<text text-anchor="start" x="375.5" y="-743.9" font-family="Arial" font-size="14.00" fill="#000000">first_met_reminder_id </text>
<text text-anchor="start" x="514.7286" y="-743.9" font-family="Arial" font-size="14.00" fill="#666666">[int(10) unsigned]</text>
<polygon fill="none" stroke="#000000" points="368.5,-702.5 368.5,-732.5 659.5,-732.5 659.5,-702.5 368.5,-702.5"/>
<text text-anchor="start" x="375.5" y="-713.9" font-family="Arial" font-size="14.00" fill="#000000">first_met_where </text>
<text text-anchor="start" x="478.953" y="-713.9" font-family="Arial" font-size="14.00" fill="#666666">[varchar(255)]</text>
<polygon fill="none" stroke="#000000" points="368.5,-672.5 368.5,-702.5 659.5,-702.5 659.5,-672.5 368.5,-672.5"/>
<text text-anchor="start" x="375.5" y="-683.9" font-family="Arial" font-size="14.00" fill="#000000">first_met_additional_info </text>
<text text-anchor="start" x="531.089" y="-683.9" font-family="Arial" font-size="14.00" fill="#666666">[longtext]</text>
<polygon fill="none" stroke="#000000" points="368.5,-642.5 368.5,-672.5 659.5,-672.5 659.5,-642.5 368.5,-642.5"/>
<text text-anchor="start" x="375.5" y="-653.9" font-family="Arial" font-size="14.00" fill="#000000">job </text>
<text text-anchor="start" x="398.0624" y="-653.9" font-family="Arial" font-size="14.00" fill="#666666">[varchar(255)]</text>
<polygon fill="none" stroke="#000000" points="368.5,-612.5 368.5,-642.5 659.5,-642.5 659.5,-612.5 368.5,-612.5"/>
<text text-anchor="start" x="375.5" y="-623.9" font-family="Arial" font-size="14.00" fill="#000000">company </text>
<text text-anchor="start" x="436.1816" y="-623.9" font-family="Arial" font-size="14.00" fill="#666666">[varchar(255)]</text>
<polygon fill="none" stroke="#000000" points="368.5,-582.5 368.5,-612.5 659.5,-612.5 659.5,-582.5 368.5,-582.5"/>
<text text-anchor="start" x="375.5" y="-593.9" font-family="Arial" font-size="14.00" fill="#000000">food_preferences </text>
<text text-anchor="start" x="488.319" y="-593.9" font-family="Arial" font-size="14.00" fill="#666666">[longtext]</text>
<polygon fill="none" stroke="#000000" points="368.5,-552.5 368.5,-582.5 659.5,-582.5 659.5,-552.5 368.5,-552.5"/>
<text text-anchor="start" x="375.5" y="-563.9" font-family="Arial" font-size="14.00" fill="#000000">avatar_source </text>
<text text-anchor="start" x="468.0806" y="-563.9" font-family="Arial" font-size="14.00" fill="#666666">[varchar(255)]</text>
<polygon fill="none" stroke="#000000" points="368.5,-522.5 368.5,-552.5 659.5,-552.5 659.5,-522.5 368.5,-522.5"/>
<text text-anchor="start" x="375.5" y="-533.9" font-family="Arial" font-size="14.00" fill="#000000">avatar_gravatar_url </text>
<text text-anchor="start" x="500.7468" y="-533.9" font-family="Arial" font-size="14.00" fill="#666666">[varchar(250)]</text>
<polygon fill="none" stroke="#000000" points="368.5,-492.5 368.5,-522.5 659.5,-522.5 659.5,-492.5 368.5,-492.5"/>
<text text-anchor="start" x="375.5" y="-503.9" font-family="Arial" font-size="14.00" fill="#000000">avatar_adorable_uuid </text>
<text text-anchor="start" x="514.772" y="-503.9" font-family="Arial" font-size="14.00" fill="#666666">[char(36)]</text>
<polygon fill="none" stroke="#000000" points="368.5,-462.5 368.5,-492.5 659.5,-492.5 659.5,-462.5 368.5,-462.5"/>
<text text-anchor="start" x="375.5" y="-473.9" font-family="Arial" font-size="14.00" fill="#000000">avatar_adorable_url </text>
<text text-anchor="start" x="503.8674" y="-473.9" font-family="Arial" font-size="14.00" fill="#666666">[varchar(250)]</text>
<polygon fill="none" stroke="#000000" points="368.5,-432.5 368.5,-462.5 659.5,-462.5 659.5,-432.5 368.5,-432.5"/>
<text text-anchor="start" x="375.5" y="-443.9" font-family="Arial" font-size="14.00" fill="#000000">avatar_default_url </text>
<text text-anchor="start" x="491.4228" y="-443.9" font-family="Arial" font-size="14.00" fill="#666666">[varchar(250)]</text>
<polygon fill="none" stroke="#000000" points="368.5,-402.5 368.5,-432.5 659.5,-432.5 659.5,-402.5 368.5,-402.5"/>
<text text-anchor="start" x="375.5" y="-413.9" font-family="Arial" font-size="14.00" fill="#000000">avatar_photo_id </text>
<text text-anchor="start" x="479.765" y="-413.9" font-family="Arial" font-size="14.00" fill="#666666">[int(10) unsigned]</text>
<polygon fill="none" stroke="#000000" points="368.5,-372.5 368.5,-402.5 659.5,-402.5 659.5,-372.5 368.5,-372.5"/>
<text text-anchor="start" x="375.5" y="-383.9" font-family="Arial" font-size="14.00" fill="#000000">has_avatar </text>
<text text-anchor="start" x="448.6374" y="-383.9" font-family="Arial" font-size="14.00" fill="#666666">[tinyint(1)]</text>
<polygon fill="none" stroke="#000000" points="368.5,-342.5 368.5,-372.5 659.5,-372.5 659.5,-342.5 368.5,-342.5"/>
<text text-anchor="start" x="375.5" y="-353.9" font-family="Arial" font-size="14.00" fill="#000000">avatar_external_url </text>
<text text-anchor="start" x="499.1928" y="-353.9" font-family="Arial" font-size="14.00" fill="#666666">[varchar(400)]</text>
<polygon fill="none" stroke="#000000" points="368.5,-312.5 368.5,-342.5 659.5,-342.5 659.5,-312.5 368.5,-312.5"/>
<text text-anchor="start" x="375.5" y="-323.9" font-family="Arial" font-size="14.00" fill="#000000">avatar_file_name </text>
<text text-anchor="start" x="486.7496" y="-323.9" font-family="Arial" font-size="14.00" fill="#666666">[varchar(255)]</text>
<polygon fill="none" stroke="#000000" points="368.5,-282.5 368.5,-312.5 659.5,-312.5 659.5,-282.5 368.5,-282.5"/>
<text text-anchor="start" x="375.5" y="-293.9" font-family="Arial" font-size="14.00" fill="#000000">avatar_location </text>
<text text-anchor="start" x="474.3064" y="-293.9" font-family="Arial" font-size="14.00" fill="#666666">[varchar(255)]</text>
<polygon fill="none" stroke="#000000" points="368.5,-252.5 368.5,-282.5 659.5,-282.5 659.5,-252.5 368.5,-252.5"/>
<text text-anchor="start" x="375.5" y="-263.9" font-family="Arial" font-size="14.00" fill="#000000">gravatar_url </text>
<text text-anchor="start" x="454.0652" y="-263.9" font-family="Arial" font-size="14.00" fill="#666666">[varchar(255)]</text>
<polygon fill="none" stroke="#000000" points="368.5,-222.5 368.5,-252.5 659.5,-252.5 659.5,-222.5 368.5,-222.5"/>
<text text-anchor="start" x="375.5" y="-233.9" font-family="Arial" font-size="14.00" fill="#000000">vcard </text>
<text text-anchor="start" x="413.6164" y="-233.9" font-family="Arial" font-size="14.00" fill="#666666">[mediumtext]</text>
<polygon fill="none" stroke="#000000" points="368.5,-192.5 368.5,-222.5 659.5,-222.5 659.5,-192.5 368.5,-192.5"/>
<text text-anchor="start" x="375.5" y="-203.9" font-family="Arial" font-size="14.00" fill="#000000">last_consulted_at </text>
<text text-anchor="start" x="488.319" y="-203.9" font-family="Arial" font-size="14.00" fill="#666666">[timestamp]</text>
<polygon fill="none" stroke="#000000" points="368.5,-162.5 368.5,-192.5 659.5,-192.5 659.5,-162.5 368.5,-162.5"/>
<text text-anchor="start" x="375.5" y="-173.9" font-family="Arial" font-size="14.00" fill="#000000">number_of_views </text>
<text text-anchor="start" x="489.0764" y="-173.9" font-family="Arial" font-size="14.00" fill="#666666">[int(11)]</text>
<polygon fill="none" stroke="#000000" points="368.5,-132.5 368.5,-162.5 659.5,-162.5 659.5,-132.5 368.5,-132.5"/>
<text text-anchor="start" x="375.5" y="-143.9" font-family="Arial" font-size="14.00" fill="#000000">created_at </text>
<text text-anchor="start" x="445.528" y="-143.9" font-family="Arial" font-size="14.00" fill="#666666">[timestamp]</text>
<polygon fill="none" stroke="#000000" points="368.5,-102.5 368.5,-132.5 659.5,-132.5 659.5,-102.5 368.5,-102.5"/>
<text text-anchor="start" x="375.5" y="-113.9" font-family="Arial" font-size="14.00" fill="#000000">updated_at </text>
<text text-anchor="start" x="449.4326" y="-113.9" font-family="Arial" font-size="14.00" fill="#666666">[timestamp]</text>
<polygon fill="none" stroke="#000000" points="368.5,-72.5 368.5,-102.5 659.5,-102.5 659.5,-72.5 368.5,-72.5"/>
<text text-anchor="start" x="375.5" y="-83.9" font-family="Arial" font-size="14.00" fill="#000000">default_avatar_color </text>
<text text-anchor="start" x="506.2054" y="-83.9" font-family="Arial" font-size="14.00" fill="#666666">[varchar(255)]</text>
<polygon fill="none" stroke="#000000" points="368.5,-42.5 368.5,-72.5 659.5,-72.5 659.5,-42.5 368.5,-42.5"/>
<text text-anchor="start" x="375.5" y="-53.9" font-family="Arial" font-size="14.00" fill="#000000">has_avatar_bool </text>
<text text-anchor="start" x="482.8744" y="-53.9" font-family="Arial" font-size="14.00" fill="#666666">[tinyint(1)]</text>
</g>
<!-- activity_contact&#45;&gt;contacts -->
<g id="edge2" class="edge">
<title>activity_contact:contact_id&#45;&gt;contacts:id</title>
<path fill="none" stroke="#000000" d="M387.5775,-1655.9873C359.9741,-1646.4779 373.5434,-1594.4734 397.5,-1567 474.7486,-1478.4113 582.2514,-1619.5887 659.5,-1531 686.8111,-1499.6796 701.0556,-1437.5 659.5,-1437.5"/>
<polygon fill="#000000" stroke="#000000" points="387.6142,-1655.9928 396.8218,-1661.9486 392.5571,-1656.7464 397.5,-1657.5 397.5,-1657.5 397.5,-1657.5 392.5571,-1656.7464 398.1782,-1653.0514 387.6142,-1655.9928 387.6142,-1655.9928"/>
<text text-anchor="start" x="139.657" y="-1667.5" font-family="Arial" font-size="10.00" fill="#000000">FOREIGN KEY (contact_id) REFERENCES contacts (id)</text>
</g>
<!-- accounts -->
<g id="node4" class="node">
<title>accounts</title>
<polygon fill="#efefef" stroke="transparent" points="763.5,-942.5 763.5,-977.5 1078.5,-977.5 1078.5,-942.5 763.5,-942.5"/>
<polygon fill="none" stroke="#000000" points="763.5,-942.5 763.5,-977.5 1078.5,-977.5 1078.5,-942.5 763.5,-942.5"/>
<text text-anchor="start" x="836.3596" y="-955.3" font-family="Arial Bold" font-size="18.00" fill="#000000">accounts</text>
<text text-anchor="start" x="908.3866" y="-955.3" font-family="Arial" font-size="14.00" fill="#000000"> </text>
<text text-anchor="start" x="912.2772" y="-955.3" font-family="Arial" font-size="14.00" fill="#666666">[BASE TABLE]</text>
<polygon fill="none" stroke="#000000" points="763.5,-912.5 763.5,-942.5 1078.5,-942.5 1078.5,-912.5 763.5,-912.5"/>
<text text-anchor="start" x="770.5" y="-923.9" font-family="Arial" font-size="14.00" fill="#000000">id </text>
<text text-anchor="start" x="785.2798" y="-923.9" font-family="Arial" font-size="14.00" fill="#666666">[int(10) unsigned]</text>
<polygon fill="none" stroke="#000000" points="763.5,-882.5 763.5,-912.5 1078.5,-912.5 1078.5,-882.5 763.5,-882.5"/>
<text text-anchor="start" x="770.073" y="-893.9" font-family="Arial" font-size="14.00" fill="#000000">has_access_to_paid_version_for_free </text>
<text text-anchor="start" x="1010.4824" y="-893.9" font-family="Arial" font-size="14.00" fill="#666666">[tinyint(1)]</text>
<polygon fill="none" stroke="#000000" points="763.5,-852.5 763.5,-882.5 1078.5,-882.5 1078.5,-852.5 763.5,-852.5"/>
<text text-anchor="start" x="770.5" y="-863.9" font-family="Arial" font-size="14.00" fill="#000000">api_key </text>
<text text-anchor="start" x="822.6276" y="-863.9" font-family="Arial" font-size="14.00" fill="#666666">[varchar(255)]</text>
<polygon fill="none" stroke="#000000" points="763.5,-822.5 763.5,-852.5 1078.5,-852.5 1078.5,-822.5 763.5,-822.5"/>
<text text-anchor="start" x="770.5" y="-833.9" font-family="Arial" font-size="14.00" fill="#000000">number_of_invitations_sent </text>
<text text-anchor="start" x="945.5504" y="-833.9" font-family="Arial" font-size="14.00" fill="#666666">[int(11)]</text>
<polygon fill="none" stroke="#000000" points="763.5,-792.5 763.5,-822.5 1078.5,-822.5 1078.5,-792.5 763.5,-792.5"/>
<text text-anchor="start" x="770.5" y="-803.9" font-family="Arial" font-size="14.00" fill="#000000">default_time_reminder_is_sent </text>
<text text-anchor="start" x="965.7608" y="-803.9" font-family="Arial" font-size="14.00" fill="#666666">[varchar(255)]</text>
<polygon fill="none" stroke="#000000" points="763.5,-762.5 763.5,-792.5 1078.5,-792.5 1078.5,-762.5 763.5,-762.5"/>
<text text-anchor="start" x="770.5" y="-773.9" font-family="Arial" font-size="14.00" fill="#000000">default_gender_id </text>
<text text-anchor="start" x="886.4368" y="-773.9" font-family="Arial" font-size="14.00" fill="#666666">[int(10) unsigned]</text>
<polygon fill="none" stroke="#000000" points="763.5,-732.5 763.5,-762.5 1078.5,-762.5 1078.5,-732.5 763.5,-732.5"/>
<text text-anchor="start" x="770.5" y="-743.9" font-family="Arial" font-size="14.00" fill="#000000">stripe_id </text>
<text text-anchor="start" x="827.2854" y="-743.9" font-family="Arial" font-size="14.00" fill="#666666">[varchar(255)]</text>
<polygon fill="none" stroke="#000000" points="763.5,-702.5 763.5,-732.5 1078.5,-732.5 1078.5,-702.5 763.5,-702.5"/>
<text text-anchor="start" x="770.5" y="-713.9" font-family="Arial" font-size="14.00" fill="#000000">card_brand </text>
<text text-anchor="start" x="845.19" y="-713.9" font-family="Arial" font-size="14.00" fill="#666666">[varchar(255)]</text>
<polygon fill="none" stroke="#000000" points="763.5,-672.5 763.5,-702.5 1078.5,-702.5 1078.5,-672.5 763.5,-672.5"/>
<text text-anchor="start" x="770.5" y="-683.9" font-family="Arial" font-size="14.00" fill="#000000">card_last_four </text>
<text text-anchor="start" x="863.0778" y="-683.9" font-family="Arial" font-size="14.00" fill="#666666">[varchar(4)]</text>
<polygon fill="none" stroke="#000000" points="763.5,-642.5 763.5,-672.5 1078.5,-672.5 1078.5,-642.5 763.5,-642.5"/>
<text text-anchor="start" x="770.5" y="-653.9" font-family="Arial" font-size="14.00" fill="#000000">trial_ends_at </text>
<text text-anchor="start" x="854.5238" y="-653.9" font-family="Arial" font-size="14.00" fill="#666666">[timestamp]</text>
<polygon fill="none" stroke="#000000" points="763.5,-612.5 763.5,-642.5 1078.5,-642.5 1078.5,-612.5 763.5,-612.5"/>
<text text-anchor="start" x="770.5" y="-623.9" font-family="Arial" font-size="14.00" fill="#000000">legacy_free_plan_unlimited_contacts </text>
<text text-anchor="start" x="1004.6766" y="-623.9" font-family="Arial" font-size="14.00" fill="#666666">[tinyint(1)]</text>
<polygon fill="none" stroke="#000000" points="763.5,-582.5 763.5,-612.5 1078.5,-612.5 1078.5,-582.5 763.5,-582.5"/>
<text text-anchor="start" x="770.5" y="-593.9" font-family="Arial" font-size="14.00" fill="#000000">created_at </text>
<text text-anchor="start" x="840.528" y="-593.9" font-family="Arial" font-size="14.00" fill="#666666">[timestamp]</text>
<polygon fill="none" stroke="#000000" points="763.5,-552.5 763.5,-582.5 1078.5,-582.5 1078.5,-552.5 763.5,-552.5"/>
<text text-anchor="start" x="770.5" y="-563.9" font-family="Arial" font-size="14.00" fill="#000000">updated_at </text>
<text text-anchor="start" x="844.4326" y="-563.9" font-family="Arial" font-size="14.00" fill="#666666">[timestamp]</text>
</g>
<!-- activity_contact&#45;&gt;accounts -->
<g id="edge3" class="edge">
<title>activity_contact:account_id&#45;&gt;accounts:id</title>
<path fill="none" stroke="#000000" d="M641.6361,-1626.95C687.6921,-1621.6779 691.7296,-1579.2245 711.5,-1531 737.0302,-1468.7261 696.196,-927.5 763.5,-927.5"/>
<polygon fill="#000000" stroke="#000000" points="641.4853,-1626.9581 631.2562,-1623.0066 636.4927,-1627.2291 631.5,-1627.5 631.5,-1627.5 631.5,-1627.5 636.4927,-1627.2291 631.7438,-1631.9934 641.4853,-1626.9581 641.4853,-1626.9581"/>
<text text-anchor="start" x="638.877" y="-1637.5" font-family="Arial" font-size="10.00" fill="#000000">FOREIGN KEY (account_id) REFERENCES accounts (id)</text>
</g>
</g>
</svg>
