<?xml version="1.0" encoding="UTF-8" standalone="no"?>
<!DOCTYPE svg PUBLIC "-//W3C//DTD SVG 1.1//EN"
 "http://www.w3.org/Graphics/SVG/1.1/DTD/svg11.dtd">
<!-- Generated by graphviz version 2.40.1 (20161225.0304)
 -->
<!-- Title: activities Pages: 1 -->
<svg width="832pt" height="1229pt"
 viewBox="0.00 0.00 831.50 1229.00" xmlns="http://www.w3.org/2000/svg" xmlns:xlink="http://www.w3.org/1999/xlink">
<g id="graph0" class="graph" transform="scale(1 1) rotate(0) translate(4 1225)">
<title>activities</title>
<polygon fill="#ffffff" stroke="transparent" points="-4,4 -4,-1225 827.5,-1225 827.5,4 -4,4"/>
<!-- activities -->
<g id="node1" class="node">
<title>activities</title>
<polygon fill="#efefef" stroke="transparent" points="291.5,-832.5 291.5,-867.5 512.5,-867.5 512.5,-832.5 291.5,-832.5"/>
<polygon fill="none" stroke="#000000" points="291.5,-832.5 291.5,-867.5 512.5,-867.5 512.5,-832.5 291.5,-832.5"/>
<text text-anchor="start" x="318.8734" y="-845.3" font-family="Arial Bold" font-size="18.00" fill="#000000">activities</text>
<text text-anchor="start" x="387.8728" y="-845.3" font-family="Arial" font-size="14.00" fill="#000000"> </text>
<text text-anchor="start" x="391.7634" y="-845.3" font-family="Arial" font-size="14.00" fill="#666666">[BASE TABLE]</text>
<polygon fill="none" stroke="#000000" points="291.5,-802.5 291.5,-832.5 512.5,-832.5 512.5,-802.5 291.5,-802.5"/>
<text text-anchor="start" x="298.5" y="-813.9" font-family="Arial" font-size="14.00" fill="#000000">id </text>
<text text-anchor="start" x="313.2798" y="-813.9" font-family="Arial" font-size="14.00" fill="#666666">[int(10) unsigned]</text>
<polygon fill="none" stroke="#000000" points="291.5,-772.5 291.5,-802.5 512.5,-802.5 512.5,-772.5 291.5,-772.5"/>
<text text-anchor="start" x="298.5" y="-783.9" font-family="Arial" font-size="14.00" fill="#000000">account_id </text>
<text text-anchor="start" x="370.0834" y="-783.9" font-family="Arial" font-size="14.00" fill="#666666">[int(10) unsigned]</text>
<polygon fill="none" stroke="#000000" points="291.5,-742.5 291.5,-772.5 512.5,-772.5 512.5,-742.5 291.5,-742.5"/>
<text text-anchor="start" x="298.141" y="-753.9" font-family="Arial" font-size="14.00" fill="#000000">activity_type_id </text>
<text text-anchor="start" x="397.7188" y="-753.9" font-family="Arial" font-size="14.00" fill="#666666">[int(10) unsigned]</text>
<polygon fill="none" stroke="#000000" points="291.5,-712.5 291.5,-742.5 512.5,-742.5 512.5,-712.5 291.5,-712.5"/>
<text text-anchor="start" x="298.5" y="-723.9" font-family="Arial" font-size="14.00" fill="#000000">summary </text>
<text text-anchor="start" x="359.9376" y="-723.9" font-family="Arial" font-size="14.00" fill="#666666">[varchar(255)]</text>
<polygon fill="none" stroke="#000000" points="291.5,-682.5 291.5,-712.5 512.5,-712.5 512.5,-682.5 291.5,-682.5"/>
<text text-anchor="start" x="298.5" y="-693.9" font-family="Arial" font-size="14.00" fill="#000000">description </text>
<text text-anchor="start" x="370.068" y="-693.9" font-family="Arial" font-size="14.00" fill="#666666">[longtext]</text>
<polygon fill="none" stroke="#000000" points="291.5,-652.5 291.5,-682.5 512.5,-682.5 512.5,-652.5 291.5,-652.5"/>
<text text-anchor="start" x="298.5" y="-663.9" font-family="Arial" font-size="14.00" fill="#000000">happened_at </text>
<text text-anchor="start" x="384.1072" y="-663.9" font-family="Arial" font-size="14.00" fill="#666666">[date]</text>
<polygon fill="none" stroke="#000000" points="291.5,-622.5 291.5,-652.5 512.5,-652.5 512.5,-622.5 291.5,-622.5"/>
<text text-anchor="start" x="298.5" y="-633.9" font-family="Arial" font-size="14.00" fill="#000000">created_at </text>
<text text-anchor="start" x="368.528" y="-633.9" font-family="Arial" font-size="14.00" fill="#666666">[timestamp]</text>
<polygon fill="none" stroke="#000000" points="291.5,-592.5 291.5,-622.5 512.5,-622.5 512.5,-592.5 291.5,-592.5"/>
<text text-anchor="start" x="298.5" y="-603.9" font-family="Arial" font-size="14.00" fill="#000000">updated_at </text>
<text text-anchor="start" x="372.4326" y="-603.9" font-family="Arial" font-size="14.00" fill="#666666">[timestamp]</text>
<polygon fill="none" stroke="#000000" stroke-width="3" points="289.5,-591.5 289.5,-869.5 513.5,-869.5 513.5,-591.5 289.5,-591.5"/>
</g>
<!-- accounts -->
<g id="node4" class="node">
<title>accounts</title>
<polygon fill="#efefef" stroke="transparent" points="43.5,-432.5 43.5,-467.5 358.5,-467.5 358.5,-432.5 43.5,-432.5"/>
<polygon fill="none" stroke="#000000" points="43.5,-432.5 43.5,-467.5 358.5,-467.5 358.5,-432.5 43.5,-432.5"/>
<text text-anchor="start" x="116.3596" y="-445.3" font-family="Arial Bold" font-size="18.00" fill="#000000">accounts</text>
<text text-anchor="start" x="188.3866" y="-445.3" font-family="Arial" font-size="14.00" fill="#000000"> </text>
<text text-anchor="start" x="192.2772" y="-445.3" font-family="Arial" font-size="14.00" fill="#666666">[BASE TABLE]</text>
<polygon fill="none" stroke="#000000" points="43.5,-402.5 43.5,-432.5 358.5,-432.5 358.5,-402.5 43.5,-402.5"/>
<text text-anchor="start" x="50.5" y="-413.9" font-family="Arial" font-size="14.00" fill="#000000">id </text>
<text text-anchor="start" x="65.2798" y="-413.9" font-family="Arial" font-size="14.00" fill="#666666">[int(10) unsigned]</text>
<polygon fill="none" stroke="#000000" points="43.5,-372.5 43.5,-402.5 358.5,-402.5 358.5,-372.5 43.5,-372.5"/>
<text text-anchor="start" x="50.073" y="-383.9" font-family="Arial" font-size="14.00" fill="#000000">has_access_to_paid_version_for_free </text>
<text text-anchor="start" x="290.4824" y="-383.9" font-family="Arial" font-size="14.00" fill="#666666">[tinyint(1)]</text>
<polygon fill="none" stroke="#000000" points="43.5,-342.5 43.5,-372.5 358.5,-372.5 358.5,-342.5 43.5,-342.5"/>
<text text-anchor="start" x="50.5" y="-353.9" font-family="Arial" font-size="14.00" fill="#000000">api_key </text>
<text text-anchor="start" x="102.6276" y="-353.9" font-family="Arial" font-size="14.00" fill="#666666">[varchar(255)]</text>
<polygon fill="none" stroke="#000000" points="43.5,-312.5 43.5,-342.5 358.5,-342.5 358.5,-312.5 43.5,-312.5"/>
<text text-anchor="start" x="50.5" y="-323.9" font-family="Arial" font-size="14.00" fill="#000000">number_of_invitations_sent </text>
<text text-anchor="start" x="225.5504" y="-323.9" font-family="Arial" font-size="14.00" fill="#666666">[int(11)]</text>
<polygon fill="none" stroke="#000000" points="43.5,-282.5 43.5,-312.5 358.5,-312.5 358.5,-282.5 43.5,-282.5"/>
<text text-anchor="start" x="50.5" y="-293.9" font-family="Arial" font-size="14.00" fill="#000000">default_time_reminder_is_sent </text>
<text text-anchor="start" x="245.7608" y="-293.9" font-family="Arial" font-size="14.00" fill="#666666">[varchar(255)]</text>
<polygon fill="none" stroke="#000000" points="43.5,-252.5 43.5,-282.5 358.5,-282.5 358.5,-252.5 43.5,-252.5"/>
<text text-anchor="start" x="50.5" y="-263.9" font-family="Arial" font-size="14.00" fill="#000000">default_gender_id </text>
<text text-anchor="start" x="166.4368" y="-263.9" font-family="Arial" font-size="14.00" fill="#666666">[int(10) unsigned]</text>
<polygon fill="none" stroke="#000000" points="43.5,-222.5 43.5,-252.5 358.5,-252.5 358.5,-222.5 43.5,-222.5"/>
<text text-anchor="start" x="50.5" y="-233.9" font-family="Arial" font-size="14.00" fill="#000000">stripe_id </text>
<text text-anchor="start" x="107.2854" y="-233.9" font-family="Arial" font-size="14.00" fill="#666666">[varchar(255)]</text>
<polygon fill="none" stroke="#000000" points="43.5,-192.5 43.5,-222.5 358.5,-222.5 358.5,-192.5 43.5,-192.5"/>
<text text-anchor="start" x="50.5" y="-203.9" font-family="Arial" font-size="14.00" fill="#000000">card_brand </text>
<text text-anchor="start" x="125.19" y="-203.9" font-family="Arial" font-size="14.00" fill="#666666">[varchar(255)]</text>
<polygon fill="none" stroke="#000000" points="43.5,-162.5 43.5,-192.5 358.5,-192.5 358.5,-162.5 43.5,-162.5"/>
<text text-anchor="start" x="50.5" y="-173.9" font-family="Arial" font-size="14.00" fill="#000000">card_last_four </text>
<text text-anchor="start" x="143.0778" y="-173.9" font-family="Arial" font-size="14.00" fill="#666666">[varchar(4)]</text>
<polygon fill="none" stroke="#000000" points="43.5,-132.5 43.5,-162.5 358.5,-162.5 358.5,-132.5 43.5,-132.5"/>
<text text-anchor="start" x="50.5" y="-143.9" font-family="Arial" font-size="14.00" fill="#000000">trial_ends_at </text>
<text text-anchor="start" x="134.5238" y="-143.9" font-family="Arial" font-size="14.00" fill="#666666">[timestamp]</text>
<polygon fill="none" stroke="#000000" points="43.5,-102.5 43.5,-132.5 358.5,-132.5 358.5,-102.5 43.5,-102.5"/>
<text text-anchor="start" x="50.5" y="-113.9" font-family="Arial" font-size="14.00" fill="#000000">legacy_free_plan_unlimited_contacts </text>
<text text-anchor="start" x="284.6766" y="-113.9" font-family="Arial" font-size="14.00" fill="#666666">[tinyint(1)]</text>
<polygon fill="none" stroke="#000000" points="43.5,-72.5 43.5,-102.5 358.5,-102.5 358.5,-72.5 43.5,-72.5"/>
<text text-anchor="start" x="50.5" y="-83.9" font-family="Arial" font-size="14.00" fill="#000000">created_at </text>
<text text-anchor="start" x="120.528" y="-83.9" font-family="Arial" font-size="14.00" fill="#666666">[timestamp]</text>
<polygon fill="none" stroke="#000000" points="43.5,-42.5 43.5,-72.5 358.5,-72.5 358.5,-42.5 43.5,-42.5"/>
<text text-anchor="start" x="50.5" y="-53.9" font-family="Arial" font-size="14.00" fill="#000000">updated_at </text>
<text text-anchor="start" x="124.4326" y="-53.9" font-family="Arial" font-size="14.00" fill="#666666">[timestamp]</text>
</g>
<!-- activities&#45;&gt;accounts -->
<g id="edge3" class="edge">
<title>activities:account_id&#45;&gt;accounts:id</title>
<path fill="none" stroke="#000000" d="M281.3728,-787.0155C188.0698,-777.6844 238.4692,-635.6953 291.5,-547 308.8472,-517.9864 341.1528,-540.0136 358.5,-511 379.825,-475.3334 400.0556,-417.5 358.5,-417.5"/>
<polygon fill="#000000" stroke="#000000" points="281.5114,-787.0221 291.2849,-791.9949 286.5057,-787.261 291.5,-787.5 291.5,-787.5 291.5,-787.5 286.5057,-787.261 291.7151,-783.0051 281.5114,-787.0221 281.5114,-787.0221"/>
<text text-anchor="start" x="27.877" y="-797.5" font-family="Arial" font-size="10.00" fill="#000000">FOREIGN KEY (account_id) REFERENCES accounts (id)</text>
</g>
<!-- activity_types -->
<g id="node5" class="node">
<title>activity_types</title>
<polygon fill="#efefef" stroke="transparent" points="462.5,-357.5 462.5,-392.5 745.5,-392.5 745.5,-357.5 462.5,-357.5"/>
<polygon fill="none" stroke="#000000" points="462.5,-357.5 462.5,-392.5 745.5,-392.5 745.5,-357.5 462.5,-357.5"/>
<text text-anchor="start" x="501.3632" y="-370.3" font-family="Arial Bold" font-size="18.00" fill="#000000">activity_types</text>
<text text-anchor="start" x="609.383" y="-370.3" font-family="Arial" font-size="14.00" fill="#000000"> </text>
<text text-anchor="start" x="613.2736" y="-370.3" font-family="Arial" font-size="14.00" fill="#666666">[BASE TABLE]</text>
<polygon fill="none" stroke="#000000" points="462.5,-327.5 462.5,-357.5 745.5,-357.5 745.5,-327.5 462.5,-327.5"/>
<text text-anchor="start" x="469.5" y="-338.9" font-family="Arial" font-size="14.00" fill="#000000">id </text>
<text text-anchor="start" x="484.2798" y="-338.9" font-family="Arial" font-size="14.00" fill="#666666">[int(10) unsigned]</text>
<polygon fill="none" stroke="#000000" points="462.5,-297.5 462.5,-327.5 745.5,-327.5 745.5,-297.5 462.5,-297.5"/>
<text text-anchor="start" x="469.5" y="-308.9" font-family="Arial" font-size="14.00" fill="#000000">account_id </text>
<text text-anchor="start" x="541.0834" y="-308.9" font-family="Arial" font-size="14.00" fill="#666666">[int(10) unsigned]</text>
<polygon fill="none" stroke="#000000" points="462.5,-267.5 462.5,-297.5 745.5,-297.5 745.5,-267.5 462.5,-267.5"/>
<text text-anchor="start" x="469.4089" y="-278.9" font-family="Arial" font-size="14.00" fill="#000000">activity_type_category_id </text>
<text text-anchor="start" x="630.4509" y="-278.9" font-family="Arial" font-size="14.00" fill="#666666">[int(10) unsigned]</text>
<polygon fill="none" stroke="#000000" points="462.5,-237.5 462.5,-267.5 745.5,-267.5 745.5,-237.5 462.5,-237.5"/>
<text text-anchor="start" x="469.5" y="-248.9" font-family="Arial" font-size="14.00" fill="#000000">name </text>
<text text-anchor="start" x="508.399" y="-248.9" font-family="Arial" font-size="14.00" fill="#666666">[varchar(255)]</text>
<polygon fill="none" stroke="#000000" points="462.5,-207.5 462.5,-237.5 745.5,-237.5 745.5,-207.5 462.5,-207.5"/>
<text text-anchor="start" x="469.5" y="-218.9" font-family="Arial" font-size="14.00" fill="#000000">translation_key </text>
<text text-anchor="start" x="567.5238" y="-218.9" font-family="Arial" font-size="14.00" fill="#666666">[varchar(255)]</text>
<polygon fill="none" stroke="#000000" points="462.5,-177.5 462.5,-207.5 745.5,-207.5 745.5,-177.5 462.5,-177.5"/>
<text text-anchor="start" x="469.5" y="-188.9" font-family="Arial" font-size="14.00" fill="#000000">location_type </text>
<text text-anchor="start" x="555.8632" y="-188.9" font-family="Arial" font-size="14.00" fill="#666666">[varchar(255)]</text>
<polygon fill="none" stroke="#000000" points="462.5,-147.5 462.5,-177.5 745.5,-177.5 745.5,-147.5 462.5,-147.5"/>
<text text-anchor="start" x="469.5" y="-158.9" font-family="Arial" font-size="14.00" fill="#000000">created_at </text>
<text text-anchor="start" x="539.528" y="-158.9" font-family="Arial" font-size="14.00" fill="#666666">[timestamp]</text>
<polygon fill="none" stroke="#000000" points="462.5,-117.5 462.5,-147.5 745.5,-147.5 745.5,-117.5 462.5,-117.5"/>
<text text-anchor="start" x="469.5" y="-128.9" font-family="Arial" font-size="14.00" fill="#000000">updated_at </text>
<text text-anchor="start" x="543.4326" y="-128.9" font-family="Arial" font-size="14.00" fill="#666666">[timestamp]</text>
</g>
<!-- activities&#45;&gt;activity_types -->
<g id="edge4" class="edge">
<title>activities:activity_type_id&#45;&gt;activity_types:id</title>
<path fill="none" stroke="#000000" d="M522.7102,-756.9639C600.3645,-748.2427 531.3827,-634.8956 512.5,-547 501.1354,-494.0996 473.8646,-488.9004 462.5,-436 453.7717,-395.3714 420.9444,-342.5 462.5,-342.5"/>
<polygon fill="#000000" stroke="#000000" points="522.4862,-756.9755 512.264,-753.0062 517.4931,-757.2378 512.5,-757.5 512.5,-757.5 512.5,-757.5 517.4931,-757.2378 512.736,-761.9938 522.4862,-756.9755 522.4862,-756.9755"/>
<text text-anchor="start" x="519.881" y="-767.5" font-family="Arial" font-size="10.00" fill="#000000">FOREIGN KEY (activity_type_id) REFERENCES activity_types (id)</text>
</g>
<!-- activity_contact -->
<g id="node2" class="node">
<title>activity_contact</title>
<polygon fill="#efefef" stroke="transparent" points="115.5,-1112.5 115.5,-1147.5 349.5,-1147.5 349.5,-1112.5 115.5,-1112.5"/>
<polygon fill="none" stroke="#000000" points="115.5,-1112.5 115.5,-1147.5 349.5,-1147.5 349.5,-1112.5 115.5,-1112.5"/>
<text text-anchor="start" x="122.359" y="-1125.3" font-family="Arial Bold" font-size="18.00" fill="#000000">activity_contact</text>
<text text-anchor="start" x="245.3872" y="-1125.3" font-family="Arial" font-size="14.00" fill="#000000"> </text>
<text text-anchor="start" x="249.2778" y="-1125.3" font-family="Arial" font-size="14.00" fill="#666666">[BASE TABLE]</text>
<polygon fill="none" stroke="#000000" points="115.5,-1082.5 115.5,-1112.5 349.5,-1112.5 349.5,-1082.5 115.5,-1082.5"/>
<text text-anchor="start" x="122.5" y="-1093.9" font-family="Arial" font-size="14.00" fill="#000000">activity_id </text>
<text text-anchor="start" x="187.8394" y="-1093.9" font-family="Arial" font-size="14.00" fill="#666666">[int(10) unsigned]</text>
<polygon fill="none" stroke="#000000" points="115.5,-1052.5 115.5,-1082.5 349.5,-1082.5 349.5,-1052.5 115.5,-1052.5"/>
<text text-anchor="start" x="122.5" y="-1063.9" font-family="Arial" font-size="14.00" fill="#000000">contact_id </text>
<text text-anchor="start" x="190.1914" y="-1063.9" font-family="Arial" font-size="14.00" fill="#666666">[int(10) unsigned]</text>
<polygon fill="none" stroke="#000000" points="115.5,-1022.5 115.5,-1052.5 349.5,-1052.5 349.5,-1022.5 115.5,-1022.5"/>
<text text-anchor="start" x="122.5" y="-1033.9" font-family="Arial" font-size="14.00" fill="#000000">account_id </text>
<text text-anchor="start" x="194.0834" y="-1033.9" font-family="Arial" font-size="14.00" fill="#666666">[int(10) unsigned]</text>
</g>
<!-- activity_contact&#45;&gt;activities -->
<g id="edge1" class="edge">
<title>activity_contact:activity_id&#45;&gt;activities:id</title>
<path fill="none" stroke="#000000" d="M359.7475,-1096.4019C396.7895,-1087.421 366.5531,-1025.2389 349.5,-980 335.7258,-943.4595 305.2742,-950.5405 291.5,-914 276.3719,-873.8678 248.6111,-817.5 291.5,-817.5"/>
<polygon fill="#000000" stroke="#000000" points="359.4431,-1096.4345 349.0205,-1093.0256 354.4715,-1096.9672 349.5,-1097.5 349.5,-1097.5 349.5,-1097.5 354.4715,-1096.9672 349.9795,-1101.9744 359.4431,-1096.4345 359.4431,-1096.4345"/>
<text text-anchor="start" x="356.948" y="-1107.5" font-family="Arial" font-size="10.00" fill="#000000">FOREIGN KEY (activity_id) REFERENCES activities (id)</text>
</g>
<!-- emotion_activity -->
<g id="node3" class="node">
<title>emotion_activity</title>
<polygon fill="#efefef" stroke="transparent" points="453.5,-1142.5 453.5,-1177.5 693.5,-1177.5 693.5,-1142.5 453.5,-1142.5"/>
<polygon fill="none" stroke="#000000" points="453.5,-1142.5 453.5,-1177.5 693.5,-1177.5 693.5,-1142.5 453.5,-1142.5"/>
<text text-anchor="start" x="460.3638" y="-1155.3" font-family="Arial Bold" font-size="18.00" fill="#000000">emotion_activity</text>
<text text-anchor="start" x="589.3824" y="-1155.3" font-family="Arial" font-size="14.00" fill="#000000"> </text>
<text text-anchor="start" x="593.273" y="-1155.3" font-family="Arial" font-size="14.00" fill="#666666">[BASE TABLE]</text>
<polygon fill="none" stroke="#000000" points="453.5,-1112.5 453.5,-1142.5 693.5,-1142.5 693.5,-1112.5 453.5,-1112.5"/>
<text text-anchor="start" x="460.5" y="-1123.9" font-family="Arial" font-size="14.00" fill="#000000">account_id </text>
<text text-anchor="start" x="532.0834" y="-1123.9" font-family="Arial" font-size="14.00" fill="#666666">[int(10) unsigned]</text>
<polygon fill="none" stroke="#000000" points="453.5,-1082.5 453.5,-1112.5 693.5,-1112.5 693.5,-1082.5 453.5,-1082.5"/>
<text text-anchor="start" x="460.5" y="-1093.9" font-family="Arial" font-size="14.00" fill="#000000">activity_id </text>
<text text-anchor="start" x="525.8394" y="-1093.9" font-family="Arial" font-size="14.00" fill="#666666">[int(10) unsigned]</text>
<polygon fill="none" stroke="#000000" points="453.5,-1052.5 453.5,-1082.5 693.5,-1082.5 693.5,-1052.5 453.5,-1052.5"/>
<text text-anchor="start" x="460.5" y="-1063.9" font-family="Arial" font-size="14.00" fill="#000000">emotion_id </text>
<text text-anchor="start" x="532.8506" y="-1063.9" font-family="Arial" font-size="14.00" fill="#666666">[int(10) unsigned]</text>
<polygon fill="none" stroke="#000000" points="453.5,-1022.5 453.5,-1052.5 693.5,-1052.5 693.5,-1022.5 453.5,-1022.5"/>
<text text-anchor="start" x="460.5" y="-1033.9" font-family="Arial" font-size="14.00" fill="#000000">created_at </text>
<text text-anchor="start" x="530.528" y="-1033.9" font-family="Arial" font-size="14.00" fill="#666666">[timestamp]</text>
<polygon fill="none" stroke="#000000" points="453.5,-992.5 453.5,-1022.5 693.5,-1022.5 693.5,-992.5 453.5,-992.5"/>
<text text-anchor="start" x="460.5" y="-1003.9" font-family="Arial" font-size="14.00" fill="#000000">updated_at </text>
<text text-anchor="start" x="534.4326" y="-1003.9" font-family="Arial" font-size="14.00" fill="#666666">[timestamp]</text>
</g>
<!-- emotion_activity&#45;&gt;activities -->
<g id="edge2" class="edge">
<title>emotion_activity:activity_id&#45;&gt;activities:id</title>
<path fill="none" stroke="#000000" d="M443.2955,-1096.653C391.7314,-1087.3733 423.2308,-1003.9283 453.5,-950 468.5352,-923.2129 497.4648,-940.7871 512.5,-914 533.4922,-876.5997 555.3889,-817.5 512.5,-817.5"/>
<polygon fill="#000000" stroke="#000000" points="443.5343,-1096.6728 453.1277,-1101.9846 448.5171,-1097.0864 453.5,-1097.5 453.5,-1097.5 453.5,-1097.5 448.5171,-1097.0864 453.8723,-1093.0154 443.5343,-1096.6728 443.5343,-1096.6728"/>
<text text-anchor="start" x="460.948" y="-1081.5" font-family="Arial" font-size="10.00" fill="#000000">FOREIGN KEY (activity_id) REFERENCES activities (id)</text>
</g>
</g>
</svg>
