<?xml version="1.0" encoding="UTF-8" standalone="no"?>
<!DOCTYPE svg PUBLIC "-//W3C//DTD SVG 1.1//EN"
 "http://www.w3.org/Graphics/SVG/1.1/DTD/svg11.dtd">
<!-- Generated by graphviz version 2.40.1 (20161225.0304)
 -->
<!-- Title: addressbooks Pages: 1 -->
<svg width="876pt" height="2849pt"
 viewBox="0.00 0.00 875.50 2849.00" xmlns="http://www.w3.org/2000/svg" xmlns:xlink="http://www.w3.org/1999/xlink">
<g id="graph0" class="graph" transform="scale(1 1) rotate(0) translate(4 2845)">
<title>addressbooks</title>
<polygon fill="#ffffff" stroke="transparent" points="-4,4 -4,-2845 871.5,-2845 871.5,4 -4,4"/>
<!-- addressbooks -->
<g id="node1" class="node">
<title>addressbooks</title>
<polygon fill="#efefef" stroke="transparent" points="355,-1192.5 355,-1227.5 578,-1227.5 578,-1192.5 355,-1192.5"/>
<polygon fill="none" stroke="#000000" points="355,-1192.5 355,-1227.5 578,-1227.5 578,-1192.5 355,-1192.5"/>
<text text-anchor="start" x="361.8553" y="-1205.3" font-family="Arial Bold" font-size="18.00" fill="#000000">addressbooks</text>
<text text-anchor="start" x="473.8909" y="-1205.3" font-family="Arial" font-size="14.00" fill="#000000"> </text>
<text text-anchor="start" x="477.7815" y="-1205.3" font-family="Arial" font-size="14.00" fill="#666666">[BASE TABLE]</text>
<polygon fill="none" stroke="#000000" points="355,-1162.5 355,-1192.5 578,-1192.5 578,-1162.5 355,-1162.5"/>
<text text-anchor="start" x="362" y="-1173.9" font-family="Arial" font-size="14.00" fill="#000000">id </text>
<text text-anchor="start" x="376.7798" y="-1173.9" font-family="Arial" font-size="14.00" fill="#666666">[bigint(20) unsigned]</text>
<polygon fill="none" stroke="#000000" points="355,-1132.5 355,-1162.5 578,-1162.5 578,-1132.5 355,-1132.5"/>
<text text-anchor="start" x="362" y="-1143.9" font-family="Arial" font-size="14.00" fill="#000000">account_id </text>
<text text-anchor="start" x="433.5834" y="-1143.9" font-family="Arial" font-size="14.00" fill="#666666">[int(10) unsigned]</text>
<polygon fill="none" stroke="#000000" points="355,-1102.5 355,-1132.5 578,-1132.5 578,-1102.5 355,-1102.5"/>
<text text-anchor="start" x="362" y="-1113.9" font-family="Arial" font-size="14.00" fill="#000000">user_id </text>
<text text-anchor="start" x="411.7882" y="-1113.9" font-family="Arial" font-size="14.00" fill="#666666">[int(10) unsigned]</text>
<polygon fill="none" stroke="#000000" points="355,-1072.5 355,-1102.5 578,-1102.5 578,-1072.5 355,-1072.5"/>
<text text-anchor="start" x="362" y="-1083.9" font-family="Arial" font-size="14.00" fill="#000000">description </text>
<text text-anchor="start" x="433.568" y="-1083.9" font-family="Arial" font-size="14.00" fill="#666666">[varchar(500)]</text>
<polygon fill="none" stroke="#000000" points="355,-1042.5 355,-1072.5 578,-1072.5 578,-1042.5 355,-1042.5"/>
<text text-anchor="start" x="362" y="-1053.9" font-family="Arial" font-size="14.00" fill="#000000">name </text>
<text text-anchor="start" x="400.899" y="-1053.9" font-family="Arial" font-size="14.00" fill="#666666">[varchar(100)]</text>
<polygon fill="none" stroke="#000000" points="355,-1012.5 355,-1042.5 578,-1042.5 578,-1012.5 355,-1012.5"/>
<text text-anchor="start" x="362" y="-1023.9" font-family="Arial" font-size="14.00" fill="#000000">created_at </text>
<text text-anchor="start" x="432.028" y="-1023.9" font-family="Arial" font-size="14.00" fill="#666666">[timestamp]</text>
<polygon fill="none" stroke="#000000" points="355,-982.5 355,-1012.5 578,-1012.5 578,-982.5 355,-982.5"/>
<text text-anchor="start" x="362" y="-993.9" font-family="Arial" font-size="14.00" fill="#000000">updated_at </text>
<text text-anchor="start" x="435.9326" y="-993.9" font-family="Arial" font-size="14.00" fill="#666666">[timestamp]</text>
<polygon fill="none" stroke="#000000" stroke-width="3" points="353,-981.5 353,-1229.5 579,-1229.5 579,-981.5 353,-981.5"/>
</g>
<!-- accounts -->
<g id="node3" class="node">
<title>accounts</title>
<polygon fill="#efefef" stroke="transparent" points="103,-627.5 103,-662.5 418,-662.5 418,-627.5 103,-627.5"/>
<polygon fill="none" stroke="#000000" points="103,-627.5 103,-662.5 418,-662.5 418,-627.5 103,-627.5"/>
<text text-anchor="start" x="175.8596" y="-640.3" font-family="Arial Bold" font-size="18.00" fill="#000000">accounts</text>
<text text-anchor="start" x="247.8866" y="-640.3" font-family="Arial" font-size="14.00" fill="#000000"> </text>
<text text-anchor="start" x="251.7772" y="-640.3" font-family="Arial" font-size="14.00" fill="#666666">[BASE TABLE]</text>
<polygon fill="none" stroke="#000000" points="103,-597.5 103,-627.5 418,-627.5 418,-597.5 103,-597.5"/>
<text text-anchor="start" x="110" y="-608.9" font-family="Arial" font-size="14.00" fill="#000000">id </text>
<text text-anchor="start" x="124.7798" y="-608.9" font-family="Arial" font-size="14.00" fill="#666666">[int(10) unsigned]</text>
<polygon fill="none" stroke="#000000" points="103,-567.5 103,-597.5 418,-597.5 418,-567.5 103,-567.5"/>
<text text-anchor="start" x="109.573" y="-578.9" font-family="Arial" font-size="14.00" fill="#000000">has_access_to_paid_version_for_free </text>
<text text-anchor="start" x="349.9824" y="-578.9" font-family="Arial" font-size="14.00" fill="#666666">[tinyint(1)]</text>
<polygon fill="none" stroke="#000000" points="103,-537.5 103,-567.5 418,-567.5 418,-537.5 103,-537.5"/>
<text text-anchor="start" x="110" y="-548.9" font-family="Arial" font-size="14.00" fill="#000000">api_key </text>
<text text-anchor="start" x="162.1276" y="-548.9" font-family="Arial" font-size="14.00" fill="#666666">[varchar(255)]</text>
<polygon fill="none" stroke="#000000" points="103,-507.5 103,-537.5 418,-537.5 418,-507.5 103,-507.5"/>
<text text-anchor="start" x="110" y="-518.9" font-family="Arial" font-size="14.00" fill="#000000">number_of_invitations_sent </text>
<text text-anchor="start" x="285.0504" y="-518.9" font-family="Arial" font-size="14.00" fill="#666666">[int(11)]</text>
<polygon fill="none" stroke="#000000" points="103,-477.5 103,-507.5 418,-507.5 418,-477.5 103,-477.5"/>
<text text-anchor="start" x="110" y="-488.9" font-family="Arial" font-size="14.00" fill="#000000">default_time_reminder_is_sent </text>
<text text-anchor="start" x="305.2608" y="-488.9" font-family="Arial" font-size="14.00" fill="#666666">[varchar(255)]</text>
<polygon fill="none" stroke="#000000" points="103,-447.5 103,-477.5 418,-477.5 418,-447.5 103,-447.5"/>
<text text-anchor="start" x="110" y="-458.9" font-family="Arial" font-size="14.00" fill="#000000">default_gender_id </text>
<text text-anchor="start" x="225.9368" y="-458.9" font-family="Arial" font-size="14.00" fill="#666666">[int(10) unsigned]</text>
<polygon fill="none" stroke="#000000" points="103,-417.5 103,-447.5 418,-447.5 418,-417.5 103,-417.5"/>
<text text-anchor="start" x="110" y="-428.9" font-family="Arial" font-size="14.00" fill="#000000">stripe_id </text>
<text text-anchor="start" x="166.7854" y="-428.9" font-family="Arial" font-size="14.00" fill="#666666">[varchar(255)]</text>
<polygon fill="none" stroke="#000000" points="103,-387.5 103,-417.5 418,-417.5 418,-387.5 103,-387.5"/>
<text text-anchor="start" x="110" y="-398.9" font-family="Arial" font-size="14.00" fill="#000000">card_brand </text>
<text text-anchor="start" x="184.69" y="-398.9" font-family="Arial" font-size="14.00" fill="#666666">[varchar(255)]</text>
<polygon fill="none" stroke="#000000" points="103,-357.5 103,-387.5 418,-387.5 418,-357.5 103,-357.5"/>
<text text-anchor="start" x="110" y="-368.9" font-family="Arial" font-size="14.00" fill="#000000">card_last_four </text>
<text text-anchor="start" x="202.5778" y="-368.9" font-family="Arial" font-size="14.00" fill="#666666">[varchar(4)]</text>
<polygon fill="none" stroke="#000000" points="103,-327.5 103,-357.5 418,-357.5 418,-327.5 103,-327.5"/>
<text text-anchor="start" x="110" y="-338.9" font-family="Arial" font-size="14.00" fill="#000000">trial_ends_at </text>
<text text-anchor="start" x="194.0238" y="-338.9" font-family="Arial" font-size="14.00" fill="#666666">[timestamp]</text>
<polygon fill="none" stroke="#000000" points="103,-297.5 103,-327.5 418,-327.5 418,-297.5 103,-297.5"/>
<text text-anchor="start" x="110" y="-308.9" font-family="Arial" font-size="14.00" fill="#000000">legacy_free_plan_unlimited_contacts </text>
<text text-anchor="start" x="344.1766" y="-308.9" font-family="Arial" font-size="14.00" fill="#666666">[tinyint(1)]</text>
<polygon fill="none" stroke="#000000" points="103,-267.5 103,-297.5 418,-297.5 418,-267.5 103,-267.5"/>
<text text-anchor="start" x="110" y="-278.9" font-family="Arial" font-size="14.00" fill="#000000">created_at </text>
<text text-anchor="start" x="180.028" y="-278.9" font-family="Arial" font-size="14.00" fill="#666666">[timestamp]</text>
<polygon fill="none" stroke="#000000" points="103,-237.5 103,-267.5 418,-267.5 418,-237.5 103,-237.5"/>
<text text-anchor="start" x="110" y="-248.9" font-family="Arial" font-size="14.00" fill="#000000">updated_at </text>
<text text-anchor="start" x="183.9326" y="-248.9" font-family="Arial" font-size="14.00" fill="#666666">[timestamp]</text>
</g>
<!-- addressbooks&#45;&gt;accounts -->
<g id="edge2" class="edge">
<title>addressbooks:account_id&#45;&gt;accounts:id</title>
<path fill="none" stroke="#000000" d="M344.8643,-1145.8884C266.0644,-1118.3444 412.5796,-746.4753 418,-706 423.5158,-664.8121 459.5556,-612.5 418,-612.5"/>
<polygon fill="#000000" stroke="#000000" points="345.1241,-1145.9296 354.2933,-1151.9442 350.062,-1146.7148 355,-1147.5 355,-1147.5 355,-1147.5 350.062,-1146.7148 355.7067,-1143.0558 345.1241,-1145.9296 345.1241,-1145.9296"/>
<text text-anchor="start" x="91.377" y="-1157.5" font-family="Arial" font-size="10.00" fill="#000000">FOREIGN KEY (account_id) REFERENCES accounts (id)</text>
</g>
<!-- users -->
<g id="node4" class="node">
<title>users</title>
<polygon fill="#efefef" stroke="transparent" points="522,-822.5 522,-857.5 825,-857.5 825,-822.5 522,-822.5"/>
<polygon fill="none" stroke="#000000" points="522,-822.5 522,-857.5 825,-857.5 825,-822.5 522,-822.5"/>
<text text-anchor="start" x="602.8708" y="-835.3" font-family="Arial Bold" font-size="18.00" fill="#000000">users</text>
<text text-anchor="start" x="646.8754" y="-835.3" font-family="Arial" font-size="14.00" fill="#000000"> </text>
<text text-anchor="start" x="650.766" y="-835.3" font-family="Arial" font-size="14.00" fill="#666666">[BASE TABLE]</text>
<polygon fill="none" stroke="#000000" points="522,-792.5 522,-822.5 825,-822.5 825,-792.5 522,-792.5"/>
<text text-anchor="start" x="529" y="-803.9" font-family="Arial" font-size="14.00" fill="#000000">id </text>
<text text-anchor="start" x="543.7798" y="-803.9" font-family="Arial" font-size="14.00" fill="#666666">[int(10) unsigned]</text>
<polygon fill="none" stroke="#000000" points="522,-762.5 522,-792.5 825,-792.5 825,-762.5 522,-762.5"/>
<text text-anchor="start" x="529" y="-773.9" font-family="Arial" font-size="14.00" fill="#000000">first_name </text>
<text text-anchor="start" x="598.23" y="-773.9" font-family="Arial" font-size="14.00" fill="#666666">[varchar(255)]</text>
<polygon fill="none" stroke="#000000" points="522,-732.5 522,-762.5 825,-762.5 825,-732.5 522,-732.5"/>
<text text-anchor="start" x="529" y="-743.9" font-family="Arial" font-size="14.00" fill="#000000">last_name </text>
<text text-anchor="start" x="597.4614" y="-743.9" font-family="Arial" font-size="14.00" fill="#666666">[varchar(255)]</text>
<polygon fill="none" stroke="#000000" points="522,-702.5 522,-732.5 825,-732.5 825,-702.5 522,-702.5"/>
<text text-anchor="start" x="529" y="-713.9" font-family="Arial" font-size="14.00" fill="#000000">email </text>
<text text-anchor="start" x="566.3296" y="-713.9" font-family="Arial" font-size="14.00" fill="#666666">[varchar(255)]</text>
<polygon fill="none" stroke="#000000" points="522,-672.5 522,-702.5 825,-702.5 825,-672.5 522,-672.5"/>
<text text-anchor="start" x="529" y="-683.9" font-family="Arial" font-size="14.00" fill="#000000">me_contact_id </text>
<text text-anchor="start" x="623.9172" y="-683.9" font-family="Arial" font-size="14.00" fill="#666666">[int(10) unsigned]</text>
<polygon fill="none" stroke="#000000" points="522,-642.5 522,-672.5 825,-672.5 825,-642.5 522,-642.5"/>
<text text-anchor="start" x="529" y="-653.9" font-family="Arial" font-size="14.00" fill="#000000">admin </text>
<text text-anchor="start" x="571.0056" y="-653.9" font-family="Arial" font-size="14.00" fill="#666666">[tinyint(1)]</text>
<polygon fill="none" stroke="#000000" points="522,-612.5 522,-642.5 825,-642.5 825,-612.5 522,-612.5"/>
<text text-anchor="start" x="529" y="-623.9" font-family="Arial" font-size="14.00" fill="#000000">email_verified_at </text>
<text text-anchor="start" x="638.6802" y="-623.9" font-family="Arial" font-size="14.00" fill="#666666">[timestamp]</text>
<polygon fill="none" stroke="#000000" points="522,-582.5 522,-612.5 825,-612.5 825,-582.5 522,-582.5"/>
<text text-anchor="start" x="529" y="-593.9" font-family="Arial" font-size="14.00" fill="#000000">password </text>
<text text-anchor="start" x="592.7882" y="-593.9" font-family="Arial" font-size="14.00" fill="#666666">[varchar(255)]</text>
<polygon fill="none" stroke="#000000" points="522,-552.5 522,-582.5 825,-582.5 825,-552.5 522,-552.5"/>
<text text-anchor="start" x="529" y="-563.9" font-family="Arial" font-size="14.00" fill="#000000">remember_token </text>
<text text-anchor="start" x="638.6844" y="-563.9" font-family="Arial" font-size="14.00" fill="#666666">[varchar(100)]</text>
<polygon fill="none" stroke="#000000" points="522,-522.5 522,-552.5 825,-552.5 825,-522.5 522,-522.5"/>
<text text-anchor="start" x="529" y="-533.9" font-family="Arial" font-size="14.00" fill="#000000">google2fa_secret </text>
<text text-anchor="start" x="640.265" y="-533.9" font-family="Arial" font-size="14.00" fill="#666666">[varchar(256)]</text>
<polygon fill="none" stroke="#000000" points="522,-492.5 522,-522.5 825,-522.5 825,-492.5 522,-492.5"/>
<text text-anchor="start" x="529" y="-503.9" font-family="Arial" font-size="14.00" fill="#000000">account_id </text>
<text text-anchor="start" x="600.5834" y="-503.9" font-family="Arial" font-size="14.00" fill="#666666">[int(10) unsigned]</text>
<polygon fill="none" stroke="#000000" points="522,-462.5 522,-492.5 825,-492.5 825,-462.5 522,-462.5"/>
<text text-anchor="start" x="529" y="-473.9" font-family="Arial" font-size="14.00" fill="#000000">timezone </text>
<text text-anchor="start" x="589.6788" y="-473.9" font-family="Arial" font-size="14.00" fill="#666666">[varchar(255)]</text>
<polygon fill="none" stroke="#000000" points="522,-432.5 522,-462.5 825,-462.5 825,-432.5 522,-432.5"/>
<text text-anchor="start" x="529" y="-443.9" font-family="Arial" font-size="14.00" fill="#000000">currency_id </text>
<text text-anchor="start" x="605.2314" y="-443.9" font-family="Arial" font-size="14.00" fill="#666666">[int(10) unsigned]</text>
<polygon fill="none" stroke="#000000" points="522,-402.5 522,-432.5 825,-432.5 825,-402.5 522,-402.5"/>
<text text-anchor="start" x="529" y="-413.9" font-family="Arial" font-size="14.00" fill="#000000">locale </text>
<text text-anchor="start" x="569.4516" y="-413.9" font-family="Arial" font-size="14.00" fill="#666666">[varchar(255)]</text>
<polygon fill="none" stroke="#000000" points="522,-372.5 522,-402.5 825,-402.5 825,-372.5 522,-372.5"/>
<text text-anchor="start" x="529" y="-383.9" font-family="Arial" font-size="14.00" fill="#000000">metric </text>
<text text-anchor="start" x="570.9916" y="-383.9" font-family="Arial" font-size="14.00" fill="#666666">[varchar(255)]</text>
<polygon fill="none" stroke="#000000" points="522,-342.5 522,-372.5 825,-372.5 825,-342.5 522,-342.5"/>
<text text-anchor="start" x="529" y="-353.9" font-family="Arial" font-size="14.00" fill="#000000">fluid_container </text>
<text text-anchor="start" x="623.913" y="-353.9" font-family="Arial" font-size="14.00" fill="#666666">[varchar(255)]</text>
<polygon fill="none" stroke="#000000" points="522,-312.5 522,-342.5 825,-342.5 825,-312.5 522,-312.5"/>
<text text-anchor="start" x="529" y="-323.9" font-family="Arial" font-size="14.00" fill="#000000">contacts_sort_order </text>
<text text-anchor="start" x="656.5876" y="-323.9" font-family="Arial" font-size="14.00" fill="#666666">[varchar(255)]</text>
<polygon fill="none" stroke="#000000" points="522,-282.5 522,-312.5 825,-312.5 825,-282.5 522,-282.5"/>
<text text-anchor="start" x="529" y="-293.9" font-family="Arial" font-size="14.00" fill="#000000">name_order </text>
<text text-anchor="start" x="608.3506" y="-293.9" font-family="Arial" font-size="14.00" fill="#666666">[varchar(255)]</text>
<polygon fill="none" stroke="#000000" points="522,-252.5 522,-282.5 825,-282.5 825,-252.5 522,-252.5"/>
<text text-anchor="start" x="529" y="-263.9" font-family="Arial" font-size="14.00" fill="#000000">invited_by_user_id </text>
<text text-anchor="start" x="649.5876" y="-263.9" font-family="Arial" font-size="14.00" fill="#666666">[int(10) unsigned]</text>
<polygon fill="none" stroke="#000000" points="522,-222.5 522,-252.5 825,-252.5 825,-222.5 522,-222.5"/>
<text text-anchor="start" x="529" y="-233.9" font-family="Arial" font-size="14.00" fill="#000000">dashboard_active_tab </text>
<text text-anchor="start" x="670.6128" y="-233.9" font-family="Arial" font-size="14.00" fill="#666666">[varchar(255)]</text>
<polygon fill="none" stroke="#000000" points="522,-192.5 522,-222.5 825,-222.5 825,-192.5 522,-192.5"/>
<text text-anchor="start" x="529" y="-203.9" font-family="Arial" font-size="14.00" fill="#000000">gifts_active_tab </text>
<text text-anchor="start" x="630.1444" y="-203.9" font-family="Arial" font-size="14.00" fill="#666666">[varchar(255)]</text>
<polygon fill="none" stroke="#000000" points="522,-162.5 522,-192.5 825,-192.5 825,-162.5 522,-162.5"/>
<text text-anchor="start" x="529" y="-173.9" font-family="Arial" font-size="14.00" fill="#000000">profile_active_tab </text>
<text text-anchor="start" x="642.5862" y="-173.9" font-family="Arial" font-size="14.00" fill="#666666">[varchar(255)]</text>
<polygon fill="none" stroke="#000000" points="522,-132.5 522,-162.5 825,-162.5 825,-132.5 522,-132.5"/>
<text text-anchor="start" x="528.7911" y="-143.9" font-family="Arial" font-size="14.00" fill="#000000">profile_new_life_event_badge_seen </text>
<text text-anchor="start" x="756.7643" y="-143.9" font-family="Arial" font-size="14.00" fill="#666666">[tinyint(1)]</text>
<polygon fill="none" stroke="#000000" points="522,-102.5 522,-132.5 825,-132.5 825,-102.5 522,-102.5"/>
<text text-anchor="start" x="529" y="-113.9" font-family="Arial" font-size="14.00" fill="#000000">temperature_scale </text>
<text text-anchor="start" x="648.8036" y="-113.9" font-family="Arial" font-size="14.00" fill="#666666">[varchar(255)]</text>
<polygon fill="none" stroke="#000000" points="522,-72.5 522,-102.5 825,-102.5 825,-72.5 522,-72.5"/>
<text text-anchor="start" x="529" y="-83.9" font-family="Arial" font-size="14.00" fill="#000000">created_at </text>
<text text-anchor="start" x="599.028" y="-83.9" font-family="Arial" font-size="14.00" fill="#666666">[timestamp]</text>
<polygon fill="none" stroke="#000000" points="522,-42.5 522,-72.5 825,-72.5 825,-42.5 522,-42.5"/>
<text text-anchor="start" x="529" y="-53.9" font-family="Arial" font-size="14.00" fill="#000000">updated_at </text>
<text text-anchor="start" x="602.9326" y="-53.9" font-family="Arial" font-size="14.00" fill="#666666">[timestamp]</text>
</g>
<!-- addressbooks&#45;&gt;users -->
<g id="edge3" class="edge">
<title>addressbooks:user_id&#45;&gt;users:id</title>
<path fill="none" stroke="#000000" d="M588.0099,-1117.4546C968.0425,-1113.9564 526.4908,-909.2256 522,-901 502.0871,-864.5262 480.4444,-807.5 522,-807.5"/>
<polygon fill="#000000" stroke="#000000" points="587.9999,-1117.4546 577.9796,-1113 582.9999,-1117.4773 578,-1117.5 578,-1117.5 578,-1117.5 582.9999,-1117.4773 578.0204,-1122 587.9999,-1117.4546 587.9999,-1117.4546"/>
<text text-anchor="start" x="584.945" y="-1127.5" font-family="Arial" font-size="10.00" fill="#000000">FOREIGN KEY (user_id) REFERENCES users (id)</text>
</g>
<!-- contacts -->
<g id="node2" class="node">
<title>contacts</title>
<polygon fill="#efefef" stroke="transparent" points="321,-2762.5 321,-2797.5 612,-2797.5 612,-2762.5 321,-2762.5"/>
<polygon fill="none" stroke="#000000" points="321,-2762.5 321,-2797.5 612,-2797.5 612,-2762.5 321,-2762.5"/>
<text text-anchor="start" x="384.3616" y="-2775.3" font-family="Arial Bold" font-size="18.00" fill="#000000">contacts</text>
<text text-anchor="start" x="451.3846" y="-2775.3" font-family="Arial" font-size="14.00" fill="#000000"> </text>
<text text-anchor="start" x="455.2752" y="-2775.3" font-family="Arial" font-size="14.00" fill="#666666">[BASE TABLE]</text>
<polygon fill="none" stroke="#000000" points="321,-2732.5 321,-2762.5 612,-2762.5 612,-2732.5 321,-2732.5"/>
<text text-anchor="start" x="328" y="-2743.9" font-family="Arial" font-size="14.00" fill="#000000">id </text>
<text text-anchor="start" x="342.7798" y="-2743.9" font-family="Arial" font-size="14.00" fill="#666666">[int(10) unsigned]</text>
<polygon fill="none" stroke="#000000" points="321,-2702.5 321,-2732.5 612,-2732.5 612,-2702.5 321,-2702.5"/>
<text text-anchor="start" x="328" y="-2713.9" font-family="Arial" font-size="14.00" fill="#000000">account_id </text>
<text text-anchor="start" x="399.5834" y="-2713.9" font-family="Arial" font-size="14.00" fill="#666666">[int(10) unsigned]</text>
<polygon fill="none" stroke="#000000" points="321,-2672.5 321,-2702.5 612,-2702.5 612,-2672.5 321,-2672.5"/>
<text text-anchor="start" x="328" y="-2683.9" font-family="Arial" font-size="14.00" fill="#000000">address_book_id </text>
<text text-anchor="start" x="438.4838" y="-2683.9" font-family="Arial" font-size="14.00" fill="#666666">[bigint(20) unsigned]</text>
<polygon fill="none" stroke="#000000" points="321,-2642.5 321,-2672.5 612,-2672.5 612,-2642.5 321,-2642.5"/>
<text text-anchor="start" x="328" y="-2653.9" font-family="Arial" font-size="14.00" fill="#000000">first_name </text>
<text text-anchor="start" x="397.23" y="-2653.9" font-family="Arial" font-size="14.00" fill="#666666">[varchar(255)]</text>
<polygon fill="none" stroke="#000000" points="321,-2612.5 321,-2642.5 612,-2642.5 612,-2612.5 321,-2612.5"/>
<text text-anchor="start" x="328" y="-2623.9" font-family="Arial" font-size="14.00" fill="#000000">middle_name </text>
<text text-anchor="start" x="415.9032" y="-2623.9" font-family="Arial" font-size="14.00" fill="#666666">[varchar(255)]</text>
<polygon fill="none" stroke="#000000" points="321,-2582.5 321,-2612.5 612,-2612.5 612,-2582.5 321,-2582.5"/>
<text text-anchor="start" x="328" y="-2593.9" font-family="Arial" font-size="14.00" fill="#000000">last_name </text>
<text text-anchor="start" x="396.4614" y="-2593.9" font-family="Arial" font-size="14.00" fill="#666666">[varchar(255)]</text>
<polygon fill="none" stroke="#000000" points="321,-2552.5 321,-2582.5 612,-2582.5 612,-2552.5 321,-2552.5"/>
<text text-anchor="start" x="328" y="-2563.9" font-family="Arial" font-size="14.00" fill="#000000">nickname </text>
<text text-anchor="start" x="391.7882" y="-2563.9" font-family="Arial" font-size="14.00" fill="#666666">[varchar(255)]</text>
<polygon fill="none" stroke="#000000" points="321,-2522.5 321,-2552.5 612,-2552.5 612,-2522.5 321,-2522.5"/>
<text text-anchor="start" x="328" y="-2533.9" font-family="Arial" font-size="14.00" fill="#000000">gender_id </text>
<text text-anchor="start" x="394.136" y="-2533.9" font-family="Arial" font-size="14.00" fill="#666666">[int(11)]</text>
<polygon fill="none" stroke="#000000" points="321,-2492.5 321,-2522.5 612,-2522.5 612,-2492.5 321,-2492.5"/>
<text text-anchor="start" x="328" y="-2503.9" font-family="Arial" font-size="14.00" fill="#000000">description </text>
<text text-anchor="start" x="399.568" y="-2503.9" font-family="Arial" font-size="14.00" fill="#666666">[varchar(255)]</text>
<polygon fill="none" stroke="#000000" points="321,-2462.5 321,-2492.5 612,-2492.5 612,-2462.5 321,-2462.5"/>
<text text-anchor="start" x="328" y="-2473.9" font-family="Arial" font-size="14.00" fill="#000000">uuid </text>
<text text-anchor="start" x="358.345" y="-2473.9" font-family="Arial" font-size="14.00" fill="#666666">[char(36)]</text>
<polygon fill="none" stroke="#000000" points="321,-2432.5 321,-2462.5 612,-2462.5 612,-2432.5 321,-2432.5"/>
<text text-anchor="start" x="328" y="-2443.9" font-family="Arial" font-size="14.00" fill="#000000">is_starred </text>
<text text-anchor="start" x="393.3394" y="-2443.9" font-family="Arial" font-size="14.00" fill="#666666">[tinyint(1)]</text>
<polygon fill="none" stroke="#000000" points="321,-2402.5 321,-2432.5 612,-2432.5 612,-2402.5 321,-2402.5"/>
<text text-anchor="start" x="328" y="-2413.9" font-family="Arial" font-size="14.00" fill="#000000">is_partial </text>
<text text-anchor="start" x="387.892" y="-2413.9" font-family="Arial" font-size="14.00" fill="#666666">[tinyint(1)]</text>
<polygon fill="none" stroke="#000000" points="321,-2372.5 321,-2402.5 612,-2402.5 612,-2372.5 321,-2372.5"/>
<text text-anchor="start" x="328" y="-2383.9" font-family="Arial" font-size="14.00" fill="#000000">is_active </text>
<text text-anchor="start" x="386.3422" y="-2383.9" font-family="Arial" font-size="14.00" fill="#666666">[tinyint(1)]</text>
<polygon fill="none" stroke="#000000" points="321,-2342.5 321,-2372.5 612,-2372.5 612,-2342.5 321,-2342.5"/>
<text text-anchor="start" x="328" y="-2353.9" font-family="Arial" font-size="14.00" fill="#000000">is_dead </text>
<text text-anchor="start" x="380.9102" y="-2353.9" font-family="Arial" font-size="14.00" fill="#666666">[tinyint(1)]</text>
<polygon fill="none" stroke="#000000" points="321,-2312.5 321,-2342.5 612,-2342.5 612,-2312.5 321,-2312.5"/>
<text text-anchor="start" x="327.6186" y="-2323.9" font-family="Arial" font-size="14.00" fill="#000000">deceased_special_date_id </text>
<text text-anchor="start" x="497.2412" y="-2323.9" font-family="Arial" font-size="14.00" fill="#666666">[int(10) unsigned]</text>
<polygon fill="none" stroke="#000000" points="321,-2282.5 321,-2312.5 612,-2312.5 612,-2282.5 321,-2282.5"/>
<text text-anchor="start" x="328" y="-2293.9" font-family="Arial" font-size="14.00" fill="#000000">deceased_reminder_id </text>
<text text-anchor="start" x="474.2594" y="-2293.9" font-family="Arial" font-size="14.00" fill="#666666">[int(10) unsigned]</text>
<polygon fill="none" stroke="#000000" points="321,-2252.5 321,-2282.5 612,-2282.5 612,-2252.5 321,-2252.5"/>
<text text-anchor="start" x="328" y="-2263.9" font-family="Arial" font-size="14.00" fill="#000000">last_talked_to </text>
<text text-anchor="start" x="418.2538" y="-2263.9" font-family="Arial" font-size="14.00" fill="#666666">[date]</text>
<polygon fill="none" stroke="#000000" points="321,-2222.5 321,-2252.5 612,-2252.5 612,-2222.5 321,-2222.5"/>
<text text-anchor="start" x="328" y="-2233.9" font-family="Arial" font-size="14.00" fill="#000000">stay_in_touch_frequency </text>
<text text-anchor="start" x="487.5034" y="-2233.9" font-family="Arial" font-size="14.00" fill="#666666">[int(11)]</text>
<polygon fill="none" stroke="#000000" points="321,-2192.5 321,-2222.5 612,-2222.5 612,-2192.5 321,-2192.5"/>
<text text-anchor="start" x="328" y="-2203.9" font-family="Arial" font-size="14.00" fill="#000000">stay_in_touch_trigger_date </text>
<text text-anchor="start" x="500.7264" y="-2203.9" font-family="Arial" font-size="14.00" fill="#666666">[datetime]</text>
<polygon fill="none" stroke="#000000" points="321,-2162.5 321,-2192.5 612,-2192.5 612,-2162.5 321,-2162.5"/>
<text text-anchor="start" x="328" y="-2173.9" font-family="Arial" font-size="14.00" fill="#000000">birthday_special_date_id </text>
<text text-anchor="start" x="486.7152" y="-2173.9" font-family="Arial" font-size="14.00" fill="#666666">[int(10) unsigned]</text>
<polygon fill="none" stroke="#000000" points="321,-2132.5 321,-2162.5 612,-2162.5 612,-2132.5 321,-2132.5"/>
<text text-anchor="start" x="328" y="-2143.9" font-family="Arial" font-size="14.00" fill="#000000">birthday_reminder_id </text>
<text text-anchor="start" x="463.352" y="-2143.9" font-family="Arial" font-size="14.00" fill="#666666">[int(10) unsigned]</text>
<polygon fill="none" stroke="#000000" points="321,-2102.5 321,-2132.5 612,-2132.5 612,-2102.5 321,-2102.5"/>
<text text-anchor="start" x="328" y="-2113.9" font-family="Arial" font-size="14.00" fill="#000000">first_met_through_contact_id </text>
<text text-anchor="start" x="512.3856" y="-2113.9" font-family="Arial" font-size="14.00" fill="#666666">[int(11)]</text>
<polygon fill="none" stroke="#000000" points="321,-2072.5 321,-2102.5 612,-2102.5 612,-2072.5 321,-2072.5"/>
<text text-anchor="start" x="328" y="-2083.9" font-family="Arial" font-size="14.00" fill="#000000">first_met_special_date_id </text>
<text text-anchor="start" x="490.5918" y="-2083.9" font-family="Arial" font-size="14.00" fill="#666666">[int(10) unsigned]</text>
<polygon fill="none" stroke="#000000" points="321,-2042.5 321,-2072.5 612,-2072.5 612,-2042.5 321,-2042.5"/>
<text text-anchor="start" x="328" y="-2053.9" font-family="Arial" font-size="14.00" fill="#000000">first_met_reminder_id </text>
<text text-anchor="start" x="467.2286" y="-2053.9" font-family="Arial" font-size="14.00" fill="#666666">[int(10) unsigned]</text>
<polygon fill="none" stroke="#000000" points="321,-2012.5 321,-2042.5 612,-2042.5 612,-2012.5 321,-2012.5"/>
<text text-anchor="start" x="328" y="-2023.9" font-family="Arial" font-size="14.00" fill="#000000">first_met_where </text>
<text text-anchor="start" x="431.453" y="-2023.9" font-family="Arial" font-size="14.00" fill="#666666">[varchar(255)]</text>
<polygon fill="none" stroke="#000000" points="321,-1982.5 321,-2012.5 612,-2012.5 612,-1982.5 321,-1982.5"/>
<text text-anchor="start" x="328" y="-1993.9" font-family="Arial" font-size="14.00" fill="#000000">first_met_additional_info </text>
<text text-anchor="start" x="483.589" y="-1993.9" font-family="Arial" font-size="14.00" fill="#666666">[longtext]</text>
<polygon fill="none" stroke="#000000" points="321,-1952.5 321,-1982.5 612,-1982.5 612,-1952.5 321,-1952.5"/>
<text text-anchor="start" x="328" y="-1963.9" font-family="Arial" font-size="14.00" fill="#000000">job </text>
<text text-anchor="start" x="350.5624" y="-1963.9" font-family="Arial" font-size="14.00" fill="#666666">[varchar(255)]</text>
<polygon fill="none" stroke="#000000" points="321,-1922.5 321,-1952.5 612,-1952.5 612,-1922.5 321,-1922.5"/>
<text text-anchor="start" x="328" y="-1933.9" font-family="Arial" font-size="14.00" fill="#000000">company </text>
<text text-anchor="start" x="388.6816" y="-1933.9" font-family="Arial" font-size="14.00" fill="#666666">[varchar(255)]</text>
<polygon fill="none" stroke="#000000" points="321,-1892.5 321,-1922.5 612,-1922.5 612,-1892.5 321,-1892.5"/>
<text text-anchor="start" x="328" y="-1903.9" font-family="Arial" font-size="14.00" fill="#000000">food_preferences </text>
<text text-anchor="start" x="440.819" y="-1903.9" font-family="Arial" font-size="14.00" fill="#666666">[longtext]</text>
<polygon fill="none" stroke="#000000" points="321,-1862.5 321,-1892.5 612,-1892.5 612,-1862.5 321,-1862.5"/>
<text text-anchor="start" x="328" y="-1873.9" font-family="Arial" font-size="14.00" fill="#000000">avatar_source </text>
<text text-anchor="start" x="420.5806" y="-1873.9" font-family="Arial" font-size="14.00" fill="#666666">[varchar(255)]</text>
<polygon fill="none" stroke="#000000" points="321,-1832.5 321,-1862.5 612,-1862.5 612,-1832.5 321,-1832.5"/>
<text text-anchor="start" x="328" y="-1843.9" font-family="Arial" font-size="14.00" fill="#000000">avatar_gravatar_url </text>
<text text-anchor="start" x="453.2468" y="-1843.9" font-family="Arial" font-size="14.00" fill="#666666">[varchar(250)]</text>
<polygon fill="none" stroke="#000000" points="321,-1802.5 321,-1832.5 612,-1832.5 612,-1802.5 321,-1802.5"/>
<text text-anchor="start" x="328" y="-1813.9" font-family="Arial" font-size="14.00" fill="#000000">avatar_adorable_uuid </text>
<text text-anchor="start" x="467.272" y="-1813.9" font-family="Arial" font-size="14.00" fill="#666666">[char(36)]</text>
<polygon fill="none" stroke="#000000" points="321,-1772.5 321,-1802.5 612,-1802.5 612,-1772.5 321,-1772.5"/>
<text text-anchor="start" x="328" y="-1783.9" font-family="Arial" font-size="14.00" fill="#000000">avatar_adorable_url </text>
<text text-anchor="start" x="456.3674" y="-1783.9" font-family="Arial" font-size="14.00" fill="#666666">[varchar(250)]</text>
<polygon fill="none" stroke="#000000" points="321,-1742.5 321,-1772.5 612,-1772.5 612,-1742.5 321,-1742.5"/>
<text text-anchor="start" x="328" y="-1753.9" font-family="Arial" font-size="14.00" fill="#000000">avatar_default_url </text>
<text text-anchor="start" x="443.9228" y="-1753.9" font-family="Arial" font-size="14.00" fill="#666666">[varchar(250)]</text>
<polygon fill="none" stroke="#000000" points="321,-1712.5 321,-1742.5 612,-1742.5 612,-1712.5 321,-1712.5"/>
<text text-anchor="start" x="328" y="-1723.9" font-family="Arial" font-size="14.00" fill="#000000">avatar_photo_id </text>
<text text-anchor="start" x="432.265" y="-1723.9" font-family="Arial" font-size="14.00" fill="#666666">[int(10) unsigned]</text>
<polygon fill="none" stroke="#000000" points="321,-1682.5 321,-1712.5 612,-1712.5 612,-1682.5 321,-1682.5"/>
<text text-anchor="start" x="328" y="-1693.9" font-family="Arial" font-size="14.00" fill="#000000">has_avatar </text>
<text text-anchor="start" x="401.1374" y="-1693.9" font-family="Arial" font-size="14.00" fill="#666666">[tinyint(1)]</text>
<polygon fill="none" stroke="#000000" points="321,-1652.5 321,-1682.5 612,-1682.5 612,-1652.5 321,-1652.5"/>
<text text-anchor="start" x="328" y="-1663.9" font-family="Arial" font-size="14.00" fill="#000000">avatar_external_url </text>
<text text-anchor="start" x="451.6928" y="-1663.9" font-family="Arial" font-size="14.00" fill="#666666">[varchar(400)]</text>
<polygon fill="none" stroke="#000000" points="321,-1622.5 321,-1652.5 612,-1652.5 612,-1622.5 321,-1622.5"/>
<text text-anchor="start" x="328" y="-1633.9" font-family="Arial" font-size="14.00" fill="#000000">avatar_file_name </text>
<text text-anchor="start" x="439.2496" y="-1633.9" font-family="Arial" font-size="14.00" fill="#666666">[varchar(255)]</text>
<polygon fill="none" stroke="#000000" points="321,-1592.5 321,-1622.5 612,-1622.5 612,-1592.5 321,-1592.5"/>
<text text-anchor="start" x="328" y="-1603.9" font-family="Arial" font-size="14.00" fill="#000000">avatar_location </text>
<text text-anchor="start" x="426.8064" y="-1603.9" font-family="Arial" font-size="14.00" fill="#666666">[varchar(255)]</text>
<polygon fill="none" stroke="#000000" points="321,-1562.5 321,-1592.5 612,-1592.5 612,-1562.5 321,-1562.5"/>
<text text-anchor="start" x="328" y="-1573.9" font-family="Arial" font-size="14.00" fill="#000000">gravatar_url </text>
<text text-anchor="start" x="406.5652" y="-1573.9" font-family="Arial" font-size="14.00" fill="#666666">[varchar(255)]</text>
<polygon fill="none" stroke="#000000" points="321,-1532.5 321,-1562.5 612,-1562.5 612,-1532.5 321,-1532.5"/>
<text text-anchor="start" x="328" y="-1543.9" font-family="Arial" font-size="14.00" fill="#000000">vcard </text>
<text text-anchor="start" x="366.1164" y="-1543.9" font-family="Arial" font-size="14.00" fill="#666666">[mediumtext]</text>
<polygon fill="none" stroke="#000000" points="321,-1502.5 321,-1532.5 612,-1532.5 612,-1502.5 321,-1502.5"/>
<text text-anchor="start" x="328" y="-1513.9" font-family="Arial" font-size="14.00" fill="#000000">last_consulted_at </text>
<text text-anchor="start" x="440.819" y="-1513.9" font-family="Arial" font-size="14.00" fill="#666666">[timestamp]</text>
<polygon fill="none" stroke="#000000" points="321,-1472.5 321,-1502.5 612,-1502.5 612,-1472.5 321,-1472.5"/>
<text text-anchor="start" x="328" y="-1483.9" font-family="Arial" font-size="14.00" fill="#000000">number_of_views </text>
<text text-anchor="start" x="441.5764" y="-1483.9" font-family="Arial" font-size="14.00" fill="#666666">[int(11)]</text>
<polygon fill="none" stroke="#000000" points="321,-1442.5 321,-1472.5 612,-1472.5 612,-1442.5 321,-1442.5"/>
<text text-anchor="start" x="328" y="-1453.9" font-family="Arial" font-size="14.00" fill="#000000">created_at </text>
<text text-anchor="start" x="398.028" y="-1453.9" font-family="Arial" font-size="14.00" fill="#666666">[timestamp]</text>
<polygon fill="none" stroke="#000000" points="321,-1412.5 321,-1442.5 612,-1442.5 612,-1412.5 321,-1412.5"/>
<text text-anchor="start" x="328" y="-1423.9" font-family="Arial" font-size="14.00" fill="#000000">updated_at </text>
<text text-anchor="start" x="401.9326" y="-1423.9" font-family="Arial" font-size="14.00" fill="#666666">[timestamp]</text>
<polygon fill="none" stroke="#000000" points="321,-1382.5 321,-1412.5 612,-1412.5 612,-1382.5 321,-1382.5"/>
<text text-anchor="start" x="328" y="-1393.9" font-family="Arial" font-size="14.00" fill="#000000">default_avatar_color </text>
<text text-anchor="start" x="458.7054" y="-1393.9" font-family="Arial" font-size="14.00" fill="#666666">[varchar(255)]</text>
<polygon fill="none" stroke="#000000" points="321,-1352.5 321,-1382.5 612,-1382.5 612,-1352.5 321,-1352.5"/>
<text text-anchor="start" x="328" y="-1363.9" font-family="Arial" font-size="14.00" fill="#000000">has_avatar_bool </text>
<text text-anchor="start" x="435.3744" y="-1363.9" font-family="Arial" font-size="14.00" fill="#666666">[tinyint(1)]</text>
</g>
<!-- contacts&#45;&gt;addressbooks -->
<g id="edge1" class="edge">
<title>contacts:address_book_id&#45;&gt;addressbooks:id</title>
<path fill="none" stroke="#000000" d="M310.7916,-2687.027C-13.9116,-2656.692 22.801,-1177.5 355,-1177.5"/>
<polygon fill="#000000" stroke="#000000" points="311.0107,-2687.037 320.7917,-2691.9952 316.0054,-2687.2685 321,-2687.5 321,-2687.5 321,-2687.5 316.0054,-2687.2685 321.2083,-2683.0048 311.0107,-2687.037 311.0107,-2687.037"/>
<text text-anchor="start" x="7.3705" y="-2697.5" font-family="Arial" font-size="10.00" fill="#000000">FOREIGN KEY (address_book_id) REFERENCES addressbooks (id)</text>
</g>
</g>
</svg>
