<?xml version="1.0" encoding="UTF-8" standalone="no"?>
<!DOCTYPE svg PUBLIC "-//W3C//DTD SVG 1.1//EN"
 "http://www.w3.org/Graphics/SVG/1.1/DTD/svg11.dtd">
<!-- Generated by graphviz version 2.40.1 (20161225.0304)
 -->
<!-- Title: companies Pages: 1 -->
<svg width="600pt" height="1439pt"
 viewBox="0.00 0.00 599.50 1439.00" xmlns="http://www.w3.org/2000/svg" xmlns:xlink="http://www.w3.org/1999/xlink">
<g id="graph0" class="graph" transform="scale(1 1) rotate(0) translate(4 1435)">
<title>companies</title>
<polygon fill="#ffffff" stroke="transparent" points="-4,4 -4,-1435 595.5,-1435 595.5,4 -4,4"/>
<!-- companies -->
<g id="node1" class="node">
<title>companies</title>
<polygon fill="#efefef" stroke="transparent" points="288,-802.5 288,-837.5 495,-837.5 495,-802.5 288,-802.5"/>
<polygon fill="none" stroke="#000000" points="288,-802.5 288,-837.5 495,-837.5 495,-802.5 288,-802.5"/>
<text text-anchor="start" x="299.3644" y="-815.3" font-family="Arial Bold" font-size="18.00" fill="#000000">companies</text>
<text text-anchor="start" x="386.3818" y="-815.3" font-family="Arial" font-size="14.00" fill="#000000"> </text>
<text text-anchor="start" x="390.2724" y="-815.3" font-family="Arial" font-size="14.00" fill="#666666">[BASE TABLE]</text>
<polygon fill="none" stroke="#000000" points="288,-772.5 288,-802.5 495,-802.5 495,-772.5 288,-772.5"/>
<text text-anchor="start" x="295" y="-783.9" font-family="Arial" font-size="14.00" fill="#000000">id </text>
<text text-anchor="start" x="309.7798" y="-783.9" font-family="Arial" font-size="14.00" fill="#666666">[int(10) unsigned]</text>
<polygon fill="none" stroke="#000000" points="288,-742.5 288,-772.5 495,-772.5 495,-742.5 288,-742.5"/>
<text text-anchor="start" x="295" y="-753.9" font-family="Arial" font-size="14.00" fill="#000000">account_id </text>
<text text-anchor="start" x="366.5834" y="-753.9" font-family="Arial" font-size="14.00" fill="#666666">[int(10) unsigned]</text>
<polygon fill="none" stroke="#000000" points="288,-712.5 288,-742.5 495,-742.5 495,-712.5 288,-712.5"/>
<text text-anchor="start" x="295" y="-723.9" font-family="Arial" font-size="14.00" fill="#000000">name </text>
<text text-anchor="start" x="333.899" y="-723.9" font-family="Arial" font-size="14.00" fill="#666666">[varchar(255)]</text>
<polygon fill="none" stroke="#000000" points="288,-682.5 288,-712.5 495,-712.5 495,-682.5 288,-682.5"/>
<text text-anchor="start" x="295" y="-693.9" font-family="Arial" font-size="14.00" fill="#000000">website </text>
<text text-anchor="start" x="346.3422" y="-693.9" font-family="Arial" font-size="14.00" fill="#666666">[varchar(255)]</text>
<polygon fill="none" stroke="#000000" points="288,-652.5 288,-682.5 495,-682.5 495,-652.5 288,-652.5"/>
<text text-anchor="start" x="294.6459" y="-663.9" font-family="Arial" font-size="14.00" fill="#000000">number_of_employees </text>
<text text-anchor="start" x="440.9067" y="-663.9" font-family="Arial" font-size="14.00" fill="#666666">[int(11)]</text>
<polygon fill="none" stroke="#000000" points="288,-622.5 288,-652.5 495,-652.5 495,-622.5 288,-622.5"/>
<text text-anchor="start" x="295" y="-633.9" font-family="Arial" font-size="14.00" fill="#000000">created_at </text>
<text text-anchor="start" x="365.028" y="-633.9" font-family="Arial" font-size="14.00" fill="#666666">[timestamp]</text>
<polygon fill="none" stroke="#000000" points="288,-592.5 288,-622.5 495,-622.5 495,-592.5 288,-592.5"/>
<text text-anchor="start" x="295" y="-603.9" font-family="Arial" font-size="14.00" fill="#000000">updated_at </text>
<text text-anchor="start" x="368.9326" y="-603.9" font-family="Arial" font-size="14.00" fill="#666666">[timestamp]</text>
<polygon fill="none" stroke="#000000" stroke-width="3" points="286,-591.5 286,-839.5 496,-839.5 496,-591.5 286,-591.5"/>
</g>
<!-- accounts -->
<g id="node3" class="node">
<title>accounts</title>
<polygon fill="#efefef" stroke="transparent" points="234,-432.5 234,-467.5 549,-467.5 549,-432.5 234,-432.5"/>
<polygon fill="none" stroke="#000000" points="234,-432.5 234,-467.5 549,-467.5 549,-432.5 234,-432.5"/>
<text text-anchor="start" x="306.8596" y="-445.3" font-family="Arial Bold" font-size="18.00" fill="#000000">accounts</text>
<text text-anchor="start" x="378.8866" y="-445.3" font-family="Arial" font-size="14.00" fill="#000000"> </text>
<text text-anchor="start" x="382.7772" y="-445.3" font-family="Arial" font-size="14.00" fill="#666666">[BASE TABLE]</text>
<polygon fill="none" stroke="#000000" points="234,-402.5 234,-432.5 549,-432.5 549,-402.5 234,-402.5"/>
<text text-anchor="start" x="241" y="-413.9" font-family="Arial" font-size="14.00" fill="#000000">id </text>
<text text-anchor="start" x="255.7798" y="-413.9" font-family="Arial" font-size="14.00" fill="#666666">[int(10) unsigned]</text>
<polygon fill="none" stroke="#000000" points="234,-372.5 234,-402.5 549,-402.5 549,-372.5 234,-372.5"/>
<text text-anchor="start" x="240.573" y="-383.9" font-family="Arial" font-size="14.00" fill="#000000">has_access_to_paid_version_for_free </text>
<text text-anchor="start" x="480.9824" y="-383.9" font-family="Arial" font-size="14.00" fill="#666666">[tinyint(1)]</text>
<polygon fill="none" stroke="#000000" points="234,-342.5 234,-372.5 549,-372.5 549,-342.5 234,-342.5"/>
<text text-anchor="start" x="241" y="-353.9" font-family="Arial" font-size="14.00" fill="#000000">api_key </text>
<text text-anchor="start" x="293.1276" y="-353.9" font-family="Arial" font-size="14.00" fill="#666666">[varchar(255)]</text>
<polygon fill="none" stroke="#000000" points="234,-312.5 234,-342.5 549,-342.5 549,-312.5 234,-312.5"/>
<text text-anchor="start" x="241" y="-323.9" font-family="Arial" font-size="14.00" fill="#000000">number_of_invitations_sent </text>
<text text-anchor="start" x="416.0504" y="-323.9" font-family="Arial" font-size="14.00" fill="#666666">[int(11)]</text>
<polygon fill="none" stroke="#000000" points="234,-282.5 234,-312.5 549,-312.5 549,-282.5 234,-282.5"/>
<text text-anchor="start" x="241" y="-293.9" font-family="Arial" font-size="14.00" fill="#000000">default_time_reminder_is_sent </text>
<text text-anchor="start" x="436.2608" y="-293.9" font-family="Arial" font-size="14.00" fill="#666666">[varchar(255)]</text>
<polygon fill="none" stroke="#000000" points="234,-252.5 234,-282.5 549,-282.5 549,-252.5 234,-252.5"/>
<text text-anchor="start" x="241" y="-263.9" font-family="Arial" font-size="14.00" fill="#000000">default_gender_id </text>
<text text-anchor="start" x="356.9368" y="-263.9" font-family="Arial" font-size="14.00" fill="#666666">[int(10) unsigned]</text>
<polygon fill="none" stroke="#000000" points="234,-222.5 234,-252.5 549,-252.5 549,-222.5 234,-222.5"/>
<text text-anchor="start" x="241" y="-233.9" font-family="Arial" font-size="14.00" fill="#000000">stripe_id </text>
<text text-anchor="start" x="297.7854" y="-233.9" font-family="Arial" font-size="14.00" fill="#666666">[varchar(255)]</text>
<polygon fill="none" stroke="#000000" points="234,-192.5 234,-222.5 549,-222.5 549,-192.5 234,-192.5"/>
<text text-anchor="start" x="241" y="-203.9" font-family="Arial" font-size="14.00" fill="#000000">card_brand </text>
<text text-anchor="start" x="315.69" y="-203.9" font-family="Arial" font-size="14.00" fill="#666666">[varchar(255)]</text>
<polygon fill="none" stroke="#000000" points="234,-162.5 234,-192.5 549,-192.5 549,-162.5 234,-162.5"/>
<text text-anchor="start" x="241" y="-173.9" font-family="Arial" font-size="14.00" fill="#000000">card_last_four </text>
<text text-anchor="start" x="333.5778" y="-173.9" font-family="Arial" font-size="14.00" fill="#666666">[varchar(4)]</text>
<polygon fill="none" stroke="#000000" points="234,-132.5 234,-162.5 549,-162.5 549,-132.5 234,-132.5"/>
<text text-anchor="start" x="241" y="-143.9" font-family="Arial" font-size="14.00" fill="#000000">trial_ends_at </text>
<text text-anchor="start" x="325.0238" y="-143.9" font-family="Arial" font-size="14.00" fill="#666666">[timestamp]</text>
<polygon fill="none" stroke="#000000" points="234,-102.5 234,-132.5 549,-132.5 549,-102.5 234,-102.5"/>
<text text-anchor="start" x="241" y="-113.9" font-family="Arial" font-size="14.00" fill="#000000">legacy_free_plan_unlimited_contacts </text>
<text text-anchor="start" x="475.1766" y="-113.9" font-family="Arial" font-size="14.00" fill="#666666">[tinyint(1)]</text>
<polygon fill="none" stroke="#000000" points="234,-72.5 234,-102.5 549,-102.5 549,-72.5 234,-72.5"/>
<text text-anchor="start" x="241" y="-83.9" font-family="Arial" font-size="14.00" fill="#000000">created_at </text>
<text text-anchor="start" x="311.028" y="-83.9" font-family="Arial" font-size="14.00" fill="#666666">[timestamp]</text>
<polygon fill="none" stroke="#000000" points="234,-42.5 234,-72.5 549,-72.5 549,-42.5 234,-42.5"/>
<text text-anchor="start" x="241" y="-53.9" font-family="Arial" font-size="14.00" fill="#000000">updated_at </text>
<text text-anchor="start" x="314.9326" y="-53.9" font-family="Arial" font-size="14.00" fill="#666666">[timestamp]</text>
</g>
<!-- companies&#45;&gt;accounts -->
<g id="edge2" class="edge">
<title>companies:account_id&#45;&gt;accounts:id</title>
<path fill="none" stroke="#000000" d="M277.8361,-755.5033C206.9092,-727.6392 160.9341,-417.5 234,-417.5"/>
<polygon fill="#000000" stroke="#000000" points="278.1875,-755.5723 287.1325,-761.9156 283.0938,-756.5361 288,-757.5 288,-757.5 288,-757.5 283.0938,-756.5361 288.8675,-753.0844 278.1875,-755.5723 278.1875,-755.5723"/>
<text text-anchor="start" x="24.377" y="-767.5" font-family="Arial" font-size="10.00" fill="#000000">FOREIGN KEY (account_id) REFERENCES accounts (id)</text>
</g>
<!-- occupations -->
<g id="node2" class="node">
<title>occupations</title>
<polygon fill="#efefef" stroke="transparent" points="285,-1352.5 285,-1387.5 498,-1387.5 498,-1352.5 285,-1352.5"/>
<polygon fill="none" stroke="#000000" points="285,-1352.5 285,-1387.5 498,-1387.5 498,-1352.5 285,-1352.5"/>
<text text-anchor="start" x="294.8563" y="-1365.3" font-family="Arial Bold" font-size="18.00" fill="#000000">occupations</text>
<text text-anchor="start" x="390.8899" y="-1365.3" font-family="Arial" font-size="14.00" fill="#000000"> </text>
<text text-anchor="start" x="394.7805" y="-1365.3" font-family="Arial" font-size="14.00" fill="#666666">[BASE TABLE]</text>
<polygon fill="none" stroke="#000000" points="285,-1322.5 285,-1352.5 498,-1352.5 498,-1322.5 285,-1322.5"/>
<text text-anchor="start" x="292" y="-1333.9" font-family="Arial" font-size="14.00" fill="#000000">id </text>
<text text-anchor="start" x="306.7798" y="-1333.9" font-family="Arial" font-size="14.00" fill="#666666">[int(10) unsigned]</text>
<polygon fill="none" stroke="#000000" points="285,-1292.5 285,-1322.5 498,-1322.5 498,-1292.5 285,-1292.5"/>
<text text-anchor="start" x="292" y="-1303.9" font-family="Arial" font-size="14.00" fill="#000000">account_id </text>
<text text-anchor="start" x="363.5834" y="-1303.9" font-family="Arial" font-size="14.00" fill="#666666">[int(10) unsigned]</text>
<polygon fill="none" stroke="#000000" points="285,-1262.5 285,-1292.5 498,-1292.5 498,-1262.5 285,-1262.5"/>
<text text-anchor="start" x="292" y="-1273.9" font-family="Arial" font-size="14.00" fill="#000000">contact_id </text>
<text text-anchor="start" x="359.6914" y="-1273.9" font-family="Arial" font-size="14.00" fill="#666666">[int(10) unsigned]</text>
<polygon fill="none" stroke="#000000" points="285,-1232.5 285,-1262.5 498,-1262.5 498,-1232.5 285,-1232.5"/>
<text text-anchor="start" x="292" y="-1243.9" font-family="Arial" font-size="14.00" fill="#000000">company_id </text>
<text text-anchor="start" x="371.3534" y="-1243.9" font-family="Arial" font-size="14.00" fill="#666666">[int(10) unsigned]</text>
<polygon fill="none" stroke="#000000" points="285,-1202.5 285,-1232.5 498,-1232.5 498,-1202.5 285,-1202.5"/>
<text text-anchor="start" x="292" y="-1213.9" font-family="Arial" font-size="14.00" fill="#000000">title </text>
<text text-anchor="start" x="317.6676" y="-1213.9" font-family="Arial" font-size="14.00" fill="#666666">[varchar(255)]</text>
<polygon fill="none" stroke="#000000" points="285,-1172.5 285,-1202.5 498,-1202.5 498,-1172.5 285,-1172.5"/>
<text text-anchor="start" x="292" y="-1183.9" font-family="Arial" font-size="14.00" fill="#000000">description </text>
<text text-anchor="start" x="363.568" y="-1183.9" font-family="Arial" font-size="14.00" fill="#666666">[varchar(1000)]</text>
<polygon fill="none" stroke="#000000" points="285,-1142.5 285,-1172.5 498,-1172.5 498,-1142.5 285,-1142.5"/>
<text text-anchor="start" x="292" y="-1153.9" font-family="Arial" font-size="14.00" fill="#000000">salary </text>
<text text-anchor="start" x="333.223" y="-1153.9" font-family="Arial" font-size="14.00" fill="#666666">[int(11)]</text>
<polygon fill="none" stroke="#000000" points="285,-1112.5 285,-1142.5 498,-1142.5 498,-1112.5 285,-1112.5"/>
<text text-anchor="start" x="292" y="-1123.9" font-family="Arial" font-size="14.00" fill="#000000">salary_unit </text>
<text text-anchor="start" x="363.568" y="-1123.9" font-family="Arial" font-size="14.00" fill="#666666">[varchar(255)]</text>
<polygon fill="none" stroke="#000000" points="285,-1082.5 285,-1112.5 498,-1112.5 498,-1082.5 285,-1082.5"/>
<text text-anchor="start" x="291.9376" y="-1093.9" font-family="Arial" font-size="14.00" fill="#000000">currently_works_here </text>
<text text-anchor="start" x="429.6178" y="-1093.9" font-family="Arial" font-size="14.00" fill="#666666">[tinyint(1)]</text>
<polygon fill="none" stroke="#000000" points="285,-1052.5 285,-1082.5 498,-1082.5 498,-1052.5 285,-1052.5"/>
<text text-anchor="start" x="292" y="-1063.9" font-family="Arial" font-size="14.00" fill="#000000">start_date </text>
<text text-anchor="start" x="358.136" y="-1063.9" font-family="Arial" font-size="14.00" fill="#666666">[date]</text>
<polygon fill="none" stroke="#000000" points="285,-1022.5 285,-1052.5 498,-1052.5 498,-1022.5 285,-1022.5"/>
<text text-anchor="start" x="292" y="-1033.9" font-family="Arial" font-size="14.00" fill="#000000">end_date </text>
<text text-anchor="start" x="354.2594" y="-1033.9" font-family="Arial" font-size="14.00" fill="#666666">[date]</text>
<polygon fill="none" stroke="#000000" points="285,-992.5 285,-1022.5 498,-1022.5 498,-992.5 285,-992.5"/>
<text text-anchor="start" x="292" y="-1003.9" font-family="Arial" font-size="14.00" fill="#000000">created_at </text>
<text text-anchor="start" x="362.028" y="-1003.9" font-family="Arial" font-size="14.00" fill="#666666">[timestamp]</text>
<polygon fill="none" stroke="#000000" points="285,-962.5 285,-992.5 498,-992.5 498,-962.5 285,-962.5"/>
<text text-anchor="start" x="292" y="-973.9" font-family="Arial" font-size="14.00" fill="#000000">updated_at </text>
<text text-anchor="start" x="365.9326" y="-973.9" font-family="Arial" font-size="14.00" fill="#666666">[timestamp]</text>
</g>
<!-- occupations&#45;&gt;companies -->
<g id="edge1" class="edge">
<title>occupations:company_id&#45;&gt;companies:id</title>
<path fill="none" stroke="#000000" d="M274.8866,-1245.9245C183.0966,-1216.5921 189.2696,-787.5 288,-787.5"/>
<polygon fill="#000000" stroke="#000000" points="275.1192,-1245.9607 284.3073,-1251.9464 280.0596,-1246.7304 285,-1247.5 285,-1247.5 285,-1247.5 280.0596,-1246.7304 285.6927,-1243.0536 275.1192,-1245.9607 275.1192,-1245.9607"/>
<text text-anchor="start" x="7.438" y="-1257.5" font-family="Arial" font-size="10.00" fill="#000000">FOREIGN KEY (company_id) REFERENCES companies (id)</text>
</g>
</g>
</svg>
