<?xml version="1.0" encoding="UTF-8" standalone="no"?>
<!DOCTYPE svg PUBLIC "-//W3C//DTD SVG 1.1//EN"
 "http://www.w3.org/Graphics/SVG/1.1/DTD/svg11.dtd">
<!-- Generated by graphviz version 2.40.1 (20161225.0304)
 -->
<!-- Title: contact_tag Pages: 1 -->
<svg width="1101pt" height="1852pt"
 viewBox="0.00 0.00 1101.00 1852.00" xmlns="http://www.w3.org/2000/svg" xmlns:xlink="http://www.w3.org/1999/xlink">
<g id="graph0" class="graph" transform="scale(1 1) rotate(0) translate(4 1848)">
<title>contact_tag</title>
<polygon fill="#ffffff" stroke="transparent" points="-4,4 -4,-1848 1097,-1848 1097,4 -4,4"/>
<!-- contact_tag -->
<g id="node1" class="node">
<title>contact_tag</title>
<polygon fill="#efefef" stroke="transparent" points="433.5,-1762.5 433.5,-1797.5 637.5,-1797.5 637.5,-1762.5 433.5,-1762.5"/>
<polygon fill="none" stroke="#000000" points="433.5,-1762.5 433.5,-1797.5 637.5,-1797.5 637.5,-1762.5 433.5,-1762.5"/>
<text text-anchor="start" x="440.3512" y="-1775.3" font-family="Arial Bold" font-size="18.00" fill="#000000">contact_tag</text>
<text text-anchor="start" x="533.395" y="-1775.3" font-family="Arial" font-size="14.00" fill="#000000"> </text>
<text text-anchor="start" x="537.2856" y="-1775.3" font-family="Arial" font-size="14.00" fill="#666666">[BASE TABLE]</text>
<polygon fill="none" stroke="#000000" points="433.5,-1732.5 433.5,-1762.5 637.5,-1762.5 637.5,-1732.5 433.5,-1732.5"/>
<text text-anchor="start" x="440.5" y="-1743.9" font-family="Arial" font-size="14.00" fill="#000000">contact_id </text>
<text text-anchor="start" x="508.1914" y="-1743.9" font-family="Arial" font-size="14.00" fill="#666666">[int(10) unsigned]</text>
<polygon fill="none" stroke="#000000" points="433.5,-1702.5 433.5,-1732.5 637.5,-1732.5 637.5,-1702.5 433.5,-1702.5"/>
<text text-anchor="start" x="440.5" y="-1713.9" font-family="Arial" font-size="14.00" fill="#000000">tag_id </text>
<text text-anchor="start" x="482.5182" y="-1713.9" font-family="Arial" font-size="14.00" fill="#666666">[int(10) unsigned]</text>
<polygon fill="none" stroke="#000000" points="433.5,-1672.5 433.5,-1702.5 637.5,-1702.5 637.5,-1672.5 433.5,-1672.5"/>
<text text-anchor="start" x="440.5" y="-1683.9" font-family="Arial" font-size="14.00" fill="#000000">account_id </text>
<text text-anchor="start" x="512.0834" y="-1683.9" font-family="Arial" font-size="14.00" fill="#666666">[int(10) unsigned]</text>
<polygon fill="none" stroke="#000000" points="433.5,-1642.5 433.5,-1672.5 637.5,-1672.5 637.5,-1642.5 433.5,-1642.5"/>
<text text-anchor="start" x="440.5" y="-1653.9" font-family="Arial" font-size="14.00" fill="#000000">created_at </text>
<text text-anchor="start" x="510.528" y="-1653.9" font-family="Arial" font-size="14.00" fill="#666666">[timestamp]</text>
<polygon fill="none" stroke="#000000" points="433.5,-1612.5 433.5,-1642.5 637.5,-1642.5 637.5,-1612.5 433.5,-1612.5"/>
<text text-anchor="start" x="440.5" y="-1623.9" font-family="Arial" font-size="14.00" fill="#000000">updated_at </text>
<text text-anchor="start" x="514.4326" y="-1623.9" font-family="Arial" font-size="14.00" fill="#666666">[timestamp]</text>
<polygon fill="none" stroke="#000000" stroke-width="3" points="432,-1611.5 432,-1799.5 639,-1799.5 639,-1611.5 432,-1611.5"/>
</g>
<!-- contacts -->
<g id="node2" class="node">
<title>contacts</title>
<polygon fill="#efefef" stroke="transparent" points="43.5,-1452.5 43.5,-1487.5 334.5,-1487.5 334.5,-1452.5 43.5,-1452.5"/>
<polygon fill="none" stroke="#000000" points="43.5,-1452.5 43.5,-1487.5 334.5,-1487.5 334.5,-1452.5 43.5,-1452.5"/>
<text text-anchor="start" x="106.8616" y="-1465.3" font-family="Arial Bold" font-size="18.00" fill="#000000">contacts</text>
<text text-anchor="start" x="173.8846" y="-1465.3" font-family="Arial" font-size="14.00" fill="#000000"> </text>
<text text-anchor="start" x="177.7752" y="-1465.3" font-family="Arial" font-size="14.00" fill="#666666">[BASE TABLE]</text>
<polygon fill="none" stroke="#000000" points="43.5,-1422.5 43.5,-1452.5 334.5,-1452.5 334.5,-1422.5 43.5,-1422.5"/>
<text text-anchor="start" x="50.5" y="-1433.9" font-family="Arial" font-size="14.00" fill="#000000">id </text>
<text text-anchor="start" x="65.2798" y="-1433.9" font-family="Arial" font-size="14.00" fill="#666666">[int(10) unsigned]</text>
<polygon fill="none" stroke="#000000" points="43.5,-1392.5 43.5,-1422.5 334.5,-1422.5 334.5,-1392.5 43.5,-1392.5"/>
<text text-anchor="start" x="50.5" y="-1403.9" font-family="Arial" font-size="14.00" fill="#000000">account_id </text>
<text text-anchor="start" x="122.0834" y="-1403.9" font-family="Arial" font-size="14.00" fill="#666666">[int(10) unsigned]</text>
<polygon fill="none" stroke="#000000" points="43.5,-1362.5 43.5,-1392.5 334.5,-1392.5 334.5,-1362.5 43.5,-1362.5"/>
<text text-anchor="start" x="50.5" y="-1373.9" font-family="Arial" font-size="14.00" fill="#000000">address_book_id </text>
<text text-anchor="start" x="160.9838" y="-1373.9" font-family="Arial" font-size="14.00" fill="#666666">[bigint(20) unsigned]</text>
<polygon fill="none" stroke="#000000" points="43.5,-1332.5 43.5,-1362.5 334.5,-1362.5 334.5,-1332.5 43.5,-1332.5"/>
<text text-anchor="start" x="50.5" y="-1343.9" font-family="Arial" font-size="14.00" fill="#000000">first_name </text>
<text text-anchor="start" x="119.73" y="-1343.9" font-family="Arial" font-size="14.00" fill="#666666">[varchar(255)]</text>
<polygon fill="none" stroke="#000000" points="43.5,-1302.5 43.5,-1332.5 334.5,-1332.5 334.5,-1302.5 43.5,-1302.5"/>
<text text-anchor="start" x="50.5" y="-1313.9" font-family="Arial" font-size="14.00" fill="#000000">middle_name </text>
<text text-anchor="start" x="138.4032" y="-1313.9" font-family="Arial" font-size="14.00" fill="#666666">[varchar(255)]</text>
<polygon fill="none" stroke="#000000" points="43.5,-1272.5 43.5,-1302.5 334.5,-1302.5 334.5,-1272.5 43.5,-1272.5"/>
<text text-anchor="start" x="50.5" y="-1283.9" font-family="Arial" font-size="14.00" fill="#000000">last_name </text>
<text text-anchor="start" x="118.9614" y="-1283.9" font-family="Arial" font-size="14.00" fill="#666666">[varchar(255)]</text>
<polygon fill="none" stroke="#000000" points="43.5,-1242.5 43.5,-1272.5 334.5,-1272.5 334.5,-1242.5 43.5,-1242.5"/>
<text text-anchor="start" x="50.5" y="-1253.9" font-family="Arial" font-size="14.00" fill="#000000">nickname </text>
<text text-anchor="start" x="114.2882" y="-1253.9" font-family="Arial" font-size="14.00" fill="#666666">[varchar(255)]</text>
<polygon fill="none" stroke="#000000" points="43.5,-1212.5 43.5,-1242.5 334.5,-1242.5 334.5,-1212.5 43.5,-1212.5"/>
<text text-anchor="start" x="50.5" y="-1223.9" font-family="Arial" font-size="14.00" fill="#000000">gender_id </text>
<text text-anchor="start" x="116.636" y="-1223.9" font-family="Arial" font-size="14.00" fill="#666666">[int(11)]</text>
<polygon fill="none" stroke="#000000" points="43.5,-1182.5 43.5,-1212.5 334.5,-1212.5 334.5,-1182.5 43.5,-1182.5"/>
<text text-anchor="start" x="50.5" y="-1193.9" font-family="Arial" font-size="14.00" fill="#000000">description </text>
<text text-anchor="start" x="122.068" y="-1193.9" font-family="Arial" font-size="14.00" fill="#666666">[varchar(255)]</text>
<polygon fill="none" stroke="#000000" points="43.5,-1152.5 43.5,-1182.5 334.5,-1182.5 334.5,-1152.5 43.5,-1152.5"/>
<text text-anchor="start" x="50.5" y="-1163.9" font-family="Arial" font-size="14.00" fill="#000000">uuid </text>
<text text-anchor="start" x="80.845" y="-1163.9" font-family="Arial" font-size="14.00" fill="#666666">[char(36)]</text>
<polygon fill="none" stroke="#000000" points="43.5,-1122.5 43.5,-1152.5 334.5,-1152.5 334.5,-1122.5 43.5,-1122.5"/>
<text text-anchor="start" x="50.5" y="-1133.9" font-family="Arial" font-size="14.00" fill="#000000">is_starred </text>
<text text-anchor="start" x="115.8394" y="-1133.9" font-family="Arial" font-size="14.00" fill="#666666">[tinyint(1)]</text>
<polygon fill="none" stroke="#000000" points="43.5,-1092.5 43.5,-1122.5 334.5,-1122.5 334.5,-1092.5 43.5,-1092.5"/>
<text text-anchor="start" x="50.5" y="-1103.9" font-family="Arial" font-size="14.00" fill="#000000">is_partial </text>
<text text-anchor="start" x="110.392" y="-1103.9" font-family="Arial" font-size="14.00" fill="#666666">[tinyint(1)]</text>
<polygon fill="none" stroke="#000000" points="43.5,-1062.5 43.5,-1092.5 334.5,-1092.5 334.5,-1062.5 43.5,-1062.5"/>
<text text-anchor="start" x="50.5" y="-1073.9" font-family="Arial" font-size="14.00" fill="#000000">is_active </text>
<text text-anchor="start" x="108.8422" y="-1073.9" font-family="Arial" font-size="14.00" fill="#666666">[tinyint(1)]</text>
<polygon fill="none" stroke="#000000" points="43.5,-1032.5 43.5,-1062.5 334.5,-1062.5 334.5,-1032.5 43.5,-1032.5"/>
<text text-anchor="start" x="50.5" y="-1043.9" font-family="Arial" font-size="14.00" fill="#000000">is_dead </text>
<text text-anchor="start" x="103.4102" y="-1043.9" font-family="Arial" font-size="14.00" fill="#666666">[tinyint(1)]</text>
<polygon fill="none" stroke="#000000" points="43.5,-1002.5 43.5,-1032.5 334.5,-1032.5 334.5,-1002.5 43.5,-1002.5"/>
<text text-anchor="start" x="50.1186" y="-1013.9" font-family="Arial" font-size="14.00" fill="#000000">deceased_special_date_id </text>
<text text-anchor="start" x="219.7412" y="-1013.9" font-family="Arial" font-size="14.00" fill="#666666">[int(10) unsigned]</text>
<polygon fill="none" stroke="#000000" points="43.5,-972.5 43.5,-1002.5 334.5,-1002.5 334.5,-972.5 43.5,-972.5"/>
<text text-anchor="start" x="50.5" y="-983.9" font-family="Arial" font-size="14.00" fill="#000000">deceased_reminder_id </text>
<text text-anchor="start" x="196.7594" y="-983.9" font-family="Arial" font-size="14.00" fill="#666666">[int(10) unsigned]</text>
<polygon fill="none" stroke="#000000" points="43.5,-942.5 43.5,-972.5 334.5,-972.5 334.5,-942.5 43.5,-942.5"/>
<text text-anchor="start" x="50.5" y="-953.9" font-family="Arial" font-size="14.00" fill="#000000">last_talked_to </text>
<text text-anchor="start" x="140.7538" y="-953.9" font-family="Arial" font-size="14.00" fill="#666666">[date]</text>
<polygon fill="none" stroke="#000000" points="43.5,-912.5 43.5,-942.5 334.5,-942.5 334.5,-912.5 43.5,-912.5"/>
<text text-anchor="start" x="50.5" y="-923.9" font-family="Arial" font-size="14.00" fill="#000000">stay_in_touch_frequency </text>
<text text-anchor="start" x="210.0034" y="-923.9" font-family="Arial" font-size="14.00" fill="#666666">[int(11)]</text>
<polygon fill="none" stroke="#000000" points="43.5,-882.5 43.5,-912.5 334.5,-912.5 334.5,-882.5 43.5,-882.5"/>
<text text-anchor="start" x="50.5" y="-893.9" font-family="Arial" font-size="14.00" fill="#000000">stay_in_touch_trigger_date </text>
<text text-anchor="start" x="223.2264" y="-893.9" font-family="Arial" font-size="14.00" fill="#666666">[datetime]</text>
<polygon fill="none" stroke="#000000" points="43.5,-852.5 43.5,-882.5 334.5,-882.5 334.5,-852.5 43.5,-852.5"/>
<text text-anchor="start" x="50.5" y="-863.9" font-family="Arial" font-size="14.00" fill="#000000">birthday_special_date_id </text>
<text text-anchor="start" x="209.2152" y="-863.9" font-family="Arial" font-size="14.00" fill="#666666">[int(10) unsigned]</text>
<polygon fill="none" stroke="#000000" points="43.5,-822.5 43.5,-852.5 334.5,-852.5 334.5,-822.5 43.5,-822.5"/>
<text text-anchor="start" x="50.5" y="-833.9" font-family="Arial" font-size="14.00" fill="#000000">birthday_reminder_id </text>
<text text-anchor="start" x="185.852" y="-833.9" font-family="Arial" font-size="14.00" fill="#666666">[int(10) unsigned]</text>
<polygon fill="none" stroke="#000000" points="43.5,-792.5 43.5,-822.5 334.5,-822.5 334.5,-792.5 43.5,-792.5"/>
<text text-anchor="start" x="50.5" y="-803.9" font-family="Arial" font-size="14.00" fill="#000000">first_met_through_contact_id </text>
<text text-anchor="start" x="234.8856" y="-803.9" font-family="Arial" font-size="14.00" fill="#666666">[int(11)]</text>
<polygon fill="none" stroke="#000000" points="43.5,-762.5 43.5,-792.5 334.5,-792.5 334.5,-762.5 43.5,-762.5"/>
<text text-anchor="start" x="50.5" y="-773.9" font-family="Arial" font-size="14.00" fill="#000000">first_met_special_date_id </text>
<text text-anchor="start" x="213.0918" y="-773.9" font-family="Arial" font-size="14.00" fill="#666666">[int(10) unsigned]</text>
<polygon fill="none" stroke="#000000" points="43.5,-732.5 43.5,-762.5 334.5,-762.5 334.5,-732.5 43.5,-732.5"/>
<text text-anchor="start" x="50.5" y="-743.9" font-family="Arial" font-size="14.00" fill="#000000">first_met_reminder_id </text>
<text text-anchor="start" x="189.7286" y="-743.9" font-family="Arial" font-size="14.00" fill="#666666">[int(10) unsigned]</text>
<polygon fill="none" stroke="#000000" points="43.5,-702.5 43.5,-732.5 334.5,-732.5 334.5,-702.5 43.5,-702.5"/>
<text text-anchor="start" x="50.5" y="-713.9" font-family="Arial" font-size="14.00" fill="#000000">first_met_where </text>
<text text-anchor="start" x="153.953" y="-713.9" font-family="Arial" font-size="14.00" fill="#666666">[varchar(255)]</text>
<polygon fill="none" stroke="#000000" points="43.5,-672.5 43.5,-702.5 334.5,-702.5 334.5,-672.5 43.5,-672.5"/>
<text text-anchor="start" x="50.5" y="-683.9" font-family="Arial" font-size="14.00" fill="#000000">first_met_additional_info </text>
<text text-anchor="start" x="206.089" y="-683.9" font-family="Arial" font-size="14.00" fill="#666666">[longtext]</text>
<polygon fill="none" stroke="#000000" points="43.5,-642.5 43.5,-672.5 334.5,-672.5 334.5,-642.5 43.5,-642.5"/>
<text text-anchor="start" x="50.5" y="-653.9" font-family="Arial" font-size="14.00" fill="#000000">job </text>
<text text-anchor="start" x="73.0624" y="-653.9" font-family="Arial" font-size="14.00" fill="#666666">[varchar(255)]</text>
<polygon fill="none" stroke="#000000" points="43.5,-612.5 43.5,-642.5 334.5,-642.5 334.5,-612.5 43.5,-612.5"/>
<text text-anchor="start" x="50.5" y="-623.9" font-family="Arial" font-size="14.00" fill="#000000">company </text>
<text text-anchor="start" x="111.1816" y="-623.9" font-family="Arial" font-size="14.00" fill="#666666">[varchar(255)]</text>
<polygon fill="none" stroke="#000000" points="43.5,-582.5 43.5,-612.5 334.5,-612.5 334.5,-582.5 43.5,-582.5"/>
<text text-anchor="start" x="50.5" y="-593.9" font-family="Arial" font-size="14.00" fill="#000000">food_preferences </text>
<text text-anchor="start" x="163.319" y="-593.9" font-family="Arial" font-size="14.00" fill="#666666">[longtext]</text>
<polygon fill="none" stroke="#000000" points="43.5,-552.5 43.5,-582.5 334.5,-582.5 334.5,-552.5 43.5,-552.5"/>
<text text-anchor="start" x="50.5" y="-563.9" font-family="Arial" font-size="14.00" fill="#000000">avatar_source </text>
<text text-anchor="start" x="143.0806" y="-563.9" font-family="Arial" font-size="14.00" fill="#666666">[varchar(255)]</text>
<polygon fill="none" stroke="#000000" points="43.5,-522.5 43.5,-552.5 334.5,-552.5 334.5,-522.5 43.5,-522.5"/>
<text text-anchor="start" x="50.5" y="-533.9" font-family="Arial" font-size="14.00" fill="#000000">avatar_gravatar_url </text>
<text text-anchor="start" x="175.7468" y="-533.9" font-family="Arial" font-size="14.00" fill="#666666">[varchar(250)]</text>
<polygon fill="none" stroke="#000000" points="43.5,-492.5 43.5,-522.5 334.5,-522.5 334.5,-492.5 43.5,-492.5"/>
<text text-anchor="start" x="50.5" y="-503.9" font-family="Arial" font-size="14.00" fill="#000000">avatar_adorable_uuid </text>
<text text-anchor="start" x="189.772" y="-503.9" font-family="Arial" font-size="14.00" fill="#666666">[char(36)]</text>
<polygon fill="none" stroke="#000000" points="43.5,-462.5 43.5,-492.5 334.5,-492.5 334.5,-462.5 43.5,-462.5"/>
<text text-anchor="start" x="50.5" y="-473.9" font-family="Arial" font-size="14.00" fill="#000000">avatar_adorable_url </text>
<text text-anchor="start" x="178.8674" y="-473.9" font-family="Arial" font-size="14.00" fill="#666666">[varchar(250)]</text>
<polygon fill="none" stroke="#000000" points="43.5,-432.5 43.5,-462.5 334.5,-462.5 334.5,-432.5 43.5,-432.5"/>
<text text-anchor="start" x="50.5" y="-443.9" font-family="Arial" font-size="14.00" fill="#000000">avatar_default_url </text>
<text text-anchor="start" x="166.4228" y="-443.9" font-family="Arial" font-size="14.00" fill="#666666">[varchar(250)]</text>
<polygon fill="none" stroke="#000000" points="43.5,-402.5 43.5,-432.5 334.5,-432.5 334.5,-402.5 43.5,-402.5"/>
<text text-anchor="start" x="50.5" y="-413.9" font-family="Arial" font-size="14.00" fill="#000000">avatar_photo_id </text>
<text text-anchor="start" x="154.765" y="-413.9" font-family="Arial" font-size="14.00" fill="#666666">[int(10) unsigned]</text>
<polygon fill="none" stroke="#000000" points="43.5,-372.5 43.5,-402.5 334.5,-402.5 334.5,-372.5 43.5,-372.5"/>
<text text-anchor="start" x="50.5" y="-383.9" font-family="Arial" font-size="14.00" fill="#000000">has_avatar </text>
<text text-anchor="start" x="123.6374" y="-383.9" font-family="Arial" font-size="14.00" fill="#666666">[tinyint(1)]</text>
<polygon fill="none" stroke="#000000" points="43.5,-342.5 43.5,-372.5 334.5,-372.5 334.5,-342.5 43.5,-342.5"/>
<text text-anchor="start" x="50.5" y="-353.9" font-family="Arial" font-size="14.00" fill="#000000">avatar_external_url </text>
<text text-anchor="start" x="174.1928" y="-353.9" font-family="Arial" font-size="14.00" fill="#666666">[varchar(400)]</text>
<polygon fill="none" stroke="#000000" points="43.5,-312.5 43.5,-342.5 334.5,-342.5 334.5,-312.5 43.5,-312.5"/>
<text text-anchor="start" x="50.5" y="-323.9" font-family="Arial" font-size="14.00" fill="#000000">avatar_file_name </text>
<text text-anchor="start" x="161.7496" y="-323.9" font-family="Arial" font-size="14.00" fill="#666666">[varchar(255)]</text>
<polygon fill="none" stroke="#000000" points="43.5,-282.5 43.5,-312.5 334.5,-312.5 334.5,-282.5 43.5,-282.5"/>
<text text-anchor="start" x="50.5" y="-293.9" font-family="Arial" font-size="14.00" fill="#000000">avatar_location </text>
<text text-anchor="start" x="149.3064" y="-293.9" font-family="Arial" font-size="14.00" fill="#666666">[varchar(255)]</text>
<polygon fill="none" stroke="#000000" points="43.5,-252.5 43.5,-282.5 334.5,-282.5 334.5,-252.5 43.5,-252.5"/>
<text text-anchor="start" x="50.5" y="-263.9" font-family="Arial" font-size="14.00" fill="#000000">gravatar_url </text>
<text text-anchor="start" x="129.0652" y="-263.9" font-family="Arial" font-size="14.00" fill="#666666">[varchar(255)]</text>
<polygon fill="none" stroke="#000000" points="43.5,-222.5 43.5,-252.5 334.5,-252.5 334.5,-222.5 43.5,-222.5"/>
<text text-anchor="start" x="50.5" y="-233.9" font-family="Arial" font-size="14.00" fill="#000000">vcard </text>
<text text-anchor="start" x="88.6164" y="-233.9" font-family="Arial" font-size="14.00" fill="#666666">[mediumtext]</text>
<polygon fill="none" stroke="#000000" points="43.5,-192.5 43.5,-222.5 334.5,-222.5 334.5,-192.5 43.5,-192.5"/>
<text text-anchor="start" x="50.5" y="-203.9" font-family="Arial" font-size="14.00" fill="#000000">last_consulted_at </text>
<text text-anchor="start" x="163.319" y="-203.9" font-family="Arial" font-size="14.00" fill="#666666">[timestamp]</text>
<polygon fill="none" stroke="#000000" points="43.5,-162.5 43.5,-192.5 334.5,-192.5 334.5,-162.5 43.5,-162.5"/>
<text text-anchor="start" x="50.5" y="-173.9" font-family="Arial" font-size="14.00" fill="#000000">number_of_views </text>
<text text-anchor="start" x="164.0764" y="-173.9" font-family="Arial" font-size="14.00" fill="#666666">[int(11)]</text>
<polygon fill="none" stroke="#000000" points="43.5,-132.5 43.5,-162.5 334.5,-162.5 334.5,-132.5 43.5,-132.5"/>
<text text-anchor="start" x="50.5" y="-143.9" font-family="Arial" font-size="14.00" fill="#000000">created_at </text>
<text text-anchor="start" x="120.528" y="-143.9" font-family="Arial" font-size="14.00" fill="#666666">[timestamp]</text>
<polygon fill="none" stroke="#000000" points="43.5,-102.5 43.5,-132.5 334.5,-132.5 334.5,-102.5 43.5,-102.5"/>
<text text-anchor="start" x="50.5" y="-113.9" font-family="Arial" font-size="14.00" fill="#000000">updated_at </text>
<text text-anchor="start" x="124.4326" y="-113.9" font-family="Arial" font-size="14.00" fill="#666666">[timestamp]</text>
<polygon fill="none" stroke="#000000" points="43.5,-72.5 43.5,-102.5 334.5,-102.5 334.5,-72.5 43.5,-72.5"/>
<text text-anchor="start" x="50.5" y="-83.9" font-family="Arial" font-size="14.00" fill="#000000">default_avatar_color </text>
<text text-anchor="start" x="181.2054" y="-83.9" font-family="Arial" font-size="14.00" fill="#666666">[varchar(255)]</text>
<polygon fill="none" stroke="#000000" points="43.5,-42.5 43.5,-72.5 334.5,-72.5 334.5,-42.5 43.5,-42.5"/>
<text text-anchor="start" x="50.5" y="-53.9" font-family="Arial" font-size="14.00" fill="#000000">has_avatar_bool </text>
<text text-anchor="start" x="157.8744" y="-53.9" font-family="Arial" font-size="14.00" fill="#666666">[tinyint(1)]</text>
</g>
<!-- contact_tag&#45;&gt;contacts -->
<g id="edge1" class="edge">
<title>contact_tag:contact_id&#45;&gt;contacts:id</title>
<path fill="none" stroke="#000000" d="M423.7229,-1745.3549C365.3586,-1717.9657 403.2854,-1437.5 334.5,-1437.5"/>
<polygon fill="#000000" stroke="#000000" points="423.7323,-1745.3569 432.5356,-1751.8955 428.6162,-1746.4284 433.5,-1747.5 433.5,-1747.5 433.5,-1747.5 428.6162,-1746.4284 434.4644,-1743.1045 423.7323,-1745.3569 423.7323,-1745.3569"/>
<text text-anchor="start" x="175.657" y="-1757.5" font-family="Arial" font-size="10.00" fill="#000000">FOREIGN KEY (contact_id) REFERENCES contacts (id)</text>
</g>
<!-- tags -->
<g id="node3" class="node">
<title>tags</title>
<polygon fill="#efefef" stroke="transparent" points="438.5,-852.5 438.5,-887.5 631.5,-887.5 631.5,-852.5 438.5,-852.5"/>
<polygon fill="none" stroke="#000000" points="438.5,-852.5 438.5,-887.5 631.5,-887.5 631.5,-852.5 438.5,-852.5"/>
<text text-anchor="start" x="469.3658" y="-865.3" font-family="Arial Bold" font-size="18.00" fill="#000000">tags</text>
<text text-anchor="start" x="503.3804" y="-865.3" font-family="Arial" font-size="14.00" fill="#000000"> </text>
<text text-anchor="start" x="507.271" y="-865.3" font-family="Arial" font-size="14.00" fill="#666666">[BASE TABLE]</text>
<polygon fill="none" stroke="#000000" points="438.5,-822.5 438.5,-852.5 631.5,-852.5 631.5,-822.5 438.5,-822.5"/>
<text text-anchor="start" x="445.5" y="-833.9" font-family="Arial" font-size="14.00" fill="#000000">id </text>
<text text-anchor="start" x="460.2798" y="-833.9" font-family="Arial" font-size="14.00" fill="#666666">[int(10) unsigned]</text>
<polygon fill="none" stroke="#000000" points="438.5,-792.5 438.5,-822.5 631.5,-822.5 631.5,-792.5 438.5,-792.5"/>
<text text-anchor="start" x="445.1382" y="-803.9" font-family="Arial" font-size="14.00" fill="#000000">account_id </text>
<text text-anchor="start" x="516.7216" y="-803.9" font-family="Arial" font-size="14.00" fill="#666666">[int(10) unsigned]</text>
<polygon fill="none" stroke="#000000" points="438.5,-762.5 438.5,-792.5 631.5,-792.5 631.5,-762.5 438.5,-762.5"/>
<text text-anchor="start" x="445.5" y="-773.9" font-family="Arial" font-size="14.00" fill="#000000">name </text>
<text text-anchor="start" x="484.399" y="-773.9" font-family="Arial" font-size="14.00" fill="#666666">[varchar(255)]</text>
<polygon fill="none" stroke="#000000" points="438.5,-732.5 438.5,-762.5 631.5,-762.5 631.5,-732.5 438.5,-732.5"/>
<text text-anchor="start" x="445.5" y="-743.9" font-family="Arial" font-size="14.00" fill="#000000">name_slug </text>
<text text-anchor="start" x="517.8534" y="-743.9" font-family="Arial" font-size="14.00" fill="#666666">[varchar(255)]</text>
<polygon fill="none" stroke="#000000" points="438.5,-702.5 438.5,-732.5 631.5,-732.5 631.5,-702.5 438.5,-702.5"/>
<text text-anchor="start" x="445.5" y="-713.9" font-family="Arial" font-size="14.00" fill="#000000">description </text>
<text text-anchor="start" x="517.068" y="-713.9" font-family="Arial" font-size="14.00" fill="#666666">[mediumtext]</text>
<polygon fill="none" stroke="#000000" points="438.5,-672.5 438.5,-702.5 631.5,-702.5 631.5,-672.5 438.5,-672.5"/>
<text text-anchor="start" x="445.5" y="-683.9" font-family="Arial" font-size="14.00" fill="#000000">created_at </text>
<text text-anchor="start" x="515.528" y="-683.9" font-family="Arial" font-size="14.00" fill="#666666">[timestamp]</text>
<polygon fill="none" stroke="#000000" points="438.5,-642.5 438.5,-672.5 631.5,-672.5 631.5,-642.5 438.5,-642.5"/>
<text text-anchor="start" x="445.5" y="-653.9" font-family="Arial" font-size="14.00" fill="#000000">updated_at </text>
<text text-anchor="start" x="519.4326" y="-653.9" font-family="Arial" font-size="14.00" fill="#666666">[timestamp]</text>
</g>
<!-- contact_tag&#45;&gt;tags -->
<g id="edge2" class="edge">
<title>contact_tag:tag_id&#45;&gt;tags:id</title>
<path fill="none" stroke="#000000" d="M423.4093,-1716.6487C254.4342,-1685.9904 828.3231,-837.5 631.5,-837.5"/>
<polygon fill="#000000" stroke="#000000" points="423.5354,-1716.6592 433.1217,-1721.9841 428.5177,-1717.0796 433.5,-1717.5 433.5,-1717.5 433.5,-1717.5 428.5177,-1717.0796 433.8783,-1713.0159 423.5354,-1716.6592 423.5354,-1716.6592"/>
<text text-anchor="start" x="211.995" y="-1727.5" font-family="Arial" font-size="10.00" fill="#000000">FOREIGN KEY (tag_id) REFERENCES tags (id)</text>
</g>
<!-- accounts -->
<g id="node4" class="node">
<title>accounts</title>
<polygon fill="#efefef" stroke="transparent" points="735.5,-942.5 735.5,-977.5 1050.5,-977.5 1050.5,-942.5 735.5,-942.5"/>
<polygon fill="none" stroke="#000000" points="735.5,-942.5 735.5,-977.5 1050.5,-977.5 1050.5,-942.5 735.5,-942.5"/>
<text text-anchor="start" x="808.3596" y="-955.3" font-family="Arial Bold" font-size="18.00" fill="#000000">accounts</text>
<text text-anchor="start" x="880.3866" y="-955.3" font-family="Arial" font-size="14.00" fill="#000000"> </text>
<text text-anchor="start" x="884.2772" y="-955.3" font-family="Arial" font-size="14.00" fill="#666666">[BASE TABLE]</text>
<polygon fill="none" stroke="#000000" points="735.5,-912.5 735.5,-942.5 1050.5,-942.5 1050.5,-912.5 735.5,-912.5"/>
<text text-anchor="start" x="742.5" y="-923.9" font-family="Arial" font-size="14.00" fill="#000000">id </text>
<text text-anchor="start" x="757.2798" y="-923.9" font-family="Arial" font-size="14.00" fill="#666666">[int(10) unsigned]</text>
<polygon fill="none" stroke="#000000" points="735.5,-882.5 735.5,-912.5 1050.5,-912.5 1050.5,-882.5 735.5,-882.5"/>
<text text-anchor="start" x="742.073" y="-893.9" font-family="Arial" font-size="14.00" fill="#000000">has_access_to_paid_version_for_free </text>
<text text-anchor="start" x="982.4824" y="-893.9" font-family="Arial" font-size="14.00" fill="#666666">[tinyint(1)]</text>
<polygon fill="none" stroke="#000000" points="735.5,-852.5 735.5,-882.5 1050.5,-882.5 1050.5,-852.5 735.5,-852.5"/>
<text text-anchor="start" x="742.5" y="-863.9" font-family="Arial" font-size="14.00" fill="#000000">api_key </text>
<text text-anchor="start" x="794.6276" y="-863.9" font-family="Arial" font-size="14.00" fill="#666666">[varchar(255)]</text>
<polygon fill="none" stroke="#000000" points="735.5,-822.5 735.5,-852.5 1050.5,-852.5 1050.5,-822.5 735.5,-822.5"/>
<text text-anchor="start" x="742.5" y="-833.9" font-family="Arial" font-size="14.00" fill="#000000">number_of_invitations_sent </text>
<text text-anchor="start" x="917.5504" y="-833.9" font-family="Arial" font-size="14.00" fill="#666666">[int(11)]</text>
<polygon fill="none" stroke="#000000" points="735.5,-792.5 735.5,-822.5 1050.5,-822.5 1050.5,-792.5 735.5,-792.5"/>
<text text-anchor="start" x="742.5" y="-803.9" font-family="Arial" font-size="14.00" fill="#000000">default_time_reminder_is_sent </text>
<text text-anchor="start" x="937.7608" y="-803.9" font-family="Arial" font-size="14.00" fill="#666666">[varchar(255)]</text>
<polygon fill="none" stroke="#000000" points="735.5,-762.5 735.5,-792.5 1050.5,-792.5 1050.5,-762.5 735.5,-762.5"/>
<text text-anchor="start" x="742.5" y="-773.9" font-family="Arial" font-size="14.00" fill="#000000">default_gender_id </text>
<text text-anchor="start" x="858.4368" y="-773.9" font-family="Arial" font-size="14.00" fill="#666666">[int(10) unsigned]</text>
<polygon fill="none" stroke="#000000" points="735.5,-732.5 735.5,-762.5 1050.5,-762.5 1050.5,-732.5 735.5,-732.5"/>
<text text-anchor="start" x="742.5" y="-743.9" font-family="Arial" font-size="14.00" fill="#000000">stripe_id </text>
<text text-anchor="start" x="799.2854" y="-743.9" font-family="Arial" font-size="14.00" fill="#666666">[varchar(255)]</text>
<polygon fill="none" stroke="#000000" points="735.5,-702.5 735.5,-732.5 1050.5,-732.5 1050.5,-702.5 735.5,-702.5"/>
<text text-anchor="start" x="742.5" y="-713.9" font-family="Arial" font-size="14.00" fill="#000000">card_brand </text>
<text text-anchor="start" x="817.19" y="-713.9" font-family="Arial" font-size="14.00" fill="#666666">[varchar(255)]</text>
<polygon fill="none" stroke="#000000" points="735.5,-672.5 735.5,-702.5 1050.5,-702.5 1050.5,-672.5 735.5,-672.5"/>
<text text-anchor="start" x="742.5" y="-683.9" font-family="Arial" font-size="14.00" fill="#000000">card_last_four </text>
<text text-anchor="start" x="835.0778" y="-683.9" font-family="Arial" font-size="14.00" fill="#666666">[varchar(4)]</text>
<polygon fill="none" stroke="#000000" points="735.5,-642.5 735.5,-672.5 1050.5,-672.5 1050.5,-642.5 735.5,-642.5"/>
<text text-anchor="start" x="742.5" y="-653.9" font-family="Arial" font-size="14.00" fill="#000000">trial_ends_at </text>
<text text-anchor="start" x="826.5238" y="-653.9" font-family="Arial" font-size="14.00" fill="#666666">[timestamp]</text>
<polygon fill="none" stroke="#000000" points="735.5,-612.5 735.5,-642.5 1050.5,-642.5 1050.5,-612.5 735.5,-612.5"/>
<text text-anchor="start" x="742.5" y="-623.9" font-family="Arial" font-size="14.00" fill="#000000">legacy_free_plan_unlimited_contacts </text>
<text text-anchor="start" x="976.6766" y="-623.9" font-family="Arial" font-size="14.00" fill="#666666">[tinyint(1)]</text>
<polygon fill="none" stroke="#000000" points="735.5,-582.5 735.5,-612.5 1050.5,-612.5 1050.5,-582.5 735.5,-582.5"/>
<text text-anchor="start" x="742.5" y="-593.9" font-family="Arial" font-size="14.00" fill="#000000">created_at </text>
<text text-anchor="start" x="812.528" y="-593.9" font-family="Arial" font-size="14.00" fill="#666666">[timestamp]</text>
<polygon fill="none" stroke="#000000" points="735.5,-552.5 735.5,-582.5 1050.5,-582.5 1050.5,-552.5 735.5,-552.5"/>
<text text-anchor="start" x="742.5" y="-563.9" font-family="Arial" font-size="14.00" fill="#000000">updated_at </text>
<text text-anchor="start" x="816.4326" y="-563.9" font-family="Arial" font-size="14.00" fill="#666666">[timestamp]</text>
</g>
<!-- contact_tag&#45;&gt;accounts -->
<g id="edge3" class="edge">
<title>contact_tag:account_id&#45;&gt;accounts:id</title>
<path fill="none" stroke="#000000" d="M647.6968,-1686.8535C706.0832,-1678.8778 670.7796,-1598.6305 683.5,-1531 695.9409,-1464.8558 668.196,-927.5 735.5,-927.5"/>
<polygon fill="#000000" stroke="#000000" points="647.48,-1686.8671 637.2152,-1683.009 642.49,-1687.1836 637.5,-1687.5 637.5,-1687.5 637.5,-1687.5 642.49,-1687.1836 637.7848,-1691.991 647.48,-1686.8671 647.48,-1686.8671"/>
<text text-anchor="start" x="644.877" y="-1697.5" font-family="Arial" font-size="10.00" fill="#000000">FOREIGN KEY (account_id) REFERENCES accounts (id)</text>
</g>
</g>
</svg>
