<?xml version="1.0" encoding="UTF-8" standalone="no"?>
<!DOCTYPE svg PUBLIC "-//W3C//DTD SVG 1.1//EN"
 "http://www.w3.org/Graphics/SVG/1.1/DTD/svg11.dtd">
<!-- Generated by graphviz version 2.40.1 (20161225.0304)
 -->
<!-- Title: contact_field_contact_field_label Pages: 1 -->
<svg width="1150pt" height="772pt"
 viewBox="0.00 0.00 1149.50 772.00" xmlns="http://www.w3.org/2000/svg" xmlns:xlink="http://www.w3.org/1999/xlink">
<g id="graph0" class="graph" transform="scale(1 1) rotate(0) translate(4 768)">
<title>contact_field_contact_field_label</title>
<polygon fill="#ffffff" stroke="transparent" points="-4,4 -4,-768 1145.5,-768 1145.5,4 -4,4"/>
<!-- contact_field_contact_field_label -->
<g id="node1" class="node">
<title>contact_field_contact_field_label</title>
<polygon fill="#efefef" stroke="transparent" points="366,-682.5 366,-717.5 737,-717.5 737,-682.5 366,-682.5"/>
<polygon fill="none" stroke="#000000" points="366,-682.5 366,-717.5 737,-717.5 737,-682.5 366,-682.5"/>
<text text-anchor="start" x="372.8312" y="-695.3" font-family="Arial Bold" font-size="18.00" fill="#000000">contact_field_contact_field_label</text>
<text text-anchor="start" x="632.915" y="-695.3" font-family="Arial" font-size="14.00" fill="#000000"> </text>
<text text-anchor="start" x="636.8056" y="-695.3" font-family="Arial" font-size="14.00" fill="#666666">[BASE TABLE]</text>
<polygon fill="none" stroke="#000000" points="366,-652.5 366,-682.5 737,-682.5 737,-652.5 366,-652.5"/>
<text text-anchor="start" x="373" y="-663.9" font-family="Arial" font-size="14.00" fill="#000000">contact_field_label_id </text>
<text text-anchor="start" x="511.4866" y="-663.9" font-family="Arial" font-size="14.00" fill="#666666">[bigint(20) unsigned]</text>
<polygon fill="none" stroke="#000000" points="366,-622.5 366,-652.5 737,-652.5 737,-622.5 366,-622.5"/>
<text text-anchor="start" x="373" y="-633.9" font-family="Arial" font-size="14.00" fill="#000000">contact_field_id </text>
<text text-anchor="start" x="474.143" y="-633.9" font-family="Arial" font-size="14.00" fill="#666666">[int(10) unsigned]</text>
<polygon fill="none" stroke="#000000" points="366,-592.5 366,-622.5 737,-622.5 737,-592.5 366,-592.5"/>
<text text-anchor="start" x="373" y="-603.9" font-family="Arial" font-size="14.00" fill="#000000">account_id </text>
<text text-anchor="start" x="444.5834" y="-603.9" font-family="Arial" font-size="14.00" fill="#666666">[int(10) unsigned]</text>
<polygon fill="none" stroke="#000000" stroke-width="3" points="364,-591.5 364,-719.5 738,-719.5 738,-591.5 364,-591.5"/>
</g>
<!-- contact_field_labels -->
<g id="node2" class="node">
<title>contact_field_labels</title>
<polygon fill="#efefef" stroke="transparent" points="50,-327.5 50,-362.5 319,-362.5 319,-327.5 50,-327.5"/>
<polygon fill="none" stroke="#000000" points="50,-327.5 50,-362.5 319,-362.5 319,-327.5 50,-327.5"/>
<text text-anchor="start" x="56.8504" y="-340.3" font-family="Arial Bold" font-size="18.00" fill="#000000">contact_field_labels</text>
<text text-anchor="start" x="214.8958" y="-340.3" font-family="Arial" font-size="14.00" fill="#000000"> </text>
<text text-anchor="start" x="218.7864" y="-340.3" font-family="Arial" font-size="14.00" fill="#666666">[BASE TABLE]</text>
<polygon fill="none" stroke="#000000" points="50,-297.5 50,-327.5 319,-327.5 319,-297.5 50,-297.5"/>
<text text-anchor="start" x="57" y="-308.9" font-family="Arial" font-size="14.00" fill="#000000">id </text>
<text text-anchor="start" x="71.7798" y="-308.9" font-family="Arial" font-size="14.00" fill="#666666">[bigint(20) unsigned]</text>
<polygon fill="none" stroke="#000000" points="50,-267.5 50,-297.5 319,-297.5 319,-267.5 50,-267.5"/>
<text text-anchor="start" x="57" y="-278.9" font-family="Arial" font-size="14.00" fill="#000000">account_id </text>
<text text-anchor="start" x="128.5834" y="-278.9" font-family="Arial" font-size="14.00" fill="#666666">[int(10) unsigned]</text>
<polygon fill="none" stroke="#000000" points="50,-237.5 50,-267.5 319,-267.5 319,-237.5 50,-237.5"/>
<text text-anchor="start" x="57" y="-248.9" font-family="Arial" font-size="14.00" fill="#000000">label_i18n </text>
<text text-anchor="start" x="124.6886" y="-248.9" font-family="Arial" font-size="14.00" fill="#666666">[varchar(20)]</text>
<polygon fill="none" stroke="#000000" points="50,-207.5 50,-237.5 319,-237.5 319,-207.5 50,-207.5"/>
<text text-anchor="start" x="57" y="-218.9" font-family="Arial" font-size="14.00" fill="#000000">label </text>
<text text-anchor="start" x="90.4516" y="-218.9" font-family="Arial" font-size="14.00" fill="#666666">[varchar(500)]</text>
<polygon fill="none" stroke="#000000" points="50,-177.5 50,-207.5 319,-207.5 319,-177.5 50,-177.5"/>
<text text-anchor="start" x="57" y="-188.9" font-family="Arial" font-size="14.00" fill="#000000">created_at </text>
<text text-anchor="start" x="127.028" y="-188.9" font-family="Arial" font-size="14.00" fill="#666666">[timestamp]</text>
<polygon fill="none" stroke="#000000" points="50,-147.5 50,-177.5 319,-177.5 319,-147.5 50,-147.5"/>
<text text-anchor="start" x="57" y="-158.9" font-family="Arial" font-size="14.00" fill="#000000">updated_at </text>
<text text-anchor="start" x="130.9326" y="-158.9" font-family="Arial" font-size="14.00" fill="#666666">[timestamp]</text>
</g>
<!-- contact_field_contact_field_label&#45;&gt;contact_field_labels -->
<g id="edge1" class="edge">
<title>contact_field_contact_field_label:contact_field_label_id&#45;&gt;contact_field_labels:id</title>
<path fill="none" stroke="#000000" d="M356.0338,-665.233C296.5159,-634.9988 394.8471,-312.5 319,-312.5"/>
<polygon fill="#000000" stroke="#000000" points="356.2491,-665.2819 365.0019,-671.8879 361.1245,-666.391 366,-667.5 366,-667.5 366,-667.5 361.1245,-666.391 366.9981,-663.1121 356.2491,-665.2819 356.2491,-665.2819"/>
<text text-anchor="start" x="6.589" y="-677.5" font-family="Arial" font-size="10.00" fill="#000000">FOREIGN KEY (contact_field_label_id) REFERENCES contact_field_labels (id)</text>
</g>
<!-- contact_fields -->
<g id="node3" class="node">
<title>contact_fields</title>
<polygon fill="#efefef" stroke="transparent" points="423,-342.5 423,-377.5 680,-377.5 680,-342.5 423,-342.5"/>
<polygon fill="none" stroke="#000000" points="423,-342.5 423,-377.5 680,-377.5 680,-342.5 423,-342.5"/>
<text text-anchor="start" x="447.857" y="-355.3" font-family="Arial Bold" font-size="18.00" fill="#000000">contact_fields</text>
<text text-anchor="start" x="557.8892" y="-355.3" font-family="Arial" font-size="14.00" fill="#000000"> </text>
<text text-anchor="start" x="561.7798" y="-355.3" font-family="Arial" font-size="14.00" fill="#666666">[BASE TABLE]</text>
<polygon fill="none" stroke="#000000" points="423,-312.5 423,-342.5 680,-342.5 680,-312.5 423,-312.5"/>
<text text-anchor="start" x="430" y="-323.9" font-family="Arial" font-size="14.00" fill="#000000">id </text>
<text text-anchor="start" x="444.7798" y="-323.9" font-family="Arial" font-size="14.00" fill="#666666">[int(10) unsigned]</text>
<polygon fill="none" stroke="#000000" points="423,-282.5 423,-312.5 680,-312.5 680,-282.5 423,-282.5"/>
<text text-anchor="start" x="430" y="-293.9" font-family="Arial" font-size="14.00" fill="#000000">account_id </text>
<text text-anchor="start" x="501.5834" y="-293.9" font-family="Arial" font-size="14.00" fill="#666666">[int(10) unsigned]</text>
<polygon fill="none" stroke="#000000" points="423,-252.5 423,-282.5 680,-282.5 680,-252.5 423,-252.5"/>
<text text-anchor="start" x="430" y="-263.9" font-family="Arial" font-size="14.00" fill="#000000">contact_id </text>
<text text-anchor="start" x="497.6914" y="-263.9" font-family="Arial" font-size="14.00" fill="#666666">[int(10) unsigned]</text>
<polygon fill="none" stroke="#000000" points="423,-222.5 423,-252.5 680,-252.5 680,-222.5 423,-222.5"/>
<text text-anchor="start" x="429.7392" y="-233.9" font-family="Arial" font-size="14.00" fill="#000000">contact_field_type_id </text>
<text text-anchor="start" x="565.1206" y="-233.9" font-family="Arial" font-size="14.00" fill="#666666">[int(10) unsigned]</text>
<polygon fill="none" stroke="#000000" points="423,-192.5 423,-222.5 680,-222.5 680,-192.5 423,-192.5"/>
<text text-anchor="start" x="430" y="-203.9" font-family="Arial" font-size="14.00" fill="#000000">data </text>
<text text-anchor="start" x="461.129" y="-203.9" font-family="Arial" font-size="14.00" fill="#666666">[varchar(255)]</text>
<polygon fill="none" stroke="#000000" points="423,-162.5 423,-192.5 680,-192.5 680,-162.5 423,-162.5"/>
<text text-anchor="start" x="430" y="-173.9" font-family="Arial" font-size="14.00" fill="#000000">created_at </text>
<text text-anchor="start" x="500.028" y="-173.9" font-family="Arial" font-size="14.00" fill="#666666">[timestamp]</text>
<polygon fill="none" stroke="#000000" points="423,-132.5 423,-162.5 680,-162.5 680,-132.5 423,-132.5"/>
<text text-anchor="start" x="430" y="-143.9" font-family="Arial" font-size="14.00" fill="#000000">updated_at </text>
<text text-anchor="start" x="503.9326" y="-143.9" font-family="Arial" font-size="14.00" fill="#666666">[timestamp]</text>
</g>
<!-- contact_field_contact_field_label&#45;&gt;contact_fields -->
<g id="edge2" class="edge">
<title>contact_field_contact_field_label:contact_field_id&#45;&gt;contact_fields:id</title>
<path fill="none" stroke="#000000" d="M355.966,-635.9984C332.6031,-627.3319 361.4217,-582.846 366,-547 369.1924,-522.0052 397.8022,-327.5 423,-327.5"/>
<polygon fill="#000000" stroke="#000000" points="356.1101,-636.0198 365.3339,-641.9504 361.0551,-636.7599 366,-637.5 366,-637.5 366,-637.5 361.0551,-636.7599 366.6661,-633.0496 356.1101,-636.0198 356.1101,-636.0198"/>
<text text-anchor="start" x="60.263" y="-647.5" font-family="Arial" font-size="10.00" fill="#000000">FOREIGN KEY (contact_field_id) REFERENCES contact_fields (id)</text>
</g>
<!-- accounts -->
<g id="node4" class="node">
<title>accounts</title>
<polygon fill="#efefef" stroke="transparent" points="784,-432.5 784,-467.5 1099,-467.5 1099,-432.5 784,-432.5"/>
<polygon fill="none" stroke="#000000" points="784,-432.5 784,-467.5 1099,-467.5 1099,-432.5 784,-432.5"/>
<text text-anchor="start" x="856.8596" y="-445.3" font-family="Arial Bold" font-size="18.00" fill="#000000">accounts</text>
<text text-anchor="start" x="928.8866" y="-445.3" font-family="Arial" font-size="14.00" fill="#000000"> </text>
<text text-anchor="start" x="932.7772" y="-445.3" font-family="Arial" font-size="14.00" fill="#666666">[BASE TABLE]</text>
<polygon fill="none" stroke="#000000" points="784,-402.5 784,-432.5 1099,-432.5 1099,-402.5 784,-402.5"/>
<text text-anchor="start" x="791" y="-413.9" font-family="Arial" font-size="14.00" fill="#000000">id </text>
<text text-anchor="start" x="805.7798" y="-413.9" font-family="Arial" font-size="14.00" fill="#666666">[int(10) unsigned]</text>
<polygon fill="none" stroke="#000000" points="784,-372.5 784,-402.5 1099,-402.5 1099,-372.5 784,-372.5"/>
<text text-anchor="start" x="790.573" y="-383.9" font-family="Arial" font-size="14.00" fill="#000000">has_access_to_paid_version_for_free </text>
<text text-anchor="start" x="1030.9824" y="-383.9" font-family="Arial" font-size="14.00" fill="#666666">[tinyint(1)]</text>
<polygon fill="none" stroke="#000000" points="784,-342.5 784,-372.5 1099,-372.5 1099,-342.5 784,-342.5"/>
<text text-anchor="start" x="791" y="-353.9" font-family="Arial" font-size="14.00" fill="#000000">api_key </text>
<text text-anchor="start" x="843.1276" y="-353.9" font-family="Arial" font-size="14.00" fill="#666666">[varchar(255)]</text>
<polygon fill="none" stroke="#000000" points="784,-312.5 784,-342.5 1099,-342.5 1099,-312.5 784,-312.5"/>
<text text-anchor="start" x="791" y="-323.9" font-family="Arial" font-size="14.00" fill="#000000">number_of_invitations_sent </text>
<text text-anchor="start" x="966.0504" y="-323.9" font-family="Arial" font-size="14.00" fill="#666666">[int(11)]</text>
<polygon fill="none" stroke="#000000" points="784,-282.5 784,-312.5 1099,-312.5 1099,-282.5 784,-282.5"/>
<text text-anchor="start" x="791" y="-293.9" font-family="Arial" font-size="14.00" fill="#000000">default_time_reminder_is_sent </text>
<text text-anchor="start" x="986.2608" y="-293.9" font-family="Arial" font-size="14.00" fill="#666666">[varchar(255)]</text>
<polygon fill="none" stroke="#000000" points="784,-252.5 784,-282.5 1099,-282.5 1099,-252.5 784,-252.5"/>
<text text-anchor="start" x="791" y="-263.9" font-family="Arial" font-size="14.00" fill="#000000">default_gender_id </text>
<text text-anchor="start" x="906.9368" y="-263.9" font-family="Arial" font-size="14.00" fill="#666666">[int(10) unsigned]</text>
<polygon fill="none" stroke="#000000" points="784,-222.5 784,-252.5 1099,-252.5 1099,-222.5 784,-222.5"/>
<text text-anchor="start" x="791" y="-233.9" font-family="Arial" font-size="14.00" fill="#000000">stripe_id </text>
<text text-anchor="start" x="847.7854" y="-233.9" font-family="Arial" font-size="14.00" fill="#666666">[varchar(255)]</text>
<polygon fill="none" stroke="#000000" points="784,-192.5 784,-222.5 1099,-222.5 1099,-192.5 784,-192.5"/>
<text text-anchor="start" x="791" y="-203.9" font-family="Arial" font-size="14.00" fill="#000000">card_brand </text>
<text text-anchor="start" x="865.69" y="-203.9" font-family="Arial" font-size="14.00" fill="#666666">[varchar(255)]</text>
<polygon fill="none" stroke="#000000" points="784,-162.5 784,-192.5 1099,-192.5 1099,-162.5 784,-162.5"/>
<text text-anchor="start" x="791" y="-173.9" font-family="Arial" font-size="14.00" fill="#000000">card_last_four </text>
<text text-anchor="start" x="883.5778" y="-173.9" font-family="Arial" font-size="14.00" fill="#666666">[varchar(4)]</text>
<polygon fill="none" stroke="#000000" points="784,-132.5 784,-162.5 1099,-162.5 1099,-132.5 784,-132.5"/>
<text text-anchor="start" x="791" y="-143.9" font-family="Arial" font-size="14.00" fill="#000000">trial_ends_at </text>
<text text-anchor="start" x="875.0238" y="-143.9" font-family="Arial" font-size="14.00" fill="#666666">[timestamp]</text>
<polygon fill="none" stroke="#000000" points="784,-102.5 784,-132.5 1099,-132.5 1099,-102.5 784,-102.5"/>
<text text-anchor="start" x="791" y="-113.9" font-family="Arial" font-size="14.00" fill="#000000">legacy_free_plan_unlimited_contacts </text>
<text text-anchor="start" x="1025.1766" y="-113.9" font-family="Arial" font-size="14.00" fill="#666666">[tinyint(1)]</text>
<polygon fill="none" stroke="#000000" points="784,-72.5 784,-102.5 1099,-102.5 1099,-72.5 784,-72.5"/>
<text text-anchor="start" x="791" y="-83.9" font-family="Arial" font-size="14.00" fill="#000000">created_at </text>
<text text-anchor="start" x="861.028" y="-83.9" font-family="Arial" font-size="14.00" fill="#666666">[timestamp]</text>
<polygon fill="none" stroke="#000000" points="784,-42.5 784,-72.5 1099,-72.5 1099,-42.5 784,-42.5"/>
<text text-anchor="start" x="791" y="-53.9" font-family="Arial" font-size="14.00" fill="#000000">updated_at </text>
<text text-anchor="start" x="864.9326" y="-53.9" font-family="Arial" font-size="14.00" fill="#666666">[timestamp]</text>
</g>
<!-- contact_field_contact_field_label&#45;&gt;accounts -->
<g id="edge3" class="edge">
<title>contact_field_contact_field_label:account_id&#45;&gt;accounts:id</title>
<path fill="none" stroke="#000000" d="M747.0623,-606.4777C813.4725,-591.5227 700.7481,-417.5 784,-417.5"/>
<polygon fill="#000000" stroke="#000000" points="746.9488,-606.4892 736.5451,-603.023 741.9744,-606.9946 737,-607.5 737,-607.5 737,-607.5 741.9744,-606.9946 737.4549,-611.977 746.9488,-606.4892 746.9488,-606.4892"/>
<text text-anchor="start" x="744.377" y="-617.5" font-family="Arial" font-size="10.00" fill="#000000">FOREIGN KEY (account_id) REFERENCES accounts (id)</text>
</g>
</g>
</svg>
