<?xml version="1.0" encoding="UTF-8" standalone="no"?>
<!DOCTYPE svg PUBLIC "-//W3C//DTD SVG 1.1//EN"
 "http://www.w3.org/Graphics/SVG/1.1/DTD/svg11.dtd">
<!-- Generated by graphviz version 2.40.1 (20161225.0304)
 -->
<!-- Title: contact_field_labels Pages: 1 -->
<svg width="904pt" height="1109pt"
 viewBox="0.00 0.00 903.50 1109.00" xmlns="http://www.w3.org/2000/svg" xmlns:xlink="http://www.w3.org/1999/xlink">
<g id="graph0" class="graph" transform="scale(1 1) rotate(0) translate(4 1105)">
<title>contact_field_labels</title>
<polygon fill="#ffffff" stroke="transparent" points="-4,4 -4,-1105 899.5,-1105 899.5,4 -4,4"/>
<!-- contact_field_labels -->
<g id="node1" class="node">
<title>contact_field_labels</title>
<polygon fill="#efefef" stroke="transparent" points="304,-772.5 304,-807.5 573,-807.5 573,-772.5 304,-772.5"/>
<polygon fill="none" stroke="#000000" points="304,-772.5 304,-807.5 573,-807.5 573,-772.5 304,-772.5"/>
<text text-anchor="start" x="310.8504" y="-785.3" font-family="Arial Bold" font-size="18.00" fill="#000000">contact_field_labels</text>
<text text-anchor="start" x="468.8958" y="-785.3" font-family="Arial" font-size="14.00" fill="#000000"> </text>
<text text-anchor="start" x="472.7864" y="-785.3" font-family="Arial" font-size="14.00" fill="#666666">[BASE TABLE]</text>
<polygon fill="none" stroke="#000000" points="304,-742.5 304,-772.5 573,-772.5 573,-742.5 304,-742.5"/>
<text text-anchor="start" x="311" y="-753.9" font-family="Arial" font-size="14.00" fill="#000000">id </text>
<text text-anchor="start" x="325.7798" y="-753.9" font-family="Arial" font-size="14.00" fill="#666666">[bigint(20) unsigned]</text>
<polygon fill="none" stroke="#000000" points="304,-712.5 304,-742.5 573,-742.5 573,-712.5 304,-712.5"/>
<text text-anchor="start" x="311" y="-723.9" font-family="Arial" font-size="14.00" fill="#000000">account_id </text>
<text text-anchor="start" x="382.5834" y="-723.9" font-family="Arial" font-size="14.00" fill="#666666">[int(10) unsigned]</text>
<polygon fill="none" stroke="#000000" points="304,-682.5 304,-712.5 573,-712.5 573,-682.5 304,-682.5"/>
<text text-anchor="start" x="311" y="-693.9" font-family="Arial" font-size="14.00" fill="#000000">label_i18n </text>
<text text-anchor="start" x="378.6886" y="-693.9" font-family="Arial" font-size="14.00" fill="#666666">[varchar(20)]</text>
<polygon fill="none" stroke="#000000" points="304,-652.5 304,-682.5 573,-682.5 573,-652.5 304,-652.5"/>
<text text-anchor="start" x="311" y="-663.9" font-family="Arial" font-size="14.00" fill="#000000">label </text>
<text text-anchor="start" x="344.4516" y="-663.9" font-family="Arial" font-size="14.00" fill="#666666">[varchar(500)]</text>
<polygon fill="none" stroke="#000000" points="304,-622.5 304,-652.5 573,-652.5 573,-622.5 304,-622.5"/>
<text text-anchor="start" x="311" y="-633.9" font-family="Arial" font-size="14.00" fill="#000000">created_at </text>
<text text-anchor="start" x="381.028" y="-633.9" font-family="Arial" font-size="14.00" fill="#666666">[timestamp]</text>
<polygon fill="none" stroke="#000000" points="304,-592.5 304,-622.5 573,-622.5 573,-592.5 304,-592.5"/>
<text text-anchor="start" x="311" y="-603.9" font-family="Arial" font-size="14.00" fill="#000000">updated_at </text>
<text text-anchor="start" x="384.9326" y="-603.9" font-family="Arial" font-size="14.00" fill="#666666">[timestamp]</text>
<polygon fill="none" stroke="#000000" stroke-width="3" points="302,-591.5 302,-809.5 574,-809.5 574,-591.5 302,-591.5"/>
</g>
<!-- accounts -->
<g id="node4" class="node">
<title>accounts</title>
<polygon fill="#efefef" stroke="transparent" points="281,-432.5 281,-467.5 596,-467.5 596,-432.5 281,-432.5"/>
<polygon fill="none" stroke="#000000" points="281,-432.5 281,-467.5 596,-467.5 596,-432.5 281,-432.5"/>
<text text-anchor="start" x="353.8596" y="-445.3" font-family="Arial Bold" font-size="18.00" fill="#000000">accounts</text>
<text text-anchor="start" x="425.8866" y="-445.3" font-family="Arial" font-size="14.00" fill="#000000"> </text>
<text text-anchor="start" x="429.7772" y="-445.3" font-family="Arial" font-size="14.00" fill="#666666">[BASE TABLE]</text>
<polygon fill="none" stroke="#000000" points="281,-402.5 281,-432.5 596,-432.5 596,-402.5 281,-402.5"/>
<text text-anchor="start" x="288" y="-413.9" font-family="Arial" font-size="14.00" fill="#000000">id </text>
<text text-anchor="start" x="302.7798" y="-413.9" font-family="Arial" font-size="14.00" fill="#666666">[int(10) unsigned]</text>
<polygon fill="none" stroke="#000000" points="281,-372.5 281,-402.5 596,-402.5 596,-372.5 281,-372.5"/>
<text text-anchor="start" x="287.573" y="-383.9" font-family="Arial" font-size="14.00" fill="#000000">has_access_to_paid_version_for_free </text>
<text text-anchor="start" x="527.9824" y="-383.9" font-family="Arial" font-size="14.00" fill="#666666">[tinyint(1)]</text>
<polygon fill="none" stroke="#000000" points="281,-342.5 281,-372.5 596,-372.5 596,-342.5 281,-342.5"/>
<text text-anchor="start" x="288" y="-353.9" font-family="Arial" font-size="14.00" fill="#000000">api_key </text>
<text text-anchor="start" x="340.1276" y="-353.9" font-family="Arial" font-size="14.00" fill="#666666">[varchar(255)]</text>
<polygon fill="none" stroke="#000000" points="281,-312.5 281,-342.5 596,-342.5 596,-312.5 281,-312.5"/>
<text text-anchor="start" x="288" y="-323.9" font-family="Arial" font-size="14.00" fill="#000000">number_of_invitations_sent </text>
<text text-anchor="start" x="463.0504" y="-323.9" font-family="Arial" font-size="14.00" fill="#666666">[int(11)]</text>
<polygon fill="none" stroke="#000000" points="281,-282.5 281,-312.5 596,-312.5 596,-282.5 281,-282.5"/>
<text text-anchor="start" x="288" y="-293.9" font-family="Arial" font-size="14.00" fill="#000000">default_time_reminder_is_sent </text>
<text text-anchor="start" x="483.2608" y="-293.9" font-family="Arial" font-size="14.00" fill="#666666">[varchar(255)]</text>
<polygon fill="none" stroke="#000000" points="281,-252.5 281,-282.5 596,-282.5 596,-252.5 281,-252.5"/>
<text text-anchor="start" x="288" y="-263.9" font-family="Arial" font-size="14.00" fill="#000000">default_gender_id </text>
<text text-anchor="start" x="403.9368" y="-263.9" font-family="Arial" font-size="14.00" fill="#666666">[int(10) unsigned]</text>
<polygon fill="none" stroke="#000000" points="281,-222.5 281,-252.5 596,-252.5 596,-222.5 281,-222.5"/>
<text text-anchor="start" x="288" y="-233.9" font-family="Arial" font-size="14.00" fill="#000000">stripe_id </text>
<text text-anchor="start" x="344.7854" y="-233.9" font-family="Arial" font-size="14.00" fill="#666666">[varchar(255)]</text>
<polygon fill="none" stroke="#000000" points="281,-192.5 281,-222.5 596,-222.5 596,-192.5 281,-192.5"/>
<text text-anchor="start" x="288" y="-203.9" font-family="Arial" font-size="14.00" fill="#000000">card_brand </text>
<text text-anchor="start" x="362.69" y="-203.9" font-family="Arial" font-size="14.00" fill="#666666">[varchar(255)]</text>
<polygon fill="none" stroke="#000000" points="281,-162.5 281,-192.5 596,-192.5 596,-162.5 281,-162.5"/>
<text text-anchor="start" x="288" y="-173.9" font-family="Arial" font-size="14.00" fill="#000000">card_last_four </text>
<text text-anchor="start" x="380.5778" y="-173.9" font-family="Arial" font-size="14.00" fill="#666666">[varchar(4)]</text>
<polygon fill="none" stroke="#000000" points="281,-132.5 281,-162.5 596,-162.5 596,-132.5 281,-132.5"/>
<text text-anchor="start" x="288" y="-143.9" font-family="Arial" font-size="14.00" fill="#000000">trial_ends_at </text>
<text text-anchor="start" x="372.0238" y="-143.9" font-family="Arial" font-size="14.00" fill="#666666">[timestamp]</text>
<polygon fill="none" stroke="#000000" points="281,-102.5 281,-132.5 596,-132.5 596,-102.5 281,-102.5"/>
<text text-anchor="start" x="288" y="-113.9" font-family="Arial" font-size="14.00" fill="#000000">legacy_free_plan_unlimited_contacts </text>
<text text-anchor="start" x="522.1766" y="-113.9" font-family="Arial" font-size="14.00" fill="#666666">[tinyint(1)]</text>
<polygon fill="none" stroke="#000000" points="281,-72.5 281,-102.5 596,-102.5 596,-72.5 281,-72.5"/>
<text text-anchor="start" x="288" y="-83.9" font-family="Arial" font-size="14.00" fill="#000000">created_at </text>
<text text-anchor="start" x="358.028" y="-83.9" font-family="Arial" font-size="14.00" fill="#666666">[timestamp]</text>
<polygon fill="none" stroke="#000000" points="281,-42.5 281,-72.5 596,-72.5 596,-42.5 281,-42.5"/>
<text text-anchor="start" x="288" y="-53.9" font-family="Arial" font-size="14.00" fill="#000000">updated_at </text>
<text text-anchor="start" x="361.9326" y="-53.9" font-family="Arial" font-size="14.00" fill="#666666">[timestamp]</text>
</g>
<!-- contact_field_labels&#45;&gt;accounts -->
<g id="edge3" class="edge">
<title>contact_field_labels:account_id&#45;&gt;accounts:id</title>
<path fill="none" stroke="#000000" d="M293.6998,-726.9106C164.7795,-711.9577 146.3514,-417.5 281,-417.5"/>
<polygon fill="#000000" stroke="#000000" points="294.0163,-726.9286 303.7429,-731.9927 299.0082,-727.2143 304,-727.5 304,-727.5 304,-727.5 299.0082,-727.2143 304.2571,-723.0073 294.0163,-726.9286 294.0163,-726.9286"/>
<text text-anchor="start" x="40.377" y="-737.5" font-family="Arial" font-size="10.00" fill="#000000">FOREIGN KEY (account_id) REFERENCES accounts (id)</text>
</g>
<!-- address_contact_field_label -->
<g id="node2" class="node">
<title>address_contact_field_label</title>
<polygon fill="#efefef" stroke="transparent" points="43,-1022.5 43,-1057.5 377,-1057.5 377,-1022.5 43,-1022.5"/>
<polygon fill="none" stroke="#000000" points="43,-1022.5 43,-1057.5 377,-1057.5 377,-1022.5 43,-1022.5"/>
<text text-anchor="start" x="49.8388" y="-1035.3" font-family="Arial Bold" font-size="18.00" fill="#000000">address_contact_field_label</text>
<text text-anchor="start" x="272.9074" y="-1035.3" font-family="Arial" font-size="14.00" fill="#000000"> </text>
<text text-anchor="start" x="276.798" y="-1035.3" font-family="Arial" font-size="14.00" fill="#666666">[BASE TABLE]</text>
<polygon fill="none" stroke="#000000" points="43,-992.5 43,-1022.5 377,-1022.5 377,-992.5 43,-992.5"/>
<text text-anchor="start" x="50" y="-1003.9" font-family="Arial" font-size="14.00" fill="#000000">contact_field_label_id </text>
<text text-anchor="start" x="188.4866" y="-1003.9" font-family="Arial" font-size="14.00" fill="#666666">[bigint(20) unsigned]</text>
<polygon fill="none" stroke="#000000" points="43,-962.5 43,-992.5 377,-992.5 377,-962.5 43,-962.5"/>
<text text-anchor="start" x="50" y="-973.9" font-family="Arial" font-size="14.00" fill="#000000">address_id </text>
<text text-anchor="start" x="122.3534" y="-973.9" font-family="Arial" font-size="14.00" fill="#666666">[int(10) unsigned]</text>
<polygon fill="none" stroke="#000000" points="43,-932.5 43,-962.5 377,-962.5 377,-932.5 43,-932.5"/>
<text text-anchor="start" x="50" y="-943.9" font-family="Arial" font-size="14.00" fill="#000000">account_id </text>
<text text-anchor="start" x="121.5834" y="-943.9" font-family="Arial" font-size="14.00" fill="#666666">[int(10) unsigned]</text>
</g>
<!-- address_contact_field_label&#45;&gt;contact_field_labels -->
<g id="edge1" class="edge">
<title>address_contact_field_label:contact_field_label_id&#45;&gt;contact_field_labels:id</title>
<path fill="none" stroke="#000000" d="M387.3876,-1006.3328C425.5478,-996.8001 402.5301,-931.0559 377,-890 357.8971,-859.2799 323.1029,-884.7201 304,-854 281.3518,-817.5786 261.1111,-757.5 304,-757.5"/>
<polygon fill="#000000" stroke="#000000" points="386.9375,-1006.3833 376.4975,-1003.0281 381.9687,-1006.9417 377,-1007.5 377,-1007.5 377,-1007.5 381.9687,-1006.9417 377.5025,-1011.9719 386.9375,-1006.3833 386.9375,-1006.3833"/>
<text text-anchor="start" x="383.589" y="-1017.5" font-family="Arial" font-size="10.00" fill="#000000">FOREIGN KEY (contact_field_label_id) REFERENCES contact_field_labels (id)</text>
</g>
<!-- contact_field_contact_field_label -->
<g id="node3" class="node">
<title>contact_field_contact_field_label</title>
<polygon fill="#efefef" stroke="transparent" points="482,-1022.5 482,-1057.5 853,-1057.5 853,-1022.5 482,-1022.5"/>
<polygon fill="none" stroke="#000000" points="482,-1022.5 482,-1057.5 853,-1057.5 853,-1022.5 482,-1022.5"/>
<text text-anchor="start" x="488.8312" y="-1035.3" font-family="Arial Bold" font-size="18.00" fill="#000000">contact_field_contact_field_label</text>
<text text-anchor="start" x="748.915" y="-1035.3" font-family="Arial" font-size="14.00" fill="#000000"> </text>
<text text-anchor="start" x="752.8056" y="-1035.3" font-family="Arial" font-size="14.00" fill="#666666">[BASE TABLE]</text>
<polygon fill="none" stroke="#000000" points="482,-992.5 482,-1022.5 853,-1022.5 853,-992.5 482,-992.5"/>
<text text-anchor="start" x="489" y="-1003.9" font-family="Arial" font-size="14.00" fill="#000000">contact_field_label_id </text>
<text text-anchor="start" x="627.4866" y="-1003.9" font-family="Arial" font-size="14.00" fill="#666666">[bigint(20) unsigned]</text>
<polygon fill="none" stroke="#000000" points="482,-962.5 482,-992.5 853,-992.5 853,-962.5 482,-962.5"/>
<text text-anchor="start" x="489" y="-973.9" font-family="Arial" font-size="14.00" fill="#000000">contact_field_id </text>
<text text-anchor="start" x="590.143" y="-973.9" font-family="Arial" font-size="14.00" fill="#666666">[int(10) unsigned]</text>
<polygon fill="none" stroke="#000000" points="482,-932.5 482,-962.5 853,-962.5 853,-932.5 482,-932.5"/>
<text text-anchor="start" x="489" y="-943.9" font-family="Arial" font-size="14.00" fill="#000000">account_id </text>
<text text-anchor="start" x="560.5834" y="-943.9" font-family="Arial" font-size="14.00" fill="#666666">[int(10) unsigned]</text>
</g>
<!-- contact_field_contact_field_label&#45;&gt;contact_field_labels -->
<g id="edge2" class="edge">
<title>contact_field_contact_field_label:contact_field_label_id&#45;&gt;contact_field_labels:id</title>
<path fill="none" stroke="#000000" d="M471.5852,-1006.3151C433.2073,-996.6407 454.8197,-929.9825 482,-890 506.4524,-854.0301 548.5476,-889.9699 573,-854 597.1121,-818.5308 615.8889,-757.5 573,-757.5"/>
<polygon fill="#000000" stroke="#000000" points="472.0641,-1006.3695 481.4913,-1011.9712 477.032,-1006.9347 482,-1007.5 482,-1007.5 482,-1007.5 477.032,-1006.9347 482.5087,-1003.0288 472.0641,-1006.3695 472.0641,-1006.3695"/>
<text text-anchor="start" x="488.589" y="-991.5" font-family="Arial" font-size="10.00" fill="#000000">FOREIGN KEY (contact_field_label_id) REFERENCES contact_field_labels (id)</text>
</g>
</g>
</svg>
