<?xml version="1.0" encoding="UTF-8" standalone="no"?>
<!DOCTYPE svg PUBLIC "-//W3C//DTD SVG 1.1//EN"
 "http://www.w3.org/Graphics/SVG/1.1/DTD/svg11.dtd">
<!-- Generated by graphviz version 2.40.1 (20161225.0304)
 -->
<!-- Title: days Pages: 1 -->
<svg width="576pt" height="892pt"
 viewBox="0.00 0.00 575.50 892.00" xmlns="http://www.w3.org/2000/svg" xmlns:xlink="http://www.w3.org/1999/xlink">
<g id="graph0" class="graph" transform="scale(1 1) rotate(0) translate(4 888)">
<title>days</title>
<polygon fill="#ffffff" stroke="transparent" points="-4,4 -4,-888 571.5,-888 571.5,4 -4,4"/>
<!-- days -->
<g id="node1" class="node">
<title>days</title>
<polygon fill="#efefef" stroke="transparent" points="271,-802.5 271,-837.5 464,-837.5 464,-802.5 271,-802.5"/>
<polygon fill="none" stroke="#000000" points="271,-802.5 271,-837.5 464,-837.5 464,-802.5 271,-802.5"/>
<text text-anchor="start" x="299.8669" y="-815.3" font-family="Arial Bold" font-size="18.00" fill="#000000">days</text>
<text text-anchor="start" x="337.8793" y="-815.3" font-family="Arial" font-size="14.00" fill="#000000"> </text>
<text text-anchor="start" x="341.7699" y="-815.3" font-family="Arial" font-size="14.00" fill="#666666">[BASE TABLE]</text>
<polygon fill="none" stroke="#000000" points="271,-772.5 271,-802.5 464,-802.5 464,-772.5 271,-772.5"/>
<text text-anchor="start" x="278" y="-783.9" font-family="Arial" font-size="14.00" fill="#000000">id </text>
<text text-anchor="start" x="292.7798" y="-783.9" font-family="Arial" font-size="14.00" fill="#666666">[int(10) unsigned]</text>
<polygon fill="none" stroke="#000000" points="271,-742.5 271,-772.5 464,-772.5 464,-742.5 271,-742.5"/>
<text text-anchor="start" x="277.6382" y="-753.9" font-family="Arial" font-size="14.00" fill="#000000">account_id </text>
<text text-anchor="start" x="349.2216" y="-753.9" font-family="Arial" font-size="14.00" fill="#666666">[int(10) unsigned]</text>
<polygon fill="none" stroke="#000000" points="271,-712.5 271,-742.5 464,-742.5 464,-712.5 271,-712.5"/>
<text text-anchor="start" x="278" y="-723.9" font-family="Arial" font-size="14.00" fill="#000000">date </text>
<text text-anchor="start" x="309.129" y="-723.9" font-family="Arial" font-size="14.00" fill="#666666">[date]</text>
<polygon fill="none" stroke="#000000" points="271,-682.5 271,-712.5 464,-712.5 464,-682.5 271,-682.5"/>
<text text-anchor="start" x="278" y="-693.9" font-family="Arial" font-size="14.00" fill="#000000">rate </text>
<text text-anchor="start" x="306.007" y="-693.9" font-family="Arial" font-size="14.00" fill="#666666">[int(11)]</text>
<polygon fill="none" stroke="#000000" points="271,-652.5 271,-682.5 464,-682.5 464,-652.5 271,-652.5"/>
<text text-anchor="start" x="278" y="-663.9" font-family="Arial" font-size="14.00" fill="#000000">comment </text>
<text text-anchor="start" x="339.4502" y="-663.9" font-family="Arial" font-size="14.00" fill="#666666">[mediumtext]</text>
<polygon fill="none" stroke="#000000" points="271,-622.5 271,-652.5 464,-652.5 464,-622.5 271,-622.5"/>
<text text-anchor="start" x="278" y="-633.9" font-family="Arial" font-size="14.00" fill="#000000">created_at </text>
<text text-anchor="start" x="348.028" y="-633.9" font-family="Arial" font-size="14.00" fill="#666666">[timestamp]</text>
<polygon fill="none" stroke="#000000" points="271,-592.5 271,-622.5 464,-622.5 464,-592.5 271,-592.5"/>
<text text-anchor="start" x="278" y="-603.9" font-family="Arial" font-size="14.00" fill="#000000">updated_at </text>
<text text-anchor="start" x="351.9326" y="-603.9" font-family="Arial" font-size="14.00" fill="#666666">[timestamp]</text>
<polygon fill="none" stroke="#000000" stroke-width="3" points="269,-591.5 269,-839.5 465,-839.5 465,-591.5 269,-591.5"/>
</g>
<!-- accounts -->
<g id="node2" class="node">
<title>accounts</title>
<polygon fill="#efefef" stroke="transparent" points="210,-432.5 210,-467.5 525,-467.5 525,-432.5 210,-432.5"/>
<polygon fill="none" stroke="#000000" points="210,-432.5 210,-467.5 525,-467.5 525,-432.5 210,-432.5"/>
<text text-anchor="start" x="282.8596" y="-445.3" font-family="Arial Bold" font-size="18.00" fill="#000000">accounts</text>
<text text-anchor="start" x="354.8866" y="-445.3" font-family="Arial" font-size="14.00" fill="#000000"> </text>
<text text-anchor="start" x="358.7772" y="-445.3" font-family="Arial" font-size="14.00" fill="#666666">[BASE TABLE]</text>
<polygon fill="none" stroke="#000000" points="210,-402.5 210,-432.5 525,-432.5 525,-402.5 210,-402.5"/>
<text text-anchor="start" x="217" y="-413.9" font-family="Arial" font-size="14.00" fill="#000000">id </text>
<text text-anchor="start" x="231.7798" y="-413.9" font-family="Arial" font-size="14.00" fill="#666666">[int(10) unsigned]</text>
<polygon fill="none" stroke="#000000" points="210,-372.5 210,-402.5 525,-402.5 525,-372.5 210,-372.5"/>
<text text-anchor="start" x="216.573" y="-383.9" font-family="Arial" font-size="14.00" fill="#000000">has_access_to_paid_version_for_free </text>
<text text-anchor="start" x="456.9824" y="-383.9" font-family="Arial" font-size="14.00" fill="#666666">[tinyint(1)]</text>
<polygon fill="none" stroke="#000000" points="210,-342.5 210,-372.5 525,-372.5 525,-342.5 210,-342.5"/>
<text text-anchor="start" x="217" y="-353.9" font-family="Arial" font-size="14.00" fill="#000000">api_key </text>
<text text-anchor="start" x="269.1276" y="-353.9" font-family="Arial" font-size="14.00" fill="#666666">[varchar(255)]</text>
<polygon fill="none" stroke="#000000" points="210,-312.5 210,-342.5 525,-342.5 525,-312.5 210,-312.5"/>
<text text-anchor="start" x="217" y="-323.9" font-family="Arial" font-size="14.00" fill="#000000">number_of_invitations_sent </text>
<text text-anchor="start" x="392.0504" y="-323.9" font-family="Arial" font-size="14.00" fill="#666666">[int(11)]</text>
<polygon fill="none" stroke="#000000" points="210,-282.5 210,-312.5 525,-312.5 525,-282.5 210,-282.5"/>
<text text-anchor="start" x="217" y="-293.9" font-family="Arial" font-size="14.00" fill="#000000">default_time_reminder_is_sent </text>
<text text-anchor="start" x="412.2608" y="-293.9" font-family="Arial" font-size="14.00" fill="#666666">[varchar(255)]</text>
<polygon fill="none" stroke="#000000" points="210,-252.5 210,-282.5 525,-282.5 525,-252.5 210,-252.5"/>
<text text-anchor="start" x="217" y="-263.9" font-family="Arial" font-size="14.00" fill="#000000">default_gender_id </text>
<text text-anchor="start" x="332.9368" y="-263.9" font-family="Arial" font-size="14.00" fill="#666666">[int(10) unsigned]</text>
<polygon fill="none" stroke="#000000" points="210,-222.5 210,-252.5 525,-252.5 525,-222.5 210,-222.5"/>
<text text-anchor="start" x="217" y="-233.9" font-family="Arial" font-size="14.00" fill="#000000">stripe_id </text>
<text text-anchor="start" x="273.7854" y="-233.9" font-family="Arial" font-size="14.00" fill="#666666">[varchar(255)]</text>
<polygon fill="none" stroke="#000000" points="210,-192.5 210,-222.5 525,-222.5 525,-192.5 210,-192.5"/>
<text text-anchor="start" x="217" y="-203.9" font-family="Arial" font-size="14.00" fill="#000000">card_brand </text>
<text text-anchor="start" x="291.69" y="-203.9" font-family="Arial" font-size="14.00" fill="#666666">[varchar(255)]</text>
<polygon fill="none" stroke="#000000" points="210,-162.5 210,-192.5 525,-192.5 525,-162.5 210,-162.5"/>
<text text-anchor="start" x="217" y="-173.9" font-family="Arial" font-size="14.00" fill="#000000">card_last_four </text>
<text text-anchor="start" x="309.5778" y="-173.9" font-family="Arial" font-size="14.00" fill="#666666">[varchar(4)]</text>
<polygon fill="none" stroke="#000000" points="210,-132.5 210,-162.5 525,-162.5 525,-132.5 210,-132.5"/>
<text text-anchor="start" x="217" y="-143.9" font-family="Arial" font-size="14.00" fill="#000000">trial_ends_at </text>
<text text-anchor="start" x="301.0238" y="-143.9" font-family="Arial" font-size="14.00" fill="#666666">[timestamp]</text>
<polygon fill="none" stroke="#000000" points="210,-102.5 210,-132.5 525,-132.5 525,-102.5 210,-102.5"/>
<text text-anchor="start" x="217" y="-113.9" font-family="Arial" font-size="14.00" fill="#000000">legacy_free_plan_unlimited_contacts </text>
<text text-anchor="start" x="451.1766" y="-113.9" font-family="Arial" font-size="14.00" fill="#666666">[tinyint(1)]</text>
<polygon fill="none" stroke="#000000" points="210,-72.5 210,-102.5 525,-102.5 525,-72.5 210,-72.5"/>
<text text-anchor="start" x="217" y="-83.9" font-family="Arial" font-size="14.00" fill="#000000">created_at </text>
<text text-anchor="start" x="287.028" y="-83.9" font-family="Arial" font-size="14.00" fill="#666666">[timestamp]</text>
<polygon fill="none" stroke="#000000" points="210,-42.5 210,-72.5 525,-72.5 525,-42.5 210,-42.5"/>
<text text-anchor="start" x="217" y="-53.9" font-family="Arial" font-size="14.00" fill="#000000">updated_at </text>
<text text-anchor="start" x="290.9326" y="-53.9" font-family="Arial" font-size="14.00" fill="#666666">[timestamp]</text>
</g>
<!-- days&#45;&gt;accounts -->
<g id="edge1" class="edge">
<title>days:account_id&#45;&gt;accounts:id</title>
<path fill="none" stroke="#000000" d="M260.7616,-755.5033C189.0356,-727.6392 136.6864,-417.5 210,-417.5"/>
<polygon fill="#000000" stroke="#000000" points="261.1849,-755.5858 270.1386,-761.9168 266.0925,-756.5429 271,-757.5 271,-757.5 271,-757.5 266.0925,-756.5429 271.8614,-753.0832 261.1849,-755.5858 261.1849,-755.5858"/>
<text text-anchor="start" x="7.377" y="-767.5" font-family="Arial" font-size="10.00" fill="#000000">FOREIGN KEY (account_id) REFERENCES accounts (id)</text>
</g>
</g>
</svg>
