<?xml version="1.0" encoding="UTF-8" standalone="no"?>
<!DOCTYPE svg PUBLIC "-//W3C//DTD SVG 1.1//EN"
 "http://www.w3.org/Graphics/SVG/1.1/DTD/svg11.dtd">
<!-- Generated by graphviz version 2.40.1 (20161225.0304)
 -->
<!-- Title: default_life_event_categories Pages: 1 -->
<svg width="832pt" height="652pt"
 viewBox="0.00 0.00 831.50 652.00" xmlns="http://www.w3.org/2000/svg" xmlns:xlink="http://www.w3.org/1999/xlink">
<g id="graph0" class="graph" transform="scale(1 1) rotate(0) translate(4 648)">
<title>default_life_event_categories</title>
<polygon fill="#ffffff" stroke="transparent" points="-4,4 -4,-648 827.5,-648 827.5,4 -4,4"/>
<!-- default_life_event_categories -->
<g id="node1" class="node">
<title>default_life_event_categories</title>
<polygon fill="#efefef" stroke="transparent" points="433,-195.5 433,-230.5 778,-230.5 778,-195.5 433,-195.5"/>
<polygon fill="none" stroke="#000000" points="433,-195.5 433,-230.5 778,-230.5 778,-195.5 433,-195.5"/>
<text text-anchor="start" x="439.8335" y="-208.3" font-family="Arial Bold" font-size="18.00" fill="#000000">default_life_event_categories</text>
<text text-anchor="start" x="673.9127" y="-208.3" font-family="Arial" font-size="14.00" fill="#000000"> </text>
<text text-anchor="start" x="677.8033" y="-208.3" font-family="Arial" font-size="14.00" fill="#666666">[BASE TABLE]</text>
<polygon fill="none" stroke="#000000" points="433,-165.5 433,-195.5 778,-195.5 778,-165.5 433,-165.5"/>
<text text-anchor="start" x="440" y="-176.9" font-family="Arial" font-size="14.00" fill="#000000">id </text>
<text text-anchor="start" x="454.7798" y="-176.9" font-family="Arial" font-size="14.00" fill="#666666">[int(10) unsigned]</text>
<polygon fill="none" stroke="#000000" points="433,-135.5 433,-165.5 778,-165.5 778,-135.5 433,-135.5"/>
<text text-anchor="start" x="440" y="-146.9" font-family="Arial" font-size="14.00" fill="#000000">translation_key </text>
<text text-anchor="start" x="538.0238" y="-146.9" font-family="Arial" font-size="14.00" fill="#666666">[varchar(255)]</text>
<polygon fill="none" stroke="#000000" points="433,-105.5 433,-135.5 778,-135.5 778,-105.5 433,-105.5"/>
<text text-anchor="start" x="440" y="-116.9" font-family="Arial" font-size="14.00" fill="#000000">migrated </text>
<text text-anchor="start" x="498.3394" y="-116.9" font-family="Arial" font-size="14.00" fill="#666666">[tinyint(1)]</text>
<polygon fill="none" stroke="#000000" points="433,-75.5 433,-105.5 778,-105.5 778,-75.5 433,-75.5"/>
<text text-anchor="start" x="440" y="-86.9" font-family="Arial" font-size="14.00" fill="#000000">created_at </text>
<text text-anchor="start" x="510.028" y="-86.9" font-family="Arial" font-size="14.00" fill="#666666">[timestamp]</text>
<polygon fill="none" stroke="#000000" points="433,-45.5 433,-75.5 778,-75.5 778,-45.5 433,-45.5"/>
<text text-anchor="start" x="440" y="-56.9" font-family="Arial" font-size="14.00" fill="#000000">updated_at </text>
<text text-anchor="start" x="513.9326" y="-56.9" font-family="Arial" font-size="14.00" fill="#666666">[timestamp]</text>
<polygon fill="none" stroke="#000000" stroke-width="3" points="431,-44.5 431,-232.5 779,-232.5 779,-44.5 431,-44.5"/>
</g>
<!-- default_life_event_types -->
<g id="node2" class="node">
<title>default_life_event_types</title>
<polygon fill="#efefef" stroke="transparent" points="448,-565.5 448,-600.5 763,-600.5 763,-565.5 448,-565.5"/>
<polygon fill="none" stroke="#000000" points="448,-565.5 448,-600.5 763,-600.5 763,-565.5 448,-565.5"/>
<text text-anchor="start" x="459.836" y="-578.3" font-family="Arial Bold" font-size="18.00" fill="#000000">default_life_event_types</text>
<text text-anchor="start" x="653.9102" y="-578.3" font-family="Arial" font-size="14.00" fill="#000000"> </text>
<text text-anchor="start" x="657.8008" y="-578.3" font-family="Arial" font-size="14.00" fill="#666666">[BASE TABLE]</text>
<polygon fill="none" stroke="#000000" points="448,-535.5 448,-565.5 763,-565.5 763,-535.5 448,-535.5"/>
<text text-anchor="start" x="455" y="-546.9" font-family="Arial" font-size="14.00" fill="#000000">id </text>
<text text-anchor="start" x="469.7798" y="-546.9" font-family="Arial" font-size="14.00" fill="#666666">[int(10) unsigned]</text>
<polygon fill="none" stroke="#000000" points="448,-505.5 448,-535.5 763,-535.5 763,-505.5 448,-505.5"/>
<text text-anchor="start" x="454.5625" y="-516.9" font-family="Arial" font-size="14.00" fill="#000000">default_life_event_category_id </text>
<text text-anchor="start" x="648.2973" y="-516.9" font-family="Arial" font-size="14.00" fill="#666666">[int(10) unsigned]</text>
<polygon fill="none" stroke="#000000" points="448,-475.5 448,-505.5 763,-505.5 763,-475.5 448,-475.5"/>
<text text-anchor="start" x="455" y="-486.9" font-family="Arial" font-size="14.00" fill="#000000">translation_key </text>
<text text-anchor="start" x="553.0238" y="-486.9" font-family="Arial" font-size="14.00" fill="#666666">[varchar(255)]</text>
<polygon fill="none" stroke="#000000" points="448,-445.5 448,-475.5 763,-475.5 763,-445.5 448,-445.5"/>
<text text-anchor="start" x="455" y="-456.9" font-family="Arial" font-size="14.00" fill="#000000">specific_information_structure </text>
<text text-anchor="start" x="644.8036" y="-456.9" font-family="Arial" font-size="14.00" fill="#666666">[text]</text>
<polygon fill="none" stroke="#000000" points="448,-415.5 448,-445.5 763,-445.5 763,-415.5 448,-415.5"/>
<text text-anchor="start" x="455" y="-426.9" font-family="Arial" font-size="14.00" fill="#000000">migrated </text>
<text text-anchor="start" x="513.3394" y="-426.9" font-family="Arial" font-size="14.00" fill="#666666">[tinyint(1)]</text>
<polygon fill="none" stroke="#000000" points="448,-385.5 448,-415.5 763,-415.5 763,-385.5 448,-385.5"/>
<text text-anchor="start" x="455" y="-396.9" font-family="Arial" font-size="14.00" fill="#000000">created_at </text>
<text text-anchor="start" x="525.028" y="-396.9" font-family="Arial" font-size="14.00" fill="#666666">[timestamp]</text>
<polygon fill="none" stroke="#000000" points="448,-355.5 448,-385.5 763,-385.5 763,-355.5 448,-355.5"/>
<text text-anchor="start" x="455" y="-366.9" font-family="Arial" font-size="14.00" fill="#000000">updated_at </text>
<text text-anchor="start" x="528.9326" y="-366.9" font-family="Arial" font-size="14.00" fill="#666666">[timestamp]</text>
</g>
<!-- default_life_event_types&#45;&gt;default_life_event_categories -->
<g id="edge1" class="edge">
<title>default_life_event_types:default_life_event_category_id&#45;&gt;default_life_event_categories:id</title>
<path fill="none" stroke="#000000" d="M438.1776,-518.5033C371.2062,-490.6392 360.7683,-180.5 433,-180.5"/>
<polygon fill="#000000" stroke="#000000" points="438.2004,-518.5079 447.1035,-524.9098 443.1002,-519.5039 448,-520.5 448,-520.5 448,-520.5 443.1002,-519.5039 448.8965,-516.0902 438.2004,-518.5079 438.2004,-518.5079"/>
<text text-anchor="start" x="6.737" y="-530.5" font-family="Arial" font-size="10.00" fill="#000000">FOREIGN KEY (default_life_event_category_id) REFERENCES default_life_event_categories (id)</text>
</g>
</g>
</svg>
