<?xml version="1.0" encoding="UTF-8" standalone="no"?>
<!DOCTYPE svg PUBLIC "-//W3C//DTD SVG 1.1//EN"
 "http://www.w3.org/Graphics/SVG/1.1/DTD/svg11.dtd">
<!-- Generated by graphviz version 2.40.1 (20161225.0304)
 -->
<!-- Title: default_life_event_types Pages: 1 -->
<svg width="829pt" height="652pt"
 viewBox="0.00 0.00 828.50 652.00" xmlns="http://www.w3.org/2000/svg" xmlns:xlink="http://www.w3.org/1999/xlink">
<g id="graph0" class="graph" transform="scale(1 1) rotate(0) translate(4 648)">
<title>default_life_event_types</title>
<polygon fill="#ffffff" stroke="transparent" points="-4,4 -4,-648 824.5,-648 824.5,4 -4,4"/>
<!-- default_life_event_types -->
<g id="node1" class="node">
<title>default_life_event_types</title>
<polygon fill="#efefef" stroke="transparent" points="448,-562.5 448,-597.5 763,-597.5 763,-562.5 448,-562.5"/>
<polygon fill="none" stroke="#000000" points="448,-562.5 448,-597.5 763,-597.5 763,-562.5 448,-562.5"/>
<text text-anchor="start" x="459.836" y="-575.3" font-family="Arial Bold" font-size="18.00" fill="#000000">default_life_event_types</text>
<text text-anchor="start" x="653.9102" y="-575.3" font-family="Arial" font-size="14.00" fill="#000000"> </text>
<text text-anchor="start" x="657.8008" y="-575.3" font-family="Arial" font-size="14.00" fill="#666666">[BASE TABLE]</text>
<polygon fill="none" stroke="#000000" points="448,-532.5 448,-562.5 763,-562.5 763,-532.5 448,-532.5"/>
<text text-anchor="start" x="455" y="-543.9" font-family="Arial" font-size="14.00" fill="#000000">id </text>
<text text-anchor="start" x="469.7798" y="-543.9" font-family="Arial" font-size="14.00" fill="#666666">[int(10) unsigned]</text>
<polygon fill="none" stroke="#000000" points="448,-502.5 448,-532.5 763,-532.5 763,-502.5 448,-502.5"/>
<text text-anchor="start" x="454.5625" y="-513.9" font-family="Arial" font-size="14.00" fill="#000000">default_life_event_category_id </text>
<text text-anchor="start" x="648.2973" y="-513.9" font-family="Arial" font-size="14.00" fill="#666666">[int(10) unsigned]</text>
<polygon fill="none" stroke="#000000" points="448,-472.5 448,-502.5 763,-502.5 763,-472.5 448,-472.5"/>
<text text-anchor="start" x="455" y="-483.9" font-family="Arial" font-size="14.00" fill="#000000">translation_key </text>
<text text-anchor="start" x="553.0238" y="-483.9" font-family="Arial" font-size="14.00" fill="#666666">[varchar(255)]</text>
<polygon fill="none" stroke="#000000" points="448,-442.5 448,-472.5 763,-472.5 763,-442.5 448,-442.5"/>
<text text-anchor="start" x="455" y="-453.9" font-family="Arial" font-size="14.00" fill="#000000">specific_information_structure </text>
<text text-anchor="start" x="644.8036" y="-453.9" font-family="Arial" font-size="14.00" fill="#666666">[text]</text>
<polygon fill="none" stroke="#000000" points="448,-412.5 448,-442.5 763,-442.5 763,-412.5 448,-412.5"/>
<text text-anchor="start" x="455" y="-423.9" font-family="Arial" font-size="14.00" fill="#000000">migrated </text>
<text text-anchor="start" x="513.3394" y="-423.9" font-family="Arial" font-size="14.00" fill="#666666">[tinyint(1)]</text>
<polygon fill="none" stroke="#000000" points="448,-382.5 448,-412.5 763,-412.5 763,-382.5 448,-382.5"/>
<text text-anchor="start" x="455" y="-393.9" font-family="Arial" font-size="14.00" fill="#000000">created_at </text>
<text text-anchor="start" x="525.028" y="-393.9" font-family="Arial" font-size="14.00" fill="#666666">[timestamp]</text>
<polygon fill="none" stroke="#000000" points="448,-352.5 448,-382.5 763,-382.5 763,-352.5 448,-352.5"/>
<text text-anchor="start" x="455" y="-363.9" font-family="Arial" font-size="14.00" fill="#000000">updated_at </text>
<text text-anchor="start" x="528.9326" y="-363.9" font-family="Arial" font-size="14.00" fill="#666666">[timestamp]</text>
<polygon fill="none" stroke="#000000" stroke-width="3" points="446,-351.5 446,-599.5 764,-599.5 764,-351.5 446,-351.5"/>
</g>
<!-- default_life_event_categories -->
<g id="node2" class="node">
<title>default_life_event_categories</title>
<polygon fill="#efefef" stroke="transparent" points="433,-192.5 433,-227.5 778,-227.5 778,-192.5 433,-192.5"/>
<polygon fill="none" stroke="#000000" points="433,-192.5 433,-227.5 778,-227.5 778,-192.5 433,-192.5"/>
<text text-anchor="start" x="439.8335" y="-205.3" font-family="Arial Bold" font-size="18.00" fill="#000000">default_life_event_categories</text>
<text text-anchor="start" x="673.9127" y="-205.3" font-family="Arial" font-size="14.00" fill="#000000"> </text>
<text text-anchor="start" x="677.8033" y="-205.3" font-family="Arial" font-size="14.00" fill="#666666">[BASE TABLE]</text>
<polygon fill="none" stroke="#000000" points="433,-162.5 433,-192.5 778,-192.5 778,-162.5 433,-162.5"/>
<text text-anchor="start" x="440" y="-173.9" font-family="Arial" font-size="14.00" fill="#000000">id </text>
<text text-anchor="start" x="454.7798" y="-173.9" font-family="Arial" font-size="14.00" fill="#666666">[int(10) unsigned]</text>
<polygon fill="none" stroke="#000000" points="433,-132.5 433,-162.5 778,-162.5 778,-132.5 433,-132.5"/>
<text text-anchor="start" x="440" y="-143.9" font-family="Arial" font-size="14.00" fill="#000000">translation_key </text>
<text text-anchor="start" x="538.0238" y="-143.9" font-family="Arial" font-size="14.00" fill="#666666">[varchar(255)]</text>
<polygon fill="none" stroke="#000000" points="433,-102.5 433,-132.5 778,-132.5 778,-102.5 433,-102.5"/>
<text text-anchor="start" x="440" y="-113.9" font-family="Arial" font-size="14.00" fill="#000000">migrated </text>
<text text-anchor="start" x="498.3394" y="-113.9" font-family="Arial" font-size="14.00" fill="#666666">[tinyint(1)]</text>
<polygon fill="none" stroke="#000000" points="433,-72.5 433,-102.5 778,-102.5 778,-72.5 433,-72.5"/>
<text text-anchor="start" x="440" y="-83.9" font-family="Arial" font-size="14.00" fill="#000000">created_at </text>
<text text-anchor="start" x="510.028" y="-83.9" font-family="Arial" font-size="14.00" fill="#666666">[timestamp]</text>
<polygon fill="none" stroke="#000000" points="433,-42.5 433,-72.5 778,-72.5 778,-42.5 433,-42.5"/>
<text text-anchor="start" x="440" y="-53.9" font-family="Arial" font-size="14.00" fill="#000000">updated_at </text>
<text text-anchor="start" x="513.9326" y="-53.9" font-family="Arial" font-size="14.00" fill="#666666">[timestamp]</text>
</g>
<!-- default_life_event_types&#45;&gt;default_life_event_categories -->
<g id="edge1" class="edge">
<title>default_life_event_types:default_life_event_category_id&#45;&gt;default_life_event_categories:id</title>
<path fill="none" stroke="#000000" d="M438.1776,-515.5033C371.2062,-487.6392 360.7683,-177.5 433,-177.5"/>
<polygon fill="#000000" stroke="#000000" points="438.2004,-515.5079 447.1035,-521.9098 443.1002,-516.5039 448,-517.5 448,-517.5 448,-517.5 443.1002,-516.5039 448.8965,-513.0902 438.2004,-515.5079 438.2004,-515.5079"/>
<text text-anchor="start" x="6.737" y="-527.5" font-family="Arial" font-size="10.00" fill="#000000">FOREIGN KEY (default_life_event_category_id) REFERENCES default_life_event_categories (id)</text>
</g>
</g>
</svg>
