<?xml version="1.0" encoding="UTF-8" standalone="no"?>
<!DOCTYPE svg PUBLIC "-//W3C//DTD SVG 1.1//EN"
 "http://www.w3.org/Graphics/SVG/1.1/DTD/svg11.dtd">
<!-- Generated by graphviz version 2.40.1 (20161225.0304)
 -->
<!-- Title: emotions Pages: 1 -->
<svg width="999pt" height="959pt"
 viewBox="0.00 0.00 999.00 959.00" xmlns="http://www.w3.org/2000/svg" xmlns:xlink="http://www.w3.org/1999/xlink">
<g id="graph0" class="graph" transform="scale(1 1) rotate(0) translate(4 955)">
<title>emotions</title>
<polygon fill="#ffffff" stroke="transparent" points="-4,4 -4,-955 995,-955 995,4 -4,4"/>
<!-- emotions -->
<g id="node1" class="node">
<title>emotions</title>
<polygon fill="#efefef" stroke="transparent" points="350,-532.5 350,-567.5 616,-567.5 616,-532.5 350,-532.5"/>
<polygon fill="none" stroke="#000000" points="350,-532.5 350,-567.5 616,-567.5 616,-532.5 350,-532.5"/>
<text text-anchor="start" x="397.8664" y="-545.3" font-family="Arial Bold" font-size="18.00" fill="#000000">emotions</text>
<text text-anchor="start" x="470.8798" y="-545.3" font-family="Arial" font-size="14.00" fill="#000000"> </text>
<text text-anchor="start" x="474.7704" y="-545.3" font-family="Arial" font-size="14.00" fill="#666666">[BASE TABLE]</text>
<polygon fill="none" stroke="#000000" points="350,-502.5 350,-532.5 616,-532.5 616,-502.5 350,-502.5"/>
<text text-anchor="start" x="357" y="-513.9" font-family="Arial" font-size="14.00" fill="#000000">id </text>
<text text-anchor="start" x="371.7798" y="-513.9" font-family="Arial" font-size="14.00" fill="#666666">[int(10) unsigned]</text>
<polygon fill="none" stroke="#000000" points="350,-472.5 350,-502.5 616,-502.5 616,-472.5 350,-472.5"/>
<text text-anchor="start" x="357" y="-483.9" font-family="Arial" font-size="14.00" fill="#000000">emotion_primary_id </text>
<text text-anchor="start" x="483.7868" y="-483.9" font-family="Arial" font-size="14.00" fill="#666666">[int(10) unsigned]</text>
<polygon fill="none" stroke="#000000" points="350,-442.5 350,-472.5 616,-472.5 616,-442.5 350,-442.5"/>
<text text-anchor="start" x="356.5765" y="-453.9" font-family="Arial" font-size="14.00" fill="#000000">emotion_secondary_id </text>
<text text-anchor="start" x="501.2833" y="-453.9" font-family="Arial" font-size="14.00" fill="#666666">[int(10) unsigned]</text>
<polygon fill="none" stroke="#000000" points="350,-412.5 350,-442.5 616,-442.5 616,-412.5 350,-412.5"/>
<text text-anchor="start" x="357" y="-423.9" font-family="Arial" font-size="14.00" fill="#000000">name </text>
<text text-anchor="start" x="395.899" y="-423.9" font-family="Arial" font-size="14.00" fill="#666666">[varchar(255)]</text>
<polygon fill="none" stroke="#000000" points="350,-382.5 350,-412.5 616,-412.5 616,-382.5 350,-382.5"/>
<text text-anchor="start" x="357" y="-393.9" font-family="Arial" font-size="14.00" fill="#000000">created_at </text>
<text text-anchor="start" x="427.028" y="-393.9" font-family="Arial" font-size="14.00" fill="#666666">[timestamp]</text>
<polygon fill="none" stroke="#000000" points="350,-352.5 350,-382.5 616,-382.5 616,-352.5 350,-352.5"/>
<text text-anchor="start" x="357" y="-363.9" font-family="Arial" font-size="14.00" fill="#000000">updated_at </text>
<text text-anchor="start" x="430.9326" y="-363.9" font-family="Arial" font-size="14.00" fill="#666666">[timestamp]</text>
<polygon fill="none" stroke="#000000" stroke-width="3" points="348.5,-351.5 348.5,-569.5 617.5,-569.5 617.5,-351.5 348.5,-351.5"/>
</g>
<!-- emotions_primary -->
<g id="node4" class="node">
<title>emotions_primary</title>
<polygon fill="#efefef" stroke="transparent" points="171,-177.5 171,-212.5 425,-212.5 425,-177.5 171,-177.5"/>
<polygon fill="none" stroke="#000000" points="171,-177.5 171,-212.5 425,-212.5 425,-177.5 171,-177.5"/>
<text text-anchor="start" x="177.8717" y="-190.3" font-family="Arial Bold" font-size="18.00" fill="#000000">emotions_primary</text>
<text text-anchor="start" x="320.8745" y="-190.3" font-family="Arial" font-size="14.00" fill="#000000"> </text>
<text text-anchor="start" x="324.7651" y="-190.3" font-family="Arial" font-size="14.00" fill="#666666">[BASE TABLE]</text>
<polygon fill="none" stroke="#000000" points="171,-147.5 171,-177.5 425,-177.5 425,-147.5 171,-147.5"/>
<text text-anchor="start" x="178" y="-158.9" font-family="Arial" font-size="14.00" fill="#000000">id </text>
<text text-anchor="start" x="192.7798" y="-158.9" font-family="Arial" font-size="14.00" fill="#666666">[int(10) unsigned]</text>
<polygon fill="none" stroke="#000000" points="171,-117.5 171,-147.5 425,-147.5 425,-117.5 171,-117.5"/>
<text text-anchor="start" x="178" y="-128.9" font-family="Arial" font-size="14.00" fill="#000000">name </text>
<text text-anchor="start" x="216.899" y="-128.9" font-family="Arial" font-size="14.00" fill="#666666">[varchar(255)]</text>
<polygon fill="none" stroke="#000000" points="171,-87.5 171,-117.5 425,-117.5 425,-87.5 171,-87.5"/>
<text text-anchor="start" x="178" y="-98.9" font-family="Arial" font-size="14.00" fill="#000000">created_at </text>
<text text-anchor="start" x="248.028" y="-98.9" font-family="Arial" font-size="14.00" fill="#666666">[timestamp]</text>
<polygon fill="none" stroke="#000000" points="171,-57.5 171,-87.5 425,-87.5 425,-57.5 171,-57.5"/>
<text text-anchor="start" x="178" y="-68.9" font-family="Arial" font-size="14.00" fill="#000000">updated_at </text>
<text text-anchor="start" x="251.9326" y="-68.9" font-family="Arial" font-size="14.00" fill="#666666">[timestamp]</text>
</g>
<!-- emotions&#45;&gt;emotions_primary -->
<g id="edge3" class="edge">
<title>emotions:emotion_primary_id&#45;&gt;emotions_primary:id</title>
<path fill="none" stroke="#000000" d="M339.9213,-486.8499C273.6031,-477.7315 314.1572,-374.7177 350,-307 368.8573,-271.3729 406.1427,-291.6271 425,-256 444.4401,-219.272 466.5556,-162.5 425,-162.5"/>
<polygon fill="#000000" stroke="#000000" points="340.0207,-486.8563 349.7103,-491.9907 345.0104,-487.1781 350,-487.5 350,-487.5 350,-487.5 345.0104,-487.1781 350.2897,-483.0093 340.0207,-486.8563 340.0207,-486.8563"/>
<text text-anchor="start" x="6.946" y="-497.5" font-family="Arial" font-size="10.00" fill="#000000">FOREIGN KEY (emotion_primary_id) REFERENCES emotions_primary (id)</text>
</g>
<!-- emotions_secondary -->
<g id="node5" class="node">
<title>emotions_secondary</title>
<polygon fill="#efefef" stroke="transparent" points="530,-192.5 530,-227.5 807,-227.5 807,-192.5 530,-192.5"/>
<polygon fill="none" stroke="#000000" points="530,-192.5 530,-227.5 807,-227.5 807,-192.5 530,-192.5"/>
<text text-anchor="start" x="536.8517" y="-205.3" font-family="Arial Bold" font-size="18.00" fill="#000000">emotions_secondary</text>
<text text-anchor="start" x="702.8945" y="-205.3" font-family="Arial" font-size="14.00" fill="#000000"> </text>
<text text-anchor="start" x="706.7851" y="-205.3" font-family="Arial" font-size="14.00" fill="#666666">[BASE TABLE]</text>
<polygon fill="none" stroke="#000000" points="530,-162.5 530,-192.5 807,-192.5 807,-162.5 530,-162.5"/>
<text text-anchor="start" x="537" y="-173.9" font-family="Arial" font-size="14.00" fill="#000000">id </text>
<text text-anchor="start" x="551.7798" y="-173.9" font-family="Arial" font-size="14.00" fill="#666666">[int(10) unsigned]</text>
<polygon fill="none" stroke="#000000" points="530,-132.5 530,-162.5 807,-162.5 807,-132.5 530,-132.5"/>
<text text-anchor="start" x="537" y="-143.9" font-family="Arial" font-size="14.00" fill="#000000">emotion_primary_id </text>
<text text-anchor="start" x="663.7868" y="-143.9" font-family="Arial" font-size="14.00" fill="#666666">[int(10) unsigned]</text>
<polygon fill="none" stroke="#000000" points="530,-102.5 530,-132.5 807,-132.5 807,-102.5 530,-102.5"/>
<text text-anchor="start" x="537" y="-113.9" font-family="Arial" font-size="14.00" fill="#000000">name </text>
<text text-anchor="start" x="575.899" y="-113.9" font-family="Arial" font-size="14.00" fill="#666666">[varchar(255)]</text>
<polygon fill="none" stroke="#000000" points="530,-72.5 530,-102.5 807,-102.5 807,-72.5 530,-72.5"/>
<text text-anchor="start" x="537" y="-83.9" font-family="Arial" font-size="14.00" fill="#000000">created_at </text>
<text text-anchor="start" x="607.028" y="-83.9" font-family="Arial" font-size="14.00" fill="#666666">[timestamp]</text>
<polygon fill="none" stroke="#000000" points="530,-42.5 530,-72.5 807,-72.5 807,-42.5 530,-42.5"/>
<text text-anchor="start" x="537" y="-53.9" font-family="Arial" font-size="14.00" fill="#000000">updated_at </text>
<text text-anchor="start" x="610.9326" y="-53.9" font-family="Arial" font-size="14.00" fill="#666666">[timestamp]</text>
</g>
<!-- emotions&#45;&gt;emotions_secondary -->
<g id="edge4" class="edge">
<title>emotions:emotion_secondary_id&#45;&gt;emotions_secondary:id</title>
<path fill="none" stroke="#000000" d="M626.1208,-456.6712C679.6045,-447.2467 651.0308,-359.6402 616,-307 593.0439,-272.5043 552.9561,-305.4957 530,-271 506.9777,-236.4047 488.4444,-177.5 530,-177.5"/>
<polygon fill="#000000" stroke="#000000" points="625.9666,-456.6837 615.6327,-453.015 620.9833,-457.0919 616,-457.5 616,-457.5 616,-457.5 620.9833,-457.0919 616.3673,-461.985 625.9666,-456.6837 625.9666,-456.6837"/>
<text text-anchor="start" x="623.146" y="-467.5" font-family="Arial" font-size="10.00" fill="#000000">FOREIGN KEY (emotion_secondary_id) REFERENCES emotions_secondary (id)</text>
</g>
<!-- emotion_activity -->
<g id="node2" class="node">
<title>emotion_activity</title>
<polygon fill="#efefef" stroke="transparent" points="198,-857.5 198,-892.5 438,-892.5 438,-857.5 198,-857.5"/>
<polygon fill="none" stroke="#000000" points="198,-857.5 198,-892.5 438,-892.5 438,-857.5 198,-857.5"/>
<text text-anchor="start" x="204.8638" y="-870.3" font-family="Arial Bold" font-size="18.00" fill="#000000">emotion_activity</text>
<text text-anchor="start" x="333.8824" y="-870.3" font-family="Arial" font-size="14.00" fill="#000000"> </text>
<text text-anchor="start" x="337.773" y="-870.3" font-family="Arial" font-size="14.00" fill="#666666">[BASE TABLE]</text>
<polygon fill="none" stroke="#000000" points="198,-827.5 198,-857.5 438,-857.5 438,-827.5 198,-827.5"/>
<text text-anchor="start" x="205" y="-838.9" font-family="Arial" font-size="14.00" fill="#000000">account_id </text>
<text text-anchor="start" x="276.5834" y="-838.9" font-family="Arial" font-size="14.00" fill="#666666">[int(10) unsigned]</text>
<polygon fill="none" stroke="#000000" points="198,-797.5 198,-827.5 438,-827.5 438,-797.5 198,-797.5"/>
<text text-anchor="start" x="205" y="-808.9" font-family="Arial" font-size="14.00" fill="#000000">activity_id </text>
<text text-anchor="start" x="270.3394" y="-808.9" font-family="Arial" font-size="14.00" fill="#666666">[int(10) unsigned]</text>
<polygon fill="none" stroke="#000000" points="198,-767.5 198,-797.5 438,-797.5 438,-767.5 198,-767.5"/>
<text text-anchor="start" x="205" y="-778.9" font-family="Arial" font-size="14.00" fill="#000000">emotion_id </text>
<text text-anchor="start" x="277.3506" y="-778.9" font-family="Arial" font-size="14.00" fill="#666666">[int(10) unsigned]</text>
<polygon fill="none" stroke="#000000" points="198,-737.5 198,-767.5 438,-767.5 438,-737.5 198,-737.5"/>
<text text-anchor="start" x="205" y="-748.9" font-family="Arial" font-size="14.00" fill="#000000">created_at </text>
<text text-anchor="start" x="275.028" y="-748.9" font-family="Arial" font-size="14.00" fill="#666666">[timestamp]</text>
<polygon fill="none" stroke="#000000" points="198,-707.5 198,-737.5 438,-737.5 438,-707.5 198,-707.5"/>
<text text-anchor="start" x="205" y="-718.9" font-family="Arial" font-size="14.00" fill="#000000">updated_at </text>
<text text-anchor="start" x="278.9326" y="-718.9" font-family="Arial" font-size="14.00" fill="#666666">[timestamp]</text>
</g>
<!-- emotion_activity&#45;&gt;emotions -->
<g id="edge1" class="edge">
<title>emotion_activity:emotion_id&#45;&gt;emotions:id</title>
<path fill="none" stroke="#000000" d="M448.3646,-781.3466C486.3412,-771.9237 462.1387,-706.889 438,-665 415.4299,-625.8331 372.5701,-653.1669 350,-614 328.5861,-576.8395 307.1111,-517.5 350,-517.5"/>
<polygon fill="#000000" stroke="#000000" points="447.9386,-781.3939 437.5023,-778.0276 442.9693,-781.9469 438,-782.5 438,-782.5 438,-782.5 442.9693,-781.9469 438.4977,-786.9724 447.9386,-781.3939 447.9386,-781.3939"/>
<text text-anchor="start" x="444.829" y="-792.5" font-family="Arial" font-size="10.00" fill="#000000">FOREIGN KEY (emotion_id) REFERENCES emotions (id)</text>
</g>
<!-- emotion_call -->
<g id="node3" class="node">
<title>emotion_call</title>
<polygon fill="#efefef" stroke="transparent" points="542,-872.5 542,-907.5 754,-907.5 754,-872.5 542,-872.5"/>
<polygon fill="none" stroke="#000000" points="542,-872.5 542,-907.5 754,-907.5 754,-872.5 542,-872.5"/>
<text text-anchor="start" x="548.866" y="-885.3" font-family="Arial Bold" font-size="18.00" fill="#000000">emotion_call</text>
<text text-anchor="start" x="649.8802" y="-885.3" font-family="Arial" font-size="14.00" fill="#000000"> </text>
<text text-anchor="start" x="653.7708" y="-885.3" font-family="Arial" font-size="14.00" fill="#666666">[BASE TABLE]</text>
<polygon fill="none" stroke="#000000" points="542,-842.5 542,-872.5 754,-872.5 754,-842.5 542,-842.5"/>
<text text-anchor="start" x="549" y="-853.9" font-family="Arial" font-size="14.00" fill="#000000">account_id </text>
<text text-anchor="start" x="620.5834" y="-853.9" font-family="Arial" font-size="14.00" fill="#666666">[int(10) unsigned]</text>
<polygon fill="none" stroke="#000000" points="542,-812.5 542,-842.5 754,-842.5 754,-812.5 542,-812.5"/>
<text text-anchor="start" x="549" y="-823.9" font-family="Arial" font-size="14.00" fill="#000000">call_id </text>
<text text-anchor="start" x="592.5582" y="-823.9" font-family="Arial" font-size="14.00" fill="#666666">[int(10) unsigned]</text>
<polygon fill="none" stroke="#000000" points="542,-782.5 542,-812.5 754,-812.5 754,-782.5 542,-782.5"/>
<text text-anchor="start" x="549" y="-793.9" font-family="Arial" font-size="14.00" fill="#000000">emotion_id </text>
<text text-anchor="start" x="621.3506" y="-793.9" font-family="Arial" font-size="14.00" fill="#666666">[int(10) unsigned]</text>
<polygon fill="none" stroke="#000000" points="542,-752.5 542,-782.5 754,-782.5 754,-752.5 542,-752.5"/>
<text text-anchor="start" x="549" y="-763.9" font-family="Arial" font-size="14.00" fill="#000000">contact_id </text>
<text text-anchor="start" x="616.6914" y="-763.9" font-family="Arial" font-size="14.00" fill="#666666">[int(10) unsigned]</text>
<polygon fill="none" stroke="#000000" points="542,-722.5 542,-752.5 754,-752.5 754,-722.5 542,-722.5"/>
<text text-anchor="start" x="549" y="-733.9" font-family="Arial" font-size="14.00" fill="#000000">created_at </text>
<text text-anchor="start" x="619.028" y="-733.9" font-family="Arial" font-size="14.00" fill="#666666">[timestamp]</text>
<polygon fill="none" stroke="#000000" points="542,-692.5 542,-722.5 754,-722.5 754,-692.5 542,-692.5"/>
<text text-anchor="start" x="549" y="-703.9" font-family="Arial" font-size="14.00" fill="#000000">updated_at </text>
<text text-anchor="start" x="622.9326" y="-703.9" font-family="Arial" font-size="14.00" fill="#666666">[timestamp]</text>
</g>
<!-- emotion_call&#45;&gt;emotions -->
<g id="edge2" class="edge">
<title>emotion_call:emotion_id&#45;&gt;emotions:id</title>
<path fill="none" stroke="#000000" d="M531.7712,-796.6386C479.945,-787.2034 509.2021,-702.4289 542,-650 561.397,-618.993 596.603,-645.007 616,-614 638.746,-577.6396 658.8889,-517.5 616,-517.5"/>
<polygon fill="#000000" stroke="#000000" points="532.0353,-796.6607 541.6223,-801.9841 537.0176,-797.0804 542,-797.5 542,-797.5 542,-797.5 537.0176,-797.0804 542.3777,-793.0159 532.0353,-796.6607 532.0353,-796.6607"/>
<text text-anchor="start" x="548.829" y="-807.5" font-family="Arial" font-size="10.00" fill="#000000">FOREIGN KEY (emotion_id) REFERENCES emotions (id)</text>
</g>
</g>
</svg>
