<?xml version="1.0" encoding="UTF-8" standalone="no"?>
<!DOCTYPE svg PUBLIC "-//W3C//DTD SVG 1.1//EN"
 "http://www.w3.org/Graphics/SVG/1.1/DTD/svg11.dtd">
<!-- Generated by graphviz version 2.40.1 (20161225.0304)
 -->
<!-- Title: failed_jobs Pages: 1 -->
<svg width="297pt" height="315pt"
 viewBox="0.00 0.00 297.00 315.00" xmlns="http://www.w3.org/2000/svg" xmlns:xlink="http://www.w3.org/1999/xlink">
<g id="graph0" class="graph" transform="scale(1 1) rotate(0) translate(4 311)">
<title>failed_jobs</title>
<polygon fill="#ffffff" stroke="transparent" points="-4,4 -4,-311 293,-311 293,4 -4,4"/>
<!-- failed_jobs -->
<g id="node1" class="node">
<title>failed_jobs</title>
<polygon fill="#efefef" stroke="transparent" points="46.5,-225.5 46.5,-260.5 243.5,-260.5 243.5,-225.5 46.5,-225.5"/>
<polygon fill="none" stroke="#000000" points="46.5,-225.5 46.5,-260.5 243.5,-260.5 243.5,-225.5 46.5,-225.5"/>
<text text-anchor="start" x="53.3621" y="-238.3" font-family="Arial Bold" font-size="18.00" fill="#000000">failed_jobs</text>
<text text-anchor="start" x="139.3841" y="-238.3" font-family="Arial" font-size="14.00" fill="#000000"> </text>
<text text-anchor="start" x="143.2747" y="-238.3" font-family="Arial" font-size="14.00" fill="#666666">[BASE TABLE]</text>
<polygon fill="none" stroke="#000000" points="46.5,-195.5 46.5,-225.5 243.5,-225.5 243.5,-195.5 46.5,-195.5"/>
<text text-anchor="start" x="53.5" y="-206.9" font-family="Arial" font-size="14.00" fill="#000000">id </text>
<text text-anchor="start" x="68.2798" y="-206.9" font-family="Arial" font-size="14.00" fill="#666666">[int(10) unsigned]</text>
<polygon fill="none" stroke="#000000" points="46.5,-165.5 46.5,-195.5 243.5,-195.5 243.5,-165.5 46.5,-165.5"/>
<text text-anchor="start" x="53.5" y="-176.9" font-family="Arial" font-size="14.00" fill="#000000">connection </text>
<text text-anchor="start" x="125.0834" y="-176.9" font-family="Arial" font-size="14.00" fill="#666666">[text]</text>
<polygon fill="none" stroke="#000000" points="46.5,-135.5 46.5,-165.5 243.5,-165.5 243.5,-135.5 46.5,-135.5"/>
<text text-anchor="start" x="53.5" y="-146.9" font-family="Arial" font-size="14.00" fill="#000000">queue </text>
<text text-anchor="start" x="96.3036" y="-146.9" font-family="Arial" font-size="14.00" fill="#666666">[text]</text>
<polygon fill="none" stroke="#000000" points="46.5,-105.5 46.5,-135.5 243.5,-135.5 243.5,-105.5 46.5,-105.5"/>
<text text-anchor="start" x="53.5" y="-116.9" font-family="Arial" font-size="14.00" fill="#000000">payload </text>
<text text-anchor="start" x="106.4102" y="-116.9" font-family="Arial" font-size="14.00" fill="#666666">[longtext]</text>
<polygon fill="none" stroke="#000000" points="46.5,-75.5 46.5,-105.5 243.5,-105.5 243.5,-75.5 46.5,-75.5"/>
<text text-anchor="start" x="53.5" y="-86.9" font-family="Arial" font-size="14.00" fill="#000000">exception </text>
<text text-anchor="start" x="117.3008" y="-86.9" font-family="Arial" font-size="14.00" fill="#666666">[longtext]</text>
<polygon fill="none" stroke="#000000" points="46.5,-45.5 46.5,-75.5 243.5,-75.5 243.5,-45.5 46.5,-45.5"/>
<text text-anchor="start" x="53.5" y="-56.9" font-family="Arial" font-size="14.00" fill="#000000">failed_at </text>
<text text-anchor="start" x="110.298" y="-56.9" font-family="Arial" font-size="14.00" fill="#666666">[timestamp]</text>
<polygon fill="none" stroke="#000000" stroke-width="3" points="44.5,-44.5 44.5,-262.5 244.5,-262.5 244.5,-44.5 44.5,-44.5"/>
</g>
</g>
</svg>
