<?xml version="1.0" encoding="UTF-8" standalone="no"?>
<!DOCTYPE svg PUBLIC "-//W3C//DTD SVG 1.1//EN"
 "http://www.w3.org/Graphics/SVG/1.1/DTD/svg11.dtd">
<!-- Generated by graphviz version 2.40.1 (20161225.0304)
 -->
<!-- Title: genders Pages: 1 -->
<svg width="665pt" height="862pt"
 viewBox="0.00 0.00 664.50 862.00" xmlns="http://www.w3.org/2000/svg" xmlns:xlink="http://www.w3.org/1999/xlink">
<g id="graph0" class="graph" transform="scale(1 1) rotate(0) translate(4 858)">
<title>genders</title>
<polygon fill="#ffffff" stroke="transparent" points="-4,4 -4,-858 660.5,-858 660.5,4 -4,4"/>
<!-- genders -->
<g id="node1" class="node">
<title>genders</title>
<polygon fill="#efefef" stroke="transparent" points="360,-772.5 360,-807.5 553,-807.5 553,-772.5 360,-772.5"/>
<polygon fill="none" stroke="#000000" points="360,-772.5 360,-807.5 553,-807.5 553,-772.5 360,-772.5"/>
<text text-anchor="start" x="375.3615" y="-785.3" font-family="Arial Bold" font-size="18.00" fill="#000000">genders</text>
<text text-anchor="start" x="440.3847" y="-785.3" font-family="Arial" font-size="14.00" fill="#000000"> </text>
<text text-anchor="start" x="444.2753" y="-785.3" font-family="Arial" font-size="14.00" fill="#666666">[BASE TABLE]</text>
<polygon fill="none" stroke="#000000" points="360,-742.5 360,-772.5 553,-772.5 553,-742.5 360,-742.5"/>
<text text-anchor="start" x="367" y="-753.9" font-family="Arial" font-size="14.00" fill="#000000">id </text>
<text text-anchor="start" x="381.7798" y="-753.9" font-family="Arial" font-size="14.00" fill="#666666">[int(10) unsigned]</text>
<polygon fill="none" stroke="#000000" points="360,-712.5 360,-742.5 553,-742.5 553,-712.5 360,-712.5"/>
<text text-anchor="start" x="366.6382" y="-723.9" font-family="Arial" font-size="14.00" fill="#000000">account_id </text>
<text text-anchor="start" x="438.2216" y="-723.9" font-family="Arial" font-size="14.00" fill="#666666">[int(10) unsigned]</text>
<polygon fill="none" stroke="#000000" points="360,-682.5 360,-712.5 553,-712.5 553,-682.5 360,-682.5"/>
<text text-anchor="start" x="367" y="-693.9" font-family="Arial" font-size="14.00" fill="#000000">name </text>
<text text-anchor="start" x="405.899" y="-693.9" font-family="Arial" font-size="14.00" fill="#666666">[varchar(255)]</text>
<polygon fill="none" stroke="#000000" points="360,-652.5 360,-682.5 553,-682.5 553,-652.5 360,-652.5"/>
<text text-anchor="start" x="367" y="-663.9" font-family="Arial" font-size="14.00" fill="#000000">type </text>
<text text-anchor="start" x="397.3464" y="-663.9" font-family="Arial" font-size="14.00" fill="#666666">[char(1)]</text>
<polygon fill="none" stroke="#000000" points="360,-622.5 360,-652.5 553,-652.5 553,-622.5 360,-622.5"/>
<text text-anchor="start" x="367" y="-633.9" font-family="Arial" font-size="14.00" fill="#000000">created_at </text>
<text text-anchor="start" x="437.028" y="-633.9" font-family="Arial" font-size="14.00" fill="#666666">[timestamp]</text>
<polygon fill="none" stroke="#000000" points="360,-592.5 360,-622.5 553,-622.5 553,-592.5 360,-592.5"/>
<text text-anchor="start" x="367" y="-603.9" font-family="Arial" font-size="14.00" fill="#000000">updated_at </text>
<text text-anchor="start" x="440.9326" y="-603.9" font-family="Arial" font-size="14.00" fill="#666666">[timestamp]</text>
<polygon fill="none" stroke="#000000" stroke-width="3" points="358,-591.5 358,-809.5 554,-809.5 554,-591.5 358,-591.5"/>
</g>
<!-- accounts -->
<g id="node2" class="node">
<title>accounts</title>
<polygon fill="#efefef" stroke="transparent" points="299,-432.5 299,-467.5 614,-467.5 614,-432.5 299,-432.5"/>
<polygon fill="none" stroke="#000000" points="299,-432.5 299,-467.5 614,-467.5 614,-432.5 299,-432.5"/>
<text text-anchor="start" x="371.8596" y="-445.3" font-family="Arial Bold" font-size="18.00" fill="#000000">accounts</text>
<text text-anchor="start" x="443.8866" y="-445.3" font-family="Arial" font-size="14.00" fill="#000000"> </text>
<text text-anchor="start" x="447.7772" y="-445.3" font-family="Arial" font-size="14.00" fill="#666666">[BASE TABLE]</text>
<polygon fill="none" stroke="#000000" points="299,-402.5 299,-432.5 614,-432.5 614,-402.5 299,-402.5"/>
<text text-anchor="start" x="306" y="-413.9" font-family="Arial" font-size="14.00" fill="#000000">id </text>
<text text-anchor="start" x="320.7798" y="-413.9" font-family="Arial" font-size="14.00" fill="#666666">[int(10) unsigned]</text>
<polygon fill="none" stroke="#000000" points="299,-372.5 299,-402.5 614,-402.5 614,-372.5 299,-372.5"/>
<text text-anchor="start" x="305.573" y="-383.9" font-family="Arial" font-size="14.00" fill="#000000">has_access_to_paid_version_for_free </text>
<text text-anchor="start" x="545.9824" y="-383.9" font-family="Arial" font-size="14.00" fill="#666666">[tinyint(1)]</text>
<polygon fill="none" stroke="#000000" points="299,-342.5 299,-372.5 614,-372.5 614,-342.5 299,-342.5"/>
<text text-anchor="start" x="306" y="-353.9" font-family="Arial" font-size="14.00" fill="#000000">api_key </text>
<text text-anchor="start" x="358.1276" y="-353.9" font-family="Arial" font-size="14.00" fill="#666666">[varchar(255)]</text>
<polygon fill="none" stroke="#000000" points="299,-312.5 299,-342.5 614,-342.5 614,-312.5 299,-312.5"/>
<text text-anchor="start" x="306" y="-323.9" font-family="Arial" font-size="14.00" fill="#000000">number_of_invitations_sent </text>
<text text-anchor="start" x="481.0504" y="-323.9" font-family="Arial" font-size="14.00" fill="#666666">[int(11)]</text>
<polygon fill="none" stroke="#000000" points="299,-282.5 299,-312.5 614,-312.5 614,-282.5 299,-282.5"/>
<text text-anchor="start" x="306" y="-293.9" font-family="Arial" font-size="14.00" fill="#000000">default_time_reminder_is_sent </text>
<text text-anchor="start" x="501.2608" y="-293.9" font-family="Arial" font-size="14.00" fill="#666666">[varchar(255)]</text>
<polygon fill="none" stroke="#000000" points="299,-252.5 299,-282.5 614,-282.5 614,-252.5 299,-252.5"/>
<text text-anchor="start" x="306" y="-263.9" font-family="Arial" font-size="14.00" fill="#000000">default_gender_id </text>
<text text-anchor="start" x="421.9368" y="-263.9" font-family="Arial" font-size="14.00" fill="#666666">[int(10) unsigned]</text>
<polygon fill="none" stroke="#000000" points="299,-222.5 299,-252.5 614,-252.5 614,-222.5 299,-222.5"/>
<text text-anchor="start" x="306" y="-233.9" font-family="Arial" font-size="14.00" fill="#000000">stripe_id </text>
<text text-anchor="start" x="362.7854" y="-233.9" font-family="Arial" font-size="14.00" fill="#666666">[varchar(255)]</text>
<polygon fill="none" stroke="#000000" points="299,-192.5 299,-222.5 614,-222.5 614,-192.5 299,-192.5"/>
<text text-anchor="start" x="306" y="-203.9" font-family="Arial" font-size="14.00" fill="#000000">card_brand </text>
<text text-anchor="start" x="380.69" y="-203.9" font-family="Arial" font-size="14.00" fill="#666666">[varchar(255)]</text>
<polygon fill="none" stroke="#000000" points="299,-162.5 299,-192.5 614,-192.5 614,-162.5 299,-162.5"/>
<text text-anchor="start" x="306" y="-173.9" font-family="Arial" font-size="14.00" fill="#000000">card_last_four </text>
<text text-anchor="start" x="398.5778" y="-173.9" font-family="Arial" font-size="14.00" fill="#666666">[varchar(4)]</text>
<polygon fill="none" stroke="#000000" points="299,-132.5 299,-162.5 614,-162.5 614,-132.5 299,-132.5"/>
<text text-anchor="start" x="306" y="-143.9" font-family="Arial" font-size="14.00" fill="#000000">trial_ends_at </text>
<text text-anchor="start" x="390.0238" y="-143.9" font-family="Arial" font-size="14.00" fill="#666666">[timestamp]</text>
<polygon fill="none" stroke="#000000" points="299,-102.5 299,-132.5 614,-132.5 614,-102.5 299,-102.5"/>
<text text-anchor="start" x="306" y="-113.9" font-family="Arial" font-size="14.00" fill="#000000">legacy_free_plan_unlimited_contacts </text>
<text text-anchor="start" x="540.1766" y="-113.9" font-family="Arial" font-size="14.00" fill="#666666">[tinyint(1)]</text>
<polygon fill="none" stroke="#000000" points="299,-72.5 299,-102.5 614,-102.5 614,-72.5 299,-72.5"/>
<text text-anchor="start" x="306" y="-83.9" font-family="Arial" font-size="14.00" fill="#000000">created_at </text>
<text text-anchor="start" x="376.028" y="-83.9" font-family="Arial" font-size="14.00" fill="#666666">[timestamp]</text>
<polygon fill="none" stroke="#000000" points="299,-42.5 299,-72.5 614,-72.5 614,-42.5 299,-42.5"/>
<text text-anchor="start" x="306" y="-53.9" font-family="Arial" font-size="14.00" fill="#000000">updated_at </text>
<text text-anchor="start" x="379.9326" y="-53.9" font-family="Arial" font-size="14.00" fill="#666666">[timestamp]</text>
</g>
<!-- genders&#45;&gt;accounts -->
<g id="edge2" class="edge">
<title>genders:account_id&#45;&gt;accounts:id</title>
<path fill="none" stroke="#000000" d="M349.7954,-725.3549C284.1459,-697.9657 232.2183,-417.5 299,-417.5"/>
<polygon fill="#000000" stroke="#000000" points="350.2139,-725.4428 359.0742,-731.9038 355.1069,-726.4714 360,-727.5 360,-727.5 360,-727.5 355.1069,-726.4714 360.9258,-723.0962 350.2139,-725.4428 350.2139,-725.4428"/>
<text text-anchor="start" x="96.377" y="-737.5" font-family="Arial" font-size="10.00" fill="#000000">FOREIGN KEY (account_id) REFERENCES accounts (id)</text>
</g>
<!-- accounts&#45;&gt;genders -->
<g id="edge1" class="edge">
<title>accounts:default_gender_id&#45;&gt;genders:id</title>
<path fill="none" stroke="#000000" d="M288.9192,-268.9939C193.2528,-298.5731 253.8068,-757.5 360,-757.5"/>
<polygon fill="#000000" stroke="#000000" points="289.108,-268.966 299.6597,-271.9514 294.054,-268.233 299,-267.5 299,-267.5 299,-267.5 294.054,-268.233 298.3403,-263.0486 289.108,-268.966 289.108,-268.966"/>
<text text-anchor="start" x="7.482" y="-277.5" font-family="Arial" font-size="10.00" fill="#000000">FOREIGN KEY (default_gender_id) REFERENCES genders (id)</text>
</g>
</g>
</svg>
