<?xml version="1.0" encoding="UTF-8" standalone="no"?>
<!DOCTYPE svg PUBLIC "-//W3C//DTD SVG 1.1//EN"
 "http://www.w3.org/Graphics/SVG/1.1/DTD/svg11.dtd">
<!-- Generated by graphviz version 2.40.1 (20161225.0304)
 -->
<!-- Title: gifts Pages: 1 -->
<svg width="1103pt" height="2369pt"
 viewBox="0.00 0.00 1102.50 2369.00" xmlns="http://www.w3.org/2000/svg" xmlns:xlink="http://www.w3.org/1999/xlink">
<g id="graph0" class="graph" transform="scale(1 1) rotate(0) translate(4 2365)">
<title>gifts</title>
<polygon fill="#ffffff" stroke="transparent" points="-4,4 -4,-2365 1098.5,-2365 1098.5,4 -4,4"/>
<!-- gifts -->
<g id="node1" class="node">
<title>gifts</title>
<polygon fill="#efefef" stroke="transparent" points="509.5,-2002.5 509.5,-2037.5 707.5,-2037.5 707.5,-2002.5 509.5,-2002.5"/>
<polygon fill="none" stroke="#000000" points="509.5,-2002.5 509.5,-2037.5 707.5,-2037.5 707.5,-2002.5 509.5,-2002.5"/>
<text text-anchor="start" x="543.3707" y="-2015.3" font-family="Arial Bold" font-size="18.00" fill="#000000">gifts</text>
<text text-anchor="start" x="576.3755" y="-2015.3" font-family="Arial" font-size="14.00" fill="#000000"> </text>
<text text-anchor="start" x="580.2661" y="-2015.3" font-family="Arial" font-size="14.00" fill="#666666">[BASE TABLE]</text>
<polygon fill="none" stroke="#000000" points="509.5,-1972.5 509.5,-2002.5 707.5,-2002.5 707.5,-1972.5 509.5,-1972.5"/>
<text text-anchor="start" x="516.5" y="-1983.9" font-family="Arial" font-size="14.00" fill="#000000">id </text>
<text text-anchor="start" x="531.2798" y="-1983.9" font-family="Arial" font-size="14.00" fill="#666666">[int(10) unsigned]</text>
<polygon fill="none" stroke="#000000" points="509.5,-1942.5 509.5,-1972.5 707.5,-1972.5 707.5,-1942.5 509.5,-1942.5"/>
<text text-anchor="start" x="516.5" y="-1953.9" font-family="Arial" font-size="14.00" fill="#000000">account_id </text>
<text text-anchor="start" x="588.0834" y="-1953.9" font-family="Arial" font-size="14.00" fill="#666666">[int(10) unsigned]</text>
<polygon fill="none" stroke="#000000" points="509.5,-1912.5 509.5,-1942.5 707.5,-1942.5 707.5,-1912.5 509.5,-1912.5"/>
<text text-anchor="start" x="516.5" y="-1923.9" font-family="Arial" font-size="14.00" fill="#000000">contact_id </text>
<text text-anchor="start" x="584.1914" y="-1923.9" font-family="Arial" font-size="14.00" fill="#666666">[int(10) unsigned]</text>
<polygon fill="none" stroke="#000000" points="509.5,-1882.5 509.5,-1912.5 707.5,-1912.5 707.5,-1882.5 509.5,-1882.5"/>
<text text-anchor="start" x="516.5" y="-1893.9" font-family="Arial" font-size="14.00" fill="#000000">is_for </text>
<text text-anchor="start" x="554.6136" y="-1893.9" font-family="Arial" font-size="14.00" fill="#666666">[int(10) unsigned]</text>
<polygon fill="none" stroke="#000000" points="509.5,-1852.5 509.5,-1882.5 707.5,-1882.5 707.5,-1852.5 509.5,-1852.5"/>
<text text-anchor="start" x="516.5" y="-1863.9" font-family="Arial" font-size="14.00" fill="#000000">name </text>
<text text-anchor="start" x="555.399" y="-1863.9" font-family="Arial" font-size="14.00" fill="#666666">[varchar(255)]</text>
<polygon fill="none" stroke="#000000" points="509.5,-1822.5 509.5,-1852.5 707.5,-1852.5 707.5,-1822.5 509.5,-1822.5"/>
<text text-anchor="start" x="516.5" y="-1833.9" font-family="Arial" font-size="14.00" fill="#000000">comment </text>
<text text-anchor="start" x="577.9502" y="-1833.9" font-family="Arial" font-size="14.00" fill="#666666">[longtext]</text>
<polygon fill="none" stroke="#000000" points="509.5,-1792.5 509.5,-1822.5 707.5,-1822.5 707.5,-1792.5 509.5,-1792.5"/>
<text text-anchor="start" x="516.5" y="-1803.9" font-family="Arial" font-size="14.00" fill="#000000">url </text>
<text text-anchor="start" x="535.9404" y="-1803.9" font-family="Arial" font-size="14.00" fill="#666666">[longtext]</text>
<polygon fill="none" stroke="#000000" points="509.5,-1762.5 509.5,-1792.5 707.5,-1792.5 707.5,-1762.5 509.5,-1762.5"/>
<text text-anchor="start" x="516.5" y="-1773.9" font-family="Arial" font-size="14.00" fill="#000000">amount </text>
<text text-anchor="start" x="567.0722" y="-1773.9" font-family="Arial" font-size="14.00" fill="#666666">[varchar(255)]</text>
<polygon fill="none" stroke="#000000" points="509.5,-1732.5 509.5,-1762.5 707.5,-1762.5 707.5,-1732.5 509.5,-1732.5"/>
<text text-anchor="start" x="516.3142" y="-1743.9" font-family="Arial" font-size="14.00" fill="#000000">currency_id </text>
<text text-anchor="start" x="592.5456" y="-1743.9" font-family="Arial" font-size="14.00" fill="#666666">[int(10) unsigned]</text>
<polygon fill="none" stroke="#000000" points="509.5,-1702.5 509.5,-1732.5 707.5,-1732.5 707.5,-1702.5 509.5,-1702.5"/>
<text text-anchor="start" x="516.5" y="-1713.9" font-family="Arial" font-size="14.00" fill="#000000">status </text>
<text text-anchor="start" x="557.737" y="-1713.9" font-family="Arial" font-size="14.00" fill="#666666">[varchar(8)]</text>
<polygon fill="none" stroke="#000000" points="509.5,-1672.5 509.5,-1702.5 707.5,-1702.5 707.5,-1672.5 509.5,-1672.5"/>
<text text-anchor="start" x="516.5" y="-1683.9" font-family="Arial" font-size="14.00" fill="#000000">date </text>
<text text-anchor="start" x="547.629" y="-1683.9" font-family="Arial" font-size="14.00" fill="#666666">[datetime]</text>
<polygon fill="none" stroke="#000000" points="509.5,-1642.5 509.5,-1672.5 707.5,-1672.5 707.5,-1642.5 509.5,-1642.5"/>
<text text-anchor="start" x="516.5" y="-1653.9" font-family="Arial" font-size="14.00" fill="#000000">created_at </text>
<text text-anchor="start" x="586.528" y="-1653.9" font-family="Arial" font-size="14.00" fill="#666666">[timestamp]</text>
<polygon fill="none" stroke="#000000" points="509.5,-1612.5 509.5,-1642.5 707.5,-1642.5 707.5,-1612.5 509.5,-1612.5"/>
<text text-anchor="start" x="516.5" y="-1623.9" font-family="Arial" font-size="14.00" fill="#000000">updated_at </text>
<text text-anchor="start" x="590.4326" y="-1623.9" font-family="Arial" font-size="14.00" fill="#666666">[timestamp]</text>
<polygon fill="none" stroke="#000000" stroke-width="3" points="508,-1611.5 508,-2039.5 709,-2039.5 709,-1611.5 508,-1611.5"/>
</g>
<!-- accounts -->
<g id="node3" class="node">
<title>accounts</title>
<polygon fill="#efefef" stroke="transparent" points="43.5,-942.5 43.5,-977.5 358.5,-977.5 358.5,-942.5 43.5,-942.5"/>
<polygon fill="none" stroke="#000000" points="43.5,-942.5 43.5,-977.5 358.5,-977.5 358.5,-942.5 43.5,-942.5"/>
<text text-anchor="start" x="116.3596" y="-955.3" font-family="Arial Bold" font-size="18.00" fill="#000000">accounts</text>
<text text-anchor="start" x="188.3866" y="-955.3" font-family="Arial" font-size="14.00" fill="#000000"> </text>
<text text-anchor="start" x="192.2772" y="-955.3" font-family="Arial" font-size="14.00" fill="#666666">[BASE TABLE]</text>
<polygon fill="none" stroke="#000000" points="43.5,-912.5 43.5,-942.5 358.5,-942.5 358.5,-912.5 43.5,-912.5"/>
<text text-anchor="start" x="50.5" y="-923.9" font-family="Arial" font-size="14.00" fill="#000000">id </text>
<text text-anchor="start" x="65.2798" y="-923.9" font-family="Arial" font-size="14.00" fill="#666666">[int(10) unsigned]</text>
<polygon fill="none" stroke="#000000" points="43.5,-882.5 43.5,-912.5 358.5,-912.5 358.5,-882.5 43.5,-882.5"/>
<text text-anchor="start" x="50.073" y="-893.9" font-family="Arial" font-size="14.00" fill="#000000">has_access_to_paid_version_for_free </text>
<text text-anchor="start" x="290.4824" y="-893.9" font-family="Arial" font-size="14.00" fill="#666666">[tinyint(1)]</text>
<polygon fill="none" stroke="#000000" points="43.5,-852.5 43.5,-882.5 358.5,-882.5 358.5,-852.5 43.5,-852.5"/>
<text text-anchor="start" x="50.5" y="-863.9" font-family="Arial" font-size="14.00" fill="#000000">api_key </text>
<text text-anchor="start" x="102.6276" y="-863.9" font-family="Arial" font-size="14.00" fill="#666666">[varchar(255)]</text>
<polygon fill="none" stroke="#000000" points="43.5,-822.5 43.5,-852.5 358.5,-852.5 358.5,-822.5 43.5,-822.5"/>
<text text-anchor="start" x="50.5" y="-833.9" font-family="Arial" font-size="14.00" fill="#000000">number_of_invitations_sent </text>
<text text-anchor="start" x="225.5504" y="-833.9" font-family="Arial" font-size="14.00" fill="#666666">[int(11)]</text>
<polygon fill="none" stroke="#000000" points="43.5,-792.5 43.5,-822.5 358.5,-822.5 358.5,-792.5 43.5,-792.5"/>
<text text-anchor="start" x="50.5" y="-803.9" font-family="Arial" font-size="14.00" fill="#000000">default_time_reminder_is_sent </text>
<text text-anchor="start" x="245.7608" y="-803.9" font-family="Arial" font-size="14.00" fill="#666666">[varchar(255)]</text>
<polygon fill="none" stroke="#000000" points="43.5,-762.5 43.5,-792.5 358.5,-792.5 358.5,-762.5 43.5,-762.5"/>
<text text-anchor="start" x="50.5" y="-773.9" font-family="Arial" font-size="14.00" fill="#000000">default_gender_id </text>
<text text-anchor="start" x="166.4368" y="-773.9" font-family="Arial" font-size="14.00" fill="#666666">[int(10) unsigned]</text>
<polygon fill="none" stroke="#000000" points="43.5,-732.5 43.5,-762.5 358.5,-762.5 358.5,-732.5 43.5,-732.5"/>
<text text-anchor="start" x="50.5" y="-743.9" font-family="Arial" font-size="14.00" fill="#000000">stripe_id </text>
<text text-anchor="start" x="107.2854" y="-743.9" font-family="Arial" font-size="14.00" fill="#666666">[varchar(255)]</text>
<polygon fill="none" stroke="#000000" points="43.5,-702.5 43.5,-732.5 358.5,-732.5 358.5,-702.5 43.5,-702.5"/>
<text text-anchor="start" x="50.5" y="-713.9" font-family="Arial" font-size="14.00" fill="#000000">card_brand </text>
<text text-anchor="start" x="125.19" y="-713.9" font-family="Arial" font-size="14.00" fill="#666666">[varchar(255)]</text>
<polygon fill="none" stroke="#000000" points="43.5,-672.5 43.5,-702.5 358.5,-702.5 358.5,-672.5 43.5,-672.5"/>
<text text-anchor="start" x="50.5" y="-683.9" font-family="Arial" font-size="14.00" fill="#000000">card_last_four </text>
<text text-anchor="start" x="143.0778" y="-683.9" font-family="Arial" font-size="14.00" fill="#666666">[varchar(4)]</text>
<polygon fill="none" stroke="#000000" points="43.5,-642.5 43.5,-672.5 358.5,-672.5 358.5,-642.5 43.5,-642.5"/>
<text text-anchor="start" x="50.5" y="-653.9" font-family="Arial" font-size="14.00" fill="#000000">trial_ends_at </text>
<text text-anchor="start" x="134.5238" y="-653.9" font-family="Arial" font-size="14.00" fill="#666666">[timestamp]</text>
<polygon fill="none" stroke="#000000" points="43.5,-612.5 43.5,-642.5 358.5,-642.5 358.5,-612.5 43.5,-612.5"/>
<text text-anchor="start" x="50.5" y="-623.9" font-family="Arial" font-size="14.00" fill="#000000">legacy_free_plan_unlimited_contacts </text>
<text text-anchor="start" x="284.6766" y="-623.9" font-family="Arial" font-size="14.00" fill="#666666">[tinyint(1)]</text>
<polygon fill="none" stroke="#000000" points="43.5,-582.5 43.5,-612.5 358.5,-612.5 358.5,-582.5 43.5,-582.5"/>
<text text-anchor="start" x="50.5" y="-593.9" font-family="Arial" font-size="14.00" fill="#000000">created_at </text>
<text text-anchor="start" x="120.528" y="-593.9" font-family="Arial" font-size="14.00" fill="#666666">[timestamp]</text>
<polygon fill="none" stroke="#000000" points="43.5,-552.5 43.5,-582.5 358.5,-582.5 358.5,-552.5 43.5,-552.5"/>
<text text-anchor="start" x="50.5" y="-563.9" font-family="Arial" font-size="14.00" fill="#000000">updated_at </text>
<text text-anchor="start" x="124.4326" y="-563.9" font-family="Arial" font-size="14.00" fill="#666666">[timestamp]</text>
</g>
<!-- gifts&#45;&gt;accounts -->
<g id="edge2" class="edge">
<title>gifts:account_id&#45;&gt;accounts:id</title>
<path fill="none" stroke="#000000" d="M499.258,-1957.2723C319.2767,-1949.0511 439.4498,-1719.8182 409.5,-1531 398.9577,-1464.5363 425.7946,-927.5 358.5,-927.5"/>
<polygon fill="#000000" stroke="#000000" points="499.5025,-1957.2776 509.3999,-1961.9989 504.5012,-1957.3888 509.5,-1957.5 509.5,-1957.5 509.5,-1957.5 504.5012,-1957.3888 509.6001,-1953.0011 499.5025,-1957.2776 499.5025,-1957.2776"/>
<text text-anchor="start" x="245.877" y="-1967.5" font-family="Arial" font-size="10.00" fill="#000000">FOREIGN KEY (account_id) REFERENCES accounts (id)</text>
</g>
<!-- contacts -->
<g id="node4" class="node">
<title>contacts</title>
<polygon fill="#efefef" stroke="transparent" points="462.5,-1452.5 462.5,-1487.5 753.5,-1487.5 753.5,-1452.5 462.5,-1452.5"/>
<polygon fill="none" stroke="#000000" points="462.5,-1452.5 462.5,-1487.5 753.5,-1487.5 753.5,-1452.5 462.5,-1452.5"/>
<text text-anchor="start" x="525.8616" y="-1465.3" font-family="Arial Bold" font-size="18.00" fill="#000000">contacts</text>
<text text-anchor="start" x="592.8846" y="-1465.3" font-family="Arial" font-size="14.00" fill="#000000"> </text>
<text text-anchor="start" x="596.7752" y="-1465.3" font-family="Arial" font-size="14.00" fill="#666666">[BASE TABLE]</text>
<polygon fill="none" stroke="#000000" points="462.5,-1422.5 462.5,-1452.5 753.5,-1452.5 753.5,-1422.5 462.5,-1422.5"/>
<text text-anchor="start" x="469.5" y="-1433.9" font-family="Arial" font-size="14.00" fill="#000000">id </text>
<text text-anchor="start" x="484.2798" y="-1433.9" font-family="Arial" font-size="14.00" fill="#666666">[int(10) unsigned]</text>
<polygon fill="none" stroke="#000000" points="462.5,-1392.5 462.5,-1422.5 753.5,-1422.5 753.5,-1392.5 462.5,-1392.5"/>
<text text-anchor="start" x="469.5" y="-1403.9" font-family="Arial" font-size="14.00" fill="#000000">account_id </text>
<text text-anchor="start" x="541.0834" y="-1403.9" font-family="Arial" font-size="14.00" fill="#666666">[int(10) unsigned]</text>
<polygon fill="none" stroke="#000000" points="462.5,-1362.5 462.5,-1392.5 753.5,-1392.5 753.5,-1362.5 462.5,-1362.5"/>
<text text-anchor="start" x="469.5" y="-1373.9" font-family="Arial" font-size="14.00" fill="#000000">address_book_id </text>
<text text-anchor="start" x="579.9838" y="-1373.9" font-family="Arial" font-size="14.00" fill="#666666">[bigint(20) unsigned]</text>
<polygon fill="none" stroke="#000000" points="462.5,-1332.5 462.5,-1362.5 753.5,-1362.5 753.5,-1332.5 462.5,-1332.5"/>
<text text-anchor="start" x="469.5" y="-1343.9" font-family="Arial" font-size="14.00" fill="#000000">first_name </text>
<text text-anchor="start" x="538.73" y="-1343.9" font-family="Arial" font-size="14.00" fill="#666666">[varchar(255)]</text>
<polygon fill="none" stroke="#000000" points="462.5,-1302.5 462.5,-1332.5 753.5,-1332.5 753.5,-1302.5 462.5,-1302.5"/>
<text text-anchor="start" x="469.5" y="-1313.9" font-family="Arial" font-size="14.00" fill="#000000">middle_name </text>
<text text-anchor="start" x="557.4032" y="-1313.9" font-family="Arial" font-size="14.00" fill="#666666">[varchar(255)]</text>
<polygon fill="none" stroke="#000000" points="462.5,-1272.5 462.5,-1302.5 753.5,-1302.5 753.5,-1272.5 462.5,-1272.5"/>
<text text-anchor="start" x="469.5" y="-1283.9" font-family="Arial" font-size="14.00" fill="#000000">last_name </text>
<text text-anchor="start" x="537.9614" y="-1283.9" font-family="Arial" font-size="14.00" fill="#666666">[varchar(255)]</text>
<polygon fill="none" stroke="#000000" points="462.5,-1242.5 462.5,-1272.5 753.5,-1272.5 753.5,-1242.5 462.5,-1242.5"/>
<text text-anchor="start" x="469.5" y="-1253.9" font-family="Arial" font-size="14.00" fill="#000000">nickname </text>
<text text-anchor="start" x="533.2882" y="-1253.9" font-family="Arial" font-size="14.00" fill="#666666">[varchar(255)]</text>
<polygon fill="none" stroke="#000000" points="462.5,-1212.5 462.5,-1242.5 753.5,-1242.5 753.5,-1212.5 462.5,-1212.5"/>
<text text-anchor="start" x="469.5" y="-1223.9" font-family="Arial" font-size="14.00" fill="#000000">gender_id </text>
<text text-anchor="start" x="535.636" y="-1223.9" font-family="Arial" font-size="14.00" fill="#666666">[int(11)]</text>
<polygon fill="none" stroke="#000000" points="462.5,-1182.5 462.5,-1212.5 753.5,-1212.5 753.5,-1182.5 462.5,-1182.5"/>
<text text-anchor="start" x="469.5" y="-1193.9" font-family="Arial" font-size="14.00" fill="#000000">description </text>
<text text-anchor="start" x="541.068" y="-1193.9" font-family="Arial" font-size="14.00" fill="#666666">[varchar(255)]</text>
<polygon fill="none" stroke="#000000" points="462.5,-1152.5 462.5,-1182.5 753.5,-1182.5 753.5,-1152.5 462.5,-1152.5"/>
<text text-anchor="start" x="469.5" y="-1163.9" font-family="Arial" font-size="14.00" fill="#000000">uuid </text>
<text text-anchor="start" x="499.845" y="-1163.9" font-family="Arial" font-size="14.00" fill="#666666">[char(36)]</text>
<polygon fill="none" stroke="#000000" points="462.5,-1122.5 462.5,-1152.5 753.5,-1152.5 753.5,-1122.5 462.5,-1122.5"/>
<text text-anchor="start" x="469.5" y="-1133.9" font-family="Arial" font-size="14.00" fill="#000000">is_starred </text>
<text text-anchor="start" x="534.8394" y="-1133.9" font-family="Arial" font-size="14.00" fill="#666666">[tinyint(1)]</text>
<polygon fill="none" stroke="#000000" points="462.5,-1092.5 462.5,-1122.5 753.5,-1122.5 753.5,-1092.5 462.5,-1092.5"/>
<text text-anchor="start" x="469.5" y="-1103.9" font-family="Arial" font-size="14.00" fill="#000000">is_partial </text>
<text text-anchor="start" x="529.392" y="-1103.9" font-family="Arial" font-size="14.00" fill="#666666">[tinyint(1)]</text>
<polygon fill="none" stroke="#000000" points="462.5,-1062.5 462.5,-1092.5 753.5,-1092.5 753.5,-1062.5 462.5,-1062.5"/>
<text text-anchor="start" x="469.5" y="-1073.9" font-family="Arial" font-size="14.00" fill="#000000">is_active </text>
<text text-anchor="start" x="527.8422" y="-1073.9" font-family="Arial" font-size="14.00" fill="#666666">[tinyint(1)]</text>
<polygon fill="none" stroke="#000000" points="462.5,-1032.5 462.5,-1062.5 753.5,-1062.5 753.5,-1032.5 462.5,-1032.5"/>
<text text-anchor="start" x="469.5" y="-1043.9" font-family="Arial" font-size="14.00" fill="#000000">is_dead </text>
<text text-anchor="start" x="522.4102" y="-1043.9" font-family="Arial" font-size="14.00" fill="#666666">[tinyint(1)]</text>
<polygon fill="none" stroke="#000000" points="462.5,-1002.5 462.5,-1032.5 753.5,-1032.5 753.5,-1002.5 462.5,-1002.5"/>
<text text-anchor="start" x="469.1186" y="-1013.9" font-family="Arial" font-size="14.00" fill="#000000">deceased_special_date_id </text>
<text text-anchor="start" x="638.7412" y="-1013.9" font-family="Arial" font-size="14.00" fill="#666666">[int(10) unsigned]</text>
<polygon fill="none" stroke="#000000" points="462.5,-972.5 462.5,-1002.5 753.5,-1002.5 753.5,-972.5 462.5,-972.5"/>
<text text-anchor="start" x="469.5" y="-983.9" font-family="Arial" font-size="14.00" fill="#000000">deceased_reminder_id </text>
<text text-anchor="start" x="615.7594" y="-983.9" font-family="Arial" font-size="14.00" fill="#666666">[int(10) unsigned]</text>
<polygon fill="none" stroke="#000000" points="462.5,-942.5 462.5,-972.5 753.5,-972.5 753.5,-942.5 462.5,-942.5"/>
<text text-anchor="start" x="469.5" y="-953.9" font-family="Arial" font-size="14.00" fill="#000000">last_talked_to </text>
<text text-anchor="start" x="559.7538" y="-953.9" font-family="Arial" font-size="14.00" fill="#666666">[date]</text>
<polygon fill="none" stroke="#000000" points="462.5,-912.5 462.5,-942.5 753.5,-942.5 753.5,-912.5 462.5,-912.5"/>
<text text-anchor="start" x="469.5" y="-923.9" font-family="Arial" font-size="14.00" fill="#000000">stay_in_touch_frequency </text>
<text text-anchor="start" x="629.0034" y="-923.9" font-family="Arial" font-size="14.00" fill="#666666">[int(11)]</text>
<polygon fill="none" stroke="#000000" points="462.5,-882.5 462.5,-912.5 753.5,-912.5 753.5,-882.5 462.5,-882.5"/>
<text text-anchor="start" x="469.5" y="-893.9" font-family="Arial" font-size="14.00" fill="#000000">stay_in_touch_trigger_date </text>
<text text-anchor="start" x="642.2264" y="-893.9" font-family="Arial" font-size="14.00" fill="#666666">[datetime]</text>
<polygon fill="none" stroke="#000000" points="462.5,-852.5 462.5,-882.5 753.5,-882.5 753.5,-852.5 462.5,-852.5"/>
<text text-anchor="start" x="469.5" y="-863.9" font-family="Arial" font-size="14.00" fill="#000000">birthday_special_date_id </text>
<text text-anchor="start" x="628.2152" y="-863.9" font-family="Arial" font-size="14.00" fill="#666666">[int(10) unsigned]</text>
<polygon fill="none" stroke="#000000" points="462.5,-822.5 462.5,-852.5 753.5,-852.5 753.5,-822.5 462.5,-822.5"/>
<text text-anchor="start" x="469.5" y="-833.9" font-family="Arial" font-size="14.00" fill="#000000">birthday_reminder_id </text>
<text text-anchor="start" x="604.852" y="-833.9" font-family="Arial" font-size="14.00" fill="#666666">[int(10) unsigned]</text>
<polygon fill="none" stroke="#000000" points="462.5,-792.5 462.5,-822.5 753.5,-822.5 753.5,-792.5 462.5,-792.5"/>
<text text-anchor="start" x="469.5" y="-803.9" font-family="Arial" font-size="14.00" fill="#000000">first_met_through_contact_id </text>
<text text-anchor="start" x="653.8856" y="-803.9" font-family="Arial" font-size="14.00" fill="#666666">[int(11)]</text>
<polygon fill="none" stroke="#000000" points="462.5,-762.5 462.5,-792.5 753.5,-792.5 753.5,-762.5 462.5,-762.5"/>
<text text-anchor="start" x="469.5" y="-773.9" font-family="Arial" font-size="14.00" fill="#000000">first_met_special_date_id </text>
<text text-anchor="start" x="632.0918" y="-773.9" font-family="Arial" font-size="14.00" fill="#666666">[int(10) unsigned]</text>
<polygon fill="none" stroke="#000000" points="462.5,-732.5 462.5,-762.5 753.5,-762.5 753.5,-732.5 462.5,-732.5"/>
<text text-anchor="start" x="469.5" y="-743.9" font-family="Arial" font-size="14.00" fill="#000000">first_met_reminder_id </text>
<text text-anchor="start" x="608.7286" y="-743.9" font-family="Arial" font-size="14.00" fill="#666666">[int(10) unsigned]</text>
<polygon fill="none" stroke="#000000" points="462.5,-702.5 462.5,-732.5 753.5,-732.5 753.5,-702.5 462.5,-702.5"/>
<text text-anchor="start" x="469.5" y="-713.9" font-family="Arial" font-size="14.00" fill="#000000">first_met_where </text>
<text text-anchor="start" x="572.953" y="-713.9" font-family="Arial" font-size="14.00" fill="#666666">[varchar(255)]</text>
<polygon fill="none" stroke="#000000" points="462.5,-672.5 462.5,-702.5 753.5,-702.5 753.5,-672.5 462.5,-672.5"/>
<text text-anchor="start" x="469.5" y="-683.9" font-family="Arial" font-size="14.00" fill="#000000">first_met_additional_info </text>
<text text-anchor="start" x="625.089" y="-683.9" font-family="Arial" font-size="14.00" fill="#666666">[longtext]</text>
<polygon fill="none" stroke="#000000" points="462.5,-642.5 462.5,-672.5 753.5,-672.5 753.5,-642.5 462.5,-642.5"/>
<text text-anchor="start" x="469.5" y="-653.9" font-family="Arial" font-size="14.00" fill="#000000">job </text>
<text text-anchor="start" x="492.0624" y="-653.9" font-family="Arial" font-size="14.00" fill="#666666">[varchar(255)]</text>
<polygon fill="none" stroke="#000000" points="462.5,-612.5 462.5,-642.5 753.5,-642.5 753.5,-612.5 462.5,-612.5"/>
<text text-anchor="start" x="469.5" y="-623.9" font-family="Arial" font-size="14.00" fill="#000000">company </text>
<text text-anchor="start" x="530.1816" y="-623.9" font-family="Arial" font-size="14.00" fill="#666666">[varchar(255)]</text>
<polygon fill="none" stroke="#000000" points="462.5,-582.5 462.5,-612.5 753.5,-612.5 753.5,-582.5 462.5,-582.5"/>
<text text-anchor="start" x="469.5" y="-593.9" font-family="Arial" font-size="14.00" fill="#000000">food_preferences </text>
<text text-anchor="start" x="582.319" y="-593.9" font-family="Arial" font-size="14.00" fill="#666666">[longtext]</text>
<polygon fill="none" stroke="#000000" points="462.5,-552.5 462.5,-582.5 753.5,-582.5 753.5,-552.5 462.5,-552.5"/>
<text text-anchor="start" x="469.5" y="-563.9" font-family="Arial" font-size="14.00" fill="#000000">avatar_source </text>
<text text-anchor="start" x="562.0806" y="-563.9" font-family="Arial" font-size="14.00" fill="#666666">[varchar(255)]</text>
<polygon fill="none" stroke="#000000" points="462.5,-522.5 462.5,-552.5 753.5,-552.5 753.5,-522.5 462.5,-522.5"/>
<text text-anchor="start" x="469.5" y="-533.9" font-family="Arial" font-size="14.00" fill="#000000">avatar_gravatar_url </text>
<text text-anchor="start" x="594.7468" y="-533.9" font-family="Arial" font-size="14.00" fill="#666666">[varchar(250)]</text>
<polygon fill="none" stroke="#000000" points="462.5,-492.5 462.5,-522.5 753.5,-522.5 753.5,-492.5 462.5,-492.5"/>
<text text-anchor="start" x="469.5" y="-503.9" font-family="Arial" font-size="14.00" fill="#000000">avatar_adorable_uuid </text>
<text text-anchor="start" x="608.772" y="-503.9" font-family="Arial" font-size="14.00" fill="#666666">[char(36)]</text>
<polygon fill="none" stroke="#000000" points="462.5,-462.5 462.5,-492.5 753.5,-492.5 753.5,-462.5 462.5,-462.5"/>
<text text-anchor="start" x="469.5" y="-473.9" font-family="Arial" font-size="14.00" fill="#000000">avatar_adorable_url </text>
<text text-anchor="start" x="597.8674" y="-473.9" font-family="Arial" font-size="14.00" fill="#666666">[varchar(250)]</text>
<polygon fill="none" stroke="#000000" points="462.5,-432.5 462.5,-462.5 753.5,-462.5 753.5,-432.5 462.5,-432.5"/>
<text text-anchor="start" x="469.5" y="-443.9" font-family="Arial" font-size="14.00" fill="#000000">avatar_default_url </text>
<text text-anchor="start" x="585.4228" y="-443.9" font-family="Arial" font-size="14.00" fill="#666666">[varchar(250)]</text>
<polygon fill="none" stroke="#000000" points="462.5,-402.5 462.5,-432.5 753.5,-432.5 753.5,-402.5 462.5,-402.5"/>
<text text-anchor="start" x="469.5" y="-413.9" font-family="Arial" font-size="14.00" fill="#000000">avatar_photo_id </text>
<text text-anchor="start" x="573.765" y="-413.9" font-family="Arial" font-size="14.00" fill="#666666">[int(10) unsigned]</text>
<polygon fill="none" stroke="#000000" points="462.5,-372.5 462.5,-402.5 753.5,-402.5 753.5,-372.5 462.5,-372.5"/>
<text text-anchor="start" x="469.5" y="-383.9" font-family="Arial" font-size="14.00" fill="#000000">has_avatar </text>
<text text-anchor="start" x="542.6374" y="-383.9" font-family="Arial" font-size="14.00" fill="#666666">[tinyint(1)]</text>
<polygon fill="none" stroke="#000000" points="462.5,-342.5 462.5,-372.5 753.5,-372.5 753.5,-342.5 462.5,-342.5"/>
<text text-anchor="start" x="469.5" y="-353.9" font-family="Arial" font-size="14.00" fill="#000000">avatar_external_url </text>
<text text-anchor="start" x="593.1928" y="-353.9" font-family="Arial" font-size="14.00" fill="#666666">[varchar(400)]</text>
<polygon fill="none" stroke="#000000" points="462.5,-312.5 462.5,-342.5 753.5,-342.5 753.5,-312.5 462.5,-312.5"/>
<text text-anchor="start" x="469.5" y="-323.9" font-family="Arial" font-size="14.00" fill="#000000">avatar_file_name </text>
<text text-anchor="start" x="580.7496" y="-323.9" font-family="Arial" font-size="14.00" fill="#666666">[varchar(255)]</text>
<polygon fill="none" stroke="#000000" points="462.5,-282.5 462.5,-312.5 753.5,-312.5 753.5,-282.5 462.5,-282.5"/>
<text text-anchor="start" x="469.5" y="-293.9" font-family="Arial" font-size="14.00" fill="#000000">avatar_location </text>
<text text-anchor="start" x="568.3064" y="-293.9" font-family="Arial" font-size="14.00" fill="#666666">[varchar(255)]</text>
<polygon fill="none" stroke="#000000" points="462.5,-252.5 462.5,-282.5 753.5,-282.5 753.5,-252.5 462.5,-252.5"/>
<text text-anchor="start" x="469.5" y="-263.9" font-family="Arial" font-size="14.00" fill="#000000">gravatar_url </text>
<text text-anchor="start" x="548.0652" y="-263.9" font-family="Arial" font-size="14.00" fill="#666666">[varchar(255)]</text>
<polygon fill="none" stroke="#000000" points="462.5,-222.5 462.5,-252.5 753.5,-252.5 753.5,-222.5 462.5,-222.5"/>
<text text-anchor="start" x="469.5" y="-233.9" font-family="Arial" font-size="14.00" fill="#000000">vcard </text>
<text text-anchor="start" x="507.6164" y="-233.9" font-family="Arial" font-size="14.00" fill="#666666">[mediumtext]</text>
<polygon fill="none" stroke="#000000" points="462.5,-192.5 462.5,-222.5 753.5,-222.5 753.5,-192.5 462.5,-192.5"/>
<text text-anchor="start" x="469.5" y="-203.9" font-family="Arial" font-size="14.00" fill="#000000">last_consulted_at </text>
<text text-anchor="start" x="582.319" y="-203.9" font-family="Arial" font-size="14.00" fill="#666666">[timestamp]</text>
<polygon fill="none" stroke="#000000" points="462.5,-162.5 462.5,-192.5 753.5,-192.5 753.5,-162.5 462.5,-162.5"/>
<text text-anchor="start" x="469.5" y="-173.9" font-family="Arial" font-size="14.00" fill="#000000">number_of_views </text>
<text text-anchor="start" x="583.0764" y="-173.9" font-family="Arial" font-size="14.00" fill="#666666">[int(11)]</text>
<polygon fill="none" stroke="#000000" points="462.5,-132.5 462.5,-162.5 753.5,-162.5 753.5,-132.5 462.5,-132.5"/>
<text text-anchor="start" x="469.5" y="-143.9" font-family="Arial" font-size="14.00" fill="#000000">created_at </text>
<text text-anchor="start" x="539.528" y="-143.9" font-family="Arial" font-size="14.00" fill="#666666">[timestamp]</text>
<polygon fill="none" stroke="#000000" points="462.5,-102.5 462.5,-132.5 753.5,-132.5 753.5,-102.5 462.5,-102.5"/>
<text text-anchor="start" x="469.5" y="-113.9" font-family="Arial" font-size="14.00" fill="#000000">updated_at </text>
<text text-anchor="start" x="543.4326" y="-113.9" font-family="Arial" font-size="14.00" fill="#666666">[timestamp]</text>
<polygon fill="none" stroke="#000000" points="462.5,-72.5 462.5,-102.5 753.5,-102.5 753.5,-72.5 462.5,-72.5"/>
<text text-anchor="start" x="469.5" y="-83.9" font-family="Arial" font-size="14.00" fill="#000000">default_avatar_color </text>
<text text-anchor="start" x="600.2054" y="-83.9" font-family="Arial" font-size="14.00" fill="#666666">[varchar(255)]</text>
<polygon fill="none" stroke="#000000" points="462.5,-42.5 462.5,-72.5 753.5,-72.5 753.5,-42.5 462.5,-42.5"/>
<text text-anchor="start" x="469.5" y="-53.9" font-family="Arial" font-size="14.00" fill="#000000">has_avatar_bool </text>
<text text-anchor="start" x="576.8744" y="-53.9" font-family="Arial" font-size="14.00" fill="#666666">[tinyint(1)]</text>
</g>
<!-- gifts&#45;&gt;contacts -->
<g id="edge3" class="edge">
<title>gifts:contact_id&#45;&gt;contacts:id</title>
<path fill="none" stroke="#000000" d="M499.4703,-1927.1723C351.6862,-1917.2755 407.0494,-1685.6753 509.5,-1567 581.1321,-1484.0238 681.8679,-1613.9762 753.5,-1531 780.6552,-1499.5443 795.0556,-1437.5 753.5,-1437.5"/>
<polygon fill="#000000" stroke="#000000" points="499.5053,-1927.1733 509.353,-1931.9976 504.5027,-1927.3367 509.5,-1927.5 509.5,-1927.5 509.5,-1927.5 504.5027,-1927.3367 509.647,-1923.0024 499.5053,-1927.1733 499.5053,-1927.1733"/>
<text text-anchor="start" x="251.657" y="-1937.5" font-family="Arial" font-size="10.00" fill="#000000">FOREIGN KEY (contact_id) REFERENCES contacts (id)</text>
</g>
<!-- gifts&#45;&gt;contacts -->
<g id="edge4" class="edge">
<title>gifts:is_for&#45;&gt;contacts:id</title>
<path fill="none" stroke="#000000" d="M499.4959,-1897.1428C365.0219,-1887.2792 415.7626,-1675.5823 509.5,-1567 581.1321,-1484.0238 681.8679,-1613.9762 753.5,-1531 780.6552,-1499.5443 795.0556,-1437.5 753.5,-1437.5"/>
<polygon fill="#000000" stroke="#000000" points="499.5064,-1897.1431 509.3394,-1901.9971 504.5032,-1897.3215 509.5,-1897.5 509.5,-1897.5 509.5,-1897.5 504.5032,-1897.3215 509.6606,-1893.0029 499.5064,-1897.1431 499.5064,-1897.1431"/>
<text text-anchor="start" x="272.2205" y="-1907.5" font-family="Arial" font-size="10.00" fill="#000000">FOREIGN KEY (is_for) REFERENCES contacts (id)</text>
</g>
<!-- currencies -->
<g id="node5" class="node">
<title>currencies</title>
<polygon fill="#efefef" stroke="transparent" points="857.5,-837.5 857.5,-872.5 1051.5,-872.5 1051.5,-837.5 857.5,-837.5"/>
<polygon fill="none" stroke="#000000" points="857.5,-837.5 857.5,-872.5 1051.5,-872.5 1051.5,-837.5 857.5,-837.5"/>
<text text-anchor="start" x="864.3714" y="-850.3" font-family="Arial Bold" font-size="18.00" fill="#000000">currencies</text>
<text text-anchor="start" x="947.3748" y="-850.3" font-family="Arial" font-size="14.00" fill="#000000"> </text>
<text text-anchor="start" x="951.2654" y="-850.3" font-family="Arial" font-size="14.00" fill="#666666">[BASE TABLE]</text>
<polygon fill="none" stroke="#000000" points="857.5,-807.5 857.5,-837.5 1051.5,-837.5 1051.5,-807.5 857.5,-807.5"/>
<text text-anchor="start" x="864.5" y="-818.9" font-family="Arial" font-size="14.00" fill="#000000">id </text>
<text text-anchor="start" x="879.2798" y="-818.9" font-family="Arial" font-size="14.00" fill="#666666">[int(10) unsigned]</text>
<polygon fill="none" stroke="#000000" points="857.5,-777.5 857.5,-807.5 1051.5,-807.5 1051.5,-777.5 857.5,-777.5"/>
<text text-anchor="start" x="864.5" y="-788.9" font-family="Arial" font-size="14.00" fill="#000000">iso </text>
<text text-anchor="start" x="886.2798" y="-788.9" font-family="Arial" font-size="14.00" fill="#666666">[varchar(255)]</text>
<polygon fill="none" stroke="#000000" points="857.5,-747.5 857.5,-777.5 1051.5,-777.5 1051.5,-747.5 857.5,-747.5"/>
<text text-anchor="start" x="864.5" y="-758.9" font-family="Arial" font-size="14.00" fill="#000000">name </text>
<text text-anchor="start" x="903.399" y="-758.9" font-family="Arial" font-size="14.00" fill="#666666">[varchar(255)]</text>
<polygon fill="none" stroke="#000000" points="857.5,-717.5 857.5,-747.5 1051.5,-747.5 1051.5,-717.5 857.5,-717.5"/>
<text text-anchor="start" x="864.5" y="-728.9" font-family="Arial" font-size="14.00" fill="#000000">symbol </text>
<text text-anchor="start" x="912.723" y="-728.9" font-family="Arial" font-size="14.00" fill="#666666">[varchar(255)]</text>
<polygon fill="none" stroke="#000000" points="857.5,-687.5 857.5,-717.5 1051.5,-717.5 1051.5,-687.5 857.5,-687.5"/>
<text text-anchor="start" x="864.5" y="-698.9" font-family="Arial" font-size="14.00" fill="#000000">created_at </text>
<text text-anchor="start" x="934.528" y="-698.9" font-family="Arial" font-size="14.00" fill="#666666">[timestamp]</text>
<polygon fill="none" stroke="#000000" points="857.5,-657.5 857.5,-687.5 1051.5,-687.5 1051.5,-657.5 857.5,-657.5"/>
<text text-anchor="start" x="864.5" y="-668.9" font-family="Arial" font-size="14.00" fill="#000000">updated_at </text>
<text text-anchor="start" x="938.4326" y="-668.9" font-family="Arial" font-size="14.00" fill="#666666">[timestamp]</text>
</g>
<!-- gifts&#45;&gt;currencies -->
<g id="edge5" class="edge">
<title>gifts:currency_id&#45;&gt;currencies:id</title>
<path fill="none" stroke="#000000" d="M717.5675,-1747.1271C810.9512,-1739.9333 780.3195,-1629.9607 805.5,-1531 824.9645,-1454.5036 778.566,-822.5 857.5,-822.5"/>
<polygon fill="#000000" stroke="#000000" points="717.4931,-1747.1298 707.3334,-1743.0031 712.4966,-1747.3149 707.5,-1747.5 707.5,-1747.5 707.5,-1747.5 712.4966,-1747.3149 707.6666,-1751.9969 717.4931,-1747.1298 717.4931,-1747.1298"/>
<text text-anchor="start" x="714.168" y="-1757.5" font-family="Arial" font-size="10.00" fill="#000000">FOREIGN KEY (currency_id) REFERENCES currencies (id)</text>
</g>
<!-- gift_photo -->
<g id="node2" class="node">
<title>gift_photo</title>
<polygon fill="#efefef" stroke="transparent" points="513.5,-2282.5 513.5,-2317.5 703.5,-2317.5 703.5,-2282.5 513.5,-2282.5"/>
<polygon fill="none" stroke="#000000" points="513.5,-2282.5 513.5,-2317.5 703.5,-2317.5 703.5,-2282.5 513.5,-2282.5"/>
<text text-anchor="start" x="520.3541" y="-2295.3" font-family="Arial Bold" font-size="18.00" fill="#000000">gift_photo</text>
<text text-anchor="start" x="599.3921" y="-2295.3" font-family="Arial" font-size="14.00" fill="#000000"> </text>
<text text-anchor="start" x="603.2827" y="-2295.3" font-family="Arial" font-size="14.00" fill="#666666">[BASE TABLE]</text>
<polygon fill="none" stroke="#000000" points="513.5,-2252.5 513.5,-2282.5 703.5,-2282.5 703.5,-2252.5 513.5,-2252.5"/>
<text text-anchor="start" x="520.5" y="-2263.9" font-family="Arial" font-size="14.00" fill="#000000">photo_id </text>
<text text-anchor="start" x="578.0834" y="-2263.9" font-family="Arial" font-size="14.00" fill="#666666">[int(10) unsigned]</text>
<polygon fill="none" stroke="#000000" points="513.5,-2222.5 513.5,-2252.5 703.5,-2252.5 703.5,-2222.5 513.5,-2222.5"/>
<text text-anchor="start" x="520.5" y="-2233.9" font-family="Arial" font-size="14.00" fill="#000000">gift_id </text>
<text text-anchor="start" x="561.7328" y="-2233.9" font-family="Arial" font-size="14.00" fill="#666666">[int(10) unsigned]</text>
<polygon fill="none" stroke="#000000" points="513.5,-2192.5 513.5,-2222.5 703.5,-2222.5 703.5,-2192.5 513.5,-2192.5"/>
<text text-anchor="start" x="520.5" y="-2203.9" font-family="Arial" font-size="14.00" fill="#000000">created_at </text>
<text text-anchor="start" x="590.528" y="-2203.9" font-family="Arial" font-size="14.00" fill="#666666">[timestamp]</text>
<polygon fill="none" stroke="#000000" points="513.5,-2162.5 513.5,-2192.5 703.5,-2192.5 703.5,-2162.5 513.5,-2162.5"/>
<text text-anchor="start" x="520.5" y="-2173.9" font-family="Arial" font-size="14.00" fill="#000000">updated_at </text>
<text text-anchor="start" x="594.4326" y="-2173.9" font-family="Arial" font-size="14.00" fill="#666666">[timestamp]</text>
</g>
<!-- gift_photo&#45;&gt;gifts -->
<g id="edge1" class="edge">
<title>gift_photo:gift_id&#45;&gt;gifts:id</title>
<path fill="none" stroke="#000000" d="M713.6039,-2236.7828C814.7629,-2222.1191 815.1527,-1987.5 707.5,-1987.5"/>
<polygon fill="#000000" stroke="#000000" points="713.4749,-2236.7919 703.1814,-2233.0113 708.4875,-2237.146 703.5,-2237.5 703.5,-2237.5 703.5,-2237.5 708.4875,-2237.146 703.8186,-2241.9887 713.4749,-2236.7919 713.4749,-2236.7919"/>
<text text-anchor="start" x="710.556" y="-2247.5" font-family="Arial" font-size="10.00" fill="#000000">FOREIGN KEY (gift_id) REFERENCES gifts (id)</text>
</g>
</g>
</svg>
