<?xml version="1.0" encoding="UTF-8" standalone="no"?>
<!DOCTYPE svg PUBLIC "-//W3C//DTD SVG 1.1//EN"
 "http://www.w3.org/Graphics/SVG/1.1/DTD/svg11.dtd">
<!-- Generated by graphviz version 2.40.1 (20161225.0304)
 -->
<!-- Title: import_job_reports Pages: 1 -->
<svg width="1125pt" height="1342pt"
 viewBox="0.00 0.00 1124.50 1342.00" xmlns="http://www.w3.org/2000/svg" xmlns:xlink="http://www.w3.org/1999/xlink">
<g id="graph0" class="graph" transform="scale(1 1) rotate(0) translate(4 1338)">
<title>import_job_reports</title>
<polygon fill="#ffffff" stroke="transparent" points="-4,4 -4,-1338 1120.5,-1338 1120.5,4 -4,4"/>
<!-- import_job_reports -->
<g id="node1" class="node">
<title>import_job_reports</title>
<polygon fill="#efefef" stroke="transparent" points="483.5,-1252.5 483.5,-1287.5 744.5,-1287.5 744.5,-1252.5 483.5,-1252.5"/>
<polygon fill="none" stroke="#000000" points="483.5,-1252.5 483.5,-1287.5 744.5,-1287.5 744.5,-1252.5 483.5,-1252.5"/>
<text text-anchor="start" x="490.3644" y="-1265.3" font-family="Arial Bold" font-size="18.00" fill="#000000">import_job_reports</text>
<text text-anchor="start" x="640.3818" y="-1265.3" font-family="Arial" font-size="14.00" fill="#000000"> </text>
<text text-anchor="start" x="644.2724" y="-1265.3" font-family="Arial" font-size="14.00" fill="#666666">[BASE TABLE]</text>
<polygon fill="none" stroke="#000000" points="483.5,-1222.5 483.5,-1252.5 744.5,-1252.5 744.5,-1222.5 483.5,-1222.5"/>
<text text-anchor="start" x="490.5" y="-1233.9" font-family="Arial" font-size="14.00" fill="#000000">id </text>
<text text-anchor="start" x="505.2798" y="-1233.9" font-family="Arial" font-size="14.00" fill="#666666">[int(10) unsigned]</text>
<polygon fill="none" stroke="#000000" points="483.5,-1192.5 483.5,-1222.5 744.5,-1222.5 744.5,-1192.5 483.5,-1192.5"/>
<text text-anchor="start" x="490.5" y="-1203.9" font-family="Arial" font-size="14.00" fill="#000000">account_id </text>
<text text-anchor="start" x="562.0834" y="-1203.9" font-family="Arial" font-size="14.00" fill="#666666">[int(10) unsigned]</text>
<polygon fill="none" stroke="#000000" points="483.5,-1162.5 483.5,-1192.5 744.5,-1192.5 744.5,-1162.5 483.5,-1162.5"/>
<text text-anchor="start" x="490.5" y="-1173.9" font-family="Arial" font-size="14.00" fill="#000000">user_id </text>
<text text-anchor="start" x="540.2882" y="-1173.9" font-family="Arial" font-size="14.00" fill="#666666">[int(10) unsigned]</text>
<polygon fill="none" stroke="#000000" points="483.5,-1132.5 483.5,-1162.5 744.5,-1162.5 744.5,-1132.5 483.5,-1132.5"/>
<text text-anchor="start" x="490.5" y="-1143.9" font-family="Arial" font-size="14.00" fill="#000000">import_job_id </text>
<text text-anchor="start" x="578.4004" y="-1143.9" font-family="Arial" font-size="14.00" fill="#666666">[int(10) unsigned]</text>
<polygon fill="none" stroke="#000000" points="483.5,-1102.5 483.5,-1132.5 744.5,-1132.5 744.5,-1102.5 483.5,-1102.5"/>
<text text-anchor="start" x="490.5" y="-1113.9" font-family="Arial" font-size="14.00" fill="#000000">contact_information </text>
<text text-anchor="start" x="616.5308" y="-1113.9" font-family="Arial" font-size="14.00" fill="#666666">[mediumtext]</text>
<polygon fill="none" stroke="#000000" points="483.5,-1072.5 483.5,-1102.5 744.5,-1102.5 744.5,-1072.5 483.5,-1072.5"/>
<text text-anchor="start" x="490.5" y="-1083.9" font-family="Arial" font-size="14.00" fill="#000000">skipped </text>
<text text-anchor="start" x="542.6276" y="-1083.9" font-family="Arial" font-size="14.00" fill="#666666">[tinyint(1)]</text>
<polygon fill="none" stroke="#000000" points="483.5,-1042.5 483.5,-1072.5 744.5,-1072.5 744.5,-1042.5 483.5,-1042.5"/>
<text text-anchor="start" x="490.5" y="-1053.9" font-family="Arial" font-size="14.00" fill="#000000">skip_reason </text>
<text text-anchor="start" x="569.8534" y="-1053.9" font-family="Arial" font-size="14.00" fill="#666666">[varchar(255)]</text>
<polygon fill="none" stroke="#000000" points="483.5,-1012.5 483.5,-1042.5 744.5,-1042.5 744.5,-1012.5 483.5,-1012.5"/>
<text text-anchor="start" x="490.5" y="-1023.9" font-family="Arial" font-size="14.00" fill="#000000">created_at </text>
<text text-anchor="start" x="560.528" y="-1023.9" font-family="Arial" font-size="14.00" fill="#666666">[timestamp]</text>
<polygon fill="none" stroke="#000000" points="483.5,-982.5 483.5,-1012.5 744.5,-1012.5 744.5,-982.5 483.5,-982.5"/>
<text text-anchor="start" x="490.5" y="-993.9" font-family="Arial" font-size="14.00" fill="#000000">updated_at </text>
<text text-anchor="start" x="564.4326" y="-993.9" font-family="Arial" font-size="14.00" fill="#666666">[timestamp]</text>
<polygon fill="none" stroke="#000000" stroke-width="3" points="481.5,-981.5 481.5,-1289.5 745.5,-1289.5 745.5,-981.5 481.5,-981.5"/>
</g>
<!-- accounts -->
<g id="node2" class="node">
<title>accounts</title>
<polygon fill="#efefef" stroke="transparent" points="43.5,-627.5 43.5,-662.5 358.5,-662.5 358.5,-627.5 43.5,-627.5"/>
<polygon fill="none" stroke="#000000" points="43.5,-627.5 43.5,-662.5 358.5,-662.5 358.5,-627.5 43.5,-627.5"/>
<text text-anchor="start" x="116.3596" y="-640.3" font-family="Arial Bold" font-size="18.00" fill="#000000">accounts</text>
<text text-anchor="start" x="188.3866" y="-640.3" font-family="Arial" font-size="14.00" fill="#000000"> </text>
<text text-anchor="start" x="192.2772" y="-640.3" font-family="Arial" font-size="14.00" fill="#666666">[BASE TABLE]</text>
<polygon fill="none" stroke="#000000" points="43.5,-597.5 43.5,-627.5 358.5,-627.5 358.5,-597.5 43.5,-597.5"/>
<text text-anchor="start" x="50.5" y="-608.9" font-family="Arial" font-size="14.00" fill="#000000">id </text>
<text text-anchor="start" x="65.2798" y="-608.9" font-family="Arial" font-size="14.00" fill="#666666">[int(10) unsigned]</text>
<polygon fill="none" stroke="#000000" points="43.5,-567.5 43.5,-597.5 358.5,-597.5 358.5,-567.5 43.5,-567.5"/>
<text text-anchor="start" x="50.073" y="-578.9" font-family="Arial" font-size="14.00" fill="#000000">has_access_to_paid_version_for_free </text>
<text text-anchor="start" x="290.4824" y="-578.9" font-family="Arial" font-size="14.00" fill="#666666">[tinyint(1)]</text>
<polygon fill="none" stroke="#000000" points="43.5,-537.5 43.5,-567.5 358.5,-567.5 358.5,-537.5 43.5,-537.5"/>
<text text-anchor="start" x="50.5" y="-548.9" font-family="Arial" font-size="14.00" fill="#000000">api_key </text>
<text text-anchor="start" x="102.6276" y="-548.9" font-family="Arial" font-size="14.00" fill="#666666">[varchar(255)]</text>
<polygon fill="none" stroke="#000000" points="43.5,-507.5 43.5,-537.5 358.5,-537.5 358.5,-507.5 43.5,-507.5"/>
<text text-anchor="start" x="50.5" y="-518.9" font-family="Arial" font-size="14.00" fill="#000000">number_of_invitations_sent </text>
<text text-anchor="start" x="225.5504" y="-518.9" font-family="Arial" font-size="14.00" fill="#666666">[int(11)]</text>
<polygon fill="none" stroke="#000000" points="43.5,-477.5 43.5,-507.5 358.5,-507.5 358.5,-477.5 43.5,-477.5"/>
<text text-anchor="start" x="50.5" y="-488.9" font-family="Arial" font-size="14.00" fill="#000000">default_time_reminder_is_sent </text>
<text text-anchor="start" x="245.7608" y="-488.9" font-family="Arial" font-size="14.00" fill="#666666">[varchar(255)]</text>
<polygon fill="none" stroke="#000000" points="43.5,-447.5 43.5,-477.5 358.5,-477.5 358.5,-447.5 43.5,-447.5"/>
<text text-anchor="start" x="50.5" y="-458.9" font-family="Arial" font-size="14.00" fill="#000000">default_gender_id </text>
<text text-anchor="start" x="166.4368" y="-458.9" font-family="Arial" font-size="14.00" fill="#666666">[int(10) unsigned]</text>
<polygon fill="none" stroke="#000000" points="43.5,-417.5 43.5,-447.5 358.5,-447.5 358.5,-417.5 43.5,-417.5"/>
<text text-anchor="start" x="50.5" y="-428.9" font-family="Arial" font-size="14.00" fill="#000000">stripe_id </text>
<text text-anchor="start" x="107.2854" y="-428.9" font-family="Arial" font-size="14.00" fill="#666666">[varchar(255)]</text>
<polygon fill="none" stroke="#000000" points="43.5,-387.5 43.5,-417.5 358.5,-417.5 358.5,-387.5 43.5,-387.5"/>
<text text-anchor="start" x="50.5" y="-398.9" font-family="Arial" font-size="14.00" fill="#000000">card_brand </text>
<text text-anchor="start" x="125.19" y="-398.9" font-family="Arial" font-size="14.00" fill="#666666">[varchar(255)]</text>
<polygon fill="none" stroke="#000000" points="43.5,-357.5 43.5,-387.5 358.5,-387.5 358.5,-357.5 43.5,-357.5"/>
<text text-anchor="start" x="50.5" y="-368.9" font-family="Arial" font-size="14.00" fill="#000000">card_last_four </text>
<text text-anchor="start" x="143.0778" y="-368.9" font-family="Arial" font-size="14.00" fill="#666666">[varchar(4)]</text>
<polygon fill="none" stroke="#000000" points="43.5,-327.5 43.5,-357.5 358.5,-357.5 358.5,-327.5 43.5,-327.5"/>
<text text-anchor="start" x="50.5" y="-338.9" font-family="Arial" font-size="14.00" fill="#000000">trial_ends_at </text>
<text text-anchor="start" x="134.5238" y="-338.9" font-family="Arial" font-size="14.00" fill="#666666">[timestamp]</text>
<polygon fill="none" stroke="#000000" points="43.5,-297.5 43.5,-327.5 358.5,-327.5 358.5,-297.5 43.5,-297.5"/>
<text text-anchor="start" x="50.5" y="-308.9" font-family="Arial" font-size="14.00" fill="#000000">legacy_free_plan_unlimited_contacts </text>
<text text-anchor="start" x="284.6766" y="-308.9" font-family="Arial" font-size="14.00" fill="#666666">[tinyint(1)]</text>
<polygon fill="none" stroke="#000000" points="43.5,-267.5 43.5,-297.5 358.5,-297.5 358.5,-267.5 43.5,-267.5"/>
<text text-anchor="start" x="50.5" y="-278.9" font-family="Arial" font-size="14.00" fill="#000000">created_at </text>
<text text-anchor="start" x="120.528" y="-278.9" font-family="Arial" font-size="14.00" fill="#666666">[timestamp]</text>
<polygon fill="none" stroke="#000000" points="43.5,-237.5 43.5,-267.5 358.5,-267.5 358.5,-237.5 43.5,-237.5"/>
<text text-anchor="start" x="50.5" y="-248.9" font-family="Arial" font-size="14.00" fill="#000000">updated_at </text>
<text text-anchor="start" x="124.4326" y="-248.9" font-family="Arial" font-size="14.00" fill="#666666">[timestamp]</text>
</g>
<!-- import_job_reports&#45;&gt;accounts -->
<g id="edge1" class="edge">
<title>import_job_reports:account_id&#45;&gt;accounts:id</title>
<path fill="none" stroke="#000000" d="M473.2741,-1207.1758C348.0978,-1198.9222 437.4279,-1034.6922 409.5,-901 396.1871,-837.2705 423.6051,-612.5 358.5,-612.5"/>
<polygon fill="#000000" stroke="#000000" points="473.505,-1207.183 483.3574,-1211.9977 478.5025,-1207.3415 483.5,-1207.5 483.5,-1207.5 483.5,-1207.5 478.5025,-1207.3415 483.6426,-1203.0023 473.505,-1207.183 473.505,-1207.183"/>
<text text-anchor="start" x="219.877" y="-1217.5" font-family="Arial" font-size="10.00" fill="#000000">FOREIGN KEY (account_id) REFERENCES accounts (id)</text>
</g>
<!-- users -->
<g id="node3" class="node">
<title>users</title>
<polygon fill="#efefef" stroke="transparent" points="462.5,-822.5 462.5,-857.5 765.5,-857.5 765.5,-822.5 462.5,-822.5"/>
<polygon fill="none" stroke="#000000" points="462.5,-822.5 462.5,-857.5 765.5,-857.5 765.5,-822.5 462.5,-822.5"/>
<text text-anchor="start" x="543.3708" y="-835.3" font-family="Arial Bold" font-size="18.00" fill="#000000">users</text>
<text text-anchor="start" x="587.3754" y="-835.3" font-family="Arial" font-size="14.00" fill="#000000"> </text>
<text text-anchor="start" x="591.266" y="-835.3" font-family="Arial" font-size="14.00" fill="#666666">[BASE TABLE]</text>
<polygon fill="none" stroke="#000000" points="462.5,-792.5 462.5,-822.5 765.5,-822.5 765.5,-792.5 462.5,-792.5"/>
<text text-anchor="start" x="469.5" y="-803.9" font-family="Arial" font-size="14.00" fill="#000000">id </text>
<text text-anchor="start" x="484.2798" y="-803.9" font-family="Arial" font-size="14.00" fill="#666666">[int(10) unsigned]</text>
<polygon fill="none" stroke="#000000" points="462.5,-762.5 462.5,-792.5 765.5,-792.5 765.5,-762.5 462.5,-762.5"/>
<text text-anchor="start" x="469.5" y="-773.9" font-family="Arial" font-size="14.00" fill="#000000">first_name </text>
<text text-anchor="start" x="538.73" y="-773.9" font-family="Arial" font-size="14.00" fill="#666666">[varchar(255)]</text>
<polygon fill="none" stroke="#000000" points="462.5,-732.5 462.5,-762.5 765.5,-762.5 765.5,-732.5 462.5,-732.5"/>
<text text-anchor="start" x="469.5" y="-743.9" font-family="Arial" font-size="14.00" fill="#000000">last_name </text>
<text text-anchor="start" x="537.9614" y="-743.9" font-family="Arial" font-size="14.00" fill="#666666">[varchar(255)]</text>
<polygon fill="none" stroke="#000000" points="462.5,-702.5 462.5,-732.5 765.5,-732.5 765.5,-702.5 462.5,-702.5"/>
<text text-anchor="start" x="469.5" y="-713.9" font-family="Arial" font-size="14.00" fill="#000000">email </text>
<text text-anchor="start" x="506.8296" y="-713.9" font-family="Arial" font-size="14.00" fill="#666666">[varchar(255)]</text>
<polygon fill="none" stroke="#000000" points="462.5,-672.5 462.5,-702.5 765.5,-702.5 765.5,-672.5 462.5,-672.5"/>
<text text-anchor="start" x="469.5" y="-683.9" font-family="Arial" font-size="14.00" fill="#000000">me_contact_id </text>
<text text-anchor="start" x="564.4172" y="-683.9" font-family="Arial" font-size="14.00" fill="#666666">[int(10) unsigned]</text>
<polygon fill="none" stroke="#000000" points="462.5,-642.5 462.5,-672.5 765.5,-672.5 765.5,-642.5 462.5,-642.5"/>
<text text-anchor="start" x="469.5" y="-653.9" font-family="Arial" font-size="14.00" fill="#000000">admin </text>
<text text-anchor="start" x="511.5056" y="-653.9" font-family="Arial" font-size="14.00" fill="#666666">[tinyint(1)]</text>
<polygon fill="none" stroke="#000000" points="462.5,-612.5 462.5,-642.5 765.5,-642.5 765.5,-612.5 462.5,-612.5"/>
<text text-anchor="start" x="469.5" y="-623.9" font-family="Arial" font-size="14.00" fill="#000000">email_verified_at </text>
<text text-anchor="start" x="579.1802" y="-623.9" font-family="Arial" font-size="14.00" fill="#666666">[timestamp]</text>
<polygon fill="none" stroke="#000000" points="462.5,-582.5 462.5,-612.5 765.5,-612.5 765.5,-582.5 462.5,-582.5"/>
<text text-anchor="start" x="469.5" y="-593.9" font-family="Arial" font-size="14.00" fill="#000000">password </text>
<text text-anchor="start" x="533.2882" y="-593.9" font-family="Arial" font-size="14.00" fill="#666666">[varchar(255)]</text>
<polygon fill="none" stroke="#000000" points="462.5,-552.5 462.5,-582.5 765.5,-582.5 765.5,-552.5 462.5,-552.5"/>
<text text-anchor="start" x="469.5" y="-563.9" font-family="Arial" font-size="14.00" fill="#000000">remember_token </text>
<text text-anchor="start" x="579.1844" y="-563.9" font-family="Arial" font-size="14.00" fill="#666666">[varchar(100)]</text>
<polygon fill="none" stroke="#000000" points="462.5,-522.5 462.5,-552.5 765.5,-552.5 765.5,-522.5 462.5,-522.5"/>
<text text-anchor="start" x="469.5" y="-533.9" font-family="Arial" font-size="14.00" fill="#000000">google2fa_secret </text>
<text text-anchor="start" x="580.765" y="-533.9" font-family="Arial" font-size="14.00" fill="#666666">[varchar(256)]</text>
<polygon fill="none" stroke="#000000" points="462.5,-492.5 462.5,-522.5 765.5,-522.5 765.5,-492.5 462.5,-492.5"/>
<text text-anchor="start" x="469.5" y="-503.9" font-family="Arial" font-size="14.00" fill="#000000">account_id </text>
<text text-anchor="start" x="541.0834" y="-503.9" font-family="Arial" font-size="14.00" fill="#666666">[int(10) unsigned]</text>
<polygon fill="none" stroke="#000000" points="462.5,-462.5 462.5,-492.5 765.5,-492.5 765.5,-462.5 462.5,-462.5"/>
<text text-anchor="start" x="469.5" y="-473.9" font-family="Arial" font-size="14.00" fill="#000000">timezone </text>
<text text-anchor="start" x="530.1788" y="-473.9" font-family="Arial" font-size="14.00" fill="#666666">[varchar(255)]</text>
<polygon fill="none" stroke="#000000" points="462.5,-432.5 462.5,-462.5 765.5,-462.5 765.5,-432.5 462.5,-432.5"/>
<text text-anchor="start" x="469.5" y="-443.9" font-family="Arial" font-size="14.00" fill="#000000">currency_id </text>
<text text-anchor="start" x="545.7314" y="-443.9" font-family="Arial" font-size="14.00" fill="#666666">[int(10) unsigned]</text>
<polygon fill="none" stroke="#000000" points="462.5,-402.5 462.5,-432.5 765.5,-432.5 765.5,-402.5 462.5,-402.5"/>
<text text-anchor="start" x="469.5" y="-413.9" font-family="Arial" font-size="14.00" fill="#000000">locale </text>
<text text-anchor="start" x="509.9516" y="-413.9" font-family="Arial" font-size="14.00" fill="#666666">[varchar(255)]</text>
<polygon fill="none" stroke="#000000" points="462.5,-372.5 462.5,-402.5 765.5,-402.5 765.5,-372.5 462.5,-372.5"/>
<text text-anchor="start" x="469.5" y="-383.9" font-family="Arial" font-size="14.00" fill="#000000">metric </text>
<text text-anchor="start" x="511.4916" y="-383.9" font-family="Arial" font-size="14.00" fill="#666666">[varchar(255)]</text>
<polygon fill="none" stroke="#000000" points="462.5,-342.5 462.5,-372.5 765.5,-372.5 765.5,-342.5 462.5,-342.5"/>
<text text-anchor="start" x="469.5" y="-353.9" font-family="Arial" font-size="14.00" fill="#000000">fluid_container </text>
<text text-anchor="start" x="564.413" y="-353.9" font-family="Arial" font-size="14.00" fill="#666666">[varchar(255)]</text>
<polygon fill="none" stroke="#000000" points="462.5,-312.5 462.5,-342.5 765.5,-342.5 765.5,-312.5 462.5,-312.5"/>
<text text-anchor="start" x="469.5" y="-323.9" font-family="Arial" font-size="14.00" fill="#000000">contacts_sort_order </text>
<text text-anchor="start" x="597.0876" y="-323.9" font-family="Arial" font-size="14.00" fill="#666666">[varchar(255)]</text>
<polygon fill="none" stroke="#000000" points="462.5,-282.5 462.5,-312.5 765.5,-312.5 765.5,-282.5 462.5,-282.5"/>
<text text-anchor="start" x="469.5" y="-293.9" font-family="Arial" font-size="14.00" fill="#000000">name_order </text>
<text text-anchor="start" x="548.8506" y="-293.9" font-family="Arial" font-size="14.00" fill="#666666">[varchar(255)]</text>
<polygon fill="none" stroke="#000000" points="462.5,-252.5 462.5,-282.5 765.5,-282.5 765.5,-252.5 462.5,-252.5"/>
<text text-anchor="start" x="469.5" y="-263.9" font-family="Arial" font-size="14.00" fill="#000000">invited_by_user_id </text>
<text text-anchor="start" x="590.0876" y="-263.9" font-family="Arial" font-size="14.00" fill="#666666">[int(10) unsigned]</text>
<polygon fill="none" stroke="#000000" points="462.5,-222.5 462.5,-252.5 765.5,-252.5 765.5,-222.5 462.5,-222.5"/>
<text text-anchor="start" x="469.5" y="-233.9" font-family="Arial" font-size="14.00" fill="#000000">dashboard_active_tab </text>
<text text-anchor="start" x="611.1128" y="-233.9" font-family="Arial" font-size="14.00" fill="#666666">[varchar(255)]</text>
<polygon fill="none" stroke="#000000" points="462.5,-192.5 462.5,-222.5 765.5,-222.5 765.5,-192.5 462.5,-192.5"/>
<text text-anchor="start" x="469.5" y="-203.9" font-family="Arial" font-size="14.00" fill="#000000">gifts_active_tab </text>
<text text-anchor="start" x="570.6444" y="-203.9" font-family="Arial" font-size="14.00" fill="#666666">[varchar(255)]</text>
<polygon fill="none" stroke="#000000" points="462.5,-162.5 462.5,-192.5 765.5,-192.5 765.5,-162.5 462.5,-162.5"/>
<text text-anchor="start" x="469.5" y="-173.9" font-family="Arial" font-size="14.00" fill="#000000">profile_active_tab </text>
<text text-anchor="start" x="583.0862" y="-173.9" font-family="Arial" font-size="14.00" fill="#666666">[varchar(255)]</text>
<polygon fill="none" stroke="#000000" points="462.5,-132.5 462.5,-162.5 765.5,-162.5 765.5,-132.5 462.5,-132.5"/>
<text text-anchor="start" x="469.2911" y="-143.9" font-family="Arial" font-size="14.00" fill="#000000">profile_new_life_event_badge_seen </text>
<text text-anchor="start" x="697.2643" y="-143.9" font-family="Arial" font-size="14.00" fill="#666666">[tinyint(1)]</text>
<polygon fill="none" stroke="#000000" points="462.5,-102.5 462.5,-132.5 765.5,-132.5 765.5,-102.5 462.5,-102.5"/>
<text text-anchor="start" x="469.5" y="-113.9" font-family="Arial" font-size="14.00" fill="#000000">temperature_scale </text>
<text text-anchor="start" x="589.3036" y="-113.9" font-family="Arial" font-size="14.00" fill="#666666">[varchar(255)]</text>
<polygon fill="none" stroke="#000000" points="462.5,-72.5 462.5,-102.5 765.5,-102.5 765.5,-72.5 462.5,-72.5"/>
<text text-anchor="start" x="469.5" y="-83.9" font-family="Arial" font-size="14.00" fill="#000000">created_at </text>
<text text-anchor="start" x="539.528" y="-83.9" font-family="Arial" font-size="14.00" fill="#666666">[timestamp]</text>
<polygon fill="none" stroke="#000000" points="462.5,-42.5 462.5,-72.5 765.5,-72.5 765.5,-42.5 462.5,-42.5"/>
<text text-anchor="start" x="469.5" y="-53.9" font-family="Arial" font-size="14.00" fill="#000000">updated_at </text>
<text text-anchor="start" x="543.4326" y="-53.9" font-family="Arial" font-size="14.00" fill="#666666">[timestamp]</text>
</g>
<!-- import_job_reports&#45;&gt;users -->
<g id="edge2" class="edge">
<title>import_job_reports:user_id&#45;&gt;users:id</title>
<path fill="none" stroke="#000000" d="M473.2272,-1175.5093C399.5316,-1146.3863 383.6841,-807.5 462.5,-807.5"/>
<polygon fill="#000000" stroke="#000000" points="473.6826,-1175.5975 482.6439,-1181.9178 478.5913,-1176.5487 483.5,-1177.5 483.5,-1177.5 483.5,-1177.5 478.5913,-1176.5487 484.3561,-1173.0822 473.6826,-1175.5975 473.6826,-1175.5975"/>
<text text-anchor="start" x="250.445" y="-1187.5" font-family="Arial" font-size="10.00" fill="#000000">FOREIGN KEY (user_id) REFERENCES users (id)</text>
</g>
<!-- import_jobs -->
<g id="node4" class="node">
<title>import_jobs</title>
<polygon fill="#efefef" stroke="transparent" points="869.5,-642.5 869.5,-677.5 1073.5,-677.5 1073.5,-642.5 869.5,-642.5"/>
<polygon fill="none" stroke="#000000" points="869.5,-642.5 869.5,-677.5 1073.5,-677.5 1073.5,-642.5 869.5,-642.5"/>
<text text-anchor="start" x="876.3701" y="-655.3" font-family="Arial Bold" font-size="18.00" fill="#000000">import_jobs</text>
<text text-anchor="start" x="969.3761" y="-655.3" font-family="Arial" font-size="14.00" fill="#000000"> </text>
<text text-anchor="start" x="973.2667" y="-655.3" font-family="Arial" font-size="14.00" fill="#666666">[BASE TABLE]</text>
<polygon fill="none" stroke="#000000" points="869.5,-612.5 869.5,-642.5 1073.5,-642.5 1073.5,-612.5 869.5,-612.5"/>
<text text-anchor="start" x="876.5" y="-623.9" font-family="Arial" font-size="14.00" fill="#000000">id </text>
<text text-anchor="start" x="891.2798" y="-623.9" font-family="Arial" font-size="14.00" fill="#666666">[int(10) unsigned]</text>
<polygon fill="none" stroke="#000000" points="869.5,-582.5 869.5,-612.5 1073.5,-612.5 1073.5,-582.5 869.5,-582.5"/>
<text text-anchor="start" x="876.5" y="-593.9" font-family="Arial" font-size="14.00" fill="#000000">account_id </text>
<text text-anchor="start" x="948.0834" y="-593.9" font-family="Arial" font-size="14.00" fill="#666666">[int(10) unsigned]</text>
<polygon fill="none" stroke="#000000" points="869.5,-552.5 869.5,-582.5 1073.5,-582.5 1073.5,-552.5 869.5,-552.5"/>
<text text-anchor="start" x="876.5" y="-563.9" font-family="Arial" font-size="14.00" fill="#000000">user_id </text>
<text text-anchor="start" x="926.2882" y="-563.9" font-family="Arial" font-size="14.00" fill="#666666">[int(10) unsigned]</text>
<polygon fill="none" stroke="#000000" points="869.5,-522.5 869.5,-552.5 1073.5,-552.5 1073.5,-522.5 869.5,-522.5"/>
<text text-anchor="start" x="876.5" y="-533.9" font-family="Arial" font-size="14.00" fill="#000000">type </text>
<text text-anchor="start" x="906.8464" y="-533.9" font-family="Arial" font-size="14.00" fill="#666666">[varchar(255)]</text>
<polygon fill="none" stroke="#000000" points="869.5,-492.5 869.5,-522.5 1073.5,-522.5 1073.5,-492.5 869.5,-492.5"/>
<text text-anchor="start" x="876.5" y="-503.9" font-family="Arial" font-size="14.00" fill="#000000">contacts_found </text>
<text text-anchor="start" x="975.3232" y="-503.9" font-family="Arial" font-size="14.00" fill="#666666">[int(11)]</text>
<polygon fill="none" stroke="#000000" points="869.5,-462.5 869.5,-492.5 1073.5,-492.5 1073.5,-462.5 869.5,-462.5"/>
<text text-anchor="start" x="876.5" y="-473.9" font-family="Arial" font-size="14.00" fill="#000000">contacts_skipped </text>
<text text-anchor="start" x="988.5392" y="-473.9" font-family="Arial" font-size="14.00" fill="#666666">[int(11)]</text>
<polygon fill="none" stroke="#000000" points="869.5,-432.5 869.5,-462.5 1073.5,-462.5 1073.5,-432.5 869.5,-432.5"/>
<text text-anchor="start" x="876.5" y="-443.9" font-family="Arial" font-size="14.00" fill="#000000">contacts_imported </text>
<text text-anchor="start" x="994.751" y="-443.9" font-family="Arial" font-size="14.00" fill="#666666">[int(11)]</text>
<polygon fill="none" stroke="#000000" points="869.5,-402.5 869.5,-432.5 1073.5,-432.5 1073.5,-402.5 869.5,-402.5"/>
<text text-anchor="start" x="876.5" y="-413.9" font-family="Arial" font-size="14.00" fill="#000000">filename </text>
<text text-anchor="start" x="933.2854" y="-413.9" font-family="Arial" font-size="14.00" fill="#666666">[varchar(255)]</text>
<polygon fill="none" stroke="#000000" points="869.5,-372.5 869.5,-402.5 1073.5,-402.5 1073.5,-372.5 869.5,-372.5"/>
<text text-anchor="start" x="876.5" y="-383.9" font-family="Arial" font-size="14.00" fill="#000000">started_at </text>
<text text-anchor="start" x="942.636" y="-383.9" font-family="Arial" font-size="14.00" fill="#666666">[date]</text>
<polygon fill="none" stroke="#000000" points="869.5,-342.5 869.5,-372.5 1073.5,-372.5 1073.5,-342.5 869.5,-342.5"/>
<text text-anchor="start" x="876.5" y="-353.9" font-family="Arial" font-size="14.00" fill="#000000">ended_at </text>
<text text-anchor="start" x="938.7594" y="-353.9" font-family="Arial" font-size="14.00" fill="#666666">[date]</text>
<polygon fill="none" stroke="#000000" points="869.5,-312.5 869.5,-342.5 1073.5,-342.5 1073.5,-312.5 869.5,-312.5"/>
<text text-anchor="start" x="876.5" y="-323.9" font-family="Arial" font-size="14.00" fill="#000000">failed </text>
<text text-anchor="start" x="913.8422" y="-323.9" font-family="Arial" font-size="14.00" fill="#666666">[tinyint(1)]</text>
<polygon fill="none" stroke="#000000" points="869.5,-282.5 869.5,-312.5 1073.5,-312.5 1073.5,-282.5 869.5,-282.5"/>
<text text-anchor="start" x="876.5" y="-293.9" font-family="Arial" font-size="14.00" fill="#000000">failed_reason </text>
<text text-anchor="start" x="964.4158" y="-293.9" font-family="Arial" font-size="14.00" fill="#666666">[mediumtext]</text>
<polygon fill="none" stroke="#000000" points="869.5,-252.5 869.5,-282.5 1073.5,-282.5 1073.5,-252.5 869.5,-252.5"/>
<text text-anchor="start" x="876.5" y="-263.9" font-family="Arial" font-size="14.00" fill="#000000">created_at </text>
<text text-anchor="start" x="946.528" y="-263.9" font-family="Arial" font-size="14.00" fill="#666666">[timestamp]</text>
<polygon fill="none" stroke="#000000" points="869.5,-222.5 869.5,-252.5 1073.5,-252.5 1073.5,-222.5 869.5,-222.5"/>
<text text-anchor="start" x="876.5" y="-233.9" font-family="Arial" font-size="14.00" fill="#000000">updated_at </text>
<text text-anchor="start" x="950.4326" y="-233.9" font-family="Arial" font-size="14.00" fill="#666666">[timestamp]</text>
</g>
<!-- import_job_reports&#45;&gt;import_jobs -->
<g id="edge3" class="edge">
<title>import_job_reports:import_job_id&#45;&gt;import_jobs:id</title>
<path fill="none" stroke="#000000" d="M754.6857,-1147.108C854.59,-1139.0576 791.4148,-1008.5706 817.5,-901 832.0797,-840.8759 807.6335,-627.5 869.5,-627.5"/>
<polygon fill="#000000" stroke="#000000" points="754.4926,-1147.1154 744.3269,-1143.0033 749.4963,-1147.3077 744.5,-1147.5 744.5,-1147.5 744.5,-1147.5 749.4963,-1147.3077 744.6731,-1151.9967 754.4926,-1147.1154 754.4926,-1147.1154"/>
<text text-anchor="start" x="751.222" y="-1157.5" font-family="Arial" font-size="10.00" fill="#000000">FOREIGN KEY (import_job_id) REFERENCES import_jobs (id)</text>
</g>
</g>
</svg>
