<?xml version="1.0" encoding="UTF-8" standalone="no"?>
<!DOCTYPE svg PUBLIC "-//W3C//DTD SVG 1.1//EN"
 "http://www.w3.org/Graphics/SVG/1.1/DTD/svg11.dtd">
<!-- Generated by graphviz version 2.40.1 (20161225.0304)
 -->
<!-- Title: life_event_types Pages: 1 -->
<svg width="934pt" height="1499pt"
 viewBox="0.00 0.00 934.00 1499.00" xmlns="http://www.w3.org/2000/svg" xmlns:xlink="http://www.w3.org/1999/xlink">
<g id="graph0" class="graph" transform="scale(1 1) rotate(0) translate(4 1495)">
<title>life_event_types</title>
<polygon fill="#ffffff" stroke="transparent" points="-4,4 -4,-1495 930,-1495 930,4 -4,4"/>
<!-- life_event_types -->
<g id="node1" class="node">
<title>life_event_types</title>
<polygon fill="#efefef" stroke="transparent" points="271,-862.5 271,-897.5 549,-897.5 549,-862.5 271,-862.5"/>
<polygon fill="none" stroke="#000000" points="271,-862.5 271,-897.5 549,-897.5 549,-862.5 271,-862.5"/>
<text text-anchor="start" x="296.3508" y="-875.3" font-family="Arial Bold" font-size="18.00" fill="#000000">life_event_types</text>
<text text-anchor="start" x="426.3954" y="-875.3" font-family="Arial" font-size="14.00" fill="#000000"> </text>
<text text-anchor="start" x="430.286" y="-875.3" font-family="Arial" font-size="14.00" fill="#666666">[BASE TABLE]</text>
<polygon fill="none" stroke="#000000" points="271,-832.5 271,-862.5 549,-862.5 549,-832.5 271,-832.5"/>
<text text-anchor="start" x="278" y="-843.9" font-family="Arial" font-size="14.00" fill="#000000">id </text>
<text text-anchor="start" x="292.7798" y="-843.9" font-family="Arial" font-size="14.00" fill="#666666">[int(10) unsigned]</text>
<polygon fill="none" stroke="#000000" points="271,-802.5 271,-832.5 549,-832.5 549,-802.5 271,-802.5"/>
<text text-anchor="start" x="278" y="-813.9" font-family="Arial" font-size="14.00" fill="#000000">account_id </text>
<text text-anchor="start" x="349.5834" y="-813.9" font-family="Arial" font-size="14.00" fill="#666666">[int(10) unsigned]</text>
<polygon fill="none" stroke="#000000" points="271,-772.5 271,-802.5 549,-802.5 549,-772.5 271,-772.5"/>
<text text-anchor="start" x="278" y="-783.9" font-family="Arial" font-size="14.00" fill="#000000">life_event_category_id </text>
<text text-anchor="start" x="421.934" y="-783.9" font-family="Arial" font-size="14.00" fill="#666666">[int(10) unsigned]</text>
<polygon fill="none" stroke="#000000" points="271,-742.5 271,-772.5 549,-772.5 549,-742.5 271,-742.5"/>
<text text-anchor="start" x="278" y="-753.9" font-family="Arial" font-size="14.00" fill="#000000">name </text>
<text text-anchor="start" x="316.899" y="-753.9" font-family="Arial" font-size="14.00" fill="#666666">[varchar(255)]</text>
<polygon fill="none" stroke="#000000" points="271,-712.5 271,-742.5 549,-742.5 549,-712.5 271,-712.5"/>
<text text-anchor="start" x="277.7392" y="-723.9" font-family="Arial" font-size="14.00" fill="#000000">default_life_event_type_key </text>
<text text-anchor="start" x="455.1416" y="-723.9" font-family="Arial" font-size="14.00" fill="#666666">[varchar(255)]</text>
<polygon fill="none" stroke="#000000" points="271,-682.5 271,-712.5 549,-712.5 549,-682.5 271,-682.5"/>
<text text-anchor="start" x="278" y="-693.9" font-family="Arial" font-size="14.00" fill="#000000">core_monica_data </text>
<text text-anchor="start" x="397.035" y="-693.9" font-family="Arial" font-size="14.00" fill="#666666">[tinyint(1)]</text>
<polygon fill="none" stroke="#000000" points="271,-652.5 271,-682.5 549,-682.5 549,-652.5 271,-652.5"/>
<text text-anchor="start" x="278" y="-663.9" font-family="Arial" font-size="14.00" fill="#000000">specific_information_structure </text>
<text text-anchor="start" x="467.8036" y="-663.9" font-family="Arial" font-size="14.00" fill="#666666">[text]</text>
<polygon fill="none" stroke="#000000" points="271,-622.5 271,-652.5 549,-652.5 549,-622.5 271,-622.5"/>
<text text-anchor="start" x="278" y="-633.9" font-family="Arial" font-size="14.00" fill="#000000">created_at </text>
<text text-anchor="start" x="348.028" y="-633.9" font-family="Arial" font-size="14.00" fill="#666666">[timestamp]</text>
<polygon fill="none" stroke="#000000" points="271,-592.5 271,-622.5 549,-622.5 549,-592.5 271,-592.5"/>
<text text-anchor="start" x="278" y="-603.9" font-family="Arial" font-size="14.00" fill="#000000">updated_at </text>
<text text-anchor="start" x="351.9326" y="-603.9" font-family="Arial" font-size="14.00" fill="#666666">[timestamp]</text>
<polygon fill="none" stroke="#000000" stroke-width="3" points="269.5,-591.5 269.5,-899.5 550.5,-899.5 550.5,-591.5 269.5,-591.5"/>
</g>
<!-- accounts -->
<g id="node3" class="node">
<title>accounts</title>
<polygon fill="#efefef" stroke="transparent" points="45,-432.5 45,-467.5 360,-467.5 360,-432.5 45,-432.5"/>
<polygon fill="none" stroke="#000000" points="45,-432.5 45,-467.5 360,-467.5 360,-432.5 45,-432.5"/>
<text text-anchor="start" x="117.8596" y="-445.3" font-family="Arial Bold" font-size="18.00" fill="#000000">accounts</text>
<text text-anchor="start" x="189.8866" y="-445.3" font-family="Arial" font-size="14.00" fill="#000000"> </text>
<text text-anchor="start" x="193.7772" y="-445.3" font-family="Arial" font-size="14.00" fill="#666666">[BASE TABLE]</text>
<polygon fill="none" stroke="#000000" points="45,-402.5 45,-432.5 360,-432.5 360,-402.5 45,-402.5"/>
<text text-anchor="start" x="52" y="-413.9" font-family="Arial" font-size="14.00" fill="#000000">id </text>
<text text-anchor="start" x="66.7798" y="-413.9" font-family="Arial" font-size="14.00" fill="#666666">[int(10) unsigned]</text>
<polygon fill="none" stroke="#000000" points="45,-372.5 45,-402.5 360,-402.5 360,-372.5 45,-372.5"/>
<text text-anchor="start" x="51.573" y="-383.9" font-family="Arial" font-size="14.00" fill="#000000">has_access_to_paid_version_for_free </text>
<text text-anchor="start" x="291.9824" y="-383.9" font-family="Arial" font-size="14.00" fill="#666666">[tinyint(1)]</text>
<polygon fill="none" stroke="#000000" points="45,-342.5 45,-372.5 360,-372.5 360,-342.5 45,-342.5"/>
<text text-anchor="start" x="52" y="-353.9" font-family="Arial" font-size="14.00" fill="#000000">api_key </text>
<text text-anchor="start" x="104.1276" y="-353.9" font-family="Arial" font-size="14.00" fill="#666666">[varchar(255)]</text>
<polygon fill="none" stroke="#000000" points="45,-312.5 45,-342.5 360,-342.5 360,-312.5 45,-312.5"/>
<text text-anchor="start" x="52" y="-323.9" font-family="Arial" font-size="14.00" fill="#000000">number_of_invitations_sent </text>
<text text-anchor="start" x="227.0504" y="-323.9" font-family="Arial" font-size="14.00" fill="#666666">[int(11)]</text>
<polygon fill="none" stroke="#000000" points="45,-282.5 45,-312.5 360,-312.5 360,-282.5 45,-282.5"/>
<text text-anchor="start" x="52" y="-293.9" font-family="Arial" font-size="14.00" fill="#000000">default_time_reminder_is_sent </text>
<text text-anchor="start" x="247.2608" y="-293.9" font-family="Arial" font-size="14.00" fill="#666666">[varchar(255)]</text>
<polygon fill="none" stroke="#000000" points="45,-252.5 45,-282.5 360,-282.5 360,-252.5 45,-252.5"/>
<text text-anchor="start" x="52" y="-263.9" font-family="Arial" font-size="14.00" fill="#000000">default_gender_id </text>
<text text-anchor="start" x="167.9368" y="-263.9" font-family="Arial" font-size="14.00" fill="#666666">[int(10) unsigned]</text>
<polygon fill="none" stroke="#000000" points="45,-222.5 45,-252.5 360,-252.5 360,-222.5 45,-222.5"/>
<text text-anchor="start" x="52" y="-233.9" font-family="Arial" font-size="14.00" fill="#000000">stripe_id </text>
<text text-anchor="start" x="108.7854" y="-233.9" font-family="Arial" font-size="14.00" fill="#666666">[varchar(255)]</text>
<polygon fill="none" stroke="#000000" points="45,-192.5 45,-222.5 360,-222.5 360,-192.5 45,-192.5"/>
<text text-anchor="start" x="52" y="-203.9" font-family="Arial" font-size="14.00" fill="#000000">card_brand </text>
<text text-anchor="start" x="126.69" y="-203.9" font-family="Arial" font-size="14.00" fill="#666666">[varchar(255)]</text>
<polygon fill="none" stroke="#000000" points="45,-162.5 45,-192.5 360,-192.5 360,-162.5 45,-162.5"/>
<text text-anchor="start" x="52" y="-173.9" font-family="Arial" font-size="14.00" fill="#000000">card_last_four </text>
<text text-anchor="start" x="144.5778" y="-173.9" font-family="Arial" font-size="14.00" fill="#666666">[varchar(4)]</text>
<polygon fill="none" stroke="#000000" points="45,-132.5 45,-162.5 360,-162.5 360,-132.5 45,-132.5"/>
<text text-anchor="start" x="52" y="-143.9" font-family="Arial" font-size="14.00" fill="#000000">trial_ends_at </text>
<text text-anchor="start" x="136.0238" y="-143.9" font-family="Arial" font-size="14.00" fill="#666666">[timestamp]</text>
<polygon fill="none" stroke="#000000" points="45,-102.5 45,-132.5 360,-132.5 360,-102.5 45,-102.5"/>
<text text-anchor="start" x="52" y="-113.9" font-family="Arial" font-size="14.00" fill="#000000">legacy_free_plan_unlimited_contacts </text>
<text text-anchor="start" x="286.1766" y="-113.9" font-family="Arial" font-size="14.00" fill="#666666">[tinyint(1)]</text>
<polygon fill="none" stroke="#000000" points="45,-72.5 45,-102.5 360,-102.5 360,-72.5 45,-72.5"/>
<text text-anchor="start" x="52" y="-83.9" font-family="Arial" font-size="14.00" fill="#000000">created_at </text>
<text text-anchor="start" x="122.028" y="-83.9" font-family="Arial" font-size="14.00" fill="#666666">[timestamp]</text>
<polygon fill="none" stroke="#000000" points="45,-42.5 45,-72.5 360,-72.5 360,-42.5 45,-42.5"/>
<text text-anchor="start" x="52" y="-53.9" font-family="Arial" font-size="14.00" fill="#000000">updated_at </text>
<text text-anchor="start" x="125.9326" y="-53.9" font-family="Arial" font-size="14.00" fill="#666666">[timestamp]</text>
</g>
<!-- life_event_types&#45;&gt;accounts -->
<g id="edge2" class="edge">
<title>life_event_types:account_id&#45;&gt;accounts:id</title>
<path fill="none" stroke="#000000" d="M260.8757,-817.0662C153.8963,-807.5522 205.7616,-643.7619 271,-547 294.8531,-511.621 336.1469,-546.379 360,-511 383.2306,-476.5442 401.5556,-417.5 360,-417.5"/>
<polygon fill="#000000" stroke="#000000" points="261.0092,-817.0719 270.8073,-821.9959 266.0046,-817.2859 271,-817.5 271,-817.5 271,-817.5 266.0046,-817.2859 271.1927,-813.0041 261.0092,-817.0719 261.0092,-817.0719"/>
<text text-anchor="start" x="7.377" y="-827.5" font-family="Arial" font-size="10.00" fill="#000000">FOREIGN KEY (account_id) REFERENCES accounts (id)</text>
</g>
<!-- life_event_categories -->
<g id="node4" class="node">
<title>life_event_categories</title>
<polygon fill="#efefef" stroke="transparent" points="464,-342.5 464,-377.5 769,-377.5 769,-342.5 464,-342.5"/>
<polygon fill="none" stroke="#000000" points="464,-342.5 464,-377.5 769,-377.5 769,-342.5 464,-342.5"/>
<text text-anchor="start" x="482.8483" y="-355.3" font-family="Arial Bold" font-size="18.00" fill="#000000">life_event_categories</text>
<text text-anchor="start" x="652.8979" y="-355.3" font-family="Arial" font-size="14.00" fill="#000000"> </text>
<text text-anchor="start" x="656.7885" y="-355.3" font-family="Arial" font-size="14.00" fill="#666666">[BASE TABLE]</text>
<polygon fill="none" stroke="#000000" points="464,-312.5 464,-342.5 769,-342.5 769,-312.5 464,-312.5"/>
<text text-anchor="start" x="471" y="-323.9" font-family="Arial" font-size="14.00" fill="#000000">id </text>
<text text-anchor="start" x="485.7798" y="-323.9" font-family="Arial" font-size="14.00" fill="#666666">[int(10) unsigned]</text>
<polygon fill="none" stroke="#000000" points="464,-282.5 464,-312.5 769,-312.5 769,-282.5 464,-282.5"/>
<text text-anchor="start" x="471" y="-293.9" font-family="Arial" font-size="14.00" fill="#000000">account_id </text>
<text text-anchor="start" x="542.5834" y="-293.9" font-family="Arial" font-size="14.00" fill="#666666">[int(10) unsigned]</text>
<polygon fill="none" stroke="#000000" points="464,-252.5 464,-282.5 769,-282.5 769,-252.5 464,-252.5"/>
<text text-anchor="start" x="471" y="-263.9" font-family="Arial" font-size="14.00" fill="#000000">name </text>
<text text-anchor="start" x="509.899" y="-263.9" font-family="Arial" font-size="14.00" fill="#666666">[varchar(255)]</text>
<polygon fill="none" stroke="#000000" points="464,-222.5 464,-252.5 769,-252.5 769,-222.5 464,-222.5"/>
<text text-anchor="start" x="470.6263" y="-233.9" font-family="Arial" font-size="14.00" fill="#000000">default_life_event_category_key </text>
<text text-anchor="start" x="675.2545" y="-233.9" font-family="Arial" font-size="14.00" fill="#666666">[varchar(255)]</text>
<polygon fill="none" stroke="#000000" points="464,-192.5 464,-222.5 769,-222.5 769,-192.5 464,-192.5"/>
<text text-anchor="start" x="471" y="-203.9" font-family="Arial" font-size="14.00" fill="#000000">core_monica_data </text>
<text text-anchor="start" x="590.035" y="-203.9" font-family="Arial" font-size="14.00" fill="#666666">[tinyint(1)]</text>
<polygon fill="none" stroke="#000000" points="464,-162.5 464,-192.5 769,-192.5 769,-162.5 464,-162.5"/>
<text text-anchor="start" x="471" y="-173.9" font-family="Arial" font-size="14.00" fill="#000000">created_at </text>
<text text-anchor="start" x="541.028" y="-173.9" font-family="Arial" font-size="14.00" fill="#666666">[timestamp]</text>
<polygon fill="none" stroke="#000000" points="464,-132.5 464,-162.5 769,-162.5 769,-132.5 464,-132.5"/>
<text text-anchor="start" x="471" y="-143.9" font-family="Arial" font-size="14.00" fill="#000000">updated_at </text>
<text text-anchor="start" x="544.9326" y="-143.9" font-family="Arial" font-size="14.00" fill="#666666">[timestamp]</text>
</g>
<!-- life_event_types&#45;&gt;life_event_categories -->
<g id="edge3" class="edge">
<title>life_event_types:life_event_category_id&#45;&gt;life_event_categories:id</title>
<path fill="none" stroke="#000000" d="M559.0518,-787.049C650.9152,-778.3569 579.2169,-645.8234 549,-547 529.2478,-482.4011 483.7522,-485.5989 464,-421 451.849,-381.2606 422.4444,-327.5 464,-327.5"/>
<polygon fill="#000000" stroke="#000000" points="558.99,-787.0517 548.7983,-783.0045 553.995,-787.2759 549,-787.5 549,-787.5 549,-787.5 553.995,-787.2759 549.2017,-791.9955 558.99,-787.0517 558.99,-787.0517"/>
<text text-anchor="start" x="556.309" y="-797.5" font-family="Arial" font-size="10.00" fill="#000000">FOREIGN KEY (life_event_category_id) REFERENCES life_event_categories (id)</text>
</g>
<!-- life_events -->
<g id="node2" class="node">
<title>life_events</title>
<polygon fill="#efefef" stroke="transparent" points="274,-1412.5 274,-1447.5 545,-1447.5 545,-1412.5 274,-1412.5"/>
<polygon fill="none" stroke="#000000" points="274,-1412.5 274,-1447.5 545,-1447.5 545,-1412.5 274,-1412.5"/>
<text text-anchor="start" x="317.8612" y="-1425.3" font-family="Arial Bold" font-size="18.00" fill="#000000">life_events</text>
<text text-anchor="start" x="403.885" y="-1425.3" font-family="Arial" font-size="14.00" fill="#000000"> </text>
<text text-anchor="start" x="407.7756" y="-1425.3" font-family="Arial" font-size="14.00" fill="#666666">[BASE TABLE]</text>
<polygon fill="none" stroke="#000000" points="274,-1382.5 274,-1412.5 545,-1412.5 545,-1382.5 274,-1382.5"/>
<text text-anchor="start" x="281" y="-1393.9" font-family="Arial" font-size="14.00" fill="#000000">id </text>
<text text-anchor="start" x="295.7798" y="-1393.9" font-family="Arial" font-size="14.00" fill="#666666">[int(10) unsigned]</text>
<polygon fill="none" stroke="#000000" points="274,-1352.5 274,-1382.5 545,-1382.5 545,-1352.5 274,-1352.5"/>
<text text-anchor="start" x="281" y="-1363.9" font-family="Arial" font-size="14.00" fill="#000000">account_id </text>
<text text-anchor="start" x="352.5834" y="-1363.9" font-family="Arial" font-size="14.00" fill="#666666">[int(10) unsigned]</text>
<polygon fill="none" stroke="#000000" points="274,-1322.5 274,-1352.5 545,-1352.5 545,-1322.5 274,-1322.5"/>
<text text-anchor="start" x="281" y="-1333.9" font-family="Arial" font-size="14.00" fill="#000000">contact_id </text>
<text text-anchor="start" x="348.6914" y="-1333.9" font-family="Arial" font-size="14.00" fill="#666666">[int(10) unsigned]</text>
<polygon fill="none" stroke="#000000" points="274,-1292.5 274,-1322.5 545,-1322.5 545,-1292.5 274,-1292.5"/>
<text text-anchor="start" x="281" y="-1303.9" font-family="Arial" font-size="14.00" fill="#000000">life_event_type_id </text>
<text text-anchor="start" x="397.7082" y="-1303.9" font-family="Arial" font-size="14.00" fill="#666666">[int(10) unsigned]</text>
<polygon fill="none" stroke="#000000" points="274,-1262.5 274,-1292.5 545,-1292.5 545,-1262.5 274,-1262.5"/>
<text text-anchor="start" x="281" y="-1273.9" font-family="Arial" font-size="14.00" fill="#000000">reminder_id </text>
<text text-anchor="start" x="358.7812" y="-1273.9" font-family="Arial" font-size="14.00" fill="#666666">[int(10) unsigned]</text>
<polygon fill="none" stroke="#000000" points="274,-1232.5 274,-1262.5 545,-1262.5 545,-1232.5 274,-1232.5"/>
<text text-anchor="start" x="281" y="-1243.9" font-family="Arial" font-size="14.00" fill="#000000">name </text>
<text text-anchor="start" x="319.899" y="-1243.9" font-family="Arial" font-size="14.00" fill="#666666">[varchar(255)]</text>
<polygon fill="none" stroke="#000000" points="274,-1202.5 274,-1232.5 545,-1232.5 545,-1202.5 274,-1202.5"/>
<text text-anchor="start" x="281" y="-1213.9" font-family="Arial" font-size="14.00" fill="#000000">note </text>
<text text-anchor="start" x="312.129" y="-1213.9" font-family="Arial" font-size="14.00" fill="#666666">[mediumtext]</text>
<polygon fill="none" stroke="#000000" points="274,-1172.5 274,-1202.5 545,-1202.5 545,-1172.5 274,-1172.5"/>
<text text-anchor="start" x="281" y="-1183.9" font-family="Arial" font-size="14.00" fill="#000000">happened_at </text>
<text text-anchor="start" x="366.6072" y="-1183.9" font-family="Arial" font-size="14.00" fill="#666666">[datetime]</text>
<polygon fill="none" stroke="#000000" points="274,-1142.5 274,-1172.5 545,-1172.5 545,-1142.5 274,-1142.5"/>
<text text-anchor="start" x="280.7322" y="-1153.9" font-family="Arial" font-size="14.00" fill="#000000">happened_at_month_unknown </text>
<text text-anchor="start" x="476.8232" y="-1153.9" font-family="Arial" font-size="14.00" fill="#666666">[tinyint(1)]</text>
<polygon fill="none" stroke="#000000" points="274,-1112.5 274,-1142.5 545,-1142.5 545,-1112.5 274,-1112.5"/>
<text text-anchor="start" x="281" y="-1123.9" font-family="Arial" font-size="14.00" fill="#000000">happened_at_day_unknown </text>
<text text-anchor="start" x="460.7572" y="-1123.9" font-family="Arial" font-size="14.00" fill="#666666">[tinyint(1)]</text>
<polygon fill="none" stroke="#000000" points="274,-1082.5 274,-1112.5 545,-1112.5 545,-1082.5 274,-1082.5"/>
<text text-anchor="start" x="281" y="-1093.9" font-family="Arial" font-size="14.00" fill="#000000">specific_information </text>
<text text-anchor="start" x="408.5708" y="-1093.9" font-family="Arial" font-size="14.00" fill="#666666">[text]</text>
<polygon fill="none" stroke="#000000" points="274,-1052.5 274,-1082.5 545,-1082.5 545,-1052.5 274,-1052.5"/>
<text text-anchor="start" x="281" y="-1063.9" font-family="Arial" font-size="14.00" fill="#000000">created_at </text>
<text text-anchor="start" x="351.028" y="-1063.9" font-family="Arial" font-size="14.00" fill="#666666">[timestamp]</text>
<polygon fill="none" stroke="#000000" points="274,-1022.5 274,-1052.5 545,-1052.5 545,-1022.5 274,-1022.5"/>
<text text-anchor="start" x="281" y="-1033.9" font-family="Arial" font-size="14.00" fill="#000000">updated_at </text>
<text text-anchor="start" x="354.9326" y="-1033.9" font-family="Arial" font-size="14.00" fill="#666666">[timestamp]</text>
</g>
<!-- life_events&#45;&gt;life_event_types -->
<g id="edge1" class="edge">
<title>life_events:life_event_type_id&#45;&gt;life_event_types:id</title>
<path fill="none" stroke="#000000" d="M555.3141,-1307.1148C688.1075,-1296.9164 638.6423,-1086.7505 545,-980 464.0042,-887.6663 351.9958,-1036.3337 271,-944 242.7172,-911.7581 228.1111,-847.5 271,-847.5"/>
<polygon fill="#000000" stroke="#000000" points="554.993,-1307.1267 544.832,-1303.0031 549.9965,-1307.3133 545,-1307.5 545,-1307.5 545,-1307.5 549.9965,-1307.3133 545.168,-1311.9969 554.993,-1307.1267 554.993,-1307.1267"/>
<text text-anchor="start" x="552.145" y="-1317.5" font-family="Arial" font-size="10.00" fill="#000000">FOREIGN KEY (life_event_type_id) REFERENCES life_event_types (id)</text>
</g>
</g>
</svg>
