<?xml version="1.0" encoding="UTF-8" standalone="no"?>
<!DOCTYPE svg PUBLIC "-//W3C//DTD SVG 1.1//EN"
 "http://www.w3.org/Graphics/SVG/1.1/DTD/svg11.dtd">
<!-- Generated by graphviz version 2.40.1 (20161225.0304)
 -->
<!-- Title: metadata_love_relationships Pages: 1 -->
<svg width="922pt" height="1012pt"
 viewBox="0.00 0.00 922.00 1012.00" xmlns="http://www.w3.org/2000/svg" xmlns:xlink="http://www.w3.org/1999/xlink">
<g id="graph0" class="graph" transform="scale(1 1) rotate(0) translate(4 1008)">
<title>metadata_love_relationships</title>
<polygon fill="#ffffff" stroke="transparent" points="-4,4 -4,-1008 918,-1008 918,4 -4,4"/>
<!-- metadata_love_relationships -->
<g id="node1" class="node">
<title>metadata_love_relationships</title>
<polygon fill="#efefef" stroke="transparent" points="271,-922.5 271,-957.5 611,-957.5 611,-922.5 271,-922.5"/>
<polygon fill="none" stroke="#000000" points="271,-922.5 271,-957.5 611,-957.5 611,-922.5 271,-922.5"/>
<text text-anchor="start" x="277.8427" y="-935.3" font-family="Arial Bold" font-size="18.00" fill="#000000">metadata_love_relationships</text>
<text text-anchor="start" x="506.9035" y="-935.3" font-family="Arial" font-size="14.00" fill="#000000"> </text>
<text text-anchor="start" x="510.7941" y="-935.3" font-family="Arial" font-size="14.00" fill="#666666">[BASE TABLE]</text>
<polygon fill="none" stroke="#000000" points="271,-892.5 271,-922.5 611,-922.5 611,-892.5 271,-892.5"/>
<text text-anchor="start" x="278" y="-903.9" font-family="Arial" font-size="14.00" fill="#000000">id </text>
<text text-anchor="start" x="292.7798" y="-903.9" font-family="Arial" font-size="14.00" fill="#666666">[int(10) unsigned]</text>
<polygon fill="none" stroke="#000000" points="271,-862.5 271,-892.5 611,-892.5 611,-862.5 271,-862.5"/>
<text text-anchor="start" x="278" y="-873.9" font-family="Arial" font-size="14.00" fill="#000000">account_id </text>
<text text-anchor="start" x="349.5834" y="-873.9" font-family="Arial" font-size="14.00" fill="#666666">[int(10) unsigned]</text>
<polygon fill="none" stroke="#000000" points="271,-832.5 271,-862.5 611,-862.5 611,-832.5 271,-832.5"/>
<text text-anchor="start" x="278" y="-843.9" font-family="Arial" font-size="14.00" fill="#000000">relationship_id </text>
<text text-anchor="start" x="372.129" y="-843.9" font-family="Arial" font-size="14.00" fill="#666666">[int(10) unsigned]</text>
<polygon fill="none" stroke="#000000" points="271,-802.5 271,-832.5 611,-832.5 611,-802.5 271,-802.5"/>
<text text-anchor="start" x="278" y="-813.9" font-family="Arial" font-size="14.00" fill="#000000">is_active </text>
<text text-anchor="start" x="336.3422" y="-813.9" font-family="Arial" font-size="14.00" fill="#666666">[tinyint(1)]</text>
<polygon fill="none" stroke="#000000" points="271,-772.5 271,-802.5 611,-802.5 611,-772.5 271,-772.5"/>
<text text-anchor="start" x="278" y="-783.9" font-family="Arial" font-size="14.00" fill="#000000">notes </text>
<text text-anchor="start" x="316.129" y="-783.9" font-family="Arial" font-size="14.00" fill="#666666">[mediumtext]</text>
<polygon fill="none" stroke="#000000" points="271,-742.5 271,-772.5 611,-772.5 611,-742.5 271,-742.5"/>
<text text-anchor="start" x="278" y="-753.9" font-family="Arial" font-size="14.00" fill="#000000">meet_date </text>
<text text-anchor="start" x="348.028" y="-753.9" font-family="Arial" font-size="14.00" fill="#666666">[datetime]</text>
<polygon fill="none" stroke="#000000" points="271,-712.5 271,-742.5 611,-742.5 611,-712.5 271,-712.5"/>
<text text-anchor="start" x="278" y="-723.9" font-family="Arial" font-size="14.00" fill="#000000">official_date </text>
<text text-anchor="start" x="356.5778" y="-723.9" font-family="Arial" font-size="14.00" fill="#666666">[datetime]</text>
<polygon fill="none" stroke="#000000" points="271,-682.5 271,-712.5 611,-712.5 611,-682.5 271,-682.5"/>
<text text-anchor="start" x="278" y="-693.9" font-family="Arial" font-size="14.00" fill="#000000">breakup_date </text>
<text text-anchor="start" x="367.4852" y="-693.9" font-family="Arial" font-size="14.00" fill="#666666">[datetime]</text>
<polygon fill="none" stroke="#000000" points="271,-652.5 271,-682.5 611,-682.5 611,-652.5 271,-652.5"/>
<text text-anchor="start" x="278" y="-663.9" font-family="Arial" font-size="14.00" fill="#000000">breakup_reason </text>
<text text-anchor="start" x="383.0378" y="-663.9" font-family="Arial" font-size="14.00" fill="#666666">[mediumtext]</text>
<polygon fill="none" stroke="#000000" points="271,-622.5 271,-652.5 611,-652.5 611,-622.5 271,-622.5"/>
<text text-anchor="start" x="278" y="-633.9" font-family="Arial" font-size="14.00" fill="#000000">created_at </text>
<text text-anchor="start" x="348.028" y="-633.9" font-family="Arial" font-size="14.00" fill="#666666">[timestamp]</text>
<polygon fill="none" stroke="#000000" points="271,-592.5 271,-622.5 611,-622.5 611,-592.5 271,-592.5"/>
<text text-anchor="start" x="278" y="-603.9" font-family="Arial" font-size="14.00" fill="#000000">updated_at </text>
<text text-anchor="start" x="351.9326" y="-603.9" font-family="Arial" font-size="14.00" fill="#666666">[timestamp]</text>
<polygon fill="none" stroke="#000000" stroke-width="3" points="269.5,-591.5 269.5,-959.5 612.5,-959.5 612.5,-591.5 269.5,-591.5"/>
</g>
<!-- accounts -->
<g id="node2" class="node">
<title>accounts</title>
<polygon fill="#efefef" stroke="transparent" points="90,-432.5 90,-467.5 405,-467.5 405,-432.5 90,-432.5"/>
<polygon fill="none" stroke="#000000" points="90,-432.5 90,-467.5 405,-467.5 405,-432.5 90,-432.5"/>
<text text-anchor="start" x="162.8596" y="-445.3" font-family="Arial Bold" font-size="18.00" fill="#000000">accounts</text>
<text text-anchor="start" x="234.8866" y="-445.3" font-family="Arial" font-size="14.00" fill="#000000"> </text>
<text text-anchor="start" x="238.7772" y="-445.3" font-family="Arial" font-size="14.00" fill="#666666">[BASE TABLE]</text>
<polygon fill="none" stroke="#000000" points="90,-402.5 90,-432.5 405,-432.5 405,-402.5 90,-402.5"/>
<text text-anchor="start" x="97" y="-413.9" font-family="Arial" font-size="14.00" fill="#000000">id </text>
<text text-anchor="start" x="111.7798" y="-413.9" font-family="Arial" font-size="14.00" fill="#666666">[int(10) unsigned]</text>
<polygon fill="none" stroke="#000000" points="90,-372.5 90,-402.5 405,-402.5 405,-372.5 90,-372.5"/>
<text text-anchor="start" x="96.573" y="-383.9" font-family="Arial" font-size="14.00" fill="#000000">has_access_to_paid_version_for_free </text>
<text text-anchor="start" x="336.9824" y="-383.9" font-family="Arial" font-size="14.00" fill="#666666">[tinyint(1)]</text>
<polygon fill="none" stroke="#000000" points="90,-342.5 90,-372.5 405,-372.5 405,-342.5 90,-342.5"/>
<text text-anchor="start" x="97" y="-353.9" font-family="Arial" font-size="14.00" fill="#000000">api_key </text>
<text text-anchor="start" x="149.1276" y="-353.9" font-family="Arial" font-size="14.00" fill="#666666">[varchar(255)]</text>
<polygon fill="none" stroke="#000000" points="90,-312.5 90,-342.5 405,-342.5 405,-312.5 90,-312.5"/>
<text text-anchor="start" x="97" y="-323.9" font-family="Arial" font-size="14.00" fill="#000000">number_of_invitations_sent </text>
<text text-anchor="start" x="272.0504" y="-323.9" font-family="Arial" font-size="14.00" fill="#666666">[int(11)]</text>
<polygon fill="none" stroke="#000000" points="90,-282.5 90,-312.5 405,-312.5 405,-282.5 90,-282.5"/>
<text text-anchor="start" x="97" y="-293.9" font-family="Arial" font-size="14.00" fill="#000000">default_time_reminder_is_sent </text>
<text text-anchor="start" x="292.2608" y="-293.9" font-family="Arial" font-size="14.00" fill="#666666">[varchar(255)]</text>
<polygon fill="none" stroke="#000000" points="90,-252.5 90,-282.5 405,-282.5 405,-252.5 90,-252.5"/>
<text text-anchor="start" x="97" y="-263.9" font-family="Arial" font-size="14.00" fill="#000000">default_gender_id </text>
<text text-anchor="start" x="212.9368" y="-263.9" font-family="Arial" font-size="14.00" fill="#666666">[int(10) unsigned]</text>
<polygon fill="none" stroke="#000000" points="90,-222.5 90,-252.5 405,-252.5 405,-222.5 90,-222.5"/>
<text text-anchor="start" x="97" y="-233.9" font-family="Arial" font-size="14.00" fill="#000000">stripe_id </text>
<text text-anchor="start" x="153.7854" y="-233.9" font-family="Arial" font-size="14.00" fill="#666666">[varchar(255)]</text>
<polygon fill="none" stroke="#000000" points="90,-192.5 90,-222.5 405,-222.5 405,-192.5 90,-192.5"/>
<text text-anchor="start" x="97" y="-203.9" font-family="Arial" font-size="14.00" fill="#000000">card_brand </text>
<text text-anchor="start" x="171.69" y="-203.9" font-family="Arial" font-size="14.00" fill="#666666">[varchar(255)]</text>
<polygon fill="none" stroke="#000000" points="90,-162.5 90,-192.5 405,-192.5 405,-162.5 90,-162.5"/>
<text text-anchor="start" x="97" y="-173.9" font-family="Arial" font-size="14.00" fill="#000000">card_last_four </text>
<text text-anchor="start" x="189.5778" y="-173.9" font-family="Arial" font-size="14.00" fill="#666666">[varchar(4)]</text>
<polygon fill="none" stroke="#000000" points="90,-132.5 90,-162.5 405,-162.5 405,-132.5 90,-132.5"/>
<text text-anchor="start" x="97" y="-143.9" font-family="Arial" font-size="14.00" fill="#000000">trial_ends_at </text>
<text text-anchor="start" x="181.0238" y="-143.9" font-family="Arial" font-size="14.00" fill="#666666">[timestamp]</text>
<polygon fill="none" stroke="#000000" points="90,-102.5 90,-132.5 405,-132.5 405,-102.5 90,-102.5"/>
<text text-anchor="start" x="97" y="-113.9" font-family="Arial" font-size="14.00" fill="#000000">legacy_free_plan_unlimited_contacts </text>
<text text-anchor="start" x="331.1766" y="-113.9" font-family="Arial" font-size="14.00" fill="#666666">[tinyint(1)]</text>
<polygon fill="none" stroke="#000000" points="90,-72.5 90,-102.5 405,-102.5 405,-72.5 90,-72.5"/>
<text text-anchor="start" x="97" y="-83.9" font-family="Arial" font-size="14.00" fill="#000000">created_at </text>
<text text-anchor="start" x="167.028" y="-83.9" font-family="Arial" font-size="14.00" fill="#666666">[timestamp]</text>
<polygon fill="none" stroke="#000000" points="90,-42.5 90,-72.5 405,-72.5 405,-42.5 90,-42.5"/>
<text text-anchor="start" x="97" y="-53.9" font-family="Arial" font-size="14.00" fill="#000000">updated_at </text>
<text text-anchor="start" x="170.9326" y="-53.9" font-family="Arial" font-size="14.00" fill="#666666">[timestamp]</text>
</g>
<!-- metadata_love_relationships&#45;&gt;accounts -->
<g id="edge1" class="edge">
<title>metadata_love_relationships:account_id&#45;&gt;accounts:id</title>
<path fill="none" stroke="#000000" d="M260.6045,-877.122C126.9381,-867.112 183.8003,-660.7185 271,-547 308.5246,-498.0636 367.4754,-559.9364 405,-511 430.2865,-478.0234 446.5556,-417.5 405,-417.5"/>
<polygon fill="#000000" stroke="#000000" points="261.0066,-877.1365 270.8364,-881.997 266.0033,-877.3183 271,-877.5 271,-877.5 271,-877.5 266.0033,-877.3183 271.1636,-873.003 261.0066,-877.1365 261.0066,-877.1365"/>
<text text-anchor="start" x="7.377" y="-887.5" font-family="Arial" font-size="10.00" fill="#000000">FOREIGN KEY (account_id) REFERENCES accounts (id)</text>
</g>
<!-- relationships -->
<g id="node3" class="node">
<title>relationships</title>
<polygon fill="#efefef" stroke="transparent" points="509,-342.5 509,-377.5 759,-377.5 759,-342.5 509,-342.5"/>
<polygon fill="none" stroke="#000000" points="509,-342.5 509,-377.5 759,-377.5 759,-342.5 509,-342.5"/>
<text text-anchor="start" x="534.866" y="-355.3" font-family="Arial Bold" font-size="18.00" fill="#000000">relationships</text>
<text text-anchor="start" x="635.8802" y="-355.3" font-family="Arial" font-size="14.00" fill="#000000"> </text>
<text text-anchor="start" x="639.7708" y="-355.3" font-family="Arial" font-size="14.00" fill="#666666">[BASE TABLE]</text>
<polygon fill="none" stroke="#000000" points="509,-312.5 509,-342.5 759,-342.5 759,-312.5 509,-312.5"/>
<text text-anchor="start" x="516" y="-323.9" font-family="Arial" font-size="14.00" fill="#000000">id </text>
<text text-anchor="start" x="530.7798" y="-323.9" font-family="Arial" font-size="14.00" fill="#666666">[int(10) unsigned]</text>
<polygon fill="none" stroke="#000000" points="509,-282.5 509,-312.5 759,-312.5 759,-282.5 509,-282.5"/>
<text text-anchor="start" x="516" y="-293.9" font-family="Arial" font-size="14.00" fill="#000000">account_id </text>
<text text-anchor="start" x="587.5834" y="-293.9" font-family="Arial" font-size="14.00" fill="#666666">[int(10) unsigned]</text>
<polygon fill="none" stroke="#000000" points="509,-252.5 509,-282.5 759,-282.5 759,-252.5 509,-252.5"/>
<text text-anchor="start" x="515.7462" y="-263.9" font-family="Arial" font-size="14.00" fill="#000000">relationship_type_id </text>
<text text-anchor="start" x="644.1136" y="-263.9" font-family="Arial" font-size="14.00" fill="#666666">[int(10) unsigned]</text>
<polygon fill="none" stroke="#000000" points="509,-222.5 509,-252.5 759,-252.5 759,-222.5 509,-222.5"/>
<text text-anchor="start" x="516" y="-233.9" font-family="Arial" font-size="14.00" fill="#000000">contact_is </text>
<text text-anchor="start" x="582.9088" y="-233.9" font-family="Arial" font-size="14.00" fill="#666666">[int(10) unsigned]</text>
<polygon fill="none" stroke="#000000" points="509,-192.5 509,-222.5 759,-222.5 759,-192.5 509,-192.5"/>
<text text-anchor="start" x="516" y="-203.9" font-family="Arial" font-size="14.00" fill="#000000">of_contact </text>
<text text-anchor="start" x="584.4754" y="-203.9" font-family="Arial" font-size="14.00" fill="#666666">[int(10) unsigned]</text>
<polygon fill="none" stroke="#000000" points="509,-162.5 509,-192.5 759,-192.5 759,-162.5 509,-162.5"/>
<text text-anchor="start" x="516" y="-173.9" font-family="Arial" font-size="14.00" fill="#000000">created_at </text>
<text text-anchor="start" x="586.028" y="-173.9" font-family="Arial" font-size="14.00" fill="#666666">[timestamp]</text>
<polygon fill="none" stroke="#000000" points="509,-132.5 509,-162.5 759,-162.5 759,-132.5 509,-132.5"/>
<text text-anchor="start" x="516" y="-143.9" font-family="Arial" font-size="14.00" fill="#000000">updated_at </text>
<text text-anchor="start" x="589.9326" y="-143.9" font-family="Arial" font-size="14.00" fill="#666666">[timestamp]</text>
</g>
<!-- metadata_love_relationships&#45;&gt;relationships -->
<g id="edge2" class="edge">
<title>metadata_love_relationships:relationship_id&#45;&gt;relationships:id</title>
<path fill="none" stroke="#000000" d="M621.1052,-847.1399C739.8939,-838.3264 654.3966,-669.5789 611,-547 586.9548,-479.0814 533.0452,-488.9186 509,-421 495.1315,-381.8269 467.4444,-327.5 509,-327.5"/>
<polygon fill="#000000" stroke="#000000" points="620.9937,-847.1438 610.8397,-843.0029 615.9968,-847.3219 611,-847.5 611,-847.5 611,-847.5 615.9968,-847.3219 611.1603,-851.9971 620.9937,-847.1438 620.9937,-847.1438"/>
<text text-anchor="start" x="618.273" y="-857.5" font-family="Arial" font-size="10.00" fill="#000000">FOREIGN KEY (relationship_id) REFERENCES relationships (id)</text>
</g>
</g>
</svg>
