<?xml version="1.0" encoding="UTF-8" standalone="no"?>
<!DOCTYPE svg PUBLIC "-//W3C//DTD SVG 1.1//EN"
 "http://www.w3.org/Graphics/SVG/1.1/DTD/svg11.dtd">
<!-- Generated by graphviz version 2.40.1 (20161225.0304)
 -->
<!-- Title: migrations Pages: 1 -->
<svg width="294pt" height="225pt"
 viewBox="0.00 0.00 294.00 225.00" xmlns="http://www.w3.org/2000/svg" xmlns:xlink="http://www.w3.org/1999/xlink">
<g id="graph0" class="graph" transform="scale(1 1) rotate(0) translate(4 221)">
<title>migrations</title>
<polygon fill="#ffffff" stroke="transparent" points="-4,4 -4,-221 290,-221 290,4 -4,4"/>
<!-- migrations -->
<g id="node1" class="node">
<title>migrations</title>
<polygon fill="#efefef" stroke="transparent" points="46,-135.5 46,-170.5 240,-170.5 240,-135.5 46,-135.5"/>
<polygon fill="none" stroke="#000000" points="46,-135.5 46,-170.5 240,-170.5 240,-135.5 46,-135.5"/>
<text text-anchor="start" x="52.8732" y="-148.3" font-family="Arial Bold" font-size="18.00" fill="#000000">migrations</text>
<text text-anchor="start" x="135.873" y="-148.3" font-family="Arial" font-size="14.00" fill="#000000"> </text>
<text text-anchor="start" x="139.7636" y="-148.3" font-family="Arial" font-size="14.00" fill="#666666">[BASE TABLE]</text>
<polygon fill="none" stroke="#000000" points="46,-105.5 46,-135.5 240,-135.5 240,-105.5 46,-105.5"/>
<text text-anchor="start" x="53" y="-116.9" font-family="Arial" font-size="14.00" fill="#000000">id </text>
<text text-anchor="start" x="67.7798" y="-116.9" font-family="Arial" font-size="14.00" fill="#666666">[int(10) unsigned]</text>
<polygon fill="none" stroke="#000000" points="46,-75.5 46,-105.5 240,-105.5 240,-75.5 46,-75.5"/>
<text text-anchor="start" x="53" y="-86.9" font-family="Arial" font-size="14.00" fill="#000000">migration </text>
<text text-anchor="start" x="114.446" y="-86.9" font-family="Arial" font-size="14.00" fill="#666666">[varchar(255)]</text>
<polygon fill="none" stroke="#000000" points="46,-45.5 46,-75.5 240,-75.5 240,-45.5 46,-45.5"/>
<text text-anchor="start" x="53" y="-56.9" font-family="Arial" font-size="14.00" fill="#000000">batch </text>
<text text-anchor="start" x="91.129" y="-56.9" font-family="Arial" font-size="14.00" fill="#666666">[int(11)]</text>
<polygon fill="none" stroke="#000000" stroke-width="3" points="44.5,-44.5 44.5,-172.5 241.5,-172.5 241.5,-44.5 44.5,-44.5"/>
</g>
</g>
</svg>
