<?xml version="1.0" encoding="UTF-8" standalone="no"?>
<!DOCTYPE svg PUBLIC "-//W3C//DTD SVG 1.1//EN"
 "http://www.w3.org/Graphics/SVG/1.1/DTD/svg11.dtd">
<!-- Generated by graphviz version 2.40.1 (20161225.0304)
 -->
<!-- Title: relationship_type_groups Pages: 1 -->
<svg width="996pt" height="1259pt"
 viewBox="0.00 0.00 996.00 1259.00" xmlns="http://www.w3.org/2000/svg" xmlns:xlink="http://www.w3.org/1999/xlink">
<g id="graph0" class="graph" transform="scale(1 1) rotate(0) translate(4 1255)">
<title>relationship_type_groups</title>
<polygon fill="#ffffff" stroke="transparent" points="-4,4 -4,-1255 992,-1255 992,4 -4,4"/>
<!-- relationship_type_groups -->
<g id="node1" class="node">
<title>relationship_type_groups</title>
<polygon fill="#efefef" stroke="transparent" points="271,-772.5 271,-807.5 583,-807.5 583,-772.5 271,-772.5"/>
<polygon fill="none" stroke="#000000" points="271,-772.5 271,-807.5 583,-807.5 583,-772.5 271,-772.5"/>
<text text-anchor="start" x="277.844" y="-785.3" font-family="Arial Bold" font-size="18.00" fill="#000000">relationship_type_groups</text>
<text text-anchor="start" x="478.9022" y="-785.3" font-family="Arial" font-size="14.00" fill="#000000"> </text>
<text text-anchor="start" x="482.7928" y="-785.3" font-family="Arial" font-size="14.00" fill="#666666">[BASE TABLE]</text>
<polygon fill="none" stroke="#000000" points="271,-742.5 271,-772.5 583,-772.5 583,-742.5 271,-742.5"/>
<text text-anchor="start" x="278" y="-753.9" font-family="Arial" font-size="14.00" fill="#000000">id </text>
<text text-anchor="start" x="292.7798" y="-753.9" font-family="Arial" font-size="14.00" fill="#666666">[int(10) unsigned]</text>
<polygon fill="none" stroke="#000000" points="271,-712.5 271,-742.5 583,-742.5 583,-712.5 271,-712.5"/>
<text text-anchor="start" x="278" y="-723.9" font-family="Arial" font-size="14.00" fill="#000000">account_id </text>
<text text-anchor="start" x="349.5834" y="-723.9" font-family="Arial" font-size="14.00" fill="#666666">[int(10) unsigned]</text>
<polygon fill="none" stroke="#000000" points="271,-682.5 271,-712.5 583,-712.5 583,-682.5 271,-682.5"/>
<text text-anchor="start" x="278" y="-693.9" font-family="Arial" font-size="14.00" fill="#000000">name </text>
<text text-anchor="start" x="316.899" y="-693.9" font-family="Arial" font-size="14.00" fill="#666666">[varchar(255)]</text>
<polygon fill="none" stroke="#000000" points="271,-652.5 271,-682.5 583,-682.5 583,-652.5 271,-652.5"/>
<text text-anchor="start" x="278" y="-663.9" font-family="Arial" font-size="14.00" fill="#000000">delible </text>
<text text-anchor="start" x="322.3408" y="-663.9" font-family="Arial" font-size="14.00" fill="#666666">[tinyint(1)]</text>
<polygon fill="none" stroke="#000000" points="271,-622.5 271,-652.5 583,-652.5 583,-622.5 271,-622.5"/>
<text text-anchor="start" x="278" y="-633.9" font-family="Arial" font-size="14.00" fill="#000000">created_at </text>
<text text-anchor="start" x="348.028" y="-633.9" font-family="Arial" font-size="14.00" fill="#666666">[timestamp]</text>
<polygon fill="none" stroke="#000000" points="271,-592.5 271,-622.5 583,-622.5 583,-592.5 271,-592.5"/>
<text text-anchor="start" x="278" y="-603.9" font-family="Arial" font-size="14.00" fill="#000000">updated_at </text>
<text text-anchor="start" x="351.9326" y="-603.9" font-family="Arial" font-size="14.00" fill="#666666">[timestamp]</text>
<polygon fill="none" stroke="#000000" stroke-width="3" points="269.5,-591.5 269.5,-809.5 584.5,-809.5 584.5,-591.5 269.5,-591.5"/>
</g>
<!-- accounts -->
<g id="node3" class="node">
<title>accounts</title>
<polygon fill="#efefef" stroke="transparent" points="269,-432.5 269,-467.5 584,-467.5 584,-432.5 269,-432.5"/>
<polygon fill="none" stroke="#000000" points="269,-432.5 269,-467.5 584,-467.5 584,-432.5 269,-432.5"/>
<text text-anchor="start" x="341.8596" y="-445.3" font-family="Arial Bold" font-size="18.00" fill="#000000">accounts</text>
<text text-anchor="start" x="413.8866" y="-445.3" font-family="Arial" font-size="14.00" fill="#000000"> </text>
<text text-anchor="start" x="417.7772" y="-445.3" font-family="Arial" font-size="14.00" fill="#666666">[BASE TABLE]</text>
<polygon fill="none" stroke="#000000" points="269,-402.5 269,-432.5 584,-432.5 584,-402.5 269,-402.5"/>
<text text-anchor="start" x="276" y="-413.9" font-family="Arial" font-size="14.00" fill="#000000">id </text>
<text text-anchor="start" x="290.7798" y="-413.9" font-family="Arial" font-size="14.00" fill="#666666">[int(10) unsigned]</text>
<polygon fill="none" stroke="#000000" points="269,-372.5 269,-402.5 584,-402.5 584,-372.5 269,-372.5"/>
<text text-anchor="start" x="275.573" y="-383.9" font-family="Arial" font-size="14.00" fill="#000000">has_access_to_paid_version_for_free </text>
<text text-anchor="start" x="515.9824" y="-383.9" font-family="Arial" font-size="14.00" fill="#666666">[tinyint(1)]</text>
<polygon fill="none" stroke="#000000" points="269,-342.5 269,-372.5 584,-372.5 584,-342.5 269,-342.5"/>
<text text-anchor="start" x="276" y="-353.9" font-family="Arial" font-size="14.00" fill="#000000">api_key </text>
<text text-anchor="start" x="328.1276" y="-353.9" font-family="Arial" font-size="14.00" fill="#666666">[varchar(255)]</text>
<polygon fill="none" stroke="#000000" points="269,-312.5 269,-342.5 584,-342.5 584,-312.5 269,-312.5"/>
<text text-anchor="start" x="276" y="-323.9" font-family="Arial" font-size="14.00" fill="#000000">number_of_invitations_sent </text>
<text text-anchor="start" x="451.0504" y="-323.9" font-family="Arial" font-size="14.00" fill="#666666">[int(11)]</text>
<polygon fill="none" stroke="#000000" points="269,-282.5 269,-312.5 584,-312.5 584,-282.5 269,-282.5"/>
<text text-anchor="start" x="276" y="-293.9" font-family="Arial" font-size="14.00" fill="#000000">default_time_reminder_is_sent </text>
<text text-anchor="start" x="471.2608" y="-293.9" font-family="Arial" font-size="14.00" fill="#666666">[varchar(255)]</text>
<polygon fill="none" stroke="#000000" points="269,-252.5 269,-282.5 584,-282.5 584,-252.5 269,-252.5"/>
<text text-anchor="start" x="276" y="-263.9" font-family="Arial" font-size="14.00" fill="#000000">default_gender_id </text>
<text text-anchor="start" x="391.9368" y="-263.9" font-family="Arial" font-size="14.00" fill="#666666">[int(10) unsigned]</text>
<polygon fill="none" stroke="#000000" points="269,-222.5 269,-252.5 584,-252.5 584,-222.5 269,-222.5"/>
<text text-anchor="start" x="276" y="-233.9" font-family="Arial" font-size="14.00" fill="#000000">stripe_id </text>
<text text-anchor="start" x="332.7854" y="-233.9" font-family="Arial" font-size="14.00" fill="#666666">[varchar(255)]</text>
<polygon fill="none" stroke="#000000" points="269,-192.5 269,-222.5 584,-222.5 584,-192.5 269,-192.5"/>
<text text-anchor="start" x="276" y="-203.9" font-family="Arial" font-size="14.00" fill="#000000">card_brand </text>
<text text-anchor="start" x="350.69" y="-203.9" font-family="Arial" font-size="14.00" fill="#666666">[varchar(255)]</text>
<polygon fill="none" stroke="#000000" points="269,-162.5 269,-192.5 584,-192.5 584,-162.5 269,-162.5"/>
<text text-anchor="start" x="276" y="-173.9" font-family="Arial" font-size="14.00" fill="#000000">card_last_four </text>
<text text-anchor="start" x="368.5778" y="-173.9" font-family="Arial" font-size="14.00" fill="#666666">[varchar(4)]</text>
<polygon fill="none" stroke="#000000" points="269,-132.5 269,-162.5 584,-162.5 584,-132.5 269,-132.5"/>
<text text-anchor="start" x="276" y="-143.9" font-family="Arial" font-size="14.00" fill="#000000">trial_ends_at </text>
<text text-anchor="start" x="360.0238" y="-143.9" font-family="Arial" font-size="14.00" fill="#666666">[timestamp]</text>
<polygon fill="none" stroke="#000000" points="269,-102.5 269,-132.5 584,-132.5 584,-102.5 269,-102.5"/>
<text text-anchor="start" x="276" y="-113.9" font-family="Arial" font-size="14.00" fill="#000000">legacy_free_plan_unlimited_contacts </text>
<text text-anchor="start" x="510.1766" y="-113.9" font-family="Arial" font-size="14.00" fill="#666666">[tinyint(1)]</text>
<polygon fill="none" stroke="#000000" points="269,-72.5 269,-102.5 584,-102.5 584,-72.5 269,-72.5"/>
<text text-anchor="start" x="276" y="-83.9" font-family="Arial" font-size="14.00" fill="#000000">created_at </text>
<text text-anchor="start" x="346.028" y="-83.9" font-family="Arial" font-size="14.00" fill="#666666">[timestamp]</text>
<polygon fill="none" stroke="#000000" points="269,-42.5 269,-72.5 584,-72.5 584,-42.5 269,-42.5"/>
<text text-anchor="start" x="276" y="-53.9" font-family="Arial" font-size="14.00" fill="#000000">updated_at </text>
<text text-anchor="start" x="349.9326" y="-53.9" font-family="Arial" font-size="14.00" fill="#666666">[timestamp]</text>
</g>
<!-- relationship_type_groups&#45;&gt;accounts -->
<g id="edge2" class="edge">
<title>relationship_type_groups:account_id&#45;&gt;accounts:id</title>
<path fill="none" stroke="#000000" d="M260.8296,-726.7862C193.2424,-716.7855 220.0116,-604.189 271,-547 364.1865,-442.4812 490.8135,-615.5188 584,-511 611.6545,-479.9824 625.5556,-417.5 584,-417.5"/>
<polygon fill="#000000" stroke="#000000" points="261.0245,-726.7998 270.6849,-731.989 266.0123,-727.1499 271,-727.5 271,-727.5 271,-727.5 266.0123,-727.1499 271.3151,-723.011 261.0245,-726.7998 261.0245,-726.7998"/>
<text text-anchor="start" x="7.377" y="-737.5" font-family="Arial" font-size="10.00" fill="#000000">FOREIGN KEY (account_id) REFERENCES accounts (id)</text>
</g>
<!-- relationship_types -->
<g id="node2" class="node">
<title>relationship_types</title>
<polygon fill="#efefef" stroke="transparent" points="280,-1172.5 280,-1207.5 574,-1207.5 574,-1172.5 280,-1172.5"/>
<polygon fill="none" stroke="#000000" points="280,-1172.5 280,-1207.5 574,-1207.5 574,-1172.5 280,-1172.5"/>
<text text-anchor="start" x="305.8556" y="-1185.3" font-family="Arial Bold" font-size="18.00" fill="#000000">relationship_types</text>
<text text-anchor="start" x="450.8906" y="-1185.3" font-family="Arial" font-size="14.00" fill="#000000"> </text>
<text text-anchor="start" x="454.7812" y="-1185.3" font-family="Arial" font-size="14.00" fill="#666666">[BASE TABLE]</text>
<polygon fill="none" stroke="#000000" points="280,-1142.5 280,-1172.5 574,-1172.5 574,-1142.5 280,-1142.5"/>
<text text-anchor="start" x="287" y="-1153.9" font-family="Arial" font-size="14.00" fill="#000000">id </text>
<text text-anchor="start" x="301.7798" y="-1153.9" font-family="Arial" font-size="14.00" fill="#666666">[int(10) unsigned]</text>
<polygon fill="none" stroke="#000000" points="280,-1112.5 280,-1142.5 574,-1142.5 574,-1112.5 280,-1112.5"/>
<text text-anchor="start" x="287" y="-1123.9" font-family="Arial" font-size="14.00" fill="#000000">account_id </text>
<text text-anchor="start" x="358.5834" y="-1123.9" font-family="Arial" font-size="14.00" fill="#666666">[int(10) unsigned]</text>
<polygon fill="none" stroke="#000000" points="280,-1082.5 280,-1112.5 574,-1112.5 574,-1082.5 280,-1082.5"/>
<text text-anchor="start" x="287" y="-1093.9" font-family="Arial" font-size="14.00" fill="#000000">name </text>
<text text-anchor="start" x="325.899" y="-1093.9" font-family="Arial" font-size="14.00" fill="#666666">[varchar(255)]</text>
<polygon fill="none" stroke="#000000" points="280,-1052.5 280,-1082.5 574,-1082.5 574,-1052.5 280,-1052.5"/>
<text text-anchor="start" x="287" y="-1063.9" font-family="Arial" font-size="14.00" fill="#000000">name_reverse_relationship </text>
<text text-anchor="start" x="459.6998" y="-1063.9" font-family="Arial" font-size="14.00" fill="#666666">[varchar(255)]</text>
<polygon fill="none" stroke="#000000" points="280,-1022.5 280,-1052.5 574,-1052.5 574,-1022.5 280,-1022.5"/>
<text text-anchor="start" x="286.9594" y="-1033.9" font-family="Arial" font-size="14.00" fill="#000000">relationship_type_group_id </text>
<text text-anchor="start" x="458.9004" y="-1033.9" font-family="Arial" font-size="14.00" fill="#666666">[int(10) unsigned]</text>
<polygon fill="none" stroke="#000000" points="280,-992.5 280,-1022.5 574,-1022.5 574,-992.5 280,-992.5"/>
<text text-anchor="start" x="287" y="-1003.9" font-family="Arial" font-size="14.00" fill="#000000">delible </text>
<text text-anchor="start" x="331.3408" y="-1003.9" font-family="Arial" font-size="14.00" fill="#666666">[tinyint(1)]</text>
<polygon fill="none" stroke="#000000" points="280,-962.5 280,-992.5 574,-992.5 574,-962.5 280,-962.5"/>
<text text-anchor="start" x="287" y="-973.9" font-family="Arial" font-size="14.00" fill="#000000">created_at </text>
<text text-anchor="start" x="357.028" y="-973.9" font-family="Arial" font-size="14.00" fill="#666666">[timestamp]</text>
<polygon fill="none" stroke="#000000" points="280,-932.5 280,-962.5 574,-962.5 574,-932.5 280,-932.5"/>
<text text-anchor="start" x="287" y="-943.9" font-family="Arial" font-size="14.00" fill="#000000">updated_at </text>
<text text-anchor="start" x="360.9326" y="-943.9" font-family="Arial" font-size="14.00" fill="#666666">[timestamp]</text>
</g>
<!-- relationship_types&#45;&gt;relationship_type_groups -->
<g id="edge1" class="edge">
<title>relationship_types:relationship_type_group_id&#45;&gt;relationship_type_groups:id</title>
<path fill="none" stroke="#000000" d="M583.7329,-1035.0794C637.0256,-1007.7124 641.8498,-757.5 583,-757.5"/>
<polygon fill="#000000" stroke="#000000" points="583.7044,-1035.0864 572.9139,-1033.133 578.8522,-1036.2932 574,-1037.5 574,-1037.5 574,-1037.5 578.8522,-1036.2932 575.0861,-1041.867 583.7044,-1035.0864 583.7044,-1035.0864"/>
<text text-anchor="start" x="580.693" y="-1047.5" font-family="Arial" font-size="10.00" fill="#000000">FOREIGN KEY (relationship_type_group_id) REFERENCES relationship_type_groups (id)</text>
</g>
</g>
</svg>
