<?xml version="1.0" encoding="UTF-8" standalone="no"?>
<!DOCTYPE svg PUBLIC "-//W3C//DTD SVG 1.1//EN"
 "http://www.w3.org/Graphics/SVG/1.1/DTD/svg11.dtd">
<!-- Generated by graphviz version 2.40.1 (20161225.0304)
 -->
<!-- Title: relationships Pages: 1 -->
<svg width="1290pt" height="2399pt"
 viewBox="0.00 0.00 1289.50 2399.00" xmlns="http://www.w3.org/2000/svg" xmlns:xlink="http://www.w3.org/1999/xlink">
<g id="graph0" class="graph" transform="scale(1 1) rotate(0) translate(4 2395)">
<title>relationships</title>
<polygon fill="#ffffff" stroke="transparent" points="-4,4 -4,-2395 1285.5,-2395 1285.5,4 -4,4"/>
<!-- relationships -->
<g id="node1" class="node">
<title>relationships</title>
<polygon fill="#efefef" stroke="transparent" points="683.5,-1822.5 683.5,-1857.5 933.5,-1857.5 933.5,-1822.5 683.5,-1822.5"/>
<polygon fill="none" stroke="#000000" points="683.5,-1822.5 683.5,-1857.5 933.5,-1857.5 933.5,-1822.5 683.5,-1822.5"/>
<text text-anchor="start" x="709.366" y="-1835.3" font-family="Arial Bold" font-size="18.00" fill="#000000">relationships</text>
<text text-anchor="start" x="810.3802" y="-1835.3" font-family="Arial" font-size="14.00" fill="#000000"> </text>
<text text-anchor="start" x="814.2708" y="-1835.3" font-family="Arial" font-size="14.00" fill="#666666">[BASE TABLE]</text>
<polygon fill="none" stroke="#000000" points="683.5,-1792.5 683.5,-1822.5 933.5,-1822.5 933.5,-1792.5 683.5,-1792.5"/>
<text text-anchor="start" x="690.5" y="-1803.9" font-family="Arial" font-size="14.00" fill="#000000">id </text>
<text text-anchor="start" x="705.2798" y="-1803.9" font-family="Arial" font-size="14.00" fill="#666666">[int(10) unsigned]</text>
<polygon fill="none" stroke="#000000" points="683.5,-1762.5 683.5,-1792.5 933.5,-1792.5 933.5,-1762.5 683.5,-1762.5"/>
<text text-anchor="start" x="690.5" y="-1773.9" font-family="Arial" font-size="14.00" fill="#000000">account_id </text>
<text text-anchor="start" x="762.0834" y="-1773.9" font-family="Arial" font-size="14.00" fill="#666666">[int(10) unsigned]</text>
<polygon fill="none" stroke="#000000" points="683.5,-1732.5 683.5,-1762.5 933.5,-1762.5 933.5,-1732.5 683.5,-1732.5"/>
<text text-anchor="start" x="690.2462" y="-1743.9" font-family="Arial" font-size="14.00" fill="#000000">relationship_type_id </text>
<text text-anchor="start" x="818.6136" y="-1743.9" font-family="Arial" font-size="14.00" fill="#666666">[int(10) unsigned]</text>
<polygon fill="none" stroke="#000000" points="683.5,-1702.5 683.5,-1732.5 933.5,-1732.5 933.5,-1702.5 683.5,-1702.5"/>
<text text-anchor="start" x="690.5" y="-1713.9" font-family="Arial" font-size="14.00" fill="#000000">contact_is </text>
<text text-anchor="start" x="757.4088" y="-1713.9" font-family="Arial" font-size="14.00" fill="#666666">[int(10) unsigned]</text>
<polygon fill="none" stroke="#000000" points="683.5,-1672.5 683.5,-1702.5 933.5,-1702.5 933.5,-1672.5 683.5,-1672.5"/>
<text text-anchor="start" x="690.5" y="-1683.9" font-family="Arial" font-size="14.00" fill="#000000">of_contact </text>
<text text-anchor="start" x="758.9754" y="-1683.9" font-family="Arial" font-size="14.00" fill="#666666">[int(10) unsigned]</text>
<polygon fill="none" stroke="#000000" points="683.5,-1642.5 683.5,-1672.5 933.5,-1672.5 933.5,-1642.5 683.5,-1642.5"/>
<text text-anchor="start" x="690.5" y="-1653.9" font-family="Arial" font-size="14.00" fill="#000000">created_at </text>
<text text-anchor="start" x="760.528" y="-1653.9" font-family="Arial" font-size="14.00" fill="#666666">[timestamp]</text>
<polygon fill="none" stroke="#000000" points="683.5,-1612.5 683.5,-1642.5 933.5,-1642.5 933.5,-1612.5 683.5,-1612.5"/>
<text text-anchor="start" x="690.5" y="-1623.9" font-family="Arial" font-size="14.00" fill="#000000">updated_at </text>
<text text-anchor="start" x="764.4326" y="-1623.9" font-family="Arial" font-size="14.00" fill="#666666">[timestamp]</text>
<polygon fill="none" stroke="#000000" stroke-width="3" points="682,-1611.5 682,-1859.5 935,-1859.5 935,-1611.5 682,-1611.5"/>
</g>
<!-- accounts -->
<g id="node3" class="node">
<title>accounts</title>
<polygon fill="#efefef" stroke="transparent" points="43.5,-942.5 43.5,-977.5 358.5,-977.5 358.5,-942.5 43.5,-942.5"/>
<polygon fill="none" stroke="#000000" points="43.5,-942.5 43.5,-977.5 358.5,-977.5 358.5,-942.5 43.5,-942.5"/>
<text text-anchor="start" x="116.3596" y="-955.3" font-family="Arial Bold" font-size="18.00" fill="#000000">accounts</text>
<text text-anchor="start" x="188.3866" y="-955.3" font-family="Arial" font-size="14.00" fill="#000000"> </text>
<text text-anchor="start" x="192.2772" y="-955.3" font-family="Arial" font-size="14.00" fill="#666666">[BASE TABLE]</text>
<polygon fill="none" stroke="#000000" points="43.5,-912.5 43.5,-942.5 358.5,-942.5 358.5,-912.5 43.5,-912.5"/>
<text text-anchor="start" x="50.5" y="-923.9" font-family="Arial" font-size="14.00" fill="#000000">id </text>
<text text-anchor="start" x="65.2798" y="-923.9" font-family="Arial" font-size="14.00" fill="#666666">[int(10) unsigned]</text>
<polygon fill="none" stroke="#000000" points="43.5,-882.5 43.5,-912.5 358.5,-912.5 358.5,-882.5 43.5,-882.5"/>
<text text-anchor="start" x="50.073" y="-893.9" font-family="Arial" font-size="14.00" fill="#000000">has_access_to_paid_version_for_free </text>
<text text-anchor="start" x="290.4824" y="-893.9" font-family="Arial" font-size="14.00" fill="#666666">[tinyint(1)]</text>
<polygon fill="none" stroke="#000000" points="43.5,-852.5 43.5,-882.5 358.5,-882.5 358.5,-852.5 43.5,-852.5"/>
<text text-anchor="start" x="50.5" y="-863.9" font-family="Arial" font-size="14.00" fill="#000000">api_key </text>
<text text-anchor="start" x="102.6276" y="-863.9" font-family="Arial" font-size="14.00" fill="#666666">[varchar(255)]</text>
<polygon fill="none" stroke="#000000" points="43.5,-822.5 43.5,-852.5 358.5,-852.5 358.5,-822.5 43.5,-822.5"/>
<text text-anchor="start" x="50.5" y="-833.9" font-family="Arial" font-size="14.00" fill="#000000">number_of_invitations_sent </text>
<text text-anchor="start" x="225.5504" y="-833.9" font-family="Arial" font-size="14.00" fill="#666666">[int(11)]</text>
<polygon fill="none" stroke="#000000" points="43.5,-792.5 43.5,-822.5 358.5,-822.5 358.5,-792.5 43.5,-792.5"/>
<text text-anchor="start" x="50.5" y="-803.9" font-family="Arial" font-size="14.00" fill="#000000">default_time_reminder_is_sent </text>
<text text-anchor="start" x="245.7608" y="-803.9" font-family="Arial" font-size="14.00" fill="#666666">[varchar(255)]</text>
<polygon fill="none" stroke="#000000" points="43.5,-762.5 43.5,-792.5 358.5,-792.5 358.5,-762.5 43.5,-762.5"/>
<text text-anchor="start" x="50.5" y="-773.9" font-family="Arial" font-size="14.00" fill="#000000">default_gender_id </text>
<text text-anchor="start" x="166.4368" y="-773.9" font-family="Arial" font-size="14.00" fill="#666666">[int(10) unsigned]</text>
<polygon fill="none" stroke="#000000" points="43.5,-732.5 43.5,-762.5 358.5,-762.5 358.5,-732.5 43.5,-732.5"/>
<text text-anchor="start" x="50.5" y="-743.9" font-family="Arial" font-size="14.00" fill="#000000">stripe_id </text>
<text text-anchor="start" x="107.2854" y="-743.9" font-family="Arial" font-size="14.00" fill="#666666">[varchar(255)]</text>
<polygon fill="none" stroke="#000000" points="43.5,-702.5 43.5,-732.5 358.5,-732.5 358.5,-702.5 43.5,-702.5"/>
<text text-anchor="start" x="50.5" y="-713.9" font-family="Arial" font-size="14.00" fill="#000000">card_brand </text>
<text text-anchor="start" x="125.19" y="-713.9" font-family="Arial" font-size="14.00" fill="#666666">[varchar(255)]</text>
<polygon fill="none" stroke="#000000" points="43.5,-672.5 43.5,-702.5 358.5,-702.5 358.5,-672.5 43.5,-672.5"/>
<text text-anchor="start" x="50.5" y="-683.9" font-family="Arial" font-size="14.00" fill="#000000">card_last_four </text>
<text text-anchor="start" x="143.0778" y="-683.9" font-family="Arial" font-size="14.00" fill="#666666">[varchar(4)]</text>
<polygon fill="none" stroke="#000000" points="43.5,-642.5 43.5,-672.5 358.5,-672.5 358.5,-642.5 43.5,-642.5"/>
<text text-anchor="start" x="50.5" y="-653.9" font-family="Arial" font-size="14.00" fill="#000000">trial_ends_at </text>
<text text-anchor="start" x="134.5238" y="-653.9" font-family="Arial" font-size="14.00" fill="#666666">[timestamp]</text>
<polygon fill="none" stroke="#000000" points="43.5,-612.5 43.5,-642.5 358.5,-642.5 358.5,-612.5 43.5,-612.5"/>
<text text-anchor="start" x="50.5" y="-623.9" font-family="Arial" font-size="14.00" fill="#000000">legacy_free_plan_unlimited_contacts </text>
<text text-anchor="start" x="284.6766" y="-623.9" font-family="Arial" font-size="14.00" fill="#666666">[tinyint(1)]</text>
<polygon fill="none" stroke="#000000" points="43.5,-582.5 43.5,-612.5 358.5,-612.5 358.5,-582.5 43.5,-582.5"/>
<text text-anchor="start" x="50.5" y="-593.9" font-family="Arial" font-size="14.00" fill="#000000">created_at </text>
<text text-anchor="start" x="120.528" y="-593.9" font-family="Arial" font-size="14.00" fill="#666666">[timestamp]</text>
<polygon fill="none" stroke="#000000" points="43.5,-552.5 43.5,-582.5 358.5,-582.5 358.5,-552.5 43.5,-552.5"/>
<text text-anchor="start" x="50.5" y="-563.9" font-family="Arial" font-size="14.00" fill="#000000">updated_at </text>
<text text-anchor="start" x="124.4326" y="-563.9" font-family="Arial" font-size="14.00" fill="#666666">[timestamp]</text>
</g>
<!-- relationships&#45;&gt;accounts -->
<g id="edge2" class="edge">
<title>relationships:account_id&#45;&gt;accounts:id</title>
<path fill="none" stroke="#000000" d="M673.1373,-1777.3619C518.4276,-1773.1774 481.6813,-1674.2531 410.5,-1531 380.5507,-1470.7267 425.804,-927.5 358.5,-927.5"/>
<polygon fill="#000000" stroke="#000000" points="673.5009,-1777.3667 683.44,-1781.9996 678.5004,-1777.4333 683.5,-1777.5 683.5,-1777.5 683.5,-1777.5 678.5004,-1777.4333 683.56,-1773.0004 673.5009,-1777.3667 673.5009,-1777.3667"/>
<text text-anchor="start" x="419.877" y="-1787.5" font-family="Arial" font-size="10.00" fill="#000000">FOREIGN KEY (account_id) REFERENCES accounts (id)</text>
</g>
<!-- relationship_types -->
<g id="node4" class="node">
<title>relationship_types</title>
<polygon fill="#efefef" stroke="transparent" points="462.5,-867.5 462.5,-902.5 756.5,-902.5 756.5,-867.5 462.5,-867.5"/>
<polygon fill="none" stroke="#000000" points="462.5,-867.5 462.5,-902.5 756.5,-902.5 756.5,-867.5 462.5,-867.5"/>
<text text-anchor="start" x="488.3556" y="-880.3" font-family="Arial Bold" font-size="18.00" fill="#000000">relationship_types</text>
<text text-anchor="start" x="633.3906" y="-880.3" font-family="Arial" font-size="14.00" fill="#000000"> </text>
<text text-anchor="start" x="637.2812" y="-880.3" font-family="Arial" font-size="14.00" fill="#666666">[BASE TABLE]</text>
<polygon fill="none" stroke="#000000" points="462.5,-837.5 462.5,-867.5 756.5,-867.5 756.5,-837.5 462.5,-837.5"/>
<text text-anchor="start" x="469.5" y="-848.9" font-family="Arial" font-size="14.00" fill="#000000">id </text>
<text text-anchor="start" x="484.2798" y="-848.9" font-family="Arial" font-size="14.00" fill="#666666">[int(10) unsigned]</text>
<polygon fill="none" stroke="#000000" points="462.5,-807.5 462.5,-837.5 756.5,-837.5 756.5,-807.5 462.5,-807.5"/>
<text text-anchor="start" x="469.5" y="-818.9" font-family="Arial" font-size="14.00" fill="#000000">account_id </text>
<text text-anchor="start" x="541.0834" y="-818.9" font-family="Arial" font-size="14.00" fill="#666666">[int(10) unsigned]</text>
<polygon fill="none" stroke="#000000" points="462.5,-777.5 462.5,-807.5 756.5,-807.5 756.5,-777.5 462.5,-777.5"/>
<text text-anchor="start" x="469.5" y="-788.9" font-family="Arial" font-size="14.00" fill="#000000">name </text>
<text text-anchor="start" x="508.399" y="-788.9" font-family="Arial" font-size="14.00" fill="#666666">[varchar(255)]</text>
<polygon fill="none" stroke="#000000" points="462.5,-747.5 462.5,-777.5 756.5,-777.5 756.5,-747.5 462.5,-747.5"/>
<text text-anchor="start" x="469.5" y="-758.9" font-family="Arial" font-size="14.00" fill="#000000">name_reverse_relationship </text>
<text text-anchor="start" x="642.1998" y="-758.9" font-family="Arial" font-size="14.00" fill="#666666">[varchar(255)]</text>
<polygon fill="none" stroke="#000000" points="462.5,-717.5 462.5,-747.5 756.5,-747.5 756.5,-717.5 462.5,-717.5"/>
<text text-anchor="start" x="469.4594" y="-728.9" font-family="Arial" font-size="14.00" fill="#000000">relationship_type_group_id </text>
<text text-anchor="start" x="641.4004" y="-728.9" font-family="Arial" font-size="14.00" fill="#666666">[int(10) unsigned]</text>
<polygon fill="none" stroke="#000000" points="462.5,-687.5 462.5,-717.5 756.5,-717.5 756.5,-687.5 462.5,-687.5"/>
<text text-anchor="start" x="469.5" y="-698.9" font-family="Arial" font-size="14.00" fill="#000000">delible </text>
<text text-anchor="start" x="513.8408" y="-698.9" font-family="Arial" font-size="14.00" fill="#666666">[tinyint(1)]</text>
<polygon fill="none" stroke="#000000" points="462.5,-657.5 462.5,-687.5 756.5,-687.5 756.5,-657.5 462.5,-657.5"/>
<text text-anchor="start" x="469.5" y="-668.9" font-family="Arial" font-size="14.00" fill="#000000">created_at </text>
<text text-anchor="start" x="539.528" y="-668.9" font-family="Arial" font-size="14.00" fill="#666666">[timestamp]</text>
<polygon fill="none" stroke="#000000" points="462.5,-627.5 462.5,-657.5 756.5,-657.5 756.5,-627.5 462.5,-627.5"/>
<text text-anchor="start" x="469.5" y="-638.9" font-family="Arial" font-size="14.00" fill="#000000">updated_at </text>
<text text-anchor="start" x="543.4326" y="-638.9" font-family="Arial" font-size="14.00" fill="#666666">[timestamp]</text>
</g>
<!-- relationships&#45;&gt;relationship_types -->
<g id="edge3" class="edge">
<title>relationships:relationship_type_id&#45;&gt;relationship_types:id</title>
<path fill="none" stroke="#000000" d="M673.3343,-1746.6342C500.7897,-1715.4533 952.4442,-852.5 756.5,-852.5"/>
<polygon fill="#000000" stroke="#000000" points="673.5361,-1746.6513 683.1181,-1751.9838 678.518,-1747.0756 683.5,-1747.5 683.5,-1747.5 683.5,-1747.5 678.518,-1747.0756 683.8819,-1743.0162 673.5361,-1746.6513 673.5361,-1746.6513"/>
<text text-anchor="start" x="338.317" y="-1757.5" font-family="Arial" font-size="10.00" fill="#000000">FOREIGN KEY (relationship_type_id) REFERENCES relationship_types (id)</text>
</g>
<!-- contacts -->
<g id="node5" class="node">
<title>contacts</title>
<polygon fill="#efefef" stroke="transparent" points="861.5,-1452.5 861.5,-1487.5 1152.5,-1487.5 1152.5,-1452.5 861.5,-1452.5"/>
<polygon fill="none" stroke="#000000" points="861.5,-1452.5 861.5,-1487.5 1152.5,-1487.5 1152.5,-1452.5 861.5,-1452.5"/>
<text text-anchor="start" x="924.8616" y="-1465.3" font-family="Arial Bold" font-size="18.00" fill="#000000">contacts</text>
<text text-anchor="start" x="991.8846" y="-1465.3" font-family="Arial" font-size="14.00" fill="#000000"> </text>
<text text-anchor="start" x="995.7752" y="-1465.3" font-family="Arial" font-size="14.00" fill="#666666">[BASE TABLE]</text>
<polygon fill="none" stroke="#000000" points="861.5,-1422.5 861.5,-1452.5 1152.5,-1452.5 1152.5,-1422.5 861.5,-1422.5"/>
<text text-anchor="start" x="868.5" y="-1433.9" font-family="Arial" font-size="14.00" fill="#000000">id </text>
<text text-anchor="start" x="883.2798" y="-1433.9" font-family="Arial" font-size="14.00" fill="#666666">[int(10) unsigned]</text>
<polygon fill="none" stroke="#000000" points="861.5,-1392.5 861.5,-1422.5 1152.5,-1422.5 1152.5,-1392.5 861.5,-1392.5"/>
<text text-anchor="start" x="868.5" y="-1403.9" font-family="Arial" font-size="14.00" fill="#000000">account_id </text>
<text text-anchor="start" x="940.0834" y="-1403.9" font-family="Arial" font-size="14.00" fill="#666666">[int(10) unsigned]</text>
<polygon fill="none" stroke="#000000" points="861.5,-1362.5 861.5,-1392.5 1152.5,-1392.5 1152.5,-1362.5 861.5,-1362.5"/>
<text text-anchor="start" x="868.5" y="-1373.9" font-family="Arial" font-size="14.00" fill="#000000">address_book_id </text>
<text text-anchor="start" x="978.9838" y="-1373.9" font-family="Arial" font-size="14.00" fill="#666666">[bigint(20) unsigned]</text>
<polygon fill="none" stroke="#000000" points="861.5,-1332.5 861.5,-1362.5 1152.5,-1362.5 1152.5,-1332.5 861.5,-1332.5"/>
<text text-anchor="start" x="868.5" y="-1343.9" font-family="Arial" font-size="14.00" fill="#000000">first_name </text>
<text text-anchor="start" x="937.73" y="-1343.9" font-family="Arial" font-size="14.00" fill="#666666">[varchar(255)]</text>
<polygon fill="none" stroke="#000000" points="861.5,-1302.5 861.5,-1332.5 1152.5,-1332.5 1152.5,-1302.5 861.5,-1302.5"/>
<text text-anchor="start" x="868.5" y="-1313.9" font-family="Arial" font-size="14.00" fill="#000000">middle_name </text>
<text text-anchor="start" x="956.4032" y="-1313.9" font-family="Arial" font-size="14.00" fill="#666666">[varchar(255)]</text>
<polygon fill="none" stroke="#000000" points="861.5,-1272.5 861.5,-1302.5 1152.5,-1302.5 1152.5,-1272.5 861.5,-1272.5"/>
<text text-anchor="start" x="868.5" y="-1283.9" font-family="Arial" font-size="14.00" fill="#000000">last_name </text>
<text text-anchor="start" x="936.9614" y="-1283.9" font-family="Arial" font-size="14.00" fill="#666666">[varchar(255)]</text>
<polygon fill="none" stroke="#000000" points="861.5,-1242.5 861.5,-1272.5 1152.5,-1272.5 1152.5,-1242.5 861.5,-1242.5"/>
<text text-anchor="start" x="868.5" y="-1253.9" font-family="Arial" font-size="14.00" fill="#000000">nickname </text>
<text text-anchor="start" x="932.2882" y="-1253.9" font-family="Arial" font-size="14.00" fill="#666666">[varchar(255)]</text>
<polygon fill="none" stroke="#000000" points="861.5,-1212.5 861.5,-1242.5 1152.5,-1242.5 1152.5,-1212.5 861.5,-1212.5"/>
<text text-anchor="start" x="868.5" y="-1223.9" font-family="Arial" font-size="14.00" fill="#000000">gender_id </text>
<text text-anchor="start" x="934.636" y="-1223.9" font-family="Arial" font-size="14.00" fill="#666666">[int(11)]</text>
<polygon fill="none" stroke="#000000" points="861.5,-1182.5 861.5,-1212.5 1152.5,-1212.5 1152.5,-1182.5 861.5,-1182.5"/>
<text text-anchor="start" x="868.5" y="-1193.9" font-family="Arial" font-size="14.00" fill="#000000">description </text>
<text text-anchor="start" x="940.068" y="-1193.9" font-family="Arial" font-size="14.00" fill="#666666">[varchar(255)]</text>
<polygon fill="none" stroke="#000000" points="861.5,-1152.5 861.5,-1182.5 1152.5,-1182.5 1152.5,-1152.5 861.5,-1152.5"/>
<text text-anchor="start" x="868.5" y="-1163.9" font-family="Arial" font-size="14.00" fill="#000000">uuid </text>
<text text-anchor="start" x="898.845" y="-1163.9" font-family="Arial" font-size="14.00" fill="#666666">[char(36)]</text>
<polygon fill="none" stroke="#000000" points="861.5,-1122.5 861.5,-1152.5 1152.5,-1152.5 1152.5,-1122.5 861.5,-1122.5"/>
<text text-anchor="start" x="868.5" y="-1133.9" font-family="Arial" font-size="14.00" fill="#000000">is_starred </text>
<text text-anchor="start" x="933.8394" y="-1133.9" font-family="Arial" font-size="14.00" fill="#666666">[tinyint(1)]</text>
<polygon fill="none" stroke="#000000" points="861.5,-1092.5 861.5,-1122.5 1152.5,-1122.5 1152.5,-1092.5 861.5,-1092.5"/>
<text text-anchor="start" x="868.5" y="-1103.9" font-family="Arial" font-size="14.00" fill="#000000">is_partial </text>
<text text-anchor="start" x="928.392" y="-1103.9" font-family="Arial" font-size="14.00" fill="#666666">[tinyint(1)]</text>
<polygon fill="none" stroke="#000000" points="861.5,-1062.5 861.5,-1092.5 1152.5,-1092.5 1152.5,-1062.5 861.5,-1062.5"/>
<text text-anchor="start" x="868.5" y="-1073.9" font-family="Arial" font-size="14.00" fill="#000000">is_active </text>
<text text-anchor="start" x="926.8422" y="-1073.9" font-family="Arial" font-size="14.00" fill="#666666">[tinyint(1)]</text>
<polygon fill="none" stroke="#000000" points="861.5,-1032.5 861.5,-1062.5 1152.5,-1062.5 1152.5,-1032.5 861.5,-1032.5"/>
<text text-anchor="start" x="868.5" y="-1043.9" font-family="Arial" font-size="14.00" fill="#000000">is_dead </text>
<text text-anchor="start" x="921.4102" y="-1043.9" font-family="Arial" font-size="14.00" fill="#666666">[tinyint(1)]</text>
<polygon fill="none" stroke="#000000" points="861.5,-1002.5 861.5,-1032.5 1152.5,-1032.5 1152.5,-1002.5 861.5,-1002.5"/>
<text text-anchor="start" x="868.1186" y="-1013.9" font-family="Arial" font-size="14.00" fill="#000000">deceased_special_date_id </text>
<text text-anchor="start" x="1037.7412" y="-1013.9" font-family="Arial" font-size="14.00" fill="#666666">[int(10) unsigned]</text>
<polygon fill="none" stroke="#000000" points="861.5,-972.5 861.5,-1002.5 1152.5,-1002.5 1152.5,-972.5 861.5,-972.5"/>
<text text-anchor="start" x="868.5" y="-983.9" font-family="Arial" font-size="14.00" fill="#000000">deceased_reminder_id </text>
<text text-anchor="start" x="1014.7594" y="-983.9" font-family="Arial" font-size="14.00" fill="#666666">[int(10) unsigned]</text>
<polygon fill="none" stroke="#000000" points="861.5,-942.5 861.5,-972.5 1152.5,-972.5 1152.5,-942.5 861.5,-942.5"/>
<text text-anchor="start" x="868.5" y="-953.9" font-family="Arial" font-size="14.00" fill="#000000">last_talked_to </text>
<text text-anchor="start" x="958.7538" y="-953.9" font-family="Arial" font-size="14.00" fill="#666666">[date]</text>
<polygon fill="none" stroke="#000000" points="861.5,-912.5 861.5,-942.5 1152.5,-942.5 1152.5,-912.5 861.5,-912.5"/>
<text text-anchor="start" x="868.5" y="-923.9" font-family="Arial" font-size="14.00" fill="#000000">stay_in_touch_frequency </text>
<text text-anchor="start" x="1028.0034" y="-923.9" font-family="Arial" font-size="14.00" fill="#666666">[int(11)]</text>
<polygon fill="none" stroke="#000000" points="861.5,-882.5 861.5,-912.5 1152.5,-912.5 1152.5,-882.5 861.5,-882.5"/>
<text text-anchor="start" x="868.5" y="-893.9" font-family="Arial" font-size="14.00" fill="#000000">stay_in_touch_trigger_date </text>
<text text-anchor="start" x="1041.2264" y="-893.9" font-family="Arial" font-size="14.00" fill="#666666">[datetime]</text>
<polygon fill="none" stroke="#000000" points="861.5,-852.5 861.5,-882.5 1152.5,-882.5 1152.5,-852.5 861.5,-852.5"/>
<text text-anchor="start" x="868.5" y="-863.9" font-family="Arial" font-size="14.00" fill="#000000">birthday_special_date_id </text>
<text text-anchor="start" x="1027.2152" y="-863.9" font-family="Arial" font-size="14.00" fill="#666666">[int(10) unsigned]</text>
<polygon fill="none" stroke="#000000" points="861.5,-822.5 861.5,-852.5 1152.5,-852.5 1152.5,-822.5 861.5,-822.5"/>
<text text-anchor="start" x="868.5" y="-833.9" font-family="Arial" font-size="14.00" fill="#000000">birthday_reminder_id </text>
<text text-anchor="start" x="1003.852" y="-833.9" font-family="Arial" font-size="14.00" fill="#666666">[int(10) unsigned]</text>
<polygon fill="none" stroke="#000000" points="861.5,-792.5 861.5,-822.5 1152.5,-822.5 1152.5,-792.5 861.5,-792.5"/>
<text text-anchor="start" x="868.5" y="-803.9" font-family="Arial" font-size="14.00" fill="#000000">first_met_through_contact_id </text>
<text text-anchor="start" x="1052.8856" y="-803.9" font-family="Arial" font-size="14.00" fill="#666666">[int(11)]</text>
<polygon fill="none" stroke="#000000" points="861.5,-762.5 861.5,-792.5 1152.5,-792.5 1152.5,-762.5 861.5,-762.5"/>
<text text-anchor="start" x="868.5" y="-773.9" font-family="Arial" font-size="14.00" fill="#000000">first_met_special_date_id </text>
<text text-anchor="start" x="1031.0918" y="-773.9" font-family="Arial" font-size="14.00" fill="#666666">[int(10) unsigned]</text>
<polygon fill="none" stroke="#000000" points="861.5,-732.5 861.5,-762.5 1152.5,-762.5 1152.5,-732.5 861.5,-732.5"/>
<text text-anchor="start" x="868.5" y="-743.9" font-family="Arial" font-size="14.00" fill="#000000">first_met_reminder_id </text>
<text text-anchor="start" x="1007.7286" y="-743.9" font-family="Arial" font-size="14.00" fill="#666666">[int(10) unsigned]</text>
<polygon fill="none" stroke="#000000" points="861.5,-702.5 861.5,-732.5 1152.5,-732.5 1152.5,-702.5 861.5,-702.5"/>
<text text-anchor="start" x="868.5" y="-713.9" font-family="Arial" font-size="14.00" fill="#000000">first_met_where </text>
<text text-anchor="start" x="971.953" y="-713.9" font-family="Arial" font-size="14.00" fill="#666666">[varchar(255)]</text>
<polygon fill="none" stroke="#000000" points="861.5,-672.5 861.5,-702.5 1152.5,-702.5 1152.5,-672.5 861.5,-672.5"/>
<text text-anchor="start" x="868.5" y="-683.9" font-family="Arial" font-size="14.00" fill="#000000">first_met_additional_info </text>
<text text-anchor="start" x="1024.089" y="-683.9" font-family="Arial" font-size="14.00" fill="#666666">[longtext]</text>
<polygon fill="none" stroke="#000000" points="861.5,-642.5 861.5,-672.5 1152.5,-672.5 1152.5,-642.5 861.5,-642.5"/>
<text text-anchor="start" x="868.5" y="-653.9" font-family="Arial" font-size="14.00" fill="#000000">job </text>
<text text-anchor="start" x="891.0624" y="-653.9" font-family="Arial" font-size="14.00" fill="#666666">[varchar(255)]</text>
<polygon fill="none" stroke="#000000" points="861.5,-612.5 861.5,-642.5 1152.5,-642.5 1152.5,-612.5 861.5,-612.5"/>
<text text-anchor="start" x="868.5" y="-623.9" font-family="Arial" font-size="14.00" fill="#000000">company </text>
<text text-anchor="start" x="929.1816" y="-623.9" font-family="Arial" font-size="14.00" fill="#666666">[varchar(255)]</text>
<polygon fill="none" stroke="#000000" points="861.5,-582.5 861.5,-612.5 1152.5,-612.5 1152.5,-582.5 861.5,-582.5"/>
<text text-anchor="start" x="868.5" y="-593.9" font-family="Arial" font-size="14.00" fill="#000000">food_preferences </text>
<text text-anchor="start" x="981.319" y="-593.9" font-family="Arial" font-size="14.00" fill="#666666">[longtext]</text>
<polygon fill="none" stroke="#000000" points="861.5,-552.5 861.5,-582.5 1152.5,-582.5 1152.5,-552.5 861.5,-552.5"/>
<text text-anchor="start" x="868.5" y="-563.9" font-family="Arial" font-size="14.00" fill="#000000">avatar_source </text>
<text text-anchor="start" x="961.0806" y="-563.9" font-family="Arial" font-size="14.00" fill="#666666">[varchar(255)]</text>
<polygon fill="none" stroke="#000000" points="861.5,-522.5 861.5,-552.5 1152.5,-552.5 1152.5,-522.5 861.5,-522.5"/>
<text text-anchor="start" x="868.5" y="-533.9" font-family="Arial" font-size="14.00" fill="#000000">avatar_gravatar_url </text>
<text text-anchor="start" x="993.7468" y="-533.9" font-family="Arial" font-size="14.00" fill="#666666">[varchar(250)]</text>
<polygon fill="none" stroke="#000000" points="861.5,-492.5 861.5,-522.5 1152.5,-522.5 1152.5,-492.5 861.5,-492.5"/>
<text text-anchor="start" x="868.5" y="-503.9" font-family="Arial" font-size="14.00" fill="#000000">avatar_adorable_uuid </text>
<text text-anchor="start" x="1007.772" y="-503.9" font-family="Arial" font-size="14.00" fill="#666666">[char(36)]</text>
<polygon fill="none" stroke="#000000" points="861.5,-462.5 861.5,-492.5 1152.5,-492.5 1152.5,-462.5 861.5,-462.5"/>
<text text-anchor="start" x="868.5" y="-473.9" font-family="Arial" font-size="14.00" fill="#000000">avatar_adorable_url </text>
<text text-anchor="start" x="996.8674" y="-473.9" font-family="Arial" font-size="14.00" fill="#666666">[varchar(250)]</text>
<polygon fill="none" stroke="#000000" points="861.5,-432.5 861.5,-462.5 1152.5,-462.5 1152.5,-432.5 861.5,-432.5"/>
<text text-anchor="start" x="868.5" y="-443.9" font-family="Arial" font-size="14.00" fill="#000000">avatar_default_url </text>
<text text-anchor="start" x="984.4228" y="-443.9" font-family="Arial" font-size="14.00" fill="#666666">[varchar(250)]</text>
<polygon fill="none" stroke="#000000" points="861.5,-402.5 861.5,-432.5 1152.5,-432.5 1152.5,-402.5 861.5,-402.5"/>
<text text-anchor="start" x="868.5" y="-413.9" font-family="Arial" font-size="14.00" fill="#000000">avatar_photo_id </text>
<text text-anchor="start" x="972.765" y="-413.9" font-family="Arial" font-size="14.00" fill="#666666">[int(10) unsigned]</text>
<polygon fill="none" stroke="#000000" points="861.5,-372.5 861.5,-402.5 1152.5,-402.5 1152.5,-372.5 861.5,-372.5"/>
<text text-anchor="start" x="868.5" y="-383.9" font-family="Arial" font-size="14.00" fill="#000000">has_avatar </text>
<text text-anchor="start" x="941.6374" y="-383.9" font-family="Arial" font-size="14.00" fill="#666666">[tinyint(1)]</text>
<polygon fill="none" stroke="#000000" points="861.5,-342.5 861.5,-372.5 1152.5,-372.5 1152.5,-342.5 861.5,-342.5"/>
<text text-anchor="start" x="868.5" y="-353.9" font-family="Arial" font-size="14.00" fill="#000000">avatar_external_url </text>
<text text-anchor="start" x="992.1928" y="-353.9" font-family="Arial" font-size="14.00" fill="#666666">[varchar(400)]</text>
<polygon fill="none" stroke="#000000" points="861.5,-312.5 861.5,-342.5 1152.5,-342.5 1152.5,-312.5 861.5,-312.5"/>
<text text-anchor="start" x="868.5" y="-323.9" font-family="Arial" font-size="14.00" fill="#000000">avatar_file_name </text>
<text text-anchor="start" x="979.7496" y="-323.9" font-family="Arial" font-size="14.00" fill="#666666">[varchar(255)]</text>
<polygon fill="none" stroke="#000000" points="861.5,-282.5 861.5,-312.5 1152.5,-312.5 1152.5,-282.5 861.5,-282.5"/>
<text text-anchor="start" x="868.5" y="-293.9" font-family="Arial" font-size="14.00" fill="#000000">avatar_location </text>
<text text-anchor="start" x="967.3064" y="-293.9" font-family="Arial" font-size="14.00" fill="#666666">[varchar(255)]</text>
<polygon fill="none" stroke="#000000" points="861.5,-252.5 861.5,-282.5 1152.5,-282.5 1152.5,-252.5 861.5,-252.5"/>
<text text-anchor="start" x="868.5" y="-263.9" font-family="Arial" font-size="14.00" fill="#000000">gravatar_url </text>
<text text-anchor="start" x="947.0652" y="-263.9" font-family="Arial" font-size="14.00" fill="#666666">[varchar(255)]</text>
<polygon fill="none" stroke="#000000" points="861.5,-222.5 861.5,-252.5 1152.5,-252.5 1152.5,-222.5 861.5,-222.5"/>
<text text-anchor="start" x="868.5" y="-233.9" font-family="Arial" font-size="14.00" fill="#000000">vcard </text>
<text text-anchor="start" x="906.6164" y="-233.9" font-family="Arial" font-size="14.00" fill="#666666">[mediumtext]</text>
<polygon fill="none" stroke="#000000" points="861.5,-192.5 861.5,-222.5 1152.5,-222.5 1152.5,-192.5 861.5,-192.5"/>
<text text-anchor="start" x="868.5" y="-203.9" font-family="Arial" font-size="14.00" fill="#000000">last_consulted_at </text>
<text text-anchor="start" x="981.319" y="-203.9" font-family="Arial" font-size="14.00" fill="#666666">[timestamp]</text>
<polygon fill="none" stroke="#000000" points="861.5,-162.5 861.5,-192.5 1152.5,-192.5 1152.5,-162.5 861.5,-162.5"/>
<text text-anchor="start" x="868.5" y="-173.9" font-family="Arial" font-size="14.00" fill="#000000">number_of_views </text>
<text text-anchor="start" x="982.0764" y="-173.9" font-family="Arial" font-size="14.00" fill="#666666">[int(11)]</text>
<polygon fill="none" stroke="#000000" points="861.5,-132.5 861.5,-162.5 1152.5,-162.5 1152.5,-132.5 861.5,-132.5"/>
<text text-anchor="start" x="868.5" y="-143.9" font-family="Arial" font-size="14.00" fill="#000000">created_at </text>
<text text-anchor="start" x="938.528" y="-143.9" font-family="Arial" font-size="14.00" fill="#666666">[timestamp]</text>
<polygon fill="none" stroke="#000000" points="861.5,-102.5 861.5,-132.5 1152.5,-132.5 1152.5,-102.5 861.5,-102.5"/>
<text text-anchor="start" x="868.5" y="-113.9" font-family="Arial" font-size="14.00" fill="#000000">updated_at </text>
<text text-anchor="start" x="942.4326" y="-113.9" font-family="Arial" font-size="14.00" fill="#666666">[timestamp]</text>
<polygon fill="none" stroke="#000000" points="861.5,-72.5 861.5,-102.5 1152.5,-102.5 1152.5,-72.5 861.5,-72.5"/>
<text text-anchor="start" x="868.5" y="-83.9" font-family="Arial" font-size="14.00" fill="#000000">default_avatar_color </text>
<text text-anchor="start" x="999.2054" y="-83.9" font-family="Arial" font-size="14.00" fill="#666666">[varchar(255)]</text>
<polygon fill="none" stroke="#000000" points="861.5,-42.5 861.5,-72.5 1152.5,-72.5 1152.5,-42.5 861.5,-42.5"/>
<text text-anchor="start" x="868.5" y="-53.9" font-family="Arial" font-size="14.00" fill="#000000">has_avatar_bool </text>
<text text-anchor="start" x="975.8744" y="-53.9" font-family="Arial" font-size="14.00" fill="#666666">[tinyint(1)]</text>
</g>
<!-- relationships&#45;&gt;contacts -->
<g id="edge4" class="edge">
<title>relationships:contact_is&#45;&gt;contacts:id</title>
<path fill="none" stroke="#000000" d="M943.6048,-1716.6815C996.9089,-1707.3722 966.7425,-1620.7874 933.5,-1567 914.6909,-1536.5662 880.3091,-1561.4338 861.5,-1531 839.653,-1495.6507 819.9444,-1437.5 861.5,-1437.5"/>
<polygon fill="#000000" stroke="#000000" points="943.4674,-1716.6925 933.1366,-1713.0147 938.4837,-1717.0963 933.5,-1717.5 933.5,-1717.5 933.5,-1717.5 938.4837,-1717.0963 933.8634,-1721.9853 943.4674,-1716.6925 943.4674,-1716.6925"/>
<text text-anchor="start" x="940.9365" y="-1727.5" font-family="Arial" font-size="10.00" fill="#000000">FOREIGN KEY (contact_is) REFERENCES contacts (id)</text>
</g>
<!-- relationships&#45;&gt;contacts -->
<g id="edge5" class="edge">
<title>relationships:of_contact&#45;&gt;contacts:id</title>
<path fill="none" stroke="#000000" d="M943.6523,-1686.4247C983.4701,-1677.1064 959.6761,-1609.3538 933.5,-1567 914.6909,-1536.5662 880.3091,-1561.4338 861.5,-1531 839.653,-1495.6507 819.9444,-1437.5 861.5,-1437.5"/>
<polygon fill="#000000" stroke="#000000" points="943.4444,-1686.4467 933.026,-1683.025 938.4722,-1686.9733 933.5,-1687.5 933.5,-1687.5 933.5,-1687.5 938.4722,-1686.9733 933.974,-1691.975 943.4444,-1686.4467 943.4444,-1686.4467"/>
<text text-anchor="start" x="940.377" y="-1697.5" font-family="Arial" font-size="10.00" fill="#000000">FOREIGN KEY (of_contact) REFERENCES contacts (id)</text>
</g>
<!-- metadata_love_relationships -->
<g id="node2" class="node">
<title>metadata_love_relationships</title>
<polygon fill="#efefef" stroke="transparent" points="638.5,-2312.5 638.5,-2347.5 978.5,-2347.5 978.5,-2312.5 638.5,-2312.5"/>
<polygon fill="none" stroke="#000000" points="638.5,-2312.5 638.5,-2347.5 978.5,-2347.5 978.5,-2312.5 638.5,-2312.5"/>
<text text-anchor="start" x="645.3427" y="-2325.3" font-family="Arial Bold" font-size="18.00" fill="#000000">metadata_love_relationships</text>
<text text-anchor="start" x="874.4035" y="-2325.3" font-family="Arial" font-size="14.00" fill="#000000"> </text>
<text text-anchor="start" x="878.2941" y="-2325.3" font-family="Arial" font-size="14.00" fill="#666666">[BASE TABLE]</text>
<polygon fill="none" stroke="#000000" points="638.5,-2282.5 638.5,-2312.5 978.5,-2312.5 978.5,-2282.5 638.5,-2282.5"/>
<text text-anchor="start" x="645.5" y="-2293.9" font-family="Arial" font-size="14.00" fill="#000000">id </text>
<text text-anchor="start" x="660.2798" y="-2293.9" font-family="Arial" font-size="14.00" fill="#666666">[int(10) unsigned]</text>
<polygon fill="none" stroke="#000000" points="638.5,-2252.5 638.5,-2282.5 978.5,-2282.5 978.5,-2252.5 638.5,-2252.5"/>
<text text-anchor="start" x="645.5" y="-2263.9" font-family="Arial" font-size="14.00" fill="#000000">account_id </text>
<text text-anchor="start" x="717.0834" y="-2263.9" font-family="Arial" font-size="14.00" fill="#666666">[int(10) unsigned]</text>
<polygon fill="none" stroke="#000000" points="638.5,-2222.5 638.5,-2252.5 978.5,-2252.5 978.5,-2222.5 638.5,-2222.5"/>
<text text-anchor="start" x="645.5" y="-2233.9" font-family="Arial" font-size="14.00" fill="#000000">relationship_id </text>
<text text-anchor="start" x="739.629" y="-2233.9" font-family="Arial" font-size="14.00" fill="#666666">[int(10) unsigned]</text>
<polygon fill="none" stroke="#000000" points="638.5,-2192.5 638.5,-2222.5 978.5,-2222.5 978.5,-2192.5 638.5,-2192.5"/>
<text text-anchor="start" x="645.5" y="-2203.9" font-family="Arial" font-size="14.00" fill="#000000">is_active </text>
<text text-anchor="start" x="703.8422" y="-2203.9" font-family="Arial" font-size="14.00" fill="#666666">[tinyint(1)]</text>
<polygon fill="none" stroke="#000000" points="638.5,-2162.5 638.5,-2192.5 978.5,-2192.5 978.5,-2162.5 638.5,-2162.5"/>
<text text-anchor="start" x="645.5" y="-2173.9" font-family="Arial" font-size="14.00" fill="#000000">notes </text>
<text text-anchor="start" x="683.629" y="-2173.9" font-family="Arial" font-size="14.00" fill="#666666">[mediumtext]</text>
<polygon fill="none" stroke="#000000" points="638.5,-2132.5 638.5,-2162.5 978.5,-2162.5 978.5,-2132.5 638.5,-2132.5"/>
<text text-anchor="start" x="645.5" y="-2143.9" font-family="Arial" font-size="14.00" fill="#000000">meet_date </text>
<text text-anchor="start" x="715.528" y="-2143.9" font-family="Arial" font-size="14.00" fill="#666666">[datetime]</text>
<polygon fill="none" stroke="#000000" points="638.5,-2102.5 638.5,-2132.5 978.5,-2132.5 978.5,-2102.5 638.5,-2102.5"/>
<text text-anchor="start" x="645.5" y="-2113.9" font-family="Arial" font-size="14.00" fill="#000000">official_date </text>
<text text-anchor="start" x="724.0778" y="-2113.9" font-family="Arial" font-size="14.00" fill="#666666">[datetime]</text>
<polygon fill="none" stroke="#000000" points="638.5,-2072.5 638.5,-2102.5 978.5,-2102.5 978.5,-2072.5 638.5,-2072.5"/>
<text text-anchor="start" x="645.5" y="-2083.9" font-family="Arial" font-size="14.00" fill="#000000">breakup_date </text>
<text text-anchor="start" x="734.9852" y="-2083.9" font-family="Arial" font-size="14.00" fill="#666666">[datetime]</text>
<polygon fill="none" stroke="#000000" points="638.5,-2042.5 638.5,-2072.5 978.5,-2072.5 978.5,-2042.5 638.5,-2042.5"/>
<text text-anchor="start" x="645.5" y="-2053.9" font-family="Arial" font-size="14.00" fill="#000000">breakup_reason </text>
<text text-anchor="start" x="750.5378" y="-2053.9" font-family="Arial" font-size="14.00" fill="#666666">[mediumtext]</text>
<polygon fill="none" stroke="#000000" points="638.5,-2012.5 638.5,-2042.5 978.5,-2042.5 978.5,-2012.5 638.5,-2012.5"/>
<text text-anchor="start" x="645.5" y="-2023.9" font-family="Arial" font-size="14.00" fill="#000000">created_at </text>
<text text-anchor="start" x="715.528" y="-2023.9" font-family="Arial" font-size="14.00" fill="#666666">[timestamp]</text>
<polygon fill="none" stroke="#000000" points="638.5,-1982.5 638.5,-2012.5 978.5,-2012.5 978.5,-1982.5 638.5,-1982.5"/>
<text text-anchor="start" x="645.5" y="-1993.9" font-family="Arial" font-size="14.00" fill="#000000">updated_at </text>
<text text-anchor="start" x="719.4326" y="-1993.9" font-family="Arial" font-size="14.00" fill="#666666">[timestamp]</text>
</g>
<!-- metadata_love_relationships&#45;&gt;relationships -->
<g id="edge1" class="edge">
<title>metadata_love_relationships:relationship_id&#45;&gt;relationships:id</title>
<path fill="none" stroke="#000000" d="M988.683,-2237.084C1168.9808,-2222.1032 1122.1832,-1807.5 933.5,-1807.5"/>
<polygon fill="#000000" stroke="#000000" points="988.4917,-2237.0917 978.3163,-2233.0037 983.4958,-2237.2959 978.5,-2237.5 978.5,-2237.5 978.5,-2237.5 983.4958,-2237.2959 978.6837,-2241.9963 988.4917,-2237.0917 988.4917,-2237.0917"/>
<text text-anchor="start" x="985.773" y="-2247.5" font-family="Arial" font-size="10.00" fill="#000000">FOREIGN KEY (relationship_id) REFERENCES relationships (id)</text>
</g>
</g>
</svg>
