<?xml version="1.0" encoding="UTF-8" standalone="no"?>
<!DOCTYPE svg PUBLIC "-//W3C//DTD SVG 1.1//EN"
 "http://www.w3.org/Graphics/SVG/1.1/DTD/svg11.dtd">
<!-- Generated by graphviz version 2.40.1 (20161225.0304)
 -->
<!-- Title: reminders Pages: 1 -->
<svg width="981pt" height="2609pt"
 viewBox="0.00 0.00 981.00 2609.00" xmlns="http://www.w3.org/2000/svg" xmlns:xlink="http://www.w3.org/1999/xlink">
<g id="graph0" class="graph" transform="scale(1 1) rotate(0) translate(4 2605)">
<title>reminders</title>
<polygon fill="#ffffff" stroke="transparent" points="-4,4 -4,-2605 977,-2605 977,4 -4,4"/>
<!-- reminders -->
<g id="node1" class="node">
<title>reminders</title>
<polygon fill="#efefef" stroke="transparent" points="266.5,-1972.5 266.5,-2007.5 466.5,-2007.5 466.5,-1972.5 266.5,-1972.5"/>
<polygon fill="none" stroke="#000000" points="266.5,-1972.5 266.5,-2007.5 466.5,-2007.5 466.5,-1972.5 266.5,-1972.5"/>
<text text-anchor="start" x="277.8753" y="-1985.3" font-family="Arial Bold" font-size="18.00" fill="#000000">reminders</text>
<text text-anchor="start" x="357.8709" y="-1985.3" font-family="Arial" font-size="14.00" fill="#000000"> </text>
<text text-anchor="start" x="361.7615" y="-1985.3" font-family="Arial" font-size="14.00" fill="#666666">[BASE TABLE]</text>
<polygon fill="none" stroke="#000000" points="266.5,-1942.5 266.5,-1972.5 466.5,-1972.5 466.5,-1942.5 266.5,-1942.5"/>
<text text-anchor="start" x="273.5" y="-1953.9" font-family="Arial" font-size="14.00" fill="#000000">id </text>
<text text-anchor="start" x="288.2798" y="-1953.9" font-family="Arial" font-size="14.00" fill="#666666">[int(10) unsigned]</text>
<polygon fill="none" stroke="#000000" points="266.5,-1912.5 266.5,-1942.5 466.5,-1942.5 466.5,-1912.5 266.5,-1912.5"/>
<text text-anchor="start" x="273.5" y="-1923.9" font-family="Arial" font-size="14.00" fill="#000000">account_id </text>
<text text-anchor="start" x="345.0834" y="-1923.9" font-family="Arial" font-size="14.00" fill="#666666">[int(10) unsigned]</text>
<polygon fill="none" stroke="#000000" points="266.5,-1882.5 266.5,-1912.5 466.5,-1912.5 466.5,-1882.5 266.5,-1882.5"/>
<text text-anchor="start" x="273.5" y="-1893.9" font-family="Arial" font-size="14.00" fill="#000000">contact_id </text>
<text text-anchor="start" x="341.1914" y="-1893.9" font-family="Arial" font-size="14.00" fill="#666666">[int(10) unsigned]</text>
<polygon fill="none" stroke="#000000" points="266.5,-1852.5 266.5,-1882.5 466.5,-1882.5 466.5,-1852.5 266.5,-1852.5"/>
<text text-anchor="start" x="273.5" y="-1863.9" font-family="Arial" font-size="14.00" fill="#000000">initial_date </text>
<text text-anchor="start" x="344.2938" y="-1863.9" font-family="Arial" font-size="14.00" fill="#666666">[date]</text>
<polygon fill="none" stroke="#000000" points="266.5,-1822.5 266.5,-1852.5 466.5,-1852.5 466.5,-1822.5 266.5,-1822.5"/>
<text text-anchor="start" x="273.5" y="-1833.9" font-family="Arial" font-size="14.00" fill="#000000">title </text>
<text text-anchor="start" x="299.1676" y="-1833.9" font-family="Arial" font-size="14.00" fill="#666666">[mediumtext]</text>
<polygon fill="none" stroke="#000000" points="266.5,-1792.5 266.5,-1822.5 466.5,-1822.5 466.5,-1792.5 266.5,-1792.5"/>
<text text-anchor="start" x="273.5" y="-1803.9" font-family="Arial" font-size="14.00" fill="#000000">description </text>
<text text-anchor="start" x="345.068" y="-1803.9" font-family="Arial" font-size="14.00" fill="#666666">[longtext]</text>
<polygon fill="none" stroke="#000000" points="266.5,-1762.5 266.5,-1792.5 466.5,-1792.5 466.5,-1762.5 266.5,-1762.5"/>
<text text-anchor="start" x="273.1438" y="-1773.9" font-family="Arial" font-size="14.00" fill="#000000">frequency_type </text>
<text text-anchor="start" x="372.737" y="-1773.9" font-family="Arial" font-size="14.00" fill="#666666">[varchar(255)]</text>
<polygon fill="none" stroke="#000000" points="266.5,-1732.5 266.5,-1762.5 466.5,-1762.5 466.5,-1732.5 266.5,-1732.5"/>
<text text-anchor="start" x="273.5" y="-1743.9" font-family="Arial" font-size="14.00" fill="#000000">frequency_number </text>
<text text-anchor="start" x="394.089" y="-1743.9" font-family="Arial" font-size="14.00" fill="#666666">[int(11)]</text>
<polygon fill="none" stroke="#000000" points="266.5,-1702.5 266.5,-1732.5 466.5,-1732.5 466.5,-1702.5 266.5,-1702.5"/>
<text text-anchor="start" x="273.5" y="-1713.9" font-family="Arial" font-size="14.00" fill="#000000">delible </text>
<text text-anchor="start" x="317.8408" y="-1713.9" font-family="Arial" font-size="14.00" fill="#666666">[tinyint(1)]</text>
<polygon fill="none" stroke="#000000" points="266.5,-1672.5 266.5,-1702.5 466.5,-1702.5 466.5,-1672.5 266.5,-1672.5"/>
<text text-anchor="start" x="273.5" y="-1683.9" font-family="Arial" font-size="14.00" fill="#000000">inactive </text>
<text text-anchor="start" x="324.8422" y="-1683.9" font-family="Arial" font-size="14.00" fill="#666666">[tinyint(1)]</text>
<polygon fill="none" stroke="#000000" points="266.5,-1642.5 266.5,-1672.5 466.5,-1672.5 466.5,-1642.5 266.5,-1642.5"/>
<text text-anchor="start" x="273.5" y="-1653.9" font-family="Arial" font-size="14.00" fill="#000000">created_at </text>
<text text-anchor="start" x="343.528" y="-1653.9" font-family="Arial" font-size="14.00" fill="#666666">[timestamp]</text>
<polygon fill="none" stroke="#000000" points="266.5,-1612.5 266.5,-1642.5 466.5,-1642.5 466.5,-1612.5 266.5,-1612.5"/>
<text text-anchor="start" x="273.5" y="-1623.9" font-family="Arial" font-size="14.00" fill="#000000">updated_at </text>
<text text-anchor="start" x="347.4326" y="-1623.9" font-family="Arial" font-size="14.00" fill="#666666">[timestamp]</text>
<polygon fill="none" stroke="#000000" stroke-width="3" points="265,-1611.5 265,-2009.5 468,-2009.5 468,-1611.5 265,-1611.5"/>
</g>
<!-- contacts -->
<g id="node2" class="node">
<title>contacts</title>
<polygon fill="#efefef" stroke="transparent" points="220.5,-1452.5 220.5,-1487.5 511.5,-1487.5 511.5,-1452.5 220.5,-1452.5"/>
<polygon fill="none" stroke="#000000" points="220.5,-1452.5 220.5,-1487.5 511.5,-1487.5 511.5,-1452.5 220.5,-1452.5"/>
<text text-anchor="start" x="283.8616" y="-1465.3" font-family="Arial Bold" font-size="18.00" fill="#000000">contacts</text>
<text text-anchor="start" x="350.8846" y="-1465.3" font-family="Arial" font-size="14.00" fill="#000000"> </text>
<text text-anchor="start" x="354.7752" y="-1465.3" font-family="Arial" font-size="14.00" fill="#666666">[BASE TABLE]</text>
<polygon fill="none" stroke="#000000" points="220.5,-1422.5 220.5,-1452.5 511.5,-1452.5 511.5,-1422.5 220.5,-1422.5"/>
<text text-anchor="start" x="227.5" y="-1433.9" font-family="Arial" font-size="14.00" fill="#000000">id </text>
<text text-anchor="start" x="242.2798" y="-1433.9" font-family="Arial" font-size="14.00" fill="#666666">[int(10) unsigned]</text>
<polygon fill="none" stroke="#000000" points="220.5,-1392.5 220.5,-1422.5 511.5,-1422.5 511.5,-1392.5 220.5,-1392.5"/>
<text text-anchor="start" x="227.5" y="-1403.9" font-family="Arial" font-size="14.00" fill="#000000">account_id </text>
<text text-anchor="start" x="299.0834" y="-1403.9" font-family="Arial" font-size="14.00" fill="#666666">[int(10) unsigned]</text>
<polygon fill="none" stroke="#000000" points="220.5,-1362.5 220.5,-1392.5 511.5,-1392.5 511.5,-1362.5 220.5,-1362.5"/>
<text text-anchor="start" x="227.5" y="-1373.9" font-family="Arial" font-size="14.00" fill="#000000">address_book_id </text>
<text text-anchor="start" x="337.9838" y="-1373.9" font-family="Arial" font-size="14.00" fill="#666666">[bigint(20) unsigned]</text>
<polygon fill="none" stroke="#000000" points="220.5,-1332.5 220.5,-1362.5 511.5,-1362.5 511.5,-1332.5 220.5,-1332.5"/>
<text text-anchor="start" x="227.5" y="-1343.9" font-family="Arial" font-size="14.00" fill="#000000">first_name </text>
<text text-anchor="start" x="296.73" y="-1343.9" font-family="Arial" font-size="14.00" fill="#666666">[varchar(255)]</text>
<polygon fill="none" stroke="#000000" points="220.5,-1302.5 220.5,-1332.5 511.5,-1332.5 511.5,-1302.5 220.5,-1302.5"/>
<text text-anchor="start" x="227.5" y="-1313.9" font-family="Arial" font-size="14.00" fill="#000000">middle_name </text>
<text text-anchor="start" x="315.4032" y="-1313.9" font-family="Arial" font-size="14.00" fill="#666666">[varchar(255)]</text>
<polygon fill="none" stroke="#000000" points="220.5,-1272.5 220.5,-1302.5 511.5,-1302.5 511.5,-1272.5 220.5,-1272.5"/>
<text text-anchor="start" x="227.5" y="-1283.9" font-family="Arial" font-size="14.00" fill="#000000">last_name </text>
<text text-anchor="start" x="295.9614" y="-1283.9" font-family="Arial" font-size="14.00" fill="#666666">[varchar(255)]</text>
<polygon fill="none" stroke="#000000" points="220.5,-1242.5 220.5,-1272.5 511.5,-1272.5 511.5,-1242.5 220.5,-1242.5"/>
<text text-anchor="start" x="227.5" y="-1253.9" font-family="Arial" font-size="14.00" fill="#000000">nickname </text>
<text text-anchor="start" x="291.2882" y="-1253.9" font-family="Arial" font-size="14.00" fill="#666666">[varchar(255)]</text>
<polygon fill="none" stroke="#000000" points="220.5,-1212.5 220.5,-1242.5 511.5,-1242.5 511.5,-1212.5 220.5,-1212.5"/>
<text text-anchor="start" x="227.5" y="-1223.9" font-family="Arial" font-size="14.00" fill="#000000">gender_id </text>
<text text-anchor="start" x="293.636" y="-1223.9" font-family="Arial" font-size="14.00" fill="#666666">[int(11)]</text>
<polygon fill="none" stroke="#000000" points="220.5,-1182.5 220.5,-1212.5 511.5,-1212.5 511.5,-1182.5 220.5,-1182.5"/>
<text text-anchor="start" x="227.5" y="-1193.9" font-family="Arial" font-size="14.00" fill="#000000">description </text>
<text text-anchor="start" x="299.068" y="-1193.9" font-family="Arial" font-size="14.00" fill="#666666">[varchar(255)]</text>
<polygon fill="none" stroke="#000000" points="220.5,-1152.5 220.5,-1182.5 511.5,-1182.5 511.5,-1152.5 220.5,-1152.5"/>
<text text-anchor="start" x="227.5" y="-1163.9" font-family="Arial" font-size="14.00" fill="#000000">uuid </text>
<text text-anchor="start" x="257.845" y="-1163.9" font-family="Arial" font-size="14.00" fill="#666666">[char(36)]</text>
<polygon fill="none" stroke="#000000" points="220.5,-1122.5 220.5,-1152.5 511.5,-1152.5 511.5,-1122.5 220.5,-1122.5"/>
<text text-anchor="start" x="227.5" y="-1133.9" font-family="Arial" font-size="14.00" fill="#000000">is_starred </text>
<text text-anchor="start" x="292.8394" y="-1133.9" font-family="Arial" font-size="14.00" fill="#666666">[tinyint(1)]</text>
<polygon fill="none" stroke="#000000" points="220.5,-1092.5 220.5,-1122.5 511.5,-1122.5 511.5,-1092.5 220.5,-1092.5"/>
<text text-anchor="start" x="227.5" y="-1103.9" font-family="Arial" font-size="14.00" fill="#000000">is_partial </text>
<text text-anchor="start" x="287.392" y="-1103.9" font-family="Arial" font-size="14.00" fill="#666666">[tinyint(1)]</text>
<polygon fill="none" stroke="#000000" points="220.5,-1062.5 220.5,-1092.5 511.5,-1092.5 511.5,-1062.5 220.5,-1062.5"/>
<text text-anchor="start" x="227.5" y="-1073.9" font-family="Arial" font-size="14.00" fill="#000000">is_active </text>
<text text-anchor="start" x="285.8422" y="-1073.9" font-family="Arial" font-size="14.00" fill="#666666">[tinyint(1)]</text>
<polygon fill="none" stroke="#000000" points="220.5,-1032.5 220.5,-1062.5 511.5,-1062.5 511.5,-1032.5 220.5,-1032.5"/>
<text text-anchor="start" x="227.5" y="-1043.9" font-family="Arial" font-size="14.00" fill="#000000">is_dead </text>
<text text-anchor="start" x="280.4102" y="-1043.9" font-family="Arial" font-size="14.00" fill="#666666">[tinyint(1)]</text>
<polygon fill="none" stroke="#000000" points="220.5,-1002.5 220.5,-1032.5 511.5,-1032.5 511.5,-1002.5 220.5,-1002.5"/>
<text text-anchor="start" x="227.1186" y="-1013.9" font-family="Arial" font-size="14.00" fill="#000000">deceased_special_date_id </text>
<text text-anchor="start" x="396.7412" y="-1013.9" font-family="Arial" font-size="14.00" fill="#666666">[int(10) unsigned]</text>
<polygon fill="none" stroke="#000000" points="220.5,-972.5 220.5,-1002.5 511.5,-1002.5 511.5,-972.5 220.5,-972.5"/>
<text text-anchor="start" x="227.5" y="-983.9" font-family="Arial" font-size="14.00" fill="#000000">deceased_reminder_id </text>
<text text-anchor="start" x="373.7594" y="-983.9" font-family="Arial" font-size="14.00" fill="#666666">[int(10) unsigned]</text>
<polygon fill="none" stroke="#000000" points="220.5,-942.5 220.5,-972.5 511.5,-972.5 511.5,-942.5 220.5,-942.5"/>
<text text-anchor="start" x="227.5" y="-953.9" font-family="Arial" font-size="14.00" fill="#000000">last_talked_to </text>
<text text-anchor="start" x="317.7538" y="-953.9" font-family="Arial" font-size="14.00" fill="#666666">[date]</text>
<polygon fill="none" stroke="#000000" points="220.5,-912.5 220.5,-942.5 511.5,-942.5 511.5,-912.5 220.5,-912.5"/>
<text text-anchor="start" x="227.5" y="-923.9" font-family="Arial" font-size="14.00" fill="#000000">stay_in_touch_frequency </text>
<text text-anchor="start" x="387.0034" y="-923.9" font-family="Arial" font-size="14.00" fill="#666666">[int(11)]</text>
<polygon fill="none" stroke="#000000" points="220.5,-882.5 220.5,-912.5 511.5,-912.5 511.5,-882.5 220.5,-882.5"/>
<text text-anchor="start" x="227.5" y="-893.9" font-family="Arial" font-size="14.00" fill="#000000">stay_in_touch_trigger_date </text>
<text text-anchor="start" x="400.2264" y="-893.9" font-family="Arial" font-size="14.00" fill="#666666">[datetime]</text>
<polygon fill="none" stroke="#000000" points="220.5,-852.5 220.5,-882.5 511.5,-882.5 511.5,-852.5 220.5,-852.5"/>
<text text-anchor="start" x="227.5" y="-863.9" font-family="Arial" font-size="14.00" fill="#000000">birthday_special_date_id </text>
<text text-anchor="start" x="386.2152" y="-863.9" font-family="Arial" font-size="14.00" fill="#666666">[int(10) unsigned]</text>
<polygon fill="none" stroke="#000000" points="220.5,-822.5 220.5,-852.5 511.5,-852.5 511.5,-822.5 220.5,-822.5"/>
<text text-anchor="start" x="227.5" y="-833.9" font-family="Arial" font-size="14.00" fill="#000000">birthday_reminder_id </text>
<text text-anchor="start" x="362.852" y="-833.9" font-family="Arial" font-size="14.00" fill="#666666">[int(10) unsigned]</text>
<polygon fill="none" stroke="#000000" points="220.5,-792.5 220.5,-822.5 511.5,-822.5 511.5,-792.5 220.5,-792.5"/>
<text text-anchor="start" x="227.5" y="-803.9" font-family="Arial" font-size="14.00" fill="#000000">first_met_through_contact_id </text>
<text text-anchor="start" x="411.8856" y="-803.9" font-family="Arial" font-size="14.00" fill="#666666">[int(11)]</text>
<polygon fill="none" stroke="#000000" points="220.5,-762.5 220.5,-792.5 511.5,-792.5 511.5,-762.5 220.5,-762.5"/>
<text text-anchor="start" x="227.5" y="-773.9" font-family="Arial" font-size="14.00" fill="#000000">first_met_special_date_id </text>
<text text-anchor="start" x="390.0918" y="-773.9" font-family="Arial" font-size="14.00" fill="#666666">[int(10) unsigned]</text>
<polygon fill="none" stroke="#000000" points="220.5,-732.5 220.5,-762.5 511.5,-762.5 511.5,-732.5 220.5,-732.5"/>
<text text-anchor="start" x="227.5" y="-743.9" font-family="Arial" font-size="14.00" fill="#000000">first_met_reminder_id </text>
<text text-anchor="start" x="366.7286" y="-743.9" font-family="Arial" font-size="14.00" fill="#666666">[int(10) unsigned]</text>
<polygon fill="none" stroke="#000000" points="220.5,-702.5 220.5,-732.5 511.5,-732.5 511.5,-702.5 220.5,-702.5"/>
<text text-anchor="start" x="227.5" y="-713.9" font-family="Arial" font-size="14.00" fill="#000000">first_met_where </text>
<text text-anchor="start" x="330.953" y="-713.9" font-family="Arial" font-size="14.00" fill="#666666">[varchar(255)]</text>
<polygon fill="none" stroke="#000000" points="220.5,-672.5 220.5,-702.5 511.5,-702.5 511.5,-672.5 220.5,-672.5"/>
<text text-anchor="start" x="227.5" y="-683.9" font-family="Arial" font-size="14.00" fill="#000000">first_met_additional_info </text>
<text text-anchor="start" x="383.089" y="-683.9" font-family="Arial" font-size="14.00" fill="#666666">[longtext]</text>
<polygon fill="none" stroke="#000000" points="220.5,-642.5 220.5,-672.5 511.5,-672.5 511.5,-642.5 220.5,-642.5"/>
<text text-anchor="start" x="227.5" y="-653.9" font-family="Arial" font-size="14.00" fill="#000000">job </text>
<text text-anchor="start" x="250.0624" y="-653.9" font-family="Arial" font-size="14.00" fill="#666666">[varchar(255)]</text>
<polygon fill="none" stroke="#000000" points="220.5,-612.5 220.5,-642.5 511.5,-642.5 511.5,-612.5 220.5,-612.5"/>
<text text-anchor="start" x="227.5" y="-623.9" font-family="Arial" font-size="14.00" fill="#000000">company </text>
<text text-anchor="start" x="288.1816" y="-623.9" font-family="Arial" font-size="14.00" fill="#666666">[varchar(255)]</text>
<polygon fill="none" stroke="#000000" points="220.5,-582.5 220.5,-612.5 511.5,-612.5 511.5,-582.5 220.5,-582.5"/>
<text text-anchor="start" x="227.5" y="-593.9" font-family="Arial" font-size="14.00" fill="#000000">food_preferences </text>
<text text-anchor="start" x="340.319" y="-593.9" font-family="Arial" font-size="14.00" fill="#666666">[longtext]</text>
<polygon fill="none" stroke="#000000" points="220.5,-552.5 220.5,-582.5 511.5,-582.5 511.5,-552.5 220.5,-552.5"/>
<text text-anchor="start" x="227.5" y="-563.9" font-family="Arial" font-size="14.00" fill="#000000">avatar_source </text>
<text text-anchor="start" x="320.0806" y="-563.9" font-family="Arial" font-size="14.00" fill="#666666">[varchar(255)]</text>
<polygon fill="none" stroke="#000000" points="220.5,-522.5 220.5,-552.5 511.5,-552.5 511.5,-522.5 220.5,-522.5"/>
<text text-anchor="start" x="227.5" y="-533.9" font-family="Arial" font-size="14.00" fill="#000000">avatar_gravatar_url </text>
<text text-anchor="start" x="352.7468" y="-533.9" font-family="Arial" font-size="14.00" fill="#666666">[varchar(250)]</text>
<polygon fill="none" stroke="#000000" points="220.5,-492.5 220.5,-522.5 511.5,-522.5 511.5,-492.5 220.5,-492.5"/>
<text text-anchor="start" x="227.5" y="-503.9" font-family="Arial" font-size="14.00" fill="#000000">avatar_adorable_uuid </text>
<text text-anchor="start" x="366.772" y="-503.9" font-family="Arial" font-size="14.00" fill="#666666">[char(36)]</text>
<polygon fill="none" stroke="#000000" points="220.5,-462.5 220.5,-492.5 511.5,-492.5 511.5,-462.5 220.5,-462.5"/>
<text text-anchor="start" x="227.5" y="-473.9" font-family="Arial" font-size="14.00" fill="#000000">avatar_adorable_url </text>
<text text-anchor="start" x="355.8674" y="-473.9" font-family="Arial" font-size="14.00" fill="#666666">[varchar(250)]</text>
<polygon fill="none" stroke="#000000" points="220.5,-432.5 220.5,-462.5 511.5,-462.5 511.5,-432.5 220.5,-432.5"/>
<text text-anchor="start" x="227.5" y="-443.9" font-family="Arial" font-size="14.00" fill="#000000">avatar_default_url </text>
<text text-anchor="start" x="343.4228" y="-443.9" font-family="Arial" font-size="14.00" fill="#666666">[varchar(250)]</text>
<polygon fill="none" stroke="#000000" points="220.5,-402.5 220.5,-432.5 511.5,-432.5 511.5,-402.5 220.5,-402.5"/>
<text text-anchor="start" x="227.5" y="-413.9" font-family="Arial" font-size="14.00" fill="#000000">avatar_photo_id </text>
<text text-anchor="start" x="331.765" y="-413.9" font-family="Arial" font-size="14.00" fill="#666666">[int(10) unsigned]</text>
<polygon fill="none" stroke="#000000" points="220.5,-372.5 220.5,-402.5 511.5,-402.5 511.5,-372.5 220.5,-372.5"/>
<text text-anchor="start" x="227.5" y="-383.9" font-family="Arial" font-size="14.00" fill="#000000">has_avatar </text>
<text text-anchor="start" x="300.6374" y="-383.9" font-family="Arial" font-size="14.00" fill="#666666">[tinyint(1)]</text>
<polygon fill="none" stroke="#000000" points="220.5,-342.5 220.5,-372.5 511.5,-372.5 511.5,-342.5 220.5,-342.5"/>
<text text-anchor="start" x="227.5" y="-353.9" font-family="Arial" font-size="14.00" fill="#000000">avatar_external_url </text>
<text text-anchor="start" x="351.1928" y="-353.9" font-family="Arial" font-size="14.00" fill="#666666">[varchar(400)]</text>
<polygon fill="none" stroke="#000000" points="220.5,-312.5 220.5,-342.5 511.5,-342.5 511.5,-312.5 220.5,-312.5"/>
<text text-anchor="start" x="227.5" y="-323.9" font-family="Arial" font-size="14.00" fill="#000000">avatar_file_name </text>
<text text-anchor="start" x="338.7496" y="-323.9" font-family="Arial" font-size="14.00" fill="#666666">[varchar(255)]</text>
<polygon fill="none" stroke="#000000" points="220.5,-282.5 220.5,-312.5 511.5,-312.5 511.5,-282.5 220.5,-282.5"/>
<text text-anchor="start" x="227.5" y="-293.9" font-family="Arial" font-size="14.00" fill="#000000">avatar_location </text>
<text text-anchor="start" x="326.3064" y="-293.9" font-family="Arial" font-size="14.00" fill="#666666">[varchar(255)]</text>
<polygon fill="none" stroke="#000000" points="220.5,-252.5 220.5,-282.5 511.5,-282.5 511.5,-252.5 220.5,-252.5"/>
<text text-anchor="start" x="227.5" y="-263.9" font-family="Arial" font-size="14.00" fill="#000000">gravatar_url </text>
<text text-anchor="start" x="306.0652" y="-263.9" font-family="Arial" font-size="14.00" fill="#666666">[varchar(255)]</text>
<polygon fill="none" stroke="#000000" points="220.5,-222.5 220.5,-252.5 511.5,-252.5 511.5,-222.5 220.5,-222.5"/>
<text text-anchor="start" x="227.5" y="-233.9" font-family="Arial" font-size="14.00" fill="#000000">vcard </text>
<text text-anchor="start" x="265.6164" y="-233.9" font-family="Arial" font-size="14.00" fill="#666666">[mediumtext]</text>
<polygon fill="none" stroke="#000000" points="220.5,-192.5 220.5,-222.5 511.5,-222.5 511.5,-192.5 220.5,-192.5"/>
<text text-anchor="start" x="227.5" y="-203.9" font-family="Arial" font-size="14.00" fill="#000000">last_consulted_at </text>
<text text-anchor="start" x="340.319" y="-203.9" font-family="Arial" font-size="14.00" fill="#666666">[timestamp]</text>
<polygon fill="none" stroke="#000000" points="220.5,-162.5 220.5,-192.5 511.5,-192.5 511.5,-162.5 220.5,-162.5"/>
<text text-anchor="start" x="227.5" y="-173.9" font-family="Arial" font-size="14.00" fill="#000000">number_of_views </text>
<text text-anchor="start" x="341.0764" y="-173.9" font-family="Arial" font-size="14.00" fill="#666666">[int(11)]</text>
<polygon fill="none" stroke="#000000" points="220.5,-132.5 220.5,-162.5 511.5,-162.5 511.5,-132.5 220.5,-132.5"/>
<text text-anchor="start" x="227.5" y="-143.9" font-family="Arial" font-size="14.00" fill="#000000">created_at </text>
<text text-anchor="start" x="297.528" y="-143.9" font-family="Arial" font-size="14.00" fill="#666666">[timestamp]</text>
<polygon fill="none" stroke="#000000" points="220.5,-102.5 220.5,-132.5 511.5,-132.5 511.5,-102.5 220.5,-102.5"/>
<text text-anchor="start" x="227.5" y="-113.9" font-family="Arial" font-size="14.00" fill="#000000">updated_at </text>
<text text-anchor="start" x="301.4326" y="-113.9" font-family="Arial" font-size="14.00" fill="#666666">[timestamp]</text>
<polygon fill="none" stroke="#000000" points="220.5,-72.5 220.5,-102.5 511.5,-102.5 511.5,-72.5 220.5,-72.5"/>
<text text-anchor="start" x="227.5" y="-83.9" font-family="Arial" font-size="14.00" fill="#000000">default_avatar_color </text>
<text text-anchor="start" x="358.2054" y="-83.9" font-family="Arial" font-size="14.00" fill="#666666">[varchar(255)]</text>
<polygon fill="none" stroke="#000000" points="220.5,-42.5 220.5,-72.5 511.5,-72.5 511.5,-42.5 220.5,-42.5"/>
<text text-anchor="start" x="227.5" y="-53.9" font-family="Arial" font-size="14.00" fill="#000000">has_avatar_bool </text>
<text text-anchor="start" x="334.8744" y="-53.9" font-family="Arial" font-size="14.00" fill="#666666">[tinyint(1)]</text>
</g>
<!-- reminders&#45;&gt;contacts -->
<g id="edge7" class="edge">
<title>reminders:contact_id&#45;&gt;contacts:id</title>
<path fill="none" stroke="#000000" d="M256.4958,-1897.1428C122.0204,-1887.2779 172.7306,-1675.5546 266.5,-1567 338.4439,-1483.7122 439.5561,-1614.2878 511.5,-1531 538.6645,-1499.5523 553.0556,-1437.5 511.5,-1437.5"/>
<polygon fill="#000000" stroke="#000000" points="256.5064,-1897.143 266.3394,-1901.9971 261.5032,-1897.3215 266.5,-1897.5 266.5,-1897.5 266.5,-1897.5 261.5032,-1897.3215 266.6606,-1893.0029 256.5064,-1897.143 256.5064,-1897.143"/>
<text text-anchor="start" x="8.657" y="-1907.5" font-family="Arial" font-size="10.00" fill="#000000">FOREIGN KEY (contact_id) REFERENCES contacts (id)</text>
</g>
<!-- accounts -->
<g id="node5" class="node">
<title>accounts</title>
<polygon fill="#efefef" stroke="transparent" points="615.5,-942.5 615.5,-977.5 930.5,-977.5 930.5,-942.5 615.5,-942.5"/>
<polygon fill="none" stroke="#000000" points="615.5,-942.5 615.5,-977.5 930.5,-977.5 930.5,-942.5 615.5,-942.5"/>
<text text-anchor="start" x="688.3596" y="-955.3" font-family="Arial Bold" font-size="18.00" fill="#000000">accounts</text>
<text text-anchor="start" x="760.3866" y="-955.3" font-family="Arial" font-size="14.00" fill="#000000"> </text>
<text text-anchor="start" x="764.2772" y="-955.3" font-family="Arial" font-size="14.00" fill="#666666">[BASE TABLE]</text>
<polygon fill="none" stroke="#000000" points="615.5,-912.5 615.5,-942.5 930.5,-942.5 930.5,-912.5 615.5,-912.5"/>
<text text-anchor="start" x="622.5" y="-923.9" font-family="Arial" font-size="14.00" fill="#000000">id </text>
<text text-anchor="start" x="637.2798" y="-923.9" font-family="Arial" font-size="14.00" fill="#666666">[int(10) unsigned]</text>
<polygon fill="none" stroke="#000000" points="615.5,-882.5 615.5,-912.5 930.5,-912.5 930.5,-882.5 615.5,-882.5"/>
<text text-anchor="start" x="622.073" y="-893.9" font-family="Arial" font-size="14.00" fill="#000000">has_access_to_paid_version_for_free </text>
<text text-anchor="start" x="862.4824" y="-893.9" font-family="Arial" font-size="14.00" fill="#666666">[tinyint(1)]</text>
<polygon fill="none" stroke="#000000" points="615.5,-852.5 615.5,-882.5 930.5,-882.5 930.5,-852.5 615.5,-852.5"/>
<text text-anchor="start" x="622.5" y="-863.9" font-family="Arial" font-size="14.00" fill="#000000">api_key </text>
<text text-anchor="start" x="674.6276" y="-863.9" font-family="Arial" font-size="14.00" fill="#666666">[varchar(255)]</text>
<polygon fill="none" stroke="#000000" points="615.5,-822.5 615.5,-852.5 930.5,-852.5 930.5,-822.5 615.5,-822.5"/>
<text text-anchor="start" x="622.5" y="-833.9" font-family="Arial" font-size="14.00" fill="#000000">number_of_invitations_sent </text>
<text text-anchor="start" x="797.5504" y="-833.9" font-family="Arial" font-size="14.00" fill="#666666">[int(11)]</text>
<polygon fill="none" stroke="#000000" points="615.5,-792.5 615.5,-822.5 930.5,-822.5 930.5,-792.5 615.5,-792.5"/>
<text text-anchor="start" x="622.5" y="-803.9" font-family="Arial" font-size="14.00" fill="#000000">default_time_reminder_is_sent </text>
<text text-anchor="start" x="817.7608" y="-803.9" font-family="Arial" font-size="14.00" fill="#666666">[varchar(255)]</text>
<polygon fill="none" stroke="#000000" points="615.5,-762.5 615.5,-792.5 930.5,-792.5 930.5,-762.5 615.5,-762.5"/>
<text text-anchor="start" x="622.5" y="-773.9" font-family="Arial" font-size="14.00" fill="#000000">default_gender_id </text>
<text text-anchor="start" x="738.4368" y="-773.9" font-family="Arial" font-size="14.00" fill="#666666">[int(10) unsigned]</text>
<polygon fill="none" stroke="#000000" points="615.5,-732.5 615.5,-762.5 930.5,-762.5 930.5,-732.5 615.5,-732.5"/>
<text text-anchor="start" x="622.5" y="-743.9" font-family="Arial" font-size="14.00" fill="#000000">stripe_id </text>
<text text-anchor="start" x="679.2854" y="-743.9" font-family="Arial" font-size="14.00" fill="#666666">[varchar(255)]</text>
<polygon fill="none" stroke="#000000" points="615.5,-702.5 615.5,-732.5 930.5,-732.5 930.5,-702.5 615.5,-702.5"/>
<text text-anchor="start" x="622.5" y="-713.9" font-family="Arial" font-size="14.00" fill="#000000">card_brand </text>
<text text-anchor="start" x="697.19" y="-713.9" font-family="Arial" font-size="14.00" fill="#666666">[varchar(255)]</text>
<polygon fill="none" stroke="#000000" points="615.5,-672.5 615.5,-702.5 930.5,-702.5 930.5,-672.5 615.5,-672.5"/>
<text text-anchor="start" x="622.5" y="-683.9" font-family="Arial" font-size="14.00" fill="#000000">card_last_four </text>
<text text-anchor="start" x="715.0778" y="-683.9" font-family="Arial" font-size="14.00" fill="#666666">[varchar(4)]</text>
<polygon fill="none" stroke="#000000" points="615.5,-642.5 615.5,-672.5 930.5,-672.5 930.5,-642.5 615.5,-642.5"/>
<text text-anchor="start" x="622.5" y="-653.9" font-family="Arial" font-size="14.00" fill="#000000">trial_ends_at </text>
<text text-anchor="start" x="706.5238" y="-653.9" font-family="Arial" font-size="14.00" fill="#666666">[timestamp]</text>
<polygon fill="none" stroke="#000000" points="615.5,-612.5 615.5,-642.5 930.5,-642.5 930.5,-612.5 615.5,-612.5"/>
<text text-anchor="start" x="622.5" y="-623.9" font-family="Arial" font-size="14.00" fill="#000000">legacy_free_plan_unlimited_contacts </text>
<text text-anchor="start" x="856.6766" y="-623.9" font-family="Arial" font-size="14.00" fill="#666666">[tinyint(1)]</text>
<polygon fill="none" stroke="#000000" points="615.5,-582.5 615.5,-612.5 930.5,-612.5 930.5,-582.5 615.5,-582.5"/>
<text text-anchor="start" x="622.5" y="-593.9" font-family="Arial" font-size="14.00" fill="#000000">created_at </text>
<text text-anchor="start" x="692.528" y="-593.9" font-family="Arial" font-size="14.00" fill="#666666">[timestamp]</text>
<polygon fill="none" stroke="#000000" points="615.5,-552.5 615.5,-582.5 930.5,-582.5 930.5,-552.5 615.5,-552.5"/>
<text text-anchor="start" x="622.5" y="-563.9" font-family="Arial" font-size="14.00" fill="#000000">updated_at </text>
<text text-anchor="start" x="696.4326" y="-563.9" font-family="Arial" font-size="14.00" fill="#666666">[timestamp]</text>
</g>
<!-- reminders&#45;&gt;accounts -->
<g id="edge6" class="edge">
<title>reminders:account_id&#45;&gt;accounts:id</title>
<path fill="none" stroke="#000000" d="M476.5461,-1927.2652C643.6349,-1919.2309 534.6307,-1706.607 563.5,-1531 574.4181,-1464.5875 548.196,-927.5 615.5,-927.5"/>
<polygon fill="#000000" stroke="#000000" points="476.4973,-1927.2662 466.3948,-1923.0012 471.4986,-1927.3831 466.5,-1927.5 466.5,-1927.5 466.5,-1927.5 471.4986,-1927.3831 466.6052,-1931.9988 476.4973,-1927.2662 476.4973,-1927.2662"/>
<text text-anchor="start" x="473.877" y="-1937.5" font-family="Arial" font-size="10.00" fill="#000000">FOREIGN KEY (account_id) REFERENCES accounts (id)</text>
</g>
<!-- contacts&#45;&gt;reminders -->
<g id="edge1" class="edge">
<title>contacts:birthday_reminder_id&#45;&gt;reminders:id</title>
<path fill="none" stroke="#000000" d="M521.2637,-841.2355C586.1103,-893.4035 559.6077,-1475.3068 511.5,-1531 439.5561,-1614.2878 338.4439,-1483.7122 266.5,-1567 153.0484,-1698.3403 92.9444,-1957.5 266.5,-1957.5"/>
<polygon fill="#000000" stroke="#000000" points="520.8398,-841.0734 513.108,-833.2971 516.1699,-839.2867 511.5,-837.5 511.5,-837.5 511.5,-837.5 516.1699,-839.2867 509.892,-841.7029 520.8398,-841.0734 520.8398,-841.0734"/>
<text text-anchor="start" x="358.389" y="-821.5" font-family="Arial" font-size="10.00" fill="#000000">FOREIGN KEY (birthday_reminder_id) REFERENCES reminders (id)</text>
</g>
<!-- contacts&#45;&gt;reminders -->
<g id="edge2" class="edge">
<title>contacts:deceased_reminder_id&#45;&gt;reminders:id</title>
<path fill="none" stroke="#000000" d="M520.6884,-991.811C569.546,-1040.5948 548.8168,-1487.7992 511.5,-1531 439.5561,-1614.2878 338.4439,-1483.7122 266.5,-1567 153.0484,-1698.3403 92.9444,-1957.5 266.5,-1957.5"/>
<polygon fill="#000000" stroke="#000000" points="520.5531,-991.7476 513.4114,-983.4261 516.0266,-989.6238 511.5,-987.5 511.5,-987.5 511.5,-987.5 516.0266,-989.6238 509.5886,-991.5739 520.5531,-991.7476 520.5531,-991.7476"/>
<text text-anchor="start" x="354.4935" y="-971.5" font-family="Arial" font-size="10.00" fill="#000000">FOREIGN KEY (deceased_reminder_id) REFERENCES reminders (id)</text>
</g>
<!-- contacts&#45;&gt;reminders -->
<g id="edge3" class="edge">
<title>contacts:first_met_reminder_id&#45;&gt;reminders:id</title>
<path fill="none" stroke="#000000" d="M518.5569,-754.9352C553.2153,-832.9925 538.2865,-1499.9899 511.5,-1531 439.5561,-1614.2878 338.4439,-1483.7122 266.5,-1567 153.0484,-1698.3403 92.9444,-1957.5 266.5,-1957.5"/>
<polygon fill="#000000" stroke="#000000" points="518.3842,-754.7532 514.7639,-744.4021 514.9421,-751.1266 511.5,-747.5 511.5,-747.5 511.5,-747.5 514.9421,-751.1266 508.2361,-750.5979 518.3842,-754.7532 518.3842,-754.7532"/>
<text text-anchor="start" x="357.0045" y="-731.5" font-family="Arial" font-size="10.00" fill="#000000">FOREIGN KEY (first_met_reminder_id) REFERENCES reminders (id)</text>
</g>
<!-- life_events -->
<g id="node3" class="node">
<title>life_events</title>
<polygon fill="#efefef" stroke="transparent" points="43.5,-2522.5 43.5,-2557.5 314.5,-2557.5 314.5,-2522.5 43.5,-2522.5"/>
<polygon fill="none" stroke="#000000" points="43.5,-2522.5 43.5,-2557.5 314.5,-2557.5 314.5,-2522.5 43.5,-2522.5"/>
<text text-anchor="start" x="87.3612" y="-2535.3" font-family="Arial Bold" font-size="18.00" fill="#000000">life_events</text>
<text text-anchor="start" x="173.385" y="-2535.3" font-family="Arial" font-size="14.00" fill="#000000"> </text>
<text text-anchor="start" x="177.2756" y="-2535.3" font-family="Arial" font-size="14.00" fill="#666666">[BASE TABLE]</text>
<polygon fill="none" stroke="#000000" points="43.5,-2492.5 43.5,-2522.5 314.5,-2522.5 314.5,-2492.5 43.5,-2492.5"/>
<text text-anchor="start" x="50.5" y="-2503.9" font-family="Arial" font-size="14.00" fill="#000000">id </text>
<text text-anchor="start" x="65.2798" y="-2503.9" font-family="Arial" font-size="14.00" fill="#666666">[int(10) unsigned]</text>
<polygon fill="none" stroke="#000000" points="43.5,-2462.5 43.5,-2492.5 314.5,-2492.5 314.5,-2462.5 43.5,-2462.5"/>
<text text-anchor="start" x="50.5" y="-2473.9" font-family="Arial" font-size="14.00" fill="#000000">account_id </text>
<text text-anchor="start" x="122.0834" y="-2473.9" font-family="Arial" font-size="14.00" fill="#666666">[int(10) unsigned]</text>
<polygon fill="none" stroke="#000000" points="43.5,-2432.5 43.5,-2462.5 314.5,-2462.5 314.5,-2432.5 43.5,-2432.5"/>
<text text-anchor="start" x="50.5" y="-2443.9" font-family="Arial" font-size="14.00" fill="#000000">contact_id </text>
<text text-anchor="start" x="118.1914" y="-2443.9" font-family="Arial" font-size="14.00" fill="#666666">[int(10) unsigned]</text>
<polygon fill="none" stroke="#000000" points="43.5,-2402.5 43.5,-2432.5 314.5,-2432.5 314.5,-2402.5 43.5,-2402.5"/>
<text text-anchor="start" x="50.5" y="-2413.9" font-family="Arial" font-size="14.00" fill="#000000">life_event_type_id </text>
<text text-anchor="start" x="167.2082" y="-2413.9" font-family="Arial" font-size="14.00" fill="#666666">[int(10) unsigned]</text>
<polygon fill="none" stroke="#000000" points="43.5,-2372.5 43.5,-2402.5 314.5,-2402.5 314.5,-2372.5 43.5,-2372.5"/>
<text text-anchor="start" x="50.5" y="-2383.9" font-family="Arial" font-size="14.00" fill="#000000">reminder_id </text>
<text text-anchor="start" x="128.2812" y="-2383.9" font-family="Arial" font-size="14.00" fill="#666666">[int(10) unsigned]</text>
<polygon fill="none" stroke="#000000" points="43.5,-2342.5 43.5,-2372.5 314.5,-2372.5 314.5,-2342.5 43.5,-2342.5"/>
<text text-anchor="start" x="50.5" y="-2353.9" font-family="Arial" font-size="14.00" fill="#000000">name </text>
<text text-anchor="start" x="89.399" y="-2353.9" font-family="Arial" font-size="14.00" fill="#666666">[varchar(255)]</text>
<polygon fill="none" stroke="#000000" points="43.5,-2312.5 43.5,-2342.5 314.5,-2342.5 314.5,-2312.5 43.5,-2312.5"/>
<text text-anchor="start" x="50.5" y="-2323.9" font-family="Arial" font-size="14.00" fill="#000000">note </text>
<text text-anchor="start" x="81.629" y="-2323.9" font-family="Arial" font-size="14.00" fill="#666666">[mediumtext]</text>
<polygon fill="none" stroke="#000000" points="43.5,-2282.5 43.5,-2312.5 314.5,-2312.5 314.5,-2282.5 43.5,-2282.5"/>
<text text-anchor="start" x="50.5" y="-2293.9" font-family="Arial" font-size="14.00" fill="#000000">happened_at </text>
<text text-anchor="start" x="136.1072" y="-2293.9" font-family="Arial" font-size="14.00" fill="#666666">[datetime]</text>
<polygon fill="none" stroke="#000000" points="43.5,-2252.5 43.5,-2282.5 314.5,-2282.5 314.5,-2252.5 43.5,-2252.5"/>
<text text-anchor="start" x="50.2322" y="-2263.9" font-family="Arial" font-size="14.00" fill="#000000">happened_at_month_unknown </text>
<text text-anchor="start" x="246.3232" y="-2263.9" font-family="Arial" font-size="14.00" fill="#666666">[tinyint(1)]</text>
<polygon fill="none" stroke="#000000" points="43.5,-2222.5 43.5,-2252.5 314.5,-2252.5 314.5,-2222.5 43.5,-2222.5"/>
<text text-anchor="start" x="50.5" y="-2233.9" font-family="Arial" font-size="14.00" fill="#000000">happened_at_day_unknown </text>
<text text-anchor="start" x="230.2572" y="-2233.9" font-family="Arial" font-size="14.00" fill="#666666">[tinyint(1)]</text>
<polygon fill="none" stroke="#000000" points="43.5,-2192.5 43.5,-2222.5 314.5,-2222.5 314.5,-2192.5 43.5,-2192.5"/>
<text text-anchor="start" x="50.5" y="-2203.9" font-family="Arial" font-size="14.00" fill="#000000">specific_information </text>
<text text-anchor="start" x="178.0708" y="-2203.9" font-family="Arial" font-size="14.00" fill="#666666">[text]</text>
<polygon fill="none" stroke="#000000" points="43.5,-2162.5 43.5,-2192.5 314.5,-2192.5 314.5,-2162.5 43.5,-2162.5"/>
<text text-anchor="start" x="50.5" y="-2173.9" font-family="Arial" font-size="14.00" fill="#000000">created_at </text>
<text text-anchor="start" x="120.528" y="-2173.9" font-family="Arial" font-size="14.00" fill="#666666">[timestamp]</text>
<polygon fill="none" stroke="#000000" points="43.5,-2132.5 43.5,-2162.5 314.5,-2162.5 314.5,-2132.5 43.5,-2132.5"/>
<text text-anchor="start" x="50.5" y="-2143.9" font-family="Arial" font-size="14.00" fill="#000000">updated_at </text>
<text text-anchor="start" x="124.4326" y="-2143.9" font-family="Arial" font-size="14.00" fill="#666666">[timestamp]</text>
</g>
<!-- life_events&#45;&gt;reminders -->
<g id="edge4" class="edge">
<title>life_events:reminder_id&#45;&gt;reminders:id</title>
<path fill="none" stroke="#000000" d="M324.4432,-2385.4296C376.6348,-2361.9645 342.4489,-2145.8978 314.5,-2090 302.5743,-2066.1486 278.4257,-2077.8514 266.5,-2054 247.3195,-2015.639 223.6111,-1957.5 266.5,-1957.5"/>
<polygon fill="#000000" stroke="#000000" points="324.29,-2385.4614 313.5826,-2383.0945 319.395,-2386.4807 314.5,-2387.5 314.5,-2387.5 314.5,-2387.5 319.395,-2386.4807 315.4174,-2391.9055 324.29,-2385.4614 324.29,-2385.4614"/>
<text text-anchor="start" x="321.45" y="-2397.5" font-family="Arial" font-size="10.00" fill="#000000">FOREIGN KEY (reminder_id) REFERENCES reminders (id)</text>
</g>
<!-- reminder_outbox -->
<g id="node4" class="node">
<title>reminder_outbox</title>
<polygon fill="#efefef" stroke="transparent" points="418.5,-2462.5 418.5,-2497.5 690.5,-2497.5 690.5,-2462.5 418.5,-2462.5"/>
<polygon fill="none" stroke="#000000" points="418.5,-2462.5 418.5,-2497.5 690.5,-2497.5 690.5,-2462.5 418.5,-2462.5"/>
<text text-anchor="start" x="438.3587" y="-2475.3" font-family="Arial Bold" font-size="18.00" fill="#000000">reminder_outbox</text>
<text text-anchor="start" x="573.3875" y="-2475.3" font-family="Arial" font-size="14.00" fill="#000000"> </text>
<text text-anchor="start" x="577.2781" y="-2475.3" font-family="Arial" font-size="14.00" fill="#666666">[BASE TABLE]</text>
<polygon fill="none" stroke="#000000" points="418.5,-2432.5 418.5,-2462.5 690.5,-2462.5 690.5,-2432.5 418.5,-2432.5"/>
<text text-anchor="start" x="425.5" y="-2443.9" font-family="Arial" font-size="14.00" fill="#000000">id </text>
<text text-anchor="start" x="440.2798" y="-2443.9" font-family="Arial" font-size="14.00" fill="#666666">[int(10) unsigned]</text>
<polygon fill="none" stroke="#000000" points="418.5,-2402.5 418.5,-2432.5 690.5,-2432.5 690.5,-2402.5 418.5,-2402.5"/>
<text text-anchor="start" x="425.5" y="-2413.9" font-family="Arial" font-size="14.00" fill="#000000">account_id </text>
<text text-anchor="start" x="497.0834" y="-2413.9" font-family="Arial" font-size="14.00" fill="#666666">[int(10) unsigned]</text>
<polygon fill="none" stroke="#000000" points="418.5,-2372.5 418.5,-2402.5 690.5,-2402.5 690.5,-2372.5 418.5,-2372.5"/>
<text text-anchor="start" x="425.5" y="-2383.9" font-family="Arial" font-size="14.00" fill="#000000">reminder_id </text>
<text text-anchor="start" x="503.2812" y="-2383.9" font-family="Arial" font-size="14.00" fill="#666666">[int(10) unsigned]</text>
<polygon fill="none" stroke="#000000" points="418.5,-2342.5 418.5,-2372.5 690.5,-2372.5 690.5,-2342.5 418.5,-2342.5"/>
<text text-anchor="start" x="425.5" y="-2353.9" font-family="Arial" font-size="14.00" fill="#000000">user_id </text>
<text text-anchor="start" x="475.2882" y="-2353.9" font-family="Arial" font-size="14.00" fill="#666666">[int(10) unsigned]</text>
<polygon fill="none" stroke="#000000" points="418.5,-2312.5 418.5,-2342.5 690.5,-2342.5 690.5,-2312.5 418.5,-2312.5"/>
<text text-anchor="start" x="425.5" y="-2323.9" font-family="Arial" font-size="14.00" fill="#000000">planned_date </text>
<text text-anchor="start" x="514.2138" y="-2323.9" font-family="Arial" font-size="14.00" fill="#666666">[date]</text>
<polygon fill="none" stroke="#000000" points="418.5,-2282.5 418.5,-2312.5 690.5,-2312.5 690.5,-2282.5 418.5,-2282.5"/>
<text text-anchor="start" x="425.5" y="-2293.9" font-family="Arial" font-size="14.00" fill="#000000">nature </text>
<text text-anchor="start" x="469.0722" y="-2293.9" font-family="Arial" font-size="14.00" fill="#666666">[varchar(255)]</text>
<polygon fill="none" stroke="#000000" points="418.5,-2252.5 418.5,-2282.5 690.5,-2282.5 690.5,-2252.5 418.5,-2252.5"/>
<text text-anchor="start" x="425.3556" y="-2263.9" font-family="Arial" font-size="14.00" fill="#000000">notification_number_days_before </text>
<text text-anchor="start" x="636.197" y="-2263.9" font-family="Arial" font-size="14.00" fill="#666666">[int(11)]</text>
<polygon fill="none" stroke="#000000" points="418.5,-2222.5 418.5,-2252.5 690.5,-2252.5 690.5,-2222.5 418.5,-2222.5"/>
<text text-anchor="start" x="425.5" y="-2233.9" font-family="Arial" font-size="14.00" fill="#000000">created_at </text>
<text text-anchor="start" x="495.528" y="-2233.9" font-family="Arial" font-size="14.00" fill="#666666">[timestamp]</text>
<polygon fill="none" stroke="#000000" points="418.5,-2192.5 418.5,-2222.5 690.5,-2222.5 690.5,-2192.5 418.5,-2192.5"/>
<text text-anchor="start" x="425.5" y="-2203.9" font-family="Arial" font-size="14.00" fill="#000000">updated_at </text>
<text text-anchor="start" x="499.4326" y="-2203.9" font-family="Arial" font-size="14.00" fill="#666666">[timestamp]</text>
</g>
<!-- reminder_outbox&#45;&gt;reminders -->
<g id="edge5" class="edge">
<title>reminder_outbox:reminder_id&#45;&gt;reminders:id</title>
<path fill="none" stroke="#000000" d="M408.7105,-2384.8509C371.2979,-2361.9912 407.2268,-2197.7543 418.5,-2150 429.4599,-2103.5733 455.5401,-2100.4267 466.5,-2054 476.3538,-2012.2584 509.3889,-1957.5 466.5,-1957.5"/>
<polygon fill="#000000" stroke="#000000" points="408.8472,-2384.8878 417.3245,-2391.8438 413.6736,-2386.1939 418.5,-2387.5 418.5,-2387.5 418.5,-2387.5 413.6736,-2386.1939 419.6755,-2383.1562 408.8472,-2384.8878 408.8472,-2384.8878"/>
<text text-anchor="start" x="425.45" y="-2371.5" font-family="Arial" font-size="10.00" fill="#000000">FOREIGN KEY (reminder_id) REFERENCES reminders (id)</text>
</g>
</g>
</svg>
