<?xml version="1.0" encoding="UTF-8" standalone="no"?>
<!DOCTYPE svg PUBLIC "-//W3C//DTD SVG 1.1//EN"
 "http://www.w3.org/Graphics/SVG/1.1/DTD/svg11.dtd">
<!-- Generated by graphviz version 2.40.1 (20161225.0304)
 -->
<!-- Title: statistics Pages: 1 -->
<svg width="469pt" height="1035pt"
 viewBox="0.00 0.00 469.00 1035.00" xmlns="http://www.w3.org/2000/svg" xmlns:xlink="http://www.w3.org/1999/xlink">
<g id="graph0" class="graph" transform="scale(1 1) rotate(0) translate(4 1031)">
<title>statistics</title>
<polygon fill="#ffffff" stroke="transparent" points="-4,4 -4,-1031 465,-1031 465,4 -4,4"/>
<!-- statistics -->
<g id="node1" class="node">
<title>statistics</title>
<polygon fill="#efefef" stroke="transparent" points="46.5,-945.5 46.5,-980.5 415.5,-980.5 415.5,-945.5 46.5,-945.5"/>
<polygon fill="none" stroke="#000000" points="46.5,-945.5 46.5,-980.5 415.5,-980.5 415.5,-945.5 46.5,-945.5"/>
<text text-anchor="start" x="147.8725" y="-958.3" font-family="Arial Bold" font-size="18.00" fill="#000000">statistics</text>
<text text-anchor="start" x="216.8737" y="-958.3" font-family="Arial" font-size="14.00" fill="#000000"> </text>
<text text-anchor="start" x="220.7643" y="-958.3" font-family="Arial" font-size="14.00" fill="#666666">[BASE TABLE]</text>
<polygon fill="none" stroke="#000000" points="46.5,-915.5 46.5,-945.5 415.5,-945.5 415.5,-915.5 46.5,-915.5"/>
<text text-anchor="start" x="53.5" y="-926.9" font-family="Arial" font-size="14.00" fill="#000000">id </text>
<text text-anchor="start" x="68.2798" y="-926.9" font-family="Arial" font-size="14.00" fill="#666666">[int(10) unsigned]</text>
<polygon fill="none" stroke="#000000" points="46.5,-885.5 46.5,-915.5 415.5,-915.5 415.5,-885.5 46.5,-885.5"/>
<text text-anchor="start" x="53.5" y="-896.9" font-family="Arial" font-size="14.00" fill="#000000">number_of_users </text>
<text text-anchor="start" x="166.3064" y="-896.9" font-family="Arial" font-size="14.00" fill="#666666">[int(11)]</text>
<polygon fill="none" stroke="#000000" points="46.5,-855.5 46.5,-885.5 415.5,-885.5 415.5,-855.5 46.5,-855.5"/>
<text text-anchor="start" x="53.5" y="-866.9" font-family="Arial" font-size="14.00" fill="#000000">number_of_contacts </text>
<text text-anchor="start" x="184.2096" y="-866.9" font-family="Arial" font-size="14.00" fill="#666666">[int(11)]</text>
<polygon fill="none" stroke="#000000" points="46.5,-825.5 46.5,-855.5 415.5,-855.5 415.5,-825.5 46.5,-825.5"/>
<text text-anchor="start" x="53.5" y="-836.9" font-family="Arial" font-size="14.00" fill="#000000">number_of_notes </text>
<text text-anchor="start" x="166.319" y="-836.9" font-family="Arial" font-size="14.00" fill="#666666">[int(11)]</text>
<polygon fill="none" stroke="#000000" points="46.5,-795.5 46.5,-825.5 415.5,-825.5 415.5,-795.5 46.5,-795.5"/>
<text text-anchor="start" x="53.5" y="-806.9" font-family="Arial" font-size="14.00" fill="#000000">number_of_oauth_access_tokens </text>
<text text-anchor="start" x="267.4704" y="-806.9" font-family="Arial" font-size="14.00" fill="#666666">[int(11)]</text>
<polygon fill="none" stroke="#000000" points="46.5,-765.5 46.5,-795.5 415.5,-795.5 415.5,-765.5 46.5,-765.5"/>
<text text-anchor="start" x="53.5" y="-776.9" font-family="Arial" font-size="14.00" fill="#000000">number_of_oauth_clients </text>
<text text-anchor="start" x="214.5532" y="-776.9" font-family="Arial" font-size="14.00" fill="#666666">[int(11)]</text>
<polygon fill="none" stroke="#000000" points="46.5,-735.5 46.5,-765.5 415.5,-765.5 415.5,-735.5 46.5,-735.5"/>
<text text-anchor="start" x="53.5" y="-746.9" font-family="Arial" font-size="14.00" fill="#000000">number_of_offsprings </text>
<text text-anchor="start" x="192.7594" y="-746.9" font-family="Arial" font-size="14.00" fill="#666666">[int(11)]</text>
<polygon fill="none" stroke="#000000" points="46.5,-705.5 46.5,-735.5 415.5,-735.5 415.5,-705.5 46.5,-705.5"/>
<text text-anchor="start" x="53.5" y="-716.9" font-family="Arial" font-size="14.00" fill="#000000">number_of_progenitors </text>
<text text-anchor="start" x="202.0946" y="-716.9" font-family="Arial" font-size="14.00" fill="#666666">[int(11)]</text>
<polygon fill="none" stroke="#000000" points="46.5,-675.5 46.5,-705.5 415.5,-705.5 415.5,-675.5 46.5,-675.5"/>
<text text-anchor="start" x="53.5" y="-686.9" font-family="Arial" font-size="14.00" fill="#000000">number_of_relationships </text>
<text text-anchor="start" x="210.6472" y="-686.9" font-family="Arial" font-size="14.00" fill="#666666">[int(11)]</text>
<polygon fill="none" stroke="#000000" points="46.5,-645.5 46.5,-675.5 415.5,-675.5 415.5,-645.5 46.5,-645.5"/>
<text text-anchor="start" x="53.5" y="-656.9" font-family="Arial" font-size="14.00" fill="#000000">number_of_subscriptions </text>
<text text-anchor="start" x="213.758" y="-656.9" font-family="Arial" font-size="14.00" fill="#666666">[int(11)]</text>
<polygon fill="none" stroke="#000000" points="46.5,-615.5 46.5,-645.5 415.5,-645.5 415.5,-615.5 46.5,-615.5"/>
<text text-anchor="start" x="53.5" y="-626.9" font-family="Arial" font-size="14.00" fill="#000000">number_of_reminders </text>
<text text-anchor="start" x="194.2994" y="-626.9" font-family="Arial" font-size="14.00" fill="#666666">[int(11)]</text>
<polygon fill="none" stroke="#000000" points="46.5,-585.5 46.5,-615.5 415.5,-615.5 415.5,-585.5 46.5,-585.5"/>
<text text-anchor="start" x="53.5" y="-596.9" font-family="Arial" font-size="14.00" fill="#000000">number_of_tasks </text>
<text text-anchor="start" x="164.7538" y="-596.9" font-family="Arial" font-size="14.00" fill="#666666">[int(11)]</text>
<polygon fill="none" stroke="#000000" points="46.5,-555.5 46.5,-585.5 415.5,-585.5 415.5,-555.5 46.5,-555.5"/>
<text text-anchor="start" x="53.5" y="-566.9" font-family="Arial" font-size="14.00" fill="#000000">number_of_kids </text>
<text text-anchor="start" x="156.9698" y="-566.9" font-family="Arial" font-size="14.00" fill="#666666">[int(11)]</text>
<polygon fill="none" stroke="#000000" points="46.5,-525.5 46.5,-555.5 415.5,-555.5 415.5,-525.5 46.5,-525.5"/>
<text text-anchor="start" x="53.5" y="-536.9" font-family="Arial" font-size="14.00" fill="#000000">number_of_activities </text>
<text text-anchor="start" x="185.7468" y="-536.9" font-family="Arial" font-size="14.00" fill="#666666">[int(11)]</text>
<polygon fill="none" stroke="#000000" points="46.5,-495.5 46.5,-525.5 415.5,-525.5 415.5,-495.5 46.5,-495.5"/>
<text text-anchor="start" x="53.5" y="-506.9" font-family="Arial" font-size="14.00" fill="#000000">number_of_addresses </text>
<text text-anchor="start" x="196.6542" y="-506.9" font-family="Arial" font-size="14.00" fill="#666666">[int(11)]</text>
<polygon fill="none" stroke="#000000" points="46.5,-465.5 46.5,-495.5 415.5,-495.5 415.5,-465.5 46.5,-465.5"/>
<text text-anchor="start" x="53.5" y="-476.9" font-family="Arial" font-size="14.00" fill="#000000">number_of_api_calls </text>
<text text-anchor="start" x="186.5308" y="-476.9" font-family="Arial" font-size="14.00" fill="#666666">[int(11)]</text>
<polygon fill="none" stroke="#000000" points="46.5,-435.5 46.5,-465.5 415.5,-465.5 415.5,-435.5 46.5,-435.5"/>
<text text-anchor="start" x="53.5" y="-446.9" font-family="Arial" font-size="14.00" fill="#000000">number_of_calls </text>
<text text-anchor="start" x="160.0764" y="-446.9" font-family="Arial" font-size="14.00" fill="#666666">[int(11)]</text>
<polygon fill="none" stroke="#000000" points="46.5,-405.5 46.5,-435.5 415.5,-435.5 415.5,-405.5 46.5,-405.5"/>
<text text-anchor="start" x="53.5" y="-416.9" font-family="Arial" font-size="14.00" fill="#000000">number_of_contact_fields </text>
<text text-anchor="start" x="217.6612" y="-416.9" font-family="Arial" font-size="14.00" fill="#666666">[int(11)]</text>
<polygon fill="none" stroke="#000000" points="46.5,-375.5 46.5,-405.5 415.5,-405.5 415.5,-375.5 46.5,-375.5"/>
<text text-anchor="start" x="53.5" y="-386.9" font-family="Arial" font-size="14.00" fill="#000000">number_of_contact_field_types </text>
<text text-anchor="start" x="251.8996" y="-386.9" font-family="Arial" font-size="14.00" fill="#666666">[int(11)]</text>
<polygon fill="none" stroke="#000000" points="46.5,-345.5 46.5,-375.5 415.5,-375.5 415.5,-345.5 46.5,-345.5"/>
<text text-anchor="start" x="53.5" y="-356.9" font-family="Arial" font-size="14.00" fill="#000000">number_of_debts </text>
<text text-anchor="start" x="166.319" y="-356.9" font-family="Arial" font-size="14.00" fill="#666666">[int(11)]</text>
<polygon fill="none" stroke="#000000" points="46.5,-315.5 46.5,-345.5 415.5,-345.5 415.5,-315.5 46.5,-315.5"/>
<text text-anchor="start" x="53.5" y="-326.9" font-family="Arial" font-size="14.00" fill="#000000">number_of_entries </text>
<text text-anchor="start" x="174.0862" y="-326.9" font-family="Arial" font-size="14.00" fill="#666666">[int(11)]</text>
<polygon fill="none" stroke="#000000" points="46.5,-285.5 46.5,-315.5 415.5,-315.5 415.5,-285.5 46.5,-285.5"/>
<text text-anchor="start" x="53.5" y="-296.9" font-family="Arial" font-size="14.00" fill="#000000">number_of_gifts </text>
<text text-anchor="start" x="157.751" y="-296.9" font-family="Arial" font-size="14.00" fill="#666666">[int(11)]</text>
<polygon fill="none" stroke="#000000" points="46.5,-255.5 46.5,-285.5 415.5,-285.5 415.5,-255.5 46.5,-255.5"/>
<text text-anchor="start" x="53.5" y="-266.9" font-family="Arial" font-size="14.00" fill="#000000">number_of_invitations_sent </text>
<text text-anchor="start" x="228.5504" y="-266.9" font-family="Arial" font-size="14.00" fill="#666666">[int(11)]</text>
<polygon fill="none" stroke="#000000" points="46.5,-225.5 46.5,-255.5 415.5,-255.5 415.5,-225.5 46.5,-225.5"/>
<text text-anchor="start" x="53.2266" y="-236.9" font-family="Arial" font-size="14.00" fill="#000000">number_of_accounts_with_more_than_one_user </text>
<text text-anchor="start" x="361.326" y="-236.9" font-family="Arial" font-size="14.00" fill="#666666">[int(11)]</text>
<polygon fill="none" stroke="#000000" points="46.5,-195.5 46.5,-225.5 415.5,-225.5 415.5,-195.5 46.5,-195.5"/>
<text text-anchor="start" x="53.5" y="-206.9" font-family="Arial" font-size="14.00" fill="#000000">number_of_tags </text>
<text text-anchor="start" x="158.5364" y="-206.9" font-family="Arial" font-size="14.00" fill="#666666">[int(11)]</text>
<polygon fill="none" stroke="#000000" points="46.5,-165.5 46.5,-195.5 415.5,-195.5 415.5,-165.5 46.5,-165.5"/>
<text text-anchor="start" x="53.5" y="-176.9" font-family="Arial" font-size="14.00" fill="#000000">number_of_import_jobs </text>
<text text-anchor="start" x="204.4186" y="-176.9" font-family="Arial" font-size="14.00" fill="#666666">[int(11)]</text>
<polygon fill="none" stroke="#000000" points="46.5,-135.5 46.5,-165.5 415.5,-165.5 415.5,-135.5 46.5,-135.5"/>
<text text-anchor="start" x="53.5" y="-146.9" font-family="Arial" font-size="14.00" fill="#000000">number_of_conversations </text>
<text text-anchor="start" x="218.434" y="-146.9" font-family="Arial" font-size="14.00" fill="#666666">[int(11)]</text>
<polygon fill="none" stroke="#000000" points="46.5,-105.5 46.5,-135.5 415.5,-135.5 415.5,-105.5 46.5,-105.5"/>
<text text-anchor="start" x="53.5" y="-116.9" font-family="Arial" font-size="14.00" fill="#000000">number_of_messages </text>
<text text-anchor="start" x="195.8716" y="-116.9" font-family="Arial" font-size="14.00" fill="#666666">[int(11)]</text>
<polygon fill="none" stroke="#000000" points="46.5,-75.5 46.5,-105.5 415.5,-105.5 415.5,-75.5 46.5,-75.5"/>
<text text-anchor="start" x="53.5" y="-86.9" font-family="Arial" font-size="14.00" fill="#000000">created_at </text>
<text text-anchor="start" x="123.528" y="-86.9" font-family="Arial" font-size="14.00" fill="#666666">[timestamp]</text>
<polygon fill="none" stroke="#000000" points="46.5,-45.5 46.5,-75.5 415.5,-75.5 415.5,-45.5 46.5,-45.5"/>
<text text-anchor="start" x="53.5" y="-56.9" font-family="Arial" font-size="14.00" fill="#000000">updated_at </text>
<text text-anchor="start" x="127.4326" y="-56.9" font-family="Arial" font-size="14.00" fill="#666666">[timestamp]</text>
<polygon fill="none" stroke="#000000" stroke-width="3" points="44.5,-44.5 44.5,-982.5 416.5,-982.5 416.5,-44.5 44.5,-44.5"/>
</g>
</g>
</svg>
