<?xml version="1.0" encoding="UTF-8" standalone="no"?>
<!DOCTYPE svg PUBLIC "-//W3C//DTD SVG 1.1//EN"
 "http://www.w3.org/Graphics/SVG/1.1/DTD/svg11.dtd">
<!-- Generated by graphviz version 2.40.1 (20161225.0304)
 -->
<!-- Title: synctoken Pages: 1 -->
<svg width="816pt" height="1282pt"
 viewBox="0.00 0.00 816.00 1282.00" xmlns="http://www.w3.org/2000/svg" xmlns:xlink="http://www.w3.org/1999/xlink">
<g id="graph0" class="graph" transform="scale(1 1) rotate(0) translate(4 1278)">
<title>synctoken</title>
<polygon fill="#ffffff" stroke="transparent" points="-4,4 -4,-1278 812,-1278 812,4 -4,4"/>
<!-- synctoken -->
<g id="node1" class="node">
<title>synctoken</title>
<polygon fill="#efefef" stroke="transparent" points="310.5,-1192.5 310.5,-1227.5 503.5,-1227.5 503.5,-1192.5 310.5,-1192.5"/>
<polygon fill="none" stroke="#000000" points="310.5,-1192.5 310.5,-1227.5 503.5,-1227.5 503.5,-1192.5 310.5,-1192.5"/>
<text text-anchor="start" x="317.8596" y="-1205.3" font-family="Arial Bold" font-size="18.00" fill="#000000">synctoken</text>
<text text-anchor="start" x="398.8866" y="-1205.3" font-family="Arial" font-size="14.00" fill="#000000"> </text>
<text text-anchor="start" x="402.7772" y="-1205.3" font-family="Arial" font-size="14.00" fill="#666666">[BASE TABLE]</text>
<polygon fill="none" stroke="#000000" points="310.5,-1162.5 310.5,-1192.5 503.5,-1192.5 503.5,-1162.5 310.5,-1162.5"/>
<text text-anchor="start" x="317.5" y="-1173.9" font-family="Arial" font-size="14.00" fill="#000000">id </text>
<text text-anchor="start" x="332.2798" y="-1173.9" font-family="Arial" font-size="14.00" fill="#666666">[int(10) unsigned]</text>
<polygon fill="none" stroke="#000000" points="310.5,-1132.5 310.5,-1162.5 503.5,-1162.5 503.5,-1132.5 310.5,-1132.5"/>
<text text-anchor="start" x="317.1382" y="-1143.9" font-family="Arial" font-size="14.00" fill="#000000">account_id </text>
<text text-anchor="start" x="388.7216" y="-1143.9" font-family="Arial" font-size="14.00" fill="#666666">[int(10) unsigned]</text>
<polygon fill="none" stroke="#000000" points="310.5,-1102.5 310.5,-1132.5 503.5,-1132.5 503.5,-1102.5 310.5,-1102.5"/>
<text text-anchor="start" x="317.5" y="-1113.9" font-family="Arial" font-size="14.00" fill="#000000">user_id </text>
<text text-anchor="start" x="367.2882" y="-1113.9" font-family="Arial" font-size="14.00" fill="#666666">[int(10) unsigned]</text>
<polygon fill="none" stroke="#000000" points="310.5,-1072.5 310.5,-1102.5 503.5,-1102.5 503.5,-1072.5 310.5,-1072.5"/>
<text text-anchor="start" x="317.5" y="-1083.9" font-family="Arial" font-size="14.00" fill="#000000">name </text>
<text text-anchor="start" x="356.399" y="-1083.9" font-family="Arial" font-size="14.00" fill="#666666">[varchar(255)]</text>
<polygon fill="none" stroke="#000000" points="310.5,-1042.5 310.5,-1072.5 503.5,-1072.5 503.5,-1042.5 310.5,-1042.5"/>
<text text-anchor="start" x="317.5" y="-1053.9" font-family="Arial" font-size="14.00" fill="#000000">timestamp </text>
<text text-anchor="start" x="385.9474" y="-1053.9" font-family="Arial" font-size="14.00" fill="#666666">[timestamp]</text>
<polygon fill="none" stroke="#000000" points="310.5,-1012.5 310.5,-1042.5 503.5,-1042.5 503.5,-1012.5 310.5,-1012.5"/>
<text text-anchor="start" x="317.5" y="-1023.9" font-family="Arial" font-size="14.00" fill="#000000">created_at </text>
<text text-anchor="start" x="387.528" y="-1023.9" font-family="Arial" font-size="14.00" fill="#666666">[timestamp]</text>
<polygon fill="none" stroke="#000000" points="310.5,-982.5 310.5,-1012.5 503.5,-1012.5 503.5,-982.5 310.5,-982.5"/>
<text text-anchor="start" x="317.5" y="-993.9" font-family="Arial" font-size="14.00" fill="#000000">updated_at </text>
<text text-anchor="start" x="391.4326" y="-993.9" font-family="Arial" font-size="14.00" fill="#666666">[timestamp]</text>
<polygon fill="none" stroke="#000000" stroke-width="3" points="308.5,-981.5 308.5,-1229.5 504.5,-1229.5 504.5,-981.5 308.5,-981.5"/>
</g>
<!-- accounts -->
<g id="node2" class="node">
<title>accounts</title>
<polygon fill="#efefef" stroke="transparent" points="43.5,-627.5 43.5,-662.5 358.5,-662.5 358.5,-627.5 43.5,-627.5"/>
<polygon fill="none" stroke="#000000" points="43.5,-627.5 43.5,-662.5 358.5,-662.5 358.5,-627.5 43.5,-627.5"/>
<text text-anchor="start" x="116.3596" y="-640.3" font-family="Arial Bold" font-size="18.00" fill="#000000">accounts</text>
<text text-anchor="start" x="188.3866" y="-640.3" font-family="Arial" font-size="14.00" fill="#000000"> </text>
<text text-anchor="start" x="192.2772" y="-640.3" font-family="Arial" font-size="14.00" fill="#666666">[BASE TABLE]</text>
<polygon fill="none" stroke="#000000" points="43.5,-597.5 43.5,-627.5 358.5,-627.5 358.5,-597.5 43.5,-597.5"/>
<text text-anchor="start" x="50.5" y="-608.9" font-family="Arial" font-size="14.00" fill="#000000">id </text>
<text text-anchor="start" x="65.2798" y="-608.9" font-family="Arial" font-size="14.00" fill="#666666">[int(10) unsigned]</text>
<polygon fill="none" stroke="#000000" points="43.5,-567.5 43.5,-597.5 358.5,-597.5 358.5,-567.5 43.5,-567.5"/>
<text text-anchor="start" x="50.073" y="-578.9" font-family="Arial" font-size="14.00" fill="#000000">has_access_to_paid_version_for_free </text>
<text text-anchor="start" x="290.4824" y="-578.9" font-family="Arial" font-size="14.00" fill="#666666">[tinyint(1)]</text>
<polygon fill="none" stroke="#000000" points="43.5,-537.5 43.5,-567.5 358.5,-567.5 358.5,-537.5 43.5,-537.5"/>
<text text-anchor="start" x="50.5" y="-548.9" font-family="Arial" font-size="14.00" fill="#000000">api_key </text>
<text text-anchor="start" x="102.6276" y="-548.9" font-family="Arial" font-size="14.00" fill="#666666">[varchar(255)]</text>
<polygon fill="none" stroke="#000000" points="43.5,-507.5 43.5,-537.5 358.5,-537.5 358.5,-507.5 43.5,-507.5"/>
<text text-anchor="start" x="50.5" y="-518.9" font-family="Arial" font-size="14.00" fill="#000000">number_of_invitations_sent </text>
<text text-anchor="start" x="225.5504" y="-518.9" font-family="Arial" font-size="14.00" fill="#666666">[int(11)]</text>
<polygon fill="none" stroke="#000000" points="43.5,-477.5 43.5,-507.5 358.5,-507.5 358.5,-477.5 43.5,-477.5"/>
<text text-anchor="start" x="50.5" y="-488.9" font-family="Arial" font-size="14.00" fill="#000000">default_time_reminder_is_sent </text>
<text text-anchor="start" x="245.7608" y="-488.9" font-family="Arial" font-size="14.00" fill="#666666">[varchar(255)]</text>
<polygon fill="none" stroke="#000000" points="43.5,-447.5 43.5,-477.5 358.5,-477.5 358.5,-447.5 43.5,-447.5"/>
<text text-anchor="start" x="50.5" y="-458.9" font-family="Arial" font-size="14.00" fill="#000000">default_gender_id </text>
<text text-anchor="start" x="166.4368" y="-458.9" font-family="Arial" font-size="14.00" fill="#666666">[int(10) unsigned]</text>
<polygon fill="none" stroke="#000000" points="43.5,-417.5 43.5,-447.5 358.5,-447.5 358.5,-417.5 43.5,-417.5"/>
<text text-anchor="start" x="50.5" y="-428.9" font-family="Arial" font-size="14.00" fill="#000000">stripe_id </text>
<text text-anchor="start" x="107.2854" y="-428.9" font-family="Arial" font-size="14.00" fill="#666666">[varchar(255)]</text>
<polygon fill="none" stroke="#000000" points="43.5,-387.5 43.5,-417.5 358.5,-417.5 358.5,-387.5 43.5,-387.5"/>
<text text-anchor="start" x="50.5" y="-398.9" font-family="Arial" font-size="14.00" fill="#000000">card_brand </text>
<text text-anchor="start" x="125.19" y="-398.9" font-family="Arial" font-size="14.00" fill="#666666">[varchar(255)]</text>
<polygon fill="none" stroke="#000000" points="43.5,-357.5 43.5,-387.5 358.5,-387.5 358.5,-357.5 43.5,-357.5"/>
<text text-anchor="start" x="50.5" y="-368.9" font-family="Arial" font-size="14.00" fill="#000000">card_last_four </text>
<text text-anchor="start" x="143.0778" y="-368.9" font-family="Arial" font-size="14.00" fill="#666666">[varchar(4)]</text>
<polygon fill="none" stroke="#000000" points="43.5,-327.5 43.5,-357.5 358.5,-357.5 358.5,-327.5 43.5,-327.5"/>
<text text-anchor="start" x="50.5" y="-338.9" font-family="Arial" font-size="14.00" fill="#000000">trial_ends_at </text>
<text text-anchor="start" x="134.5238" y="-338.9" font-family="Arial" font-size="14.00" fill="#666666">[timestamp]</text>
<polygon fill="none" stroke="#000000" points="43.5,-297.5 43.5,-327.5 358.5,-327.5 358.5,-297.5 43.5,-297.5"/>
<text text-anchor="start" x="50.5" y="-308.9" font-family="Arial" font-size="14.00" fill="#000000">legacy_free_plan_unlimited_contacts </text>
<text text-anchor="start" x="284.6766" y="-308.9" font-family="Arial" font-size="14.00" fill="#666666">[tinyint(1)]</text>
<polygon fill="none" stroke="#000000" points="43.5,-267.5 43.5,-297.5 358.5,-297.5 358.5,-267.5 43.5,-267.5"/>
<text text-anchor="start" x="50.5" y="-278.9" font-family="Arial" font-size="14.00" fill="#000000">created_at </text>
<text text-anchor="start" x="120.528" y="-278.9" font-family="Arial" font-size="14.00" fill="#666666">[timestamp]</text>
<polygon fill="none" stroke="#000000" points="43.5,-237.5 43.5,-267.5 358.5,-267.5 358.5,-237.5 43.5,-237.5"/>
<text text-anchor="start" x="50.5" y="-248.9" font-family="Arial" font-size="14.00" fill="#000000">updated_at </text>
<text text-anchor="start" x="124.4326" y="-248.9" font-family="Arial" font-size="14.00" fill="#666666">[timestamp]</text>
</g>
<!-- synctoken&#45;&gt;accounts -->
<g id="edge1" class="edge">
<title>synctoken:account_id&#45;&gt;accounts:id</title>
<path fill="none" stroke="#000000" d="M300.5962,-1144.6661C245.0407,-1108.4572 355.3212,-736.9224 358.5,-706 362.7494,-664.6623 400.0556,-612.5 358.5,-612.5"/>
<polygon fill="#000000" stroke="#000000" points="300.8858,-1144.7489 309.262,-1151.8264 305.6929,-1146.1245 310.5,-1147.5 310.5,-1147.5 310.5,-1147.5 305.6929,-1146.1245 311.738,-1143.1736 300.8858,-1144.7489 300.8858,-1144.7489"/>
<text text-anchor="start" x="46.877" y="-1157.5" font-family="Arial" font-size="10.00" fill="#000000">FOREIGN KEY (account_id) REFERENCES accounts (id)</text>
</g>
<!-- users -->
<g id="node3" class="node">
<title>users</title>
<polygon fill="#efefef" stroke="transparent" points="462.5,-822.5 462.5,-857.5 765.5,-857.5 765.5,-822.5 462.5,-822.5"/>
<polygon fill="none" stroke="#000000" points="462.5,-822.5 462.5,-857.5 765.5,-857.5 765.5,-822.5 462.5,-822.5"/>
<text text-anchor="start" x="543.3708" y="-835.3" font-family="Arial Bold" font-size="18.00" fill="#000000">users</text>
<text text-anchor="start" x="587.3754" y="-835.3" font-family="Arial" font-size="14.00" fill="#000000"> </text>
<text text-anchor="start" x="591.266" y="-835.3" font-family="Arial" font-size="14.00" fill="#666666">[BASE TABLE]</text>
<polygon fill="none" stroke="#000000" points="462.5,-792.5 462.5,-822.5 765.5,-822.5 765.5,-792.5 462.5,-792.5"/>
<text text-anchor="start" x="469.5" y="-803.9" font-family="Arial" font-size="14.00" fill="#000000">id </text>
<text text-anchor="start" x="484.2798" y="-803.9" font-family="Arial" font-size="14.00" fill="#666666">[int(10) unsigned]</text>
<polygon fill="none" stroke="#000000" points="462.5,-762.5 462.5,-792.5 765.5,-792.5 765.5,-762.5 462.5,-762.5"/>
<text text-anchor="start" x="469.5" y="-773.9" font-family="Arial" font-size="14.00" fill="#000000">first_name </text>
<text text-anchor="start" x="538.73" y="-773.9" font-family="Arial" font-size="14.00" fill="#666666">[varchar(255)]</text>
<polygon fill="none" stroke="#000000" points="462.5,-732.5 462.5,-762.5 765.5,-762.5 765.5,-732.5 462.5,-732.5"/>
<text text-anchor="start" x="469.5" y="-743.9" font-family="Arial" font-size="14.00" fill="#000000">last_name </text>
<text text-anchor="start" x="537.9614" y="-743.9" font-family="Arial" font-size="14.00" fill="#666666">[varchar(255)]</text>
<polygon fill="none" stroke="#000000" points="462.5,-702.5 462.5,-732.5 765.5,-732.5 765.5,-702.5 462.5,-702.5"/>
<text text-anchor="start" x="469.5" y="-713.9" font-family="Arial" font-size="14.00" fill="#000000">email </text>
<text text-anchor="start" x="506.8296" y="-713.9" font-family="Arial" font-size="14.00" fill="#666666">[varchar(255)]</text>
<polygon fill="none" stroke="#000000" points="462.5,-672.5 462.5,-702.5 765.5,-702.5 765.5,-672.5 462.5,-672.5"/>
<text text-anchor="start" x="469.5" y="-683.9" font-family="Arial" font-size="14.00" fill="#000000">me_contact_id </text>
<text text-anchor="start" x="564.4172" y="-683.9" font-family="Arial" font-size="14.00" fill="#666666">[int(10) unsigned]</text>
<polygon fill="none" stroke="#000000" points="462.5,-642.5 462.5,-672.5 765.5,-672.5 765.5,-642.5 462.5,-642.5"/>
<text text-anchor="start" x="469.5" y="-653.9" font-family="Arial" font-size="14.00" fill="#000000">admin </text>
<text text-anchor="start" x="511.5056" y="-653.9" font-family="Arial" font-size="14.00" fill="#666666">[tinyint(1)]</text>
<polygon fill="none" stroke="#000000" points="462.5,-612.5 462.5,-642.5 765.5,-642.5 765.5,-612.5 462.5,-612.5"/>
<text text-anchor="start" x="469.5" y="-623.9" font-family="Arial" font-size="14.00" fill="#000000">email_verified_at </text>
<text text-anchor="start" x="579.1802" y="-623.9" font-family="Arial" font-size="14.00" fill="#666666">[timestamp]</text>
<polygon fill="none" stroke="#000000" points="462.5,-582.5 462.5,-612.5 765.5,-612.5 765.5,-582.5 462.5,-582.5"/>
<text text-anchor="start" x="469.5" y="-593.9" font-family="Arial" font-size="14.00" fill="#000000">password </text>
<text text-anchor="start" x="533.2882" y="-593.9" font-family="Arial" font-size="14.00" fill="#666666">[varchar(255)]</text>
<polygon fill="none" stroke="#000000" points="462.5,-552.5 462.5,-582.5 765.5,-582.5 765.5,-552.5 462.5,-552.5"/>
<text text-anchor="start" x="469.5" y="-563.9" font-family="Arial" font-size="14.00" fill="#000000">remember_token </text>
<text text-anchor="start" x="579.1844" y="-563.9" font-family="Arial" font-size="14.00" fill="#666666">[varchar(100)]</text>
<polygon fill="none" stroke="#000000" points="462.5,-522.5 462.5,-552.5 765.5,-552.5 765.5,-522.5 462.5,-522.5"/>
<text text-anchor="start" x="469.5" y="-533.9" font-family="Arial" font-size="14.00" fill="#000000">google2fa_secret </text>
<text text-anchor="start" x="580.765" y="-533.9" font-family="Arial" font-size="14.00" fill="#666666">[varchar(256)]</text>
<polygon fill="none" stroke="#000000" points="462.5,-492.5 462.5,-522.5 765.5,-522.5 765.5,-492.5 462.5,-492.5"/>
<text text-anchor="start" x="469.5" y="-503.9" font-family="Arial" font-size="14.00" fill="#000000">account_id </text>
<text text-anchor="start" x="541.0834" y="-503.9" font-family="Arial" font-size="14.00" fill="#666666">[int(10) unsigned]</text>
<polygon fill="none" stroke="#000000" points="462.5,-462.5 462.5,-492.5 765.5,-492.5 765.5,-462.5 462.5,-462.5"/>
<text text-anchor="start" x="469.5" y="-473.9" font-family="Arial" font-size="14.00" fill="#000000">timezone </text>
<text text-anchor="start" x="530.1788" y="-473.9" font-family="Arial" font-size="14.00" fill="#666666">[varchar(255)]</text>
<polygon fill="none" stroke="#000000" points="462.5,-432.5 462.5,-462.5 765.5,-462.5 765.5,-432.5 462.5,-432.5"/>
<text text-anchor="start" x="469.5" y="-443.9" font-family="Arial" font-size="14.00" fill="#000000">currency_id </text>
<text text-anchor="start" x="545.7314" y="-443.9" font-family="Arial" font-size="14.00" fill="#666666">[int(10) unsigned]</text>
<polygon fill="none" stroke="#000000" points="462.5,-402.5 462.5,-432.5 765.5,-432.5 765.5,-402.5 462.5,-402.5"/>
<text text-anchor="start" x="469.5" y="-413.9" font-family="Arial" font-size="14.00" fill="#000000">locale </text>
<text text-anchor="start" x="509.9516" y="-413.9" font-family="Arial" font-size="14.00" fill="#666666">[varchar(255)]</text>
<polygon fill="none" stroke="#000000" points="462.5,-372.5 462.5,-402.5 765.5,-402.5 765.5,-372.5 462.5,-372.5"/>
<text text-anchor="start" x="469.5" y="-383.9" font-family="Arial" font-size="14.00" fill="#000000">metric </text>
<text text-anchor="start" x="511.4916" y="-383.9" font-family="Arial" font-size="14.00" fill="#666666">[varchar(255)]</text>
<polygon fill="none" stroke="#000000" points="462.5,-342.5 462.5,-372.5 765.5,-372.5 765.5,-342.5 462.5,-342.5"/>
<text text-anchor="start" x="469.5" y="-353.9" font-family="Arial" font-size="14.00" fill="#000000">fluid_container </text>
<text text-anchor="start" x="564.413" y="-353.9" font-family="Arial" font-size="14.00" fill="#666666">[varchar(255)]</text>
<polygon fill="none" stroke="#000000" points="462.5,-312.5 462.5,-342.5 765.5,-342.5 765.5,-312.5 462.5,-312.5"/>
<text text-anchor="start" x="469.5" y="-323.9" font-family="Arial" font-size="14.00" fill="#000000">contacts_sort_order </text>
<text text-anchor="start" x="597.0876" y="-323.9" font-family="Arial" font-size="14.00" fill="#666666">[varchar(255)]</text>
<polygon fill="none" stroke="#000000" points="462.5,-282.5 462.5,-312.5 765.5,-312.5 765.5,-282.5 462.5,-282.5"/>
<text text-anchor="start" x="469.5" y="-293.9" font-family="Arial" font-size="14.00" fill="#000000">name_order </text>
<text text-anchor="start" x="548.8506" y="-293.9" font-family="Arial" font-size="14.00" fill="#666666">[varchar(255)]</text>
<polygon fill="none" stroke="#000000" points="462.5,-252.5 462.5,-282.5 765.5,-282.5 765.5,-252.5 462.5,-252.5"/>
<text text-anchor="start" x="469.5" y="-263.9" font-family="Arial" font-size="14.00" fill="#000000">invited_by_user_id </text>
<text text-anchor="start" x="590.0876" y="-263.9" font-family="Arial" font-size="14.00" fill="#666666">[int(10) unsigned]</text>
<polygon fill="none" stroke="#000000" points="462.5,-222.5 462.5,-252.5 765.5,-252.5 765.5,-222.5 462.5,-222.5"/>
<text text-anchor="start" x="469.5" y="-233.9" font-family="Arial" font-size="14.00" fill="#000000">dashboard_active_tab </text>
<text text-anchor="start" x="611.1128" y="-233.9" font-family="Arial" font-size="14.00" fill="#666666">[varchar(255)]</text>
<polygon fill="none" stroke="#000000" points="462.5,-192.5 462.5,-222.5 765.5,-222.5 765.5,-192.5 462.5,-192.5"/>
<text text-anchor="start" x="469.5" y="-203.9" font-family="Arial" font-size="14.00" fill="#000000">gifts_active_tab </text>
<text text-anchor="start" x="570.6444" y="-203.9" font-family="Arial" font-size="14.00" fill="#666666">[varchar(255)]</text>
<polygon fill="none" stroke="#000000" points="462.5,-162.5 462.5,-192.5 765.5,-192.5 765.5,-162.5 462.5,-162.5"/>
<text text-anchor="start" x="469.5" y="-173.9" font-family="Arial" font-size="14.00" fill="#000000">profile_active_tab </text>
<text text-anchor="start" x="583.0862" y="-173.9" font-family="Arial" font-size="14.00" fill="#666666">[varchar(255)]</text>
<polygon fill="none" stroke="#000000" points="462.5,-132.5 462.5,-162.5 765.5,-162.5 765.5,-132.5 462.5,-132.5"/>
<text text-anchor="start" x="469.2911" y="-143.9" font-family="Arial" font-size="14.00" fill="#000000">profile_new_life_event_badge_seen </text>
<text text-anchor="start" x="697.2643" y="-143.9" font-family="Arial" font-size="14.00" fill="#666666">[tinyint(1)]</text>
<polygon fill="none" stroke="#000000" points="462.5,-102.5 462.5,-132.5 765.5,-132.5 765.5,-102.5 462.5,-102.5"/>
<text text-anchor="start" x="469.5" y="-113.9" font-family="Arial" font-size="14.00" fill="#000000">temperature_scale </text>
<text text-anchor="start" x="589.3036" y="-113.9" font-family="Arial" font-size="14.00" fill="#666666">[varchar(255)]</text>
<polygon fill="none" stroke="#000000" points="462.5,-72.5 462.5,-102.5 765.5,-102.5 765.5,-72.5 462.5,-72.5"/>
<text text-anchor="start" x="469.5" y="-83.9" font-family="Arial" font-size="14.00" fill="#000000">created_at </text>
<text text-anchor="start" x="539.528" y="-83.9" font-family="Arial" font-size="14.00" fill="#666666">[timestamp]</text>
<polygon fill="none" stroke="#000000" points="462.5,-42.5 462.5,-72.5 765.5,-72.5 765.5,-42.5 462.5,-42.5"/>
<text text-anchor="start" x="469.5" y="-53.9" font-family="Arial" font-size="14.00" fill="#000000">updated_at </text>
<text text-anchor="start" x="543.4326" y="-53.9" font-family="Arial" font-size="14.00" fill="#666666">[timestamp]</text>
</g>
<!-- synctoken&#45;&gt;users -->
<g id="edge2" class="edge">
<title>synctoken:user_id&#45;&gt;users:id</title>
<path fill="none" stroke="#000000" d="M513.553,-1116.8625C579.5157,-1107.9184 535.0998,-1006.7986 503.5,-937 493.4987,-914.9088 472.5013,-923.0912 462.5,-901 445.3612,-863.1434 420.9444,-807.5 462.5,-807.5"/>
<polygon fill="#000000" stroke="#000000" points="513.48,-1116.8671 503.2152,-1113.009 508.49,-1117.1835 503.5,-1117.5 503.5,-1117.5 503.5,-1117.5 508.49,-1117.1835 503.7848,-1121.991 513.48,-1116.8671 513.48,-1116.8671"/>
<text text-anchor="start" x="510.445" y="-1127.5" font-family="Arial" font-size="10.00" fill="#000000">FOREIGN KEY (user_id) REFERENCES users (id)</text>
</g>
</g>
</svg>
