<?xml version="1.0" encoding="UTF-8" standalone="no"?>
<!DOCTYPE svg PUBLIC "-//W3C//DTD SVG 1.1//EN"
 "http://www.w3.org/Graphics/SVG/1.1/DTD/svg11.dtd">
<!-- Generated by graphviz version 2.40.1 (20161225.0304)
 -->
<!-- Title: terms Pages: 1 -->
<svg width="492pt" height="682pt"
 viewBox="0.00 0.00 492.00 682.00" xmlns="http://www.w3.org/2000/svg" xmlns:xlink="http://www.w3.org/1999/xlink">
<g id="graph0" class="graph" transform="scale(1 1) rotate(0) translate(4 678)">
<title>terms</title>
<polygon fill="#ffffff" stroke="transparent" points="-4,4 -4,-678 488,-678 488,4 -4,4"/>
<!-- terms -->
<g id="node1" class="node">
<title>terms</title>
<polygon fill="#efefef" stroke="transparent" points="46,-255.5 46,-290.5 248,-290.5 248,-255.5 46,-255.5"/>
<polygon fill="none" stroke="#000000" points="46,-255.5 46,-290.5 248,-290.5 248,-255.5 46,-255.5"/>
<text text-anchor="start" x="75.8767" y="-268.3" font-family="Arial Bold" font-size="18.00" fill="#000000">terms</text>
<text text-anchor="start" x="120.8695" y="-268.3" font-family="Arial" font-size="14.00" fill="#000000"> </text>
<text text-anchor="start" x="124.7601" y="-268.3" font-family="Arial" font-size="14.00" fill="#666666">[BASE TABLE]</text>
<polygon fill="none" stroke="#000000" points="46,-225.5 46,-255.5 248,-255.5 248,-225.5 46,-225.5"/>
<text text-anchor="start" x="53" y="-236.9" font-family="Arial" font-size="14.00" fill="#000000">id </text>
<text text-anchor="start" x="67.7798" y="-236.9" font-family="Arial" font-size="14.00" fill="#666666">[int(10) unsigned]</text>
<polygon fill="none" stroke="#000000" points="46,-195.5 46,-225.5 248,-225.5 248,-195.5 46,-195.5"/>
<text text-anchor="start" x="53" y="-206.9" font-family="Arial" font-size="14.00" fill="#000000">term_version </text>
<text text-anchor="start" x="137.7826" y="-206.9" font-family="Arial" font-size="14.00" fill="#666666">[varchar(255)]</text>
<polygon fill="none" stroke="#000000" points="46,-165.5 46,-195.5 248,-195.5 248,-165.5 46,-165.5"/>
<text text-anchor="start" x="53" y="-176.9" font-family="Arial" font-size="14.00" fill="#000000">term_content </text>
<text text-anchor="start" x="138.5792" y="-176.9" font-family="Arial" font-size="14.00" fill="#666666">[mediumtext]</text>
<polygon fill="none" stroke="#000000" points="46,-135.5 46,-165.5 248,-165.5 248,-135.5 46,-135.5"/>
<text text-anchor="start" x="52.8801" y="-146.9" font-family="Arial" font-size="14.00" fill="#000000">privacy_version </text>
<text text-anchor="start" x="154.0007" y="-146.9" font-family="Arial" font-size="14.00" fill="#666666">[varchar(255)]</text>
<polygon fill="none" stroke="#000000" points="46,-105.5 46,-135.5 248,-135.5 248,-105.5 46,-105.5"/>
<text text-anchor="start" x="53" y="-116.9" font-family="Arial" font-size="14.00" fill="#000000">privacy_content </text>
<text text-anchor="start" x="154.9172" y="-116.9" font-family="Arial" font-size="14.00" fill="#666666">[mediumtext]</text>
<polygon fill="none" stroke="#000000" points="46,-75.5 46,-105.5 248,-105.5 248,-75.5 46,-75.5"/>
<text text-anchor="start" x="53" y="-86.9" font-family="Arial" font-size="14.00" fill="#000000">created_at </text>
<text text-anchor="start" x="123.028" y="-86.9" font-family="Arial" font-size="14.00" fill="#666666">[timestamp]</text>
<polygon fill="none" stroke="#000000" points="46,-45.5 46,-75.5 248,-75.5 248,-45.5 46,-45.5"/>
<text text-anchor="start" x="53" y="-56.9" font-family="Arial" font-size="14.00" fill="#000000">updated_at </text>
<text text-anchor="start" x="126.9326" y="-56.9" font-family="Arial" font-size="14.00" fill="#666666">[timestamp]</text>
<polygon fill="none" stroke="#000000" stroke-width="3" points="44.5,-44.5 44.5,-292.5 249.5,-292.5 249.5,-44.5 44.5,-44.5"/>
</g>
<!-- term_user -->
<g id="node2" class="node">
<title>term_user</title>
<polygon fill="#efefef" stroke="transparent" points="50,-595.5 50,-630.5 243,-630.5 243,-595.5 50,-595.5"/>
<polygon fill="none" stroke="#000000" points="50,-595.5 50,-630.5 243,-630.5 243,-595.5 50,-595.5"/>
<text text-anchor="start" x="57.3713" y="-608.3" font-family="Arial Bold" font-size="18.00" fill="#000000">term_user</text>
<text text-anchor="start" x="138.3749" y="-608.3" font-family="Arial" font-size="14.00" fill="#000000"> </text>
<text text-anchor="start" x="142.2655" y="-608.3" font-family="Arial" font-size="14.00" fill="#666666">[BASE TABLE]</text>
<polygon fill="none" stroke="#000000" points="50,-565.5 50,-595.5 243,-595.5 243,-565.5 50,-565.5"/>
<text text-anchor="start" x="56.6382" y="-576.9" font-family="Arial" font-size="14.00" fill="#000000">account_id </text>
<text text-anchor="start" x="128.2216" y="-576.9" font-family="Arial" font-size="14.00" fill="#666666">[int(10) unsigned]</text>
<polygon fill="none" stroke="#000000" points="50,-535.5 50,-565.5 243,-565.5 243,-535.5 50,-535.5"/>
<text text-anchor="start" x="57" y="-546.9" font-family="Arial" font-size="14.00" fill="#000000">user_id </text>
<text text-anchor="start" x="106.7882" y="-546.9" font-family="Arial" font-size="14.00" fill="#666666">[int(10) unsigned]</text>
<polygon fill="none" stroke="#000000" points="50,-505.5 50,-535.5 243,-535.5 243,-505.5 50,-505.5"/>
<text text-anchor="start" x="57" y="-516.9" font-family="Arial" font-size="14.00" fill="#000000">term_id </text>
<text text-anchor="start" x="107.5568" y="-516.9" font-family="Arial" font-size="14.00" fill="#666666">[int(10) unsigned]</text>
<polygon fill="none" stroke="#000000" points="50,-475.5 50,-505.5 243,-505.5 243,-475.5 50,-475.5"/>
<text text-anchor="start" x="57" y="-486.9" font-family="Arial" font-size="14.00" fill="#000000">ip_address </text>
<text text-anchor="start" x="129.3534" y="-486.9" font-family="Arial" font-size="14.00" fill="#666666">[varchar(255)]</text>
<polygon fill="none" stroke="#000000" points="50,-445.5 50,-475.5 243,-475.5 243,-445.5 50,-445.5"/>
<text text-anchor="start" x="57" y="-456.9" font-family="Arial" font-size="14.00" fill="#000000">created_at </text>
<text text-anchor="start" x="127.028" y="-456.9" font-family="Arial" font-size="14.00" fill="#666666">[timestamp]</text>
<polygon fill="none" stroke="#000000" points="50,-415.5 50,-445.5 243,-445.5 243,-415.5 50,-415.5"/>
<text text-anchor="start" x="57" y="-426.9" font-family="Arial" font-size="14.00" fill="#000000">updated_at </text>
<text text-anchor="start" x="130.9326" y="-426.9" font-family="Arial" font-size="14.00" fill="#666666">[timestamp]</text>
</g>
<!-- term_user&#45;&gt;terms -->
<g id="edge1" class="edge">
<title>term_user:term_id&#45;&gt;terms:id</title>
<path fill="none" stroke="#000000" d="M252.9671,-519.6519C305.9222,-510.0141 282.6862,-420.5957 243,-373 186.0005,-304.6404 102.9995,-405.3596 46,-337 18.5338,-304.0597 3.1111,-240.5 46,-240.5"/>
<polygon fill="#000000" stroke="#000000" points="252.964,-519.6521 242.6184,-516.0162 247.982,-520.076 243,-520.5 243,-520.5 243,-520.5 247.982,-520.076 243.3816,-524.9838 252.964,-519.6521 252.964,-519.6521"/>
<text text-anchor="start" x="250.396" y="-530.5" font-family="Arial" font-size="10.00" fill="#000000">FOREIGN KEY (term_id) REFERENCES terms (id)</text>
</g>
</g>
</svg>
