<?xml version="1.0" encoding="UTF-8" standalone="no"?>
<!DOCTYPE svg PUBLIC "-//W3C//DTD SVG 1.1//EN"
 "http://www.w3.org/Graphics/SVG/1.1/DTD/svg11.dtd">
<!-- Generated by graphviz version 2.40.1 (20161225.0304)
 -->
<!-- Title: u2f_key Pages: 1 -->
<svg width="529pt" height="1342pt"
 viewBox="0.00 0.00 528.50 1342.00" xmlns="http://www.w3.org/2000/svg" xmlns:xlink="http://www.w3.org/1999/xlink">
<g id="graph0" class="graph" transform="scale(1 1) rotate(0) translate(4 1338)">
<title>u2f_key</title>
<polygon fill="#ffffff" stroke="transparent" points="-4,4 -4,-1338 524.5,-1338 524.5,4 -4,4"/>
<!-- u2f_key -->
<g id="node1" class="node">
<title>u2f_key</title>
<polygon fill="#efefef" stroke="transparent" points="240,-1252.5 240,-1287.5 414,-1287.5 414,-1252.5 240,-1252.5"/>
<polygon fill="none" stroke="#000000" points="240,-1252.5 240,-1287.5 414,-1287.5 414,-1252.5 240,-1252.5"/>
<text text-anchor="start" x="246.8596" y="-1265.3" font-family="Arial Bold" font-size="18.00" fill="#000000">u2f_key</text>
<text text-anchor="start" x="309.8866" y="-1265.3" font-family="Arial" font-size="14.00" fill="#000000"> </text>
<text text-anchor="start" x="313.7772" y="-1265.3" font-family="Arial" font-size="14.00" fill="#666666">[BASE TABLE]</text>
<polygon fill="none" stroke="#000000" points="240,-1222.5 240,-1252.5 414,-1252.5 414,-1222.5 240,-1222.5"/>
<text text-anchor="start" x="247" y="-1233.9" font-family="Arial" font-size="14.00" fill="#000000">id </text>
<text text-anchor="start" x="261.7798" y="-1233.9" font-family="Arial" font-size="14.00" fill="#666666">[int(10) unsigned]</text>
<polygon fill="none" stroke="#000000" points="240,-1192.5 240,-1222.5 414,-1222.5 414,-1192.5 240,-1192.5"/>
<text text-anchor="start" x="247" y="-1203.9" font-family="Arial" font-size="14.00" fill="#000000">name </text>
<text text-anchor="start" x="285.899" y="-1203.9" font-family="Arial" font-size="14.00" fill="#666666">[varchar(255)]</text>
<polygon fill="none" stroke="#000000" points="240,-1162.5 240,-1192.5 414,-1192.5 414,-1162.5 240,-1162.5"/>
<text text-anchor="start" x="247" y="-1173.9" font-family="Arial" font-size="14.00" fill="#000000">user_id </text>
<text text-anchor="start" x="296.7882" y="-1173.9" font-family="Arial" font-size="14.00" fill="#666666">[int(10) unsigned]</text>
<polygon fill="none" stroke="#000000" points="240,-1132.5 240,-1162.5 414,-1162.5 414,-1132.5 240,-1132.5"/>
<text text-anchor="start" x="247" y="-1143.9" font-family="Arial" font-size="14.00" fill="#000000">keyHandle </text>
<text text-anchor="start" x="317.0168" y="-1143.9" font-family="Arial" font-size="14.00" fill="#666666">[varchar(255)]</text>
<polygon fill="none" stroke="#000000" points="240,-1102.5 240,-1132.5 414,-1132.5 414,-1102.5 240,-1102.5"/>
<text text-anchor="start" x="247" y="-1113.9" font-family="Arial" font-size="14.00" fill="#000000">publicKey </text>
<text text-anchor="start" x="311.5708" y="-1113.9" font-family="Arial" font-size="14.00" fill="#666666">[varchar(255)]</text>
<polygon fill="none" stroke="#000000" points="240,-1072.5 240,-1102.5 414,-1102.5 414,-1072.5 240,-1072.5"/>
<text text-anchor="start" x="247" y="-1083.9" font-family="Arial" font-size="14.00" fill="#000000">certificate </text>
<text text-anchor="start" x="310.784" y="-1083.9" font-family="Arial" font-size="14.00" fill="#666666">[text]</text>
<polygon fill="none" stroke="#000000" points="240,-1042.5 240,-1072.5 414,-1072.5 414,-1042.5 240,-1042.5"/>
<text text-anchor="start" x="247" y="-1053.9" font-family="Arial" font-size="14.00" fill="#000000">counter </text>
<text text-anchor="start" x="297.5722" y="-1053.9" font-family="Arial" font-size="14.00" fill="#666666">[int(11)]</text>
<polygon fill="none" stroke="#000000" points="240,-1012.5 240,-1042.5 414,-1042.5 414,-1012.5 240,-1012.5"/>
<text text-anchor="start" x="247" y="-1023.9" font-family="Arial" font-size="14.00" fill="#000000">created_at </text>
<text text-anchor="start" x="317.028" y="-1023.9" font-family="Arial" font-size="14.00" fill="#666666">[timestamp]</text>
<polygon fill="none" stroke="#000000" points="240,-982.5 240,-1012.5 414,-1012.5 414,-982.5 240,-982.5"/>
<text text-anchor="start" x="247" y="-993.9" font-family="Arial" font-size="14.00" fill="#000000">updated_at </text>
<text text-anchor="start" x="320.9326" y="-993.9" font-family="Arial" font-size="14.00" fill="#666666">[timestamp]</text>
<polygon fill="none" stroke="#000000" stroke-width="3" points="238.5,-981.5 238.5,-1289.5 415.5,-1289.5 415.5,-981.5 238.5,-981.5"/>
</g>
<!-- users -->
<g id="node2" class="node">
<title>users</title>
<polygon fill="#efefef" stroke="transparent" points="175,-822.5 175,-857.5 478,-857.5 478,-822.5 175,-822.5"/>
<polygon fill="none" stroke="#000000" points="175,-822.5 175,-857.5 478,-857.5 478,-822.5 175,-822.5"/>
<text text-anchor="start" x="255.8708" y="-835.3" font-family="Arial Bold" font-size="18.00" fill="#000000">users</text>
<text text-anchor="start" x="299.8754" y="-835.3" font-family="Arial" font-size="14.00" fill="#000000"> </text>
<text text-anchor="start" x="303.766" y="-835.3" font-family="Arial" font-size="14.00" fill="#666666">[BASE TABLE]</text>
<polygon fill="none" stroke="#000000" points="175,-792.5 175,-822.5 478,-822.5 478,-792.5 175,-792.5"/>
<text text-anchor="start" x="182" y="-803.9" font-family="Arial" font-size="14.00" fill="#000000">id </text>
<text text-anchor="start" x="196.7798" y="-803.9" font-family="Arial" font-size="14.00" fill="#666666">[int(10) unsigned]</text>
<polygon fill="none" stroke="#000000" points="175,-762.5 175,-792.5 478,-792.5 478,-762.5 175,-762.5"/>
<text text-anchor="start" x="182" y="-773.9" font-family="Arial" font-size="14.00" fill="#000000">first_name </text>
<text text-anchor="start" x="251.23" y="-773.9" font-family="Arial" font-size="14.00" fill="#666666">[varchar(255)]</text>
<polygon fill="none" stroke="#000000" points="175,-732.5 175,-762.5 478,-762.5 478,-732.5 175,-732.5"/>
<text text-anchor="start" x="182" y="-743.9" font-family="Arial" font-size="14.00" fill="#000000">last_name </text>
<text text-anchor="start" x="250.4614" y="-743.9" font-family="Arial" font-size="14.00" fill="#666666">[varchar(255)]</text>
<polygon fill="none" stroke="#000000" points="175,-702.5 175,-732.5 478,-732.5 478,-702.5 175,-702.5"/>
<text text-anchor="start" x="182" y="-713.9" font-family="Arial" font-size="14.00" fill="#000000">email </text>
<text text-anchor="start" x="219.3296" y="-713.9" font-family="Arial" font-size="14.00" fill="#666666">[varchar(255)]</text>
<polygon fill="none" stroke="#000000" points="175,-672.5 175,-702.5 478,-702.5 478,-672.5 175,-672.5"/>
<text text-anchor="start" x="182" y="-683.9" font-family="Arial" font-size="14.00" fill="#000000">me_contact_id </text>
<text text-anchor="start" x="276.9172" y="-683.9" font-family="Arial" font-size="14.00" fill="#666666">[int(10) unsigned]</text>
<polygon fill="none" stroke="#000000" points="175,-642.5 175,-672.5 478,-672.5 478,-642.5 175,-642.5"/>
<text text-anchor="start" x="182" y="-653.9" font-family="Arial" font-size="14.00" fill="#000000">admin </text>
<text text-anchor="start" x="224.0056" y="-653.9" font-family="Arial" font-size="14.00" fill="#666666">[tinyint(1)]</text>
<polygon fill="none" stroke="#000000" points="175,-612.5 175,-642.5 478,-642.5 478,-612.5 175,-612.5"/>
<text text-anchor="start" x="182" y="-623.9" font-family="Arial" font-size="14.00" fill="#000000">email_verified_at </text>
<text text-anchor="start" x="291.6802" y="-623.9" font-family="Arial" font-size="14.00" fill="#666666">[timestamp]</text>
<polygon fill="none" stroke="#000000" points="175,-582.5 175,-612.5 478,-612.5 478,-582.5 175,-582.5"/>
<text text-anchor="start" x="182" y="-593.9" font-family="Arial" font-size="14.00" fill="#000000">password </text>
<text text-anchor="start" x="245.7882" y="-593.9" font-family="Arial" font-size="14.00" fill="#666666">[varchar(255)]</text>
<polygon fill="none" stroke="#000000" points="175,-552.5 175,-582.5 478,-582.5 478,-552.5 175,-552.5"/>
<text text-anchor="start" x="182" y="-563.9" font-family="Arial" font-size="14.00" fill="#000000">remember_token </text>
<text text-anchor="start" x="291.6844" y="-563.9" font-family="Arial" font-size="14.00" fill="#666666">[varchar(100)]</text>
<polygon fill="none" stroke="#000000" points="175,-522.5 175,-552.5 478,-552.5 478,-522.5 175,-522.5"/>
<text text-anchor="start" x="182" y="-533.9" font-family="Arial" font-size="14.00" fill="#000000">google2fa_secret </text>
<text text-anchor="start" x="293.265" y="-533.9" font-family="Arial" font-size="14.00" fill="#666666">[varchar(256)]</text>
<polygon fill="none" stroke="#000000" points="175,-492.5 175,-522.5 478,-522.5 478,-492.5 175,-492.5"/>
<text text-anchor="start" x="182" y="-503.9" font-family="Arial" font-size="14.00" fill="#000000">account_id </text>
<text text-anchor="start" x="253.5834" y="-503.9" font-family="Arial" font-size="14.00" fill="#666666">[int(10) unsigned]</text>
<polygon fill="none" stroke="#000000" points="175,-462.5 175,-492.5 478,-492.5 478,-462.5 175,-462.5"/>
<text text-anchor="start" x="182" y="-473.9" font-family="Arial" font-size="14.00" fill="#000000">timezone </text>
<text text-anchor="start" x="242.6788" y="-473.9" font-family="Arial" font-size="14.00" fill="#666666">[varchar(255)]</text>
<polygon fill="none" stroke="#000000" points="175,-432.5 175,-462.5 478,-462.5 478,-432.5 175,-432.5"/>
<text text-anchor="start" x="182" y="-443.9" font-family="Arial" font-size="14.00" fill="#000000">currency_id </text>
<text text-anchor="start" x="258.2314" y="-443.9" font-family="Arial" font-size="14.00" fill="#666666">[int(10) unsigned]</text>
<polygon fill="none" stroke="#000000" points="175,-402.5 175,-432.5 478,-432.5 478,-402.5 175,-402.5"/>
<text text-anchor="start" x="182" y="-413.9" font-family="Arial" font-size="14.00" fill="#000000">locale </text>
<text text-anchor="start" x="222.4516" y="-413.9" font-family="Arial" font-size="14.00" fill="#666666">[varchar(255)]</text>
<polygon fill="none" stroke="#000000" points="175,-372.5 175,-402.5 478,-402.5 478,-372.5 175,-372.5"/>
<text text-anchor="start" x="182" y="-383.9" font-family="Arial" font-size="14.00" fill="#000000">metric </text>
<text text-anchor="start" x="223.9916" y="-383.9" font-family="Arial" font-size="14.00" fill="#666666">[varchar(255)]</text>
<polygon fill="none" stroke="#000000" points="175,-342.5 175,-372.5 478,-372.5 478,-342.5 175,-342.5"/>
<text text-anchor="start" x="182" y="-353.9" font-family="Arial" font-size="14.00" fill="#000000">fluid_container </text>
<text text-anchor="start" x="276.913" y="-353.9" font-family="Arial" font-size="14.00" fill="#666666">[varchar(255)]</text>
<polygon fill="none" stroke="#000000" points="175,-312.5 175,-342.5 478,-342.5 478,-312.5 175,-312.5"/>
<text text-anchor="start" x="182" y="-323.9" font-family="Arial" font-size="14.00" fill="#000000">contacts_sort_order </text>
<text text-anchor="start" x="309.5876" y="-323.9" font-family="Arial" font-size="14.00" fill="#666666">[varchar(255)]</text>
<polygon fill="none" stroke="#000000" points="175,-282.5 175,-312.5 478,-312.5 478,-282.5 175,-282.5"/>
<text text-anchor="start" x="182" y="-293.9" font-family="Arial" font-size="14.00" fill="#000000">name_order </text>
<text text-anchor="start" x="261.3506" y="-293.9" font-family="Arial" font-size="14.00" fill="#666666">[varchar(255)]</text>
<polygon fill="none" stroke="#000000" points="175,-252.5 175,-282.5 478,-282.5 478,-252.5 175,-252.5"/>
<text text-anchor="start" x="182" y="-263.9" font-family="Arial" font-size="14.00" fill="#000000">invited_by_user_id </text>
<text text-anchor="start" x="302.5876" y="-263.9" font-family="Arial" font-size="14.00" fill="#666666">[int(10) unsigned]</text>
<polygon fill="none" stroke="#000000" points="175,-222.5 175,-252.5 478,-252.5 478,-222.5 175,-222.5"/>
<text text-anchor="start" x="182" y="-233.9" font-family="Arial" font-size="14.00" fill="#000000">dashboard_active_tab </text>
<text text-anchor="start" x="323.6128" y="-233.9" font-family="Arial" font-size="14.00" fill="#666666">[varchar(255)]</text>
<polygon fill="none" stroke="#000000" points="175,-192.5 175,-222.5 478,-222.5 478,-192.5 175,-192.5"/>
<text text-anchor="start" x="182" y="-203.9" font-family="Arial" font-size="14.00" fill="#000000">gifts_active_tab </text>
<text text-anchor="start" x="283.1444" y="-203.9" font-family="Arial" font-size="14.00" fill="#666666">[varchar(255)]</text>
<polygon fill="none" stroke="#000000" points="175,-162.5 175,-192.5 478,-192.5 478,-162.5 175,-162.5"/>
<text text-anchor="start" x="182" y="-173.9" font-family="Arial" font-size="14.00" fill="#000000">profile_active_tab </text>
<text text-anchor="start" x="295.5862" y="-173.9" font-family="Arial" font-size="14.00" fill="#666666">[varchar(255)]</text>
<polygon fill="none" stroke="#000000" points="175,-132.5 175,-162.5 478,-162.5 478,-132.5 175,-132.5"/>
<text text-anchor="start" x="181.7911" y="-143.9" font-family="Arial" font-size="14.00" fill="#000000">profile_new_life_event_badge_seen </text>
<text text-anchor="start" x="409.7643" y="-143.9" font-family="Arial" font-size="14.00" fill="#666666">[tinyint(1)]</text>
<polygon fill="none" stroke="#000000" points="175,-102.5 175,-132.5 478,-132.5 478,-102.5 175,-102.5"/>
<text text-anchor="start" x="182" y="-113.9" font-family="Arial" font-size="14.00" fill="#000000">temperature_scale </text>
<text text-anchor="start" x="301.8036" y="-113.9" font-family="Arial" font-size="14.00" fill="#666666">[varchar(255)]</text>
<polygon fill="none" stroke="#000000" points="175,-72.5 175,-102.5 478,-102.5 478,-72.5 175,-72.5"/>
<text text-anchor="start" x="182" y="-83.9" font-family="Arial" font-size="14.00" fill="#000000">created_at </text>
<text text-anchor="start" x="252.028" y="-83.9" font-family="Arial" font-size="14.00" fill="#666666">[timestamp]</text>
<polygon fill="none" stroke="#000000" points="175,-42.5 175,-72.5 478,-72.5 478,-42.5 175,-42.5"/>
<text text-anchor="start" x="182" y="-53.9" font-family="Arial" font-size="14.00" fill="#000000">updated_at </text>
<text text-anchor="start" x="255.9326" y="-53.9" font-family="Arial" font-size="14.00" fill="#666666">[timestamp]</text>
</g>
<!-- u2f_key&#45;&gt;users -->
<g id="edge1" class="edge">
<title>u2f_key:user_id&#45;&gt;users:id</title>
<path fill="none" stroke="#000000" d="M229.8253,-1176.9813C135.6165,-1166.9971 172.6132,-1015.3463 240,-937 309.7612,-855.8932 408.2388,-982.1068 478,-901 505.0979,-869.495 519.5556,-807.5 478,-807.5"/>
<polygon fill="#000000" stroke="#000000" points="230.013,-1176.9908 239.7709,-1181.9942 235.0065,-1177.2454 240,-1177.5 240,-1177.5 240,-1177.5 235.0065,-1177.2454 240.2291,-1173.0058 230.013,-1176.9908 230.013,-1176.9908"/>
<text text-anchor="start" x="6.945" y="-1187.5" font-family="Arial" font-size="10.00" fill="#000000">FOREIGN KEY (user_id) REFERENCES users (id)</text>
</g>
</g>
</svg>
