<?xml version="1.0" encoding="UTF-8" standalone="no"?>
<!DOCTYPE svg PUBLIC "-//W3C//DTD SVG 1.1//EN"
 "http://www.w3.org/Graphics/SVG/1.1/DTD/svg11.dtd">
<!-- Generated by graphviz version 2.40.1 (20161225.0304)
 -->
<!-- Title: weather Pages: 1 -->
<svg width="736pt" height="862pt"
 viewBox="0.00 0.00 735.50 862.00" xmlns="http://www.w3.org/2000/svg" xmlns:xlink="http://www.w3.org/1999/xlink">
<g id="graph0" class="graph" transform="scale(1 1) rotate(0) translate(4 858)">
<title>weather</title>
<polygon fill="#ffffff" stroke="transparent" points="-4,4 -4,-858 731.5,-858 731.5,4 -4,4"/>
<!-- weather -->
<g id="node1" class="node">
<title>weather</title>
<polygon fill="#efefef" stroke="transparent" points="282.5,-772.5 282.5,-807.5 478.5,-807.5 478.5,-772.5 282.5,-772.5"/>
<polygon fill="none" stroke="#000000" points="282.5,-772.5 282.5,-807.5 478.5,-807.5 478.5,-772.5 282.5,-772.5"/>
<text text-anchor="start" x="299.8664" y="-785.3" font-family="Arial Bold" font-size="18.00" fill="#000000">weather</text>
<text text-anchor="start" x="363.8798" y="-785.3" font-family="Arial" font-size="14.00" fill="#000000"> </text>
<text text-anchor="start" x="367.7704" y="-785.3" font-family="Arial" font-size="14.00" fill="#666666">[BASE TABLE]</text>
<polygon fill="none" stroke="#000000" points="282.5,-742.5 282.5,-772.5 478.5,-772.5 478.5,-742.5 282.5,-742.5"/>
<text text-anchor="start" x="289.5" y="-753.9" font-family="Arial" font-size="14.00" fill="#000000">id </text>
<text text-anchor="start" x="304.2798" y="-753.9" font-family="Arial" font-size="14.00" fill="#666666">[int(10) unsigned]</text>
<polygon fill="none" stroke="#000000" points="282.5,-712.5 282.5,-742.5 478.5,-742.5 478.5,-712.5 282.5,-712.5"/>
<text text-anchor="start" x="289.5" y="-723.9" font-family="Arial" font-size="14.00" fill="#000000">account_id </text>
<text text-anchor="start" x="361.0834" y="-723.9" font-family="Arial" font-size="14.00" fill="#666666">[int(10) unsigned]</text>
<polygon fill="none" stroke="#000000" points="282.5,-682.5 282.5,-712.5 478.5,-712.5 478.5,-682.5 282.5,-682.5"/>
<text text-anchor="start" x="289.5" y="-693.9" font-family="Arial" font-size="14.00" fill="#000000">place_id </text>
<text text-anchor="start" x="345.5168" y="-693.9" font-family="Arial" font-size="14.00" fill="#666666">[int(10) unsigned]</text>
<polygon fill="none" stroke="#000000" points="282.5,-652.5 282.5,-682.5 478.5,-682.5 478.5,-652.5 282.5,-652.5"/>
<text text-anchor="start" x="289.4825" y="-663.9" font-family="Arial" font-size="14.00" fill="#000000">weather_json </text>
<text text-anchor="start" x="376.6157" y="-663.9" font-family="Arial" font-size="14.00" fill="#666666">[varchar(2000)]</text>
<polygon fill="none" stroke="#000000" points="282.5,-622.5 282.5,-652.5 478.5,-652.5 478.5,-622.5 282.5,-622.5"/>
<text text-anchor="start" x="289.5" y="-633.9" font-family="Arial" font-size="14.00" fill="#000000">created_at </text>
<text text-anchor="start" x="359.528" y="-633.9" font-family="Arial" font-size="14.00" fill="#666666">[timestamp]</text>
<polygon fill="none" stroke="#000000" points="282.5,-592.5 282.5,-622.5 478.5,-622.5 478.5,-592.5 282.5,-592.5"/>
<text text-anchor="start" x="289.5" y="-603.9" font-family="Arial" font-size="14.00" fill="#000000">updated_at </text>
<text text-anchor="start" x="363.4326" y="-603.9" font-family="Arial" font-size="14.00" fill="#666666">[timestamp]</text>
<polygon fill="none" stroke="#000000" stroke-width="3" points="281,-591.5 281,-809.5 480,-809.5 480,-591.5 281,-591.5"/>
</g>
<!-- accounts -->
<g id="node2" class="node">
<title>accounts</title>
<polygon fill="#efefef" stroke="transparent" points="43.5,-432.5 43.5,-467.5 358.5,-467.5 358.5,-432.5 43.5,-432.5"/>
<polygon fill="none" stroke="#000000" points="43.5,-432.5 43.5,-467.5 358.5,-467.5 358.5,-432.5 43.5,-432.5"/>
<text text-anchor="start" x="116.3596" y="-445.3" font-family="Arial Bold" font-size="18.00" fill="#000000">accounts</text>
<text text-anchor="start" x="188.3866" y="-445.3" font-family="Arial" font-size="14.00" fill="#000000"> </text>
<text text-anchor="start" x="192.2772" y="-445.3" font-family="Arial" font-size="14.00" fill="#666666">[BASE TABLE]</text>
<polygon fill="none" stroke="#000000" points="43.5,-402.5 43.5,-432.5 358.5,-432.5 358.5,-402.5 43.5,-402.5"/>
<text text-anchor="start" x="50.5" y="-413.9" font-family="Arial" font-size="14.00" fill="#000000">id </text>
<text text-anchor="start" x="65.2798" y="-413.9" font-family="Arial" font-size="14.00" fill="#666666">[int(10) unsigned]</text>
<polygon fill="none" stroke="#000000" points="43.5,-372.5 43.5,-402.5 358.5,-402.5 358.5,-372.5 43.5,-372.5"/>
<text text-anchor="start" x="50.073" y="-383.9" font-family="Arial" font-size="14.00" fill="#000000">has_access_to_paid_version_for_free </text>
<text text-anchor="start" x="290.4824" y="-383.9" font-family="Arial" font-size="14.00" fill="#666666">[tinyint(1)]</text>
<polygon fill="none" stroke="#000000" points="43.5,-342.5 43.5,-372.5 358.5,-372.5 358.5,-342.5 43.5,-342.5"/>
<text text-anchor="start" x="50.5" y="-353.9" font-family="Arial" font-size="14.00" fill="#000000">api_key </text>
<text text-anchor="start" x="102.6276" y="-353.9" font-family="Arial" font-size="14.00" fill="#666666">[varchar(255)]</text>
<polygon fill="none" stroke="#000000" points="43.5,-312.5 43.5,-342.5 358.5,-342.5 358.5,-312.5 43.5,-312.5"/>
<text text-anchor="start" x="50.5" y="-323.9" font-family="Arial" font-size="14.00" fill="#000000">number_of_invitations_sent </text>
<text text-anchor="start" x="225.5504" y="-323.9" font-family="Arial" font-size="14.00" fill="#666666">[int(11)]</text>
<polygon fill="none" stroke="#000000" points="43.5,-282.5 43.5,-312.5 358.5,-312.5 358.5,-282.5 43.5,-282.5"/>
<text text-anchor="start" x="50.5" y="-293.9" font-family="Arial" font-size="14.00" fill="#000000">default_time_reminder_is_sent </text>
<text text-anchor="start" x="245.7608" y="-293.9" font-family="Arial" font-size="14.00" fill="#666666">[varchar(255)]</text>
<polygon fill="none" stroke="#000000" points="43.5,-252.5 43.5,-282.5 358.5,-282.5 358.5,-252.5 43.5,-252.5"/>
<text text-anchor="start" x="50.5" y="-263.9" font-family="Arial" font-size="14.00" fill="#000000">default_gender_id </text>
<text text-anchor="start" x="166.4368" y="-263.9" font-family="Arial" font-size="14.00" fill="#666666">[int(10) unsigned]</text>
<polygon fill="none" stroke="#000000" points="43.5,-222.5 43.5,-252.5 358.5,-252.5 358.5,-222.5 43.5,-222.5"/>
<text text-anchor="start" x="50.5" y="-233.9" font-family="Arial" font-size="14.00" fill="#000000">stripe_id </text>
<text text-anchor="start" x="107.2854" y="-233.9" font-family="Arial" font-size="14.00" fill="#666666">[varchar(255)]</text>
<polygon fill="none" stroke="#000000" points="43.5,-192.5 43.5,-222.5 358.5,-222.5 358.5,-192.5 43.5,-192.5"/>
<text text-anchor="start" x="50.5" y="-203.9" font-family="Arial" font-size="14.00" fill="#000000">card_brand </text>
<text text-anchor="start" x="125.19" y="-203.9" font-family="Arial" font-size="14.00" fill="#666666">[varchar(255)]</text>
<polygon fill="none" stroke="#000000" points="43.5,-162.5 43.5,-192.5 358.5,-192.5 358.5,-162.5 43.5,-162.5"/>
<text text-anchor="start" x="50.5" y="-173.9" font-family="Arial" font-size="14.00" fill="#000000">card_last_four </text>
<text text-anchor="start" x="143.0778" y="-173.9" font-family="Arial" font-size="14.00" fill="#666666">[varchar(4)]</text>
<polygon fill="none" stroke="#000000" points="43.5,-132.5 43.5,-162.5 358.5,-162.5 358.5,-132.5 43.5,-132.5"/>
<text text-anchor="start" x="50.5" y="-143.9" font-family="Arial" font-size="14.00" fill="#000000">trial_ends_at </text>
<text text-anchor="start" x="134.5238" y="-143.9" font-family="Arial" font-size="14.00" fill="#666666">[timestamp]</text>
<polygon fill="none" stroke="#000000" points="43.5,-102.5 43.5,-132.5 358.5,-132.5 358.5,-102.5 43.5,-102.5"/>
<text text-anchor="start" x="50.5" y="-113.9" font-family="Arial" font-size="14.00" fill="#000000">legacy_free_plan_unlimited_contacts </text>
<text text-anchor="start" x="284.6766" y="-113.9" font-family="Arial" font-size="14.00" fill="#666666">[tinyint(1)]</text>
<polygon fill="none" stroke="#000000" points="43.5,-72.5 43.5,-102.5 358.5,-102.5 358.5,-72.5 43.5,-72.5"/>
<text text-anchor="start" x="50.5" y="-83.9" font-family="Arial" font-size="14.00" fill="#000000">created_at </text>
<text text-anchor="start" x="120.528" y="-83.9" font-family="Arial" font-size="14.00" fill="#666666">[timestamp]</text>
<polygon fill="none" stroke="#000000" points="43.5,-42.5 43.5,-72.5 358.5,-72.5 358.5,-42.5 43.5,-42.5"/>
<text text-anchor="start" x="50.5" y="-53.9" font-family="Arial" font-size="14.00" fill="#000000">updated_at </text>
<text text-anchor="start" x="124.4326" y="-53.9" font-family="Arial" font-size="14.00" fill="#666666">[timestamp]</text>
</g>
<!-- weather&#45;&gt;accounts -->
<g id="edge1" class="edge">
<title>weather:account_id&#45;&gt;accounts:id</title>
<path fill="none" stroke="#000000" d="M272.3903,-726.8319C205.6423,-717.4642 241.5283,-611.7434 282.5,-547 302.4866,-515.4172 338.5134,-542.5828 358.5,-511 380.7218,-475.8851 400.0556,-417.5 358.5,-417.5"/>
<polygon fill="#000000" stroke="#000000" points="272.5218,-726.8405 282.2032,-731.9902 277.5109,-727.1703 282.5,-727.5 282.5,-727.5 282.5,-727.5 277.5109,-727.1703 282.7968,-723.0098 272.5218,-726.8405 272.5218,-726.8405"/>
<text text-anchor="start" x="18.877" y="-737.5" font-family="Arial" font-size="10.00" fill="#000000">FOREIGN KEY (account_id) REFERENCES accounts (id)</text>
</g>
<!-- places -->
<g id="node3" class="node">
<title>places</title>
<polygon fill="#efefef" stroke="transparent" points="462.5,-402.5 462.5,-437.5 655.5,-437.5 655.5,-402.5 462.5,-402.5"/>
<polygon fill="none" stroke="#000000" points="462.5,-402.5 462.5,-437.5 655.5,-437.5 655.5,-402.5 462.5,-402.5"/>
<text text-anchor="start" x="484.3667" y="-415.3" font-family="Arial Bold" font-size="18.00" fill="#000000">places</text>
<text text-anchor="start" x="536.3795" y="-415.3" font-family="Arial" font-size="14.00" fill="#000000"> </text>
<text text-anchor="start" x="540.2701" y="-415.3" font-family="Arial" font-size="14.00" fill="#666666">[BASE TABLE]</text>
<polygon fill="none" stroke="#000000" points="462.5,-372.5 462.5,-402.5 655.5,-402.5 655.5,-372.5 462.5,-372.5"/>
<text text-anchor="start" x="469.5" y="-383.9" font-family="Arial" font-size="14.00" fill="#000000">id </text>
<text text-anchor="start" x="484.2798" y="-383.9" font-family="Arial" font-size="14.00" fill="#666666">[int(10) unsigned]</text>
<polygon fill="none" stroke="#000000" points="462.5,-342.5 462.5,-372.5 655.5,-372.5 655.5,-342.5 462.5,-342.5"/>
<text text-anchor="start" x="469.1382" y="-353.9" font-family="Arial" font-size="14.00" fill="#000000">account_id </text>
<text text-anchor="start" x="540.7216" y="-353.9" font-family="Arial" font-size="14.00" fill="#666666">[int(10) unsigned]</text>
<polygon fill="none" stroke="#000000" points="462.5,-312.5 462.5,-342.5 655.5,-342.5 655.5,-312.5 462.5,-312.5"/>
<text text-anchor="start" x="469.5" y="-323.9" font-family="Arial" font-size="14.00" fill="#000000">street </text>
<text text-anchor="start" x="508.3976" y="-323.9" font-family="Arial" font-size="14.00" fill="#666666">[varchar(255)]</text>
<polygon fill="none" stroke="#000000" points="462.5,-282.5 462.5,-312.5 655.5,-312.5 655.5,-282.5 462.5,-282.5"/>
<text text-anchor="start" x="469.5" y="-293.9" font-family="Arial" font-size="14.00" fill="#000000">city </text>
<text text-anchor="start" x="494.3878" y="-293.9" font-family="Arial" font-size="14.00" fill="#666666">[varchar(255)]</text>
<polygon fill="none" stroke="#000000" points="462.5,-252.5 462.5,-282.5 655.5,-282.5 655.5,-252.5 462.5,-252.5"/>
<text text-anchor="start" x="469.5" y="-263.9" font-family="Arial" font-size="14.00" fill="#000000">province </text>
<text text-anchor="start" x="526.2882" y="-263.9" font-family="Arial" font-size="14.00" fill="#666666">[varchar(255)]</text>
<polygon fill="none" stroke="#000000" points="462.5,-222.5 462.5,-252.5 655.5,-252.5 655.5,-222.5 462.5,-222.5"/>
<text text-anchor="start" x="469.5" y="-233.9" font-family="Arial" font-size="14.00" fill="#000000">postal_code </text>
<text text-anchor="start" x="548.866" y="-233.9" font-family="Arial" font-size="14.00" fill="#666666">[varchar(255)]</text>
<polygon fill="none" stroke="#000000" points="462.5,-192.5 462.5,-222.5 655.5,-222.5 655.5,-192.5 462.5,-192.5"/>
<text text-anchor="start" x="469.5" y="-203.9" font-family="Arial" font-size="14.00" fill="#000000">country </text>
<text text-anchor="start" x="519.2896" y="-203.9" font-family="Arial" font-size="14.00" fill="#666666">[char(3)]</text>
<polygon fill="none" stroke="#000000" points="462.5,-162.5 462.5,-192.5 655.5,-192.5 655.5,-162.5 462.5,-162.5"/>
<text text-anchor="start" x="469.5" y="-173.9" font-family="Arial" font-size="14.00" fill="#000000">latitude </text>
<text text-anchor="start" x="518.5154" y="-173.9" font-family="Arial" font-size="14.00" fill="#666666">[double]</text>
<polygon fill="none" stroke="#000000" points="462.5,-132.5 462.5,-162.5 655.5,-162.5 655.5,-132.5 462.5,-132.5"/>
<text text-anchor="start" x="469.5" y="-143.9" font-family="Arial" font-size="14.00" fill="#000000">longitude </text>
<text text-anchor="start" x="530.19" y="-143.9" font-family="Arial" font-size="14.00" fill="#666666">[double]</text>
<polygon fill="none" stroke="#000000" points="462.5,-102.5 462.5,-132.5 655.5,-132.5 655.5,-102.5 462.5,-102.5"/>
<text text-anchor="start" x="469.5" y="-113.9" font-family="Arial" font-size="14.00" fill="#000000">created_at </text>
<text text-anchor="start" x="539.528" y="-113.9" font-family="Arial" font-size="14.00" fill="#666666">[timestamp]</text>
<polygon fill="none" stroke="#000000" points="462.5,-72.5 462.5,-102.5 655.5,-102.5 655.5,-72.5 462.5,-72.5"/>
<text text-anchor="start" x="469.5" y="-83.9" font-family="Arial" font-size="14.00" fill="#000000">updated_at </text>
<text text-anchor="start" x="543.4326" y="-83.9" font-family="Arial" font-size="14.00" fill="#666666">[timestamp]</text>
</g>
<!-- weather&#45;&gt;places -->
<g id="edge2" class="edge">
<title>weather:place_id&#45;&gt;places:id</title>
<path fill="none" stroke="#000000" d="M488.9197,-696.9562C567.2278,-688.1085 473.4996,-573.0609 462.5,-481 457.5699,-439.7379 420.9444,-387.5 462.5,-387.5"/>
<polygon fill="#000000" stroke="#000000" points="488.4864,-696.9787 478.2654,-693.0061 483.4932,-697.2393 478.5,-697.5 478.5,-697.5 478.5,-697.5 483.4932,-697.2393 478.7346,-701.9939 488.4864,-696.9787 488.4864,-696.9787"/>
<text text-anchor="start" x="485.996" y="-707.5" font-family="Arial" font-size="10.00" fill="#000000">FOREIGN KEY (place_id) REFERENCES places (id)</text>
</g>
</g>
</svg>
