<?xml version="1.0" encoding="UTF-8" standalone="no"?>
<!DOCTYPE svg PUBLIC "-//W3C//DTD SVG 1.1//EN"
 "http://www.w3.org/Graphics/SVG/1.1/DTD/svg11.dtd">
<!-- Generated by graphviz version 2.40.1 (20161225.0304)
 -->
<!-- Title: public.account_analytic_tag_account_invoice_tax_rel Pages: 1 -->
<svg width="1519pt" height="862pt"
 viewBox="0.00 0.00 1519.00 862.00" xmlns="http://www.w3.org/2000/svg" xmlns:xlink="http://www.w3.org/1999/xlink">
<g id="graph0" class="graph" transform="scale(1 1) rotate(0) translate(4 858)">
<title>public.account_analytic_tag_account_invoice_tax_rel</title>
<polygon fill="#ffffff" stroke="transparent" points="-4,4 -4,-858 1515,-858 1515,4 -4,4"/>
<!-- public.account_analytic_tag_account_invoice_tax_rel -->
<g id="node1" class="node">
<title>public.account_analytic_tag_account_invoice_tax_rel</title>
<polygon fill="#efefef" stroke="transparent" points="485,-772.5 485,-807.5 1020,-807.5 1020,-772.5 485,-772.5"/>
<polygon fill="none" stroke="#000000" points="485,-772.5 485,-807.5 1020,-807.5 1020,-772.5 485,-772.5"/>
<text text-anchor="start" x="491.807" y="-785.3" font-family="Arial Bold" font-size="18.00" fill="#000000">public.account_analytic_tag_account_invoice_tax_rel</text>
<text text-anchor="start" x="915.9392" y="-785.3" font-family="Arial" font-size="14.00" fill="#000000"> </text>
<text text-anchor="start" x="919.8298" y="-785.3" font-family="Arial" font-size="14.00" fill="#666666">[BASE TABLE]</text>
<polygon fill="none" stroke="#000000" points="485,-742.5 485,-772.5 1020,-772.5 1020,-742.5 485,-742.5"/>
<text text-anchor="start" x="492" y="-753.9" font-family="Arial" font-size="14.00" fill="#000000">account_invoice_tax_id </text>
<text text-anchor="start" x="641.3828" y="-753.9" font-family="Arial" font-size="14.00" fill="#666666">[integer]</text>
<polygon fill="none" stroke="#000000" points="485,-712.5 485,-742.5 1020,-742.5 1020,-712.5 485,-712.5"/>
<text text-anchor="start" x="492" y="-723.9" font-family="Arial" font-size="14.00" fill="#000000">account_analytic_tag_id </text>
<text text-anchor="start" x="646.056" y="-723.9" font-family="Arial" font-size="14.00" fill="#666666">[integer]</text>
<polygon fill="none" stroke="#000000" stroke-width="3" points="483,-711.5 483,-809.5 1021,-809.5 1021,-711.5 483,-711.5"/>
</g>
<!-- public.account_invoice_tax -->
<g id="node2" class="node">
<title>public.account_invoice_tax</title>
<polygon fill="#efefef" stroke="transparent" points="374,-552.5 374,-587.5 700,-587.5 700,-552.5 374,-552.5"/>
<polygon fill="none" stroke="#000000" points="374,-552.5 374,-587.5 700,-587.5 700,-552.5 374,-552.5"/>
<text text-anchor="start" x="380.8411" y="-565.3" font-family="Arial Bold" font-size="18.00" fill="#000000">public.account_invoice_tax</text>
<text text-anchor="start" x="595.9051" y="-565.3" font-family="Arial" font-size="14.00" fill="#000000"> </text>
<text text-anchor="start" x="599.7957" y="-565.3" font-family="Arial" font-size="14.00" fill="#666666">[BASE TABLE]</text>
<polygon fill="none" stroke="#000000" points="374,-522.5 374,-552.5 700,-552.5 700,-522.5 374,-522.5"/>
<text text-anchor="start" x="381" y="-533.9" font-family="Arial" font-size="14.00" fill="#000000">id </text>
<text text-anchor="start" x="395.7798" y="-533.9" font-family="Arial" font-size="14.00" fill="#666666">[integer]</text>
<polygon fill="none" stroke="#000000" points="374,-492.5 374,-522.5 700,-522.5 700,-492.5 374,-492.5"/>
<text text-anchor="start" x="381" y="-503.9" font-family="Arial" font-size="14.00" fill="#000000">invoice_id </text>
<text text-anchor="start" x="447.1234" y="-503.9" font-family="Arial" font-size="14.00" fill="#666666">[integer]</text>
<polygon fill="none" stroke="#000000" points="374,-462.5 374,-492.5 700,-492.5 700,-462.5 374,-462.5"/>
<text text-anchor="start" x="381" y="-473.9" font-family="Arial" font-size="14.00" fill="#000000">name </text>
<text text-anchor="start" x="419.899" y="-473.9" font-family="Arial" font-size="14.00" fill="#666666">[varchar]</text>
<polygon fill="none" stroke="#000000" points="374,-432.5 374,-462.5 700,-462.5 700,-432.5 374,-432.5"/>
<text text-anchor="start" x="381" y="-443.9" font-family="Arial" font-size="14.00" fill="#000000">tax_id </text>
<text text-anchor="start" x="422.2356" y="-443.9" font-family="Arial" font-size="14.00" fill="#666666">[integer]</text>
<polygon fill="none" stroke="#000000" points="374,-402.5 374,-432.5 700,-432.5 700,-402.5 374,-402.5"/>
<text text-anchor="start" x="381" y="-413.9" font-family="Arial" font-size="14.00" fill="#000000">account_id </text>
<text text-anchor="start" x="452.5834" y="-413.9" font-family="Arial" font-size="14.00" fill="#666666">[integer]</text>
<polygon fill="none" stroke="#000000" points="374,-372.5 374,-402.5 700,-402.5 700,-372.5 374,-372.5"/>
<text text-anchor="start" x="381" y="-383.9" font-family="Arial" font-size="14.00" fill="#000000">account_analytic_id </text>
<text text-anchor="start" x="507.8176" y="-383.9" font-family="Arial" font-size="14.00" fill="#666666">[integer]</text>
<polygon fill="none" stroke="#000000" points="374,-342.5 374,-372.5 700,-372.5 700,-342.5 374,-342.5"/>
<text text-anchor="start" x="381" y="-353.9" font-family="Arial" font-size="14.00" fill="#000000">amount </text>
<text text-anchor="start" x="431.5722" y="-353.9" font-family="Arial" font-size="14.00" fill="#666666">[numeric]</text>
<polygon fill="none" stroke="#000000" points="374,-312.5 374,-342.5 700,-342.5 700,-312.5 374,-312.5"/>
<text text-anchor="start" x="381" y="-323.9" font-family="Arial" font-size="14.00" fill="#000000">amount_rounding </text>
<text text-anchor="start" x="493.8176" y="-323.9" font-family="Arial" font-size="14.00" fill="#666666">[numeric]</text>
<polygon fill="none" stroke="#000000" points="374,-282.5 374,-312.5 700,-312.5 700,-282.5 374,-282.5"/>
<text text-anchor="start" x="381" y="-293.9" font-family="Arial" font-size="14.00" fill="#000000">manual </text>
<text text-anchor="start" x="430.7882" y="-293.9" font-family="Arial" font-size="14.00" fill="#666666">[boolean]</text>
<polygon fill="none" stroke="#000000" points="374,-252.5 374,-282.5 700,-282.5 700,-252.5 374,-252.5"/>
<text text-anchor="start" x="381" y="-263.9" font-family="Arial" font-size="14.00" fill="#000000">sequence </text>
<text text-anchor="start" x="445.5862" y="-263.9" font-family="Arial" font-size="14.00" fill="#666666">[integer]</text>
<polygon fill="none" stroke="#000000" points="374,-222.5 374,-252.5 700,-252.5 700,-222.5 374,-222.5"/>
<text text-anchor="start" x="381" y="-233.9" font-family="Arial" font-size="14.00" fill="#000000">company_id </text>
<text text-anchor="start" x="460.3534" y="-233.9" font-family="Arial" font-size="14.00" fill="#666666">[integer]</text>
<polygon fill="none" stroke="#000000" points="374,-192.5 374,-222.5 700,-222.5 700,-192.5 374,-192.5"/>
<text text-anchor="start" x="381" y="-203.9" font-family="Arial" font-size="14.00" fill="#000000">currency_id </text>
<text text-anchor="start" x="457.2314" y="-203.9" font-family="Arial" font-size="14.00" fill="#666666">[integer]</text>
<polygon fill="none" stroke="#000000" points="374,-162.5 374,-192.5 700,-192.5 700,-162.5 374,-162.5"/>
<text text-anchor="start" x="381" y="-173.9" font-family="Arial" font-size="14.00" fill="#000000">base </text>
<text text-anchor="start" x="415.2384" y="-173.9" font-family="Arial" font-size="14.00" fill="#666666">[numeric]</text>
<polygon fill="none" stroke="#000000" points="374,-132.5 374,-162.5 700,-162.5 700,-132.5 374,-132.5"/>
<text text-anchor="start" x="381" y="-143.9" font-family="Arial" font-size="14.00" fill="#000000">create_uid </text>
<text text-anchor="start" x="450.244" y="-143.9" font-family="Arial" font-size="14.00" fill="#666666">[integer]</text>
<polygon fill="none" stroke="#000000" points="374,-102.5 374,-132.5 700,-132.5 700,-102.5 374,-102.5"/>
<text text-anchor="start" x="381" y="-113.9" font-family="Arial" font-size="14.00" fill="#000000">create_date </text>
<text text-anchor="start" x="458.8106" y="-113.9" font-family="Arial" font-size="14.00" fill="#666666">[timestamp without time zone]</text>
<polygon fill="none" stroke="#000000" points="374,-72.5 374,-102.5 700,-102.5 700,-72.5 374,-72.5"/>
<text text-anchor="start" x="381" y="-83.9" font-family="Arial" font-size="14.00" fill="#000000">write_uid </text>
<text text-anchor="start" x="440.892" y="-83.9" font-family="Arial" font-size="14.00" fill="#666666">[integer]</text>
<polygon fill="none" stroke="#000000" points="374,-42.5 374,-72.5 700,-72.5 700,-42.5 374,-42.5"/>
<text text-anchor="start" x="381" y="-53.9" font-family="Arial" font-size="14.00" fill="#000000">write_date </text>
<text text-anchor="start" x="449.4586" y="-53.9" font-family="Arial" font-size="14.00" fill="#666666">[timestamp without time zone]</text>
</g>
<!-- public.account_analytic_tag_account_invoice_tax_rel&#45;&gt;public.account_invoice_tax -->
<g id="edge1" class="edge">
<title>public.account_analytic_tag_account_invoice_tax_rel:account_invoice_tax_id&#45;&gt;public.account_invoice_tax:id</title>
<path fill="none" stroke="#000000" d="M475.0882,-755.9965C447.5502,-746.5433 461.4492,-694.822 485,-667 547.5967,-593.0506 637.4033,-704.9494 700,-631 726.8485,-599.2822 741.5556,-537.5 700,-537.5"/>
<polygon fill="#000000" stroke="#000000" points="475.1131,-756.0002 484.3251,-761.9491 480.0565,-756.7501 485,-757.5 485,-757.5 485,-757.5 480.0565,-756.7501 485.6749,-753.0509 475.1131,-756.0002 475.1131,-756.0002"/>
<text text-anchor="start" x="7.4145" y="-767.5" font-family="Arial" font-size="10.00" fill="#000000">FOREIGN KEY (account_invoice_tax_id) REFERENCES account_invoice_tax(id) ON DELETE CASCADE</text>
</g>
<!-- public.account_analytic_tag -->
<g id="node3" class="node">
<title>public.account_analytic_tag</title>
<polygon fill="#efefef" stroke="transparent" points="804,-447.5 804,-482.5 1136,-482.5 1136,-447.5 804,-447.5"/>
<polygon fill="none" stroke="#000000" points="804,-447.5 804,-482.5 1136,-482.5 1136,-447.5 804,-447.5"/>
<text text-anchor="start" x="810.8369" y="-460.3" font-family="Arial Bold" font-size="18.00" fill="#000000">public.account_analytic_tag</text>
<text text-anchor="start" x="1031.9093" y="-460.3" font-family="Arial" font-size="14.00" fill="#000000"> </text>
<text text-anchor="start" x="1035.7999" y="-460.3" font-family="Arial" font-size="14.00" fill="#666666">[BASE TABLE]</text>
<polygon fill="none" stroke="#000000" points="804,-417.5 804,-447.5 1136,-447.5 1136,-417.5 804,-417.5"/>
<text text-anchor="start" x="811" y="-428.9" font-family="Arial" font-size="14.00" fill="#000000">id </text>
<text text-anchor="start" x="825.7798" y="-428.9" font-family="Arial" font-size="14.00" fill="#666666">[integer]</text>
<polygon fill="none" stroke="#000000" points="804,-387.5 804,-417.5 1136,-417.5 1136,-387.5 804,-387.5"/>
<text text-anchor="start" x="811" y="-398.9" font-family="Arial" font-size="14.00" fill="#000000">name </text>
<text text-anchor="start" x="849.899" y="-398.9" font-family="Arial" font-size="14.00" fill="#666666">[varchar]</text>
<polygon fill="none" stroke="#000000" points="804,-357.5 804,-387.5 1136,-387.5 1136,-357.5 804,-357.5"/>
<text text-anchor="start" x="811" y="-368.9" font-family="Arial" font-size="14.00" fill="#000000">color </text>
<text text-anchor="start" x="845.223" y="-368.9" font-family="Arial" font-size="14.00" fill="#666666">[integer]</text>
<polygon fill="none" stroke="#000000" points="804,-327.5 804,-357.5 1136,-357.5 1136,-327.5 804,-327.5"/>
<text text-anchor="start" x="811" y="-338.9" font-family="Arial" font-size="14.00" fill="#000000">active </text>
<text text-anchor="start" x="851.453" y="-338.9" font-family="Arial" font-size="14.00" fill="#666666">[boolean]</text>
<polygon fill="none" stroke="#000000" points="804,-297.5 804,-327.5 1136,-327.5 1136,-297.5 804,-297.5"/>
<text text-anchor="start" x="811" y="-308.9" font-family="Arial" font-size="14.00" fill="#000000">active_analytic_distribution </text>
<text text-anchor="start" x="982.1444" y="-308.9" font-family="Arial" font-size="14.00" fill="#666666">[boolean]</text>
<polygon fill="none" stroke="#000000" points="804,-267.5 804,-297.5 1136,-297.5 1136,-267.5 804,-267.5"/>
<text text-anchor="start" x="811" y="-278.9" font-family="Arial" font-size="14.00" fill="#000000">company_id </text>
<text text-anchor="start" x="890.3534" y="-278.9" font-family="Arial" font-size="14.00" fill="#666666">[integer]</text>
<polygon fill="none" stroke="#000000" points="804,-237.5 804,-267.5 1136,-267.5 1136,-237.5 804,-237.5"/>
<text text-anchor="start" x="811" y="-248.9" font-family="Arial" font-size="14.00" fill="#000000">create_uid </text>
<text text-anchor="start" x="880.244" y="-248.9" font-family="Arial" font-size="14.00" fill="#666666">[integer]</text>
<polygon fill="none" stroke="#000000" points="804,-207.5 804,-237.5 1136,-237.5 1136,-207.5 804,-207.5"/>
<text text-anchor="start" x="811" y="-218.9" font-family="Arial" font-size="14.00" fill="#000000">create_date </text>
<text text-anchor="start" x="888.8106" y="-218.9" font-family="Arial" font-size="14.00" fill="#666666">[timestamp without time zone]</text>
<polygon fill="none" stroke="#000000" points="804,-177.5 804,-207.5 1136,-207.5 1136,-177.5 804,-177.5"/>
<text text-anchor="start" x="811" y="-188.9" font-family="Arial" font-size="14.00" fill="#000000">write_uid </text>
<text text-anchor="start" x="870.892" y="-188.9" font-family="Arial" font-size="14.00" fill="#666666">[integer]</text>
<polygon fill="none" stroke="#000000" points="804,-147.5 804,-177.5 1136,-177.5 1136,-147.5 804,-147.5"/>
<text text-anchor="start" x="811" y="-158.9" font-family="Arial" font-size="14.00" fill="#000000">write_date </text>
<text text-anchor="start" x="879.4586" y="-158.9" font-family="Arial" font-size="14.00" fill="#666666">[timestamp without time zone]</text>
</g>
<!-- public.account_analytic_tag_account_invoice_tax_rel&#45;&gt;public.account_analytic_tag -->
<g id="edge2" class="edge">
<title>public.account_analytic_tag_account_invoice_tax_rel:account_analytic_tag_id&#45;&gt;public.account_analytic_tag:id</title>
<path fill="none" stroke="#000000" d="M1029.7642,-724.9917C1042.5182,-716.3055 1030.8019,-686.951 1020,-667 965.4162,-566.1847 858.5838,-626.8153 804,-526 784.2146,-489.4568 762.4444,-432.5 804,-432.5"/>
<polygon fill="#000000" stroke="#000000" points="1029.6855,-725.0118 1018.8803,-723.1415 1024.8428,-726.2559 1020,-727.5 1020,-727.5 1020,-727.5 1024.8428,-726.2559 1021.1197,-731.8585 1029.6855,-725.0118 1029.6855,-725.0118"/>
<text text-anchor="start" x="1027.0765" y="-737.5" font-family="Arial" font-size="10.00" fill="#000000">FOREIGN KEY (account_analytic_tag_id) REFERENCES account_analytic_tag(id) ON DELETE CASCADE</text>
</g>
</g>
</svg>
