<?xml version="1.0" encoding="UTF-8" standalone="no"?>
<!DOCTYPE svg PUBLIC "-//W3C//DTD SVG 1.1//EN"
 "http://www.w3.org/Graphics/SVG/1.1/DTD/svg11.dtd">
<!-- Generated by graphviz version 2.40.1 (20161225.0304)
 -->
<!-- Title: public.mail_compose_message_ir_attachments_rel Pages: 1 -->
<svg width="1385pt" height="1372pt"
 viewBox="0.00 0.00 1385.00 1372.00" xmlns="http://www.w3.org/2000/svg" xmlns:xlink="http://www.w3.org/1999/xlink">
<g id="graph0" class="graph" transform="scale(1 1) rotate(0) translate(4 1368)">
<title>public.mail_compose_message_ir_attachments_rel</title>
<polygon fill="#ffffff" stroke="transparent" points="-4,4 -4,-1368 1381,-1368 1381,4 -4,4"/>
<!-- public.mail_compose_message_ir_attachments_rel -->
<g id="node1" class="node">
<title>public.mail_compose_message_ir_attachments_rel</title>
<polygon fill="#efefef" stroke="transparent" points="443,-1282.5 443,-1317.5 963,-1317.5 963,-1282.5 443,-1282.5"/>
<polygon fill="none" stroke="#000000" points="443,-1282.5 443,-1317.5 963,-1317.5 963,-1282.5 443,-1282.5"/>
<text text-anchor="start" x="449.8382" y="-1295.3" font-family="Arial Bold" font-size="18.00" fill="#000000">public.mail_compose_message_ir_attachments_rel</text>
<text text-anchor="start" x="858.908" y="-1295.3" font-family="Arial" font-size="14.00" fill="#000000"> </text>
<text text-anchor="start" x="862.7986" y="-1295.3" font-family="Arial" font-size="14.00" fill="#666666">[BASE TABLE]</text>
<polygon fill="none" stroke="#000000" points="443,-1252.5 443,-1282.5 963,-1282.5 963,-1252.5 443,-1252.5"/>
<text text-anchor="start" x="450" y="-1263.9" font-family="Arial" font-size="14.00" fill="#000000">wizard_id </text>
<text text-anchor="start" x="513.0014" y="-1263.9" font-family="Arial" font-size="14.00" fill="#666666">[integer]</text>
<polygon fill="none" stroke="#000000" points="443,-1222.5 443,-1252.5 963,-1252.5 963,-1222.5 443,-1222.5"/>
<text text-anchor="start" x="450" y="-1233.9" font-family="Arial" font-size="14.00" fill="#000000">attachment_id </text>
<text text-anchor="start" x="541.8078" y="-1233.9" font-family="Arial" font-size="14.00" fill="#666666">[integer]</text>
<polygon fill="none" stroke="#000000" stroke-width="3" points="441.5,-1221.5 441.5,-1319.5 964.5,-1319.5 964.5,-1221.5 441.5,-1221.5"/>
</g>
<!-- public.mail_compose_message -->
<g id="node2" class="node">
<title>public.mail_compose_message</title>
<polygon fill="#efefef" stroke="transparent" points="311,-1062.5 311,-1097.5 673,-1097.5 673,-1062.5 311,-1062.5"/>
<polygon fill="none" stroke="#000000" points="311,-1062.5 311,-1097.5 673,-1097.5 673,-1062.5 311,-1062.5"/>
<text text-anchor="start" x="317.8519" y="-1075.3" font-family="Arial Bold" font-size="18.00" fill="#000000">public.mail_compose_message</text>
<text text-anchor="start" x="568.8943" y="-1075.3" font-family="Arial" font-size="14.00" fill="#000000"> </text>
<text text-anchor="start" x="572.7849" y="-1075.3" font-family="Arial" font-size="14.00" fill="#666666">[BASE TABLE]</text>
<polygon fill="none" stroke="#000000" points="311,-1032.5 311,-1062.5 673,-1062.5 673,-1032.5 311,-1032.5"/>
<text text-anchor="start" x="318" y="-1043.9" font-family="Arial" font-size="14.00" fill="#000000">id </text>
<text text-anchor="start" x="332.7798" y="-1043.9" font-family="Arial" font-size="14.00" fill="#666666">[integer]</text>
<polygon fill="none" stroke="#000000" points="311,-1002.5 311,-1032.5 673,-1032.5 673,-1002.5 311,-1002.5"/>
<text text-anchor="start" x="318" y="-1013.9" font-family="Arial" font-size="14.00" fill="#000000">composition_mode </text>
<text text-anchor="start" x="439.359" y="-1013.9" font-family="Arial" font-size="14.00" fill="#666666">[varchar]</text>
<polygon fill="none" stroke="#000000" points="311,-972.5 311,-1002.5 673,-1002.5 673,-972.5 311,-972.5"/>
<text text-anchor="start" x="318" y="-983.9" font-family="Arial" font-size="14.00" fill="#000000">use_active_domain </text>
<text text-anchor="start" x="442.481" y="-983.9" font-family="Arial" font-size="14.00" fill="#666666">[boolean]</text>
<polygon fill="none" stroke="#000000" points="311,-942.5 311,-972.5 673,-972.5 673,-942.5 311,-942.5"/>
<text text-anchor="start" x="318" y="-953.9" font-family="Arial" font-size="14.00" fill="#000000">active_domain </text>
<text text-anchor="start" x="412.1332" y="-953.9" font-family="Arial" font-size="14.00" fill="#666666">[text]</text>
<polygon fill="none" stroke="#000000" points="311,-912.5 311,-942.5 673,-942.5 673,-912.5 311,-912.5"/>
<text text-anchor="start" x="318" y="-923.9" font-family="Arial" font-size="14.00" fill="#000000">is_log </text>
<text text-anchor="start" x="358.4516" y="-923.9" font-family="Arial" font-size="14.00" fill="#666666">[boolean]</text>
<polygon fill="none" stroke="#000000" points="311,-882.5 311,-912.5 673,-912.5 673,-882.5 311,-882.5"/>
<text text-anchor="start" x="318" y="-893.9" font-family="Arial" font-size="14.00" fill="#000000">subject </text>
<text text-anchor="start" x="366.2356" y="-893.9" font-family="Arial" font-size="14.00" fill="#666666">[varchar]</text>
<polygon fill="none" stroke="#000000" points="311,-852.5 311,-882.5 673,-882.5 673,-852.5 311,-852.5"/>
<text text-anchor="start" x="318" y="-863.9" font-family="Arial" font-size="14.00" fill="#000000">notify </text>
<text text-anchor="start" x="355.3436" y="-863.9" font-family="Arial" font-size="14.00" fill="#666666">[boolean]</text>
<polygon fill="none" stroke="#000000" points="311,-822.5 311,-852.5 673,-852.5 673,-822.5 311,-822.5"/>
<text text-anchor="start" x="318" y="-833.9" font-family="Arial" font-size="14.00" fill="#000000">auto_delete </text>
<text text-anchor="start" x="395.0392" y="-833.9" font-family="Arial" font-size="14.00" fill="#666666">[boolean]</text>
<polygon fill="none" stroke="#000000" points="311,-792.5 311,-822.5 673,-822.5 673,-792.5 311,-792.5"/>
<text text-anchor="start" x="318" y="-803.9" font-family="Arial" font-size="14.00" fill="#000000">auto_delete_message </text>
<text text-anchor="start" x="459.6128" y="-803.9" font-family="Arial" font-size="14.00" fill="#666666">[boolean]</text>
<polygon fill="none" stroke="#000000" points="311,-762.5 311,-792.5 673,-792.5 673,-762.5 311,-762.5"/>
<text text-anchor="start" x="318" y="-773.9" font-family="Arial" font-size="14.00" fill="#000000">template_id </text>
<text text-anchor="start" x="394.2412" y="-773.9" font-family="Arial" font-size="14.00" fill="#666666">[integer]</text>
<polygon fill="none" stroke="#000000" points="311,-732.5 311,-762.5 673,-762.5 673,-732.5 311,-732.5"/>
<text text-anchor="start" x="318" y="-743.9" font-family="Arial" font-size="14.00" fill="#000000">message_type </text>
<text text-anchor="start" x="412.92" y="-743.9" font-family="Arial" font-size="14.00" fill="#666666">[varchar]</text>
<polygon fill="none" stroke="#000000" points="311,-702.5 311,-732.5 673,-732.5 673,-702.5 311,-702.5"/>
<text text-anchor="start" x="318" y="-713.9" font-family="Arial" font-size="14.00" fill="#000000">subtype_id </text>
<text text-anchor="start" x="389.5834" y="-713.9" font-family="Arial" font-size="14.00" fill="#666666">[integer]</text>
<polygon fill="none" stroke="#000000" points="311,-672.5 311,-702.5 673,-702.5 673,-672.5 311,-672.5"/>
<text text-anchor="start" x="318" y="-683.9" font-family="Arial" font-size="14.00" fill="#000000">date </text>
<text text-anchor="start" x="349.129" y="-683.9" font-family="Arial" font-size="14.00" fill="#666666">[timestamp without time zone]</text>
<polygon fill="none" stroke="#000000" points="311,-642.5 311,-672.5 673,-672.5 673,-642.5 311,-642.5"/>
<text text-anchor="start" x="318" y="-653.9" font-family="Arial" font-size="14.00" fill="#000000">body </text>
<text text-anchor="start" x="352.2384" y="-653.9" font-family="Arial" font-size="14.00" fill="#666666">[text]</text>
<polygon fill="none" stroke="#000000" points="311,-612.5 311,-642.5 673,-642.5 673,-612.5 311,-612.5"/>
<text text-anchor="start" x="318" y="-623.9" font-family="Arial" font-size="14.00" fill="#000000">parent_id </text>
<text text-anchor="start" x="380.244" y="-623.9" font-family="Arial" font-size="14.00" fill="#666666">[integer]</text>
<polygon fill="none" stroke="#000000" points="311,-582.5 311,-612.5 673,-612.5 673,-582.5 311,-582.5"/>
<text text-anchor="start" x="318" y="-593.9" font-family="Arial" font-size="14.00" fill="#000000">model </text>
<text text-anchor="start" x="360.0056" y="-593.9" font-family="Arial" font-size="14.00" fill="#666666">[varchar]</text>
<polygon fill="none" stroke="#000000" points="311,-552.5 311,-582.5 673,-582.5 673,-552.5 311,-552.5"/>
<text text-anchor="start" x="318" y="-563.9" font-family="Arial" font-size="14.00" fill="#000000">res_id </text>
<text text-anchor="start" x="360.0056" y="-563.9" font-family="Arial" font-size="14.00" fill="#666666">[integer]</text>
<polygon fill="none" stroke="#000000" points="311,-522.5 311,-552.5 673,-552.5 673,-522.5 311,-522.5"/>
<text text-anchor="start" x="318" y="-533.9" font-family="Arial" font-size="14.00" fill="#000000">record_name </text>
<text text-anchor="start" x="404.3506" y="-533.9" font-family="Arial" font-size="14.00" fill="#666666">[varchar]</text>
<polygon fill="none" stroke="#000000" points="311,-492.5 311,-522.5 673,-522.5 673,-492.5 311,-492.5"/>
<text text-anchor="start" x="318" y="-503.9" font-family="Arial" font-size="14.00" fill="#000000">mail_activity_type_id </text>
<text text-anchor="start" x="451.0168" y="-503.9" font-family="Arial" font-size="14.00" fill="#666666">[integer]</text>
<polygon fill="none" stroke="#000000" points="311,-462.5 311,-492.5 673,-492.5 673,-462.5 311,-462.5"/>
<text text-anchor="start" x="318" y="-473.9" font-family="Arial" font-size="14.00" fill="#000000">email_from </text>
<text text-anchor="start" x="391.1066" y="-473.9" font-family="Arial" font-size="14.00" fill="#666666">[varchar]</text>
<polygon fill="none" stroke="#000000" points="311,-432.5 311,-462.5 673,-462.5 673,-432.5 311,-432.5"/>
<text text-anchor="start" x="318" y="-443.9" font-family="Arial" font-size="14.00" fill="#000000">author_id </text>
<text text-anchor="start" x="380.244" y="-443.9" font-family="Arial" font-size="14.00" fill="#666666">[integer]</text>
<polygon fill="none" stroke="#000000" points="311,-402.5 311,-432.5 673,-432.5 673,-402.5 311,-402.5"/>
<text text-anchor="start" x="318" y="-413.9" font-family="Arial" font-size="14.00" fill="#000000">no_auto_thread </text>
<text text-anchor="start" x="419.941" y="-413.9" font-family="Arial" font-size="14.00" fill="#666666">[boolean]</text>
<polygon fill="none" stroke="#000000" points="311,-372.5 311,-402.5 673,-402.5 673,-372.5 311,-372.5"/>
<text text-anchor="start" x="318" y="-383.9" font-family="Arial" font-size="14.00" fill="#000000">message_id </text>
<text text-anchor="start" x="397.3534" y="-383.9" font-family="Arial" font-size="14.00" fill="#666666">[varchar]</text>
<polygon fill="none" stroke="#000000" points="311,-342.5 311,-372.5 673,-372.5 673,-342.5 311,-342.5"/>
<text text-anchor="start" x="318" y="-353.9" font-family="Arial" font-size="14.00" fill="#000000">reply_to </text>
<text text-anchor="start" x="371.6788" y="-353.9" font-family="Arial" font-size="14.00" fill="#666666">[varchar]</text>
<polygon fill="none" stroke="#000000" points="311,-312.5 311,-342.5 673,-342.5 673,-312.5 311,-312.5"/>
<text text-anchor="start" x="318" y="-323.9" font-family="Arial" font-size="14.00" fill="#000000">mail_server_id </text>
<text text-anchor="start" x="412.8878" y="-323.9" font-family="Arial" font-size="14.00" fill="#666666">[integer]</text>
<polygon fill="none" stroke="#000000" points="311,-282.5 311,-312.5 673,-312.5 673,-282.5 311,-282.5"/>
<text text-anchor="start" x="318" y="-293.9" font-family="Arial" font-size="14.00" fill="#000000">moderation_status </text>
<text text-anchor="start" x="437.0336" y="-293.9" font-family="Arial" font-size="14.00" fill="#666666">[varchar]</text>
<polygon fill="none" stroke="#000000" points="311,-252.5 311,-282.5 673,-282.5 673,-252.5 311,-252.5"/>
<text text-anchor="start" x="318" y="-263.9" font-family="Arial" font-size="14.00" fill="#000000">moderator_id </text>
<text text-anchor="start" x="404.3478" y="-263.9" font-family="Arial" font-size="14.00" fill="#666666">[integer]</text>
<polygon fill="none" stroke="#000000" points="311,-222.5 311,-252.5 673,-252.5 673,-222.5 311,-222.5"/>
<text text-anchor="start" x="318" y="-233.9" font-family="Arial" font-size="14.00" fill="#000000">layout </text>
<text text-anchor="start" x="359.2356" y="-233.9" font-family="Arial" font-size="14.00" fill="#666666">[varchar]</text>
<polygon fill="none" stroke="#000000" points="311,-192.5 311,-222.5 673,-222.5 673,-192.5 311,-192.5"/>
<text text-anchor="start" x="318" y="-203.9" font-family="Arial" font-size="14.00" fill="#000000">add_sign </text>
<text text-anchor="start" x="378.6928" y="-203.9" font-family="Arial" font-size="14.00" fill="#666666">[boolean]</text>
<polygon fill="none" stroke="#000000" points="311,-162.5 311,-192.5 673,-192.5 673,-162.5 311,-162.5"/>
<text text-anchor="start" x="318" y="-173.9" font-family="Arial" font-size="14.00" fill="#000000">create_uid </text>
<text text-anchor="start" x="387.244" y="-173.9" font-family="Arial" font-size="14.00" fill="#666666">[integer]</text>
<polygon fill="none" stroke="#000000" points="311,-132.5 311,-162.5 673,-162.5 673,-132.5 311,-132.5"/>
<text text-anchor="start" x="318" y="-143.9" font-family="Arial" font-size="14.00" fill="#000000">create_date </text>
<text text-anchor="start" x="395.8106" y="-143.9" font-family="Arial" font-size="14.00" fill="#666666">[timestamp without time zone]</text>
<polygon fill="none" stroke="#000000" points="311,-102.5 311,-132.5 673,-132.5 673,-102.5 311,-102.5"/>
<text text-anchor="start" x="318" y="-113.9" font-family="Arial" font-size="14.00" fill="#000000">write_uid </text>
<text text-anchor="start" x="377.892" y="-113.9" font-family="Arial" font-size="14.00" fill="#666666">[integer]</text>
<polygon fill="none" stroke="#000000" points="311,-72.5 311,-102.5 673,-102.5 673,-72.5 311,-72.5"/>
<text text-anchor="start" x="318" y="-83.9" font-family="Arial" font-size="14.00" fill="#000000">write_date </text>
<text text-anchor="start" x="386.4586" y="-83.9" font-family="Arial" font-size="14.00" fill="#666666">[timestamp without time zone]</text>
<polygon fill="none" stroke="#000000" points="311,-42.5 311,-72.5 673,-72.5 673,-42.5 311,-42.5"/>
<text text-anchor="start" x="318" y="-53.9" font-family="Arial" font-size="14.00" fill="#000000">website_published </text>
<text text-anchor="start" x="437.0336" y="-53.9" font-family="Arial" font-size="14.00" fill="#666666">[boolean]</text>
</g>
<!-- public.mail_compose_message_ir_attachments_rel&#45;&gt;public.mail_compose_message -->
<g id="edge1" class="edge">
<title>public.mail_compose_message_ir_attachments_rel:wizard_id&#45;&gt;public.mail_compose_message:id</title>
<path fill="none" stroke="#000000" d="M433.0843,-1265.9932C405.5225,-1256.5197 419.3015,-1204.6963 443,-1177 510.2678,-1098.3843 605.7322,-1219.6157 673,-1141 700.0169,-1109.4254 714.5556,-1047.5 673,-1047.5"/>
<polygon fill="#000000" stroke="#000000" points="433.1135,-1265.9975 442.3239,-1271.9489 438.0568,-1266.7488 443,-1267.5 443,-1267.5 443,-1267.5 438.0568,-1266.7488 443.6761,-1263.0511 433.1135,-1265.9975 433.1135,-1265.9975"/>
<text text-anchor="start" x="7.271" y="-1277.5" font-family="Arial" font-size="10.00" fill="#000000">FOREIGN KEY (wizard_id) REFERENCES mail_compose_message(id) ON DELETE CASCADE</text>
</g>
<!-- public.ir_attachment -->
<g id="node3" class="node">
<title>public.ir_attachment</title>
<polygon fill="#efefef" stroke="transparent" points="777,-972.5 777,-1007.5 1053,-1007.5 1053,-972.5 777,-972.5"/>
<polygon fill="none" stroke="#000000" points="777,-972.5 777,-1007.5 1053,-1007.5 1053,-972.5 777,-972.5"/>
<text text-anchor="start" x="785.8573" y="-985.3" font-family="Arial Bold" font-size="18.00" fill="#000000">public.ir_attachment</text>
<text text-anchor="start" x="946.8889" y="-985.3" font-family="Arial" font-size="14.00" fill="#000000"> </text>
<text text-anchor="start" x="950.7795" y="-985.3" font-family="Arial" font-size="14.00" fill="#666666">[BASE TABLE]</text>
<polygon fill="none" stroke="#000000" points="777,-942.5 777,-972.5 1053,-972.5 1053,-942.5 777,-942.5"/>
<text text-anchor="start" x="784" y="-953.9" font-family="Arial" font-size="14.00" fill="#000000">id </text>
<text text-anchor="start" x="798.7798" y="-953.9" font-family="Arial" font-size="14.00" fill="#666666">[integer]</text>
<polygon fill="none" stroke="#000000" points="777,-912.5 777,-942.5 1053,-942.5 1053,-912.5 777,-912.5"/>
<text text-anchor="start" x="784" y="-923.9" font-family="Arial" font-size="14.00" fill="#000000">name </text>
<text text-anchor="start" x="822.899" y="-923.9" font-family="Arial" font-size="14.00" fill="#666666">[varchar]</text>
<polygon fill="none" stroke="#000000" points="777,-882.5 777,-912.5 1053,-912.5 1053,-882.5 777,-882.5"/>
<text text-anchor="start" x="784" y="-893.9" font-family="Arial" font-size="14.00" fill="#000000">datas_fname </text>
<text text-anchor="start" x="868.8106" y="-893.9" font-family="Arial" font-size="14.00" fill="#666666">[varchar]</text>
<polygon fill="none" stroke="#000000" points="777,-852.5 777,-882.5 1053,-882.5 1053,-852.5 777,-852.5"/>
<text text-anchor="start" x="784" y="-863.9" font-family="Arial" font-size="14.00" fill="#000000">description </text>
<text text-anchor="start" x="855.568" y="-863.9" font-family="Arial" font-size="14.00" fill="#666666">[text]</text>
<polygon fill="none" stroke="#000000" points="777,-822.5 777,-852.5 1053,-852.5 1053,-822.5 777,-822.5"/>
<text text-anchor="start" x="784" y="-833.9" font-family="Arial" font-size="14.00" fill="#000000">res_name </text>
<text text-anchor="start" x="850.1248" y="-833.9" font-family="Arial" font-size="14.00" fill="#666666">[varchar]</text>
<polygon fill="none" stroke="#000000" points="777,-792.5 777,-822.5 1053,-822.5 1053,-792.5 777,-792.5"/>
<text text-anchor="start" x="784" y="-803.9" font-family="Arial" font-size="14.00" fill="#000000">res_model </text>
<text text-anchor="start" x="853.2314" y="-803.9" font-family="Arial" font-size="14.00" fill="#666666">[varchar]</text>
<polygon fill="none" stroke="#000000" points="777,-762.5 777,-792.5 1053,-792.5 1053,-762.5 777,-762.5"/>
<text text-anchor="start" x="784" y="-773.9" font-family="Arial" font-size="14.00" fill="#000000">res_model_name </text>
<text text-anchor="start" x="896.0224" y="-773.9" font-family="Arial" font-size="14.00" fill="#666666">[varchar]</text>
<polygon fill="none" stroke="#000000" points="777,-732.5 777,-762.5 1053,-762.5 1053,-732.5 777,-732.5"/>
<text text-anchor="start" x="784" y="-743.9" font-family="Arial" font-size="14.00" fill="#000000">res_field </text>
<text text-anchor="start" x="840.7854" y="-743.9" font-family="Arial" font-size="14.00" fill="#666666">[varchar]</text>
<polygon fill="none" stroke="#000000" points="777,-702.5 777,-732.5 1053,-732.5 1053,-702.5 777,-702.5"/>
<text text-anchor="start" x="784" y="-713.9" font-family="Arial" font-size="14.00" fill="#000000">res_id </text>
<text text-anchor="start" x="826.0056" y="-713.9" font-family="Arial" font-size="14.00" fill="#666666">[integer]</text>
<polygon fill="none" stroke="#000000" points="777,-672.5 777,-702.5 1053,-702.5 1053,-672.5 777,-672.5"/>
<text text-anchor="start" x="784" y="-683.9" font-family="Arial" font-size="14.00" fill="#000000">company_id </text>
<text text-anchor="start" x="863.3534" y="-683.9" font-family="Arial" font-size="14.00" fill="#666666">[integer]</text>
<polygon fill="none" stroke="#000000" points="777,-642.5 777,-672.5 1053,-672.5 1053,-642.5 777,-642.5"/>
<text text-anchor="start" x="784" y="-653.9" font-family="Arial" font-size="14.00" fill="#000000">type </text>
<text text-anchor="start" x="814.3464" y="-653.9" font-family="Arial" font-size="14.00" fill="#666666">[varchar]</text>
<polygon fill="none" stroke="#000000" points="777,-612.5 777,-642.5 1053,-642.5 1053,-612.5 777,-612.5"/>
<text text-anchor="start" x="784" y="-623.9" font-family="Arial" font-size="14.00" fill="#000000">url </text>
<text text-anchor="start" x="803.4404" y="-623.9" font-family="Arial" font-size="14.00" fill="#666666">[varchar(1024)]</text>
<polygon fill="none" stroke="#000000" points="777,-582.5 777,-612.5 1053,-612.5 1053,-582.5 777,-582.5"/>
<text text-anchor="start" x="784" y="-593.9" font-family="Arial" font-size="14.00" fill="#000000">public </text>
<text text-anchor="start" x="824.4516" y="-593.9" font-family="Arial" font-size="14.00" fill="#666666">[boolean]</text>
<polygon fill="none" stroke="#000000" points="777,-552.5 777,-582.5 1053,-582.5 1053,-552.5 777,-552.5"/>
<text text-anchor="start" x="784" y="-563.9" font-family="Arial" font-size="14.00" fill="#000000">access_token </text>
<text text-anchor="start" x="873.4768" y="-563.9" font-family="Arial" font-size="14.00" fill="#666666">[varchar]</text>
<polygon fill="none" stroke="#000000" points="777,-522.5 777,-552.5 1053,-552.5 1053,-522.5 777,-522.5"/>
<text text-anchor="start" x="784" y="-533.9" font-family="Arial" font-size="14.00" fill="#000000">db_datas </text>
<text text-anchor="start" x="845.4768" y="-533.9" font-family="Arial" font-size="14.00" fill="#666666">[bytea]</text>
<polygon fill="none" stroke="#000000" points="777,-492.5 777,-522.5 1053,-522.5 1053,-492.5 777,-492.5"/>
<text text-anchor="start" x="784" y="-503.9" font-family="Arial" font-size="14.00" fill="#000000">store_fname </text>
<text text-anchor="start" x="865.6886" y="-503.9" font-family="Arial" font-size="14.00" fill="#666666">[varchar]</text>
<polygon fill="none" stroke="#000000" points="777,-462.5 777,-492.5 1053,-492.5 1053,-462.5 777,-462.5"/>
<text text-anchor="start" x="784" y="-473.9" font-family="Arial" font-size="14.00" fill="#000000">file_size </text>
<text text-anchor="start" x="838.4488" y="-473.9" font-family="Arial" font-size="14.00" fill="#666666">[integer]</text>
<polygon fill="none" stroke="#000000" points="777,-432.5 777,-462.5 1053,-462.5 1053,-432.5 777,-432.5"/>
<text text-anchor="start" x="784" y="-443.9" font-family="Arial" font-size="14.00" fill="#000000">checksum </text>
<text text-anchor="start" x="850.899" y="-443.9" font-family="Arial" font-size="14.00" fill="#666666">[varchar(40)]</text>
<polygon fill="none" stroke="#000000" points="777,-402.5 777,-432.5 1053,-432.5 1053,-402.5 777,-402.5"/>
<text text-anchor="start" x="784" y="-413.9" font-family="Arial" font-size="14.00" fill="#000000">mimetype </text>
<text text-anchor="start" x="848.5568" y="-413.9" font-family="Arial" font-size="14.00" fill="#666666">[varchar]</text>
<polygon fill="none" stroke="#000000" points="777,-372.5 777,-402.5 1053,-402.5 1053,-372.5 777,-372.5"/>
<text text-anchor="start" x="784" y="-383.9" font-family="Arial" font-size="14.00" fill="#000000">index_content </text>
<text text-anchor="start" x="875.0392" y="-383.9" font-family="Arial" font-size="14.00" fill="#666666">[text]</text>
<polygon fill="none" stroke="#000000" points="777,-342.5 777,-372.5 1053,-372.5 1053,-342.5 777,-342.5"/>
<text text-anchor="start" x="784" y="-353.9" font-family="Arial" font-size="14.00" fill="#000000">active </text>
<text text-anchor="start" x="824.453" y="-353.9" font-family="Arial" font-size="14.00" fill="#666666">[boolean]</text>
<polygon fill="none" stroke="#000000" points="777,-312.5 777,-342.5 1053,-342.5 1053,-312.5 777,-312.5"/>
<text text-anchor="start" x="784" y="-323.9" font-family="Arial" font-size="14.00" fill="#000000">create_uid </text>
<text text-anchor="start" x="853.244" y="-323.9" font-family="Arial" font-size="14.00" fill="#666666">[integer]</text>
<polygon fill="none" stroke="#000000" points="777,-282.5 777,-312.5 1053,-312.5 1053,-282.5 777,-282.5"/>
<text text-anchor="start" x="783.5246" y="-293.9" font-family="Arial" font-size="14.00" fill="#000000">create_date </text>
<text text-anchor="start" x="861.3352" y="-293.9" font-family="Arial" font-size="14.00" fill="#666666">[timestamp without time zone]</text>
<polygon fill="none" stroke="#000000" points="777,-252.5 777,-282.5 1053,-282.5 1053,-252.5 777,-252.5"/>
<text text-anchor="start" x="784" y="-263.9" font-family="Arial" font-size="14.00" fill="#000000">write_uid </text>
<text text-anchor="start" x="843.892" y="-263.9" font-family="Arial" font-size="14.00" fill="#666666">[integer]</text>
<polygon fill="none" stroke="#000000" points="777,-222.5 777,-252.5 1053,-252.5 1053,-222.5 777,-222.5"/>
<text text-anchor="start" x="784" y="-233.9" font-family="Arial" font-size="14.00" fill="#000000">write_date </text>
<text text-anchor="start" x="852.4586" y="-233.9" font-family="Arial" font-size="14.00" fill="#666666">[timestamp without time zone]</text>
<polygon fill="none" stroke="#000000" points="777,-192.5 777,-222.5 1053,-222.5 1053,-192.5 777,-192.5"/>
<text text-anchor="start" x="784" y="-203.9" font-family="Arial" font-size="14.00" fill="#000000">key </text>
<text text-anchor="start" x="809.6732" y="-203.9" font-family="Arial" font-size="14.00" fill="#666666">[varchar]</text>
<polygon fill="none" stroke="#000000" points="777,-162.5 777,-192.5 1053,-192.5 1053,-162.5 777,-162.5"/>
<text text-anchor="start" x="784" y="-173.9" font-family="Arial" font-size="14.00" fill="#000000">website_id </text>
<text text-anchor="start" x="854.014" y="-173.9" font-family="Arial" font-size="14.00" fill="#666666">[integer]</text>
<polygon fill="none" stroke="#000000" points="777,-132.5 777,-162.5 1053,-162.5 1053,-132.5 777,-132.5"/>
<text text-anchor="start" x="784" y="-143.9" font-family="Arial" font-size="14.00" fill="#000000">theme_template_id </text>
<text text-anchor="start" x="906.9228" y="-143.9" font-family="Arial" font-size="14.00" fill="#666666">[integer]</text>
</g>
<!-- public.mail_compose_message_ir_attachments_rel&#45;&gt;public.ir_attachment -->
<g id="edge2" class="edge">
<title>public.mail_compose_message_ir_attachments_rel:attachment_id&#45;&gt;public.ir_attachment:id</title>
<path fill="none" stroke="#000000" d="M972.7517,-1234.9984C985.4648,-1226.3341 973.6311,-1197.0425 963,-1177 916.2119,-1088.792 823.7881,-1139.208 777,-1051 757.5275,-1014.2892 735.4444,-957.5 777,-957.5"/>
<polygon fill="#000000" stroke="#000000" points="972.6864,-1235.0151 961.8818,-1233.1411 967.8432,-1236.2575 963,-1237.5 963,-1237.5 963,-1237.5 967.8432,-1236.2575 964.1182,-1241.8589 972.6864,-1235.0151 972.6864,-1235.0151"/>
<text text-anchor="start" x="969.986" y="-1247.5" font-family="Arial" font-size="10.00" fill="#000000">FOREIGN KEY (attachment_id) REFERENCES ir_attachment(id) ON DELETE CASCADE</text>
</g>
</g>
</svg>
