<?xml version="1.0" encoding="UTF-8" standalone="no"?>
<!DOCTYPE svg PUBLIC "-//W3C//DTD SVG 1.1//EN"
 "http://www.w3.org/Graphics/SVG/1.1/DTD/svg11.dtd">
<!-- Generated by graphviz version 2.40.1 (20161225.0304)
 -->
<!-- Title: public.change_password_wizard Pages: 1 -->
<svg width="1198pt" height="1529pt"
 viewBox="0.00 0.00 1198.00 1529.00" xmlns="http://www.w3.org/2000/svg" xmlns:xlink="http://www.w3.org/1999/xlink">
<g id="graph0" class="graph" transform="scale(1 1) rotate(0) translate(4 1525)">
<title>public.change_password_wizard</title>
<polygon fill="#ffffff" stroke="transparent" points="-4,4 -4,-1525 1194,-1525 1194,4 -4,4"/>
<!-- public.change_password_wizard -->
<g id="node1" class="node">
<title>public.change_password_wizard</title>
<polygon fill="#efefef" stroke="transparent" points="439,-1012.5 439,-1047.5 810,-1047.5 810,-1012.5 439,-1012.5"/>
<polygon fill="none" stroke="#000000" points="439,-1012.5 439,-1047.5 810,-1047.5 810,-1012.5 439,-1012.5"/>
<text text-anchor="start" x="445.8447" y="-1025.3" font-family="Arial Bold" font-size="18.00" fill="#000000">public.change_password_wizard</text>
<text text-anchor="start" x="705.9015" y="-1025.3" font-family="Arial" font-size="14.00" fill="#000000"> </text>
<text text-anchor="start" x="709.7921" y="-1025.3" font-family="Arial" font-size="14.00" fill="#666666">[BASE TABLE]</text>
<polygon fill="none" stroke="#000000" points="439,-982.5 439,-1012.5 810,-1012.5 810,-982.5 439,-982.5"/>
<text text-anchor="start" x="446" y="-993.9" font-family="Arial" font-size="14.00" fill="#000000">id </text>
<text text-anchor="start" x="460.7798" y="-993.9" font-family="Arial" font-size="14.00" fill="#666666">[integer]</text>
<polygon fill="none" stroke="#000000" points="439,-952.5 439,-982.5 810,-982.5 810,-952.5 439,-952.5"/>
<text text-anchor="start" x="446" y="-963.9" font-family="Arial" font-size="14.00" fill="#000000">create_uid </text>
<text text-anchor="start" x="515.244" y="-963.9" font-family="Arial" font-size="14.00" fill="#666666">[integer]</text>
<polygon fill="none" stroke="#000000" points="439,-922.5 439,-952.5 810,-952.5 810,-922.5 439,-922.5"/>
<text text-anchor="start" x="446" y="-933.9" font-family="Arial" font-size="14.00" fill="#000000">create_date </text>
<text text-anchor="start" x="523.8106" y="-933.9" font-family="Arial" font-size="14.00" fill="#666666">[timestamp without time zone]</text>
<polygon fill="none" stroke="#000000" points="439,-892.5 439,-922.5 810,-922.5 810,-892.5 439,-892.5"/>
<text text-anchor="start" x="446" y="-903.9" font-family="Arial" font-size="14.00" fill="#000000">write_uid </text>
<text text-anchor="start" x="505.892" y="-903.9" font-family="Arial" font-size="14.00" fill="#666666">[integer]</text>
<polygon fill="none" stroke="#000000" points="439,-862.5 439,-892.5 810,-892.5 810,-862.5 439,-862.5"/>
<text text-anchor="start" x="446" y="-873.9" font-family="Arial" font-size="14.00" fill="#000000">write_date </text>
<text text-anchor="start" x="514.4586" y="-873.9" font-family="Arial" font-size="14.00" fill="#666666">[timestamp without time zone]</text>
<polygon fill="none" stroke="#000000" stroke-width="3" points="437,-861.5 437,-1049.5 811,-1049.5 811,-861.5 437,-861.5"/>
</g>
<!-- public.res_users -->
<g id="node3" class="node">
<title>public.res_users</title>
<polygon fill="#efefef" stroke="transparent" points="487,-702.5 487,-737.5 763,-737.5 763,-702.5 487,-702.5"/>
<polygon fill="none" stroke="#000000" points="487,-702.5 487,-737.5 763,-737.5 763,-702.5 487,-702.5"/>
<text text-anchor="start" x="510.8639" y="-715.3" font-family="Arial Bold" font-size="18.00" fill="#000000">public.res_users</text>
<text text-anchor="start" x="641.8823" y="-715.3" font-family="Arial" font-size="14.00" fill="#000000"> </text>
<text text-anchor="start" x="645.7729" y="-715.3" font-family="Arial" font-size="14.00" fill="#666666">[BASE TABLE]</text>
<polygon fill="none" stroke="#000000" points="487,-672.5 487,-702.5 763,-702.5 763,-672.5 487,-672.5"/>
<text text-anchor="start" x="494" y="-683.9" font-family="Arial" font-size="14.00" fill="#000000">id </text>
<text text-anchor="start" x="508.7798" y="-683.9" font-family="Arial" font-size="14.00" fill="#666666">[integer]</text>
<polygon fill="none" stroke="#000000" points="487,-642.5 487,-672.5 763,-672.5 763,-642.5 487,-642.5"/>
<text text-anchor="start" x="494" y="-653.9" font-family="Arial" font-size="14.00" fill="#000000">active </text>
<text text-anchor="start" x="534.453" y="-653.9" font-family="Arial" font-size="14.00" fill="#666666">[boolean]</text>
<polygon fill="none" stroke="#000000" points="487,-612.5 487,-642.5 763,-642.5 763,-612.5 487,-612.5"/>
<text text-anchor="start" x="494" y="-623.9" font-family="Arial" font-size="14.00" fill="#000000">login </text>
<text text-anchor="start" x="527.4516" y="-623.9" font-family="Arial" font-size="14.00" fill="#666666">[varchar]</text>
<polygon fill="none" stroke="#000000" points="487,-582.5 487,-612.5 763,-612.5 763,-582.5 487,-582.5"/>
<text text-anchor="start" x="494" y="-593.9" font-family="Arial" font-size="14.00" fill="#000000">password </text>
<text text-anchor="start" x="557.7882" y="-593.9" font-family="Arial" font-size="14.00" fill="#666666">[varchar]</text>
<polygon fill="none" stroke="#000000" points="487,-552.5 487,-582.5 763,-582.5 763,-552.5 487,-552.5"/>
<text text-anchor="start" x="494" y="-563.9" font-family="Arial" font-size="14.00" fill="#000000">company_id </text>
<text text-anchor="start" x="573.3534" y="-563.9" font-family="Arial" font-size="14.00" fill="#666666">[integer]</text>
<polygon fill="none" stroke="#000000" points="487,-522.5 487,-552.5 763,-552.5 763,-522.5 487,-522.5"/>
<text text-anchor="start" x="494" y="-533.9" font-family="Arial" font-size="14.00" fill="#000000">partner_id </text>
<text text-anchor="start" x="560.9046" y="-533.9" font-family="Arial" font-size="14.00" fill="#666666">[integer]</text>
<polygon fill="none" stroke="#000000" points="487,-492.5 487,-522.5 763,-522.5 763,-492.5 487,-492.5"/>
<text text-anchor="start" x="493.5246" y="-503.9" font-family="Arial" font-size="14.00" fill="#000000">create_date </text>
<text text-anchor="start" x="571.3352" y="-503.9" font-family="Arial" font-size="14.00" fill="#666666">[timestamp without time zone]</text>
<polygon fill="none" stroke="#000000" points="487,-462.5 487,-492.5 763,-492.5 763,-462.5 487,-462.5"/>
<text text-anchor="start" x="494" y="-473.9" font-family="Arial" font-size="14.00" fill="#000000">signature </text>
<text text-anchor="start" x="555.4614" y="-473.9" font-family="Arial" font-size="14.00" fill="#666666">[text]</text>
<polygon fill="none" stroke="#000000" points="487,-432.5 487,-462.5 763,-462.5 763,-432.5 487,-432.5"/>
<text text-anchor="start" x="494" y="-443.9" font-family="Arial" font-size="14.00" fill="#000000">action_id </text>
<text text-anchor="start" x="553.9074" y="-443.9" font-family="Arial" font-size="14.00" fill="#666666">[integer]</text>
<polygon fill="none" stroke="#000000" points="487,-402.5 487,-432.5 763,-432.5 763,-402.5 487,-402.5"/>
<text text-anchor="start" x="494" y="-413.9" font-family="Arial" font-size="14.00" fill="#000000">share </text>
<text text-anchor="start" x="532.899" y="-413.9" font-family="Arial" font-size="14.00" fill="#666666">[boolean]</text>
<polygon fill="none" stroke="#000000" points="487,-372.5 487,-402.5 763,-402.5 763,-372.5 487,-372.5"/>
<text text-anchor="start" x="494" y="-383.9" font-family="Arial" font-size="14.00" fill="#000000">create_uid </text>
<text text-anchor="start" x="563.244" y="-383.9" font-family="Arial" font-size="14.00" fill="#666666">[integer]</text>
<polygon fill="none" stroke="#000000" points="487,-342.5 487,-372.5 763,-372.5 763,-342.5 487,-342.5"/>
<text text-anchor="start" x="494" y="-353.9" font-family="Arial" font-size="14.00" fill="#000000">write_uid </text>
<text text-anchor="start" x="553.892" y="-353.9" font-family="Arial" font-size="14.00" fill="#666666">[integer]</text>
<polygon fill="none" stroke="#000000" points="487,-312.5 487,-342.5 763,-342.5 763,-312.5 487,-312.5"/>
<text text-anchor="start" x="494" y="-323.9" font-family="Arial" font-size="14.00" fill="#000000">write_date </text>
<text text-anchor="start" x="562.4586" y="-323.9" font-family="Arial" font-size="14.00" fill="#666666">[timestamp without time zone]</text>
<polygon fill="none" stroke="#000000" points="487,-282.5 487,-312.5 763,-312.5 763,-282.5 487,-282.5"/>
<text text-anchor="start" x="494" y="-293.9" font-family="Arial" font-size="14.00" fill="#000000">alias_id </text>
<text text-anchor="start" x="545.3408" y="-293.9" font-family="Arial" font-size="14.00" fill="#666666">[integer]</text>
<polygon fill="none" stroke="#000000" points="487,-252.5 487,-282.5 763,-282.5 763,-252.5 487,-252.5"/>
<text text-anchor="start" x="494" y="-263.9" font-family="Arial" font-size="14.00" fill="#000000">notification_type </text>
<text text-anchor="start" x="599.0336" y="-263.9" font-family="Arial" font-size="14.00" fill="#666666">[varchar]</text>
<polygon fill="none" stroke="#000000" points="487,-222.5 487,-252.5 763,-252.5 763,-222.5 487,-222.5"/>
<text text-anchor="start" x="494" y="-233.9" font-family="Arial" font-size="14.00" fill="#000000">odoobot_state </text>
<text text-anchor="start" x="586.6058" y="-233.9" font-family="Arial" font-size="14.00" fill="#666666">[varchar]</text>
<polygon fill="none" stroke="#000000" points="487,-192.5 487,-222.5 763,-222.5 763,-192.5 487,-192.5"/>
<text text-anchor="start" x="494" y="-203.9" font-family="Arial" font-size="14.00" fill="#000000">sale_team_id </text>
<text text-anchor="start" x="581.1332" y="-203.9" font-family="Arial" font-size="14.00" fill="#666666">[integer]</text>
<polygon fill="none" stroke="#000000" points="487,-162.5 487,-192.5 763,-192.5 763,-162.5 487,-162.5"/>
<text text-anchor="start" x="494" y="-173.9" font-family="Arial" font-size="14.00" fill="#000000">target_sales_won </text>
<text text-anchor="start" x="607.589" y="-173.9" font-family="Arial" font-size="14.00" fill="#666666">[integer]</text>
<polygon fill="none" stroke="#000000" points="487,-132.5 487,-162.5 763,-162.5 763,-132.5 487,-132.5"/>
<text text-anchor="start" x="494" y="-143.9" font-family="Arial" font-size="14.00" fill="#000000">target_sales_done </text>
<text text-anchor="start" x="613.0476" y="-143.9" font-family="Arial" font-size="14.00" fill="#666666">[integer]</text>
<polygon fill="none" stroke="#000000" points="487,-102.5 487,-132.5 763,-132.5 763,-102.5 487,-102.5"/>
<text text-anchor="start" x="494" y="-113.9" font-family="Arial" font-size="14.00" fill="#000000">website_id </text>
<text text-anchor="start" x="564.014" y="-113.9" font-family="Arial" font-size="14.00" fill="#666666">[integer]</text>
<polygon fill="none" stroke="#000000" points="487,-72.5 487,-102.5 763,-102.5 763,-72.5 487,-72.5"/>
<text text-anchor="start" x="494" y="-83.9" font-family="Arial" font-size="14.00" fill="#000000">target_sales_invoiced </text>
<text text-anchor="start" x="633.2608" y="-83.9" font-family="Arial" font-size="14.00" fill="#666666">[integer]</text>
<polygon fill="none" stroke="#000000" points="487,-42.5 487,-72.5 763,-72.5 763,-42.5 487,-42.5"/>
<text text-anchor="start" x="494" y="-53.9" font-family="Arial" font-size="14.00" fill="#000000">pos_security_pin </text>
<text text-anchor="start" x="602.9158" y="-53.9" font-family="Arial" font-size="14.00" fill="#666666">[varchar(32)]</text>
</g>
<!-- public.change_password_wizard&#45;&gt;public.res_users -->
<g id="edge2" class="edge">
<title>public.change_password_wizard:create_uid&#45;&gt;public.res_users:id</title>
<path fill="none" stroke="#000000" d="M820.1848,-966.6217C874.3844,-956.6432 852.162,-864.1223 810,-817 713.6852,-709.354 583.3148,-888.646 487,-781 459.291,-750.0311 445.4444,-687.5 487,-687.5"/>
<polygon fill="#000000" stroke="#000000" points="819.963,-966.6407 809.6133,-963.0166 814.9815,-967.0704 810,-967.5 810,-967.5 810,-967.5 814.9815,-967.0704 810.3867,-971.9834 819.963,-966.6407 819.963,-966.6407"/>
<text text-anchor="start" x="816.657" y="-977.5" font-family="Arial" font-size="10.00" fill="#000000">FOREIGN KEY (create_uid) REFERENCES res_users(id) ON DELETE SET NULL</text>
</g>
<!-- public.change_password_wizard&#45;&gt;public.res_users -->
<g id="edge3" class="edge">
<title>public.change_password_wizard:write_uid&#45;&gt;public.res_users:id</title>
<path fill="none" stroke="#000000" d="M819.9317,-905.9792C847.5914,-896.4201 834.3056,-844.1651 810,-817 713.6852,-709.354 583.3148,-888.646 487,-781 459.291,-750.0311 445.4444,-687.5 487,-687.5"/>
<polygon fill="#000000" stroke="#000000" points="819.8848,-905.9863 809.3188,-903.0518 814.9424,-906.7431 810,-907.5 810,-907.5 810,-907.5 814.9424,-906.7431 810.6812,-911.9482 819.8848,-905.9863 819.8848,-905.9863"/>
<text text-anchor="start" x="816.997" y="-917.5" font-family="Arial" font-size="10.00" fill="#000000">FOREIGN KEY (write_uid) REFERENCES res_users(id) ON DELETE SET NULL</text>
</g>
<!-- public.change_password_user -->
<g id="node2" class="node">
<title>public.change_password_user</title>
<polygon fill="#efefef" stroke="transparent" points="448,-1442.5 448,-1477.5 802,-1477.5 802,-1442.5 448,-1442.5"/>
<polygon fill="none" stroke="#000000" points="448,-1442.5 448,-1477.5 802,-1477.5 802,-1442.5 448,-1442.5"/>
<text text-anchor="start" x="454.8389" y="-1455.3" font-family="Arial Bold" font-size="18.00" fill="#000000">public.change_password_user</text>
<text text-anchor="start" x="697.9073" y="-1455.3" font-family="Arial" font-size="14.00" fill="#000000"> </text>
<text text-anchor="start" x="701.7979" y="-1455.3" font-family="Arial" font-size="14.00" fill="#666666">[BASE TABLE]</text>
<polygon fill="none" stroke="#000000" points="448,-1412.5 448,-1442.5 802,-1442.5 802,-1412.5 448,-1412.5"/>
<text text-anchor="start" x="455" y="-1423.9" font-family="Arial" font-size="14.00" fill="#000000">id </text>
<text text-anchor="start" x="469.7798" y="-1423.9" font-family="Arial" font-size="14.00" fill="#666666">[integer]</text>
<polygon fill="none" stroke="#000000" points="448,-1382.5 448,-1412.5 802,-1412.5 802,-1382.5 448,-1382.5"/>
<text text-anchor="start" x="455" y="-1393.9" font-family="Arial" font-size="14.00" fill="#000000">wizard_id </text>
<text text-anchor="start" x="518.0014" y="-1393.9" font-family="Arial" font-size="14.00" fill="#666666">[integer]</text>
<polygon fill="none" stroke="#000000" points="448,-1352.5 448,-1382.5 802,-1382.5 802,-1352.5 448,-1352.5"/>
<text text-anchor="start" x="455" y="-1363.9" font-family="Arial" font-size="14.00" fill="#000000">user_id </text>
<text text-anchor="start" x="504.7882" y="-1363.9" font-family="Arial" font-size="14.00" fill="#666666">[integer]</text>
<polygon fill="none" stroke="#000000" points="448,-1322.5 448,-1352.5 802,-1352.5 802,-1322.5 448,-1322.5"/>
<text text-anchor="start" x="455" y="-1333.9" font-family="Arial" font-size="14.00" fill="#000000">user_login </text>
<text text-anchor="start" x="523.46" y="-1333.9" font-family="Arial" font-size="14.00" fill="#666666">[varchar]</text>
<polygon fill="none" stroke="#000000" points="448,-1292.5 448,-1322.5 802,-1322.5 802,-1292.5 448,-1292.5"/>
<text text-anchor="start" x="455" y="-1303.9" font-family="Arial" font-size="14.00" fill="#000000">new_passwd </text>
<text text-anchor="start" x="539.7994" y="-1303.9" font-family="Arial" font-size="14.00" fill="#666666">[varchar]</text>
<polygon fill="none" stroke="#000000" points="448,-1262.5 448,-1292.5 802,-1292.5 802,-1262.5 448,-1262.5"/>
<text text-anchor="start" x="455" y="-1273.9" font-family="Arial" font-size="14.00" fill="#000000">create_uid </text>
<text text-anchor="start" x="524.244" y="-1273.9" font-family="Arial" font-size="14.00" fill="#666666">[integer]</text>
<polygon fill="none" stroke="#000000" points="448,-1232.5 448,-1262.5 802,-1262.5 802,-1232.5 448,-1232.5"/>
<text text-anchor="start" x="455" y="-1243.9" font-family="Arial" font-size="14.00" fill="#000000">create_date </text>
<text text-anchor="start" x="532.8106" y="-1243.9" font-family="Arial" font-size="14.00" fill="#666666">[timestamp without time zone]</text>
<polygon fill="none" stroke="#000000" points="448,-1202.5 448,-1232.5 802,-1232.5 802,-1202.5 448,-1202.5"/>
<text text-anchor="start" x="455" y="-1213.9" font-family="Arial" font-size="14.00" fill="#000000">write_uid </text>
<text text-anchor="start" x="514.892" y="-1213.9" font-family="Arial" font-size="14.00" fill="#666666">[integer]</text>
<polygon fill="none" stroke="#000000" points="448,-1172.5 448,-1202.5 802,-1202.5 802,-1172.5 448,-1172.5"/>
<text text-anchor="start" x="455" y="-1183.9" font-family="Arial" font-size="14.00" fill="#000000">write_date </text>
<text text-anchor="start" x="523.4586" y="-1183.9" font-family="Arial" font-size="14.00" fill="#666666">[timestamp without time zone]</text>
</g>
<!-- public.change_password_user&#45;&gt;public.change_password_wizard -->
<g id="edge1" class="edge">
<title>public.change_password_user:wizard_id&#45;&gt;public.change_password_wizard:id</title>
<path fill="none" stroke="#000000" d="M437.9546,-1397.0449C331.4365,-1387.0683 370.5387,-1215.5468 448,-1130 502.2613,-1070.0749 755.7387,-1153.9251 810,-1094 838.7874,-1062.2078 852.8889,-997.5 810,-997.5"/>
<polygon fill="#000000" stroke="#000000" points="438.0102,-1397.0474 447.7963,-1401.9954 443.0051,-1397.2737 448,-1397.5 448,-1397.5 448,-1397.5 443.0051,-1397.2737 448.2037,-1393.0046 438.0102,-1397.0474 438.0102,-1397.0474"/>
<text text-anchor="start" x="6.767" y="-1407.5" font-family="Arial" font-size="10.00" fill="#000000">FOREIGN KEY (wizard_id) REFERENCES change_password_wizard(id) ON DELETE CASCADE</text>
</g>
</g>
</svg>
