<?xml version="1.0" encoding="UTF-8" standalone="no"?>
<!DOCTYPE svg PUBLIC "-//W3C//DTD SVG 1.1//EN"
 "http://www.w3.org/Graphics/SVG/1.1/DTD/svg11.dtd">
<!-- Generated by graphviz version 2.40.1 (20161225.0304)
 -->
<!-- Title: public.sale_order_template_option Pages: 1 -->
<svg width="1591pt" height="1312pt"
 viewBox="0.00 0.00 1590.50 1312.00" xmlns="http://www.w3.org/2000/svg" xmlns:xlink="http://www.w3.org/1999/xlink">
<g id="graph0" class="graph" transform="scale(1 1) rotate(0) translate(4 1308)">
<title>public.sale_order_template_option</title>
<polygon fill="#ffffff" stroke="transparent" points="-4,4 -4,-1308 1586.5,-1308 1586.5,4 -4,4"/>
<!-- public.sale_order_template_option -->
<g id="node1" class="node">
<title>public.sale_order_template_option</title>
<polygon fill="#efefef" stroke="transparent" points="816.5,-1222.5 816.5,-1257.5 1202.5,-1257.5 1202.5,-1222.5 816.5,-1222.5"/>
<polygon fill="none" stroke="#000000" points="816.5,-1222.5 816.5,-1257.5 1202.5,-1257.5 1202.5,-1222.5 816.5,-1222.5"/>
<text text-anchor="start" x="823.336" y="-1235.3" font-family="Arial Bold" font-size="18.00" fill="#000000">public.sale_order_template_option</text>
<text text-anchor="start" x="1098.4102" y="-1235.3" font-family="Arial" font-size="14.00" fill="#000000"> </text>
<text text-anchor="start" x="1102.3008" y="-1235.3" font-family="Arial" font-size="14.00" fill="#666666">[BASE TABLE]</text>
<polygon fill="none" stroke="#000000" points="816.5,-1192.5 816.5,-1222.5 1202.5,-1222.5 1202.5,-1192.5 816.5,-1192.5"/>
<text text-anchor="start" x="823.5" y="-1203.9" font-family="Arial" font-size="14.00" fill="#000000">id </text>
<text text-anchor="start" x="838.2798" y="-1203.9" font-family="Arial" font-size="14.00" fill="#666666">[integer]</text>
<polygon fill="none" stroke="#000000" points="816.5,-1162.5 816.5,-1192.5 1202.5,-1192.5 1202.5,-1162.5 816.5,-1162.5"/>
<text text-anchor="start" x="823.5" y="-1173.9" font-family="Arial" font-size="14.00" fill="#000000">sale_order_template_id </text>
<text text-anchor="start" x="973.6472" y="-1173.9" font-family="Arial" font-size="14.00" fill="#666666">[integer]</text>
<polygon fill="none" stroke="#000000" points="816.5,-1132.5 816.5,-1162.5 1202.5,-1162.5 1202.5,-1132.5 816.5,-1132.5"/>
<text text-anchor="start" x="823.5" y="-1143.9" font-family="Arial" font-size="14.00" fill="#000000">name </text>
<text text-anchor="start" x="862.399" y="-1143.9" font-family="Arial" font-size="14.00" fill="#666666">[text]</text>
<polygon fill="none" stroke="#000000" points="816.5,-1102.5 816.5,-1132.5 1202.5,-1132.5 1202.5,-1102.5 816.5,-1102.5"/>
<text text-anchor="start" x="823.5" y="-1113.9" font-family="Arial" font-size="14.00" fill="#000000">product_id </text>
<text text-anchor="start" x="892.744" y="-1113.9" font-family="Arial" font-size="14.00" fill="#666666">[integer]</text>
<polygon fill="none" stroke="#000000" points="816.5,-1072.5 816.5,-1102.5 1202.5,-1102.5 1202.5,-1072.5 816.5,-1072.5"/>
<text text-anchor="start" x="823.5" y="-1083.9" font-family="Arial" font-size="14.00" fill="#000000">price_unit </text>
<text text-anchor="start" x="888.068" y="-1083.9" font-family="Arial" font-size="14.00" fill="#666666">[numeric]</text>
<polygon fill="none" stroke="#000000" points="816.5,-1042.5 816.5,-1072.5 1202.5,-1072.5 1202.5,-1042.5 816.5,-1042.5"/>
<text text-anchor="start" x="823.5" y="-1053.9" font-family="Arial" font-size="14.00" fill="#000000">discount </text>
<text text-anchor="start" x="879.5182" y="-1053.9" font-family="Arial" font-size="14.00" fill="#666666">[numeric]</text>
<polygon fill="none" stroke="#000000" points="816.5,-1012.5 816.5,-1042.5 1202.5,-1042.5 1202.5,-1012.5 816.5,-1012.5"/>
<text text-anchor="start" x="823.5" y="-1023.9" font-family="Arial" font-size="14.00" fill="#000000">uom_id </text>
<text text-anchor="start" x="873.2882" y="-1023.9" font-family="Arial" font-size="14.00" fill="#666666">[integer]</text>
<polygon fill="none" stroke="#000000" points="816.5,-982.5 816.5,-1012.5 1202.5,-1012.5 1202.5,-982.5 816.5,-982.5"/>
<text text-anchor="start" x="823.5" y="-993.9" font-family="Arial" font-size="14.00" fill="#000000">quantity </text>
<text text-anchor="start" x="876.4088" y="-993.9" font-family="Arial" font-size="14.00" fill="#666666">[numeric]</text>
<polygon fill="none" stroke="#000000" points="816.5,-952.5 816.5,-982.5 1202.5,-982.5 1202.5,-952.5 816.5,-952.5"/>
<text text-anchor="start" x="823.5" y="-963.9" font-family="Arial" font-size="14.00" fill="#000000">create_uid </text>
<text text-anchor="start" x="892.744" y="-963.9" font-family="Arial" font-size="14.00" fill="#666666">[integer]</text>
<polygon fill="none" stroke="#000000" points="816.5,-922.5 816.5,-952.5 1202.5,-952.5 1202.5,-922.5 816.5,-922.5"/>
<text text-anchor="start" x="823.5" y="-933.9" font-family="Arial" font-size="14.00" fill="#000000">create_date </text>
<text text-anchor="start" x="901.3106" y="-933.9" font-family="Arial" font-size="14.00" fill="#666666">[timestamp without time zone]</text>
<polygon fill="none" stroke="#000000" points="816.5,-892.5 816.5,-922.5 1202.5,-922.5 1202.5,-892.5 816.5,-892.5"/>
<text text-anchor="start" x="823.5" y="-903.9" font-family="Arial" font-size="14.00" fill="#000000">write_uid </text>
<text text-anchor="start" x="883.392" y="-903.9" font-family="Arial" font-size="14.00" fill="#666666">[integer]</text>
<polygon fill="none" stroke="#000000" points="816.5,-862.5 816.5,-892.5 1202.5,-892.5 1202.5,-862.5 816.5,-862.5"/>
<text text-anchor="start" x="823.5" y="-873.9" font-family="Arial" font-size="14.00" fill="#000000">write_date </text>
<text text-anchor="start" x="891.9586" y="-873.9" font-family="Arial" font-size="14.00" fill="#666666">[timestamp without time zone]</text>
<polygon fill="none" stroke="#000000" stroke-width="3" points="815,-861.5 815,-1259.5 1204,-1259.5 1204,-861.5 815,-861.5"/>
</g>
<!-- public.sale_order_template -->
<g id="node2" class="node">
<title>public.sale_order_template</title>
<polygon fill="#efefef" stroke="transparent" points="43.5,-552.5 43.5,-587.5 370.5,-587.5 370.5,-552.5 43.5,-552.5"/>
<polygon fill="none" stroke="#000000" points="43.5,-552.5 43.5,-587.5 370.5,-587.5 370.5,-552.5 43.5,-552.5"/>
<text text-anchor="start" x="50.3497" y="-565.3" font-family="Arial Bold" font-size="18.00" fill="#000000">public.sale_order_template</text>
<text text-anchor="start" x="266.3965" y="-565.3" font-family="Arial" font-size="14.00" fill="#000000"> </text>
<text text-anchor="start" x="270.2871" y="-565.3" font-family="Arial" font-size="14.00" fill="#666666">[BASE TABLE]</text>
<polygon fill="none" stroke="#000000" points="43.5,-522.5 43.5,-552.5 370.5,-552.5 370.5,-522.5 43.5,-522.5"/>
<text text-anchor="start" x="50.5" y="-533.9" font-family="Arial" font-size="14.00" fill="#000000">id </text>
<text text-anchor="start" x="65.2798" y="-533.9" font-family="Arial" font-size="14.00" fill="#666666">[integer]</text>
<polygon fill="none" stroke="#000000" points="43.5,-492.5 43.5,-522.5 370.5,-522.5 370.5,-492.5 43.5,-492.5"/>
<text text-anchor="start" x="50.5" y="-503.9" font-family="Arial" font-size="14.00" fill="#000000">name </text>
<text text-anchor="start" x="89.399" y="-503.9" font-family="Arial" font-size="14.00" fill="#666666">[varchar]</text>
<polygon fill="none" stroke="#000000" points="43.5,-462.5 43.5,-492.5 370.5,-492.5 370.5,-462.5 43.5,-462.5"/>
<text text-anchor="start" x="50.5" y="-473.9" font-family="Arial" font-size="14.00" fill="#000000">note </text>
<text text-anchor="start" x="81.629" y="-473.9" font-family="Arial" font-size="14.00" fill="#666666">[text]</text>
<polygon fill="none" stroke="#000000" points="43.5,-432.5 43.5,-462.5 370.5,-462.5 370.5,-432.5 43.5,-432.5"/>
<text text-anchor="start" x="50.5" y="-443.9" font-family="Arial" font-size="14.00" fill="#000000">number_of_days </text>
<text text-anchor="start" x="158.6458" y="-443.9" font-family="Arial" font-size="14.00" fill="#666666">[integer]</text>
<polygon fill="none" stroke="#000000" points="43.5,-402.5 43.5,-432.5 370.5,-432.5 370.5,-402.5 43.5,-402.5"/>
<text text-anchor="start" x="50.5" y="-413.9" font-family="Arial" font-size="14.00" fill="#000000">require_signature </text>
<text text-anchor="start" x="163.3022" y="-413.9" font-family="Arial" font-size="14.00" fill="#666666">[boolean]</text>
<polygon fill="none" stroke="#000000" points="43.5,-372.5 43.5,-402.5 370.5,-402.5 370.5,-372.5 43.5,-372.5"/>
<text text-anchor="start" x="50.5" y="-383.9" font-family="Arial" font-size="14.00" fill="#000000">require_payment </text>
<text text-anchor="start" x="159.413" y="-383.9" font-family="Arial" font-size="14.00" fill="#666666">[boolean]</text>
<polygon fill="none" stroke="#000000" points="43.5,-342.5 43.5,-372.5 370.5,-372.5 370.5,-342.5 43.5,-342.5"/>
<text text-anchor="start" x="50.5" y="-353.9" font-family="Arial" font-size="14.00" fill="#000000">mail_template_id </text>
<text text-anchor="start" x="160.1802" y="-353.9" font-family="Arial" font-size="14.00" fill="#666666">[integer]</text>
<polygon fill="none" stroke="#000000" points="43.5,-312.5 43.5,-342.5 370.5,-342.5 370.5,-312.5 43.5,-312.5"/>
<text text-anchor="start" x="50.5" y="-323.9" font-family="Arial" font-size="14.00" fill="#000000">active </text>
<text text-anchor="start" x="90.953" y="-323.9" font-family="Arial" font-size="14.00" fill="#666666">[boolean]</text>
<polygon fill="none" stroke="#000000" points="43.5,-282.5 43.5,-312.5 370.5,-312.5 370.5,-282.5 43.5,-282.5"/>
<text text-anchor="start" x="50.5" y="-293.9" font-family="Arial" font-size="14.00" fill="#000000">create_uid </text>
<text text-anchor="start" x="119.744" y="-293.9" font-family="Arial" font-size="14.00" fill="#666666">[integer]</text>
<polygon fill="none" stroke="#000000" points="43.5,-252.5 43.5,-282.5 370.5,-282.5 370.5,-252.5 43.5,-252.5"/>
<text text-anchor="start" x="50.5" y="-263.9" font-family="Arial" font-size="14.00" fill="#000000">create_date </text>
<text text-anchor="start" x="128.3106" y="-263.9" font-family="Arial" font-size="14.00" fill="#666666">[timestamp without time zone]</text>
<polygon fill="none" stroke="#000000" points="43.5,-222.5 43.5,-252.5 370.5,-252.5 370.5,-222.5 43.5,-222.5"/>
<text text-anchor="start" x="50.5" y="-233.9" font-family="Arial" font-size="14.00" fill="#000000">write_uid </text>
<text text-anchor="start" x="110.392" y="-233.9" font-family="Arial" font-size="14.00" fill="#666666">[integer]</text>
<polygon fill="none" stroke="#000000" points="43.5,-192.5 43.5,-222.5 370.5,-222.5 370.5,-192.5 43.5,-192.5"/>
<text text-anchor="start" x="50.5" y="-203.9" font-family="Arial" font-size="14.00" fill="#000000">write_date </text>
<text text-anchor="start" x="118.9586" y="-203.9" font-family="Arial" font-size="14.00" fill="#666666">[timestamp without time zone]</text>
</g>
<!-- public.sale_order_template_option&#45;&gt;public.sale_order_template -->
<g id="edge1" class="edge">
<title>public.sale_order_template_option:sale_order_template_id&#45;&gt;public.sale_order_template:id</title>
<path fill="none" stroke="#000000" d="M806.4205,-1177.4008C566.97,-1172.6358 538.0423,-996.8972 421.5,-781 368.9773,-683.7005 481.0705,-537.5 370.5,-537.5"/>
<polygon fill="#000000" stroke="#000000" points="806.5005,-1177.4014 816.4556,-1181.9998 811.5002,-1177.4507 816.5,-1177.5 816.5,-1177.5 816.5,-1177.5 811.5002,-1177.4507 816.5444,-1173.0002 806.5005,-1177.4014 806.5005,-1177.4014"/>
<text text-anchor="start" x="337.3685" y="-1187.5" font-family="Arial" font-size="10.00" fill="#000000">FOREIGN KEY (sale_order_template_id) REFERENCES sale_order_template(id) ON DELETE CASCADE</text>
</g>
<!-- public.product_product -->
<g id="node3" class="node">
<title>public.product_product</title>
<polygon fill="#efefef" stroke="transparent" points="474.5,-552.5 474.5,-587.5 767.5,-587.5 767.5,-552.5 474.5,-552.5"/>
<polygon fill="none" stroke="#000000" points="474.5,-552.5 474.5,-587.5 767.5,-587.5 767.5,-552.5 474.5,-552.5"/>
<text text-anchor="start" x="481.3462" y="-565.3" font-family="Arial Bold" font-size="18.00" fill="#000000">public.product_product</text>
<text text-anchor="start" x="663.4" y="-565.3" font-family="Arial" font-size="14.00" fill="#000000"> </text>
<text text-anchor="start" x="667.2906" y="-565.3" font-family="Arial" font-size="14.00" fill="#666666">[BASE TABLE]</text>
<polygon fill="none" stroke="#000000" points="474.5,-522.5 474.5,-552.5 767.5,-552.5 767.5,-522.5 474.5,-522.5"/>
<text text-anchor="start" x="481.5" y="-533.9" font-family="Arial" font-size="14.00" fill="#000000">id </text>
<text text-anchor="start" x="496.2798" y="-533.9" font-family="Arial" font-size="14.00" fill="#666666">[integer]</text>
<polygon fill="none" stroke="#000000" points="474.5,-492.5 474.5,-522.5 767.5,-522.5 767.5,-492.5 474.5,-492.5"/>
<text text-anchor="start" x="481.5" y="-503.9" font-family="Arial" font-size="14.00" fill="#000000">message_main_attachment_id </text>
<text text-anchor="start" x="675.9964" y="-503.9" font-family="Arial" font-size="14.00" fill="#666666">[integer]</text>
<polygon fill="none" stroke="#000000" points="474.5,-462.5 474.5,-492.5 767.5,-492.5 767.5,-462.5 474.5,-462.5"/>
<text text-anchor="start" x="481.5" y="-473.9" font-family="Arial" font-size="14.00" fill="#000000">default_code </text>
<text text-anchor="start" x="565.5392" y="-473.9" font-family="Arial" font-size="14.00" fill="#666666">[varchar]</text>
<polygon fill="none" stroke="#000000" points="474.5,-432.5 474.5,-462.5 767.5,-462.5 767.5,-432.5 474.5,-432.5"/>
<text text-anchor="start" x="481.5" y="-443.9" font-family="Arial" font-size="14.00" fill="#000000">active </text>
<text text-anchor="start" x="521.953" y="-443.9" font-family="Arial" font-size="14.00" fill="#666666">[boolean]</text>
<polygon fill="none" stroke="#000000" points="474.5,-402.5 474.5,-432.5 767.5,-432.5 767.5,-402.5 474.5,-402.5"/>
<text text-anchor="start" x="481.5" y="-413.9" font-family="Arial" font-size="14.00" fill="#000000">product_tmpl_id </text>
<text text-anchor="start" x="584.967" y="-413.9" font-family="Arial" font-size="14.00" fill="#666666">[integer]</text>
<polygon fill="none" stroke="#000000" points="474.5,-372.5 474.5,-402.5 767.5,-402.5 767.5,-372.5 474.5,-372.5"/>
<text text-anchor="start" x="481.5" y="-383.9" font-family="Arial" font-size="14.00" fill="#000000">barcode </text>
<text text-anchor="start" x="535.9642" y="-383.9" font-family="Arial" font-size="14.00" fill="#666666">[varchar]</text>
<polygon fill="none" stroke="#000000" points="474.5,-342.5 474.5,-372.5 767.5,-372.5 767.5,-342.5 474.5,-342.5"/>
<text text-anchor="start" x="481.5" y="-353.9" font-family="Arial" font-size="14.00" fill="#000000">volume </text>
<text text-anchor="start" x="530.5056" y="-353.9" font-family="Arial" font-size="14.00" fill="#666666">[double precision]</text>
<polygon fill="none" stroke="#000000" points="474.5,-312.5 474.5,-342.5 767.5,-342.5 767.5,-312.5 474.5,-312.5"/>
<text text-anchor="start" x="481.5" y="-323.9" font-family="Arial" font-size="14.00" fill="#000000">weight </text>
<text text-anchor="start" x="525.8422" y="-323.9" font-family="Arial" font-size="14.00" fill="#666666">[numeric]</text>
<polygon fill="none" stroke="#000000" points="474.5,-282.5 474.5,-312.5 767.5,-312.5 767.5,-282.5 474.5,-282.5"/>
<text text-anchor="start" x="481.5" y="-293.9" font-family="Arial" font-size="14.00" fill="#000000">create_uid </text>
<text text-anchor="start" x="550.744" y="-293.9" font-family="Arial" font-size="14.00" fill="#666666">[integer]</text>
<polygon fill="none" stroke="#000000" points="474.5,-252.5 474.5,-282.5 767.5,-282.5 767.5,-252.5 474.5,-252.5"/>
<text text-anchor="start" x="481.5" y="-263.9" font-family="Arial" font-size="14.00" fill="#000000">create_date </text>
<text text-anchor="start" x="559.3106" y="-263.9" font-family="Arial" font-size="14.00" fill="#666666">[timestamp without time zone]</text>
<polygon fill="none" stroke="#000000" points="474.5,-222.5 474.5,-252.5 767.5,-252.5 767.5,-222.5 474.5,-222.5"/>
<text text-anchor="start" x="481.5" y="-233.9" font-family="Arial" font-size="14.00" fill="#000000">write_uid </text>
<text text-anchor="start" x="541.392" y="-233.9" font-family="Arial" font-size="14.00" fill="#666666">[integer]</text>
<polygon fill="none" stroke="#000000" points="474.5,-192.5 474.5,-222.5 767.5,-222.5 767.5,-192.5 474.5,-192.5"/>
<text text-anchor="start" x="481.5" y="-203.9" font-family="Arial" font-size="14.00" fill="#000000">write_date </text>
<text text-anchor="start" x="549.9586" y="-203.9" font-family="Arial" font-size="14.00" fill="#666666">[timestamp without time zone]</text>
</g>
<!-- public.sale_order_template_option&#45;&gt;public.product_product -->
<g id="edge2" class="edge">
<title>public.sale_order_template_option:product_id&#45;&gt;public.product_product:id</title>
<path fill="none" stroke="#000000" d="M806.3108,-1116.1308C698.7574,-1085.1136 893.1849,-537.5 767.5,-537.5"/>
<polygon fill="#000000" stroke="#000000" points="806.5891,-1116.1681 815.9006,-1121.9599 811.5445,-1116.8341 816.5,-1117.5 816.5,-1117.5 816.5,-1117.5 811.5445,-1116.8341 817.0994,-1113.0401 806.5891,-1116.1681 806.5891,-1116.1681"/>
<text text-anchor="start" x="414.9805" y="-1127.5" font-family="Arial" font-size="10.00" fill="#000000">FOREIGN KEY (product_id) REFERENCES product_product(id) ON DELETE SET NULL</text>
</g>
<!-- public.uom_uom -->
<g id="node4" class="node">
<title>public.uom_uom</title>
<polygon fill="#efefef" stroke="transparent" points="871.5,-552.5 871.5,-587.5 1147.5,-587.5 1147.5,-552.5 871.5,-552.5"/>
<polygon fill="none" stroke="#000000" points="871.5,-552.5 871.5,-587.5 1147.5,-587.5 1147.5,-552.5 871.5,-552.5"/>
<text text-anchor="start" x="894.8608" y="-565.3" font-family="Arial Bold" font-size="18.00" fill="#000000">public.uom_uom</text>
<text text-anchor="start" x="1026.8854" y="-565.3" font-family="Arial" font-size="14.00" fill="#000000"> </text>
<text text-anchor="start" x="1030.776" y="-565.3" font-family="Arial" font-size="14.00" fill="#666666">[BASE TABLE]</text>
<polygon fill="none" stroke="#000000" points="871.5,-522.5 871.5,-552.5 1147.5,-552.5 1147.5,-522.5 871.5,-522.5"/>
<text text-anchor="start" x="878.5" y="-533.9" font-family="Arial" font-size="14.00" fill="#000000">id </text>
<text text-anchor="start" x="893.2798" y="-533.9" font-family="Arial" font-size="14.00" fill="#666666">[integer]</text>
<polygon fill="none" stroke="#000000" points="871.5,-492.5 871.5,-522.5 1147.5,-522.5 1147.5,-492.5 871.5,-492.5"/>
<text text-anchor="start" x="878.5" y="-503.9" font-family="Arial" font-size="14.00" fill="#000000">name </text>
<text text-anchor="start" x="917.399" y="-503.9" font-family="Arial" font-size="14.00" fill="#666666">[varchar]</text>
<polygon fill="none" stroke="#000000" points="871.5,-462.5 871.5,-492.5 1147.5,-492.5 1147.5,-462.5 871.5,-462.5"/>
<text text-anchor="start" x="878.5" y="-473.9" font-family="Arial" font-size="14.00" fill="#000000">category_id </text>
<text text-anchor="start" x="954.744" y="-473.9" font-family="Arial" font-size="14.00" fill="#666666">[integer]</text>
<polygon fill="none" stroke="#000000" points="871.5,-432.5 871.5,-462.5 1147.5,-462.5 1147.5,-432.5 871.5,-432.5"/>
<text text-anchor="start" x="878.5" y="-443.9" font-family="Arial" font-size="14.00" fill="#000000">factor </text>
<text text-anchor="start" x="917.3976" y="-443.9" font-family="Arial" font-size="14.00" fill="#666666">[numeric]</text>
<polygon fill="none" stroke="#000000" points="871.5,-402.5 871.5,-432.5 1147.5,-432.5 1147.5,-402.5 871.5,-402.5"/>
<text text-anchor="start" x="878.5" y="-413.9" font-family="Arial" font-size="14.00" fill="#000000">rounding </text>
<text text-anchor="start" x="936.8534" y="-413.9" font-family="Arial" font-size="14.00" fill="#666666">[numeric]</text>
<polygon fill="none" stroke="#000000" points="871.5,-372.5 871.5,-402.5 1147.5,-402.5 1147.5,-372.5 871.5,-372.5"/>
<text text-anchor="start" x="878.5" y="-383.9" font-family="Arial" font-size="14.00" fill="#000000">active </text>
<text text-anchor="start" x="918.953" y="-383.9" font-family="Arial" font-size="14.00" fill="#666666">[boolean]</text>
<polygon fill="none" stroke="#000000" points="871.5,-342.5 871.5,-372.5 1147.5,-372.5 1147.5,-342.5 871.5,-342.5"/>
<text text-anchor="start" x="878.5" y="-353.9" font-family="Arial" font-size="14.00" fill="#000000">uom_type </text>
<text text-anchor="start" x="943.8548" y="-353.9" font-family="Arial" font-size="14.00" fill="#666666">[varchar]</text>
<polygon fill="none" stroke="#000000" points="871.5,-312.5 871.5,-342.5 1147.5,-342.5 1147.5,-312.5 871.5,-312.5"/>
<text text-anchor="start" x="878.5" y="-323.9" font-family="Arial" font-size="14.00" fill="#000000">measure_type </text>
<text text-anchor="start" x="971.0806" y="-323.9" font-family="Arial" font-size="14.00" fill="#666666">[varchar]</text>
<polygon fill="none" stroke="#000000" points="871.5,-282.5 871.5,-312.5 1147.5,-312.5 1147.5,-282.5 871.5,-282.5"/>
<text text-anchor="start" x="878.5" y="-293.9" font-family="Arial" font-size="14.00" fill="#000000">create_uid </text>
<text text-anchor="start" x="947.744" y="-293.9" font-family="Arial" font-size="14.00" fill="#666666">[integer]</text>
<polygon fill="none" stroke="#000000" points="871.5,-252.5 871.5,-282.5 1147.5,-282.5 1147.5,-252.5 871.5,-252.5"/>
<text text-anchor="start" x="878.0246" y="-263.9" font-family="Arial" font-size="14.00" fill="#000000">create_date </text>
<text text-anchor="start" x="955.8352" y="-263.9" font-family="Arial" font-size="14.00" fill="#666666">[timestamp without time zone]</text>
<polygon fill="none" stroke="#000000" points="871.5,-222.5 871.5,-252.5 1147.5,-252.5 1147.5,-222.5 871.5,-222.5"/>
<text text-anchor="start" x="878.5" y="-233.9" font-family="Arial" font-size="14.00" fill="#000000">write_uid </text>
<text text-anchor="start" x="938.392" y="-233.9" font-family="Arial" font-size="14.00" fill="#666666">[integer]</text>
<polygon fill="none" stroke="#000000" points="871.5,-192.5 871.5,-222.5 1147.5,-222.5 1147.5,-192.5 871.5,-192.5"/>
<text text-anchor="start" x="878.5" y="-203.9" font-family="Arial" font-size="14.00" fill="#000000">write_date </text>
<text text-anchor="start" x="946.9586" y="-203.9" font-family="Arial" font-size="14.00" fill="#666666">[timestamp without time zone]</text>
</g>
<!-- public.sale_order_template_option&#45;&gt;public.uom_uom -->
<g id="edge3" class="edge">
<title>public.sale_order_template_option:uom_id&#45;&gt;public.uom_uom:id</title>
<path fill="none" stroke="#000000" d="M1212.6637,-1026.9711C1289.5705,-1018.3663 1211.22,-906.4771 1202.5,-817 1199.43,-785.4981 1179.1511,-537.5 1147.5,-537.5"/>
<polygon fill="#000000" stroke="#000000" points="1212.4865,-1026.9802 1202.2661,-1023.0061 1207.4932,-1027.2401 1202.5,-1027.5 1202.5,-1027.5 1202.5,-1027.5 1207.4932,-1027.2401 1202.7339,-1031.9939 1212.4865,-1026.9802 1212.4865,-1026.9802"/>
<text text-anchor="start" x="1209.826" y="-1037.5" font-family="Arial" font-size="10.00" fill="#000000">FOREIGN KEY (uom_id) REFERENCES uom_uom(id) ON DELETE SET NULL</text>
</g>
<!-- public.res_users -->
<g id="node5" class="node">
<title>public.res_users</title>
<polygon fill="#efefef" stroke="transparent" points="1251.5,-702.5 1251.5,-737.5 1527.5,-737.5 1527.5,-702.5 1251.5,-702.5"/>
<polygon fill="none" stroke="#000000" points="1251.5,-702.5 1251.5,-737.5 1527.5,-737.5 1527.5,-702.5 1251.5,-702.5"/>
<text text-anchor="start" x="1275.3639" y="-715.3" font-family="Arial Bold" font-size="18.00" fill="#000000">public.res_users</text>
<text text-anchor="start" x="1406.3823" y="-715.3" font-family="Arial" font-size="14.00" fill="#000000"> </text>
<text text-anchor="start" x="1410.2729" y="-715.3" font-family="Arial" font-size="14.00" fill="#666666">[BASE TABLE]</text>
<polygon fill="none" stroke="#000000" points="1251.5,-672.5 1251.5,-702.5 1527.5,-702.5 1527.5,-672.5 1251.5,-672.5"/>
<text text-anchor="start" x="1258.5" y="-683.9" font-family="Arial" font-size="14.00" fill="#000000">id </text>
<text text-anchor="start" x="1273.2798" y="-683.9" font-family="Arial" font-size="14.00" fill="#666666">[integer]</text>
<polygon fill="none" stroke="#000000" points="1251.5,-642.5 1251.5,-672.5 1527.5,-672.5 1527.5,-642.5 1251.5,-642.5"/>
<text text-anchor="start" x="1258.5" y="-653.9" font-family="Arial" font-size="14.00" fill="#000000">active </text>
<text text-anchor="start" x="1298.953" y="-653.9" font-family="Arial" font-size="14.00" fill="#666666">[boolean]</text>
<polygon fill="none" stroke="#000000" points="1251.5,-612.5 1251.5,-642.5 1527.5,-642.5 1527.5,-612.5 1251.5,-612.5"/>
<text text-anchor="start" x="1258.5" y="-623.9" font-family="Arial" font-size="14.00" fill="#000000">login </text>
<text text-anchor="start" x="1291.9516" y="-623.9" font-family="Arial" font-size="14.00" fill="#666666">[varchar]</text>
<polygon fill="none" stroke="#000000" points="1251.5,-582.5 1251.5,-612.5 1527.5,-612.5 1527.5,-582.5 1251.5,-582.5"/>
<text text-anchor="start" x="1258.5" y="-593.9" font-family="Arial" font-size="14.00" fill="#000000">password </text>
<text text-anchor="start" x="1322.2882" y="-593.9" font-family="Arial" font-size="14.00" fill="#666666">[varchar]</text>
<polygon fill="none" stroke="#000000" points="1251.5,-552.5 1251.5,-582.5 1527.5,-582.5 1527.5,-552.5 1251.5,-552.5"/>
<text text-anchor="start" x="1258.5" y="-563.9" font-family="Arial" font-size="14.00" fill="#000000">company_id </text>
<text text-anchor="start" x="1337.8534" y="-563.9" font-family="Arial" font-size="14.00" fill="#666666">[integer]</text>
<polygon fill="none" stroke="#000000" points="1251.5,-522.5 1251.5,-552.5 1527.5,-552.5 1527.5,-522.5 1251.5,-522.5"/>
<text text-anchor="start" x="1258.5" y="-533.9" font-family="Arial" font-size="14.00" fill="#000000">partner_id </text>
<text text-anchor="start" x="1325.4046" y="-533.9" font-family="Arial" font-size="14.00" fill="#666666">[integer]</text>
<polygon fill="none" stroke="#000000" points="1251.5,-492.5 1251.5,-522.5 1527.5,-522.5 1527.5,-492.5 1251.5,-492.5"/>
<text text-anchor="start" x="1258.0246" y="-503.9" font-family="Arial" font-size="14.00" fill="#000000">create_date </text>
<text text-anchor="start" x="1335.8352" y="-503.9" font-family="Arial" font-size="14.00" fill="#666666">[timestamp without time zone]</text>
<polygon fill="none" stroke="#000000" points="1251.5,-462.5 1251.5,-492.5 1527.5,-492.5 1527.5,-462.5 1251.5,-462.5"/>
<text text-anchor="start" x="1258.5" y="-473.9" font-family="Arial" font-size="14.00" fill="#000000">signature </text>
<text text-anchor="start" x="1319.9614" y="-473.9" font-family="Arial" font-size="14.00" fill="#666666">[text]</text>
<polygon fill="none" stroke="#000000" points="1251.5,-432.5 1251.5,-462.5 1527.5,-462.5 1527.5,-432.5 1251.5,-432.5"/>
<text text-anchor="start" x="1258.5" y="-443.9" font-family="Arial" font-size="14.00" fill="#000000">action_id </text>
<text text-anchor="start" x="1318.4074" y="-443.9" font-family="Arial" font-size="14.00" fill="#666666">[integer]</text>
<polygon fill="none" stroke="#000000" points="1251.5,-402.5 1251.5,-432.5 1527.5,-432.5 1527.5,-402.5 1251.5,-402.5"/>
<text text-anchor="start" x="1258.5" y="-413.9" font-family="Arial" font-size="14.00" fill="#000000">share </text>
<text text-anchor="start" x="1297.399" y="-413.9" font-family="Arial" font-size="14.00" fill="#666666">[boolean]</text>
<polygon fill="none" stroke="#000000" points="1251.5,-372.5 1251.5,-402.5 1527.5,-402.5 1527.5,-372.5 1251.5,-372.5"/>
<text text-anchor="start" x="1258.5" y="-383.9" font-family="Arial" font-size="14.00" fill="#000000">create_uid </text>
<text text-anchor="start" x="1327.744" y="-383.9" font-family="Arial" font-size="14.00" fill="#666666">[integer]</text>
<polygon fill="none" stroke="#000000" points="1251.5,-342.5 1251.5,-372.5 1527.5,-372.5 1527.5,-342.5 1251.5,-342.5"/>
<text text-anchor="start" x="1258.5" y="-353.9" font-family="Arial" font-size="14.00" fill="#000000">write_uid </text>
<text text-anchor="start" x="1318.392" y="-353.9" font-family="Arial" font-size="14.00" fill="#666666">[integer]</text>
<polygon fill="none" stroke="#000000" points="1251.5,-312.5 1251.5,-342.5 1527.5,-342.5 1527.5,-312.5 1251.5,-312.5"/>
<text text-anchor="start" x="1258.5" y="-323.9" font-family="Arial" font-size="14.00" fill="#000000">write_date </text>
<text text-anchor="start" x="1326.9586" y="-323.9" font-family="Arial" font-size="14.00" fill="#666666">[timestamp without time zone]</text>
<polygon fill="none" stroke="#000000" points="1251.5,-282.5 1251.5,-312.5 1527.5,-312.5 1527.5,-282.5 1251.5,-282.5"/>
<text text-anchor="start" x="1258.5" y="-293.9" font-family="Arial" font-size="14.00" fill="#000000">alias_id </text>
<text text-anchor="start" x="1309.8408" y="-293.9" font-family="Arial" font-size="14.00" fill="#666666">[integer]</text>
<polygon fill="none" stroke="#000000" points="1251.5,-252.5 1251.5,-282.5 1527.5,-282.5 1527.5,-252.5 1251.5,-252.5"/>
<text text-anchor="start" x="1258.5" y="-263.9" font-family="Arial" font-size="14.00" fill="#000000">notification_type </text>
<text text-anchor="start" x="1363.5336" y="-263.9" font-family="Arial" font-size="14.00" fill="#666666">[varchar]</text>
<polygon fill="none" stroke="#000000" points="1251.5,-222.5 1251.5,-252.5 1527.5,-252.5 1527.5,-222.5 1251.5,-222.5"/>
<text text-anchor="start" x="1258.5" y="-233.9" font-family="Arial" font-size="14.00" fill="#000000">odoobot_state </text>
<text text-anchor="start" x="1351.1058" y="-233.9" font-family="Arial" font-size="14.00" fill="#666666">[varchar]</text>
<polygon fill="none" stroke="#000000" points="1251.5,-192.5 1251.5,-222.5 1527.5,-222.5 1527.5,-192.5 1251.5,-192.5"/>
<text text-anchor="start" x="1258.5" y="-203.9" font-family="Arial" font-size="14.00" fill="#000000">sale_team_id </text>
<text text-anchor="start" x="1345.6332" y="-203.9" font-family="Arial" font-size="14.00" fill="#666666">[integer]</text>
<polygon fill="none" stroke="#000000" points="1251.5,-162.5 1251.5,-192.5 1527.5,-192.5 1527.5,-162.5 1251.5,-162.5"/>
<text text-anchor="start" x="1258.5" y="-173.9" font-family="Arial" font-size="14.00" fill="#000000">target_sales_won </text>
<text text-anchor="start" x="1372.089" y="-173.9" font-family="Arial" font-size="14.00" fill="#666666">[integer]</text>
<polygon fill="none" stroke="#000000" points="1251.5,-132.5 1251.5,-162.5 1527.5,-162.5 1527.5,-132.5 1251.5,-132.5"/>
<text text-anchor="start" x="1258.5" y="-143.9" font-family="Arial" font-size="14.00" fill="#000000">target_sales_done </text>
<text text-anchor="start" x="1377.5476" y="-143.9" font-family="Arial" font-size="14.00" fill="#666666">[integer]</text>
<polygon fill="none" stroke="#000000" points="1251.5,-102.5 1251.5,-132.5 1527.5,-132.5 1527.5,-102.5 1251.5,-102.5"/>
<text text-anchor="start" x="1258.5" y="-113.9" font-family="Arial" font-size="14.00" fill="#000000">website_id </text>
<text text-anchor="start" x="1328.514" y="-113.9" font-family="Arial" font-size="14.00" fill="#666666">[integer]</text>
<polygon fill="none" stroke="#000000" points="1251.5,-72.5 1251.5,-102.5 1527.5,-102.5 1527.5,-72.5 1251.5,-72.5"/>
<text text-anchor="start" x="1258.5" y="-83.9" font-family="Arial" font-size="14.00" fill="#000000">target_sales_invoiced </text>
<text text-anchor="start" x="1397.7608" y="-83.9" font-family="Arial" font-size="14.00" fill="#666666">[integer]</text>
<polygon fill="none" stroke="#000000" points="1251.5,-42.5 1251.5,-72.5 1527.5,-72.5 1527.5,-42.5 1251.5,-42.5"/>
<text text-anchor="start" x="1258.5" y="-53.9" font-family="Arial" font-size="14.00" fill="#000000">pos_security_pin </text>
<text text-anchor="start" x="1367.4158" y="-53.9" font-family="Arial" font-size="14.00" fill="#666666">[varchar(32)]</text>
</g>
<!-- public.sale_order_template_option&#45;&gt;public.res_users -->
<g id="edge4" class="edge">
<title>public.sale_order_template_option:create_uid&#45;&gt;public.res_users:id</title>
<path fill="none" stroke="#000000" d="M1212.7706,-966.7931C1317.185,-951.3341 1128.8656,-687.5 1251.5,-687.5"/>
<polygon fill="#000000" stroke="#000000" points="1212.4764,-966.8133 1202.191,-963.0106 1207.4882,-967.1566 1202.5,-967.5 1202.5,-967.5 1202.5,-967.5 1207.4882,-967.1566 1202.809,-971.9894 1212.4764,-966.8133 1212.4764,-966.8133"/>
<text text-anchor="start" x="1209.157" y="-977.5" font-family="Arial" font-size="10.00" fill="#000000">FOREIGN KEY (create_uid) REFERENCES res_users(id) ON DELETE SET NULL</text>
</g>
<!-- public.sale_order_template_option&#45;&gt;public.res_users -->
<g id="edge5" class="edge">
<title>public.sale_order_template_option:write_uid&#45;&gt;public.res_users:id</title>
<path fill="none" stroke="#000000" d="M1212.6387,-906.6136C1291.7872,-891.4748 1155.0437,-687.5 1251.5,-687.5"/>
<polygon fill="#000000" stroke="#000000" points="1212.462,-906.629 1202.108,-903.0171 1207.481,-907.0645 1202.5,-907.5 1202.5,-907.5 1202.5,-907.5 1207.481,-907.0645 1202.892,-911.9829 1212.462,-906.629 1212.462,-906.629"/>
<text text-anchor="start" x="1209.497" y="-917.5" font-family="Arial" font-size="10.00" fill="#000000">FOREIGN KEY (write_uid) REFERENCES res_users(id) ON DELETE SET NULL</text>
</g>
</g>
</svg>
