<?xml version="1.0" encoding="UTF-8" standalone="no"?>
<!DOCTYPE svg PUBLIC "-//W3C//DTD SVG 1.1//EN"
 "http://www.w3.org/Graphics/SVG/1.1/DTD/svg11.dtd">
<!-- Generated by graphviz version 2.40.1 (20161225.0304)
 -->
<!-- Title: public.product_image Pages: 1 -->
<svg width="1116pt" height="2272pt"
 viewBox="0.00 0.00 1116.00 2272.00" xmlns="http://www.w3.org/2000/svg" xmlns:xlink="http://www.w3.org/1999/xlink">
<g id="graph0" class="graph" transform="scale(1 1) rotate(0) translate(4 2268)">
<title>public.product_image</title>
<polygon fill="#ffffff" stroke="transparent" points="-4,4 -4,-2268 1112,-2268 1112,4 -4,4"/>
<!-- public.product_image -->
<g id="node1" class="node">
<title>public.product_image</title>
<polygon fill="#efefef" stroke="transparent" points="446,-2182.5 446,-2217.5 728,-2217.5 728,-2182.5 446,-2182.5"/>
<polygon fill="none" stroke="#000000" points="446,-2182.5 446,-2217.5 728,-2217.5 728,-2182.5 446,-2182.5"/>
<text text-anchor="start" x="452.8533" y="-2195.3" font-family="Arial Bold" font-size="18.00" fill="#000000">public.product_image</text>
<text text-anchor="start" x="623.8929" y="-2195.3" font-family="Arial" font-size="14.00" fill="#000000"> </text>
<text text-anchor="start" x="627.7835" y="-2195.3" font-family="Arial" font-size="14.00" fill="#666666">[BASE TABLE]</text>
<polygon fill="none" stroke="#000000" points="446,-2152.5 446,-2182.5 728,-2182.5 728,-2152.5 446,-2152.5"/>
<text text-anchor="start" x="453" y="-2163.9" font-family="Arial" font-size="14.00" fill="#000000">id </text>
<text text-anchor="start" x="467.7798" y="-2163.9" font-family="Arial" font-size="14.00" fill="#666666">[integer]</text>
<polygon fill="none" stroke="#000000" points="446,-2122.5 446,-2152.5 728,-2152.5 728,-2122.5 446,-2122.5"/>
<text text-anchor="start" x="453" y="-2133.9" font-family="Arial" font-size="14.00" fill="#000000">name </text>
<text text-anchor="start" x="491.899" y="-2133.9" font-family="Arial" font-size="14.00" fill="#666666">[varchar]</text>
<polygon fill="none" stroke="#000000" points="446,-2092.5 446,-2122.5 728,-2122.5 728,-2092.5 446,-2092.5"/>
<text text-anchor="start" x="453" y="-2103.9" font-family="Arial" font-size="14.00" fill="#000000">product_tmpl_id </text>
<text text-anchor="start" x="556.467" y="-2103.9" font-family="Arial" font-size="14.00" fill="#666666">[integer]</text>
<polygon fill="none" stroke="#000000" points="446,-2062.5 446,-2092.5 728,-2092.5 728,-2062.5 446,-2062.5"/>
<text text-anchor="start" x="453" y="-2073.9" font-family="Arial" font-size="14.00" fill="#000000">create_uid </text>
<text text-anchor="start" x="522.244" y="-2073.9" font-family="Arial" font-size="14.00" fill="#666666">[integer]</text>
<polygon fill="none" stroke="#000000" points="446,-2032.5 446,-2062.5 728,-2062.5 728,-2032.5 446,-2032.5"/>
<text text-anchor="start" x="453" y="-2043.9" font-family="Arial" font-size="14.00" fill="#000000">create_date </text>
<text text-anchor="start" x="530.8106" y="-2043.9" font-family="Arial" font-size="14.00" fill="#666666">[timestamp without time zone]</text>
<polygon fill="none" stroke="#000000" points="446,-2002.5 446,-2032.5 728,-2032.5 728,-2002.5 446,-2002.5"/>
<text text-anchor="start" x="453" y="-2013.9" font-family="Arial" font-size="14.00" fill="#000000">write_uid </text>
<text text-anchor="start" x="512.892" y="-2013.9" font-family="Arial" font-size="14.00" fill="#666666">[integer]</text>
<polygon fill="none" stroke="#000000" points="446,-1972.5 446,-2002.5 728,-2002.5 728,-1972.5 446,-1972.5"/>
<text text-anchor="start" x="453" y="-1983.9" font-family="Arial" font-size="14.00" fill="#000000">write_date </text>
<text text-anchor="start" x="521.4586" y="-1983.9" font-family="Arial" font-size="14.00" fill="#666666">[timestamp without time zone]</text>
<polygon fill="none" stroke="#000000" stroke-width="3" points="444.5,-1971.5 444.5,-2219.5 729.5,-2219.5 729.5,-1971.5 444.5,-1971.5"/>
</g>
<!-- public.product_template -->
<g id="node2" class="node">
<title>public.product_template</title>
<polygon fill="#efefef" stroke="transparent" points="43,-1812.5 43,-1847.5 345,-1847.5 345,-1812.5 43,-1812.5"/>
<polygon fill="none" stroke="#000000" points="43,-1812.5 43,-1847.5 345,-1847.5 345,-1812.5 43,-1812.5"/>
<text text-anchor="start" x="49.848" y="-1825.3" font-family="Arial Bold" font-size="18.00" fill="#000000">public.product_template</text>
<text text-anchor="start" x="240.8982" y="-1825.3" font-family="Arial" font-size="14.00" fill="#000000"> </text>
<text text-anchor="start" x="244.7888" y="-1825.3" font-family="Arial" font-size="14.00" fill="#666666">[BASE TABLE]</text>
<polygon fill="none" stroke="#000000" points="43,-1782.5 43,-1812.5 345,-1812.5 345,-1782.5 43,-1782.5"/>
<text text-anchor="start" x="50" y="-1793.9" font-family="Arial" font-size="14.00" fill="#000000">id </text>
<text text-anchor="start" x="64.7798" y="-1793.9" font-family="Arial" font-size="14.00" fill="#666666">[integer]</text>
<polygon fill="none" stroke="#000000" points="43,-1752.5 43,-1782.5 345,-1782.5 345,-1752.5 43,-1752.5"/>
<text text-anchor="start" x="50" y="-1763.9" font-family="Arial" font-size="14.00" fill="#000000">message_main_attachment_id </text>
<text text-anchor="start" x="244.4964" y="-1763.9" font-family="Arial" font-size="14.00" fill="#666666">[integer]</text>
<polygon fill="none" stroke="#000000" points="43,-1722.5 43,-1752.5 345,-1752.5 345,-1722.5 43,-1722.5"/>
<text text-anchor="start" x="50" y="-1733.9" font-family="Arial" font-size="14.00" fill="#000000">name </text>
<text text-anchor="start" x="88.899" y="-1733.9" font-family="Arial" font-size="14.00" fill="#666666">[varchar]</text>
<polygon fill="none" stroke="#000000" points="43,-1692.5 43,-1722.5 345,-1722.5 345,-1692.5 43,-1692.5"/>
<text text-anchor="start" x="50" y="-1703.9" font-family="Arial" font-size="14.00" fill="#000000">sequence </text>
<text text-anchor="start" x="114.5862" y="-1703.9" font-family="Arial" font-size="14.00" fill="#666666">[integer]</text>
<polygon fill="none" stroke="#000000" points="43,-1662.5 43,-1692.5 345,-1692.5 345,-1662.5 43,-1662.5"/>
<text text-anchor="start" x="50" y="-1673.9" font-family="Arial" font-size="14.00" fill="#000000">description </text>
<text text-anchor="start" x="121.568" y="-1673.9" font-family="Arial" font-size="14.00" fill="#666666">[text]</text>
<polygon fill="none" stroke="#000000" points="43,-1632.5 43,-1662.5 345,-1662.5 345,-1632.5 43,-1632.5"/>
<text text-anchor="start" x="50" y="-1643.9" font-family="Arial" font-size="14.00" fill="#000000">description_purchase </text>
<text text-anchor="start" x="186.9242" y="-1643.9" font-family="Arial" font-size="14.00" fill="#666666">[text]</text>
<polygon fill="none" stroke="#000000" points="43,-1602.5 43,-1632.5 345,-1632.5 345,-1602.5 43,-1602.5"/>
<text text-anchor="start" x="50" y="-1613.9" font-family="Arial" font-size="14.00" fill="#000000">description_sale </text>
<text text-anchor="start" x="155.0224" y="-1613.9" font-family="Arial" font-size="14.00" fill="#666666">[text]</text>
<polygon fill="none" stroke="#000000" points="43,-1572.5 43,-1602.5 345,-1602.5 345,-1572.5 43,-1572.5"/>
<text text-anchor="start" x="50" y="-1583.9" font-family="Arial" font-size="14.00" fill="#000000">type </text>
<text text-anchor="start" x="80.3464" y="-1583.9" font-family="Arial" font-size="14.00" fill="#666666">[varchar]</text>
<polygon fill="none" stroke="#000000" points="43,-1542.5 43,-1572.5 345,-1572.5 345,-1542.5 43,-1542.5"/>
<text text-anchor="start" x="50" y="-1553.9" font-family="Arial" font-size="14.00" fill="#000000">rental </text>
<text text-anchor="start" x="88.8962" y="-1553.9" font-family="Arial" font-size="14.00" fill="#666666">[boolean]</text>
<polygon fill="none" stroke="#000000" points="43,-1512.5 43,-1542.5 345,-1542.5 345,-1512.5 43,-1512.5"/>
<text text-anchor="start" x="50" y="-1523.9" font-family="Arial" font-size="14.00" fill="#000000">categ_id </text>
<text text-anchor="start" x="106.8008" y="-1523.9" font-family="Arial" font-size="14.00" fill="#666666">[integer]</text>
<polygon fill="none" stroke="#000000" points="43,-1482.5 43,-1512.5 345,-1512.5 345,-1482.5 43,-1482.5"/>
<text text-anchor="start" x="50" y="-1493.9" font-family="Arial" font-size="14.00" fill="#000000">list_price </text>
<text text-anchor="start" x="109.1094" y="-1493.9" font-family="Arial" font-size="14.00" fill="#666666">[numeric]</text>
<polygon fill="none" stroke="#000000" points="43,-1452.5 43,-1482.5 345,-1482.5 345,-1452.5 43,-1452.5"/>
<text text-anchor="start" x="50" y="-1463.9" font-family="Arial" font-size="14.00" fill="#000000">volume </text>
<text text-anchor="start" x="99.0056" y="-1463.9" font-family="Arial" font-size="14.00" fill="#666666">[double precision]</text>
<polygon fill="none" stroke="#000000" points="43,-1422.5 43,-1452.5 345,-1452.5 345,-1422.5 43,-1422.5"/>
<text text-anchor="start" x="50" y="-1433.9" font-family="Arial" font-size="14.00" fill="#000000">weight </text>
<text text-anchor="start" x="94.3422" y="-1433.9" font-family="Arial" font-size="14.00" fill="#666666">[numeric]</text>
<polygon fill="none" stroke="#000000" points="43,-1392.5 43,-1422.5 345,-1422.5 345,-1392.5 43,-1392.5"/>
<text text-anchor="start" x="50" y="-1403.9" font-family="Arial" font-size="14.00" fill="#000000">sale_ok </text>
<text text-anchor="start" x="102.1276" y="-1403.9" font-family="Arial" font-size="14.00" fill="#666666">[boolean]</text>
<polygon fill="none" stroke="#000000" points="43,-1362.5 43,-1392.5 345,-1392.5 345,-1362.5 43,-1362.5"/>
<text text-anchor="start" x="50" y="-1373.9" font-family="Arial" font-size="14.00" fill="#000000">purchase_ok </text>
<text text-anchor="start" x="134.0294" y="-1373.9" font-family="Arial" font-size="14.00" fill="#666666">[boolean]</text>
<polygon fill="none" stroke="#000000" points="43,-1332.5 43,-1362.5 345,-1362.5 345,-1332.5 43,-1332.5"/>
<text text-anchor="start" x="50" y="-1343.9" font-family="Arial" font-size="14.00" fill="#000000">uom_id </text>
<text text-anchor="start" x="99.7882" y="-1343.9" font-family="Arial" font-size="14.00" fill="#666666">[integer]</text>
<polygon fill="none" stroke="#000000" points="43,-1302.5 43,-1332.5 345,-1332.5 345,-1302.5 43,-1302.5"/>
<text text-anchor="start" x="50" y="-1313.9" font-family="Arial" font-size="14.00" fill="#000000">uom_po_id </text>
<text text-anchor="start" x="123.136" y="-1313.9" font-family="Arial" font-size="14.00" fill="#666666">[integer]</text>
<polygon fill="none" stroke="#000000" points="43,-1272.5 43,-1302.5 345,-1302.5 345,-1272.5 43,-1272.5"/>
<text text-anchor="start" x="50" y="-1283.9" font-family="Arial" font-size="14.00" fill="#000000">company_id </text>
<text text-anchor="start" x="129.3534" y="-1283.9" font-family="Arial" font-size="14.00" fill="#666666">[integer]</text>
<polygon fill="none" stroke="#000000" points="43,-1242.5 43,-1272.5 345,-1272.5 345,-1242.5 43,-1242.5"/>
<text text-anchor="start" x="50" y="-1253.9" font-family="Arial" font-size="14.00" fill="#000000">active </text>
<text text-anchor="start" x="90.453" y="-1253.9" font-family="Arial" font-size="14.00" fill="#666666">[boolean]</text>
<polygon fill="none" stroke="#000000" points="43,-1212.5 43,-1242.5 345,-1242.5 345,-1212.5 43,-1212.5"/>
<text text-anchor="start" x="50" y="-1223.9" font-family="Arial" font-size="14.00" fill="#000000">color </text>
<text text-anchor="start" x="84.223" y="-1223.9" font-family="Arial" font-size="14.00" fill="#666666">[integer]</text>
<polygon fill="none" stroke="#000000" points="43,-1182.5 43,-1212.5 345,-1212.5 345,-1182.5 43,-1182.5"/>
<text text-anchor="start" x="50" y="-1193.9" font-family="Arial" font-size="14.00" fill="#000000">default_code </text>
<text text-anchor="start" x="134.0392" y="-1193.9" font-family="Arial" font-size="14.00" fill="#666666">[varchar]</text>
<polygon fill="none" stroke="#000000" points="43,-1152.5 43,-1182.5 345,-1182.5 345,-1152.5 43,-1152.5"/>
<text text-anchor="start" x="50" y="-1163.9" font-family="Arial" font-size="14.00" fill="#000000">create_uid </text>
<text text-anchor="start" x="119.244" y="-1163.9" font-family="Arial" font-size="14.00" fill="#666666">[integer]</text>
<polygon fill="none" stroke="#000000" points="43,-1122.5 43,-1152.5 345,-1152.5 345,-1122.5 43,-1122.5"/>
<text text-anchor="start" x="50" y="-1133.9" font-family="Arial" font-size="14.00" fill="#000000">create_date </text>
<text text-anchor="start" x="127.8106" y="-1133.9" font-family="Arial" font-size="14.00" fill="#666666">[timestamp without time zone]</text>
<polygon fill="none" stroke="#000000" points="43,-1092.5 43,-1122.5 345,-1122.5 345,-1092.5 43,-1092.5"/>
<text text-anchor="start" x="50" y="-1103.9" font-family="Arial" font-size="14.00" fill="#000000">write_uid </text>
<text text-anchor="start" x="109.892" y="-1103.9" font-family="Arial" font-size="14.00" fill="#666666">[integer]</text>
<polygon fill="none" stroke="#000000" points="43,-1062.5 43,-1092.5 345,-1092.5 345,-1062.5 43,-1062.5"/>
<text text-anchor="start" x="50" y="-1073.9" font-family="Arial" font-size="14.00" fill="#000000">write_date </text>
<text text-anchor="start" x="118.4586" y="-1073.9" font-family="Arial" font-size="14.00" fill="#666666">[timestamp without time zone]</text>
<polygon fill="none" stroke="#000000" points="43,-1032.5 43,-1062.5 345,-1062.5 345,-1032.5 43,-1032.5"/>
<text text-anchor="start" x="50" y="-1043.9" font-family="Arial" font-size="14.00" fill="#000000">service_type </text>
<text text-anchor="start" x="132.4614" y="-1043.9" font-family="Arial" font-size="14.00" fill="#666666">[varchar]</text>
<polygon fill="none" stroke="#000000" points="43,-1002.5 43,-1032.5 345,-1032.5 345,-1002.5 43,-1002.5"/>
<text text-anchor="start" x="50" y="-1013.9" font-family="Arial" font-size="14.00" fill="#000000">sale_line_warn </text>
<text text-anchor="start" x="147.2384" y="-1013.9" font-family="Arial" font-size="14.00" fill="#666666">[varchar]</text>
<polygon fill="none" stroke="#000000" points="43,-972.5 43,-1002.5 345,-1002.5 345,-972.5 43,-972.5"/>
<text text-anchor="start" x="50" y="-983.9" font-family="Arial" font-size="14.00" fill="#000000">sale_line_warn_msg </text>
<text text-anchor="start" x="181.4642" y="-983.9" font-family="Arial" font-size="14.00" fill="#666666">[text]</text>
<polygon fill="none" stroke="#000000" points="43,-942.5 43,-972.5 345,-972.5 345,-942.5 43,-942.5"/>
<text text-anchor="start" x="50" y="-953.9" font-family="Arial" font-size="14.00" fill="#000000">expense_policy </text>
<text text-anchor="start" x="150.3646" y="-953.9" font-family="Arial" font-size="14.00" fill="#666666">[varchar]</text>
<polygon fill="none" stroke="#000000" points="43,-912.5 43,-942.5 345,-942.5 345,-912.5 43,-912.5"/>
<text text-anchor="start" x="50" y="-923.9" font-family="Arial" font-size="14.00" fill="#000000">invoice_policy </text>
<text text-anchor="start" x="141.0126" y="-923.9" font-family="Arial" font-size="14.00" fill="#666666">[varchar]</text>
<polygon fill="none" stroke="#000000" points="43,-882.5 43,-912.5 345,-912.5 345,-882.5 43,-882.5"/>
<text text-anchor="start" x="50" y="-893.9" font-family="Arial" font-size="14.00" fill="#000000">website_id </text>
<text text-anchor="start" x="120.014" y="-893.9" font-family="Arial" font-size="14.00" fill="#666666">[integer]</text>
<polygon fill="none" stroke="#000000" points="43,-852.5 43,-882.5 345,-882.5 345,-852.5 43,-852.5"/>
<text text-anchor="start" x="50" y="-863.9" font-family="Arial" font-size="14.00" fill="#000000">is_published </text>
<text text-anchor="start" x="131.6886" y="-863.9" font-family="Arial" font-size="14.00" fill="#666666">[boolean]</text>
<polygon fill="none" stroke="#000000" points="43,-822.5 43,-852.5 345,-852.5 345,-822.5 43,-822.5"/>
<text text-anchor="start" x="50" y="-833.9" font-family="Arial" font-size="14.00" fill="#000000">website_meta_title </text>
<text text-anchor="start" x="169.8008" y="-833.9" font-family="Arial" font-size="14.00" fill="#666666">[varchar]</text>
<polygon fill="none" stroke="#000000" points="43,-792.5 43,-822.5 345,-822.5 345,-792.5 43,-792.5"/>
<text text-anchor="start" x="50" y="-803.9" font-family="Arial" font-size="14.00" fill="#000000">website_meta_description </text>
<text text-anchor="start" x="215.7012" y="-803.9" font-family="Arial" font-size="14.00" fill="#666666">[text]</text>
<polygon fill="none" stroke="#000000" points="43,-762.5 43,-792.5 345,-792.5 345,-762.5 43,-762.5"/>
<text text-anchor="start" x="50" y="-773.9" font-family="Arial" font-size="14.00" fill="#000000">website_meta_keywords </text>
<text text-anchor="start" x="207.1388" y="-773.9" font-family="Arial" font-size="14.00" fill="#666666">[varchar]</text>
<polygon fill="none" stroke="#000000" points="43,-732.5 43,-762.5 345,-762.5 345,-732.5 43,-732.5"/>
<text text-anchor="start" x="50" y="-743.9" font-family="Arial" font-size="14.00" fill="#000000">website_meta_og_img </text>
<text text-anchor="start" x="193.9214" y="-743.9" font-family="Arial" font-size="14.00" fill="#666666">[varchar]</text>
<polygon fill="none" stroke="#000000" points="43,-702.5 43,-732.5 345,-732.5 345,-702.5 43,-702.5"/>
<text text-anchor="start" x="50" y="-713.9" font-family="Arial" font-size="14.00" fill="#000000">rating_last_value </text>
<text text-anchor="start" x="159.6956" y="-713.9" font-family="Arial" font-size="14.00" fill="#666666">[double precision]</text>
<polygon fill="none" stroke="#000000" points="43,-672.5 43,-702.5 345,-702.5 345,-672.5 43,-672.5"/>
<text text-anchor="start" x="50" y="-683.9" font-family="Arial" font-size="14.00" fill="#000000">website_description </text>
<text text-anchor="start" x="176.8022" y="-683.9" font-family="Arial" font-size="14.00" fill="#666666">[text]</text>
<polygon fill="none" stroke="#000000" points="43,-642.5 43,-672.5 345,-672.5 345,-642.5 43,-642.5"/>
<text text-anchor="start" x="50" y="-653.9" font-family="Arial" font-size="14.00" fill="#000000">website_size_x </text>
<text text-anchor="start" x="148.7966" y="-653.9" font-family="Arial" font-size="14.00" fill="#666666">[integer]</text>
<polygon fill="none" stroke="#000000" points="43,-612.5 43,-642.5 345,-642.5 345,-612.5 43,-612.5"/>
<text text-anchor="start" x="50" y="-623.9" font-family="Arial" font-size="14.00" fill="#000000">website_size_y </text>
<text text-anchor="start" x="148.7966" y="-623.9" font-family="Arial" font-size="14.00" fill="#666666">[integer]</text>
<polygon fill="none" stroke="#000000" points="43,-582.5 43,-612.5 345,-612.5 345,-582.5 43,-582.5"/>
<text text-anchor="start" x="50" y="-593.9" font-family="Arial" font-size="14.00" fill="#000000">website_sequence </text>
<text text-anchor="start" x="169.8204" y="-593.9" font-family="Arial" font-size="14.00" fill="#666666">[integer]</text>
<polygon fill="none" stroke="#000000" points="43,-552.5 43,-582.5 345,-582.5 345,-552.5 43,-552.5"/>
<text text-anchor="start" x="50" y="-563.9" font-family="Arial" font-size="14.00" fill="#000000">responsible_id </text>
<text text-anchor="start" x="144.1318" y="-563.9" font-family="Arial" font-size="14.00" fill="#666666">[integer]</text>
<polygon fill="none" stroke="#000000" points="43,-522.5 43,-552.5 345,-552.5 345,-522.5 43,-522.5"/>
<text text-anchor="start" x="50" y="-533.9" font-family="Arial" font-size="14.00" fill="#000000">sale_delay </text>
<text text-anchor="start" x="120.7994" y="-533.9" font-family="Arial" font-size="14.00" fill="#666666">[double precision]</text>
<polygon fill="none" stroke="#000000" points="43,-492.5 43,-522.5 345,-522.5 345,-492.5 43,-492.5"/>
<text text-anchor="start" x="50" y="-503.9" font-family="Arial" font-size="14.00" fill="#000000">tracking </text>
<text text-anchor="start" x="102.8962" y="-503.9" font-family="Arial" font-size="14.00" fill="#666666">[varchar]</text>
<polygon fill="none" stroke="#000000" points="43,-462.5 43,-492.5 345,-492.5 345,-462.5 43,-462.5"/>
<text text-anchor="start" x="50" y="-473.9" font-family="Arial" font-size="14.00" fill="#000000">description_picking </text>
<text text-anchor="start" x="172.9116" y="-473.9" font-family="Arial" font-size="14.00" fill="#666666">[text]</text>
<polygon fill="none" stroke="#000000" points="43,-432.5 43,-462.5 345,-462.5 345,-432.5 43,-432.5"/>
<text text-anchor="start" x="50" y="-443.9" font-family="Arial" font-size="14.00" fill="#000000">description_pickingout </text>
<text text-anchor="start" x="192.3674" y="-443.9" font-family="Arial" font-size="14.00" fill="#666666">[text]</text>
<polygon fill="none" stroke="#000000" points="43,-402.5 43,-432.5 345,-432.5 345,-402.5 43,-402.5"/>
<text text-anchor="start" x="50" y="-413.9" font-family="Arial" font-size="14.00" fill="#000000">description_pickingin </text>
<text text-anchor="start" x="183.8008" y="-413.9" font-family="Arial" font-size="14.00" fill="#666666">[text]</text>
<polygon fill="none" stroke="#000000" points="43,-372.5 43,-402.5 345,-402.5 345,-372.5 43,-372.5"/>
<text text-anchor="start" x="50" y="-383.9" font-family="Arial" font-size="14.00" fill="#000000">inventory_availability </text>
<text text-anchor="start" x="183.0154" y="-383.9" font-family="Arial" font-size="14.00" fill="#666666">[varchar]</text>
<polygon fill="none" stroke="#000000" points="43,-342.5 43,-372.5 345,-372.5 345,-342.5 43,-342.5"/>
<text text-anchor="start" x="50" y="-353.9" font-family="Arial" font-size="14.00" fill="#000000">available_threshold </text>
<text text-anchor="start" x="174.4768" y="-353.9" font-family="Arial" font-size="14.00" fill="#666666">[double precision]</text>
<polygon fill="none" stroke="#000000" points="43,-312.5 43,-342.5 345,-342.5 345,-312.5 43,-312.5"/>
<text text-anchor="start" x="50" y="-323.9" font-family="Arial" font-size="14.00" fill="#000000">custom_message </text>
<text text-anchor="start" x="163.5806" y="-323.9" font-family="Arial" font-size="14.00" fill="#666666">[text]</text>
<polygon fill="none" stroke="#000000" points="43,-282.5 43,-312.5 345,-312.5 345,-282.5 43,-282.5"/>
<text text-anchor="start" x="50" y="-293.9" font-family="Arial" font-size="14.00" fill="#000000">purchase_method </text>
<text text-anchor="start" x="165.9284" y="-293.9" font-family="Arial" font-size="14.00" fill="#666666">[varchar]</text>
<polygon fill="none" stroke="#000000" points="43,-252.5 43,-282.5 345,-282.5 345,-252.5 43,-252.5"/>
<text text-anchor="start" x="50" y="-263.9" font-family="Arial" font-size="14.00" fill="#000000">purchase_line_warn </text>
<text text-anchor="start" x="179.1402" y="-263.9" font-family="Arial" font-size="14.00" fill="#666666">[varchar]</text>
<polygon fill="none" stroke="#000000" points="43,-222.5 43,-252.5 345,-252.5 345,-222.5 43,-222.5"/>
<text text-anchor="start" x="50" y="-233.9" font-family="Arial" font-size="14.00" fill="#000000">purchase_line_warn_msg </text>
<text text-anchor="start" x="213.366" y="-233.9" font-family="Arial" font-size="14.00" fill="#666666">[text]</text>
<polygon fill="none" stroke="#000000" points="43,-192.5 43,-222.5 345,-222.5 345,-192.5 43,-192.5"/>
<text text-anchor="start" x="50" y="-203.9" font-family="Arial" font-size="14.00" fill="#000000">service_to_purchase </text>
<text text-anchor="start" x="183.035" y="-203.9" font-family="Arial" font-size="14.00" fill="#666666">[boolean]</text>
<polygon fill="none" stroke="#000000" points="43,-162.5 43,-192.5 345,-192.5 345,-162.5 43,-162.5"/>
<text text-anchor="start" x="50" y="-173.9" font-family="Arial" font-size="14.00" fill="#000000">can_be_expensed </text>
<text text-anchor="start" x="168.2818" y="-173.9" font-family="Arial" font-size="14.00" fill="#666666">[boolean]</text>
<polygon fill="none" stroke="#000000" points="43,-132.5 43,-162.5 345,-162.5 345,-132.5 43,-132.5"/>
<text text-anchor="start" x="50" y="-143.9" font-family="Arial" font-size="14.00" fill="#000000">available_in_pos </text>
<text text-anchor="start" x="158.143" y="-143.9" font-family="Arial" font-size="14.00" fill="#666666">[boolean]</text>
<polygon fill="none" stroke="#000000" points="43,-102.5 43,-132.5 345,-132.5 345,-102.5 43,-102.5"/>
<text text-anchor="start" x="50" y="-113.9" font-family="Arial" font-size="14.00" fill="#000000">to_weight </text>
<text text-anchor="start" x="113.798" y="-113.9" font-family="Arial" font-size="14.00" fill="#666666">[boolean]</text>
<polygon fill="none" stroke="#000000" points="43,-72.5 43,-102.5 345,-102.5 345,-72.5 43,-72.5"/>
<text text-anchor="start" x="50" y="-83.9" font-family="Arial" font-size="14.00" fill="#000000">pos_categ_id </text>
<text text-anchor="start" x="137.1486" y="-83.9" font-family="Arial" font-size="14.00" fill="#666666">[integer]</text>
<polygon fill="none" stroke="#000000" points="43,-42.5 43,-72.5 345,-72.5 345,-42.5 43,-42.5"/>
<text text-anchor="start" x="50" y="-53.9" font-family="Arial" font-size="14.00" fill="#000000">produce_delay </text>
<text text-anchor="start" x="145.7012" y="-53.9" font-family="Arial" font-size="14.00" fill="#666666">[double precision]</text>
</g>
<!-- public.product_image&#45;&gt;public.product_template -->
<g id="edge1" class="edge">
<title>public.product_image:product_tmpl_id&#45;&gt;public.product_template:id</title>
<path fill="none" stroke="#000000" d="M436.1919,-2105.3549C377.5573,-2077.9657 413.9152,-1797.5 345,-1797.5"/>
<polygon fill="#000000" stroke="#000000" points="436.2309,-2105.3633 445.0385,-2111.8961 441.1155,-2106.4317 446,-2107.5 446,-2107.5 446,-2107.5 441.1155,-2106.4317 446.9615,-2103.1039 436.2309,-2105.3633 436.2309,-2105.3633"/>
<text text-anchor="start" x="14.759" y="-2117.5" font-family="Arial" font-size="10.00" fill="#000000">FOREIGN KEY (product_tmpl_id) REFERENCES product_template(id) ON DELETE SET NULL</text>
</g>
<!-- public.res_users -->
<g id="node3" class="node">
<title>public.res_users</title>
<polygon fill="#efefef" stroke="transparent" points="449,-1257.5 449,-1292.5 725,-1292.5 725,-1257.5 449,-1257.5"/>
<polygon fill="none" stroke="#000000" points="449,-1257.5 449,-1292.5 725,-1292.5 725,-1257.5 449,-1257.5"/>
<text text-anchor="start" x="472.8639" y="-1270.3" font-family="Arial Bold" font-size="18.00" fill="#000000">public.res_users</text>
<text text-anchor="start" x="603.8823" y="-1270.3" font-family="Arial" font-size="14.00" fill="#000000"> </text>
<text text-anchor="start" x="607.7729" y="-1270.3" font-family="Arial" font-size="14.00" fill="#666666">[BASE TABLE]</text>
<polygon fill="none" stroke="#000000" points="449,-1227.5 449,-1257.5 725,-1257.5 725,-1227.5 449,-1227.5"/>
<text text-anchor="start" x="456" y="-1238.9" font-family="Arial" font-size="14.00" fill="#000000">id </text>
<text text-anchor="start" x="470.7798" y="-1238.9" font-family="Arial" font-size="14.00" fill="#666666">[integer]</text>
<polygon fill="none" stroke="#000000" points="449,-1197.5 449,-1227.5 725,-1227.5 725,-1197.5 449,-1197.5"/>
<text text-anchor="start" x="456" y="-1208.9" font-family="Arial" font-size="14.00" fill="#000000">active </text>
<text text-anchor="start" x="496.453" y="-1208.9" font-family="Arial" font-size="14.00" fill="#666666">[boolean]</text>
<polygon fill="none" stroke="#000000" points="449,-1167.5 449,-1197.5 725,-1197.5 725,-1167.5 449,-1167.5"/>
<text text-anchor="start" x="456" y="-1178.9" font-family="Arial" font-size="14.00" fill="#000000">login </text>
<text text-anchor="start" x="489.4516" y="-1178.9" font-family="Arial" font-size="14.00" fill="#666666">[varchar]</text>
<polygon fill="none" stroke="#000000" points="449,-1137.5 449,-1167.5 725,-1167.5 725,-1137.5 449,-1137.5"/>
<text text-anchor="start" x="456" y="-1148.9" font-family="Arial" font-size="14.00" fill="#000000">password </text>
<text text-anchor="start" x="519.7882" y="-1148.9" font-family="Arial" font-size="14.00" fill="#666666">[varchar]</text>
<polygon fill="none" stroke="#000000" points="449,-1107.5 449,-1137.5 725,-1137.5 725,-1107.5 449,-1107.5"/>
<text text-anchor="start" x="456" y="-1118.9" font-family="Arial" font-size="14.00" fill="#000000">company_id </text>
<text text-anchor="start" x="535.3534" y="-1118.9" font-family="Arial" font-size="14.00" fill="#666666">[integer]</text>
<polygon fill="none" stroke="#000000" points="449,-1077.5 449,-1107.5 725,-1107.5 725,-1077.5 449,-1077.5"/>
<text text-anchor="start" x="456" y="-1088.9" font-family="Arial" font-size="14.00" fill="#000000">partner_id </text>
<text text-anchor="start" x="522.9046" y="-1088.9" font-family="Arial" font-size="14.00" fill="#666666">[integer]</text>
<polygon fill="none" stroke="#000000" points="449,-1047.5 449,-1077.5 725,-1077.5 725,-1047.5 449,-1047.5"/>
<text text-anchor="start" x="455.5246" y="-1058.9" font-family="Arial" font-size="14.00" fill="#000000">create_date </text>
<text text-anchor="start" x="533.3352" y="-1058.9" font-family="Arial" font-size="14.00" fill="#666666">[timestamp without time zone]</text>
<polygon fill="none" stroke="#000000" points="449,-1017.5 449,-1047.5 725,-1047.5 725,-1017.5 449,-1017.5"/>
<text text-anchor="start" x="456" y="-1028.9" font-family="Arial" font-size="14.00" fill="#000000">signature </text>
<text text-anchor="start" x="517.4614" y="-1028.9" font-family="Arial" font-size="14.00" fill="#666666">[text]</text>
<polygon fill="none" stroke="#000000" points="449,-987.5 449,-1017.5 725,-1017.5 725,-987.5 449,-987.5"/>
<text text-anchor="start" x="456" y="-998.9" font-family="Arial" font-size="14.00" fill="#000000">action_id </text>
<text text-anchor="start" x="515.9074" y="-998.9" font-family="Arial" font-size="14.00" fill="#666666">[integer]</text>
<polygon fill="none" stroke="#000000" points="449,-957.5 449,-987.5 725,-987.5 725,-957.5 449,-957.5"/>
<text text-anchor="start" x="456" y="-968.9" font-family="Arial" font-size="14.00" fill="#000000">share </text>
<text text-anchor="start" x="494.899" y="-968.9" font-family="Arial" font-size="14.00" fill="#666666">[boolean]</text>
<polygon fill="none" stroke="#000000" points="449,-927.5 449,-957.5 725,-957.5 725,-927.5 449,-927.5"/>
<text text-anchor="start" x="456" y="-938.9" font-family="Arial" font-size="14.00" fill="#000000">create_uid </text>
<text text-anchor="start" x="525.244" y="-938.9" font-family="Arial" font-size="14.00" fill="#666666">[integer]</text>
<polygon fill="none" stroke="#000000" points="449,-897.5 449,-927.5 725,-927.5 725,-897.5 449,-897.5"/>
<text text-anchor="start" x="456" y="-908.9" font-family="Arial" font-size="14.00" fill="#000000">write_uid </text>
<text text-anchor="start" x="515.892" y="-908.9" font-family="Arial" font-size="14.00" fill="#666666">[integer]</text>
<polygon fill="none" stroke="#000000" points="449,-867.5 449,-897.5 725,-897.5 725,-867.5 449,-867.5"/>
<text text-anchor="start" x="456" y="-878.9" font-family="Arial" font-size="14.00" fill="#000000">write_date </text>
<text text-anchor="start" x="524.4586" y="-878.9" font-family="Arial" font-size="14.00" fill="#666666">[timestamp without time zone]</text>
<polygon fill="none" stroke="#000000" points="449,-837.5 449,-867.5 725,-867.5 725,-837.5 449,-837.5"/>
<text text-anchor="start" x="456" y="-848.9" font-family="Arial" font-size="14.00" fill="#000000">alias_id </text>
<text text-anchor="start" x="507.3408" y="-848.9" font-family="Arial" font-size="14.00" fill="#666666">[integer]</text>
<polygon fill="none" stroke="#000000" points="449,-807.5 449,-837.5 725,-837.5 725,-807.5 449,-807.5"/>
<text text-anchor="start" x="456" y="-818.9" font-family="Arial" font-size="14.00" fill="#000000">notification_type </text>
<text text-anchor="start" x="561.0336" y="-818.9" font-family="Arial" font-size="14.00" fill="#666666">[varchar]</text>
<polygon fill="none" stroke="#000000" points="449,-777.5 449,-807.5 725,-807.5 725,-777.5 449,-777.5"/>
<text text-anchor="start" x="456" y="-788.9" font-family="Arial" font-size="14.00" fill="#000000">odoobot_state </text>
<text text-anchor="start" x="548.6058" y="-788.9" font-family="Arial" font-size="14.00" fill="#666666">[varchar]</text>
<polygon fill="none" stroke="#000000" points="449,-747.5 449,-777.5 725,-777.5 725,-747.5 449,-747.5"/>
<text text-anchor="start" x="456" y="-758.9" font-family="Arial" font-size="14.00" fill="#000000">sale_team_id </text>
<text text-anchor="start" x="543.1332" y="-758.9" font-family="Arial" font-size="14.00" fill="#666666">[integer]</text>
<polygon fill="none" stroke="#000000" points="449,-717.5 449,-747.5 725,-747.5 725,-717.5 449,-717.5"/>
<text text-anchor="start" x="456" y="-728.9" font-family="Arial" font-size="14.00" fill="#000000">target_sales_won </text>
<text text-anchor="start" x="569.589" y="-728.9" font-family="Arial" font-size="14.00" fill="#666666">[integer]</text>
<polygon fill="none" stroke="#000000" points="449,-687.5 449,-717.5 725,-717.5 725,-687.5 449,-687.5"/>
<text text-anchor="start" x="456" y="-698.9" font-family="Arial" font-size="14.00" fill="#000000">target_sales_done </text>
<text text-anchor="start" x="575.0476" y="-698.9" font-family="Arial" font-size="14.00" fill="#666666">[integer]</text>
<polygon fill="none" stroke="#000000" points="449,-657.5 449,-687.5 725,-687.5 725,-657.5 449,-657.5"/>
<text text-anchor="start" x="456" y="-668.9" font-family="Arial" font-size="14.00" fill="#000000">website_id </text>
<text text-anchor="start" x="526.014" y="-668.9" font-family="Arial" font-size="14.00" fill="#666666">[integer]</text>
<polygon fill="none" stroke="#000000" points="449,-627.5 449,-657.5 725,-657.5 725,-627.5 449,-627.5"/>
<text text-anchor="start" x="456" y="-638.9" font-family="Arial" font-size="14.00" fill="#000000">target_sales_invoiced </text>
<text text-anchor="start" x="595.2608" y="-638.9" font-family="Arial" font-size="14.00" fill="#666666">[integer]</text>
<polygon fill="none" stroke="#000000" points="449,-597.5 449,-627.5 725,-627.5 725,-597.5 449,-597.5"/>
<text text-anchor="start" x="456" y="-608.9" font-family="Arial" font-size="14.00" fill="#000000">pos_security_pin </text>
<text text-anchor="start" x="564.9158" y="-608.9" font-family="Arial" font-size="14.00" fill="#666666">[varchar(32)]</text>
</g>
<!-- public.product_image&#45;&gt;public.res_users -->
<g id="edge2" class="edge">
<title>public.product_image:create_uid&#45;&gt;public.res_users:id</title>
<path fill="none" stroke="#000000" d="M737.6822,-2074.3083C820.4444,-2018.2484 814.426,-1242.5 725,-1242.5"/>
<polygon fill="#000000" stroke="#000000" points="737.4973,-2074.3692 726.5911,-2073.2262 732.7486,-2075.9346 728,-2077.5 728,-2077.5 728,-2077.5 732.7486,-2075.9346 729.4089,-2081.7738 737.4973,-2074.3692 737.4973,-2074.3692"/>
<text text-anchor="start" x="734.657" y="-2087.5" font-family="Arial" font-size="10.00" fill="#000000">FOREIGN KEY (create_uid) REFERENCES res_users(id) ON DELETE SET NULL</text>
</g>
<!-- public.product_image&#45;&gt;public.res_users -->
<g id="edge3" class="edge">
<title>public.product_image:write_uid&#45;&gt;public.res_users:id</title>
<path fill="none" stroke="#000000" d="M737.6837,-2014.0447C813.7506,-1958.1357 807.748,-1242.5 725,-1242.5"/>
<polygon fill="#000000" stroke="#000000" points="737.4184,-2014.1393 726.4877,-2013.2617 732.7092,-2015.8197 728,-2017.5 728,-2017.5 728,-2017.5 732.7092,-2015.8197 729.5123,-2021.7383 737.4184,-2014.1393 737.4184,-2014.1393"/>
<text text-anchor="start" x="734.997" y="-2027.5" font-family="Arial" font-size="10.00" fill="#000000">FOREIGN KEY (write_uid) REFERENCES res_users(id) ON DELETE SET NULL</text>
</g>
</g>
</svg>
