<?xml version="1.0" encoding="UTF-8" standalone="no"?>
<!DOCTYPE svg PUBLIC "-//W3C//DTD SVG 1.1//EN"
 "http://www.w3.org/Graphics/SVG/1.1/DTD/svg11.dtd">
<!-- Generated by graphviz version 2.40.1 (20161225.0304)
 -->
<!-- Title: public.ir_act_client Pages: 1 -->
<svg width="1087pt" height="1402pt"
 viewBox="0.00 0.00 1087.00 1402.00" xmlns="http://www.w3.org/2000/svg" xmlns:xlink="http://www.w3.org/1999/xlink">
<g id="graph0" class="graph" transform="scale(1 1) rotate(0) translate(4 1398)">
<title>public.ir_act_client</title>
<polygon fill="#ffffff" stroke="transparent" points="-4,4 -4,-1398 1083,-1398 1083,4 -4,4"/>
<!-- public.ir_act_client -->
<g id="node1" class="node">
<title>public.ir_act_client</title>
<polygon fill="#efefef" stroke="transparent" points="423,-1312.5 423,-1347.5 699,-1347.5 699,-1312.5 423,-1312.5"/>
<polygon fill="none" stroke="#000000" points="423,-1312.5 423,-1347.5 699,-1347.5 699,-1312.5 423,-1312.5"/>
<text text-anchor="start" x="438.3634" y="-1325.3" font-family="Arial Bold" font-size="18.00" fill="#000000">public.ir_act_client</text>
<text text-anchor="start" x="586.3828" y="-1325.3" font-family="Arial" font-size="14.00" fill="#000000"> </text>
<text text-anchor="start" x="590.2734" y="-1325.3" font-family="Arial" font-size="14.00" fill="#666666">[BASE TABLE]</text>
<polygon fill="none" stroke="#000000" points="423,-1282.5 423,-1312.5 699,-1312.5 699,-1282.5 423,-1282.5"/>
<text text-anchor="start" x="430" y="-1293.9" font-family="Arial" font-size="14.00" fill="#000000">id </text>
<text text-anchor="start" x="444.7798" y="-1293.9" font-family="Arial" font-size="14.00" fill="#666666">[integer]</text>
<polygon fill="none" stroke="#000000" points="423,-1252.5 423,-1282.5 699,-1282.5 699,-1252.5 423,-1252.5"/>
<text text-anchor="start" x="430" y="-1263.9" font-family="Arial" font-size="14.00" fill="#000000">name </text>
<text text-anchor="start" x="468.899" y="-1263.9" font-family="Arial" font-size="14.00" fill="#666666">[varchar]</text>
<polygon fill="none" stroke="#000000" points="423,-1222.5 423,-1252.5 699,-1252.5 699,-1222.5 423,-1222.5"/>
<text text-anchor="start" x="430" y="-1233.9" font-family="Arial" font-size="14.00" fill="#000000">type </text>
<text text-anchor="start" x="460.3464" y="-1233.9" font-family="Arial" font-size="14.00" fill="#666666">[varchar]</text>
<polygon fill="none" stroke="#000000" points="423,-1192.5 423,-1222.5 699,-1222.5 699,-1192.5 423,-1192.5"/>
<text text-anchor="start" x="430" y="-1203.9" font-family="Arial" font-size="14.00" fill="#000000">help </text>
<text text-anchor="start" x="460.345" y="-1203.9" font-family="Arial" font-size="14.00" fill="#666666">[text]</text>
<polygon fill="none" stroke="#000000" points="423,-1162.5 423,-1192.5 699,-1192.5 699,-1162.5 423,-1162.5"/>
<text text-anchor="start" x="430" y="-1173.9" font-family="Arial" font-size="14.00" fill="#000000">binding_model_id </text>
<text text-anchor="start" x="543.5862" y="-1173.9" font-family="Arial" font-size="14.00" fill="#666666">[integer]</text>
<polygon fill="none" stroke="#000000" points="423,-1132.5 423,-1162.5 699,-1162.5 699,-1132.5 423,-1132.5"/>
<text text-anchor="start" x="430" y="-1143.9" font-family="Arial" font-size="14.00" fill="#000000">binding_type </text>
<text text-anchor="start" x="513.2552" y="-1143.9" font-family="Arial" font-size="14.00" fill="#666666">[varchar]</text>
<polygon fill="none" stroke="#000000" points="423,-1102.5 423,-1132.5 699,-1132.5 699,-1102.5 423,-1102.5"/>
<text text-anchor="start" x="430" y="-1113.9" font-family="Arial" font-size="14.00" fill="#000000">create_uid </text>
<text text-anchor="start" x="499.244" y="-1113.9" font-family="Arial" font-size="14.00" fill="#666666">[integer]</text>
<polygon fill="none" stroke="#000000" points="423,-1072.5 423,-1102.5 699,-1102.5 699,-1072.5 423,-1072.5"/>
<text text-anchor="start" x="429.5246" y="-1083.9" font-family="Arial" font-size="14.00" fill="#000000">create_date </text>
<text text-anchor="start" x="507.3352" y="-1083.9" font-family="Arial" font-size="14.00" fill="#666666">[timestamp without time zone]</text>
<polygon fill="none" stroke="#000000" points="423,-1042.5 423,-1072.5 699,-1072.5 699,-1042.5 423,-1042.5"/>
<text text-anchor="start" x="430" y="-1053.9" font-family="Arial" font-size="14.00" fill="#000000">write_uid </text>
<text text-anchor="start" x="489.892" y="-1053.9" font-family="Arial" font-size="14.00" fill="#666666">[integer]</text>
<polygon fill="none" stroke="#000000" points="423,-1012.5 423,-1042.5 699,-1042.5 699,-1012.5 423,-1012.5"/>
<text text-anchor="start" x="430" y="-1023.9" font-family="Arial" font-size="14.00" fill="#000000">write_date </text>
<text text-anchor="start" x="498.4586" y="-1023.9" font-family="Arial" font-size="14.00" fill="#666666">[timestamp without time zone]</text>
<polygon fill="none" stroke="#000000" points="423,-982.5 423,-1012.5 699,-1012.5 699,-982.5 423,-982.5"/>
<text text-anchor="start" x="430" y="-993.9" font-family="Arial" font-size="14.00" fill="#000000">tag </text>
<text text-anchor="start" x="453.3464" y="-993.9" font-family="Arial" font-size="14.00" fill="#666666">[varchar]</text>
<polygon fill="none" stroke="#000000" points="423,-952.5 423,-982.5 699,-982.5 699,-952.5 423,-952.5"/>
<text text-anchor="start" x="430" y="-963.9" font-family="Arial" font-size="14.00" fill="#000000">target </text>
<text text-anchor="start" x="469.6802" y="-963.9" font-family="Arial" font-size="14.00" fill="#666666">[varchar]</text>
<polygon fill="none" stroke="#000000" points="423,-922.5 423,-952.5 699,-952.5 699,-922.5 423,-922.5"/>
<text text-anchor="start" x="430" y="-933.9" font-family="Arial" font-size="14.00" fill="#000000">res_model </text>
<text text-anchor="start" x="499.2314" y="-933.9" font-family="Arial" font-size="14.00" fill="#666666">[varchar]</text>
<polygon fill="none" stroke="#000000" points="423,-892.5 423,-922.5 699,-922.5 699,-892.5 423,-892.5"/>
<text text-anchor="start" x="430" y="-903.9" font-family="Arial" font-size="14.00" fill="#000000">context </text>
<text text-anchor="start" x="479.0196" y="-903.9" font-family="Arial" font-size="14.00" fill="#666666">[varchar]</text>
<polygon fill="none" stroke="#000000" points="423,-862.5 423,-892.5 699,-892.5 699,-862.5 423,-862.5"/>
<text text-anchor="start" x="430" y="-873.9" font-family="Arial" font-size="14.00" fill="#000000">params_store </text>
<text text-anchor="start" x="519.4586" y="-873.9" font-family="Arial" font-size="14.00" fill="#666666">[bytea]</text>
<polygon fill="none" stroke="#000000" stroke-width="3" points="421.5,-861.5 421.5,-1349.5 700.5,-1349.5 700.5,-861.5 421.5,-861.5"/>
</g>
<!-- public.ir_model -->
<g id="node2" class="node">
<title>public.ir_model</title>
<polygon fill="#efefef" stroke="transparent" points="43,-582.5 43,-617.5 319,-617.5 319,-582.5 43,-582.5"/>
<polygon fill="none" stroke="#000000" points="43,-582.5 43,-617.5 319,-617.5 319,-582.5 43,-582.5"/>
<text text-anchor="start" x="71.8697" y="-595.3" font-family="Arial Bold" font-size="18.00" fill="#000000">public.ir_model</text>
<text text-anchor="start" x="192.8765" y="-595.3" font-family="Arial" font-size="14.00" fill="#000000"> </text>
<text text-anchor="start" x="196.7671" y="-595.3" font-family="Arial" font-size="14.00" fill="#666666">[BASE TABLE]</text>
<polygon fill="none" stroke="#000000" points="43,-552.5 43,-582.5 319,-582.5 319,-552.5 43,-552.5"/>
<text text-anchor="start" x="50" y="-563.9" font-family="Arial" font-size="14.00" fill="#000000">id </text>
<text text-anchor="start" x="64.7798" y="-563.9" font-family="Arial" font-size="14.00" fill="#666666">[integer]</text>
<polygon fill="none" stroke="#000000" points="43,-522.5 43,-552.5 319,-552.5 319,-522.5 43,-522.5"/>
<text text-anchor="start" x="50" y="-533.9" font-family="Arial" font-size="14.00" fill="#000000">name </text>
<text text-anchor="start" x="88.899" y="-533.9" font-family="Arial" font-size="14.00" fill="#666666">[varchar]</text>
<polygon fill="none" stroke="#000000" points="43,-492.5 43,-522.5 319,-522.5 319,-492.5 43,-492.5"/>
<text text-anchor="start" x="50" y="-503.9" font-family="Arial" font-size="14.00" fill="#000000">model </text>
<text text-anchor="start" x="92.0056" y="-503.9" font-family="Arial" font-size="14.00" fill="#666666">[varchar]</text>
<polygon fill="none" stroke="#000000" points="43,-462.5 43,-492.5 319,-492.5 319,-462.5 43,-462.5"/>
<text text-anchor="start" x="50" y="-473.9" font-family="Arial" font-size="14.00" fill="#000000">info </text>
<text text-anchor="start" x="76.453" y="-473.9" font-family="Arial" font-size="14.00" fill="#666666">[text]</text>
<polygon fill="none" stroke="#000000" points="43,-432.5 43,-462.5 319,-462.5 319,-432.5 43,-432.5"/>
<text text-anchor="start" x="50" y="-443.9" font-family="Arial" font-size="14.00" fill="#000000">state </text>
<text text-anchor="start" x="84.237" y="-443.9" font-family="Arial" font-size="14.00" fill="#666666">[varchar]</text>
<polygon fill="none" stroke="#000000" points="43,-402.5 43,-432.5 319,-432.5 319,-402.5 43,-402.5"/>
<text text-anchor="start" x="50" y="-413.9" font-family="Arial" font-size="14.00" fill="#000000">transient </text>
<text text-anchor="start" x="107.5694" y="-413.9" font-family="Arial" font-size="14.00" fill="#666666">[boolean]</text>
<polygon fill="none" stroke="#000000" points="43,-372.5 43,-402.5 319,-402.5 319,-372.5 43,-372.5"/>
<text text-anchor="start" x="50" y="-383.9" font-family="Arial" font-size="14.00" fill="#000000">create_uid </text>
<text text-anchor="start" x="119.244" y="-383.9" font-family="Arial" font-size="14.00" fill="#666666">[integer]</text>
<polygon fill="none" stroke="#000000" points="43,-342.5 43,-372.5 319,-372.5 319,-342.5 43,-342.5"/>
<text text-anchor="start" x="49.5246" y="-353.9" font-family="Arial" font-size="14.00" fill="#000000">create_date </text>
<text text-anchor="start" x="127.3352" y="-353.9" font-family="Arial" font-size="14.00" fill="#666666">[timestamp without time zone]</text>
<polygon fill="none" stroke="#000000" points="43,-312.5 43,-342.5 319,-342.5 319,-312.5 43,-312.5"/>
<text text-anchor="start" x="50" y="-323.9" font-family="Arial" font-size="14.00" fill="#000000">write_uid </text>
<text text-anchor="start" x="109.892" y="-323.9" font-family="Arial" font-size="14.00" fill="#666666">[integer]</text>
<polygon fill="none" stroke="#000000" points="43,-282.5 43,-312.5 319,-312.5 319,-282.5 43,-282.5"/>
<text text-anchor="start" x="50" y="-293.9" font-family="Arial" font-size="14.00" fill="#000000">write_date </text>
<text text-anchor="start" x="118.4586" y="-293.9" font-family="Arial" font-size="14.00" fill="#666666">[timestamp without time zone]</text>
<polygon fill="none" stroke="#000000" points="43,-252.5 43,-282.5 319,-282.5 319,-252.5 43,-252.5"/>
<text text-anchor="start" x="50" y="-263.9" font-family="Arial" font-size="14.00" fill="#000000">is_mail_thread </text>
<text text-anchor="start" x="144.9004" y="-263.9" font-family="Arial" font-size="14.00" fill="#666666">[boolean]</text>
<polygon fill="none" stroke="#000000" points="43,-222.5 43,-252.5 319,-252.5 319,-222.5 43,-222.5"/>
<text text-anchor="start" x="50" y="-233.9" font-family="Arial" font-size="14.00" fill="#000000">website_form_access </text>
<text text-anchor="start" x="188.467" y="-233.9" font-family="Arial" font-size="14.00" fill="#666666">[boolean]</text>
<polygon fill="none" stroke="#000000" points="43,-192.5 43,-222.5 319,-222.5 319,-192.5 43,-192.5"/>
<text text-anchor="start" x="50" y="-203.9" font-family="Arial" font-size="14.00" fill="#000000">website_form_default_field_id </text>
<text text-anchor="start" x="239.0434" y="-203.9" font-family="Arial" font-size="14.00" fill="#666666">[integer]</text>
<polygon fill="none" stroke="#000000" points="43,-162.5 43,-192.5 319,-192.5 319,-162.5 43,-162.5"/>
<text text-anchor="start" x="50" y="-173.9" font-family="Arial" font-size="14.00" fill="#000000">website_form_label </text>
<text text-anchor="start" x="174.4628" y="-173.9" font-family="Arial" font-size="14.00" fill="#666666">[varchar]</text>
</g>
<!-- public.ir_act_client&#45;&gt;public.ir_model -->
<g id="edge1" class="edge">
<title>public.ir_act_client:binding_model_id&#45;&gt;public.ir_model:id</title>
<path fill="none" stroke="#000000" d="M413.636,-1173.279C357.273,-1119.384 384.3986,-567.5 319,-567.5"/>
<polygon fill="#000000" stroke="#000000" points="413.8834,-1173.3904 421.1507,-1181.6025 418.4417,-1175.4452 423,-1177.5 423,-1177.5 423,-1177.5 418.4417,-1175.4452 424.8493,-1173.3975 413.8834,-1173.3904 413.8834,-1173.3904"/>
<text text-anchor="start" x="23.326" y="-1187.5" font-family="Arial" font-size="10.00" fill="#000000">FOREIGN KEY (binding_model_id) REFERENCES ir_model(id) ON DELETE CASCADE</text>
</g>
<!-- public.res_users -->
<g id="node3" class="node">
<title>public.res_users</title>
<polygon fill="#efefef" stroke="transparent" points="423,-702.5 423,-737.5 699,-737.5 699,-702.5 423,-702.5"/>
<polygon fill="none" stroke="#000000" points="423,-702.5 423,-737.5 699,-737.5 699,-702.5 423,-702.5"/>
<text text-anchor="start" x="446.8639" y="-715.3" font-family="Arial Bold" font-size="18.00" fill="#000000">public.res_users</text>
<text text-anchor="start" x="577.8823" y="-715.3" font-family="Arial" font-size="14.00" fill="#000000"> </text>
<text text-anchor="start" x="581.7729" y="-715.3" font-family="Arial" font-size="14.00" fill="#666666">[BASE TABLE]</text>
<polygon fill="none" stroke="#000000" points="423,-672.5 423,-702.5 699,-702.5 699,-672.5 423,-672.5"/>
<text text-anchor="start" x="430" y="-683.9" font-family="Arial" font-size="14.00" fill="#000000">id </text>
<text text-anchor="start" x="444.7798" y="-683.9" font-family="Arial" font-size="14.00" fill="#666666">[integer]</text>
<polygon fill="none" stroke="#000000" points="423,-642.5 423,-672.5 699,-672.5 699,-642.5 423,-642.5"/>
<text text-anchor="start" x="430" y="-653.9" font-family="Arial" font-size="14.00" fill="#000000">active </text>
<text text-anchor="start" x="470.453" y="-653.9" font-family="Arial" font-size="14.00" fill="#666666">[boolean]</text>
<polygon fill="none" stroke="#000000" points="423,-612.5 423,-642.5 699,-642.5 699,-612.5 423,-612.5"/>
<text text-anchor="start" x="430" y="-623.9" font-family="Arial" font-size="14.00" fill="#000000">login </text>
<text text-anchor="start" x="463.4516" y="-623.9" font-family="Arial" font-size="14.00" fill="#666666">[varchar]</text>
<polygon fill="none" stroke="#000000" points="423,-582.5 423,-612.5 699,-612.5 699,-582.5 423,-582.5"/>
<text text-anchor="start" x="430" y="-593.9" font-family="Arial" font-size="14.00" fill="#000000">password </text>
<text text-anchor="start" x="493.7882" y="-593.9" font-family="Arial" font-size="14.00" fill="#666666">[varchar]</text>
<polygon fill="none" stroke="#000000" points="423,-552.5 423,-582.5 699,-582.5 699,-552.5 423,-552.5"/>
<text text-anchor="start" x="430" y="-563.9" font-family="Arial" font-size="14.00" fill="#000000">company_id </text>
<text text-anchor="start" x="509.3534" y="-563.9" font-family="Arial" font-size="14.00" fill="#666666">[integer]</text>
<polygon fill="none" stroke="#000000" points="423,-522.5 423,-552.5 699,-552.5 699,-522.5 423,-522.5"/>
<text text-anchor="start" x="430" y="-533.9" font-family="Arial" font-size="14.00" fill="#000000">partner_id </text>
<text text-anchor="start" x="496.9046" y="-533.9" font-family="Arial" font-size="14.00" fill="#666666">[integer]</text>
<polygon fill="none" stroke="#000000" points="423,-492.5 423,-522.5 699,-522.5 699,-492.5 423,-492.5"/>
<text text-anchor="start" x="429.5246" y="-503.9" font-family="Arial" font-size="14.00" fill="#000000">create_date </text>
<text text-anchor="start" x="507.3352" y="-503.9" font-family="Arial" font-size="14.00" fill="#666666">[timestamp without time zone]</text>
<polygon fill="none" stroke="#000000" points="423,-462.5 423,-492.5 699,-492.5 699,-462.5 423,-462.5"/>
<text text-anchor="start" x="430" y="-473.9" font-family="Arial" font-size="14.00" fill="#000000">signature </text>
<text text-anchor="start" x="491.4614" y="-473.9" font-family="Arial" font-size="14.00" fill="#666666">[text]</text>
<polygon fill="none" stroke="#000000" points="423,-432.5 423,-462.5 699,-462.5 699,-432.5 423,-432.5"/>
<text text-anchor="start" x="430" y="-443.9" font-family="Arial" font-size="14.00" fill="#000000">action_id </text>
<text text-anchor="start" x="489.9074" y="-443.9" font-family="Arial" font-size="14.00" fill="#666666">[integer]</text>
<polygon fill="none" stroke="#000000" points="423,-402.5 423,-432.5 699,-432.5 699,-402.5 423,-402.5"/>
<text text-anchor="start" x="430" y="-413.9" font-family="Arial" font-size="14.00" fill="#000000">share </text>
<text text-anchor="start" x="468.899" y="-413.9" font-family="Arial" font-size="14.00" fill="#666666">[boolean]</text>
<polygon fill="none" stroke="#000000" points="423,-372.5 423,-402.5 699,-402.5 699,-372.5 423,-372.5"/>
<text text-anchor="start" x="430" y="-383.9" font-family="Arial" font-size="14.00" fill="#000000">create_uid </text>
<text text-anchor="start" x="499.244" y="-383.9" font-family="Arial" font-size="14.00" fill="#666666">[integer]</text>
<polygon fill="none" stroke="#000000" points="423,-342.5 423,-372.5 699,-372.5 699,-342.5 423,-342.5"/>
<text text-anchor="start" x="430" y="-353.9" font-family="Arial" font-size="14.00" fill="#000000">write_uid </text>
<text text-anchor="start" x="489.892" y="-353.9" font-family="Arial" font-size="14.00" fill="#666666">[integer]</text>
<polygon fill="none" stroke="#000000" points="423,-312.5 423,-342.5 699,-342.5 699,-312.5 423,-312.5"/>
<text text-anchor="start" x="430" y="-323.9" font-family="Arial" font-size="14.00" fill="#000000">write_date </text>
<text text-anchor="start" x="498.4586" y="-323.9" font-family="Arial" font-size="14.00" fill="#666666">[timestamp without time zone]</text>
<polygon fill="none" stroke="#000000" points="423,-282.5 423,-312.5 699,-312.5 699,-282.5 423,-282.5"/>
<text text-anchor="start" x="430" y="-293.9" font-family="Arial" font-size="14.00" fill="#000000">alias_id </text>
<text text-anchor="start" x="481.3408" y="-293.9" font-family="Arial" font-size="14.00" fill="#666666">[integer]</text>
<polygon fill="none" stroke="#000000" points="423,-252.5 423,-282.5 699,-282.5 699,-252.5 423,-252.5"/>
<text text-anchor="start" x="430" y="-263.9" font-family="Arial" font-size="14.00" fill="#000000">notification_type </text>
<text text-anchor="start" x="535.0336" y="-263.9" font-family="Arial" font-size="14.00" fill="#666666">[varchar]</text>
<polygon fill="none" stroke="#000000" points="423,-222.5 423,-252.5 699,-252.5 699,-222.5 423,-222.5"/>
<text text-anchor="start" x="430" y="-233.9" font-family="Arial" font-size="14.00" fill="#000000">odoobot_state </text>
<text text-anchor="start" x="522.6058" y="-233.9" font-family="Arial" font-size="14.00" fill="#666666">[varchar]</text>
<polygon fill="none" stroke="#000000" points="423,-192.5 423,-222.5 699,-222.5 699,-192.5 423,-192.5"/>
<text text-anchor="start" x="430" y="-203.9" font-family="Arial" font-size="14.00" fill="#000000">sale_team_id </text>
<text text-anchor="start" x="517.1332" y="-203.9" font-family="Arial" font-size="14.00" fill="#666666">[integer]</text>
<polygon fill="none" stroke="#000000" points="423,-162.5 423,-192.5 699,-192.5 699,-162.5 423,-162.5"/>
<text text-anchor="start" x="430" y="-173.9" font-family="Arial" font-size="14.00" fill="#000000">target_sales_won </text>
<text text-anchor="start" x="543.589" y="-173.9" font-family="Arial" font-size="14.00" fill="#666666">[integer]</text>
<polygon fill="none" stroke="#000000" points="423,-132.5 423,-162.5 699,-162.5 699,-132.5 423,-132.5"/>
<text text-anchor="start" x="430" y="-143.9" font-family="Arial" font-size="14.00" fill="#000000">target_sales_done </text>
<text text-anchor="start" x="549.0476" y="-143.9" font-family="Arial" font-size="14.00" fill="#666666">[integer]</text>
<polygon fill="none" stroke="#000000" points="423,-102.5 423,-132.5 699,-132.5 699,-102.5 423,-102.5"/>
<text text-anchor="start" x="430" y="-113.9" font-family="Arial" font-size="14.00" fill="#000000">website_id </text>
<text text-anchor="start" x="500.014" y="-113.9" font-family="Arial" font-size="14.00" fill="#666666">[integer]</text>
<polygon fill="none" stroke="#000000" points="423,-72.5 423,-102.5 699,-102.5 699,-72.5 423,-72.5"/>
<text text-anchor="start" x="430" y="-83.9" font-family="Arial" font-size="14.00" fill="#000000">target_sales_invoiced </text>
<text text-anchor="start" x="569.2608" y="-83.9" font-family="Arial" font-size="14.00" fill="#666666">[integer]</text>
<polygon fill="none" stroke="#000000" points="423,-42.5 423,-72.5 699,-72.5 699,-42.5 423,-42.5"/>
<text text-anchor="start" x="430" y="-53.9" font-family="Arial" font-size="14.00" fill="#000000">pos_security_pin </text>
<text text-anchor="start" x="538.9158" y="-53.9" font-family="Arial" font-size="14.00" fill="#666666">[varchar(32)]</text>
</g>
<!-- public.ir_act_client&#45;&gt;public.res_users -->
<g id="edge2" class="edge">
<title>public.ir_act_client:create_uid&#45;&gt;public.res_users:id</title>
<path fill="none" stroke="#000000" d="M708.9838,-1115.8564C794.4308,-1086.9872 791.1029,-687.5 699,-687.5"/>
<polygon fill="#000000" stroke="#000000" points="708.8672,-1115.8755 698.269,-1113.0598 703.9336,-1116.6877 699,-1117.5 699,-1117.5 699,-1117.5 703.9336,-1116.6877 699.731,-1121.9402 708.8672,-1115.8755 708.8672,-1115.8755"/>
<text text-anchor="start" x="705.657" y="-1127.5" font-family="Arial" font-size="10.00" fill="#000000">FOREIGN KEY (create_uid) REFERENCES res_users(id) ON DELETE SET NULL</text>
</g>
<!-- public.ir_act_client&#45;&gt;public.res_users -->
<g id="edge3" class="edge">
<title>public.ir_act_client:write_uid&#45;&gt;public.res_users:id</title>
<path fill="none" stroke="#000000" d="M709.1435,-1055.5093C781.0704,-1026.3863 777.6892,-687.5 699,-687.5"/>
<polygon fill="#000000" stroke="#000000" points="708.8128,-1055.5741 698.1334,-1053.0842 703.9064,-1056.5371 699,-1057.5 699,-1057.5 699,-1057.5 703.9064,-1056.5371 699.8666,-1061.9158 708.8128,-1055.5741 708.8128,-1055.5741"/>
<text text-anchor="start" x="705.997" y="-1067.5" font-family="Arial" font-size="10.00" fill="#000000">FOREIGN KEY (write_uid) REFERENCES res_users(id) ON DELETE SET NULL</text>
</g>
</g>
</svg>
