<?xml version="1.0" encoding="UTF-8" standalone="no"?>
<!DOCTYPE svg PUBLIC "-//W3C//DTD SVG 1.1//EN"
 "http://www.w3.org/Graphics/SVG/1.1/DTD/svg11.dtd">
<!-- Generated by graphviz version 2.40.1 (20161225.0304)
 -->
<!-- Title: public.res_groups_implied_rel Pages: 1 -->
<svg width="891pt" height="652pt"
 viewBox="0.00 0.00 891.00 652.00" xmlns="http://www.w3.org/2000/svg" xmlns:xlink="http://www.w3.org/1999/xlink">
<g id="graph0" class="graph" transform="scale(1 1) rotate(0) translate(4 648)">
<title>public.res_groups_implied_rel</title>
<polygon fill="#ffffff" stroke="transparent" points="-4,4 -4,-648 887,-648 887,4 -4,4"/>
<!-- public.res_groups_implied_rel -->
<g id="node1" class="node">
<title>public.res_groups_implied_rel</title>
<polygon fill="#efefef" stroke="transparent" points="179,-562.5 179,-597.5 529,-597.5 529,-562.5 179,-562.5"/>
<polygon fill="none" stroke="#000000" points="179,-562.5 179,-597.5 529,-597.5 529,-562.5 179,-562.5"/>
<text text-anchor="start" x="185.8585" y="-575.3" font-family="Arial Bold" font-size="18.00" fill="#000000">public.res_groups_implied_rel</text>
<text text-anchor="start" x="424.8877" y="-575.3" font-family="Arial" font-size="14.00" fill="#000000"> </text>
<text text-anchor="start" x="428.7783" y="-575.3" font-family="Arial" font-size="14.00" fill="#666666">[BASE TABLE]</text>
<polygon fill="none" stroke="#000000" points="179,-532.5 179,-562.5 529,-562.5 529,-532.5 179,-532.5"/>
<text text-anchor="start" x="186" y="-543.9" font-family="Arial" font-size="14.00" fill="#000000">gid </text>
<text text-anchor="start" x="208.5624" y="-543.9" font-family="Arial" font-size="14.00" fill="#666666">[integer]</text>
<polygon fill="none" stroke="#000000" points="179,-502.5 179,-532.5 529,-532.5 529,-502.5 179,-502.5"/>
<text text-anchor="start" x="186" y="-513.9" font-family="Arial" font-size="14.00" fill="#000000">hid </text>
<text text-anchor="start" x="208.5624" y="-513.9" font-family="Arial" font-size="14.00" fill="#666666">[integer]</text>
<polygon fill="none" stroke="#000000" stroke-width="3" points="177.5,-501.5 177.5,-599.5 530.5,-599.5 530.5,-501.5 177.5,-501.5"/>
</g>
<!-- public.res_groups -->
<g id="node2" class="node">
<title>public.res_groups</title>
<polygon fill="#efefef" stroke="transparent" points="216,-342.5 216,-377.5 492,-377.5 492,-342.5 216,-342.5"/>
<polygon fill="none" stroke="#000000" points="216,-342.5 216,-377.5 492,-377.5 492,-342.5 216,-342.5"/>
<text text-anchor="start" x="234.3577" y="-355.3" font-family="Arial Bold" font-size="18.00" fill="#000000">public.res_groups</text>
<text text-anchor="start" x="376.3885" y="-355.3" font-family="Arial" font-size="14.00" fill="#000000"> </text>
<text text-anchor="start" x="380.2791" y="-355.3" font-family="Arial" font-size="14.00" fill="#666666">[BASE TABLE]</text>
<polygon fill="none" stroke="#000000" points="216,-312.5 216,-342.5 492,-342.5 492,-312.5 216,-312.5"/>
<text text-anchor="start" x="223" y="-323.9" font-family="Arial" font-size="14.00" fill="#000000">id </text>
<text text-anchor="start" x="237.7798" y="-323.9" font-family="Arial" font-size="14.00" fill="#666666">[integer]</text>
<polygon fill="none" stroke="#000000" points="216,-282.5 216,-312.5 492,-312.5 492,-282.5 216,-282.5"/>
<text text-anchor="start" x="223" y="-293.9" font-family="Arial" font-size="14.00" fill="#000000">name </text>
<text text-anchor="start" x="261.899" y="-293.9" font-family="Arial" font-size="14.00" fill="#666666">[varchar]</text>
<polygon fill="none" stroke="#000000" points="216,-252.5 216,-282.5 492,-282.5 492,-252.5 216,-252.5"/>
<text text-anchor="start" x="223" y="-263.9" font-family="Arial" font-size="14.00" fill="#000000">comment </text>
<text text-anchor="start" x="284.4502" y="-263.9" font-family="Arial" font-size="14.00" fill="#666666">[text]</text>
<polygon fill="none" stroke="#000000" points="216,-222.5 216,-252.5 492,-252.5 492,-222.5 216,-222.5"/>
<text text-anchor="start" x="223" y="-233.9" font-family="Arial" font-size="14.00" fill="#000000">category_id </text>
<text text-anchor="start" x="299.244" y="-233.9" font-family="Arial" font-size="14.00" fill="#666666">[integer]</text>
<polygon fill="none" stroke="#000000" points="216,-192.5 216,-222.5 492,-222.5 492,-192.5 216,-192.5"/>
<text text-anchor="start" x="223" y="-203.9" font-family="Arial" font-size="14.00" fill="#000000">color </text>
<text text-anchor="start" x="257.223" y="-203.9" font-family="Arial" font-size="14.00" fill="#666666">[integer]</text>
<polygon fill="none" stroke="#000000" points="216,-162.5 216,-192.5 492,-192.5 492,-162.5 216,-162.5"/>
<text text-anchor="start" x="223" y="-173.9" font-family="Arial" font-size="14.00" fill="#000000">share </text>
<text text-anchor="start" x="261.899" y="-173.9" font-family="Arial" font-size="14.00" fill="#666666">[boolean]</text>
<polygon fill="none" stroke="#000000" points="216,-132.5 216,-162.5 492,-162.5 492,-132.5 216,-132.5"/>
<text text-anchor="start" x="223" y="-143.9" font-family="Arial" font-size="14.00" fill="#000000">create_uid </text>
<text text-anchor="start" x="292.244" y="-143.9" font-family="Arial" font-size="14.00" fill="#666666">[integer]</text>
<polygon fill="none" stroke="#000000" points="216,-102.5 216,-132.5 492,-132.5 492,-102.5 216,-102.5"/>
<text text-anchor="start" x="222.5246" y="-113.9" font-family="Arial" font-size="14.00" fill="#000000">create_date </text>
<text text-anchor="start" x="300.3352" y="-113.9" font-family="Arial" font-size="14.00" fill="#666666">[timestamp without time zone]</text>
<polygon fill="none" stroke="#000000" points="216,-72.5 216,-102.5 492,-102.5 492,-72.5 216,-72.5"/>
<text text-anchor="start" x="223" y="-83.9" font-family="Arial" font-size="14.00" fill="#000000">write_uid </text>
<text text-anchor="start" x="282.892" y="-83.9" font-family="Arial" font-size="14.00" fill="#666666">[integer]</text>
<polygon fill="none" stroke="#000000" points="216,-42.5 216,-72.5 492,-72.5 492,-42.5 216,-42.5"/>
<text text-anchor="start" x="223" y="-53.9" font-family="Arial" font-size="14.00" fill="#000000">write_date </text>
<text text-anchor="start" x="291.4586" y="-53.9" font-family="Arial" font-size="14.00" fill="#666666">[timestamp without time zone]</text>
</g>
<!-- public.res_groups_implied_rel&#45;&gt;public.res_groups -->
<g id="edge1" class="edge">
<title>public.res_groups_implied_rel:gid&#45;&gt;public.res_groups:id</title>
<path fill="none" stroke="#000000" d="M539.218,-546.6591C625.396,-531.8888 587.5684,-327.5 492,-327.5"/>
<polygon fill="#000000" stroke="#000000" points="538.9663,-546.6797 528.6309,-543.0152 533.9832,-547.0899 529,-547.5 529,-547.5 529,-547.5 533.9832,-547.0899 529.3691,-551.9848 538.9663,-546.6797 538.9663,-546.6797"/>
<text text-anchor="start" x="535.9945" y="-557.5" font-family="Arial" font-size="10.00" fill="#000000">FOREIGN KEY (gid) REFERENCES res_groups(id) ON DELETE CASCADE</text>
</g>
<!-- public.res_groups_implied_rel&#45;&gt;public.res_groups -->
<g id="edge2" class="edge">
<title>public.res_groups_implied_rel:hid&#45;&gt;public.res_groups:id</title>
<path fill="none" stroke="#000000" d="M354.8318,-492.2211C364.6431,-436.3952 458.5514,-479.6003 492,-421 512.6,-384.9098 533.5556,-327.5 492,-327.5"/>
<polygon fill="#000000" stroke="#000000" points="354.8067,-492.5326 349.5147,-502.137 354.4033,-497.5163 354,-502.5 354,-502.5 354,-502.5 354.4033,-497.5163 358.4853,-502.863 354.8067,-492.5326 354.8067,-492.5326"/>
<text text-anchor="start" x="6.9945" y="-512.5" font-family="Arial" font-size="10.00" fill="#000000">FOREIGN KEY (hid) REFERENCES res_groups(id) ON DELETE CASCADE</text>
</g>
</g>
</svg>
