<?xml version="1.0" encoding="UTF-8" standalone="no"?>
<!DOCTYPE svg PUBLIC "-//W3C//DTD SVG 1.1//EN"
 "http://www.w3.org/Graphics/SVG/1.1/DTD/svg11.dtd">
<!-- Generated by graphviz version 2.40.1 (20161225.0304)
 -->
<!-- Title: public.mail_wizard_invite_res_partner_rel Pages: 1 -->
<svg width="1323pt" height="2422pt"
 viewBox="0.00 0.00 1323.00 2422.00" xmlns="http://www.w3.org/2000/svg" xmlns:xlink="http://www.w3.org/1999/xlink">
<g id="graph0" class="graph" transform="scale(1 1) rotate(0) translate(4 2418)">
<title>public.mail_wizard_invite_res_partner_rel</title>
<polygon fill="#ffffff" stroke="transparent" points="-4,4 -4,-2418 1319,-2418 1319,4 -4,4"/>
<!-- public.mail_wizard_invite_res_partner_rel -->
<g id="node1" class="node">
<title>public.mail_wizard_invite_res_partner_rel</title>
<polygon fill="#efefef" stroke="transparent" points="467,-2332.5 467,-2367.5 909,-2367.5 909,-2332.5 467,-2332.5"/>
<polygon fill="none" stroke="#000000" points="467,-2332.5 467,-2367.5 909,-2367.5 909,-2332.5 467,-2332.5"/>
<text text-anchor="start" x="473.8604" y="-2345.3" font-family="Arial Bold" font-size="18.00" fill="#000000">public.mail_wizard_invite_res_partner_rel</text>
<text text-anchor="start" x="804.8858" y="-2345.3" font-family="Arial" font-size="14.00" fill="#000000"> </text>
<text text-anchor="start" x="808.7764" y="-2345.3" font-family="Arial" font-size="14.00" fill="#666666">[BASE TABLE]</text>
<polygon fill="none" stroke="#000000" points="467,-2302.5 467,-2332.5 909,-2332.5 909,-2302.5 467,-2302.5"/>
<text text-anchor="start" x="474" y="-2313.9" font-family="Arial" font-size="14.00" fill="#000000">mail_wizard_invite_id </text>
<text text-anchor="start" x="610.892" y="-2313.9" font-family="Arial" font-size="14.00" fill="#666666">[integer]</text>
<polygon fill="none" stroke="#000000" points="467,-2272.5 467,-2302.5 909,-2302.5 909,-2272.5 467,-2272.5"/>
<text text-anchor="start" x="474" y="-2283.9" font-family="Arial" font-size="14.00" fill="#000000">res_partner_id </text>
<text text-anchor="start" x="568.1304" y="-2283.9" font-family="Arial" font-size="14.00" fill="#666666">[integer]</text>
<polygon fill="none" stroke="#000000" stroke-width="3" points="465.5,-2271.5 465.5,-2369.5 910.5,-2369.5 910.5,-2271.5 465.5,-2271.5"/>
</g>
<!-- public.mail_wizard_invite -->
<g id="node2" class="node">
<title>public.mail_wizard_invite</title>
<polygon fill="#efefef" stroke="transparent" points="312,-1212.5 312,-1247.5 622,-1247.5 622,-1212.5 312,-1212.5"/>
<polygon fill="none" stroke="#000000" points="312,-1212.5 312,-1247.5 622,-1247.5 622,-1212.5 312,-1212.5"/>
<text text-anchor="start" x="318.8709" y="-1225.3" font-family="Arial Bold" font-size="18.00" fill="#000000">public.mail_wizard_invite</text>
<text text-anchor="start" x="517.8753" y="-1225.3" font-family="Arial" font-size="14.00" fill="#000000"> </text>
<text text-anchor="start" x="521.7659" y="-1225.3" font-family="Arial" font-size="14.00" fill="#666666">[BASE TABLE]</text>
<polygon fill="none" stroke="#000000" points="312,-1182.5 312,-1212.5 622,-1212.5 622,-1182.5 312,-1182.5"/>
<text text-anchor="start" x="319" y="-1193.9" font-family="Arial" font-size="14.00" fill="#000000">id </text>
<text text-anchor="start" x="333.7798" y="-1193.9" font-family="Arial" font-size="14.00" fill="#666666">[integer]</text>
<polygon fill="none" stroke="#000000" points="312,-1152.5 312,-1182.5 622,-1182.5 622,-1152.5 312,-1152.5"/>
<text text-anchor="start" x="319" y="-1163.9" font-family="Arial" font-size="14.00" fill="#000000">res_model </text>
<text text-anchor="start" x="388.2314" y="-1163.9" font-family="Arial" font-size="14.00" fill="#666666">[varchar]</text>
<polygon fill="none" stroke="#000000" points="312,-1122.5 312,-1152.5 622,-1152.5 622,-1122.5 312,-1122.5"/>
<text text-anchor="start" x="319" y="-1133.9" font-family="Arial" font-size="14.00" fill="#000000">res_id </text>
<text text-anchor="start" x="361.0056" y="-1133.9" font-family="Arial" font-size="14.00" fill="#666666">[integer]</text>
<polygon fill="none" stroke="#000000" points="312,-1092.5 312,-1122.5 622,-1122.5 622,-1092.5 312,-1092.5"/>
<text text-anchor="start" x="319" y="-1103.9" font-family="Arial" font-size="14.00" fill="#000000">message </text>
<text text-anchor="start" x="379.6816" y="-1103.9" font-family="Arial" font-size="14.00" fill="#666666">[text]</text>
<polygon fill="none" stroke="#000000" points="312,-1062.5 312,-1092.5 622,-1092.5 622,-1062.5 312,-1062.5"/>
<text text-anchor="start" x="319" y="-1073.9" font-family="Arial" font-size="14.00" fill="#000000">send_mail </text>
<text text-anchor="start" x="386.6774" y="-1073.9" font-family="Arial" font-size="14.00" fill="#666666">[boolean]</text>
<polygon fill="none" stroke="#000000" points="312,-1032.5 312,-1062.5 622,-1062.5 622,-1032.5 312,-1032.5"/>
<text text-anchor="start" x="319" y="-1043.9" font-family="Arial" font-size="14.00" fill="#000000">create_uid </text>
<text text-anchor="start" x="388.244" y="-1043.9" font-family="Arial" font-size="14.00" fill="#666666">[integer]</text>
<polygon fill="none" stroke="#000000" points="312,-1002.5 312,-1032.5 622,-1032.5 622,-1002.5 312,-1002.5"/>
<text text-anchor="start" x="319" y="-1013.9" font-family="Arial" font-size="14.00" fill="#000000">create_date </text>
<text text-anchor="start" x="396.8106" y="-1013.9" font-family="Arial" font-size="14.00" fill="#666666">[timestamp without time zone]</text>
<polygon fill="none" stroke="#000000" points="312,-972.5 312,-1002.5 622,-1002.5 622,-972.5 312,-972.5"/>
<text text-anchor="start" x="319" y="-983.9" font-family="Arial" font-size="14.00" fill="#000000">write_uid </text>
<text text-anchor="start" x="378.892" y="-983.9" font-family="Arial" font-size="14.00" fill="#666666">[integer]</text>
<polygon fill="none" stroke="#000000" points="312,-942.5 312,-972.5 622,-972.5 622,-942.5 312,-942.5"/>
<text text-anchor="start" x="319" y="-953.9" font-family="Arial" font-size="14.00" fill="#000000">write_date </text>
<text text-anchor="start" x="387.4586" y="-953.9" font-family="Arial" font-size="14.00" fill="#666666">[timestamp without time zone]</text>
</g>
<!-- public.mail_wizard_invite_res_partner_rel&#45;&gt;public.mail_wizard_invite -->
<g id="edge1" class="edge">
<title>public.mail_wizard_invite_res_partner_rel:mail_wizard_invite_id&#45;&gt;public.mail_wizard_invite:id</title>
<path fill="none" stroke="#000000" d="M457.3011,-2314.6724C364.7173,-2252.8363 743.9499,-1197.5 622,-1197.5"/>
<polygon fill="#000000" stroke="#000000" points="457.3997,-2314.7011 465.7405,-2321.8202 462.1998,-2316.1005 467,-2317.5 467,-2317.5 467,-2317.5 462.1998,-2316.1005 468.2595,-2313.1798 457.3997,-2314.7011 457.3997,-2314.7011"/>
<text text-anchor="start" x="7.3365" y="-2327.5" font-family="Arial" font-size="10.00" fill="#000000">FOREIGN KEY (mail_wizard_invite_id) REFERENCES mail_wizard_invite(id) ON DELETE CASCADE</text>
</g>
<!-- public.res_partner -->
<g id="node3" class="node">
<title>public.res_partner</title>
<polygon fill="#efefef" stroke="transparent" points="726,-2112.5 726,-2147.5 1094,-2147.5 1094,-2112.5 726,-2112.5"/>
<polygon fill="none" stroke="#000000" points="726,-2112.5 726,-2147.5 1094,-2147.5 1094,-2112.5 726,-2112.5"/>
<text text-anchor="start" x="789.3605" y="-2125.3" font-family="Arial Bold" font-size="18.00" fill="#000000">public.res_partner</text>
<text text-anchor="start" x="933.3857" y="-2125.3" font-family="Arial" font-size="14.00" fill="#000000"> </text>
<text text-anchor="start" x="937.2763" y="-2125.3" font-family="Arial" font-size="14.00" fill="#666666">[BASE TABLE]</text>
<polygon fill="none" stroke="#000000" points="726,-2082.5 726,-2112.5 1094,-2112.5 1094,-2082.5 726,-2082.5"/>
<text text-anchor="start" x="733" y="-2093.9" font-family="Arial" font-size="14.00" fill="#000000">id </text>
<text text-anchor="start" x="747.7798" y="-2093.9" font-family="Arial" font-size="14.00" fill="#666666">[integer]</text>
<polygon fill="none" stroke="#000000" points="726,-2052.5 726,-2082.5 1094,-2082.5 1094,-2052.5 726,-2052.5"/>
<text text-anchor="start" x="733" y="-2063.9" font-family="Arial" font-size="14.00" fill="#000000">name </text>
<text text-anchor="start" x="771.899" y="-2063.9" font-family="Arial" font-size="14.00" fill="#666666">[varchar]</text>
<polygon fill="none" stroke="#000000" points="726,-2022.5 726,-2052.5 1094,-2052.5 1094,-2022.5 726,-2022.5"/>
<text text-anchor="start" x="733" y="-2033.9" font-family="Arial" font-size="14.00" fill="#000000">company_id </text>
<text text-anchor="start" x="812.3534" y="-2033.9" font-family="Arial" font-size="14.00" fill="#666666">[integer]</text>
<polygon fill="none" stroke="#000000" points="726,-1992.5 726,-2022.5 1094,-2022.5 1094,-1992.5 726,-1992.5"/>
<text text-anchor="start" x="733" y="-2003.9" font-family="Arial" font-size="14.00" fill="#000000">create_date </text>
<text text-anchor="start" x="810.8106" y="-2003.9" font-family="Arial" font-size="14.00" fill="#666666">[timestamp without time zone]</text>
<polygon fill="none" stroke="#000000" points="726,-1962.5 726,-1992.5 1094,-1992.5 1094,-1962.5 726,-1962.5"/>
<text text-anchor="start" x="733" y="-1973.9" font-family="Arial" font-size="14.00" fill="#000000">display_name </text>
<text text-anchor="start" x="823.2426" y="-1973.9" font-family="Arial" font-size="14.00" fill="#666666">[varchar]</text>
<polygon fill="none" stroke="#000000" points="726,-1932.5 726,-1962.5 1094,-1962.5 1094,-1932.5 726,-1932.5"/>
<text text-anchor="start" x="733" y="-1943.9" font-family="Arial" font-size="14.00" fill="#000000">date </text>
<text text-anchor="start" x="764.129" y="-1943.9" font-family="Arial" font-size="14.00" fill="#666666">[date]</text>
<polygon fill="none" stroke="#000000" points="726,-1902.5 726,-1932.5 1094,-1932.5 1094,-1902.5 726,-1902.5"/>
<text text-anchor="start" x="733" y="-1913.9" font-family="Arial" font-size="14.00" fill="#000000">title </text>
<text text-anchor="start" x="758.6676" y="-1913.9" font-family="Arial" font-size="14.00" fill="#666666">[integer]</text>
<polygon fill="none" stroke="#000000" points="726,-1872.5 726,-1902.5 1094,-1902.5 1094,-1872.5 726,-1872.5"/>
<text text-anchor="start" x="733" y="-1883.9" font-family="Arial" font-size="14.00" fill="#000000">parent_id </text>
<text text-anchor="start" x="795.244" y="-1883.9" font-family="Arial" font-size="14.00" fill="#666666">[integer]</text>
<polygon fill="none" stroke="#000000" points="726,-1842.5 726,-1872.5 1094,-1872.5 1094,-1842.5 726,-1842.5"/>
<text text-anchor="start" x="733" y="-1853.9" font-family="Arial" font-size="14.00" fill="#000000">ref </text>
<text text-anchor="start" x="753.2244" y="-1853.9" font-family="Arial" font-size="14.00" fill="#666666">[varchar]</text>
<polygon fill="none" stroke="#000000" points="726,-1812.5 726,-1842.5 1094,-1842.5 1094,-1812.5 726,-1812.5"/>
<text text-anchor="start" x="733" y="-1823.9" font-family="Arial" font-size="14.00" fill="#000000">lang </text>
<text text-anchor="start" x="763.345" y="-1823.9" font-family="Arial" font-size="14.00" fill="#666666">[varchar]</text>
<polygon fill="none" stroke="#000000" points="726,-1782.5 726,-1812.5 1094,-1812.5 1094,-1782.5 726,-1782.5"/>
<text text-anchor="start" x="733" y="-1793.9" font-family="Arial" font-size="14.00" fill="#000000">tz </text>
<text text-anchor="start" x="747.7812" y="-1793.9" font-family="Arial" font-size="14.00" fill="#666666">[varchar]</text>
<polygon fill="none" stroke="#000000" points="726,-1752.5 726,-1782.5 1094,-1782.5 1094,-1752.5 726,-1752.5"/>
<text text-anchor="start" x="733" y="-1763.9" font-family="Arial" font-size="14.00" fill="#000000">user_id </text>
<text text-anchor="start" x="782.7882" y="-1763.9" font-family="Arial" font-size="14.00" fill="#666666">[integer]</text>
<polygon fill="none" stroke="#000000" points="726,-1722.5 726,-1752.5 1094,-1752.5 1094,-1722.5 726,-1722.5"/>
<text text-anchor="start" x="733" y="-1733.9" font-family="Arial" font-size="14.00" fill="#000000">vat </text>
<text text-anchor="start" x="755.5638" y="-1733.9" font-family="Arial" font-size="14.00" fill="#666666">[varchar]</text>
<polygon fill="none" stroke="#000000" points="726,-1692.5 726,-1722.5 1094,-1722.5 1094,-1692.5 726,-1692.5"/>
<text text-anchor="start" x="733" y="-1703.9" font-family="Arial" font-size="14.00" fill="#000000">website </text>
<text text-anchor="start" x="784.3422" y="-1703.9" font-family="Arial" font-size="14.00" fill="#666666">[varchar]</text>
<polygon fill="none" stroke="#000000" points="726,-1662.5 726,-1692.5 1094,-1692.5 1094,-1662.5 726,-1662.5"/>
<text text-anchor="start" x="733" y="-1673.9" font-family="Arial" font-size="14.00" fill="#000000">comment </text>
<text text-anchor="start" x="794.4502" y="-1673.9" font-family="Arial" font-size="14.00" fill="#666666">[text]</text>
<polygon fill="none" stroke="#000000" points="726,-1632.5 726,-1662.5 1094,-1662.5 1094,-1632.5 726,-1632.5"/>
<text text-anchor="start" x="733" y="-1643.9" font-family="Arial" font-size="14.00" fill="#000000">credit_limit </text>
<text text-anchor="start" x="803.7672" y="-1643.9" font-family="Arial" font-size="14.00" fill="#666666">[double precision]</text>
<polygon fill="none" stroke="#000000" points="726,-1602.5 726,-1632.5 1094,-1632.5 1094,-1602.5 726,-1602.5"/>
<text text-anchor="start" x="733" y="-1613.9" font-family="Arial" font-size="14.00" fill="#000000">barcode </text>
<text text-anchor="start" x="787.4642" y="-1613.9" font-family="Arial" font-size="14.00" fill="#666666">[varchar]</text>
<polygon fill="none" stroke="#000000" points="726,-1572.5 726,-1602.5 1094,-1602.5 1094,-1572.5 726,-1572.5"/>
<text text-anchor="start" x="733" y="-1583.9" font-family="Arial" font-size="14.00" fill="#000000">active </text>
<text text-anchor="start" x="773.453" y="-1583.9" font-family="Arial" font-size="14.00" fill="#666666">[boolean]</text>
<polygon fill="none" stroke="#000000" points="726,-1542.5 726,-1572.5 1094,-1572.5 1094,-1542.5 726,-1542.5"/>
<text text-anchor="start" x="733" y="-1553.9" font-family="Arial" font-size="14.00" fill="#000000">customer </text>
<text text-anchor="start" x="794.4502" y="-1553.9" font-family="Arial" font-size="14.00" fill="#666666">[boolean]</text>
<polygon fill="none" stroke="#000000" points="726,-1512.5 726,-1542.5 1094,-1542.5 1094,-1512.5 726,-1512.5"/>
<text text-anchor="start" x="733" y="-1523.9" font-family="Arial" font-size="14.00" fill="#000000">supplier </text>
<text text-anchor="start" x="785.8948" y="-1523.9" font-family="Arial" font-size="14.00" fill="#666666">[boolean]</text>
<polygon fill="none" stroke="#000000" points="726,-1482.5 726,-1512.5 1094,-1512.5 1094,-1482.5 726,-1482.5"/>
<text text-anchor="start" x="733" y="-1493.9" font-family="Arial" font-size="14.00" fill="#000000">employee </text>
<text text-anchor="start" x="797.5708" y="-1493.9" font-family="Arial" font-size="14.00" fill="#666666">[boolean]</text>
<polygon fill="none" stroke="#000000" points="726,-1452.5 726,-1482.5 1094,-1482.5 1094,-1452.5 726,-1452.5"/>
<text text-anchor="start" x="733" y="-1463.9" font-family="Arial" font-size="14.00" fill="#000000">function </text>
<text text-anchor="start" x="785.9088" y="-1463.9" font-family="Arial" font-size="14.00" fill="#666666">[varchar]</text>
<polygon fill="none" stroke="#000000" points="726,-1422.5 726,-1452.5 1094,-1452.5 1094,-1422.5 726,-1422.5"/>
<text text-anchor="start" x="733" y="-1433.9" font-family="Arial" font-size="14.00" fill="#000000">type </text>
<text text-anchor="start" x="763.3464" y="-1433.9" font-family="Arial" font-size="14.00" fill="#666666">[varchar]</text>
<polygon fill="none" stroke="#000000" points="726,-1392.5 726,-1422.5 1094,-1422.5 1094,-1392.5 726,-1392.5"/>
<text text-anchor="start" x="733" y="-1403.9" font-family="Arial" font-size="14.00" fill="#000000">street </text>
<text text-anchor="start" x="771.8976" y="-1403.9" font-family="Arial" font-size="14.00" fill="#666666">[varchar]</text>
<polygon fill="none" stroke="#000000" points="726,-1362.5 726,-1392.5 1094,-1392.5 1094,-1362.5 726,-1362.5"/>
<text text-anchor="start" x="733" y="-1373.9" font-family="Arial" font-size="14.00" fill="#000000">street2 </text>
<text text-anchor="start" x="779.6802" y="-1373.9" font-family="Arial" font-size="14.00" fill="#666666">[varchar]</text>
<polygon fill="none" stroke="#000000" points="726,-1332.5 726,-1362.5 1094,-1362.5 1094,-1332.5 726,-1332.5"/>
<text text-anchor="start" x="733" y="-1343.9" font-family="Arial" font-size="14.00" fill="#000000">zip </text>
<text text-anchor="start" x="754.7798" y="-1343.9" font-family="Arial" font-size="14.00" fill="#666666">[varchar]</text>
<polygon fill="none" stroke="#000000" points="726,-1302.5 726,-1332.5 1094,-1332.5 1094,-1302.5 726,-1302.5"/>
<text text-anchor="start" x="733" y="-1313.9" font-family="Arial" font-size="14.00" fill="#000000">city </text>
<text text-anchor="start" x="757.8878" y="-1313.9" font-family="Arial" font-size="14.00" fill="#666666">[varchar]</text>
<polygon fill="none" stroke="#000000" points="726,-1272.5 726,-1302.5 1094,-1302.5 1094,-1272.5 726,-1272.5"/>
<text text-anchor="start" x="733" y="-1283.9" font-family="Arial" font-size="14.00" fill="#000000">state_id </text>
<text text-anchor="start" x="785.9088" y="-1283.9" font-family="Arial" font-size="14.00" fill="#666666">[integer]</text>
<polygon fill="none" stroke="#000000" points="726,-1242.5 726,-1272.5 1094,-1272.5 1094,-1242.5 726,-1242.5"/>
<text text-anchor="start" x="733" y="-1253.9" font-family="Arial" font-size="14.00" fill="#000000">country_id </text>
<text text-anchor="start" x="801.4614" y="-1253.9" font-family="Arial" font-size="14.00" fill="#666666">[integer]</text>
<polygon fill="none" stroke="#000000" points="726,-1212.5 726,-1242.5 1094,-1242.5 1094,-1212.5 726,-1212.5"/>
<text text-anchor="start" x="733" y="-1223.9" font-family="Arial" font-size="14.00" fill="#000000">email </text>
<text text-anchor="start" x="770.3296" y="-1223.9" font-family="Arial" font-size="14.00" fill="#666666">[varchar]</text>
<polygon fill="none" stroke="#000000" points="726,-1182.5 726,-1212.5 1094,-1212.5 1094,-1182.5 726,-1182.5"/>
<text text-anchor="start" x="733" y="-1193.9" font-family="Arial" font-size="14.00" fill="#000000">phone </text>
<text text-anchor="start" x="775.8036" y="-1193.9" font-family="Arial" font-size="14.00" fill="#666666">[varchar]</text>
<polygon fill="none" stroke="#000000" points="726,-1152.5 726,-1182.5 1094,-1182.5 1094,-1152.5 726,-1152.5"/>
<text text-anchor="start" x="733" y="-1163.9" font-family="Arial" font-size="14.00" fill="#000000">mobile </text>
<text text-anchor="start" x="778.1122" y="-1163.9" font-family="Arial" font-size="14.00" fill="#666666">[varchar]</text>
<polygon fill="none" stroke="#000000" points="726,-1122.5 726,-1152.5 1094,-1152.5 1094,-1122.5 726,-1122.5"/>
<text text-anchor="start" x="733" y="-1133.9" font-family="Arial" font-size="14.00" fill="#000000">is_company </text>
<text text-anchor="start" x="811.5708" y="-1133.9" font-family="Arial" font-size="14.00" fill="#666666">[boolean]</text>
<polygon fill="none" stroke="#000000" points="726,-1092.5 726,-1122.5 1094,-1122.5 1094,-1092.5 726,-1092.5"/>
<text text-anchor="start" x="733" y="-1103.9" font-family="Arial" font-size="14.00" fill="#000000">industry_id </text>
<text text-anchor="start" x="804.568" y="-1103.9" font-family="Arial" font-size="14.00" fill="#666666">[integer]</text>
<polygon fill="none" stroke="#000000" points="726,-1062.5 726,-1092.5 1094,-1092.5 1094,-1062.5 726,-1062.5"/>
<text text-anchor="start" x="733" y="-1073.9" font-family="Arial" font-size="14.00" fill="#000000">color </text>
<text text-anchor="start" x="767.223" y="-1073.9" font-family="Arial" font-size="14.00" fill="#666666">[integer]</text>
<polygon fill="none" stroke="#000000" points="726,-1032.5 726,-1062.5 1094,-1062.5 1094,-1032.5 726,-1032.5"/>
<text text-anchor="start" x="733" y="-1043.9" font-family="Arial" font-size="14.00" fill="#000000">partner_share </text>
<text text-anchor="start" x="824.0238" y="-1043.9" font-family="Arial" font-size="14.00" fill="#666666">[boolean]</text>
<polygon fill="none" stroke="#000000" points="726,-1002.5 726,-1032.5 1094,-1032.5 1094,-1002.5 726,-1002.5"/>
<text text-anchor="start" x="733" y="-1013.9" font-family="Arial" font-size="14.00" fill="#000000">commercial_partner_id </text>
<text text-anchor="start" x="879.23" y="-1013.9" font-family="Arial" font-size="14.00" fill="#666666">[integer]</text>
<polygon fill="none" stroke="#000000" points="726,-972.5 726,-1002.5 1094,-1002.5 1094,-972.5 726,-972.5"/>
<text text-anchor="start" x="733" y="-983.9" font-family="Arial" font-size="14.00" fill="#000000">commercial_company_name </text>
<text text-anchor="start" x="915.798" y="-983.9" font-family="Arial" font-size="14.00" fill="#666666">[varchar]</text>
<polygon fill="none" stroke="#000000" points="726,-942.5 726,-972.5 1094,-972.5 1094,-942.5 726,-942.5"/>
<text text-anchor="start" x="733" y="-953.9" font-family="Arial" font-size="14.00" fill="#000000">company_name </text>
<text text-anchor="start" x="836.4726" y="-953.9" font-family="Arial" font-size="14.00" fill="#666666">[varchar]</text>
<polygon fill="none" stroke="#000000" points="726,-912.5 726,-942.5 1094,-942.5 1094,-912.5 726,-912.5"/>
<text text-anchor="start" x="733" y="-923.9" font-family="Arial" font-size="14.00" fill="#000000">create_uid </text>
<text text-anchor="start" x="802.244" y="-923.9" font-family="Arial" font-size="14.00" fill="#666666">[integer]</text>
<polygon fill="none" stroke="#000000" points="726,-882.5 726,-912.5 1094,-912.5 1094,-882.5 726,-882.5"/>
<text text-anchor="start" x="733" y="-893.9" font-family="Arial" font-size="14.00" fill="#000000">write_uid </text>
<text text-anchor="start" x="792.892" y="-893.9" font-family="Arial" font-size="14.00" fill="#666666">[integer]</text>
<polygon fill="none" stroke="#000000" points="726,-852.5 726,-882.5 1094,-882.5 1094,-852.5 726,-852.5"/>
<text text-anchor="start" x="733" y="-863.9" font-family="Arial" font-size="14.00" fill="#000000">write_date </text>
<text text-anchor="start" x="801.4586" y="-863.9" font-family="Arial" font-size="14.00" fill="#666666">[timestamp without time zone]</text>
<polygon fill="none" stroke="#000000" points="726,-822.5 726,-852.5 1094,-852.5 1094,-822.5 726,-822.5"/>
<text text-anchor="start" x="733" y="-833.9" font-family="Arial" font-size="14.00" fill="#000000">message_main_attachment_id </text>
<text text-anchor="start" x="927.4964" y="-833.9" font-family="Arial" font-size="14.00" fill="#666666">[integer]</text>
<polygon fill="none" stroke="#000000" points="726,-792.5 726,-822.5 1094,-822.5 1094,-792.5 726,-792.5"/>
<text text-anchor="start" x="733" y="-803.9" font-family="Arial" font-size="14.00" fill="#000000">message_bounce </text>
<text text-anchor="start" x="847.3772" y="-803.9" font-family="Arial" font-size="14.00" fill="#666666">[integer]</text>
<polygon fill="none" stroke="#000000" points="726,-762.5 726,-792.5 1094,-792.5 1094,-762.5 726,-762.5"/>
<text text-anchor="start" x="733" y="-773.9" font-family="Arial" font-size="14.00" fill="#000000">signup_token </text>
<text text-anchor="start" x="820.1486" y="-773.9" font-family="Arial" font-size="14.00" fill="#666666">[varchar]</text>
<polygon fill="none" stroke="#000000" points="726,-732.5 726,-762.5 1094,-762.5 1094,-732.5 726,-732.5"/>
<text text-anchor="start" x="733" y="-743.9" font-family="Arial" font-size="14.00" fill="#000000">signup_type </text>
<text text-anchor="start" x="812.366" y="-743.9" font-family="Arial" font-size="14.00" fill="#666666">[varchar]</text>
<polygon fill="none" stroke="#000000" points="726,-702.5 726,-732.5 1094,-732.5 1094,-702.5 726,-702.5"/>
<text text-anchor="start" x="733" y="-713.9" font-family="Arial" font-size="14.00" fill="#000000">signup_expiration </text>
<text text-anchor="start" x="846.5876" y="-713.9" font-family="Arial" font-size="14.00" fill="#666666">[timestamp without time zone]</text>
<polygon fill="none" stroke="#000000" points="726,-672.5 726,-702.5 1094,-702.5 1094,-672.5 726,-672.5"/>
<text text-anchor="start" x="733" y="-683.9" font-family="Arial" font-size="14.00" fill="#000000">calendar_last_notif_ack </text>
<text text-anchor="start" x="883.934" y="-683.9" font-family="Arial" font-size="14.00" fill="#666666">[timestamp without time zone]</text>
<polygon fill="none" stroke="#000000" points="726,-642.5 726,-672.5 1094,-672.5 1094,-642.5 726,-642.5"/>
<text text-anchor="start" x="733" y="-653.9" font-family="Arial" font-size="14.00" fill="#000000">partner_gid </text>
<text text-anchor="start" x="807.6872" y="-653.9" font-family="Arial" font-size="14.00" fill="#666666">[integer]</text>
<polygon fill="none" stroke="#000000" points="726,-612.5 726,-642.5 1094,-642.5 1094,-612.5 726,-612.5"/>
<text text-anchor="start" x="733" y="-623.9" font-family="Arial" font-size="14.00" fill="#000000">additional_info </text>
<text text-anchor="start" x="827.1416" y="-623.9" font-family="Arial" font-size="14.00" fill="#666666">[varchar]</text>
<polygon fill="none" stroke="#000000" points="726,-582.5 726,-612.5 1094,-612.5 1094,-582.5 726,-582.5"/>
<text text-anchor="start" x="733" y="-593.9" font-family="Arial" font-size="14.00" fill="#000000">team_id </text>
<text text-anchor="start" x="786.6788" y="-593.9" font-family="Arial" font-size="14.00" fill="#666666">[integer]</text>
<polygon fill="none" stroke="#000000" points="726,-552.5 726,-582.5 1094,-582.5 1094,-552.5 726,-552.5"/>
<text text-anchor="start" x="733" y="-563.9" font-family="Arial" font-size="14.00" fill="#000000">website_id </text>
<text text-anchor="start" x="803.014" y="-563.9" font-family="Arial" font-size="14.00" fill="#666666">[integer]</text>
<polygon fill="none" stroke="#000000" points="726,-522.5 726,-552.5 1094,-552.5 1094,-522.5 726,-522.5"/>
<text text-anchor="start" x="733" y="-533.9" font-family="Arial" font-size="14.00" fill="#000000">debit_limit </text>
<text text-anchor="start" x="799.8892" y="-533.9" font-family="Arial" font-size="14.00" fill="#666666">[numeric]</text>
<polygon fill="none" stroke="#000000" points="726,-492.5 726,-522.5 1094,-522.5 1094,-492.5 726,-492.5"/>
<text text-anchor="start" x="732.6326" y="-503.9" font-family="Arial" font-size="14.00" fill="#000000">last_time_entries_checked </text>
<text text-anchor="start" x="902.2272" y="-503.9" font-family="Arial" font-size="14.00" fill="#666666">[timestamp without time zone]</text>
<polygon fill="none" stroke="#000000" points="726,-462.5 726,-492.5 1094,-492.5 1094,-462.5 726,-462.5"/>
<text text-anchor="start" x="733" y="-473.9" font-family="Arial" font-size="14.00" fill="#000000">invoice_warn </text>
<text text-anchor="start" x="818.5666" y="-473.9" font-family="Arial" font-size="14.00" fill="#666666">[varchar]</text>
<polygon fill="none" stroke="#000000" points="726,-432.5 726,-462.5 1094,-462.5 1094,-432.5 726,-432.5"/>
<text text-anchor="start" x="733" y="-443.9" font-family="Arial" font-size="14.00" fill="#000000">invoice_warn_msg </text>
<text text-anchor="start" x="852.7924" y="-443.9" font-family="Arial" font-size="14.00" fill="#666666">[text]</text>
<polygon fill="none" stroke="#000000" points="726,-402.5 726,-432.5 1094,-432.5 1094,-402.5 726,-402.5"/>
<text text-anchor="start" x="733" y="-413.9" font-family="Arial" font-size="14.00" fill="#000000">sale_warn </text>
<text text-anchor="start" x="800.6774" y="-413.9" font-family="Arial" font-size="14.00" fill="#666666">[varchar]</text>
<polygon fill="none" stroke="#000000" points="726,-372.5 726,-402.5 1094,-402.5 1094,-372.5 726,-372.5"/>
<text text-anchor="start" x="733" y="-383.9" font-family="Arial" font-size="14.00" fill="#000000">sale_warn_msg </text>
<text text-anchor="start" x="834.9032" y="-383.9" font-family="Arial" font-size="14.00" fill="#666666">[text]</text>
<polygon fill="none" stroke="#000000" points="726,-342.5 726,-372.5 1094,-372.5 1094,-342.5 726,-342.5"/>
<text text-anchor="start" x="733" y="-353.9" font-family="Arial" font-size="14.00" fill="#000000">picking_warn </text>
<text text-anchor="start" x="818.5666" y="-353.9" font-family="Arial" font-size="14.00" fill="#666666">[varchar]</text>
<polygon fill="none" stroke="#000000" points="726,-312.5 726,-342.5 1094,-342.5 1094,-312.5 726,-312.5"/>
<text text-anchor="start" x="733" y="-323.9" font-family="Arial" font-size="14.00" fill="#000000">picking_warn_msg </text>
<text text-anchor="start" x="852.7924" y="-323.9" font-family="Arial" font-size="14.00" fill="#666666">[text]</text>
<polygon fill="none" stroke="#000000" points="726,-282.5 726,-312.5 1094,-312.5 1094,-282.5 726,-282.5"/>
<text text-anchor="start" x="733" y="-293.9" font-family="Arial" font-size="14.00" fill="#000000">purchase_warn </text>
<text text-anchor="start" x="832.5792" y="-293.9" font-family="Arial" font-size="14.00" fill="#666666">[varchar]</text>
<polygon fill="none" stroke="#000000" points="726,-252.5 726,-282.5 1094,-282.5 1094,-252.5 726,-252.5"/>
<text text-anchor="start" x="733" y="-263.9" font-family="Arial" font-size="14.00" fill="#000000">purchase_warn_msg </text>
<text text-anchor="start" x="866.805" y="-263.9" font-family="Arial" font-size="14.00" fill="#666666">[text]</text>
<polygon fill="none" stroke="#000000" points="726,-222.5 726,-252.5 1094,-252.5 1094,-222.5 726,-222.5"/>
<text text-anchor="start" x="733" y="-233.9" font-family="Arial" font-size="14.00" fill="#000000">is_published </text>
<text text-anchor="start" x="814.6886" y="-233.9" font-family="Arial" font-size="14.00" fill="#666666">[boolean]</text>
<polygon fill="none" stroke="#000000" points="726,-192.5 726,-222.5 1094,-222.5 1094,-192.5 726,-192.5"/>
<text text-anchor="start" x="733" y="-203.9" font-family="Arial" font-size="14.00" fill="#000000">website_meta_title </text>
<text text-anchor="start" x="852.8008" y="-203.9" font-family="Arial" font-size="14.00" fill="#666666">[varchar]</text>
<polygon fill="none" stroke="#000000" points="726,-162.5 726,-192.5 1094,-192.5 1094,-162.5 726,-162.5"/>
<text text-anchor="start" x="733" y="-173.9" font-family="Arial" font-size="14.00" fill="#000000">website_meta_description </text>
<text text-anchor="start" x="898.7012" y="-173.9" font-family="Arial" font-size="14.00" fill="#666666">[text]</text>
<polygon fill="none" stroke="#000000" points="726,-132.5 726,-162.5 1094,-162.5 1094,-132.5 726,-132.5"/>
<text text-anchor="start" x="733" y="-143.9" font-family="Arial" font-size="14.00" fill="#000000">website_meta_keywords </text>
<text text-anchor="start" x="890.1388" y="-143.9" font-family="Arial" font-size="14.00" fill="#666666">[varchar]</text>
<polygon fill="none" stroke="#000000" points="726,-102.5 726,-132.5 1094,-132.5 1094,-102.5 726,-102.5"/>
<text text-anchor="start" x="733" y="-113.9" font-family="Arial" font-size="14.00" fill="#000000">website_meta_og_img </text>
<text text-anchor="start" x="876.9214" y="-113.9" font-family="Arial" font-size="14.00" fill="#666666">[varchar]</text>
<polygon fill="none" stroke="#000000" points="726,-72.5 726,-102.5 1094,-102.5 1094,-72.5 726,-72.5"/>
<text text-anchor="start" x="733" y="-83.9" font-family="Arial" font-size="14.00" fill="#000000">website_description </text>
<text text-anchor="start" x="859.8022" y="-83.9" font-family="Arial" font-size="14.00" fill="#666666">[text]</text>
<polygon fill="none" stroke="#000000" points="726,-42.5 726,-72.5 1094,-72.5 1094,-42.5 726,-42.5"/>
<text text-anchor="start" x="733" y="-53.9" font-family="Arial" font-size="14.00" fill="#000000">website_short_description </text>
<text text-anchor="start" x="898.7012" y="-53.9" font-family="Arial" font-size="14.00" fill="#666666">[text]</text>
</g>
<!-- public.mail_wizard_invite_res_partner_rel&#45;&gt;public.res_partner -->
<g id="edge2" class="edge">
<title>public.mail_wizard_invite_res_partner_rel:res_partner_id&#45;&gt;public.res_partner:id</title>
<path fill="none" stroke="#000000" d="M919.0286,-2284.8138C932.6461,-2275.5466 923.4113,-2244.5225 909,-2227 856.3462,-2162.979 778.6538,-2255.021 726,-2191 699.6036,-2158.9049 684.4444,-2097.5 726,-2097.5"/>
<polygon fill="#000000" stroke="#000000" points="918.6595,-2284.9126 907.8357,-2283.1532 913.8297,-2286.2063 909,-2287.5 909,-2287.5 909,-2287.5 913.8297,-2286.2063 910.1643,-2291.8468 918.6595,-2284.9126 918.6595,-2284.9126"/>
<text text-anchor="start" x="915.8805" y="-2297.5" font-family="Arial" font-size="10.00" fill="#000000">FOREIGN KEY (res_partner_id) REFERENCES res_partner(id) ON DELETE CASCADE</text>
</g>
</g>
</svg>
