<?xml version="1.0" encoding="UTF-8" standalone="no"?>
<!DOCTYPE svg PUBLIC "-//W3C//DTD SVG 1.1//EN"
 "http://www.w3.org/Graphics/SVG/1.1/DTD/svg11.dtd">
<!-- Generated by graphviz version 2.40.1 (20161225.0304)
 -->
<!-- Title: public.account_account_template_account_tag Pages: 1 -->
<svg width="1530pt" height="772pt"
 viewBox="0.00 0.00 1530.00 772.00" xmlns="http://www.w3.org/2000/svg" xmlns:xlink="http://www.w3.org/1999/xlink">
<g id="graph0" class="graph" transform="scale(1 1) rotate(0) translate(4 768)">
<title>public.account_account_template_account_tag</title>
<polygon fill="#ffffff" stroke="transparent" points="-4,4 -4,-768 1526,-768 1526,4 -4,4"/>
<!-- public.account_account_template_account_tag -->
<g id="node1" class="node">
<title>public.account_account_template_account_tag</title>
<polygon fill="#efefef" stroke="transparent" points="542,-682.5 542,-717.5 1028,-717.5 1028,-682.5 542,-682.5"/>
<polygon fill="none" stroke="#000000" points="542,-682.5 542,-717.5 1028,-717.5 1028,-682.5 542,-682.5"/>
<text text-anchor="start" x="548.8005" y="-695.3" font-family="Arial Bold" font-size="18.00" fill="#000000">public.account_account_template_account_tag</text>
<text text-anchor="start" x="923.9457" y="-695.3" font-family="Arial" font-size="14.00" fill="#000000"> </text>
<text text-anchor="start" x="927.8363" y="-695.3" font-family="Arial" font-size="14.00" fill="#666666">[BASE TABLE]</text>
<polygon fill="none" stroke="#000000" points="542,-652.5 542,-682.5 1028,-682.5 1028,-652.5 542,-652.5"/>
<text text-anchor="start" x="549" y="-663.9" font-family="Arial" font-size="14.00" fill="#000000">account_account_template_id </text>
<text text-anchor="start" x="738.8484" y="-663.9" font-family="Arial" font-size="14.00" fill="#666666">[integer]</text>
<polygon fill="none" stroke="#000000" points="542,-622.5 542,-652.5 1028,-652.5 1028,-622.5 542,-622.5"/>
<text text-anchor="start" x="549" y="-633.9" font-family="Arial" font-size="14.00" fill="#000000">account_account_tag_id </text>
<text text-anchor="start" x="704.6254" y="-633.9" font-family="Arial" font-size="14.00" fill="#666666">[integer]</text>
<polygon fill="none" stroke="#000000" stroke-width="3" points="540.5,-621.5 540.5,-719.5 1029.5,-719.5 1029.5,-621.5 540.5,-621.5"/>
</g>
<!-- public.account_account_template -->
<g id="node2" class="node">
<title>public.account_account_template</title>
<polygon fill="#efefef" stroke="transparent" points="366,-462.5 366,-497.5 744,-497.5 744,-462.5 366,-462.5"/>
<polygon fill="none" stroke="#000000" points="366,-462.5 366,-497.5 744,-497.5 744,-462.5 366,-462.5"/>
<text text-anchor="start" x="372.8275" y="-475.3" font-family="Arial Bold" font-size="18.00" fill="#000000">public.account_account_template</text>
<text text-anchor="start" x="639.9187" y="-475.3" font-family="Arial" font-size="14.00" fill="#000000"> </text>
<text text-anchor="start" x="643.8093" y="-475.3" font-family="Arial" font-size="14.00" fill="#666666">[BASE TABLE]</text>
<polygon fill="none" stroke="#000000" points="366,-432.5 366,-462.5 744,-462.5 744,-432.5 366,-432.5"/>
<text text-anchor="start" x="373" y="-443.9" font-family="Arial" font-size="14.00" fill="#000000">id </text>
<text text-anchor="start" x="387.7798" y="-443.9" font-family="Arial" font-size="14.00" fill="#666666">[integer]</text>
<polygon fill="none" stroke="#000000" points="366,-402.5 366,-432.5 744,-432.5 744,-402.5 366,-402.5"/>
<text text-anchor="start" x="373" y="-413.9" font-family="Arial" font-size="14.00" fill="#000000">name </text>
<text text-anchor="start" x="411.899" y="-413.9" font-family="Arial" font-size="14.00" fill="#666666">[varchar]</text>
<polygon fill="none" stroke="#000000" points="366,-372.5 366,-402.5 744,-402.5 744,-372.5 366,-372.5"/>
<text text-anchor="start" x="373" y="-383.9" font-family="Arial" font-size="14.00" fill="#000000">currency_id </text>
<text text-anchor="start" x="449.2314" y="-383.9" font-family="Arial" font-size="14.00" fill="#666666">[integer]</text>
<polygon fill="none" stroke="#000000" points="366,-342.5 366,-372.5 744,-372.5 744,-342.5 366,-342.5"/>
<text text-anchor="start" x="373" y="-353.9" font-family="Arial" font-size="14.00" fill="#000000">code </text>
<text text-anchor="start" x="407.2384" y="-353.9" font-family="Arial" font-size="14.00" fill="#666666">[varchar(64)]</text>
<polygon fill="none" stroke="#000000" points="366,-312.5 366,-342.5 744,-342.5 744,-312.5 366,-312.5"/>
<text text-anchor="start" x="373" y="-323.9" font-family="Arial" font-size="14.00" fill="#000000">user_type_id </text>
<text text-anchor="start" x="457.0266" y="-323.9" font-family="Arial" font-size="14.00" fill="#666666">[integer]</text>
<polygon fill="none" stroke="#000000" points="366,-282.5 366,-312.5 744,-312.5 744,-282.5 366,-282.5"/>
<text text-anchor="start" x="373" y="-293.9" font-family="Arial" font-size="14.00" fill="#000000">reconcile </text>
<text text-anchor="start" x="432.8948" y="-293.9" font-family="Arial" font-size="14.00" fill="#666666">[boolean]</text>
<polygon fill="none" stroke="#000000" points="366,-252.5 366,-282.5 744,-282.5 744,-252.5 366,-252.5"/>
<text text-anchor="start" x="373" y="-263.9" font-family="Arial" font-size="14.00" fill="#000000">note </text>
<text text-anchor="start" x="404.129" y="-263.9" font-family="Arial" font-size="14.00" fill="#666666">[text]</text>
<polygon fill="none" stroke="#000000" points="366,-222.5 366,-252.5 744,-252.5 744,-222.5 366,-222.5"/>
<text text-anchor="start" x="373" y="-233.9" font-family="Arial" font-size="14.00" fill="#000000">nocreate </text>
<text text-anchor="start" x="431.3548" y="-233.9" font-family="Arial" font-size="14.00" fill="#666666">[boolean]</text>
<polygon fill="none" stroke="#000000" points="366,-192.5 366,-222.5 744,-222.5 744,-192.5 366,-192.5"/>
<text text-anchor="start" x="373" y="-203.9" font-family="Arial" font-size="14.00" fill="#000000">chart_template_id </text>
<text text-anchor="start" x="488.1402" y="-203.9" font-family="Arial" font-size="14.00" fill="#666666">[integer]</text>
<polygon fill="none" stroke="#000000" points="366,-162.5 366,-192.5 744,-192.5 744,-162.5 366,-162.5"/>
<text text-anchor="start" x="373" y="-173.9" font-family="Arial" font-size="14.00" fill="#000000">group_id </text>
<text text-anchor="start" x="431.3534" y="-173.9" font-family="Arial" font-size="14.00" fill="#666666">[integer]</text>
<polygon fill="none" stroke="#000000" points="366,-132.5 366,-162.5 744,-162.5 744,-132.5 366,-132.5"/>
<text text-anchor="start" x="373" y="-143.9" font-family="Arial" font-size="14.00" fill="#000000">create_uid </text>
<text text-anchor="start" x="442.244" y="-143.9" font-family="Arial" font-size="14.00" fill="#666666">[integer]</text>
<polygon fill="none" stroke="#000000" points="366,-102.5 366,-132.5 744,-132.5 744,-102.5 366,-102.5"/>
<text text-anchor="start" x="373" y="-113.9" font-family="Arial" font-size="14.00" fill="#000000">create_date </text>
<text text-anchor="start" x="450.8106" y="-113.9" font-family="Arial" font-size="14.00" fill="#666666">[timestamp without time zone]</text>
<polygon fill="none" stroke="#000000" points="366,-72.5 366,-102.5 744,-102.5 744,-72.5 366,-72.5"/>
<text text-anchor="start" x="373" y="-83.9" font-family="Arial" font-size="14.00" fill="#000000">write_uid </text>
<text text-anchor="start" x="432.892" y="-83.9" font-family="Arial" font-size="14.00" fill="#666666">[integer]</text>
<polygon fill="none" stroke="#000000" points="366,-42.5 366,-72.5 744,-72.5 744,-42.5 366,-42.5"/>
<text text-anchor="start" x="373" y="-53.9" font-family="Arial" font-size="14.00" fill="#000000">write_date </text>
<text text-anchor="start" x="441.4586" y="-53.9" font-family="Arial" font-size="14.00" fill="#666666">[timestamp without time zone]</text>
</g>
<!-- public.account_account_template_account_tag&#45;&gt;public.account_account_template -->
<g id="edge1" class="edge">
<title>public.account_account_template_account_tag:account_account_template_id&#45;&gt;public.account_account_template:id</title>
<path fill="none" stroke="#000000" d="M532.092,-665.9997C504.5775,-656.5663 518.5951,-604.9448 542,-577 600.5533,-507.0889 685.4467,-610.9111 744,-541 770.6822,-509.1421 785.5556,-447.5 744,-447.5"/>
<polygon fill="#000000" stroke="#000000" points="532.1127,-666.0028 541.3263,-671.9493 537.0564,-666.7514 542,-667.5 542,-667.5 542,-667.5 537.0564,-666.7514 542.6737,-663.0507 532.1127,-666.0028 532.1127,-666.0028"/>
<text text-anchor="start" x="6.5105" y="-677.5" font-family="Arial" font-size="10.00" fill="#000000">FOREIGN KEY (account_account_template_id) REFERENCES account_account_template(id) ON DELETE CASCADE</text>
</g>
<!-- public.account_account_tag -->
<g id="node3" class="node">
<title>public.account_account_tag</title>
<polygon fill="#efefef" stroke="transparent" points="848,-387.5 848,-422.5 1182,-422.5 1182,-387.5 848,-387.5"/>
<polygon fill="none" stroke="#000000" points="848,-387.5 848,-422.5 1182,-422.5 1182,-387.5 848,-387.5"/>
<text text-anchor="start" x="854.828" y="-400.3" font-family="Arial Bold" font-size="18.00" fill="#000000">public.account_account_tag</text>
<text text-anchor="start" x="1077.9182" y="-400.3" font-family="Arial" font-size="14.00" fill="#000000"> </text>
<text text-anchor="start" x="1081.8088" y="-400.3" font-family="Arial" font-size="14.00" fill="#666666">[BASE TABLE]</text>
<polygon fill="none" stroke="#000000" points="848,-357.5 848,-387.5 1182,-387.5 1182,-357.5 848,-357.5"/>
<text text-anchor="start" x="855" y="-368.9" font-family="Arial" font-size="14.00" fill="#000000">id </text>
<text text-anchor="start" x="869.7798" y="-368.9" font-family="Arial" font-size="14.00" fill="#666666">[integer]</text>
<polygon fill="none" stroke="#000000" points="848,-327.5 848,-357.5 1182,-357.5 1182,-327.5 848,-327.5"/>
<text text-anchor="start" x="855" y="-338.9" font-family="Arial" font-size="14.00" fill="#000000">name </text>
<text text-anchor="start" x="893.899" y="-338.9" font-family="Arial" font-size="14.00" fill="#666666">[varchar]</text>
<polygon fill="none" stroke="#000000" points="848,-297.5 848,-327.5 1182,-327.5 1182,-297.5 848,-297.5"/>
<text text-anchor="start" x="855" y="-308.9" font-family="Arial" font-size="14.00" fill="#000000">applicability </text>
<text text-anchor="start" x="931.2272" y="-308.9" font-family="Arial" font-size="14.00" fill="#666666">[varchar]</text>
<polygon fill="none" stroke="#000000" points="848,-267.5 848,-297.5 1182,-297.5 1182,-267.5 848,-267.5"/>
<text text-anchor="start" x="855" y="-278.9" font-family="Arial" font-size="14.00" fill="#000000">color </text>
<text text-anchor="start" x="889.223" y="-278.9" font-family="Arial" font-size="14.00" fill="#666666">[integer]</text>
<polygon fill="none" stroke="#000000" points="848,-237.5 848,-267.5 1182,-267.5 1182,-237.5 848,-237.5"/>
<text text-anchor="start" x="855" y="-248.9" font-family="Arial" font-size="14.00" fill="#000000">active </text>
<text text-anchor="start" x="895.453" y="-248.9" font-family="Arial" font-size="14.00" fill="#666666">[boolean]</text>
<polygon fill="none" stroke="#000000" points="848,-207.5 848,-237.5 1182,-237.5 1182,-207.5 848,-207.5"/>
<text text-anchor="start" x="855" y="-218.9" font-family="Arial" font-size="14.00" fill="#000000">create_uid </text>
<text text-anchor="start" x="924.244" y="-218.9" font-family="Arial" font-size="14.00" fill="#666666">[integer]</text>
<polygon fill="none" stroke="#000000" points="848,-177.5 848,-207.5 1182,-207.5 1182,-177.5 848,-177.5"/>
<text text-anchor="start" x="855" y="-188.9" font-family="Arial" font-size="14.00" fill="#000000">create_date </text>
<text text-anchor="start" x="932.8106" y="-188.9" font-family="Arial" font-size="14.00" fill="#666666">[timestamp without time zone]</text>
<polygon fill="none" stroke="#000000" points="848,-147.5 848,-177.5 1182,-177.5 1182,-147.5 848,-147.5"/>
<text text-anchor="start" x="855" y="-158.9" font-family="Arial" font-size="14.00" fill="#000000">write_uid </text>
<text text-anchor="start" x="914.892" y="-158.9" font-family="Arial" font-size="14.00" fill="#666666">[integer]</text>
<polygon fill="none" stroke="#000000" points="848,-117.5 848,-147.5 1182,-147.5 1182,-117.5 848,-117.5"/>
<text text-anchor="start" x="855" y="-128.9" font-family="Arial" font-size="14.00" fill="#000000">write_date </text>
<text text-anchor="start" x="923.4586" y="-128.9" font-family="Arial" font-size="14.00" fill="#666666">[timestamp without time zone]</text>
</g>
<!-- public.account_account_template_account_tag&#45;&gt;public.account_account_tag -->
<g id="edge2" class="edge">
<title>public.account_account_template_account_tag:account_account_tag_id&#45;&gt;public.account_account_tag:id</title>
<path fill="none" stroke="#000000" d="M1037.783,-634.9814C1050.5981,-626.2615 1039.0578,-596.8103 1028,-577 982.1905,-494.9313 893.8095,-548.0687 848,-466 827.746,-429.7145 806.4444,-372.5 848,-372.5"/>
<polygon fill="#000000" stroke="#000000" points="1037.6842,-635.0067 1026.878,-633.1421 1032.8421,-636.2534 1028,-637.5 1028,-637.5 1028,-637.5 1032.8421,-636.2534 1029.122,-641.8579 1037.6842,-635.0067 1037.6842,-635.0067"/>
<text text-anchor="start" x="1034.9555" y="-647.5" font-family="Arial" font-size="10.00" fill="#000000">FOREIGN KEY (account_account_tag_id) REFERENCES account_account_tag(id) ON DELETE CASCADE</text>
</g>
</g>
</svg>
