<?xml version="1.0" encoding="UTF-8" standalone="no"?>
<!DOCTYPE svg PUBLIC "-//W3C//DTD SVG 1.1//EN"
 "http://www.w3.org/Graphics/SVG/1.1/DTD/svg11.dtd">
<!-- Generated by graphviz version 2.40.1 (20161225.0304)
 -->
<!-- Title: public.product_attribute_value_product_template_attribute_line_rel Pages: 1 -->
<svg width="1747pt" height="652pt"
 viewBox="0.00 0.00 1747.00 652.00" xmlns="http://www.w3.org/2000/svg" xmlns:xlink="http://www.w3.org/1999/xlink">
<g id="graph0" class="graph" transform="scale(1 1) rotate(0) translate(4 648)">
<title>public.product_attribute_value_product_template_attribute_line_rel</title>
<polygon fill="#ffffff" stroke="transparent" points="-4,4 -4,-648 1743,-648 1743,4 -4,4"/>
<!-- public.product_attribute_value_product_template_attribute_line_rel -->
<g id="node1" class="node">
<title>public.product_attribute_value_product_template_attribute_line_rel</title>
<polygon fill="#efefef" stroke="transparent" points="584,-562.5 584,-597.5 1227,-597.5 1227,-562.5 584,-562.5"/>
<polygon fill="none" stroke="#000000" points="584,-562.5 584,-597.5 1227,-597.5 1227,-562.5 584,-562.5"/>
<text text-anchor="start" x="590.7989" y="-575.3" font-family="Arial Bold" font-size="18.00" fill="#000000">public.product_attribute_value_product_template_attribute_line_rel</text>
<text text-anchor="start" x="1122.9473" y="-575.3" font-family="Arial" font-size="14.00" fill="#000000"> </text>
<text text-anchor="start" x="1126.8379" y="-575.3" font-family="Arial" font-size="14.00" fill="#666666">[BASE TABLE]</text>
<polygon fill="none" stroke="#000000" points="584,-532.5 584,-562.5 1227,-562.5 1227,-532.5 584,-532.5"/>
<text text-anchor="start" x="591" y="-543.9" font-family="Arial" font-size="14.00" fill="#000000">product_template_attribute_line_id </text>
<text text-anchor="start" x="809.6184" y="-543.9" font-family="Arial" font-size="14.00" fill="#666666">[integer]</text>
<polygon fill="none" stroke="#000000" points="584,-502.5 584,-532.5 1227,-532.5 1227,-502.5 584,-502.5"/>
<text text-anchor="start" x="591" y="-513.9" font-family="Arial" font-size="14.00" fill="#000000">product_attribute_value_id </text>
<text text-anchor="start" x="759.833" y="-513.9" font-family="Arial" font-size="14.00" fill="#666666">[integer]</text>
<polygon fill="none" stroke="#000000" stroke-width="3" points="582,-501.5 582,-599.5 1228,-599.5 1228,-501.5 582,-501.5"/>
</g>
<!-- public.product_template_attribute_line -->
<g id="node2" class="node">
<title>public.product_template_attribute_line</title>
<polygon fill="#efefef" stroke="transparent" points="455,-297.5 455,-332.5 870,-332.5 870,-297.5 455,-297.5"/>
<polygon fill="none" stroke="#000000" points="455,-297.5 455,-332.5 870,-332.5 870,-297.5 455,-297.5"/>
<text text-anchor="start" x="461.8325" y="-310.3" font-family="Arial Bold" font-size="18.00" fill="#000000">public.product_template_attribute_line</text>
<text text-anchor="start" x="765.9137" y="-310.3" font-family="Arial" font-size="14.00" fill="#000000"> </text>
<text text-anchor="start" x="769.8043" y="-310.3" font-family="Arial" font-size="14.00" fill="#666666">[BASE TABLE]</text>
<polygon fill="none" stroke="#000000" points="455,-267.5 455,-297.5 870,-297.5 870,-267.5 455,-267.5"/>
<text text-anchor="start" x="462" y="-278.9" font-family="Arial" font-size="14.00" fill="#000000">id </text>
<text text-anchor="start" x="476.7798" y="-278.9" font-family="Arial" font-size="14.00" fill="#666666">[integer]</text>
<polygon fill="none" stroke="#000000" points="455,-237.5 455,-267.5 870,-267.5 870,-237.5 455,-237.5"/>
<text text-anchor="start" x="462" y="-248.9" font-family="Arial" font-size="14.00" fill="#000000">product_tmpl_id </text>
<text text-anchor="start" x="565.467" y="-248.9" font-family="Arial" font-size="14.00" fill="#666666">[integer]</text>
<polygon fill="none" stroke="#000000" points="455,-207.5 455,-237.5 870,-237.5 870,-207.5 455,-207.5"/>
<text text-anchor="start" x="462" y="-218.9" font-family="Arial" font-size="14.00" fill="#000000">attribute_id </text>
<text text-anchor="start" x="535.1318" y="-218.9" font-family="Arial" font-size="14.00" fill="#666666">[integer]</text>
<polygon fill="none" stroke="#000000" points="455,-177.5 455,-207.5 870,-207.5 870,-177.5 455,-177.5"/>
<text text-anchor="start" x="462" y="-188.9" font-family="Arial" font-size="14.00" fill="#000000">create_uid </text>
<text text-anchor="start" x="531.244" y="-188.9" font-family="Arial" font-size="14.00" fill="#666666">[integer]</text>
<polygon fill="none" stroke="#000000" points="455,-147.5 455,-177.5 870,-177.5 870,-147.5 455,-147.5"/>
<text text-anchor="start" x="462" y="-158.9" font-family="Arial" font-size="14.00" fill="#000000">create_date </text>
<text text-anchor="start" x="539.8106" y="-158.9" font-family="Arial" font-size="14.00" fill="#666666">[timestamp without time zone]</text>
<polygon fill="none" stroke="#000000" points="455,-117.5 455,-147.5 870,-147.5 870,-117.5 455,-117.5"/>
<text text-anchor="start" x="462" y="-128.9" font-family="Arial" font-size="14.00" fill="#000000">write_uid </text>
<text text-anchor="start" x="521.892" y="-128.9" font-family="Arial" font-size="14.00" fill="#666666">[integer]</text>
<polygon fill="none" stroke="#000000" points="455,-87.5 455,-117.5 870,-117.5 870,-87.5 455,-87.5"/>
<text text-anchor="start" x="462" y="-98.9" font-family="Arial" font-size="14.00" fill="#000000">write_date </text>
<text text-anchor="start" x="530.4586" y="-98.9" font-family="Arial" font-size="14.00" fill="#666666">[timestamp without time zone]</text>
</g>
<!-- public.product_attribute_value_product_template_attribute_line_rel&#45;&gt;public.product_template_attribute_line -->
<g id="edge1" class="edge">
<title>public.product_attribute_value_product_template_attribute_line_rel:product_template_attribute_line_id&#45;&gt;public.product_template_attribute_line:id</title>
<path fill="none" stroke="#000000" d="M573.779,-545.9076C546.9748,-536.3416 562.1103,-485.9502 584,-457 663.6783,-351.6216 790.3217,-481.3784 870,-376 895.0629,-342.8531 911.5556,-282.5 870,-282.5"/>
<polygon fill="#000000" stroke="#000000" points="574.1192,-545.9605 583.3072,-551.9464 579.0596,-546.7303 584,-547.5 584,-547.5 584,-547.5 579.0596,-546.7303 584.6928,-543.0536 574.1192,-545.9605 574.1192,-545.9605"/>
<text text-anchor="start" x="6.9605" y="-557.5" font-family="Arial" font-size="10.00" fill="#000000">FOREIGN KEY (product_template_attribute_line_id) REFERENCES product_template_attribute_line(id) ON DELETE CASCADE</text>
</g>
<!-- public.product_attribute_value -->
<g id="node3" class="node">
<title>public.product_attribute_value</title>
<polygon fill="#efefef" stroke="transparent" points="974,-342.5 974,-377.5 1325,-377.5 1325,-342.5 974,-342.5"/>
<polygon fill="none" stroke="#000000" points="974,-342.5 974,-377.5 1325,-377.5 1325,-342.5 974,-342.5"/>
<text text-anchor="start" x="980.8374" y="-355.3" font-family="Arial Bold" font-size="18.00" fill="#000000">public.product_attribute_value</text>
<text text-anchor="start" x="1220.9088" y="-355.3" font-family="Arial" font-size="14.00" fill="#000000"> </text>
<text text-anchor="start" x="1224.7994" y="-355.3" font-family="Arial" font-size="14.00" fill="#666666">[BASE TABLE]</text>
<polygon fill="none" stroke="#000000" points="974,-312.5 974,-342.5 1325,-342.5 1325,-312.5 974,-312.5"/>
<text text-anchor="start" x="981" y="-323.9" font-family="Arial" font-size="14.00" fill="#000000">id </text>
<text text-anchor="start" x="995.7798" y="-323.9" font-family="Arial" font-size="14.00" fill="#666666">[integer]</text>
<polygon fill="none" stroke="#000000" points="974,-282.5 974,-312.5 1325,-312.5 1325,-282.5 974,-282.5"/>
<text text-anchor="start" x="981" y="-293.9" font-family="Arial" font-size="14.00" fill="#000000">name </text>
<text text-anchor="start" x="1019.899" y="-293.9" font-family="Arial" font-size="14.00" fill="#666666">[varchar]</text>
<polygon fill="none" stroke="#000000" points="974,-252.5 974,-282.5 1325,-282.5 1325,-252.5 974,-252.5"/>
<text text-anchor="start" x="981" y="-263.9" font-family="Arial" font-size="14.00" fill="#000000">sequence </text>
<text text-anchor="start" x="1045.5862" y="-263.9" font-family="Arial" font-size="14.00" fill="#666666">[integer]</text>
<polygon fill="none" stroke="#000000" points="974,-222.5 974,-252.5 1325,-252.5 1325,-222.5 974,-222.5"/>
<text text-anchor="start" x="981" y="-233.9" font-family="Arial" font-size="14.00" fill="#000000">attribute_id </text>
<text text-anchor="start" x="1054.1318" y="-233.9" font-family="Arial" font-size="14.00" fill="#666666">[integer]</text>
<polygon fill="none" stroke="#000000" points="974,-192.5 974,-222.5 1325,-222.5 1325,-192.5 974,-192.5"/>
<text text-anchor="start" x="981" y="-203.9" font-family="Arial" font-size="14.00" fill="#000000">create_uid </text>
<text text-anchor="start" x="1050.244" y="-203.9" font-family="Arial" font-size="14.00" fill="#666666">[integer]</text>
<polygon fill="none" stroke="#000000" points="974,-162.5 974,-192.5 1325,-192.5 1325,-162.5 974,-162.5"/>
<text text-anchor="start" x="981" y="-173.9" font-family="Arial" font-size="14.00" fill="#000000">create_date </text>
<text text-anchor="start" x="1058.8106" y="-173.9" font-family="Arial" font-size="14.00" fill="#666666">[timestamp without time zone]</text>
<polygon fill="none" stroke="#000000" points="974,-132.5 974,-162.5 1325,-162.5 1325,-132.5 974,-132.5"/>
<text text-anchor="start" x="981" y="-143.9" font-family="Arial" font-size="14.00" fill="#000000">write_uid </text>
<text text-anchor="start" x="1040.892" y="-143.9" font-family="Arial" font-size="14.00" fill="#666666">[integer]</text>
<polygon fill="none" stroke="#000000" points="974,-102.5 974,-132.5 1325,-132.5 1325,-102.5 974,-102.5"/>
<text text-anchor="start" x="981" y="-113.9" font-family="Arial" font-size="14.00" fill="#000000">write_date </text>
<text text-anchor="start" x="1049.4586" y="-113.9" font-family="Arial" font-size="14.00" fill="#666666">[timestamp without time zone]</text>
<polygon fill="none" stroke="#000000" points="974,-72.5 974,-102.5 1325,-102.5 1325,-72.5 974,-72.5"/>
<text text-anchor="start" x="981" y="-83.9" font-family="Arial" font-size="14.00" fill="#000000">is_custom </text>
<text text-anchor="start" x="1047.8962" y="-83.9" font-family="Arial" font-size="14.00" fill="#666666">[boolean]</text>
<polygon fill="none" stroke="#000000" points="974,-42.5 974,-72.5 1325,-72.5 1325,-42.5 974,-42.5"/>
<text text-anchor="start" x="981" y="-53.9" font-family="Arial" font-size="14.00" fill="#000000">html_color </text>
<text text-anchor="start" x="1049.446" y="-53.9" font-family="Arial" font-size="14.00" fill="#666666">[varchar]</text>
</g>
<!-- public.product_attribute_value_product_template_attribute_line_rel&#45;&gt;public.product_attribute_value -->
<g id="edge2" class="edge">
<title>public.product_attribute_value_product_template_attribute_line_rel:product_attribute_value_id&#45;&gt;public.product_attribute_value:id</title>
<path fill="none" stroke="#000000" d="M1237.0622,-514.7854C1250.7893,-505.4256 1241.8696,-474.1352 1227,-457 1152.5604,-371.2183 1048.4396,-506.7817 974,-421 946.764,-389.6142 932.4444,-327.5 974,-327.5"/>
<polygon fill="#000000" stroke="#000000" points="1236.6548,-514.8953 1225.8279,-513.1553 1231.8274,-516.1976 1227,-517.5 1227,-517.5 1227,-517.5 1231.8274,-516.1976 1228.1721,-521.8447 1236.6548,-514.8953 1236.6548,-514.8953"/>
<text text-anchor="start" x="1233.5215" y="-527.5" font-family="Arial" font-size="10.00" fill="#000000">FOREIGN KEY (product_attribute_value_id) REFERENCES product_attribute_value(id) ON DELETE CASCADE</text>
</g>
</g>
</svg>
