<?xml version="1.0" encoding="UTF-8" standalone="no"?>
<!DOCTYPE svg PUBLIC "-//W3C//DTD SVG 1.1//EN"
 "http://www.w3.org/Graphics/SVG/1.1/DTD/svg11.dtd">
<!-- Generated by graphviz version 2.40.1 (20161225.0304)
 -->
<!-- Title: public.account_unreconcile Pages: 1 -->
<svg width="762pt" height="1102pt"
 viewBox="0.00 0.00 762.00 1102.00" xmlns="http://www.w3.org/2000/svg" xmlns:xlink="http://www.w3.org/1999/xlink">
<g id="graph0" class="graph" transform="scale(1 1) rotate(0) translate(4 1098)">
<title>public.account_unreconcile</title>
<polygon fill="#ffffff" stroke="transparent" points="-4,4 -4,-1098 758,-1098 758,4 -4,4"/>
<!-- public.account_unreconcile -->
<g id="node1" class="node">
<title>public.account_unreconcile</title>
<polygon fill="#efefef" stroke="transparent" points="46,-1012.5 46,-1047.5 374,-1047.5 374,-1012.5 46,-1012.5"/>
<polygon fill="none" stroke="#000000" points="46,-1012.5 46,-1047.5 374,-1047.5 374,-1012.5 46,-1012.5"/>
<text text-anchor="start" x="52.843" y="-1025.3" font-family="Arial Bold" font-size="18.00" fill="#000000">public.account_unreconcile</text>
<text text-anchor="start" x="269.9032" y="-1025.3" font-family="Arial" font-size="14.00" fill="#000000"> </text>
<text text-anchor="start" x="273.7938" y="-1025.3" font-family="Arial" font-size="14.00" fill="#666666">[BASE TABLE]</text>
<polygon fill="none" stroke="#000000" points="46,-982.5 46,-1012.5 374,-1012.5 374,-982.5 46,-982.5"/>
<text text-anchor="start" x="53" y="-993.9" font-family="Arial" font-size="14.00" fill="#000000">id </text>
<text text-anchor="start" x="67.7798" y="-993.9" font-family="Arial" font-size="14.00" fill="#666666">[integer]</text>
<polygon fill="none" stroke="#000000" points="46,-952.5 46,-982.5 374,-982.5 374,-952.5 46,-952.5"/>
<text text-anchor="start" x="53" y="-963.9" font-family="Arial" font-size="14.00" fill="#000000">create_uid </text>
<text text-anchor="start" x="122.244" y="-963.9" font-family="Arial" font-size="14.00" fill="#666666">[integer]</text>
<polygon fill="none" stroke="#000000" points="46,-922.5 46,-952.5 374,-952.5 374,-922.5 46,-922.5"/>
<text text-anchor="start" x="53" y="-933.9" font-family="Arial" font-size="14.00" fill="#000000">create_date </text>
<text text-anchor="start" x="130.8106" y="-933.9" font-family="Arial" font-size="14.00" fill="#666666">[timestamp without time zone]</text>
<polygon fill="none" stroke="#000000" points="46,-892.5 46,-922.5 374,-922.5 374,-892.5 46,-892.5"/>
<text text-anchor="start" x="53" y="-903.9" font-family="Arial" font-size="14.00" fill="#000000">write_uid </text>
<text text-anchor="start" x="112.892" y="-903.9" font-family="Arial" font-size="14.00" fill="#666666">[integer]</text>
<polygon fill="none" stroke="#000000" points="46,-862.5 46,-892.5 374,-892.5 374,-862.5 46,-862.5"/>
<text text-anchor="start" x="53" y="-873.9" font-family="Arial" font-size="14.00" fill="#000000">write_date </text>
<text text-anchor="start" x="121.4586" y="-873.9" font-family="Arial" font-size="14.00" fill="#666666">[timestamp without time zone]</text>
<polygon fill="none" stroke="#000000" stroke-width="3" points="44.5,-861.5 44.5,-1049.5 375.5,-1049.5 375.5,-861.5 44.5,-861.5"/>
</g>
<!-- public.res_users -->
<g id="node2" class="node">
<title>public.res_users</title>
<polygon fill="#efefef" stroke="transparent" points="72,-702.5 72,-737.5 348,-737.5 348,-702.5 72,-702.5"/>
<polygon fill="none" stroke="#000000" points="72,-702.5 72,-737.5 348,-737.5 348,-702.5 72,-702.5"/>
<text text-anchor="start" x="95.8639" y="-715.3" font-family="Arial Bold" font-size="18.00" fill="#000000">public.res_users</text>
<text text-anchor="start" x="226.8823" y="-715.3" font-family="Arial" font-size="14.00" fill="#000000"> </text>
<text text-anchor="start" x="230.7729" y="-715.3" font-family="Arial" font-size="14.00" fill="#666666">[BASE TABLE]</text>
<polygon fill="none" stroke="#000000" points="72,-672.5 72,-702.5 348,-702.5 348,-672.5 72,-672.5"/>
<text text-anchor="start" x="79" y="-683.9" font-family="Arial" font-size="14.00" fill="#000000">id </text>
<text text-anchor="start" x="93.7798" y="-683.9" font-family="Arial" font-size="14.00" fill="#666666">[integer]</text>
<polygon fill="none" stroke="#000000" points="72,-642.5 72,-672.5 348,-672.5 348,-642.5 72,-642.5"/>
<text text-anchor="start" x="79" y="-653.9" font-family="Arial" font-size="14.00" fill="#000000">active </text>
<text text-anchor="start" x="119.453" y="-653.9" font-family="Arial" font-size="14.00" fill="#666666">[boolean]</text>
<polygon fill="none" stroke="#000000" points="72,-612.5 72,-642.5 348,-642.5 348,-612.5 72,-612.5"/>
<text text-anchor="start" x="79" y="-623.9" font-family="Arial" font-size="14.00" fill="#000000">login </text>
<text text-anchor="start" x="112.4516" y="-623.9" font-family="Arial" font-size="14.00" fill="#666666">[varchar]</text>
<polygon fill="none" stroke="#000000" points="72,-582.5 72,-612.5 348,-612.5 348,-582.5 72,-582.5"/>
<text text-anchor="start" x="79" y="-593.9" font-family="Arial" font-size="14.00" fill="#000000">password </text>
<text text-anchor="start" x="142.7882" y="-593.9" font-family="Arial" font-size="14.00" fill="#666666">[varchar]</text>
<polygon fill="none" stroke="#000000" points="72,-552.5 72,-582.5 348,-582.5 348,-552.5 72,-552.5"/>
<text text-anchor="start" x="79" y="-563.9" font-family="Arial" font-size="14.00" fill="#000000">company_id </text>
<text text-anchor="start" x="158.3534" y="-563.9" font-family="Arial" font-size="14.00" fill="#666666">[integer]</text>
<polygon fill="none" stroke="#000000" points="72,-522.5 72,-552.5 348,-552.5 348,-522.5 72,-522.5"/>
<text text-anchor="start" x="79" y="-533.9" font-family="Arial" font-size="14.00" fill="#000000">partner_id </text>
<text text-anchor="start" x="145.9046" y="-533.9" font-family="Arial" font-size="14.00" fill="#666666">[integer]</text>
<polygon fill="none" stroke="#000000" points="72,-492.5 72,-522.5 348,-522.5 348,-492.5 72,-492.5"/>
<text text-anchor="start" x="78.5246" y="-503.9" font-family="Arial" font-size="14.00" fill="#000000">create_date </text>
<text text-anchor="start" x="156.3352" y="-503.9" font-family="Arial" font-size="14.00" fill="#666666">[timestamp without time zone]</text>
<polygon fill="none" stroke="#000000" points="72,-462.5 72,-492.5 348,-492.5 348,-462.5 72,-462.5"/>
<text text-anchor="start" x="79" y="-473.9" font-family="Arial" font-size="14.00" fill="#000000">signature </text>
<text text-anchor="start" x="140.4614" y="-473.9" font-family="Arial" font-size="14.00" fill="#666666">[text]</text>
<polygon fill="none" stroke="#000000" points="72,-432.5 72,-462.5 348,-462.5 348,-432.5 72,-432.5"/>
<text text-anchor="start" x="79" y="-443.9" font-family="Arial" font-size="14.00" fill="#000000">action_id </text>
<text text-anchor="start" x="138.9074" y="-443.9" font-family="Arial" font-size="14.00" fill="#666666">[integer]</text>
<polygon fill="none" stroke="#000000" points="72,-402.5 72,-432.5 348,-432.5 348,-402.5 72,-402.5"/>
<text text-anchor="start" x="79" y="-413.9" font-family="Arial" font-size="14.00" fill="#000000">share </text>
<text text-anchor="start" x="117.899" y="-413.9" font-family="Arial" font-size="14.00" fill="#666666">[boolean]</text>
<polygon fill="none" stroke="#000000" points="72,-372.5 72,-402.5 348,-402.5 348,-372.5 72,-372.5"/>
<text text-anchor="start" x="79" y="-383.9" font-family="Arial" font-size="14.00" fill="#000000">create_uid </text>
<text text-anchor="start" x="148.244" y="-383.9" font-family="Arial" font-size="14.00" fill="#666666">[integer]</text>
<polygon fill="none" stroke="#000000" points="72,-342.5 72,-372.5 348,-372.5 348,-342.5 72,-342.5"/>
<text text-anchor="start" x="79" y="-353.9" font-family="Arial" font-size="14.00" fill="#000000">write_uid </text>
<text text-anchor="start" x="138.892" y="-353.9" font-family="Arial" font-size="14.00" fill="#666666">[integer]</text>
<polygon fill="none" stroke="#000000" points="72,-312.5 72,-342.5 348,-342.5 348,-312.5 72,-312.5"/>
<text text-anchor="start" x="79" y="-323.9" font-family="Arial" font-size="14.00" fill="#000000">write_date </text>
<text text-anchor="start" x="147.4586" y="-323.9" font-family="Arial" font-size="14.00" fill="#666666">[timestamp without time zone]</text>
<polygon fill="none" stroke="#000000" points="72,-282.5 72,-312.5 348,-312.5 348,-282.5 72,-282.5"/>
<text text-anchor="start" x="79" y="-293.9" font-family="Arial" font-size="14.00" fill="#000000">alias_id </text>
<text text-anchor="start" x="130.3408" y="-293.9" font-family="Arial" font-size="14.00" fill="#666666">[integer]</text>
<polygon fill="none" stroke="#000000" points="72,-252.5 72,-282.5 348,-282.5 348,-252.5 72,-252.5"/>
<text text-anchor="start" x="79" y="-263.9" font-family="Arial" font-size="14.00" fill="#000000">notification_type </text>
<text text-anchor="start" x="184.0336" y="-263.9" font-family="Arial" font-size="14.00" fill="#666666">[varchar]</text>
<polygon fill="none" stroke="#000000" points="72,-222.5 72,-252.5 348,-252.5 348,-222.5 72,-222.5"/>
<text text-anchor="start" x="79" y="-233.9" font-family="Arial" font-size="14.00" fill="#000000">odoobot_state </text>
<text text-anchor="start" x="171.6058" y="-233.9" font-family="Arial" font-size="14.00" fill="#666666">[varchar]</text>
<polygon fill="none" stroke="#000000" points="72,-192.5 72,-222.5 348,-222.5 348,-192.5 72,-192.5"/>
<text text-anchor="start" x="79" y="-203.9" font-family="Arial" font-size="14.00" fill="#000000">sale_team_id </text>
<text text-anchor="start" x="166.1332" y="-203.9" font-family="Arial" font-size="14.00" fill="#666666">[integer]</text>
<polygon fill="none" stroke="#000000" points="72,-162.5 72,-192.5 348,-192.5 348,-162.5 72,-162.5"/>
<text text-anchor="start" x="79" y="-173.9" font-family="Arial" font-size="14.00" fill="#000000">target_sales_won </text>
<text text-anchor="start" x="192.589" y="-173.9" font-family="Arial" font-size="14.00" fill="#666666">[integer]</text>
<polygon fill="none" stroke="#000000" points="72,-132.5 72,-162.5 348,-162.5 348,-132.5 72,-132.5"/>
<text text-anchor="start" x="79" y="-143.9" font-family="Arial" font-size="14.00" fill="#000000">target_sales_done </text>
<text text-anchor="start" x="198.0476" y="-143.9" font-family="Arial" font-size="14.00" fill="#666666">[integer]</text>
<polygon fill="none" stroke="#000000" points="72,-102.5 72,-132.5 348,-132.5 348,-102.5 72,-102.5"/>
<text text-anchor="start" x="79" y="-113.9" font-family="Arial" font-size="14.00" fill="#000000">website_id </text>
<text text-anchor="start" x="149.014" y="-113.9" font-family="Arial" font-size="14.00" fill="#666666">[integer]</text>
<polygon fill="none" stroke="#000000" points="72,-72.5 72,-102.5 348,-102.5 348,-72.5 72,-72.5"/>
<text text-anchor="start" x="79" y="-83.9" font-family="Arial" font-size="14.00" fill="#000000">target_sales_invoiced </text>
<text text-anchor="start" x="218.2608" y="-83.9" font-family="Arial" font-size="14.00" fill="#666666">[integer]</text>
<polygon fill="none" stroke="#000000" points="72,-42.5 72,-72.5 348,-72.5 348,-42.5 72,-42.5"/>
<text text-anchor="start" x="79" y="-53.9" font-family="Arial" font-size="14.00" fill="#000000">pos_security_pin </text>
<text text-anchor="start" x="187.9158" y="-53.9" font-family="Arial" font-size="14.00" fill="#666666">[varchar(32)]</text>
</g>
<!-- public.account_unreconcile&#45;&gt;public.res_users -->
<g id="edge1" class="edge">
<title>public.account_unreconcile:create_uid&#45;&gt;public.res_users:id</title>
<path fill="none" stroke="#000000" d="M383.7762,-964.9069C433.4275,-936.6795 406.9504,-687.5 348,-687.5"/>
<polygon fill="#000000" stroke="#000000" points="383.6658,-964.9361 372.8463,-963.1504 378.8329,-966.2181 374,-967.5 374,-967.5 374,-967.5 378.8329,-966.2181 375.1537,-971.8496 383.6658,-964.9361 383.6658,-964.9361"/>
<text text-anchor="start" x="380.657" y="-977.5" font-family="Arial" font-size="10.00" fill="#000000">FOREIGN KEY (create_uid) REFERENCES res_users(id) ON DELETE SET NULL</text>
</g>
<!-- public.account_unreconcile&#45;&gt;public.res_users -->
<g id="edge2" class="edge">
<title>public.account_unreconcile:write_uid&#45;&gt;public.res_users:id</title>
<path fill="none" stroke="#000000" d="M384.1877,-906.6591C470.4847,-891.8888 442.9007,-687.5 348,-687.5"/>
<polygon fill="#000000" stroke="#000000" points="383.9661,-906.6773 373.6298,-903.0153 378.9831,-907.0886 374,-907.5 374,-907.5 374,-907.5 378.9831,-907.0886 374.3702,-911.9847 383.9661,-906.6773 383.9661,-906.6773"/>
<text text-anchor="start" x="380.997" y="-917.5" font-family="Arial" font-size="10.00" fill="#000000">FOREIGN KEY (write_uid) REFERENCES res_users(id) ON DELETE SET NULL</text>
</g>
</g>
</svg>
