<?xml version="1.0" encoding="UTF-8" standalone="no"?>
<!DOCTYPE svg PUBLIC "-//W3C//DTD SVG 1.1//EN"
 "http://www.w3.org/Graphics/SVG/1.1/DTD/svg11.dtd">
<!-- Generated by graphviz version 2.40.1 (20161225.0304)
 -->
<!-- Title: public.mrp_bom_line_product_attribute_value_rel Pages: 1 -->
<svg width="1455pt" height="712pt"
 viewBox="0.00 0.00 1455.00 712.00" xmlns="http://www.w3.org/2000/svg" xmlns:xlink="http://www.w3.org/1999/xlink">
<g id="graph0" class="graph" transform="scale(1 1) rotate(0) translate(4 708)">
<title>public.mrp_bom_line_product_attribute_value_rel</title>
<polygon fill="#ffffff" stroke="transparent" points="-4,4 -4,-708 1451,-708 1451,4 -4,4"/>
<!-- public.mrp_bom_line_product_attribute_value_rel -->
<g id="node1" class="node">
<title>public.mrp_bom_line_product_attribute_value_rel</title>
<polygon fill="#efefef" stroke="transparent" points="430,-622.5 430,-657.5 935,-657.5 935,-622.5 430,-622.5"/>
<polygon fill="none" stroke="#000000" points="430,-622.5 430,-657.5 935,-657.5 935,-622.5 430,-622.5"/>
<text text-anchor="start" x="436.8307" y="-635.3" font-family="Arial Bold" font-size="18.00" fill="#000000">public.mrp_bom_line_product_attribute_value_rel</text>
<text text-anchor="start" x="830.9155" y="-635.3" font-family="Arial" font-size="14.00" fill="#000000"> </text>
<text text-anchor="start" x="834.8061" y="-635.3" font-family="Arial" font-size="14.00" fill="#666666">[BASE TABLE]</text>
<polygon fill="none" stroke="#000000" points="430,-592.5 430,-622.5 935,-622.5 935,-592.5 430,-592.5"/>
<text text-anchor="start" x="437" y="-603.9" font-family="Arial" font-size="14.00" fill="#000000">mrp_bom_line_id </text>
<text text-anchor="start" x="548.2356" y="-603.9" font-family="Arial" font-size="14.00" fill="#666666">[integer]</text>
<polygon fill="none" stroke="#000000" points="430,-562.5 430,-592.5 935,-592.5 935,-562.5 430,-562.5"/>
<text text-anchor="start" x="437" y="-573.9" font-family="Arial" font-size="14.00" fill="#000000">product_attribute_value_id </text>
<text text-anchor="start" x="605.833" y="-573.9" font-family="Arial" font-size="14.00" fill="#666666">[integer]</text>
<polygon fill="none" stroke="#000000" stroke-width="3" points="428,-561.5 428,-659.5 936,-659.5 936,-561.5 428,-561.5"/>
</g>
<!-- public.mrp_bom_line -->
<g id="node2" class="node">
<title>public.mrp_bom_line</title>
<polygon fill="#efefef" stroke="transparent" points="335,-402.5 335,-437.5 612,-437.5 612,-402.5 335,-402.5"/>
<polygon fill="none" stroke="#000000" points="335,-402.5 335,-437.5 612,-437.5 612,-402.5 335,-402.5"/>
<text text-anchor="start" x="341.8643" y="-415.3" font-family="Arial Bold" font-size="18.00" fill="#000000">public.mrp_bom_line</text>
<text text-anchor="start" x="507.8819" y="-415.3" font-family="Arial" font-size="14.00" fill="#000000"> </text>
<text text-anchor="start" x="511.7725" y="-415.3" font-family="Arial" font-size="14.00" fill="#666666">[BASE TABLE]</text>
<polygon fill="none" stroke="#000000" points="335,-372.5 335,-402.5 612,-402.5 612,-372.5 335,-372.5"/>
<text text-anchor="start" x="342" y="-383.9" font-family="Arial" font-size="14.00" fill="#000000">id </text>
<text text-anchor="start" x="356.7798" y="-383.9" font-family="Arial" font-size="14.00" fill="#666666">[integer]</text>
<polygon fill="none" stroke="#000000" points="335,-342.5 335,-372.5 612,-372.5 612,-342.5 335,-342.5"/>
<text text-anchor="start" x="342" y="-353.9" font-family="Arial" font-size="14.00" fill="#000000">product_id </text>
<text text-anchor="start" x="411.244" y="-353.9" font-family="Arial" font-size="14.00" fill="#666666">[integer]</text>
<polygon fill="none" stroke="#000000" points="335,-312.5 335,-342.5 612,-342.5 612,-312.5 335,-312.5"/>
<text text-anchor="start" x="342" y="-323.9" font-family="Arial" font-size="14.00" fill="#000000">product_qty </text>
<text text-anchor="start" x="419.028" y="-323.9" font-family="Arial" font-size="14.00" fill="#666666">[numeric]</text>
<polygon fill="none" stroke="#000000" points="335,-282.5 335,-312.5 612,-312.5 612,-282.5 335,-282.5"/>
<text text-anchor="start" x="342" y="-293.9" font-family="Arial" font-size="14.00" fill="#000000">product_uom_id </text>
<text text-anchor="start" x="446.2524" y="-293.9" font-family="Arial" font-size="14.00" fill="#666666">[integer]</text>
<polygon fill="none" stroke="#000000" points="335,-252.5 335,-282.5 612,-282.5 612,-252.5 335,-252.5"/>
<text text-anchor="start" x="342" y="-263.9" font-family="Arial" font-size="14.00" fill="#000000">sequence </text>
<text text-anchor="start" x="406.5862" y="-263.9" font-family="Arial" font-size="14.00" fill="#666666">[integer]</text>
<polygon fill="none" stroke="#000000" points="335,-222.5 335,-252.5 612,-252.5 612,-222.5 335,-222.5"/>
<text text-anchor="start" x="342" y="-233.9" font-family="Arial" font-size="14.00" fill="#000000">routing_id </text>
<text text-anchor="start" x="407.3506" y="-233.9" font-family="Arial" font-size="14.00" fill="#666666">[integer]</text>
<polygon fill="none" stroke="#000000" points="335,-192.5 335,-222.5 612,-222.5 612,-192.5 335,-192.5"/>
<text text-anchor="start" x="342" y="-203.9" font-family="Arial" font-size="14.00" fill="#000000">bom_id </text>
<text text-anchor="start" x="391.7882" y="-203.9" font-family="Arial" font-size="14.00" fill="#666666">[integer]</text>
<polygon fill="none" stroke="#000000" points="335,-162.5 335,-192.5 612,-192.5 612,-162.5 335,-162.5"/>
<text text-anchor="start" x="342" y="-173.9" font-family="Arial" font-size="14.00" fill="#000000">operation_id </text>
<text text-anchor="start" x="422.9158" y="-173.9" font-family="Arial" font-size="14.00" fill="#666666">[integer]</text>
<polygon fill="none" stroke="#000000" points="335,-132.5 335,-162.5 612,-162.5 612,-132.5 335,-132.5"/>
<text text-anchor="start" x="342" y="-143.9" font-family="Arial" font-size="14.00" fill="#000000">create_uid </text>
<text text-anchor="start" x="411.244" y="-143.9" font-family="Arial" font-size="14.00" fill="#666666">[integer]</text>
<polygon fill="none" stroke="#000000" points="335,-102.5 335,-132.5 612,-132.5 612,-102.5 335,-102.5"/>
<text text-anchor="start" x="342" y="-113.9" font-family="Arial" font-size="14.00" fill="#000000">create_date </text>
<text text-anchor="start" x="419.8106" y="-113.9" font-family="Arial" font-size="14.00" fill="#666666">[timestamp without time zone]</text>
<polygon fill="none" stroke="#000000" points="335,-72.5 335,-102.5 612,-102.5 612,-72.5 335,-72.5"/>
<text text-anchor="start" x="342" y="-83.9" font-family="Arial" font-size="14.00" fill="#000000">write_uid </text>
<text text-anchor="start" x="401.892" y="-83.9" font-family="Arial" font-size="14.00" fill="#666666">[integer]</text>
<polygon fill="none" stroke="#000000" points="335,-42.5 335,-72.5 612,-72.5 612,-42.5 335,-42.5"/>
<text text-anchor="start" x="342" y="-53.9" font-family="Arial" font-size="14.00" fill="#000000">write_date </text>
<text text-anchor="start" x="410.4586" y="-53.9" font-family="Arial" font-size="14.00" fill="#666666">[timestamp without time zone]</text>
</g>
<!-- public.mrp_bom_line_product_attribute_value_rel&#45;&gt;public.mrp_bom_line -->
<g id="edge1" class="edge">
<title>public.mrp_bom_line_product_attribute_value_rel:mrp_bom_line_id&#45;&gt;public.mrp_bom_line:id</title>
<path fill="none" stroke="#000000" d="M420.099,-606.0055C392.6273,-596.6076 406.8604,-545.165 430,-517 482.3436,-453.2885 559.6564,-544.7115 612,-481 638.3797,-448.8912 653.5556,-387.5 612,-387.5"/>
<polygon fill="#000000" stroke="#000000" points="420.112,-606.0074 429.3283,-611.9496 425.056,-606.7537 430,-607.5 430,-607.5 430,-607.5 425.056,-606.7537 430.6717,-603.0504 420.112,-606.0074 420.112,-606.0074"/>
<text text-anchor="start" x="6.6625" y="-617.5" font-family="Arial" font-size="10.00" fill="#000000">FOREIGN KEY (mrp_bom_line_id) REFERENCES mrp_bom_line(id) ON DELETE CASCADE</text>
</g>
<!-- public.product_attribute_value -->
<g id="node3" class="node">
<title>public.product_attribute_value</title>
<polygon fill="#efefef" stroke="transparent" points="716,-372.5 716,-407.5 1067,-407.5 1067,-372.5 716,-372.5"/>
<polygon fill="none" stroke="#000000" points="716,-372.5 716,-407.5 1067,-407.5 1067,-372.5 716,-372.5"/>
<text text-anchor="start" x="722.8374" y="-385.3" font-family="Arial Bold" font-size="18.00" fill="#000000">public.product_attribute_value</text>
<text text-anchor="start" x="962.9088" y="-385.3" font-family="Arial" font-size="14.00" fill="#000000"> </text>
<text text-anchor="start" x="966.7994" y="-385.3" font-family="Arial" font-size="14.00" fill="#666666">[BASE TABLE]</text>
<polygon fill="none" stroke="#000000" points="716,-342.5 716,-372.5 1067,-372.5 1067,-342.5 716,-342.5"/>
<text text-anchor="start" x="723" y="-353.9" font-family="Arial" font-size="14.00" fill="#000000">id </text>
<text text-anchor="start" x="737.7798" y="-353.9" font-family="Arial" font-size="14.00" fill="#666666">[integer]</text>
<polygon fill="none" stroke="#000000" points="716,-312.5 716,-342.5 1067,-342.5 1067,-312.5 716,-312.5"/>
<text text-anchor="start" x="723" y="-323.9" font-family="Arial" font-size="14.00" fill="#000000">name </text>
<text text-anchor="start" x="761.899" y="-323.9" font-family="Arial" font-size="14.00" fill="#666666">[varchar]</text>
<polygon fill="none" stroke="#000000" points="716,-282.5 716,-312.5 1067,-312.5 1067,-282.5 716,-282.5"/>
<text text-anchor="start" x="723" y="-293.9" font-family="Arial" font-size="14.00" fill="#000000">sequence </text>
<text text-anchor="start" x="787.5862" y="-293.9" font-family="Arial" font-size="14.00" fill="#666666">[integer]</text>
<polygon fill="none" stroke="#000000" points="716,-252.5 716,-282.5 1067,-282.5 1067,-252.5 716,-252.5"/>
<text text-anchor="start" x="723" y="-263.9" font-family="Arial" font-size="14.00" fill="#000000">attribute_id </text>
<text text-anchor="start" x="796.1318" y="-263.9" font-family="Arial" font-size="14.00" fill="#666666">[integer]</text>
<polygon fill="none" stroke="#000000" points="716,-222.5 716,-252.5 1067,-252.5 1067,-222.5 716,-222.5"/>
<text text-anchor="start" x="723" y="-233.9" font-family="Arial" font-size="14.00" fill="#000000">create_uid </text>
<text text-anchor="start" x="792.244" y="-233.9" font-family="Arial" font-size="14.00" fill="#666666">[integer]</text>
<polygon fill="none" stroke="#000000" points="716,-192.5 716,-222.5 1067,-222.5 1067,-192.5 716,-192.5"/>
<text text-anchor="start" x="723" y="-203.9" font-family="Arial" font-size="14.00" fill="#000000">create_date </text>
<text text-anchor="start" x="800.8106" y="-203.9" font-family="Arial" font-size="14.00" fill="#666666">[timestamp without time zone]</text>
<polygon fill="none" stroke="#000000" points="716,-162.5 716,-192.5 1067,-192.5 1067,-162.5 716,-162.5"/>
<text text-anchor="start" x="723" y="-173.9" font-family="Arial" font-size="14.00" fill="#000000">write_uid </text>
<text text-anchor="start" x="782.892" y="-173.9" font-family="Arial" font-size="14.00" fill="#666666">[integer]</text>
<polygon fill="none" stroke="#000000" points="716,-132.5 716,-162.5 1067,-162.5 1067,-132.5 716,-132.5"/>
<text text-anchor="start" x="723" y="-143.9" font-family="Arial" font-size="14.00" fill="#000000">write_date </text>
<text text-anchor="start" x="791.4586" y="-143.9" font-family="Arial" font-size="14.00" fill="#666666">[timestamp without time zone]</text>
<polygon fill="none" stroke="#000000" points="716,-102.5 716,-132.5 1067,-132.5 1067,-102.5 716,-102.5"/>
<text text-anchor="start" x="723" y="-113.9" font-family="Arial" font-size="14.00" fill="#000000">is_custom </text>
<text text-anchor="start" x="789.8962" y="-113.9" font-family="Arial" font-size="14.00" fill="#666666">[boolean]</text>
<polygon fill="none" stroke="#000000" points="716,-72.5 716,-102.5 1067,-102.5 1067,-72.5 716,-72.5"/>
<text text-anchor="start" x="723" y="-83.9" font-family="Arial" font-size="14.00" fill="#000000">html_color </text>
<text text-anchor="start" x="791.446" y="-83.9" font-family="Arial" font-size="14.00" fill="#666666">[varchar]</text>
</g>
<!-- public.mrp_bom_line_product_attribute_value_rel&#45;&gt;public.product_attribute_value -->
<g id="edge2" class="edge">
<title>public.mrp_bom_line_product_attribute_value_rel:product_attribute_value_id&#45;&gt;public.product_attribute_value:id</title>
<path fill="none" stroke="#000000" d="M944.9642,-574.8642C958.3711,-565.7616 948.5314,-535.2105 935,-517 874.3689,-435.4029 776.6311,-532.5971 716,-451 691.2152,-417.6447 674.4444,-357.5 716,-357.5"/>
<polygon fill="#000000" stroke="#000000" points="944.6675,-574.9426 933.8492,-573.1496 939.8337,-576.2213 935,-577.5 935,-577.5 935,-577.5 939.8337,-576.2213 936.1508,-581.8504 944.6675,-574.9426 944.6675,-574.9426"/>
<text text-anchor="start" x="941.5215" y="-587.5" font-family="Arial" font-size="10.00" fill="#000000">FOREIGN KEY (product_attribute_value_id) REFERENCES product_attribute_value(id) ON DELETE CASCADE</text>
</g>
</g>
</svg>
