<?xml version="1.0" encoding="UTF-8" standalone="no"?>
<!DOCTYPE svg PUBLIC "-//W3C//DTD SVG 1.1//EN"
 "http://www.w3.org/Graphics/SVG/1.1/DTD/svg11.dtd">
<!-- Generated by graphviz version 2.40.1 (20161225.0304)
 -->
<!-- Title: public.pos_open_statement Pages: 1 -->
<svg width="766pt" height="1102pt"
 viewBox="0.00 0.00 765.50 1102.00" xmlns="http://www.w3.org/2000/svg" xmlns:xlink="http://www.w3.org/1999/xlink">
<g id="graph0" class="graph" transform="scale(1 1) rotate(0) translate(4 1098)">
<title>public.pos_open_statement</title>
<polygon fill="#ffffff" stroke="transparent" points="-4,4 -4,-1098 761.5,-1098 761.5,4 -4,4"/>
<!-- public.pos_open_statement -->
<g id="node1" class="node">
<title>public.pos_open_statement</title>
<polygon fill="#efefef" stroke="transparent" points="46.5,-1012.5 46.5,-1047.5 377.5,-1047.5 377.5,-1012.5 46.5,-1012.5"/>
<polygon fill="none" stroke="#000000" points="46.5,-1012.5 46.5,-1047.5 377.5,-1047.5 377.5,-1012.5 46.5,-1012.5"/>
<text text-anchor="start" x="53.3319" y="-1025.3" font-family="Arial Bold" font-size="18.00" fill="#000000">public.pos_open_statement</text>
<text text-anchor="start" x="273.4143" y="-1025.3" font-family="Arial" font-size="14.00" fill="#000000"> </text>
<text text-anchor="start" x="277.3049" y="-1025.3" font-family="Arial" font-size="14.00" fill="#666666">[BASE TABLE]</text>
<polygon fill="none" stroke="#000000" points="46.5,-982.5 46.5,-1012.5 377.5,-1012.5 377.5,-982.5 46.5,-982.5"/>
<text text-anchor="start" x="53.5" y="-993.9" font-family="Arial" font-size="14.00" fill="#000000">id </text>
<text text-anchor="start" x="68.2798" y="-993.9" font-family="Arial" font-size="14.00" fill="#666666">[integer]</text>
<polygon fill="none" stroke="#000000" points="46.5,-952.5 46.5,-982.5 377.5,-982.5 377.5,-952.5 46.5,-952.5"/>
<text text-anchor="start" x="53.5" y="-963.9" font-family="Arial" font-size="14.00" fill="#000000">create_uid </text>
<text text-anchor="start" x="122.744" y="-963.9" font-family="Arial" font-size="14.00" fill="#666666">[integer]</text>
<polygon fill="none" stroke="#000000" points="46.5,-922.5 46.5,-952.5 377.5,-952.5 377.5,-922.5 46.5,-922.5"/>
<text text-anchor="start" x="53.5" y="-933.9" font-family="Arial" font-size="14.00" fill="#000000">create_date </text>
<text text-anchor="start" x="131.3106" y="-933.9" font-family="Arial" font-size="14.00" fill="#666666">[timestamp without time zone]</text>
<polygon fill="none" stroke="#000000" points="46.5,-892.5 46.5,-922.5 377.5,-922.5 377.5,-892.5 46.5,-892.5"/>
<text text-anchor="start" x="53.5" y="-903.9" font-family="Arial" font-size="14.00" fill="#000000">write_uid </text>
<text text-anchor="start" x="113.392" y="-903.9" font-family="Arial" font-size="14.00" fill="#666666">[integer]</text>
<polygon fill="none" stroke="#000000" points="46.5,-862.5 46.5,-892.5 377.5,-892.5 377.5,-862.5 46.5,-862.5"/>
<text text-anchor="start" x="53.5" y="-873.9" font-family="Arial" font-size="14.00" fill="#000000">write_date </text>
<text text-anchor="start" x="121.9586" y="-873.9" font-family="Arial" font-size="14.00" fill="#666666">[timestamp without time zone]</text>
<polygon fill="none" stroke="#000000" stroke-width="3" points="44.5,-861.5 44.5,-1049.5 378.5,-1049.5 378.5,-861.5 44.5,-861.5"/>
</g>
<!-- public.res_users -->
<g id="node2" class="node">
<title>public.res_users</title>
<polygon fill="#efefef" stroke="transparent" points="74.5,-702.5 74.5,-737.5 350.5,-737.5 350.5,-702.5 74.5,-702.5"/>
<polygon fill="none" stroke="#000000" points="74.5,-702.5 74.5,-737.5 350.5,-737.5 350.5,-702.5 74.5,-702.5"/>
<text text-anchor="start" x="98.3639" y="-715.3" font-family="Arial Bold" font-size="18.00" fill="#000000">public.res_users</text>
<text text-anchor="start" x="229.3823" y="-715.3" font-family="Arial" font-size="14.00" fill="#000000"> </text>
<text text-anchor="start" x="233.2729" y="-715.3" font-family="Arial" font-size="14.00" fill="#666666">[BASE TABLE]</text>
<polygon fill="none" stroke="#000000" points="74.5,-672.5 74.5,-702.5 350.5,-702.5 350.5,-672.5 74.5,-672.5"/>
<text text-anchor="start" x="81.5" y="-683.9" font-family="Arial" font-size="14.00" fill="#000000">id </text>
<text text-anchor="start" x="96.2798" y="-683.9" font-family="Arial" font-size="14.00" fill="#666666">[integer]</text>
<polygon fill="none" stroke="#000000" points="74.5,-642.5 74.5,-672.5 350.5,-672.5 350.5,-642.5 74.5,-642.5"/>
<text text-anchor="start" x="81.5" y="-653.9" font-family="Arial" font-size="14.00" fill="#000000">active </text>
<text text-anchor="start" x="121.953" y="-653.9" font-family="Arial" font-size="14.00" fill="#666666">[boolean]</text>
<polygon fill="none" stroke="#000000" points="74.5,-612.5 74.5,-642.5 350.5,-642.5 350.5,-612.5 74.5,-612.5"/>
<text text-anchor="start" x="81.5" y="-623.9" font-family="Arial" font-size="14.00" fill="#000000">login </text>
<text text-anchor="start" x="114.9516" y="-623.9" font-family="Arial" font-size="14.00" fill="#666666">[varchar]</text>
<polygon fill="none" stroke="#000000" points="74.5,-582.5 74.5,-612.5 350.5,-612.5 350.5,-582.5 74.5,-582.5"/>
<text text-anchor="start" x="81.5" y="-593.9" font-family="Arial" font-size="14.00" fill="#000000">password </text>
<text text-anchor="start" x="145.2882" y="-593.9" font-family="Arial" font-size="14.00" fill="#666666">[varchar]</text>
<polygon fill="none" stroke="#000000" points="74.5,-552.5 74.5,-582.5 350.5,-582.5 350.5,-552.5 74.5,-552.5"/>
<text text-anchor="start" x="81.5" y="-563.9" font-family="Arial" font-size="14.00" fill="#000000">company_id </text>
<text text-anchor="start" x="160.8534" y="-563.9" font-family="Arial" font-size="14.00" fill="#666666">[integer]</text>
<polygon fill="none" stroke="#000000" points="74.5,-522.5 74.5,-552.5 350.5,-552.5 350.5,-522.5 74.5,-522.5"/>
<text text-anchor="start" x="81.5" y="-533.9" font-family="Arial" font-size="14.00" fill="#000000">partner_id </text>
<text text-anchor="start" x="148.4046" y="-533.9" font-family="Arial" font-size="14.00" fill="#666666">[integer]</text>
<polygon fill="none" stroke="#000000" points="74.5,-492.5 74.5,-522.5 350.5,-522.5 350.5,-492.5 74.5,-492.5"/>
<text text-anchor="start" x="81.0246" y="-503.9" font-family="Arial" font-size="14.00" fill="#000000">create_date </text>
<text text-anchor="start" x="158.8352" y="-503.9" font-family="Arial" font-size="14.00" fill="#666666">[timestamp without time zone]</text>
<polygon fill="none" stroke="#000000" points="74.5,-462.5 74.5,-492.5 350.5,-492.5 350.5,-462.5 74.5,-462.5"/>
<text text-anchor="start" x="81.5" y="-473.9" font-family="Arial" font-size="14.00" fill="#000000">signature </text>
<text text-anchor="start" x="142.9614" y="-473.9" font-family="Arial" font-size="14.00" fill="#666666">[text]</text>
<polygon fill="none" stroke="#000000" points="74.5,-432.5 74.5,-462.5 350.5,-462.5 350.5,-432.5 74.5,-432.5"/>
<text text-anchor="start" x="81.5" y="-443.9" font-family="Arial" font-size="14.00" fill="#000000">action_id </text>
<text text-anchor="start" x="141.4074" y="-443.9" font-family="Arial" font-size="14.00" fill="#666666">[integer]</text>
<polygon fill="none" stroke="#000000" points="74.5,-402.5 74.5,-432.5 350.5,-432.5 350.5,-402.5 74.5,-402.5"/>
<text text-anchor="start" x="81.5" y="-413.9" font-family="Arial" font-size="14.00" fill="#000000">share </text>
<text text-anchor="start" x="120.399" y="-413.9" font-family="Arial" font-size="14.00" fill="#666666">[boolean]</text>
<polygon fill="none" stroke="#000000" points="74.5,-372.5 74.5,-402.5 350.5,-402.5 350.5,-372.5 74.5,-372.5"/>
<text text-anchor="start" x="81.5" y="-383.9" font-family="Arial" font-size="14.00" fill="#000000">create_uid </text>
<text text-anchor="start" x="150.744" y="-383.9" font-family="Arial" font-size="14.00" fill="#666666">[integer]</text>
<polygon fill="none" stroke="#000000" points="74.5,-342.5 74.5,-372.5 350.5,-372.5 350.5,-342.5 74.5,-342.5"/>
<text text-anchor="start" x="81.5" y="-353.9" font-family="Arial" font-size="14.00" fill="#000000">write_uid </text>
<text text-anchor="start" x="141.392" y="-353.9" font-family="Arial" font-size="14.00" fill="#666666">[integer]</text>
<polygon fill="none" stroke="#000000" points="74.5,-312.5 74.5,-342.5 350.5,-342.5 350.5,-312.5 74.5,-312.5"/>
<text text-anchor="start" x="81.5" y="-323.9" font-family="Arial" font-size="14.00" fill="#000000">write_date </text>
<text text-anchor="start" x="149.9586" y="-323.9" font-family="Arial" font-size="14.00" fill="#666666">[timestamp without time zone]</text>
<polygon fill="none" stroke="#000000" points="74.5,-282.5 74.5,-312.5 350.5,-312.5 350.5,-282.5 74.5,-282.5"/>
<text text-anchor="start" x="81.5" y="-293.9" font-family="Arial" font-size="14.00" fill="#000000">alias_id </text>
<text text-anchor="start" x="132.8408" y="-293.9" font-family="Arial" font-size="14.00" fill="#666666">[integer]</text>
<polygon fill="none" stroke="#000000" points="74.5,-252.5 74.5,-282.5 350.5,-282.5 350.5,-252.5 74.5,-252.5"/>
<text text-anchor="start" x="81.5" y="-263.9" font-family="Arial" font-size="14.00" fill="#000000">notification_type </text>
<text text-anchor="start" x="186.5336" y="-263.9" font-family="Arial" font-size="14.00" fill="#666666">[varchar]</text>
<polygon fill="none" stroke="#000000" points="74.5,-222.5 74.5,-252.5 350.5,-252.5 350.5,-222.5 74.5,-222.5"/>
<text text-anchor="start" x="81.5" y="-233.9" font-family="Arial" font-size="14.00" fill="#000000">odoobot_state </text>
<text text-anchor="start" x="174.1058" y="-233.9" font-family="Arial" font-size="14.00" fill="#666666">[varchar]</text>
<polygon fill="none" stroke="#000000" points="74.5,-192.5 74.5,-222.5 350.5,-222.5 350.5,-192.5 74.5,-192.5"/>
<text text-anchor="start" x="81.5" y="-203.9" font-family="Arial" font-size="14.00" fill="#000000">sale_team_id </text>
<text text-anchor="start" x="168.6332" y="-203.9" font-family="Arial" font-size="14.00" fill="#666666">[integer]</text>
<polygon fill="none" stroke="#000000" points="74.5,-162.5 74.5,-192.5 350.5,-192.5 350.5,-162.5 74.5,-162.5"/>
<text text-anchor="start" x="81.5" y="-173.9" font-family="Arial" font-size="14.00" fill="#000000">target_sales_won </text>
<text text-anchor="start" x="195.089" y="-173.9" font-family="Arial" font-size="14.00" fill="#666666">[integer]</text>
<polygon fill="none" stroke="#000000" points="74.5,-132.5 74.5,-162.5 350.5,-162.5 350.5,-132.5 74.5,-132.5"/>
<text text-anchor="start" x="81.5" y="-143.9" font-family="Arial" font-size="14.00" fill="#000000">target_sales_done </text>
<text text-anchor="start" x="200.5476" y="-143.9" font-family="Arial" font-size="14.00" fill="#666666">[integer]</text>
<polygon fill="none" stroke="#000000" points="74.5,-102.5 74.5,-132.5 350.5,-132.5 350.5,-102.5 74.5,-102.5"/>
<text text-anchor="start" x="81.5" y="-113.9" font-family="Arial" font-size="14.00" fill="#000000">website_id </text>
<text text-anchor="start" x="151.514" y="-113.9" font-family="Arial" font-size="14.00" fill="#666666">[integer]</text>
<polygon fill="none" stroke="#000000" points="74.5,-72.5 74.5,-102.5 350.5,-102.5 350.5,-72.5 74.5,-72.5"/>
<text text-anchor="start" x="81.5" y="-83.9" font-family="Arial" font-size="14.00" fill="#000000">target_sales_invoiced </text>
<text text-anchor="start" x="220.7608" y="-83.9" font-family="Arial" font-size="14.00" fill="#666666">[integer]</text>
<polygon fill="none" stroke="#000000" points="74.5,-42.5 74.5,-72.5 350.5,-72.5 350.5,-42.5 74.5,-42.5"/>
<text text-anchor="start" x="81.5" y="-53.9" font-family="Arial" font-size="14.00" fill="#000000">pos_security_pin </text>
<text text-anchor="start" x="190.4158" y="-53.9" font-family="Arial" font-size="14.00" fill="#666666">[varchar(32)]</text>
</g>
<!-- public.pos_open_statement&#45;&gt;public.res_users -->
<g id="edge1" class="edge">
<title>public.pos_open_statement:create_uid&#45;&gt;public.res_users:id</title>
<path fill="none" stroke="#000000" d="M387.6832,-966.6231C441.8657,-956.6599 419.4907,-864.275 377.5,-817 287.4409,-715.6074 164.5591,-882.3926 74.5,-781 46.9036,-749.9307 32.9444,-687.5 74.5,-687.5"/>
<polygon fill="#000000" stroke="#000000" points="387.4631,-966.6419 377.1139,-963.0166 382.4816,-967.071 377.5,-967.5 377.5,-967.5 377.5,-967.5 382.4816,-967.071 377.8861,-971.9834 387.4631,-966.6419 387.4631,-966.6419"/>
<text text-anchor="start" x="384.157" y="-977.5" font-family="Arial" font-size="10.00" fill="#000000">FOREIGN KEY (create_uid) REFERENCES res_users(id) ON DELETE SET NULL</text>
</g>
<!-- public.pos_open_statement&#45;&gt;public.res_users -->
<g id="edge2" class="edge">
<title>public.pos_open_statement:write_uid&#45;&gt;public.res_users:id</title>
<path fill="none" stroke="#000000" d="M387.4291,-905.9815C415.0729,-896.4366 401.7068,-844.2531 377.5,-817 287.4409,-715.6074 164.5591,-882.3926 74.5,-781 46.9036,-749.9307 32.9444,-687.5 74.5,-687.5"/>
<polygon fill="#000000" stroke="#000000" points="387.3851,-905.9881 376.8197,-903.0517 382.4425,-906.7441 377.5,-907.5 377.5,-907.5 377.5,-907.5 382.4425,-906.7441 378.1803,-911.9483 387.3851,-905.9881 387.3851,-905.9881"/>
<text text-anchor="start" x="384.497" y="-917.5" font-family="Arial" font-size="10.00" fill="#000000">FOREIGN KEY (write_uid) REFERENCES res_users(id) ON DELETE SET NULL</text>
</g>
</g>
</svg>
