<?xml version="1.0" encoding="UTF-8" standalone="no"?>
<!DOCTYPE svg PUBLIC "-//W3C//DTD SVG 1.1//EN"
 "http://www.w3.org/Graphics/SVG/1.1/DTD/svg11.dtd">
<!-- Generated by graphviz version 2.40.1 (20161225.0304)
 -->
<!-- Title: public.product_attr_exclusion_value_ids_rel Pages: 1 -->
<svg width="1704pt" height="592pt"
 viewBox="0.00 0.00 1704.00 592.00" xmlns="http://www.w3.org/2000/svg" xmlns:xlink="http://www.w3.org/1999/xlink">
<g id="graph0" class="graph" transform="scale(1 1) rotate(0) translate(4 588)">
<title>public.product_attr_exclusion_value_ids_rel</title>
<polygon fill="#ffffff" stroke="transparent" points="-4,4 -4,-588 1700,-588 1700,4 -4,4"/>
<!-- public.product_attr_exclusion_value_ids_rel -->
<g id="node1" class="node">
<title>public.product_attr_exclusion_value_ids_rel</title>
<polygon fill="#efefef" stroke="transparent" points="636,-502.5 636,-537.5 1096,-537.5 1096,-502.5 636,-502.5"/>
<polygon fill="none" stroke="#000000" points="636,-502.5 636,-537.5 1096,-537.5 1096,-502.5 636,-502.5"/>
<text text-anchor="start" x="642.8325" y="-515.3" font-family="Arial Bold" font-size="18.00" fill="#000000">public.product_attr_exclusion_value_ids_rel</text>
<text text-anchor="start" x="991.9137" y="-515.3" font-family="Arial" font-size="14.00" fill="#000000"> </text>
<text text-anchor="start" x="995.8043" y="-515.3" font-family="Arial" font-size="14.00" fill="#666666">[BASE TABLE]</text>
<polygon fill="none" stroke="#000000" points="636,-472.5 636,-502.5 1096,-502.5 1096,-472.5 636,-472.5"/>
<text text-anchor="start" x="643" y="-483.9" font-family="Arial" font-size="14.00" fill="#000000">product_template_attribute_exclusion_id </text>
<text text-anchor="start" x="898.1836" y="-483.9" font-family="Arial" font-size="14.00" fill="#666666">[integer]</text>
<polygon fill="none" stroke="#000000" points="636,-442.5 636,-472.5 1096,-472.5 1096,-442.5 636,-442.5"/>
<text text-anchor="start" x="643" y="-453.9" font-family="Arial" font-size="14.00" fill="#000000">product_template_attribute_value_id </text>
<text text-anchor="start" x="873.2944" y="-453.9" font-family="Arial" font-size="14.00" fill="#666666">[integer]</text>
<polygon fill="none" stroke="#000000" stroke-width="3" points="634.5,-441.5 634.5,-539.5 1097.5,-539.5 1097.5,-441.5 634.5,-441.5"/>
</g>
<!-- public.product_template_attribute_exclusion -->
<g id="node2" class="node">
<title>public.product_template_attribute_exclusion</title>
<polygon fill="#efefef" stroke="transparent" points="360,-267.5 360,-302.5 822,-302.5 822,-267.5 360,-267.5"/>
<polygon fill="none" stroke="#000000" points="360,-267.5 360,-302.5 822,-302.5 822,-267.5 360,-267.5"/>
<text text-anchor="start" x="366.8263" y="-280.3" font-family="Arial Bold" font-size="18.00" fill="#000000">public.product_template_attribute_exclusion</text>
<text text-anchor="start" x="717.9199" y="-280.3" font-family="Arial" font-size="14.00" fill="#000000"> </text>
<text text-anchor="start" x="721.8105" y="-280.3" font-family="Arial" font-size="14.00" fill="#666666">[BASE TABLE]</text>
<polygon fill="none" stroke="#000000" points="360,-237.5 360,-267.5 822,-267.5 822,-237.5 360,-237.5"/>
<text text-anchor="start" x="367" y="-248.9" font-family="Arial" font-size="14.00" fill="#000000">id </text>
<text text-anchor="start" x="381.7798" y="-248.9" font-family="Arial" font-size="14.00" fill="#666666">[integer]</text>
<polygon fill="none" stroke="#000000" points="360,-207.5 360,-237.5 822,-237.5 822,-207.5 360,-207.5"/>
<text text-anchor="start" x="367" y="-218.9" font-family="Arial" font-size="14.00" fill="#000000">product_template_attribute_value_id </text>
<text text-anchor="start" x="597.2944" y="-218.9" font-family="Arial" font-size="14.00" fill="#666666">[integer]</text>
<polygon fill="none" stroke="#000000" points="360,-177.5 360,-207.5 822,-207.5 822,-177.5 360,-177.5"/>
<text text-anchor="start" x="367" y="-188.9" font-family="Arial" font-size="14.00" fill="#000000">product_tmpl_id </text>
<text text-anchor="start" x="470.467" y="-188.9" font-family="Arial" font-size="14.00" fill="#666666">[integer]</text>
<polygon fill="none" stroke="#000000" points="360,-147.5 360,-177.5 822,-177.5 822,-147.5 360,-147.5"/>
<text text-anchor="start" x="367" y="-158.9" font-family="Arial" font-size="14.00" fill="#000000">create_uid </text>
<text text-anchor="start" x="436.244" y="-158.9" font-family="Arial" font-size="14.00" fill="#666666">[integer]</text>
<polygon fill="none" stroke="#000000" points="360,-117.5 360,-147.5 822,-147.5 822,-117.5 360,-117.5"/>
<text text-anchor="start" x="367" y="-128.9" font-family="Arial" font-size="14.00" fill="#000000">create_date </text>
<text text-anchor="start" x="444.8106" y="-128.9" font-family="Arial" font-size="14.00" fill="#666666">[timestamp without time zone]</text>
<polygon fill="none" stroke="#000000" points="360,-87.5 360,-117.5 822,-117.5 822,-87.5 360,-87.5"/>
<text text-anchor="start" x="367" y="-98.9" font-family="Arial" font-size="14.00" fill="#000000">write_uid </text>
<text text-anchor="start" x="426.892" y="-98.9" font-family="Arial" font-size="14.00" fill="#666666">[integer]</text>
<polygon fill="none" stroke="#000000" points="360,-57.5 360,-87.5 822,-87.5 822,-57.5 360,-57.5"/>
<text text-anchor="start" x="367" y="-68.9" font-family="Arial" font-size="14.00" fill="#000000">write_date </text>
<text text-anchor="start" x="435.4586" y="-68.9" font-family="Arial" font-size="14.00" fill="#666666">[timestamp without time zone]</text>
</g>
<!-- public.product_attr_exclusion_value_ids_rel&#45;&gt;public.product_template_attribute_exclusion -->
<g id="edge1" class="edge">
<title>public.product_attr_exclusion_value_ids_rel:product_template_attribute_exclusion_id&#45;&gt;public.product_template_attribute_exclusion:id</title>
<path fill="none" stroke="#000000" d="M625.7756,-485.905C598.9511,-476.3237 613.9893,-425.8583 636,-397 687.9837,-328.844 770.0163,-414.156 822,-346 847.2014,-312.9583 863.5556,-252.5 822,-252.5"/>
<polygon fill="#000000" stroke="#000000" points="626.1195,-485.9586 635.3064,-491.9462 631.0598,-486.7293 636,-487.5 636,-487.5 636,-487.5 631.0598,-486.7293 636.6936,-483.0538 626.1195,-485.9586 626.1195,-485.9586"/>
<text text-anchor="start" x="6.8425" y="-497.5" font-family="Arial" font-size="10.00" fill="#000000">FOREIGN KEY (product_template_attribute_exclusion_id) REFERENCES product_template_attribute_exclusion(id) ON DELETE CASCADE</text>
</g>
<!-- public.product_template_attribute_value -->
<g id="node3" class="node">
<title>public.product_template_attribute_value</title>
<polygon fill="#efefef" stroke="transparent" points="926,-282.5 926,-317.5 1356,-317.5 1356,-282.5 926,-282.5"/>
<polygon fill="none" stroke="#000000" points="926,-282.5 926,-317.5 1356,-317.5 1356,-282.5 926,-282.5"/>
<text text-anchor="start" x="932.8265" y="-295.3" font-family="Arial Bold" font-size="18.00" fill="#000000">public.product_template_attribute_value</text>
<text text-anchor="start" x="1251.9197" y="-295.3" font-family="Arial" font-size="14.00" fill="#000000"> </text>
<text text-anchor="start" x="1255.8103" y="-295.3" font-family="Arial" font-size="14.00" fill="#666666">[BASE TABLE]</text>
<polygon fill="none" stroke="#000000" points="926,-252.5 926,-282.5 1356,-282.5 1356,-252.5 926,-252.5"/>
<text text-anchor="start" x="933" y="-263.9" font-family="Arial" font-size="14.00" fill="#000000">id </text>
<text text-anchor="start" x="947.7798" y="-263.9" font-family="Arial" font-size="14.00" fill="#666666">[integer]</text>
<polygon fill="none" stroke="#000000" points="926,-222.5 926,-252.5 1356,-252.5 1356,-222.5 926,-222.5"/>
<text text-anchor="start" x="933" y="-233.9" font-family="Arial" font-size="14.00" fill="#000000">product_attribute_value_id </text>
<text text-anchor="start" x="1101.833" y="-233.9" font-family="Arial" font-size="14.00" fill="#666666">[integer]</text>
<polygon fill="none" stroke="#000000" points="926,-192.5 926,-222.5 1356,-222.5 1356,-192.5 926,-192.5"/>
<text text-anchor="start" x="933" y="-203.9" font-family="Arial" font-size="14.00" fill="#000000">product_tmpl_id </text>
<text text-anchor="start" x="1036.467" y="-203.9" font-family="Arial" font-size="14.00" fill="#666666">[integer]</text>
<polygon fill="none" stroke="#000000" points="926,-162.5 926,-192.5 1356,-192.5 1356,-162.5 926,-162.5"/>
<text text-anchor="start" x="933" y="-173.9" font-family="Arial" font-size="14.00" fill="#000000">price_extra </text>
<text text-anchor="start" x="1006.122" y="-173.9" font-family="Arial" font-size="14.00" fill="#666666">[numeric]</text>
<polygon fill="none" stroke="#000000" points="926,-132.5 926,-162.5 1356,-162.5 1356,-132.5 926,-132.5"/>
<text text-anchor="start" x="933" y="-143.9" font-family="Arial" font-size="14.00" fill="#000000">create_uid </text>
<text text-anchor="start" x="1002.244" y="-143.9" font-family="Arial" font-size="14.00" fill="#666666">[integer]</text>
<polygon fill="none" stroke="#000000" points="926,-102.5 926,-132.5 1356,-132.5 1356,-102.5 926,-102.5"/>
<text text-anchor="start" x="933" y="-113.9" font-family="Arial" font-size="14.00" fill="#000000">create_date </text>
<text text-anchor="start" x="1010.8106" y="-113.9" font-family="Arial" font-size="14.00" fill="#666666">[timestamp without time zone]</text>
<polygon fill="none" stroke="#000000" points="926,-72.5 926,-102.5 1356,-102.5 1356,-72.5 926,-72.5"/>
<text text-anchor="start" x="933" y="-83.9" font-family="Arial" font-size="14.00" fill="#000000">write_uid </text>
<text text-anchor="start" x="992.892" y="-83.9" font-family="Arial" font-size="14.00" fill="#666666">[integer]</text>
<polygon fill="none" stroke="#000000" points="926,-42.5 926,-72.5 1356,-72.5 1356,-42.5 926,-42.5"/>
<text text-anchor="start" x="933" y="-53.9" font-family="Arial" font-size="14.00" fill="#000000">write_date </text>
<text text-anchor="start" x="1001.4586" y="-53.9" font-family="Arial" font-size="14.00" fill="#666666">[timestamp without time zone]</text>
</g>
<!-- public.product_attr_exclusion_value_ids_rel&#45;&gt;public.product_template_attribute_value -->
<g id="edge2" class="edge">
<title>public.product_attr_exclusion_value_ids_rel:product_template_attribute_value_id&#45;&gt;public.product_template_attribute_value:id</title>
<path fill="none" stroke="#000000" d="M1106.0193,-454.8214C1119.6064,-445.579 1110.2844,-414.6261 1096,-397 1047.3742,-336.9986 974.6258,-421.0014 926,-361 899.836,-328.7152 884.4444,-267.5 926,-267.5"/>
<polygon fill="#000000" stroke="#000000" points="1105.6607,-454.9172 1094.8377,-453.1527 1100.8304,-456.2086 1096,-457.5 1096,-457.5 1096,-457.5 1100.8304,-456.2086 1097.1623,-461.8473 1105.6607,-454.9172 1105.6607,-454.9172"/>
<text text-anchor="start" x="1102.6205" y="-467.5" font-family="Arial" font-size="10.00" fill="#000000">FOREIGN KEY (product_template_attribute_value_id) REFERENCES product_template_attribute_value(id) ON DELETE CASCADE</text>
</g>
</g>
</svg>
