<?xml version="1.0" encoding="UTF-8" standalone="no"?>
<!DOCTYPE svg PUBLIC "-//W3C//DTD SVG 1.1//EN"
 "http://www.w3.org/Graphics/SVG/1.1/DTD/svg11.dtd">
<!-- Generated by graphviz version 2.40.1 (20161225.0304)
 -->
<!-- Title: public.stock_location_route_stock_rules_report_rel Pages: 1 -->
<svg width="1479pt" height="802pt"
 viewBox="0.00 0.00 1479.00 802.00" xmlns="http://www.w3.org/2000/svg" xmlns:xlink="http://www.w3.org/1999/xlink">
<g id="graph0" class="graph" transform="scale(1 1) rotate(0) translate(4 798)">
<title>public.stock_location_route_stock_rules_report_rel</title>
<polygon fill="#ffffff" stroke="transparent" points="-4,4 -4,-798 1475,-798 1475,4 -4,4"/>
<!-- public.stock_location_route_stock_rules_report_rel -->
<g id="node1" class="node">
<title>public.stock_location_route_stock_rules_report_rel</title>
<polygon fill="#efefef" stroke="transparent" points="468,-712.5 468,-747.5 984,-747.5 984,-712.5 468,-712.5"/>
<polygon fill="none" stroke="#000000" points="468,-712.5 468,-747.5 984,-747.5 984,-712.5 468,-712.5"/>
<text text-anchor="start" x="474.829" y="-725.3" font-family="Arial Bold" font-size="18.00" fill="#000000">public.stock_location_route_stock_rules_report_rel</text>
<text text-anchor="start" x="879.9172" y="-725.3" font-family="Arial" font-size="14.00" fill="#000000"> </text>
<text text-anchor="start" x="883.8078" y="-725.3" font-family="Arial" font-size="14.00" fill="#666666">[BASE TABLE]</text>
<polygon fill="none" stroke="#000000" points="468,-682.5 468,-712.5 984,-712.5 984,-682.5 468,-682.5"/>
<text text-anchor="start" x="475" y="-693.9" font-family="Arial" font-size="14.00" fill="#000000">stock_rules_report_id </text>
<text text-anchor="start" x="612.6928" y="-693.9" font-family="Arial" font-size="14.00" fill="#666666">[integer]</text>
<polygon fill="none" stroke="#000000" points="468,-652.5 468,-682.5 984,-682.5 984,-652.5 468,-652.5"/>
<text text-anchor="start" x="475" y="-663.9" font-family="Arial" font-size="14.00" fill="#000000">stock_location_route_id </text>
<text text-anchor="start" x="625.934" y="-663.9" font-family="Arial" font-size="14.00" fill="#666666">[integer]</text>
<polygon fill="none" stroke="#000000" stroke-width="3" points="466.5,-651.5 466.5,-749.5 985.5,-749.5 985.5,-651.5 466.5,-651.5"/>
</g>
<!-- public.stock_rules_report -->
<g id="node2" class="node">
<title>public.stock_rules_report</title>
<polygon fill="#efefef" stroke="transparent" points="359,-387.5 359,-422.5 670,-422.5 670,-387.5 359,-387.5"/>
<polygon fill="none" stroke="#000000" points="359,-387.5 359,-422.5 670,-422.5 670,-387.5 359,-387.5"/>
<text text-anchor="start" x="365.8561" y="-400.3" font-family="Arial Bold" font-size="18.00" fill="#000000">public.stock_rules_report</text>
<text text-anchor="start" x="565.8901" y="-400.3" font-family="Arial" font-size="14.00" fill="#000000"> </text>
<text text-anchor="start" x="569.7807" y="-400.3" font-family="Arial" font-size="14.00" fill="#666666">[BASE TABLE]</text>
<polygon fill="none" stroke="#000000" points="359,-357.5 359,-387.5 670,-387.5 670,-357.5 359,-357.5"/>
<text text-anchor="start" x="366" y="-368.9" font-family="Arial" font-size="14.00" fill="#000000">id </text>
<text text-anchor="start" x="380.7798" y="-368.9" font-family="Arial" font-size="14.00" fill="#666666">[integer]</text>
<polygon fill="none" stroke="#000000" points="359,-327.5 359,-357.5 670,-357.5 670,-327.5 359,-327.5"/>
<text text-anchor="start" x="366" y="-338.9" font-family="Arial" font-size="14.00" fill="#000000">product_id </text>
<text text-anchor="start" x="435.244" y="-338.9" font-family="Arial" font-size="14.00" fill="#666666">[integer]</text>
<polygon fill="none" stroke="#000000" points="359,-297.5 359,-327.5 670,-327.5 670,-297.5 359,-297.5"/>
<text text-anchor="start" x="366" y="-308.9" font-family="Arial" font-size="14.00" fill="#000000">product_tmpl_id </text>
<text text-anchor="start" x="469.467" y="-308.9" font-family="Arial" font-size="14.00" fill="#666666">[integer]</text>
<polygon fill="none" stroke="#000000" points="359,-267.5 359,-297.5 670,-297.5 670,-267.5 359,-267.5"/>
<text text-anchor="start" x="366" y="-278.9" font-family="Arial" font-size="14.00" fill="#000000">product_has_variants </text>
<text text-anchor="start" x="503.7082" y="-278.9" font-family="Arial" font-size="14.00" fill="#666666">[boolean]</text>
<polygon fill="none" stroke="#000000" points="359,-237.5 359,-267.5 670,-267.5 670,-237.5 359,-237.5"/>
<text text-anchor="start" x="366" y="-248.9" font-family="Arial" font-size="14.00" fill="#000000">create_uid </text>
<text text-anchor="start" x="435.244" y="-248.9" font-family="Arial" font-size="14.00" fill="#666666">[integer]</text>
<polygon fill="none" stroke="#000000" points="359,-207.5 359,-237.5 670,-237.5 670,-207.5 359,-207.5"/>
<text text-anchor="start" x="366" y="-218.9" font-family="Arial" font-size="14.00" fill="#000000">create_date </text>
<text text-anchor="start" x="443.8106" y="-218.9" font-family="Arial" font-size="14.00" fill="#666666">[timestamp without time zone]</text>
<polygon fill="none" stroke="#000000" points="359,-177.5 359,-207.5 670,-207.5 670,-177.5 359,-177.5"/>
<text text-anchor="start" x="366" y="-188.9" font-family="Arial" font-size="14.00" fill="#000000">write_uid </text>
<text text-anchor="start" x="425.892" y="-188.9" font-family="Arial" font-size="14.00" fill="#666666">[integer]</text>
<polygon fill="none" stroke="#000000" points="359,-147.5 359,-177.5 670,-177.5 670,-147.5 359,-147.5"/>
<text text-anchor="start" x="366" y="-158.9" font-family="Arial" font-size="14.00" fill="#000000">write_date </text>
<text text-anchor="start" x="434.4586" y="-158.9" font-family="Arial" font-size="14.00" fill="#666666">[timestamp without time zone]</text>
</g>
<!-- public.stock_location_route_stock_rules_report_rel&#45;&gt;public.stock_rules_report -->
<g id="edge1" class="edge">
<title>public.stock_location_route_stock_rules_report_rel:stock_rules_report_id&#45;&gt;public.stock_rules_report:id</title>
<path fill="none" stroke="#000000" d="M457.9251,-696.0001C431.9723,-686.9727 451.2175,-639.1811 468,-607 518.6263,-509.922 619.3737,-563.078 670,-466 689.2153,-429.1539 711.5556,-372.5 670,-372.5"/>
<polygon fill="#000000" stroke="#000000" points="458.109,-696.0273 467.3373,-701.9509 463.0545,-696.7637 468,-697.5 468,-697.5 468,-697.5 463.0545,-696.7637 468.6627,-693.0491 458.109,-696.0273 458.109,-696.0273"/>
<text text-anchor="start" x="6.7645" y="-707.5" font-family="Arial" font-size="10.00" fill="#000000">FOREIGN KEY (stock_rules_report_id) REFERENCES stock_rules_report(id) ON DELETE CASCADE</text>
</g>
<!-- public.stock_location_route -->
<g id="node3" class="node">
<title>public.stock_location_route</title>
<polygon fill="#efefef" stroke="transparent" points="774,-492.5 774,-527.5 1102,-527.5 1102,-492.5 774,-492.5"/>
<polygon fill="none" stroke="#000000" points="774,-492.5 774,-527.5 1102,-527.5 1102,-492.5 774,-492.5"/>
<text text-anchor="start" x="780.8439" y="-505.3" font-family="Arial Bold" font-size="18.00" fill="#000000">public.stock_location_route</text>
<text text-anchor="start" x="997.9023" y="-505.3" font-family="Arial" font-size="14.00" fill="#000000"> </text>
<text text-anchor="start" x="1001.7929" y="-505.3" font-family="Arial" font-size="14.00" fill="#666666">[BASE TABLE]</text>
<polygon fill="none" stroke="#000000" points="774,-462.5 774,-492.5 1102,-492.5 1102,-462.5 774,-462.5"/>
<text text-anchor="start" x="781" y="-473.9" font-family="Arial" font-size="14.00" fill="#000000">id </text>
<text text-anchor="start" x="795.7798" y="-473.9" font-family="Arial" font-size="14.00" fill="#666666">[integer]</text>
<polygon fill="none" stroke="#000000" points="774,-432.5 774,-462.5 1102,-462.5 1102,-432.5 774,-432.5"/>
<text text-anchor="start" x="781" y="-443.9" font-family="Arial" font-size="14.00" fill="#000000">name </text>
<text text-anchor="start" x="819.899" y="-443.9" font-family="Arial" font-size="14.00" fill="#666666">[varchar]</text>
<polygon fill="none" stroke="#000000" points="774,-402.5 774,-432.5 1102,-432.5 1102,-402.5 774,-402.5"/>
<text text-anchor="start" x="781" y="-413.9" font-family="Arial" font-size="14.00" fill="#000000">active </text>
<text text-anchor="start" x="821.453" y="-413.9" font-family="Arial" font-size="14.00" fill="#666666">[boolean]</text>
<polygon fill="none" stroke="#000000" points="774,-372.5 774,-402.5 1102,-402.5 1102,-372.5 774,-372.5"/>
<text text-anchor="start" x="781" y="-383.9" font-family="Arial" font-size="14.00" fill="#000000">sequence </text>
<text text-anchor="start" x="845.5862" y="-383.9" font-family="Arial" font-size="14.00" fill="#666666">[integer]</text>
<polygon fill="none" stroke="#000000" points="774,-342.5 774,-372.5 1102,-372.5 1102,-342.5 774,-342.5"/>
<text text-anchor="start" x="781" y="-353.9" font-family="Arial" font-size="14.00" fill="#000000">product_selectable </text>
<text text-anchor="start" x="902.3716" y="-353.9" font-family="Arial" font-size="14.00" fill="#666666">[boolean]</text>
<polygon fill="none" stroke="#000000" points="774,-312.5 774,-342.5 1102,-342.5 1102,-312.5 774,-312.5"/>
<text text-anchor="start" x="781" y="-323.9" font-family="Arial" font-size="14.00" fill="#000000">product_categ_selectable </text>
<text text-anchor="start" x="944.3926" y="-323.9" font-family="Arial" font-size="14.00" fill="#666666">[boolean]</text>
<polygon fill="none" stroke="#000000" points="774,-282.5 774,-312.5 1102,-312.5 1102,-282.5 774,-282.5"/>
<text text-anchor="start" x="781" y="-293.9" font-family="Arial" font-size="14.00" fill="#000000">warehouse_selectable </text>
<text text-anchor="start" x="924.1528" y="-293.9" font-family="Arial" font-size="14.00" fill="#666666">[boolean]</text>
<polygon fill="none" stroke="#000000" points="774,-252.5 774,-282.5 1102,-282.5 1102,-252.5 774,-252.5"/>
<text text-anchor="start" x="781" y="-263.9" font-family="Arial" font-size="14.00" fill="#000000">supplied_wh_id </text>
<text text-anchor="start" x="881.3604" y="-263.9" font-family="Arial" font-size="14.00" fill="#666666">[integer]</text>
<polygon fill="none" stroke="#000000" points="774,-222.5 774,-252.5 1102,-252.5 1102,-222.5 774,-222.5"/>
<text text-anchor="start" x="781" y="-233.9" font-family="Arial" font-size="14.00" fill="#000000">supplier_wh_id </text>
<text text-anchor="start" x="878.2384" y="-233.9" font-family="Arial" font-size="14.00" fill="#666666">[integer]</text>
<polygon fill="none" stroke="#000000" points="774,-192.5 774,-222.5 1102,-222.5 1102,-192.5 774,-192.5"/>
<text text-anchor="start" x="781" y="-203.9" font-family="Arial" font-size="14.00" fill="#000000">company_id </text>
<text text-anchor="start" x="860.3534" y="-203.9" font-family="Arial" font-size="14.00" fill="#666666">[integer]</text>
<polygon fill="none" stroke="#000000" points="774,-162.5 774,-192.5 1102,-192.5 1102,-162.5 774,-162.5"/>
<text text-anchor="start" x="781" y="-173.9" font-family="Arial" font-size="14.00" fill="#000000">create_uid </text>
<text text-anchor="start" x="850.244" y="-173.9" font-family="Arial" font-size="14.00" fill="#666666">[integer]</text>
<polygon fill="none" stroke="#000000" points="774,-132.5 774,-162.5 1102,-162.5 1102,-132.5 774,-132.5"/>
<text text-anchor="start" x="781" y="-143.9" font-family="Arial" font-size="14.00" fill="#000000">create_date </text>
<text text-anchor="start" x="858.8106" y="-143.9" font-family="Arial" font-size="14.00" fill="#666666">[timestamp without time zone]</text>
<polygon fill="none" stroke="#000000" points="774,-102.5 774,-132.5 1102,-132.5 1102,-102.5 774,-102.5"/>
<text text-anchor="start" x="781" y="-113.9" font-family="Arial" font-size="14.00" fill="#000000">write_uid </text>
<text text-anchor="start" x="840.892" y="-113.9" font-family="Arial" font-size="14.00" fill="#666666">[integer]</text>
<polygon fill="none" stroke="#000000" points="774,-72.5 774,-102.5 1102,-102.5 1102,-72.5 774,-72.5"/>
<text text-anchor="start" x="781" y="-83.9" font-family="Arial" font-size="14.00" fill="#000000">write_date </text>
<text text-anchor="start" x="849.4586" y="-83.9" font-family="Arial" font-size="14.00" fill="#666666">[timestamp without time zone]</text>
<polygon fill="none" stroke="#000000" points="774,-42.5 774,-72.5 1102,-72.5 1102,-42.5 774,-42.5"/>
<text text-anchor="start" x="781" y="-53.9" font-family="Arial" font-size="14.00" fill="#000000">sale_selectable </text>
<text text-anchor="start" x="881.3618" y="-53.9" font-family="Arial" font-size="14.00" fill="#666666">[boolean]</text>
</g>
<!-- public.stock_location_route_stock_rules_report_rel&#45;&gt;public.stock_location_route -->
<g id="edge2" class="edge">
<title>public.stock_location_route_stock_rules_report_rel:stock_location_route_id&#45;&gt;public.stock_location_route:id</title>
<path fill="none" stroke="#000000" d="M994.0442,-664.8008C1007.7127,-655.4911 998.6245,-624.3449 984,-607 922.9591,-534.6045 835.0409,-643.3955 774,-571 747.213,-539.2302 732.4444,-477.5 774,-477.5"/>
<polygon fill="#000000" stroke="#000000" points="993.6574,-664.9047 982.8321,-663.1542 988.8287,-666.2023 984,-667.5 984,-667.5 984,-667.5 988.8287,-666.2023 985.1679,-671.8458 993.6574,-664.9047 993.6574,-664.9047"/>
<text text-anchor="start" x="991.3065" y="-677.5" font-family="Arial" font-size="10.00" fill="#000000">FOREIGN KEY (stock_location_route_id) REFERENCES stock_location_route(id) ON DELETE CASCADE</text>
</g>
</g>
</svg>
