<?xml version="1.0" encoding="UTF-8" standalone="no"?>
<!DOCTYPE svg PUBLIC "-//W3C//DTD SVG 1.1//EN"
 "http://www.w3.org/Graphics/SVG/1.1/DTD/svg11.dtd">
<!-- Generated by graphviz version 2.40.1 (20161225.0304)
 -->
<!-- Title: public.product_attribute_value_product_product_rel Pages: 1 -->
<svg width="1489pt" height="712pt"
 viewBox="0.00 0.00 1489.00 712.00" xmlns="http://www.w3.org/2000/svg" xmlns:xlink="http://www.w3.org/1999/xlink">
<g id="graph0" class="graph" transform="scale(1 1) rotate(0) translate(4 708)">
<title>public.product_attribute_value_product_product_rel</title>
<polygon fill="#ffffff" stroke="transparent" points="-4,4 -4,-708 1485,-708 1485,4 -4,4"/>
<!-- public.product_attribute_value_product_product_rel -->
<g id="node1" class="node">
<title>public.product_attribute_value_product_product_rel</title>
<polygon fill="#efefef" stroke="transparent" points="448,-622.5 448,-657.5 969,-657.5 969,-622.5 448,-622.5"/>
<polygon fill="none" stroke="#000000" points="448,-622.5 448,-657.5 969,-657.5 969,-622.5 448,-622.5"/>
<text text-anchor="start" x="454.8126" y="-635.3" font-family="Arial Bold" font-size="18.00" fill="#000000">public.product_attribute_value_product_product_rel</text>
<text text-anchor="start" x="864.9336" y="-635.3" font-family="Arial" font-size="14.00" fill="#000000"> </text>
<text text-anchor="start" x="868.8242" y="-635.3" font-family="Arial" font-size="14.00" fill="#666666">[BASE TABLE]</text>
<polygon fill="none" stroke="#000000" points="448,-592.5 448,-622.5 969,-622.5 969,-592.5 448,-592.5"/>
<text text-anchor="start" x="455" y="-603.9" font-family="Arial" font-size="14.00" fill="#000000">product_product_id </text>
<text text-anchor="start" x="578.7082" y="-603.9" font-family="Arial" font-size="14.00" fill="#666666">[integer]</text>
<polygon fill="none" stroke="#000000" points="448,-562.5 448,-592.5 969,-592.5 969,-562.5 448,-562.5"/>
<text text-anchor="start" x="455" y="-573.9" font-family="Arial" font-size="14.00" fill="#000000">product_attribute_value_id </text>
<text text-anchor="start" x="623.833" y="-573.9" font-family="Arial" font-size="14.00" fill="#666666">[integer]</text>
<polygon fill="none" stroke="#000000" stroke-width="3" points="446,-561.5 446,-659.5 970,-659.5 970,-561.5 446,-561.5"/>
</g>
<!-- public.product_product -->
<g id="node2" class="node">
<title>public.product_product</title>
<polygon fill="#efefef" stroke="transparent" points="349,-402.5 349,-437.5 642,-437.5 642,-402.5 349,-402.5"/>
<polygon fill="none" stroke="#000000" points="349,-402.5 349,-437.5 642,-437.5 642,-402.5 349,-402.5"/>
<text text-anchor="start" x="355.8462" y="-415.3" font-family="Arial Bold" font-size="18.00" fill="#000000">public.product_product</text>
<text text-anchor="start" x="537.9" y="-415.3" font-family="Arial" font-size="14.00" fill="#000000"> </text>
<text text-anchor="start" x="541.7906" y="-415.3" font-family="Arial" font-size="14.00" fill="#666666">[BASE TABLE]</text>
<polygon fill="none" stroke="#000000" points="349,-372.5 349,-402.5 642,-402.5 642,-372.5 349,-372.5"/>
<text text-anchor="start" x="356" y="-383.9" font-family="Arial" font-size="14.00" fill="#000000">id </text>
<text text-anchor="start" x="370.7798" y="-383.9" font-family="Arial" font-size="14.00" fill="#666666">[integer]</text>
<polygon fill="none" stroke="#000000" points="349,-342.5 349,-372.5 642,-372.5 642,-342.5 349,-342.5"/>
<text text-anchor="start" x="356" y="-353.9" font-family="Arial" font-size="14.00" fill="#000000">message_main_attachment_id </text>
<text text-anchor="start" x="550.4964" y="-353.9" font-family="Arial" font-size="14.00" fill="#666666">[integer]</text>
<polygon fill="none" stroke="#000000" points="349,-312.5 349,-342.5 642,-342.5 642,-312.5 349,-312.5"/>
<text text-anchor="start" x="356" y="-323.9" font-family="Arial" font-size="14.00" fill="#000000">default_code </text>
<text text-anchor="start" x="440.0392" y="-323.9" font-family="Arial" font-size="14.00" fill="#666666">[varchar]</text>
<polygon fill="none" stroke="#000000" points="349,-282.5 349,-312.5 642,-312.5 642,-282.5 349,-282.5"/>
<text text-anchor="start" x="356" y="-293.9" font-family="Arial" font-size="14.00" fill="#000000">active </text>
<text text-anchor="start" x="396.453" y="-293.9" font-family="Arial" font-size="14.00" fill="#666666">[boolean]</text>
<polygon fill="none" stroke="#000000" points="349,-252.5 349,-282.5 642,-282.5 642,-252.5 349,-252.5"/>
<text text-anchor="start" x="356" y="-263.9" font-family="Arial" font-size="14.00" fill="#000000">product_tmpl_id </text>
<text text-anchor="start" x="459.467" y="-263.9" font-family="Arial" font-size="14.00" fill="#666666">[integer]</text>
<polygon fill="none" stroke="#000000" points="349,-222.5 349,-252.5 642,-252.5 642,-222.5 349,-222.5"/>
<text text-anchor="start" x="356" y="-233.9" font-family="Arial" font-size="14.00" fill="#000000">barcode </text>
<text text-anchor="start" x="410.4642" y="-233.9" font-family="Arial" font-size="14.00" fill="#666666">[varchar]</text>
<polygon fill="none" stroke="#000000" points="349,-192.5 349,-222.5 642,-222.5 642,-192.5 349,-192.5"/>
<text text-anchor="start" x="356" y="-203.9" font-family="Arial" font-size="14.00" fill="#000000">volume </text>
<text text-anchor="start" x="405.0056" y="-203.9" font-family="Arial" font-size="14.00" fill="#666666">[double precision]</text>
<polygon fill="none" stroke="#000000" points="349,-162.5 349,-192.5 642,-192.5 642,-162.5 349,-162.5"/>
<text text-anchor="start" x="356" y="-173.9" font-family="Arial" font-size="14.00" fill="#000000">weight </text>
<text text-anchor="start" x="400.3422" y="-173.9" font-family="Arial" font-size="14.00" fill="#666666">[numeric]</text>
<polygon fill="none" stroke="#000000" points="349,-132.5 349,-162.5 642,-162.5 642,-132.5 349,-132.5"/>
<text text-anchor="start" x="356" y="-143.9" font-family="Arial" font-size="14.00" fill="#000000">create_uid </text>
<text text-anchor="start" x="425.244" y="-143.9" font-family="Arial" font-size="14.00" fill="#666666">[integer]</text>
<polygon fill="none" stroke="#000000" points="349,-102.5 349,-132.5 642,-132.5 642,-102.5 349,-102.5"/>
<text text-anchor="start" x="356" y="-113.9" font-family="Arial" font-size="14.00" fill="#000000">create_date </text>
<text text-anchor="start" x="433.8106" y="-113.9" font-family="Arial" font-size="14.00" fill="#666666">[timestamp without time zone]</text>
<polygon fill="none" stroke="#000000" points="349,-72.5 349,-102.5 642,-102.5 642,-72.5 349,-72.5"/>
<text text-anchor="start" x="356" y="-83.9" font-family="Arial" font-size="14.00" fill="#000000">write_uid </text>
<text text-anchor="start" x="415.892" y="-83.9" font-family="Arial" font-size="14.00" fill="#666666">[integer]</text>
<polygon fill="none" stroke="#000000" points="349,-42.5 349,-72.5 642,-72.5 642,-42.5 349,-42.5"/>
<text text-anchor="start" x="356" y="-53.9" font-family="Arial" font-size="14.00" fill="#000000">write_date </text>
<text text-anchor="start" x="424.4586" y="-53.9" font-family="Arial" font-size="14.00" fill="#666666">[timestamp without time zone]</text>
</g>
<!-- public.product_attribute_value_product_product_rel&#45;&gt;public.product_product -->
<g id="edge1" class="edge">
<title>public.product_attribute_value_product_product_rel:product_product_id&#45;&gt;public.product_product:id</title>
<path fill="none" stroke="#000000" d="M438.0947,-606.0019C410.5962,-596.5819 424.6946,-545.0279 448,-517 504.0677,-449.5709 585.9323,-548.4291 642,-481 668.5687,-449.0474 683.5556,-387.5 642,-387.5"/>
<polygon fill="#000000" stroke="#000000" points="438.1124,-606.0045 447.327,-611.9494 443.0562,-606.7523 448,-607.5 448,-607.5 448,-607.5 443.0562,-606.7523 448.673,-603.0506 438.1124,-606.0045 438.1124,-606.0045"/>
<text text-anchor="start" x="6.7535" y="-617.5" font-family="Arial" font-size="10.00" fill="#000000">FOREIGN KEY (product_product_id) REFERENCES product_product(id) ON DELETE CASCADE</text>
</g>
<!-- public.product_attribute_value -->
<g id="node3" class="node">
<title>public.product_attribute_value</title>
<polygon fill="#efefef" stroke="transparent" points="746,-372.5 746,-407.5 1097,-407.5 1097,-372.5 746,-372.5"/>
<polygon fill="none" stroke="#000000" points="746,-372.5 746,-407.5 1097,-407.5 1097,-372.5 746,-372.5"/>
<text text-anchor="start" x="752.8374" y="-385.3" font-family="Arial Bold" font-size="18.00" fill="#000000">public.product_attribute_value</text>
<text text-anchor="start" x="992.9088" y="-385.3" font-family="Arial" font-size="14.00" fill="#000000"> </text>
<text text-anchor="start" x="996.7994" y="-385.3" font-family="Arial" font-size="14.00" fill="#666666">[BASE TABLE]</text>
<polygon fill="none" stroke="#000000" points="746,-342.5 746,-372.5 1097,-372.5 1097,-342.5 746,-342.5"/>
<text text-anchor="start" x="753" y="-353.9" font-family="Arial" font-size="14.00" fill="#000000">id </text>
<text text-anchor="start" x="767.7798" y="-353.9" font-family="Arial" font-size="14.00" fill="#666666">[integer]</text>
<polygon fill="none" stroke="#000000" points="746,-312.5 746,-342.5 1097,-342.5 1097,-312.5 746,-312.5"/>
<text text-anchor="start" x="753" y="-323.9" font-family="Arial" font-size="14.00" fill="#000000">name </text>
<text text-anchor="start" x="791.899" y="-323.9" font-family="Arial" font-size="14.00" fill="#666666">[varchar]</text>
<polygon fill="none" stroke="#000000" points="746,-282.5 746,-312.5 1097,-312.5 1097,-282.5 746,-282.5"/>
<text text-anchor="start" x="753" y="-293.9" font-family="Arial" font-size="14.00" fill="#000000">sequence </text>
<text text-anchor="start" x="817.5862" y="-293.9" font-family="Arial" font-size="14.00" fill="#666666">[integer]</text>
<polygon fill="none" stroke="#000000" points="746,-252.5 746,-282.5 1097,-282.5 1097,-252.5 746,-252.5"/>
<text text-anchor="start" x="753" y="-263.9" font-family="Arial" font-size="14.00" fill="#000000">attribute_id </text>
<text text-anchor="start" x="826.1318" y="-263.9" font-family="Arial" font-size="14.00" fill="#666666">[integer]</text>
<polygon fill="none" stroke="#000000" points="746,-222.5 746,-252.5 1097,-252.5 1097,-222.5 746,-222.5"/>
<text text-anchor="start" x="753" y="-233.9" font-family="Arial" font-size="14.00" fill="#000000">create_uid </text>
<text text-anchor="start" x="822.244" y="-233.9" font-family="Arial" font-size="14.00" fill="#666666">[integer]</text>
<polygon fill="none" stroke="#000000" points="746,-192.5 746,-222.5 1097,-222.5 1097,-192.5 746,-192.5"/>
<text text-anchor="start" x="753" y="-203.9" font-family="Arial" font-size="14.00" fill="#000000">create_date </text>
<text text-anchor="start" x="830.8106" y="-203.9" font-family="Arial" font-size="14.00" fill="#666666">[timestamp without time zone]</text>
<polygon fill="none" stroke="#000000" points="746,-162.5 746,-192.5 1097,-192.5 1097,-162.5 746,-162.5"/>
<text text-anchor="start" x="753" y="-173.9" font-family="Arial" font-size="14.00" fill="#000000">write_uid </text>
<text text-anchor="start" x="812.892" y="-173.9" font-family="Arial" font-size="14.00" fill="#666666">[integer]</text>
<polygon fill="none" stroke="#000000" points="746,-132.5 746,-162.5 1097,-162.5 1097,-132.5 746,-132.5"/>
<text text-anchor="start" x="753" y="-143.9" font-family="Arial" font-size="14.00" fill="#000000">write_date </text>
<text text-anchor="start" x="821.4586" y="-143.9" font-family="Arial" font-size="14.00" fill="#666666">[timestamp without time zone]</text>
<polygon fill="none" stroke="#000000" points="746,-102.5 746,-132.5 1097,-132.5 1097,-102.5 746,-102.5"/>
<text text-anchor="start" x="753" y="-113.9" font-family="Arial" font-size="14.00" fill="#000000">is_custom </text>
<text text-anchor="start" x="819.8962" y="-113.9" font-family="Arial" font-size="14.00" fill="#666666">[boolean]</text>
<polygon fill="none" stroke="#000000" points="746,-72.5 746,-102.5 1097,-102.5 1097,-72.5 746,-72.5"/>
<text text-anchor="start" x="753" y="-83.9" font-family="Arial" font-size="14.00" fill="#000000">html_color </text>
<text text-anchor="start" x="821.446" y="-83.9" font-family="Arial" font-size="14.00" fill="#666666">[varchar]</text>
</g>
<!-- public.product_attribute_value_product_product_rel&#45;&gt;public.product_attribute_value -->
<g id="edge2" class="edge">
<title>public.product_attribute_value_product_product_rel:product_attribute_value_id&#45;&gt;public.product_attribute_value:id</title>
<path fill="none" stroke="#000000" d="M978.9675,-574.8617C992.3853,-565.7511 982.5766,-535.1769 969,-517 907.1472,-434.1888 807.8528,-533.8112 746,-451 721.1325,-417.7063 704.4444,-357.5 746,-357.5"/>
<polygon fill="#000000" stroke="#000000" points="978.6671,-574.9412 967.8485,-573.1498 973.8336,-576.2206 969,-577.5 969,-577.5 969,-577.5 973.8336,-576.2206 970.1515,-581.8502 978.6671,-574.9412 978.6671,-574.9412"/>
<text text-anchor="start" x="975.5215" y="-587.5" font-family="Arial" font-size="10.00" fill="#000000">FOREIGN KEY (product_attribute_value_id) REFERENCES product_attribute_value(id) ON DELETE CASCADE</text>
</g>
</g>
</svg>
