<?xml version="1.0" encoding="UTF-8" standalone="no"?>
<!DOCTYPE svg PUBLIC "-//W3C//DTD SVG 1.1//EN"
 "http://www.w3.org/Graphics/SVG/1.1/DTD/svg11.dtd">
<!-- Generated by graphviz version 2.40.1 (20161225.0304)
 -->
<!-- Title: public.stock_rules_report Pages: 1 -->
<svg width="1401pt" height="2519pt"
 viewBox="0.00 0.00 1400.50 2519.00" xmlns="http://www.w3.org/2000/svg" xmlns:xlink="http://www.w3.org/1999/xlink">
<g id="graph0" class="graph" transform="scale(1 1) rotate(0) translate(4 2515)">
<title>public.stock_rules_report</title>
<polygon fill="#ffffff" stroke="transparent" points="-4,4 -4,-2515 1396.5,-2515 1396.5,4 -4,4"/>
<!-- public.stock_rules_report -->
<g id="node1" class="node">
<title>public.stock_rules_report</title>
<polygon fill="#efefef" stroke="transparent" points="631.5,-2212.5 631.5,-2247.5 942.5,-2247.5 942.5,-2212.5 631.5,-2212.5"/>
<polygon fill="none" stroke="#000000" points="631.5,-2212.5 631.5,-2247.5 942.5,-2247.5 942.5,-2212.5 631.5,-2212.5"/>
<text text-anchor="start" x="638.3561" y="-2225.3" font-family="Arial Bold" font-size="18.00" fill="#000000">public.stock_rules_report</text>
<text text-anchor="start" x="838.3901" y="-2225.3" font-family="Arial" font-size="14.00" fill="#000000"> </text>
<text text-anchor="start" x="842.2807" y="-2225.3" font-family="Arial" font-size="14.00" fill="#666666">[BASE TABLE]</text>
<polygon fill="none" stroke="#000000" points="631.5,-2182.5 631.5,-2212.5 942.5,-2212.5 942.5,-2182.5 631.5,-2182.5"/>
<text text-anchor="start" x="638.5" y="-2193.9" font-family="Arial" font-size="14.00" fill="#000000">id </text>
<text text-anchor="start" x="653.2798" y="-2193.9" font-family="Arial" font-size="14.00" fill="#666666">[integer]</text>
<polygon fill="none" stroke="#000000" points="631.5,-2152.5 631.5,-2182.5 942.5,-2182.5 942.5,-2152.5 631.5,-2152.5"/>
<text text-anchor="start" x="638.5" y="-2163.9" font-family="Arial" font-size="14.00" fill="#000000">product_id </text>
<text text-anchor="start" x="707.744" y="-2163.9" font-family="Arial" font-size="14.00" fill="#666666">[integer]</text>
<polygon fill="none" stroke="#000000" points="631.5,-2122.5 631.5,-2152.5 942.5,-2152.5 942.5,-2122.5 631.5,-2122.5"/>
<text text-anchor="start" x="638.5" y="-2133.9" font-family="Arial" font-size="14.00" fill="#000000">product_tmpl_id </text>
<text text-anchor="start" x="741.967" y="-2133.9" font-family="Arial" font-size="14.00" fill="#666666">[integer]</text>
<polygon fill="none" stroke="#000000" points="631.5,-2092.5 631.5,-2122.5 942.5,-2122.5 942.5,-2092.5 631.5,-2092.5"/>
<text text-anchor="start" x="638.5" y="-2103.9" font-family="Arial" font-size="14.00" fill="#000000">product_has_variants </text>
<text text-anchor="start" x="776.2082" y="-2103.9" font-family="Arial" font-size="14.00" fill="#666666">[boolean]</text>
<polygon fill="none" stroke="#000000" points="631.5,-2062.5 631.5,-2092.5 942.5,-2092.5 942.5,-2062.5 631.5,-2062.5"/>
<text text-anchor="start" x="638.5" y="-2073.9" font-family="Arial" font-size="14.00" fill="#000000">create_uid </text>
<text text-anchor="start" x="707.744" y="-2073.9" font-family="Arial" font-size="14.00" fill="#666666">[integer]</text>
<polygon fill="none" stroke="#000000" points="631.5,-2032.5 631.5,-2062.5 942.5,-2062.5 942.5,-2032.5 631.5,-2032.5"/>
<text text-anchor="start" x="638.5" y="-2043.9" font-family="Arial" font-size="14.00" fill="#000000">create_date </text>
<text text-anchor="start" x="716.3106" y="-2043.9" font-family="Arial" font-size="14.00" fill="#666666">[timestamp without time zone]</text>
<polygon fill="none" stroke="#000000" points="631.5,-2002.5 631.5,-2032.5 942.5,-2032.5 942.5,-2002.5 631.5,-2002.5"/>
<text text-anchor="start" x="638.5" y="-2013.9" font-family="Arial" font-size="14.00" fill="#000000">write_uid </text>
<text text-anchor="start" x="698.392" y="-2013.9" font-family="Arial" font-size="14.00" fill="#666666">[integer]</text>
<polygon fill="none" stroke="#000000" points="631.5,-1972.5 631.5,-2002.5 942.5,-2002.5 942.5,-1972.5 631.5,-1972.5"/>
<text text-anchor="start" x="638.5" y="-1983.9" font-family="Arial" font-size="14.00" fill="#000000">write_date </text>
<text text-anchor="start" x="706.9586" y="-1983.9" font-family="Arial" font-size="14.00" fill="#666666">[timestamp without time zone]</text>
<polygon fill="none" stroke="#000000" stroke-width="3" points="629.5,-1971.5 629.5,-2249.5 943.5,-2249.5 943.5,-1971.5 629.5,-1971.5"/>
</g>
<!-- public.product_product -->
<g id="node4" class="node">
<title>public.product_product</title>
<polygon fill="#efefef" stroke="transparent" points="43.5,-1107.5 43.5,-1142.5 336.5,-1142.5 336.5,-1107.5 43.5,-1107.5"/>
<polygon fill="none" stroke="#000000" points="43.5,-1107.5 43.5,-1142.5 336.5,-1142.5 336.5,-1107.5 43.5,-1107.5"/>
<text text-anchor="start" x="50.3462" y="-1120.3" font-family="Arial Bold" font-size="18.00" fill="#000000">public.product_product</text>
<text text-anchor="start" x="232.4" y="-1120.3" font-family="Arial" font-size="14.00" fill="#000000"> </text>
<text text-anchor="start" x="236.2906" y="-1120.3" font-family="Arial" font-size="14.00" fill="#666666">[BASE TABLE]</text>
<polygon fill="none" stroke="#000000" points="43.5,-1077.5 43.5,-1107.5 336.5,-1107.5 336.5,-1077.5 43.5,-1077.5"/>
<text text-anchor="start" x="50.5" y="-1088.9" font-family="Arial" font-size="14.00" fill="#000000">id </text>
<text text-anchor="start" x="65.2798" y="-1088.9" font-family="Arial" font-size="14.00" fill="#666666">[integer]</text>
<polygon fill="none" stroke="#000000" points="43.5,-1047.5 43.5,-1077.5 336.5,-1077.5 336.5,-1047.5 43.5,-1047.5"/>
<text text-anchor="start" x="50.5" y="-1058.9" font-family="Arial" font-size="14.00" fill="#000000">message_main_attachment_id </text>
<text text-anchor="start" x="244.9964" y="-1058.9" font-family="Arial" font-size="14.00" fill="#666666">[integer]</text>
<polygon fill="none" stroke="#000000" points="43.5,-1017.5 43.5,-1047.5 336.5,-1047.5 336.5,-1017.5 43.5,-1017.5"/>
<text text-anchor="start" x="50.5" y="-1028.9" font-family="Arial" font-size="14.00" fill="#000000">default_code </text>
<text text-anchor="start" x="134.5392" y="-1028.9" font-family="Arial" font-size="14.00" fill="#666666">[varchar]</text>
<polygon fill="none" stroke="#000000" points="43.5,-987.5 43.5,-1017.5 336.5,-1017.5 336.5,-987.5 43.5,-987.5"/>
<text text-anchor="start" x="50.5" y="-998.9" font-family="Arial" font-size="14.00" fill="#000000">active </text>
<text text-anchor="start" x="90.953" y="-998.9" font-family="Arial" font-size="14.00" fill="#666666">[boolean]</text>
<polygon fill="none" stroke="#000000" points="43.5,-957.5 43.5,-987.5 336.5,-987.5 336.5,-957.5 43.5,-957.5"/>
<text text-anchor="start" x="50.5" y="-968.9" font-family="Arial" font-size="14.00" fill="#000000">product_tmpl_id </text>
<text text-anchor="start" x="153.967" y="-968.9" font-family="Arial" font-size="14.00" fill="#666666">[integer]</text>
<polygon fill="none" stroke="#000000" points="43.5,-927.5 43.5,-957.5 336.5,-957.5 336.5,-927.5 43.5,-927.5"/>
<text text-anchor="start" x="50.5" y="-938.9" font-family="Arial" font-size="14.00" fill="#000000">barcode </text>
<text text-anchor="start" x="104.9642" y="-938.9" font-family="Arial" font-size="14.00" fill="#666666">[varchar]</text>
<polygon fill="none" stroke="#000000" points="43.5,-897.5 43.5,-927.5 336.5,-927.5 336.5,-897.5 43.5,-897.5"/>
<text text-anchor="start" x="50.5" y="-908.9" font-family="Arial" font-size="14.00" fill="#000000">volume </text>
<text text-anchor="start" x="99.5056" y="-908.9" font-family="Arial" font-size="14.00" fill="#666666">[double precision]</text>
<polygon fill="none" stroke="#000000" points="43.5,-867.5 43.5,-897.5 336.5,-897.5 336.5,-867.5 43.5,-867.5"/>
<text text-anchor="start" x="50.5" y="-878.9" font-family="Arial" font-size="14.00" fill="#000000">weight </text>
<text text-anchor="start" x="94.8422" y="-878.9" font-family="Arial" font-size="14.00" fill="#666666">[numeric]</text>
<polygon fill="none" stroke="#000000" points="43.5,-837.5 43.5,-867.5 336.5,-867.5 336.5,-837.5 43.5,-837.5"/>
<text text-anchor="start" x="50.5" y="-848.9" font-family="Arial" font-size="14.00" fill="#000000">create_uid </text>
<text text-anchor="start" x="119.744" y="-848.9" font-family="Arial" font-size="14.00" fill="#666666">[integer]</text>
<polygon fill="none" stroke="#000000" points="43.5,-807.5 43.5,-837.5 336.5,-837.5 336.5,-807.5 43.5,-807.5"/>
<text text-anchor="start" x="50.5" y="-818.9" font-family="Arial" font-size="14.00" fill="#000000">create_date </text>
<text text-anchor="start" x="128.3106" y="-818.9" font-family="Arial" font-size="14.00" fill="#666666">[timestamp without time zone]</text>
<polygon fill="none" stroke="#000000" points="43.5,-777.5 43.5,-807.5 336.5,-807.5 336.5,-777.5 43.5,-777.5"/>
<text text-anchor="start" x="50.5" y="-788.9" font-family="Arial" font-size="14.00" fill="#000000">write_uid </text>
<text text-anchor="start" x="110.392" y="-788.9" font-family="Arial" font-size="14.00" fill="#666666">[integer]</text>
<polygon fill="none" stroke="#000000" points="43.5,-747.5 43.5,-777.5 336.5,-777.5 336.5,-747.5 43.5,-747.5"/>
<text text-anchor="start" x="50.5" y="-758.9" font-family="Arial" font-size="14.00" fill="#000000">write_date </text>
<text text-anchor="start" x="118.9586" y="-758.9" font-family="Arial" font-size="14.00" fill="#666666">[timestamp without time zone]</text>
</g>
<!-- public.stock_rules_report&#45;&gt;public.product_product -->
<g id="edge3" class="edge">
<title>public.stock_rules_report:product_id&#45;&gt;public.product_product:id</title>
<path fill="none" stroke="#000000" d="M621.1568,-2167.3274C467.1572,-2162.1011 449.8097,-2038.8819 388.5,-1891 354.4495,-1808.8685 425.4102,-1092.5 336.5,-1092.5"/>
<polygon fill="#000000" stroke="#000000" points="621.5014,-2167.333 631.4249,-2171.9994 626.5007,-2167.4165 631.5,-2167.5 631.5,-2167.5 631.5,-2167.5 626.5007,-2167.4165 631.5751,-2163.0006 621.5014,-2167.333 621.5014,-2167.333"/>
<text text-anchor="start" x="229.9805" y="-2177.5" font-family="Arial" font-size="10.00" fill="#000000">FOREIGN KEY (product_id) REFERENCES product_product(id) ON DELETE SET NULL</text>
</g>
<!-- public.product_template -->
<g id="node5" class="node">
<title>public.product_template</title>
<polygon fill="#efefef" stroke="transparent" points="440.5,-1812.5 440.5,-1847.5 742.5,-1847.5 742.5,-1812.5 440.5,-1812.5"/>
<polygon fill="none" stroke="#000000" points="440.5,-1812.5 440.5,-1847.5 742.5,-1847.5 742.5,-1812.5 440.5,-1812.5"/>
<text text-anchor="start" x="447.348" y="-1825.3" font-family="Arial Bold" font-size="18.00" fill="#000000">public.product_template</text>
<text text-anchor="start" x="638.3982" y="-1825.3" font-family="Arial" font-size="14.00" fill="#000000"> </text>
<text text-anchor="start" x="642.2888" y="-1825.3" font-family="Arial" font-size="14.00" fill="#666666">[BASE TABLE]</text>
<polygon fill="none" stroke="#000000" points="440.5,-1782.5 440.5,-1812.5 742.5,-1812.5 742.5,-1782.5 440.5,-1782.5"/>
<text text-anchor="start" x="447.5" y="-1793.9" font-family="Arial" font-size="14.00" fill="#000000">id </text>
<text text-anchor="start" x="462.2798" y="-1793.9" font-family="Arial" font-size="14.00" fill="#666666">[integer]</text>
<polygon fill="none" stroke="#000000" points="440.5,-1752.5 440.5,-1782.5 742.5,-1782.5 742.5,-1752.5 440.5,-1752.5"/>
<text text-anchor="start" x="447.5" y="-1763.9" font-family="Arial" font-size="14.00" fill="#000000">message_main_attachment_id </text>
<text text-anchor="start" x="641.9964" y="-1763.9" font-family="Arial" font-size="14.00" fill="#666666">[integer]</text>
<polygon fill="none" stroke="#000000" points="440.5,-1722.5 440.5,-1752.5 742.5,-1752.5 742.5,-1722.5 440.5,-1722.5"/>
<text text-anchor="start" x="447.5" y="-1733.9" font-family="Arial" font-size="14.00" fill="#000000">name </text>
<text text-anchor="start" x="486.399" y="-1733.9" font-family="Arial" font-size="14.00" fill="#666666">[varchar]</text>
<polygon fill="none" stroke="#000000" points="440.5,-1692.5 440.5,-1722.5 742.5,-1722.5 742.5,-1692.5 440.5,-1692.5"/>
<text text-anchor="start" x="447.5" y="-1703.9" font-family="Arial" font-size="14.00" fill="#000000">sequence </text>
<text text-anchor="start" x="512.0862" y="-1703.9" font-family="Arial" font-size="14.00" fill="#666666">[integer]</text>
<polygon fill="none" stroke="#000000" points="440.5,-1662.5 440.5,-1692.5 742.5,-1692.5 742.5,-1662.5 440.5,-1662.5"/>
<text text-anchor="start" x="447.5" y="-1673.9" font-family="Arial" font-size="14.00" fill="#000000">description </text>
<text text-anchor="start" x="519.068" y="-1673.9" font-family="Arial" font-size="14.00" fill="#666666">[text]</text>
<polygon fill="none" stroke="#000000" points="440.5,-1632.5 440.5,-1662.5 742.5,-1662.5 742.5,-1632.5 440.5,-1632.5"/>
<text text-anchor="start" x="447.5" y="-1643.9" font-family="Arial" font-size="14.00" fill="#000000">description_purchase </text>
<text text-anchor="start" x="584.4242" y="-1643.9" font-family="Arial" font-size="14.00" fill="#666666">[text]</text>
<polygon fill="none" stroke="#000000" points="440.5,-1602.5 440.5,-1632.5 742.5,-1632.5 742.5,-1602.5 440.5,-1602.5"/>
<text text-anchor="start" x="447.5" y="-1613.9" font-family="Arial" font-size="14.00" fill="#000000">description_sale </text>
<text text-anchor="start" x="552.5224" y="-1613.9" font-family="Arial" font-size="14.00" fill="#666666">[text]</text>
<polygon fill="none" stroke="#000000" points="440.5,-1572.5 440.5,-1602.5 742.5,-1602.5 742.5,-1572.5 440.5,-1572.5"/>
<text text-anchor="start" x="447.5" y="-1583.9" font-family="Arial" font-size="14.00" fill="#000000">type </text>
<text text-anchor="start" x="477.8464" y="-1583.9" font-family="Arial" font-size="14.00" fill="#666666">[varchar]</text>
<polygon fill="none" stroke="#000000" points="440.5,-1542.5 440.5,-1572.5 742.5,-1572.5 742.5,-1542.5 440.5,-1542.5"/>
<text text-anchor="start" x="447.5" y="-1553.9" font-family="Arial" font-size="14.00" fill="#000000">rental </text>
<text text-anchor="start" x="486.3962" y="-1553.9" font-family="Arial" font-size="14.00" fill="#666666">[boolean]</text>
<polygon fill="none" stroke="#000000" points="440.5,-1512.5 440.5,-1542.5 742.5,-1542.5 742.5,-1512.5 440.5,-1512.5"/>
<text text-anchor="start" x="447.5" y="-1523.9" font-family="Arial" font-size="14.00" fill="#000000">categ_id </text>
<text text-anchor="start" x="504.3008" y="-1523.9" font-family="Arial" font-size="14.00" fill="#666666">[integer]</text>
<polygon fill="none" stroke="#000000" points="440.5,-1482.5 440.5,-1512.5 742.5,-1512.5 742.5,-1482.5 440.5,-1482.5"/>
<text text-anchor="start" x="447.5" y="-1493.9" font-family="Arial" font-size="14.00" fill="#000000">list_price </text>
<text text-anchor="start" x="506.6094" y="-1493.9" font-family="Arial" font-size="14.00" fill="#666666">[numeric]</text>
<polygon fill="none" stroke="#000000" points="440.5,-1452.5 440.5,-1482.5 742.5,-1482.5 742.5,-1452.5 440.5,-1452.5"/>
<text text-anchor="start" x="447.5" y="-1463.9" font-family="Arial" font-size="14.00" fill="#000000">volume </text>
<text text-anchor="start" x="496.5056" y="-1463.9" font-family="Arial" font-size="14.00" fill="#666666">[double precision]</text>
<polygon fill="none" stroke="#000000" points="440.5,-1422.5 440.5,-1452.5 742.5,-1452.5 742.5,-1422.5 440.5,-1422.5"/>
<text text-anchor="start" x="447.5" y="-1433.9" font-family="Arial" font-size="14.00" fill="#000000">weight </text>
<text text-anchor="start" x="491.8422" y="-1433.9" font-family="Arial" font-size="14.00" fill="#666666">[numeric]</text>
<polygon fill="none" stroke="#000000" points="440.5,-1392.5 440.5,-1422.5 742.5,-1422.5 742.5,-1392.5 440.5,-1392.5"/>
<text text-anchor="start" x="447.5" y="-1403.9" font-family="Arial" font-size="14.00" fill="#000000">sale_ok </text>
<text text-anchor="start" x="499.6276" y="-1403.9" font-family="Arial" font-size="14.00" fill="#666666">[boolean]</text>
<polygon fill="none" stroke="#000000" points="440.5,-1362.5 440.5,-1392.5 742.5,-1392.5 742.5,-1362.5 440.5,-1362.5"/>
<text text-anchor="start" x="447.5" y="-1373.9" font-family="Arial" font-size="14.00" fill="#000000">purchase_ok </text>
<text text-anchor="start" x="531.5294" y="-1373.9" font-family="Arial" font-size="14.00" fill="#666666">[boolean]</text>
<polygon fill="none" stroke="#000000" points="440.5,-1332.5 440.5,-1362.5 742.5,-1362.5 742.5,-1332.5 440.5,-1332.5"/>
<text text-anchor="start" x="447.5" y="-1343.9" font-family="Arial" font-size="14.00" fill="#000000">uom_id </text>
<text text-anchor="start" x="497.2882" y="-1343.9" font-family="Arial" font-size="14.00" fill="#666666">[integer]</text>
<polygon fill="none" stroke="#000000" points="440.5,-1302.5 440.5,-1332.5 742.5,-1332.5 742.5,-1302.5 440.5,-1302.5"/>
<text text-anchor="start" x="447.5" y="-1313.9" font-family="Arial" font-size="14.00" fill="#000000">uom_po_id </text>
<text text-anchor="start" x="520.636" y="-1313.9" font-family="Arial" font-size="14.00" fill="#666666">[integer]</text>
<polygon fill="none" stroke="#000000" points="440.5,-1272.5 440.5,-1302.5 742.5,-1302.5 742.5,-1272.5 440.5,-1272.5"/>
<text text-anchor="start" x="447.5" y="-1283.9" font-family="Arial" font-size="14.00" fill="#000000">company_id </text>
<text text-anchor="start" x="526.8534" y="-1283.9" font-family="Arial" font-size="14.00" fill="#666666">[integer]</text>
<polygon fill="none" stroke="#000000" points="440.5,-1242.5 440.5,-1272.5 742.5,-1272.5 742.5,-1242.5 440.5,-1242.5"/>
<text text-anchor="start" x="447.5" y="-1253.9" font-family="Arial" font-size="14.00" fill="#000000">active </text>
<text text-anchor="start" x="487.953" y="-1253.9" font-family="Arial" font-size="14.00" fill="#666666">[boolean]</text>
<polygon fill="none" stroke="#000000" points="440.5,-1212.5 440.5,-1242.5 742.5,-1242.5 742.5,-1212.5 440.5,-1212.5"/>
<text text-anchor="start" x="447.5" y="-1223.9" font-family="Arial" font-size="14.00" fill="#000000">color </text>
<text text-anchor="start" x="481.723" y="-1223.9" font-family="Arial" font-size="14.00" fill="#666666">[integer]</text>
<polygon fill="none" stroke="#000000" points="440.5,-1182.5 440.5,-1212.5 742.5,-1212.5 742.5,-1182.5 440.5,-1182.5"/>
<text text-anchor="start" x="447.5" y="-1193.9" font-family="Arial" font-size="14.00" fill="#000000">default_code </text>
<text text-anchor="start" x="531.5392" y="-1193.9" font-family="Arial" font-size="14.00" fill="#666666">[varchar]</text>
<polygon fill="none" stroke="#000000" points="440.5,-1152.5 440.5,-1182.5 742.5,-1182.5 742.5,-1152.5 440.5,-1152.5"/>
<text text-anchor="start" x="447.5" y="-1163.9" font-family="Arial" font-size="14.00" fill="#000000">create_uid </text>
<text text-anchor="start" x="516.744" y="-1163.9" font-family="Arial" font-size="14.00" fill="#666666">[integer]</text>
<polygon fill="none" stroke="#000000" points="440.5,-1122.5 440.5,-1152.5 742.5,-1152.5 742.5,-1122.5 440.5,-1122.5"/>
<text text-anchor="start" x="447.5" y="-1133.9" font-family="Arial" font-size="14.00" fill="#000000">create_date </text>
<text text-anchor="start" x="525.3106" y="-1133.9" font-family="Arial" font-size="14.00" fill="#666666">[timestamp without time zone]</text>
<polygon fill="none" stroke="#000000" points="440.5,-1092.5 440.5,-1122.5 742.5,-1122.5 742.5,-1092.5 440.5,-1092.5"/>
<text text-anchor="start" x="447.5" y="-1103.9" font-family="Arial" font-size="14.00" fill="#000000">write_uid </text>
<text text-anchor="start" x="507.392" y="-1103.9" font-family="Arial" font-size="14.00" fill="#666666">[integer]</text>
<polygon fill="none" stroke="#000000" points="440.5,-1062.5 440.5,-1092.5 742.5,-1092.5 742.5,-1062.5 440.5,-1062.5"/>
<text text-anchor="start" x="447.5" y="-1073.9" font-family="Arial" font-size="14.00" fill="#000000">write_date </text>
<text text-anchor="start" x="515.9586" y="-1073.9" font-family="Arial" font-size="14.00" fill="#666666">[timestamp without time zone]</text>
<polygon fill="none" stroke="#000000" points="440.5,-1032.5 440.5,-1062.5 742.5,-1062.5 742.5,-1032.5 440.5,-1032.5"/>
<text text-anchor="start" x="447.5" y="-1043.9" font-family="Arial" font-size="14.00" fill="#000000">service_type </text>
<text text-anchor="start" x="529.9614" y="-1043.9" font-family="Arial" font-size="14.00" fill="#666666">[varchar]</text>
<polygon fill="none" stroke="#000000" points="440.5,-1002.5 440.5,-1032.5 742.5,-1032.5 742.5,-1002.5 440.5,-1002.5"/>
<text text-anchor="start" x="447.5" y="-1013.9" font-family="Arial" font-size="14.00" fill="#000000">sale_line_warn </text>
<text text-anchor="start" x="544.7384" y="-1013.9" font-family="Arial" font-size="14.00" fill="#666666">[varchar]</text>
<polygon fill="none" stroke="#000000" points="440.5,-972.5 440.5,-1002.5 742.5,-1002.5 742.5,-972.5 440.5,-972.5"/>
<text text-anchor="start" x="447.5" y="-983.9" font-family="Arial" font-size="14.00" fill="#000000">sale_line_warn_msg </text>
<text text-anchor="start" x="578.9642" y="-983.9" font-family="Arial" font-size="14.00" fill="#666666">[text]</text>
<polygon fill="none" stroke="#000000" points="440.5,-942.5 440.5,-972.5 742.5,-972.5 742.5,-942.5 440.5,-942.5"/>
<text text-anchor="start" x="447.5" y="-953.9" font-family="Arial" font-size="14.00" fill="#000000">expense_policy </text>
<text text-anchor="start" x="547.8646" y="-953.9" font-family="Arial" font-size="14.00" fill="#666666">[varchar]</text>
<polygon fill="none" stroke="#000000" points="440.5,-912.5 440.5,-942.5 742.5,-942.5 742.5,-912.5 440.5,-912.5"/>
<text text-anchor="start" x="447.5" y="-923.9" font-family="Arial" font-size="14.00" fill="#000000">invoice_policy </text>
<text text-anchor="start" x="538.5126" y="-923.9" font-family="Arial" font-size="14.00" fill="#666666">[varchar]</text>
<polygon fill="none" stroke="#000000" points="440.5,-882.5 440.5,-912.5 742.5,-912.5 742.5,-882.5 440.5,-882.5"/>
<text text-anchor="start" x="447.5" y="-893.9" font-family="Arial" font-size="14.00" fill="#000000">website_id </text>
<text text-anchor="start" x="517.514" y="-893.9" font-family="Arial" font-size="14.00" fill="#666666">[integer]</text>
<polygon fill="none" stroke="#000000" points="440.5,-852.5 440.5,-882.5 742.5,-882.5 742.5,-852.5 440.5,-852.5"/>
<text text-anchor="start" x="447.5" y="-863.9" font-family="Arial" font-size="14.00" fill="#000000">is_published </text>
<text text-anchor="start" x="529.1886" y="-863.9" font-family="Arial" font-size="14.00" fill="#666666">[boolean]</text>
<polygon fill="none" stroke="#000000" points="440.5,-822.5 440.5,-852.5 742.5,-852.5 742.5,-822.5 440.5,-822.5"/>
<text text-anchor="start" x="447.5" y="-833.9" font-family="Arial" font-size="14.00" fill="#000000">website_meta_title </text>
<text text-anchor="start" x="567.3008" y="-833.9" font-family="Arial" font-size="14.00" fill="#666666">[varchar]</text>
<polygon fill="none" stroke="#000000" points="440.5,-792.5 440.5,-822.5 742.5,-822.5 742.5,-792.5 440.5,-792.5"/>
<text text-anchor="start" x="447.5" y="-803.9" font-family="Arial" font-size="14.00" fill="#000000">website_meta_description </text>
<text text-anchor="start" x="613.2012" y="-803.9" font-family="Arial" font-size="14.00" fill="#666666">[text]</text>
<polygon fill="none" stroke="#000000" points="440.5,-762.5 440.5,-792.5 742.5,-792.5 742.5,-762.5 440.5,-762.5"/>
<text text-anchor="start" x="447.5" y="-773.9" font-family="Arial" font-size="14.00" fill="#000000">website_meta_keywords </text>
<text text-anchor="start" x="604.6388" y="-773.9" font-family="Arial" font-size="14.00" fill="#666666">[varchar]</text>
<polygon fill="none" stroke="#000000" points="440.5,-732.5 440.5,-762.5 742.5,-762.5 742.5,-732.5 440.5,-732.5"/>
<text text-anchor="start" x="447.5" y="-743.9" font-family="Arial" font-size="14.00" fill="#000000">website_meta_og_img </text>
<text text-anchor="start" x="591.4214" y="-743.9" font-family="Arial" font-size="14.00" fill="#666666">[varchar]</text>
<polygon fill="none" stroke="#000000" points="440.5,-702.5 440.5,-732.5 742.5,-732.5 742.5,-702.5 440.5,-702.5"/>
<text text-anchor="start" x="447.5" y="-713.9" font-family="Arial" font-size="14.00" fill="#000000">rating_last_value </text>
<text text-anchor="start" x="557.1956" y="-713.9" font-family="Arial" font-size="14.00" fill="#666666">[double precision]</text>
<polygon fill="none" stroke="#000000" points="440.5,-672.5 440.5,-702.5 742.5,-702.5 742.5,-672.5 440.5,-672.5"/>
<text text-anchor="start" x="447.5" y="-683.9" font-family="Arial" font-size="14.00" fill="#000000">website_description </text>
<text text-anchor="start" x="574.3022" y="-683.9" font-family="Arial" font-size="14.00" fill="#666666">[text]</text>
<polygon fill="none" stroke="#000000" points="440.5,-642.5 440.5,-672.5 742.5,-672.5 742.5,-642.5 440.5,-642.5"/>
<text text-anchor="start" x="447.5" y="-653.9" font-family="Arial" font-size="14.00" fill="#000000">website_size_x </text>
<text text-anchor="start" x="546.2966" y="-653.9" font-family="Arial" font-size="14.00" fill="#666666">[integer]</text>
<polygon fill="none" stroke="#000000" points="440.5,-612.5 440.5,-642.5 742.5,-642.5 742.5,-612.5 440.5,-612.5"/>
<text text-anchor="start" x="447.5" y="-623.9" font-family="Arial" font-size="14.00" fill="#000000">website_size_y </text>
<text text-anchor="start" x="546.2966" y="-623.9" font-family="Arial" font-size="14.00" fill="#666666">[integer]</text>
<polygon fill="none" stroke="#000000" points="440.5,-582.5 440.5,-612.5 742.5,-612.5 742.5,-582.5 440.5,-582.5"/>
<text text-anchor="start" x="447.5" y="-593.9" font-family="Arial" font-size="14.00" fill="#000000">website_sequence </text>
<text text-anchor="start" x="567.3204" y="-593.9" font-family="Arial" font-size="14.00" fill="#666666">[integer]</text>
<polygon fill="none" stroke="#000000" points="440.5,-552.5 440.5,-582.5 742.5,-582.5 742.5,-552.5 440.5,-552.5"/>
<text text-anchor="start" x="447.5" y="-563.9" font-family="Arial" font-size="14.00" fill="#000000">responsible_id </text>
<text text-anchor="start" x="541.6318" y="-563.9" font-family="Arial" font-size="14.00" fill="#666666">[integer]</text>
<polygon fill="none" stroke="#000000" points="440.5,-522.5 440.5,-552.5 742.5,-552.5 742.5,-522.5 440.5,-522.5"/>
<text text-anchor="start" x="447.5" y="-533.9" font-family="Arial" font-size="14.00" fill="#000000">sale_delay </text>
<text text-anchor="start" x="518.2994" y="-533.9" font-family="Arial" font-size="14.00" fill="#666666">[double precision]</text>
<polygon fill="none" stroke="#000000" points="440.5,-492.5 440.5,-522.5 742.5,-522.5 742.5,-492.5 440.5,-492.5"/>
<text text-anchor="start" x="447.5" y="-503.9" font-family="Arial" font-size="14.00" fill="#000000">tracking </text>
<text text-anchor="start" x="500.3962" y="-503.9" font-family="Arial" font-size="14.00" fill="#666666">[varchar]</text>
<polygon fill="none" stroke="#000000" points="440.5,-462.5 440.5,-492.5 742.5,-492.5 742.5,-462.5 440.5,-462.5"/>
<text text-anchor="start" x="447.5" y="-473.9" font-family="Arial" font-size="14.00" fill="#000000">description_picking </text>
<text text-anchor="start" x="570.4116" y="-473.9" font-family="Arial" font-size="14.00" fill="#666666">[text]</text>
<polygon fill="none" stroke="#000000" points="440.5,-432.5 440.5,-462.5 742.5,-462.5 742.5,-432.5 440.5,-432.5"/>
<text text-anchor="start" x="447.5" y="-443.9" font-family="Arial" font-size="14.00" fill="#000000">description_pickingout </text>
<text text-anchor="start" x="589.8674" y="-443.9" font-family="Arial" font-size="14.00" fill="#666666">[text]</text>
<polygon fill="none" stroke="#000000" points="440.5,-402.5 440.5,-432.5 742.5,-432.5 742.5,-402.5 440.5,-402.5"/>
<text text-anchor="start" x="447.5" y="-413.9" font-family="Arial" font-size="14.00" fill="#000000">description_pickingin </text>
<text text-anchor="start" x="581.3008" y="-413.9" font-family="Arial" font-size="14.00" fill="#666666">[text]</text>
<polygon fill="none" stroke="#000000" points="440.5,-372.5 440.5,-402.5 742.5,-402.5 742.5,-372.5 440.5,-372.5"/>
<text text-anchor="start" x="447.5" y="-383.9" font-family="Arial" font-size="14.00" fill="#000000">inventory_availability </text>
<text text-anchor="start" x="580.5154" y="-383.9" font-family="Arial" font-size="14.00" fill="#666666">[varchar]</text>
<polygon fill="none" stroke="#000000" points="440.5,-342.5 440.5,-372.5 742.5,-372.5 742.5,-342.5 440.5,-342.5"/>
<text text-anchor="start" x="447.5" y="-353.9" font-family="Arial" font-size="14.00" fill="#000000">available_threshold </text>
<text text-anchor="start" x="571.9768" y="-353.9" font-family="Arial" font-size="14.00" fill="#666666">[double precision]</text>
<polygon fill="none" stroke="#000000" points="440.5,-312.5 440.5,-342.5 742.5,-342.5 742.5,-312.5 440.5,-312.5"/>
<text text-anchor="start" x="447.5" y="-323.9" font-family="Arial" font-size="14.00" fill="#000000">custom_message </text>
<text text-anchor="start" x="561.0806" y="-323.9" font-family="Arial" font-size="14.00" fill="#666666">[text]</text>
<polygon fill="none" stroke="#000000" points="440.5,-282.5 440.5,-312.5 742.5,-312.5 742.5,-282.5 440.5,-282.5"/>
<text text-anchor="start" x="447.5" y="-293.9" font-family="Arial" font-size="14.00" fill="#000000">purchase_method </text>
<text text-anchor="start" x="563.4284" y="-293.9" font-family="Arial" font-size="14.00" fill="#666666">[varchar]</text>
<polygon fill="none" stroke="#000000" points="440.5,-252.5 440.5,-282.5 742.5,-282.5 742.5,-252.5 440.5,-252.5"/>
<text text-anchor="start" x="447.5" y="-263.9" font-family="Arial" font-size="14.00" fill="#000000">purchase_line_warn </text>
<text text-anchor="start" x="576.6402" y="-263.9" font-family="Arial" font-size="14.00" fill="#666666">[varchar]</text>
<polygon fill="none" stroke="#000000" points="440.5,-222.5 440.5,-252.5 742.5,-252.5 742.5,-222.5 440.5,-222.5"/>
<text text-anchor="start" x="447.5" y="-233.9" font-family="Arial" font-size="14.00" fill="#000000">purchase_line_warn_msg </text>
<text text-anchor="start" x="610.866" y="-233.9" font-family="Arial" font-size="14.00" fill="#666666">[text]</text>
<polygon fill="none" stroke="#000000" points="440.5,-192.5 440.5,-222.5 742.5,-222.5 742.5,-192.5 440.5,-192.5"/>
<text text-anchor="start" x="447.5" y="-203.9" font-family="Arial" font-size="14.00" fill="#000000">service_to_purchase </text>
<text text-anchor="start" x="580.535" y="-203.9" font-family="Arial" font-size="14.00" fill="#666666">[boolean]</text>
<polygon fill="none" stroke="#000000" points="440.5,-162.5 440.5,-192.5 742.5,-192.5 742.5,-162.5 440.5,-162.5"/>
<text text-anchor="start" x="447.5" y="-173.9" font-family="Arial" font-size="14.00" fill="#000000">can_be_expensed </text>
<text text-anchor="start" x="565.7818" y="-173.9" font-family="Arial" font-size="14.00" fill="#666666">[boolean]</text>
<polygon fill="none" stroke="#000000" points="440.5,-132.5 440.5,-162.5 742.5,-162.5 742.5,-132.5 440.5,-132.5"/>
<text text-anchor="start" x="447.5" y="-143.9" font-family="Arial" font-size="14.00" fill="#000000">available_in_pos </text>
<text text-anchor="start" x="555.643" y="-143.9" font-family="Arial" font-size="14.00" fill="#666666">[boolean]</text>
<polygon fill="none" stroke="#000000" points="440.5,-102.5 440.5,-132.5 742.5,-132.5 742.5,-102.5 440.5,-102.5"/>
<text text-anchor="start" x="447.5" y="-113.9" font-family="Arial" font-size="14.00" fill="#000000">to_weight </text>
<text text-anchor="start" x="511.298" y="-113.9" font-family="Arial" font-size="14.00" fill="#666666">[boolean]</text>
<polygon fill="none" stroke="#000000" points="440.5,-72.5 440.5,-102.5 742.5,-102.5 742.5,-72.5 440.5,-72.5"/>
<text text-anchor="start" x="447.5" y="-83.9" font-family="Arial" font-size="14.00" fill="#000000">pos_categ_id </text>
<text text-anchor="start" x="534.6486" y="-83.9" font-family="Arial" font-size="14.00" fill="#666666">[integer]</text>
<polygon fill="none" stroke="#000000" points="440.5,-42.5 440.5,-72.5 742.5,-72.5 742.5,-42.5 440.5,-42.5"/>
<text text-anchor="start" x="447.5" y="-53.9" font-family="Arial" font-size="14.00" fill="#000000">produce_delay </text>
<text text-anchor="start" x="543.2012" y="-53.9" font-family="Arial" font-size="14.00" fill="#666666">[double precision]</text>
</g>
<!-- public.stock_rules_report&#45;&gt;public.product_template -->
<g id="edge4" class="edge">
<title>public.stock_rules_report:product_tmpl_id&#45;&gt;public.product_template:id</title>
<path fill="none" stroke="#000000" d="M621.1343,-2136.8944C540.9809,-2127.0569 578.6379,-1999.7172 631.5,-1927 661.9956,-1885.0501 712.0044,-1932.9499 742.5,-1891 766.9348,-1857.3874 784.0556,-1797.5 742.5,-1797.5"/>
<polygon fill="#000000" stroke="#000000" points="621.517,-2136.9166 631.2375,-2141.9923 626.5085,-2137.2083 631.5,-2137.5 631.5,-2137.5 631.5,-2137.5 626.5085,-2137.2083 631.7625,-2133.0077 621.517,-2136.9166 621.517,-2136.9166"/>
<text text-anchor="start" x="200.259" y="-2147.5" font-family="Arial" font-size="10.00" fill="#000000">FOREIGN KEY (product_tmpl_id) REFERENCES product_template(id) ON DELETE SET NULL</text>
</g>
<!-- public.res_users -->
<g id="node6" class="node">
<title>public.res_users</title>
<polygon fill="#efefef" stroke="transparent" points="846.5,-1257.5 846.5,-1292.5 1122.5,-1292.5 1122.5,-1257.5 846.5,-1257.5"/>
<polygon fill="none" stroke="#000000" points="846.5,-1257.5 846.5,-1292.5 1122.5,-1292.5 1122.5,-1257.5 846.5,-1257.5"/>
<text text-anchor="start" x="870.3639" y="-1270.3" font-family="Arial Bold" font-size="18.00" fill="#000000">public.res_users</text>
<text text-anchor="start" x="1001.3823" y="-1270.3" font-family="Arial" font-size="14.00" fill="#000000"> </text>
<text text-anchor="start" x="1005.2729" y="-1270.3" font-family="Arial" font-size="14.00" fill="#666666">[BASE TABLE]</text>
<polygon fill="none" stroke="#000000" points="846.5,-1227.5 846.5,-1257.5 1122.5,-1257.5 1122.5,-1227.5 846.5,-1227.5"/>
<text text-anchor="start" x="853.5" y="-1238.9" font-family="Arial" font-size="14.00" fill="#000000">id </text>
<text text-anchor="start" x="868.2798" y="-1238.9" font-family="Arial" font-size="14.00" fill="#666666">[integer]</text>
<polygon fill="none" stroke="#000000" points="846.5,-1197.5 846.5,-1227.5 1122.5,-1227.5 1122.5,-1197.5 846.5,-1197.5"/>
<text text-anchor="start" x="853.5" y="-1208.9" font-family="Arial" font-size="14.00" fill="#000000">active </text>
<text text-anchor="start" x="893.953" y="-1208.9" font-family="Arial" font-size="14.00" fill="#666666">[boolean]</text>
<polygon fill="none" stroke="#000000" points="846.5,-1167.5 846.5,-1197.5 1122.5,-1197.5 1122.5,-1167.5 846.5,-1167.5"/>
<text text-anchor="start" x="853.5" y="-1178.9" font-family="Arial" font-size="14.00" fill="#000000">login </text>
<text text-anchor="start" x="886.9516" y="-1178.9" font-family="Arial" font-size="14.00" fill="#666666">[varchar]</text>
<polygon fill="none" stroke="#000000" points="846.5,-1137.5 846.5,-1167.5 1122.5,-1167.5 1122.5,-1137.5 846.5,-1137.5"/>
<text text-anchor="start" x="853.5" y="-1148.9" font-family="Arial" font-size="14.00" fill="#000000">password </text>
<text text-anchor="start" x="917.2882" y="-1148.9" font-family="Arial" font-size="14.00" fill="#666666">[varchar]</text>
<polygon fill="none" stroke="#000000" points="846.5,-1107.5 846.5,-1137.5 1122.5,-1137.5 1122.5,-1107.5 846.5,-1107.5"/>
<text text-anchor="start" x="853.5" y="-1118.9" font-family="Arial" font-size="14.00" fill="#000000">company_id </text>
<text text-anchor="start" x="932.8534" y="-1118.9" font-family="Arial" font-size="14.00" fill="#666666">[integer]</text>
<polygon fill="none" stroke="#000000" points="846.5,-1077.5 846.5,-1107.5 1122.5,-1107.5 1122.5,-1077.5 846.5,-1077.5"/>
<text text-anchor="start" x="853.5" y="-1088.9" font-family="Arial" font-size="14.00" fill="#000000">partner_id </text>
<text text-anchor="start" x="920.4046" y="-1088.9" font-family="Arial" font-size="14.00" fill="#666666">[integer]</text>
<polygon fill="none" stroke="#000000" points="846.5,-1047.5 846.5,-1077.5 1122.5,-1077.5 1122.5,-1047.5 846.5,-1047.5"/>
<text text-anchor="start" x="853.0246" y="-1058.9" font-family="Arial" font-size="14.00" fill="#000000">create_date </text>
<text text-anchor="start" x="930.8352" y="-1058.9" font-family="Arial" font-size="14.00" fill="#666666">[timestamp without time zone]</text>
<polygon fill="none" stroke="#000000" points="846.5,-1017.5 846.5,-1047.5 1122.5,-1047.5 1122.5,-1017.5 846.5,-1017.5"/>
<text text-anchor="start" x="853.5" y="-1028.9" font-family="Arial" font-size="14.00" fill="#000000">signature </text>
<text text-anchor="start" x="914.9614" y="-1028.9" font-family="Arial" font-size="14.00" fill="#666666">[text]</text>
<polygon fill="none" stroke="#000000" points="846.5,-987.5 846.5,-1017.5 1122.5,-1017.5 1122.5,-987.5 846.5,-987.5"/>
<text text-anchor="start" x="853.5" y="-998.9" font-family="Arial" font-size="14.00" fill="#000000">action_id </text>
<text text-anchor="start" x="913.4074" y="-998.9" font-family="Arial" font-size="14.00" fill="#666666">[integer]</text>
<polygon fill="none" stroke="#000000" points="846.5,-957.5 846.5,-987.5 1122.5,-987.5 1122.5,-957.5 846.5,-957.5"/>
<text text-anchor="start" x="853.5" y="-968.9" font-family="Arial" font-size="14.00" fill="#000000">share </text>
<text text-anchor="start" x="892.399" y="-968.9" font-family="Arial" font-size="14.00" fill="#666666">[boolean]</text>
<polygon fill="none" stroke="#000000" points="846.5,-927.5 846.5,-957.5 1122.5,-957.5 1122.5,-927.5 846.5,-927.5"/>
<text text-anchor="start" x="853.5" y="-938.9" font-family="Arial" font-size="14.00" fill="#000000">create_uid </text>
<text text-anchor="start" x="922.744" y="-938.9" font-family="Arial" font-size="14.00" fill="#666666">[integer]</text>
<polygon fill="none" stroke="#000000" points="846.5,-897.5 846.5,-927.5 1122.5,-927.5 1122.5,-897.5 846.5,-897.5"/>
<text text-anchor="start" x="853.5" y="-908.9" font-family="Arial" font-size="14.00" fill="#000000">write_uid </text>
<text text-anchor="start" x="913.392" y="-908.9" font-family="Arial" font-size="14.00" fill="#666666">[integer]</text>
<polygon fill="none" stroke="#000000" points="846.5,-867.5 846.5,-897.5 1122.5,-897.5 1122.5,-867.5 846.5,-867.5"/>
<text text-anchor="start" x="853.5" y="-878.9" font-family="Arial" font-size="14.00" fill="#000000">write_date </text>
<text text-anchor="start" x="921.9586" y="-878.9" font-family="Arial" font-size="14.00" fill="#666666">[timestamp without time zone]</text>
<polygon fill="none" stroke="#000000" points="846.5,-837.5 846.5,-867.5 1122.5,-867.5 1122.5,-837.5 846.5,-837.5"/>
<text text-anchor="start" x="853.5" y="-848.9" font-family="Arial" font-size="14.00" fill="#000000">alias_id </text>
<text text-anchor="start" x="904.8408" y="-848.9" font-family="Arial" font-size="14.00" fill="#666666">[integer]</text>
<polygon fill="none" stroke="#000000" points="846.5,-807.5 846.5,-837.5 1122.5,-837.5 1122.5,-807.5 846.5,-807.5"/>
<text text-anchor="start" x="853.5" y="-818.9" font-family="Arial" font-size="14.00" fill="#000000">notification_type </text>
<text text-anchor="start" x="958.5336" y="-818.9" font-family="Arial" font-size="14.00" fill="#666666">[varchar]</text>
<polygon fill="none" stroke="#000000" points="846.5,-777.5 846.5,-807.5 1122.5,-807.5 1122.5,-777.5 846.5,-777.5"/>
<text text-anchor="start" x="853.5" y="-788.9" font-family="Arial" font-size="14.00" fill="#000000">odoobot_state </text>
<text text-anchor="start" x="946.1058" y="-788.9" font-family="Arial" font-size="14.00" fill="#666666">[varchar]</text>
<polygon fill="none" stroke="#000000" points="846.5,-747.5 846.5,-777.5 1122.5,-777.5 1122.5,-747.5 846.5,-747.5"/>
<text text-anchor="start" x="853.5" y="-758.9" font-family="Arial" font-size="14.00" fill="#000000">sale_team_id </text>
<text text-anchor="start" x="940.6332" y="-758.9" font-family="Arial" font-size="14.00" fill="#666666">[integer]</text>
<polygon fill="none" stroke="#000000" points="846.5,-717.5 846.5,-747.5 1122.5,-747.5 1122.5,-717.5 846.5,-717.5"/>
<text text-anchor="start" x="853.5" y="-728.9" font-family="Arial" font-size="14.00" fill="#000000">target_sales_won </text>
<text text-anchor="start" x="967.089" y="-728.9" font-family="Arial" font-size="14.00" fill="#666666">[integer]</text>
<polygon fill="none" stroke="#000000" points="846.5,-687.5 846.5,-717.5 1122.5,-717.5 1122.5,-687.5 846.5,-687.5"/>
<text text-anchor="start" x="853.5" y="-698.9" font-family="Arial" font-size="14.00" fill="#000000">target_sales_done </text>
<text text-anchor="start" x="972.5476" y="-698.9" font-family="Arial" font-size="14.00" fill="#666666">[integer]</text>
<polygon fill="none" stroke="#000000" points="846.5,-657.5 846.5,-687.5 1122.5,-687.5 1122.5,-657.5 846.5,-657.5"/>
<text text-anchor="start" x="853.5" y="-668.9" font-family="Arial" font-size="14.00" fill="#000000">website_id </text>
<text text-anchor="start" x="923.514" y="-668.9" font-family="Arial" font-size="14.00" fill="#666666">[integer]</text>
<polygon fill="none" stroke="#000000" points="846.5,-627.5 846.5,-657.5 1122.5,-657.5 1122.5,-627.5 846.5,-627.5"/>
<text text-anchor="start" x="853.5" y="-638.9" font-family="Arial" font-size="14.00" fill="#000000">target_sales_invoiced </text>
<text text-anchor="start" x="992.7608" y="-638.9" font-family="Arial" font-size="14.00" fill="#666666">[integer]</text>
<polygon fill="none" stroke="#000000" points="846.5,-597.5 846.5,-627.5 1122.5,-627.5 1122.5,-597.5 846.5,-597.5"/>
<text text-anchor="start" x="853.5" y="-608.9" font-family="Arial" font-size="14.00" fill="#000000">pos_security_pin </text>
<text text-anchor="start" x="962.4158" y="-608.9" font-family="Arial" font-size="14.00" fill="#666666">[varchar(32)]</text>
</g>
<!-- public.stock_rules_report&#45;&gt;public.res_users -->
<g id="edge5" class="edge">
<title>public.stock_rules_report:create_uid&#45;&gt;public.res_users:id</title>
<path fill="none" stroke="#000000" d="M952.7027,-2076.5569C1111.1862,-2045.2013 663.3701,-1242.5 846.5,-1242.5"/>
<polygon fill="#000000" stroke="#000000" points="952.4575,-2076.5794 942.0857,-2073.0191 947.4788,-2077.0397 942.5,-2077.5 942.5,-2077.5 942.5,-2077.5 947.4788,-2077.0397 942.9143,-2081.9809 952.4575,-2076.5794 952.4575,-2076.5794"/>
<text text-anchor="start" x="949.157" y="-2087.5" font-family="Arial" font-size="10.00" fill="#000000">FOREIGN KEY (create_uid) REFERENCES res_users(id) ON DELETE SET NULL</text>
</g>
<!-- public.stock_rules_report&#45;&gt;public.res_users -->
<g id="edge6" class="edge">
<title>public.stock_rules_report:write_uid&#45;&gt;public.res_users:id</title>
<path fill="none" stroke="#000000" d="M952.8435,-2016.4422C1097.2846,-1984.5569 676.6899,-1242.5 846.5,-1242.5"/>
<polygon fill="#000000" stroke="#000000" points="952.4481,-2016.4825 942.0421,-2013.0233 947.4741,-2016.9913 942.5,-2017.5 942.5,-2017.5 942.5,-2017.5 947.4741,-2016.9913 942.9579,-2021.9767 952.4481,-2016.4825 952.4481,-2016.4825"/>
<text text-anchor="start" x="949.497" y="-2027.5" font-family="Arial" font-size="10.00" fill="#000000">FOREIGN KEY (write_uid) REFERENCES res_users(id) ON DELETE SET NULL</text>
</g>
<!-- public.stock_rules_report_stock_warehouse_rel -->
<g id="node2" class="node">
<title>public.stock_rules_report_stock_warehouse_rel</title>
<polygon fill="#efefef" stroke="transparent" points="238.5,-2432.5 238.5,-2467.5 729.5,-2467.5 729.5,-2432.5 238.5,-2432.5"/>
<polygon fill="none" stroke="#000000" points="238.5,-2432.5 238.5,-2467.5 729.5,-2467.5 729.5,-2432.5 238.5,-2432.5"/>
<text text-anchor="start" x="245.3345" y="-2445.3" font-family="Arial Bold" font-size="18.00" fill="#000000">public.stock_rules_report_stock_warehouse_rel</text>
<text text-anchor="start" x="625.4117" y="-2445.3" font-family="Arial" font-size="14.00" fill="#000000"> </text>
<text text-anchor="start" x="629.3023" y="-2445.3" font-family="Arial" font-size="14.00" fill="#666666">[BASE TABLE]</text>
<polygon fill="none" stroke="#000000" points="238.5,-2402.5 238.5,-2432.5 729.5,-2432.5 729.5,-2402.5 238.5,-2402.5"/>
<text text-anchor="start" x="245.5" y="-2413.9" font-family="Arial" font-size="14.00" fill="#000000">stock_rules_report_id </text>
<text text-anchor="start" x="383.1928" y="-2413.9" font-family="Arial" font-size="14.00" fill="#666666">[integer]</text>
<polygon fill="none" stroke="#000000" points="238.5,-2372.5 238.5,-2402.5 729.5,-2402.5 729.5,-2372.5 238.5,-2372.5"/>
<text text-anchor="start" x="245.5" y="-2383.9" font-family="Arial" font-size="14.00" fill="#000000">stock_warehouse_id </text>
<text text-anchor="start" x="376.981" y="-2383.9" font-family="Arial" font-size="14.00" fill="#666666">[integer]</text>
</g>
<!-- public.stock_rules_report_stock_warehouse_rel&#45;&gt;public.stock_rules_report -->
<g id="edge1" class="edge">
<title>public.stock_rules_report_stock_warehouse_rel:stock_rules_report_id&#45;&gt;public.stock_rules_report:id</title>
<path fill="none" stroke="#000000" d="M739.6832,-2415.8622C764.9527,-2406.4487 749.4977,-2358.6504 729.5,-2330 702.9419,-2291.9506 658.0581,-2332.0494 631.5,-2294 606.9523,-2258.8309 588.6111,-2197.5 631.5,-2197.5"/>
<polygon fill="#000000" stroke="#000000" points="739.3731,-2415.912 728.7854,-2413.0571 734.4366,-2416.706 729.5,-2417.5 729.5,-2417.5 729.5,-2417.5 734.4366,-2416.706 730.2146,-2421.9429 739.3731,-2415.912 739.3731,-2415.912"/>
<text text-anchor="start" x="736.2645" y="-2427.5" font-family="Arial" font-size="10.00" fill="#000000">FOREIGN KEY (stock_rules_report_id) REFERENCES stock_rules_report(id) ON DELETE CASCADE</text>
</g>
<!-- public.stock_location_route_stock_rules_report_rel -->
<g id="node3" class="node">
<title>public.stock_location_route_stock_rules_report_rel</title>
<polygon fill="#efefef" stroke="transparent" points="833.5,-2432.5 833.5,-2467.5 1349.5,-2467.5 1349.5,-2432.5 833.5,-2432.5"/>
<polygon fill="none" stroke="#000000" points="833.5,-2432.5 833.5,-2467.5 1349.5,-2467.5 1349.5,-2432.5 833.5,-2432.5"/>
<text text-anchor="start" x="840.329" y="-2445.3" font-family="Arial Bold" font-size="18.00" fill="#000000">public.stock_location_route_stock_rules_report_rel</text>
<text text-anchor="start" x="1245.4172" y="-2445.3" font-family="Arial" font-size="14.00" fill="#000000"> </text>
<text text-anchor="start" x="1249.3078" y="-2445.3" font-family="Arial" font-size="14.00" fill="#666666">[BASE TABLE]</text>
<polygon fill="none" stroke="#000000" points="833.5,-2402.5 833.5,-2432.5 1349.5,-2432.5 1349.5,-2402.5 833.5,-2402.5"/>
<text text-anchor="start" x="840.5" y="-2413.9" font-family="Arial" font-size="14.00" fill="#000000">stock_rules_report_id </text>
<text text-anchor="start" x="978.1928" y="-2413.9" font-family="Arial" font-size="14.00" fill="#666666">[integer]</text>
<polygon fill="none" stroke="#000000" points="833.5,-2372.5 833.5,-2402.5 1349.5,-2402.5 1349.5,-2372.5 833.5,-2372.5"/>
<text text-anchor="start" x="840.5" y="-2383.9" font-family="Arial" font-size="14.00" fill="#000000">stock_location_route_id </text>
<text text-anchor="start" x="991.434" y="-2383.9" font-family="Arial" font-size="14.00" fill="#666666">[integer]</text>
</g>
<!-- public.stock_location_route_stock_rules_report_rel&#45;&gt;public.stock_rules_report -->
<g id="edge2" class="edge">
<title>public.stock_location_route_stock_rules_report_rel:stock_rules_report_id&#45;&gt;public.stock_rules_report:id</title>
<path fill="none" stroke="#000000" d="M823.3023,-2415.8519C797.9516,-2406.3808 813.0316,-2358.316 833.5,-2330 863.3879,-2288.653 912.6121,-2335.347 942.5,-2294 967.6255,-2259.2413 985.3889,-2197.5 942.5,-2197.5"/>
<polygon fill="#000000" stroke="#000000" points="823.6281,-2415.9045 832.782,-2421.9424 828.564,-2416.7022 833.5,-2417.5 833.5,-2417.5 833.5,-2417.5 828.564,-2416.7022 834.218,-2413.0576 823.6281,-2415.9045 823.6281,-2415.9045"/>
<text text-anchor="start" x="840.2645" y="-2401.5" font-family="Arial" font-size="10.00" fill="#000000">FOREIGN KEY (stock_rules_report_id) REFERENCES stock_rules_report(id) ON DELETE CASCADE</text>
</g>
</g>
</svg>
