<?xml version="1.0" encoding="UTF-8" standalone="no"?>
<!DOCTYPE svg PUBLIC "-//W3C//DTD SVG 1.1//EN"
 "http://www.w3.org/Graphics/SVG/1.1/DTD/svg11.dtd">
<!-- Generated by graphviz version 2.40.1 (20161225.0304)
 -->
<!-- Title: public.base_import_mapping Pages: 1 -->
<svg width="776pt" height="1192pt"
 viewBox="0.00 0.00 775.50 1192.00" xmlns="http://www.w3.org/2000/svg" xmlns:xlink="http://www.w3.org/1999/xlink">
<g id="graph0" class="graph" transform="scale(1 1) rotate(0) translate(4 1188)">
<title>public.base_import_mapping</title>
<polygon fill="#ffffff" stroke="transparent" points="-4,4 -4,-1188 771.5,-1188 771.5,4 -4,4"/>
<!-- public.base_import_mapping -->
<g id="node1" class="node">
<title>public.base_import_mapping</title>
<polygon fill="#efefef" stroke="transparent" points="46.5,-1102.5 46.5,-1137.5 387.5,-1137.5 387.5,-1102.5 46.5,-1102.5"/>
<polygon fill="none" stroke="#000000" points="46.5,-1102.5 46.5,-1137.5 387.5,-1137.5 387.5,-1102.5 46.5,-1102.5"/>
<text text-anchor="start" x="53.3477" y="-1115.3" font-family="Arial Bold" font-size="18.00" fill="#000000">public.base_import_mapping</text>
<text text-anchor="start" x="283.3985" y="-1115.3" font-family="Arial" font-size="14.00" fill="#000000"> </text>
<text text-anchor="start" x="287.2891" y="-1115.3" font-family="Arial" font-size="14.00" fill="#666666">[BASE TABLE]</text>
<polygon fill="none" stroke="#000000" points="46.5,-1072.5 46.5,-1102.5 387.5,-1102.5 387.5,-1072.5 46.5,-1072.5"/>
<text text-anchor="start" x="53.5" y="-1083.9" font-family="Arial" font-size="14.00" fill="#000000">id </text>
<text text-anchor="start" x="68.2798" y="-1083.9" font-family="Arial" font-size="14.00" fill="#666666">[integer]</text>
<polygon fill="none" stroke="#000000" points="46.5,-1042.5 46.5,-1072.5 387.5,-1072.5 387.5,-1042.5 46.5,-1042.5"/>
<text text-anchor="start" x="53.5" y="-1053.9" font-family="Arial" font-size="14.00" fill="#000000">res_model </text>
<text text-anchor="start" x="122.7314" y="-1053.9" font-family="Arial" font-size="14.00" fill="#666666">[varchar]</text>
<polygon fill="none" stroke="#000000" points="46.5,-1012.5 46.5,-1042.5 387.5,-1042.5 387.5,-1012.5 46.5,-1012.5"/>
<text text-anchor="start" x="53.5" y="-1023.9" font-family="Arial" font-size="14.00" fill="#000000">column_name </text>
<text text-anchor="start" x="145.2966" y="-1023.9" font-family="Arial" font-size="14.00" fill="#666666">[varchar]</text>
<polygon fill="none" stroke="#000000" points="46.5,-982.5 46.5,-1012.5 387.5,-1012.5 387.5,-982.5 46.5,-982.5"/>
<text text-anchor="start" x="53.5" y="-993.9" font-family="Arial" font-size="14.00" fill="#000000">field_name </text>
<text text-anchor="start" x="125.8506" y="-993.9" font-family="Arial" font-size="14.00" fill="#666666">[varchar]</text>
<polygon fill="none" stroke="#000000" points="46.5,-952.5 46.5,-982.5 387.5,-982.5 387.5,-952.5 46.5,-952.5"/>
<text text-anchor="start" x="53.5" y="-963.9" font-family="Arial" font-size="14.00" fill="#000000">create_uid </text>
<text text-anchor="start" x="122.744" y="-963.9" font-family="Arial" font-size="14.00" fill="#666666">[integer]</text>
<polygon fill="none" stroke="#000000" points="46.5,-922.5 46.5,-952.5 387.5,-952.5 387.5,-922.5 46.5,-922.5"/>
<text text-anchor="start" x="53.5" y="-933.9" font-family="Arial" font-size="14.00" fill="#000000">create_date </text>
<text text-anchor="start" x="131.3106" y="-933.9" font-family="Arial" font-size="14.00" fill="#666666">[timestamp without time zone]</text>
<polygon fill="none" stroke="#000000" points="46.5,-892.5 46.5,-922.5 387.5,-922.5 387.5,-892.5 46.5,-892.5"/>
<text text-anchor="start" x="53.5" y="-903.9" font-family="Arial" font-size="14.00" fill="#000000">write_uid </text>
<text text-anchor="start" x="113.392" y="-903.9" font-family="Arial" font-size="14.00" fill="#666666">[integer]</text>
<polygon fill="none" stroke="#000000" points="46.5,-862.5 46.5,-892.5 387.5,-892.5 387.5,-862.5 46.5,-862.5"/>
<text text-anchor="start" x="53.5" y="-873.9" font-family="Arial" font-size="14.00" fill="#000000">write_date </text>
<text text-anchor="start" x="121.9586" y="-873.9" font-family="Arial" font-size="14.00" fill="#666666">[timestamp without time zone]</text>
<polygon fill="none" stroke="#000000" stroke-width="3" points="44.5,-861.5 44.5,-1139.5 388.5,-1139.5 388.5,-861.5 44.5,-861.5"/>
</g>
<!-- public.res_users -->
<g id="node2" class="node">
<title>public.res_users</title>
<polygon fill="#efefef" stroke="transparent" points="79.5,-702.5 79.5,-737.5 355.5,-737.5 355.5,-702.5 79.5,-702.5"/>
<polygon fill="none" stroke="#000000" points="79.5,-702.5 79.5,-737.5 355.5,-737.5 355.5,-702.5 79.5,-702.5"/>
<text text-anchor="start" x="103.3639" y="-715.3" font-family="Arial Bold" font-size="18.00" fill="#000000">public.res_users</text>
<text text-anchor="start" x="234.3823" y="-715.3" font-family="Arial" font-size="14.00" fill="#000000"> </text>
<text text-anchor="start" x="238.2729" y="-715.3" font-family="Arial" font-size="14.00" fill="#666666">[BASE TABLE]</text>
<polygon fill="none" stroke="#000000" points="79.5,-672.5 79.5,-702.5 355.5,-702.5 355.5,-672.5 79.5,-672.5"/>
<text text-anchor="start" x="86.5" y="-683.9" font-family="Arial" font-size="14.00" fill="#000000">id </text>
<text text-anchor="start" x="101.2798" y="-683.9" font-family="Arial" font-size="14.00" fill="#666666">[integer]</text>
<polygon fill="none" stroke="#000000" points="79.5,-642.5 79.5,-672.5 355.5,-672.5 355.5,-642.5 79.5,-642.5"/>
<text text-anchor="start" x="86.5" y="-653.9" font-family="Arial" font-size="14.00" fill="#000000">active </text>
<text text-anchor="start" x="126.953" y="-653.9" font-family="Arial" font-size="14.00" fill="#666666">[boolean]</text>
<polygon fill="none" stroke="#000000" points="79.5,-612.5 79.5,-642.5 355.5,-642.5 355.5,-612.5 79.5,-612.5"/>
<text text-anchor="start" x="86.5" y="-623.9" font-family="Arial" font-size="14.00" fill="#000000">login </text>
<text text-anchor="start" x="119.9516" y="-623.9" font-family="Arial" font-size="14.00" fill="#666666">[varchar]</text>
<polygon fill="none" stroke="#000000" points="79.5,-582.5 79.5,-612.5 355.5,-612.5 355.5,-582.5 79.5,-582.5"/>
<text text-anchor="start" x="86.5" y="-593.9" font-family="Arial" font-size="14.00" fill="#000000">password </text>
<text text-anchor="start" x="150.2882" y="-593.9" font-family="Arial" font-size="14.00" fill="#666666">[varchar]</text>
<polygon fill="none" stroke="#000000" points="79.5,-552.5 79.5,-582.5 355.5,-582.5 355.5,-552.5 79.5,-552.5"/>
<text text-anchor="start" x="86.5" y="-563.9" font-family="Arial" font-size="14.00" fill="#000000">company_id </text>
<text text-anchor="start" x="165.8534" y="-563.9" font-family="Arial" font-size="14.00" fill="#666666">[integer]</text>
<polygon fill="none" stroke="#000000" points="79.5,-522.5 79.5,-552.5 355.5,-552.5 355.5,-522.5 79.5,-522.5"/>
<text text-anchor="start" x="86.5" y="-533.9" font-family="Arial" font-size="14.00" fill="#000000">partner_id </text>
<text text-anchor="start" x="153.4046" y="-533.9" font-family="Arial" font-size="14.00" fill="#666666">[integer]</text>
<polygon fill="none" stroke="#000000" points="79.5,-492.5 79.5,-522.5 355.5,-522.5 355.5,-492.5 79.5,-492.5"/>
<text text-anchor="start" x="86.0246" y="-503.9" font-family="Arial" font-size="14.00" fill="#000000">create_date </text>
<text text-anchor="start" x="163.8352" y="-503.9" font-family="Arial" font-size="14.00" fill="#666666">[timestamp without time zone]</text>
<polygon fill="none" stroke="#000000" points="79.5,-462.5 79.5,-492.5 355.5,-492.5 355.5,-462.5 79.5,-462.5"/>
<text text-anchor="start" x="86.5" y="-473.9" font-family="Arial" font-size="14.00" fill="#000000">signature </text>
<text text-anchor="start" x="147.9614" y="-473.9" font-family="Arial" font-size="14.00" fill="#666666">[text]</text>
<polygon fill="none" stroke="#000000" points="79.5,-432.5 79.5,-462.5 355.5,-462.5 355.5,-432.5 79.5,-432.5"/>
<text text-anchor="start" x="86.5" y="-443.9" font-family="Arial" font-size="14.00" fill="#000000">action_id </text>
<text text-anchor="start" x="146.4074" y="-443.9" font-family="Arial" font-size="14.00" fill="#666666">[integer]</text>
<polygon fill="none" stroke="#000000" points="79.5,-402.5 79.5,-432.5 355.5,-432.5 355.5,-402.5 79.5,-402.5"/>
<text text-anchor="start" x="86.5" y="-413.9" font-family="Arial" font-size="14.00" fill="#000000">share </text>
<text text-anchor="start" x="125.399" y="-413.9" font-family="Arial" font-size="14.00" fill="#666666">[boolean]</text>
<polygon fill="none" stroke="#000000" points="79.5,-372.5 79.5,-402.5 355.5,-402.5 355.5,-372.5 79.5,-372.5"/>
<text text-anchor="start" x="86.5" y="-383.9" font-family="Arial" font-size="14.00" fill="#000000">create_uid </text>
<text text-anchor="start" x="155.744" y="-383.9" font-family="Arial" font-size="14.00" fill="#666666">[integer]</text>
<polygon fill="none" stroke="#000000" points="79.5,-342.5 79.5,-372.5 355.5,-372.5 355.5,-342.5 79.5,-342.5"/>
<text text-anchor="start" x="86.5" y="-353.9" font-family="Arial" font-size="14.00" fill="#000000">write_uid </text>
<text text-anchor="start" x="146.392" y="-353.9" font-family="Arial" font-size="14.00" fill="#666666">[integer]</text>
<polygon fill="none" stroke="#000000" points="79.5,-312.5 79.5,-342.5 355.5,-342.5 355.5,-312.5 79.5,-312.5"/>
<text text-anchor="start" x="86.5" y="-323.9" font-family="Arial" font-size="14.00" fill="#000000">write_date </text>
<text text-anchor="start" x="154.9586" y="-323.9" font-family="Arial" font-size="14.00" fill="#666666">[timestamp without time zone]</text>
<polygon fill="none" stroke="#000000" points="79.5,-282.5 79.5,-312.5 355.5,-312.5 355.5,-282.5 79.5,-282.5"/>
<text text-anchor="start" x="86.5" y="-293.9" font-family="Arial" font-size="14.00" fill="#000000">alias_id </text>
<text text-anchor="start" x="137.8408" y="-293.9" font-family="Arial" font-size="14.00" fill="#666666">[integer]</text>
<polygon fill="none" stroke="#000000" points="79.5,-252.5 79.5,-282.5 355.5,-282.5 355.5,-252.5 79.5,-252.5"/>
<text text-anchor="start" x="86.5" y="-263.9" font-family="Arial" font-size="14.00" fill="#000000">notification_type </text>
<text text-anchor="start" x="191.5336" y="-263.9" font-family="Arial" font-size="14.00" fill="#666666">[varchar]</text>
<polygon fill="none" stroke="#000000" points="79.5,-222.5 79.5,-252.5 355.5,-252.5 355.5,-222.5 79.5,-222.5"/>
<text text-anchor="start" x="86.5" y="-233.9" font-family="Arial" font-size="14.00" fill="#000000">odoobot_state </text>
<text text-anchor="start" x="179.1058" y="-233.9" font-family="Arial" font-size="14.00" fill="#666666">[varchar]</text>
<polygon fill="none" stroke="#000000" points="79.5,-192.5 79.5,-222.5 355.5,-222.5 355.5,-192.5 79.5,-192.5"/>
<text text-anchor="start" x="86.5" y="-203.9" font-family="Arial" font-size="14.00" fill="#000000">sale_team_id </text>
<text text-anchor="start" x="173.6332" y="-203.9" font-family="Arial" font-size="14.00" fill="#666666">[integer]</text>
<polygon fill="none" stroke="#000000" points="79.5,-162.5 79.5,-192.5 355.5,-192.5 355.5,-162.5 79.5,-162.5"/>
<text text-anchor="start" x="86.5" y="-173.9" font-family="Arial" font-size="14.00" fill="#000000">target_sales_won </text>
<text text-anchor="start" x="200.089" y="-173.9" font-family="Arial" font-size="14.00" fill="#666666">[integer]</text>
<polygon fill="none" stroke="#000000" points="79.5,-132.5 79.5,-162.5 355.5,-162.5 355.5,-132.5 79.5,-132.5"/>
<text text-anchor="start" x="86.5" y="-143.9" font-family="Arial" font-size="14.00" fill="#000000">target_sales_done </text>
<text text-anchor="start" x="205.5476" y="-143.9" font-family="Arial" font-size="14.00" fill="#666666">[integer]</text>
<polygon fill="none" stroke="#000000" points="79.5,-102.5 79.5,-132.5 355.5,-132.5 355.5,-102.5 79.5,-102.5"/>
<text text-anchor="start" x="86.5" y="-113.9" font-family="Arial" font-size="14.00" fill="#000000">website_id </text>
<text text-anchor="start" x="156.514" y="-113.9" font-family="Arial" font-size="14.00" fill="#666666">[integer]</text>
<polygon fill="none" stroke="#000000" points="79.5,-72.5 79.5,-102.5 355.5,-102.5 355.5,-72.5 79.5,-72.5"/>
<text text-anchor="start" x="86.5" y="-83.9" font-family="Arial" font-size="14.00" fill="#000000">target_sales_invoiced </text>
<text text-anchor="start" x="225.7608" y="-83.9" font-family="Arial" font-size="14.00" fill="#666666">[integer]</text>
<polygon fill="none" stroke="#000000" points="79.5,-42.5 79.5,-72.5 355.5,-72.5 355.5,-42.5 79.5,-42.5"/>
<text text-anchor="start" x="86.5" y="-53.9" font-family="Arial" font-size="14.00" fill="#000000">pos_security_pin </text>
<text text-anchor="start" x="195.4158" y="-53.9" font-family="Arial" font-size="14.00" fill="#666666">[varchar(32)]</text>
</g>
<!-- public.base_import_mapping&#45;&gt;public.res_users -->
<g id="edge1" class="edge">
<title>public.base_import_mapping:create_uid&#45;&gt;public.res_users:id</title>
<path fill="none" stroke="#000000" d="M397.6837,-966.6227C451.8706,-956.6555 429.5356,-864.2351 387.5,-817 295.8773,-714.0444 171.1227,-883.9556 79.5,-781 51.874,-749.957 37.9444,-687.5 79.5,-687.5"/>
<polygon fill="#000000" stroke="#000000" points="397.4631,-966.6416 387.1137,-963.0166 392.4816,-967.0708 387.5,-967.5 387.5,-967.5 387.5,-967.5 392.4816,-967.0708 387.8863,-971.9834 397.4631,-966.6416 397.4631,-966.6416"/>
<text text-anchor="start" x="394.157" y="-977.5" font-family="Arial" font-size="10.00" fill="#000000">FOREIGN KEY (create_uid) REFERENCES res_users(id) ON DELETE SET NULL</text>
</g>
<!-- public.base_import_mapping&#45;&gt;public.res_users -->
<g id="edge2" class="edge">
<title>public.base_import_mapping:write_uid&#45;&gt;public.res_users:id</title>
<path fill="none" stroke="#000000" d="M397.4298,-905.9809C425.0777,-896.4323 411.7327,-844.2301 387.5,-817 295.8773,-714.0444 171.1227,-883.9556 79.5,-781 51.874,-749.957 37.9444,-687.5 79.5,-687.5"/>
<polygon fill="#000000" stroke="#000000" points="397.385,-905.9877 386.8194,-903.0518 392.4425,-906.7438 387.5,-907.5 387.5,-907.5 387.5,-907.5 392.4425,-906.7438 388.1806,-911.9482 397.385,-905.9877 397.385,-905.9877"/>
<text text-anchor="start" x="394.497" y="-917.5" font-family="Arial" font-size="10.00" fill="#000000">FOREIGN KEY (write_uid) REFERENCES res_users(id) ON DELETE SET NULL</text>
</g>
</g>
</svg>
