<?xml version="1.0" encoding="UTF-8" standalone="no"?>
<!DOCTYPE svg PUBLIC "-//W3C//DTD SVG 1.1//EN"
 "http://www.w3.org/Graphics/SVG/1.1/DTD/svg11.dtd">
<!-- Generated by graphviz version 2.40.1 (20161225.0304)
 -->
<!-- Title: public.blog_post_blog_tag_rel Pages: 1 -->
<svg width="1128pt" height="1012pt"
 viewBox="0.00 0.00 1128.00 1012.00" xmlns="http://www.w3.org/2000/svg" xmlns:xlink="http://www.w3.org/1999/xlink">
<g id="graph0" class="graph" transform="scale(1 1) rotate(0) translate(4 1008)">
<title>public.blog_post_blog_tag_rel</title>
<polygon fill="#ffffff" stroke="transparent" points="-4,4 -4,-1008 1124,-1008 1124,4 -4,4"/>
<!-- public.blog_post_blog_tag_rel -->
<g id="node1" class="node">
<title>public.blog_post_blog_tag_rel</title>
<polygon fill="#efefef" stroke="transparent" points="380,-922.5 380,-957.5 730,-957.5 730,-922.5 380,-922.5"/>
<polygon fill="none" stroke="#000000" points="380,-922.5 380,-957.5 730,-957.5 730,-922.5 380,-922.5"/>
<text text-anchor="start" x="386.8324" y="-935.3" font-family="Arial Bold" font-size="18.00" fill="#000000">public.blog_post_blog_tag_rel</text>
<text text-anchor="start" x="625.9138" y="-935.3" font-family="Arial" font-size="14.00" fill="#000000"> </text>
<text text-anchor="start" x="629.8044" y="-935.3" font-family="Arial" font-size="14.00" fill="#666666">[BASE TABLE]</text>
<polygon fill="none" stroke="#000000" points="380,-892.5 380,-922.5 730,-922.5 730,-892.5 380,-892.5"/>
<text text-anchor="start" x="387" y="-903.9" font-family="Arial" font-size="14.00" fill="#000000">blog_tag_id </text>
<text text-anchor="start" x="463.2552" y="-903.9" font-family="Arial" font-size="14.00" fill="#666666">[integer]</text>
<polygon fill="none" stroke="#000000" points="380,-862.5 380,-892.5 730,-892.5 730,-862.5 380,-862.5"/>
<text text-anchor="start" x="387" y="-873.9" font-family="Arial" font-size="14.00" fill="#000000">blog_post_id </text>
<text text-anchor="start" x="470.2552" y="-873.9" font-family="Arial" font-size="14.00" fill="#666666">[integer]</text>
<polygon fill="none" stroke="#000000" stroke-width="3" points="378.5,-861.5 378.5,-959.5 731.5,-959.5 731.5,-861.5 378.5,-861.5"/>
</g>
<!-- public.blog_tag -->
<g id="node2" class="node">
<title>public.blog_tag</title>
<polygon fill="#efefef" stroke="transparent" points="221,-537.5 221,-572.5 497,-572.5 497,-537.5 221,-537.5"/>
<polygon fill="none" stroke="#000000" points="221,-537.5 221,-572.5 497,-572.5 497,-537.5 221,-537.5"/>
<text text-anchor="start" x="249.8517" y="-550.3" font-family="Arial Bold" font-size="18.00" fill="#000000">public.blog_tag</text>
<text text-anchor="start" x="370.8945" y="-550.3" font-family="Arial" font-size="14.00" fill="#000000"> </text>
<text text-anchor="start" x="374.7851" y="-550.3" font-family="Arial" font-size="14.00" fill="#666666">[BASE TABLE]</text>
<polygon fill="none" stroke="#000000" points="221,-507.5 221,-537.5 497,-537.5 497,-507.5 221,-507.5"/>
<text text-anchor="start" x="228" y="-518.9" font-family="Arial" font-size="14.00" fill="#000000">id </text>
<text text-anchor="start" x="242.7798" y="-518.9" font-family="Arial" font-size="14.00" fill="#666666">[integer]</text>
<polygon fill="none" stroke="#000000" points="221,-477.5 221,-507.5 497,-507.5 497,-477.5 221,-477.5"/>
<text text-anchor="start" x="228" y="-488.9" font-family="Arial" font-size="14.00" fill="#000000">website_meta_title </text>
<text text-anchor="start" x="347.8008" y="-488.9" font-family="Arial" font-size="14.00" fill="#666666">[varchar]</text>
<polygon fill="none" stroke="#000000" points="221,-447.5 221,-477.5 497,-477.5 497,-447.5 221,-447.5"/>
<text text-anchor="start" x="228" y="-458.9" font-family="Arial" font-size="14.00" fill="#000000">website_meta_description </text>
<text text-anchor="start" x="393.7012" y="-458.9" font-family="Arial" font-size="14.00" fill="#666666">[text]</text>
<polygon fill="none" stroke="#000000" points="221,-417.5 221,-447.5 497,-447.5 497,-417.5 221,-417.5"/>
<text text-anchor="start" x="228" y="-428.9" font-family="Arial" font-size="14.00" fill="#000000">website_meta_keywords </text>
<text text-anchor="start" x="385.1388" y="-428.9" font-family="Arial" font-size="14.00" fill="#666666">[varchar]</text>
<polygon fill="none" stroke="#000000" points="221,-387.5 221,-417.5 497,-417.5 497,-387.5 221,-387.5"/>
<text text-anchor="start" x="228" y="-398.9" font-family="Arial" font-size="14.00" fill="#000000">website_meta_og_img </text>
<text text-anchor="start" x="371.9214" y="-398.9" font-family="Arial" font-size="14.00" fill="#666666">[varchar]</text>
<polygon fill="none" stroke="#000000" points="221,-357.5 221,-387.5 497,-387.5 497,-357.5 221,-357.5"/>
<text text-anchor="start" x="228" y="-368.9" font-family="Arial" font-size="14.00" fill="#000000">name </text>
<text text-anchor="start" x="266.899" y="-368.9" font-family="Arial" font-size="14.00" fill="#666666">[varchar]</text>
<polygon fill="none" stroke="#000000" points="221,-327.5 221,-357.5 497,-357.5 497,-327.5 221,-327.5"/>
<text text-anchor="start" x="228" y="-338.9" font-family="Arial" font-size="14.00" fill="#000000">category_id </text>
<text text-anchor="start" x="304.244" y="-338.9" font-family="Arial" font-size="14.00" fill="#666666">[integer]</text>
<polygon fill="none" stroke="#000000" points="221,-297.5 221,-327.5 497,-327.5 497,-297.5 221,-297.5"/>
<text text-anchor="start" x="228" y="-308.9" font-family="Arial" font-size="14.00" fill="#000000">create_uid </text>
<text text-anchor="start" x="297.244" y="-308.9" font-family="Arial" font-size="14.00" fill="#666666">[integer]</text>
<polygon fill="none" stroke="#000000" points="221,-267.5 221,-297.5 497,-297.5 497,-267.5 221,-267.5"/>
<text text-anchor="start" x="227.5246" y="-278.9" font-family="Arial" font-size="14.00" fill="#000000">create_date </text>
<text text-anchor="start" x="305.3352" y="-278.9" font-family="Arial" font-size="14.00" fill="#666666">[timestamp without time zone]</text>
<polygon fill="none" stroke="#000000" points="221,-237.5 221,-267.5 497,-267.5 497,-237.5 221,-237.5"/>
<text text-anchor="start" x="228" y="-248.9" font-family="Arial" font-size="14.00" fill="#000000">write_uid </text>
<text text-anchor="start" x="287.892" y="-248.9" font-family="Arial" font-size="14.00" fill="#666666">[integer]</text>
<polygon fill="none" stroke="#000000" points="221,-207.5 221,-237.5 497,-237.5 497,-207.5 221,-207.5"/>
<text text-anchor="start" x="228" y="-218.9" font-family="Arial" font-size="14.00" fill="#000000">write_date </text>
<text text-anchor="start" x="296.4586" y="-218.9" font-family="Arial" font-size="14.00" fill="#666666">[timestamp without time zone]</text>
</g>
<!-- public.blog_post_blog_tag_rel&#45;&gt;public.blog_tag -->
<g id="edge1" class="edge">
<title>public.blog_post_blog_tag_rel:blog_tag_id&#45;&gt;public.blog_tag:id</title>
<path fill="none" stroke="#000000" d="M369.8105,-907.0209C220.3563,-891.8709 672.1704,-522.5 497,-522.5"/>
<polygon fill="#000000" stroke="#000000" points="370.011,-907.0302 379.7886,-911.995 375.0055,-907.2651 380,-907.5 380,-907.5 380,-907.5 375.0055,-907.2651 380.2114,-903.005 370.011,-907.0302 370.011,-907.0302"/>
<text text-anchor="start" x="6.6485" y="-917.5" font-family="Arial" font-size="10.00" fill="#000000">FOREIGN KEY (blog_tag_id) REFERENCES blog_tag(id) ON DELETE CASCADE</text>
</g>
<!-- public.blog_post -->
<g id="node3" class="node">
<title>public.blog_post</title>
<polygon fill="#efefef" stroke="transparent" points="602,-702.5 602,-737.5 899,-737.5 899,-702.5 602,-702.5"/>
<polygon fill="none" stroke="#000000" points="602,-702.5 602,-737.5 899,-737.5 899,-702.5 602,-702.5"/>
<text text-anchor="start" x="636.8517" y="-715.3" font-family="Arial Bold" font-size="18.00" fill="#000000">public.blog_post</text>
<text text-anchor="start" x="766.8945" y="-715.3" font-family="Arial" font-size="14.00" fill="#000000"> </text>
<text text-anchor="start" x="770.7851" y="-715.3" font-family="Arial" font-size="14.00" fill="#666666">[BASE TABLE]</text>
<polygon fill="none" stroke="#000000" points="602,-672.5 602,-702.5 899,-702.5 899,-672.5 602,-672.5"/>
<text text-anchor="start" x="609" y="-683.9" font-family="Arial" font-size="14.00" fill="#000000">id </text>
<text text-anchor="start" x="623.7798" y="-683.9" font-family="Arial" font-size="14.00" fill="#666666">[integer]</text>
<polygon fill="none" stroke="#000000" points="602,-642.5 602,-672.5 899,-672.5 899,-642.5 602,-642.5"/>
<text text-anchor="start" x="609" y="-653.9" font-family="Arial" font-size="14.00" fill="#000000">is_published </text>
<text text-anchor="start" x="690.6886" y="-653.9" font-family="Arial" font-size="14.00" fill="#666666">[boolean]</text>
<polygon fill="none" stroke="#000000" points="602,-612.5 602,-642.5 899,-642.5 899,-612.5 602,-612.5"/>
<text text-anchor="start" x="609" y="-623.9" font-family="Arial" font-size="14.00" fill="#000000">website_meta_title </text>
<text text-anchor="start" x="728.8008" y="-623.9" font-family="Arial" font-size="14.00" fill="#666666">[varchar]</text>
<polygon fill="none" stroke="#000000" points="602,-582.5 602,-612.5 899,-612.5 899,-582.5 602,-582.5"/>
<text text-anchor="start" x="609" y="-593.9" font-family="Arial" font-size="14.00" fill="#000000">website_meta_description </text>
<text text-anchor="start" x="774.7012" y="-593.9" font-family="Arial" font-size="14.00" fill="#666666">[text]</text>
<polygon fill="none" stroke="#000000" points="602,-552.5 602,-582.5 899,-582.5 899,-552.5 602,-552.5"/>
<text text-anchor="start" x="609" y="-563.9" font-family="Arial" font-size="14.00" fill="#000000">website_meta_keywords </text>
<text text-anchor="start" x="766.1388" y="-563.9" font-family="Arial" font-size="14.00" fill="#666666">[varchar]</text>
<polygon fill="none" stroke="#000000" points="602,-522.5 602,-552.5 899,-552.5 899,-522.5 602,-522.5"/>
<text text-anchor="start" x="609" y="-533.9" font-family="Arial" font-size="14.00" fill="#000000">website_meta_og_img </text>
<text text-anchor="start" x="752.9214" y="-533.9" font-family="Arial" font-size="14.00" fill="#666666">[varchar]</text>
<polygon fill="none" stroke="#000000" points="602,-492.5 602,-522.5 899,-522.5 899,-492.5 602,-492.5"/>
<text text-anchor="start" x="609" y="-503.9" font-family="Arial" font-size="14.00" fill="#000000">message_main_attachment_id </text>
<text text-anchor="start" x="803.4964" y="-503.9" font-family="Arial" font-size="14.00" fill="#666666">[integer]</text>
<polygon fill="none" stroke="#000000" points="602,-462.5 602,-492.5 899,-492.5 899,-462.5 602,-462.5"/>
<text text-anchor="start" x="609" y="-473.9" font-family="Arial" font-size="14.00" fill="#000000">name </text>
<text text-anchor="start" x="647.899" y="-473.9" font-family="Arial" font-size="14.00" fill="#666666">[varchar]</text>
<polygon fill="none" stroke="#000000" points="602,-432.5 602,-462.5 899,-462.5 899,-432.5 602,-432.5"/>
<text text-anchor="start" x="609" y="-443.9" font-family="Arial" font-size="14.00" fill="#000000">subtitle </text>
<text text-anchor="start" x="657.2328" y="-443.9" font-family="Arial" font-size="14.00" fill="#666666">[varchar]</text>
<polygon fill="none" stroke="#000000" points="602,-402.5 602,-432.5 899,-432.5 899,-402.5 602,-402.5"/>
<text text-anchor="start" x="609" y="-413.9" font-family="Arial" font-size="14.00" fill="#000000">author_id </text>
<text text-anchor="start" x="671.244" y="-413.9" font-family="Arial" font-size="14.00" fill="#666666">[integer]</text>
<polygon fill="none" stroke="#000000" points="602,-372.5 602,-402.5 899,-402.5 899,-372.5 602,-372.5"/>
<text text-anchor="start" x="609" y="-383.9" font-family="Arial" font-size="14.00" fill="#000000">active </text>
<text text-anchor="start" x="649.453" y="-383.9" font-family="Arial" font-size="14.00" fill="#666666">[boolean]</text>
<polygon fill="none" stroke="#000000" points="602,-342.5 602,-372.5 899,-372.5 899,-342.5 602,-342.5"/>
<text text-anchor="start" x="609" y="-353.9" font-family="Arial" font-size="14.00" fill="#000000">cover_properties </text>
<text text-anchor="start" x="717.1304" y="-353.9" font-family="Arial" font-size="14.00" fill="#666666">[text]</text>
<polygon fill="none" stroke="#000000" points="602,-312.5 602,-342.5 899,-342.5 899,-312.5 602,-312.5"/>
<text text-anchor="start" x="609" y="-323.9" font-family="Arial" font-size="14.00" fill="#000000">blog_id </text>
<text text-anchor="start" x="658.0168" y="-323.9" font-family="Arial" font-size="14.00" fill="#666666">[integer]</text>
<polygon fill="none" stroke="#000000" points="602,-282.5 602,-312.5 899,-312.5 899,-282.5 602,-282.5"/>
<text text-anchor="start" x="609" y="-293.9" font-family="Arial" font-size="14.00" fill="#000000">content </text>
<text text-anchor="start" x="658.8022" y="-293.9" font-family="Arial" font-size="14.00" fill="#666666">[text]</text>
<polygon fill="none" stroke="#000000" points="602,-252.5 602,-282.5 899,-282.5 899,-252.5 602,-252.5"/>
<text text-anchor="start" x="609" y="-263.9" font-family="Arial" font-size="14.00" fill="#000000">teaser_manual </text>
<text text-anchor="start" x="705.4698" y="-263.9" font-family="Arial" font-size="14.00" fill="#666666">[text]</text>
<polygon fill="none" stroke="#000000" points="602,-222.5 602,-252.5 899,-252.5 899,-222.5 602,-222.5"/>
<text text-anchor="start" x="609" y="-233.9" font-family="Arial" font-size="14.00" fill="#000000">create_date </text>
<text text-anchor="start" x="686.8106" y="-233.9" font-family="Arial" font-size="14.00" fill="#666666">[timestamp without time zone]</text>
<polygon fill="none" stroke="#000000" points="602,-192.5 602,-222.5 899,-222.5 899,-192.5 602,-192.5"/>
<text text-anchor="start" x="608.5197" y="-203.9" font-family="Arial" font-size="14.00" fill="#000000">published_date </text>
<text text-anchor="start" x="707.3401" y="-203.9" font-family="Arial" font-size="14.00" fill="#666666">[timestamp without time zone]</text>
<polygon fill="none" stroke="#000000" points="602,-162.5 602,-192.5 899,-192.5 899,-162.5 602,-162.5"/>
<text text-anchor="start" x="609" y="-173.9" font-family="Arial" font-size="14.00" fill="#000000">post_date </text>
<text text-anchor="start" x="674.3674" y="-173.9" font-family="Arial" font-size="14.00" fill="#666666">[timestamp without time zone]</text>
<polygon fill="none" stroke="#000000" points="602,-132.5 602,-162.5 899,-162.5 899,-132.5 602,-132.5"/>
<text text-anchor="start" x="609" y="-143.9" font-family="Arial" font-size="14.00" fill="#000000">create_uid </text>
<text text-anchor="start" x="678.244" y="-143.9" font-family="Arial" font-size="14.00" fill="#666666">[integer]</text>
<polygon fill="none" stroke="#000000" points="602,-102.5 602,-132.5 899,-132.5 899,-102.5 602,-102.5"/>
<text text-anchor="start" x="609" y="-113.9" font-family="Arial" font-size="14.00" fill="#000000">write_date </text>
<text text-anchor="start" x="677.4586" y="-113.9" font-family="Arial" font-size="14.00" fill="#666666">[timestamp without time zone]</text>
<polygon fill="none" stroke="#000000" points="602,-72.5 602,-102.5 899,-102.5 899,-72.5 602,-72.5"/>
<text text-anchor="start" x="609" y="-83.9" font-family="Arial" font-size="14.00" fill="#000000">write_uid </text>
<text text-anchor="start" x="668.892" y="-83.9" font-family="Arial" font-size="14.00" fill="#666666">[integer]</text>
<polygon fill="none" stroke="#000000" points="602,-42.5 602,-72.5 899,-72.5 899,-42.5 602,-42.5"/>
<text text-anchor="start" x="609" y="-53.9" font-family="Arial" font-size="14.00" fill="#000000">visits </text>
<text text-anchor="start" x="643.9944" y="-53.9" font-family="Arial" font-size="14.00" fill="#666666">[integer]</text>
</g>
<!-- public.blog_post_blog_tag_rel&#45;&gt;public.blog_post -->
<g id="edge2" class="edge">
<title>public.blog_post_blog_tag_rel:blog_post_id&#45;&gt;public.blog_post:id</title>
<path fill="none" stroke="#000000" d="M739.9765,-874.855C753.4237,-865.7221 743.6997,-835.0843 730,-817 694.3152,-769.8944 637.6848,-828.1056 602,-781 576.9069,-747.876 560.4444,-687.5 602,-687.5"/>
<polygon fill="#000000" stroke="#000000" points="739.666,-874.9372 728.8467,-873.1503 734.833,-876.2186 730,-877.5 730,-877.5 730,-877.5 734.833,-876.2186 731.1533,-881.8497 739.666,-874.9372 739.666,-874.9372"/>
<text text-anchor="start" x="736.6485" y="-887.5" font-family="Arial" font-size="10.00" fill="#000000">FOREIGN KEY (blog_post_id) REFERENCES blog_post(id) ON DELETE CASCADE</text>
</g>
</g>
</svg>
