<?xml version="1.0" encoding="UTF-8" standalone="no"?>
<!DOCTYPE svg PUBLIC "-//W3C//DTD SVG 1.1//EN"
 "http://www.w3.org/Graphics/SVG/1.1/DTD/svg11.dtd">
<!-- Generated by graphviz version 2.40.1 (20161225.0304)
 -->
<!-- Title: public.account_reconcile_model_template_res_partner_category_rel Pages: 1 -->
<svg width="1777pt" height="1342pt"
 viewBox="0.00 0.00 1777.00 1342.00" xmlns="http://www.w3.org/2000/svg" xmlns:xlink="http://www.w3.org/1999/xlink">
<g id="graph0" class="graph" transform="scale(1 1) rotate(0) translate(4 1338)">
<title>public.account_reconcile_model_template_res_partner_category_rel</title>
<polygon fill="#ffffff" stroke="transparent" points="-4,4 -4,-1338 1773,-1338 1773,4 -4,4"/>
<!-- public.account_reconcile_model_template_res_partner_category_rel -->
<g id="node1" class="node">
<title>public.account_reconcile_model_template_res_partner_category_rel</title>
<polygon fill="#efefef" stroke="transparent" points="618,-1252.5 618,-1287.5 1275,-1287.5 1275,-1252.5 618,-1252.5"/>
<polygon fill="none" stroke="#000000" points="618,-1252.5 618,-1287.5 1275,-1287.5 1275,-1252.5 618,-1252.5"/>
<text text-anchor="start" x="624.8095" y="-1265.3" font-family="Arial Bold" font-size="18.00" fill="#000000">public.account_reconcile_model_template_res_partner_category_rel</text>
<text text-anchor="start" x="1170.9367" y="-1265.3" font-family="Arial" font-size="14.00" fill="#000000"> </text>
<text text-anchor="start" x="1174.8273" y="-1265.3" font-family="Arial" font-size="14.00" fill="#666666">[BASE TABLE]</text>
<polygon fill="none" stroke="#000000" points="618,-1222.5 618,-1252.5 1275,-1252.5 1275,-1222.5 618,-1222.5"/>
<text text-anchor="start" x="625" y="-1233.9" font-family="Arial" font-size="14.00" fill="#000000">account_reconcile_model_template_id </text>
<text text-anchor="start" x="867.7292" y="-1233.9" font-family="Arial" font-size="14.00" fill="#666666">[integer]</text>
<polygon fill="none" stroke="#000000" points="618,-1192.5 618,-1222.5 1275,-1222.5 1275,-1192.5 618,-1192.5"/>
<text text-anchor="start" x="625" y="-1203.9" font-family="Arial" font-size="14.00" fill="#000000">res_partner_category_id </text>
<text text-anchor="start" x="780.5946" y="-1203.9" font-family="Arial" font-size="14.00" fill="#666666">[integer]</text>
<polygon fill="none" stroke="#000000" stroke-width="3" points="616,-1191.5 616,-1289.5 1276,-1289.5 1276,-1191.5 616,-1191.5"/>
</g>
<!-- public.account_reconcile_model_template -->
<g id="node2" class="node">
<title>public.account_reconcile_model_template</title>
<polygon fill="#efefef" stroke="transparent" points="477,-1032.5 477,-1067.5 923,-1067.5 923,-1032.5 477,-1032.5"/>
<polygon fill="none" stroke="#000000" points="477,-1032.5 477,-1067.5 923,-1067.5 923,-1032.5 477,-1032.5"/>
<text text-anchor="start" x="483.8327" y="-1045.3" font-family="Arial Bold" font-size="18.00" fill="#000000">public.account_reconcile_model_template</text>
<text text-anchor="start" x="818.9135" y="-1045.3" font-family="Arial" font-size="14.00" fill="#000000"> </text>
<text text-anchor="start" x="822.8041" y="-1045.3" font-family="Arial" font-size="14.00" fill="#666666">[BASE TABLE]</text>
<polygon fill="none" stroke="#000000" points="477,-1002.5 477,-1032.5 923,-1032.5 923,-1002.5 477,-1002.5"/>
<text text-anchor="start" x="484" y="-1013.9" font-family="Arial" font-size="14.00" fill="#000000">id </text>
<text text-anchor="start" x="498.7798" y="-1013.9" font-family="Arial" font-size="14.00" fill="#666666">[integer]</text>
<polygon fill="none" stroke="#000000" points="477,-972.5 477,-1002.5 923,-1002.5 923,-972.5 477,-972.5"/>
<text text-anchor="start" x="484" y="-983.9" font-family="Arial" font-size="14.00" fill="#000000">chart_template_id </text>
<text text-anchor="start" x="599.1402" y="-983.9" font-family="Arial" font-size="14.00" fill="#666666">[integer]</text>
<polygon fill="none" stroke="#000000" points="477,-942.5 477,-972.5 923,-972.5 923,-942.5 477,-942.5"/>
<text text-anchor="start" x="484" y="-953.9" font-family="Arial" font-size="14.00" fill="#000000">name </text>
<text text-anchor="start" x="522.899" y="-953.9" font-family="Arial" font-size="14.00" fill="#666666">[varchar]</text>
<polygon fill="none" stroke="#000000" points="477,-912.5 477,-942.5 923,-942.5 923,-912.5 477,-912.5"/>
<text text-anchor="start" x="484" y="-923.9" font-family="Arial" font-size="14.00" fill="#000000">sequence </text>
<text text-anchor="start" x="548.5862" y="-923.9" font-family="Arial" font-size="14.00" fill="#666666">[integer]</text>
<polygon fill="none" stroke="#000000" points="477,-882.5 477,-912.5 923,-912.5 923,-882.5 477,-882.5"/>
<text text-anchor="start" x="484" y="-893.9" font-family="Arial" font-size="14.00" fill="#000000">rule_type </text>
<text text-anchor="start" x="545.4614" y="-893.9" font-family="Arial" font-size="14.00" fill="#666666">[varchar]</text>
<polygon fill="none" stroke="#000000" points="477,-852.5 477,-882.5 923,-882.5 923,-852.5 477,-852.5"/>
<text text-anchor="start" x="484" y="-863.9" font-family="Arial" font-size="14.00" fill="#000000">auto_reconcile </text>
<text text-anchor="start" x="578.9158" y="-863.9" font-family="Arial" font-size="14.00" fill="#666666">[boolean]</text>
<polygon fill="none" stroke="#000000" points="477,-822.5 477,-852.5 923,-852.5 923,-822.5 477,-822.5"/>
<text text-anchor="start" x="484" y="-833.9" font-family="Arial" font-size="14.00" fill="#000000">match_nature </text>
<text text-anchor="start" x="573.4712" y="-833.9" font-family="Arial" font-size="14.00" fill="#666666">[varchar]</text>
<polygon fill="none" stroke="#000000" points="477,-792.5 477,-822.5 923,-822.5 923,-792.5 477,-792.5"/>
<text text-anchor="start" x="484" y="-803.9" font-family="Arial" font-size="14.00" fill="#000000">match_amount </text>
<text text-anchor="start" x="580.4712" y="-803.9" font-family="Arial" font-size="14.00" fill="#666666">[varchar]</text>
<polygon fill="none" stroke="#000000" points="477,-762.5 477,-792.5 923,-792.5 923,-762.5 477,-762.5"/>
<text text-anchor="start" x="484" y="-773.9" font-family="Arial" font-size="14.00" fill="#000000">match_amount_min </text>
<text text-anchor="start" x="610.8036" y="-773.9" font-family="Arial" font-size="14.00" fill="#666666">[double precision]</text>
<polygon fill="none" stroke="#000000" points="477,-732.5 477,-762.5 923,-762.5 923,-732.5 477,-732.5"/>
<text text-anchor="start" x="484" y="-743.9" font-family="Arial" font-size="14.00" fill="#000000">match_amount_max </text>
<text text-anchor="start" x="614.697" y="-743.9" font-family="Arial" font-size="14.00" fill="#666666">[double precision]</text>
<polygon fill="none" stroke="#000000" points="477,-702.5 477,-732.5 923,-732.5 923,-702.5 477,-702.5"/>
<text text-anchor="start" x="484" y="-713.9" font-family="Arial" font-size="14.00" fill="#000000">match_label </text>
<text text-anchor="start" x="563.3506" y="-713.9" font-family="Arial" font-size="14.00" fill="#666666">[varchar]</text>
<polygon fill="none" stroke="#000000" points="477,-672.5 477,-702.5 923,-702.5 923,-672.5 477,-672.5"/>
<text text-anchor="start" x="484" y="-683.9" font-family="Arial" font-size="14.00" fill="#000000">match_label_param </text>
<text text-anchor="start" x="610.8022" y="-683.9" font-family="Arial" font-size="14.00" fill="#666666">[varchar]</text>
<polygon fill="none" stroke="#000000" points="477,-642.5 477,-672.5 923,-672.5 923,-642.5 477,-642.5"/>
<text text-anchor="start" x="484" y="-653.9" font-family="Arial" font-size="14.00" fill="#000000">match_same_currency </text>
<text text-anchor="start" x="629.467" y="-653.9" font-family="Arial" font-size="14.00" fill="#666666">[boolean]</text>
<polygon fill="none" stroke="#000000" points="477,-612.5 477,-642.5 923,-642.5 923,-612.5 477,-612.5"/>
<text text-anchor="start" x="484" y="-623.9" font-family="Arial" font-size="14.00" fill="#000000">match_total_amount </text>
<text text-anchor="start" x="614.7068" y="-623.9" font-family="Arial" font-size="14.00" fill="#666666">[boolean]</text>
<polygon fill="none" stroke="#000000" points="477,-582.5 477,-612.5 923,-612.5 923,-582.5 477,-582.5"/>
<text text-anchor="start" x="484" y="-593.9" font-family="Arial" font-size="14.00" fill="#000000">match_total_amount_param </text>
<text text-anchor="start" x="662.1584" y="-593.9" font-family="Arial" font-size="14.00" fill="#666666">[double precision]</text>
<polygon fill="none" stroke="#000000" points="477,-552.5 477,-582.5 923,-582.5 923,-552.5 477,-552.5"/>
<text text-anchor="start" x="484" y="-563.9" font-family="Arial" font-size="14.00" fill="#000000">match_partner </text>
<text text-anchor="start" x="578.1318" y="-563.9" font-family="Arial" font-size="14.00" fill="#666666">[boolean]</text>
<polygon fill="none" stroke="#000000" points="477,-522.5 477,-552.5 923,-552.5 923,-522.5 477,-522.5"/>
<text text-anchor="start" x="484" y="-533.9" font-family="Arial" font-size="14.00" fill="#000000">account_id </text>
<text text-anchor="start" x="555.5834" y="-533.9" font-family="Arial" font-size="14.00" fill="#666666">[integer]</text>
<polygon fill="none" stroke="#000000" points="477,-492.5 477,-522.5 923,-522.5 923,-492.5 477,-492.5"/>
<text text-anchor="start" x="484" y="-503.9" font-family="Arial" font-size="14.00" fill="#000000">label </text>
<text text-anchor="start" x="517.4516" y="-503.9" font-family="Arial" font-size="14.00" fill="#666666">[varchar]</text>
<polygon fill="none" stroke="#000000" points="477,-462.5 477,-492.5 923,-492.5 923,-462.5 477,-462.5"/>
<text text-anchor="start" x="484" y="-473.9" font-family="Arial" font-size="14.00" fill="#000000">amount_type </text>
<text text-anchor="start" x="568.8106" y="-473.9" font-family="Arial" font-size="14.00" fill="#666666">[varchar]</text>
<polygon fill="none" stroke="#000000" points="477,-432.5 477,-462.5 923,-462.5 923,-432.5 477,-432.5"/>
<text text-anchor="start" x="484" y="-443.9" font-family="Arial" font-size="14.00" fill="#000000">amount </text>
<text text-anchor="start" x="534.5722" y="-443.9" font-family="Arial" font-size="14.00" fill="#666666">[numeric]</text>
<polygon fill="none" stroke="#000000" points="477,-402.5 477,-432.5 923,-432.5 923,-402.5 477,-402.5"/>
<text text-anchor="start" x="484" y="-413.9" font-family="Arial" font-size="14.00" fill="#000000">force_tax_included </text>
<text text-anchor="start" x="605.3716" y="-413.9" font-family="Arial" font-size="14.00" fill="#666666">[boolean]</text>
<polygon fill="none" stroke="#000000" points="477,-372.5 477,-402.5 923,-402.5 923,-372.5 477,-372.5"/>
<text text-anchor="start" x="484" y="-383.9" font-family="Arial" font-size="14.00" fill="#000000">tax_id </text>
<text text-anchor="start" x="525.2356" y="-383.9" font-family="Arial" font-size="14.00" fill="#666666">[integer]</text>
<polygon fill="none" stroke="#000000" points="477,-342.5 477,-372.5 923,-372.5 923,-342.5 477,-342.5"/>
<text text-anchor="start" x="484" y="-353.9" font-family="Arial" font-size="14.00" fill="#000000">has_second_line </text>
<text text-anchor="start" x="592.9298" y="-353.9" font-family="Arial" font-size="14.00" fill="#666666">[boolean]</text>
<polygon fill="none" stroke="#000000" points="477,-312.5 477,-342.5 923,-342.5 923,-312.5 477,-312.5"/>
<text text-anchor="start" x="484" y="-323.9" font-family="Arial" font-size="14.00" fill="#000000">second_account_id </text>
<text text-anchor="start" x="608.4964" y="-323.9" font-family="Arial" font-size="14.00" fill="#666666">[integer]</text>
<polygon fill="none" stroke="#000000" points="477,-282.5 477,-312.5 923,-312.5 923,-282.5 477,-282.5"/>
<text text-anchor="start" x="484" y="-293.9" font-family="Arial" font-size="14.00" fill="#000000">second_label </text>
<text text-anchor="start" x="570.3646" y="-293.9" font-family="Arial" font-size="14.00" fill="#666666">[varchar]</text>
<polygon fill="none" stroke="#000000" points="477,-252.5 477,-282.5 923,-282.5 923,-252.5 477,-252.5"/>
<text text-anchor="start" x="484" y="-263.9" font-family="Arial" font-size="14.00" fill="#000000">second_amount_type </text>
<text text-anchor="start" x="621.7236" y="-263.9" font-family="Arial" font-size="14.00" fill="#666666">[varchar]</text>
<polygon fill="none" stroke="#000000" points="477,-222.5 477,-252.5 923,-252.5 923,-222.5 477,-222.5"/>
<text text-anchor="start" x="484" y="-233.9" font-family="Arial" font-size="14.00" fill="#000000">second_amount </text>
<text text-anchor="start" x="587.4852" y="-233.9" font-family="Arial" font-size="14.00" fill="#666666">[numeric]</text>
<polygon fill="none" stroke="#000000" points="477,-192.5 477,-222.5 923,-222.5 923,-192.5 477,-192.5"/>
<text text-anchor="start" x="484" y="-203.9" font-family="Arial" font-size="14.00" fill="#000000">force_second_tax_included </text>
<text text-anchor="start" x="658.2846" y="-203.9" font-family="Arial" font-size="14.00" fill="#666666">[boolean]</text>
<polygon fill="none" stroke="#000000" points="477,-162.5 477,-192.5 923,-192.5 923,-162.5 477,-162.5"/>
<text text-anchor="start" x="484" y="-173.9" font-family="Arial" font-size="14.00" fill="#000000">second_tax_id </text>
<text text-anchor="start" x="578.1486" y="-173.9" font-family="Arial" font-size="14.00" fill="#666666">[integer]</text>
<polygon fill="none" stroke="#000000" points="477,-132.5 477,-162.5 923,-162.5 923,-132.5 477,-132.5"/>
<text text-anchor="start" x="484" y="-143.9" font-family="Arial" font-size="14.00" fill="#000000">create_uid </text>
<text text-anchor="start" x="553.244" y="-143.9" font-family="Arial" font-size="14.00" fill="#666666">[integer]</text>
<polygon fill="none" stroke="#000000" points="477,-102.5 477,-132.5 923,-132.5 923,-102.5 477,-102.5"/>
<text text-anchor="start" x="484" y="-113.9" font-family="Arial" font-size="14.00" fill="#000000">create_date </text>
<text text-anchor="start" x="561.8106" y="-113.9" font-family="Arial" font-size="14.00" fill="#666666">[timestamp without time zone]</text>
<polygon fill="none" stroke="#000000" points="477,-72.5 477,-102.5 923,-102.5 923,-72.5 477,-72.5"/>
<text text-anchor="start" x="484" y="-83.9" font-family="Arial" font-size="14.00" fill="#000000">write_uid </text>
<text text-anchor="start" x="543.892" y="-83.9" font-family="Arial" font-size="14.00" fill="#666666">[integer]</text>
<polygon fill="none" stroke="#000000" points="477,-42.5 477,-72.5 923,-72.5 923,-42.5 477,-42.5"/>
<text text-anchor="start" x="484" y="-53.9" font-family="Arial" font-size="14.00" fill="#000000">write_date </text>
<text text-anchor="start" x="552.4586" y="-53.9" font-family="Arial" font-size="14.00" fill="#666666">[timestamp without time zone]</text>
</g>
<!-- public.account_reconcile_model_template_res_partner_category_rel&#45;&gt;public.account_reconcile_model_template -->
<g id="edge1" class="edge">
<title>public.account_reconcile_model_template_res_partner_category_rel:account_reconcile_model_template_id&#45;&gt;public.account_reconcile_model_template:id</title>
<path fill="none" stroke="#000000" d="M608.0706,-1235.9813C580.4252,-1226.4349 593.7827,-1174.2438 618,-1147 708.6845,-1044.9822 832.3155,-1213.0178 923,-1111 950.6084,-1079.9413 964.5556,-1017.5 923,-1017.5"/>
<polygon fill="#000000" stroke="#000000" points="608.115,-1235.9879 617.3196,-1241.9483 613.0575,-1236.744 618,-1237.5 618,-1237.5 618,-1237.5 613.0575,-1236.744 618.6804,-1233.0517 608.115,-1235.9879 608.115,-1235.9879"/>
<text text-anchor="start" x="6.7385" y="-1247.5" font-family="Arial" font-size="10.00" fill="#000000">FOREIGN KEY (account_reconcile_model_template_id) REFERENCES account_reconcile_model_template(id) ON DELETE CASCADE</text>
</g>
<!-- public.res_partner_category -->
<g id="node3" class="node">
<title>public.res_partner_category</title>
<polygon fill="#efefef" stroke="transparent" points="1027,-687.5 1027,-722.5 1361,-722.5 1361,-687.5 1027,-687.5"/>
<polygon fill="none" stroke="#000000" points="1027,-687.5 1027,-722.5 1361,-722.5 1361,-687.5 1027,-687.5"/>
<text text-anchor="start" x="1033.8478" y="-700.3" font-family="Arial Bold" font-size="18.00" fill="#000000">public.res_partner_category</text>
<text text-anchor="start" x="1256.8984" y="-700.3" font-family="Arial" font-size="14.00" fill="#000000"> </text>
<text text-anchor="start" x="1260.789" y="-700.3" font-family="Arial" font-size="14.00" fill="#666666">[BASE TABLE]</text>
<polygon fill="none" stroke="#000000" points="1027,-657.5 1027,-687.5 1361,-687.5 1361,-657.5 1027,-657.5"/>
<text text-anchor="start" x="1034" y="-668.9" font-family="Arial" font-size="14.00" fill="#000000">id </text>
<text text-anchor="start" x="1048.7798" y="-668.9" font-family="Arial" font-size="14.00" fill="#666666">[integer]</text>
<polygon fill="none" stroke="#000000" points="1027,-627.5 1027,-657.5 1361,-657.5 1361,-627.5 1027,-627.5"/>
<text text-anchor="start" x="1034" y="-638.9" font-family="Arial" font-size="14.00" fill="#000000">parent_path </text>
<text text-anchor="start" x="1112.5932" y="-638.9" font-family="Arial" font-size="14.00" fill="#666666">[varchar]</text>
<polygon fill="none" stroke="#000000" points="1027,-597.5 1027,-627.5 1361,-627.5 1361,-597.5 1027,-597.5"/>
<text text-anchor="start" x="1034" y="-608.9" font-family="Arial" font-size="14.00" fill="#000000">name </text>
<text text-anchor="start" x="1072.899" y="-608.9" font-family="Arial" font-size="14.00" fill="#666666">[varchar]</text>
<polygon fill="none" stroke="#000000" points="1027,-567.5 1027,-597.5 1361,-597.5 1361,-567.5 1027,-567.5"/>
<text text-anchor="start" x="1034" y="-578.9" font-family="Arial" font-size="14.00" fill="#000000">color </text>
<text text-anchor="start" x="1068.223" y="-578.9" font-family="Arial" font-size="14.00" fill="#666666">[integer]</text>
<polygon fill="none" stroke="#000000" points="1027,-537.5 1027,-567.5 1361,-567.5 1361,-537.5 1027,-537.5"/>
<text text-anchor="start" x="1034" y="-548.9" font-family="Arial" font-size="14.00" fill="#000000">parent_id </text>
<text text-anchor="start" x="1096.244" y="-548.9" font-family="Arial" font-size="14.00" fill="#666666">[integer]</text>
<polygon fill="none" stroke="#000000" points="1027,-507.5 1027,-537.5 1361,-537.5 1361,-507.5 1027,-507.5"/>
<text text-anchor="start" x="1034" y="-518.9" font-family="Arial" font-size="14.00" fill="#000000">active </text>
<text text-anchor="start" x="1074.453" y="-518.9" font-family="Arial" font-size="14.00" fill="#666666">[boolean]</text>
<polygon fill="none" stroke="#000000" points="1027,-477.5 1027,-507.5 1361,-507.5 1361,-477.5 1027,-477.5"/>
<text text-anchor="start" x="1034" y="-488.9" font-family="Arial" font-size="14.00" fill="#000000">create_uid </text>
<text text-anchor="start" x="1103.244" y="-488.9" font-family="Arial" font-size="14.00" fill="#666666">[integer]</text>
<polygon fill="none" stroke="#000000" points="1027,-447.5 1027,-477.5 1361,-477.5 1361,-447.5 1027,-447.5"/>
<text text-anchor="start" x="1034" y="-458.9" font-family="Arial" font-size="14.00" fill="#000000">create_date </text>
<text text-anchor="start" x="1111.8106" y="-458.9" font-family="Arial" font-size="14.00" fill="#666666">[timestamp without time zone]</text>
<polygon fill="none" stroke="#000000" points="1027,-417.5 1027,-447.5 1361,-447.5 1361,-417.5 1027,-417.5"/>
<text text-anchor="start" x="1034" y="-428.9" font-family="Arial" font-size="14.00" fill="#000000">write_uid </text>
<text text-anchor="start" x="1093.892" y="-428.9" font-family="Arial" font-size="14.00" fill="#666666">[integer]</text>
<polygon fill="none" stroke="#000000" points="1027,-387.5 1027,-417.5 1361,-417.5 1361,-387.5 1027,-387.5"/>
<text text-anchor="start" x="1034" y="-398.9" font-family="Arial" font-size="14.00" fill="#000000">write_date </text>
<text text-anchor="start" x="1102.4586" y="-398.9" font-family="Arial" font-size="14.00" fill="#666666">[timestamp without time zone]</text>
</g>
<!-- public.account_reconcile_model_template_res_partner_category_rel&#45;&gt;public.res_partner_category -->
<g id="edge2" class="edge">
<title>public.account_reconcile_model_template_res_partner_category_rel:res_partner_category_id&#45;&gt;public.res_partner_category:id</title>
<path fill="none" stroke="#000000" d="M1284.7645,-1204.889C1295.8882,-1196.3475 1281.3954,-1168.5484 1275,-1147 1217.5129,-953.3045 1084.4871,-959.6955 1027,-766 1015.1764,-726.162 985.4444,-672.5 1027,-672.5"/>
<polygon fill="#000000" stroke="#000000" points="1284.6606,-1204.9167 1273.8375,-1203.1527 1279.8303,-1206.2084 1275,-1207.5 1275,-1207.5 1275,-1207.5 1279.8303,-1206.2084 1276.1625,-1211.8473 1284.6606,-1204.9167 1284.6606,-1204.9167"/>
<text text-anchor="start" x="1281.9775" y="-1217.5" font-family="Arial" font-size="10.00" fill="#000000">FOREIGN KEY (res_partner_category_id) REFERENCES res_partner_category(id) ON DELETE CASCADE</text>
</g>
</g>
</svg>
