<?xml version="1.0" encoding="UTF-8" standalone="no"?>
<!DOCTYPE svg PUBLIC "-//W3C//DTD SVG 1.1//EN"
 "http://www.w3.org/Graphics/SVG/1.1/DTD/svg11.dtd">
<!-- Generated by graphviz version 2.40.1 (20161225.0304)
 -->
<!-- Title: public.account_tax_group Pages: 1 -->
<svg width="1046pt" height="1979pt"
 viewBox="0.00 0.00 1046.00 1979.00" xmlns="http://www.w3.org/2000/svg" xmlns:xlink="http://www.w3.org/1999/xlink">
<g id="graph0" class="graph" transform="scale(1 1) rotate(0) translate(4 1975)">
<title>public.account_tax_group</title>
<polygon fill="#ffffff" stroke="transparent" points="-4,4 -4,-1975 1042,-1975 1042,4 -4,4"/>
<!-- public.account_tax_group -->
<g id="node1" class="node">
<title>public.account_tax_group</title>
<polygon fill="#efefef" stroke="transparent" points="342,-1072.5 342,-1107.5 658,-1107.5 658,-1072.5 342,-1072.5"/>
<polygon fill="none" stroke="#000000" points="342,-1072.5 342,-1107.5 658,-1107.5 658,-1072.5 342,-1072.5"/>
<text text-anchor="start" x="348.8361" y="-1085.3" font-family="Arial Bold" font-size="18.00" fill="#000000">public.account_tax_group</text>
<text text-anchor="start" x="553.9101" y="-1085.3" font-family="Arial" font-size="14.00" fill="#000000"> </text>
<text text-anchor="start" x="557.8007" y="-1085.3" font-family="Arial" font-size="14.00" fill="#666666">[BASE TABLE]</text>
<polygon fill="none" stroke="#000000" points="342,-1042.5 342,-1072.5 658,-1072.5 658,-1042.5 342,-1042.5"/>
<text text-anchor="start" x="349" y="-1053.9" font-family="Arial" font-size="14.00" fill="#000000">id </text>
<text text-anchor="start" x="363.7798" y="-1053.9" font-family="Arial" font-size="14.00" fill="#666666">[integer]</text>
<polygon fill="none" stroke="#000000" points="342,-1012.5 342,-1042.5 658,-1042.5 658,-1012.5 342,-1012.5"/>
<text text-anchor="start" x="349" y="-1023.9" font-family="Arial" font-size="14.00" fill="#000000">name </text>
<text text-anchor="start" x="387.899" y="-1023.9" font-family="Arial" font-size="14.00" fill="#666666">[varchar]</text>
<polygon fill="none" stroke="#000000" points="342,-982.5 342,-1012.5 658,-1012.5 658,-982.5 342,-982.5"/>
<text text-anchor="start" x="349" y="-993.9" font-family="Arial" font-size="14.00" fill="#000000">sequence </text>
<text text-anchor="start" x="413.5862" y="-993.9" font-family="Arial" font-size="14.00" fill="#666666">[integer]</text>
<polygon fill="none" stroke="#000000" points="342,-952.5 342,-982.5 658,-982.5 658,-952.5 342,-952.5"/>
<text text-anchor="start" x="349" y="-963.9" font-family="Arial" font-size="14.00" fill="#000000">create_uid </text>
<text text-anchor="start" x="418.244" y="-963.9" font-family="Arial" font-size="14.00" fill="#666666">[integer]</text>
<polygon fill="none" stroke="#000000" points="342,-922.5 342,-952.5 658,-952.5 658,-922.5 342,-922.5"/>
<text text-anchor="start" x="349" y="-933.9" font-family="Arial" font-size="14.00" fill="#000000">create_date </text>
<text text-anchor="start" x="426.8106" y="-933.9" font-family="Arial" font-size="14.00" fill="#666666">[timestamp without time zone]</text>
<polygon fill="none" stroke="#000000" points="342,-892.5 342,-922.5 658,-922.5 658,-892.5 342,-892.5"/>
<text text-anchor="start" x="349" y="-903.9" font-family="Arial" font-size="14.00" fill="#000000">write_uid </text>
<text text-anchor="start" x="408.892" y="-903.9" font-family="Arial" font-size="14.00" fill="#666666">[integer]</text>
<polygon fill="none" stroke="#000000" points="342,-862.5 342,-892.5 658,-892.5 658,-862.5 342,-862.5"/>
<text text-anchor="start" x="349" y="-873.9" font-family="Arial" font-size="14.00" fill="#000000">write_date </text>
<text text-anchor="start" x="417.4586" y="-873.9" font-family="Arial" font-size="14.00" fill="#666666">[timestamp without time zone]</text>
<polygon fill="none" stroke="#000000" stroke-width="3" points="340.5,-861.5 340.5,-1109.5 659.5,-1109.5 659.5,-861.5 340.5,-861.5"/>
</g>
<!-- public.res_users -->
<g id="node4" class="node">
<title>public.res_users</title>
<polygon fill="#efefef" stroke="transparent" points="362,-702.5 362,-737.5 638,-737.5 638,-702.5 362,-702.5"/>
<polygon fill="none" stroke="#000000" points="362,-702.5 362,-737.5 638,-737.5 638,-702.5 362,-702.5"/>
<text text-anchor="start" x="385.8639" y="-715.3" font-family="Arial Bold" font-size="18.00" fill="#000000">public.res_users</text>
<text text-anchor="start" x="516.8823" y="-715.3" font-family="Arial" font-size="14.00" fill="#000000"> </text>
<text text-anchor="start" x="520.7729" y="-715.3" font-family="Arial" font-size="14.00" fill="#666666">[BASE TABLE]</text>
<polygon fill="none" stroke="#000000" points="362,-672.5 362,-702.5 638,-702.5 638,-672.5 362,-672.5"/>
<text text-anchor="start" x="369" y="-683.9" font-family="Arial" font-size="14.00" fill="#000000">id </text>
<text text-anchor="start" x="383.7798" y="-683.9" font-family="Arial" font-size="14.00" fill="#666666">[integer]</text>
<polygon fill="none" stroke="#000000" points="362,-642.5 362,-672.5 638,-672.5 638,-642.5 362,-642.5"/>
<text text-anchor="start" x="369" y="-653.9" font-family="Arial" font-size="14.00" fill="#000000">active </text>
<text text-anchor="start" x="409.453" y="-653.9" font-family="Arial" font-size="14.00" fill="#666666">[boolean]</text>
<polygon fill="none" stroke="#000000" points="362,-612.5 362,-642.5 638,-642.5 638,-612.5 362,-612.5"/>
<text text-anchor="start" x="369" y="-623.9" font-family="Arial" font-size="14.00" fill="#000000">login </text>
<text text-anchor="start" x="402.4516" y="-623.9" font-family="Arial" font-size="14.00" fill="#666666">[varchar]</text>
<polygon fill="none" stroke="#000000" points="362,-582.5 362,-612.5 638,-612.5 638,-582.5 362,-582.5"/>
<text text-anchor="start" x="369" y="-593.9" font-family="Arial" font-size="14.00" fill="#000000">password </text>
<text text-anchor="start" x="432.7882" y="-593.9" font-family="Arial" font-size="14.00" fill="#666666">[varchar]</text>
<polygon fill="none" stroke="#000000" points="362,-552.5 362,-582.5 638,-582.5 638,-552.5 362,-552.5"/>
<text text-anchor="start" x="369" y="-563.9" font-family="Arial" font-size="14.00" fill="#000000">company_id </text>
<text text-anchor="start" x="448.3534" y="-563.9" font-family="Arial" font-size="14.00" fill="#666666">[integer]</text>
<polygon fill="none" stroke="#000000" points="362,-522.5 362,-552.5 638,-552.5 638,-522.5 362,-522.5"/>
<text text-anchor="start" x="369" y="-533.9" font-family="Arial" font-size="14.00" fill="#000000">partner_id </text>
<text text-anchor="start" x="435.9046" y="-533.9" font-family="Arial" font-size="14.00" fill="#666666">[integer]</text>
<polygon fill="none" stroke="#000000" points="362,-492.5 362,-522.5 638,-522.5 638,-492.5 362,-492.5"/>
<text text-anchor="start" x="368.5246" y="-503.9" font-family="Arial" font-size="14.00" fill="#000000">create_date </text>
<text text-anchor="start" x="446.3352" y="-503.9" font-family="Arial" font-size="14.00" fill="#666666">[timestamp without time zone]</text>
<polygon fill="none" stroke="#000000" points="362,-462.5 362,-492.5 638,-492.5 638,-462.5 362,-462.5"/>
<text text-anchor="start" x="369" y="-473.9" font-family="Arial" font-size="14.00" fill="#000000">signature </text>
<text text-anchor="start" x="430.4614" y="-473.9" font-family="Arial" font-size="14.00" fill="#666666">[text]</text>
<polygon fill="none" stroke="#000000" points="362,-432.5 362,-462.5 638,-462.5 638,-432.5 362,-432.5"/>
<text text-anchor="start" x="369" y="-443.9" font-family="Arial" font-size="14.00" fill="#000000">action_id </text>
<text text-anchor="start" x="428.9074" y="-443.9" font-family="Arial" font-size="14.00" fill="#666666">[integer]</text>
<polygon fill="none" stroke="#000000" points="362,-402.5 362,-432.5 638,-432.5 638,-402.5 362,-402.5"/>
<text text-anchor="start" x="369" y="-413.9" font-family="Arial" font-size="14.00" fill="#000000">share </text>
<text text-anchor="start" x="407.899" y="-413.9" font-family="Arial" font-size="14.00" fill="#666666">[boolean]</text>
<polygon fill="none" stroke="#000000" points="362,-372.5 362,-402.5 638,-402.5 638,-372.5 362,-372.5"/>
<text text-anchor="start" x="369" y="-383.9" font-family="Arial" font-size="14.00" fill="#000000">create_uid </text>
<text text-anchor="start" x="438.244" y="-383.9" font-family="Arial" font-size="14.00" fill="#666666">[integer]</text>
<polygon fill="none" stroke="#000000" points="362,-342.5 362,-372.5 638,-372.5 638,-342.5 362,-342.5"/>
<text text-anchor="start" x="369" y="-353.9" font-family="Arial" font-size="14.00" fill="#000000">write_uid </text>
<text text-anchor="start" x="428.892" y="-353.9" font-family="Arial" font-size="14.00" fill="#666666">[integer]</text>
<polygon fill="none" stroke="#000000" points="362,-312.5 362,-342.5 638,-342.5 638,-312.5 362,-312.5"/>
<text text-anchor="start" x="369" y="-323.9" font-family="Arial" font-size="14.00" fill="#000000">write_date </text>
<text text-anchor="start" x="437.4586" y="-323.9" font-family="Arial" font-size="14.00" fill="#666666">[timestamp without time zone]</text>
<polygon fill="none" stroke="#000000" points="362,-282.5 362,-312.5 638,-312.5 638,-282.5 362,-282.5"/>
<text text-anchor="start" x="369" y="-293.9" font-family="Arial" font-size="14.00" fill="#000000">alias_id </text>
<text text-anchor="start" x="420.3408" y="-293.9" font-family="Arial" font-size="14.00" fill="#666666">[integer]</text>
<polygon fill="none" stroke="#000000" points="362,-252.5 362,-282.5 638,-282.5 638,-252.5 362,-252.5"/>
<text text-anchor="start" x="369" y="-263.9" font-family="Arial" font-size="14.00" fill="#000000">notification_type </text>
<text text-anchor="start" x="474.0336" y="-263.9" font-family="Arial" font-size="14.00" fill="#666666">[varchar]</text>
<polygon fill="none" stroke="#000000" points="362,-222.5 362,-252.5 638,-252.5 638,-222.5 362,-222.5"/>
<text text-anchor="start" x="369" y="-233.9" font-family="Arial" font-size="14.00" fill="#000000">odoobot_state </text>
<text text-anchor="start" x="461.6058" y="-233.9" font-family="Arial" font-size="14.00" fill="#666666">[varchar]</text>
<polygon fill="none" stroke="#000000" points="362,-192.5 362,-222.5 638,-222.5 638,-192.5 362,-192.5"/>
<text text-anchor="start" x="369" y="-203.9" font-family="Arial" font-size="14.00" fill="#000000">sale_team_id </text>
<text text-anchor="start" x="456.1332" y="-203.9" font-family="Arial" font-size="14.00" fill="#666666">[integer]</text>
<polygon fill="none" stroke="#000000" points="362,-162.5 362,-192.5 638,-192.5 638,-162.5 362,-162.5"/>
<text text-anchor="start" x="369" y="-173.9" font-family="Arial" font-size="14.00" fill="#000000">target_sales_won </text>
<text text-anchor="start" x="482.589" y="-173.9" font-family="Arial" font-size="14.00" fill="#666666">[integer]</text>
<polygon fill="none" stroke="#000000" points="362,-132.5 362,-162.5 638,-162.5 638,-132.5 362,-132.5"/>
<text text-anchor="start" x="369" y="-143.9" font-family="Arial" font-size="14.00" fill="#000000">target_sales_done </text>
<text text-anchor="start" x="488.0476" y="-143.9" font-family="Arial" font-size="14.00" fill="#666666">[integer]</text>
<polygon fill="none" stroke="#000000" points="362,-102.5 362,-132.5 638,-132.5 638,-102.5 362,-102.5"/>
<text text-anchor="start" x="369" y="-113.9" font-family="Arial" font-size="14.00" fill="#000000">website_id </text>
<text text-anchor="start" x="439.014" y="-113.9" font-family="Arial" font-size="14.00" fill="#666666">[integer]</text>
<polygon fill="none" stroke="#000000" points="362,-72.5 362,-102.5 638,-102.5 638,-72.5 362,-72.5"/>
<text text-anchor="start" x="369" y="-83.9" font-family="Arial" font-size="14.00" fill="#000000">target_sales_invoiced </text>
<text text-anchor="start" x="508.2608" y="-83.9" font-family="Arial" font-size="14.00" fill="#666666">[integer]</text>
<polygon fill="none" stroke="#000000" points="362,-42.5 362,-72.5 638,-72.5 638,-42.5 362,-42.5"/>
<text text-anchor="start" x="369" y="-53.9" font-family="Arial" font-size="14.00" fill="#000000">pos_security_pin </text>
<text text-anchor="start" x="477.9158" y="-53.9" font-family="Arial" font-size="14.00" fill="#666666">[varchar(32)]</text>
</g>
<!-- public.account_tax_group&#45;&gt;public.res_users -->
<g id="edge3" class="edge">
<title>public.account_tax_group:create_uid&#45;&gt;public.res_users:id</title>
<path fill="none" stroke="#000000" d="M668.2524,-966.839C781.5447,-951.8652 759.2282,-687.5 638,-687.5"/>
<polygon fill="#000000" stroke="#000000" points="667.9793,-966.8565 657.7104,-963.0093 662.9896,-967.1783 658,-967.5 658,-967.5 658,-967.5 662.9896,-967.1783 658.2896,-971.9907 667.9793,-966.8565 667.9793,-966.8565"/>
<text text-anchor="start" x="664.657" y="-977.5" font-family="Arial" font-size="10.00" fill="#000000">FOREIGN KEY (create_uid) REFERENCES res_users(id) ON DELETE SET NULL</text>
</g>
<!-- public.account_tax_group&#45;&gt;public.res_users -->
<g id="edge4" class="edge">
<title>public.account_tax_group:write_uid&#45;&gt;public.res_users:id</title>
<path fill="none" stroke="#000000" d="M668.1817,-906.6591C754.6336,-891.8888 732.6334,-687.5 638,-687.5"/>
<polygon fill="#000000" stroke="#000000" points="667.9661,-906.6768 657.6296,-903.0153 662.983,-907.0884 658,-907.5 658,-907.5 658,-907.5 662.983,-907.0884 658.3704,-911.9847 667.9661,-906.6768 667.9661,-906.6768"/>
<text text-anchor="start" x="664.997" y="-917.5" font-family="Arial" font-size="10.00" fill="#000000">FOREIGN KEY (write_uid) REFERENCES res_users(id) ON DELETE SET NULL</text>
</g>
<!-- public.account_tax -->
<g id="node2" class="node">
<title>public.account_tax</title>
<polygon fill="#efefef" stroke="transparent" points="156,-1892.5 156,-1927.5 432,-1927.5 432,-1892.5 156,-1892.5"/>
<polygon fill="none" stroke="#000000" points="156,-1892.5 156,-1927.5 432,-1927.5 432,-1892.5 156,-1892.5"/>
<text text-anchor="start" x="170.8477" y="-1905.3" font-family="Arial Bold" font-size="18.00" fill="#000000">public.account_tax</text>
<text text-anchor="start" x="319.8985" y="-1905.3" font-family="Arial" font-size="14.00" fill="#000000"> </text>
<text text-anchor="start" x="323.7891" y="-1905.3" font-family="Arial" font-size="14.00" fill="#666666">[BASE TABLE]</text>
<polygon fill="none" stroke="#000000" points="156,-1862.5 156,-1892.5 432,-1892.5 432,-1862.5 156,-1862.5"/>
<text text-anchor="start" x="163" y="-1873.9" font-family="Arial" font-size="14.00" fill="#000000">id </text>
<text text-anchor="start" x="177.7798" y="-1873.9" font-family="Arial" font-size="14.00" fill="#666666">[integer]</text>
<polygon fill="none" stroke="#000000" points="156,-1832.5 156,-1862.5 432,-1862.5 432,-1832.5 156,-1832.5"/>
<text text-anchor="start" x="163" y="-1843.9" font-family="Arial" font-size="14.00" fill="#000000">name </text>
<text text-anchor="start" x="201.899" y="-1843.9" font-family="Arial" font-size="14.00" fill="#666666">[varchar]</text>
<polygon fill="none" stroke="#000000" points="156,-1802.5 156,-1832.5 432,-1832.5 432,-1802.5 156,-1802.5"/>
<text text-anchor="start" x="163" y="-1813.9" font-family="Arial" font-size="14.00" fill="#000000">type_tax_use </text>
<text text-anchor="start" x="250.15" y="-1813.9" font-family="Arial" font-size="14.00" fill="#666666">[varchar]</text>
<polygon fill="none" stroke="#000000" points="156,-1772.5 156,-1802.5 432,-1802.5 432,-1772.5 156,-1772.5"/>
<text text-anchor="start" x="163" y="-1783.9" font-family="Arial" font-size="14.00" fill="#000000">amount_type </text>
<text text-anchor="start" x="247.8106" y="-1783.9" font-family="Arial" font-size="14.00" fill="#666666">[varchar]</text>
<polygon fill="none" stroke="#000000" points="156,-1742.5 156,-1772.5 432,-1772.5 432,-1742.5 156,-1742.5"/>
<text text-anchor="start" x="163" y="-1753.9" font-family="Arial" font-size="14.00" fill="#000000">active </text>
<text text-anchor="start" x="203.453" y="-1753.9" font-family="Arial" font-size="14.00" fill="#666666">[boolean]</text>
<polygon fill="none" stroke="#000000" points="156,-1712.5 156,-1742.5 432,-1742.5 432,-1712.5 156,-1712.5"/>
<text text-anchor="start" x="163" y="-1723.9" font-family="Arial" font-size="14.00" fill="#000000">company_id </text>
<text text-anchor="start" x="242.3534" y="-1723.9" font-family="Arial" font-size="14.00" fill="#666666">[integer]</text>
<polygon fill="none" stroke="#000000" points="156,-1682.5 156,-1712.5 432,-1712.5 432,-1682.5 156,-1682.5"/>
<text text-anchor="start" x="163" y="-1693.9" font-family="Arial" font-size="14.00" fill="#000000">sequence </text>
<text text-anchor="start" x="227.5862" y="-1693.9" font-family="Arial" font-size="14.00" fill="#666666">[integer]</text>
<polygon fill="none" stroke="#000000" points="156,-1652.5 156,-1682.5 432,-1682.5 432,-1652.5 156,-1652.5"/>
<text text-anchor="start" x="163" y="-1663.9" font-family="Arial" font-size="14.00" fill="#000000">amount </text>
<text text-anchor="start" x="213.5722" y="-1663.9" font-family="Arial" font-size="14.00" fill="#666666">[numeric]</text>
<polygon fill="none" stroke="#000000" points="156,-1622.5 156,-1652.5 432,-1652.5 432,-1622.5 156,-1622.5"/>
<text text-anchor="start" x="163" y="-1633.9" font-family="Arial" font-size="14.00" fill="#000000">account_id </text>
<text text-anchor="start" x="234.5834" y="-1633.9" font-family="Arial" font-size="14.00" fill="#666666">[integer]</text>
<polygon fill="none" stroke="#000000" points="156,-1592.5 156,-1622.5 432,-1622.5 432,-1592.5 156,-1592.5"/>
<text text-anchor="start" x="163" y="-1603.9" font-family="Arial" font-size="14.00" fill="#000000">refund_account_id </text>
<text text-anchor="start" x="282.0476" y="-1603.9" font-family="Arial" font-size="14.00" fill="#666666">[integer]</text>
<polygon fill="none" stroke="#000000" points="156,-1562.5 156,-1592.5 432,-1592.5 432,-1562.5 156,-1562.5"/>
<text text-anchor="start" x="163" y="-1573.9" font-family="Arial" font-size="14.00" fill="#000000">description </text>
<text text-anchor="start" x="234.568" y="-1573.9" font-family="Arial" font-size="14.00" fill="#666666">[varchar]</text>
<polygon fill="none" stroke="#000000" points="156,-1532.5 156,-1562.5 432,-1562.5 432,-1532.5 156,-1532.5"/>
<text text-anchor="start" x="163" y="-1543.9" font-family="Arial" font-size="14.00" fill="#000000">price_include </text>
<text text-anchor="start" x="249.3492" y="-1543.9" font-family="Arial" font-size="14.00" fill="#666666">[boolean]</text>
<polygon fill="none" stroke="#000000" points="156,-1502.5 156,-1532.5 432,-1532.5 432,-1502.5 156,-1502.5"/>
<text text-anchor="start" x="163" y="-1513.9" font-family="Arial" font-size="14.00" fill="#000000">include_base_amount </text>
<text text-anchor="start" x="303.8288" y="-1513.9" font-family="Arial" font-size="14.00" fill="#666666">[boolean]</text>
<polygon fill="none" stroke="#000000" points="156,-1472.5 156,-1502.5 432,-1502.5 432,-1472.5 156,-1472.5"/>
<text text-anchor="start" x="163" y="-1483.9" font-family="Arial" font-size="14.00" fill="#000000">analytic </text>
<text text-anchor="start" x="214.3422" y="-1483.9" font-family="Arial" font-size="14.00" fill="#666666">[boolean]</text>
<polygon fill="none" stroke="#000000" points="156,-1442.5 156,-1472.5 432,-1472.5 432,-1442.5 156,-1442.5"/>
<text text-anchor="start" x="163" y="-1453.9" font-family="Arial" font-size="14.00" fill="#000000">tax_group_id </text>
<text text-anchor="start" x="247.8092" y="-1453.9" font-family="Arial" font-size="14.00" fill="#666666">[integer]</text>
<polygon fill="none" stroke="#000000" points="156,-1412.5 156,-1442.5 432,-1442.5 432,-1412.5 156,-1412.5"/>
<text text-anchor="start" x="163" y="-1423.9" font-family="Arial" font-size="14.00" fill="#000000">tax_exigibility </text>
<text text-anchor="start" x="250.1178" y="-1423.9" font-family="Arial" font-size="14.00" fill="#666666">[varchar]</text>
<polygon fill="none" stroke="#000000" points="156,-1382.5 156,-1412.5 432,-1412.5 432,-1382.5 156,-1382.5"/>
<text text-anchor="start" x="163" y="-1393.9" font-family="Arial" font-size="14.00" fill="#000000">cash_basis_account_id </text>
<text text-anchor="start" x="312.3856" y="-1393.9" font-family="Arial" font-size="14.00" fill="#666666">[integer]</text>
<polygon fill="none" stroke="#000000" points="156,-1352.5 156,-1382.5 432,-1382.5 432,-1352.5 156,-1352.5"/>
<text text-anchor="start" x="163" y="-1363.9" font-family="Arial" font-size="14.00" fill="#000000">cash_basis_base_account_id </text>
<text text-anchor="start" x="350.516" y="-1363.9" font-family="Arial" font-size="14.00" fill="#666666">[integer]</text>
<polygon fill="none" stroke="#000000" points="156,-1322.5 156,-1352.5 432,-1352.5 432,-1322.5 156,-1322.5"/>
<text text-anchor="start" x="163" y="-1333.9" font-family="Arial" font-size="14.00" fill="#000000">create_uid </text>
<text text-anchor="start" x="232.244" y="-1333.9" font-family="Arial" font-size="14.00" fill="#666666">[integer]</text>
<polygon fill="none" stroke="#000000" points="156,-1292.5 156,-1322.5 432,-1322.5 432,-1292.5 156,-1292.5"/>
<text text-anchor="start" x="162.5246" y="-1303.9" font-family="Arial" font-size="14.00" fill="#000000">create_date </text>
<text text-anchor="start" x="240.3352" y="-1303.9" font-family="Arial" font-size="14.00" fill="#666666">[timestamp without time zone]</text>
<polygon fill="none" stroke="#000000" points="156,-1262.5 156,-1292.5 432,-1292.5 432,-1262.5 156,-1262.5"/>
<text text-anchor="start" x="163" y="-1273.9" font-family="Arial" font-size="14.00" fill="#000000">write_uid </text>
<text text-anchor="start" x="222.892" y="-1273.9" font-family="Arial" font-size="14.00" fill="#666666">[integer]</text>
<polygon fill="none" stroke="#000000" points="156,-1232.5 156,-1262.5 432,-1262.5 432,-1232.5 156,-1232.5"/>
<text text-anchor="start" x="163" y="-1243.9" font-family="Arial" font-size="14.00" fill="#000000">write_date </text>
<text text-anchor="start" x="231.4586" y="-1243.9" font-family="Arial" font-size="14.00" fill="#666666">[timestamp without time zone]</text>
</g>
<!-- public.account_tax&#45;&gt;public.account_tax_group -->
<g id="edge1" class="edge">
<title>public.account_tax:tax_group_id&#45;&gt;public.account_tax_group:id</title>
<path fill="none" stroke="#000000" d="M441.8739,-1455.1854C488.2553,-1431.6879 463.3085,-1236.2436 432,-1190 407.8474,-1154.3258 366.1526,-1189.6742 342,-1154 317.9553,-1118.4851 299.1111,-1057.5 342,-1057.5"/>
<polygon fill="#000000" stroke="#000000" points="441.7361,-1455.2177 430.9729,-1453.1188 436.868,-1456.3588 432,-1457.5 432,-1457.5 432,-1457.5 436.868,-1456.3588 433.0271,-1461.8812 441.7361,-1455.2177 441.7361,-1455.2177"/>
<text text-anchor="start" x="6.527" y="-1467.5" font-family="Arial" font-size="10.00" fill="#000000">FOREIGN KEY (tax_group_id) REFERENCES account_tax_group(id) ON DELETE SET NULL</text>
</g>
<!-- public.account_tax_template -->
<g id="node3" class="node">
<title>public.account_tax_template</title>
<polygon fill="#efefef" stroke="transparent" points="537,-1892.5 537,-1927.5 876,-1927.5 876,-1892.5 537,-1892.5"/>
<polygon fill="none" stroke="#000000" points="537,-1892.5 537,-1927.5 876,-1927.5 876,-1892.5 537,-1892.5"/>
<text text-anchor="start" x="543.8368" y="-1905.3" font-family="Arial Bold" font-size="18.00" fill="#000000">public.account_tax_template</text>
<text text-anchor="start" x="771.9094" y="-1905.3" font-family="Arial" font-size="14.00" fill="#000000"> </text>
<text text-anchor="start" x="775.8" y="-1905.3" font-family="Arial" font-size="14.00" fill="#666666">[BASE TABLE]</text>
<polygon fill="none" stroke="#000000" points="537,-1862.5 537,-1892.5 876,-1892.5 876,-1862.5 537,-1862.5"/>
<text text-anchor="start" x="544" y="-1873.9" font-family="Arial" font-size="14.00" fill="#000000">id </text>
<text text-anchor="start" x="558.7798" y="-1873.9" font-family="Arial" font-size="14.00" fill="#666666">[integer]</text>
<polygon fill="none" stroke="#000000" points="537,-1832.5 537,-1862.5 876,-1862.5 876,-1832.5 537,-1832.5"/>
<text text-anchor="start" x="544" y="-1843.9" font-family="Arial" font-size="14.00" fill="#000000">chart_template_id </text>
<text text-anchor="start" x="659.1402" y="-1843.9" font-family="Arial" font-size="14.00" fill="#666666">[integer]</text>
<polygon fill="none" stroke="#000000" points="537,-1802.5 537,-1832.5 876,-1832.5 876,-1802.5 537,-1802.5"/>
<text text-anchor="start" x="544" y="-1813.9" font-family="Arial" font-size="14.00" fill="#000000">name </text>
<text text-anchor="start" x="582.899" y="-1813.9" font-family="Arial" font-size="14.00" fill="#666666">[varchar]</text>
<polygon fill="none" stroke="#000000" points="537,-1772.5 537,-1802.5 876,-1802.5 876,-1772.5 537,-1772.5"/>
<text text-anchor="start" x="544" y="-1783.9" font-family="Arial" font-size="14.00" fill="#000000">type_tax_use </text>
<text text-anchor="start" x="631.15" y="-1783.9" font-family="Arial" font-size="14.00" fill="#666666">[varchar]</text>
<polygon fill="none" stroke="#000000" points="537,-1742.5 537,-1772.5 876,-1772.5 876,-1742.5 537,-1742.5"/>
<text text-anchor="start" x="544" y="-1753.9" font-family="Arial" font-size="14.00" fill="#000000">amount_type </text>
<text text-anchor="start" x="628.8106" y="-1753.9" font-family="Arial" font-size="14.00" fill="#666666">[varchar]</text>
<polygon fill="none" stroke="#000000" points="537,-1712.5 537,-1742.5 876,-1742.5 876,-1712.5 537,-1712.5"/>
<text text-anchor="start" x="544" y="-1723.9" font-family="Arial" font-size="14.00" fill="#000000">active </text>
<text text-anchor="start" x="584.453" y="-1723.9" font-family="Arial" font-size="14.00" fill="#666666">[boolean]</text>
<polygon fill="none" stroke="#000000" points="537,-1682.5 537,-1712.5 876,-1712.5 876,-1682.5 537,-1682.5"/>
<text text-anchor="start" x="544" y="-1693.9" font-family="Arial" font-size="14.00" fill="#000000">sequence </text>
<text text-anchor="start" x="608.5862" y="-1693.9" font-family="Arial" font-size="14.00" fill="#666666">[integer]</text>
<polygon fill="none" stroke="#000000" points="537,-1652.5 537,-1682.5 876,-1682.5 876,-1652.5 537,-1652.5"/>
<text text-anchor="start" x="544" y="-1663.9" font-family="Arial" font-size="14.00" fill="#000000">amount </text>
<text text-anchor="start" x="594.5722" y="-1663.9" font-family="Arial" font-size="14.00" fill="#666666">[numeric]</text>
<polygon fill="none" stroke="#000000" points="537,-1622.5 537,-1652.5 876,-1652.5 876,-1622.5 537,-1622.5"/>
<text text-anchor="start" x="544" y="-1633.9" font-family="Arial" font-size="14.00" fill="#000000">account_id </text>
<text text-anchor="start" x="615.5834" y="-1633.9" font-family="Arial" font-size="14.00" fill="#666666">[integer]</text>
<polygon fill="none" stroke="#000000" points="537,-1592.5 537,-1622.5 876,-1622.5 876,-1592.5 537,-1592.5"/>
<text text-anchor="start" x="544" y="-1603.9" font-family="Arial" font-size="14.00" fill="#000000">refund_account_id </text>
<text text-anchor="start" x="663.0476" y="-1603.9" font-family="Arial" font-size="14.00" fill="#666666">[integer]</text>
<polygon fill="none" stroke="#000000" points="537,-1562.5 537,-1592.5 876,-1592.5 876,-1562.5 537,-1562.5"/>
<text text-anchor="start" x="544" y="-1573.9" font-family="Arial" font-size="14.00" fill="#000000">description </text>
<text text-anchor="start" x="615.568" y="-1573.9" font-family="Arial" font-size="14.00" fill="#666666">[varchar]</text>
<polygon fill="none" stroke="#000000" points="537,-1532.5 537,-1562.5 876,-1562.5 876,-1532.5 537,-1532.5"/>
<text text-anchor="start" x="544" y="-1543.9" font-family="Arial" font-size="14.00" fill="#000000">price_include </text>
<text text-anchor="start" x="630.3492" y="-1543.9" font-family="Arial" font-size="14.00" fill="#666666">[boolean]</text>
<polygon fill="none" stroke="#000000" points="537,-1502.5 537,-1532.5 876,-1532.5 876,-1502.5 537,-1502.5"/>
<text text-anchor="start" x="544" y="-1513.9" font-family="Arial" font-size="14.00" fill="#000000">include_base_amount </text>
<text text-anchor="start" x="684.8288" y="-1513.9" font-family="Arial" font-size="14.00" fill="#666666">[boolean]</text>
<polygon fill="none" stroke="#000000" points="537,-1472.5 537,-1502.5 876,-1502.5 876,-1472.5 537,-1472.5"/>
<text text-anchor="start" x="544" y="-1483.9" font-family="Arial" font-size="14.00" fill="#000000">analytic </text>
<text text-anchor="start" x="595.3422" y="-1483.9" font-family="Arial" font-size="14.00" fill="#666666">[boolean]</text>
<polygon fill="none" stroke="#000000" points="537,-1442.5 537,-1472.5 876,-1472.5 876,-1442.5 537,-1442.5"/>
<text text-anchor="start" x="544" y="-1453.9" font-family="Arial" font-size="14.00" fill="#000000">tax_group_id </text>
<text text-anchor="start" x="628.8092" y="-1453.9" font-family="Arial" font-size="14.00" fill="#666666">[integer]</text>
<polygon fill="none" stroke="#000000" points="537,-1412.5 537,-1442.5 876,-1442.5 876,-1412.5 537,-1412.5"/>
<text text-anchor="start" x="544" y="-1423.9" font-family="Arial" font-size="14.00" fill="#000000">tax_exigibility </text>
<text text-anchor="start" x="631.1178" y="-1423.9" font-family="Arial" font-size="14.00" fill="#666666">[varchar]</text>
<polygon fill="none" stroke="#000000" points="537,-1382.5 537,-1412.5 876,-1412.5 876,-1382.5 537,-1382.5"/>
<text text-anchor="start" x="544" y="-1393.9" font-family="Arial" font-size="14.00" fill="#000000">cash_basis_account_id </text>
<text text-anchor="start" x="693.3856" y="-1393.9" font-family="Arial" font-size="14.00" fill="#666666">[integer]</text>
<polygon fill="none" stroke="#000000" points="537,-1352.5 537,-1382.5 876,-1382.5 876,-1352.5 537,-1352.5"/>
<text text-anchor="start" x="544" y="-1363.9" font-family="Arial" font-size="14.00" fill="#000000">cash_basis_base_account_id </text>
<text text-anchor="start" x="731.516" y="-1363.9" font-family="Arial" font-size="14.00" fill="#666666">[integer]</text>
<polygon fill="none" stroke="#000000" points="537,-1322.5 537,-1352.5 876,-1352.5 876,-1322.5 537,-1322.5"/>
<text text-anchor="start" x="544" y="-1333.9" font-family="Arial" font-size="14.00" fill="#000000">create_uid </text>
<text text-anchor="start" x="613.244" y="-1333.9" font-family="Arial" font-size="14.00" fill="#666666">[integer]</text>
<polygon fill="none" stroke="#000000" points="537,-1292.5 537,-1322.5 876,-1322.5 876,-1292.5 537,-1292.5"/>
<text text-anchor="start" x="544" y="-1303.9" font-family="Arial" font-size="14.00" fill="#000000">create_date </text>
<text text-anchor="start" x="621.8106" y="-1303.9" font-family="Arial" font-size="14.00" fill="#666666">[timestamp without time zone]</text>
<polygon fill="none" stroke="#000000" points="537,-1262.5 537,-1292.5 876,-1292.5 876,-1262.5 537,-1262.5"/>
<text text-anchor="start" x="544" y="-1273.9" font-family="Arial" font-size="14.00" fill="#000000">write_uid </text>
<text text-anchor="start" x="603.892" y="-1273.9" font-family="Arial" font-size="14.00" fill="#666666">[integer]</text>
<polygon fill="none" stroke="#000000" points="537,-1232.5 537,-1262.5 876,-1262.5 876,-1232.5 537,-1232.5"/>
<text text-anchor="start" x="544" y="-1243.9" font-family="Arial" font-size="14.00" fill="#000000">write_date </text>
<text text-anchor="start" x="612.4586" y="-1243.9" font-family="Arial" font-size="14.00" fill="#666666">[timestamp without time zone]</text>
</g>
<!-- public.account_tax_template&#45;&gt;public.account_tax_group -->
<g id="edge2" class="edge">
<title>public.account_tax_template:tax_group_id&#45;&gt;public.account_tax_group:id</title>
<path fill="none" stroke="#000000" d="M527.1032,-1455.1692C480.4931,-1431.509 503.6133,-1234.7663 537,-1190 570.5435,-1145.0235 624.4565,-1198.9765 658,-1154 683.6408,-1119.6197 700.8889,-1057.5 658,-1057.5"/>
<polygon fill="#000000" stroke="#000000" points="527.2663,-1455.2075 535.9684,-1461.8802 532.1332,-1456.3538 537,-1457.5 537,-1457.5 537,-1457.5 532.1332,-1456.3538 538.0316,-1453.1198 527.2663,-1455.2075 527.2663,-1455.2075"/>
<text text-anchor="start" x="543.527" y="-1467.5" font-family="Arial" font-size="10.00" fill="#000000">FOREIGN KEY (tax_group_id) REFERENCES account_tax_group(id) ON DELETE SET NULL</text>
</g>
</g>
</svg>
