<?xml version="1.0" encoding="UTF-8" standalone="no"?>
<!DOCTYPE svg PUBLIC "-//W3C//DTD SVG 1.1//EN"
 "http://www.w3.org/Graphics/SVG/1.1/DTD/svg11.dtd">
<!-- Generated by graphviz version 2.40.1 (20161225.0304)
 -->
<!-- Title: public.account_fiscal_year Pages: 1 -->
<svg width="1222pt" height="3202pt"
 viewBox="0.00 0.00 1222.00 3202.00" xmlns="http://www.w3.org/2000/svg" xmlns:xlink="http://www.w3.org/1999/xlink">
<g id="graph0" class="graph" transform="scale(1 1) rotate(0) translate(4 3198)">
<title>public.account_fiscal_year</title>
<polygon fill="#ffffff" stroke="transparent" points="-4,4 -4,-3198 1218,-3198 1218,4 -4,4"/>
<!-- public.account_fiscal_year -->
<g id="node1" class="node">
<title>public.account_fiscal_year</title>
<polygon fill="#efefef" stroke="transparent" points="512,-3112.5 512,-3147.5 834,-3147.5 834,-3112.5 512,-3112.5"/>
<polygon fill="none" stroke="#000000" points="512,-3112.5 512,-3147.5 834,-3147.5 834,-3112.5 512,-3112.5"/>
<text text-anchor="start" x="518.8481" y="-3125.3" font-family="Arial Bold" font-size="18.00" fill="#000000">public.account_fiscal_year</text>
<text text-anchor="start" x="729.8981" y="-3125.3" font-family="Arial" font-size="14.00" fill="#000000"> </text>
<text text-anchor="start" x="733.7887" y="-3125.3" font-family="Arial" font-size="14.00" fill="#666666">[BASE TABLE]</text>
<polygon fill="none" stroke="#000000" points="512,-3082.5 512,-3112.5 834,-3112.5 834,-3082.5 512,-3082.5"/>
<text text-anchor="start" x="519" y="-3093.9" font-family="Arial" font-size="14.00" fill="#000000">id </text>
<text text-anchor="start" x="533.7798" y="-3093.9" font-family="Arial" font-size="14.00" fill="#666666">[integer]</text>
<polygon fill="none" stroke="#000000" points="512,-3052.5 512,-3082.5 834,-3082.5 834,-3052.5 512,-3052.5"/>
<text text-anchor="start" x="519" y="-3063.9" font-family="Arial" font-size="14.00" fill="#000000">name </text>
<text text-anchor="start" x="557.899" y="-3063.9" font-family="Arial" font-size="14.00" fill="#666666">[varchar]</text>
<polygon fill="none" stroke="#000000" points="512,-3022.5 512,-3052.5 834,-3052.5 834,-3022.5 512,-3022.5"/>
<text text-anchor="start" x="519" y="-3033.9" font-family="Arial" font-size="14.00" fill="#000000">date_from </text>
<text text-anchor="start" x="585.906" y="-3033.9" font-family="Arial" font-size="14.00" fill="#666666">[date]</text>
<polygon fill="none" stroke="#000000" points="512,-2992.5 512,-3022.5 834,-3022.5 834,-2992.5 512,-2992.5"/>
<text text-anchor="start" x="519" y="-3003.9" font-family="Arial" font-size="14.00" fill="#000000">date_to </text>
<text text-anchor="start" x="569.5848" y="-3003.9" font-family="Arial" font-size="14.00" fill="#666666">[date]</text>
<polygon fill="none" stroke="#000000" points="512,-2962.5 512,-2992.5 834,-2992.5 834,-2962.5 512,-2962.5"/>
<text text-anchor="start" x="519" y="-2973.9" font-family="Arial" font-size="14.00" fill="#000000">company_id </text>
<text text-anchor="start" x="598.3534" y="-2973.9" font-family="Arial" font-size="14.00" fill="#666666">[integer]</text>
<polygon fill="none" stroke="#000000" points="512,-2932.5 512,-2962.5 834,-2962.5 834,-2932.5 512,-2932.5"/>
<text text-anchor="start" x="519" y="-2943.9" font-family="Arial" font-size="14.00" fill="#000000">create_uid </text>
<text text-anchor="start" x="588.244" y="-2943.9" font-family="Arial" font-size="14.00" fill="#666666">[integer]</text>
<polygon fill="none" stroke="#000000" points="512,-2902.5 512,-2932.5 834,-2932.5 834,-2902.5 512,-2902.5"/>
<text text-anchor="start" x="519" y="-2913.9" font-family="Arial" font-size="14.00" fill="#000000">create_date </text>
<text text-anchor="start" x="596.8106" y="-2913.9" font-family="Arial" font-size="14.00" fill="#666666">[timestamp without time zone]</text>
<polygon fill="none" stroke="#000000" points="512,-2872.5 512,-2902.5 834,-2902.5 834,-2872.5 512,-2872.5"/>
<text text-anchor="start" x="519" y="-2883.9" font-family="Arial" font-size="14.00" fill="#000000">write_uid </text>
<text text-anchor="start" x="578.892" y="-2883.9" font-family="Arial" font-size="14.00" fill="#666666">[integer]</text>
<polygon fill="none" stroke="#000000" points="512,-2842.5 512,-2872.5 834,-2872.5 834,-2842.5 512,-2842.5"/>
<text text-anchor="start" x="519" y="-2853.9" font-family="Arial" font-size="14.00" fill="#000000">write_date </text>
<text text-anchor="start" x="587.4586" y="-2853.9" font-family="Arial" font-size="14.00" fill="#666666">[timestamp without time zone]</text>
<polygon fill="none" stroke="#000000" stroke-width="3" points="510.5,-2841.5 510.5,-3149.5 835.5,-3149.5 835.5,-2841.5 510.5,-2841.5"/>
</g>
<!-- public.res_company -->
<g id="node2" class="node">
<title>public.res_company</title>
<polygon fill="#efefef" stroke="transparent" points="43,-2682.5 43,-2717.5 431,-2717.5 431,-2682.5 43,-2682.5"/>
<polygon fill="none" stroke="#000000" points="43,-2682.5 43,-2717.5 431,-2717.5 431,-2682.5 43,-2682.5"/>
<text text-anchor="start" x="108.3577" y="-2695.3" font-family="Arial Bold" font-size="18.00" fill="#000000">public.res_company</text>
<text text-anchor="start" x="268.3885" y="-2695.3" font-family="Arial" font-size="14.00" fill="#000000"> </text>
<text text-anchor="start" x="272.2791" y="-2695.3" font-family="Arial" font-size="14.00" fill="#666666">[BASE TABLE]</text>
<polygon fill="none" stroke="#000000" points="43,-2652.5 43,-2682.5 431,-2682.5 431,-2652.5 43,-2652.5"/>
<text text-anchor="start" x="50" y="-2663.9" font-family="Arial" font-size="14.00" fill="#000000">id </text>
<text text-anchor="start" x="64.7798" y="-2663.9" font-family="Arial" font-size="14.00" fill="#666666">[integer]</text>
<polygon fill="none" stroke="#000000" points="43,-2622.5 43,-2652.5 431,-2652.5 431,-2622.5 43,-2622.5"/>
<text text-anchor="start" x="50" y="-2633.9" font-family="Arial" font-size="14.00" fill="#000000">name </text>
<text text-anchor="start" x="88.899" y="-2633.9" font-family="Arial" font-size="14.00" fill="#666666">[varchar]</text>
<polygon fill="none" stroke="#000000" points="43,-2592.5 43,-2622.5 431,-2622.5 431,-2592.5 43,-2592.5"/>
<text text-anchor="start" x="50" y="-2603.9" font-family="Arial" font-size="14.00" fill="#000000">partner_id </text>
<text text-anchor="start" x="116.9046" y="-2603.9" font-family="Arial" font-size="14.00" fill="#666666">[integer]</text>
<polygon fill="none" stroke="#000000" points="43,-2562.5 43,-2592.5 431,-2592.5 431,-2562.5 43,-2562.5"/>
<text text-anchor="start" x="50" y="-2573.9" font-family="Arial" font-size="14.00" fill="#000000">currency_id </text>
<text text-anchor="start" x="126.2314" y="-2573.9" font-family="Arial" font-size="14.00" fill="#666666">[integer]</text>
<polygon fill="none" stroke="#000000" points="43,-2532.5 43,-2562.5 431,-2562.5 431,-2532.5 43,-2532.5"/>
<text text-anchor="start" x="50" y="-2543.9" font-family="Arial" font-size="14.00" fill="#000000">sequence </text>
<text text-anchor="start" x="114.5862" y="-2543.9" font-family="Arial" font-size="14.00" fill="#666666">[integer]</text>
<polygon fill="none" stroke="#000000" points="43,-2502.5 43,-2532.5 431,-2532.5 431,-2502.5 43,-2502.5"/>
<text text-anchor="start" x="50" y="-2513.9" font-family="Arial" font-size="14.00" fill="#000000">create_date </text>
<text text-anchor="start" x="127.8106" y="-2513.9" font-family="Arial" font-size="14.00" fill="#666666">[timestamp without time zone]</text>
<polygon fill="none" stroke="#000000" points="43,-2472.5 43,-2502.5 431,-2502.5 431,-2472.5 43,-2472.5"/>
<text text-anchor="start" x="50" y="-2483.9" font-family="Arial" font-size="14.00" fill="#000000">parent_id </text>
<text text-anchor="start" x="112.244" y="-2483.9" font-family="Arial" font-size="14.00" fill="#666666">[integer]</text>
<polygon fill="none" stroke="#000000" points="43,-2442.5 43,-2472.5 431,-2472.5 431,-2442.5 43,-2442.5"/>
<text text-anchor="start" x="50" y="-2453.9" font-family="Arial" font-size="14.00" fill="#000000">report_header </text>
<text text-anchor="start" x="141.8064" y="-2453.9" font-family="Arial" font-size="14.00" fill="#666666">[text]</text>
<polygon fill="none" stroke="#000000" points="43,-2412.5 43,-2442.5 431,-2442.5 431,-2412.5 43,-2412.5"/>
<text text-anchor="start" x="50" y="-2423.9" font-family="Arial" font-size="14.00" fill="#000000">report_footer </text>
<text text-anchor="start" x="134.0224" y="-2423.9" font-family="Arial" font-size="14.00" fill="#666666">[text]</text>
<polygon fill="none" stroke="#000000" points="43,-2382.5 43,-2412.5 431,-2412.5 431,-2382.5 43,-2382.5"/>
<text text-anchor="start" x="50" y="-2393.9" font-family="Arial" font-size="14.00" fill="#000000">logo_web </text>
<text text-anchor="start" x="113.7994" y="-2393.9" font-family="Arial" font-size="14.00" fill="#666666">[bytea]</text>
<polygon fill="none" stroke="#000000" points="43,-2352.5 43,-2382.5 431,-2382.5 431,-2352.5 43,-2352.5"/>
<text text-anchor="start" x="50" y="-2363.9" font-family="Arial" font-size="14.00" fill="#000000">account_no </text>
<text text-anchor="start" x="126.2594" y="-2363.9" font-family="Arial" font-size="14.00" fill="#666666">[varchar]</text>
<polygon fill="none" stroke="#000000" points="43,-2322.5 43,-2352.5 431,-2352.5 431,-2322.5 43,-2322.5"/>
<text text-anchor="start" x="50" y="-2333.9" font-family="Arial" font-size="14.00" fill="#000000">email </text>
<text text-anchor="start" x="87.3296" y="-2333.9" font-family="Arial" font-size="14.00" fill="#666666">[varchar]</text>
<polygon fill="none" stroke="#000000" points="43,-2292.5 43,-2322.5 431,-2322.5 431,-2292.5 43,-2292.5"/>
<text text-anchor="start" x="50" y="-2303.9" font-family="Arial" font-size="14.00" fill="#000000">phone </text>
<text text-anchor="start" x="92.8036" y="-2303.9" font-family="Arial" font-size="14.00" fill="#666666">[varchar]</text>
<polygon fill="none" stroke="#000000" points="43,-2262.5 43,-2292.5 431,-2292.5 431,-2262.5 43,-2262.5"/>
<text text-anchor="start" x="50" y="-2273.9" font-family="Arial" font-size="14.00" fill="#000000">company_registry </text>
<text text-anchor="start" x="164.3478" y="-2273.9" font-family="Arial" font-size="14.00" fill="#666666">[varchar]</text>
<polygon fill="none" stroke="#000000" points="43,-2232.5 43,-2262.5 431,-2262.5 431,-2232.5 43,-2232.5"/>
<text text-anchor="start" x="50" y="-2243.9" font-family="Arial" font-size="14.00" fill="#000000">paperformat_id </text>
<text text-anchor="start" x="148.021" y="-2243.9" font-family="Arial" font-size="14.00" fill="#666666">[integer]</text>
<polygon fill="none" stroke="#000000" points="43,-2202.5 43,-2232.5 431,-2232.5 431,-2202.5 43,-2202.5"/>
<text text-anchor="start" x="50" y="-2213.9" font-family="Arial" font-size="14.00" fill="#000000">external_report_layout_id </text>
<text text-anchor="start" x="211.8204" y="-2213.9" font-family="Arial" font-size="14.00" fill="#666666">[integer]</text>
<polygon fill="none" stroke="#000000" points="43,-2172.5 43,-2202.5 431,-2202.5 431,-2172.5 43,-2172.5"/>
<text text-anchor="start" x="50" y="-2183.9" font-family="Arial" font-size="14.00" fill="#000000">base_onboarding_company_state </text>
<text text-anchor="start" x="264.7516" y="-2183.9" font-family="Arial" font-size="14.00" fill="#666666">[varchar]</text>
<polygon fill="none" stroke="#000000" points="43,-2142.5 43,-2172.5 431,-2172.5 431,-2142.5 43,-2142.5"/>
<text text-anchor="start" x="50" y="-2153.9" font-family="Arial" font-size="14.00" fill="#000000">create_uid </text>
<text text-anchor="start" x="119.244" y="-2153.9" font-family="Arial" font-size="14.00" fill="#666666">[integer]</text>
<polygon fill="none" stroke="#000000" points="43,-2112.5 43,-2142.5 431,-2142.5 431,-2112.5 43,-2112.5"/>
<text text-anchor="start" x="50" y="-2123.9" font-family="Arial" font-size="14.00" fill="#000000">write_uid </text>
<text text-anchor="start" x="109.892" y="-2123.9" font-family="Arial" font-size="14.00" fill="#666666">[integer]</text>
<polygon fill="none" stroke="#000000" points="43,-2082.5 43,-2112.5 431,-2112.5 431,-2082.5 43,-2082.5"/>
<text text-anchor="start" x="50" y="-2093.9" font-family="Arial" font-size="14.00" fill="#000000">write_date </text>
<text text-anchor="start" x="118.4586" y="-2093.9" font-family="Arial" font-size="14.00" fill="#666666">[timestamp without time zone]</text>
<polygon fill="none" stroke="#000000" points="43,-2052.5 43,-2082.5 431,-2082.5 431,-2052.5 43,-2052.5"/>
<text text-anchor="start" x="50" y="-2063.9" font-family="Arial" font-size="14.00" fill="#000000">resource_calendar_id </text>
<text text-anchor="start" x="188.4768" y="-2063.9" font-family="Arial" font-size="14.00" fill="#666666">[integer]</text>
<polygon fill="none" stroke="#000000" points="43,-2022.5 43,-2052.5 431,-2052.5 431,-2022.5 43,-2022.5"/>
<text text-anchor="start" x="50" y="-2033.9" font-family="Arial" font-size="14.00" fill="#000000">partner_gid </text>
<text text-anchor="start" x="124.6872" y="-2033.9" font-family="Arial" font-size="14.00" fill="#666666">[integer]</text>
<polygon fill="none" stroke="#000000" points="43,-1992.5 43,-2022.5 431,-2022.5 431,-1992.5 43,-1992.5"/>
<text text-anchor="start" x="50" y="-2003.9" font-family="Arial" font-size="14.00" fill="#000000">snailmail_color </text>
<text text-anchor="start" x="146.4404" y="-2003.9" font-family="Arial" font-size="14.00" fill="#666666">[boolean]</text>
<polygon fill="none" stroke="#000000" points="43,-1962.5 43,-1992.5 431,-1992.5 431,-1962.5 43,-1962.5"/>
<text text-anchor="start" x="50" y="-1973.9" font-family="Arial" font-size="14.00" fill="#000000">snailmail_duplex </text>
<text text-anchor="start" x="157.345" y="-1973.9" font-family="Arial" font-size="14.00" fill="#666666">[boolean]</text>
<polygon fill="none" stroke="#000000" points="43,-1932.5 43,-1962.5 431,-1962.5 431,-1932.5 43,-1932.5"/>
<text text-anchor="start" x="50" y="-1943.9" font-family="Arial" font-size="14.00" fill="#000000">social_twitter </text>
<text text-anchor="start" x="134.7798" y="-1943.9" font-family="Arial" font-size="14.00" fill="#666666">[varchar]</text>
<polygon fill="none" stroke="#000000" points="43,-1902.5 43,-1932.5 431,-1932.5 431,-1902.5 43,-1902.5"/>
<text text-anchor="start" x="50" y="-1913.9" font-family="Arial" font-size="14.00" fill="#000000">social_facebook </text>
<text text-anchor="start" x="154.2552" y="-1913.9" font-family="Arial" font-size="14.00" fill="#666666">[varchar]</text>
<polygon fill="none" stroke="#000000" points="43,-1872.5 43,-1902.5 431,-1902.5 431,-1872.5 43,-1872.5"/>
<text text-anchor="start" x="50" y="-1883.9" font-family="Arial" font-size="14.00" fill="#000000">social_github </text>
<text text-anchor="start" x="135.5792" y="-1883.9" font-family="Arial" font-size="14.00" fill="#666666">[varchar]</text>
<polygon fill="none" stroke="#000000" points="43,-1842.5 43,-1872.5 431,-1872.5 431,-1842.5 43,-1842.5"/>
<text text-anchor="start" x="50" y="-1853.9" font-family="Arial" font-size="14.00" fill="#000000">social_linkedin </text>
<text text-anchor="start" x="144.9018" y="-1853.9" font-family="Arial" font-size="14.00" fill="#666666">[varchar]</text>
<polygon fill="none" stroke="#000000" points="43,-1812.5 43,-1842.5 431,-1842.5 431,-1812.5 43,-1812.5"/>
<text text-anchor="start" x="50" y="-1823.9" font-family="Arial" font-size="14.00" fill="#000000">social_youtube </text>
<text text-anchor="start" x="147.2552" y="-1823.9" font-family="Arial" font-size="14.00" fill="#666666">[varchar]</text>
<polygon fill="none" stroke="#000000" points="43,-1782.5 43,-1812.5 431,-1812.5 431,-1782.5 43,-1782.5"/>
<text text-anchor="start" x="50" y="-1793.9" font-family="Arial" font-size="14.00" fill="#000000">social_googleplus </text>
<text text-anchor="start" x="165.143" y="-1793.9" font-family="Arial" font-size="14.00" fill="#666666">[varchar]</text>
<polygon fill="none" stroke="#000000" points="43,-1752.5 43,-1782.5 431,-1782.5 431,-1752.5 43,-1752.5"/>
<text text-anchor="start" x="50" y="-1763.9" font-family="Arial" font-size="14.00" fill="#000000">social_instagram </text>
<text text-anchor="start" x="158.9004" y="-1763.9" font-family="Arial" font-size="14.00" fill="#666666">[varchar]</text>
<polygon fill="none" stroke="#000000" points="43,-1722.5 43,-1752.5 431,-1752.5 431,-1722.5 43,-1722.5"/>
<text text-anchor="start" x="50" y="-1733.9" font-family="Arial" font-size="14.00" fill="#000000">fiscalyear_last_day </text>
<text text-anchor="start" x="172.913" y="-1733.9" font-family="Arial" font-size="14.00" fill="#666666">[integer]</text>
<polygon fill="none" stroke="#000000" points="43,-1692.5 43,-1722.5 431,-1722.5 431,-1692.5 43,-1692.5"/>
<text text-anchor="start" x="50" y="-1703.9" font-family="Arial" font-size="14.00" fill="#000000">fiscalyear_last_month </text>
<text text-anchor="start" x="189.2468" y="-1703.9" font-family="Arial" font-size="14.00" fill="#666666">[integer]</text>
<polygon fill="none" stroke="#000000" points="43,-1662.5 43,-1692.5 431,-1692.5 431,-1662.5 43,-1662.5"/>
<text text-anchor="start" x="50" y="-1673.9" font-family="Arial" font-size="14.00" fill="#000000">period_lock_date </text>
<text text-anchor="start" x="160.481" y="-1673.9" font-family="Arial" font-size="14.00" fill="#666666">[date]</text>
<polygon fill="none" stroke="#000000" points="43,-1632.5 43,-1662.5 431,-1662.5 431,-1632.5 43,-1632.5"/>
<text text-anchor="start" x="50" y="-1643.9" font-family="Arial" font-size="14.00" fill="#000000">fiscalyear_lock_date </text>
<text text-anchor="start" x="180.6956" y="-1643.9" font-family="Arial" font-size="14.00" fill="#666666">[date]</text>
<polygon fill="none" stroke="#000000" points="43,-1602.5 43,-1632.5 431,-1632.5 431,-1602.5 43,-1602.5"/>
<text text-anchor="start" x="50" y="-1613.9" font-family="Arial" font-size="14.00" fill="#000000">transfer_account_id </text>
<text text-anchor="start" x="176.8162" y="-1613.9" font-family="Arial" font-size="14.00" fill="#666666">[integer]</text>
<polygon fill="none" stroke="#000000" points="43,-1572.5 43,-1602.5 431,-1602.5 431,-1572.5 43,-1572.5"/>
<text text-anchor="start" x="50" y="-1583.9" font-family="Arial" font-size="14.00" fill="#000000">expects_chart_of_accounts </text>
<text text-anchor="start" x="224.2874" y="-1583.9" font-family="Arial" font-size="14.00" fill="#666666">[boolean]</text>
<polygon fill="none" stroke="#000000" points="43,-1542.5 43,-1572.5 431,-1572.5 431,-1542.5 43,-1542.5"/>
<text text-anchor="start" x="50" y="-1553.9" font-family="Arial" font-size="14.00" fill="#000000">chart_template_id </text>
<text text-anchor="start" x="165.1402" y="-1553.9" font-family="Arial" font-size="14.00" fill="#666666">[integer]</text>
<polygon fill="none" stroke="#000000" points="43,-1512.5 43,-1542.5 431,-1542.5 431,-1512.5 43,-1512.5"/>
<text text-anchor="start" x="50" y="-1523.9" font-family="Arial" font-size="14.00" fill="#000000">bank_account_code_prefix </text>
<text text-anchor="start" x="221.178" y="-1523.9" font-family="Arial" font-size="14.00" fill="#666666">[varchar]</text>
<polygon fill="none" stroke="#000000" points="43,-1482.5 43,-1512.5 431,-1512.5 431,-1482.5 43,-1482.5"/>
<text text-anchor="start" x="50" y="-1493.9" font-family="Arial" font-size="14.00" fill="#000000">cash_account_code_prefix </text>
<text text-anchor="start" x="220.3954" y="-1493.9" font-family="Arial" font-size="14.00" fill="#666666">[varchar]</text>
<polygon fill="none" stroke="#000000" points="43,-1452.5 43,-1482.5 431,-1482.5 431,-1452.5 43,-1452.5"/>
<text text-anchor="start" x="50" y="-1463.9" font-family="Arial" font-size="14.00" fill="#000000">transfer_account_code_prefix </text>
<text text-anchor="start" x="238.2804" y="-1463.9" font-family="Arial" font-size="14.00" fill="#666666">[varchar]</text>
<polygon fill="none" stroke="#000000" points="43,-1422.5 43,-1452.5 431,-1452.5 431,-1422.5 43,-1422.5"/>
<text text-anchor="start" x="50" y="-1433.9" font-family="Arial" font-size="14.00" fill="#000000">account_sale_tax_id </text>
<text text-anchor="start" x="181.4936" y="-1433.9" font-family="Arial" font-size="14.00" fill="#666666">[integer]</text>
<polygon fill="none" stroke="#000000" points="43,-1392.5 43,-1422.5 431,-1422.5 431,-1392.5 43,-1392.5"/>
<text text-anchor="start" x="50" y="-1403.9" font-family="Arial" font-size="14.00" fill="#000000">account_purchase_tax_id </text>
<text text-anchor="start" x="213.3954" y="-1403.9" font-family="Arial" font-size="14.00" fill="#666666">[integer]</text>
<polygon fill="none" stroke="#000000" points="43,-1362.5 43,-1392.5 431,-1392.5 431,-1362.5 43,-1362.5"/>
<text text-anchor="start" x="50" y="-1373.9" font-family="Arial" font-size="14.00" fill="#000000">tax_cash_basis_journal_id </text>
<text text-anchor="start" x="218.8246" y="-1373.9" font-family="Arial" font-size="14.00" fill="#666666">[integer]</text>
<polygon fill="none" stroke="#000000" points="43,-1332.5 43,-1362.5 431,-1362.5 431,-1332.5 43,-1332.5"/>
<text text-anchor="start" x="50" y="-1343.9" font-family="Arial" font-size="14.00" fill="#000000">tax_calculation_rounding_method </text>
<text text-anchor="start" x="263.1794" y="-1343.9" font-family="Arial" font-size="14.00" fill="#666666">[varchar]</text>
<polygon fill="none" stroke="#000000" points="43,-1302.5 43,-1332.5 431,-1332.5 431,-1302.5 43,-1302.5"/>
<text text-anchor="start" x="50" y="-1313.9" font-family="Arial" font-size="14.00" fill="#000000">currency_exchange_journal_id </text>
<text text-anchor="start" x="244.4964" y="-1313.9" font-family="Arial" font-size="14.00" fill="#666666">[integer]</text>
<polygon fill="none" stroke="#000000" points="43,-1272.5 43,-1302.5 431,-1302.5 431,-1272.5 43,-1272.5"/>
<text text-anchor="start" x="50" y="-1283.9" font-family="Arial" font-size="14.00" fill="#000000">anglo_saxon_accounting </text>
<text text-anchor="start" x="208.7334" y="-1283.9" font-family="Arial" font-size="14.00" fill="#666666">[boolean]</text>
<polygon fill="none" stroke="#000000" points="43,-1242.5 43,-1272.5 431,-1272.5 431,-1242.5 43,-1242.5"/>
<text text-anchor="start" x="50" y="-1253.9" font-family="Arial" font-size="14.00" fill="#000000">property_stock_account_input_categ_id </text>
<text text-anchor="start" x="301.3126" y="-1253.9" font-family="Arial" font-size="14.00" fill="#666666">[integer]</text>
<polygon fill="none" stroke="#000000" points="43,-1212.5 43,-1242.5 431,-1242.5 431,-1212.5 43,-1212.5"/>
<text text-anchor="start" x="50" y="-1223.9" font-family="Arial" font-size="14.00" fill="#000000">property_stock_account_output_categ_id </text>
<text text-anchor="start" x="309.8792" y="-1223.9" font-family="Arial" font-size="14.00" fill="#666666">[integer]</text>
<polygon fill="none" stroke="#000000" points="43,-1182.5 43,-1212.5 431,-1212.5 431,-1182.5 43,-1182.5"/>
<text text-anchor="start" x="50" y="-1193.9" font-family="Arial" font-size="14.00" fill="#000000">property_stock_valuation_account_id </text>
<text text-anchor="start" x="284.9634" y="-1193.9" font-family="Arial" font-size="14.00" fill="#666666">[integer]</text>
<polygon fill="none" stroke="#000000" points="43,-1152.5 43,-1182.5 431,-1182.5 431,-1152.5 43,-1152.5"/>
<text text-anchor="start" x="50" y="-1163.9" font-family="Arial" font-size="14.00" fill="#000000">overdue_msg </text>
<text text-anchor="start" x="138.69" y="-1163.9" font-family="Arial" font-size="14.00" fill="#666666">[text]</text>
<polygon fill="none" stroke="#000000" points="43,-1122.5 43,-1152.5 431,-1152.5 431,-1122.5 43,-1122.5"/>
<text text-anchor="start" x="50" y="-1133.9" font-family="Arial" font-size="14.00" fill="#000000">tax_exigibility </text>
<text text-anchor="start" x="137.1178" y="-1133.9" font-family="Arial" font-size="14.00" fill="#666666">[boolean]</text>
<polygon fill="none" stroke="#000000" points="43,-1092.5 43,-1122.5 431,-1122.5 431,-1092.5 43,-1092.5"/>
<text text-anchor="start" x="50" y="-1103.9" font-family="Arial" font-size="14.00" fill="#000000">account_bank_reconciliation_start </text>
<text text-anchor="start" x="265.5048" y="-1103.9" font-family="Arial" font-size="14.00" fill="#666666">[date]</text>
<polygon fill="none" stroke="#000000" points="43,-1062.5 43,-1092.5 431,-1092.5 431,-1062.5 43,-1062.5"/>
<text text-anchor="start" x="50" y="-1073.9" font-family="Arial" font-size="14.00" fill="#000000">incoterm_id </text>
<text text-anchor="start" x="126.2286" y="-1073.9" font-family="Arial" font-size="14.00" fill="#666666">[integer]</text>
<polygon fill="none" stroke="#000000" points="43,-1032.5 43,-1062.5 431,-1062.5 431,-1032.5 43,-1032.5"/>
<text text-anchor="start" x="50" y="-1043.9" font-family="Arial" font-size="14.00" fill="#000000">invoice_reference_type </text>
<text text-anchor="start" x="198.5974" y="-1043.9" font-family="Arial" font-size="14.00" fill="#666666">[varchar]</text>
<polygon fill="none" stroke="#000000" points="43,-1002.5 43,-1032.5 431,-1032.5 431,-1002.5 43,-1002.5"/>
<text text-anchor="start" x="50" y="-1013.9" font-family="Arial" font-size="14.00" fill="#000000">qr_code </text>
<text text-anchor="start" x="104.4642" y="-1013.9" font-family="Arial" font-size="14.00" fill="#666666">[boolean]</text>
<polygon fill="none" stroke="#000000" points="43,-972.5 43,-1002.5 431,-1002.5 431,-972.5 43,-972.5"/>
<text text-anchor="start" x="50" y="-983.9" font-family="Arial" font-size="14.00" fill="#000000">invoice_is_email </text>
<text text-anchor="start" x="156.5624" y="-983.9" font-family="Arial" font-size="14.00" fill="#666666">[boolean]</text>
<polygon fill="none" stroke="#000000" points="43,-942.5 43,-972.5 431,-972.5 431,-942.5 43,-942.5"/>
<text text-anchor="start" x="50" y="-953.9" font-family="Arial" font-size="14.00" fill="#000000">invoice_is_print </text>
<text text-anchor="start" x="150.3464" y="-953.9" font-family="Arial" font-size="14.00" fill="#666666">[boolean]</text>
<polygon fill="none" stroke="#000000" points="43,-912.5 43,-942.5 431,-942.5 431,-912.5 43,-912.5"/>
<text text-anchor="start" x="50" y="-923.9" font-family="Arial" font-size="14.00" fill="#000000">account_opening_move_id </text>
<text text-anchor="start" x="221.1766" y="-923.9" font-family="Arial" font-size="14.00" fill="#666666">[integer]</text>
<polygon fill="none" stroke="#000000" points="43,-882.5 43,-912.5 431,-912.5 431,-882.5 43,-882.5"/>
<text text-anchor="start" x="50" y="-893.9" font-family="Arial" font-size="14.00" fill="#000000">account_setup_bank_data_state </text>
<text text-anchor="start" x="256.213" y="-893.9" font-family="Arial" font-size="14.00" fill="#666666">[varchar]</text>
<polygon fill="none" stroke="#000000" points="43,-852.5 43,-882.5 431,-882.5 431,-852.5 43,-852.5"/>
<text text-anchor="start" x="50" y="-863.9" font-family="Arial" font-size="14.00" fill="#000000">account_setup_fy_data_state </text>
<text text-anchor="start" x="236.7558" y="-863.9" font-family="Arial" font-size="14.00" fill="#666666">[varchar]</text>
<polygon fill="none" stroke="#000000" points="43,-822.5 43,-852.5 431,-852.5 431,-822.5 43,-822.5"/>
<text text-anchor="start" x="50" y="-833.9" font-family="Arial" font-size="14.00" fill="#000000">account_setup_coa_state </text>
<text text-anchor="start" x="213.4094" y="-833.9" font-family="Arial" font-size="14.00" fill="#666666">[varchar]</text>
<polygon fill="none" stroke="#000000" points="43,-792.5 43,-822.5 431,-822.5 431,-792.5 43,-792.5"/>
<text text-anchor="start" x="50" y="-803.9" font-family="Arial" font-size="14.00" fill="#000000">account_onboarding_invoice_layout_state </text>
<text text-anchor="start" x="315.3224" y="-803.9" font-family="Arial" font-size="14.00" fill="#666666">[varchar]</text>
<polygon fill="none" stroke="#000000" points="43,-762.5 43,-792.5 431,-792.5 431,-762.5 43,-762.5"/>
<text text-anchor="start" x="50" y="-773.9" font-family="Arial" font-size="14.00" fill="#000000">account_onboarding_sample_invoice_state </text>
<text text-anchor="start" x="323.0924" y="-773.9" font-family="Arial" font-size="14.00" fill="#666666">[varchar]</text>
<polygon fill="none" stroke="#000000" points="43,-732.5 43,-762.5 431,-762.5 431,-732.5 43,-732.5"/>
<text text-anchor="start" x="50" y="-743.9" font-family="Arial" font-size="14.00" fill="#000000">account_onboarding_sale_tax_state </text>
<text text-anchor="start" x="278.7614" y="-743.9" font-family="Arial" font-size="14.00" fill="#666666">[varchar]</text>
<polygon fill="none" stroke="#000000" points="43,-702.5 43,-732.5 431,-732.5 431,-702.5 43,-702.5"/>
<text text-anchor="start" x="50" y="-713.9" font-family="Arial" font-size="14.00" fill="#000000">account_invoice_onboarding_state </text>
<text text-anchor="start" x="270.1948" y="-713.9" font-family="Arial" font-size="14.00" fill="#666666">[varchar]</text>
<polygon fill="none" stroke="#000000" points="43,-672.5 43,-702.5 431,-702.5 431,-672.5 43,-672.5"/>
<text text-anchor="start" x="50" y="-683.9" font-family="Arial" font-size="14.00" fill="#000000">account_dashboard_onboarding_state </text>
<text text-anchor="start" x="292.7726" y="-683.9" font-family="Arial" font-size="14.00" fill="#666666">[varchar]</text>
<polygon fill="none" stroke="#000000" points="43,-642.5 43,-672.5 431,-672.5 431,-642.5 43,-642.5"/>
<text text-anchor="start" x="50" y="-653.9" font-family="Arial" font-size="14.00" fill="#000000">payment_acquirer_onboarding_state </text>
<text text-anchor="start" x="281.8526" y="-653.9" font-family="Arial" font-size="14.00" fill="#666666">[varchar]</text>
<polygon fill="none" stroke="#000000" points="43,-612.5 43,-642.5 431,-642.5 431,-612.5 43,-612.5"/>
<text text-anchor="start" x="50" y="-623.9" font-family="Arial" font-size="14.00" fill="#000000">payment_onboarding_payment_method </text>
<text text-anchor="start" x="301.3112" y="-623.9" font-family="Arial" font-size="14.00" fill="#666666">[varchar]</text>
<polygon fill="none" stroke="#000000" points="43,-582.5 43,-612.5 431,-612.5 431,-582.5 43,-582.5"/>
<text text-anchor="start" x="50" y="-593.9" font-family="Arial" font-size="14.00" fill="#000000">invoice_is_snailmail </text>
<text text-anchor="start" x="177.5582" y="-593.9" font-family="Arial" font-size="14.00" fill="#666666">[boolean]</text>
<polygon fill="none" stroke="#000000" points="43,-552.5 43,-582.5 431,-582.5 431,-552.5 43,-552.5"/>
<text text-anchor="start" x="50" y="-563.9" font-family="Arial" font-size="14.00" fill="#000000">sale_note </text>
<text text-anchor="start" x="114.5834" y="-563.9" font-family="Arial" font-size="14.00" fill="#666666">[text]</text>
<polygon fill="none" stroke="#000000" points="43,-522.5 43,-552.5 431,-552.5 431,-522.5 43,-522.5"/>
<text text-anchor="start" x="50" y="-533.9" font-family="Arial" font-size="14.00" fill="#000000">portal_confirmation_sign </text>
<text text-anchor="start" x="206.3618" y="-533.9" font-family="Arial" font-size="14.00" fill="#666666">[boolean]</text>
<polygon fill="none" stroke="#000000" points="43,-492.5 43,-522.5 431,-522.5 431,-492.5 43,-492.5"/>
<text text-anchor="start" x="50" y="-503.9" font-family="Arial" font-size="14.00" fill="#000000">portal_confirmation_pay </text>
<text text-anchor="start" x="203.2552" y="-503.9" font-family="Arial" font-size="14.00" fill="#666666">[boolean]</text>
<polygon fill="none" stroke="#000000" points="43,-462.5 43,-492.5 431,-492.5 431,-462.5 43,-462.5"/>
<text text-anchor="start" x="50" y="-473.9" font-family="Arial" font-size="14.00" fill="#000000">quotation_validity_days </text>
<text text-anchor="start" x="199.38" y="-473.9" font-family="Arial" font-size="14.00" fill="#666666">[integer]</text>
<polygon fill="none" stroke="#000000" points="43,-432.5 43,-462.5 431,-462.5 431,-432.5 43,-432.5"/>
<text text-anchor="start" x="50" y="-443.9" font-family="Arial" font-size="14.00" fill="#000000">sale_quotation_onboarding_state </text>
<text text-anchor="start" x="260.868" y="-443.9" font-family="Arial" font-size="14.00" fill="#666666">[varchar]</text>
<polygon fill="none" stroke="#000000" points="43,-402.5 43,-432.5 431,-432.5 431,-402.5 43,-402.5"/>
<text text-anchor="start" x="50" y="-413.9" font-family="Arial" font-size="14.00" fill="#000000">sale_onboarding_order_confirmation_state </text>
<text text-anchor="start" x="319.9648" y="-413.9" font-family="Arial" font-size="14.00" fill="#666666">[varchar]</text>
<polygon fill="none" stroke="#000000" points="43,-372.5 43,-402.5 431,-402.5 431,-372.5 43,-372.5"/>
<text text-anchor="start" x="50" y="-383.9" font-family="Arial" font-size="14.00" fill="#000000">sale_onboarding_sample_quotation_state </text>
<text text-anchor="start" x="313.7656" y="-383.9" font-family="Arial" font-size="14.00" fill="#666666">[varchar]</text>
<polygon fill="none" stroke="#000000" points="43,-342.5 43,-372.5 431,-372.5 431,-342.5 43,-342.5"/>
<text text-anchor="start" x="50" y="-353.9" font-family="Arial" font-size="14.00" fill="#000000">sale_onboarding_payment_method </text>
<text text-anchor="start" x="273.3014" y="-353.9" font-family="Arial" font-size="14.00" fill="#666666">[varchar]</text>
<polygon fill="none" stroke="#000000" points="43,-312.5 43,-342.5 431,-342.5 431,-312.5 43,-312.5"/>
<text text-anchor="start" x="49.5043" y="-323.9" font-family="Arial" font-size="14.00" fill="#000000">website_sale_onboarding_payment_acquirer_state </text>
<text text-anchor="start" x="370.0455" y="-323.9" font-family="Arial" font-size="14.00" fill="#666666">[varchar]</text>
<polygon fill="none" stroke="#000000" points="43,-282.5 43,-312.5 431,-312.5 431,-282.5 43,-282.5"/>
<text text-anchor="start" x="50" y="-293.9" font-family="Arial" font-size="14.00" fill="#000000">nomenclature_id </text>
<text text-anchor="start" x="157.359" y="-293.9" font-family="Arial" font-size="14.00" fill="#666666">[integer]</text>
<polygon fill="none" stroke="#000000" points="43,-252.5 43,-282.5 431,-282.5 431,-252.5 43,-252.5"/>
<text text-anchor="start" x="50" y="-263.9" font-family="Arial" font-size="14.00" fill="#000000">propagation_minimum_delta </text>
<text text-anchor="start" x="230.4796" y="-263.9" font-family="Arial" font-size="14.00" fill="#666666">[integer]</text>
<polygon fill="none" stroke="#000000" points="43,-222.5 43,-252.5 431,-252.5 431,-222.5 43,-222.5"/>
<text text-anchor="start" x="50" y="-233.9" font-family="Arial" font-size="14.00" fill="#000000">internal_transit_location_id </text>
<text text-anchor="start" x="220.3702" y="-233.9" font-family="Arial" font-size="14.00" fill="#666666">[integer]</text>
<polygon fill="none" stroke="#000000" points="43,-192.5 43,-222.5 431,-222.5 431,-192.5 43,-192.5"/>
<text text-anchor="start" x="50" y="-203.9" font-family="Arial" font-size="14.00" fill="#000000">security_lead </text>
<text text-anchor="start" x="136.3506" y="-203.9" font-family="Arial" font-size="14.00" fill="#666666">[double precision]</text>
<polygon fill="none" stroke="#000000" points="43,-162.5 43,-192.5 431,-192.5 431,-162.5 43,-162.5"/>
<text text-anchor="start" x="50" y="-173.9" font-family="Arial" font-size="14.00" fill="#000000">po_lead </text>
<text text-anchor="start" x="103.6928" y="-173.9" font-family="Arial" font-size="14.00" fill="#666666">[double precision]</text>
<polygon fill="none" stroke="#000000" points="43,-132.5 43,-162.5 431,-162.5 431,-132.5 43,-132.5"/>
<text text-anchor="start" x="50" y="-143.9" font-family="Arial" font-size="14.00" fill="#000000">po_lock </text>
<text text-anchor="start" x="102.1276" y="-143.9" font-family="Arial" font-size="14.00" fill="#666666">[varchar]</text>
<polygon fill="none" stroke="#000000" points="43,-102.5 43,-132.5 431,-132.5 431,-102.5 43,-102.5"/>
<text text-anchor="start" x="50" y="-113.9" font-family="Arial" font-size="14.00" fill="#000000">po_double_validation </text>
<text text-anchor="start" x="186.164" y="-113.9" font-family="Arial" font-size="14.00" fill="#666666">[varchar]</text>
<polygon fill="none" stroke="#000000" points="43,-72.5 43,-102.5 431,-102.5 431,-72.5 43,-72.5"/>
<text text-anchor="start" x="50" y="-83.9" font-family="Arial" font-size="14.00" fill="#000000">po_double_validation_amount </text>
<text text-anchor="start" x="240.6282" y="-83.9" font-family="Arial" font-size="14.00" fill="#666666">[numeric]</text>
<polygon fill="none" stroke="#000000" points="43,-42.5 43,-72.5 431,-72.5 431,-42.5 43,-42.5"/>
<text text-anchor="start" x="50" y="-53.9" font-family="Arial" font-size="14.00" fill="#000000">manufacturing_lead </text>
<text text-anchor="start" x="176.8148" y="-53.9" font-family="Arial" font-size="14.00" fill="#666666">[double precision]</text>
</g>
<!-- public.account_fiscal_year&#45;&gt;public.res_company -->
<g id="edge1" class="edge">
<title>public.account_fiscal_year:company_id&#45;&gt;public.res_company:id</title>
<path fill="none" stroke="#000000" d="M502.144,-2975.183C446.6926,-2946.815 498.586,-2667.5 431,-2667.5"/>
<polygon fill="#000000" stroke="#000000" points="502.2654,-2975.2114 510.9701,-2981.8806 507.1327,-2976.3557 512,-2977.5 512,-2977.5 512,-2977.5 507.1327,-2976.3557 513.0299,-2973.1194 502.2654,-2975.2114 502.2654,-2975.2114"/>
<text text-anchor="start" x="114.9875" y="-2987.5" font-family="Arial" font-size="10.00" fill="#000000">FOREIGN KEY (company_id) REFERENCES res_company(id) ON DELETE SET NULL</text>
</g>
<!-- public.res_users -->
<g id="node3" class="node">
<title>public.res_users</title>
<polygon fill="#efefef" stroke="transparent" points="535,-1692.5 535,-1727.5 811,-1727.5 811,-1692.5 535,-1692.5"/>
<polygon fill="none" stroke="#000000" points="535,-1692.5 535,-1727.5 811,-1727.5 811,-1692.5 535,-1692.5"/>
<text text-anchor="start" x="558.8639" y="-1705.3" font-family="Arial Bold" font-size="18.00" fill="#000000">public.res_users</text>
<text text-anchor="start" x="689.8823" y="-1705.3" font-family="Arial" font-size="14.00" fill="#000000"> </text>
<text text-anchor="start" x="693.7729" y="-1705.3" font-family="Arial" font-size="14.00" fill="#666666">[BASE TABLE]</text>
<polygon fill="none" stroke="#000000" points="535,-1662.5 535,-1692.5 811,-1692.5 811,-1662.5 535,-1662.5"/>
<text text-anchor="start" x="542" y="-1673.9" font-family="Arial" font-size="14.00" fill="#000000">id </text>
<text text-anchor="start" x="556.7798" y="-1673.9" font-family="Arial" font-size="14.00" fill="#666666">[integer]</text>
<polygon fill="none" stroke="#000000" points="535,-1632.5 535,-1662.5 811,-1662.5 811,-1632.5 535,-1632.5"/>
<text text-anchor="start" x="542" y="-1643.9" font-family="Arial" font-size="14.00" fill="#000000">active </text>
<text text-anchor="start" x="582.453" y="-1643.9" font-family="Arial" font-size="14.00" fill="#666666">[boolean]</text>
<polygon fill="none" stroke="#000000" points="535,-1602.5 535,-1632.5 811,-1632.5 811,-1602.5 535,-1602.5"/>
<text text-anchor="start" x="542" y="-1613.9" font-family="Arial" font-size="14.00" fill="#000000">login </text>
<text text-anchor="start" x="575.4516" y="-1613.9" font-family="Arial" font-size="14.00" fill="#666666">[varchar]</text>
<polygon fill="none" stroke="#000000" points="535,-1572.5 535,-1602.5 811,-1602.5 811,-1572.5 535,-1572.5"/>
<text text-anchor="start" x="542" y="-1583.9" font-family="Arial" font-size="14.00" fill="#000000">password </text>
<text text-anchor="start" x="605.7882" y="-1583.9" font-family="Arial" font-size="14.00" fill="#666666">[varchar]</text>
<polygon fill="none" stroke="#000000" points="535,-1542.5 535,-1572.5 811,-1572.5 811,-1542.5 535,-1542.5"/>
<text text-anchor="start" x="542" y="-1553.9" font-family="Arial" font-size="14.00" fill="#000000">company_id </text>
<text text-anchor="start" x="621.3534" y="-1553.9" font-family="Arial" font-size="14.00" fill="#666666">[integer]</text>
<polygon fill="none" stroke="#000000" points="535,-1512.5 535,-1542.5 811,-1542.5 811,-1512.5 535,-1512.5"/>
<text text-anchor="start" x="542" y="-1523.9" font-family="Arial" font-size="14.00" fill="#000000">partner_id </text>
<text text-anchor="start" x="608.9046" y="-1523.9" font-family="Arial" font-size="14.00" fill="#666666">[integer]</text>
<polygon fill="none" stroke="#000000" points="535,-1482.5 535,-1512.5 811,-1512.5 811,-1482.5 535,-1482.5"/>
<text text-anchor="start" x="541.5246" y="-1493.9" font-family="Arial" font-size="14.00" fill="#000000">create_date </text>
<text text-anchor="start" x="619.3352" y="-1493.9" font-family="Arial" font-size="14.00" fill="#666666">[timestamp without time zone]</text>
<polygon fill="none" stroke="#000000" points="535,-1452.5 535,-1482.5 811,-1482.5 811,-1452.5 535,-1452.5"/>
<text text-anchor="start" x="542" y="-1463.9" font-family="Arial" font-size="14.00" fill="#000000">signature </text>
<text text-anchor="start" x="603.4614" y="-1463.9" font-family="Arial" font-size="14.00" fill="#666666">[text]</text>
<polygon fill="none" stroke="#000000" points="535,-1422.5 535,-1452.5 811,-1452.5 811,-1422.5 535,-1422.5"/>
<text text-anchor="start" x="542" y="-1433.9" font-family="Arial" font-size="14.00" fill="#000000">action_id </text>
<text text-anchor="start" x="601.9074" y="-1433.9" font-family="Arial" font-size="14.00" fill="#666666">[integer]</text>
<polygon fill="none" stroke="#000000" points="535,-1392.5 535,-1422.5 811,-1422.5 811,-1392.5 535,-1392.5"/>
<text text-anchor="start" x="542" y="-1403.9" font-family="Arial" font-size="14.00" fill="#000000">share </text>
<text text-anchor="start" x="580.899" y="-1403.9" font-family="Arial" font-size="14.00" fill="#666666">[boolean]</text>
<polygon fill="none" stroke="#000000" points="535,-1362.5 535,-1392.5 811,-1392.5 811,-1362.5 535,-1362.5"/>
<text text-anchor="start" x="542" y="-1373.9" font-family="Arial" font-size="14.00" fill="#000000">create_uid </text>
<text text-anchor="start" x="611.244" y="-1373.9" font-family="Arial" font-size="14.00" fill="#666666">[integer]</text>
<polygon fill="none" stroke="#000000" points="535,-1332.5 535,-1362.5 811,-1362.5 811,-1332.5 535,-1332.5"/>
<text text-anchor="start" x="542" y="-1343.9" font-family="Arial" font-size="14.00" fill="#000000">write_uid </text>
<text text-anchor="start" x="601.892" y="-1343.9" font-family="Arial" font-size="14.00" fill="#666666">[integer]</text>
<polygon fill="none" stroke="#000000" points="535,-1302.5 535,-1332.5 811,-1332.5 811,-1302.5 535,-1302.5"/>
<text text-anchor="start" x="542" y="-1313.9" font-family="Arial" font-size="14.00" fill="#000000">write_date </text>
<text text-anchor="start" x="610.4586" y="-1313.9" font-family="Arial" font-size="14.00" fill="#666666">[timestamp without time zone]</text>
<polygon fill="none" stroke="#000000" points="535,-1272.5 535,-1302.5 811,-1302.5 811,-1272.5 535,-1272.5"/>
<text text-anchor="start" x="542" y="-1283.9" font-family="Arial" font-size="14.00" fill="#000000">alias_id </text>
<text text-anchor="start" x="593.3408" y="-1283.9" font-family="Arial" font-size="14.00" fill="#666666">[integer]</text>
<polygon fill="none" stroke="#000000" points="535,-1242.5 535,-1272.5 811,-1272.5 811,-1242.5 535,-1242.5"/>
<text text-anchor="start" x="542" y="-1253.9" font-family="Arial" font-size="14.00" fill="#000000">notification_type </text>
<text text-anchor="start" x="647.0336" y="-1253.9" font-family="Arial" font-size="14.00" fill="#666666">[varchar]</text>
<polygon fill="none" stroke="#000000" points="535,-1212.5 535,-1242.5 811,-1242.5 811,-1212.5 535,-1212.5"/>
<text text-anchor="start" x="542" y="-1223.9" font-family="Arial" font-size="14.00" fill="#000000">odoobot_state </text>
<text text-anchor="start" x="634.6058" y="-1223.9" font-family="Arial" font-size="14.00" fill="#666666">[varchar]</text>
<polygon fill="none" stroke="#000000" points="535,-1182.5 535,-1212.5 811,-1212.5 811,-1182.5 535,-1182.5"/>
<text text-anchor="start" x="542" y="-1193.9" font-family="Arial" font-size="14.00" fill="#000000">sale_team_id </text>
<text text-anchor="start" x="629.1332" y="-1193.9" font-family="Arial" font-size="14.00" fill="#666666">[integer]</text>
<polygon fill="none" stroke="#000000" points="535,-1152.5 535,-1182.5 811,-1182.5 811,-1152.5 535,-1152.5"/>
<text text-anchor="start" x="542" y="-1163.9" font-family="Arial" font-size="14.00" fill="#000000">target_sales_won </text>
<text text-anchor="start" x="655.589" y="-1163.9" font-family="Arial" font-size="14.00" fill="#666666">[integer]</text>
<polygon fill="none" stroke="#000000" points="535,-1122.5 535,-1152.5 811,-1152.5 811,-1122.5 535,-1122.5"/>
<text text-anchor="start" x="542" y="-1133.9" font-family="Arial" font-size="14.00" fill="#000000">target_sales_done </text>
<text text-anchor="start" x="661.0476" y="-1133.9" font-family="Arial" font-size="14.00" fill="#666666">[integer]</text>
<polygon fill="none" stroke="#000000" points="535,-1092.5 535,-1122.5 811,-1122.5 811,-1092.5 535,-1092.5"/>
<text text-anchor="start" x="542" y="-1103.9" font-family="Arial" font-size="14.00" fill="#000000">website_id </text>
<text text-anchor="start" x="612.014" y="-1103.9" font-family="Arial" font-size="14.00" fill="#666666">[integer]</text>
<polygon fill="none" stroke="#000000" points="535,-1062.5 535,-1092.5 811,-1092.5 811,-1062.5 535,-1062.5"/>
<text text-anchor="start" x="542" y="-1073.9" font-family="Arial" font-size="14.00" fill="#000000">target_sales_invoiced </text>
<text text-anchor="start" x="681.2608" y="-1073.9" font-family="Arial" font-size="14.00" fill="#666666">[integer]</text>
<polygon fill="none" stroke="#000000" points="535,-1032.5 535,-1062.5 811,-1062.5 811,-1032.5 535,-1032.5"/>
<text text-anchor="start" x="542" y="-1043.9" font-family="Arial" font-size="14.00" fill="#000000">pos_security_pin </text>
<text text-anchor="start" x="650.9158" y="-1043.9" font-family="Arial" font-size="14.00" fill="#666666">[varchar(32)]</text>
</g>
<!-- public.account_fiscal_year&#45;&gt;public.res_users -->
<g id="edge2" class="edge">
<title>public.account_fiscal_year:create_uid&#45;&gt;public.res_users:id</title>
<path fill="none" stroke="#000000" d="M842.214,-2941.2658C902.6004,-2845.4568 878.6728,-1677.5 811,-1677.5"/>
<polygon fill="#000000" stroke="#000000" points="841.9656,-2941.4543 831.2794,-2943.9155 837.9828,-2944.4772 834,-2947.5 834,-2947.5 834,-2947.5 837.9828,-2944.4772 836.7206,-2951.0845 841.9656,-2941.4543 841.9656,-2941.4543"/>
<text text-anchor="start" x="840.657" y="-2957.5" font-family="Arial" font-size="10.00" fill="#000000">FOREIGN KEY (create_uid) REFERENCES res_users(id) ON DELETE SET NULL</text>
</g>
<!-- public.account_fiscal_year&#45;&gt;public.res_users -->
<g id="edge3" class="edge">
<title>public.account_fiscal_year:write_uid&#45;&gt;public.res_users:id</title>
<path fill="none" stroke="#000000" d="M841.996,-2881.2783C899.2247,-2788.0126 875.411,-1677.5 811,-1677.5"/>
<polygon fill="#000000" stroke="#000000" points="841.8923,-2881.3589 831.2365,-2883.9485 837.9461,-2884.4295 834,-2887.5 834,-2887.5 834,-2887.5 837.9461,-2884.4295 836.7635,-2891.0515 841.8923,-2881.3589 841.8923,-2881.3589"/>
<text text-anchor="start" x="840.997" y="-2897.5" font-family="Arial" font-size="10.00" fill="#000000">FOREIGN KEY (write_uid) REFERENCES res_users(id) ON DELETE SET NULL</text>
</g>
</g>
</svg>
