<?xml version="1.0" encoding="UTF-8" standalone="no"?>
<!DOCTYPE svg PUBLIC "-//W3C//DTD SVG 1.1//EN"
 "http://www.w3.org/Graphics/SVG/1.1/DTD/svg11.dtd">
<!-- Generated by graphviz version 2.40.1 (20161225.0304)
 -->
<!-- Title: public.report_layout Pages: 1 -->
<svg width="1087pt" height="1222pt"
 viewBox="0.00 0.00 1087.00 1222.00" xmlns="http://www.w3.org/2000/svg" xmlns:xlink="http://www.w3.org/1999/xlink">
<g id="graph0" class="graph" transform="scale(1 1) rotate(0) translate(4 1218)">
<title>public.report_layout</title>
<polygon fill="#ffffff" stroke="transparent" points="-4,4 -4,-1218 1083,-1218 1083,4 -4,4"/>
<!-- public.report_layout -->
<g id="node1" class="node">
<title>public.report_layout</title>
<polygon fill="#efefef" stroke="transparent" points="423,-1132.5 423,-1167.5 699,-1167.5 699,-1132.5 423,-1132.5"/>
<polygon fill="none" stroke="#000000" points="423,-1132.5 423,-1167.5 699,-1167.5 699,-1132.5 423,-1132.5"/>
<text text-anchor="start" x="433.8553" y="-1145.3" font-family="Arial Bold" font-size="18.00" fill="#000000">public.report_layout</text>
<text text-anchor="start" x="590.8909" y="-1145.3" font-family="Arial" font-size="14.00" fill="#000000"> </text>
<text text-anchor="start" x="594.7815" y="-1145.3" font-family="Arial" font-size="14.00" fill="#666666">[BASE TABLE]</text>
<polygon fill="none" stroke="#000000" points="423,-1102.5 423,-1132.5 699,-1132.5 699,-1102.5 423,-1102.5"/>
<text text-anchor="start" x="430" y="-1113.9" font-family="Arial" font-size="14.00" fill="#000000">id </text>
<text text-anchor="start" x="444.7798" y="-1113.9" font-family="Arial" font-size="14.00" fill="#666666">[integer]</text>
<polygon fill="none" stroke="#000000" points="423,-1072.5 423,-1102.5 699,-1102.5 699,-1072.5 423,-1072.5"/>
<text text-anchor="start" x="430" y="-1083.9" font-family="Arial" font-size="14.00" fill="#000000">view_id </text>
<text text-anchor="start" x="480.5582" y="-1083.9" font-family="Arial" font-size="14.00" fill="#666666">[integer]</text>
<polygon fill="none" stroke="#000000" points="423,-1042.5 423,-1072.5 699,-1072.5 699,-1042.5 423,-1042.5"/>
<text text-anchor="start" x="430" y="-1053.9" font-family="Arial" font-size="14.00" fill="#000000">image </text>
<text text-anchor="start" x="472.0056" y="-1053.9" font-family="Arial" font-size="14.00" fill="#666666">[varchar]</text>
<polygon fill="none" stroke="#000000" points="423,-1012.5 423,-1042.5 699,-1042.5 699,-1012.5 423,-1012.5"/>
<text text-anchor="start" x="430" y="-1023.9" font-family="Arial" font-size="14.00" fill="#000000">pdf </text>
<text text-anchor="start" x="453.3464" y="-1023.9" font-family="Arial" font-size="14.00" fill="#666666">[varchar]</text>
<polygon fill="none" stroke="#000000" points="423,-982.5 423,-1012.5 699,-1012.5 699,-982.5 423,-982.5"/>
<text text-anchor="start" x="430" y="-993.9" font-family="Arial" font-size="14.00" fill="#000000">create_uid </text>
<text text-anchor="start" x="499.244" y="-993.9" font-family="Arial" font-size="14.00" fill="#666666">[integer]</text>
<polygon fill="none" stroke="#000000" points="423,-952.5 423,-982.5 699,-982.5 699,-952.5 423,-952.5"/>
<text text-anchor="start" x="429.5246" y="-963.9" font-family="Arial" font-size="14.00" fill="#000000">create_date </text>
<text text-anchor="start" x="507.3352" y="-963.9" font-family="Arial" font-size="14.00" fill="#666666">[timestamp without time zone]</text>
<polygon fill="none" stroke="#000000" points="423,-922.5 423,-952.5 699,-952.5 699,-922.5 423,-922.5"/>
<text text-anchor="start" x="430" y="-933.9" font-family="Arial" font-size="14.00" fill="#000000">write_uid </text>
<text text-anchor="start" x="489.892" y="-933.9" font-family="Arial" font-size="14.00" fill="#666666">[integer]</text>
<polygon fill="none" stroke="#000000" points="423,-892.5 423,-922.5 699,-922.5 699,-892.5 423,-892.5"/>
<text text-anchor="start" x="430" y="-903.9" font-family="Arial" font-size="14.00" fill="#000000">write_date </text>
<text text-anchor="start" x="498.4586" y="-903.9" font-family="Arial" font-size="14.00" fill="#666666">[timestamp without time zone]</text>
<polygon fill="none" stroke="#000000" stroke-width="3" points="421.5,-891.5 421.5,-1169.5 700.5,-1169.5 700.5,-891.5 421.5,-891.5"/>
</g>
<!-- public.ir_ui_view -->
<g id="node2" class="node">
<title>public.ir_ui_view</title>
<polygon fill="#efefef" stroke="transparent" points="43,-732.5 43,-767.5 319,-767.5 319,-732.5 43,-732.5"/>
<polygon fill="none" stroke="#000000" points="43,-732.5 43,-767.5 319,-767.5 319,-732.5 43,-732.5"/>
<text text-anchor="start" x="66.3716" y="-745.3" font-family="Arial Bold" font-size="18.00" fill="#000000">public.ir_ui_view</text>
<text text-anchor="start" x="198.3746" y="-745.3" font-family="Arial" font-size="14.00" fill="#000000"> </text>
<text text-anchor="start" x="202.2652" y="-745.3" font-family="Arial" font-size="14.00" fill="#666666">[BASE TABLE]</text>
<polygon fill="none" stroke="#000000" points="43,-702.5 43,-732.5 319,-732.5 319,-702.5 43,-702.5"/>
<text text-anchor="start" x="50" y="-713.9" font-family="Arial" font-size="14.00" fill="#000000">id </text>
<text text-anchor="start" x="64.7798" y="-713.9" font-family="Arial" font-size="14.00" fill="#666666">[integer]</text>
<polygon fill="none" stroke="#000000" points="43,-672.5 43,-702.5 319,-702.5 319,-672.5 43,-672.5"/>
<text text-anchor="start" x="50" y="-683.9" font-family="Arial" font-size="14.00" fill="#000000">name </text>
<text text-anchor="start" x="88.899" y="-683.9" font-family="Arial" font-size="14.00" fill="#666666">[varchar]</text>
<polygon fill="none" stroke="#000000" points="43,-642.5 43,-672.5 319,-672.5 319,-642.5 43,-642.5"/>
<text text-anchor="start" x="50" y="-653.9" font-family="Arial" font-size="14.00" fill="#000000">model </text>
<text text-anchor="start" x="92.0056" y="-653.9" font-family="Arial" font-size="14.00" fill="#666666">[varchar]</text>
<polygon fill="none" stroke="#000000" points="43,-612.5 43,-642.5 319,-642.5 319,-612.5 43,-612.5"/>
<text text-anchor="start" x="50" y="-623.9" font-family="Arial" font-size="14.00" fill="#000000">key </text>
<text text-anchor="start" x="75.6732" y="-623.9" font-family="Arial" font-size="14.00" fill="#666666">[varchar]</text>
<polygon fill="none" stroke="#000000" points="43,-582.5 43,-612.5 319,-612.5 319,-582.5 43,-582.5"/>
<text text-anchor="start" x="50" y="-593.9" font-family="Arial" font-size="14.00" fill="#000000">priority </text>
<text text-anchor="start" x="95.8808" y="-593.9" font-family="Arial" font-size="14.00" fill="#666666">[integer]</text>
<polygon fill="none" stroke="#000000" points="43,-552.5 43,-582.5 319,-582.5 319,-552.5 43,-552.5"/>
<text text-anchor="start" x="50" y="-563.9" font-family="Arial" font-size="14.00" fill="#000000">type </text>
<text text-anchor="start" x="80.3464" y="-563.9" font-family="Arial" font-size="14.00" fill="#666666">[varchar]</text>
<polygon fill="none" stroke="#000000" points="43,-522.5 43,-552.5 319,-552.5 319,-522.5 43,-522.5"/>
<text text-anchor="start" x="50" y="-533.9" font-family="Arial" font-size="14.00" fill="#000000">arch_db </text>
<text text-anchor="start" x="104.4642" y="-533.9" font-family="Arial" font-size="14.00" fill="#666666">[text]</text>
<polygon fill="none" stroke="#000000" points="43,-492.5 43,-522.5 319,-522.5 319,-492.5 43,-492.5"/>
<text text-anchor="start" x="50" y="-503.9" font-family="Arial" font-size="14.00" fill="#000000">arch_fs </text>
<text text-anchor="start" x="99.7896" y="-503.9" font-family="Arial" font-size="14.00" fill="#666666">[varchar]</text>
<polygon fill="none" stroke="#000000" points="43,-462.5 43,-492.5 319,-492.5 319,-462.5 43,-462.5"/>
<text text-anchor="start" x="50" y="-473.9" font-family="Arial" font-size="14.00" fill="#000000">inherit_id </text>
<text text-anchor="start" x="110.6746" y="-473.9" font-family="Arial" font-size="14.00" fill="#666666">[integer]</text>
<polygon fill="none" stroke="#000000" points="43,-432.5 43,-462.5 319,-462.5 319,-432.5 43,-432.5"/>
<text text-anchor="start" x="50" y="-443.9" font-family="Arial" font-size="14.00" fill="#000000">field_parent </text>
<text text-anchor="start" x="127.0238" y="-443.9" font-family="Arial" font-size="14.00" fill="#666666">[varchar]</text>
<polygon fill="none" stroke="#000000" points="43,-402.5 43,-432.5 319,-432.5 319,-402.5 43,-402.5"/>
<text text-anchor="start" x="50" y="-413.9" font-family="Arial" font-size="14.00" fill="#000000">mode </text>
<text text-anchor="start" x="88.899" y="-413.9" font-family="Arial" font-size="14.00" fill="#666666">[varchar]</text>
<polygon fill="none" stroke="#000000" points="43,-372.5 43,-402.5 319,-402.5 319,-372.5 43,-372.5"/>
<text text-anchor="start" x="50" y="-383.9" font-family="Arial" font-size="14.00" fill="#000000">active </text>
<text text-anchor="start" x="90.453" y="-383.9" font-family="Arial" font-size="14.00" fill="#666666">[boolean]</text>
<polygon fill="none" stroke="#000000" points="43,-342.5 43,-372.5 319,-372.5 319,-342.5 43,-342.5"/>
<text text-anchor="start" x="50" y="-353.9" font-family="Arial" font-size="14.00" fill="#000000">create_uid </text>
<text text-anchor="start" x="119.244" y="-353.9" font-family="Arial" font-size="14.00" fill="#666666">[integer]</text>
<polygon fill="none" stroke="#000000" points="43,-312.5 43,-342.5 319,-342.5 319,-312.5 43,-312.5"/>
<text text-anchor="start" x="49.5246" y="-323.9" font-family="Arial" font-size="14.00" fill="#000000">create_date </text>
<text text-anchor="start" x="127.3352" y="-323.9" font-family="Arial" font-size="14.00" fill="#666666">[timestamp without time zone]</text>
<polygon fill="none" stroke="#000000" points="43,-282.5 43,-312.5 319,-312.5 319,-282.5 43,-282.5"/>
<text text-anchor="start" x="50" y="-293.9" font-family="Arial" font-size="14.00" fill="#000000">write_uid </text>
<text text-anchor="start" x="109.892" y="-293.9" font-family="Arial" font-size="14.00" fill="#666666">[integer]</text>
<polygon fill="none" stroke="#000000" points="43,-252.5 43,-282.5 319,-282.5 319,-252.5 43,-252.5"/>
<text text-anchor="start" x="50" y="-263.9" font-family="Arial" font-size="14.00" fill="#000000">write_date </text>
<text text-anchor="start" x="118.4586" y="-263.9" font-family="Arial" font-size="14.00" fill="#666666">[timestamp without time zone]</text>
<polygon fill="none" stroke="#000000" points="43,-222.5 43,-252.5 319,-252.5 319,-222.5 43,-222.5"/>
<text text-anchor="start" x="50" y="-233.9" font-family="Arial" font-size="14.00" fill="#000000">website_meta_title </text>
<text text-anchor="start" x="169.8008" y="-233.9" font-family="Arial" font-size="14.00" fill="#666666">[varchar]</text>
<polygon fill="none" stroke="#000000" points="43,-192.5 43,-222.5 319,-222.5 319,-192.5 43,-192.5"/>
<text text-anchor="start" x="50" y="-203.9" font-family="Arial" font-size="14.00" fill="#000000">website_meta_description </text>
<text text-anchor="start" x="215.7012" y="-203.9" font-family="Arial" font-size="14.00" fill="#666666">[text]</text>
<polygon fill="none" stroke="#000000" points="43,-162.5 43,-192.5 319,-192.5 319,-162.5 43,-162.5"/>
<text text-anchor="start" x="50" y="-173.9" font-family="Arial" font-size="14.00" fill="#000000">website_meta_keywords </text>
<text text-anchor="start" x="207.1388" y="-173.9" font-family="Arial" font-size="14.00" fill="#666666">[varchar]</text>
<polygon fill="none" stroke="#000000" points="43,-132.5 43,-162.5 319,-162.5 319,-132.5 43,-132.5"/>
<text text-anchor="start" x="50" y="-143.9" font-family="Arial" font-size="14.00" fill="#000000">website_meta_og_img </text>
<text text-anchor="start" x="193.9214" y="-143.9" font-family="Arial" font-size="14.00" fill="#666666">[varchar]</text>
<polygon fill="none" stroke="#000000" points="43,-102.5 43,-132.5 319,-132.5 319,-102.5 43,-102.5"/>
<text text-anchor="start" x="50" y="-113.9" font-family="Arial" font-size="14.00" fill="#000000">customize_show </text>
<text text-anchor="start" x="157.3506" y="-113.9" font-family="Arial" font-size="14.00" fill="#666666">[boolean]</text>
<polygon fill="none" stroke="#000000" points="43,-72.5 43,-102.5 319,-102.5 319,-72.5 43,-72.5"/>
<text text-anchor="start" x="50" y="-83.9" font-family="Arial" font-size="14.00" fill="#000000">website_id </text>
<text text-anchor="start" x="120.014" y="-83.9" font-family="Arial" font-size="14.00" fill="#666666">[integer]</text>
<polygon fill="none" stroke="#000000" points="43,-42.5 43,-72.5 319,-72.5 319,-42.5 43,-42.5"/>
<text text-anchor="start" x="50" y="-53.9" font-family="Arial" font-size="14.00" fill="#000000">theme_template_id </text>
<text text-anchor="start" x="172.9228" y="-53.9" font-family="Arial" font-size="14.00" fill="#666666">[integer]</text>
</g>
<!-- public.report_layout&#45;&gt;public.ir_ui_view -->
<g id="edge1" class="edge">
<title>public.report_layout:view_id&#45;&gt;public.ir_ui_view:id</title>
<path fill="none" stroke="#000000" d="M412.8093,-1085.5093C343.0525,-1056.3863 400.7386,-717.5 319,-717.5"/>
<polygon fill="#000000" stroke="#000000" points="413.1855,-1085.5827 422.1372,-1091.9165 418.0928,-1086.5414 423,-1087.5 423,-1087.5 423,-1087.5 418.0928,-1086.5414 423.8628,-1083.0835 413.1855,-1085.5827 413.1855,-1085.5827"/>
<text text-anchor="start" x="63.057" y="-1097.5" font-family="Arial" font-size="10.00" fill="#000000">FOREIGN KEY (view_id) REFERENCES ir_ui_view(id) ON DELETE SET NULL</text>
</g>
<!-- public.res_users -->
<g id="node3" class="node">
<title>public.res_users</title>
<polygon fill="#efefef" stroke="transparent" points="423,-717.5 423,-752.5 699,-752.5 699,-717.5 423,-717.5"/>
<polygon fill="none" stroke="#000000" points="423,-717.5 423,-752.5 699,-752.5 699,-717.5 423,-717.5"/>
<text text-anchor="start" x="446.8639" y="-730.3" font-family="Arial Bold" font-size="18.00" fill="#000000">public.res_users</text>
<text text-anchor="start" x="577.8823" y="-730.3" font-family="Arial" font-size="14.00" fill="#000000"> </text>
<text text-anchor="start" x="581.7729" y="-730.3" font-family="Arial" font-size="14.00" fill="#666666">[BASE TABLE]</text>
<polygon fill="none" stroke="#000000" points="423,-687.5 423,-717.5 699,-717.5 699,-687.5 423,-687.5"/>
<text text-anchor="start" x="430" y="-698.9" font-family="Arial" font-size="14.00" fill="#000000">id </text>
<text text-anchor="start" x="444.7798" y="-698.9" font-family="Arial" font-size="14.00" fill="#666666">[integer]</text>
<polygon fill="none" stroke="#000000" points="423,-657.5 423,-687.5 699,-687.5 699,-657.5 423,-657.5"/>
<text text-anchor="start" x="430" y="-668.9" font-family="Arial" font-size="14.00" fill="#000000">active </text>
<text text-anchor="start" x="470.453" y="-668.9" font-family="Arial" font-size="14.00" fill="#666666">[boolean]</text>
<polygon fill="none" stroke="#000000" points="423,-627.5 423,-657.5 699,-657.5 699,-627.5 423,-627.5"/>
<text text-anchor="start" x="430" y="-638.9" font-family="Arial" font-size="14.00" fill="#000000">login </text>
<text text-anchor="start" x="463.4516" y="-638.9" font-family="Arial" font-size="14.00" fill="#666666">[varchar]</text>
<polygon fill="none" stroke="#000000" points="423,-597.5 423,-627.5 699,-627.5 699,-597.5 423,-597.5"/>
<text text-anchor="start" x="430" y="-608.9" font-family="Arial" font-size="14.00" fill="#000000">password </text>
<text text-anchor="start" x="493.7882" y="-608.9" font-family="Arial" font-size="14.00" fill="#666666">[varchar]</text>
<polygon fill="none" stroke="#000000" points="423,-567.5 423,-597.5 699,-597.5 699,-567.5 423,-567.5"/>
<text text-anchor="start" x="430" y="-578.9" font-family="Arial" font-size="14.00" fill="#000000">company_id </text>
<text text-anchor="start" x="509.3534" y="-578.9" font-family="Arial" font-size="14.00" fill="#666666">[integer]</text>
<polygon fill="none" stroke="#000000" points="423,-537.5 423,-567.5 699,-567.5 699,-537.5 423,-537.5"/>
<text text-anchor="start" x="430" y="-548.9" font-family="Arial" font-size="14.00" fill="#000000">partner_id </text>
<text text-anchor="start" x="496.9046" y="-548.9" font-family="Arial" font-size="14.00" fill="#666666">[integer]</text>
<polygon fill="none" stroke="#000000" points="423,-507.5 423,-537.5 699,-537.5 699,-507.5 423,-507.5"/>
<text text-anchor="start" x="429.5246" y="-518.9" font-family="Arial" font-size="14.00" fill="#000000">create_date </text>
<text text-anchor="start" x="507.3352" y="-518.9" font-family="Arial" font-size="14.00" fill="#666666">[timestamp without time zone]</text>
<polygon fill="none" stroke="#000000" points="423,-477.5 423,-507.5 699,-507.5 699,-477.5 423,-477.5"/>
<text text-anchor="start" x="430" y="-488.9" font-family="Arial" font-size="14.00" fill="#000000">signature </text>
<text text-anchor="start" x="491.4614" y="-488.9" font-family="Arial" font-size="14.00" fill="#666666">[text]</text>
<polygon fill="none" stroke="#000000" points="423,-447.5 423,-477.5 699,-477.5 699,-447.5 423,-447.5"/>
<text text-anchor="start" x="430" y="-458.9" font-family="Arial" font-size="14.00" fill="#000000">action_id </text>
<text text-anchor="start" x="489.9074" y="-458.9" font-family="Arial" font-size="14.00" fill="#666666">[integer]</text>
<polygon fill="none" stroke="#000000" points="423,-417.5 423,-447.5 699,-447.5 699,-417.5 423,-417.5"/>
<text text-anchor="start" x="430" y="-428.9" font-family="Arial" font-size="14.00" fill="#000000">share </text>
<text text-anchor="start" x="468.899" y="-428.9" font-family="Arial" font-size="14.00" fill="#666666">[boolean]</text>
<polygon fill="none" stroke="#000000" points="423,-387.5 423,-417.5 699,-417.5 699,-387.5 423,-387.5"/>
<text text-anchor="start" x="430" y="-398.9" font-family="Arial" font-size="14.00" fill="#000000">create_uid </text>
<text text-anchor="start" x="499.244" y="-398.9" font-family="Arial" font-size="14.00" fill="#666666">[integer]</text>
<polygon fill="none" stroke="#000000" points="423,-357.5 423,-387.5 699,-387.5 699,-357.5 423,-357.5"/>
<text text-anchor="start" x="430" y="-368.9" font-family="Arial" font-size="14.00" fill="#000000">write_uid </text>
<text text-anchor="start" x="489.892" y="-368.9" font-family="Arial" font-size="14.00" fill="#666666">[integer]</text>
<polygon fill="none" stroke="#000000" points="423,-327.5 423,-357.5 699,-357.5 699,-327.5 423,-327.5"/>
<text text-anchor="start" x="430" y="-338.9" font-family="Arial" font-size="14.00" fill="#000000">write_date </text>
<text text-anchor="start" x="498.4586" y="-338.9" font-family="Arial" font-size="14.00" fill="#666666">[timestamp without time zone]</text>
<polygon fill="none" stroke="#000000" points="423,-297.5 423,-327.5 699,-327.5 699,-297.5 423,-297.5"/>
<text text-anchor="start" x="430" y="-308.9" font-family="Arial" font-size="14.00" fill="#000000">alias_id </text>
<text text-anchor="start" x="481.3408" y="-308.9" font-family="Arial" font-size="14.00" fill="#666666">[integer]</text>
<polygon fill="none" stroke="#000000" points="423,-267.5 423,-297.5 699,-297.5 699,-267.5 423,-267.5"/>
<text text-anchor="start" x="430" y="-278.9" font-family="Arial" font-size="14.00" fill="#000000">notification_type </text>
<text text-anchor="start" x="535.0336" y="-278.9" font-family="Arial" font-size="14.00" fill="#666666">[varchar]</text>
<polygon fill="none" stroke="#000000" points="423,-237.5 423,-267.5 699,-267.5 699,-237.5 423,-237.5"/>
<text text-anchor="start" x="430" y="-248.9" font-family="Arial" font-size="14.00" fill="#000000">odoobot_state </text>
<text text-anchor="start" x="522.6058" y="-248.9" font-family="Arial" font-size="14.00" fill="#666666">[varchar]</text>
<polygon fill="none" stroke="#000000" points="423,-207.5 423,-237.5 699,-237.5 699,-207.5 423,-207.5"/>
<text text-anchor="start" x="430" y="-218.9" font-family="Arial" font-size="14.00" fill="#000000">sale_team_id </text>
<text text-anchor="start" x="517.1332" y="-218.9" font-family="Arial" font-size="14.00" fill="#666666">[integer]</text>
<polygon fill="none" stroke="#000000" points="423,-177.5 423,-207.5 699,-207.5 699,-177.5 423,-177.5"/>
<text text-anchor="start" x="430" y="-188.9" font-family="Arial" font-size="14.00" fill="#000000">target_sales_won </text>
<text text-anchor="start" x="543.589" y="-188.9" font-family="Arial" font-size="14.00" fill="#666666">[integer]</text>
<polygon fill="none" stroke="#000000" points="423,-147.5 423,-177.5 699,-177.5 699,-147.5 423,-147.5"/>
<text text-anchor="start" x="430" y="-158.9" font-family="Arial" font-size="14.00" fill="#000000">target_sales_done </text>
<text text-anchor="start" x="549.0476" y="-158.9" font-family="Arial" font-size="14.00" fill="#666666">[integer]</text>
<polygon fill="none" stroke="#000000" points="423,-117.5 423,-147.5 699,-147.5 699,-117.5 423,-117.5"/>
<text text-anchor="start" x="430" y="-128.9" font-family="Arial" font-size="14.00" fill="#000000">website_id </text>
<text text-anchor="start" x="500.014" y="-128.9" font-family="Arial" font-size="14.00" fill="#666666">[integer]</text>
<polygon fill="none" stroke="#000000" points="423,-87.5 423,-117.5 699,-117.5 699,-87.5 423,-87.5"/>
<text text-anchor="start" x="430" y="-98.9" font-family="Arial" font-size="14.00" fill="#000000">target_sales_invoiced </text>
<text text-anchor="start" x="569.2608" y="-98.9" font-family="Arial" font-size="14.00" fill="#666666">[integer]</text>
<polygon fill="none" stroke="#000000" points="423,-57.5 423,-87.5 699,-87.5 699,-57.5 423,-57.5"/>
<text text-anchor="start" x="430" y="-68.9" font-family="Arial" font-size="14.00" fill="#000000">pos_security_pin </text>
<text text-anchor="start" x="538.9158" y="-68.9" font-family="Arial" font-size="14.00" fill="#666666">[varchar(32)]</text>
</g>
<!-- public.report_layout&#45;&gt;public.res_users -->
<g id="edge2" class="edge">
<title>public.report_layout:create_uid&#45;&gt;public.res_users:id</title>
<path fill="none" stroke="#000000" d="M708.8242,-995.1254C764.3733,-967.2071 761.0985,-702.5 699,-702.5"/>
<polygon fill="#000000" stroke="#000000" points="708.7201,-995.1505 697.9427,-993.126 703.86,-996.3252 699,-997.5 699,-997.5 699,-997.5 703.86,-996.3252 700.0573,-1001.874 708.7201,-995.1505 708.7201,-995.1505"/>
<text text-anchor="start" x="705.657" y="-1007.5" font-family="Arial" font-size="10.00" fill="#000000">FOREIGN KEY (create_uid) REFERENCES res_users(id) ON DELETE SET NULL</text>
</g>
<!-- public.report_layout&#45;&gt;public.res_users -->
<g id="edge3" class="edge">
<title>public.report_layout:write_uid&#45;&gt;public.res_users:id</title>
<path fill="none" stroke="#000000" d="M708.7128,-934.5287C750.9919,-907.3254 747.7543,-702.5 699,-702.5"/>
<polygon fill="#000000" stroke="#000000" points="708.5626,-934.5746 697.6836,-933.1968 703.7813,-936.0373 699,-937.5 699,-937.5 699,-937.5 703.7813,-936.0373 700.3164,-941.8032 708.5626,-934.5746 708.5626,-934.5746"/>
<text text-anchor="start" x="705.997" y="-947.5" font-family="Arial" font-size="10.00" fill="#000000">FOREIGN KEY (write_uid) REFERENCES res_users(id) ON DELETE SET NULL</text>
</g>
</g>
</svg>
