<?xml version="1.0" encoding="UTF-8" standalone="no"?>
<!DOCTYPE svg PUBLIC "-//W3C//DTD SVG 1.1//EN"
 "http://www.w3.org/Graphics/SVG/1.1/DTD/svg11.dtd">
<!-- Generated by graphviz version 2.40.1 (20161225.0304)
 -->
<!-- Title: public.ir_ui_view_group_rel Pages: 1 -->
<svg width="1084pt" height="1042pt"
 viewBox="0.00 0.00 1084.00 1042.00" xmlns="http://www.w3.org/2000/svg" xmlns:xlink="http://www.w3.org/1999/xlink">
<g id="graph0" class="graph" transform="scale(1 1) rotate(0) translate(4 1038)">
<title>public.ir_ui_view_group_rel</title>
<polygon fill="#ffffff" stroke="transparent" points="-4,4 -4,-1038 1080,-1038 1080,4 -4,4"/>
<!-- public.ir_ui_view_group_rel -->
<g id="node1" class="node">
<title>public.ir_ui_view_group_rel</title>
<polygon fill="#efefef" stroke="transparent" points="368,-952.5 368,-987.5 697,-987.5 697,-952.5 368,-952.5"/>
<polygon fill="none" stroke="#000000" points="368,-952.5 368,-987.5 697,-987.5 697,-952.5 368,-952.5"/>
<text text-anchor="start" x="374.8606" y="-965.3" font-family="Arial Bold" font-size="18.00" fill="#000000">public.ir_ui_view_group_rel</text>
<text text-anchor="start" x="592.8856" y="-965.3" font-family="Arial" font-size="14.00" fill="#000000"> </text>
<text text-anchor="start" x="596.7762" y="-965.3" font-family="Arial" font-size="14.00" fill="#666666">[BASE TABLE]</text>
<polygon fill="none" stroke="#000000" points="368,-922.5 368,-952.5 697,-952.5 697,-922.5 368,-922.5"/>
<text text-anchor="start" x="375" y="-933.9" font-family="Arial" font-size="14.00" fill="#000000">view_id </text>
<text text-anchor="start" x="425.5582" y="-933.9" font-family="Arial" font-size="14.00" fill="#666666">[integer]</text>
<polygon fill="none" stroke="#000000" points="368,-892.5 368,-922.5 697,-922.5 697,-892.5 368,-892.5"/>
<text text-anchor="start" x="375" y="-903.9" font-family="Arial" font-size="14.00" fill="#000000">group_id </text>
<text text-anchor="start" x="433.3534" y="-903.9" font-family="Arial" font-size="14.00" fill="#666666">[integer]</text>
<polygon fill="none" stroke="#000000" stroke-width="3" points="366,-891.5 366,-989.5 698,-989.5 698,-891.5 366,-891.5"/>
</g>
<!-- public.ir_ui_view -->
<g id="node2" class="node">
<title>public.ir_ui_view</title>
<polygon fill="#efefef" stroke="transparent" points="205,-732.5 205,-767.5 481,-767.5 481,-732.5 205,-732.5"/>
<polygon fill="none" stroke="#000000" points="205,-732.5 205,-767.5 481,-767.5 481,-732.5 205,-732.5"/>
<text text-anchor="start" x="228.3716" y="-745.3" font-family="Arial Bold" font-size="18.00" fill="#000000">public.ir_ui_view</text>
<text text-anchor="start" x="360.3746" y="-745.3" font-family="Arial" font-size="14.00" fill="#000000"> </text>
<text text-anchor="start" x="364.2652" y="-745.3" font-family="Arial" font-size="14.00" fill="#666666">[BASE TABLE]</text>
<polygon fill="none" stroke="#000000" points="205,-702.5 205,-732.5 481,-732.5 481,-702.5 205,-702.5"/>
<text text-anchor="start" x="212" y="-713.9" font-family="Arial" font-size="14.00" fill="#000000">id </text>
<text text-anchor="start" x="226.7798" y="-713.9" font-family="Arial" font-size="14.00" fill="#666666">[integer]</text>
<polygon fill="none" stroke="#000000" points="205,-672.5 205,-702.5 481,-702.5 481,-672.5 205,-672.5"/>
<text text-anchor="start" x="212" y="-683.9" font-family="Arial" font-size="14.00" fill="#000000">name </text>
<text text-anchor="start" x="250.899" y="-683.9" font-family="Arial" font-size="14.00" fill="#666666">[varchar]</text>
<polygon fill="none" stroke="#000000" points="205,-642.5 205,-672.5 481,-672.5 481,-642.5 205,-642.5"/>
<text text-anchor="start" x="212" y="-653.9" font-family="Arial" font-size="14.00" fill="#000000">model </text>
<text text-anchor="start" x="254.0056" y="-653.9" font-family="Arial" font-size="14.00" fill="#666666">[varchar]</text>
<polygon fill="none" stroke="#000000" points="205,-612.5 205,-642.5 481,-642.5 481,-612.5 205,-612.5"/>
<text text-anchor="start" x="212" y="-623.9" font-family="Arial" font-size="14.00" fill="#000000">key </text>
<text text-anchor="start" x="237.6732" y="-623.9" font-family="Arial" font-size="14.00" fill="#666666">[varchar]</text>
<polygon fill="none" stroke="#000000" points="205,-582.5 205,-612.5 481,-612.5 481,-582.5 205,-582.5"/>
<text text-anchor="start" x="212" y="-593.9" font-family="Arial" font-size="14.00" fill="#000000">priority </text>
<text text-anchor="start" x="257.8808" y="-593.9" font-family="Arial" font-size="14.00" fill="#666666">[integer]</text>
<polygon fill="none" stroke="#000000" points="205,-552.5 205,-582.5 481,-582.5 481,-552.5 205,-552.5"/>
<text text-anchor="start" x="212" y="-563.9" font-family="Arial" font-size="14.00" fill="#000000">type </text>
<text text-anchor="start" x="242.3464" y="-563.9" font-family="Arial" font-size="14.00" fill="#666666">[varchar]</text>
<polygon fill="none" stroke="#000000" points="205,-522.5 205,-552.5 481,-552.5 481,-522.5 205,-522.5"/>
<text text-anchor="start" x="212" y="-533.9" font-family="Arial" font-size="14.00" fill="#000000">arch_db </text>
<text text-anchor="start" x="266.4642" y="-533.9" font-family="Arial" font-size="14.00" fill="#666666">[text]</text>
<polygon fill="none" stroke="#000000" points="205,-492.5 205,-522.5 481,-522.5 481,-492.5 205,-492.5"/>
<text text-anchor="start" x="212" y="-503.9" font-family="Arial" font-size="14.00" fill="#000000">arch_fs </text>
<text text-anchor="start" x="261.7896" y="-503.9" font-family="Arial" font-size="14.00" fill="#666666">[varchar]</text>
<polygon fill="none" stroke="#000000" points="205,-462.5 205,-492.5 481,-492.5 481,-462.5 205,-462.5"/>
<text text-anchor="start" x="212" y="-473.9" font-family="Arial" font-size="14.00" fill="#000000">inherit_id </text>
<text text-anchor="start" x="272.6746" y="-473.9" font-family="Arial" font-size="14.00" fill="#666666">[integer]</text>
<polygon fill="none" stroke="#000000" points="205,-432.5 205,-462.5 481,-462.5 481,-432.5 205,-432.5"/>
<text text-anchor="start" x="212" y="-443.9" font-family="Arial" font-size="14.00" fill="#000000">field_parent </text>
<text text-anchor="start" x="289.0238" y="-443.9" font-family="Arial" font-size="14.00" fill="#666666">[varchar]</text>
<polygon fill="none" stroke="#000000" points="205,-402.5 205,-432.5 481,-432.5 481,-402.5 205,-402.5"/>
<text text-anchor="start" x="212" y="-413.9" font-family="Arial" font-size="14.00" fill="#000000">mode </text>
<text text-anchor="start" x="250.899" y="-413.9" font-family="Arial" font-size="14.00" fill="#666666">[varchar]</text>
<polygon fill="none" stroke="#000000" points="205,-372.5 205,-402.5 481,-402.5 481,-372.5 205,-372.5"/>
<text text-anchor="start" x="212" y="-383.9" font-family="Arial" font-size="14.00" fill="#000000">active </text>
<text text-anchor="start" x="252.453" y="-383.9" font-family="Arial" font-size="14.00" fill="#666666">[boolean]</text>
<polygon fill="none" stroke="#000000" points="205,-342.5 205,-372.5 481,-372.5 481,-342.5 205,-342.5"/>
<text text-anchor="start" x="212" y="-353.9" font-family="Arial" font-size="14.00" fill="#000000">create_uid </text>
<text text-anchor="start" x="281.244" y="-353.9" font-family="Arial" font-size="14.00" fill="#666666">[integer]</text>
<polygon fill="none" stroke="#000000" points="205,-312.5 205,-342.5 481,-342.5 481,-312.5 205,-312.5"/>
<text text-anchor="start" x="211.5246" y="-323.9" font-family="Arial" font-size="14.00" fill="#000000">create_date </text>
<text text-anchor="start" x="289.3352" y="-323.9" font-family="Arial" font-size="14.00" fill="#666666">[timestamp without time zone]</text>
<polygon fill="none" stroke="#000000" points="205,-282.5 205,-312.5 481,-312.5 481,-282.5 205,-282.5"/>
<text text-anchor="start" x="212" y="-293.9" font-family="Arial" font-size="14.00" fill="#000000">write_uid </text>
<text text-anchor="start" x="271.892" y="-293.9" font-family="Arial" font-size="14.00" fill="#666666">[integer]</text>
<polygon fill="none" stroke="#000000" points="205,-252.5 205,-282.5 481,-282.5 481,-252.5 205,-252.5"/>
<text text-anchor="start" x="212" y="-263.9" font-family="Arial" font-size="14.00" fill="#000000">write_date </text>
<text text-anchor="start" x="280.4586" y="-263.9" font-family="Arial" font-size="14.00" fill="#666666">[timestamp without time zone]</text>
<polygon fill="none" stroke="#000000" points="205,-222.5 205,-252.5 481,-252.5 481,-222.5 205,-222.5"/>
<text text-anchor="start" x="212" y="-233.9" font-family="Arial" font-size="14.00" fill="#000000">website_meta_title </text>
<text text-anchor="start" x="331.8008" y="-233.9" font-family="Arial" font-size="14.00" fill="#666666">[varchar]</text>
<polygon fill="none" stroke="#000000" points="205,-192.5 205,-222.5 481,-222.5 481,-192.5 205,-192.5"/>
<text text-anchor="start" x="212" y="-203.9" font-family="Arial" font-size="14.00" fill="#000000">website_meta_description </text>
<text text-anchor="start" x="377.7012" y="-203.9" font-family="Arial" font-size="14.00" fill="#666666">[text]</text>
<polygon fill="none" stroke="#000000" points="205,-162.5 205,-192.5 481,-192.5 481,-162.5 205,-162.5"/>
<text text-anchor="start" x="212" y="-173.9" font-family="Arial" font-size="14.00" fill="#000000">website_meta_keywords </text>
<text text-anchor="start" x="369.1388" y="-173.9" font-family="Arial" font-size="14.00" fill="#666666">[varchar]</text>
<polygon fill="none" stroke="#000000" points="205,-132.5 205,-162.5 481,-162.5 481,-132.5 205,-132.5"/>
<text text-anchor="start" x="212" y="-143.9" font-family="Arial" font-size="14.00" fill="#000000">website_meta_og_img </text>
<text text-anchor="start" x="355.9214" y="-143.9" font-family="Arial" font-size="14.00" fill="#666666">[varchar]</text>
<polygon fill="none" stroke="#000000" points="205,-102.5 205,-132.5 481,-132.5 481,-102.5 205,-102.5"/>
<text text-anchor="start" x="212" y="-113.9" font-family="Arial" font-size="14.00" fill="#000000">customize_show </text>
<text text-anchor="start" x="319.3506" y="-113.9" font-family="Arial" font-size="14.00" fill="#666666">[boolean]</text>
<polygon fill="none" stroke="#000000" points="205,-72.5 205,-102.5 481,-102.5 481,-72.5 205,-72.5"/>
<text text-anchor="start" x="212" y="-83.9" font-family="Arial" font-size="14.00" fill="#000000">website_id </text>
<text text-anchor="start" x="282.014" y="-83.9" font-family="Arial" font-size="14.00" fill="#666666">[integer]</text>
<polygon fill="none" stroke="#000000" points="205,-42.5 205,-72.5 481,-72.5 481,-42.5 205,-42.5"/>
<text text-anchor="start" x="212" y="-53.9" font-family="Arial" font-size="14.00" fill="#000000">theme_template_id </text>
<text text-anchor="start" x="334.9228" y="-53.9" font-family="Arial" font-size="14.00" fill="#666666">[integer]</text>
</g>
<!-- public.ir_ui_view_group_rel&#45;&gt;public.ir_ui_view -->
<g id="edge1" class="edge">
<title>public.ir_ui_view_group_rel:view_id&#45;&gt;public.ir_ui_view:id</title>
<path fill="none" stroke="#000000" d="M357.7925,-935.9177C331.067,-926.4102 346.5826,-876.3013 368,-847 399.104,-804.4464 449.896,-853.5536 481,-811 505.5221,-777.4511 522.5556,-717.5 481,-717.5"/>
<polygon fill="#000000" stroke="#000000" points="358.118,-935.968 367.3106,-941.9469 363.059,-936.734 368,-937.5 368,-937.5 368,-937.5 363.059,-936.734 368.6894,-933.0531 358.118,-935.968 358.118,-935.968"/>
<text text-anchor="start" x="6.7815" y="-947.5" font-family="Arial" font-size="10.00" fill="#000000">FOREIGN KEY (view_id) REFERENCES ir_ui_view(id) ON DELETE CASCADE</text>
</g>
<!-- public.res_groups -->
<g id="node3" class="node">
<title>public.res_groups</title>
<polygon fill="#efefef" stroke="transparent" points="585,-537.5 585,-572.5 861,-572.5 861,-537.5 585,-537.5"/>
<polygon fill="none" stroke="#000000" points="585,-537.5 585,-572.5 861,-572.5 861,-537.5 585,-537.5"/>
<text text-anchor="start" x="603.3577" y="-550.3" font-family="Arial Bold" font-size="18.00" fill="#000000">public.res_groups</text>
<text text-anchor="start" x="745.3885" y="-550.3" font-family="Arial" font-size="14.00" fill="#000000"> </text>
<text text-anchor="start" x="749.2791" y="-550.3" font-family="Arial" font-size="14.00" fill="#666666">[BASE TABLE]</text>
<polygon fill="none" stroke="#000000" points="585,-507.5 585,-537.5 861,-537.5 861,-507.5 585,-507.5"/>
<text text-anchor="start" x="592" y="-518.9" font-family="Arial" font-size="14.00" fill="#000000">id </text>
<text text-anchor="start" x="606.7798" y="-518.9" font-family="Arial" font-size="14.00" fill="#666666">[integer]</text>
<polygon fill="none" stroke="#000000" points="585,-477.5 585,-507.5 861,-507.5 861,-477.5 585,-477.5"/>
<text text-anchor="start" x="592" y="-488.9" font-family="Arial" font-size="14.00" fill="#000000">name </text>
<text text-anchor="start" x="630.899" y="-488.9" font-family="Arial" font-size="14.00" fill="#666666">[varchar]</text>
<polygon fill="none" stroke="#000000" points="585,-447.5 585,-477.5 861,-477.5 861,-447.5 585,-447.5"/>
<text text-anchor="start" x="592" y="-458.9" font-family="Arial" font-size="14.00" fill="#000000">comment </text>
<text text-anchor="start" x="653.4502" y="-458.9" font-family="Arial" font-size="14.00" fill="#666666">[text]</text>
<polygon fill="none" stroke="#000000" points="585,-417.5 585,-447.5 861,-447.5 861,-417.5 585,-417.5"/>
<text text-anchor="start" x="592" y="-428.9" font-family="Arial" font-size="14.00" fill="#000000">category_id </text>
<text text-anchor="start" x="668.244" y="-428.9" font-family="Arial" font-size="14.00" fill="#666666">[integer]</text>
<polygon fill="none" stroke="#000000" points="585,-387.5 585,-417.5 861,-417.5 861,-387.5 585,-387.5"/>
<text text-anchor="start" x="592" y="-398.9" font-family="Arial" font-size="14.00" fill="#000000">color </text>
<text text-anchor="start" x="626.223" y="-398.9" font-family="Arial" font-size="14.00" fill="#666666">[integer]</text>
<polygon fill="none" stroke="#000000" points="585,-357.5 585,-387.5 861,-387.5 861,-357.5 585,-357.5"/>
<text text-anchor="start" x="592" y="-368.9" font-family="Arial" font-size="14.00" fill="#000000">share </text>
<text text-anchor="start" x="630.899" y="-368.9" font-family="Arial" font-size="14.00" fill="#666666">[boolean]</text>
<polygon fill="none" stroke="#000000" points="585,-327.5 585,-357.5 861,-357.5 861,-327.5 585,-327.5"/>
<text text-anchor="start" x="592" y="-338.9" font-family="Arial" font-size="14.00" fill="#000000">create_uid </text>
<text text-anchor="start" x="661.244" y="-338.9" font-family="Arial" font-size="14.00" fill="#666666">[integer]</text>
<polygon fill="none" stroke="#000000" points="585,-297.5 585,-327.5 861,-327.5 861,-297.5 585,-297.5"/>
<text text-anchor="start" x="591.5246" y="-308.9" font-family="Arial" font-size="14.00" fill="#000000">create_date </text>
<text text-anchor="start" x="669.3352" y="-308.9" font-family="Arial" font-size="14.00" fill="#666666">[timestamp without time zone]</text>
<polygon fill="none" stroke="#000000" points="585,-267.5 585,-297.5 861,-297.5 861,-267.5 585,-267.5"/>
<text text-anchor="start" x="592" y="-278.9" font-family="Arial" font-size="14.00" fill="#000000">write_uid </text>
<text text-anchor="start" x="651.892" y="-278.9" font-family="Arial" font-size="14.00" fill="#666666">[integer]</text>
<polygon fill="none" stroke="#000000" points="585,-237.5 585,-267.5 861,-267.5 861,-237.5 585,-237.5"/>
<text text-anchor="start" x="592" y="-248.9" font-family="Arial" font-size="14.00" fill="#000000">write_date </text>
<text text-anchor="start" x="660.4586" y="-248.9" font-family="Arial" font-size="14.00" fill="#666666">[timestamp without time zone]</text>
</g>
<!-- public.ir_ui_view_group_rel&#45;&gt;public.res_groups -->
<g id="edge2" class="edge">
<title>public.ir_ui_view_group_rel:group_id&#45;&gt;public.res_groups:id</title>
<path fill="none" stroke="#000000" d="M707.1591,-907.0209C856.2643,-891.8709 410.4501,-522.5 585,-522.5"/>
<polygon fill="#000000" stroke="#000000" points="706.9889,-907.0288 696.788,-903.005 701.9944,-907.2644 697,-907.5 697,-907.5 697,-907.5 701.9944,-907.2644 697.212,-911.995 706.9889,-907.0288 706.9889,-907.0288"/>
<text text-anchor="start" x="704.212" y="-917.5" font-family="Arial" font-size="10.00" fill="#000000">FOREIGN KEY (group_id) REFERENCES res_groups(id) ON DELETE CASCADE</text>
</g>
</g>
</svg>
