<?xml version="1.0" encoding="UTF-8" standalone="no"?>
<!DOCTYPE svg PUBLIC "-//W3C//DTD SVG 1.1//EN"
 "http://www.w3.org/Graphics/SVG/1.1/DTD/svg11.dtd">
<!-- Generated by graphviz version 2.40.1 (20161225.0304)
 -->
<!-- Title: public.account_invoice_refund Pages: 1 -->
<svg width="788pt" height="1222pt"
 viewBox="0.00 0.00 787.50 1222.00" xmlns="http://www.w3.org/2000/svg" xmlns:xlink="http://www.w3.org/1999/xlink">
<g id="graph0" class="graph" transform="scale(1 1) rotate(0) translate(4 1218)">
<title>public.account_invoice_refund</title>
<polygon fill="#ffffff" stroke="transparent" points="-4,4 -4,-1218 783.5,-1218 783.5,4 -4,4"/>
<!-- public.account_invoice_refund -->
<g id="node1" class="node">
<title>public.account_invoice_refund</title>
<polygon fill="#efefef" stroke="transparent" points="46.5,-1132.5 46.5,-1167.5 399.5,-1167.5 399.5,-1132.5 46.5,-1132.5"/>
<polygon fill="none" stroke="#000000" points="46.5,-1132.5 46.5,-1167.5 399.5,-1167.5 399.5,-1132.5 46.5,-1132.5"/>
<text text-anchor="start" x="53.3357" y="-1145.3" font-family="Arial Bold" font-size="18.00" fill="#000000">public.account_invoice_refund</text>
<text text-anchor="start" x="295.4105" y="-1145.3" font-family="Arial" font-size="14.00" fill="#000000"> </text>
<text text-anchor="start" x="299.3011" y="-1145.3" font-family="Arial" font-size="14.00" fill="#666666">[BASE TABLE]</text>
<polygon fill="none" stroke="#000000" points="46.5,-1102.5 46.5,-1132.5 399.5,-1132.5 399.5,-1102.5 46.5,-1102.5"/>
<text text-anchor="start" x="53.5" y="-1113.9" font-family="Arial" font-size="14.00" fill="#000000">id </text>
<text text-anchor="start" x="68.2798" y="-1113.9" font-family="Arial" font-size="14.00" fill="#666666">[integer]</text>
<polygon fill="none" stroke="#000000" points="46.5,-1072.5 46.5,-1102.5 399.5,-1102.5 399.5,-1072.5 46.5,-1072.5"/>
<text text-anchor="start" x="53.5" y="-1083.9" font-family="Arial" font-size="14.00" fill="#000000">date_invoice </text>
<text text-anchor="start" x="135.9726" y="-1083.9" font-family="Arial" font-size="14.00" fill="#666666">[date]</text>
<polygon fill="none" stroke="#000000" points="46.5,-1042.5 46.5,-1072.5 399.5,-1072.5 399.5,-1042.5 46.5,-1042.5"/>
<text text-anchor="start" x="53.5" y="-1053.9" font-family="Arial" font-size="14.00" fill="#000000">date </text>
<text text-anchor="start" x="84.629" y="-1053.9" font-family="Arial" font-size="14.00" fill="#666666">[date]</text>
<polygon fill="none" stroke="#000000" points="46.5,-1012.5 46.5,-1042.5 399.5,-1042.5 399.5,-1012.5 46.5,-1012.5"/>
<text text-anchor="start" x="53.5" y="-1023.9" font-family="Arial" font-size="14.00" fill="#000000">description </text>
<text text-anchor="start" x="125.068" y="-1023.9" font-family="Arial" font-size="14.00" fill="#666666">[varchar]</text>
<polygon fill="none" stroke="#000000" points="46.5,-982.5 46.5,-1012.5 399.5,-1012.5 399.5,-982.5 46.5,-982.5"/>
<text text-anchor="start" x="53.5" y="-993.9" font-family="Arial" font-size="14.00" fill="#000000">filter_refund </text>
<text text-anchor="start" x="131.2924" y="-993.9" font-family="Arial" font-size="14.00" fill="#666666">[varchar]</text>
<polygon fill="none" stroke="#000000" points="46.5,-952.5 46.5,-982.5 399.5,-982.5 399.5,-952.5 46.5,-952.5"/>
<text text-anchor="start" x="53.5" y="-963.9" font-family="Arial" font-size="14.00" fill="#000000">create_uid </text>
<text text-anchor="start" x="122.744" y="-963.9" font-family="Arial" font-size="14.00" fill="#666666">[integer]</text>
<polygon fill="none" stroke="#000000" points="46.5,-922.5 46.5,-952.5 399.5,-952.5 399.5,-922.5 46.5,-922.5"/>
<text text-anchor="start" x="53.5" y="-933.9" font-family="Arial" font-size="14.00" fill="#000000">create_date </text>
<text text-anchor="start" x="131.3106" y="-933.9" font-family="Arial" font-size="14.00" fill="#666666">[timestamp without time zone]</text>
<polygon fill="none" stroke="#000000" points="46.5,-892.5 46.5,-922.5 399.5,-922.5 399.5,-892.5 46.5,-892.5"/>
<text text-anchor="start" x="53.5" y="-903.9" font-family="Arial" font-size="14.00" fill="#000000">write_uid </text>
<text text-anchor="start" x="113.392" y="-903.9" font-family="Arial" font-size="14.00" fill="#666666">[integer]</text>
<polygon fill="none" stroke="#000000" points="46.5,-862.5 46.5,-892.5 399.5,-892.5 399.5,-862.5 46.5,-862.5"/>
<text text-anchor="start" x="53.5" y="-873.9" font-family="Arial" font-size="14.00" fill="#000000">write_date </text>
<text text-anchor="start" x="121.9586" y="-873.9" font-family="Arial" font-size="14.00" fill="#666666">[timestamp without time zone]</text>
<polygon fill="none" stroke="#000000" stroke-width="3" points="44.5,-861.5 44.5,-1169.5 400.5,-1169.5 400.5,-861.5 44.5,-861.5"/>
</g>
<!-- public.res_users -->
<g id="node2" class="node">
<title>public.res_users</title>
<polygon fill="#efefef" stroke="transparent" points="85.5,-702.5 85.5,-737.5 361.5,-737.5 361.5,-702.5 85.5,-702.5"/>
<polygon fill="none" stroke="#000000" points="85.5,-702.5 85.5,-737.5 361.5,-737.5 361.5,-702.5 85.5,-702.5"/>
<text text-anchor="start" x="109.3639" y="-715.3" font-family="Arial Bold" font-size="18.00" fill="#000000">public.res_users</text>
<text text-anchor="start" x="240.3823" y="-715.3" font-family="Arial" font-size="14.00" fill="#000000"> </text>
<text text-anchor="start" x="244.2729" y="-715.3" font-family="Arial" font-size="14.00" fill="#666666">[BASE TABLE]</text>
<polygon fill="none" stroke="#000000" points="85.5,-672.5 85.5,-702.5 361.5,-702.5 361.5,-672.5 85.5,-672.5"/>
<text text-anchor="start" x="92.5" y="-683.9" font-family="Arial" font-size="14.00" fill="#000000">id </text>
<text text-anchor="start" x="107.2798" y="-683.9" font-family="Arial" font-size="14.00" fill="#666666">[integer]</text>
<polygon fill="none" stroke="#000000" points="85.5,-642.5 85.5,-672.5 361.5,-672.5 361.5,-642.5 85.5,-642.5"/>
<text text-anchor="start" x="92.5" y="-653.9" font-family="Arial" font-size="14.00" fill="#000000">active </text>
<text text-anchor="start" x="132.953" y="-653.9" font-family="Arial" font-size="14.00" fill="#666666">[boolean]</text>
<polygon fill="none" stroke="#000000" points="85.5,-612.5 85.5,-642.5 361.5,-642.5 361.5,-612.5 85.5,-612.5"/>
<text text-anchor="start" x="92.5" y="-623.9" font-family="Arial" font-size="14.00" fill="#000000">login </text>
<text text-anchor="start" x="125.9516" y="-623.9" font-family="Arial" font-size="14.00" fill="#666666">[varchar]</text>
<polygon fill="none" stroke="#000000" points="85.5,-582.5 85.5,-612.5 361.5,-612.5 361.5,-582.5 85.5,-582.5"/>
<text text-anchor="start" x="92.5" y="-593.9" font-family="Arial" font-size="14.00" fill="#000000">password </text>
<text text-anchor="start" x="156.2882" y="-593.9" font-family="Arial" font-size="14.00" fill="#666666">[varchar]</text>
<polygon fill="none" stroke="#000000" points="85.5,-552.5 85.5,-582.5 361.5,-582.5 361.5,-552.5 85.5,-552.5"/>
<text text-anchor="start" x="92.5" y="-563.9" font-family="Arial" font-size="14.00" fill="#000000">company_id </text>
<text text-anchor="start" x="171.8534" y="-563.9" font-family="Arial" font-size="14.00" fill="#666666">[integer]</text>
<polygon fill="none" stroke="#000000" points="85.5,-522.5 85.5,-552.5 361.5,-552.5 361.5,-522.5 85.5,-522.5"/>
<text text-anchor="start" x="92.5" y="-533.9" font-family="Arial" font-size="14.00" fill="#000000">partner_id </text>
<text text-anchor="start" x="159.4046" y="-533.9" font-family="Arial" font-size="14.00" fill="#666666">[integer]</text>
<polygon fill="none" stroke="#000000" points="85.5,-492.5 85.5,-522.5 361.5,-522.5 361.5,-492.5 85.5,-492.5"/>
<text text-anchor="start" x="92.0246" y="-503.9" font-family="Arial" font-size="14.00" fill="#000000">create_date </text>
<text text-anchor="start" x="169.8352" y="-503.9" font-family="Arial" font-size="14.00" fill="#666666">[timestamp without time zone]</text>
<polygon fill="none" stroke="#000000" points="85.5,-462.5 85.5,-492.5 361.5,-492.5 361.5,-462.5 85.5,-462.5"/>
<text text-anchor="start" x="92.5" y="-473.9" font-family="Arial" font-size="14.00" fill="#000000">signature </text>
<text text-anchor="start" x="153.9614" y="-473.9" font-family="Arial" font-size="14.00" fill="#666666">[text]</text>
<polygon fill="none" stroke="#000000" points="85.5,-432.5 85.5,-462.5 361.5,-462.5 361.5,-432.5 85.5,-432.5"/>
<text text-anchor="start" x="92.5" y="-443.9" font-family="Arial" font-size="14.00" fill="#000000">action_id </text>
<text text-anchor="start" x="152.4074" y="-443.9" font-family="Arial" font-size="14.00" fill="#666666">[integer]</text>
<polygon fill="none" stroke="#000000" points="85.5,-402.5 85.5,-432.5 361.5,-432.5 361.5,-402.5 85.5,-402.5"/>
<text text-anchor="start" x="92.5" y="-413.9" font-family="Arial" font-size="14.00" fill="#000000">share </text>
<text text-anchor="start" x="131.399" y="-413.9" font-family="Arial" font-size="14.00" fill="#666666">[boolean]</text>
<polygon fill="none" stroke="#000000" points="85.5,-372.5 85.5,-402.5 361.5,-402.5 361.5,-372.5 85.5,-372.5"/>
<text text-anchor="start" x="92.5" y="-383.9" font-family="Arial" font-size="14.00" fill="#000000">create_uid </text>
<text text-anchor="start" x="161.744" y="-383.9" font-family="Arial" font-size="14.00" fill="#666666">[integer]</text>
<polygon fill="none" stroke="#000000" points="85.5,-342.5 85.5,-372.5 361.5,-372.5 361.5,-342.5 85.5,-342.5"/>
<text text-anchor="start" x="92.5" y="-353.9" font-family="Arial" font-size="14.00" fill="#000000">write_uid </text>
<text text-anchor="start" x="152.392" y="-353.9" font-family="Arial" font-size="14.00" fill="#666666">[integer]</text>
<polygon fill="none" stroke="#000000" points="85.5,-312.5 85.5,-342.5 361.5,-342.5 361.5,-312.5 85.5,-312.5"/>
<text text-anchor="start" x="92.5" y="-323.9" font-family="Arial" font-size="14.00" fill="#000000">write_date </text>
<text text-anchor="start" x="160.9586" y="-323.9" font-family="Arial" font-size="14.00" fill="#666666">[timestamp without time zone]</text>
<polygon fill="none" stroke="#000000" points="85.5,-282.5 85.5,-312.5 361.5,-312.5 361.5,-282.5 85.5,-282.5"/>
<text text-anchor="start" x="92.5" y="-293.9" font-family="Arial" font-size="14.00" fill="#000000">alias_id </text>
<text text-anchor="start" x="143.8408" y="-293.9" font-family="Arial" font-size="14.00" fill="#666666">[integer]</text>
<polygon fill="none" stroke="#000000" points="85.5,-252.5 85.5,-282.5 361.5,-282.5 361.5,-252.5 85.5,-252.5"/>
<text text-anchor="start" x="92.5" y="-263.9" font-family="Arial" font-size="14.00" fill="#000000">notification_type </text>
<text text-anchor="start" x="197.5336" y="-263.9" font-family="Arial" font-size="14.00" fill="#666666">[varchar]</text>
<polygon fill="none" stroke="#000000" points="85.5,-222.5 85.5,-252.5 361.5,-252.5 361.5,-222.5 85.5,-222.5"/>
<text text-anchor="start" x="92.5" y="-233.9" font-family="Arial" font-size="14.00" fill="#000000">odoobot_state </text>
<text text-anchor="start" x="185.1058" y="-233.9" font-family="Arial" font-size="14.00" fill="#666666">[varchar]</text>
<polygon fill="none" stroke="#000000" points="85.5,-192.5 85.5,-222.5 361.5,-222.5 361.5,-192.5 85.5,-192.5"/>
<text text-anchor="start" x="92.5" y="-203.9" font-family="Arial" font-size="14.00" fill="#000000">sale_team_id </text>
<text text-anchor="start" x="179.6332" y="-203.9" font-family="Arial" font-size="14.00" fill="#666666">[integer]</text>
<polygon fill="none" stroke="#000000" points="85.5,-162.5 85.5,-192.5 361.5,-192.5 361.5,-162.5 85.5,-162.5"/>
<text text-anchor="start" x="92.5" y="-173.9" font-family="Arial" font-size="14.00" fill="#000000">target_sales_won </text>
<text text-anchor="start" x="206.089" y="-173.9" font-family="Arial" font-size="14.00" fill="#666666">[integer]</text>
<polygon fill="none" stroke="#000000" points="85.5,-132.5 85.5,-162.5 361.5,-162.5 361.5,-132.5 85.5,-132.5"/>
<text text-anchor="start" x="92.5" y="-143.9" font-family="Arial" font-size="14.00" fill="#000000">target_sales_done </text>
<text text-anchor="start" x="211.5476" y="-143.9" font-family="Arial" font-size="14.00" fill="#666666">[integer]</text>
<polygon fill="none" stroke="#000000" points="85.5,-102.5 85.5,-132.5 361.5,-132.5 361.5,-102.5 85.5,-102.5"/>
<text text-anchor="start" x="92.5" y="-113.9" font-family="Arial" font-size="14.00" fill="#000000">website_id </text>
<text text-anchor="start" x="162.514" y="-113.9" font-family="Arial" font-size="14.00" fill="#666666">[integer]</text>
<polygon fill="none" stroke="#000000" points="85.5,-72.5 85.5,-102.5 361.5,-102.5 361.5,-72.5 85.5,-72.5"/>
<text text-anchor="start" x="92.5" y="-83.9" font-family="Arial" font-size="14.00" fill="#000000">target_sales_invoiced </text>
<text text-anchor="start" x="231.7608" y="-83.9" font-family="Arial" font-size="14.00" fill="#666666">[integer]</text>
<polygon fill="none" stroke="#000000" points="85.5,-42.5 85.5,-72.5 361.5,-72.5 361.5,-42.5 85.5,-42.5"/>
<text text-anchor="start" x="92.5" y="-53.9" font-family="Arial" font-size="14.00" fill="#000000">pos_security_pin </text>
<text text-anchor="start" x="201.4158" y="-53.9" font-family="Arial" font-size="14.00" fill="#666666">[varchar(32)]</text>
</g>
<!-- public.account_invoice_refund&#45;&gt;public.res_users -->
<g id="edge1" class="edge">
<title>public.account_invoice_refund:create_uid&#45;&gt;public.res_users:id</title>
<path fill="none" stroke="#000000" d="M409.6841,-966.6223C463.8763,-956.6504 441.5877,-864.1887 399.5,-817 306.0007,-712.1685 178.9993,-885.8315 85.5,-781 57.8398,-749.9874 43.9444,-687.5 85.5,-687.5"/>
<polygon fill="#000000" stroke="#000000" points="409.4631,-966.6413 399.1136,-963.0166 404.4815,-967.0706 399.5,-967.5 399.5,-967.5 399.5,-967.5 404.4815,-967.0706 399.8864,-971.9834 409.4631,-966.6413 409.4631,-966.6413"/>
<text text-anchor="start" x="406.157" y="-977.5" font-family="Arial" font-size="10.00" fill="#000000">FOREIGN KEY (create_uid) REFERENCES res_users(id) ON DELETE SET NULL</text>
</g>
<!-- public.account_invoice_refund&#45;&gt;public.res_users -->
<g id="edge2" class="edge">
<title>public.account_invoice_refund:write_uid&#45;&gt;public.res_users:id</title>
<path fill="none" stroke="#000000" d="M409.4306,-905.9802C437.0833,-896.4273 423.7627,-844.2034 399.5,-817 306.0007,-712.1685 178.9993,-885.8315 85.5,-781 57.8398,-749.9874 43.9444,-687.5 85.5,-687.5"/>
<polygon fill="#000000" stroke="#000000" points="409.3849,-905.9871 398.8192,-903.0518 404.4425,-906.7435 399.5,-907.5 399.5,-907.5 399.5,-907.5 404.4425,-906.7435 400.1808,-911.9482 409.3849,-905.9871 409.3849,-905.9871"/>
<text text-anchor="start" x="406.497" y="-917.5" font-family="Arial" font-size="10.00" fill="#000000">FOREIGN KEY (write_uid) REFERENCES res_users(id) ON DELETE SET NULL</text>
</g>
</g>
</svg>
