<?xml version="1.0" encoding="UTF-8" standalone="no"?>
<!DOCTYPE svg PUBLIC "-//W3C//DTD SVG 1.1//EN"
 "http://www.w3.org/Graphics/SVG/1.1/DTD/svg11.dtd">
<!-- Generated by graphviz version 2.40.1 (20161225.0304)
 -->
<!-- Title: public.base_module_uninstall Pages: 1 -->
<svg width="1158pt" height="1372pt"
 viewBox="0.00 0.00 1157.50 1372.00" xmlns="http://www.w3.org/2000/svg" xmlns:xlink="http://www.w3.org/1999/xlink">
<g id="graph0" class="graph" transform="scale(1 1) rotate(0) translate(4 1368)">
<title>public.base_module_uninstall</title>
<polygon fill="#ffffff" stroke="transparent" points="-4,4 -4,-1368 1153.5,-1368 1153.5,4 -4,4"/>
<!-- public.base_module_uninstall -->
<g id="node1" class="node">
<title>public.base_module_uninstall</title>
<polygon fill="#efefef" stroke="transparent" points="422.5,-1282.5 422.5,-1317.5 769.5,-1317.5 769.5,-1282.5 422.5,-1282.5"/>
<polygon fill="none" stroke="#000000" points="422.5,-1282.5 422.5,-1317.5 769.5,-1317.5 769.5,-1282.5 422.5,-1282.5"/>
<text text-anchor="start" x="429.3426" y="-1295.3" font-family="Arial Bold" font-size="18.00" fill="#000000">public.base_module_uninstall</text>
<text text-anchor="start" x="665.4036" y="-1295.3" font-family="Arial" font-size="14.00" fill="#000000"> </text>
<text text-anchor="start" x="669.2942" y="-1295.3" font-family="Arial" font-size="14.00" fill="#666666">[BASE TABLE]</text>
<polygon fill="none" stroke="#000000" points="422.5,-1252.5 422.5,-1282.5 769.5,-1282.5 769.5,-1252.5 422.5,-1252.5"/>
<text text-anchor="start" x="429.5" y="-1263.9" font-family="Arial" font-size="14.00" fill="#000000">id </text>
<text text-anchor="start" x="444.2798" y="-1263.9" font-family="Arial" font-size="14.00" fill="#666666">[integer]</text>
<polygon fill="none" stroke="#000000" points="422.5,-1222.5 422.5,-1252.5 769.5,-1252.5 769.5,-1222.5 422.5,-1222.5"/>
<text text-anchor="start" x="429.5" y="-1233.9" font-family="Arial" font-size="14.00" fill="#000000">show_all </text>
<text text-anchor="start" x="487.8408" y="-1233.9" font-family="Arial" font-size="14.00" fill="#666666">[boolean]</text>
<polygon fill="none" stroke="#000000" points="422.5,-1192.5 422.5,-1222.5 769.5,-1222.5 769.5,-1192.5 422.5,-1192.5"/>
<text text-anchor="start" x="429.5" y="-1203.9" font-family="Arial" font-size="14.00" fill="#000000">module_id </text>
<text text-anchor="start" x="497.96" y="-1203.9" font-family="Arial" font-size="14.00" fill="#666666">[integer]</text>
<polygon fill="none" stroke="#000000" points="422.5,-1162.5 422.5,-1192.5 769.5,-1192.5 769.5,-1162.5 422.5,-1162.5"/>
<text text-anchor="start" x="429.5" y="-1173.9" font-family="Arial" font-size="14.00" fill="#000000">create_uid </text>
<text text-anchor="start" x="498.744" y="-1173.9" font-family="Arial" font-size="14.00" fill="#666666">[integer]</text>
<polygon fill="none" stroke="#000000" points="422.5,-1132.5 422.5,-1162.5 769.5,-1162.5 769.5,-1132.5 422.5,-1132.5"/>
<text text-anchor="start" x="429.5" y="-1143.9" font-family="Arial" font-size="14.00" fill="#000000">create_date </text>
<text text-anchor="start" x="507.3106" y="-1143.9" font-family="Arial" font-size="14.00" fill="#666666">[timestamp without time zone]</text>
<polygon fill="none" stroke="#000000" points="422.5,-1102.5 422.5,-1132.5 769.5,-1132.5 769.5,-1102.5 422.5,-1102.5"/>
<text text-anchor="start" x="429.5" y="-1113.9" font-family="Arial" font-size="14.00" fill="#000000">write_uid </text>
<text text-anchor="start" x="489.392" y="-1113.9" font-family="Arial" font-size="14.00" fill="#666666">[integer]</text>
<polygon fill="none" stroke="#000000" points="422.5,-1072.5 422.5,-1102.5 769.5,-1102.5 769.5,-1072.5 422.5,-1072.5"/>
<text text-anchor="start" x="429.5" y="-1083.9" font-family="Arial" font-size="14.00" fill="#000000">write_date </text>
<text text-anchor="start" x="497.9586" y="-1083.9" font-family="Arial" font-size="14.00" fill="#666666">[timestamp without time zone]</text>
<polygon fill="none" stroke="#000000" stroke-width="3" points="420.5,-1071.5 420.5,-1319.5 770.5,-1319.5 770.5,-1071.5 420.5,-1071.5"/>
</g>
<!-- public.ir_module_module -->
<g id="node2" class="node">
<title>public.ir_module_module</title>
<polygon fill="#efefef" stroke="transparent" points="43.5,-912.5 43.5,-947.5 354.5,-947.5 354.5,-912.5 43.5,-912.5"/>
<polygon fill="none" stroke="#000000" points="43.5,-912.5 43.5,-947.5 354.5,-947.5 354.5,-912.5 43.5,-912.5"/>
<text text-anchor="start" x="50.3579" y="-925.3" font-family="Arial Bold" font-size="18.00" fill="#000000">public.ir_module_module</text>
<text text-anchor="start" x="250.3883" y="-925.3" font-family="Arial" font-size="14.00" fill="#000000"> </text>
<text text-anchor="start" x="254.2789" y="-925.3" font-family="Arial" font-size="14.00" fill="#666666">[BASE TABLE]</text>
<polygon fill="none" stroke="#000000" points="43.5,-882.5 43.5,-912.5 354.5,-912.5 354.5,-882.5 43.5,-882.5"/>
<text text-anchor="start" x="50.5" y="-893.9" font-family="Arial" font-size="14.00" fill="#000000">id </text>
<text text-anchor="start" x="65.2798" y="-893.9" font-family="Arial" font-size="14.00" fill="#666666">[integer]</text>
<polygon fill="none" stroke="#000000" points="43.5,-852.5 43.5,-882.5 354.5,-882.5 354.5,-852.5 43.5,-852.5"/>
<text text-anchor="start" x="50.5" y="-863.9" font-family="Arial" font-size="14.00" fill="#000000">create_uid </text>
<text text-anchor="start" x="119.744" y="-863.9" font-family="Arial" font-size="14.00" fill="#666666">[integer]</text>
<polygon fill="none" stroke="#000000" points="43.5,-822.5 43.5,-852.5 354.5,-852.5 354.5,-822.5 43.5,-822.5"/>
<text text-anchor="start" x="50.5" y="-833.9" font-family="Arial" font-size="14.00" fill="#000000">create_date </text>
<text text-anchor="start" x="128.3106" y="-833.9" font-family="Arial" font-size="14.00" fill="#666666">[timestamp without time zone]</text>
<polygon fill="none" stroke="#000000" points="43.5,-792.5 43.5,-822.5 354.5,-822.5 354.5,-792.5 43.5,-792.5"/>
<text text-anchor="start" x="50.5" y="-803.9" font-family="Arial" font-size="14.00" fill="#000000">write_date </text>
<text text-anchor="start" x="118.9586" y="-803.9" font-family="Arial" font-size="14.00" fill="#666666">[timestamp without time zone]</text>
<polygon fill="none" stroke="#000000" points="43.5,-762.5 43.5,-792.5 354.5,-792.5 354.5,-762.5 43.5,-762.5"/>
<text text-anchor="start" x="50.5" y="-773.9" font-family="Arial" font-size="14.00" fill="#000000">write_uid </text>
<text text-anchor="start" x="110.392" y="-773.9" font-family="Arial" font-size="14.00" fill="#666666">[integer]</text>
<polygon fill="none" stroke="#000000" points="43.5,-732.5 43.5,-762.5 354.5,-762.5 354.5,-732.5 43.5,-732.5"/>
<text text-anchor="start" x="50.5" y="-743.9" font-family="Arial" font-size="14.00" fill="#000000">website </text>
<text text-anchor="start" x="101.8422" y="-743.9" font-family="Arial" font-size="14.00" fill="#666666">[varchar]</text>
<polygon fill="none" stroke="#000000" points="43.5,-702.5 43.5,-732.5 354.5,-732.5 354.5,-702.5 43.5,-702.5"/>
<text text-anchor="start" x="50.5" y="-713.9" font-family="Arial" font-size="14.00" fill="#000000">summary </text>
<text text-anchor="start" x="111.9376" y="-713.9" font-family="Arial" font-size="14.00" fill="#666666">[varchar]</text>
<polygon fill="none" stroke="#000000" points="43.5,-672.5 43.5,-702.5 354.5,-702.5 354.5,-672.5 43.5,-672.5"/>
<text text-anchor="start" x="50.5" y="-683.9" font-family="Arial" font-size="14.00" fill="#000000">name </text>
<text text-anchor="start" x="89.399" y="-683.9" font-family="Arial" font-size="14.00" fill="#666666">[varchar]</text>
<polygon fill="none" stroke="#000000" points="43.5,-642.5 43.5,-672.5 354.5,-672.5 354.5,-642.5 43.5,-642.5"/>
<text text-anchor="start" x="50.5" y="-653.9" font-family="Arial" font-size="14.00" fill="#000000">author </text>
<text text-anchor="start" x="94.0722" y="-653.9" font-family="Arial" font-size="14.00" fill="#666666">[varchar]</text>
<polygon fill="none" stroke="#000000" points="43.5,-612.5 43.5,-642.5 354.5,-642.5 354.5,-612.5 43.5,-612.5"/>
<text text-anchor="start" x="50.5" y="-623.9" font-family="Arial" font-size="14.00" fill="#000000">icon </text>
<text text-anchor="start" x="80.0624" y="-623.9" font-family="Arial" font-size="14.00" fill="#666666">[varchar]</text>
<polygon fill="none" stroke="#000000" points="43.5,-582.5 43.5,-612.5 354.5,-612.5 354.5,-582.5 43.5,-582.5"/>
<text text-anchor="start" x="50.5" y="-593.9" font-family="Arial" font-size="14.00" fill="#000000">state </text>
<text text-anchor="start" x="84.737" y="-593.9" font-family="Arial" font-size="14.00" fill="#666666">[varchar(16)]</text>
<polygon fill="none" stroke="#000000" points="43.5,-552.5 43.5,-582.5 354.5,-582.5 354.5,-552.5 43.5,-552.5"/>
<text text-anchor="start" x="50.5" y="-563.9" font-family="Arial" font-size="14.00" fill="#000000">latest_version </text>
<text text-anchor="start" x="140.7412" y="-563.9" font-family="Arial" font-size="14.00" fill="#666666">[varchar]</text>
<polygon fill="none" stroke="#000000" points="43.5,-522.5 43.5,-552.5 354.5,-552.5 354.5,-522.5 43.5,-522.5"/>
<text text-anchor="start" x="50.5" y="-533.9" font-family="Arial" font-size="14.00" fill="#000000">shortdesc </text>
<text text-anchor="start" x="115.0722" y="-533.9" font-family="Arial" font-size="14.00" fill="#666666">[varchar]</text>
<polygon fill="none" stroke="#000000" points="43.5,-492.5 43.5,-522.5 354.5,-522.5 354.5,-492.5 43.5,-492.5"/>
<text text-anchor="start" x="50.5" y="-503.9" font-family="Arial" font-size="14.00" fill="#000000">category_id </text>
<text text-anchor="start" x="126.744" y="-503.9" font-family="Arial" font-size="14.00" fill="#666666">[integer]</text>
<polygon fill="none" stroke="#000000" points="43.5,-462.5 43.5,-492.5 354.5,-492.5 354.5,-462.5 43.5,-462.5"/>
<text text-anchor="start" x="50.5" y="-473.9" font-family="Arial" font-size="14.00" fill="#000000">description </text>
<text text-anchor="start" x="122.068" y="-473.9" font-family="Arial" font-size="14.00" fill="#666666">[text]</text>
<polygon fill="none" stroke="#000000" points="43.5,-432.5 43.5,-462.5 354.5,-462.5 354.5,-432.5 43.5,-432.5"/>
<text text-anchor="start" x="50.5" y="-443.9" font-family="Arial" font-size="14.00" fill="#000000">application </text>
<text text-anchor="start" x="121.2966" y="-443.9" font-family="Arial" font-size="14.00" fill="#666666">[boolean]</text>
<polygon fill="none" stroke="#000000" points="43.5,-402.5 43.5,-432.5 354.5,-432.5 354.5,-402.5 43.5,-402.5"/>
<text text-anchor="start" x="50.5" y="-413.9" font-family="Arial" font-size="14.00" fill="#000000">demo </text>
<text text-anchor="start" x="89.399" y="-413.9" font-family="Arial" font-size="14.00" fill="#666666">[boolean]</text>
<polygon fill="none" stroke="#000000" points="43.5,-372.5 43.5,-402.5 354.5,-402.5 354.5,-372.5 43.5,-372.5"/>
<text text-anchor="start" x="50.5" y="-383.9" font-family="Arial" font-size="14.00" fill="#000000">web </text>
<text text-anchor="start" x="80.0624" y="-383.9" font-family="Arial" font-size="14.00" fill="#666666">[boolean]</text>
<polygon fill="none" stroke="#000000" points="43.5,-342.5 43.5,-372.5 354.5,-372.5 354.5,-342.5 43.5,-342.5"/>
<text text-anchor="start" x="50.5" y="-353.9" font-family="Arial" font-size="14.00" fill="#000000">license </text>
<text text-anchor="start" x="97.9516" y="-353.9" font-family="Arial" font-size="14.00" fill="#666666">[varchar(32)]</text>
<polygon fill="none" stroke="#000000" points="43.5,-312.5 43.5,-342.5 354.5,-342.5 354.5,-312.5 43.5,-312.5"/>
<text text-anchor="start" x="50.5" y="-323.9" font-family="Arial" font-size="14.00" fill="#000000">sequence </text>
<text text-anchor="start" x="115.0862" y="-323.9" font-family="Arial" font-size="14.00" fill="#666666">[integer]</text>
<polygon fill="none" stroke="#000000" points="43.5,-282.5 43.5,-312.5 354.5,-312.5 354.5,-282.5 43.5,-282.5"/>
<text text-anchor="start" x="50.5" y="-293.9" font-family="Arial" font-size="14.00" fill="#000000">auto_install </text>
<text text-anchor="start" x="125.1872" y="-293.9" font-family="Arial" font-size="14.00" fill="#666666">[boolean]</text>
<polygon fill="none" stroke="#000000" points="43.5,-252.5 43.5,-282.5 354.5,-282.5 354.5,-252.5 43.5,-252.5"/>
<text text-anchor="start" x="50.5" y="-263.9" font-family="Arial" font-size="14.00" fill="#000000">to_buy </text>
<text text-anchor="start" x="96.4116" y="-263.9" font-family="Arial" font-size="14.00" fill="#666666">[boolean]</text>
<polygon fill="none" stroke="#000000" points="43.5,-222.5 43.5,-252.5 354.5,-252.5 354.5,-222.5 43.5,-222.5"/>
<text text-anchor="start" x="50.5" y="-233.9" font-family="Arial" font-size="14.00" fill="#000000">maintainer </text>
<text text-anchor="start" x="119.7286" y="-233.9" font-family="Arial" font-size="14.00" fill="#666666">[varchar]</text>
<polygon fill="none" stroke="#000000" points="43.5,-192.5 43.5,-222.5 354.5,-222.5 354.5,-192.5 43.5,-192.5"/>
<text text-anchor="start" x="50.5" y="-203.9" font-family="Arial" font-size="14.00" fill="#000000">contributors </text>
<text text-anchor="start" x="127.5126" y="-203.9" font-family="Arial" font-size="14.00" fill="#666666">[text]</text>
<polygon fill="none" stroke="#000000" points="43.5,-162.5 43.5,-192.5 354.5,-192.5 354.5,-162.5 43.5,-162.5"/>
<text text-anchor="start" x="50.5" y="-173.9" font-family="Arial" font-size="14.00" fill="#000000">published_version </text>
<text text-anchor="start" x="167.197" y="-173.9" font-family="Arial" font-size="14.00" fill="#666666">[varchar]</text>
<polygon fill="none" stroke="#000000" points="43.5,-132.5 43.5,-162.5 354.5,-162.5 354.5,-132.5 43.5,-132.5"/>
<text text-anchor="start" x="50.5" y="-143.9" font-family="Arial" font-size="14.00" fill="#000000">url </text>
<text text-anchor="start" x="69.9404" y="-143.9" font-family="Arial" font-size="14.00" fill="#666666">[varchar]</text>
<polygon fill="none" stroke="#000000" points="43.5,-102.5 43.5,-132.5 354.5,-132.5 354.5,-102.5 43.5,-102.5"/>
<text text-anchor="start" x="50.5" y="-113.9" font-family="Arial" font-size="14.00" fill="#000000">menus_by_module </text>
<text text-anchor="start" x="172.6444" y="-113.9" font-family="Arial" font-size="14.00" fill="#666666">[text]</text>
<polygon fill="none" stroke="#000000" points="43.5,-72.5 43.5,-102.5 354.5,-102.5 354.5,-72.5 43.5,-72.5"/>
<text text-anchor="start" x="50.5" y="-83.9" font-family="Arial" font-size="14.00" fill="#000000">reports_by_module </text>
<text text-anchor="start" x="174.1956" y="-83.9" font-family="Arial" font-size="14.00" fill="#666666">[text]</text>
<polygon fill="none" stroke="#000000" points="43.5,-42.5 43.5,-72.5 354.5,-72.5 354.5,-42.5 43.5,-42.5"/>
<text text-anchor="start" x="50.5" y="-53.9" font-family="Arial" font-size="14.00" fill="#000000">views_by_module </text>
<text text-anchor="start" x="165.6318" y="-53.9" font-family="Arial" font-size="14.00" fill="#666666">[text]</text>
</g>
<!-- public.base_module_uninstall&#45;&gt;public.ir_module_module -->
<g id="edge1" class="edge">
<title>public.base_module_uninstall:module_id&#45;&gt;public.ir_module_module:id</title>
<path fill="none" stroke="#000000" d="M412.431,-1206.9106C292.0901,-1191.9577 491.9721,-897.5 354.5,-897.5"/>
<polygon fill="#000000" stroke="#000000" points="412.5171,-1206.9155 422.237,-1211.9923 417.5085,-1207.2078 422.5,-1207.5 422.5,-1207.5 422.5,-1207.5 417.5085,-1207.2078 422.763,-1203.0077 412.5171,-1206.9155 412.5171,-1206.9155"/>
<text text-anchor="start" x="10.9915" y="-1217.5" font-family="Arial" font-size="10.00" fill="#000000">FOREIGN KEY (module_id) REFERENCES ir_module_module(id) ON DELETE CASCADE</text>
</g>
<!-- public.res_users -->
<g id="node3" class="node">
<title>public.res_users</title>
<polygon fill="#efefef" stroke="transparent" points="458.5,-807.5 458.5,-842.5 734.5,-842.5 734.5,-807.5 458.5,-807.5"/>
<polygon fill="none" stroke="#000000" points="458.5,-807.5 458.5,-842.5 734.5,-842.5 734.5,-807.5 458.5,-807.5"/>
<text text-anchor="start" x="482.3639" y="-820.3" font-family="Arial Bold" font-size="18.00" fill="#000000">public.res_users</text>
<text text-anchor="start" x="613.3823" y="-820.3" font-family="Arial" font-size="14.00" fill="#000000"> </text>
<text text-anchor="start" x="617.2729" y="-820.3" font-family="Arial" font-size="14.00" fill="#666666">[BASE TABLE]</text>
<polygon fill="none" stroke="#000000" points="458.5,-777.5 458.5,-807.5 734.5,-807.5 734.5,-777.5 458.5,-777.5"/>
<text text-anchor="start" x="465.5" y="-788.9" font-family="Arial" font-size="14.00" fill="#000000">id </text>
<text text-anchor="start" x="480.2798" y="-788.9" font-family="Arial" font-size="14.00" fill="#666666">[integer]</text>
<polygon fill="none" stroke="#000000" points="458.5,-747.5 458.5,-777.5 734.5,-777.5 734.5,-747.5 458.5,-747.5"/>
<text text-anchor="start" x="465.5" y="-758.9" font-family="Arial" font-size="14.00" fill="#000000">active </text>
<text text-anchor="start" x="505.953" y="-758.9" font-family="Arial" font-size="14.00" fill="#666666">[boolean]</text>
<polygon fill="none" stroke="#000000" points="458.5,-717.5 458.5,-747.5 734.5,-747.5 734.5,-717.5 458.5,-717.5"/>
<text text-anchor="start" x="465.5" y="-728.9" font-family="Arial" font-size="14.00" fill="#000000">login </text>
<text text-anchor="start" x="498.9516" y="-728.9" font-family="Arial" font-size="14.00" fill="#666666">[varchar]</text>
<polygon fill="none" stroke="#000000" points="458.5,-687.5 458.5,-717.5 734.5,-717.5 734.5,-687.5 458.5,-687.5"/>
<text text-anchor="start" x="465.5" y="-698.9" font-family="Arial" font-size="14.00" fill="#000000">password </text>
<text text-anchor="start" x="529.2882" y="-698.9" font-family="Arial" font-size="14.00" fill="#666666">[varchar]</text>
<polygon fill="none" stroke="#000000" points="458.5,-657.5 458.5,-687.5 734.5,-687.5 734.5,-657.5 458.5,-657.5"/>
<text text-anchor="start" x="465.5" y="-668.9" font-family="Arial" font-size="14.00" fill="#000000">company_id </text>
<text text-anchor="start" x="544.8534" y="-668.9" font-family="Arial" font-size="14.00" fill="#666666">[integer]</text>
<polygon fill="none" stroke="#000000" points="458.5,-627.5 458.5,-657.5 734.5,-657.5 734.5,-627.5 458.5,-627.5"/>
<text text-anchor="start" x="465.5" y="-638.9" font-family="Arial" font-size="14.00" fill="#000000">partner_id </text>
<text text-anchor="start" x="532.4046" y="-638.9" font-family="Arial" font-size="14.00" fill="#666666">[integer]</text>
<polygon fill="none" stroke="#000000" points="458.5,-597.5 458.5,-627.5 734.5,-627.5 734.5,-597.5 458.5,-597.5"/>
<text text-anchor="start" x="465.0246" y="-608.9" font-family="Arial" font-size="14.00" fill="#000000">create_date </text>
<text text-anchor="start" x="542.8352" y="-608.9" font-family="Arial" font-size="14.00" fill="#666666">[timestamp without time zone]</text>
<polygon fill="none" stroke="#000000" points="458.5,-567.5 458.5,-597.5 734.5,-597.5 734.5,-567.5 458.5,-567.5"/>
<text text-anchor="start" x="465.5" y="-578.9" font-family="Arial" font-size="14.00" fill="#000000">signature </text>
<text text-anchor="start" x="526.9614" y="-578.9" font-family="Arial" font-size="14.00" fill="#666666">[text]</text>
<polygon fill="none" stroke="#000000" points="458.5,-537.5 458.5,-567.5 734.5,-567.5 734.5,-537.5 458.5,-537.5"/>
<text text-anchor="start" x="465.5" y="-548.9" font-family="Arial" font-size="14.00" fill="#000000">action_id </text>
<text text-anchor="start" x="525.4074" y="-548.9" font-family="Arial" font-size="14.00" fill="#666666">[integer]</text>
<polygon fill="none" stroke="#000000" points="458.5,-507.5 458.5,-537.5 734.5,-537.5 734.5,-507.5 458.5,-507.5"/>
<text text-anchor="start" x="465.5" y="-518.9" font-family="Arial" font-size="14.00" fill="#000000">share </text>
<text text-anchor="start" x="504.399" y="-518.9" font-family="Arial" font-size="14.00" fill="#666666">[boolean]</text>
<polygon fill="none" stroke="#000000" points="458.5,-477.5 458.5,-507.5 734.5,-507.5 734.5,-477.5 458.5,-477.5"/>
<text text-anchor="start" x="465.5" y="-488.9" font-family="Arial" font-size="14.00" fill="#000000">create_uid </text>
<text text-anchor="start" x="534.744" y="-488.9" font-family="Arial" font-size="14.00" fill="#666666">[integer]</text>
<polygon fill="none" stroke="#000000" points="458.5,-447.5 458.5,-477.5 734.5,-477.5 734.5,-447.5 458.5,-447.5"/>
<text text-anchor="start" x="465.5" y="-458.9" font-family="Arial" font-size="14.00" fill="#000000">write_uid </text>
<text text-anchor="start" x="525.392" y="-458.9" font-family="Arial" font-size="14.00" fill="#666666">[integer]</text>
<polygon fill="none" stroke="#000000" points="458.5,-417.5 458.5,-447.5 734.5,-447.5 734.5,-417.5 458.5,-417.5"/>
<text text-anchor="start" x="465.5" y="-428.9" font-family="Arial" font-size="14.00" fill="#000000">write_date </text>
<text text-anchor="start" x="533.9586" y="-428.9" font-family="Arial" font-size="14.00" fill="#666666">[timestamp without time zone]</text>
<polygon fill="none" stroke="#000000" points="458.5,-387.5 458.5,-417.5 734.5,-417.5 734.5,-387.5 458.5,-387.5"/>
<text text-anchor="start" x="465.5" y="-398.9" font-family="Arial" font-size="14.00" fill="#000000">alias_id </text>
<text text-anchor="start" x="516.8408" y="-398.9" font-family="Arial" font-size="14.00" fill="#666666">[integer]</text>
<polygon fill="none" stroke="#000000" points="458.5,-357.5 458.5,-387.5 734.5,-387.5 734.5,-357.5 458.5,-357.5"/>
<text text-anchor="start" x="465.5" y="-368.9" font-family="Arial" font-size="14.00" fill="#000000">notification_type </text>
<text text-anchor="start" x="570.5336" y="-368.9" font-family="Arial" font-size="14.00" fill="#666666">[varchar]</text>
<polygon fill="none" stroke="#000000" points="458.5,-327.5 458.5,-357.5 734.5,-357.5 734.5,-327.5 458.5,-327.5"/>
<text text-anchor="start" x="465.5" y="-338.9" font-family="Arial" font-size="14.00" fill="#000000">odoobot_state </text>
<text text-anchor="start" x="558.1058" y="-338.9" font-family="Arial" font-size="14.00" fill="#666666">[varchar]</text>
<polygon fill="none" stroke="#000000" points="458.5,-297.5 458.5,-327.5 734.5,-327.5 734.5,-297.5 458.5,-297.5"/>
<text text-anchor="start" x="465.5" y="-308.9" font-family="Arial" font-size="14.00" fill="#000000">sale_team_id </text>
<text text-anchor="start" x="552.6332" y="-308.9" font-family="Arial" font-size="14.00" fill="#666666">[integer]</text>
<polygon fill="none" stroke="#000000" points="458.5,-267.5 458.5,-297.5 734.5,-297.5 734.5,-267.5 458.5,-267.5"/>
<text text-anchor="start" x="465.5" y="-278.9" font-family="Arial" font-size="14.00" fill="#000000">target_sales_won </text>
<text text-anchor="start" x="579.089" y="-278.9" font-family="Arial" font-size="14.00" fill="#666666">[integer]</text>
<polygon fill="none" stroke="#000000" points="458.5,-237.5 458.5,-267.5 734.5,-267.5 734.5,-237.5 458.5,-237.5"/>
<text text-anchor="start" x="465.5" y="-248.9" font-family="Arial" font-size="14.00" fill="#000000">target_sales_done </text>
<text text-anchor="start" x="584.5476" y="-248.9" font-family="Arial" font-size="14.00" fill="#666666">[integer]</text>
<polygon fill="none" stroke="#000000" points="458.5,-207.5 458.5,-237.5 734.5,-237.5 734.5,-207.5 458.5,-207.5"/>
<text text-anchor="start" x="465.5" y="-218.9" font-family="Arial" font-size="14.00" fill="#000000">website_id </text>
<text text-anchor="start" x="535.514" y="-218.9" font-family="Arial" font-size="14.00" fill="#666666">[integer]</text>
<polygon fill="none" stroke="#000000" points="458.5,-177.5 458.5,-207.5 734.5,-207.5 734.5,-177.5 458.5,-177.5"/>
<text text-anchor="start" x="465.5" y="-188.9" font-family="Arial" font-size="14.00" fill="#000000">target_sales_invoiced </text>
<text text-anchor="start" x="604.7608" y="-188.9" font-family="Arial" font-size="14.00" fill="#666666">[integer]</text>
<polygon fill="none" stroke="#000000" points="458.5,-147.5 458.5,-177.5 734.5,-177.5 734.5,-147.5 458.5,-147.5"/>
<text text-anchor="start" x="465.5" y="-158.9" font-family="Arial" font-size="14.00" fill="#000000">pos_security_pin </text>
<text text-anchor="start" x="574.4158" y="-158.9" font-family="Arial" font-size="14.00" fill="#666666">[varchar(32)]</text>
</g>
<!-- public.base_module_uninstall&#45;&gt;public.res_users -->
<g id="edge2" class="edge">
<title>public.base_module_uninstall:create_uid&#45;&gt;public.res_users:id</title>
<path fill="none" stroke="#000000" d="M779.6139,-1176.6758C833.0199,-1167.302 803.7581,-1080.1463 769.5,-1027 687.275,-899.4401 540.725,-1013.5599 458.5,-886 435.9855,-851.0721 416.9444,-792.5 458.5,-792.5"/>
<polygon fill="#000000" stroke="#000000" points="779.467,-1176.6876 769.1344,-1173.0149 774.4835,-1177.0938 769.5,-1177.5 769.5,-1177.5 769.5,-1177.5 774.4835,-1177.0938 769.8656,-1181.9851 779.467,-1176.6876 779.467,-1176.6876"/>
<text text-anchor="start" x="776.157" y="-1187.5" font-family="Arial" font-size="10.00" fill="#000000">FOREIGN KEY (create_uid) REFERENCES res_users(id) ON DELETE SET NULL</text>
</g>
<!-- public.base_module_uninstall&#45;&gt;public.res_users -->
<g id="edge3" class="edge">
<title>public.base_module_uninstall:write_uid&#45;&gt;public.res_users:id</title>
<path fill="none" stroke="#000000" d="M779.6573,-1115.9521C806.0905,-1106.6455 789.164,-1057.5058 769.5,-1027 687.275,-899.4401 540.725,-1013.5599 458.5,-886 435.9855,-851.0721 416.9444,-792.5 458.5,-792.5"/>
<polygon fill="#000000" stroke="#000000" points="779.3859,-1115.9934 768.822,-1113.0514 774.4429,-1116.7467 769.5,-1117.5 769.5,-1117.5 769.5,-1117.5 774.4429,-1116.7467 770.178,-1121.9486 779.3859,-1115.9934 779.3859,-1115.9934"/>
<text text-anchor="start" x="776.497" y="-1127.5" font-family="Arial" font-size="10.00" fill="#000000">FOREIGN KEY (write_uid) REFERENCES res_users(id) ON DELETE SET NULL</text>
</g>
</g>
</svg>
