<?xml version="1.0" encoding="UTF-8" standalone="no"?>
<!DOCTYPE svg PUBLIC "-//W3C//DTD SVG 1.1//EN"
 "http://www.w3.org/Graphics/SVG/1.1/DTD/svg11.dtd">
<!-- Generated by graphviz version 2.40.1 (20161225.0304)
 -->
<!-- Title: public.account_invoice_account_register_payments_rel Pages: 1 -->
<svg width="1557pt" height="2002pt"
 viewBox="0.00 0.00 1557.00 2002.00" xmlns="http://www.w3.org/2000/svg" xmlns:xlink="http://www.w3.org/1999/xlink">
<g id="graph0" class="graph" transform="scale(1 1) rotate(0) translate(4 1998)">
<title>public.account_invoice_account_register_payments_rel</title>
<polygon fill="#ffffff" stroke="transparent" points="-4,4 -4,-1998 1553,-1998 1553,4 -4,4"/>
<!-- public.account_invoice_account_register_payments_rel -->
<g id="node1" class="node">
<title>public.account_invoice_account_register_payments_rel</title>
<polygon fill="#efefef" stroke="transparent" points="549,-1912.5 549,-1947.5 1102,-1947.5 1102,-1912.5 549,-1912.5"/>
<polygon fill="none" stroke="#000000" points="549,-1912.5 549,-1947.5 1102,-1947.5 1102,-1912.5 549,-1912.5"/>
<text text-anchor="start" x="555.8169" y="-1925.3" font-family="Arial Bold" font-size="18.00" fill="#000000">public.account_invoice_account_register_payments_rel</text>
<text text-anchor="start" x="997.9293" y="-1925.3" font-family="Arial" font-size="14.00" fill="#000000"> </text>
<text text-anchor="start" x="1001.8199" y="-1925.3" font-family="Arial" font-size="14.00" fill="#666666">[BASE TABLE]</text>
<polygon fill="none" stroke="#000000" points="549,-1882.5 549,-1912.5 1102,-1912.5 1102,-1882.5 549,-1882.5"/>
<text text-anchor="start" x="556" y="-1893.9" font-family="Arial" font-size="14.00" fill="#000000">account_register_payments_id </text>
<text text-anchor="start" x="750.4964" y="-1893.9" font-family="Arial" font-size="14.00" fill="#666666">[integer]</text>
<polygon fill="none" stroke="#000000" points="549,-1852.5 549,-1882.5 1102,-1882.5 1102,-1852.5 549,-1852.5"/>
<text text-anchor="start" x="556" y="-1863.9" font-family="Arial" font-size="14.00" fill="#000000">account_invoice_id </text>
<text text-anchor="start" x="678.927" y="-1863.9" font-family="Arial" font-size="14.00" fill="#666666">[integer]</text>
<polygon fill="none" stroke="#000000" stroke-width="3" points="547,-1851.5 547,-1949.5 1103,-1949.5 1103,-1851.5 547,-1851.5"/>
</g>
<!-- public.account_register_payments -->
<g id="node2" class="node">
<title>public.account_register_payments</title>
<polygon fill="#efefef" stroke="transparent" points="413,-1167.5 413,-1202.5 797,-1202.5 797,-1167.5 413,-1167.5"/>
<polygon fill="none" stroke="#000000" points="413,-1167.5 413,-1202.5 797,-1202.5 797,-1167.5 413,-1167.5"/>
<text text-anchor="start" x="419.8395" y="-1180.3" font-family="Arial Bold" font-size="18.00" fill="#000000">public.account_register_payments</text>
<text text-anchor="start" x="692.9067" y="-1180.3" font-family="Arial" font-size="14.00" fill="#000000"> </text>
<text text-anchor="start" x="696.7973" y="-1180.3" font-family="Arial" font-size="14.00" fill="#666666">[BASE TABLE]</text>
<polygon fill="none" stroke="#000000" points="413,-1137.5 413,-1167.5 797,-1167.5 797,-1137.5 413,-1137.5"/>
<text text-anchor="start" x="420" y="-1148.9" font-family="Arial" font-size="14.00" fill="#000000">id </text>
<text text-anchor="start" x="434.7798" y="-1148.9" font-family="Arial" font-size="14.00" fill="#666666">[integer]</text>
<polygon fill="none" stroke="#000000" points="413,-1107.5 413,-1137.5 797,-1137.5 797,-1107.5 413,-1107.5"/>
<text text-anchor="start" x="420" y="-1118.9" font-family="Arial" font-size="14.00" fill="#000000">group_invoices </text>
<text text-anchor="start" x="518.0252" y="-1118.9" font-family="Arial" font-size="14.00" fill="#666666">[boolean]</text>
<polygon fill="none" stroke="#000000" points="413,-1077.5 413,-1107.5 797,-1107.5 797,-1077.5 413,-1077.5"/>
<text text-anchor="start" x="420" y="-1088.9" font-family="Arial" font-size="14.00" fill="#000000">multi </text>
<text text-anchor="start" x="453.4376" y="-1088.9" font-family="Arial" font-size="14.00" fill="#666666">[boolean]</text>
<polygon fill="none" stroke="#000000" points="413,-1047.5 413,-1077.5 797,-1077.5 797,-1047.5 413,-1047.5"/>
<text text-anchor="start" x="420" y="-1058.9" font-family="Arial" font-size="14.00" fill="#000000">payment_type </text>
<text text-anchor="start" x="511.8106" y="-1058.9" font-family="Arial" font-size="14.00" fill="#666666">[varchar]</text>
<polygon fill="none" stroke="#000000" points="413,-1017.5 413,-1047.5 797,-1047.5 797,-1017.5 413,-1017.5"/>
<text text-anchor="start" x="420" y="-1028.9" font-family="Arial" font-size="14.00" fill="#000000">payment_method_id </text>
<text text-anchor="start" x="550.7082" y="-1028.9" font-family="Arial" font-size="14.00" fill="#666666">[integer]</text>
<polygon fill="none" stroke="#000000" points="413,-987.5 413,-1017.5 797,-1017.5 797,-987.5 413,-987.5"/>
<text text-anchor="start" x="420" y="-998.9" font-family="Arial" font-size="14.00" fill="#000000">partner_type </text>
<text text-anchor="start" x="502.4712" y="-998.9" font-family="Arial" font-size="14.00" fill="#666666">[varchar]</text>
<polygon fill="none" stroke="#000000" points="413,-957.5 413,-987.5 797,-987.5 797,-957.5 413,-957.5"/>
<text text-anchor="start" x="420" y="-968.9" font-family="Arial" font-size="14.00" fill="#000000">partner_id </text>
<text text-anchor="start" x="486.9046" y="-968.9" font-family="Arial" font-size="14.00" fill="#666666">[integer]</text>
<polygon fill="none" stroke="#000000" points="413,-927.5 413,-957.5 797,-957.5 797,-927.5 413,-927.5"/>
<text text-anchor="start" x="420" y="-938.9" font-family="Arial" font-size="14.00" fill="#000000">amount </text>
<text text-anchor="start" x="470.5722" y="-938.9" font-family="Arial" font-size="14.00" fill="#666666">[numeric]</text>
<polygon fill="none" stroke="#000000" points="413,-897.5 413,-927.5 797,-927.5 797,-897.5 413,-897.5"/>
<text text-anchor="start" x="420" y="-908.9" font-family="Arial" font-size="14.00" fill="#000000">currency_id </text>
<text text-anchor="start" x="496.2314" y="-908.9" font-family="Arial" font-size="14.00" fill="#666666">[integer]</text>
<polygon fill="none" stroke="#000000" points="413,-867.5 413,-897.5 797,-897.5 797,-867.5 413,-867.5"/>
<text text-anchor="start" x="420" y="-878.9" font-family="Arial" font-size="14.00" fill="#000000">payment_date </text>
<text text-anchor="start" x="512.5932" y="-878.9" font-family="Arial" font-size="14.00" fill="#666666">[date]</text>
<polygon fill="none" stroke="#000000" points="413,-837.5 413,-867.5 797,-867.5 797,-837.5 413,-837.5"/>
<text text-anchor="start" x="420" y="-848.9" font-family="Arial" font-size="14.00" fill="#000000">communication </text>
<text text-anchor="start" x="518.0112" y="-848.9" font-family="Arial" font-size="14.00" fill="#666666">[varchar]</text>
<polygon fill="none" stroke="#000000" points="413,-807.5 413,-837.5 797,-837.5 797,-807.5 413,-807.5"/>
<text text-anchor="start" x="420" y="-818.9" font-family="Arial" font-size="14.00" fill="#000000">journal_id </text>
<text text-anchor="start" x="484.5666" y="-818.9" font-family="Arial" font-size="14.00" fill="#666666">[integer]</text>
<polygon fill="none" stroke="#000000" points="413,-777.5 413,-807.5 797,-807.5 797,-777.5 413,-777.5"/>
<text text-anchor="start" x="420" y="-788.9" font-family="Arial" font-size="14.00" fill="#000000">payment_difference_handling </text>
<text text-anchor="start" x="607.5076" y="-788.9" font-family="Arial" font-size="14.00" fill="#666666">[varchar]</text>
<polygon fill="none" stroke="#000000" points="413,-747.5 413,-777.5 797,-777.5 797,-747.5 413,-747.5"/>
<text text-anchor="start" x="420" y="-758.9" font-family="Arial" font-size="14.00" fill="#000000">writeoff_account_id </text>
<text text-anchor="start" x="544.4768" y="-758.9" font-family="Arial" font-size="14.00" fill="#666666">[integer]</text>
<polygon fill="none" stroke="#000000" points="413,-717.5 413,-747.5 797,-747.5 797,-717.5 413,-717.5"/>
<text text-anchor="start" x="420" y="-728.9" font-family="Arial" font-size="14.00" fill="#000000">writeoff_label </text>
<text text-anchor="start" x="506.345" y="-728.9" font-family="Arial" font-size="14.00" fill="#666666">[varchar]</text>
<polygon fill="none" stroke="#000000" points="413,-687.5 413,-717.5 797,-717.5 797,-687.5 413,-687.5"/>
<text text-anchor="start" x="420" y="-698.9" font-family="Arial" font-size="14.00" fill="#000000">partner_bank_account_id </text>
<text text-anchor="start" x="581.8386" y="-698.9" font-family="Arial" font-size="14.00" fill="#666666">[integer]</text>
<polygon fill="none" stroke="#000000" points="413,-657.5 413,-687.5 797,-687.5 797,-657.5 413,-657.5"/>
<text text-anchor="start" x="420" y="-668.9" font-family="Arial" font-size="14.00" fill="#000000">create_uid </text>
<text text-anchor="start" x="489.244" y="-668.9" font-family="Arial" font-size="14.00" fill="#666666">[integer]</text>
<polygon fill="none" stroke="#000000" points="413,-627.5 413,-657.5 797,-657.5 797,-627.5 413,-627.5"/>
<text text-anchor="start" x="420" y="-638.9" font-family="Arial" font-size="14.00" fill="#000000">create_date </text>
<text text-anchor="start" x="497.8106" y="-638.9" font-family="Arial" font-size="14.00" fill="#666666">[timestamp without time zone]</text>
<polygon fill="none" stroke="#000000" points="413,-597.5 413,-627.5 797,-627.5 797,-597.5 413,-597.5"/>
<text text-anchor="start" x="420" y="-608.9" font-family="Arial" font-size="14.00" fill="#000000">write_uid </text>
<text text-anchor="start" x="479.892" y="-608.9" font-family="Arial" font-size="14.00" fill="#666666">[integer]</text>
<polygon fill="none" stroke="#000000" points="413,-567.5 413,-597.5 797,-597.5 797,-567.5 413,-567.5"/>
<text text-anchor="start" x="420" y="-578.9" font-family="Arial" font-size="14.00" fill="#000000">write_date </text>
<text text-anchor="start" x="488.4586" y="-578.9" font-family="Arial" font-size="14.00" fill="#666666">[timestamp without time zone]</text>
</g>
<!-- public.account_invoice_account_register_payments_rel&#45;&gt;public.account_register_payments -->
<g id="edge1" class="edge">
<title>public.account_invoice_account_register_payments_rel:account_register_payments_id&#45;&gt;public.account_register_payments:id</title>
<path fill="none" stroke="#000000" d="M538.8067,-1896.4831C399.8077,-1865.8322 967.7387,-1152.5 797,-1152.5"/>
<polygon fill="#000000" stroke="#000000" points="539.0494,-1896.5073 548.5533,-1901.9778 544.0247,-1897.0036 549,-1897.5 549,-1897.5 549,-1897.5 544.0247,-1897.0036 549.4467,-1893.0222 539.0494,-1896.5073 539.0494,-1896.5073"/>
<text text-anchor="start" x="7.1905" y="-1907.5" font-family="Arial" font-size="10.00" fill="#000000">FOREIGN KEY (account_register_payments_id) REFERENCES account_register_payments(id) ON DELETE CASCADE</text>
</g>
<!-- public.account_invoice -->
<g id="node3" class="node">
<title>public.account_invoice</title>
<polygon fill="#efefef" stroke="transparent" points="901,-1692.5 901,-1727.5 1193,-1727.5 1193,-1692.5 901,-1692.5"/>
<polygon fill="none" stroke="#000000" points="901,-1692.5 901,-1727.5 1193,-1727.5 1193,-1692.5 901,-1692.5"/>
<text text-anchor="start" x="907.8484" y="-1705.3" font-family="Arial Bold" font-size="18.00" fill="#000000">public.account_invoice</text>
<text text-anchor="start" x="1088.8978" y="-1705.3" font-family="Arial" font-size="14.00" fill="#000000"> </text>
<text text-anchor="start" x="1092.7884" y="-1705.3" font-family="Arial" font-size="14.00" fill="#666666">[BASE TABLE]</text>
<polygon fill="none" stroke="#000000" points="901,-1662.5 901,-1692.5 1193,-1692.5 1193,-1662.5 901,-1662.5"/>
<text text-anchor="start" x="908" y="-1673.9" font-family="Arial" font-size="14.00" fill="#000000">id </text>
<text text-anchor="start" x="922.7798" y="-1673.9" font-family="Arial" font-size="14.00" fill="#666666">[integer]</text>
<polygon fill="none" stroke="#000000" points="901,-1632.5 901,-1662.5 1193,-1662.5 1193,-1632.5 901,-1632.5"/>
<text text-anchor="start" x="908" y="-1643.9" font-family="Arial" font-size="14.00" fill="#000000">access_token </text>
<text text-anchor="start" x="997.4768" y="-1643.9" font-family="Arial" font-size="14.00" fill="#666666">[varchar]</text>
<polygon fill="none" stroke="#000000" points="901,-1602.5 901,-1632.5 1193,-1632.5 1193,-1602.5 901,-1602.5"/>
<text text-anchor="start" x="908" y="-1613.9" font-family="Arial" font-size="14.00" fill="#000000">message_main_attachment_id </text>
<text text-anchor="start" x="1102.4964" y="-1613.9" font-family="Arial" font-size="14.00" fill="#666666">[integer]</text>
<polygon fill="none" stroke="#000000" points="901,-1572.5 901,-1602.5 1193,-1602.5 1193,-1572.5 901,-1572.5"/>
<text text-anchor="start" x="908" y="-1583.9" font-family="Arial" font-size="14.00" fill="#000000">name </text>
<text text-anchor="start" x="946.899" y="-1583.9" font-family="Arial" font-size="14.00" fill="#666666">[varchar]</text>
<polygon fill="none" stroke="#000000" points="901,-1542.5 901,-1572.5 1193,-1572.5 1193,-1542.5 901,-1542.5"/>
<text text-anchor="start" x="908" y="-1553.9" font-family="Arial" font-size="14.00" fill="#000000">origin </text>
<text text-anchor="start" x="946.1122" y="-1553.9" font-family="Arial" font-size="14.00" fill="#666666">[varchar]</text>
<polygon fill="none" stroke="#000000" points="901,-1512.5 901,-1542.5 1193,-1542.5 1193,-1512.5 901,-1512.5"/>
<text text-anchor="start" x="908" y="-1523.9" font-family="Arial" font-size="14.00" fill="#000000">type </text>
<text text-anchor="start" x="938.3464" y="-1523.9" font-family="Arial" font-size="14.00" fill="#666666">[varchar]</text>
<polygon fill="none" stroke="#000000" points="901,-1482.5 901,-1512.5 1193,-1512.5 1193,-1482.5 901,-1482.5"/>
<text text-anchor="start" x="908" y="-1493.9" font-family="Arial" font-size="14.00" fill="#000000">refund_invoice_id </text>
<text text-anchor="start" x="1021.5876" y="-1493.9" font-family="Arial" font-size="14.00" fill="#666666">[integer]</text>
<polygon fill="none" stroke="#000000" points="901,-1452.5 901,-1482.5 1193,-1482.5 1193,-1452.5 901,-1452.5"/>
<text text-anchor="start" x="908" y="-1463.9" font-family="Arial" font-size="14.00" fill="#000000">number </text>
<text text-anchor="start" x="959.3422" y="-1463.9" font-family="Arial" font-size="14.00" fill="#666666">[varchar]</text>
<polygon fill="none" stroke="#000000" points="901,-1422.5 901,-1452.5 1193,-1452.5 1193,-1422.5 901,-1422.5"/>
<text text-anchor="start" x="908" y="-1433.9" font-family="Arial" font-size="14.00" fill="#000000">move_name </text>
<text text-anchor="start" x="988.9074" y="-1433.9" font-family="Arial" font-size="14.00" fill="#666666">[varchar]</text>
<polygon fill="none" stroke="#000000" points="901,-1392.5 901,-1422.5 1193,-1422.5 1193,-1392.5 901,-1392.5"/>
<text text-anchor="start" x="908" y="-1403.9" font-family="Arial" font-size="14.00" fill="#000000">reference </text>
<text text-anchor="start" x="971.0154" y="-1403.9" font-family="Arial" font-size="14.00" fill="#666666">[varchar]</text>
<polygon fill="none" stroke="#000000" points="901,-1362.5 901,-1392.5 1193,-1392.5 1193,-1362.5 901,-1362.5"/>
<text text-anchor="start" x="908" y="-1373.9" font-family="Arial" font-size="14.00" fill="#000000">comment </text>
<text text-anchor="start" x="969.4502" y="-1373.9" font-family="Arial" font-size="14.00" fill="#666666">[text]</text>
<polygon fill="none" stroke="#000000" points="901,-1332.5 901,-1362.5 1193,-1362.5 1193,-1332.5 901,-1332.5"/>
<text text-anchor="start" x="908" y="-1343.9" font-family="Arial" font-size="14.00" fill="#000000">state </text>
<text text-anchor="start" x="942.237" y="-1343.9" font-family="Arial" font-size="14.00" fill="#666666">[varchar]</text>
<polygon fill="none" stroke="#000000" points="901,-1302.5 901,-1332.5 1193,-1332.5 1193,-1302.5 901,-1302.5"/>
<text text-anchor="start" x="908" y="-1313.9" font-family="Arial" font-size="14.00" fill="#000000">sent </text>
<text text-anchor="start" x="938.3464" y="-1313.9" font-family="Arial" font-size="14.00" fill="#666666">[boolean]</text>
<polygon fill="none" stroke="#000000" points="901,-1272.5 901,-1302.5 1193,-1302.5 1193,-1272.5 901,-1272.5"/>
<text text-anchor="start" x="908" y="-1283.9" font-family="Arial" font-size="14.00" fill="#000000">date_invoice </text>
<text text-anchor="start" x="990.4726" y="-1283.9" font-family="Arial" font-size="14.00" fill="#666666">[date]</text>
<polygon fill="none" stroke="#000000" points="901,-1242.5 901,-1272.5 1193,-1272.5 1193,-1242.5 901,-1242.5"/>
<text text-anchor="start" x="908" y="-1253.9" font-family="Arial" font-size="14.00" fill="#000000">date_due </text>
<text text-anchor="start" x="970.2594" y="-1253.9" font-family="Arial" font-size="14.00" fill="#666666">[date]</text>
<polygon fill="none" stroke="#000000" points="901,-1212.5 901,-1242.5 1193,-1242.5 1193,-1212.5 901,-1212.5"/>
<text text-anchor="start" x="908" y="-1223.9" font-family="Arial" font-size="14.00" fill="#000000">partner_id </text>
<text text-anchor="start" x="974.9046" y="-1223.9" font-family="Arial" font-size="14.00" fill="#666666">[integer]</text>
<polygon fill="none" stroke="#000000" points="901,-1182.5 901,-1212.5 1193,-1212.5 1193,-1182.5 901,-1182.5"/>
<text text-anchor="start" x="908" y="-1193.9" font-family="Arial" font-size="14.00" fill="#000000">vendor_bill_id </text>
<text text-anchor="start" x="998.2384" y="-1193.9" font-family="Arial" font-size="14.00" fill="#666666">[integer]</text>
<polygon fill="none" stroke="#000000" points="901,-1152.5 901,-1182.5 1193,-1182.5 1193,-1152.5 901,-1152.5"/>
<text text-anchor="start" x="908" y="-1163.9" font-family="Arial" font-size="14.00" fill="#000000">payment_term_id </text>
<text text-anchor="start" x="1020.021" y="-1163.9" font-family="Arial" font-size="14.00" fill="#666666">[integer]</text>
<polygon fill="none" stroke="#000000" points="901,-1122.5 901,-1152.5 1193,-1152.5 1193,-1122.5 901,-1122.5"/>
<text text-anchor="start" x="908" y="-1133.9" font-family="Arial" font-size="14.00" fill="#000000">date </text>
<text text-anchor="start" x="939.129" y="-1133.9" font-family="Arial" font-size="14.00" fill="#666666">[date]</text>
<polygon fill="none" stroke="#000000" points="901,-1092.5 901,-1122.5 1193,-1122.5 1193,-1092.5 901,-1092.5"/>
<text text-anchor="start" x="908" y="-1103.9" font-family="Arial" font-size="14.00" fill="#000000">account_id </text>
<text text-anchor="start" x="979.5834" y="-1103.9" font-family="Arial" font-size="14.00" fill="#666666">[integer]</text>
<polygon fill="none" stroke="#000000" points="901,-1062.5 901,-1092.5 1193,-1092.5 1193,-1062.5 901,-1062.5"/>
<text text-anchor="start" x="908" y="-1073.9" font-family="Arial" font-size="14.00" fill="#000000">move_id </text>
<text text-anchor="start" x="964.7882" y="-1073.9" font-family="Arial" font-size="14.00" fill="#666666">[integer]</text>
<polygon fill="none" stroke="#000000" points="901,-1032.5 901,-1062.5 1193,-1062.5 1193,-1032.5 901,-1032.5"/>
<text text-anchor="start" x="908" y="-1043.9" font-family="Arial" font-size="14.00" fill="#000000">amount_untaxed </text>
<text text-anchor="start" x="1016.1584" y="-1043.9" font-family="Arial" font-size="14.00" fill="#666666">[numeric]</text>
<polygon fill="none" stroke="#000000" points="901,-1002.5 901,-1032.5 1193,-1032.5 1193,-1002.5 901,-1002.5"/>
<text text-anchor="start" x="908" y="-1013.9" font-family="Arial" font-size="14.00" fill="#000000">amount_untaxed_signed </text>
<text text-anchor="start" x="1065.178" y="-1013.9" font-family="Arial" font-size="14.00" fill="#666666">[numeric]</text>
<polygon fill="none" stroke="#000000" points="901,-972.5 901,-1002.5 1193,-1002.5 1193,-972.5 901,-972.5"/>
<text text-anchor="start" x="908" y="-983.9" font-family="Arial" font-size="14.00" fill="#000000">amount_tax </text>
<text text-anchor="start" x="985.028" y="-983.9" font-family="Arial" font-size="14.00" fill="#666666">[numeric]</text>
<polygon fill="none" stroke="#000000" points="901,-942.5 901,-972.5 1193,-972.5 1193,-942.5 901,-942.5"/>
<text text-anchor="start" x="908" y="-953.9" font-family="Arial" font-size="14.00" fill="#000000">amount_total </text>
<text text-anchor="start" x="992.8078" y="-953.9" font-family="Arial" font-size="14.00" fill="#666666">[numeric]</text>
<polygon fill="none" stroke="#000000" points="901,-912.5 901,-942.5 1193,-942.5 1193,-912.5 901,-912.5"/>
<text text-anchor="start" x="908" y="-923.9" font-family="Arial" font-size="14.00" fill="#000000">amount_total_signed </text>
<text text-anchor="start" x="1041.8274" y="-923.9" font-family="Arial" font-size="14.00" fill="#666666">[numeric]</text>
<polygon fill="none" stroke="#000000" points="901,-882.5 901,-912.5 1193,-912.5 1193,-882.5 901,-882.5"/>
<text text-anchor="start" x="908" y="-893.9" font-family="Arial" font-size="14.00" fill="#000000">amount_total_company_signed </text>
<text text-anchor="start" x="1106.401" y="-893.9" font-family="Arial" font-size="14.00" fill="#666666">[numeric]</text>
<polygon fill="none" stroke="#000000" points="901,-852.5 901,-882.5 1193,-882.5 1193,-852.5 901,-852.5"/>
<text text-anchor="start" x="908" y="-863.9" font-family="Arial" font-size="14.00" fill="#000000">currency_id </text>
<text text-anchor="start" x="984.2314" y="-863.9" font-family="Arial" font-size="14.00" fill="#666666">[integer]</text>
<polygon fill="none" stroke="#000000" points="901,-822.5 901,-852.5 1193,-852.5 1193,-822.5 901,-822.5"/>
<text text-anchor="start" x="908" y="-833.9" font-family="Arial" font-size="14.00" fill="#000000">journal_id </text>
<text text-anchor="start" x="972.5666" y="-833.9" font-family="Arial" font-size="14.00" fill="#666666">[integer]</text>
<polygon fill="none" stroke="#000000" points="901,-792.5 901,-822.5 1193,-822.5 1193,-792.5 901,-792.5"/>
<text text-anchor="start" x="908" y="-803.9" font-family="Arial" font-size="14.00" fill="#000000">company_id </text>
<text text-anchor="start" x="987.3534" y="-803.9" font-family="Arial" font-size="14.00" fill="#666666">[integer]</text>
<polygon fill="none" stroke="#000000" points="901,-762.5 901,-792.5 1193,-792.5 1193,-762.5 901,-762.5"/>
<text text-anchor="start" x="908" y="-773.9" font-family="Arial" font-size="14.00" fill="#000000">reconciled </text>
<text text-anchor="start" x="975.6774" y="-773.9" font-family="Arial" font-size="14.00" fill="#666666">[boolean]</text>
<polygon fill="none" stroke="#000000" points="901,-732.5 901,-762.5 1193,-762.5 1193,-732.5 901,-732.5"/>
<text text-anchor="start" x="908" y="-743.9" font-family="Arial" font-size="14.00" fill="#000000">partner_bank_id </text>
<text text-anchor="start" x="1013.035" y="-743.9" font-family="Arial" font-size="14.00" fill="#666666">[integer]</text>
<polygon fill="none" stroke="#000000" points="901,-702.5 901,-732.5 1193,-732.5 1193,-702.5 901,-702.5"/>
<text text-anchor="start" x="908" y="-713.9" font-family="Arial" font-size="14.00" fill="#000000">residual </text>
<text text-anchor="start" x="960.8948" y="-713.9" font-family="Arial" font-size="14.00" fill="#666666">[numeric]</text>
<polygon fill="none" stroke="#000000" points="901,-672.5 901,-702.5 1193,-702.5 1193,-672.5 901,-672.5"/>
<text text-anchor="start" x="908" y="-683.9" font-family="Arial" font-size="14.00" fill="#000000">residual_signed </text>
<text text-anchor="start" x="1009.9144" y="-683.9" font-family="Arial" font-size="14.00" fill="#666666">[numeric]</text>
<polygon fill="none" stroke="#000000" points="901,-642.5 901,-672.5 1193,-672.5 1193,-642.5 901,-642.5"/>
<text text-anchor="start" x="908" y="-653.9" font-family="Arial" font-size="14.00" fill="#000000">residual_company_signed </text>
<text text-anchor="start" x="1074.488" y="-653.9" font-family="Arial" font-size="14.00" fill="#666666">[numeric]</text>
<polygon fill="none" stroke="#000000" points="901,-612.5 901,-642.5 1193,-642.5 1193,-612.5 901,-612.5"/>
<text text-anchor="start" x="908" y="-623.9" font-family="Arial" font-size="14.00" fill="#000000">user_id </text>
<text text-anchor="start" x="957.7882" y="-623.9" font-family="Arial" font-size="14.00" fill="#666666">[integer]</text>
<polygon fill="none" stroke="#000000" points="901,-582.5 901,-612.5 1193,-612.5 1193,-582.5 901,-582.5"/>
<text text-anchor="start" x="908" y="-593.9" font-family="Arial" font-size="14.00" fill="#000000">fiscal_position_id </text>
<text text-anchor="start" x="1018.4656" y="-593.9" font-family="Arial" font-size="14.00" fill="#666666">[integer]</text>
<polygon fill="none" stroke="#000000" points="901,-552.5 901,-582.5 1193,-582.5 1193,-552.5 901,-552.5"/>
<text text-anchor="start" x="908" y="-563.9" font-family="Arial" font-size="14.00" fill="#000000">commercial_partner_id </text>
<text text-anchor="start" x="1054.23" y="-563.9" font-family="Arial" font-size="14.00" fill="#666666">[integer]</text>
<polygon fill="none" stroke="#000000" points="901,-522.5 901,-552.5 1193,-552.5 1193,-522.5 901,-522.5"/>
<text text-anchor="start" x="908" y="-533.9" font-family="Arial" font-size="14.00" fill="#000000">cash_rounding_id </text>
<text text-anchor="start" x="1022.373" y="-533.9" font-family="Arial" font-size="14.00" fill="#666666">[integer]</text>
<polygon fill="none" stroke="#000000" points="901,-492.5 901,-522.5 1193,-522.5 1193,-492.5 901,-492.5"/>
<text text-anchor="start" x="908" y="-503.9" font-family="Arial" font-size="14.00" fill="#000000">incoterm_id </text>
<text text-anchor="start" x="984.2286" y="-503.9" font-family="Arial" font-size="14.00" fill="#666666">[integer]</text>
<polygon fill="none" stroke="#000000" points="901,-462.5 901,-492.5 1193,-492.5 1193,-462.5 901,-462.5"/>
<text text-anchor="start" x="908" y="-473.9" font-family="Arial" font-size="14.00" fill="#000000">source_email </text>
<text text-anchor="start" x="995.1206" y="-473.9" font-family="Arial" font-size="14.00" fill="#666666">[varchar]</text>
<polygon fill="none" stroke="#000000" points="901,-432.5 901,-462.5 1193,-462.5 1193,-432.5 901,-432.5"/>
<text text-anchor="start" x="908" y="-443.9" font-family="Arial" font-size="14.00" fill="#000000">vendor_display_name </text>
<text text-anchor="start" x="1048.8162" y="-443.9" font-family="Arial" font-size="14.00" fill="#666666">[varchar]</text>
<polygon fill="none" stroke="#000000" points="901,-402.5 901,-432.5 1193,-432.5 1193,-402.5 901,-402.5"/>
<text text-anchor="start" x="908" y="-413.9" font-family="Arial" font-size="14.00" fill="#000000">create_uid </text>
<text text-anchor="start" x="977.244" y="-413.9" font-family="Arial" font-size="14.00" fill="#666666">[integer]</text>
<polygon fill="none" stroke="#000000" points="901,-372.5 901,-402.5 1193,-402.5 1193,-372.5 901,-372.5"/>
<text text-anchor="start" x="908" y="-383.9" font-family="Arial" font-size="14.00" fill="#000000">create_date </text>
<text text-anchor="start" x="985.8106" y="-383.9" font-family="Arial" font-size="14.00" fill="#666666">[timestamp without time zone]</text>
<polygon fill="none" stroke="#000000" points="901,-342.5 901,-372.5 1193,-372.5 1193,-342.5 901,-342.5"/>
<text text-anchor="start" x="908" y="-353.9" font-family="Arial" font-size="14.00" fill="#000000">write_uid </text>
<text text-anchor="start" x="967.892" y="-353.9" font-family="Arial" font-size="14.00" fill="#666666">[integer]</text>
<polygon fill="none" stroke="#000000" points="901,-312.5 901,-342.5 1193,-342.5 1193,-312.5 901,-312.5"/>
<text text-anchor="start" x="908" y="-323.9" font-family="Arial" font-size="14.00" fill="#000000">write_date </text>
<text text-anchor="start" x="976.4586" y="-323.9" font-family="Arial" font-size="14.00" fill="#666666">[timestamp without time zone]</text>
<polygon fill="none" stroke="#000000" points="901,-282.5 901,-312.5 1193,-312.5 1193,-282.5 901,-282.5"/>
<text text-anchor="start" x="908" y="-293.9" font-family="Arial" font-size="14.00" fill="#000000">team_id </text>
<text text-anchor="start" x="961.6788" y="-293.9" font-family="Arial" font-size="14.00" fill="#666666">[integer]</text>
<polygon fill="none" stroke="#000000" points="901,-252.5 901,-282.5 1193,-282.5 1193,-252.5 901,-252.5"/>
<text text-anchor="start" x="908" y="-263.9" font-family="Arial" font-size="14.00" fill="#000000">partner_shipping_id </text>
<text text-anchor="start" x="1034.8134" y="-263.9" font-family="Arial" font-size="14.00" fill="#666666">[integer]</text>
<polygon fill="none" stroke="#000000" points="901,-222.5 901,-252.5 1193,-252.5 1193,-222.5 901,-222.5"/>
<text text-anchor="start" x="908" y="-233.9" font-family="Arial" font-size="14.00" fill="#000000">website_id </text>
<text text-anchor="start" x="978.014" y="-233.9" font-family="Arial" font-size="14.00" fill="#666666">[integer]</text>
<polygon fill="none" stroke="#000000" points="901,-192.5 901,-222.5 1193,-222.5 1193,-192.5 901,-192.5"/>
<text text-anchor="start" x="908" y="-203.9" font-family="Arial" font-size="14.00" fill="#000000">incoterms_id </text>
<text text-anchor="start" x="991.2286" y="-203.9" font-family="Arial" font-size="14.00" fill="#666666">[integer]</text>
<polygon fill="none" stroke="#000000" points="901,-162.5 901,-192.5 1193,-192.5 1193,-162.5 901,-162.5"/>
<text text-anchor="start" x="908" y="-173.9" font-family="Arial" font-size="14.00" fill="#000000">campaign_id </text>
<text text-anchor="start" x="991.2426" y="-173.9" font-family="Arial" font-size="14.00" fill="#666666">[integer]</text>
<polygon fill="none" stroke="#000000" points="901,-132.5 901,-162.5 1193,-162.5 1193,-132.5 901,-132.5"/>
<text text-anchor="start" x="908" y="-143.9" font-family="Arial" font-size="14.00" fill="#000000">source_id </text>
<text text-anchor="start" x="972.5708" y="-143.9" font-family="Arial" font-size="14.00" fill="#666666">[integer]</text>
<polygon fill="none" stroke="#000000" points="901,-102.5 901,-132.5 1193,-132.5 1193,-102.5 901,-102.5"/>
<text text-anchor="start" x="908" y="-113.9" font-family="Arial" font-size="14.00" fill="#000000">medium_id </text>
<text text-anchor="start" x="980.338" y="-113.9" font-family="Arial" font-size="14.00" fill="#666666">[integer]</text>
<polygon fill="none" stroke="#000000" points="901,-72.5 901,-102.5 1193,-102.5 1193,-72.5 901,-72.5"/>
<text text-anchor="start" x="908" y="-83.9" font-family="Arial" font-size="14.00" fill="#000000">purchase_id </text>
<text text-anchor="start" x="988.136" y="-83.9" font-family="Arial" font-size="14.00" fill="#666666">[integer]</text>
<polygon fill="none" stroke="#000000" points="901,-42.5 901,-72.5 1193,-72.5 1193,-42.5 901,-42.5"/>
<text text-anchor="start" x="908" y="-53.9" font-family="Arial" font-size="14.00" fill="#000000">vendor_bill_purchase_id </text>
<text text-anchor="start" x="1063.5946" y="-53.9" font-family="Arial" font-size="14.00" fill="#666666">[integer]</text>
</g>
<!-- public.account_invoice_account_register_payments_rel&#45;&gt;public.account_invoice -->
<g id="edge2" class="edge">
<title>public.account_invoice_account_register_payments_rel:account_invoice_id&#45;&gt;public.account_invoice:id</title>
<path fill="none" stroke="#000000" d="M1112.0395,-1864.8048C1125.6925,-1855.5081 1116.5598,-1824.3992 1102,-1807 1043.7575,-1737.3993 959.2425,-1840.6007 901,-1771 874.3315,-1739.1307 859.4444,-1677.5 901,-1677.5"/>
<polygon fill="#000000" stroke="#000000" points="1111.658,-1864.9071 1100.8332,-1863.1539 1106.829,-1866.2036 1102,-1867.5 1102,-1867.5 1102,-1867.5 1106.829,-1866.2036 1103.1668,-1871.8461 1111.658,-1864.9071 1111.658,-1864.9071"/>
<text text-anchor="start" x="1109.3115" y="-1877.5" font-family="Arial" font-size="10.00" fill="#000000">FOREIGN KEY (account_invoice_id) REFERENCES account_invoice(id) ON DELETE CASCADE</text>
</g>
</g>
</svg>
