<?xml version="1.0" encoding="UTF-8" standalone="no"?>
<!DOCTYPE svg PUBLIC "-//W3C//DTD SVG 1.1//EN"
 "http://www.w3.org/Graphics/SVG/1.1/DTD/svg11.dtd">
<!-- Generated by graphviz version 2.40.1 (20161225.0304)
 -->
<!-- Title: public.theme_website_menu Pages: 1 -->
<svg width="1176pt" height="1859pt"
 viewBox="0.00 0.00 1176.00 1859.00" xmlns="http://www.w3.org/2000/svg" xmlns:xlink="http://www.w3.org/1999/xlink">
<g id="graph0" class="graph" transform="scale(1 1) rotate(0) translate(4 1855)">
<title>public.theme_website_menu</title>
<polygon fill="#ffffff" stroke="transparent" points="-4,4 -4,-1855 1172,-1855 1172,4 -4,4"/>
<!-- public.theme_website_menu -->
<g id="node1" class="node">
<title>public.theme_website_menu</title>
<polygon fill="#efefef" stroke="transparent" points="449,-1192.5 449,-1227.5 788,-1227.5 788,-1192.5 449,-1192.5"/>
<polygon fill="none" stroke="#000000" points="449,-1192.5 449,-1227.5 788,-1227.5 788,-1192.5 449,-1192.5"/>
<text text-anchor="start" x="455.8458" y="-1205.3" font-family="Arial Bold" font-size="18.00" fill="#000000">public.theme_website_menu</text>
<text text-anchor="start" x="683.9004" y="-1205.3" font-family="Arial" font-size="14.00" fill="#000000"> </text>
<text text-anchor="start" x="687.791" y="-1205.3" font-family="Arial" font-size="14.00" fill="#666666">[BASE TABLE]</text>
<polygon fill="none" stroke="#000000" points="449,-1162.5 449,-1192.5 788,-1192.5 788,-1162.5 449,-1162.5"/>
<text text-anchor="start" x="456" y="-1173.9" font-family="Arial" font-size="14.00" fill="#000000">id </text>
<text text-anchor="start" x="470.7798" y="-1173.9" font-family="Arial" font-size="14.00" fill="#666666">[integer]</text>
<polygon fill="none" stroke="#000000" points="449,-1132.5 449,-1162.5 788,-1162.5 788,-1132.5 449,-1132.5"/>
<text text-anchor="start" x="456" y="-1143.9" font-family="Arial" font-size="14.00" fill="#000000">name </text>
<text text-anchor="start" x="494.899" y="-1143.9" font-family="Arial" font-size="14.00" fill="#666666">[varchar]</text>
<polygon fill="none" stroke="#000000" points="449,-1102.5 449,-1132.5 788,-1132.5 788,-1102.5 449,-1102.5"/>
<text text-anchor="start" x="456" y="-1113.9" font-family="Arial" font-size="14.00" fill="#000000">url </text>
<text text-anchor="start" x="475.4404" y="-1113.9" font-family="Arial" font-size="14.00" fill="#666666">[varchar]</text>
<polygon fill="none" stroke="#000000" points="449,-1072.5 449,-1102.5 788,-1102.5 788,-1072.5 449,-1072.5"/>
<text text-anchor="start" x="456" y="-1083.9" font-family="Arial" font-size="14.00" fill="#000000">page_id </text>
<text text-anchor="start" x="509.6928" y="-1083.9" font-family="Arial" font-size="14.00" fill="#666666">[integer]</text>
<polygon fill="none" stroke="#000000" points="449,-1042.5 449,-1072.5 788,-1072.5 788,-1042.5 449,-1042.5"/>
<text text-anchor="start" x="456" y="-1053.9" font-family="Arial" font-size="14.00" fill="#000000">new_window </text>
<text text-anchor="start" x="540.0126" y="-1053.9" font-family="Arial" font-size="14.00" fill="#666666">[boolean]</text>
<polygon fill="none" stroke="#000000" points="449,-1012.5 449,-1042.5 788,-1042.5 788,-1012.5 449,-1012.5"/>
<text text-anchor="start" x="456" y="-1023.9" font-family="Arial" font-size="14.00" fill="#000000">sequence </text>
<text text-anchor="start" x="520.5862" y="-1023.9" font-family="Arial" font-size="14.00" fill="#666666">[integer]</text>
<polygon fill="none" stroke="#000000" points="449,-982.5 449,-1012.5 788,-1012.5 788,-982.5 449,-982.5"/>
<text text-anchor="start" x="456" y="-993.9" font-family="Arial" font-size="14.00" fill="#000000">parent_id </text>
<text text-anchor="start" x="518.244" y="-993.9" font-family="Arial" font-size="14.00" fill="#666666">[integer]</text>
<polygon fill="none" stroke="#000000" points="449,-952.5 449,-982.5 788,-982.5 788,-952.5 449,-952.5"/>
<text text-anchor="start" x="456" y="-963.9" font-family="Arial" font-size="14.00" fill="#000000">create_uid </text>
<text text-anchor="start" x="525.244" y="-963.9" font-family="Arial" font-size="14.00" fill="#666666">[integer]</text>
<polygon fill="none" stroke="#000000" points="449,-922.5 449,-952.5 788,-952.5 788,-922.5 449,-922.5"/>
<text text-anchor="start" x="456" y="-933.9" font-family="Arial" font-size="14.00" fill="#000000">create_date </text>
<text text-anchor="start" x="533.8106" y="-933.9" font-family="Arial" font-size="14.00" fill="#666666">[timestamp without time zone]</text>
<polygon fill="none" stroke="#000000" points="449,-892.5 449,-922.5 788,-922.5 788,-892.5 449,-892.5"/>
<text text-anchor="start" x="456" y="-903.9" font-family="Arial" font-size="14.00" fill="#000000">write_uid </text>
<text text-anchor="start" x="515.892" y="-903.9" font-family="Arial" font-size="14.00" fill="#666666">[integer]</text>
<polygon fill="none" stroke="#000000" points="449,-862.5 449,-892.5 788,-892.5 788,-862.5 449,-862.5"/>
<text text-anchor="start" x="456" y="-873.9" font-family="Arial" font-size="14.00" fill="#000000">write_date </text>
<text text-anchor="start" x="524.4586" y="-873.9" font-family="Arial" font-size="14.00" fill="#666666">[timestamp without time zone]</text>
<polygon fill="none" stroke="#000000" stroke-width="3" points="447,-861.5 447,-1229.5 789,-1229.5 789,-861.5 447,-861.5"/>
</g>
<!-- public.theme_website_menu&#45;&gt;public.theme_website_menu -->
<g id="edge2" class="edge">
<title>public.theme_website_menu:parent_id&#45;&gt;public.theme_website_menu:id</title>
<path fill="none" stroke="#000000" d="M620.2285,-1022.5715C627.9795,-1197.9579 627.57,-1541 619,-1541 610.2725,-1541 610.0082,-1354.4934 618.2074,-1192.5853"/>
<polygon fill="#000000" stroke="#000000" points="620.2271,-1022.5401 624.2631,-1012.3439 619.9975,-1017.5453 619.7678,-1012.5506 619.7678,-1012.5506 619.7678,-1012.5506 619.9975,-1017.5453 615.2726,-1012.7573 620.2271,-1022.5401 620.2271,-1022.5401"/>
<text text-anchor="start" x="626.6948" y="-1022.5506" font-family="Arial" font-size="10.00" fill="#000000">FOREIGN KEY (parent_id) REFERENCES theme_website_menu(id) ON DELETE CASCADE</text>
</g>
<!-- public.theme_website_page -->
<g id="node3" class="node">
<title>public.theme_website_page</title>
<polygon fill="#efefef" stroke="transparent" points="43,-492.5 43,-527.5 377,-527.5 377,-492.5 43,-492.5"/>
<polygon fill="none" stroke="#000000" points="43,-492.5 43,-527.5 377,-527.5 377,-492.5 43,-492.5"/>
<text text-anchor="start" x="49.8388" y="-505.3" font-family="Arial Bold" font-size="18.00" fill="#000000">public.theme_website_page</text>
<text text-anchor="start" x="272.9074" y="-505.3" font-family="Arial" font-size="14.00" fill="#000000"> </text>
<text text-anchor="start" x="276.798" y="-505.3" font-family="Arial" font-size="14.00" fill="#666666">[BASE TABLE]</text>
<polygon fill="none" stroke="#000000" points="43,-462.5 43,-492.5 377,-492.5 377,-462.5 43,-462.5"/>
<text text-anchor="start" x="50" y="-473.9" font-family="Arial" font-size="14.00" fill="#000000">id </text>
<text text-anchor="start" x="64.7798" y="-473.9" font-family="Arial" font-size="14.00" fill="#666666">[integer]</text>
<polygon fill="none" stroke="#000000" points="43,-432.5 43,-462.5 377,-462.5 377,-432.5 43,-432.5"/>
<text text-anchor="start" x="50" y="-443.9" font-family="Arial" font-size="14.00" fill="#000000">url </text>
<text text-anchor="start" x="69.4404" y="-443.9" font-family="Arial" font-size="14.00" fill="#666666">[varchar]</text>
<polygon fill="none" stroke="#000000" points="43,-402.5 43,-432.5 377,-432.5 377,-402.5 43,-402.5"/>
<text text-anchor="start" x="50" y="-413.9" font-family="Arial" font-size="14.00" fill="#000000">view_id </text>
<text text-anchor="start" x="100.5582" y="-413.9" font-family="Arial" font-size="14.00" fill="#666666">[integer]</text>
<polygon fill="none" stroke="#000000" points="43,-372.5 43,-402.5 377,-402.5 377,-372.5 43,-372.5"/>
<text text-anchor="start" x="50" y="-383.9" font-family="Arial" font-size="14.00" fill="#000000">website_indexed </text>
<text text-anchor="start" x="158.1444" y="-383.9" font-family="Arial" font-size="14.00" fill="#666666">[boolean]</text>
<polygon fill="none" stroke="#000000" points="43,-342.5 43,-372.5 377,-372.5 377,-342.5 43,-342.5"/>
<text text-anchor="start" x="50" y="-353.9" font-family="Arial" font-size="14.00" fill="#000000">create_uid </text>
<text text-anchor="start" x="119.244" y="-353.9" font-family="Arial" font-size="14.00" fill="#666666">[integer]</text>
<polygon fill="none" stroke="#000000" points="43,-312.5 43,-342.5 377,-342.5 377,-312.5 43,-312.5"/>
<text text-anchor="start" x="50" y="-323.9" font-family="Arial" font-size="14.00" fill="#000000">create_date </text>
<text text-anchor="start" x="127.8106" y="-323.9" font-family="Arial" font-size="14.00" fill="#666666">[timestamp without time zone]</text>
<polygon fill="none" stroke="#000000" points="43,-282.5 43,-312.5 377,-312.5 377,-282.5 43,-282.5"/>
<text text-anchor="start" x="50" y="-293.9" font-family="Arial" font-size="14.00" fill="#000000">write_uid </text>
<text text-anchor="start" x="109.892" y="-293.9" font-family="Arial" font-size="14.00" fill="#666666">[integer]</text>
<polygon fill="none" stroke="#000000" points="43,-252.5 43,-282.5 377,-282.5 377,-252.5 43,-252.5"/>
<text text-anchor="start" x="50" y="-263.9" font-family="Arial" font-size="14.00" fill="#000000">write_date </text>
<text text-anchor="start" x="118.4586" y="-263.9" font-family="Arial" font-size="14.00" fill="#666666">[timestamp without time zone]</text>
</g>
<!-- public.theme_website_menu&#45;&gt;public.theme_website_page -->
<g id="edge3" class="edge">
<title>public.theme_website_menu:page_id&#45;&gt;public.theme_website_page:id</title>
<path fill="none" stroke="#000000" d="M438.8944,-1086.2501C322.8681,-1055.7561 509.8975,-477.5 377,-477.5"/>
<polygon fill="#000000" stroke="#000000" points="439.0756,-1086.2724 448.4476,-1091.966 444.0378,-1086.8862 449,-1087.5 449,-1087.5 449,-1087.5 444.0378,-1086.8862 449.5524,-1083.034 439.0756,-1086.2724 439.0756,-1086.2724"/>
<text text-anchor="start" x="35.366" y="-1097.5" font-family="Arial" font-size="10.00" fill="#000000">FOREIGN KEY (page_id) REFERENCES theme_website_page(id) ON DELETE CASCADE</text>
</g>
<!-- public.res_users -->
<g id="node4" class="node">
<title>public.res_users</title>
<polygon fill="#efefef" stroke="transparent" points="481,-702.5 481,-737.5 757,-737.5 757,-702.5 481,-702.5"/>
<polygon fill="none" stroke="#000000" points="481,-702.5 481,-737.5 757,-737.5 757,-702.5 481,-702.5"/>
<text text-anchor="start" x="504.8639" y="-715.3" font-family="Arial Bold" font-size="18.00" fill="#000000">public.res_users</text>
<text text-anchor="start" x="635.8823" y="-715.3" font-family="Arial" font-size="14.00" fill="#000000"> </text>
<text text-anchor="start" x="639.7729" y="-715.3" font-family="Arial" font-size="14.00" fill="#666666">[BASE TABLE]</text>
<polygon fill="none" stroke="#000000" points="481,-672.5 481,-702.5 757,-702.5 757,-672.5 481,-672.5"/>
<text text-anchor="start" x="488" y="-683.9" font-family="Arial" font-size="14.00" fill="#000000">id </text>
<text text-anchor="start" x="502.7798" y="-683.9" font-family="Arial" font-size="14.00" fill="#666666">[integer]</text>
<polygon fill="none" stroke="#000000" points="481,-642.5 481,-672.5 757,-672.5 757,-642.5 481,-642.5"/>
<text text-anchor="start" x="488" y="-653.9" font-family="Arial" font-size="14.00" fill="#000000">active </text>
<text text-anchor="start" x="528.453" y="-653.9" font-family="Arial" font-size="14.00" fill="#666666">[boolean]</text>
<polygon fill="none" stroke="#000000" points="481,-612.5 481,-642.5 757,-642.5 757,-612.5 481,-612.5"/>
<text text-anchor="start" x="488" y="-623.9" font-family="Arial" font-size="14.00" fill="#000000">login </text>
<text text-anchor="start" x="521.4516" y="-623.9" font-family="Arial" font-size="14.00" fill="#666666">[varchar]</text>
<polygon fill="none" stroke="#000000" points="481,-582.5 481,-612.5 757,-612.5 757,-582.5 481,-582.5"/>
<text text-anchor="start" x="488" y="-593.9" font-family="Arial" font-size="14.00" fill="#000000">password </text>
<text text-anchor="start" x="551.7882" y="-593.9" font-family="Arial" font-size="14.00" fill="#666666">[varchar]</text>
<polygon fill="none" stroke="#000000" points="481,-552.5 481,-582.5 757,-582.5 757,-552.5 481,-552.5"/>
<text text-anchor="start" x="488" y="-563.9" font-family="Arial" font-size="14.00" fill="#000000">company_id </text>
<text text-anchor="start" x="567.3534" y="-563.9" font-family="Arial" font-size="14.00" fill="#666666">[integer]</text>
<polygon fill="none" stroke="#000000" points="481,-522.5 481,-552.5 757,-552.5 757,-522.5 481,-522.5"/>
<text text-anchor="start" x="488" y="-533.9" font-family="Arial" font-size="14.00" fill="#000000">partner_id </text>
<text text-anchor="start" x="554.9046" y="-533.9" font-family="Arial" font-size="14.00" fill="#666666">[integer]</text>
<polygon fill="none" stroke="#000000" points="481,-492.5 481,-522.5 757,-522.5 757,-492.5 481,-492.5"/>
<text text-anchor="start" x="487.5246" y="-503.9" font-family="Arial" font-size="14.00" fill="#000000">create_date </text>
<text text-anchor="start" x="565.3352" y="-503.9" font-family="Arial" font-size="14.00" fill="#666666">[timestamp without time zone]</text>
<polygon fill="none" stroke="#000000" points="481,-462.5 481,-492.5 757,-492.5 757,-462.5 481,-462.5"/>
<text text-anchor="start" x="488" y="-473.9" font-family="Arial" font-size="14.00" fill="#000000">signature </text>
<text text-anchor="start" x="549.4614" y="-473.9" font-family="Arial" font-size="14.00" fill="#666666">[text]</text>
<polygon fill="none" stroke="#000000" points="481,-432.5 481,-462.5 757,-462.5 757,-432.5 481,-432.5"/>
<text text-anchor="start" x="488" y="-443.9" font-family="Arial" font-size="14.00" fill="#000000">action_id </text>
<text text-anchor="start" x="547.9074" y="-443.9" font-family="Arial" font-size="14.00" fill="#666666">[integer]</text>
<polygon fill="none" stroke="#000000" points="481,-402.5 481,-432.5 757,-432.5 757,-402.5 481,-402.5"/>
<text text-anchor="start" x="488" y="-413.9" font-family="Arial" font-size="14.00" fill="#000000">share </text>
<text text-anchor="start" x="526.899" y="-413.9" font-family="Arial" font-size="14.00" fill="#666666">[boolean]</text>
<polygon fill="none" stroke="#000000" points="481,-372.5 481,-402.5 757,-402.5 757,-372.5 481,-372.5"/>
<text text-anchor="start" x="488" y="-383.9" font-family="Arial" font-size="14.00" fill="#000000">create_uid </text>
<text text-anchor="start" x="557.244" y="-383.9" font-family="Arial" font-size="14.00" fill="#666666">[integer]</text>
<polygon fill="none" stroke="#000000" points="481,-342.5 481,-372.5 757,-372.5 757,-342.5 481,-342.5"/>
<text text-anchor="start" x="488" y="-353.9" font-family="Arial" font-size="14.00" fill="#000000">write_uid </text>
<text text-anchor="start" x="547.892" y="-353.9" font-family="Arial" font-size="14.00" fill="#666666">[integer]</text>
<polygon fill="none" stroke="#000000" points="481,-312.5 481,-342.5 757,-342.5 757,-312.5 481,-312.5"/>
<text text-anchor="start" x="488" y="-323.9" font-family="Arial" font-size="14.00" fill="#000000">write_date </text>
<text text-anchor="start" x="556.4586" y="-323.9" font-family="Arial" font-size="14.00" fill="#666666">[timestamp without time zone]</text>
<polygon fill="none" stroke="#000000" points="481,-282.5 481,-312.5 757,-312.5 757,-282.5 481,-282.5"/>
<text text-anchor="start" x="488" y="-293.9" font-family="Arial" font-size="14.00" fill="#000000">alias_id </text>
<text text-anchor="start" x="539.3408" y="-293.9" font-family="Arial" font-size="14.00" fill="#666666">[integer]</text>
<polygon fill="none" stroke="#000000" points="481,-252.5 481,-282.5 757,-282.5 757,-252.5 481,-252.5"/>
<text text-anchor="start" x="488" y="-263.9" font-family="Arial" font-size="14.00" fill="#000000">notification_type </text>
<text text-anchor="start" x="593.0336" y="-263.9" font-family="Arial" font-size="14.00" fill="#666666">[varchar]</text>
<polygon fill="none" stroke="#000000" points="481,-222.5 481,-252.5 757,-252.5 757,-222.5 481,-222.5"/>
<text text-anchor="start" x="488" y="-233.9" font-family="Arial" font-size="14.00" fill="#000000">odoobot_state </text>
<text text-anchor="start" x="580.6058" y="-233.9" font-family="Arial" font-size="14.00" fill="#666666">[varchar]</text>
<polygon fill="none" stroke="#000000" points="481,-192.5 481,-222.5 757,-222.5 757,-192.5 481,-192.5"/>
<text text-anchor="start" x="488" y="-203.9" font-family="Arial" font-size="14.00" fill="#000000">sale_team_id </text>
<text text-anchor="start" x="575.1332" y="-203.9" font-family="Arial" font-size="14.00" fill="#666666">[integer]</text>
<polygon fill="none" stroke="#000000" points="481,-162.5 481,-192.5 757,-192.5 757,-162.5 481,-162.5"/>
<text text-anchor="start" x="488" y="-173.9" font-family="Arial" font-size="14.00" fill="#000000">target_sales_won </text>
<text text-anchor="start" x="601.589" y="-173.9" font-family="Arial" font-size="14.00" fill="#666666">[integer]</text>
<polygon fill="none" stroke="#000000" points="481,-132.5 481,-162.5 757,-162.5 757,-132.5 481,-132.5"/>
<text text-anchor="start" x="488" y="-143.9" font-family="Arial" font-size="14.00" fill="#000000">target_sales_done </text>
<text text-anchor="start" x="607.0476" y="-143.9" font-family="Arial" font-size="14.00" fill="#666666">[integer]</text>
<polygon fill="none" stroke="#000000" points="481,-102.5 481,-132.5 757,-132.5 757,-102.5 481,-102.5"/>
<text text-anchor="start" x="488" y="-113.9" font-family="Arial" font-size="14.00" fill="#000000">website_id </text>
<text text-anchor="start" x="558.014" y="-113.9" font-family="Arial" font-size="14.00" fill="#666666">[integer]</text>
<polygon fill="none" stroke="#000000" points="481,-72.5 481,-102.5 757,-102.5 757,-72.5 481,-72.5"/>
<text text-anchor="start" x="488" y="-83.9" font-family="Arial" font-size="14.00" fill="#000000">target_sales_invoiced </text>
<text text-anchor="start" x="627.2608" y="-83.9" font-family="Arial" font-size="14.00" fill="#666666">[integer]</text>
<polygon fill="none" stroke="#000000" points="481,-42.5 481,-72.5 757,-72.5 757,-42.5 481,-42.5"/>
<text text-anchor="start" x="488" y="-53.9" font-family="Arial" font-size="14.00" fill="#000000">pos_security_pin </text>
<text text-anchor="start" x="596.9158" y="-53.9" font-family="Arial" font-size="14.00" fill="#666666">[varchar(32)]</text>
</g>
<!-- public.theme_website_menu&#45;&gt;public.res_users -->
<g id="edge4" class="edge">
<title>public.theme_website_menu:create_uid&#45;&gt;public.res_users:id</title>
<path fill="none" stroke="#000000" d="M798.1836,-966.6228C852.3696,-956.6564 830.0268,-864.243 788,-817 696.69,-714.357 572.31,-883.643 481,-781 453.3799,-749.9518 439.4444,-687.5 481,-687.5"/>
<polygon fill="#000000" stroke="#000000" points="797.9631,-966.6417 787.6138,-963.0166 792.9816,-967.0708 788,-967.5 788,-967.5 788,-967.5 792.9816,-967.0708 788.3862,-971.9834 797.9631,-966.6417 797.9631,-966.6417"/>
<text text-anchor="start" x="794.657" y="-977.5" font-family="Arial" font-size="10.00" fill="#000000">FOREIGN KEY (create_uid) REFERENCES res_users(id) ON DELETE SET NULL</text>
</g>
<!-- public.theme_website_menu&#45;&gt;public.res_users -->
<g id="edge5" class="edge">
<title>public.theme_website_menu:write_uid&#45;&gt;public.res_users:id</title>
<path fill="none" stroke="#000000" d="M797.9296,-905.981C825.5767,-896.4332 812.2276,-844.2347 788,-817 696.69,-714.357 572.31,-883.643 481,-781 453.3799,-749.9518 439.4444,-687.5 481,-687.5"/>
<polygon fill="#000000" stroke="#000000" points="797.885,-905.9878 787.3195,-903.0517 792.9425,-906.7439 788,-907.5 788,-907.5 788,-907.5 792.9425,-906.7439 788.6805,-911.9483 797.885,-905.9878 797.885,-905.9878"/>
<text text-anchor="start" x="794.997" y="-917.5" font-family="Arial" font-size="10.00" fill="#000000">FOREIGN KEY (write_uid) REFERENCES res_users(id) ON DELETE SET NULL</text>
</g>
<!-- public.website_menu -->
<g id="node2" class="node">
<title>public.website_menu</title>
<polygon fill="#efefef" stroke="transparent" points="479,-1772.5 479,-1807.5 758,-1807.5 758,-1772.5 479,-1772.5"/>
<polygon fill="none" stroke="#000000" points="479,-1772.5 479,-1807.5 758,-1807.5 758,-1772.5 479,-1772.5"/>
<text text-anchor="start" x="485.8554" y="-1785.3" font-family="Arial Bold" font-size="18.00" fill="#000000">public.website_menu</text>
<text text-anchor="start" x="653.8908" y="-1785.3" font-family="Arial" font-size="14.00" fill="#000000"> </text>
<text text-anchor="start" x="657.7814" y="-1785.3" font-family="Arial" font-size="14.00" fill="#666666">[BASE TABLE]</text>
<polygon fill="none" stroke="#000000" points="479,-1742.5 479,-1772.5 758,-1772.5 758,-1742.5 479,-1742.5"/>
<text text-anchor="start" x="486" y="-1753.9" font-family="Arial" font-size="14.00" fill="#000000">id </text>
<text text-anchor="start" x="500.7798" y="-1753.9" font-family="Arial" font-size="14.00" fill="#666666">[integer]</text>
<polygon fill="none" stroke="#000000" points="479,-1712.5 479,-1742.5 758,-1742.5 758,-1712.5 479,-1712.5"/>
<text text-anchor="start" x="486" y="-1723.9" font-family="Arial" font-size="14.00" fill="#000000">parent_path </text>
<text text-anchor="start" x="564.5932" y="-1723.9" font-family="Arial" font-size="14.00" fill="#666666">[varchar]</text>
<polygon fill="none" stroke="#000000" points="479,-1682.5 479,-1712.5 758,-1712.5 758,-1682.5 479,-1682.5"/>
<text text-anchor="start" x="486" y="-1693.9" font-family="Arial" font-size="14.00" fill="#000000">name </text>
<text text-anchor="start" x="524.899" y="-1693.9" font-family="Arial" font-size="14.00" fill="#666666">[varchar]</text>
<polygon fill="none" stroke="#000000" points="479,-1652.5 479,-1682.5 758,-1682.5 758,-1652.5 479,-1652.5"/>
<text text-anchor="start" x="486" y="-1663.9" font-family="Arial" font-size="14.00" fill="#000000">url </text>
<text text-anchor="start" x="505.4404" y="-1663.9" font-family="Arial" font-size="14.00" fill="#666666">[varchar]</text>
<polygon fill="none" stroke="#000000" points="479,-1622.5 479,-1652.5 758,-1652.5 758,-1622.5 479,-1622.5"/>
<text text-anchor="start" x="486" y="-1633.9" font-family="Arial" font-size="14.00" fill="#000000">page_id </text>
<text text-anchor="start" x="539.6928" y="-1633.9" font-family="Arial" font-size="14.00" fill="#666666">[integer]</text>
<polygon fill="none" stroke="#000000" points="479,-1592.5 479,-1622.5 758,-1622.5 758,-1592.5 479,-1592.5"/>
<text text-anchor="start" x="486" y="-1603.9" font-family="Arial" font-size="14.00" fill="#000000">new_window </text>
<text text-anchor="start" x="570.0126" y="-1603.9" font-family="Arial" font-size="14.00" fill="#666666">[boolean]</text>
<polygon fill="none" stroke="#000000" points="479,-1562.5 479,-1592.5 758,-1592.5 758,-1562.5 479,-1562.5"/>
<text text-anchor="start" x="486" y="-1573.9" font-family="Arial" font-size="14.00" fill="#000000">sequence </text>
<text text-anchor="start" x="550.5862" y="-1573.9" font-family="Arial" font-size="14.00" fill="#666666">[integer]</text>
<polygon fill="none" stroke="#000000" points="479,-1532.5 479,-1562.5 758,-1562.5 758,-1532.5 479,-1532.5"/>
<text text-anchor="start" x="486" y="-1543.9" font-family="Arial" font-size="14.00" fill="#000000">website_id </text>
<text text-anchor="start" x="556.014" y="-1543.9" font-family="Arial" font-size="14.00" fill="#666666">[integer]</text>
<polygon fill="none" stroke="#000000" points="479,-1502.5 479,-1532.5 758,-1532.5 758,-1502.5 479,-1502.5"/>
<text text-anchor="start" x="486" y="-1513.9" font-family="Arial" font-size="14.00" fill="#000000">parent_id </text>
<text text-anchor="start" x="548.244" y="-1513.9" font-family="Arial" font-size="14.00" fill="#666666">[integer]</text>
<polygon fill="none" stroke="#000000" points="479,-1472.5 479,-1502.5 758,-1502.5 758,-1472.5 479,-1472.5"/>
<text text-anchor="start" x="486" y="-1483.9" font-family="Arial" font-size="14.00" fill="#000000">create_uid </text>
<text text-anchor="start" x="555.244" y="-1483.9" font-family="Arial" font-size="14.00" fill="#666666">[integer]</text>
<polygon fill="none" stroke="#000000" points="479,-1442.5 479,-1472.5 758,-1472.5 758,-1442.5 479,-1442.5"/>
<text text-anchor="start" x="486" y="-1453.9" font-family="Arial" font-size="14.00" fill="#000000">create_date </text>
<text text-anchor="start" x="563.8106" y="-1453.9" font-family="Arial" font-size="14.00" fill="#666666">[timestamp without time zone]</text>
<polygon fill="none" stroke="#000000" points="479,-1412.5 479,-1442.5 758,-1442.5 758,-1412.5 479,-1412.5"/>
<text text-anchor="start" x="486" y="-1423.9" font-family="Arial" font-size="14.00" fill="#000000">write_uid </text>
<text text-anchor="start" x="545.892" y="-1423.9" font-family="Arial" font-size="14.00" fill="#666666">[integer]</text>
<polygon fill="none" stroke="#000000" points="479,-1382.5 479,-1412.5 758,-1412.5 758,-1382.5 479,-1382.5"/>
<text text-anchor="start" x="486" y="-1393.9" font-family="Arial" font-size="14.00" fill="#000000">write_date </text>
<text text-anchor="start" x="554.4586" y="-1393.9" font-family="Arial" font-size="14.00" fill="#666666">[timestamp without time zone]</text>
<polygon fill="none" stroke="#000000" points="479,-1352.5 479,-1382.5 758,-1382.5 758,-1352.5 479,-1352.5"/>
<text text-anchor="start" x="486" y="-1363.9" font-family="Arial" font-size="14.00" fill="#000000">theme_template_id </text>
<text text-anchor="start" x="608.9228" y="-1363.9" font-family="Arial" font-size="14.00" fill="#666666">[integer]</text>
</g>
<!-- public.website_menu&#45;&gt;public.theme_website_menu -->
<g id="edge1" class="edge">
<title>public.website_menu:theme_template_id&#45;&gt;public.theme_website_menu:id</title>
<path fill="none" stroke="#000000" d="M618.261,-1342.2139C607.9178,-1275.7084 491.8316,-1340.9557 449,-1274 425.8883,-1237.871 406.1111,-1177.5 449,-1177.5"/>
<polygon fill="#000000" stroke="#000000" points="618.2833,-1342.5257 614.5116,-1352.8225 618.6416,-1347.5129 619,-1352.5 619,-1352.5 619,-1352.5 618.6416,-1347.5129 623.4884,-1352.1775 618.2833,-1342.5257 618.2833,-1342.5257"/>
<text text-anchor="start" x="625.5315" y="-1362.5" font-family="Arial" font-size="10.00" fill="#000000">FOREIGN KEY (theme_template_id) REFERENCES theme_website_menu(id) ON DELETE SET NULL</text>
</g>
</g>
</svg>
