<?xml version="1.0" encoding="UTF-8" standalone="no"?>
<!DOCTYPE svg PUBLIC "-//W3C//DTD SVG 1.1//EN"
 "http://www.w3.org/Graphics/SVG/1.1/DTD/svg11.dtd">
<!-- Generated by graphviz version 2.40.1 (20161225.0304)
 -->
<!-- Title: public.account_tax_account_tag Pages: 1 -->
<svg width="1281pt" height="1012pt"
 viewBox="0.00 0.00 1281.00 1012.00" xmlns="http://www.w3.org/2000/svg" xmlns:xlink="http://www.w3.org/1999/xlink">
<g id="graph0" class="graph" transform="scale(1 1) rotate(0) translate(4 1008)">
<title>public.account_tax_account_tag</title>
<polygon fill="#ffffff" stroke="transparent" points="-4,4 -4,-1008 1277,-1008 1277,4 -4,4"/>
<!-- public.account_tax_account_tag -->
<g id="node1" class="node">
<title>public.account_tax_account_tag</title>
<polygon fill="#efefef" stroke="transparent" points="411,-922.5 411,-957.5 779,-957.5 779,-922.5 411,-922.5"/>
<polygon fill="none" stroke="#000000" points="411,-922.5 411,-957.5 779,-957.5 779,-922.5 411,-922.5"/>
<text text-anchor="start" x="417.8207" y="-935.3" font-family="Arial Bold" font-size="18.00" fill="#000000">public.account_tax_account_tag</text>
<text text-anchor="start" x="674.9255" y="-935.3" font-family="Arial" font-size="14.00" fill="#000000"> </text>
<text text-anchor="start" x="678.8161" y="-935.3" font-family="Arial" font-size="14.00" fill="#666666">[BASE TABLE]</text>
<polygon fill="none" stroke="#000000" points="411,-892.5 411,-922.5 779,-922.5 779,-892.5 411,-892.5"/>
<text text-anchor="start" x="418" y="-903.9" font-family="Arial" font-size="14.00" fill="#000000">account_tax_id </text>
<text text-anchor="start" x="516.0392" y="-903.9" font-family="Arial" font-size="14.00" fill="#666666">[integer]</text>
<polygon fill="none" stroke="#000000" points="411,-862.5 411,-892.5 779,-892.5 779,-862.5 411,-862.5"/>
<text text-anchor="start" x="418" y="-873.9" font-family="Arial" font-size="14.00" fill="#000000">account_account_tag_id </text>
<text text-anchor="start" x="573.6254" y="-873.9" font-family="Arial" font-size="14.00" fill="#666666">[integer]</text>
<polygon fill="none" stroke="#000000" stroke-width="3" points="409.5,-861.5 409.5,-959.5 780.5,-959.5 780.5,-861.5 409.5,-861.5"/>
</g>
<!-- public.account_tax -->
<g id="node2" class="node">
<title>public.account_tax</title>
<polygon fill="#efefef" stroke="transparent" points="253,-702.5 253,-737.5 529,-737.5 529,-702.5 253,-702.5"/>
<polygon fill="none" stroke="#000000" points="253,-702.5 253,-737.5 529,-737.5 529,-702.5 253,-702.5"/>
<text text-anchor="start" x="267.8477" y="-715.3" font-family="Arial Bold" font-size="18.00" fill="#000000">public.account_tax</text>
<text text-anchor="start" x="416.8985" y="-715.3" font-family="Arial" font-size="14.00" fill="#000000"> </text>
<text text-anchor="start" x="420.7891" y="-715.3" font-family="Arial" font-size="14.00" fill="#666666">[BASE TABLE]</text>
<polygon fill="none" stroke="#000000" points="253,-672.5 253,-702.5 529,-702.5 529,-672.5 253,-672.5"/>
<text text-anchor="start" x="260" y="-683.9" font-family="Arial" font-size="14.00" fill="#000000">id </text>
<text text-anchor="start" x="274.7798" y="-683.9" font-family="Arial" font-size="14.00" fill="#666666">[integer]</text>
<polygon fill="none" stroke="#000000" points="253,-642.5 253,-672.5 529,-672.5 529,-642.5 253,-642.5"/>
<text text-anchor="start" x="260" y="-653.9" font-family="Arial" font-size="14.00" fill="#000000">name </text>
<text text-anchor="start" x="298.899" y="-653.9" font-family="Arial" font-size="14.00" fill="#666666">[varchar]</text>
<polygon fill="none" stroke="#000000" points="253,-612.5 253,-642.5 529,-642.5 529,-612.5 253,-612.5"/>
<text text-anchor="start" x="260" y="-623.9" font-family="Arial" font-size="14.00" fill="#000000">type_tax_use </text>
<text text-anchor="start" x="347.15" y="-623.9" font-family="Arial" font-size="14.00" fill="#666666">[varchar]</text>
<polygon fill="none" stroke="#000000" points="253,-582.5 253,-612.5 529,-612.5 529,-582.5 253,-582.5"/>
<text text-anchor="start" x="260" y="-593.9" font-family="Arial" font-size="14.00" fill="#000000">amount_type </text>
<text text-anchor="start" x="344.8106" y="-593.9" font-family="Arial" font-size="14.00" fill="#666666">[varchar]</text>
<polygon fill="none" stroke="#000000" points="253,-552.5 253,-582.5 529,-582.5 529,-552.5 253,-552.5"/>
<text text-anchor="start" x="260" y="-563.9" font-family="Arial" font-size="14.00" fill="#000000">active </text>
<text text-anchor="start" x="300.453" y="-563.9" font-family="Arial" font-size="14.00" fill="#666666">[boolean]</text>
<polygon fill="none" stroke="#000000" points="253,-522.5 253,-552.5 529,-552.5 529,-522.5 253,-522.5"/>
<text text-anchor="start" x="260" y="-533.9" font-family="Arial" font-size="14.00" fill="#000000">company_id </text>
<text text-anchor="start" x="339.3534" y="-533.9" font-family="Arial" font-size="14.00" fill="#666666">[integer]</text>
<polygon fill="none" stroke="#000000" points="253,-492.5 253,-522.5 529,-522.5 529,-492.5 253,-492.5"/>
<text text-anchor="start" x="260" y="-503.9" font-family="Arial" font-size="14.00" fill="#000000">sequence </text>
<text text-anchor="start" x="324.5862" y="-503.9" font-family="Arial" font-size="14.00" fill="#666666">[integer]</text>
<polygon fill="none" stroke="#000000" points="253,-462.5 253,-492.5 529,-492.5 529,-462.5 253,-462.5"/>
<text text-anchor="start" x="260" y="-473.9" font-family="Arial" font-size="14.00" fill="#000000">amount </text>
<text text-anchor="start" x="310.5722" y="-473.9" font-family="Arial" font-size="14.00" fill="#666666">[numeric]</text>
<polygon fill="none" stroke="#000000" points="253,-432.5 253,-462.5 529,-462.5 529,-432.5 253,-432.5"/>
<text text-anchor="start" x="260" y="-443.9" font-family="Arial" font-size="14.00" fill="#000000">account_id </text>
<text text-anchor="start" x="331.5834" y="-443.9" font-family="Arial" font-size="14.00" fill="#666666">[integer]</text>
<polygon fill="none" stroke="#000000" points="253,-402.5 253,-432.5 529,-432.5 529,-402.5 253,-402.5"/>
<text text-anchor="start" x="260" y="-413.9" font-family="Arial" font-size="14.00" fill="#000000">refund_account_id </text>
<text text-anchor="start" x="379.0476" y="-413.9" font-family="Arial" font-size="14.00" fill="#666666">[integer]</text>
<polygon fill="none" stroke="#000000" points="253,-372.5 253,-402.5 529,-402.5 529,-372.5 253,-372.5"/>
<text text-anchor="start" x="260" y="-383.9" font-family="Arial" font-size="14.00" fill="#000000">description </text>
<text text-anchor="start" x="331.568" y="-383.9" font-family="Arial" font-size="14.00" fill="#666666">[varchar]</text>
<polygon fill="none" stroke="#000000" points="253,-342.5 253,-372.5 529,-372.5 529,-342.5 253,-342.5"/>
<text text-anchor="start" x="260" y="-353.9" font-family="Arial" font-size="14.00" fill="#000000">price_include </text>
<text text-anchor="start" x="346.3492" y="-353.9" font-family="Arial" font-size="14.00" fill="#666666">[boolean]</text>
<polygon fill="none" stroke="#000000" points="253,-312.5 253,-342.5 529,-342.5 529,-312.5 253,-312.5"/>
<text text-anchor="start" x="260" y="-323.9" font-family="Arial" font-size="14.00" fill="#000000">include_base_amount </text>
<text text-anchor="start" x="400.8288" y="-323.9" font-family="Arial" font-size="14.00" fill="#666666">[boolean]</text>
<polygon fill="none" stroke="#000000" points="253,-282.5 253,-312.5 529,-312.5 529,-282.5 253,-282.5"/>
<text text-anchor="start" x="260" y="-293.9" font-family="Arial" font-size="14.00" fill="#000000">analytic </text>
<text text-anchor="start" x="311.3422" y="-293.9" font-family="Arial" font-size="14.00" fill="#666666">[boolean]</text>
<polygon fill="none" stroke="#000000" points="253,-252.5 253,-282.5 529,-282.5 529,-252.5 253,-252.5"/>
<text text-anchor="start" x="260" y="-263.9" font-family="Arial" font-size="14.00" fill="#000000">tax_group_id </text>
<text text-anchor="start" x="344.8092" y="-263.9" font-family="Arial" font-size="14.00" fill="#666666">[integer]</text>
<polygon fill="none" stroke="#000000" points="253,-222.5 253,-252.5 529,-252.5 529,-222.5 253,-222.5"/>
<text text-anchor="start" x="260" y="-233.9" font-family="Arial" font-size="14.00" fill="#000000">tax_exigibility </text>
<text text-anchor="start" x="347.1178" y="-233.9" font-family="Arial" font-size="14.00" fill="#666666">[varchar]</text>
<polygon fill="none" stroke="#000000" points="253,-192.5 253,-222.5 529,-222.5 529,-192.5 253,-192.5"/>
<text text-anchor="start" x="260" y="-203.9" font-family="Arial" font-size="14.00" fill="#000000">cash_basis_account_id </text>
<text text-anchor="start" x="409.3856" y="-203.9" font-family="Arial" font-size="14.00" fill="#666666">[integer]</text>
<polygon fill="none" stroke="#000000" points="253,-162.5 253,-192.5 529,-192.5 529,-162.5 253,-162.5"/>
<text text-anchor="start" x="260" y="-173.9" font-family="Arial" font-size="14.00" fill="#000000">cash_basis_base_account_id </text>
<text text-anchor="start" x="447.516" y="-173.9" font-family="Arial" font-size="14.00" fill="#666666">[integer]</text>
<polygon fill="none" stroke="#000000" points="253,-132.5 253,-162.5 529,-162.5 529,-132.5 253,-132.5"/>
<text text-anchor="start" x="260" y="-143.9" font-family="Arial" font-size="14.00" fill="#000000">create_uid </text>
<text text-anchor="start" x="329.244" y="-143.9" font-family="Arial" font-size="14.00" fill="#666666">[integer]</text>
<polygon fill="none" stroke="#000000" points="253,-102.5 253,-132.5 529,-132.5 529,-102.5 253,-102.5"/>
<text text-anchor="start" x="259.5246" y="-113.9" font-family="Arial" font-size="14.00" fill="#000000">create_date </text>
<text text-anchor="start" x="337.3352" y="-113.9" font-family="Arial" font-size="14.00" fill="#666666">[timestamp without time zone]</text>
<polygon fill="none" stroke="#000000" points="253,-72.5 253,-102.5 529,-102.5 529,-72.5 253,-72.5"/>
<text text-anchor="start" x="260" y="-83.9" font-family="Arial" font-size="14.00" fill="#000000">write_uid </text>
<text text-anchor="start" x="319.892" y="-83.9" font-family="Arial" font-size="14.00" fill="#666666">[integer]</text>
<polygon fill="none" stroke="#000000" points="253,-42.5 253,-72.5 529,-72.5 529,-42.5 253,-42.5"/>
<text text-anchor="start" x="260" y="-53.9" font-family="Arial" font-size="14.00" fill="#000000">write_date </text>
<text text-anchor="start" x="328.4586" y="-53.9" font-family="Arial" font-size="14.00" fill="#666666">[timestamp without time zone]</text>
</g>
<!-- public.account_tax_account_tag&#45;&gt;public.account_tax -->
<g id="edge1" class="edge">
<title>public.account_tax_account_tag:account_tax_id&#45;&gt;public.account_tax:id</title>
<path fill="none" stroke="#000000" d="M400.7874,-905.9139C374.0319,-896.3844 389.4027,-846.169 411,-817 443.6276,-772.9335 496.3724,-825.0665 529,-781 553.7281,-747.6026 570.5556,-687.5 529,-687.5"/>
<polygon fill="#000000" stroke="#000000" points="401.1185,-905.9652 410.3093,-911.9467 406.0592,-906.7326 411,-907.5 411,-907.5 411,-907.5 406.0592,-906.7326 411.6907,-903.0533 401.1185,-905.9652 401.1185,-905.9652"/>
<text text-anchor="start" x="7.0885" y="-917.5" font-family="Arial" font-size="10.00" fill="#000000">FOREIGN KEY (account_tax_id) REFERENCES account_tax(id) ON DELETE CASCADE</text>
</g>
<!-- public.account_account_tag -->
<g id="node3" class="node">
<title>public.account_account_tag</title>
<polygon fill="#efefef" stroke="transparent" points="633,-507.5 633,-542.5 967,-542.5 967,-507.5 633,-507.5"/>
<polygon fill="none" stroke="#000000" points="633,-507.5 633,-542.5 967,-542.5 967,-507.5 633,-507.5"/>
<text text-anchor="start" x="639.828" y="-520.3" font-family="Arial Bold" font-size="18.00" fill="#000000">public.account_account_tag</text>
<text text-anchor="start" x="862.9182" y="-520.3" font-family="Arial" font-size="14.00" fill="#000000"> </text>
<text text-anchor="start" x="866.8088" y="-520.3" font-family="Arial" font-size="14.00" fill="#666666">[BASE TABLE]</text>
<polygon fill="none" stroke="#000000" points="633,-477.5 633,-507.5 967,-507.5 967,-477.5 633,-477.5"/>
<text text-anchor="start" x="640" y="-488.9" font-family="Arial" font-size="14.00" fill="#000000">id </text>
<text text-anchor="start" x="654.7798" y="-488.9" font-family="Arial" font-size="14.00" fill="#666666">[integer]</text>
<polygon fill="none" stroke="#000000" points="633,-447.5 633,-477.5 967,-477.5 967,-447.5 633,-447.5"/>
<text text-anchor="start" x="640" y="-458.9" font-family="Arial" font-size="14.00" fill="#000000">name </text>
<text text-anchor="start" x="678.899" y="-458.9" font-family="Arial" font-size="14.00" fill="#666666">[varchar]</text>
<polygon fill="none" stroke="#000000" points="633,-417.5 633,-447.5 967,-447.5 967,-417.5 633,-417.5"/>
<text text-anchor="start" x="640" y="-428.9" font-family="Arial" font-size="14.00" fill="#000000">applicability </text>
<text text-anchor="start" x="716.2272" y="-428.9" font-family="Arial" font-size="14.00" fill="#666666">[varchar]</text>
<polygon fill="none" stroke="#000000" points="633,-387.5 633,-417.5 967,-417.5 967,-387.5 633,-387.5"/>
<text text-anchor="start" x="640" y="-398.9" font-family="Arial" font-size="14.00" fill="#000000">color </text>
<text text-anchor="start" x="674.223" y="-398.9" font-family="Arial" font-size="14.00" fill="#666666">[integer]</text>
<polygon fill="none" stroke="#000000" points="633,-357.5 633,-387.5 967,-387.5 967,-357.5 633,-357.5"/>
<text text-anchor="start" x="640" y="-368.9" font-family="Arial" font-size="14.00" fill="#000000">active </text>
<text text-anchor="start" x="680.453" y="-368.9" font-family="Arial" font-size="14.00" fill="#666666">[boolean]</text>
<polygon fill="none" stroke="#000000" points="633,-327.5 633,-357.5 967,-357.5 967,-327.5 633,-327.5"/>
<text text-anchor="start" x="640" y="-338.9" font-family="Arial" font-size="14.00" fill="#000000">create_uid </text>
<text text-anchor="start" x="709.244" y="-338.9" font-family="Arial" font-size="14.00" fill="#666666">[integer]</text>
<polygon fill="none" stroke="#000000" points="633,-297.5 633,-327.5 967,-327.5 967,-297.5 633,-297.5"/>
<text text-anchor="start" x="640" y="-308.9" font-family="Arial" font-size="14.00" fill="#000000">create_date </text>
<text text-anchor="start" x="717.8106" y="-308.9" font-family="Arial" font-size="14.00" fill="#666666">[timestamp without time zone]</text>
<polygon fill="none" stroke="#000000" points="633,-267.5 633,-297.5 967,-297.5 967,-267.5 633,-267.5"/>
<text text-anchor="start" x="640" y="-278.9" font-family="Arial" font-size="14.00" fill="#000000">write_uid </text>
<text text-anchor="start" x="699.892" y="-278.9" font-family="Arial" font-size="14.00" fill="#666666">[integer]</text>
<polygon fill="none" stroke="#000000" points="633,-237.5 633,-267.5 967,-267.5 967,-237.5 633,-237.5"/>
<text text-anchor="start" x="640" y="-248.9" font-family="Arial" font-size="14.00" fill="#000000">write_date </text>
<text text-anchor="start" x="708.4586" y="-248.9" font-family="Arial" font-size="14.00" fill="#666666">[timestamp without time zone]</text>
</g>
<!-- public.account_tax_account_tag&#45;&gt;public.account_account_tag -->
<g id="edge2" class="edge">
<title>public.account_tax_account_tag:account_account_tag_id&#45;&gt;public.account_account_tag:id</title>
<path fill="none" stroke="#000000" d="M789.394,-877.0209C941.2938,-861.8709 453.7514,-492.5 633,-492.5"/>
<polygon fill="#000000" stroke="#000000" points="788.9894,-877.0394 778.7927,-873.0048 783.9947,-877.2697 779,-877.5 779,-877.5 779,-877.5 783.9947,-877.2697 779.2073,-881.9952 788.9894,-877.0394 788.9894,-877.0394"/>
<text text-anchor="start" x="785.9555" y="-887.5" font-family="Arial" font-size="10.00" fill="#000000">FOREIGN KEY (account_account_tag_id) REFERENCES account_account_tag(id) ON DELETE CASCADE</text>
</g>
</g>
</svg>
