<?xml version="1.0" encoding="UTF-8" standalone="no"?>
<!DOCTYPE svg PUBLIC "-//W3C//DTD SVG 1.1//EN"
 "http://www.w3.org/Graphics/SVG/1.1/DTD/svg11.dtd">
<!-- Generated by graphviz version 2.40.1 (20161225.0304)
 -->
<!-- Title: public.project_tags Pages: 1 -->
<svg width="938pt" height="1379pt"
 viewBox="0.00 0.00 938.00 1379.00" xmlns="http://www.w3.org/2000/svg" xmlns:xlink="http://www.w3.org/1999/xlink">
<g id="graph0" class="graph" transform="scale(1 1) rotate(0) translate(4 1375)">
<title>public.project_tags</title>
<polygon fill="#ffffff" stroke="transparent" points="-4,4 -4,-1375 934,-1375 934,4 -4,4"/>
<!-- public.project_tags -->
<g id="node1" class="node">
<title>public.project_tags</title>
<polygon fill="#efefef" stroke="transparent" points="274,-1072.5 274,-1107.5 550,-1107.5 550,-1072.5 274,-1072.5"/>
<polygon fill="none" stroke="#000000" points="274,-1072.5 274,-1107.5 550,-1107.5 550,-1072.5 274,-1072.5"/>
<text text-anchor="start" x="288.3545" y="-1085.3" font-family="Arial Bold" font-size="18.00" fill="#000000">public.project_tags</text>
<text text-anchor="start" x="438.3917" y="-1085.3" font-family="Arial" font-size="14.00" fill="#000000"> </text>
<text text-anchor="start" x="442.2823" y="-1085.3" font-family="Arial" font-size="14.00" fill="#666666">[BASE TABLE]</text>
<polygon fill="none" stroke="#000000" points="274,-1042.5 274,-1072.5 550,-1072.5 550,-1042.5 274,-1042.5"/>
<text text-anchor="start" x="281" y="-1053.9" font-family="Arial" font-size="14.00" fill="#000000">id </text>
<text text-anchor="start" x="295.7798" y="-1053.9" font-family="Arial" font-size="14.00" fill="#666666">[integer]</text>
<polygon fill="none" stroke="#000000" points="274,-1012.5 274,-1042.5 550,-1042.5 550,-1012.5 274,-1012.5"/>
<text text-anchor="start" x="281" y="-1023.9" font-family="Arial" font-size="14.00" fill="#000000">name </text>
<text text-anchor="start" x="319.899" y="-1023.9" font-family="Arial" font-size="14.00" fill="#666666">[varchar]</text>
<polygon fill="none" stroke="#000000" points="274,-982.5 274,-1012.5 550,-1012.5 550,-982.5 274,-982.5"/>
<text text-anchor="start" x="281" y="-993.9" font-family="Arial" font-size="14.00" fill="#000000">color </text>
<text text-anchor="start" x="315.223" y="-993.9" font-family="Arial" font-size="14.00" fill="#666666">[integer]</text>
<polygon fill="none" stroke="#000000" points="274,-952.5 274,-982.5 550,-982.5 550,-952.5 274,-952.5"/>
<text text-anchor="start" x="281" y="-963.9" font-family="Arial" font-size="14.00" fill="#000000">create_uid </text>
<text text-anchor="start" x="350.244" y="-963.9" font-family="Arial" font-size="14.00" fill="#666666">[integer]</text>
<polygon fill="none" stroke="#000000" points="274,-922.5 274,-952.5 550,-952.5 550,-922.5 274,-922.5"/>
<text text-anchor="start" x="280.5246" y="-933.9" font-family="Arial" font-size="14.00" fill="#000000">create_date </text>
<text text-anchor="start" x="358.3352" y="-933.9" font-family="Arial" font-size="14.00" fill="#666666">[timestamp without time zone]</text>
<polygon fill="none" stroke="#000000" points="274,-892.5 274,-922.5 550,-922.5 550,-892.5 274,-892.5"/>
<text text-anchor="start" x="281" y="-903.9" font-family="Arial" font-size="14.00" fill="#000000">write_uid </text>
<text text-anchor="start" x="340.892" y="-903.9" font-family="Arial" font-size="14.00" fill="#666666">[integer]</text>
<polygon fill="none" stroke="#000000" points="274,-862.5 274,-892.5 550,-892.5 550,-862.5 274,-862.5"/>
<text text-anchor="start" x="281" y="-873.9" font-family="Arial" font-size="14.00" fill="#000000">write_date </text>
<text text-anchor="start" x="349.4586" y="-873.9" font-family="Arial" font-size="14.00" fill="#666666">[timestamp without time zone]</text>
<polygon fill="none" stroke="#000000" stroke-width="3" points="272.5,-861.5 272.5,-1109.5 551.5,-1109.5 551.5,-861.5 272.5,-861.5"/>
</g>
<!-- public.res_users -->
<g id="node3" class="node">
<title>public.res_users</title>
<polygon fill="#efefef" stroke="transparent" points="274,-702.5 274,-737.5 550,-737.5 550,-702.5 274,-702.5"/>
<polygon fill="none" stroke="#000000" points="274,-702.5 274,-737.5 550,-737.5 550,-702.5 274,-702.5"/>
<text text-anchor="start" x="297.8639" y="-715.3" font-family="Arial Bold" font-size="18.00" fill="#000000">public.res_users</text>
<text text-anchor="start" x="428.8823" y="-715.3" font-family="Arial" font-size="14.00" fill="#000000"> </text>
<text text-anchor="start" x="432.7729" y="-715.3" font-family="Arial" font-size="14.00" fill="#666666">[BASE TABLE]</text>
<polygon fill="none" stroke="#000000" points="274,-672.5 274,-702.5 550,-702.5 550,-672.5 274,-672.5"/>
<text text-anchor="start" x="281" y="-683.9" font-family="Arial" font-size="14.00" fill="#000000">id </text>
<text text-anchor="start" x="295.7798" y="-683.9" font-family="Arial" font-size="14.00" fill="#666666">[integer]</text>
<polygon fill="none" stroke="#000000" points="274,-642.5 274,-672.5 550,-672.5 550,-642.5 274,-642.5"/>
<text text-anchor="start" x="281" y="-653.9" font-family="Arial" font-size="14.00" fill="#000000">active </text>
<text text-anchor="start" x="321.453" y="-653.9" font-family="Arial" font-size="14.00" fill="#666666">[boolean]</text>
<polygon fill="none" stroke="#000000" points="274,-612.5 274,-642.5 550,-642.5 550,-612.5 274,-612.5"/>
<text text-anchor="start" x="281" y="-623.9" font-family="Arial" font-size="14.00" fill="#000000">login </text>
<text text-anchor="start" x="314.4516" y="-623.9" font-family="Arial" font-size="14.00" fill="#666666">[varchar]</text>
<polygon fill="none" stroke="#000000" points="274,-582.5 274,-612.5 550,-612.5 550,-582.5 274,-582.5"/>
<text text-anchor="start" x="281" y="-593.9" font-family="Arial" font-size="14.00" fill="#000000">password </text>
<text text-anchor="start" x="344.7882" y="-593.9" font-family="Arial" font-size="14.00" fill="#666666">[varchar]</text>
<polygon fill="none" stroke="#000000" points="274,-552.5 274,-582.5 550,-582.5 550,-552.5 274,-552.5"/>
<text text-anchor="start" x="281" y="-563.9" font-family="Arial" font-size="14.00" fill="#000000">company_id </text>
<text text-anchor="start" x="360.3534" y="-563.9" font-family="Arial" font-size="14.00" fill="#666666">[integer]</text>
<polygon fill="none" stroke="#000000" points="274,-522.5 274,-552.5 550,-552.5 550,-522.5 274,-522.5"/>
<text text-anchor="start" x="281" y="-533.9" font-family="Arial" font-size="14.00" fill="#000000">partner_id </text>
<text text-anchor="start" x="347.9046" y="-533.9" font-family="Arial" font-size="14.00" fill="#666666">[integer]</text>
<polygon fill="none" stroke="#000000" points="274,-492.5 274,-522.5 550,-522.5 550,-492.5 274,-492.5"/>
<text text-anchor="start" x="280.5246" y="-503.9" font-family="Arial" font-size="14.00" fill="#000000">create_date </text>
<text text-anchor="start" x="358.3352" y="-503.9" font-family="Arial" font-size="14.00" fill="#666666">[timestamp without time zone]</text>
<polygon fill="none" stroke="#000000" points="274,-462.5 274,-492.5 550,-492.5 550,-462.5 274,-462.5"/>
<text text-anchor="start" x="281" y="-473.9" font-family="Arial" font-size="14.00" fill="#000000">signature </text>
<text text-anchor="start" x="342.4614" y="-473.9" font-family="Arial" font-size="14.00" fill="#666666">[text]</text>
<polygon fill="none" stroke="#000000" points="274,-432.5 274,-462.5 550,-462.5 550,-432.5 274,-432.5"/>
<text text-anchor="start" x="281" y="-443.9" font-family="Arial" font-size="14.00" fill="#000000">action_id </text>
<text text-anchor="start" x="340.9074" y="-443.9" font-family="Arial" font-size="14.00" fill="#666666">[integer]</text>
<polygon fill="none" stroke="#000000" points="274,-402.5 274,-432.5 550,-432.5 550,-402.5 274,-402.5"/>
<text text-anchor="start" x="281" y="-413.9" font-family="Arial" font-size="14.00" fill="#000000">share </text>
<text text-anchor="start" x="319.899" y="-413.9" font-family="Arial" font-size="14.00" fill="#666666">[boolean]</text>
<polygon fill="none" stroke="#000000" points="274,-372.5 274,-402.5 550,-402.5 550,-372.5 274,-372.5"/>
<text text-anchor="start" x="281" y="-383.9" font-family="Arial" font-size="14.00" fill="#000000">create_uid </text>
<text text-anchor="start" x="350.244" y="-383.9" font-family="Arial" font-size="14.00" fill="#666666">[integer]</text>
<polygon fill="none" stroke="#000000" points="274,-342.5 274,-372.5 550,-372.5 550,-342.5 274,-342.5"/>
<text text-anchor="start" x="281" y="-353.9" font-family="Arial" font-size="14.00" fill="#000000">write_uid </text>
<text text-anchor="start" x="340.892" y="-353.9" font-family="Arial" font-size="14.00" fill="#666666">[integer]</text>
<polygon fill="none" stroke="#000000" points="274,-312.5 274,-342.5 550,-342.5 550,-312.5 274,-312.5"/>
<text text-anchor="start" x="281" y="-323.9" font-family="Arial" font-size="14.00" fill="#000000">write_date </text>
<text text-anchor="start" x="349.4586" y="-323.9" font-family="Arial" font-size="14.00" fill="#666666">[timestamp without time zone]</text>
<polygon fill="none" stroke="#000000" points="274,-282.5 274,-312.5 550,-312.5 550,-282.5 274,-282.5"/>
<text text-anchor="start" x="281" y="-293.9" font-family="Arial" font-size="14.00" fill="#000000">alias_id </text>
<text text-anchor="start" x="332.3408" y="-293.9" font-family="Arial" font-size="14.00" fill="#666666">[integer]</text>
<polygon fill="none" stroke="#000000" points="274,-252.5 274,-282.5 550,-282.5 550,-252.5 274,-252.5"/>
<text text-anchor="start" x="281" y="-263.9" font-family="Arial" font-size="14.00" fill="#000000">notification_type </text>
<text text-anchor="start" x="386.0336" y="-263.9" font-family="Arial" font-size="14.00" fill="#666666">[varchar]</text>
<polygon fill="none" stroke="#000000" points="274,-222.5 274,-252.5 550,-252.5 550,-222.5 274,-222.5"/>
<text text-anchor="start" x="281" y="-233.9" font-family="Arial" font-size="14.00" fill="#000000">odoobot_state </text>
<text text-anchor="start" x="373.6058" y="-233.9" font-family="Arial" font-size="14.00" fill="#666666">[varchar]</text>
<polygon fill="none" stroke="#000000" points="274,-192.5 274,-222.5 550,-222.5 550,-192.5 274,-192.5"/>
<text text-anchor="start" x="281" y="-203.9" font-family="Arial" font-size="14.00" fill="#000000">sale_team_id </text>
<text text-anchor="start" x="368.1332" y="-203.9" font-family="Arial" font-size="14.00" fill="#666666">[integer]</text>
<polygon fill="none" stroke="#000000" points="274,-162.5 274,-192.5 550,-192.5 550,-162.5 274,-162.5"/>
<text text-anchor="start" x="281" y="-173.9" font-family="Arial" font-size="14.00" fill="#000000">target_sales_won </text>
<text text-anchor="start" x="394.589" y="-173.9" font-family="Arial" font-size="14.00" fill="#666666">[integer]</text>
<polygon fill="none" stroke="#000000" points="274,-132.5 274,-162.5 550,-162.5 550,-132.5 274,-132.5"/>
<text text-anchor="start" x="281" y="-143.9" font-family="Arial" font-size="14.00" fill="#000000">target_sales_done </text>
<text text-anchor="start" x="400.0476" y="-143.9" font-family="Arial" font-size="14.00" fill="#666666">[integer]</text>
<polygon fill="none" stroke="#000000" points="274,-102.5 274,-132.5 550,-132.5 550,-102.5 274,-102.5"/>
<text text-anchor="start" x="281" y="-113.9" font-family="Arial" font-size="14.00" fill="#000000">website_id </text>
<text text-anchor="start" x="351.014" y="-113.9" font-family="Arial" font-size="14.00" fill="#666666">[integer]</text>
<polygon fill="none" stroke="#000000" points="274,-72.5 274,-102.5 550,-102.5 550,-72.5 274,-72.5"/>
<text text-anchor="start" x="281" y="-83.9" font-family="Arial" font-size="14.00" fill="#000000">target_sales_invoiced </text>
<text text-anchor="start" x="420.2608" y="-83.9" font-family="Arial" font-size="14.00" fill="#666666">[integer]</text>
<polygon fill="none" stroke="#000000" points="274,-42.5 274,-72.5 550,-72.5 550,-42.5 274,-42.5"/>
<text text-anchor="start" x="281" y="-53.9" font-family="Arial" font-size="14.00" fill="#000000">pos_security_pin </text>
<text text-anchor="start" x="389.9158" y="-53.9" font-family="Arial" font-size="14.00" fill="#666666">[varchar(32)]</text>
</g>
<!-- public.project_tags&#45;&gt;public.res_users -->
<g id="edge2" class="edge">
<title>public.project_tags:create_uid&#45;&gt;public.res_users:id</title>
<path fill="none" stroke="#000000" d="M560.2735,-966.839C674.3446,-951.8652 670.9201,-687.5 550,-687.5"/>
<polygon fill="#000000" stroke="#000000" points="559.9794,-966.8578 549.711,-963.0093 554.9897,-967.1789 550,-967.5 550,-967.5 550,-967.5 554.9897,-967.1789 550.289,-971.9907 559.9794,-966.8578 559.9794,-966.8578"/>
<text text-anchor="start" x="556.657" y="-977.5" font-family="Arial" font-size="10.00" fill="#000000">FOREIGN KEY (create_uid) REFERENCES res_users(id) ON DELETE SET NULL</text>
</g>
<!-- public.project_tags&#45;&gt;public.res_users -->
<g id="edge3" class="edge">
<title>public.project_tags:write_uid&#45;&gt;public.res_users:id</title>
<path fill="none" stroke="#000000" d="M560.216,-906.6591C647.6501,-891.8888 644.2448,-687.5 550,-687.5"/>
<polygon fill="#000000" stroke="#000000" points="559.9663,-906.6795 549.6308,-903.0152 554.9831,-907.0898 550,-907.5 550,-907.5 550,-907.5 554.9831,-907.0898 550.3692,-911.9848 559.9663,-906.6795 559.9663,-906.6795"/>
<text text-anchor="start" x="556.997" y="-917.5" font-family="Arial" font-size="10.00" fill="#000000">FOREIGN KEY (write_uid) REFERENCES res_users(id) ON DELETE SET NULL</text>
</g>
<!-- public.project_tags_project_task_rel -->
<g id="node2" class="node">
<title>public.project_tags_project_task_rel</title>
<polygon fill="#efefef" stroke="transparent" points="213,-1292.5 213,-1327.5 611,-1327.5 611,-1292.5 213,-1292.5"/>
<polygon fill="none" stroke="#000000" points="213,-1292.5 213,-1327.5 611,-1327.5 611,-1292.5 213,-1292.5"/>
<text text-anchor="start" x="219.8411" y="-1305.3" font-family="Arial Bold" font-size="18.00" fill="#000000">public.project_tags_project_task_rel</text>
<text text-anchor="start" x="506.9051" y="-1305.3" font-family="Arial" font-size="14.00" fill="#000000"> </text>
<text text-anchor="start" x="510.7957" y="-1305.3" font-family="Arial" font-size="14.00" fill="#666666">[BASE TABLE]</text>
<polygon fill="none" stroke="#000000" points="213,-1262.5 213,-1292.5 611,-1292.5 611,-1262.5 213,-1262.5"/>
<text text-anchor="start" x="220" y="-1273.9" font-family="Arial" font-size="14.00" fill="#000000">project_task_id </text>
<text text-anchor="start" x="318.0238" y="-1273.9" font-family="Arial" font-size="14.00" fill="#666666">[integer]</text>
<polygon fill="none" stroke="#000000" points="213,-1232.5 213,-1262.5 611,-1262.5 611,-1232.5 213,-1232.5"/>
<text text-anchor="start" x="220" y="-1243.9" font-family="Arial" font-size="14.00" fill="#000000">project_tags_id </text>
<text text-anchor="start" x="318.8064" y="-1243.9" font-family="Arial" font-size="14.00" fill="#666666">[integer]</text>
</g>
<!-- public.project_tags_project_task_rel&#45;&gt;public.project_tags -->
<g id="edge1" class="edge">
<title>public.project_tags_project_task_rel:project_tags_id&#45;&gt;public.project_tags:id</title>
<path fill="none" stroke="#000000" d="M412.8305,-1222.3333C422.6266,-1167.2166 516.3942,-1211.7787 550,-1154 571.5633,-1116.926 592.8889,-1057.5 550,-1057.5"/>
<polygon fill="#000000" stroke="#000000" points="412.8142,-1222.5332 407.5149,-1232.1336 412.4071,-1227.5166 412,-1232.5 412,-1232.5 412,-1232.5 412.4071,-1227.5166 416.4851,-1232.8664 412.8142,-1222.5332 412.8142,-1222.5332"/>
<text text-anchor="start" x="6.5405" y="-1242.5" font-family="Arial" font-size="10.00" fill="#000000">FOREIGN KEY (project_tags_id) REFERENCES project_tags(id) ON DELETE CASCADE</text>
</g>
</g>
</svg>
