<?xml version="1.0" encoding="UTF-8" standalone="no"?>
<!DOCTYPE svg PUBLIC "-//W3C//DTD SVG 1.1//EN"
 "http://www.w3.org/Graphics/SVG/1.1/DTD/svg11.dtd">
<!-- Generated by graphviz version 2.40.1 (20161225.0304)
 -->
<!-- Title: public.uom_category Pages: 1 -->
<svg width="1069pt" height="1709pt"
 viewBox="0.00 0.00 1069.00 1709.00" xmlns="http://www.w3.org/2000/svg" xmlns:xlink="http://www.w3.org/1999/xlink">
<g id="graph0" class="graph" transform="scale(1 1) rotate(0) translate(4 1705)">
<title>public.uom_category</title>
<polygon fill="#ffffff" stroke="transparent" points="-4,4 -4,-1705 1065,-1705 1065,4 -4,4"/>
<!-- public.uom_category -->
<g id="node1" class="node">
<title>public.uom_category</title>
<polygon fill="#efefef" stroke="transparent" points="404,-1102.5 404,-1137.5 681,-1137.5 681,-1102.5 404,-1102.5"/>
<polygon fill="none" stroke="#000000" points="404,-1102.5 404,-1137.5 681,-1137.5 681,-1102.5 404,-1102.5"/>
<text text-anchor="start" x="410.8535" y="-1115.3" font-family="Arial Bold" font-size="18.00" fill="#000000">public.uom_category</text>
<text text-anchor="start" x="576.8927" y="-1115.3" font-family="Arial" font-size="14.00" fill="#000000"> </text>
<text text-anchor="start" x="580.7833" y="-1115.3" font-family="Arial" font-size="14.00" fill="#666666">[BASE TABLE]</text>
<polygon fill="none" stroke="#000000" points="404,-1072.5 404,-1102.5 681,-1102.5 681,-1072.5 404,-1072.5"/>
<text text-anchor="start" x="411" y="-1083.9" font-family="Arial" font-size="14.00" fill="#000000">id </text>
<text text-anchor="start" x="425.7798" y="-1083.9" font-family="Arial" font-size="14.00" fill="#666666">[integer]</text>
<polygon fill="none" stroke="#000000" points="404,-1042.5 404,-1072.5 681,-1072.5 681,-1042.5 404,-1042.5"/>
<text text-anchor="start" x="411" y="-1053.9" font-family="Arial" font-size="14.00" fill="#000000">name </text>
<text text-anchor="start" x="449.899" y="-1053.9" font-family="Arial" font-size="14.00" fill="#666666">[varchar]</text>
<polygon fill="none" stroke="#000000" points="404,-1012.5 404,-1042.5 681,-1042.5 681,-1012.5 404,-1012.5"/>
<text text-anchor="start" x="411" y="-1023.9" font-family="Arial" font-size="14.00" fill="#000000">measure_type </text>
<text text-anchor="start" x="503.5806" y="-1023.9" font-family="Arial" font-size="14.00" fill="#666666">[varchar]</text>
<polygon fill="none" stroke="#000000" points="404,-982.5 404,-1012.5 681,-1012.5 681,-982.5 404,-982.5"/>
<text text-anchor="start" x="411" y="-993.9" font-family="Arial" font-size="14.00" fill="#000000">create_uid </text>
<text text-anchor="start" x="480.244" y="-993.9" font-family="Arial" font-size="14.00" fill="#666666">[integer]</text>
<polygon fill="none" stroke="#000000" points="404,-952.5 404,-982.5 681,-982.5 681,-952.5 404,-952.5"/>
<text text-anchor="start" x="411" y="-963.9" font-family="Arial" font-size="14.00" fill="#000000">create_date </text>
<text text-anchor="start" x="488.8106" y="-963.9" font-family="Arial" font-size="14.00" fill="#666666">[timestamp without time zone]</text>
<polygon fill="none" stroke="#000000" points="404,-922.5 404,-952.5 681,-952.5 681,-922.5 404,-922.5"/>
<text text-anchor="start" x="411" y="-933.9" font-family="Arial" font-size="14.00" fill="#000000">write_uid </text>
<text text-anchor="start" x="470.892" y="-933.9" font-family="Arial" font-size="14.00" fill="#666666">[integer]</text>
<polygon fill="none" stroke="#000000" points="404,-892.5 404,-922.5 681,-922.5 681,-892.5 404,-892.5"/>
<text text-anchor="start" x="411" y="-903.9" font-family="Arial" font-size="14.00" fill="#000000">write_date </text>
<text text-anchor="start" x="479.4586" y="-903.9" font-family="Arial" font-size="14.00" fill="#666666">[timestamp without time zone]</text>
<polygon fill="none" stroke="#000000" points="404,-862.5 404,-892.5 681,-892.5 681,-862.5 404,-862.5"/>
<text text-anchor="start" x="411" y="-873.9" font-family="Arial" font-size="14.00" fill="#000000">is_pos_groupable </text>
<text text-anchor="start" x="525.373" y="-873.9" font-family="Arial" font-size="14.00" fill="#666666">[boolean]</text>
<polygon fill="none" stroke="#000000" stroke-width="3" points="402,-861.5 402,-1139.5 682,-1139.5 682,-861.5 402,-861.5"/>
</g>
<!-- public.res_users -->
<g id="node3" class="node">
<title>public.res_users</title>
<polygon fill="#efefef" stroke="transparent" points="405,-702.5 405,-737.5 681,-737.5 681,-702.5 405,-702.5"/>
<polygon fill="none" stroke="#000000" points="405,-702.5 405,-737.5 681,-737.5 681,-702.5 405,-702.5"/>
<text text-anchor="start" x="428.8639" y="-715.3" font-family="Arial Bold" font-size="18.00" fill="#000000">public.res_users</text>
<text text-anchor="start" x="559.8823" y="-715.3" font-family="Arial" font-size="14.00" fill="#000000"> </text>
<text text-anchor="start" x="563.7729" y="-715.3" font-family="Arial" font-size="14.00" fill="#666666">[BASE TABLE]</text>
<polygon fill="none" stroke="#000000" points="405,-672.5 405,-702.5 681,-702.5 681,-672.5 405,-672.5"/>
<text text-anchor="start" x="412" y="-683.9" font-family="Arial" font-size="14.00" fill="#000000">id </text>
<text text-anchor="start" x="426.7798" y="-683.9" font-family="Arial" font-size="14.00" fill="#666666">[integer]</text>
<polygon fill="none" stroke="#000000" points="405,-642.5 405,-672.5 681,-672.5 681,-642.5 405,-642.5"/>
<text text-anchor="start" x="412" y="-653.9" font-family="Arial" font-size="14.00" fill="#000000">active </text>
<text text-anchor="start" x="452.453" y="-653.9" font-family="Arial" font-size="14.00" fill="#666666">[boolean]</text>
<polygon fill="none" stroke="#000000" points="405,-612.5 405,-642.5 681,-642.5 681,-612.5 405,-612.5"/>
<text text-anchor="start" x="412" y="-623.9" font-family="Arial" font-size="14.00" fill="#000000">login </text>
<text text-anchor="start" x="445.4516" y="-623.9" font-family="Arial" font-size="14.00" fill="#666666">[varchar]</text>
<polygon fill="none" stroke="#000000" points="405,-582.5 405,-612.5 681,-612.5 681,-582.5 405,-582.5"/>
<text text-anchor="start" x="412" y="-593.9" font-family="Arial" font-size="14.00" fill="#000000">password </text>
<text text-anchor="start" x="475.7882" y="-593.9" font-family="Arial" font-size="14.00" fill="#666666">[varchar]</text>
<polygon fill="none" stroke="#000000" points="405,-552.5 405,-582.5 681,-582.5 681,-552.5 405,-552.5"/>
<text text-anchor="start" x="412" y="-563.9" font-family="Arial" font-size="14.00" fill="#000000">company_id </text>
<text text-anchor="start" x="491.3534" y="-563.9" font-family="Arial" font-size="14.00" fill="#666666">[integer]</text>
<polygon fill="none" stroke="#000000" points="405,-522.5 405,-552.5 681,-552.5 681,-522.5 405,-522.5"/>
<text text-anchor="start" x="412" y="-533.9" font-family="Arial" font-size="14.00" fill="#000000">partner_id </text>
<text text-anchor="start" x="478.9046" y="-533.9" font-family="Arial" font-size="14.00" fill="#666666">[integer]</text>
<polygon fill="none" stroke="#000000" points="405,-492.5 405,-522.5 681,-522.5 681,-492.5 405,-492.5"/>
<text text-anchor="start" x="411.5246" y="-503.9" font-family="Arial" font-size="14.00" fill="#000000">create_date </text>
<text text-anchor="start" x="489.3352" y="-503.9" font-family="Arial" font-size="14.00" fill="#666666">[timestamp without time zone]</text>
<polygon fill="none" stroke="#000000" points="405,-462.5 405,-492.5 681,-492.5 681,-462.5 405,-462.5"/>
<text text-anchor="start" x="412" y="-473.9" font-family="Arial" font-size="14.00" fill="#000000">signature </text>
<text text-anchor="start" x="473.4614" y="-473.9" font-family="Arial" font-size="14.00" fill="#666666">[text]</text>
<polygon fill="none" stroke="#000000" points="405,-432.5 405,-462.5 681,-462.5 681,-432.5 405,-432.5"/>
<text text-anchor="start" x="412" y="-443.9" font-family="Arial" font-size="14.00" fill="#000000">action_id </text>
<text text-anchor="start" x="471.9074" y="-443.9" font-family="Arial" font-size="14.00" fill="#666666">[integer]</text>
<polygon fill="none" stroke="#000000" points="405,-402.5 405,-432.5 681,-432.5 681,-402.5 405,-402.5"/>
<text text-anchor="start" x="412" y="-413.9" font-family="Arial" font-size="14.00" fill="#000000">share </text>
<text text-anchor="start" x="450.899" y="-413.9" font-family="Arial" font-size="14.00" fill="#666666">[boolean]</text>
<polygon fill="none" stroke="#000000" points="405,-372.5 405,-402.5 681,-402.5 681,-372.5 405,-372.5"/>
<text text-anchor="start" x="412" y="-383.9" font-family="Arial" font-size="14.00" fill="#000000">create_uid </text>
<text text-anchor="start" x="481.244" y="-383.9" font-family="Arial" font-size="14.00" fill="#666666">[integer]</text>
<polygon fill="none" stroke="#000000" points="405,-342.5 405,-372.5 681,-372.5 681,-342.5 405,-342.5"/>
<text text-anchor="start" x="412" y="-353.9" font-family="Arial" font-size="14.00" fill="#000000">write_uid </text>
<text text-anchor="start" x="471.892" y="-353.9" font-family="Arial" font-size="14.00" fill="#666666">[integer]</text>
<polygon fill="none" stroke="#000000" points="405,-312.5 405,-342.5 681,-342.5 681,-312.5 405,-312.5"/>
<text text-anchor="start" x="412" y="-323.9" font-family="Arial" font-size="14.00" fill="#000000">write_date </text>
<text text-anchor="start" x="480.4586" y="-323.9" font-family="Arial" font-size="14.00" fill="#666666">[timestamp without time zone]</text>
<polygon fill="none" stroke="#000000" points="405,-282.5 405,-312.5 681,-312.5 681,-282.5 405,-282.5"/>
<text text-anchor="start" x="412" y="-293.9" font-family="Arial" font-size="14.00" fill="#000000">alias_id </text>
<text text-anchor="start" x="463.3408" y="-293.9" font-family="Arial" font-size="14.00" fill="#666666">[integer]</text>
<polygon fill="none" stroke="#000000" points="405,-252.5 405,-282.5 681,-282.5 681,-252.5 405,-252.5"/>
<text text-anchor="start" x="412" y="-263.9" font-family="Arial" font-size="14.00" fill="#000000">notification_type </text>
<text text-anchor="start" x="517.0336" y="-263.9" font-family="Arial" font-size="14.00" fill="#666666">[varchar]</text>
<polygon fill="none" stroke="#000000" points="405,-222.5 405,-252.5 681,-252.5 681,-222.5 405,-222.5"/>
<text text-anchor="start" x="412" y="-233.9" font-family="Arial" font-size="14.00" fill="#000000">odoobot_state </text>
<text text-anchor="start" x="504.6058" y="-233.9" font-family="Arial" font-size="14.00" fill="#666666">[varchar]</text>
<polygon fill="none" stroke="#000000" points="405,-192.5 405,-222.5 681,-222.5 681,-192.5 405,-192.5"/>
<text text-anchor="start" x="412" y="-203.9" font-family="Arial" font-size="14.00" fill="#000000">sale_team_id </text>
<text text-anchor="start" x="499.1332" y="-203.9" font-family="Arial" font-size="14.00" fill="#666666">[integer]</text>
<polygon fill="none" stroke="#000000" points="405,-162.5 405,-192.5 681,-192.5 681,-162.5 405,-162.5"/>
<text text-anchor="start" x="412" y="-173.9" font-family="Arial" font-size="14.00" fill="#000000">target_sales_won </text>
<text text-anchor="start" x="525.589" y="-173.9" font-family="Arial" font-size="14.00" fill="#666666">[integer]</text>
<polygon fill="none" stroke="#000000" points="405,-132.5 405,-162.5 681,-162.5 681,-132.5 405,-132.5"/>
<text text-anchor="start" x="412" y="-143.9" font-family="Arial" font-size="14.00" fill="#000000">target_sales_done </text>
<text text-anchor="start" x="531.0476" y="-143.9" font-family="Arial" font-size="14.00" fill="#666666">[integer]</text>
<polygon fill="none" stroke="#000000" points="405,-102.5 405,-132.5 681,-132.5 681,-102.5 405,-102.5"/>
<text text-anchor="start" x="412" y="-113.9" font-family="Arial" font-size="14.00" fill="#000000">website_id </text>
<text text-anchor="start" x="482.014" y="-113.9" font-family="Arial" font-size="14.00" fill="#666666">[integer]</text>
<polygon fill="none" stroke="#000000" points="405,-72.5 405,-102.5 681,-102.5 681,-72.5 405,-72.5"/>
<text text-anchor="start" x="412" y="-83.9" font-family="Arial" font-size="14.00" fill="#000000">target_sales_invoiced </text>
<text text-anchor="start" x="551.2608" y="-83.9" font-family="Arial" font-size="14.00" fill="#666666">[integer]</text>
<polygon fill="none" stroke="#000000" points="405,-42.5 405,-72.5 681,-72.5 681,-42.5 405,-42.5"/>
<text text-anchor="start" x="412" y="-53.9" font-family="Arial" font-size="14.00" fill="#000000">pos_security_pin </text>
<text text-anchor="start" x="520.9158" y="-53.9" font-family="Arial" font-size="14.00" fill="#666666">[varchar(32)]</text>
</g>
<!-- public.uom_category&#45;&gt;public.res_users -->
<g id="edge2" class="edge">
<title>public.uom_category:create_uid&#45;&gt;public.res_users:id</title>
<path fill="none" stroke="#000000" d="M691.1677,-996.7885C758.7185,-986.8202 731.5526,-874.5746 681,-817 599.3795,-724.0419 486.6205,-873.9581 405,-781 377.5818,-749.7733 363.4444,-687.5 405,-687.5"/>
<polygon fill="#000000" stroke="#000000" points="690.9756,-996.8019 680.6859,-993.011 685.9878,-997.1509 681,-997.5 681,-997.5 681,-997.5 685.9878,-997.1509 681.3141,-1001.989 690.9756,-996.8019 690.9756,-996.8019"/>
<text text-anchor="start" x="687.657" y="-1007.5" font-family="Arial" font-size="10.00" fill="#000000">FOREIGN KEY (create_uid) REFERENCES res_users(id) ON DELETE SET NULL</text>
</g>
<!-- public.uom_category&#45;&gt;public.res_users -->
<g id="edge3" class="edge">
<title>public.uom_category:write_uid&#45;&gt;public.res_users:id</title>
<path fill="none" stroke="#000000" d="M690.9943,-936.4133C731.9846,-926.7145 713.9202,-854.493 681,-817 599.3795,-724.0419 486.6205,-873.9581 405,-781 377.5818,-749.7733 363.4444,-687.5 405,-687.5"/>
<polygon fill="#000000" stroke="#000000" points="690.9414,-936.419 680.5135,-933.0264 685.9707,-936.9595 681,-937.5 681,-937.5 681,-937.5 685.9707,-936.9595 681.4865,-941.9736 690.9414,-936.419 690.9414,-936.419"/>
<text text-anchor="start" x="687.997" y="-947.5" font-family="Arial" font-size="10.00" fill="#000000">FOREIGN KEY (write_uid) REFERENCES res_users(id) ON DELETE SET NULL</text>
</g>
<!-- public.uom_uom -->
<g id="node2" class="node">
<title>public.uom_uom</title>
<polygon fill="#efefef" stroke="transparent" points="405,-1622.5 405,-1657.5 681,-1657.5 681,-1622.5 405,-1622.5"/>
<polygon fill="none" stroke="#000000" points="405,-1622.5 405,-1657.5 681,-1657.5 681,-1622.5 405,-1622.5"/>
<text text-anchor="start" x="428.3608" y="-1635.3" font-family="Arial Bold" font-size="18.00" fill="#000000">public.uom_uom</text>
<text text-anchor="start" x="560.3854" y="-1635.3" font-family="Arial" font-size="14.00" fill="#000000"> </text>
<text text-anchor="start" x="564.276" y="-1635.3" font-family="Arial" font-size="14.00" fill="#666666">[BASE TABLE]</text>
<polygon fill="none" stroke="#000000" points="405,-1592.5 405,-1622.5 681,-1622.5 681,-1592.5 405,-1592.5"/>
<text text-anchor="start" x="412" y="-1603.9" font-family="Arial" font-size="14.00" fill="#000000">id </text>
<text text-anchor="start" x="426.7798" y="-1603.9" font-family="Arial" font-size="14.00" fill="#666666">[integer]</text>
<polygon fill="none" stroke="#000000" points="405,-1562.5 405,-1592.5 681,-1592.5 681,-1562.5 405,-1562.5"/>
<text text-anchor="start" x="412" y="-1573.9" font-family="Arial" font-size="14.00" fill="#000000">name </text>
<text text-anchor="start" x="450.899" y="-1573.9" font-family="Arial" font-size="14.00" fill="#666666">[varchar]</text>
<polygon fill="none" stroke="#000000" points="405,-1532.5 405,-1562.5 681,-1562.5 681,-1532.5 405,-1532.5"/>
<text text-anchor="start" x="412" y="-1543.9" font-family="Arial" font-size="14.00" fill="#000000">category_id </text>
<text text-anchor="start" x="488.244" y="-1543.9" font-family="Arial" font-size="14.00" fill="#666666">[integer]</text>
<polygon fill="none" stroke="#000000" points="405,-1502.5 405,-1532.5 681,-1532.5 681,-1502.5 405,-1502.5"/>
<text text-anchor="start" x="412" y="-1513.9" font-family="Arial" font-size="14.00" fill="#000000">factor </text>
<text text-anchor="start" x="450.8976" y="-1513.9" font-family="Arial" font-size="14.00" fill="#666666">[numeric]</text>
<polygon fill="none" stroke="#000000" points="405,-1472.5 405,-1502.5 681,-1502.5 681,-1472.5 405,-1472.5"/>
<text text-anchor="start" x="412" y="-1483.9" font-family="Arial" font-size="14.00" fill="#000000">rounding </text>
<text text-anchor="start" x="470.3534" y="-1483.9" font-family="Arial" font-size="14.00" fill="#666666">[numeric]</text>
<polygon fill="none" stroke="#000000" points="405,-1442.5 405,-1472.5 681,-1472.5 681,-1442.5 405,-1442.5"/>
<text text-anchor="start" x="412" y="-1453.9" font-family="Arial" font-size="14.00" fill="#000000">active </text>
<text text-anchor="start" x="452.453" y="-1453.9" font-family="Arial" font-size="14.00" fill="#666666">[boolean]</text>
<polygon fill="none" stroke="#000000" points="405,-1412.5 405,-1442.5 681,-1442.5 681,-1412.5 405,-1412.5"/>
<text text-anchor="start" x="412" y="-1423.9" font-family="Arial" font-size="14.00" fill="#000000">uom_type </text>
<text text-anchor="start" x="477.3548" y="-1423.9" font-family="Arial" font-size="14.00" fill="#666666">[varchar]</text>
<polygon fill="none" stroke="#000000" points="405,-1382.5 405,-1412.5 681,-1412.5 681,-1382.5 405,-1382.5"/>
<text text-anchor="start" x="412" y="-1393.9" font-family="Arial" font-size="14.00" fill="#000000">measure_type </text>
<text text-anchor="start" x="504.5806" y="-1393.9" font-family="Arial" font-size="14.00" fill="#666666">[varchar]</text>
<polygon fill="none" stroke="#000000" points="405,-1352.5 405,-1382.5 681,-1382.5 681,-1352.5 405,-1352.5"/>
<text text-anchor="start" x="412" y="-1363.9" font-family="Arial" font-size="14.00" fill="#000000">create_uid </text>
<text text-anchor="start" x="481.244" y="-1363.9" font-family="Arial" font-size="14.00" fill="#666666">[integer]</text>
<polygon fill="none" stroke="#000000" points="405,-1322.5 405,-1352.5 681,-1352.5 681,-1322.5 405,-1322.5"/>
<text text-anchor="start" x="411.5246" y="-1333.9" font-family="Arial" font-size="14.00" fill="#000000">create_date </text>
<text text-anchor="start" x="489.3352" y="-1333.9" font-family="Arial" font-size="14.00" fill="#666666">[timestamp without time zone]</text>
<polygon fill="none" stroke="#000000" points="405,-1292.5 405,-1322.5 681,-1322.5 681,-1292.5 405,-1292.5"/>
<text text-anchor="start" x="412" y="-1303.9" font-family="Arial" font-size="14.00" fill="#000000">write_uid </text>
<text text-anchor="start" x="471.892" y="-1303.9" font-family="Arial" font-size="14.00" fill="#666666">[integer]</text>
<polygon fill="none" stroke="#000000" points="405,-1262.5 405,-1292.5 681,-1292.5 681,-1262.5 405,-1262.5"/>
<text text-anchor="start" x="412" y="-1273.9" font-family="Arial" font-size="14.00" fill="#000000">write_date </text>
<text text-anchor="start" x="480.4586" y="-1273.9" font-family="Arial" font-size="14.00" fill="#666666">[timestamp without time zone]</text>
</g>
<!-- public.uom_uom&#45;&gt;public.uom_category -->
<g id="edge1" class="edge">
<title>public.uom_uom:category_id&#45;&gt;public.uom_category:id</title>
<path fill="none" stroke="#000000" d="M395.0282,-1545.6059C334.6956,-1521.3783 359.3262,-1272.0182 405,-1220 486.6205,-1127.0419 599.3795,-1276.9581 681,-1184 709.2979,-1151.7714 723.8889,-1087.5 681,-1087.5"/>
<polygon fill="#000000" stroke="#000000" points="395.1757,-1545.6338 404.1602,-1551.921 400.0878,-1546.5669 405,-1547.5 405,-1547.5 405,-1547.5 400.0878,-1546.5669 405.8398,-1543.079 395.1757,-1545.6338 395.1757,-1545.6338"/>
<text text-anchor="start" x="7.1535" y="-1557.5" font-family="Arial" font-size="10.00" fill="#000000">FOREIGN KEY (category_id) REFERENCES uom_category(id) ON DELETE CASCADE</text>
</g>
</g>
</svg>
