<?xml version="1.0" encoding="UTF-8" standalone="no"?>
<!DOCTYPE svg PUBLIC "-//W3C//DTD SVG 1.1//EN"
 "http://www.w3.org/Graphics/SVG/1.1/DTD/svg11.dtd">
<!-- Generated by graphviz version 2.40.1 (20161225.0304)
 -->
<!-- Title: public.merge_opportunity_rel Pages: 1 -->
<svg width="1182pt" height="1822pt"
 viewBox="0.00 0.00 1182.00 1822.00" xmlns="http://www.w3.org/2000/svg" xmlns:xlink="http://www.w3.org/1999/xlink">
<g id="graph0" class="graph" transform="scale(1 1) rotate(0) translate(4 1818)">
<title>public.merge_opportunity_rel</title>
<polygon fill="#ffffff" stroke="transparent" points="-4,4 -4,-1818 1178,-1818 1178,4 -4,4"/>
<!-- public.merge_opportunity_rel -->
<g id="node1" class="node">
<title>public.merge_opportunity_rel</title>
<polygon fill="#efefef" stroke="transparent" points="437,-1732.5 437,-1767.5 780,-1767.5 780,-1732.5 437,-1732.5"/>
<polygon fill="none" stroke="#000000" points="437,-1732.5 437,-1767.5 780,-1767.5 780,-1732.5 437,-1732.5"/>
<text text-anchor="start" x="443.8505" y="-1745.3" font-family="Arial Bold" font-size="18.00" fill="#000000">public.merge_opportunity_rel</text>
<text text-anchor="start" x="675.8957" y="-1745.3" font-family="Arial" font-size="14.00" fill="#000000"> </text>
<text text-anchor="start" x="679.7863" y="-1745.3" font-family="Arial" font-size="14.00" fill="#666666">[BASE TABLE]</text>
<polygon fill="none" stroke="#000000" points="437,-1702.5 437,-1732.5 780,-1732.5 780,-1702.5 437,-1702.5"/>
<text text-anchor="start" x="444" y="-1713.9" font-family="Arial" font-size="14.00" fill="#000000">merge_id </text>
<text text-anchor="start" x="506.2314" y="-1713.9" font-family="Arial" font-size="14.00" fill="#666666">[integer]</text>
<polygon fill="none" stroke="#000000" points="437,-1672.5 437,-1702.5 780,-1702.5 780,-1672.5 437,-1672.5"/>
<text text-anchor="start" x="444" y="-1683.9" font-family="Arial" font-size="14.00" fill="#000000">opportunity_id </text>
<text text-anchor="start" x="535.8064" y="-1683.9" font-family="Arial" font-size="14.00" fill="#666666">[integer]</text>
<polygon fill="none" stroke="#000000" stroke-width="3" points="435,-1671.5 435,-1769.5 781,-1769.5 781,-1671.5 435,-1671.5"/>
</g>
<!-- public.crm_merge_opportunity -->
<g id="node2" class="node">
<title>public.crm_merge_opportunity</title>
<polygon fill="#efefef" stroke="transparent" points="204,-882.5 204,-917.5 557,-917.5 557,-882.5 204,-882.5"/>
<polygon fill="none" stroke="#000000" points="204,-882.5 204,-917.5 557,-917.5 557,-882.5 204,-882.5"/>
<text text-anchor="start" x="210.8546" y="-895.3" font-family="Arial Bold" font-size="18.00" fill="#000000">public.crm_merge_opportunity</text>
<text text-anchor="start" x="452.8916" y="-895.3" font-family="Arial" font-size="14.00" fill="#000000"> </text>
<text text-anchor="start" x="456.7822" y="-895.3" font-family="Arial" font-size="14.00" fill="#666666">[BASE TABLE]</text>
<polygon fill="none" stroke="#000000" points="204,-852.5 204,-882.5 557,-882.5 557,-852.5 204,-852.5"/>
<text text-anchor="start" x="211" y="-863.9" font-family="Arial" font-size="14.00" fill="#000000">id </text>
<text text-anchor="start" x="225.7798" y="-863.9" font-family="Arial" font-size="14.00" fill="#666666">[integer]</text>
<polygon fill="none" stroke="#000000" points="204,-822.5 204,-852.5 557,-852.5 557,-822.5 204,-822.5"/>
<text text-anchor="start" x="211" y="-833.9" font-family="Arial" font-size="14.00" fill="#000000">user_id </text>
<text text-anchor="start" x="260.7882" y="-833.9" font-family="Arial" font-size="14.00" fill="#666666">[integer]</text>
<polygon fill="none" stroke="#000000" points="204,-792.5 204,-822.5 557,-822.5 557,-792.5 204,-792.5"/>
<text text-anchor="start" x="211" y="-803.9" font-family="Arial" font-size="14.00" fill="#000000">team_id </text>
<text text-anchor="start" x="264.6788" y="-803.9" font-family="Arial" font-size="14.00" fill="#666666">[integer]</text>
<polygon fill="none" stroke="#000000" points="204,-762.5 204,-792.5 557,-792.5 557,-762.5 204,-762.5"/>
<text text-anchor="start" x="211" y="-773.9" font-family="Arial" font-size="14.00" fill="#000000">create_uid </text>
<text text-anchor="start" x="280.244" y="-773.9" font-family="Arial" font-size="14.00" fill="#666666">[integer]</text>
<polygon fill="none" stroke="#000000" points="204,-732.5 204,-762.5 557,-762.5 557,-732.5 204,-732.5"/>
<text text-anchor="start" x="211" y="-743.9" font-family="Arial" font-size="14.00" fill="#000000">create_date </text>
<text text-anchor="start" x="288.8106" y="-743.9" font-family="Arial" font-size="14.00" fill="#666666">[timestamp without time zone]</text>
<polygon fill="none" stroke="#000000" points="204,-702.5 204,-732.5 557,-732.5 557,-702.5 204,-702.5"/>
<text text-anchor="start" x="211" y="-713.9" font-family="Arial" font-size="14.00" fill="#000000">write_uid </text>
<text text-anchor="start" x="270.892" y="-713.9" font-family="Arial" font-size="14.00" fill="#666666">[integer]</text>
<polygon fill="none" stroke="#000000" points="204,-672.5 204,-702.5 557,-702.5 557,-672.5 204,-672.5"/>
<text text-anchor="start" x="211" y="-683.9" font-family="Arial" font-size="14.00" fill="#000000">write_date </text>
<text text-anchor="start" x="279.4586" y="-683.9" font-family="Arial" font-size="14.00" fill="#666666">[timestamp without time zone]</text>
</g>
<!-- public.merge_opportunity_rel&#45;&gt;public.crm_merge_opportunity -->
<g id="edge1" class="edge">
<title>public.merge_opportunity_rel:merge_id&#45;&gt;public.crm_merge_opportunity:id</title>
<path fill="none" stroke="#000000" d="M426.6045,-1716.5399C265.5647,-1684.6211 744.0361,-867.5 557,-867.5"/>
<polygon fill="#000000" stroke="#000000" points="427.0424,-1716.5803 436.5861,-1721.9809 432.0212,-1717.0401 437,-1717.5 437,-1717.5 437,-1717.5 432.0212,-1717.0401 437.4139,-1713.0191 427.0424,-1716.5803 427.0424,-1716.5803"/>
<text text-anchor="start" x="7.0475" y="-1727.5" font-family="Arial" font-size="10.00" fill="#000000">FOREIGN KEY (merge_id) REFERENCES crm_merge_opportunity(id) ON DELETE CASCADE</text>
</g>
<!-- public.crm_lead -->
<g id="node3" class="node">
<title>public.crm_lead</title>
<polygon fill="#efefef" stroke="transparent" points="661,-1512.5 661,-1547.5 1013,-1547.5 1013,-1512.5 661,-1512.5"/>
<polygon fill="none" stroke="#000000" points="661,-1512.5 661,-1547.5 1013,-1547.5 1013,-1512.5 661,-1512.5"/>
<text text-anchor="start" x="725.3668" y="-1525.3" font-family="Arial Bold" font-size="18.00" fill="#000000">public.crm_lead</text>
<text text-anchor="start" x="851.3794" y="-1525.3" font-family="Arial" font-size="14.00" fill="#000000"> </text>
<text text-anchor="start" x="855.27" y="-1525.3" font-family="Arial" font-size="14.00" fill="#666666">[BASE TABLE]</text>
<polygon fill="none" stroke="#000000" points="661,-1482.5 661,-1512.5 1013,-1512.5 1013,-1482.5 661,-1482.5"/>
<text text-anchor="start" x="668" y="-1493.9" font-family="Arial" font-size="14.00" fill="#000000">id </text>
<text text-anchor="start" x="682.7798" y="-1493.9" font-family="Arial" font-size="14.00" fill="#666666">[integer]</text>
<polygon fill="none" stroke="#000000" points="661,-1452.5 661,-1482.5 1013,-1482.5 1013,-1452.5 661,-1452.5"/>
<text text-anchor="start" x="668" y="-1463.9" font-family="Arial" font-size="14.00" fill="#000000">campaign_id </text>
<text text-anchor="start" x="751.2426" y="-1463.9" font-family="Arial" font-size="14.00" fill="#666666">[integer]</text>
<polygon fill="none" stroke="#000000" points="661,-1422.5 661,-1452.5 1013,-1452.5 1013,-1422.5 661,-1422.5"/>
<text text-anchor="start" x="668" y="-1433.9" font-family="Arial" font-size="14.00" fill="#000000">source_id </text>
<text text-anchor="start" x="732.5708" y="-1433.9" font-family="Arial" font-size="14.00" fill="#666666">[integer]</text>
<polygon fill="none" stroke="#000000" points="661,-1392.5 661,-1422.5 1013,-1422.5 1013,-1392.5 661,-1392.5"/>
<text text-anchor="start" x="668" y="-1403.9" font-family="Arial" font-size="14.00" fill="#000000">medium_id </text>
<text text-anchor="start" x="740.338" y="-1403.9" font-family="Arial" font-size="14.00" fill="#666666">[integer]</text>
<polygon fill="none" stroke="#000000" points="661,-1362.5 661,-1392.5 1013,-1392.5 1013,-1362.5 661,-1362.5"/>
<text text-anchor="start" x="668" y="-1373.9" font-family="Arial" font-size="14.00" fill="#000000">message_main_attachment_id </text>
<text text-anchor="start" x="862.4964" y="-1373.9" font-family="Arial" font-size="14.00" fill="#666666">[integer]</text>
<polygon fill="none" stroke="#000000" points="661,-1332.5 661,-1362.5 1013,-1362.5 1013,-1332.5 661,-1332.5"/>
<text text-anchor="start" x="668" y="-1343.9" font-family="Arial" font-size="14.00" fill="#000000">name </text>
<text text-anchor="start" x="706.899" y="-1343.9" font-family="Arial" font-size="14.00" fill="#666666">[varchar]</text>
<polygon fill="none" stroke="#000000" points="661,-1302.5 661,-1332.5 1013,-1332.5 1013,-1302.5 661,-1302.5"/>
<text text-anchor="start" x="668" y="-1313.9" font-family="Arial" font-size="14.00" fill="#000000">partner_id </text>
<text text-anchor="start" x="734.9046" y="-1313.9" font-family="Arial" font-size="14.00" fill="#666666">[integer]</text>
<polygon fill="none" stroke="#000000" points="661,-1272.5 661,-1302.5 1013,-1302.5 1013,-1272.5 661,-1272.5"/>
<text text-anchor="start" x="668" y="-1283.9" font-family="Arial" font-size="14.00" fill="#000000">active </text>
<text text-anchor="start" x="708.453" y="-1283.9" font-family="Arial" font-size="14.00" fill="#666666">[boolean]</text>
<polygon fill="none" stroke="#000000" points="661,-1242.5 661,-1272.5 1013,-1272.5 1013,-1242.5 661,-1242.5"/>
<text text-anchor="start" x="668" y="-1253.9" font-family="Arial" font-size="14.00" fill="#000000">date_action_last </text>
<text text-anchor="start" x="773.819" y="-1253.9" font-family="Arial" font-size="14.00" fill="#666666">[timestamp without time zone]</text>
<polygon fill="none" stroke="#000000" points="661,-1212.5 661,-1242.5 1013,-1242.5 1013,-1212.5 661,-1212.5"/>
<text text-anchor="start" x="668" y="-1223.9" font-family="Arial" font-size="14.00" fill="#000000">email_from </text>
<text text-anchor="start" x="741.1066" y="-1223.9" font-family="Arial" font-size="14.00" fill="#666666">[varchar]</text>
<polygon fill="none" stroke="#000000" points="661,-1182.5 661,-1212.5 1013,-1212.5 1013,-1182.5 661,-1182.5"/>
<text text-anchor="start" x="668" y="-1193.9" font-family="Arial" font-size="14.00" fill="#000000">website </text>
<text text-anchor="start" x="719.3422" y="-1193.9" font-family="Arial" font-size="14.00" fill="#666666">[varchar]</text>
<polygon fill="none" stroke="#000000" points="661,-1152.5 661,-1182.5 1013,-1182.5 1013,-1152.5 661,-1152.5"/>
<text text-anchor="start" x="668" y="-1163.9" font-family="Arial" font-size="14.00" fill="#000000">team_id </text>
<text text-anchor="start" x="721.6788" y="-1163.9" font-family="Arial" font-size="14.00" fill="#666666">[integer]</text>
<polygon fill="none" stroke="#000000" points="661,-1122.5 661,-1152.5 1013,-1152.5 1013,-1122.5 661,-1122.5"/>
<text text-anchor="start" x="668" y="-1133.9" font-family="Arial" font-size="14.00" fill="#000000">email_cc </text>
<text text-anchor="start" x="727.1122" y="-1133.9" font-family="Arial" font-size="14.00" fill="#666666">[text]</text>
<polygon fill="none" stroke="#000000" points="661,-1092.5 661,-1122.5 1013,-1122.5 1013,-1092.5 661,-1092.5"/>
<text text-anchor="start" x="668" y="-1103.9" font-family="Arial" font-size="14.00" fill="#000000">description </text>
<text text-anchor="start" x="739.568" y="-1103.9" font-family="Arial" font-size="14.00" fill="#666666">[text]</text>
<polygon fill="none" stroke="#000000" points="661,-1062.5 661,-1092.5 1013,-1092.5 1013,-1062.5 661,-1062.5"/>
<text text-anchor="start" x="668" y="-1073.9" font-family="Arial" font-size="14.00" fill="#000000">contact_name </text>
<text text-anchor="start" x="759.8106" y="-1073.9" font-family="Arial" font-size="14.00" fill="#666666">[varchar]</text>
<polygon fill="none" stroke="#000000" points="661,-1032.5 661,-1062.5 1013,-1062.5 1013,-1032.5 661,-1032.5"/>
<text text-anchor="start" x="668" y="-1043.9" font-family="Arial" font-size="14.00" fill="#000000">partner_name </text>
<text text-anchor="start" x="759.0238" y="-1043.9" font-family="Arial" font-size="14.00" fill="#666666">[varchar]</text>
<polygon fill="none" stroke="#000000" points="661,-1002.5 661,-1032.5 1013,-1032.5 1013,-1002.5 661,-1002.5"/>
<text text-anchor="start" x="668" y="-1013.9" font-family="Arial" font-size="14.00" fill="#000000">type </text>
<text text-anchor="start" x="698.3464" y="-1013.9" font-family="Arial" font-size="14.00" fill="#666666">[varchar]</text>
<polygon fill="none" stroke="#000000" points="661,-972.5 661,-1002.5 1013,-1002.5 1013,-972.5 661,-972.5"/>
<text text-anchor="start" x="668" y="-983.9" font-family="Arial" font-size="14.00" fill="#000000">priority </text>
<text text-anchor="start" x="713.8808" y="-983.9" font-family="Arial" font-size="14.00" fill="#666666">[varchar]</text>
<polygon fill="none" stroke="#000000" points="661,-942.5 661,-972.5 1013,-972.5 1013,-942.5 661,-942.5"/>
<text text-anchor="start" x="668" y="-953.9" font-family="Arial" font-size="14.00" fill="#000000">date_closed </text>
<text text-anchor="start" x="747.366" y="-953.9" font-family="Arial" font-size="14.00" fill="#666666">[timestamp without time zone]</text>
<polygon fill="none" stroke="#000000" points="661,-912.5 661,-942.5 1013,-942.5 1013,-912.5 661,-912.5"/>
<text text-anchor="start" x="668" y="-923.9" font-family="Arial" font-size="14.00" fill="#000000">stage_id </text>
<text text-anchor="start" x="724.8008" y="-923.9" font-family="Arial" font-size="14.00" fill="#666666">[integer]</text>
<polygon fill="none" stroke="#000000" points="661,-882.5 661,-912.5 1013,-912.5 1013,-882.5 661,-882.5"/>
<text text-anchor="start" x="668" y="-893.9" font-family="Arial" font-size="14.00" fill="#000000">user_id </text>
<text text-anchor="start" x="717.7882" y="-893.9" font-family="Arial" font-size="14.00" fill="#666666">[integer]</text>
<polygon fill="none" stroke="#000000" points="661,-852.5 661,-882.5 1013,-882.5 1013,-852.5 661,-852.5"/>
<text text-anchor="start" x="668" y="-863.9" font-family="Arial" font-size="14.00" fill="#000000">referred </text>
<text text-anchor="start" x="720.8934" y="-863.9" font-family="Arial" font-size="14.00" fill="#666666">[varchar]</text>
<polygon fill="none" stroke="#000000" points="661,-822.5 661,-852.5 1013,-852.5 1013,-822.5 661,-822.5"/>
<text text-anchor="start" x="668" y="-833.9" font-family="Arial" font-size="14.00" fill="#000000">date_open </text>
<text text-anchor="start" x="738.042" y="-833.9" font-family="Arial" font-size="14.00" fill="#666666">[timestamp without time zone]</text>
<polygon fill="none" stroke="#000000" points="661,-792.5 661,-822.5 1013,-822.5 1013,-792.5 661,-792.5"/>
<text text-anchor="start" x="668" y="-803.9" font-family="Arial" font-size="14.00" fill="#000000">day_open </text>
<text text-anchor="start" x="733.3688" y="-803.9" font-family="Arial" font-size="14.00" fill="#666666">[double precision]</text>
<polygon fill="none" stroke="#000000" points="661,-762.5 661,-792.5 1013,-792.5 1013,-762.5 661,-762.5"/>
<text text-anchor="start" x="668" y="-773.9" font-family="Arial" font-size="14.00" fill="#000000">day_close </text>
<text text-anchor="start" x="734.9102" y="-773.9" font-family="Arial" font-size="14.00" fill="#666666">[double precision]</text>
<polygon fill="none" stroke="#000000" points="661,-732.5 661,-762.5 1013,-762.5 1013,-732.5 661,-732.5"/>
<text text-anchor="start" x="667.7806" y="-743.9" font-family="Arial" font-size="14.00" fill="#000000">date_last_stage_update </text>
<text text-anchor="start" x="821.0792" y="-743.9" font-family="Arial" font-size="14.00" fill="#666666">[timestamp without time zone]</text>
<polygon fill="none" stroke="#000000" points="661,-702.5 661,-732.5 1013,-732.5 1013,-702.5 661,-702.5"/>
<text text-anchor="start" x="668" y="-713.9" font-family="Arial" font-size="14.00" fill="#000000">date_conversion </text>
<text text-anchor="start" x="774.5918" y="-713.9" font-family="Arial" font-size="14.00" fill="#666666">[timestamp without time zone]</text>
<polygon fill="none" stroke="#000000" points="661,-672.5 661,-702.5 1013,-702.5 1013,-672.5 661,-672.5"/>
<text text-anchor="start" x="668" y="-683.9" font-family="Arial" font-size="14.00" fill="#000000">message_bounce </text>
<text text-anchor="start" x="782.3772" y="-683.9" font-family="Arial" font-size="14.00" fill="#666666">[integer]</text>
<polygon fill="none" stroke="#000000" points="661,-642.5 661,-672.5 1013,-672.5 1013,-642.5 661,-642.5"/>
<text text-anchor="start" x="668" y="-653.9" font-family="Arial" font-size="14.00" fill="#000000">probability </text>
<text text-anchor="start" x="735.6746" y="-653.9" font-family="Arial" font-size="14.00" fill="#666666">[double precision]</text>
<polygon fill="none" stroke="#000000" points="661,-612.5 661,-642.5 1013,-642.5 1013,-612.5 661,-612.5"/>
<text text-anchor="start" x="668" y="-623.9" font-family="Arial" font-size="14.00" fill="#000000">planned_revenue </text>
<text text-anchor="start" x="780.049" y="-623.9" font-family="Arial" font-size="14.00" fill="#666666">[numeric]</text>
<polygon fill="none" stroke="#000000" points="661,-582.5 661,-612.5 1013,-612.5 1013,-582.5 661,-582.5"/>
<text text-anchor="start" x="668" y="-593.9" font-family="Arial" font-size="14.00" fill="#000000">expected_revenue </text>
<text text-anchor="start" x="787.0504" y="-593.9" font-family="Arial" font-size="14.00" fill="#666666">[numeric]</text>
<polygon fill="none" stroke="#000000" points="661,-552.5 661,-582.5 1013,-582.5 1013,-552.5 661,-552.5"/>
<text text-anchor="start" x="668" y="-563.9" font-family="Arial" font-size="14.00" fill="#000000">date_deadline </text>
<text text-anchor="start" x="759.8204" y="-563.9" font-family="Arial" font-size="14.00" fill="#666666">[date]</text>
<polygon fill="none" stroke="#000000" points="661,-522.5 661,-552.5 1013,-552.5 1013,-522.5 661,-522.5"/>
<text text-anchor="start" x="668" y="-533.9" font-family="Arial" font-size="14.00" fill="#000000">color </text>
<text text-anchor="start" x="702.223" y="-533.9" font-family="Arial" font-size="14.00" fill="#666666">[integer]</text>
<polygon fill="none" stroke="#000000" points="661,-492.5 661,-522.5 1013,-522.5 1013,-492.5 661,-492.5"/>
<text text-anchor="start" x="668" y="-503.9" font-family="Arial" font-size="14.00" fill="#000000">street </text>
<text text-anchor="start" x="706.8976" y="-503.9" font-family="Arial" font-size="14.00" fill="#666666">[varchar]</text>
<polygon fill="none" stroke="#000000" points="661,-462.5 661,-492.5 1013,-492.5 1013,-462.5 661,-462.5"/>
<text text-anchor="start" x="668" y="-473.9" font-family="Arial" font-size="14.00" fill="#000000">street2 </text>
<text text-anchor="start" x="714.6802" y="-473.9" font-family="Arial" font-size="14.00" fill="#666666">[varchar]</text>
<polygon fill="none" stroke="#000000" points="661,-432.5 661,-462.5 1013,-462.5 1013,-432.5 661,-432.5"/>
<text text-anchor="start" x="668" y="-443.9" font-family="Arial" font-size="14.00" fill="#000000">zip </text>
<text text-anchor="start" x="689.7798" y="-443.9" font-family="Arial" font-size="14.00" fill="#666666">[varchar]</text>
<polygon fill="none" stroke="#000000" points="661,-402.5 661,-432.5 1013,-432.5 1013,-402.5 661,-402.5"/>
<text text-anchor="start" x="668" y="-413.9" font-family="Arial" font-size="14.00" fill="#000000">city </text>
<text text-anchor="start" x="692.8878" y="-413.9" font-family="Arial" font-size="14.00" fill="#666666">[varchar]</text>
<polygon fill="none" stroke="#000000" points="661,-372.5 661,-402.5 1013,-402.5 1013,-372.5 661,-372.5"/>
<text text-anchor="start" x="668" y="-383.9" font-family="Arial" font-size="14.00" fill="#000000">state_id </text>
<text text-anchor="start" x="720.9088" y="-383.9" font-family="Arial" font-size="14.00" fill="#666666">[integer]</text>
<polygon fill="none" stroke="#000000" points="661,-342.5 661,-372.5 1013,-372.5 1013,-342.5 661,-342.5"/>
<text text-anchor="start" x="668" y="-353.9" font-family="Arial" font-size="14.00" fill="#000000">country_id </text>
<text text-anchor="start" x="736.4614" y="-353.9" font-family="Arial" font-size="14.00" fill="#666666">[integer]</text>
<polygon fill="none" stroke="#000000" points="661,-312.5 661,-342.5 1013,-342.5 1013,-312.5 661,-312.5"/>
<text text-anchor="start" x="668" y="-323.9" font-family="Arial" font-size="14.00" fill="#000000">phone </text>
<text text-anchor="start" x="710.8036" y="-323.9" font-family="Arial" font-size="14.00" fill="#666666">[varchar]</text>
<polygon fill="none" stroke="#000000" points="661,-282.5 661,-312.5 1013,-312.5 1013,-282.5 661,-282.5"/>
<text text-anchor="start" x="668" y="-293.9" font-family="Arial" font-size="14.00" fill="#000000">mobile </text>
<text text-anchor="start" x="713.1122" y="-293.9" font-family="Arial" font-size="14.00" fill="#666666">[varchar]</text>
<polygon fill="none" stroke="#000000" points="661,-252.5 661,-282.5 1013,-282.5 1013,-252.5 661,-252.5"/>
<text text-anchor="start" x="668" y="-263.9" font-family="Arial" font-size="14.00" fill="#000000">function </text>
<text text-anchor="start" x="720.9088" y="-263.9" font-family="Arial" font-size="14.00" fill="#666666">[varchar]</text>
<polygon fill="none" stroke="#000000" points="661,-222.5 661,-252.5 1013,-252.5 1013,-222.5 661,-222.5"/>
<text text-anchor="start" x="668" y="-233.9" font-family="Arial" font-size="14.00" fill="#000000">title </text>
<text text-anchor="start" x="693.6676" y="-233.9" font-family="Arial" font-size="14.00" fill="#666666">[integer]</text>
<polygon fill="none" stroke="#000000" points="661,-192.5 661,-222.5 1013,-222.5 1013,-192.5 661,-192.5"/>
<text text-anchor="start" x="668" y="-203.9" font-family="Arial" font-size="14.00" fill="#000000">company_id </text>
<text text-anchor="start" x="747.3534" y="-203.9" font-family="Arial" font-size="14.00" fill="#666666">[integer]</text>
<polygon fill="none" stroke="#000000" points="661,-162.5 661,-192.5 1013,-192.5 1013,-162.5 661,-162.5"/>
<text text-anchor="start" x="668" y="-173.9" font-family="Arial" font-size="14.00" fill="#000000">lost_reason </text>
<text text-anchor="start" x="744.244" y="-173.9" font-family="Arial" font-size="14.00" fill="#666666">[integer]</text>
<polygon fill="none" stroke="#000000" points="661,-132.5 661,-162.5 1013,-162.5 1013,-132.5 661,-132.5"/>
<text text-anchor="start" x="668" y="-143.9" font-family="Arial" font-size="14.00" fill="#000000">create_uid </text>
<text text-anchor="start" x="737.244" y="-143.9" font-family="Arial" font-size="14.00" fill="#666666">[integer]</text>
<polygon fill="none" stroke="#000000" points="661,-102.5 661,-132.5 1013,-132.5 1013,-102.5 661,-102.5"/>
<text text-anchor="start" x="668" y="-113.9" font-family="Arial" font-size="14.00" fill="#000000">create_date </text>
<text text-anchor="start" x="745.8106" y="-113.9" font-family="Arial" font-size="14.00" fill="#666666">[timestamp without time zone]</text>
<polygon fill="none" stroke="#000000" points="661,-72.5 661,-102.5 1013,-102.5 1013,-72.5 661,-72.5"/>
<text text-anchor="start" x="668" y="-83.9" font-family="Arial" font-size="14.00" fill="#000000">write_uid </text>
<text text-anchor="start" x="727.892" y="-83.9" font-family="Arial" font-size="14.00" fill="#666666">[integer]</text>
<polygon fill="none" stroke="#000000" points="661,-42.5 661,-72.5 1013,-72.5 1013,-42.5 661,-42.5"/>
<text text-anchor="start" x="668" y="-53.9" font-family="Arial" font-size="14.00" fill="#000000">write_date </text>
<text text-anchor="start" x="736.4586" y="-53.9" font-family="Arial" font-size="14.00" fill="#666666">[timestamp without time zone]</text>
</g>
<!-- public.merge_opportunity_rel&#45;&gt;public.crm_lead -->
<g id="edge2" class="edge">
<title>public.merge_opportunity_rel:opportunity_id&#45;&gt;public.crm_lead:id</title>
<path fill="none" stroke="#000000" d="M789.9635,-1684.8647C803.3681,-1675.7638 793.5218,-1645.2177 780,-1627 747.0672,-1582.6303 693.9328,-1635.3697 661,-1591 636.2328,-1557.6316 619.4444,-1497.5 661,-1497.5"/>
<polygon fill="#000000" stroke="#000000" points="789.6676,-1684.9429 778.8493,-1683.1496 784.8338,-1686.2215 780,-1687.5 780,-1687.5 780,-1687.5 784.8338,-1686.2215 781.1507,-1691.8504 789.6676,-1684.9429 789.6676,-1684.9429"/>
<text text-anchor="start" x="786.714" y="-1697.5" font-family="Arial" font-size="10.00" fill="#000000">FOREIGN KEY (opportunity_id) REFERENCES crm_lead(id) ON DELETE CASCADE</text>
</g>
</g>
</svg>
