<?xml version="1.0" encoding="UTF-8" standalone="no"?>
<!DOCTYPE svg PUBLIC "-//W3C//DTD SVG 1.1//EN"
 "http://www.w3.org/Graphics/SVG/1.1/DTD/svg11.dtd">
<!-- Generated by graphviz version 2.40.1 (20161225.0304)
 -->
<!-- Title: public.stock_warn_insufficient_qty_scrap Pages: 1 -->
<svg width="1576pt" height="1252pt"
 viewBox="0.00 0.00 1575.50 1252.00" xmlns="http://www.w3.org/2000/svg" xmlns:xlink="http://www.w3.org/1999/xlink">
<g id="graph0" class="graph" transform="scale(1 1) rotate(0) translate(4 1248)">
<title>public.stock_warn_insufficient_qty_scrap</title>
<polygon fill="#ffffff" stroke="transparent" points="-4,4 -4,-1248 1571.5,-1248 1571.5,4 -4,4"/>
<!-- public.stock_warn_insufficient_qty_scrap -->
<g id="node1" class="node">
<title>public.stock_warn_insufficient_qty_scrap</title>
<polygon fill="#efefef" stroke="transparent" points="749.5,-1162.5 749.5,-1197.5 1186.5,-1197.5 1186.5,-1162.5 749.5,-1162.5"/>
<polygon fill="none" stroke="#000000" points="749.5,-1162.5 749.5,-1197.5 1186.5,-1197.5 1186.5,-1162.5 749.5,-1162.5"/>
<text text-anchor="start" x="756.339" y="-1175.3" font-family="Arial Bold" font-size="18.00" fill="#000000">public.stock_warn_insufficient_qty_scrap</text>
<text text-anchor="start" x="1082.4072" y="-1175.3" font-family="Arial" font-size="14.00" fill="#000000"> </text>
<text text-anchor="start" x="1086.2978" y="-1175.3" font-family="Arial" font-size="14.00" fill="#666666">[BASE TABLE]</text>
<polygon fill="none" stroke="#000000" points="749.5,-1132.5 749.5,-1162.5 1186.5,-1162.5 1186.5,-1132.5 749.5,-1132.5"/>
<text text-anchor="start" x="756.5" y="-1143.9" font-family="Arial" font-size="14.00" fill="#000000">id </text>
<text text-anchor="start" x="771.2798" y="-1143.9" font-family="Arial" font-size="14.00" fill="#666666">[integer]</text>
<polygon fill="none" stroke="#000000" points="749.5,-1102.5 749.5,-1132.5 1186.5,-1132.5 1186.5,-1102.5 749.5,-1102.5"/>
<text text-anchor="start" x="756.5" y="-1113.9" font-family="Arial" font-size="14.00" fill="#000000">product_id </text>
<text text-anchor="start" x="825.744" y="-1113.9" font-family="Arial" font-size="14.00" fill="#666666">[integer]</text>
<polygon fill="none" stroke="#000000" points="749.5,-1072.5 749.5,-1102.5 1186.5,-1102.5 1186.5,-1072.5 749.5,-1072.5"/>
<text text-anchor="start" x="756.5" y="-1083.9" font-family="Arial" font-size="14.00" fill="#000000">location_id </text>
<text text-anchor="start" x="827.2966" y="-1083.9" font-family="Arial" font-size="14.00" fill="#666666">[integer]</text>
<polygon fill="none" stroke="#000000" points="749.5,-1042.5 749.5,-1072.5 1186.5,-1072.5 1186.5,-1042.5 749.5,-1042.5"/>
<text text-anchor="start" x="756.5" y="-1053.9" font-family="Arial" font-size="14.00" fill="#000000">scrap_id </text>
<text text-anchor="start" x="813.2882" y="-1053.9" font-family="Arial" font-size="14.00" fill="#666666">[integer]</text>
<polygon fill="none" stroke="#000000" points="749.5,-1012.5 749.5,-1042.5 1186.5,-1042.5 1186.5,-1012.5 749.5,-1012.5"/>
<text text-anchor="start" x="756.5" y="-1023.9" font-family="Arial" font-size="14.00" fill="#000000">create_uid </text>
<text text-anchor="start" x="825.744" y="-1023.9" font-family="Arial" font-size="14.00" fill="#666666">[integer]</text>
<polygon fill="none" stroke="#000000" points="749.5,-982.5 749.5,-1012.5 1186.5,-1012.5 1186.5,-982.5 749.5,-982.5"/>
<text text-anchor="start" x="756.5" y="-993.9" font-family="Arial" font-size="14.00" fill="#000000">create_date </text>
<text text-anchor="start" x="834.3106" y="-993.9" font-family="Arial" font-size="14.00" fill="#666666">[timestamp without time zone]</text>
<polygon fill="none" stroke="#000000" points="749.5,-952.5 749.5,-982.5 1186.5,-982.5 1186.5,-952.5 749.5,-952.5"/>
<text text-anchor="start" x="756.5" y="-963.9" font-family="Arial" font-size="14.00" fill="#000000">write_uid </text>
<text text-anchor="start" x="816.392" y="-963.9" font-family="Arial" font-size="14.00" fill="#666666">[integer]</text>
<polygon fill="none" stroke="#000000" points="749.5,-922.5 749.5,-952.5 1186.5,-952.5 1186.5,-922.5 749.5,-922.5"/>
<text text-anchor="start" x="756.5" y="-933.9" font-family="Arial" font-size="14.00" fill="#000000">write_date </text>
<text text-anchor="start" x="824.9586" y="-933.9" font-family="Arial" font-size="14.00" fill="#666666">[timestamp without time zone]</text>
<polygon fill="none" stroke="#000000" stroke-width="3" points="747.5,-921.5 747.5,-1199.5 1187.5,-1199.5 1187.5,-921.5 747.5,-921.5"/>
</g>
<!-- public.product_product -->
<g id="node2" class="node">
<title>public.product_product</title>
<polygon fill="#efefef" stroke="transparent" points="43.5,-582.5 43.5,-617.5 336.5,-617.5 336.5,-582.5 43.5,-582.5"/>
<polygon fill="none" stroke="#000000" points="43.5,-582.5 43.5,-617.5 336.5,-617.5 336.5,-582.5 43.5,-582.5"/>
<text text-anchor="start" x="50.3462" y="-595.3" font-family="Arial Bold" font-size="18.00" fill="#000000">public.product_product</text>
<text text-anchor="start" x="232.4" y="-595.3" font-family="Arial" font-size="14.00" fill="#000000"> </text>
<text text-anchor="start" x="236.2906" y="-595.3" font-family="Arial" font-size="14.00" fill="#666666">[BASE TABLE]</text>
<polygon fill="none" stroke="#000000" points="43.5,-552.5 43.5,-582.5 336.5,-582.5 336.5,-552.5 43.5,-552.5"/>
<text text-anchor="start" x="50.5" y="-563.9" font-family="Arial" font-size="14.00" fill="#000000">id </text>
<text text-anchor="start" x="65.2798" y="-563.9" font-family="Arial" font-size="14.00" fill="#666666">[integer]</text>
<polygon fill="none" stroke="#000000" points="43.5,-522.5 43.5,-552.5 336.5,-552.5 336.5,-522.5 43.5,-522.5"/>
<text text-anchor="start" x="50.5" y="-533.9" font-family="Arial" font-size="14.00" fill="#000000">message_main_attachment_id </text>
<text text-anchor="start" x="244.9964" y="-533.9" font-family="Arial" font-size="14.00" fill="#666666">[integer]</text>
<polygon fill="none" stroke="#000000" points="43.5,-492.5 43.5,-522.5 336.5,-522.5 336.5,-492.5 43.5,-492.5"/>
<text text-anchor="start" x="50.5" y="-503.9" font-family="Arial" font-size="14.00" fill="#000000">default_code </text>
<text text-anchor="start" x="134.5392" y="-503.9" font-family="Arial" font-size="14.00" fill="#666666">[varchar]</text>
<polygon fill="none" stroke="#000000" points="43.5,-462.5 43.5,-492.5 336.5,-492.5 336.5,-462.5 43.5,-462.5"/>
<text text-anchor="start" x="50.5" y="-473.9" font-family="Arial" font-size="14.00" fill="#000000">active </text>
<text text-anchor="start" x="90.953" y="-473.9" font-family="Arial" font-size="14.00" fill="#666666">[boolean]</text>
<polygon fill="none" stroke="#000000" points="43.5,-432.5 43.5,-462.5 336.5,-462.5 336.5,-432.5 43.5,-432.5"/>
<text text-anchor="start" x="50.5" y="-443.9" font-family="Arial" font-size="14.00" fill="#000000">product_tmpl_id </text>
<text text-anchor="start" x="153.967" y="-443.9" font-family="Arial" font-size="14.00" fill="#666666">[integer]</text>
<polygon fill="none" stroke="#000000" points="43.5,-402.5 43.5,-432.5 336.5,-432.5 336.5,-402.5 43.5,-402.5"/>
<text text-anchor="start" x="50.5" y="-413.9" font-family="Arial" font-size="14.00" fill="#000000">barcode </text>
<text text-anchor="start" x="104.9642" y="-413.9" font-family="Arial" font-size="14.00" fill="#666666">[varchar]</text>
<polygon fill="none" stroke="#000000" points="43.5,-372.5 43.5,-402.5 336.5,-402.5 336.5,-372.5 43.5,-372.5"/>
<text text-anchor="start" x="50.5" y="-383.9" font-family="Arial" font-size="14.00" fill="#000000">volume </text>
<text text-anchor="start" x="99.5056" y="-383.9" font-family="Arial" font-size="14.00" fill="#666666">[double precision]</text>
<polygon fill="none" stroke="#000000" points="43.5,-342.5 43.5,-372.5 336.5,-372.5 336.5,-342.5 43.5,-342.5"/>
<text text-anchor="start" x="50.5" y="-353.9" font-family="Arial" font-size="14.00" fill="#000000">weight </text>
<text text-anchor="start" x="94.8422" y="-353.9" font-family="Arial" font-size="14.00" fill="#666666">[numeric]</text>
<polygon fill="none" stroke="#000000" points="43.5,-312.5 43.5,-342.5 336.5,-342.5 336.5,-312.5 43.5,-312.5"/>
<text text-anchor="start" x="50.5" y="-323.9" font-family="Arial" font-size="14.00" fill="#000000">create_uid </text>
<text text-anchor="start" x="119.744" y="-323.9" font-family="Arial" font-size="14.00" fill="#666666">[integer]</text>
<polygon fill="none" stroke="#000000" points="43.5,-282.5 43.5,-312.5 336.5,-312.5 336.5,-282.5 43.5,-282.5"/>
<text text-anchor="start" x="50.5" y="-293.9" font-family="Arial" font-size="14.00" fill="#000000">create_date </text>
<text text-anchor="start" x="128.3106" y="-293.9" font-family="Arial" font-size="14.00" fill="#666666">[timestamp without time zone]</text>
<polygon fill="none" stroke="#000000" points="43.5,-252.5 43.5,-282.5 336.5,-282.5 336.5,-252.5 43.5,-252.5"/>
<text text-anchor="start" x="50.5" y="-263.9" font-family="Arial" font-size="14.00" fill="#000000">write_uid </text>
<text text-anchor="start" x="110.392" y="-263.9" font-family="Arial" font-size="14.00" fill="#666666">[integer]</text>
<polygon fill="none" stroke="#000000" points="43.5,-222.5 43.5,-252.5 336.5,-252.5 336.5,-222.5 43.5,-222.5"/>
<text text-anchor="start" x="50.5" y="-233.9" font-family="Arial" font-size="14.00" fill="#000000">write_date </text>
<text text-anchor="start" x="118.9586" y="-233.9" font-family="Arial" font-size="14.00" fill="#666666">[timestamp without time zone]</text>
</g>
<!-- public.stock_warn_insufficient_qty_scrap&#45;&gt;public.product_product -->
<g id="edge1" class="edge">
<title>public.stock_warn_insufficient_qty_scrap:product_id&#45;&gt;public.product_product:id</title>
<path fill="none" stroke="#000000" d="M739.2499,-1117.409C545.2044,-1113.9234 491.754,-1010.4965 387.5,-841 355.1091,-788.3387 398.3254,-567.5 336.5,-567.5"/>
<polygon fill="#000000" stroke="#000000" points="739.5004,-1117.4111 749.46,-1121.9998 744.5002,-1117.4556 749.5,-1117.5 749.5,-1117.5 749.5,-1117.5 744.5002,-1117.4556 749.54,-1113.0002 739.5004,-1117.4111 739.5004,-1117.4111"/>
<text text-anchor="start" x="347.9805" y="-1127.5" font-family="Arial" font-size="10.00" fill="#000000">FOREIGN KEY (product_id) REFERENCES product_product(id) ON DELETE SET NULL</text>
</g>
<!-- public.stock_location -->
<g id="node3" class="node">
<title>public.stock_location</title>
<polygon fill="#efefef" stroke="transparent" points="440.5,-762.5 440.5,-797.5 717.5,-797.5 717.5,-762.5 440.5,-762.5"/>
<polygon fill="none" stroke="#000000" points="440.5,-762.5 440.5,-797.5 717.5,-797.5 717.5,-762.5 440.5,-762.5"/>
<text text-anchor="start" x="447.3535" y="-775.3" font-family="Arial Bold" font-size="18.00" fill="#000000">public.stock_location</text>
<text text-anchor="start" x="613.3927" y="-775.3" font-family="Arial" font-size="14.00" fill="#000000"> </text>
<text text-anchor="start" x="617.2833" y="-775.3" font-family="Arial" font-size="14.00" fill="#666666">[BASE TABLE]</text>
<polygon fill="none" stroke="#000000" points="440.5,-732.5 440.5,-762.5 717.5,-762.5 717.5,-732.5 440.5,-732.5"/>
<text text-anchor="start" x="447.5" y="-743.9" font-family="Arial" font-size="14.00" fill="#000000">id </text>
<text text-anchor="start" x="462.2798" y="-743.9" font-family="Arial" font-size="14.00" fill="#666666">[integer]</text>
<polygon fill="none" stroke="#000000" points="440.5,-702.5 440.5,-732.5 717.5,-732.5 717.5,-702.5 440.5,-702.5"/>
<text text-anchor="start" x="447.5" y="-713.9" font-family="Arial" font-size="14.00" fill="#000000">parent_path </text>
<text text-anchor="start" x="526.0932" y="-713.9" font-family="Arial" font-size="14.00" fill="#666666">[varchar]</text>
<polygon fill="none" stroke="#000000" points="440.5,-672.5 440.5,-702.5 717.5,-702.5 717.5,-672.5 440.5,-672.5"/>
<text text-anchor="start" x="447.5" y="-683.9" font-family="Arial" font-size="14.00" fill="#000000">name </text>
<text text-anchor="start" x="486.399" y="-683.9" font-family="Arial" font-size="14.00" fill="#666666">[varchar]</text>
<polygon fill="none" stroke="#000000" points="440.5,-642.5 440.5,-672.5 717.5,-672.5 717.5,-642.5 440.5,-642.5"/>
<text text-anchor="start" x="447.5" y="-653.9" font-family="Arial" font-size="14.00" fill="#000000">complete_name </text>
<text text-anchor="start" x="550.9698" y="-653.9" font-family="Arial" font-size="14.00" fill="#666666">[varchar]</text>
<polygon fill="none" stroke="#000000" points="440.5,-612.5 440.5,-642.5 717.5,-642.5 717.5,-612.5 440.5,-612.5"/>
<text text-anchor="start" x="447.5" y="-623.9" font-family="Arial" font-size="14.00" fill="#000000">active </text>
<text text-anchor="start" x="487.953" y="-623.9" font-family="Arial" font-size="14.00" fill="#666666">[boolean]</text>
<polygon fill="none" stroke="#000000" points="440.5,-582.5 440.5,-612.5 717.5,-612.5 717.5,-582.5 440.5,-582.5"/>
<text text-anchor="start" x="447.5" y="-593.9" font-family="Arial" font-size="14.00" fill="#000000">usage </text>
<text text-anchor="start" x="489.521" y="-593.9" font-family="Arial" font-size="14.00" fill="#666666">[varchar]</text>
<polygon fill="none" stroke="#000000" points="440.5,-552.5 440.5,-582.5 717.5,-582.5 717.5,-552.5 440.5,-552.5"/>
<text text-anchor="start" x="447.5" y="-563.9" font-family="Arial" font-size="14.00" fill="#000000">location_id </text>
<text text-anchor="start" x="518.2966" y="-563.9" font-family="Arial" font-size="14.00" fill="#666666">[integer]</text>
<polygon fill="none" stroke="#000000" points="440.5,-522.5 440.5,-552.5 717.5,-552.5 717.5,-522.5 440.5,-522.5"/>
<text text-anchor="start" x="447.5" y="-533.9" font-family="Arial" font-size="14.00" fill="#000000">partner_id </text>
<text text-anchor="start" x="514.4046" y="-533.9" font-family="Arial" font-size="14.00" fill="#666666">[integer]</text>
<polygon fill="none" stroke="#000000" points="440.5,-492.5 440.5,-522.5 717.5,-522.5 717.5,-492.5 440.5,-492.5"/>
<text text-anchor="start" x="447.5" y="-503.9" font-family="Arial" font-size="14.00" fill="#000000">comment </text>
<text text-anchor="start" x="508.9502" y="-503.9" font-family="Arial" font-size="14.00" fill="#666666">[text]</text>
<polygon fill="none" stroke="#000000" points="440.5,-462.5 440.5,-492.5 717.5,-492.5 717.5,-462.5 440.5,-462.5"/>
<text text-anchor="start" x="447.5" y="-473.9" font-family="Arial" font-size="14.00" fill="#000000">posx </text>
<text text-anchor="start" x="480.9558" y="-473.9" font-family="Arial" font-size="14.00" fill="#666666">[integer]</text>
<polygon fill="none" stroke="#000000" points="440.5,-432.5 440.5,-462.5 717.5,-462.5 717.5,-432.5 440.5,-432.5"/>
<text text-anchor="start" x="447.5" y="-443.9" font-family="Arial" font-size="14.00" fill="#000000">posy </text>
<text text-anchor="start" x="480.9558" y="-443.9" font-family="Arial" font-size="14.00" fill="#666666">[integer]</text>
<polygon fill="none" stroke="#000000" points="440.5,-402.5 440.5,-432.5 717.5,-432.5 717.5,-402.5 440.5,-402.5"/>
<text text-anchor="start" x="447.5" y="-413.9" font-family="Arial" font-size="14.00" fill="#000000">posz </text>
<text text-anchor="start" x="480.9558" y="-413.9" font-family="Arial" font-size="14.00" fill="#666666">[integer]</text>
<polygon fill="none" stroke="#000000" points="440.5,-372.5 440.5,-402.5 717.5,-402.5 717.5,-372.5 440.5,-372.5"/>
<text text-anchor="start" x="447.5" y="-383.9" font-family="Arial" font-size="14.00" fill="#000000">company_id </text>
<text text-anchor="start" x="526.8534" y="-383.9" font-family="Arial" font-size="14.00" fill="#666666">[integer]</text>
<polygon fill="none" stroke="#000000" points="440.5,-342.5 440.5,-372.5 717.5,-372.5 717.5,-342.5 440.5,-342.5"/>
<text text-anchor="start" x="447.5" y="-353.9" font-family="Arial" font-size="14.00" fill="#000000">scrap_location </text>
<text text-anchor="start" x="541.6332" y="-353.9" font-family="Arial" font-size="14.00" fill="#666666">[boolean]</text>
<polygon fill="none" stroke="#000000" points="440.5,-312.5 440.5,-342.5 717.5,-342.5 717.5,-312.5 440.5,-312.5"/>
<text text-anchor="start" x="447.5" y="-323.9" font-family="Arial" font-size="14.00" fill="#000000">return_location </text>
<text text-anchor="start" x="543.967" y="-323.9" font-family="Arial" font-size="14.00" fill="#666666">[boolean]</text>
<polygon fill="none" stroke="#000000" points="440.5,-282.5 440.5,-312.5 717.5,-312.5 717.5,-282.5 440.5,-282.5"/>
<text text-anchor="start" x="447.5" y="-293.9" font-family="Arial" font-size="14.00" fill="#000000">removal_strategy_id </text>
<text text-anchor="start" x="577.4102" y="-293.9" font-family="Arial" font-size="14.00" fill="#666666">[integer]</text>
<polygon fill="none" stroke="#000000" points="440.5,-252.5 440.5,-282.5 717.5,-282.5 717.5,-252.5 440.5,-252.5"/>
<text text-anchor="start" x="447.5" y="-263.9" font-family="Arial" font-size="14.00" fill="#000000">putaway_strategy_id </text>
<text text-anchor="start" x="579.7622" y="-263.9" font-family="Arial" font-size="14.00" fill="#666666">[integer]</text>
<polygon fill="none" stroke="#000000" points="440.5,-222.5 440.5,-252.5 717.5,-252.5 717.5,-222.5 440.5,-222.5"/>
<text text-anchor="start" x="447.5" y="-233.9" font-family="Arial" font-size="14.00" fill="#000000">barcode </text>
<text text-anchor="start" x="501.9642" y="-233.9" font-family="Arial" font-size="14.00" fill="#666666">[varchar]</text>
<polygon fill="none" stroke="#000000" points="440.5,-192.5 440.5,-222.5 717.5,-222.5 717.5,-192.5 440.5,-192.5"/>
<text text-anchor="start" x="447.5" y="-203.9" font-family="Arial" font-size="14.00" fill="#000000">create_uid </text>
<text text-anchor="start" x="516.744" y="-203.9" font-family="Arial" font-size="14.00" fill="#666666">[integer]</text>
<polygon fill="none" stroke="#000000" points="440.5,-162.5 440.5,-192.5 717.5,-192.5 717.5,-162.5 440.5,-162.5"/>
<text text-anchor="start" x="447.5" y="-173.9" font-family="Arial" font-size="14.00" fill="#000000">create_date </text>
<text text-anchor="start" x="525.3106" y="-173.9" font-family="Arial" font-size="14.00" fill="#666666">[timestamp without time zone]</text>
<polygon fill="none" stroke="#000000" points="440.5,-132.5 440.5,-162.5 717.5,-162.5 717.5,-132.5 440.5,-132.5"/>
<text text-anchor="start" x="447.5" y="-143.9" font-family="Arial" font-size="14.00" fill="#000000">write_uid </text>
<text text-anchor="start" x="507.392" y="-143.9" font-family="Arial" font-size="14.00" fill="#666666">[integer]</text>
<polygon fill="none" stroke="#000000" points="440.5,-102.5 440.5,-132.5 717.5,-132.5 717.5,-102.5 440.5,-102.5"/>
<text text-anchor="start" x="447.5" y="-113.9" font-family="Arial" font-size="14.00" fill="#000000">write_date </text>
<text text-anchor="start" x="515.9586" y="-113.9" font-family="Arial" font-size="14.00" fill="#666666">[timestamp without time zone]</text>
<polygon fill="none" stroke="#000000" points="440.5,-72.5 440.5,-102.5 717.5,-102.5 717.5,-72.5 440.5,-72.5"/>
<text text-anchor="start" x="447.5" y="-83.9" font-family="Arial" font-size="14.00" fill="#000000">valuation_in_account_id </text>
<text text-anchor="start" x="601.5546" y="-83.9" font-family="Arial" font-size="14.00" fill="#666666">[integer]</text>
<polygon fill="none" stroke="#000000" points="440.5,-42.5 440.5,-72.5 717.5,-72.5 717.5,-42.5 440.5,-42.5"/>
<text text-anchor="start" x="447.5" y="-53.9" font-family="Arial" font-size="14.00" fill="#000000">valuation_out_account_id </text>
<text text-anchor="start" x="610.1212" y="-53.9" font-family="Arial" font-size="14.00" fill="#666666">[integer]</text>
</g>
<!-- public.stock_warn_insufficient_qty_scrap&#45;&gt;public.stock_location -->
<g id="edge2" class="edge">
<title>public.stock_warn_insufficient_qty_scrap:location_id&#45;&gt;public.stock_location:id</title>
<path fill="none" stroke="#000000" d="M739.5148,-1086.9485C610.2178,-1071.7493 865.7216,-747.5 717.5,-747.5"/>
<polygon fill="#000000" stroke="#000000" points="739.5152,-1086.9484 749.2518,-1091.9932 744.5076,-1087.2242 749.5,-1087.5 749.5,-1087.5 749.5,-1087.5 744.5076,-1087.2242 749.7482,-1083.0068 739.5152,-1086.9484 739.5152,-1086.9484"/>
<text text-anchor="start" x="355.8745" y="-1097.5" font-family="Arial" font-size="10.00" fill="#000000">FOREIGN KEY (location_id) REFERENCES stock_location(id) ON DELETE SET NULL</text>
</g>
<!-- public.stock_scrap -->
<g id="node4" class="node">
<title>public.stock_scrap</title>
<polygon fill="#efefef" stroke="transparent" points="821.5,-717.5 821.5,-752.5 1115.5,-752.5 1115.5,-717.5 821.5,-717.5"/>
<polygon fill="none" stroke="#000000" points="821.5,-717.5 821.5,-752.5 1115.5,-752.5 1115.5,-717.5 821.5,-717.5"/>
<text text-anchor="start" x="845.8589" y="-730.3" font-family="Arial Bold" font-size="18.00" fill="#000000">public.stock_scrap</text>
<text text-anchor="start" x="993.8873" y="-730.3" font-family="Arial" font-size="14.00" fill="#000000"> </text>
<text text-anchor="start" x="997.7779" y="-730.3" font-family="Arial" font-size="14.00" fill="#666666">[BASE TABLE]</text>
<polygon fill="none" stroke="#000000" points="821.5,-687.5 821.5,-717.5 1115.5,-717.5 1115.5,-687.5 821.5,-687.5"/>
<text text-anchor="start" x="828.5" y="-698.9" font-family="Arial" font-size="14.00" fill="#000000">id </text>
<text text-anchor="start" x="843.2798" y="-698.9" font-family="Arial" font-size="14.00" fill="#666666">[integer]</text>
<polygon fill="none" stroke="#000000" points="821.5,-657.5 821.5,-687.5 1115.5,-687.5 1115.5,-657.5 821.5,-657.5"/>
<text text-anchor="start" x="828.5" y="-668.9" font-family="Arial" font-size="14.00" fill="#000000">name </text>
<text text-anchor="start" x="867.399" y="-668.9" font-family="Arial" font-size="14.00" fill="#666666">[varchar]</text>
<polygon fill="none" stroke="#000000" points="821.5,-627.5 821.5,-657.5 1115.5,-657.5 1115.5,-627.5 821.5,-627.5"/>
<text text-anchor="start" x="828.5" y="-638.9" font-family="Arial" font-size="14.00" fill="#000000">origin </text>
<text text-anchor="start" x="866.6122" y="-638.9" font-family="Arial" font-size="14.00" fill="#666666">[varchar]</text>
<polygon fill="none" stroke="#000000" points="821.5,-597.5 821.5,-627.5 1115.5,-627.5 1115.5,-597.5 821.5,-597.5"/>
<text text-anchor="start" x="828.5" y="-608.9" font-family="Arial" font-size="14.00" fill="#000000">product_id </text>
<text text-anchor="start" x="897.744" y="-608.9" font-family="Arial" font-size="14.00" fill="#666666">[integer]</text>
<polygon fill="none" stroke="#000000" points="821.5,-567.5 821.5,-597.5 1115.5,-597.5 1115.5,-567.5 821.5,-567.5"/>
<text text-anchor="start" x="828.5" y="-578.9" font-family="Arial" font-size="14.00" fill="#000000">product_uom_id </text>
<text text-anchor="start" x="932.7524" y="-578.9" font-family="Arial" font-size="14.00" fill="#666666">[integer]</text>
<polygon fill="none" stroke="#000000" points="821.5,-537.5 821.5,-567.5 1115.5,-567.5 1115.5,-537.5 821.5,-537.5"/>
<text text-anchor="start" x="828.5" y="-548.9" font-family="Arial" font-size="14.00" fill="#000000">lot_id </text>
<text text-anchor="start" x="865.8422" y="-548.9" font-family="Arial" font-size="14.00" fill="#666666">[integer]</text>
<polygon fill="none" stroke="#000000" points="821.5,-507.5 821.5,-537.5 1115.5,-537.5 1115.5,-507.5 821.5,-507.5"/>
<text text-anchor="start" x="828.5" y="-518.9" font-family="Arial" font-size="14.00" fill="#000000">package_id </text>
<text text-anchor="start" x="903.9754" y="-518.9" font-family="Arial" font-size="14.00" fill="#666666">[integer]</text>
<polygon fill="none" stroke="#000000" points="821.5,-477.5 821.5,-507.5 1115.5,-507.5 1115.5,-477.5 821.5,-477.5"/>
<text text-anchor="start" x="828.5" y="-488.9" font-family="Arial" font-size="14.00" fill="#000000">owner_id </text>
<text text-anchor="start" x="889.1774" y="-488.9" font-family="Arial" font-size="14.00" fill="#666666">[integer]</text>
<polygon fill="none" stroke="#000000" points="821.5,-447.5 821.5,-477.5 1115.5,-477.5 1115.5,-447.5 821.5,-447.5"/>
<text text-anchor="start" x="828.5" y="-458.9" font-family="Arial" font-size="14.00" fill="#000000">move_id </text>
<text text-anchor="start" x="885.2882" y="-458.9" font-family="Arial" font-size="14.00" fill="#666666">[integer]</text>
<polygon fill="none" stroke="#000000" points="821.5,-417.5 821.5,-447.5 1115.5,-447.5 1115.5,-417.5 821.5,-417.5"/>
<text text-anchor="start" x="828.5" y="-428.9" font-family="Arial" font-size="14.00" fill="#000000">picking_id </text>
<text text-anchor="start" x="894.6234" y="-428.9" font-family="Arial" font-size="14.00" fill="#666666">[integer]</text>
<polygon fill="none" stroke="#000000" points="821.5,-387.5 821.5,-417.5 1115.5,-417.5 1115.5,-387.5 821.5,-387.5"/>
<text text-anchor="start" x="828.5" y="-398.9" font-family="Arial" font-size="14.00" fill="#000000">location_id </text>
<text text-anchor="start" x="899.2966" y="-398.9" font-family="Arial" font-size="14.00" fill="#666666">[integer]</text>
<polygon fill="none" stroke="#000000" points="821.5,-357.5 821.5,-387.5 1115.5,-387.5 1115.5,-357.5 821.5,-357.5"/>
<text text-anchor="start" x="828.5" y="-368.9" font-family="Arial" font-size="14.00" fill="#000000">scrap_location_id </text>
<text text-anchor="start" x="941.305" y="-368.9" font-family="Arial" font-size="14.00" fill="#666666">[integer]</text>
<polygon fill="none" stroke="#000000" points="821.5,-327.5 821.5,-357.5 1115.5,-357.5 1115.5,-327.5 821.5,-327.5"/>
<text text-anchor="start" x="828.5" y="-338.9" font-family="Arial" font-size="14.00" fill="#000000">scrap_qty </text>
<text text-anchor="start" x="893.0722" y="-338.9" font-family="Arial" font-size="14.00" fill="#666666">[double precision]</text>
<polygon fill="none" stroke="#000000" points="821.5,-297.5 821.5,-327.5 1115.5,-327.5 1115.5,-297.5 821.5,-297.5"/>
<text text-anchor="start" x="828.5" y="-308.9" font-family="Arial" font-size="14.00" fill="#000000">state </text>
<text text-anchor="start" x="862.737" y="-308.9" font-family="Arial" font-size="14.00" fill="#666666">[varchar]</text>
<polygon fill="none" stroke="#000000" points="821.5,-267.5 821.5,-297.5 1115.5,-297.5 1115.5,-267.5 821.5,-267.5"/>
<text text-anchor="start" x="828.0723" y="-278.9" font-family="Arial" font-size="14.00" fill="#000000">date_expected </text>
<text text-anchor="start" x="923.7875" y="-278.9" font-family="Arial" font-size="14.00" fill="#666666">[timestamp without time zone]</text>
<polygon fill="none" stroke="#000000" points="821.5,-237.5 821.5,-267.5 1115.5,-267.5 1115.5,-237.5 821.5,-237.5"/>
<text text-anchor="start" x="828.5" y="-248.9" font-family="Arial" font-size="14.00" fill="#000000">create_uid </text>
<text text-anchor="start" x="897.744" y="-248.9" font-family="Arial" font-size="14.00" fill="#666666">[integer]</text>
<polygon fill="none" stroke="#000000" points="821.5,-207.5 821.5,-237.5 1115.5,-237.5 1115.5,-207.5 821.5,-207.5"/>
<text text-anchor="start" x="828.5" y="-218.9" font-family="Arial" font-size="14.00" fill="#000000">create_date </text>
<text text-anchor="start" x="906.3106" y="-218.9" font-family="Arial" font-size="14.00" fill="#666666">[timestamp without time zone]</text>
<polygon fill="none" stroke="#000000" points="821.5,-177.5 821.5,-207.5 1115.5,-207.5 1115.5,-177.5 821.5,-177.5"/>
<text text-anchor="start" x="828.5" y="-188.9" font-family="Arial" font-size="14.00" fill="#000000">write_uid </text>
<text text-anchor="start" x="888.392" y="-188.9" font-family="Arial" font-size="14.00" fill="#666666">[integer]</text>
<polygon fill="none" stroke="#000000" points="821.5,-147.5 821.5,-177.5 1115.5,-177.5 1115.5,-147.5 821.5,-147.5"/>
<text text-anchor="start" x="828.5" y="-158.9" font-family="Arial" font-size="14.00" fill="#000000">write_date </text>
<text text-anchor="start" x="896.9586" y="-158.9" font-family="Arial" font-size="14.00" fill="#666666">[timestamp without time zone]</text>
<polygon fill="none" stroke="#000000" points="821.5,-117.5 821.5,-147.5 1115.5,-147.5 1115.5,-117.5 821.5,-117.5"/>
<text text-anchor="start" x="828.5" y="-128.9" font-family="Arial" font-size="14.00" fill="#000000">production_id </text>
<text text-anchor="start" x="916.4158" y="-128.9" font-family="Arial" font-size="14.00" fill="#666666">[integer]</text>
<polygon fill="none" stroke="#000000" points="821.5,-87.5 821.5,-117.5 1115.5,-117.5 1115.5,-87.5 821.5,-87.5"/>
<text text-anchor="start" x="828.5" y="-98.9" font-family="Arial" font-size="14.00" fill="#000000">workorder_id </text>
<text text-anchor="start" x="913.2812" y="-98.9" font-family="Arial" font-size="14.00" fill="#666666">[integer]</text>
</g>
<!-- public.stock_warn_insufficient_qty_scrap&#45;&gt;public.stock_scrap -->
<g id="edge3" class="edge">
<title>public.stock_warn_insufficient_qty_scrap:scrap_id&#45;&gt;public.stock_scrap:id</title>
<path fill="none" stroke="#000000" d="M1196.652,-1056.8018C1263.9847,-1047.0164 1234.451,-936.7587 1186.5,-877 1082.5049,-747.3965 925.4951,-925.6035 821.5,-796 795.4928,-763.5887 779.9444,-702.5 821.5,-702.5"/>
<polygon fill="#000000" stroke="#000000" points="1196.4764,-1056.8137 1186.1912,-1053.0106 1191.4882,-1057.1569 1186.5,-1057.5 1186.5,-1057.5 1186.5,-1057.5 1191.4882,-1057.1569 1186.8088,-1061.9894 1196.4764,-1056.8137 1196.4764,-1056.8137"/>
<text text-anchor="start" x="1193.8805" y="-1067.5" font-family="Arial" font-size="10.00" fill="#000000">FOREIGN KEY (scrap_id) REFERENCES stock_scrap(id) ON DELETE SET NULL</text>
</g>
<!-- public.res_users -->
<g id="node5" class="node">
<title>public.res_users</title>
<polygon fill="#efefef" stroke="transparent" points="1219.5,-732.5 1219.5,-767.5 1495.5,-767.5 1495.5,-732.5 1219.5,-732.5"/>
<polygon fill="none" stroke="#000000" points="1219.5,-732.5 1219.5,-767.5 1495.5,-767.5 1495.5,-732.5 1219.5,-732.5"/>
<text text-anchor="start" x="1243.3639" y="-745.3" font-family="Arial Bold" font-size="18.00" fill="#000000">public.res_users</text>
<text text-anchor="start" x="1374.3823" y="-745.3" font-family="Arial" font-size="14.00" fill="#000000"> </text>
<text text-anchor="start" x="1378.2729" y="-745.3" font-family="Arial" font-size="14.00" fill="#666666">[BASE TABLE]</text>
<polygon fill="none" stroke="#000000" points="1219.5,-702.5 1219.5,-732.5 1495.5,-732.5 1495.5,-702.5 1219.5,-702.5"/>
<text text-anchor="start" x="1226.5" y="-713.9" font-family="Arial" font-size="14.00" fill="#000000">id </text>
<text text-anchor="start" x="1241.2798" y="-713.9" font-family="Arial" font-size="14.00" fill="#666666">[integer]</text>
<polygon fill="none" stroke="#000000" points="1219.5,-672.5 1219.5,-702.5 1495.5,-702.5 1495.5,-672.5 1219.5,-672.5"/>
<text text-anchor="start" x="1226.5" y="-683.9" font-family="Arial" font-size="14.00" fill="#000000">active </text>
<text text-anchor="start" x="1266.953" y="-683.9" font-family="Arial" font-size="14.00" fill="#666666">[boolean]</text>
<polygon fill="none" stroke="#000000" points="1219.5,-642.5 1219.5,-672.5 1495.5,-672.5 1495.5,-642.5 1219.5,-642.5"/>
<text text-anchor="start" x="1226.5" y="-653.9" font-family="Arial" font-size="14.00" fill="#000000">login </text>
<text text-anchor="start" x="1259.9516" y="-653.9" font-family="Arial" font-size="14.00" fill="#666666">[varchar]</text>
<polygon fill="none" stroke="#000000" points="1219.5,-612.5 1219.5,-642.5 1495.5,-642.5 1495.5,-612.5 1219.5,-612.5"/>
<text text-anchor="start" x="1226.5" y="-623.9" font-family="Arial" font-size="14.00" fill="#000000">password </text>
<text text-anchor="start" x="1290.2882" y="-623.9" font-family="Arial" font-size="14.00" fill="#666666">[varchar]</text>
<polygon fill="none" stroke="#000000" points="1219.5,-582.5 1219.5,-612.5 1495.5,-612.5 1495.5,-582.5 1219.5,-582.5"/>
<text text-anchor="start" x="1226.5" y="-593.9" font-family="Arial" font-size="14.00" fill="#000000">company_id </text>
<text text-anchor="start" x="1305.8534" y="-593.9" font-family="Arial" font-size="14.00" fill="#666666">[integer]</text>
<polygon fill="none" stroke="#000000" points="1219.5,-552.5 1219.5,-582.5 1495.5,-582.5 1495.5,-552.5 1219.5,-552.5"/>
<text text-anchor="start" x="1226.5" y="-563.9" font-family="Arial" font-size="14.00" fill="#000000">partner_id </text>
<text text-anchor="start" x="1293.4046" y="-563.9" font-family="Arial" font-size="14.00" fill="#666666">[integer]</text>
<polygon fill="none" stroke="#000000" points="1219.5,-522.5 1219.5,-552.5 1495.5,-552.5 1495.5,-522.5 1219.5,-522.5"/>
<text text-anchor="start" x="1226.0246" y="-533.9" font-family="Arial" font-size="14.00" fill="#000000">create_date </text>
<text text-anchor="start" x="1303.8352" y="-533.9" font-family="Arial" font-size="14.00" fill="#666666">[timestamp without time zone]</text>
<polygon fill="none" stroke="#000000" points="1219.5,-492.5 1219.5,-522.5 1495.5,-522.5 1495.5,-492.5 1219.5,-492.5"/>
<text text-anchor="start" x="1226.5" y="-503.9" font-family="Arial" font-size="14.00" fill="#000000">signature </text>
<text text-anchor="start" x="1287.9614" y="-503.9" font-family="Arial" font-size="14.00" fill="#666666">[text]</text>
<polygon fill="none" stroke="#000000" points="1219.5,-462.5 1219.5,-492.5 1495.5,-492.5 1495.5,-462.5 1219.5,-462.5"/>
<text text-anchor="start" x="1226.5" y="-473.9" font-family="Arial" font-size="14.00" fill="#000000">action_id </text>
<text text-anchor="start" x="1286.4074" y="-473.9" font-family="Arial" font-size="14.00" fill="#666666">[integer]</text>
<polygon fill="none" stroke="#000000" points="1219.5,-432.5 1219.5,-462.5 1495.5,-462.5 1495.5,-432.5 1219.5,-432.5"/>
<text text-anchor="start" x="1226.5" y="-443.9" font-family="Arial" font-size="14.00" fill="#000000">share </text>
<text text-anchor="start" x="1265.399" y="-443.9" font-family="Arial" font-size="14.00" fill="#666666">[boolean]</text>
<polygon fill="none" stroke="#000000" points="1219.5,-402.5 1219.5,-432.5 1495.5,-432.5 1495.5,-402.5 1219.5,-402.5"/>
<text text-anchor="start" x="1226.5" y="-413.9" font-family="Arial" font-size="14.00" fill="#000000">create_uid </text>
<text text-anchor="start" x="1295.744" y="-413.9" font-family="Arial" font-size="14.00" fill="#666666">[integer]</text>
<polygon fill="none" stroke="#000000" points="1219.5,-372.5 1219.5,-402.5 1495.5,-402.5 1495.5,-372.5 1219.5,-372.5"/>
<text text-anchor="start" x="1226.5" y="-383.9" font-family="Arial" font-size="14.00" fill="#000000">write_uid </text>
<text text-anchor="start" x="1286.392" y="-383.9" font-family="Arial" font-size="14.00" fill="#666666">[integer]</text>
<polygon fill="none" stroke="#000000" points="1219.5,-342.5 1219.5,-372.5 1495.5,-372.5 1495.5,-342.5 1219.5,-342.5"/>
<text text-anchor="start" x="1226.5" y="-353.9" font-family="Arial" font-size="14.00" fill="#000000">write_date </text>
<text text-anchor="start" x="1294.9586" y="-353.9" font-family="Arial" font-size="14.00" fill="#666666">[timestamp without time zone]</text>
<polygon fill="none" stroke="#000000" points="1219.5,-312.5 1219.5,-342.5 1495.5,-342.5 1495.5,-312.5 1219.5,-312.5"/>
<text text-anchor="start" x="1226.5" y="-323.9" font-family="Arial" font-size="14.00" fill="#000000">alias_id </text>
<text text-anchor="start" x="1277.8408" y="-323.9" font-family="Arial" font-size="14.00" fill="#666666">[integer]</text>
<polygon fill="none" stroke="#000000" points="1219.5,-282.5 1219.5,-312.5 1495.5,-312.5 1495.5,-282.5 1219.5,-282.5"/>
<text text-anchor="start" x="1226.5" y="-293.9" font-family="Arial" font-size="14.00" fill="#000000">notification_type </text>
<text text-anchor="start" x="1331.5336" y="-293.9" font-family="Arial" font-size="14.00" fill="#666666">[varchar]</text>
<polygon fill="none" stroke="#000000" points="1219.5,-252.5 1219.5,-282.5 1495.5,-282.5 1495.5,-252.5 1219.5,-252.5"/>
<text text-anchor="start" x="1226.5" y="-263.9" font-family="Arial" font-size="14.00" fill="#000000">odoobot_state </text>
<text text-anchor="start" x="1319.1058" y="-263.9" font-family="Arial" font-size="14.00" fill="#666666">[varchar]</text>
<polygon fill="none" stroke="#000000" points="1219.5,-222.5 1219.5,-252.5 1495.5,-252.5 1495.5,-222.5 1219.5,-222.5"/>
<text text-anchor="start" x="1226.5" y="-233.9" font-family="Arial" font-size="14.00" fill="#000000">sale_team_id </text>
<text text-anchor="start" x="1313.6332" y="-233.9" font-family="Arial" font-size="14.00" fill="#666666">[integer]</text>
<polygon fill="none" stroke="#000000" points="1219.5,-192.5 1219.5,-222.5 1495.5,-222.5 1495.5,-192.5 1219.5,-192.5"/>
<text text-anchor="start" x="1226.5" y="-203.9" font-family="Arial" font-size="14.00" fill="#000000">target_sales_won </text>
<text text-anchor="start" x="1340.089" y="-203.9" font-family="Arial" font-size="14.00" fill="#666666">[integer]</text>
<polygon fill="none" stroke="#000000" points="1219.5,-162.5 1219.5,-192.5 1495.5,-192.5 1495.5,-162.5 1219.5,-162.5"/>
<text text-anchor="start" x="1226.5" y="-173.9" font-family="Arial" font-size="14.00" fill="#000000">target_sales_done </text>
<text text-anchor="start" x="1345.5476" y="-173.9" font-family="Arial" font-size="14.00" fill="#666666">[integer]</text>
<polygon fill="none" stroke="#000000" points="1219.5,-132.5 1219.5,-162.5 1495.5,-162.5 1495.5,-132.5 1219.5,-132.5"/>
<text text-anchor="start" x="1226.5" y="-143.9" font-family="Arial" font-size="14.00" fill="#000000">website_id </text>
<text text-anchor="start" x="1296.514" y="-143.9" font-family="Arial" font-size="14.00" fill="#666666">[integer]</text>
<polygon fill="none" stroke="#000000" points="1219.5,-102.5 1219.5,-132.5 1495.5,-132.5 1495.5,-102.5 1219.5,-102.5"/>
<text text-anchor="start" x="1226.5" y="-113.9" font-family="Arial" font-size="14.00" fill="#000000">target_sales_invoiced </text>
<text text-anchor="start" x="1365.7608" y="-113.9" font-family="Arial" font-size="14.00" fill="#666666">[integer]</text>
<polygon fill="none" stroke="#000000" points="1219.5,-72.5 1219.5,-102.5 1495.5,-102.5 1495.5,-72.5 1219.5,-72.5"/>
<text text-anchor="start" x="1226.5" y="-83.9" font-family="Arial" font-size="14.00" fill="#000000">pos_security_pin </text>
<text text-anchor="start" x="1335.4158" y="-83.9" font-family="Arial" font-size="14.00" fill="#666666">[varchar(32)]</text>
</g>
<!-- public.stock_warn_insufficient_qty_scrap&#45;&gt;public.res_users -->
<g id="edge4" class="edge">
<title>public.stock_warn_insufficient_qty_scrap:create_uid&#45;&gt;public.res_users:id</title>
<path fill="none" stroke="#000000" d="M1196.6759,-1026.8648C1312.4491,-1011.3679 1084.5971,-717.5 1219.5,-717.5"/>
<polygon fill="#000000" stroke="#000000" points="1196.4806,-1026.8769 1186.2196,-1023.0087 1191.4903,-1027.1885 1186.5,-1027.5 1186.5,-1027.5 1186.5,-1027.5 1191.4903,-1027.1885 1186.7804,-1031.9913 1196.4806,-1026.8769 1196.4806,-1026.8769"/>
<text text-anchor="start" x="1193.157" y="-1037.5" font-family="Arial" font-size="10.00" fill="#000000">FOREIGN KEY (create_uid) REFERENCES res_users(id) ON DELETE SET NULL</text>
</g>
<!-- public.stock_warn_insufficient_qty_scrap&#45;&gt;public.res_users -->
<g id="edge5" class="edge">
<title>public.stock_warn_insufficient_qty_scrap:write_uid&#45;&gt;public.res_users:id</title>
<path fill="none" stroke="#000000" d="M1196.683,-966.6915C1286.2157,-951.174 1111.1463,-717.5 1219.5,-717.5"/>
<polygon fill="#000000" stroke="#000000" points="1196.4686,-966.7084 1186.1438,-963.0141 1191.4843,-967.1042 1186.5,-967.5 1186.5,-967.5 1186.5,-967.5 1191.4843,-967.1042 1186.8562,-971.9859 1196.4686,-966.7084 1196.4686,-966.7084"/>
<text text-anchor="start" x="1193.497" y="-977.5" font-family="Arial" font-size="10.00" fill="#000000">FOREIGN KEY (write_uid) REFERENCES res_users(id) ON DELETE SET NULL</text>
</g>
</g>
</svg>
