<?xml version="1.0" encoding="UTF-8" standalone="no"?>
<!DOCTYPE svg PUBLIC "-//W3C//DTD SVG 1.1//EN"
 "http://www.w3.org/Graphics/SVG/1.1/DTD/svg11.dtd">
<!-- Generated by graphviz version 2.40.1 (20161225.0304)
 -->
<!-- Title: public.account_journal_outbound_payment_method_rel Pages: 1 -->
<svg width="1498pt" height="1282pt"
 viewBox="0.00 0.00 1498.00 1282.00" xmlns="http://www.w3.org/2000/svg" xmlns:xlink="http://www.w3.org/1999/xlink">
<g id="graph0" class="graph" transform="scale(1 1) rotate(0) translate(4 1278)">
<title>public.account_journal_outbound_payment_method_rel</title>
<polygon fill="#ffffff" stroke="transparent" points="-4,4 -4,-1278 1494,-1278 1494,4 -4,4"/>
<!-- public.account_journal_outbound_payment_method_rel -->
<g id="node1" class="node">
<title>public.account_journal_outbound_payment_method_rel</title>
<polygon fill="#efefef" stroke="transparent" points="404,-1192.5 404,-1227.5 958,-1227.5 958,-1192.5 404,-1192.5"/>
<polygon fill="none" stroke="#000000" points="404,-1192.5 404,-1227.5 958,-1227.5 958,-1192.5 404,-1192.5"/>
<text text-anchor="start" x="410.7985" y="-1205.3" font-family="Arial Bold" font-size="18.00" fill="#000000">public.account_journal_outbound_payment_method_rel</text>
<text text-anchor="start" x="853.9477" y="-1205.3" font-family="Arial" font-size="14.00" fill="#000000"> </text>
<text text-anchor="start" x="857.8383" y="-1205.3" font-family="Arial" font-size="14.00" fill="#666666">[BASE TABLE]</text>
<polygon fill="none" stroke="#000000" points="404,-1162.5 404,-1192.5 958,-1192.5 958,-1162.5 404,-1162.5"/>
<text text-anchor="start" x="411" y="-1173.9" font-family="Arial" font-size="14.00" fill="#000000">journal_id </text>
<text text-anchor="start" x="475.5666" y="-1173.9" font-family="Arial" font-size="14.00" fill="#666666">[integer]</text>
<polygon fill="none" stroke="#000000" points="404,-1132.5 404,-1162.5 958,-1162.5 958,-1132.5 404,-1132.5"/>
<text text-anchor="start" x="411" y="-1143.9" font-family="Arial" font-size="14.00" fill="#000000">outbound_payment_method </text>
<text text-anchor="start" x="589.1878" y="-1143.9" font-family="Arial" font-size="14.00" fill="#666666">[integer]</text>
<polygon fill="none" stroke="#000000" stroke-width="3" points="402.5,-1131.5 402.5,-1229.5 959.5,-1229.5 959.5,-1131.5 402.5,-1131.5"/>
</g>
<!-- public.account_journal -->
<g id="node2" class="node">
<title>public.account_journal</title>
<polygon fill="#efefef" stroke="transparent" points="317,-972.5 317,-1007.5 607,-1007.5 607,-972.5 317,-972.5"/>
<polygon fill="none" stroke="#000000" points="317,-972.5 317,-1007.5 607,-1007.5 607,-972.5 317,-972.5"/>
<text text-anchor="start" x="323.8492" y="-985.3" font-family="Arial Bold" font-size="18.00" fill="#000000">public.account_journal</text>
<text text-anchor="start" x="502.897" y="-985.3" font-family="Arial" font-size="14.00" fill="#000000"> </text>
<text text-anchor="start" x="506.7876" y="-985.3" font-family="Arial" font-size="14.00" fill="#666666">[BASE TABLE]</text>
<polygon fill="none" stroke="#000000" points="317,-942.5 317,-972.5 607,-972.5 607,-942.5 317,-942.5"/>
<text text-anchor="start" x="324" y="-953.9" font-family="Arial" font-size="14.00" fill="#000000">id </text>
<text text-anchor="start" x="338.7798" y="-953.9" font-family="Arial" font-size="14.00" fill="#666666">[integer]</text>
<polygon fill="none" stroke="#000000" points="317,-912.5 317,-942.5 607,-942.5 607,-912.5 317,-912.5"/>
<text text-anchor="start" x="324" y="-923.9" font-family="Arial" font-size="14.00" fill="#000000">name </text>
<text text-anchor="start" x="362.899" y="-923.9" font-family="Arial" font-size="14.00" fill="#666666">[varchar]</text>
<polygon fill="none" stroke="#000000" points="317,-882.5 317,-912.5 607,-912.5 607,-882.5 317,-882.5"/>
<text text-anchor="start" x="324" y="-893.9" font-family="Arial" font-size="14.00" fill="#000000">code </text>
<text text-anchor="start" x="358.2384" y="-893.9" font-family="Arial" font-size="14.00" fill="#666666">[varchar(5)]</text>
<polygon fill="none" stroke="#000000" points="317,-852.5 317,-882.5 607,-882.5 607,-852.5 317,-852.5"/>
<text text-anchor="start" x="324" y="-863.9" font-family="Arial" font-size="14.00" fill="#000000">active </text>
<text text-anchor="start" x="364.453" y="-863.9" font-family="Arial" font-size="14.00" fill="#666666">[boolean]</text>
<polygon fill="none" stroke="#000000" points="317,-822.5 317,-852.5 607,-852.5 607,-822.5 317,-822.5"/>
<text text-anchor="start" x="324" y="-833.9" font-family="Arial" font-size="14.00" fill="#000000">type </text>
<text text-anchor="start" x="354.3464" y="-833.9" font-family="Arial" font-size="14.00" fill="#666666">[varchar]</text>
<polygon fill="none" stroke="#000000" points="317,-792.5 317,-822.5 607,-822.5 607,-792.5 317,-792.5"/>
<text text-anchor="start" x="324" y="-803.9" font-family="Arial" font-size="14.00" fill="#000000">default_credit_account_id </text>
<text text-anchor="start" x="487.3898" y="-803.9" font-family="Arial" font-size="14.00" fill="#666666">[integer]</text>
<polygon fill="none" stroke="#000000" points="317,-762.5 317,-792.5 607,-792.5 607,-762.5 317,-762.5"/>
<text text-anchor="start" x="324" y="-773.9" font-family="Arial" font-size="14.00" fill="#000000">default_debit_account_id </text>
<text text-anchor="start" x="483.5118" y="-773.9" font-family="Arial" font-size="14.00" fill="#666666">[integer]</text>
<polygon fill="none" stroke="#000000" points="317,-732.5 317,-762.5 607,-762.5 607,-732.5 317,-732.5"/>
<text text-anchor="start" x="324" y="-743.9" font-family="Arial" font-size="14.00" fill="#000000">update_posted </text>
<text text-anchor="start" x="420.4978" y="-743.9" font-family="Arial" font-size="14.00" fill="#666666">[boolean]</text>
<polygon fill="none" stroke="#000000" points="317,-702.5 317,-732.5 607,-732.5 607,-702.5 317,-702.5"/>
<text text-anchor="start" x="324" y="-713.9" font-family="Arial" font-size="14.00" fill="#000000">group_invoice_lines </text>
<text text-anchor="start" x="451.5862" y="-713.9" font-family="Arial" font-size="14.00" fill="#666666">[boolean]</text>
<polygon fill="none" stroke="#000000" points="317,-672.5 317,-702.5 607,-702.5 607,-672.5 317,-672.5"/>
<text text-anchor="start" x="324" y="-683.9" font-family="Arial" font-size="14.00" fill="#000000">sequence_id </text>
<text text-anchor="start" x="407.258" y="-683.9" font-family="Arial" font-size="14.00" fill="#666666">[integer]</text>
<polygon fill="none" stroke="#000000" points="317,-642.5 317,-672.5 607,-672.5 607,-642.5 317,-642.5"/>
<text text-anchor="start" x="324" y="-653.9" font-family="Arial" font-size="14.00" fill="#000000">refund_sequence_id </text>
<text text-anchor="start" x="454.7222" y="-653.9" font-family="Arial" font-size="14.00" fill="#666666">[integer]</text>
<polygon fill="none" stroke="#000000" points="317,-612.5 317,-642.5 607,-642.5 607,-612.5 317,-612.5"/>
<text text-anchor="start" x="324" y="-623.9" font-family="Arial" font-size="14.00" fill="#000000">sequence </text>
<text text-anchor="start" x="388.5862" y="-623.9" font-family="Arial" font-size="14.00" fill="#666666">[integer]</text>
<polygon fill="none" stroke="#000000" points="317,-582.5 317,-612.5 607,-612.5 607,-582.5 317,-582.5"/>
<text text-anchor="start" x="324" y="-593.9" font-family="Arial" font-size="14.00" fill="#000000">currency_id </text>
<text text-anchor="start" x="400.2314" y="-593.9" font-family="Arial" font-size="14.00" fill="#666666">[integer]</text>
<polygon fill="none" stroke="#000000" points="317,-552.5 317,-582.5 607,-582.5 607,-552.5 317,-552.5"/>
<text text-anchor="start" x="324" y="-563.9" font-family="Arial" font-size="14.00" fill="#000000">company_id </text>
<text text-anchor="start" x="403.3534" y="-563.9" font-family="Arial" font-size="14.00" fill="#666666">[integer]</text>
<polygon fill="none" stroke="#000000" points="317,-522.5 317,-552.5 607,-552.5 607,-522.5 317,-522.5"/>
<text text-anchor="start" x="324" y="-533.9" font-family="Arial" font-size="14.00" fill="#000000">refund_sequence </text>
<text text-anchor="start" x="436.0504" y="-533.9" font-family="Arial" font-size="14.00" fill="#666666">[boolean]</text>
<polygon fill="none" stroke="#000000" points="317,-492.5 317,-522.5 607,-522.5 607,-492.5 317,-492.5"/>
<text text-anchor="start" x="324" y="-503.9" font-family="Arial" font-size="14.00" fill="#000000">at_least_one_inbound </text>
<text text-anchor="start" x="465.624" y="-503.9" font-family="Arial" font-size="14.00" fill="#666666">[boolean]</text>
<polygon fill="none" stroke="#000000" points="317,-462.5 317,-492.5 607,-492.5 607,-462.5 317,-462.5"/>
<text text-anchor="start" x="324" y="-473.9" font-family="Arial" font-size="14.00" fill="#000000">at_least_one_outbound </text>
<text text-anchor="start" x="474.1906" y="-473.9" font-family="Arial" font-size="14.00" fill="#666666">[boolean]</text>
<polygon fill="none" stroke="#000000" points="317,-432.5 317,-462.5 607,-462.5 607,-432.5 317,-432.5"/>
<text text-anchor="start" x="324" y="-443.9" font-family="Arial" font-size="14.00" fill="#000000">profit_account_id </text>
<text text-anchor="start" x="434.4796" y="-443.9" font-family="Arial" font-size="14.00" fill="#666666">[integer]</text>
<polygon fill="none" stroke="#000000" points="317,-402.5 317,-432.5 607,-432.5 607,-402.5 317,-402.5"/>
<text text-anchor="start" x="324" y="-413.9" font-family="Arial" font-size="14.00" fill="#000000">loss_account_id </text>
<text text-anchor="start" x="428.2552" y="-413.9" font-family="Arial" font-size="14.00" fill="#666666">[integer]</text>
<polygon fill="none" stroke="#000000" points="317,-372.5 317,-402.5 607,-402.5 607,-372.5 317,-372.5"/>
<text text-anchor="start" x="324" y="-383.9" font-family="Arial" font-size="14.00" fill="#000000">bank_account_id </text>
<text text-anchor="start" x="433.7138" y="-383.9" font-family="Arial" font-size="14.00" fill="#666666">[integer]</text>
<polygon fill="none" stroke="#000000" points="317,-342.5 317,-372.5 607,-372.5 607,-342.5 317,-342.5"/>
<text text-anchor="start" x="324" y="-353.9" font-family="Arial" font-size="14.00" fill="#000000">bank_statements_source </text>
<text text-anchor="start" x="484.2748" y="-353.9" font-family="Arial" font-size="14.00" fill="#666666">[varchar]</text>
<polygon fill="none" stroke="#000000" points="317,-312.5 317,-342.5 607,-342.5 607,-312.5 317,-312.5"/>
<text text-anchor="start" x="324" y="-323.9" font-family="Arial" font-size="14.00" fill="#000000">post_at_bank_rec </text>
<text text-anchor="start" x="439.1584" y="-323.9" font-family="Arial" font-size="14.00" fill="#666666">[boolean]</text>
<polygon fill="none" stroke="#000000" points="317,-282.5 317,-312.5 607,-312.5 607,-282.5 317,-282.5"/>
<text text-anchor="start" x="324" y="-293.9" font-family="Arial" font-size="14.00" fill="#000000">alias_id </text>
<text text-anchor="start" x="375.3408" y="-293.9" font-family="Arial" font-size="14.00" fill="#666666">[integer]</text>
<polygon fill="none" stroke="#000000" points="317,-252.5 317,-282.5 607,-282.5 607,-252.5 317,-252.5"/>
<text text-anchor="start" x="324" y="-263.9" font-family="Arial" font-size="14.00" fill="#000000">show_on_dashboard </text>
<text text-anchor="start" x="457.8316" y="-263.9" font-family="Arial" font-size="14.00" fill="#666666">[boolean]</text>
<polygon fill="none" stroke="#000000" points="317,-222.5 317,-252.5 607,-252.5 607,-222.5 317,-222.5"/>
<text text-anchor="start" x="324" y="-233.9" font-family="Arial" font-size="14.00" fill="#000000">color </text>
<text text-anchor="start" x="358.223" y="-233.9" font-family="Arial" font-size="14.00" fill="#666666">[integer]</text>
<polygon fill="none" stroke="#000000" points="317,-192.5 317,-222.5 607,-222.5 607,-192.5 317,-192.5"/>
<text text-anchor="start" x="324" y="-203.9" font-family="Arial" font-size="14.00" fill="#000000">create_uid </text>
<text text-anchor="start" x="393.244" y="-203.9" font-family="Arial" font-size="14.00" fill="#666666">[integer]</text>
<polygon fill="none" stroke="#000000" points="317,-162.5 317,-192.5 607,-192.5 607,-162.5 317,-162.5"/>
<text text-anchor="start" x="324" y="-173.9" font-family="Arial" font-size="14.00" fill="#000000">create_date </text>
<text text-anchor="start" x="401.8106" y="-173.9" font-family="Arial" font-size="14.00" fill="#666666">[timestamp without time zone]</text>
<polygon fill="none" stroke="#000000" points="317,-132.5 317,-162.5 607,-162.5 607,-132.5 317,-132.5"/>
<text text-anchor="start" x="324" y="-143.9" font-family="Arial" font-size="14.00" fill="#000000">write_uid </text>
<text text-anchor="start" x="383.892" y="-143.9" font-family="Arial" font-size="14.00" fill="#666666">[integer]</text>
<polygon fill="none" stroke="#000000" points="317,-102.5 317,-132.5 607,-132.5 607,-102.5 317,-102.5"/>
<text text-anchor="start" x="324" y="-113.9" font-family="Arial" font-size="14.00" fill="#000000">write_date </text>
<text text-anchor="start" x="392.4586" y="-113.9" font-family="Arial" font-size="14.00" fill="#666666">[timestamp without time zone]</text>
<polygon fill="none" stroke="#000000" points="317,-72.5 317,-102.5 607,-102.5 607,-72.5 317,-72.5"/>
<text text-anchor="start" x="324" y="-83.9" font-family="Arial" font-size="14.00" fill="#000000">journal_user </text>
<text text-anchor="start" x="404.9032" y="-83.9" font-family="Arial" font-size="14.00" fill="#666666">[boolean]</text>
<polygon fill="none" stroke="#000000" points="317,-42.5 317,-72.5 607,-72.5 607,-42.5 317,-42.5"/>
<text text-anchor="start" x="324" y="-53.9" font-family="Arial" font-size="14.00" fill="#000000">amount_authorized_diff </text>
<text text-anchor="start" x="474.1612" y="-53.9" font-family="Arial" font-size="14.00" fill="#666666">[double precision]</text>
</g>
<!-- public.account_journal_outbound_payment_method_rel&#45;&gt;public.account_journal -->
<g id="edge1" class="edge">
<title>public.account_journal_outbound_payment_method_rel:journal_id&#45;&gt;public.account_journal:id</title>
<path fill="none" stroke="#000000" d="M394.0917,-1175.9995C366.5753,-1166.5645 380.5832,-1114.9349 404,-1087 462.8641,-1016.7785 548.1359,-1121.2215 607,-1051 633.6958,-1019.1535 648.5556,-957.5 607,-957.5"/>
<polygon fill="#000000" stroke="#000000" points="394.1127,-1176.0026 403.3262,-1181.9493 399.0564,-1176.7513 404,-1177.5 404,-1177.5 404,-1177.5 399.0564,-1176.7513 404.6738,-1173.0507 394.1127,-1176.0026 394.1127,-1176.0026"/>
<text text-anchor="start" x="6.7105" y="-1187.5" font-family="Arial" font-size="10.00" fill="#000000">FOREIGN KEY (journal_id) REFERENCES account_journal(id) ON DELETE CASCADE</text>
</g>
<!-- public.account_payment_method -->
<g id="node3" class="node">
<title>public.account_payment_method</title>
<polygon fill="#efefef" stroke="transparent" points="712,-627.5 712,-662.5 1087,-662.5 1087,-627.5 712,-627.5"/>
<polygon fill="none" stroke="#000000" points="712,-627.5 712,-662.5 1087,-662.5 1087,-627.5 712,-627.5"/>
<text text-anchor="start" x="718.8296" y="-640.3" font-family="Arial Bold" font-size="18.00" fill="#000000">public.account_payment_method</text>
<text text-anchor="start" x="982.9166" y="-640.3" font-family="Arial" font-size="14.00" fill="#000000"> </text>
<text text-anchor="start" x="986.8072" y="-640.3" font-family="Arial" font-size="14.00" fill="#666666">[BASE TABLE]</text>
<polygon fill="none" stroke="#000000" points="712,-597.5 712,-627.5 1087,-627.5 1087,-597.5 712,-597.5"/>
<text text-anchor="start" x="719" y="-608.9" font-family="Arial" font-size="14.00" fill="#000000">id </text>
<text text-anchor="start" x="733.7798" y="-608.9" font-family="Arial" font-size="14.00" fill="#666666">[integer]</text>
<polygon fill="none" stroke="#000000" points="712,-567.5 712,-597.5 1087,-597.5 1087,-567.5 712,-567.5"/>
<text text-anchor="start" x="719" y="-578.9" font-family="Arial" font-size="14.00" fill="#000000">name </text>
<text text-anchor="start" x="757.899" y="-578.9" font-family="Arial" font-size="14.00" fill="#666666">[varchar]</text>
<polygon fill="none" stroke="#000000" points="712,-537.5 712,-567.5 1087,-567.5 1087,-537.5 712,-537.5"/>
<text text-anchor="start" x="719" y="-548.9" font-family="Arial" font-size="14.00" fill="#000000">code </text>
<text text-anchor="start" x="753.2384" y="-548.9" font-family="Arial" font-size="14.00" fill="#666666">[varchar]</text>
<polygon fill="none" stroke="#000000" points="712,-507.5 712,-537.5 1087,-537.5 1087,-507.5 712,-507.5"/>
<text text-anchor="start" x="719" y="-518.9" font-family="Arial" font-size="14.00" fill="#000000">payment_type </text>
<text text-anchor="start" x="810.8106" y="-518.9" font-family="Arial" font-size="14.00" fill="#666666">[varchar]</text>
<polygon fill="none" stroke="#000000" points="712,-477.5 712,-507.5 1087,-507.5 1087,-477.5 712,-477.5"/>
<text text-anchor="start" x="719" y="-488.9" font-family="Arial" font-size="14.00" fill="#000000">create_uid </text>
<text text-anchor="start" x="788.244" y="-488.9" font-family="Arial" font-size="14.00" fill="#666666">[integer]</text>
<polygon fill="none" stroke="#000000" points="712,-447.5 712,-477.5 1087,-477.5 1087,-447.5 712,-447.5"/>
<text text-anchor="start" x="719" y="-458.9" font-family="Arial" font-size="14.00" fill="#000000">create_date </text>
<text text-anchor="start" x="796.8106" y="-458.9" font-family="Arial" font-size="14.00" fill="#666666">[timestamp without time zone]</text>
<polygon fill="none" stroke="#000000" points="712,-417.5 712,-447.5 1087,-447.5 1087,-417.5 712,-417.5"/>
<text text-anchor="start" x="719" y="-428.9" font-family="Arial" font-size="14.00" fill="#000000">write_uid </text>
<text text-anchor="start" x="778.892" y="-428.9" font-family="Arial" font-size="14.00" fill="#666666">[integer]</text>
<polygon fill="none" stroke="#000000" points="712,-387.5 712,-417.5 1087,-417.5 1087,-387.5 712,-387.5"/>
<text text-anchor="start" x="719" y="-398.9" font-family="Arial" font-size="14.00" fill="#000000">write_date </text>
<text text-anchor="start" x="787.4586" y="-398.9" font-family="Arial" font-size="14.00" fill="#666666">[timestamp without time zone]</text>
</g>
<!-- public.account_journal_outbound_payment_method_rel&#45;&gt;public.account_payment_method -->
<g id="edge2" class="edge">
<title>public.account_journal_outbound_payment_method_rel:outbound_payment_method&#45;&gt;public.account_payment_method:id</title>
<path fill="none" stroke="#000000" d="M967.7613,-1144.89C978.8751,-1136.3513 964.3555,-1108.5602 958,-1087 901.0076,-893.6624 768.9924,-899.3376 712,-706 700.2501,-666.1402 670.4444,-612.5 712,-612.5"/>
<polygon fill="#000000" stroke="#000000" points="967.6606,-1144.9168 956.8376,-1143.1527 962.8303,-1146.2084 958,-1147.5 958,-1147.5 958,-1147.5 962.8303,-1146.2084 959.1624,-1151.8473 967.6606,-1144.9168 967.6606,-1144.9168"/>
<text text-anchor="start" x="964.5095" y="-1157.5" font-family="Arial" font-size="10.00" fill="#000000">FOREIGN KEY (outbound_payment_method) REFERENCES account_payment_method(id) ON DELETE CASCADE</text>
</g>
</g>
</svg>
