<?xml version="1.0" encoding="UTF-8" standalone="no"?>
<!DOCTYPE svg PUBLIC "-//W3C//DTD SVG 1.1//EN"
 "http://www.w3.org/Graphics/SVG/1.1/DTD/svg11.dtd">
<!-- Generated by graphviz version 2.40.1 (20161225.0304)
 -->
<!-- Title: public.ir_cron Pages: 1 -->
<svg width="1103pt" height="1612pt"
 viewBox="0.00 0.00 1103.00 1612.00" xmlns="http://www.w3.org/2000/svg" xmlns:xlink="http://www.w3.org/1999/xlink">
<g id="graph0" class="graph" transform="scale(1 1) rotate(0) translate(4 1608)">
<title>public.ir_cron</title>
<polygon fill="#ffffff" stroke="transparent" points="-4,4 -4,-1608 1099,-1608 1099,4 -4,4"/>
<!-- public.ir_cron -->
<g id="node1" class="node">
<title>public.ir_cron</title>
<polygon fill="#efefef" stroke="transparent" points="439,-1522.5 439,-1557.5 715,-1557.5 715,-1522.5 439,-1522.5"/>
<polygon fill="none" stroke="#000000" points="439,-1522.5 439,-1557.5 715,-1557.5 715,-1522.5 439,-1522.5"/>
<text text-anchor="start" x="474.8699" y="-1535.3" font-family="Arial Bold" font-size="18.00" fill="#000000">public.ir_cron</text>
<text text-anchor="start" x="581.8763" y="-1535.3" font-family="Arial" font-size="14.00" fill="#000000"> </text>
<text text-anchor="start" x="585.7669" y="-1535.3" font-family="Arial" font-size="14.00" fill="#666666">[BASE TABLE]</text>
<polygon fill="none" stroke="#000000" points="439,-1492.5 439,-1522.5 715,-1522.5 715,-1492.5 439,-1492.5"/>
<text text-anchor="start" x="446" y="-1503.9" font-family="Arial" font-size="14.00" fill="#000000">id </text>
<text text-anchor="start" x="460.7798" y="-1503.9" font-family="Arial" font-size="14.00" fill="#666666">[integer]</text>
<polygon fill="none" stroke="#000000" points="439,-1462.5 439,-1492.5 715,-1492.5 715,-1462.5 439,-1462.5"/>
<text text-anchor="start" x="446" y="-1473.9" font-family="Arial" font-size="14.00" fill="#000000">ir_actions_server_id </text>
<text text-anchor="start" x="575.1262" y="-1473.9" font-family="Arial" font-size="14.00" fill="#666666">[integer]</text>
<polygon fill="none" stroke="#000000" points="439,-1432.5 439,-1462.5 715,-1462.5 715,-1432.5 439,-1432.5"/>
<text text-anchor="start" x="446" y="-1443.9" font-family="Arial" font-size="14.00" fill="#000000">cron_name </text>
<text text-anchor="start" x="519.9074" y="-1443.9" font-family="Arial" font-size="14.00" fill="#666666">[varchar]</text>
<polygon fill="none" stroke="#000000" points="439,-1402.5 439,-1432.5 715,-1432.5 715,-1402.5 439,-1402.5"/>
<text text-anchor="start" x="446" y="-1413.9" font-family="Arial" font-size="14.00" fill="#000000">user_id </text>
<text text-anchor="start" x="495.7882" y="-1413.9" font-family="Arial" font-size="14.00" fill="#666666">[integer]</text>
<polygon fill="none" stroke="#000000" points="439,-1372.5 439,-1402.5 715,-1402.5 715,-1372.5 439,-1372.5"/>
<text text-anchor="start" x="446" y="-1383.9" font-family="Arial" font-size="14.00" fill="#000000">active </text>
<text text-anchor="start" x="486.453" y="-1383.9" font-family="Arial" font-size="14.00" fill="#666666">[boolean]</text>
<polygon fill="none" stroke="#000000" points="439,-1342.5 439,-1372.5 715,-1372.5 715,-1342.5 439,-1342.5"/>
<text text-anchor="start" x="446" y="-1353.9" font-family="Arial" font-size="14.00" fill="#000000">interval_number </text>
<text text-anchor="start" x="550.237" y="-1353.9" font-family="Arial" font-size="14.00" fill="#666666">[integer]</text>
<polygon fill="none" stroke="#000000" points="439,-1312.5 439,-1342.5 715,-1342.5 715,-1312.5 439,-1312.5"/>
<text text-anchor="start" x="446" y="-1323.9" font-family="Arial" font-size="14.00" fill="#000000">interval_type </text>
<text text-anchor="start" x="529.2412" y="-1323.9" font-family="Arial" font-size="14.00" fill="#666666">[varchar]</text>
<polygon fill="none" stroke="#000000" points="439,-1282.5 439,-1312.5 715,-1312.5 715,-1282.5 439,-1282.5"/>
<text text-anchor="start" x="446" y="-1293.9" font-family="Arial" font-size="14.00" fill="#000000">numbercall </text>
<text text-anchor="start" x="518.338" y="-1293.9" font-family="Arial" font-size="14.00" fill="#666666">[integer]</text>
<polygon fill="none" stroke="#000000" points="439,-1252.5 439,-1282.5 715,-1282.5 715,-1252.5 439,-1252.5"/>
<text text-anchor="start" x="446" y="-1263.9" font-family="Arial" font-size="14.00" fill="#000000">doall </text>
<text text-anchor="start" x="479.4516" y="-1263.9" font-family="Arial" font-size="14.00" fill="#666666">[boolean]</text>
<polygon fill="none" stroke="#000000" points="439,-1222.5 439,-1252.5 715,-1252.5 715,-1222.5 439,-1222.5"/>
<text text-anchor="start" x="446" y="-1233.9" font-family="Arial" font-size="14.00" fill="#000000">nextcall </text>
<text text-anchor="start" x="497.3422" y="-1233.9" font-family="Arial" font-size="14.00" fill="#666666">[timestamp without time zone]</text>
<polygon fill="none" stroke="#000000" points="439,-1192.5 439,-1222.5 715,-1222.5 715,-1192.5 439,-1192.5"/>
<text text-anchor="start" x="446" y="-1203.9" font-family="Arial" font-size="14.00" fill="#000000">priority </text>
<text text-anchor="start" x="491.8808" y="-1203.9" font-family="Arial" font-size="14.00" fill="#666666">[integer]</text>
<polygon fill="none" stroke="#000000" points="439,-1162.5 439,-1192.5 715,-1192.5 715,-1162.5 439,-1162.5"/>
<text text-anchor="start" x="446" y="-1173.9" font-family="Arial" font-size="14.00" fill="#000000">create_uid </text>
<text text-anchor="start" x="515.244" y="-1173.9" font-family="Arial" font-size="14.00" fill="#666666">[integer]</text>
<polygon fill="none" stroke="#000000" points="439,-1132.5 439,-1162.5 715,-1162.5 715,-1132.5 439,-1132.5"/>
<text text-anchor="start" x="445.5246" y="-1143.9" font-family="Arial" font-size="14.00" fill="#000000">create_date </text>
<text text-anchor="start" x="523.3352" y="-1143.9" font-family="Arial" font-size="14.00" fill="#666666">[timestamp without time zone]</text>
<polygon fill="none" stroke="#000000" points="439,-1102.5 439,-1132.5 715,-1132.5 715,-1102.5 439,-1102.5"/>
<text text-anchor="start" x="446" y="-1113.9" font-family="Arial" font-size="14.00" fill="#000000">write_uid </text>
<text text-anchor="start" x="505.892" y="-1113.9" font-family="Arial" font-size="14.00" fill="#666666">[integer]</text>
<polygon fill="none" stroke="#000000" points="439,-1072.5 439,-1102.5 715,-1102.5 715,-1072.5 439,-1072.5"/>
<text text-anchor="start" x="446" y="-1083.9" font-family="Arial" font-size="14.00" fill="#000000">write_date </text>
<text text-anchor="start" x="514.4586" y="-1083.9" font-family="Arial" font-size="14.00" fill="#666666">[timestamp without time zone]</text>
<polygon fill="none" stroke="#000000" stroke-width="3" points="437.5,-1071.5 437.5,-1559.5 716.5,-1559.5 716.5,-1071.5 437.5,-1071.5"/>
</g>
<!-- public.ir_act_server -->
<g id="node2" class="node">
<title>public.ir_act_server</title>
<polygon fill="#efefef" stroke="transparent" points="47,-912.5 47,-947.5 335,-947.5 335,-912.5 47,-912.5"/>
<polygon fill="none" stroke="#000000" points="47,-912.5 47,-947.5 335,-947.5 335,-912.5 47,-912.5"/>
<text text-anchor="start" x="64.3665" y="-925.3" font-family="Arial Bold" font-size="18.00" fill="#000000">public.ir_act_server</text>
<text text-anchor="start" x="220.3797" y="-925.3" font-family="Arial" font-size="14.00" fill="#000000"> </text>
<text text-anchor="start" x="224.2703" y="-925.3" font-family="Arial" font-size="14.00" fill="#666666">[BASE TABLE]</text>
<polygon fill="none" stroke="#000000" points="47,-882.5 47,-912.5 335,-912.5 335,-882.5 47,-882.5"/>
<text text-anchor="start" x="54" y="-893.9" font-family="Arial" font-size="14.00" fill="#000000">id </text>
<text text-anchor="start" x="68.7798" y="-893.9" font-family="Arial" font-size="14.00" fill="#666666">[integer]</text>
<polygon fill="none" stroke="#000000" points="47,-852.5 47,-882.5 335,-882.5 335,-852.5 47,-852.5"/>
<text text-anchor="start" x="54" y="-863.9" font-family="Arial" font-size="14.00" fill="#000000">name </text>
<text text-anchor="start" x="92.899" y="-863.9" font-family="Arial" font-size="14.00" fill="#666666">[varchar]</text>
<polygon fill="none" stroke="#000000" points="47,-822.5 47,-852.5 335,-852.5 335,-822.5 47,-822.5"/>
<text text-anchor="start" x="54" y="-833.9" font-family="Arial" font-size="14.00" fill="#000000">type </text>
<text text-anchor="start" x="84.3464" y="-833.9" font-family="Arial" font-size="14.00" fill="#666666">[varchar]</text>
<polygon fill="none" stroke="#000000" points="47,-792.5 47,-822.5 335,-822.5 335,-792.5 47,-792.5"/>
<text text-anchor="start" x="54" y="-803.9" font-family="Arial" font-size="14.00" fill="#000000">help </text>
<text text-anchor="start" x="84.345" y="-803.9" font-family="Arial" font-size="14.00" fill="#666666">[text]</text>
<polygon fill="none" stroke="#000000" points="47,-762.5 47,-792.5 335,-792.5 335,-762.5 47,-762.5"/>
<text text-anchor="start" x="54" y="-773.9" font-family="Arial" font-size="14.00" fill="#000000">binding_model_id </text>
<text text-anchor="start" x="167.5862" y="-773.9" font-family="Arial" font-size="14.00" fill="#666666">[integer]</text>
<polygon fill="none" stroke="#000000" points="47,-732.5 47,-762.5 335,-762.5 335,-732.5 47,-732.5"/>
<text text-anchor="start" x="54" y="-743.9" font-family="Arial" font-size="14.00" fill="#000000">binding_type </text>
<text text-anchor="start" x="137.2552" y="-743.9" font-family="Arial" font-size="14.00" fill="#666666">[varchar]</text>
<polygon fill="none" stroke="#000000" points="47,-702.5 47,-732.5 335,-732.5 335,-702.5 47,-702.5"/>
<text text-anchor="start" x="54" y="-713.9" font-family="Arial" font-size="14.00" fill="#000000">create_uid </text>
<text text-anchor="start" x="123.244" y="-713.9" font-family="Arial" font-size="14.00" fill="#666666">[integer]</text>
<polygon fill="none" stroke="#000000" points="47,-672.5 47,-702.5 335,-702.5 335,-672.5 47,-672.5"/>
<text text-anchor="start" x="54" y="-683.9" font-family="Arial" font-size="14.00" fill="#000000">create_date </text>
<text text-anchor="start" x="131.8106" y="-683.9" font-family="Arial" font-size="14.00" fill="#666666">[timestamp without time zone]</text>
<polygon fill="none" stroke="#000000" points="47,-642.5 47,-672.5 335,-672.5 335,-642.5 47,-642.5"/>
<text text-anchor="start" x="54" y="-653.9" font-family="Arial" font-size="14.00" fill="#000000">write_uid </text>
<text text-anchor="start" x="113.892" y="-653.9" font-family="Arial" font-size="14.00" fill="#666666">[integer]</text>
<polygon fill="none" stroke="#000000" points="47,-612.5 47,-642.5 335,-642.5 335,-612.5 47,-612.5"/>
<text text-anchor="start" x="54" y="-623.9" font-family="Arial" font-size="14.00" fill="#000000">write_date </text>
<text text-anchor="start" x="122.4586" y="-623.9" font-family="Arial" font-size="14.00" fill="#666666">[timestamp without time zone]</text>
<polygon fill="none" stroke="#000000" points="47,-582.5 47,-612.5 335,-612.5 335,-582.5 47,-582.5"/>
<text text-anchor="start" x="54" y="-593.9" font-family="Arial" font-size="14.00" fill="#000000">usage </text>
<text text-anchor="start" x="96.021" y="-593.9" font-family="Arial" font-size="14.00" fill="#666666">[varchar]</text>
<polygon fill="none" stroke="#000000" points="47,-552.5 47,-582.5 335,-582.5 335,-552.5 47,-552.5"/>
<text text-anchor="start" x="54" y="-563.9" font-family="Arial" font-size="14.00" fill="#000000">state </text>
<text text-anchor="start" x="88.237" y="-563.9" font-family="Arial" font-size="14.00" fill="#666666">[varchar]</text>
<polygon fill="none" stroke="#000000" points="47,-522.5 47,-552.5 335,-552.5 335,-522.5 47,-522.5"/>
<text text-anchor="start" x="54" y="-533.9" font-family="Arial" font-size="14.00" fill="#000000">sequence </text>
<text text-anchor="start" x="118.5862" y="-533.9" font-family="Arial" font-size="14.00" fill="#666666">[integer]</text>
<polygon fill="none" stroke="#000000" points="47,-492.5 47,-522.5 335,-522.5 335,-492.5 47,-492.5"/>
<text text-anchor="start" x="54" y="-503.9" font-family="Arial" font-size="14.00" fill="#000000">model_id </text>
<text text-anchor="start" x="114.6774" y="-503.9" font-family="Arial" font-size="14.00" fill="#666666">[integer]</text>
<polygon fill="none" stroke="#000000" points="47,-462.5 47,-492.5 335,-492.5 335,-462.5 47,-462.5"/>
<text text-anchor="start" x="54" y="-473.9" font-family="Arial" font-size="14.00" fill="#000000">model_name </text>
<text text-anchor="start" x="138.7966" y="-473.9" font-family="Arial" font-size="14.00" fill="#666666">[varchar]</text>
<polygon fill="none" stroke="#000000" points="47,-432.5 47,-462.5 335,-462.5 335,-432.5 47,-432.5"/>
<text text-anchor="start" x="54" y="-443.9" font-family="Arial" font-size="14.00" fill="#000000">code </text>
<text text-anchor="start" x="88.2384" y="-443.9" font-family="Arial" font-size="14.00" fill="#666666">[text]</text>
<polygon fill="none" stroke="#000000" points="47,-402.5 47,-432.5 335,-432.5 335,-402.5 47,-402.5"/>
<text text-anchor="start" x="54" y="-413.9" font-family="Arial" font-size="14.00" fill="#000000">crud_model_id </text>
<text text-anchor="start" x="149.6858" y="-413.9" font-family="Arial" font-size="14.00" fill="#666666">[integer]</text>
<polygon fill="none" stroke="#000000" points="47,-372.5 47,-402.5 335,-402.5 335,-372.5 47,-372.5"/>
<text text-anchor="start" x="54" y="-383.9" font-family="Arial" font-size="14.00" fill="#000000">link_field_id </text>
<text text-anchor="start" x="131.0098" y="-383.9" font-family="Arial" font-size="14.00" fill="#666666">[integer]</text>
<polygon fill="none" stroke="#000000" points="47,-342.5 47,-372.5 335,-372.5 335,-342.5 47,-342.5"/>
<text text-anchor="start" x="54" y="-353.9" font-family="Arial" font-size="14.00" fill="#000000">template_id </text>
<text text-anchor="start" x="130.2412" y="-353.9" font-family="Arial" font-size="14.00" fill="#666666">[integer]</text>
<polygon fill="none" stroke="#000000" points="47,-312.5 47,-342.5 335,-342.5 335,-312.5 47,-312.5"/>
<text text-anchor="start" x="54" y="-323.9" font-family="Arial" font-size="14.00" fill="#000000">activity_type_id </text>
<text text-anchor="start" x="153.5778" y="-323.9" font-family="Arial" font-size="14.00" fill="#666666">[integer]</text>
<polygon fill="none" stroke="#000000" points="47,-282.5 47,-312.5 335,-312.5 335,-282.5 47,-282.5"/>
<text text-anchor="start" x="54" y="-293.9" font-family="Arial" font-size="14.00" fill="#000000">activity_summary </text>
<text text-anchor="start" x="165.9972" y="-293.9" font-family="Arial" font-size="14.00" fill="#666666">[varchar]</text>
<polygon fill="none" stroke="#000000" points="47,-252.5 47,-282.5 335,-282.5 335,-252.5 47,-252.5"/>
<text text-anchor="start" x="54" y="-263.9" font-family="Arial" font-size="14.00" fill="#000000">activity_note </text>
<text text-anchor="start" x="135.6886" y="-263.9" font-family="Arial" font-size="14.00" fill="#666666">[text]</text>
<polygon fill="none" stroke="#000000" points="47,-222.5 47,-252.5 335,-252.5 335,-222.5 47,-222.5"/>
<text text-anchor="start" x="54" y="-233.9" font-family="Arial" font-size="14.00" fill="#000000">activity_date_deadline_range </text>
<text text-anchor="start" x="239.9536" y="-233.9" font-family="Arial" font-size="14.00" fill="#666666">[integer]</text>
<polygon fill="none" stroke="#000000" points="47,-192.5 47,-222.5 335,-222.5 335,-192.5 47,-192.5"/>
<text text-anchor="start" x="53.6789" y="-203.9" font-family="Arial" font-size="14.00" fill="#000000">activity_date_deadline_range_type </text>
<text text-anchor="start" x="273.8709" y="-203.9" font-family="Arial" font-size="14.00" fill="#666666">[varchar]</text>
<polygon fill="none" stroke="#000000" points="47,-162.5 47,-192.5 335,-192.5 335,-162.5 47,-162.5"/>
<text text-anchor="start" x="54" y="-173.9" font-family="Arial" font-size="14.00" fill="#000000">activity_user_type </text>
<text text-anchor="start" x="169.9144" y="-173.9" font-family="Arial" font-size="14.00" fill="#666666">[varchar]</text>
<polygon fill="none" stroke="#000000" points="47,-132.5 47,-162.5 335,-162.5 335,-132.5 47,-132.5"/>
<text text-anchor="start" x="54" y="-143.9" font-family="Arial" font-size="14.00" fill="#000000">activity_user_id </text>
<text text-anchor="start" x="154.3478" y="-143.9" font-family="Arial" font-size="14.00" fill="#666666">[integer]</text>
<polygon fill="none" stroke="#000000" points="47,-102.5 47,-132.5 335,-132.5 335,-102.5 47,-102.5"/>
<text text-anchor="start" x="54" y="-113.9" font-family="Arial" font-size="14.00" fill="#000000">activity_user_field_name </text>
<text text-anchor="start" x="211.9186" y="-113.9" font-family="Arial" font-size="14.00" fill="#666666">[varchar]</text>
<polygon fill="none" stroke="#000000" points="47,-72.5 47,-102.5 335,-102.5 335,-72.5 47,-72.5"/>
<text text-anchor="start" x="54" y="-83.9" font-family="Arial" font-size="14.00" fill="#000000">website_path </text>
<text text-anchor="start" x="140.3632" y="-83.9" font-family="Arial" font-size="14.00" fill="#666666">[varchar]</text>
<polygon fill="none" stroke="#000000" points="47,-42.5 47,-72.5 335,-72.5 335,-42.5 47,-42.5"/>
<text text-anchor="start" x="54" y="-53.9" font-family="Arial" font-size="14.00" fill="#000000">website_published </text>
<text text-anchor="start" x="173.0336" y="-53.9" font-family="Arial" font-size="14.00" fill="#666666">[boolean]</text>
</g>
<!-- public.ir_cron&#45;&gt;public.ir_act_server -->
<g id="edge1" class="edge">
<title>public.ir_cron:ir_actions_server_id&#45;&gt;public.ir_act_server:id</title>
<path fill="none" stroke="#000000" d="M429.7165,-1473.1649C376.026,-1420.0894 397.1475,-897.5 335,-897.5"/>
<polygon fill="#000000" stroke="#000000" points="429.9392,-1473.2689 437.096,-1481.5774 434.4696,-1475.3844 439,-1477.5 439,-1477.5 439,-1477.5 434.4696,-1475.3844 440.904,-1473.4226 429.9392,-1473.2689 429.9392,-1473.2689"/>
<text text-anchor="start" x="7.2225" y="-1487.5" font-family="Arial" font-size="10.00" fill="#000000">FOREIGN KEY (ir_actions_server_id) REFERENCES ir_act_server(id) ON DELETE RESTRICT</text>
</g>
<!-- public.res_users -->
<g id="node3" class="node">
<title>public.res_users</title>
<polygon fill="#efefef" stroke="transparent" points="439,-807.5 439,-842.5 715,-842.5 715,-807.5 439,-807.5"/>
<polygon fill="none" stroke="#000000" points="439,-807.5 439,-842.5 715,-842.5 715,-807.5 439,-807.5"/>
<text text-anchor="start" x="462.8639" y="-820.3" font-family="Arial Bold" font-size="18.00" fill="#000000">public.res_users</text>
<text text-anchor="start" x="593.8823" y="-820.3" font-family="Arial" font-size="14.00" fill="#000000"> </text>
<text text-anchor="start" x="597.7729" y="-820.3" font-family="Arial" font-size="14.00" fill="#666666">[BASE TABLE]</text>
<polygon fill="none" stroke="#000000" points="439,-777.5 439,-807.5 715,-807.5 715,-777.5 439,-777.5"/>
<text text-anchor="start" x="446" y="-788.9" font-family="Arial" font-size="14.00" fill="#000000">id </text>
<text text-anchor="start" x="460.7798" y="-788.9" font-family="Arial" font-size="14.00" fill="#666666">[integer]</text>
<polygon fill="none" stroke="#000000" points="439,-747.5 439,-777.5 715,-777.5 715,-747.5 439,-747.5"/>
<text text-anchor="start" x="446" y="-758.9" font-family="Arial" font-size="14.00" fill="#000000">active </text>
<text text-anchor="start" x="486.453" y="-758.9" font-family="Arial" font-size="14.00" fill="#666666">[boolean]</text>
<polygon fill="none" stroke="#000000" points="439,-717.5 439,-747.5 715,-747.5 715,-717.5 439,-717.5"/>
<text text-anchor="start" x="446" y="-728.9" font-family="Arial" font-size="14.00" fill="#000000">login </text>
<text text-anchor="start" x="479.4516" y="-728.9" font-family="Arial" font-size="14.00" fill="#666666">[varchar]</text>
<polygon fill="none" stroke="#000000" points="439,-687.5 439,-717.5 715,-717.5 715,-687.5 439,-687.5"/>
<text text-anchor="start" x="446" y="-698.9" font-family="Arial" font-size="14.00" fill="#000000">password </text>
<text text-anchor="start" x="509.7882" y="-698.9" font-family="Arial" font-size="14.00" fill="#666666">[varchar]</text>
<polygon fill="none" stroke="#000000" points="439,-657.5 439,-687.5 715,-687.5 715,-657.5 439,-657.5"/>
<text text-anchor="start" x="446" y="-668.9" font-family="Arial" font-size="14.00" fill="#000000">company_id </text>
<text text-anchor="start" x="525.3534" y="-668.9" font-family="Arial" font-size="14.00" fill="#666666">[integer]</text>
<polygon fill="none" stroke="#000000" points="439,-627.5 439,-657.5 715,-657.5 715,-627.5 439,-627.5"/>
<text text-anchor="start" x="446" y="-638.9" font-family="Arial" font-size="14.00" fill="#000000">partner_id </text>
<text text-anchor="start" x="512.9046" y="-638.9" font-family="Arial" font-size="14.00" fill="#666666">[integer]</text>
<polygon fill="none" stroke="#000000" points="439,-597.5 439,-627.5 715,-627.5 715,-597.5 439,-597.5"/>
<text text-anchor="start" x="445.5246" y="-608.9" font-family="Arial" font-size="14.00" fill="#000000">create_date </text>
<text text-anchor="start" x="523.3352" y="-608.9" font-family="Arial" font-size="14.00" fill="#666666">[timestamp without time zone]</text>
<polygon fill="none" stroke="#000000" points="439,-567.5 439,-597.5 715,-597.5 715,-567.5 439,-567.5"/>
<text text-anchor="start" x="446" y="-578.9" font-family="Arial" font-size="14.00" fill="#000000">signature </text>
<text text-anchor="start" x="507.4614" y="-578.9" font-family="Arial" font-size="14.00" fill="#666666">[text]</text>
<polygon fill="none" stroke="#000000" points="439,-537.5 439,-567.5 715,-567.5 715,-537.5 439,-537.5"/>
<text text-anchor="start" x="446" y="-548.9" font-family="Arial" font-size="14.00" fill="#000000">action_id </text>
<text text-anchor="start" x="505.9074" y="-548.9" font-family="Arial" font-size="14.00" fill="#666666">[integer]</text>
<polygon fill="none" stroke="#000000" points="439,-507.5 439,-537.5 715,-537.5 715,-507.5 439,-507.5"/>
<text text-anchor="start" x="446" y="-518.9" font-family="Arial" font-size="14.00" fill="#000000">share </text>
<text text-anchor="start" x="484.899" y="-518.9" font-family="Arial" font-size="14.00" fill="#666666">[boolean]</text>
<polygon fill="none" stroke="#000000" points="439,-477.5 439,-507.5 715,-507.5 715,-477.5 439,-477.5"/>
<text text-anchor="start" x="446" y="-488.9" font-family="Arial" font-size="14.00" fill="#000000">create_uid </text>
<text text-anchor="start" x="515.244" y="-488.9" font-family="Arial" font-size="14.00" fill="#666666">[integer]</text>
<polygon fill="none" stroke="#000000" points="439,-447.5 439,-477.5 715,-477.5 715,-447.5 439,-447.5"/>
<text text-anchor="start" x="446" y="-458.9" font-family="Arial" font-size="14.00" fill="#000000">write_uid </text>
<text text-anchor="start" x="505.892" y="-458.9" font-family="Arial" font-size="14.00" fill="#666666">[integer]</text>
<polygon fill="none" stroke="#000000" points="439,-417.5 439,-447.5 715,-447.5 715,-417.5 439,-417.5"/>
<text text-anchor="start" x="446" y="-428.9" font-family="Arial" font-size="14.00" fill="#000000">write_date </text>
<text text-anchor="start" x="514.4586" y="-428.9" font-family="Arial" font-size="14.00" fill="#666666">[timestamp without time zone]</text>
<polygon fill="none" stroke="#000000" points="439,-387.5 439,-417.5 715,-417.5 715,-387.5 439,-387.5"/>
<text text-anchor="start" x="446" y="-398.9" font-family="Arial" font-size="14.00" fill="#000000">alias_id </text>
<text text-anchor="start" x="497.3408" y="-398.9" font-family="Arial" font-size="14.00" fill="#666666">[integer]</text>
<polygon fill="none" stroke="#000000" points="439,-357.5 439,-387.5 715,-387.5 715,-357.5 439,-357.5"/>
<text text-anchor="start" x="446" y="-368.9" font-family="Arial" font-size="14.00" fill="#000000">notification_type </text>
<text text-anchor="start" x="551.0336" y="-368.9" font-family="Arial" font-size="14.00" fill="#666666">[varchar]</text>
<polygon fill="none" stroke="#000000" points="439,-327.5 439,-357.5 715,-357.5 715,-327.5 439,-327.5"/>
<text text-anchor="start" x="446" y="-338.9" font-family="Arial" font-size="14.00" fill="#000000">odoobot_state </text>
<text text-anchor="start" x="538.6058" y="-338.9" font-family="Arial" font-size="14.00" fill="#666666">[varchar]</text>
<polygon fill="none" stroke="#000000" points="439,-297.5 439,-327.5 715,-327.5 715,-297.5 439,-297.5"/>
<text text-anchor="start" x="446" y="-308.9" font-family="Arial" font-size="14.00" fill="#000000">sale_team_id </text>
<text text-anchor="start" x="533.1332" y="-308.9" font-family="Arial" font-size="14.00" fill="#666666">[integer]</text>
<polygon fill="none" stroke="#000000" points="439,-267.5 439,-297.5 715,-297.5 715,-267.5 439,-267.5"/>
<text text-anchor="start" x="446" y="-278.9" font-family="Arial" font-size="14.00" fill="#000000">target_sales_won </text>
<text text-anchor="start" x="559.589" y="-278.9" font-family="Arial" font-size="14.00" fill="#666666">[integer]</text>
<polygon fill="none" stroke="#000000" points="439,-237.5 439,-267.5 715,-267.5 715,-237.5 439,-237.5"/>
<text text-anchor="start" x="446" y="-248.9" font-family="Arial" font-size="14.00" fill="#000000">target_sales_done </text>
<text text-anchor="start" x="565.0476" y="-248.9" font-family="Arial" font-size="14.00" fill="#666666">[integer]</text>
<polygon fill="none" stroke="#000000" points="439,-207.5 439,-237.5 715,-237.5 715,-207.5 439,-207.5"/>
<text text-anchor="start" x="446" y="-218.9" font-family="Arial" font-size="14.00" fill="#000000">website_id </text>
<text text-anchor="start" x="516.014" y="-218.9" font-family="Arial" font-size="14.00" fill="#666666">[integer]</text>
<polygon fill="none" stroke="#000000" points="439,-177.5 439,-207.5 715,-207.5 715,-177.5 439,-177.5"/>
<text text-anchor="start" x="446" y="-188.9" font-family="Arial" font-size="14.00" fill="#000000">target_sales_invoiced </text>
<text text-anchor="start" x="585.2608" y="-188.9" font-family="Arial" font-size="14.00" fill="#666666">[integer]</text>
<polygon fill="none" stroke="#000000" points="439,-147.5 439,-177.5 715,-177.5 715,-147.5 439,-147.5"/>
<text text-anchor="start" x="446" y="-158.9" font-family="Arial" font-size="14.00" fill="#000000">pos_security_pin </text>
<text text-anchor="start" x="554.9158" y="-158.9" font-family="Arial" font-size="14.00" fill="#666666">[varchar(32)]</text>
</g>
<!-- public.ir_cron&#45;&gt;public.res_users -->
<g id="edge2" class="edge">
<title>public.ir_cron:user_id&#45;&gt;public.res_users:id</title>
<path fill="none" stroke="#000000" d="M724.3079,-1413.5089C784.2919,-1360.2795 781.1892,-792.5 715,-792.5"/>
<polygon fill="#000000" stroke="#000000" points="724.1907,-1413.559 713.2266,-1413.3642 719.5954,-1415.5295 715,-1417.5 715,-1417.5 715,-1417.5 719.5954,-1415.5295 716.7734,-1421.6358 724.1907,-1413.559 724.1907,-1413.559"/>
<text text-anchor="start" x="721.6055" y="-1427.5" font-family="Arial" font-size="10.00" fill="#000000">FOREIGN KEY (user_id) REFERENCES res_users(id) ON DELETE SET NULL</text>
</g>
<!-- public.ir_cron&#45;&gt;public.res_users -->
<g id="edge3" class="edge">
<title>public.ir_cron:create_uid&#45;&gt;public.res_users:id</title>
<path fill="none" stroke="#000000" d="M725.0956,-1175.6101C800.4116,-1146.5656 797.0464,-792.5 715,-792.5"/>
<polygon fill="#000000" stroke="#000000" points="724.8293,-1175.6599 714.1719,-1173.0768 719.9146,-1176.5799 715,-1177.5 715,-1177.5 715,-1177.5 719.9146,-1176.5799 715.8281,-1181.9232 724.8293,-1175.6599 724.8293,-1175.6599"/>
<text text-anchor="start" x="721.657" y="-1187.5" font-family="Arial" font-size="10.00" fill="#000000">FOREIGN KEY (create_uid) REFERENCES res_users(id) ON DELETE SET NULL</text>
</g>
<!-- public.ir_cron&#45;&gt;public.res_users -->
<g id="edge4" class="edge">
<title>public.ir_cron:write_uid&#45;&gt;public.res_users:id</title>
<path fill="none" stroke="#000000" d="M725.0629,-1115.2511C787.05,-1086.5366 783.6957,-792.5 715,-792.5"/>
<polygon fill="#000000" stroke="#000000" points="724.7593,-1115.3189 714.0185,-1113.1083 719.8796,-1116.4094 715,-1117.5 715,-1117.5 715,-1117.5 719.8796,-1116.4094 715.9815,-1121.8917 724.7593,-1115.3189 724.7593,-1115.3189"/>
<text text-anchor="start" x="721.997" y="-1127.5" font-family="Arial" font-size="10.00" fill="#000000">FOREIGN KEY (write_uid) REFERENCES res_users(id) ON DELETE SET NULL</text>
</g>
</g>
</svg>
