<?xml version="1.0" encoding="UTF-8" standalone="no"?>
<!DOCTYPE svg PUBLIC "-//W3C//DTD SVG 1.1//EN"
 "http://www.w3.org/Graphics/SVG/1.1/DTD/svg11.dtd">
<!-- Generated by graphviz version 2.40.1 (20161225.0304)
 -->
<!-- Title: public.change_password_user Pages: 1 -->
<svg width="1222pt" height="1222pt"
 viewBox="0.00 0.00 1221.50 1222.00" xmlns="http://www.w3.org/2000/svg" xmlns:xlink="http://www.w3.org/1999/xlink">
<g id="graph0" class="graph" transform="scale(1 1) rotate(0) translate(4 1218)">
<title>public.change_password_user</title>
<polygon fill="#ffffff" stroke="transparent" points="-4,4 -4,-1218 1217.5,-1218 1217.5,4 -4,4"/>
<!-- public.change_password_user -->
<g id="node1" class="node">
<title>public.change_password_user</title>
<polygon fill="#efefef" stroke="transparent" points="479.5,-1132.5 479.5,-1167.5 833.5,-1167.5 833.5,-1132.5 479.5,-1132.5"/>
<polygon fill="none" stroke="#000000" points="479.5,-1132.5 479.5,-1167.5 833.5,-1167.5 833.5,-1132.5 479.5,-1132.5"/>
<text text-anchor="start" x="486.3389" y="-1145.3" font-family="Arial Bold" font-size="18.00" fill="#000000">public.change_password_user</text>
<text text-anchor="start" x="729.4073" y="-1145.3" font-family="Arial" font-size="14.00" fill="#000000"> </text>
<text text-anchor="start" x="733.2979" y="-1145.3" font-family="Arial" font-size="14.00" fill="#666666">[BASE TABLE]</text>
<polygon fill="none" stroke="#000000" points="479.5,-1102.5 479.5,-1132.5 833.5,-1132.5 833.5,-1102.5 479.5,-1102.5"/>
<text text-anchor="start" x="486.5" y="-1113.9" font-family="Arial" font-size="14.00" fill="#000000">id </text>
<text text-anchor="start" x="501.2798" y="-1113.9" font-family="Arial" font-size="14.00" fill="#666666">[integer]</text>
<polygon fill="none" stroke="#000000" points="479.5,-1072.5 479.5,-1102.5 833.5,-1102.5 833.5,-1072.5 479.5,-1072.5"/>
<text text-anchor="start" x="486.5" y="-1083.9" font-family="Arial" font-size="14.00" fill="#000000">wizard_id </text>
<text text-anchor="start" x="549.5014" y="-1083.9" font-family="Arial" font-size="14.00" fill="#666666">[integer]</text>
<polygon fill="none" stroke="#000000" points="479.5,-1042.5 479.5,-1072.5 833.5,-1072.5 833.5,-1042.5 479.5,-1042.5"/>
<text text-anchor="start" x="486.5" y="-1053.9" font-family="Arial" font-size="14.00" fill="#000000">user_id </text>
<text text-anchor="start" x="536.2882" y="-1053.9" font-family="Arial" font-size="14.00" fill="#666666">[integer]</text>
<polygon fill="none" stroke="#000000" points="479.5,-1012.5 479.5,-1042.5 833.5,-1042.5 833.5,-1012.5 479.5,-1012.5"/>
<text text-anchor="start" x="486.5" y="-1023.9" font-family="Arial" font-size="14.00" fill="#000000">user_login </text>
<text text-anchor="start" x="554.96" y="-1023.9" font-family="Arial" font-size="14.00" fill="#666666">[varchar]</text>
<polygon fill="none" stroke="#000000" points="479.5,-982.5 479.5,-1012.5 833.5,-1012.5 833.5,-982.5 479.5,-982.5"/>
<text text-anchor="start" x="486.5" y="-993.9" font-family="Arial" font-size="14.00" fill="#000000">new_passwd </text>
<text text-anchor="start" x="571.2994" y="-993.9" font-family="Arial" font-size="14.00" fill="#666666">[varchar]</text>
<polygon fill="none" stroke="#000000" points="479.5,-952.5 479.5,-982.5 833.5,-982.5 833.5,-952.5 479.5,-952.5"/>
<text text-anchor="start" x="486.5" y="-963.9" font-family="Arial" font-size="14.00" fill="#000000">create_uid </text>
<text text-anchor="start" x="555.744" y="-963.9" font-family="Arial" font-size="14.00" fill="#666666">[integer]</text>
<polygon fill="none" stroke="#000000" points="479.5,-922.5 479.5,-952.5 833.5,-952.5 833.5,-922.5 479.5,-922.5"/>
<text text-anchor="start" x="486.5" y="-933.9" font-family="Arial" font-size="14.00" fill="#000000">create_date </text>
<text text-anchor="start" x="564.3106" y="-933.9" font-family="Arial" font-size="14.00" fill="#666666">[timestamp without time zone]</text>
<polygon fill="none" stroke="#000000" points="479.5,-892.5 479.5,-922.5 833.5,-922.5 833.5,-892.5 479.5,-892.5"/>
<text text-anchor="start" x="486.5" y="-903.9" font-family="Arial" font-size="14.00" fill="#000000">write_uid </text>
<text text-anchor="start" x="546.392" y="-903.9" font-family="Arial" font-size="14.00" fill="#666666">[integer]</text>
<polygon fill="none" stroke="#000000" points="479.5,-862.5 479.5,-892.5 833.5,-892.5 833.5,-862.5 479.5,-862.5"/>
<text text-anchor="start" x="486.5" y="-873.9" font-family="Arial" font-size="14.00" fill="#000000">write_date </text>
<text text-anchor="start" x="554.9586" y="-873.9" font-family="Arial" font-size="14.00" fill="#666666">[timestamp without time zone]</text>
<polygon fill="none" stroke="#000000" stroke-width="3" points="478,-861.5 478,-1169.5 835,-1169.5 835,-861.5 478,-861.5"/>
</g>
<!-- public.change_password_wizard -->
<g id="node2" class="node">
<title>public.change_password_wizard</title>
<polygon fill="#efefef" stroke="transparent" points="43.5,-447.5 43.5,-482.5 414.5,-482.5 414.5,-447.5 43.5,-447.5"/>
<polygon fill="none" stroke="#000000" points="43.5,-447.5 43.5,-482.5 414.5,-482.5 414.5,-447.5 43.5,-447.5"/>
<text text-anchor="start" x="50.3447" y="-460.3" font-family="Arial Bold" font-size="18.00" fill="#000000">public.change_password_wizard</text>
<text text-anchor="start" x="310.4015" y="-460.3" font-family="Arial" font-size="14.00" fill="#000000"> </text>
<text text-anchor="start" x="314.2921" y="-460.3" font-family="Arial" font-size="14.00" fill="#666666">[BASE TABLE]</text>
<polygon fill="none" stroke="#000000" points="43.5,-417.5 43.5,-447.5 414.5,-447.5 414.5,-417.5 43.5,-417.5"/>
<text text-anchor="start" x="50.5" y="-428.9" font-family="Arial" font-size="14.00" fill="#000000">id </text>
<text text-anchor="start" x="65.2798" y="-428.9" font-family="Arial" font-size="14.00" fill="#666666">[integer]</text>
<polygon fill="none" stroke="#000000" points="43.5,-387.5 43.5,-417.5 414.5,-417.5 414.5,-387.5 43.5,-387.5"/>
<text text-anchor="start" x="50.5" y="-398.9" font-family="Arial" font-size="14.00" fill="#000000">create_uid </text>
<text text-anchor="start" x="119.744" y="-398.9" font-family="Arial" font-size="14.00" fill="#666666">[integer]</text>
<polygon fill="none" stroke="#000000" points="43.5,-357.5 43.5,-387.5 414.5,-387.5 414.5,-357.5 43.5,-357.5"/>
<text text-anchor="start" x="50.5" y="-368.9" font-family="Arial" font-size="14.00" fill="#000000">create_date </text>
<text text-anchor="start" x="128.3106" y="-368.9" font-family="Arial" font-size="14.00" fill="#666666">[timestamp without time zone]</text>
<polygon fill="none" stroke="#000000" points="43.5,-327.5 43.5,-357.5 414.5,-357.5 414.5,-327.5 43.5,-327.5"/>
<text text-anchor="start" x="50.5" y="-338.9" font-family="Arial" font-size="14.00" fill="#000000">write_uid </text>
<text text-anchor="start" x="110.392" y="-338.9" font-family="Arial" font-size="14.00" fill="#666666">[integer]</text>
<polygon fill="none" stroke="#000000" points="43.5,-297.5 43.5,-327.5 414.5,-327.5 414.5,-297.5 43.5,-297.5"/>
<text text-anchor="start" x="50.5" y="-308.9" font-family="Arial" font-size="14.00" fill="#000000">write_date </text>
<text text-anchor="start" x="118.9586" y="-308.9" font-family="Arial" font-size="14.00" fill="#666666">[timestamp without time zone]</text>
</g>
<!-- public.change_password_user&#45;&gt;public.change_password_wizard -->
<g id="edge1" class="edge">
<title>public.change_password_user:wizard_id&#45;&gt;public.change_password_wizard:id</title>
<path fill="none" stroke="#000000" d="M469.4444,-1086.3478C344.1171,-1055.908 557.1995,-432.5 414.5,-432.5"/>
<polygon fill="#000000" stroke="#000000" points="469.565,-1086.3616 478.9877,-1091.9707 474.5325,-1086.9308 479.5,-1087.5 479.5,-1087.5 479.5,-1087.5 474.5325,-1086.9308 480.0123,-1083.0293 469.565,-1086.3616 469.565,-1086.3616"/>
<text text-anchor="start" x="38.267" y="-1097.5" font-family="Arial" font-size="10.00" fill="#000000">FOREIGN KEY (wizard_id) REFERENCES change_password_wizard(id) ON DELETE CASCADE</text>
</g>
<!-- public.res_users -->
<g id="node3" class="node">
<title>public.res_users</title>
<polygon fill="#efefef" stroke="transparent" points="518.5,-702.5 518.5,-737.5 794.5,-737.5 794.5,-702.5 518.5,-702.5"/>
<polygon fill="none" stroke="#000000" points="518.5,-702.5 518.5,-737.5 794.5,-737.5 794.5,-702.5 518.5,-702.5"/>
<text text-anchor="start" x="542.3639" y="-715.3" font-family="Arial Bold" font-size="18.00" fill="#000000">public.res_users</text>
<text text-anchor="start" x="673.3823" y="-715.3" font-family="Arial" font-size="14.00" fill="#000000"> </text>
<text text-anchor="start" x="677.2729" y="-715.3" font-family="Arial" font-size="14.00" fill="#666666">[BASE TABLE]</text>
<polygon fill="none" stroke="#000000" points="518.5,-672.5 518.5,-702.5 794.5,-702.5 794.5,-672.5 518.5,-672.5"/>
<text text-anchor="start" x="525.5" y="-683.9" font-family="Arial" font-size="14.00" fill="#000000">id </text>
<text text-anchor="start" x="540.2798" y="-683.9" font-family="Arial" font-size="14.00" fill="#666666">[integer]</text>
<polygon fill="none" stroke="#000000" points="518.5,-642.5 518.5,-672.5 794.5,-672.5 794.5,-642.5 518.5,-642.5"/>
<text text-anchor="start" x="525.5" y="-653.9" font-family="Arial" font-size="14.00" fill="#000000">active </text>
<text text-anchor="start" x="565.953" y="-653.9" font-family="Arial" font-size="14.00" fill="#666666">[boolean]</text>
<polygon fill="none" stroke="#000000" points="518.5,-612.5 518.5,-642.5 794.5,-642.5 794.5,-612.5 518.5,-612.5"/>
<text text-anchor="start" x="525.5" y="-623.9" font-family="Arial" font-size="14.00" fill="#000000">login </text>
<text text-anchor="start" x="558.9516" y="-623.9" font-family="Arial" font-size="14.00" fill="#666666">[varchar]</text>
<polygon fill="none" stroke="#000000" points="518.5,-582.5 518.5,-612.5 794.5,-612.5 794.5,-582.5 518.5,-582.5"/>
<text text-anchor="start" x="525.5" y="-593.9" font-family="Arial" font-size="14.00" fill="#000000">password </text>
<text text-anchor="start" x="589.2882" y="-593.9" font-family="Arial" font-size="14.00" fill="#666666">[varchar]</text>
<polygon fill="none" stroke="#000000" points="518.5,-552.5 518.5,-582.5 794.5,-582.5 794.5,-552.5 518.5,-552.5"/>
<text text-anchor="start" x="525.5" y="-563.9" font-family="Arial" font-size="14.00" fill="#000000">company_id </text>
<text text-anchor="start" x="604.8534" y="-563.9" font-family="Arial" font-size="14.00" fill="#666666">[integer]</text>
<polygon fill="none" stroke="#000000" points="518.5,-522.5 518.5,-552.5 794.5,-552.5 794.5,-522.5 518.5,-522.5"/>
<text text-anchor="start" x="525.5" y="-533.9" font-family="Arial" font-size="14.00" fill="#000000">partner_id </text>
<text text-anchor="start" x="592.4046" y="-533.9" font-family="Arial" font-size="14.00" fill="#666666">[integer]</text>
<polygon fill="none" stroke="#000000" points="518.5,-492.5 518.5,-522.5 794.5,-522.5 794.5,-492.5 518.5,-492.5"/>
<text text-anchor="start" x="525.0246" y="-503.9" font-family="Arial" font-size="14.00" fill="#000000">create_date </text>
<text text-anchor="start" x="602.8352" y="-503.9" font-family="Arial" font-size="14.00" fill="#666666">[timestamp without time zone]</text>
<polygon fill="none" stroke="#000000" points="518.5,-462.5 518.5,-492.5 794.5,-492.5 794.5,-462.5 518.5,-462.5"/>
<text text-anchor="start" x="525.5" y="-473.9" font-family="Arial" font-size="14.00" fill="#000000">signature </text>
<text text-anchor="start" x="586.9614" y="-473.9" font-family="Arial" font-size="14.00" fill="#666666">[text]</text>
<polygon fill="none" stroke="#000000" points="518.5,-432.5 518.5,-462.5 794.5,-462.5 794.5,-432.5 518.5,-432.5"/>
<text text-anchor="start" x="525.5" y="-443.9" font-family="Arial" font-size="14.00" fill="#000000">action_id </text>
<text text-anchor="start" x="585.4074" y="-443.9" font-family="Arial" font-size="14.00" fill="#666666">[integer]</text>
<polygon fill="none" stroke="#000000" points="518.5,-402.5 518.5,-432.5 794.5,-432.5 794.5,-402.5 518.5,-402.5"/>
<text text-anchor="start" x="525.5" y="-413.9" font-family="Arial" font-size="14.00" fill="#000000">share </text>
<text text-anchor="start" x="564.399" y="-413.9" font-family="Arial" font-size="14.00" fill="#666666">[boolean]</text>
<polygon fill="none" stroke="#000000" points="518.5,-372.5 518.5,-402.5 794.5,-402.5 794.5,-372.5 518.5,-372.5"/>
<text text-anchor="start" x="525.5" y="-383.9" font-family="Arial" font-size="14.00" fill="#000000">create_uid </text>
<text text-anchor="start" x="594.744" y="-383.9" font-family="Arial" font-size="14.00" fill="#666666">[integer]</text>
<polygon fill="none" stroke="#000000" points="518.5,-342.5 518.5,-372.5 794.5,-372.5 794.5,-342.5 518.5,-342.5"/>
<text text-anchor="start" x="525.5" y="-353.9" font-family="Arial" font-size="14.00" fill="#000000">write_uid </text>
<text text-anchor="start" x="585.392" y="-353.9" font-family="Arial" font-size="14.00" fill="#666666">[integer]</text>
<polygon fill="none" stroke="#000000" points="518.5,-312.5 518.5,-342.5 794.5,-342.5 794.5,-312.5 518.5,-312.5"/>
<text text-anchor="start" x="525.5" y="-323.9" font-family="Arial" font-size="14.00" fill="#000000">write_date </text>
<text text-anchor="start" x="593.9586" y="-323.9" font-family="Arial" font-size="14.00" fill="#666666">[timestamp without time zone]</text>
<polygon fill="none" stroke="#000000" points="518.5,-282.5 518.5,-312.5 794.5,-312.5 794.5,-282.5 518.5,-282.5"/>
<text text-anchor="start" x="525.5" y="-293.9" font-family="Arial" font-size="14.00" fill="#000000">alias_id </text>
<text text-anchor="start" x="576.8408" y="-293.9" font-family="Arial" font-size="14.00" fill="#666666">[integer]</text>
<polygon fill="none" stroke="#000000" points="518.5,-252.5 518.5,-282.5 794.5,-282.5 794.5,-252.5 518.5,-252.5"/>
<text text-anchor="start" x="525.5" y="-263.9" font-family="Arial" font-size="14.00" fill="#000000">notification_type </text>
<text text-anchor="start" x="630.5336" y="-263.9" font-family="Arial" font-size="14.00" fill="#666666">[varchar]</text>
<polygon fill="none" stroke="#000000" points="518.5,-222.5 518.5,-252.5 794.5,-252.5 794.5,-222.5 518.5,-222.5"/>
<text text-anchor="start" x="525.5" y="-233.9" font-family="Arial" font-size="14.00" fill="#000000">odoobot_state </text>
<text text-anchor="start" x="618.1058" y="-233.9" font-family="Arial" font-size="14.00" fill="#666666">[varchar]</text>
<polygon fill="none" stroke="#000000" points="518.5,-192.5 518.5,-222.5 794.5,-222.5 794.5,-192.5 518.5,-192.5"/>
<text text-anchor="start" x="525.5" y="-203.9" font-family="Arial" font-size="14.00" fill="#000000">sale_team_id </text>
<text text-anchor="start" x="612.6332" y="-203.9" font-family="Arial" font-size="14.00" fill="#666666">[integer]</text>
<polygon fill="none" stroke="#000000" points="518.5,-162.5 518.5,-192.5 794.5,-192.5 794.5,-162.5 518.5,-162.5"/>
<text text-anchor="start" x="525.5" y="-173.9" font-family="Arial" font-size="14.00" fill="#000000">target_sales_won </text>
<text text-anchor="start" x="639.089" y="-173.9" font-family="Arial" font-size="14.00" fill="#666666">[integer]</text>
<polygon fill="none" stroke="#000000" points="518.5,-132.5 518.5,-162.5 794.5,-162.5 794.5,-132.5 518.5,-132.5"/>
<text text-anchor="start" x="525.5" y="-143.9" font-family="Arial" font-size="14.00" fill="#000000">target_sales_done </text>
<text text-anchor="start" x="644.5476" y="-143.9" font-family="Arial" font-size="14.00" fill="#666666">[integer]</text>
<polygon fill="none" stroke="#000000" points="518.5,-102.5 518.5,-132.5 794.5,-132.5 794.5,-102.5 518.5,-102.5"/>
<text text-anchor="start" x="525.5" y="-113.9" font-family="Arial" font-size="14.00" fill="#000000">website_id </text>
<text text-anchor="start" x="595.514" y="-113.9" font-family="Arial" font-size="14.00" fill="#666666">[integer]</text>
<polygon fill="none" stroke="#000000" points="518.5,-72.5 518.5,-102.5 794.5,-102.5 794.5,-72.5 518.5,-72.5"/>
<text text-anchor="start" x="525.5" y="-83.9" font-family="Arial" font-size="14.00" fill="#000000">target_sales_invoiced </text>
<text text-anchor="start" x="664.7608" y="-83.9" font-family="Arial" font-size="14.00" fill="#666666">[integer]</text>
<polygon fill="none" stroke="#000000" points="518.5,-42.5 518.5,-72.5 794.5,-72.5 794.5,-42.5 518.5,-42.5"/>
<text text-anchor="start" x="525.5" y="-53.9" font-family="Arial" font-size="14.00" fill="#000000">pos_security_pin </text>
<text text-anchor="start" x="634.4158" y="-53.9" font-family="Arial" font-size="14.00" fill="#666666">[varchar(32)]</text>
</g>
<!-- public.change_password_user&#45;&gt;public.res_users -->
<g id="edge2" class="edge">
<title>public.change_password_user:user_id&#45;&gt;public.res_users:id</title>
<path fill="none" stroke="#000000" d="M843.4899,-1055.5093C912.7455,-1026.3863 873.6252,-687.5 794.5,-687.5"/>
<polygon fill="#000000" stroke="#000000" points="843.3072,-1055.5456 832.6205,-1053.0868 838.4036,-1056.5228 833.5,-1057.5 833.5,-1057.5 833.5,-1057.5 838.4036,-1056.5228 834.3795,-1061.9132 843.3072,-1055.5456 843.3072,-1055.5456"/>
<text text-anchor="start" x="840.83" y="-1067.5" font-family="Arial" font-size="10.00" fill="#000000">FOREIGN KEY (user_id) REFERENCES res_users(id) ON DELETE CASCADE</text>
</g>
<!-- public.change_password_user&#45;&gt;public.res_users -->
<g id="edge3" class="edge">
<title>public.change_password_user:create_uid&#45;&gt;public.res_users:id</title>
<path fill="none" stroke="#000000" d="M843.7806,-966.839C956.8673,-951.8652 916.5875,-687.5 794.5,-687.5"/>
<polygon fill="#000000" stroke="#000000" points="843.4794,-966.8583 833.2112,-963.0093 838.4897,-967.1791 833.5,-967.5 833.5,-967.5 833.5,-967.5 838.4897,-967.1791 833.7888,-971.9907 843.4794,-966.8583 843.4794,-966.8583"/>
<text text-anchor="start" x="840.157" y="-977.5" font-family="Arial" font-size="10.00" fill="#000000">FOREIGN KEY (create_uid) REFERENCES res_users(id) ON DELETE SET NULL</text>
</g>
<!-- public.change_password_user&#45;&gt;public.res_users -->
<g id="edge4" class="edge">
<title>public.change_password_user:write_uid&#45;&gt;public.res_users:id</title>
<path fill="none" stroke="#000000" d="M843.7262,-906.6591C929.9052,-891.8888 890.2142,-687.5 794.5,-687.5"/>
<polygon fill="#000000" stroke="#000000" points="843.4664,-906.6804 833.1312,-903.0151 838.4832,-907.0902 833.5,-907.5 833.5,-907.5 833.5,-907.5 838.4832,-907.0902 833.8688,-911.9849 843.4664,-906.6804 843.4664,-906.6804"/>
<text text-anchor="start" x="840.497" y="-917.5" font-family="Arial" font-size="10.00" fill="#000000">FOREIGN KEY (write_uid) REFERENCES res_users(id) ON DELETE SET NULL</text>
</g>
</g>
</svg>
