<?xml version="1.0" encoding="UTF-8" standalone="no"?>
<!DOCTYPE svg PUBLIC "-//W3C//DTD SVG 1.1//EN"
 "http://www.w3.org/Graphics/SVG/1.1/DTD/svg11.dtd">
<!-- Generated by graphviz version 2.40.1 (20161225.0304)
 -->
<!-- Title: public.blog_tag_category Pages: 1 -->
<svg width="1105pt" height="1619pt"
 viewBox="0.00 0.00 1105.00 1619.00" xmlns="http://www.w3.org/2000/svg" xmlns:xlink="http://www.w3.org/1999/xlink">
<g id="graph0" class="graph" transform="scale(1 1) rotate(0) translate(4 1615)">
<title>public.blog_tag_category</title>
<polygon fill="#ffffff" stroke="transparent" points="-4,4 -4,-1615 1101,-1615 1101,4 -4,4"/>
<!-- public.blog_tag_category -->
<g id="node1" class="node">
<title>public.blog_tag_category</title>
<polygon fill="#efefef" stroke="transparent" points="406,-1042.5 406,-1077.5 717,-1077.5 717,-1042.5 406,-1042.5"/>
<polygon fill="none" stroke="#000000" points="406,-1042.5 406,-1077.5 717,-1077.5 717,-1042.5 406,-1042.5"/>
<text text-anchor="start" x="412.839" y="-1055.3" font-family="Arial Bold" font-size="18.00" fill="#000000">public.blog_tag_category</text>
<text text-anchor="start" x="612.9072" y="-1055.3" font-family="Arial" font-size="14.00" fill="#000000"> </text>
<text text-anchor="start" x="616.7978" y="-1055.3" font-family="Arial" font-size="14.00" fill="#666666">[BASE TABLE]</text>
<polygon fill="none" stroke="#000000" points="406,-1012.5 406,-1042.5 717,-1042.5 717,-1012.5 406,-1012.5"/>
<text text-anchor="start" x="413" y="-1023.9" font-family="Arial" font-size="14.00" fill="#000000">id </text>
<text text-anchor="start" x="427.7798" y="-1023.9" font-family="Arial" font-size="14.00" fill="#666666">[integer]</text>
<polygon fill="none" stroke="#000000" points="406,-982.5 406,-1012.5 717,-1012.5 717,-982.5 406,-982.5"/>
<text text-anchor="start" x="413" y="-993.9" font-family="Arial" font-size="14.00" fill="#000000">name </text>
<text text-anchor="start" x="451.899" y="-993.9" font-family="Arial" font-size="14.00" fill="#666666">[varchar]</text>
<polygon fill="none" stroke="#000000" points="406,-952.5 406,-982.5 717,-982.5 717,-952.5 406,-952.5"/>
<text text-anchor="start" x="413" y="-963.9" font-family="Arial" font-size="14.00" fill="#000000">create_uid </text>
<text text-anchor="start" x="482.244" y="-963.9" font-family="Arial" font-size="14.00" fill="#666666">[integer]</text>
<polygon fill="none" stroke="#000000" points="406,-922.5 406,-952.5 717,-952.5 717,-922.5 406,-922.5"/>
<text text-anchor="start" x="413" y="-933.9" font-family="Arial" font-size="14.00" fill="#000000">create_date </text>
<text text-anchor="start" x="490.8106" y="-933.9" font-family="Arial" font-size="14.00" fill="#666666">[timestamp without time zone]</text>
<polygon fill="none" stroke="#000000" points="406,-892.5 406,-922.5 717,-922.5 717,-892.5 406,-892.5"/>
<text text-anchor="start" x="413" y="-903.9" font-family="Arial" font-size="14.00" fill="#000000">write_uid </text>
<text text-anchor="start" x="472.892" y="-903.9" font-family="Arial" font-size="14.00" fill="#666666">[integer]</text>
<polygon fill="none" stroke="#000000" points="406,-862.5 406,-892.5 717,-892.5 717,-862.5 406,-862.5"/>
<text text-anchor="start" x="413" y="-873.9" font-family="Arial" font-size="14.00" fill="#000000">write_date </text>
<text text-anchor="start" x="481.4586" y="-873.9" font-family="Arial" font-size="14.00" fill="#666666">[timestamp without time zone]</text>
<polygon fill="none" stroke="#000000" stroke-width="3" points="404,-861.5 404,-1079.5 718,-1079.5 718,-861.5 404,-861.5"/>
</g>
<!-- public.res_users -->
<g id="node3" class="node">
<title>public.res_users</title>
<polygon fill="#efefef" stroke="transparent" points="424,-702.5 424,-737.5 700,-737.5 700,-702.5 424,-702.5"/>
<polygon fill="none" stroke="#000000" points="424,-702.5 424,-737.5 700,-737.5 700,-702.5 424,-702.5"/>
<text text-anchor="start" x="447.8639" y="-715.3" font-family="Arial Bold" font-size="18.00" fill="#000000">public.res_users</text>
<text text-anchor="start" x="578.8823" y="-715.3" font-family="Arial" font-size="14.00" fill="#000000"> </text>
<text text-anchor="start" x="582.7729" y="-715.3" font-family="Arial" font-size="14.00" fill="#666666">[BASE TABLE]</text>
<polygon fill="none" stroke="#000000" points="424,-672.5 424,-702.5 700,-702.5 700,-672.5 424,-672.5"/>
<text text-anchor="start" x="431" y="-683.9" font-family="Arial" font-size="14.00" fill="#000000">id </text>
<text text-anchor="start" x="445.7798" y="-683.9" font-family="Arial" font-size="14.00" fill="#666666">[integer]</text>
<polygon fill="none" stroke="#000000" points="424,-642.5 424,-672.5 700,-672.5 700,-642.5 424,-642.5"/>
<text text-anchor="start" x="431" y="-653.9" font-family="Arial" font-size="14.00" fill="#000000">active </text>
<text text-anchor="start" x="471.453" y="-653.9" font-family="Arial" font-size="14.00" fill="#666666">[boolean]</text>
<polygon fill="none" stroke="#000000" points="424,-612.5 424,-642.5 700,-642.5 700,-612.5 424,-612.5"/>
<text text-anchor="start" x="431" y="-623.9" font-family="Arial" font-size="14.00" fill="#000000">login </text>
<text text-anchor="start" x="464.4516" y="-623.9" font-family="Arial" font-size="14.00" fill="#666666">[varchar]</text>
<polygon fill="none" stroke="#000000" points="424,-582.5 424,-612.5 700,-612.5 700,-582.5 424,-582.5"/>
<text text-anchor="start" x="431" y="-593.9" font-family="Arial" font-size="14.00" fill="#000000">password </text>
<text text-anchor="start" x="494.7882" y="-593.9" font-family="Arial" font-size="14.00" fill="#666666">[varchar]</text>
<polygon fill="none" stroke="#000000" points="424,-552.5 424,-582.5 700,-582.5 700,-552.5 424,-552.5"/>
<text text-anchor="start" x="431" y="-563.9" font-family="Arial" font-size="14.00" fill="#000000">company_id </text>
<text text-anchor="start" x="510.3534" y="-563.9" font-family="Arial" font-size="14.00" fill="#666666">[integer]</text>
<polygon fill="none" stroke="#000000" points="424,-522.5 424,-552.5 700,-552.5 700,-522.5 424,-522.5"/>
<text text-anchor="start" x="431" y="-533.9" font-family="Arial" font-size="14.00" fill="#000000">partner_id </text>
<text text-anchor="start" x="497.9046" y="-533.9" font-family="Arial" font-size="14.00" fill="#666666">[integer]</text>
<polygon fill="none" stroke="#000000" points="424,-492.5 424,-522.5 700,-522.5 700,-492.5 424,-492.5"/>
<text text-anchor="start" x="430.5246" y="-503.9" font-family="Arial" font-size="14.00" fill="#000000">create_date </text>
<text text-anchor="start" x="508.3352" y="-503.9" font-family="Arial" font-size="14.00" fill="#666666">[timestamp without time zone]</text>
<polygon fill="none" stroke="#000000" points="424,-462.5 424,-492.5 700,-492.5 700,-462.5 424,-462.5"/>
<text text-anchor="start" x="431" y="-473.9" font-family="Arial" font-size="14.00" fill="#000000">signature </text>
<text text-anchor="start" x="492.4614" y="-473.9" font-family="Arial" font-size="14.00" fill="#666666">[text]</text>
<polygon fill="none" stroke="#000000" points="424,-432.5 424,-462.5 700,-462.5 700,-432.5 424,-432.5"/>
<text text-anchor="start" x="431" y="-443.9" font-family="Arial" font-size="14.00" fill="#000000">action_id </text>
<text text-anchor="start" x="490.9074" y="-443.9" font-family="Arial" font-size="14.00" fill="#666666">[integer]</text>
<polygon fill="none" stroke="#000000" points="424,-402.5 424,-432.5 700,-432.5 700,-402.5 424,-402.5"/>
<text text-anchor="start" x="431" y="-413.9" font-family="Arial" font-size="14.00" fill="#000000">share </text>
<text text-anchor="start" x="469.899" y="-413.9" font-family="Arial" font-size="14.00" fill="#666666">[boolean]</text>
<polygon fill="none" stroke="#000000" points="424,-372.5 424,-402.5 700,-402.5 700,-372.5 424,-372.5"/>
<text text-anchor="start" x="431" y="-383.9" font-family="Arial" font-size="14.00" fill="#000000">create_uid </text>
<text text-anchor="start" x="500.244" y="-383.9" font-family="Arial" font-size="14.00" fill="#666666">[integer]</text>
<polygon fill="none" stroke="#000000" points="424,-342.5 424,-372.5 700,-372.5 700,-342.5 424,-342.5"/>
<text text-anchor="start" x="431" y="-353.9" font-family="Arial" font-size="14.00" fill="#000000">write_uid </text>
<text text-anchor="start" x="490.892" y="-353.9" font-family="Arial" font-size="14.00" fill="#666666">[integer]</text>
<polygon fill="none" stroke="#000000" points="424,-312.5 424,-342.5 700,-342.5 700,-312.5 424,-312.5"/>
<text text-anchor="start" x="431" y="-323.9" font-family="Arial" font-size="14.00" fill="#000000">write_date </text>
<text text-anchor="start" x="499.4586" y="-323.9" font-family="Arial" font-size="14.00" fill="#666666">[timestamp without time zone]</text>
<polygon fill="none" stroke="#000000" points="424,-282.5 424,-312.5 700,-312.5 700,-282.5 424,-282.5"/>
<text text-anchor="start" x="431" y="-293.9" font-family="Arial" font-size="14.00" fill="#000000">alias_id </text>
<text text-anchor="start" x="482.3408" y="-293.9" font-family="Arial" font-size="14.00" fill="#666666">[integer]</text>
<polygon fill="none" stroke="#000000" points="424,-252.5 424,-282.5 700,-282.5 700,-252.5 424,-252.5"/>
<text text-anchor="start" x="431" y="-263.9" font-family="Arial" font-size="14.00" fill="#000000">notification_type </text>
<text text-anchor="start" x="536.0336" y="-263.9" font-family="Arial" font-size="14.00" fill="#666666">[varchar]</text>
<polygon fill="none" stroke="#000000" points="424,-222.5 424,-252.5 700,-252.5 700,-222.5 424,-222.5"/>
<text text-anchor="start" x="431" y="-233.9" font-family="Arial" font-size="14.00" fill="#000000">odoobot_state </text>
<text text-anchor="start" x="523.6058" y="-233.9" font-family="Arial" font-size="14.00" fill="#666666">[varchar]</text>
<polygon fill="none" stroke="#000000" points="424,-192.5 424,-222.5 700,-222.5 700,-192.5 424,-192.5"/>
<text text-anchor="start" x="431" y="-203.9" font-family="Arial" font-size="14.00" fill="#000000">sale_team_id </text>
<text text-anchor="start" x="518.1332" y="-203.9" font-family="Arial" font-size="14.00" fill="#666666">[integer]</text>
<polygon fill="none" stroke="#000000" points="424,-162.5 424,-192.5 700,-192.5 700,-162.5 424,-162.5"/>
<text text-anchor="start" x="431" y="-173.9" font-family="Arial" font-size="14.00" fill="#000000">target_sales_won </text>
<text text-anchor="start" x="544.589" y="-173.9" font-family="Arial" font-size="14.00" fill="#666666">[integer]</text>
<polygon fill="none" stroke="#000000" points="424,-132.5 424,-162.5 700,-162.5 700,-132.5 424,-132.5"/>
<text text-anchor="start" x="431" y="-143.9" font-family="Arial" font-size="14.00" fill="#000000">target_sales_done </text>
<text text-anchor="start" x="550.0476" y="-143.9" font-family="Arial" font-size="14.00" fill="#666666">[integer]</text>
<polygon fill="none" stroke="#000000" points="424,-102.5 424,-132.5 700,-132.5 700,-102.5 424,-102.5"/>
<text text-anchor="start" x="431" y="-113.9" font-family="Arial" font-size="14.00" fill="#000000">website_id </text>
<text text-anchor="start" x="501.014" y="-113.9" font-family="Arial" font-size="14.00" fill="#666666">[integer]</text>
<polygon fill="none" stroke="#000000" points="424,-72.5 424,-102.5 700,-102.5 700,-72.5 424,-72.5"/>
<text text-anchor="start" x="431" y="-83.9" font-family="Arial" font-size="14.00" fill="#000000">target_sales_invoiced </text>
<text text-anchor="start" x="570.2608" y="-83.9" font-family="Arial" font-size="14.00" fill="#666666">[integer]</text>
<polygon fill="none" stroke="#000000" points="424,-42.5 424,-72.5 700,-72.5 700,-42.5 424,-42.5"/>
<text text-anchor="start" x="431" y="-53.9" font-family="Arial" font-size="14.00" fill="#000000">pos_security_pin </text>
<text text-anchor="start" x="539.9158" y="-53.9" font-family="Arial" font-size="14.00" fill="#666666">[varchar(32)]</text>
</g>
<!-- public.blog_tag_category&#45;&gt;public.res_users -->
<g id="edge2" class="edge">
<title>public.blog_tag_category:create_uid&#45;&gt;public.res_users:id</title>
<path fill="none" stroke="#000000" d="M727.1824,-966.6238C781.3554,-956.669 758.8961,-864.3588 717,-817 630.0673,-718.7324 510.9327,-879.2676 424,-781 396.4657,-749.8756 382.4444,-687.5 424,-687.5"/>
<polygon fill="#000000" stroke="#000000" points="726.9632,-966.6426 716.6142,-963.0166 721.9816,-967.0713 717,-967.5 717,-967.5 717,-967.5 721.9816,-967.0713 717.3858,-971.9834 726.9632,-966.6426 726.9632,-966.6426"/>
<text text-anchor="start" x="723.657" y="-977.5" font-family="Arial" font-size="10.00" fill="#000000">FOREIGN KEY (create_uid) REFERENCES res_users(id) ON DELETE SET NULL</text>
</g>
<!-- public.blog_tag_category&#45;&gt;public.res_users -->
<g id="edge3" class="edge">
<title>public.blog_tag_category:write_uid&#45;&gt;public.res_users:id</title>
<path fill="none" stroke="#000000" d="M726.9277,-905.9828C754.5626,-896.4457 741.1523,-844.3015 717,-817 630.0673,-718.7324 510.9327,-879.2676 424,-781 396.4657,-749.8756 382.4444,-687.5 424,-687.5"/>
<polygon fill="#000000" stroke="#000000" points="726.8852,-905.9892 716.3201,-903.0516 721.9426,-906.7446 717,-907.5 717,-907.5 717,-907.5 721.9426,-906.7446 717.6799,-911.9484 726.8852,-905.9892 726.8852,-905.9892"/>
<text text-anchor="start" x="723.997" y="-917.5" font-family="Arial" font-size="10.00" fill="#000000">FOREIGN KEY (write_uid) REFERENCES res_users(id) ON DELETE SET NULL</text>
</g>
<!-- public.blog_tag -->
<g id="node2" class="node">
<title>public.blog_tag</title>
<polygon fill="#efefef" stroke="transparent" points="424,-1532.5 424,-1567.5 700,-1567.5 700,-1532.5 424,-1532.5"/>
<polygon fill="none" stroke="#000000" points="424,-1532.5 424,-1567.5 700,-1567.5 700,-1532.5 424,-1532.5"/>
<text text-anchor="start" x="452.8517" y="-1545.3" font-family="Arial Bold" font-size="18.00" fill="#000000">public.blog_tag</text>
<text text-anchor="start" x="573.8945" y="-1545.3" font-family="Arial" font-size="14.00" fill="#000000"> </text>
<text text-anchor="start" x="577.7851" y="-1545.3" font-family="Arial" font-size="14.00" fill="#666666">[BASE TABLE]</text>
<polygon fill="none" stroke="#000000" points="424,-1502.5 424,-1532.5 700,-1532.5 700,-1502.5 424,-1502.5"/>
<text text-anchor="start" x="431" y="-1513.9" font-family="Arial" font-size="14.00" fill="#000000">id </text>
<text text-anchor="start" x="445.7798" y="-1513.9" font-family="Arial" font-size="14.00" fill="#666666">[integer]</text>
<polygon fill="none" stroke="#000000" points="424,-1472.5 424,-1502.5 700,-1502.5 700,-1472.5 424,-1472.5"/>
<text text-anchor="start" x="431" y="-1483.9" font-family="Arial" font-size="14.00" fill="#000000">website_meta_title </text>
<text text-anchor="start" x="550.8008" y="-1483.9" font-family="Arial" font-size="14.00" fill="#666666">[varchar]</text>
<polygon fill="none" stroke="#000000" points="424,-1442.5 424,-1472.5 700,-1472.5 700,-1442.5 424,-1442.5"/>
<text text-anchor="start" x="431" y="-1453.9" font-family="Arial" font-size="14.00" fill="#000000">website_meta_description </text>
<text text-anchor="start" x="596.7012" y="-1453.9" font-family="Arial" font-size="14.00" fill="#666666">[text]</text>
<polygon fill="none" stroke="#000000" points="424,-1412.5 424,-1442.5 700,-1442.5 700,-1412.5 424,-1412.5"/>
<text text-anchor="start" x="431" y="-1423.9" font-family="Arial" font-size="14.00" fill="#000000">website_meta_keywords </text>
<text text-anchor="start" x="588.1388" y="-1423.9" font-family="Arial" font-size="14.00" fill="#666666">[varchar]</text>
<polygon fill="none" stroke="#000000" points="424,-1382.5 424,-1412.5 700,-1412.5 700,-1382.5 424,-1382.5"/>
<text text-anchor="start" x="431" y="-1393.9" font-family="Arial" font-size="14.00" fill="#000000">website_meta_og_img </text>
<text text-anchor="start" x="574.9214" y="-1393.9" font-family="Arial" font-size="14.00" fill="#666666">[varchar]</text>
<polygon fill="none" stroke="#000000" points="424,-1352.5 424,-1382.5 700,-1382.5 700,-1352.5 424,-1352.5"/>
<text text-anchor="start" x="431" y="-1363.9" font-family="Arial" font-size="14.00" fill="#000000">name </text>
<text text-anchor="start" x="469.899" y="-1363.9" font-family="Arial" font-size="14.00" fill="#666666">[varchar]</text>
<polygon fill="none" stroke="#000000" points="424,-1322.5 424,-1352.5 700,-1352.5 700,-1322.5 424,-1322.5"/>
<text text-anchor="start" x="431" y="-1333.9" font-family="Arial" font-size="14.00" fill="#000000">category_id </text>
<text text-anchor="start" x="507.244" y="-1333.9" font-family="Arial" font-size="14.00" fill="#666666">[integer]</text>
<polygon fill="none" stroke="#000000" points="424,-1292.5 424,-1322.5 700,-1322.5 700,-1292.5 424,-1292.5"/>
<text text-anchor="start" x="431" y="-1303.9" font-family="Arial" font-size="14.00" fill="#000000">create_uid </text>
<text text-anchor="start" x="500.244" y="-1303.9" font-family="Arial" font-size="14.00" fill="#666666">[integer]</text>
<polygon fill="none" stroke="#000000" points="424,-1262.5 424,-1292.5 700,-1292.5 700,-1262.5 424,-1262.5"/>
<text text-anchor="start" x="430.5246" y="-1273.9" font-family="Arial" font-size="14.00" fill="#000000">create_date </text>
<text text-anchor="start" x="508.3352" y="-1273.9" font-family="Arial" font-size="14.00" fill="#666666">[timestamp without time zone]</text>
<polygon fill="none" stroke="#000000" points="424,-1232.5 424,-1262.5 700,-1262.5 700,-1232.5 424,-1232.5"/>
<text text-anchor="start" x="431" y="-1243.9" font-family="Arial" font-size="14.00" fill="#000000">write_uid </text>
<text text-anchor="start" x="490.892" y="-1243.9" font-family="Arial" font-size="14.00" fill="#666666">[integer]</text>
<polygon fill="none" stroke="#000000" points="424,-1202.5 424,-1232.5 700,-1232.5 700,-1202.5 424,-1202.5"/>
<text text-anchor="start" x="431" y="-1213.9" font-family="Arial" font-size="14.00" fill="#000000">write_date </text>
<text text-anchor="start" x="499.4586" y="-1213.9" font-family="Arial" font-size="14.00" fill="#666666">[timestamp without time zone]</text>
</g>
<!-- public.blog_tag&#45;&gt;public.blog_tag_category -->
<g id="edge1" class="edge">
<title>public.blog_tag:category_id&#45;&gt;public.blog_tag_category:id</title>
<path fill="none" stroke="#000000" d="M414,-1336.7992C347.5543,-1326.981 374.0771,-1216.4321 424,-1160 510.9327,-1061.7324 630.0673,-1222.2676 717,-1124 745.4177,-1091.877 759.8889,-1027.5 717,-1027.5"/>
<polygon fill="#000000" stroke="#000000" points="414.0245,-1336.8009 423.6854,-1341.989 419.0122,-1337.1504 424,-1337.5 424,-1337.5 424,-1337.5 419.0122,-1337.1504 424.3146,-1333.011 414.0245,-1336.8009 414.0245,-1336.8009"/>
<text text-anchor="start" x="6.9765" y="-1347.5" font-family="Arial" font-size="10.00" fill="#000000">FOREIGN KEY (category_id) REFERENCES blog_tag_category(id) ON DELETE SET NULL</text>
</g>
</g>
</svg>
