<?xml version="1.0" encoding="UTF-8" standalone="no"?>
<!DOCTYPE svg PUBLIC "-//W3C//DTD SVG 1.1//EN"
 "http://www.w3.org/Graphics/SVG/1.1/DTD/svg11.dtd">
<!-- Generated by graphviz version 2.40.1 (20161225.0304)
 -->
<!-- Title: public.ir_exports_line Pages: 1 -->
<svg width="1089pt" height="1162pt"
 viewBox="0.00 0.00 1089.00 1162.00" xmlns="http://www.w3.org/2000/svg" xmlns:xlink="http://www.w3.org/1999/xlink">
<g id="graph0" class="graph" transform="scale(1 1) rotate(0) translate(4 1158)">
<title>public.ir_exports_line</title>
<polygon fill="#ffffff" stroke="transparent" points="-4,4 -4,-1158 1085,-1158 1085,4 -4,4"/>
<!-- public.ir_exports_line -->
<g id="node1" class="node">
<title>public.ir_exports_line</title>
<polygon fill="#efefef" stroke="transparent" points="421,-1072.5 421,-1107.5 701,-1107.5 701,-1072.5 421,-1072.5"/>
<polygon fill="none" stroke="#000000" points="421,-1072.5 421,-1107.5 701,-1107.5 701,-1072.5 421,-1072.5"/>
<text text-anchor="start" x="427.8622" y="-1085.3" font-family="Arial Bold" font-size="18.00" fill="#000000">public.ir_exports_line</text>
<text text-anchor="start" x="596.884" y="-1085.3" font-family="Arial" font-size="14.00" fill="#000000"> </text>
<text text-anchor="start" x="600.7746" y="-1085.3" font-family="Arial" font-size="14.00" fill="#666666">[BASE TABLE]</text>
<polygon fill="none" stroke="#000000" points="421,-1042.5 421,-1072.5 701,-1072.5 701,-1042.5 421,-1042.5"/>
<text text-anchor="start" x="428" y="-1053.9" font-family="Arial" font-size="14.00" fill="#000000">id </text>
<text text-anchor="start" x="442.7798" y="-1053.9" font-family="Arial" font-size="14.00" fill="#666666">[integer]</text>
<polygon fill="none" stroke="#000000" points="421,-1012.5 421,-1042.5 701,-1042.5 701,-1012.5 421,-1012.5"/>
<text text-anchor="start" x="428" y="-1023.9" font-family="Arial" font-size="14.00" fill="#000000">name </text>
<text text-anchor="start" x="466.899" y="-1023.9" font-family="Arial" font-size="14.00" fill="#666666">[varchar]</text>
<polygon fill="none" stroke="#000000" points="421,-982.5 421,-1012.5 701,-1012.5 701,-982.5 421,-982.5"/>
<text text-anchor="start" x="428" y="-993.9" font-family="Arial" font-size="14.00" fill="#000000">export_id </text>
<text text-anchor="start" x="489.4614" y="-993.9" font-family="Arial" font-size="14.00" fill="#666666">[integer]</text>
<polygon fill="none" stroke="#000000" points="421,-952.5 421,-982.5 701,-982.5 701,-952.5 421,-952.5"/>
<text text-anchor="start" x="428" y="-963.9" font-family="Arial" font-size="14.00" fill="#000000">create_uid </text>
<text text-anchor="start" x="497.244" y="-963.9" font-family="Arial" font-size="14.00" fill="#666666">[integer]</text>
<polygon fill="none" stroke="#000000" points="421,-922.5 421,-952.5 701,-952.5 701,-922.5 421,-922.5"/>
<text text-anchor="start" x="428" y="-933.9" font-family="Arial" font-size="14.00" fill="#000000">create_date </text>
<text text-anchor="start" x="505.8106" y="-933.9" font-family="Arial" font-size="14.00" fill="#666666">[timestamp without time zone]</text>
<polygon fill="none" stroke="#000000" points="421,-892.5 421,-922.5 701,-922.5 701,-892.5 421,-892.5"/>
<text text-anchor="start" x="428" y="-903.9" font-family="Arial" font-size="14.00" fill="#000000">write_uid </text>
<text text-anchor="start" x="487.892" y="-903.9" font-family="Arial" font-size="14.00" fill="#666666">[integer]</text>
<polygon fill="none" stroke="#000000" points="421,-862.5 421,-892.5 701,-892.5 701,-862.5 421,-862.5"/>
<text text-anchor="start" x="428" y="-873.9" font-family="Arial" font-size="14.00" fill="#000000">write_date </text>
<text text-anchor="start" x="496.4586" y="-873.9" font-family="Arial" font-size="14.00" fill="#666666">[timestamp without time zone]</text>
<polygon fill="none" stroke="#000000" stroke-width="3" points="419.5,-861.5 419.5,-1109.5 702.5,-1109.5 702.5,-861.5 419.5,-861.5"/>
</g>
<!-- public.ir_exports -->
<g id="node2" class="node">
<title>public.ir_exports</title>
<polygon fill="#efefef" stroke="transparent" points="43,-477.5 43,-512.5 319,-512.5 319,-477.5 43,-477.5"/>
<polygon fill="none" stroke="#000000" points="43,-477.5 43,-512.5 319,-512.5 319,-477.5 43,-477.5"/>
<text text-anchor="start" x="66.8657" y="-490.3" font-family="Arial Bold" font-size="18.00" fill="#000000">public.ir_exports</text>
<text text-anchor="start" x="197.8805" y="-490.3" font-family="Arial" font-size="14.00" fill="#000000"> </text>
<text text-anchor="start" x="201.7711" y="-490.3" font-family="Arial" font-size="14.00" fill="#666666">[BASE TABLE]</text>
<polygon fill="none" stroke="#000000" points="43,-447.5 43,-477.5 319,-477.5 319,-447.5 43,-447.5"/>
<text text-anchor="start" x="50" y="-458.9" font-family="Arial" font-size="14.00" fill="#000000">id </text>
<text text-anchor="start" x="64.7798" y="-458.9" font-family="Arial" font-size="14.00" fill="#666666">[integer]</text>
<polygon fill="none" stroke="#000000" points="43,-417.5 43,-447.5 319,-447.5 319,-417.5 43,-417.5"/>
<text text-anchor="start" x="50" y="-428.9" font-family="Arial" font-size="14.00" fill="#000000">name </text>
<text text-anchor="start" x="88.899" y="-428.9" font-family="Arial" font-size="14.00" fill="#666666">[varchar]</text>
<polygon fill="none" stroke="#000000" points="43,-387.5 43,-417.5 319,-417.5 319,-387.5 43,-387.5"/>
<text text-anchor="start" x="50" y="-398.9" font-family="Arial" font-size="14.00" fill="#000000">resource </text>
<text text-anchor="start" x="108.3422" y="-398.9" font-family="Arial" font-size="14.00" fill="#666666">[varchar]</text>
<polygon fill="none" stroke="#000000" points="43,-357.5 43,-387.5 319,-387.5 319,-357.5 43,-357.5"/>
<text text-anchor="start" x="50" y="-368.9" font-family="Arial" font-size="14.00" fill="#000000">create_uid </text>
<text text-anchor="start" x="119.244" y="-368.9" font-family="Arial" font-size="14.00" fill="#666666">[integer]</text>
<polygon fill="none" stroke="#000000" points="43,-327.5 43,-357.5 319,-357.5 319,-327.5 43,-327.5"/>
<text text-anchor="start" x="49.5246" y="-338.9" font-family="Arial" font-size="14.00" fill="#000000">create_date </text>
<text text-anchor="start" x="127.3352" y="-338.9" font-family="Arial" font-size="14.00" fill="#666666">[timestamp without time zone]</text>
<polygon fill="none" stroke="#000000" points="43,-297.5 43,-327.5 319,-327.5 319,-297.5 43,-297.5"/>
<text text-anchor="start" x="50" y="-308.9" font-family="Arial" font-size="14.00" fill="#000000">write_uid </text>
<text text-anchor="start" x="109.892" y="-308.9" font-family="Arial" font-size="14.00" fill="#666666">[integer]</text>
<polygon fill="none" stroke="#000000" points="43,-267.5 43,-297.5 319,-297.5 319,-267.5 43,-267.5"/>
<text text-anchor="start" x="50" y="-278.9" font-family="Arial" font-size="14.00" fill="#000000">write_date </text>
<text text-anchor="start" x="118.4586" y="-278.9" font-family="Arial" font-size="14.00" fill="#666666">[timestamp without time zone]</text>
</g>
<!-- public.ir_exports_line&#45;&gt;public.ir_exports -->
<g id="edge1" class="edge">
<title>public.ir_exports_line:export_id&#45;&gt;public.ir_exports:id</title>
<path fill="none" stroke="#000000" d="M410.9356,-997.0383C327.0335,-988.8863 389.3882,-874.3937 371,-781 357.1461,-710.636 390.7149,-462.5 319,-462.5"/>
<polygon fill="#000000" stroke="#000000" points="411.0105,-997.0416 420.7937,-1001.9953 416.0053,-997.2708 421,-997.5 421,-997.5 421,-997.5 416.0053,-997.2708 421.2063,-993.0047 411.0105,-997.0416 411.0105,-997.0416"/>
<text text-anchor="start" x="53.162" y="-1007.5" font-family="Arial" font-size="10.00" fill="#000000">FOREIGN KEY (export_id) REFERENCES ir_exports(id) ON DELETE CASCADE</text>
</g>
<!-- public.res_users -->
<g id="node3" class="node">
<title>public.res_users</title>
<polygon fill="#efefef" stroke="transparent" points="423,-702.5 423,-737.5 699,-737.5 699,-702.5 423,-702.5"/>
<polygon fill="none" stroke="#000000" points="423,-702.5 423,-737.5 699,-737.5 699,-702.5 423,-702.5"/>
<text text-anchor="start" x="446.8639" y="-715.3" font-family="Arial Bold" font-size="18.00" fill="#000000">public.res_users</text>
<text text-anchor="start" x="577.8823" y="-715.3" font-family="Arial" font-size="14.00" fill="#000000"> </text>
<text text-anchor="start" x="581.7729" y="-715.3" font-family="Arial" font-size="14.00" fill="#666666">[BASE TABLE]</text>
<polygon fill="none" stroke="#000000" points="423,-672.5 423,-702.5 699,-702.5 699,-672.5 423,-672.5"/>
<text text-anchor="start" x="430" y="-683.9" font-family="Arial" font-size="14.00" fill="#000000">id </text>
<text text-anchor="start" x="444.7798" y="-683.9" font-family="Arial" font-size="14.00" fill="#666666">[integer]</text>
<polygon fill="none" stroke="#000000" points="423,-642.5 423,-672.5 699,-672.5 699,-642.5 423,-642.5"/>
<text text-anchor="start" x="430" y="-653.9" font-family="Arial" font-size="14.00" fill="#000000">active </text>
<text text-anchor="start" x="470.453" y="-653.9" font-family="Arial" font-size="14.00" fill="#666666">[boolean]</text>
<polygon fill="none" stroke="#000000" points="423,-612.5 423,-642.5 699,-642.5 699,-612.5 423,-612.5"/>
<text text-anchor="start" x="430" y="-623.9" font-family="Arial" font-size="14.00" fill="#000000">login </text>
<text text-anchor="start" x="463.4516" y="-623.9" font-family="Arial" font-size="14.00" fill="#666666">[varchar]</text>
<polygon fill="none" stroke="#000000" points="423,-582.5 423,-612.5 699,-612.5 699,-582.5 423,-582.5"/>
<text text-anchor="start" x="430" y="-593.9" font-family="Arial" font-size="14.00" fill="#000000">password </text>
<text text-anchor="start" x="493.7882" y="-593.9" font-family="Arial" font-size="14.00" fill="#666666">[varchar]</text>
<polygon fill="none" stroke="#000000" points="423,-552.5 423,-582.5 699,-582.5 699,-552.5 423,-552.5"/>
<text text-anchor="start" x="430" y="-563.9" font-family="Arial" font-size="14.00" fill="#000000">company_id </text>
<text text-anchor="start" x="509.3534" y="-563.9" font-family="Arial" font-size="14.00" fill="#666666">[integer]</text>
<polygon fill="none" stroke="#000000" points="423,-522.5 423,-552.5 699,-552.5 699,-522.5 423,-522.5"/>
<text text-anchor="start" x="430" y="-533.9" font-family="Arial" font-size="14.00" fill="#000000">partner_id </text>
<text text-anchor="start" x="496.9046" y="-533.9" font-family="Arial" font-size="14.00" fill="#666666">[integer]</text>
<polygon fill="none" stroke="#000000" points="423,-492.5 423,-522.5 699,-522.5 699,-492.5 423,-492.5"/>
<text text-anchor="start" x="429.5246" y="-503.9" font-family="Arial" font-size="14.00" fill="#000000">create_date </text>
<text text-anchor="start" x="507.3352" y="-503.9" font-family="Arial" font-size="14.00" fill="#666666">[timestamp without time zone]</text>
<polygon fill="none" stroke="#000000" points="423,-462.5 423,-492.5 699,-492.5 699,-462.5 423,-462.5"/>
<text text-anchor="start" x="430" y="-473.9" font-family="Arial" font-size="14.00" fill="#000000">signature </text>
<text text-anchor="start" x="491.4614" y="-473.9" font-family="Arial" font-size="14.00" fill="#666666">[text]</text>
<polygon fill="none" stroke="#000000" points="423,-432.5 423,-462.5 699,-462.5 699,-432.5 423,-432.5"/>
<text text-anchor="start" x="430" y="-443.9" font-family="Arial" font-size="14.00" fill="#000000">action_id </text>
<text text-anchor="start" x="489.9074" y="-443.9" font-family="Arial" font-size="14.00" fill="#666666">[integer]</text>
<polygon fill="none" stroke="#000000" points="423,-402.5 423,-432.5 699,-432.5 699,-402.5 423,-402.5"/>
<text text-anchor="start" x="430" y="-413.9" font-family="Arial" font-size="14.00" fill="#000000">share </text>
<text text-anchor="start" x="468.899" y="-413.9" font-family="Arial" font-size="14.00" fill="#666666">[boolean]</text>
<polygon fill="none" stroke="#000000" points="423,-372.5 423,-402.5 699,-402.5 699,-372.5 423,-372.5"/>
<text text-anchor="start" x="430" y="-383.9" font-family="Arial" font-size="14.00" fill="#000000">create_uid </text>
<text text-anchor="start" x="499.244" y="-383.9" font-family="Arial" font-size="14.00" fill="#666666">[integer]</text>
<polygon fill="none" stroke="#000000" points="423,-342.5 423,-372.5 699,-372.5 699,-342.5 423,-342.5"/>
<text text-anchor="start" x="430" y="-353.9" font-family="Arial" font-size="14.00" fill="#000000">write_uid </text>
<text text-anchor="start" x="489.892" y="-353.9" font-family="Arial" font-size="14.00" fill="#666666">[integer]</text>
<polygon fill="none" stroke="#000000" points="423,-312.5 423,-342.5 699,-342.5 699,-312.5 423,-312.5"/>
<text text-anchor="start" x="430" y="-323.9" font-family="Arial" font-size="14.00" fill="#000000">write_date </text>
<text text-anchor="start" x="498.4586" y="-323.9" font-family="Arial" font-size="14.00" fill="#666666">[timestamp without time zone]</text>
<polygon fill="none" stroke="#000000" points="423,-282.5 423,-312.5 699,-312.5 699,-282.5 423,-282.5"/>
<text text-anchor="start" x="430" y="-293.9" font-family="Arial" font-size="14.00" fill="#000000">alias_id </text>
<text text-anchor="start" x="481.3408" y="-293.9" font-family="Arial" font-size="14.00" fill="#666666">[integer]</text>
<polygon fill="none" stroke="#000000" points="423,-252.5 423,-282.5 699,-282.5 699,-252.5 423,-252.5"/>
<text text-anchor="start" x="430" y="-263.9" font-family="Arial" font-size="14.00" fill="#000000">notification_type </text>
<text text-anchor="start" x="535.0336" y="-263.9" font-family="Arial" font-size="14.00" fill="#666666">[varchar]</text>
<polygon fill="none" stroke="#000000" points="423,-222.5 423,-252.5 699,-252.5 699,-222.5 423,-222.5"/>
<text text-anchor="start" x="430" y="-233.9" font-family="Arial" font-size="14.00" fill="#000000">odoobot_state </text>
<text text-anchor="start" x="522.6058" y="-233.9" font-family="Arial" font-size="14.00" fill="#666666">[varchar]</text>
<polygon fill="none" stroke="#000000" points="423,-192.5 423,-222.5 699,-222.5 699,-192.5 423,-192.5"/>
<text text-anchor="start" x="430" y="-203.9" font-family="Arial" font-size="14.00" fill="#000000">sale_team_id </text>
<text text-anchor="start" x="517.1332" y="-203.9" font-family="Arial" font-size="14.00" fill="#666666">[integer]</text>
<polygon fill="none" stroke="#000000" points="423,-162.5 423,-192.5 699,-192.5 699,-162.5 423,-162.5"/>
<text text-anchor="start" x="430" y="-173.9" font-family="Arial" font-size="14.00" fill="#000000">target_sales_won </text>
<text text-anchor="start" x="543.589" y="-173.9" font-family="Arial" font-size="14.00" fill="#666666">[integer]</text>
<polygon fill="none" stroke="#000000" points="423,-132.5 423,-162.5 699,-162.5 699,-132.5 423,-132.5"/>
<text text-anchor="start" x="430" y="-143.9" font-family="Arial" font-size="14.00" fill="#000000">target_sales_done </text>
<text text-anchor="start" x="549.0476" y="-143.9" font-family="Arial" font-size="14.00" fill="#666666">[integer]</text>
<polygon fill="none" stroke="#000000" points="423,-102.5 423,-132.5 699,-132.5 699,-102.5 423,-102.5"/>
<text text-anchor="start" x="430" y="-113.9" font-family="Arial" font-size="14.00" fill="#000000">website_id </text>
<text text-anchor="start" x="500.014" y="-113.9" font-family="Arial" font-size="14.00" fill="#666666">[integer]</text>
<polygon fill="none" stroke="#000000" points="423,-72.5 423,-102.5 699,-102.5 699,-72.5 423,-72.5"/>
<text text-anchor="start" x="430" y="-83.9" font-family="Arial" font-size="14.00" fill="#000000">target_sales_invoiced </text>
<text text-anchor="start" x="569.2608" y="-83.9" font-family="Arial" font-size="14.00" fill="#666666">[integer]</text>
<polygon fill="none" stroke="#000000" points="423,-42.5 423,-72.5 699,-72.5 699,-42.5 423,-42.5"/>
<text text-anchor="start" x="430" y="-53.9" font-family="Arial" font-size="14.00" fill="#000000">pos_security_pin </text>
<text text-anchor="start" x="538.9158" y="-53.9" font-family="Arial" font-size="14.00" fill="#666666">[varchar(32)]</text>
</g>
<!-- public.ir_exports_line&#45;&gt;public.res_users -->
<g id="edge2" class="edge">
<title>public.ir_exports_line:create_uid&#45;&gt;public.res_users:id</title>
<path fill="none" stroke="#000000" d="M710.9558,-964.9069C762.804,-936.6795 757.6994,-687.5 699,-687.5"/>
<polygon fill="#000000" stroke="#000000" points="710.6771,-964.9794 699.8657,-963.1453 705.8386,-966.2397 701,-967.5 701,-967.5 701,-967.5 705.8386,-966.2397 702.1343,-971.8547 710.6771,-964.9794 710.6771,-964.9794"/>
<text text-anchor="start" x="707.657" y="-977.5" font-family="Arial" font-size="10.00" fill="#000000">FOREIGN KEY (create_uid) REFERENCES res_users(id) ON DELETE SET NULL</text>
</g>
<!-- public.ir_exports_line&#45;&gt;public.res_users -->
<g id="edge3" class="edge">
<title>public.ir_exports_line:write_uid&#45;&gt;public.res_users:id</title>
<path fill="none" stroke="#000000" d="M711.2088,-906.6591C798.5122,-891.8888 793.2487,-687.5 699,-687.5"/>
<polygon fill="#000000" stroke="#000000" points="710.9662,-906.679 700.6305,-903.0152 705.9831,-907.0895 701,-907.5 701,-907.5 701,-907.5 705.9831,-907.0895 701.3695,-911.9848 710.9662,-906.679 710.9662,-906.679"/>
<text text-anchor="start" x="707.997" y="-917.5" font-family="Arial" font-size="10.00" fill="#000000">FOREIGN KEY (write_uid) REFERENCES res_users(id) ON DELETE SET NULL</text>
</g>
</g>
</svg>
