<?xml version="1.0" encoding="UTF-8" standalone="no"?>
<!DOCTYPE svg PUBLIC "-//W3C//DTD SVG 1.1//EN"
 "http://www.w3.org/Graphics/SVG/1.1/DTD/svg11.dtd">
<!-- Generated by graphviz version 2.40.1 (20161225.0304)
 -->
<!-- Title: public.hr_employee_category Pages: 1 -->
<svg width="846pt" height="1379pt"
 viewBox="0.00 0.00 846.00 1379.00" xmlns="http://www.w3.org/2000/svg" xmlns:xlink="http://www.w3.org/1999/xlink">
<g id="graph0" class="graph" transform="scale(1 1) rotate(0) translate(4 1375)">
<title>public.hr_employee_category</title>
<polygon fill="#ffffff" stroke="transparent" points="-4,4 -4,-1375 842,-1375 842,4 -4,4"/>
<!-- public.hr_employee_category -->
<g id="node1" class="node">
<title>public.hr_employee_category</title>
<polygon fill="#efefef" stroke="transparent" points="46,-1072.5 46,-1107.5 392,-1107.5 392,-1072.5 46,-1072.5"/>
<polygon fill="none" stroke="#000000" points="46,-1072.5 46,-1107.5 392,-1107.5 392,-1072.5 46,-1072.5"/>
<text text-anchor="start" x="52.8448" y="-1085.3" font-family="Arial Bold" font-size="18.00" fill="#000000">public.hr_employee_category</text>
<text text-anchor="start" x="287.9014" y="-1085.3" font-family="Arial" font-size="14.00" fill="#000000"> </text>
<text text-anchor="start" x="291.792" y="-1085.3" font-family="Arial" font-size="14.00" fill="#666666">[BASE TABLE]</text>
<polygon fill="none" stroke="#000000" points="46,-1042.5 46,-1072.5 392,-1072.5 392,-1042.5 46,-1042.5"/>
<text text-anchor="start" x="53" y="-1053.9" font-family="Arial" font-size="14.00" fill="#000000">id </text>
<text text-anchor="start" x="67.7798" y="-1053.9" font-family="Arial" font-size="14.00" fill="#666666">[integer]</text>
<polygon fill="none" stroke="#000000" points="46,-1012.5 46,-1042.5 392,-1042.5 392,-1012.5 46,-1012.5"/>
<text text-anchor="start" x="53" y="-1023.9" font-family="Arial" font-size="14.00" fill="#000000">name </text>
<text text-anchor="start" x="91.899" y="-1023.9" font-family="Arial" font-size="14.00" fill="#666666">[varchar]</text>
<polygon fill="none" stroke="#000000" points="46,-982.5 46,-1012.5 392,-1012.5 392,-982.5 46,-982.5"/>
<text text-anchor="start" x="53" y="-993.9" font-family="Arial" font-size="14.00" fill="#000000">color </text>
<text text-anchor="start" x="87.223" y="-993.9" font-family="Arial" font-size="14.00" fill="#666666">[integer]</text>
<polygon fill="none" stroke="#000000" points="46,-952.5 46,-982.5 392,-982.5 392,-952.5 46,-952.5"/>
<text text-anchor="start" x="53" y="-963.9" font-family="Arial" font-size="14.00" fill="#000000">create_uid </text>
<text text-anchor="start" x="122.244" y="-963.9" font-family="Arial" font-size="14.00" fill="#666666">[integer]</text>
<polygon fill="none" stroke="#000000" points="46,-922.5 46,-952.5 392,-952.5 392,-922.5 46,-922.5"/>
<text text-anchor="start" x="53" y="-933.9" font-family="Arial" font-size="14.00" fill="#000000">create_date </text>
<text text-anchor="start" x="130.8106" y="-933.9" font-family="Arial" font-size="14.00" fill="#666666">[timestamp without time zone]</text>
<polygon fill="none" stroke="#000000" points="46,-892.5 46,-922.5 392,-922.5 392,-892.5 46,-892.5"/>
<text text-anchor="start" x="53" y="-903.9" font-family="Arial" font-size="14.00" fill="#000000">write_uid </text>
<text text-anchor="start" x="112.892" y="-903.9" font-family="Arial" font-size="14.00" fill="#666666">[integer]</text>
<polygon fill="none" stroke="#000000" points="46,-862.5 46,-892.5 392,-892.5 392,-862.5 46,-862.5"/>
<text text-anchor="start" x="53" y="-873.9" font-family="Arial" font-size="14.00" fill="#000000">write_date </text>
<text text-anchor="start" x="121.4586" y="-873.9" font-family="Arial" font-size="14.00" fill="#666666">[timestamp without time zone]</text>
<polygon fill="none" stroke="#000000" stroke-width="3" points="44.5,-861.5 44.5,-1109.5 393.5,-1109.5 393.5,-861.5 44.5,-861.5"/>
</g>
<!-- public.res_users -->
<g id="node3" class="node">
<title>public.res_users</title>
<polygon fill="#efefef" stroke="transparent" points="81,-702.5 81,-737.5 357,-737.5 357,-702.5 81,-702.5"/>
<polygon fill="none" stroke="#000000" points="81,-702.5 81,-737.5 357,-737.5 357,-702.5 81,-702.5"/>
<text text-anchor="start" x="104.8639" y="-715.3" font-family="Arial Bold" font-size="18.00" fill="#000000">public.res_users</text>
<text text-anchor="start" x="235.8823" y="-715.3" font-family="Arial" font-size="14.00" fill="#000000"> </text>
<text text-anchor="start" x="239.7729" y="-715.3" font-family="Arial" font-size="14.00" fill="#666666">[BASE TABLE]</text>
<polygon fill="none" stroke="#000000" points="81,-672.5 81,-702.5 357,-702.5 357,-672.5 81,-672.5"/>
<text text-anchor="start" x="88" y="-683.9" font-family="Arial" font-size="14.00" fill="#000000">id </text>
<text text-anchor="start" x="102.7798" y="-683.9" font-family="Arial" font-size="14.00" fill="#666666">[integer]</text>
<polygon fill="none" stroke="#000000" points="81,-642.5 81,-672.5 357,-672.5 357,-642.5 81,-642.5"/>
<text text-anchor="start" x="88" y="-653.9" font-family="Arial" font-size="14.00" fill="#000000">active </text>
<text text-anchor="start" x="128.453" y="-653.9" font-family="Arial" font-size="14.00" fill="#666666">[boolean]</text>
<polygon fill="none" stroke="#000000" points="81,-612.5 81,-642.5 357,-642.5 357,-612.5 81,-612.5"/>
<text text-anchor="start" x="88" y="-623.9" font-family="Arial" font-size="14.00" fill="#000000">login </text>
<text text-anchor="start" x="121.4516" y="-623.9" font-family="Arial" font-size="14.00" fill="#666666">[varchar]</text>
<polygon fill="none" stroke="#000000" points="81,-582.5 81,-612.5 357,-612.5 357,-582.5 81,-582.5"/>
<text text-anchor="start" x="88" y="-593.9" font-family="Arial" font-size="14.00" fill="#000000">password </text>
<text text-anchor="start" x="151.7882" y="-593.9" font-family="Arial" font-size="14.00" fill="#666666">[varchar]</text>
<polygon fill="none" stroke="#000000" points="81,-552.5 81,-582.5 357,-582.5 357,-552.5 81,-552.5"/>
<text text-anchor="start" x="88" y="-563.9" font-family="Arial" font-size="14.00" fill="#000000">company_id </text>
<text text-anchor="start" x="167.3534" y="-563.9" font-family="Arial" font-size="14.00" fill="#666666">[integer]</text>
<polygon fill="none" stroke="#000000" points="81,-522.5 81,-552.5 357,-552.5 357,-522.5 81,-522.5"/>
<text text-anchor="start" x="88" y="-533.9" font-family="Arial" font-size="14.00" fill="#000000">partner_id </text>
<text text-anchor="start" x="154.9046" y="-533.9" font-family="Arial" font-size="14.00" fill="#666666">[integer]</text>
<polygon fill="none" stroke="#000000" points="81,-492.5 81,-522.5 357,-522.5 357,-492.5 81,-492.5"/>
<text text-anchor="start" x="87.5246" y="-503.9" font-family="Arial" font-size="14.00" fill="#000000">create_date </text>
<text text-anchor="start" x="165.3352" y="-503.9" font-family="Arial" font-size="14.00" fill="#666666">[timestamp without time zone]</text>
<polygon fill="none" stroke="#000000" points="81,-462.5 81,-492.5 357,-492.5 357,-462.5 81,-462.5"/>
<text text-anchor="start" x="88" y="-473.9" font-family="Arial" font-size="14.00" fill="#000000">signature </text>
<text text-anchor="start" x="149.4614" y="-473.9" font-family="Arial" font-size="14.00" fill="#666666">[text]</text>
<polygon fill="none" stroke="#000000" points="81,-432.5 81,-462.5 357,-462.5 357,-432.5 81,-432.5"/>
<text text-anchor="start" x="88" y="-443.9" font-family="Arial" font-size="14.00" fill="#000000">action_id </text>
<text text-anchor="start" x="147.9074" y="-443.9" font-family="Arial" font-size="14.00" fill="#666666">[integer]</text>
<polygon fill="none" stroke="#000000" points="81,-402.5 81,-432.5 357,-432.5 357,-402.5 81,-402.5"/>
<text text-anchor="start" x="88" y="-413.9" font-family="Arial" font-size="14.00" fill="#000000">share </text>
<text text-anchor="start" x="126.899" y="-413.9" font-family="Arial" font-size="14.00" fill="#666666">[boolean]</text>
<polygon fill="none" stroke="#000000" points="81,-372.5 81,-402.5 357,-402.5 357,-372.5 81,-372.5"/>
<text text-anchor="start" x="88" y="-383.9" font-family="Arial" font-size="14.00" fill="#000000">create_uid </text>
<text text-anchor="start" x="157.244" y="-383.9" font-family="Arial" font-size="14.00" fill="#666666">[integer]</text>
<polygon fill="none" stroke="#000000" points="81,-342.5 81,-372.5 357,-372.5 357,-342.5 81,-342.5"/>
<text text-anchor="start" x="88" y="-353.9" font-family="Arial" font-size="14.00" fill="#000000">write_uid </text>
<text text-anchor="start" x="147.892" y="-353.9" font-family="Arial" font-size="14.00" fill="#666666">[integer]</text>
<polygon fill="none" stroke="#000000" points="81,-312.5 81,-342.5 357,-342.5 357,-312.5 81,-312.5"/>
<text text-anchor="start" x="88" y="-323.9" font-family="Arial" font-size="14.00" fill="#000000">write_date </text>
<text text-anchor="start" x="156.4586" y="-323.9" font-family="Arial" font-size="14.00" fill="#666666">[timestamp without time zone]</text>
<polygon fill="none" stroke="#000000" points="81,-282.5 81,-312.5 357,-312.5 357,-282.5 81,-282.5"/>
<text text-anchor="start" x="88" y="-293.9" font-family="Arial" font-size="14.00" fill="#000000">alias_id </text>
<text text-anchor="start" x="139.3408" y="-293.9" font-family="Arial" font-size="14.00" fill="#666666">[integer]</text>
<polygon fill="none" stroke="#000000" points="81,-252.5 81,-282.5 357,-282.5 357,-252.5 81,-252.5"/>
<text text-anchor="start" x="88" y="-263.9" font-family="Arial" font-size="14.00" fill="#000000">notification_type </text>
<text text-anchor="start" x="193.0336" y="-263.9" font-family="Arial" font-size="14.00" fill="#666666">[varchar]</text>
<polygon fill="none" stroke="#000000" points="81,-222.5 81,-252.5 357,-252.5 357,-222.5 81,-222.5"/>
<text text-anchor="start" x="88" y="-233.9" font-family="Arial" font-size="14.00" fill="#000000">odoobot_state </text>
<text text-anchor="start" x="180.6058" y="-233.9" font-family="Arial" font-size="14.00" fill="#666666">[varchar]</text>
<polygon fill="none" stroke="#000000" points="81,-192.5 81,-222.5 357,-222.5 357,-192.5 81,-192.5"/>
<text text-anchor="start" x="88" y="-203.9" font-family="Arial" font-size="14.00" fill="#000000">sale_team_id </text>
<text text-anchor="start" x="175.1332" y="-203.9" font-family="Arial" font-size="14.00" fill="#666666">[integer]</text>
<polygon fill="none" stroke="#000000" points="81,-162.5 81,-192.5 357,-192.5 357,-162.5 81,-162.5"/>
<text text-anchor="start" x="88" y="-173.9" font-family="Arial" font-size="14.00" fill="#000000">target_sales_won </text>
<text text-anchor="start" x="201.589" y="-173.9" font-family="Arial" font-size="14.00" fill="#666666">[integer]</text>
<polygon fill="none" stroke="#000000" points="81,-132.5 81,-162.5 357,-162.5 357,-132.5 81,-132.5"/>
<text text-anchor="start" x="88" y="-143.9" font-family="Arial" font-size="14.00" fill="#000000">target_sales_done </text>
<text text-anchor="start" x="207.0476" y="-143.9" font-family="Arial" font-size="14.00" fill="#666666">[integer]</text>
<polygon fill="none" stroke="#000000" points="81,-102.5 81,-132.5 357,-132.5 357,-102.5 81,-102.5"/>
<text text-anchor="start" x="88" y="-113.9" font-family="Arial" font-size="14.00" fill="#000000">website_id </text>
<text text-anchor="start" x="158.014" y="-113.9" font-family="Arial" font-size="14.00" fill="#666666">[integer]</text>
<polygon fill="none" stroke="#000000" points="81,-72.5 81,-102.5 357,-102.5 357,-72.5 81,-72.5"/>
<text text-anchor="start" x="88" y="-83.9" font-family="Arial" font-size="14.00" fill="#000000">target_sales_invoiced </text>
<text text-anchor="start" x="227.2608" y="-83.9" font-family="Arial" font-size="14.00" fill="#666666">[integer]</text>
<polygon fill="none" stroke="#000000" points="81,-42.5 81,-72.5 357,-72.5 357,-42.5 81,-42.5"/>
<text text-anchor="start" x="88" y="-53.9" font-family="Arial" font-size="14.00" fill="#000000">pos_security_pin </text>
<text text-anchor="start" x="196.9158" y="-53.9" font-family="Arial" font-size="14.00" fill="#666666">[varchar(32)]</text>
</g>
<!-- public.hr_employee_category&#45;&gt;public.res_users -->
<g id="edge2" class="edge">
<title>public.hr_employee_category:create_uid&#45;&gt;public.res_users:id</title>
<path fill="none" stroke="#000000" d="M402.2708,-966.839C515.358,-951.8652 478.8612,-687.5 357,-687.5"/>
<polygon fill="#000000" stroke="#000000" points="401.9794,-966.8577 391.711,-963.0093 396.9897,-967.1788 392,-967.5 392,-967.5 392,-967.5 396.9897,-967.1788 392.289,-971.9907 401.9794,-966.8577 401.9794,-966.8577"/>
<text text-anchor="start" x="398.657" y="-977.5" font-family="Arial" font-size="10.00" fill="#000000">FOREIGN KEY (create_uid) REFERENCES res_users(id) ON DELETE SET NULL</text>
</g>
<!-- public.hr_employee_category&#45;&gt;public.res_users -->
<g id="edge3" class="edge">
<title>public.hr_employee_category:write_uid&#45;&gt;public.res_users:id</title>
<path fill="none" stroke="#000000" d="M402.2107,-906.6591C488.3946,-891.8888 452.43,-687.5 357,-687.5"/>
<polygon fill="#000000" stroke="#000000" points="401.9663,-906.6791 391.6306,-903.0152 396.9831,-907.0896 392,-907.5 392,-907.5 392,-907.5 396.9831,-907.0896 392.3694,-911.9848 401.9663,-906.6791 401.9663,-906.6791"/>
<text text-anchor="start" x="398.997" y="-917.5" font-family="Arial" font-size="10.00" fill="#000000">FOREIGN KEY (write_uid) REFERENCES res_users(id) ON DELETE SET NULL</text>
</g>
<!-- public.employee_category_rel -->
<g id="node2" class="node">
<title>public.employee_category_rel</title>
<polygon fill="#efefef" stroke="transparent" points="44,-1292.5 44,-1327.5 394,-1327.5 394,-1292.5 44,-1292.5"/>
<polygon fill="none" stroke="#000000" points="44,-1292.5 44,-1327.5 394,-1327.5 394,-1292.5 44,-1292.5"/>
<text text-anchor="start" x="50.8477" y="-1305.3" font-family="Arial Bold" font-size="18.00" fill="#000000">public.employee_category_rel</text>
<text text-anchor="start" x="289.8985" y="-1305.3" font-family="Arial" font-size="14.00" fill="#000000"> </text>
<text text-anchor="start" x="293.7891" y="-1305.3" font-family="Arial" font-size="14.00" fill="#666666">[BASE TABLE]</text>
<polygon fill="none" stroke="#000000" points="44,-1262.5 44,-1292.5 394,-1292.5 394,-1262.5 44,-1262.5"/>
<text text-anchor="start" x="51" y="-1273.9" font-family="Arial" font-size="14.00" fill="#000000">category_id </text>
<text text-anchor="start" x="127.244" y="-1273.9" font-family="Arial" font-size="14.00" fill="#666666">[integer]</text>
<polygon fill="none" stroke="#000000" points="44,-1232.5 44,-1262.5 394,-1262.5 394,-1232.5 44,-1232.5"/>
<text text-anchor="start" x="51" y="-1243.9" font-family="Arial" font-size="14.00" fill="#000000">emp_id </text>
<text text-anchor="start" x="100.7882" y="-1243.9" font-family="Arial" font-size="14.00" fill="#666666">[integer]</text>
</g>
<!-- public.employee_category_rel&#45;&gt;public.hr_employee_category -->
<g id="edge1" class="edge">
<title>public.employee_category_rel:category_id&#45;&gt;public.hr_employee_category:id</title>
<path fill="none" stroke="#000000" d="M404.2088,-1276.6591C491.5122,-1261.8888 486.2487,-1057.5 392,-1057.5"/>
<polygon fill="#000000" stroke="#000000" points="403.9662,-1276.679 393.6305,-1273.0152 398.9831,-1277.0895 394,-1277.5 394,-1277.5 394,-1277.5 398.9831,-1277.0895 394.3695,-1281.9848 403.9662,-1276.679 403.9662,-1276.679"/>
<text text-anchor="start" x="400.982" y="-1287.5" font-family="Arial" font-size="10.00" fill="#000000">FOREIGN KEY (category_id) REFERENCES hr_employee_category(id) ON DELETE CASCADE</text>
</g>
</g>
</svg>
