<?xml version="1.0" encoding="UTF-8" standalone="no"?>
<!DOCTYPE svg PUBLIC "-//W3C//DTD SVG 1.1//EN"
 "http://www.w3.org/Graphics/SVG/1.1/DTD/svg11.dtd">
<!-- Generated by graphviz version 2.40.1 (20161225.0304)
 -->
<!-- Title: public.mail_channel_res_groups_rel Pages: 1 -->
<svg width="1232pt" height="922pt"
 viewBox="0.00 0.00 1232.00 922.00" xmlns="http://www.w3.org/2000/svg" xmlns:xlink="http://www.w3.org/1999/xlink">
<g id="graph0" class="graph" transform="scale(1 1) rotate(0) translate(4 918)">
<title>public.mail_channel_res_groups_rel</title>
<polygon fill="#ffffff" stroke="transparent" points="-4,4 -4,-918 1228,-918 1228,4 -4,4"/>
<!-- public.mail_channel_res_groups_rel -->
<g id="node1" class="node">
<title>public.mail_channel_res_groups_rel</title>
<polygon fill="#efefef" stroke="transparent" points="421,-832.5 421,-867.5 820,-867.5 820,-832.5 421,-832.5"/>
<polygon fill="none" stroke="#000000" points="421,-832.5 421,-867.5 820,-867.5 820,-832.5 421,-832.5"/>
<text text-anchor="start" x="427.8461" y="-845.3" font-family="Arial Bold" font-size="18.00" fill="#000000">public.mail_channel_res_groups_rel</text>
<text text-anchor="start" x="715.9001" y="-845.3" font-family="Arial" font-size="14.00" fill="#000000"> </text>
<text text-anchor="start" x="719.7907" y="-845.3" font-family="Arial" font-size="14.00" fill="#666666">[BASE TABLE]</text>
<polygon fill="none" stroke="#000000" points="421,-802.5 421,-832.5 820,-832.5 820,-802.5 421,-802.5"/>
<text text-anchor="start" x="428" y="-813.9" font-family="Arial" font-size="14.00" fill="#000000">mail_channel_id </text>
<text text-anchor="start" x="533.021" y="-813.9" font-family="Arial" font-size="14.00" fill="#666666">[integer]</text>
<polygon fill="none" stroke="#000000" points="421,-772.5 421,-802.5 820,-802.5 820,-772.5 421,-772.5"/>
<text text-anchor="start" x="428" y="-783.9" font-family="Arial" font-size="14.00" fill="#000000">res_groups_id </text>
<text text-anchor="start" x="520.5792" y="-783.9" font-family="Arial" font-size="14.00" fill="#666666">[integer]</text>
<polygon fill="none" stroke="#000000" stroke-width="3" points="419,-771.5 419,-869.5 821,-869.5 821,-771.5 419,-771.5"/>
</g>
<!-- public.mail_channel -->
<g id="node2" class="node">
<title>public.mail_channel</title>
<polygon fill="#efefef" stroke="transparent" points="293,-612.5 293,-647.5 569,-647.5 569,-612.5 293,-612.5"/>
<polygon fill="none" stroke="#000000" points="293,-612.5 293,-647.5 569,-647.5 569,-612.5 293,-612.5"/>
<text text-anchor="start" x="303.3594" y="-625.3" font-family="Arial Bold" font-size="18.00" fill="#000000">public.mail_channel</text>
<text text-anchor="start" x="461.3868" y="-625.3" font-family="Arial" font-size="14.00" fill="#000000"> </text>
<text text-anchor="start" x="465.2774" y="-625.3" font-family="Arial" font-size="14.00" fill="#666666">[BASE TABLE]</text>
<polygon fill="none" stroke="#000000" points="293,-582.5 293,-612.5 569,-612.5 569,-582.5 293,-582.5"/>
<text text-anchor="start" x="300" y="-593.9" font-family="Arial" font-size="14.00" fill="#000000">id </text>
<text text-anchor="start" x="314.7798" y="-593.9" font-family="Arial" font-size="14.00" fill="#666666">[integer]</text>
<polygon fill="none" stroke="#000000" points="293,-552.5 293,-582.5 569,-582.5 569,-552.5 293,-552.5"/>
<text text-anchor="start" x="300" y="-563.9" font-family="Arial" font-size="14.00" fill="#000000">message_main_attachment_id </text>
<text text-anchor="start" x="494.4964" y="-563.9" font-family="Arial" font-size="14.00" fill="#666666">[integer]</text>
<polygon fill="none" stroke="#000000" points="293,-522.5 293,-552.5 569,-552.5 569,-522.5 293,-522.5"/>
<text text-anchor="start" x="300" y="-533.9" font-family="Arial" font-size="14.00" fill="#000000">name </text>
<text text-anchor="start" x="338.899" y="-533.9" font-family="Arial" font-size="14.00" fill="#666666">[varchar]</text>
<polygon fill="none" stroke="#000000" points="293,-492.5 293,-522.5 569,-522.5 569,-492.5 293,-492.5"/>
<text text-anchor="start" x="300" y="-503.9" font-family="Arial" font-size="14.00" fill="#000000">channel_type </text>
<text text-anchor="start" x="387.1486" y="-503.9" font-family="Arial" font-size="14.00" fill="#666666">[varchar]</text>
<polygon fill="none" stroke="#000000" points="293,-462.5 293,-492.5 569,-492.5 569,-462.5 293,-462.5"/>
<text text-anchor="start" x="300" y="-473.9" font-family="Arial" font-size="14.00" fill="#000000">description </text>
<text text-anchor="start" x="371.568" y="-473.9" font-family="Arial" font-size="14.00" fill="#666666">[text]</text>
<polygon fill="none" stroke="#000000" points="293,-432.5 293,-462.5 569,-462.5 569,-432.5 293,-432.5"/>
<text text-anchor="start" x="300" y="-443.9" font-family="Arial" font-size="14.00" fill="#000000">uuid </text>
<text text-anchor="start" x="330.345" y="-443.9" font-family="Arial" font-size="14.00" fill="#666666">[varchar(50)]</text>
<polygon fill="none" stroke="#000000" points="293,-402.5 293,-432.5 569,-432.5 569,-402.5 293,-402.5"/>
<text text-anchor="start" x="300" y="-413.9" font-family="Arial" font-size="14.00" fill="#000000">email_send </text>
<text text-anchor="start" x="375.46" y="-413.9" font-family="Arial" font-size="14.00" fill="#666666">[boolean]</text>
<polygon fill="none" stroke="#000000" points="293,-372.5 293,-402.5 569,-402.5 569,-372.5 293,-372.5"/>
<text text-anchor="start" x="300" y="-383.9" font-family="Arial" font-size="14.00" fill="#000000">public </text>
<text text-anchor="start" x="340.4516" y="-383.9" font-family="Arial" font-size="14.00" fill="#666666">[varchar]</text>
<polygon fill="none" stroke="#000000" points="293,-342.5 293,-372.5 569,-372.5 569,-342.5 293,-342.5"/>
<text text-anchor="start" x="300" y="-353.9" font-family="Arial" font-size="14.00" fill="#000000">group_public_id </text>
<text text-anchor="start" x="402.697" y="-353.9" font-family="Arial" font-size="14.00" fill="#666666">[integer]</text>
<polygon fill="none" stroke="#000000" points="293,-312.5 293,-342.5 569,-342.5 569,-312.5 293,-312.5"/>
<text text-anchor="start" x="300" y="-323.9" font-family="Arial" font-size="14.00" fill="#000000">moderation </text>
<text text-anchor="start" x="373.9046" y="-323.9" font-family="Arial" font-size="14.00" fill="#666666">[boolean]</text>
<polygon fill="none" stroke="#000000" points="293,-282.5 293,-312.5 569,-312.5 569,-282.5 293,-282.5"/>
<text text-anchor="start" x="300" y="-293.9" font-family="Arial" font-size="14.00" fill="#000000">moderation_notify </text>
<text text-anchor="start" x="415.1402" y="-293.9" font-family="Arial" font-size="14.00" fill="#666666">[boolean]</text>
<polygon fill="none" stroke="#000000" points="293,-252.5 293,-282.5 569,-282.5 569,-252.5 293,-252.5"/>
<text text-anchor="start" x="300" y="-263.9" font-family="Arial" font-size="14.00" fill="#000000">moderation_notify_msg </text>
<text text-anchor="start" x="449.366" y="-263.9" font-family="Arial" font-size="14.00" fill="#666666">[text]</text>
<polygon fill="none" stroke="#000000" points="293,-222.5 293,-252.5 569,-252.5 569,-222.5 293,-222.5"/>
<text text-anchor="start" x="300" y="-233.9" font-family="Arial" font-size="14.00" fill="#000000">moderation_guidelines </text>
<text text-anchor="start" x="444.7026" y="-233.9" font-family="Arial" font-size="14.00" fill="#666666">[boolean]</text>
<polygon fill="none" stroke="#000000" points="293,-192.5 293,-222.5 569,-222.5 569,-192.5 293,-192.5"/>
<text text-anchor="start" x="300" y="-203.9" font-family="Arial" font-size="14.00" fill="#000000">moderation_guidelines_msg </text>
<text text-anchor="start" x="478.9284" y="-203.9" font-family="Arial" font-size="14.00" fill="#666666">[text]</text>
<polygon fill="none" stroke="#000000" points="293,-162.5 293,-192.5 569,-192.5 569,-162.5 293,-162.5"/>
<text text-anchor="start" x="300" y="-173.9" font-family="Arial" font-size="14.00" fill="#000000">alias_id </text>
<text text-anchor="start" x="351.3408" y="-173.9" font-family="Arial" font-size="14.00" fill="#666666">[integer]</text>
<polygon fill="none" stroke="#000000" points="293,-132.5 293,-162.5 569,-162.5 569,-132.5 293,-132.5"/>
<text text-anchor="start" x="300" y="-143.9" font-family="Arial" font-size="14.00" fill="#000000">create_uid </text>
<text text-anchor="start" x="369.244" y="-143.9" font-family="Arial" font-size="14.00" fill="#666666">[integer]</text>
<polygon fill="none" stroke="#000000" points="293,-102.5 293,-132.5 569,-132.5 569,-102.5 293,-102.5"/>
<text text-anchor="start" x="299.5246" y="-113.9" font-family="Arial" font-size="14.00" fill="#000000">create_date </text>
<text text-anchor="start" x="377.3352" y="-113.9" font-family="Arial" font-size="14.00" fill="#666666">[timestamp without time zone]</text>
<polygon fill="none" stroke="#000000" points="293,-72.5 293,-102.5 569,-102.5 569,-72.5 293,-72.5"/>
<text text-anchor="start" x="300" y="-83.9" font-family="Arial" font-size="14.00" fill="#000000">write_uid </text>
<text text-anchor="start" x="359.892" y="-83.9" font-family="Arial" font-size="14.00" fill="#666666">[integer]</text>
<polygon fill="none" stroke="#000000" points="293,-42.5 293,-72.5 569,-72.5 569,-42.5 293,-42.5"/>
<text text-anchor="start" x="300" y="-53.9" font-family="Arial" font-size="14.00" fill="#000000">write_date </text>
<text text-anchor="start" x="368.4586" y="-53.9" font-family="Arial" font-size="14.00" fill="#666666">[timestamp without time zone]</text>
</g>
<!-- public.mail_channel_res_groups_rel&#45;&gt;public.mail_channel -->
<g id="edge1" class="edge">
<title>public.mail_channel_res_groups_rel:mail_channel_id&#45;&gt;public.mail_channel:id</title>
<path fill="none" stroke="#000000" d="M410.7637,-815.8958C383.8698,-806.2607 398.5731,-755.5361 421,-727 462.8305,-673.7748 527.1695,-744.2252 569,-691 594.678,-658.3273 610.5556,-597.5 569,-597.5"/>
<polygon fill="#000000" stroke="#000000" points="411.1206,-815.9516 420.3032,-821.9457 416.0603,-816.7258 421,-817.5 421,-817.5 421,-817.5 416.0603,-816.7258 421.6968,-813.0543 411.1206,-815.9516 411.1206,-815.9516"/>
<text text-anchor="start" x="7.1015" y="-827.5" font-family="Arial" font-size="10.00" fill="#000000">FOREIGN KEY (mail_channel_id) REFERENCES mail_channel(id) ON DELETE CASCADE</text>
</g>
<!-- public.res_groups -->
<g id="node3" class="node">
<title>public.res_groups</title>
<polygon fill="#efefef" stroke="transparent" points="673,-477.5 673,-512.5 949,-512.5 949,-477.5 673,-477.5"/>
<polygon fill="none" stroke="#000000" points="673,-477.5 673,-512.5 949,-512.5 949,-477.5 673,-477.5"/>
<text text-anchor="start" x="691.3577" y="-490.3" font-family="Arial Bold" font-size="18.00" fill="#000000">public.res_groups</text>
<text text-anchor="start" x="833.3885" y="-490.3" font-family="Arial" font-size="14.00" fill="#000000"> </text>
<text text-anchor="start" x="837.2791" y="-490.3" font-family="Arial" font-size="14.00" fill="#666666">[BASE TABLE]</text>
<polygon fill="none" stroke="#000000" points="673,-447.5 673,-477.5 949,-477.5 949,-447.5 673,-447.5"/>
<text text-anchor="start" x="680" y="-458.9" font-family="Arial" font-size="14.00" fill="#000000">id </text>
<text text-anchor="start" x="694.7798" y="-458.9" font-family="Arial" font-size="14.00" fill="#666666">[integer]</text>
<polygon fill="none" stroke="#000000" points="673,-417.5 673,-447.5 949,-447.5 949,-417.5 673,-417.5"/>
<text text-anchor="start" x="680" y="-428.9" font-family="Arial" font-size="14.00" fill="#000000">name </text>
<text text-anchor="start" x="718.899" y="-428.9" font-family="Arial" font-size="14.00" fill="#666666">[varchar]</text>
<polygon fill="none" stroke="#000000" points="673,-387.5 673,-417.5 949,-417.5 949,-387.5 673,-387.5"/>
<text text-anchor="start" x="680" y="-398.9" font-family="Arial" font-size="14.00" fill="#000000">comment </text>
<text text-anchor="start" x="741.4502" y="-398.9" font-family="Arial" font-size="14.00" fill="#666666">[text]</text>
<polygon fill="none" stroke="#000000" points="673,-357.5 673,-387.5 949,-387.5 949,-357.5 673,-357.5"/>
<text text-anchor="start" x="680" y="-368.9" font-family="Arial" font-size="14.00" fill="#000000">category_id </text>
<text text-anchor="start" x="756.244" y="-368.9" font-family="Arial" font-size="14.00" fill="#666666">[integer]</text>
<polygon fill="none" stroke="#000000" points="673,-327.5 673,-357.5 949,-357.5 949,-327.5 673,-327.5"/>
<text text-anchor="start" x="680" y="-338.9" font-family="Arial" font-size="14.00" fill="#000000">color </text>
<text text-anchor="start" x="714.223" y="-338.9" font-family="Arial" font-size="14.00" fill="#666666">[integer]</text>
<polygon fill="none" stroke="#000000" points="673,-297.5 673,-327.5 949,-327.5 949,-297.5 673,-297.5"/>
<text text-anchor="start" x="680" y="-308.9" font-family="Arial" font-size="14.00" fill="#000000">share </text>
<text text-anchor="start" x="718.899" y="-308.9" font-family="Arial" font-size="14.00" fill="#666666">[boolean]</text>
<polygon fill="none" stroke="#000000" points="673,-267.5 673,-297.5 949,-297.5 949,-267.5 673,-267.5"/>
<text text-anchor="start" x="680" y="-278.9" font-family="Arial" font-size="14.00" fill="#000000">create_uid </text>
<text text-anchor="start" x="749.244" y="-278.9" font-family="Arial" font-size="14.00" fill="#666666">[integer]</text>
<polygon fill="none" stroke="#000000" points="673,-237.5 673,-267.5 949,-267.5 949,-237.5 673,-237.5"/>
<text text-anchor="start" x="679.5246" y="-248.9" font-family="Arial" font-size="14.00" fill="#000000">create_date </text>
<text text-anchor="start" x="757.3352" y="-248.9" font-family="Arial" font-size="14.00" fill="#666666">[timestamp without time zone]</text>
<polygon fill="none" stroke="#000000" points="673,-207.5 673,-237.5 949,-237.5 949,-207.5 673,-207.5"/>
<text text-anchor="start" x="680" y="-218.9" font-family="Arial" font-size="14.00" fill="#000000">write_uid </text>
<text text-anchor="start" x="739.892" y="-218.9" font-family="Arial" font-size="14.00" fill="#666666">[integer]</text>
<polygon fill="none" stroke="#000000" points="673,-177.5 673,-207.5 949,-207.5 949,-177.5 673,-177.5"/>
<text text-anchor="start" x="680" y="-188.9" font-family="Arial" font-size="14.00" fill="#000000">write_date </text>
<text text-anchor="start" x="748.4586" y="-188.9" font-family="Arial" font-size="14.00" fill="#666666">[timestamp without time zone]</text>
</g>
<!-- public.mail_channel_res_groups_rel&#45;&gt;public.res_groups -->
<g id="edge2" class="edge">
<title>public.mail_channel_res_groups_rel:res_groups_id&#45;&gt;public.res_groups:id</title>
<path fill="none" stroke="#000000" d="M829.879,-784.8508C841.3536,-776.1923 827.8137,-748.0756 820,-727 785.1606,-633.0284 707.8394,-649.9716 673,-556 658.5543,-517.0361 631.4444,-462.5 673,-462.5"/>
<polygon fill="#000000" stroke="#000000" points="829.6588,-784.9098 818.8344,-783.1536 824.8294,-786.2049 820,-787.5 820,-787.5 820,-787.5 824.8294,-786.2049 821.1656,-791.8464 829.6588,-784.9098 829.6588,-784.9098"/>
<text text-anchor="start" x="826.9885" y="-797.5" font-family="Arial" font-size="10.00" fill="#000000">FOREIGN KEY (res_groups_id) REFERENCES res_groups(id) ON DELETE CASCADE</text>
</g>
</g>
</svg>
