<?xml version="1.0" encoding="UTF-8" standalone="no"?>
<!DOCTYPE svg PUBLIC "-//W3C//DTD SVG 1.1//EN"
 "http://www.w3.org/Graphics/SVG/1.1/DTD/svg11.dtd">
<!-- Generated by graphviz version 2.40.1 (20161225.0304)
 -->
<!-- Title: public.digest_tip Pages: 1 -->
<svg width="1137pt" height="1409pt"
 viewBox="0.00 0.00 1137.00 1409.00" xmlns="http://www.w3.org/2000/svg" xmlns:xlink="http://www.w3.org/1999/xlink">
<g id="graph0" class="graph" transform="scale(1 1) rotate(0) translate(4 1405)">
<title>public.digest_tip</title>
<polygon fill="#ffffff" stroke="transparent" points="-4,4 -4,-1405 1133,-1405 1133,4 -4,4"/>
<!-- public.digest_tip -->
<g id="node1" class="node">
<title>public.digest_tip</title>
<polygon fill="#efefef" stroke="transparent" points="423,-1102.5 423,-1137.5 699,-1137.5 699,-1102.5 423,-1102.5"/>
<polygon fill="none" stroke="#000000" points="423,-1102.5 423,-1137.5 699,-1137.5 699,-1102.5 423,-1102.5"/>
<text text-anchor="start" x="447.8566" y="-1115.3" font-family="Arial Bold" font-size="18.00" fill="#000000">public.digest_tip</text>
<text text-anchor="start" x="576.8896" y="-1115.3" font-family="Arial" font-size="14.00" fill="#000000"> </text>
<text text-anchor="start" x="580.7802" y="-1115.3" font-family="Arial" font-size="14.00" fill="#666666">[BASE TABLE]</text>
<polygon fill="none" stroke="#000000" points="423,-1072.5 423,-1102.5 699,-1102.5 699,-1072.5 423,-1072.5"/>
<text text-anchor="start" x="430" y="-1083.9" font-family="Arial" font-size="14.00" fill="#000000">id </text>
<text text-anchor="start" x="444.7798" y="-1083.9" font-family="Arial" font-size="14.00" fill="#666666">[integer]</text>
<polygon fill="none" stroke="#000000" points="423,-1042.5 423,-1072.5 699,-1072.5 699,-1042.5 423,-1042.5"/>
<text text-anchor="start" x="430" y="-1053.9" font-family="Arial" font-size="14.00" fill="#000000">sequence </text>
<text text-anchor="start" x="494.5862" y="-1053.9" font-family="Arial" font-size="14.00" fill="#666666">[integer]</text>
<polygon fill="none" stroke="#000000" points="423,-1012.5 423,-1042.5 699,-1042.5 699,-1012.5 423,-1012.5"/>
<text text-anchor="start" x="430" y="-1023.9" font-family="Arial" font-size="14.00" fill="#000000">tip_description </text>
<text text-anchor="start" x="524.1304" y="-1023.9" font-family="Arial" font-size="14.00" fill="#666666">[text]</text>
<polygon fill="none" stroke="#000000" points="423,-982.5 423,-1012.5 699,-1012.5 699,-982.5 423,-982.5"/>
<text text-anchor="start" x="430" y="-993.9" font-family="Arial" font-size="14.00" fill="#000000">group_id </text>
<text text-anchor="start" x="488.3534" y="-993.9" font-family="Arial" font-size="14.00" fill="#666666">[integer]</text>
<polygon fill="none" stroke="#000000" points="423,-952.5 423,-982.5 699,-982.5 699,-952.5 423,-952.5"/>
<text text-anchor="start" x="430" y="-963.9" font-family="Arial" font-size="14.00" fill="#000000">create_uid </text>
<text text-anchor="start" x="499.244" y="-963.9" font-family="Arial" font-size="14.00" fill="#666666">[integer]</text>
<polygon fill="none" stroke="#000000" points="423,-922.5 423,-952.5 699,-952.5 699,-922.5 423,-922.5"/>
<text text-anchor="start" x="429.5246" y="-933.9" font-family="Arial" font-size="14.00" fill="#000000">create_date </text>
<text text-anchor="start" x="507.3352" y="-933.9" font-family="Arial" font-size="14.00" fill="#666666">[timestamp without time zone]</text>
<polygon fill="none" stroke="#000000" points="423,-892.5 423,-922.5 699,-922.5 699,-892.5 423,-892.5"/>
<text text-anchor="start" x="430" y="-903.9" font-family="Arial" font-size="14.00" fill="#000000">write_uid </text>
<text text-anchor="start" x="489.892" y="-903.9" font-family="Arial" font-size="14.00" fill="#666666">[integer]</text>
<polygon fill="none" stroke="#000000" points="423,-862.5 423,-892.5 699,-892.5 699,-862.5 423,-862.5"/>
<text text-anchor="start" x="430" y="-873.9" font-family="Arial" font-size="14.00" fill="#000000">write_date </text>
<text text-anchor="start" x="498.4586" y="-873.9" font-family="Arial" font-size="14.00" fill="#666666">[timestamp without time zone]</text>
<polygon fill="none" stroke="#000000" stroke-width="3" points="421.5,-861.5 421.5,-1139.5 700.5,-1139.5 700.5,-861.5 421.5,-861.5"/>
</g>
<!-- public.res_groups -->
<g id="node3" class="node">
<title>public.res_groups</title>
<polygon fill="#efefef" stroke="transparent" points="43,-522.5 43,-557.5 319,-557.5 319,-522.5 43,-522.5"/>
<polygon fill="none" stroke="#000000" points="43,-522.5 43,-557.5 319,-557.5 319,-522.5 43,-522.5"/>
<text text-anchor="start" x="61.3577" y="-535.3" font-family="Arial Bold" font-size="18.00" fill="#000000">public.res_groups</text>
<text text-anchor="start" x="203.3885" y="-535.3" font-family="Arial" font-size="14.00" fill="#000000"> </text>
<text text-anchor="start" x="207.2791" y="-535.3" font-family="Arial" font-size="14.00" fill="#666666">[BASE TABLE]</text>
<polygon fill="none" stroke="#000000" points="43,-492.5 43,-522.5 319,-522.5 319,-492.5 43,-492.5"/>
<text text-anchor="start" x="50" y="-503.9" font-family="Arial" font-size="14.00" fill="#000000">id </text>
<text text-anchor="start" x="64.7798" y="-503.9" font-family="Arial" font-size="14.00" fill="#666666">[integer]</text>
<polygon fill="none" stroke="#000000" points="43,-462.5 43,-492.5 319,-492.5 319,-462.5 43,-462.5"/>
<text text-anchor="start" x="50" y="-473.9" font-family="Arial" font-size="14.00" fill="#000000">name </text>
<text text-anchor="start" x="88.899" y="-473.9" font-family="Arial" font-size="14.00" fill="#666666">[varchar]</text>
<polygon fill="none" stroke="#000000" points="43,-432.5 43,-462.5 319,-462.5 319,-432.5 43,-432.5"/>
<text text-anchor="start" x="50" y="-443.9" font-family="Arial" font-size="14.00" fill="#000000">comment </text>
<text text-anchor="start" x="111.4502" y="-443.9" font-family="Arial" font-size="14.00" fill="#666666">[text]</text>
<polygon fill="none" stroke="#000000" points="43,-402.5 43,-432.5 319,-432.5 319,-402.5 43,-402.5"/>
<text text-anchor="start" x="50" y="-413.9" font-family="Arial" font-size="14.00" fill="#000000">category_id </text>
<text text-anchor="start" x="126.244" y="-413.9" font-family="Arial" font-size="14.00" fill="#666666">[integer]</text>
<polygon fill="none" stroke="#000000" points="43,-372.5 43,-402.5 319,-402.5 319,-372.5 43,-372.5"/>
<text text-anchor="start" x="50" y="-383.9" font-family="Arial" font-size="14.00" fill="#000000">color </text>
<text text-anchor="start" x="84.223" y="-383.9" font-family="Arial" font-size="14.00" fill="#666666">[integer]</text>
<polygon fill="none" stroke="#000000" points="43,-342.5 43,-372.5 319,-372.5 319,-342.5 43,-342.5"/>
<text text-anchor="start" x="50" y="-353.9" font-family="Arial" font-size="14.00" fill="#000000">share </text>
<text text-anchor="start" x="88.899" y="-353.9" font-family="Arial" font-size="14.00" fill="#666666">[boolean]</text>
<polygon fill="none" stroke="#000000" points="43,-312.5 43,-342.5 319,-342.5 319,-312.5 43,-312.5"/>
<text text-anchor="start" x="50" y="-323.9" font-family="Arial" font-size="14.00" fill="#000000">create_uid </text>
<text text-anchor="start" x="119.244" y="-323.9" font-family="Arial" font-size="14.00" fill="#666666">[integer]</text>
<polygon fill="none" stroke="#000000" points="43,-282.5 43,-312.5 319,-312.5 319,-282.5 43,-282.5"/>
<text text-anchor="start" x="49.5246" y="-293.9" font-family="Arial" font-size="14.00" fill="#000000">create_date </text>
<text text-anchor="start" x="127.3352" y="-293.9" font-family="Arial" font-size="14.00" fill="#666666">[timestamp without time zone]</text>
<polygon fill="none" stroke="#000000" points="43,-252.5 43,-282.5 319,-282.5 319,-252.5 43,-252.5"/>
<text text-anchor="start" x="50" y="-263.9" font-family="Arial" font-size="14.00" fill="#000000">write_uid </text>
<text text-anchor="start" x="109.892" y="-263.9" font-family="Arial" font-size="14.00" fill="#666666">[integer]</text>
<polygon fill="none" stroke="#000000" points="43,-222.5 43,-252.5 319,-252.5 319,-222.5 43,-222.5"/>
<text text-anchor="start" x="50" y="-233.9" font-family="Arial" font-size="14.00" fill="#000000">write_date </text>
<text text-anchor="start" x="118.4586" y="-233.9" font-family="Arial" font-size="14.00" fill="#666666">[timestamp without time zone]</text>
</g>
<!-- public.digest_tip&#45;&gt;public.res_groups -->
<g id="edge2" class="edge">
<title>public.digest_tip:group_id&#45;&gt;public.res_groups:id</title>
<path fill="none" stroke="#000000" d="M412.914,-997.0377C328.8225,-988.876 391.0517,-874.2516 371,-781 357.9943,-720.516 380.8665,-507.5 319,-507.5"/>
<polygon fill="#000000" stroke="#000000" points="413.0105,-997.042 422.7939,-1001.9953 418.0052,-997.271 423,-997.5 423,-997.5 423,-997.5 418.0052,-997.271 423.2061,-993.0047 413.0105,-997.042 413.0105,-997.042"/>
<text text-anchor="start" x="51.4875" y="-1007.5" font-family="Arial" font-size="10.00" fill="#000000">FOREIGN KEY (group_id) REFERENCES res_groups(id) ON DELETE SET NULL</text>
</g>
<!-- public.res_users -->
<g id="node4" class="node">
<title>public.res_users</title>
<polygon fill="#efefef" stroke="transparent" points="423,-702.5 423,-737.5 699,-737.5 699,-702.5 423,-702.5"/>
<polygon fill="none" stroke="#000000" points="423,-702.5 423,-737.5 699,-737.5 699,-702.5 423,-702.5"/>
<text text-anchor="start" x="446.8639" y="-715.3" font-family="Arial Bold" font-size="18.00" fill="#000000">public.res_users</text>
<text text-anchor="start" x="577.8823" y="-715.3" font-family="Arial" font-size="14.00" fill="#000000"> </text>
<text text-anchor="start" x="581.7729" y="-715.3" font-family="Arial" font-size="14.00" fill="#666666">[BASE TABLE]</text>
<polygon fill="none" stroke="#000000" points="423,-672.5 423,-702.5 699,-702.5 699,-672.5 423,-672.5"/>
<text text-anchor="start" x="430" y="-683.9" font-family="Arial" font-size="14.00" fill="#000000">id </text>
<text text-anchor="start" x="444.7798" y="-683.9" font-family="Arial" font-size="14.00" fill="#666666">[integer]</text>
<polygon fill="none" stroke="#000000" points="423,-642.5 423,-672.5 699,-672.5 699,-642.5 423,-642.5"/>
<text text-anchor="start" x="430" y="-653.9" font-family="Arial" font-size="14.00" fill="#000000">active </text>
<text text-anchor="start" x="470.453" y="-653.9" font-family="Arial" font-size="14.00" fill="#666666">[boolean]</text>
<polygon fill="none" stroke="#000000" points="423,-612.5 423,-642.5 699,-642.5 699,-612.5 423,-612.5"/>
<text text-anchor="start" x="430" y="-623.9" font-family="Arial" font-size="14.00" fill="#000000">login </text>
<text text-anchor="start" x="463.4516" y="-623.9" font-family="Arial" font-size="14.00" fill="#666666">[varchar]</text>
<polygon fill="none" stroke="#000000" points="423,-582.5 423,-612.5 699,-612.5 699,-582.5 423,-582.5"/>
<text text-anchor="start" x="430" y="-593.9" font-family="Arial" font-size="14.00" fill="#000000">password </text>
<text text-anchor="start" x="493.7882" y="-593.9" font-family="Arial" font-size="14.00" fill="#666666">[varchar]</text>
<polygon fill="none" stroke="#000000" points="423,-552.5 423,-582.5 699,-582.5 699,-552.5 423,-552.5"/>
<text text-anchor="start" x="430" y="-563.9" font-family="Arial" font-size="14.00" fill="#000000">company_id </text>
<text text-anchor="start" x="509.3534" y="-563.9" font-family="Arial" font-size="14.00" fill="#666666">[integer]</text>
<polygon fill="none" stroke="#000000" points="423,-522.5 423,-552.5 699,-552.5 699,-522.5 423,-522.5"/>
<text text-anchor="start" x="430" y="-533.9" font-family="Arial" font-size="14.00" fill="#000000">partner_id </text>
<text text-anchor="start" x="496.9046" y="-533.9" font-family="Arial" font-size="14.00" fill="#666666">[integer]</text>
<polygon fill="none" stroke="#000000" points="423,-492.5 423,-522.5 699,-522.5 699,-492.5 423,-492.5"/>
<text text-anchor="start" x="429.5246" y="-503.9" font-family="Arial" font-size="14.00" fill="#000000">create_date </text>
<text text-anchor="start" x="507.3352" y="-503.9" font-family="Arial" font-size="14.00" fill="#666666">[timestamp without time zone]</text>
<polygon fill="none" stroke="#000000" points="423,-462.5 423,-492.5 699,-492.5 699,-462.5 423,-462.5"/>
<text text-anchor="start" x="430" y="-473.9" font-family="Arial" font-size="14.00" fill="#000000">signature </text>
<text text-anchor="start" x="491.4614" y="-473.9" font-family="Arial" font-size="14.00" fill="#666666">[text]</text>
<polygon fill="none" stroke="#000000" points="423,-432.5 423,-462.5 699,-462.5 699,-432.5 423,-432.5"/>
<text text-anchor="start" x="430" y="-443.9" font-family="Arial" font-size="14.00" fill="#000000">action_id </text>
<text text-anchor="start" x="489.9074" y="-443.9" font-family="Arial" font-size="14.00" fill="#666666">[integer]</text>
<polygon fill="none" stroke="#000000" points="423,-402.5 423,-432.5 699,-432.5 699,-402.5 423,-402.5"/>
<text text-anchor="start" x="430" y="-413.9" font-family="Arial" font-size="14.00" fill="#000000">share </text>
<text text-anchor="start" x="468.899" y="-413.9" font-family="Arial" font-size="14.00" fill="#666666">[boolean]</text>
<polygon fill="none" stroke="#000000" points="423,-372.5 423,-402.5 699,-402.5 699,-372.5 423,-372.5"/>
<text text-anchor="start" x="430" y="-383.9" font-family="Arial" font-size="14.00" fill="#000000">create_uid </text>
<text text-anchor="start" x="499.244" y="-383.9" font-family="Arial" font-size="14.00" fill="#666666">[integer]</text>
<polygon fill="none" stroke="#000000" points="423,-342.5 423,-372.5 699,-372.5 699,-342.5 423,-342.5"/>
<text text-anchor="start" x="430" y="-353.9" font-family="Arial" font-size="14.00" fill="#000000">write_uid </text>
<text text-anchor="start" x="489.892" y="-353.9" font-family="Arial" font-size="14.00" fill="#666666">[integer]</text>
<polygon fill="none" stroke="#000000" points="423,-312.5 423,-342.5 699,-342.5 699,-312.5 423,-312.5"/>
<text text-anchor="start" x="430" y="-323.9" font-family="Arial" font-size="14.00" fill="#000000">write_date </text>
<text text-anchor="start" x="498.4586" y="-323.9" font-family="Arial" font-size="14.00" fill="#666666">[timestamp without time zone]</text>
<polygon fill="none" stroke="#000000" points="423,-282.5 423,-312.5 699,-312.5 699,-282.5 423,-282.5"/>
<text text-anchor="start" x="430" y="-293.9" font-family="Arial" font-size="14.00" fill="#000000">alias_id </text>
<text text-anchor="start" x="481.3408" y="-293.9" font-family="Arial" font-size="14.00" fill="#666666">[integer]</text>
<polygon fill="none" stroke="#000000" points="423,-252.5 423,-282.5 699,-282.5 699,-252.5 423,-252.5"/>
<text text-anchor="start" x="430" y="-263.9" font-family="Arial" font-size="14.00" fill="#000000">notification_type </text>
<text text-anchor="start" x="535.0336" y="-263.9" font-family="Arial" font-size="14.00" fill="#666666">[varchar]</text>
<polygon fill="none" stroke="#000000" points="423,-222.5 423,-252.5 699,-252.5 699,-222.5 423,-222.5"/>
<text text-anchor="start" x="430" y="-233.9" font-family="Arial" font-size="14.00" fill="#000000">odoobot_state </text>
<text text-anchor="start" x="522.6058" y="-233.9" font-family="Arial" font-size="14.00" fill="#666666">[varchar]</text>
<polygon fill="none" stroke="#000000" points="423,-192.5 423,-222.5 699,-222.5 699,-192.5 423,-192.5"/>
<text text-anchor="start" x="430" y="-203.9" font-family="Arial" font-size="14.00" fill="#000000">sale_team_id </text>
<text text-anchor="start" x="517.1332" y="-203.9" font-family="Arial" font-size="14.00" fill="#666666">[integer]</text>
<polygon fill="none" stroke="#000000" points="423,-162.5 423,-192.5 699,-192.5 699,-162.5 423,-162.5"/>
<text text-anchor="start" x="430" y="-173.9" font-family="Arial" font-size="14.00" fill="#000000">target_sales_won </text>
<text text-anchor="start" x="543.589" y="-173.9" font-family="Arial" font-size="14.00" fill="#666666">[integer]</text>
<polygon fill="none" stroke="#000000" points="423,-132.5 423,-162.5 699,-162.5 699,-132.5 423,-132.5"/>
<text text-anchor="start" x="430" y="-143.9" font-family="Arial" font-size="14.00" fill="#000000">target_sales_done </text>
<text text-anchor="start" x="549.0476" y="-143.9" font-family="Arial" font-size="14.00" fill="#666666">[integer]</text>
<polygon fill="none" stroke="#000000" points="423,-102.5 423,-132.5 699,-132.5 699,-102.5 423,-102.5"/>
<text text-anchor="start" x="430" y="-113.9" font-family="Arial" font-size="14.00" fill="#000000">website_id </text>
<text text-anchor="start" x="500.014" y="-113.9" font-family="Arial" font-size="14.00" fill="#666666">[integer]</text>
<polygon fill="none" stroke="#000000" points="423,-72.5 423,-102.5 699,-102.5 699,-72.5 423,-72.5"/>
<text text-anchor="start" x="430" y="-83.9" font-family="Arial" font-size="14.00" fill="#000000">target_sales_invoiced </text>
<text text-anchor="start" x="569.2608" y="-83.9" font-family="Arial" font-size="14.00" fill="#666666">[integer]</text>
<polygon fill="none" stroke="#000000" points="423,-42.5 423,-72.5 699,-72.5 699,-42.5 423,-42.5"/>
<text text-anchor="start" x="430" y="-53.9" font-family="Arial" font-size="14.00" fill="#000000">pos_security_pin </text>
<text text-anchor="start" x="538.9158" y="-53.9" font-family="Arial" font-size="14.00" fill="#666666">[varchar(32)]</text>
</g>
<!-- public.digest_tip&#45;&gt;public.res_users -->
<g id="edge3" class="edge">
<title>public.digest_tip:create_uid&#45;&gt;public.res_users:id</title>
<path fill="none" stroke="#000000" d="M709.2735,-966.839C823.3446,-951.8652 819.9201,-687.5 699,-687.5"/>
<polygon fill="#000000" stroke="#000000" points="708.9794,-966.8578 698.711,-963.0093 703.9897,-967.1789 699,-967.5 699,-967.5 699,-967.5 703.9897,-967.1789 699.289,-971.9907 708.9794,-966.8578 708.9794,-966.8578"/>
<text text-anchor="start" x="705.657" y="-977.5" font-family="Arial" font-size="10.00" fill="#000000">FOREIGN KEY (create_uid) REFERENCES res_users(id) ON DELETE SET NULL</text>
</g>
<!-- public.digest_tip&#45;&gt;public.res_users -->
<g id="edge4" class="edge">
<title>public.digest_tip:write_uid&#45;&gt;public.res_users:id</title>
<path fill="none" stroke="#000000" d="M709.216,-906.6591C796.6501,-891.8888 793.2448,-687.5 699,-687.5"/>
<polygon fill="#000000" stroke="#000000" points="708.9663,-906.6795 698.6308,-903.0152 703.9831,-907.0898 699,-907.5 699,-907.5 699,-907.5 703.9831,-907.0898 699.3692,-911.9848 708.9663,-906.6795 708.9663,-906.6795"/>
<text text-anchor="start" x="705.997" y="-917.5" font-family="Arial" font-size="10.00" fill="#000000">FOREIGN KEY (write_uid) REFERENCES res_users(id) ON DELETE SET NULL</text>
</g>
<!-- public.digest_tip_res_users_rel -->
<g id="node2" class="node">
<title>public.digest_tip_res_users_rel</title>
<polygon fill="#efefef" stroke="transparent" points="381,-1322.5 381,-1357.5 740,-1357.5 740,-1322.5 381,-1322.5"/>
<polygon fill="none" stroke="#000000" points="381,-1322.5 381,-1357.5 740,-1357.5 740,-1322.5 381,-1322.5"/>
<text text-anchor="start" x="387.8495" y="-1335.3" font-family="Arial Bold" font-size="18.00" fill="#000000">public.digest_tip_res_users_rel</text>
<text text-anchor="start" x="635.8967" y="-1335.3" font-family="Arial" font-size="14.00" fill="#000000"> </text>
<text text-anchor="start" x="639.7873" y="-1335.3" font-family="Arial" font-size="14.00" fill="#666666">[BASE TABLE]</text>
<polygon fill="none" stroke="#000000" points="381,-1292.5 381,-1322.5 740,-1322.5 740,-1292.5 381,-1292.5"/>
<text text-anchor="start" x="388" y="-1303.9" font-family="Arial" font-size="14.00" fill="#000000">digest_tip_id </text>
<text text-anchor="start" x="470.4698" y="-1303.9" font-family="Arial" font-size="14.00" fill="#666666">[integer]</text>
<polygon fill="none" stroke="#000000" points="381,-1262.5 381,-1292.5 740,-1292.5 740,-1262.5 381,-1262.5"/>
<text text-anchor="start" x="388" y="-1273.9" font-family="Arial" font-size="14.00" fill="#000000">res_users_id </text>
<text text-anchor="start" x="472.014" y="-1273.9" font-family="Arial" font-size="14.00" fill="#666666">[integer]</text>
</g>
<!-- public.digest_tip_res_users_rel&#45;&gt;public.digest_tip -->
<g id="edge1" class="edge">
<title>public.digest_tip_res_users_rel:digest_tip_id&#45;&gt;public.digest_tip:id</title>
<path fill="none" stroke="#000000" d="M749.9453,-1305.9085C776.229,-1296.3571 763.3713,-1246.1757 740,-1220 645.5623,-1114.2305 517.4377,-1289.7695 423,-1184 394.4352,-1152.0077 380.1111,-1087.5 423,-1087.5"/>
<polygon fill="#000000" stroke="#000000" points="749.8744,-1305.9197 739.2889,-1303.0565 744.9372,-1306.7099 740,-1307.5 740,-1307.5 740,-1307.5 744.9372,-1306.7099 740.7111,-1311.9435 749.8744,-1305.9197 749.8744,-1305.9197"/>
<text text-anchor="start" x="747.2095" y="-1317.5" font-family="Arial" font-size="10.00" fill="#000000">FOREIGN KEY (digest_tip_id) REFERENCES digest_tip(id) ON DELETE CASCADE</text>
</g>
</g>
</svg>
