<?xml version="1.0" encoding="UTF-8" standalone="no"?>
<!DOCTYPE svg PUBLIC "-//W3C//DTD SVG 1.1//EN"
 "http://www.w3.org/Graphics/SVG/1.1/DTD/svg11.dtd">
<!-- Generated by graphviz version 2.40.1 (20161225.0304)
 -->
<!-- Title: public.stock_picking_transfer_rel Pages: 1 -->
<svg width="1336pt" height="1192pt"
 viewBox="0.00 0.00 1336.00 1192.00" xmlns="http://www.w3.org/2000/svg" xmlns:xlink="http://www.w3.org/1999/xlink">
<g id="graph0" class="graph" transform="scale(1 1) rotate(0) translate(4 1188)">
<title>public.stock_picking_transfer_rel</title>
<polygon fill="#ffffff" stroke="transparent" points="-4,4 -4,-1188 1332,-1188 1332,4 -4,4"/>
<!-- public.stock_picking_transfer_rel -->
<g id="node1" class="node">
<title>public.stock_picking_transfer_rel</title>
<polygon fill="#efefef" stroke="transparent" points="532,-1102.5 532,-1137.5 904,-1137.5 904,-1102.5 532,-1102.5"/>
<polygon fill="none" stroke="#000000" points="532,-1102.5 532,-1137.5 904,-1137.5 904,-1102.5 532,-1102.5"/>
<text text-anchor="start" x="538.8515" y="-1115.3" font-family="Arial Bold" font-size="18.00" fill="#000000">public.stock_picking_transfer_rel</text>
<text text-anchor="start" x="799.8947" y="-1115.3" font-family="Arial" font-size="14.00" fill="#000000"> </text>
<text text-anchor="start" x="803.7853" y="-1115.3" font-family="Arial" font-size="14.00" fill="#666666">[BASE TABLE]</text>
<polygon fill="none" stroke="#000000" points="532,-1072.5 532,-1102.5 904,-1102.5 904,-1072.5 532,-1072.5"/>
<text text-anchor="start" x="539" y="-1083.9" font-family="Arial" font-size="14.00" fill="#000000">stock_immediate_transfer_id </text>
<text text-anchor="start" x="721.8064" y="-1083.9" font-family="Arial" font-size="14.00" fill="#666666">[integer]</text>
<polygon fill="none" stroke="#000000" points="532,-1042.5 532,-1072.5 904,-1072.5 904,-1042.5 532,-1042.5"/>
<text text-anchor="start" x="539" y="-1053.9" font-family="Arial" font-size="14.00" fill="#000000">stock_picking_id </text>
<text text-anchor="start" x="645.5792" y="-1053.9" font-family="Arial" font-size="14.00" fill="#666666">[integer]</text>
<polygon fill="none" stroke="#000000" stroke-width="3" points="530.5,-1041.5 530.5,-1139.5 905.5,-1139.5 905.5,-1041.5 530.5,-1041.5"/>
</g>
<!-- public.stock_immediate_transfer -->
<g id="node2" class="node">
<title>public.stock_immediate_transfer</title>
<polygon fill="#efefef" stroke="transparent" points="314,-537.5 314,-572.5 683,-572.5 683,-537.5 314,-537.5"/>
<polygon fill="none" stroke="#000000" points="314,-537.5 314,-572.5 683,-572.5 683,-537.5 314,-537.5"/>
<text text-anchor="start" x="320.8545" y="-550.3" font-family="Arial Bold" font-size="18.00" fill="#000000">public.stock_immediate_transfer</text>
<text text-anchor="start" x="578.8917" y="-550.3" font-family="Arial" font-size="14.00" fill="#000000"> </text>
<text text-anchor="start" x="582.7823" y="-550.3" font-family="Arial" font-size="14.00" fill="#666666">[BASE TABLE]</text>
<polygon fill="none" stroke="#000000" points="314,-507.5 314,-537.5 683,-537.5 683,-507.5 314,-507.5"/>
<text text-anchor="start" x="321" y="-518.9" font-family="Arial" font-size="14.00" fill="#000000">id </text>
<text text-anchor="start" x="335.7798" y="-518.9" font-family="Arial" font-size="14.00" fill="#666666">[integer]</text>
<polygon fill="none" stroke="#000000" points="314,-477.5 314,-507.5 683,-507.5 683,-477.5 314,-477.5"/>
<text text-anchor="start" x="321" y="-488.9" font-family="Arial" font-size="14.00" fill="#000000">create_uid </text>
<text text-anchor="start" x="390.244" y="-488.9" font-family="Arial" font-size="14.00" fill="#666666">[integer]</text>
<polygon fill="none" stroke="#000000" points="314,-447.5 314,-477.5 683,-477.5 683,-447.5 314,-447.5"/>
<text text-anchor="start" x="321" y="-458.9" font-family="Arial" font-size="14.00" fill="#000000">create_date </text>
<text text-anchor="start" x="398.8106" y="-458.9" font-family="Arial" font-size="14.00" fill="#666666">[timestamp without time zone]</text>
<polygon fill="none" stroke="#000000" points="314,-417.5 314,-447.5 683,-447.5 683,-417.5 314,-417.5"/>
<text text-anchor="start" x="321" y="-428.9" font-family="Arial" font-size="14.00" fill="#000000">write_uid </text>
<text text-anchor="start" x="380.892" y="-428.9" font-family="Arial" font-size="14.00" fill="#666666">[integer]</text>
<polygon fill="none" stroke="#000000" points="314,-387.5 314,-417.5 683,-417.5 683,-387.5 314,-387.5"/>
<text text-anchor="start" x="321" y="-398.9" font-family="Arial" font-size="14.00" fill="#000000">write_date </text>
<text text-anchor="start" x="389.4586" y="-398.9" font-family="Arial" font-size="14.00" fill="#666666">[timestamp without time zone]</text>
</g>
<!-- public.stock_picking_transfer_rel&#45;&gt;public.stock_immediate_transfer -->
<g id="edge1" class="edge">
<title>public.stock_picking_transfer_rel:stock_immediate_transfer_id&#45;&gt;public.stock_immediate_transfer:id</title>
<path fill="none" stroke="#000000" d="M521.9431,-1086.0736C425.6512,-1054.8795 809.1547,-522.5 683,-522.5"/>
<polygon fill="#000000" stroke="#000000" points="522.0991,-1086.0956 531.368,-1091.9554 527.0495,-1086.7978 532,-1087.5 532,-1087.5 532,-1087.5 527.0495,-1086.7978 532.632,-1083.0446 522.0991,-1086.0956 522.0991,-1086.0956"/>
<text text-anchor="start" x="6.5405" y="-1097.5" font-family="Arial" font-size="10.00" fill="#000000">FOREIGN KEY (stock_immediate_transfer_id) REFERENCES stock_immediate_transfer(id) ON DELETE CASCADE</text>
</g>
<!-- public.stock_picking -->
<g id="node3" class="node">
<title>public.stock_picking</title>
<polygon fill="#efefef" stroke="transparent" points="787,-882.5 787,-917.5 1088,-917.5 1088,-882.5 787,-882.5"/>
<polygon fill="none" stroke="#000000" points="787,-882.5 787,-917.5 1088,-917.5 1088,-882.5 787,-882.5"/>
<text text-anchor="start" x="808.8577" y="-895.3" font-family="Arial Bold" font-size="18.00" fill="#000000">public.stock_picking</text>
<text text-anchor="start" x="968.8885" y="-895.3" font-family="Arial" font-size="14.00" fill="#000000"> </text>
<text text-anchor="start" x="972.7791" y="-895.3" font-family="Arial" font-size="14.00" fill="#666666">[BASE TABLE]</text>
<polygon fill="none" stroke="#000000" points="787,-852.5 787,-882.5 1088,-882.5 1088,-852.5 787,-852.5"/>
<text text-anchor="start" x="794" y="-863.9" font-family="Arial" font-size="14.00" fill="#000000">id </text>
<text text-anchor="start" x="808.7798" y="-863.9" font-family="Arial" font-size="14.00" fill="#666666">[integer]</text>
<polygon fill="none" stroke="#000000" points="787,-822.5 787,-852.5 1088,-852.5 1088,-822.5 787,-822.5"/>
<text text-anchor="start" x="794" y="-833.9" font-family="Arial" font-size="14.00" fill="#000000">message_main_attachment_id </text>
<text text-anchor="start" x="988.4964" y="-833.9" font-family="Arial" font-size="14.00" fill="#666666">[integer]</text>
<polygon fill="none" stroke="#000000" points="787,-792.5 787,-822.5 1088,-822.5 1088,-792.5 787,-792.5"/>
<text text-anchor="start" x="794" y="-803.9" font-family="Arial" font-size="14.00" fill="#000000">name </text>
<text text-anchor="start" x="832.899" y="-803.9" font-family="Arial" font-size="14.00" fill="#666666">[varchar]</text>
<polygon fill="none" stroke="#000000" points="787,-762.5 787,-792.5 1088,-792.5 1088,-762.5 787,-762.5"/>
<text text-anchor="start" x="794" y="-773.9" font-family="Arial" font-size="14.00" fill="#000000">origin </text>
<text text-anchor="start" x="832.1122" y="-773.9" font-family="Arial" font-size="14.00" fill="#666666">[varchar]</text>
<polygon fill="none" stroke="#000000" points="787,-732.5 787,-762.5 1088,-762.5 1088,-732.5 787,-732.5"/>
<text text-anchor="start" x="794" y="-743.9" font-family="Arial" font-size="14.00" fill="#000000">note </text>
<text text-anchor="start" x="825.129" y="-743.9" font-family="Arial" font-size="14.00" fill="#666666">[text]</text>
<polygon fill="none" stroke="#000000" points="787,-702.5 787,-732.5 1088,-732.5 1088,-702.5 787,-702.5"/>
<text text-anchor="start" x="794" y="-713.9" font-family="Arial" font-size="14.00" fill="#000000">backorder_id </text>
<text text-anchor="start" x="878.7966" y="-713.9" font-family="Arial" font-size="14.00" fill="#666666">[integer]</text>
<polygon fill="none" stroke="#000000" points="787,-672.5 787,-702.5 1088,-702.5 1088,-672.5 787,-672.5"/>
<text text-anchor="start" x="794" y="-683.9" font-family="Arial" font-size="14.00" fill="#000000">move_type </text>
<text text-anchor="start" x="866.3548" y="-683.9" font-family="Arial" font-size="14.00" fill="#666666">[varchar]</text>
<polygon fill="none" stroke="#000000" points="787,-642.5 787,-672.5 1088,-672.5 1088,-642.5 787,-642.5"/>
<text text-anchor="start" x="794" y="-653.9" font-family="Arial" font-size="14.00" fill="#000000">state </text>
<text text-anchor="start" x="828.237" y="-653.9" font-family="Arial" font-size="14.00" fill="#666666">[varchar]</text>
<polygon fill="none" stroke="#000000" points="787,-612.5 787,-642.5 1088,-642.5 1088,-612.5 787,-612.5"/>
<text text-anchor="start" x="794" y="-623.9" font-family="Arial" font-size="14.00" fill="#000000">group_id </text>
<text text-anchor="start" x="852.3534" y="-623.9" font-family="Arial" font-size="14.00" fill="#666666">[integer]</text>
<polygon fill="none" stroke="#000000" points="787,-582.5 787,-612.5 1088,-612.5 1088,-582.5 787,-582.5"/>
<text text-anchor="start" x="794" y="-593.9" font-family="Arial" font-size="14.00" fill="#000000">priority </text>
<text text-anchor="start" x="839.8808" y="-593.9" font-family="Arial" font-size="14.00" fill="#666666">[varchar]</text>
<polygon fill="none" stroke="#000000" points="787,-552.5 787,-582.5 1088,-582.5 1088,-552.5 787,-552.5"/>
<text text-anchor="start" x="793.573" y="-563.9" font-family="Arial" font-size="14.00" fill="#000000">scheduled_date </text>
<text text-anchor="start" x="896.2868" y="-563.9" font-family="Arial" font-size="14.00" fill="#666666">[timestamp without time zone]</text>
<polygon fill="none" stroke="#000000" points="787,-522.5 787,-552.5 1088,-552.5 1088,-522.5 787,-522.5"/>
<text text-anchor="start" x="794" y="-533.9" font-family="Arial" font-size="14.00" fill="#000000">date </text>
<text text-anchor="start" x="825.129" y="-533.9" font-family="Arial" font-size="14.00" fill="#666666">[timestamp without time zone]</text>
<polygon fill="none" stroke="#000000" points="787,-492.5 787,-522.5 1088,-522.5 1088,-492.5 787,-492.5"/>
<text text-anchor="start" x="794" y="-503.9" font-family="Arial" font-size="14.00" fill="#000000">date_done </text>
<text text-anchor="start" x="864.042" y="-503.9" font-family="Arial" font-size="14.00" fill="#666666">[timestamp without time zone]</text>
<polygon fill="none" stroke="#000000" points="787,-462.5 787,-492.5 1088,-492.5 1088,-462.5 787,-462.5"/>
<text text-anchor="start" x="794" y="-473.9" font-family="Arial" font-size="14.00" fill="#000000">location_id </text>
<text text-anchor="start" x="864.7966" y="-473.9" font-family="Arial" font-size="14.00" fill="#666666">[integer]</text>
<polygon fill="none" stroke="#000000" points="787,-432.5 787,-462.5 1088,-462.5 1088,-432.5 787,-432.5"/>
<text text-anchor="start" x="794" y="-443.9" font-family="Arial" font-size="14.00" fill="#000000">location_dest_id </text>
<text text-anchor="start" x="899.035" y="-443.9" font-family="Arial" font-size="14.00" fill="#666666">[integer]</text>
<polygon fill="none" stroke="#000000" points="787,-402.5 787,-432.5 1088,-432.5 1088,-402.5 787,-402.5"/>
<text text-anchor="start" x="794" y="-413.9" font-family="Arial" font-size="14.00" fill="#000000">picking_type_id </text>
<text text-anchor="start" x="894.3618" y="-413.9" font-family="Arial" font-size="14.00" fill="#666666">[integer]</text>
<polygon fill="none" stroke="#000000" points="787,-372.5 787,-402.5 1088,-402.5 1088,-372.5 787,-372.5"/>
<text text-anchor="start" x="794" y="-383.9" font-family="Arial" font-size="14.00" fill="#000000">partner_id </text>
<text text-anchor="start" x="860.9046" y="-383.9" font-family="Arial" font-size="14.00" fill="#666666">[integer]</text>
<polygon fill="none" stroke="#000000" points="787,-342.5 787,-372.5 1088,-372.5 1088,-342.5 787,-342.5"/>
<text text-anchor="start" x="794" y="-353.9" font-family="Arial" font-size="14.00" fill="#000000">company_id </text>
<text text-anchor="start" x="873.3534" y="-353.9" font-family="Arial" font-size="14.00" fill="#666666">[integer]</text>
<polygon fill="none" stroke="#000000" points="787,-312.5 787,-342.5 1088,-342.5 1088,-312.5 787,-312.5"/>
<text text-anchor="start" x="794" y="-323.9" font-family="Arial" font-size="14.00" fill="#000000">owner_id </text>
<text text-anchor="start" x="854.6774" y="-323.9" font-family="Arial" font-size="14.00" fill="#666666">[integer]</text>
<polygon fill="none" stroke="#000000" points="787,-282.5 787,-312.5 1088,-312.5 1088,-282.5 787,-282.5"/>
<text text-anchor="start" x="794" y="-293.9" font-family="Arial" font-size="14.00" fill="#000000">printed </text>
<text text-anchor="start" x="840.6788" y="-293.9" font-family="Arial" font-size="14.00" fill="#666666">[boolean]</text>
<polygon fill="none" stroke="#000000" points="787,-252.5 787,-282.5 1088,-282.5 1088,-252.5 787,-252.5"/>
<text text-anchor="start" x="794" y="-263.9" font-family="Arial" font-size="14.00" fill="#000000">is_locked </text>
<text text-anchor="start" x="856.2342" y="-263.9" font-family="Arial" font-size="14.00" fill="#666666">[boolean]</text>
<polygon fill="none" stroke="#000000" points="787,-222.5 787,-252.5 1088,-252.5 1088,-222.5 787,-222.5"/>
<text text-anchor="start" x="794" y="-233.9" font-family="Arial" font-size="14.00" fill="#000000">immediate_transfer </text>
<text text-anchor="start" x="917.6788" y="-233.9" font-family="Arial" font-size="14.00" fill="#666666">[boolean]</text>
<polygon fill="none" stroke="#000000" points="787,-192.5 787,-222.5 1088,-222.5 1088,-192.5 787,-192.5"/>
<text text-anchor="start" x="794" y="-203.9" font-family="Arial" font-size="14.00" fill="#000000">create_uid </text>
<text text-anchor="start" x="863.244" y="-203.9" font-family="Arial" font-size="14.00" fill="#666666">[integer]</text>
<polygon fill="none" stroke="#000000" points="787,-162.5 787,-192.5 1088,-192.5 1088,-162.5 787,-162.5"/>
<text text-anchor="start" x="794" y="-173.9" font-family="Arial" font-size="14.00" fill="#000000">create_date </text>
<text text-anchor="start" x="871.8106" y="-173.9" font-family="Arial" font-size="14.00" fill="#666666">[timestamp without time zone]</text>
<polygon fill="none" stroke="#000000" points="787,-132.5 787,-162.5 1088,-162.5 1088,-132.5 787,-132.5"/>
<text text-anchor="start" x="794" y="-143.9" font-family="Arial" font-size="14.00" fill="#000000">write_uid </text>
<text text-anchor="start" x="853.892" y="-143.9" font-family="Arial" font-size="14.00" fill="#666666">[integer]</text>
<polygon fill="none" stroke="#000000" points="787,-102.5 787,-132.5 1088,-132.5 1088,-102.5 787,-102.5"/>
<text text-anchor="start" x="794" y="-113.9" font-family="Arial" font-size="14.00" fill="#000000">write_date </text>
<text text-anchor="start" x="862.4586" y="-113.9" font-family="Arial" font-size="14.00" fill="#666666">[timestamp without time zone]</text>
<polygon fill="none" stroke="#000000" points="787,-72.5 787,-102.5 1088,-102.5 1088,-72.5 787,-72.5"/>
<text text-anchor="start" x="794" y="-83.9" font-family="Arial" font-size="14.00" fill="#000000">sale_id </text>
<text text-anchor="start" x="842.2342" y="-83.9" font-family="Arial" font-size="14.00" fill="#666666">[integer]</text>
<polygon fill="none" stroke="#000000" points="787,-42.5 787,-72.5 1088,-72.5 1088,-42.5 787,-42.5"/>
<text text-anchor="start" x="794" y="-53.9" font-family="Arial" font-size="14.00" fill="#000000">website_id </text>
<text text-anchor="start" x="864.014" y="-53.9" font-family="Arial" font-size="14.00" fill="#666666">[integer]</text>
</g>
<!-- public.stock_picking_transfer_rel&#45;&gt;public.stock_picking -->
<g id="edge2" class="edge">
<title>public.stock_picking_transfer_rel:stock_picking_id&#45;&gt;public.stock_picking:id</title>
<path fill="none" stroke="#000000" d="M913.9603,-1054.8671C927.3547,-1045.7738 917.4787,-1015.2496 904,-997 871.6774,-953.2365 819.3226,-1004.7635 787,-961 762.3118,-927.5731 745.4444,-867.5 787,-867.5"/>
<polygon fill="#000000" stroke="#000000" points="913.6679,-1054.9443 902.8499,-1053.1494 908.834,-1056.2221 904,-1057.5 904,-1057.5 904,-1057.5 908.834,-1056.2221 905.1501,-1061.8506 913.6679,-1054.9443 913.6679,-1054.9443"/>
<text text-anchor="start" x="910.9885" y="-1067.5" font-family="Arial" font-size="10.00" fill="#000000">FOREIGN KEY (stock_picking_id) REFERENCES stock_picking(id) ON DELETE CASCADE</text>
</g>
</g>
</svg>
