<?xml version="1.0" encoding="UTF-8" standalone="no"?>
<!DOCTYPE svg PUBLIC "-//W3C//DTD SVG 1.1//EN"
 "http://www.w3.org/Graphics/SVG/1.1/DTD/svg11.dtd">
<!-- Generated by graphviz version 2.40.1 (20161225.0304)
 -->
<!-- Title: public.account_journal_account_reconcile_model_template_rel Pages: 1 -->
<svg width="1684pt" height="1342pt"
 viewBox="0.00 0.00 1684.00 1342.00" xmlns="http://www.w3.org/2000/svg" xmlns:xlink="http://www.w3.org/1999/xlink">
<g id="graph0" class="graph" transform="scale(1 1) rotate(0) translate(4 1338)">
<title>public.account_journal_account_reconcile_model_template_rel</title>
<polygon fill="#ffffff" stroke="transparent" points="-4,4 -4,-1338 1680,-1338 1680,4 -4,4"/>
<!-- public.account_journal_account_reconcile_model_template_rel -->
<g id="node1" class="node">
<title>public.account_journal_account_reconcile_model_template_rel</title>
<polygon fill="#efefef" stroke="transparent" points="618,-1252.5 618,-1287.5 1231,-1287.5 1231,-1252.5 618,-1252.5"/>
<polygon fill="none" stroke="#000000" points="618,-1252.5 618,-1287.5 1231,-1287.5 1231,-1252.5 618,-1252.5"/>
<text text-anchor="start" x="624.8109" y="-1265.3" font-family="Arial Bold" font-size="18.00" fill="#000000">public.account_journal_account_reconcile_model_template_rel</text>
<text text-anchor="start" x="1126.9353" y="-1265.3" font-family="Arial" font-size="14.00" fill="#000000"> </text>
<text text-anchor="start" x="1130.8259" y="-1265.3" font-family="Arial" font-size="14.00" fill="#666666">[BASE TABLE]</text>
<polygon fill="none" stroke="#000000" points="618,-1222.5 618,-1252.5 1231,-1252.5 1231,-1222.5 618,-1222.5"/>
<text text-anchor="start" x="625" y="-1233.9" font-family="Arial" font-size="14.00" fill="#000000">account_reconcile_model_template_id </text>
<text text-anchor="start" x="867.7292" y="-1233.9" font-family="Arial" font-size="14.00" fill="#666666">[integer]</text>
<polygon fill="none" stroke="#000000" points="618,-1192.5 618,-1222.5 1231,-1222.5 1231,-1192.5 618,-1192.5"/>
<text text-anchor="start" x="625" y="-1203.9" font-family="Arial" font-size="14.00" fill="#000000">account_journal_id </text>
<text text-anchor="start" x="746.3702" y="-1203.9" font-family="Arial" font-size="14.00" fill="#666666">[integer]</text>
<polygon fill="none" stroke="#000000" stroke-width="3" points="616,-1191.5 616,-1289.5 1232,-1289.5 1232,-1191.5 616,-1191.5"/>
</g>
<!-- public.account_reconcile_model_template -->
<g id="node2" class="node">
<title>public.account_reconcile_model_template</title>
<polygon fill="#efefef" stroke="transparent" points="466,-1032.5 466,-1067.5 912,-1067.5 912,-1032.5 466,-1032.5"/>
<polygon fill="none" stroke="#000000" points="466,-1032.5 466,-1067.5 912,-1067.5 912,-1032.5 466,-1032.5"/>
<text text-anchor="start" x="472.8327" y="-1045.3" font-family="Arial Bold" font-size="18.00" fill="#000000">public.account_reconcile_model_template</text>
<text text-anchor="start" x="807.9135" y="-1045.3" font-family="Arial" font-size="14.00" fill="#000000"> </text>
<text text-anchor="start" x="811.8041" y="-1045.3" font-family="Arial" font-size="14.00" fill="#666666">[BASE TABLE]</text>
<polygon fill="none" stroke="#000000" points="466,-1002.5 466,-1032.5 912,-1032.5 912,-1002.5 466,-1002.5"/>
<text text-anchor="start" x="473" y="-1013.9" font-family="Arial" font-size="14.00" fill="#000000">id </text>
<text text-anchor="start" x="487.7798" y="-1013.9" font-family="Arial" font-size="14.00" fill="#666666">[integer]</text>
<polygon fill="none" stroke="#000000" points="466,-972.5 466,-1002.5 912,-1002.5 912,-972.5 466,-972.5"/>
<text text-anchor="start" x="473" y="-983.9" font-family="Arial" font-size="14.00" fill="#000000">chart_template_id </text>
<text text-anchor="start" x="588.1402" y="-983.9" font-family="Arial" font-size="14.00" fill="#666666">[integer]</text>
<polygon fill="none" stroke="#000000" points="466,-942.5 466,-972.5 912,-972.5 912,-942.5 466,-942.5"/>
<text text-anchor="start" x="473" y="-953.9" font-family="Arial" font-size="14.00" fill="#000000">name </text>
<text text-anchor="start" x="511.899" y="-953.9" font-family="Arial" font-size="14.00" fill="#666666">[varchar]</text>
<polygon fill="none" stroke="#000000" points="466,-912.5 466,-942.5 912,-942.5 912,-912.5 466,-912.5"/>
<text text-anchor="start" x="473" y="-923.9" font-family="Arial" font-size="14.00" fill="#000000">sequence </text>
<text text-anchor="start" x="537.5862" y="-923.9" font-family="Arial" font-size="14.00" fill="#666666">[integer]</text>
<polygon fill="none" stroke="#000000" points="466,-882.5 466,-912.5 912,-912.5 912,-882.5 466,-882.5"/>
<text text-anchor="start" x="473" y="-893.9" font-family="Arial" font-size="14.00" fill="#000000">rule_type </text>
<text text-anchor="start" x="534.4614" y="-893.9" font-family="Arial" font-size="14.00" fill="#666666">[varchar]</text>
<polygon fill="none" stroke="#000000" points="466,-852.5 466,-882.5 912,-882.5 912,-852.5 466,-852.5"/>
<text text-anchor="start" x="473" y="-863.9" font-family="Arial" font-size="14.00" fill="#000000">auto_reconcile </text>
<text text-anchor="start" x="567.9158" y="-863.9" font-family="Arial" font-size="14.00" fill="#666666">[boolean]</text>
<polygon fill="none" stroke="#000000" points="466,-822.5 466,-852.5 912,-852.5 912,-822.5 466,-822.5"/>
<text text-anchor="start" x="473" y="-833.9" font-family="Arial" font-size="14.00" fill="#000000">match_nature </text>
<text text-anchor="start" x="562.4712" y="-833.9" font-family="Arial" font-size="14.00" fill="#666666">[varchar]</text>
<polygon fill="none" stroke="#000000" points="466,-792.5 466,-822.5 912,-822.5 912,-792.5 466,-792.5"/>
<text text-anchor="start" x="473" y="-803.9" font-family="Arial" font-size="14.00" fill="#000000">match_amount </text>
<text text-anchor="start" x="569.4712" y="-803.9" font-family="Arial" font-size="14.00" fill="#666666">[varchar]</text>
<polygon fill="none" stroke="#000000" points="466,-762.5 466,-792.5 912,-792.5 912,-762.5 466,-762.5"/>
<text text-anchor="start" x="473" y="-773.9" font-family="Arial" font-size="14.00" fill="#000000">match_amount_min </text>
<text text-anchor="start" x="599.8036" y="-773.9" font-family="Arial" font-size="14.00" fill="#666666">[double precision]</text>
<polygon fill="none" stroke="#000000" points="466,-732.5 466,-762.5 912,-762.5 912,-732.5 466,-732.5"/>
<text text-anchor="start" x="473" y="-743.9" font-family="Arial" font-size="14.00" fill="#000000">match_amount_max </text>
<text text-anchor="start" x="603.697" y="-743.9" font-family="Arial" font-size="14.00" fill="#666666">[double precision]</text>
<polygon fill="none" stroke="#000000" points="466,-702.5 466,-732.5 912,-732.5 912,-702.5 466,-702.5"/>
<text text-anchor="start" x="473" y="-713.9" font-family="Arial" font-size="14.00" fill="#000000">match_label </text>
<text text-anchor="start" x="552.3506" y="-713.9" font-family="Arial" font-size="14.00" fill="#666666">[varchar]</text>
<polygon fill="none" stroke="#000000" points="466,-672.5 466,-702.5 912,-702.5 912,-672.5 466,-672.5"/>
<text text-anchor="start" x="473" y="-683.9" font-family="Arial" font-size="14.00" fill="#000000">match_label_param </text>
<text text-anchor="start" x="599.8022" y="-683.9" font-family="Arial" font-size="14.00" fill="#666666">[varchar]</text>
<polygon fill="none" stroke="#000000" points="466,-642.5 466,-672.5 912,-672.5 912,-642.5 466,-642.5"/>
<text text-anchor="start" x="473" y="-653.9" font-family="Arial" font-size="14.00" fill="#000000">match_same_currency </text>
<text text-anchor="start" x="618.467" y="-653.9" font-family="Arial" font-size="14.00" fill="#666666">[boolean]</text>
<polygon fill="none" stroke="#000000" points="466,-612.5 466,-642.5 912,-642.5 912,-612.5 466,-612.5"/>
<text text-anchor="start" x="473" y="-623.9" font-family="Arial" font-size="14.00" fill="#000000">match_total_amount </text>
<text text-anchor="start" x="603.7068" y="-623.9" font-family="Arial" font-size="14.00" fill="#666666">[boolean]</text>
<polygon fill="none" stroke="#000000" points="466,-582.5 466,-612.5 912,-612.5 912,-582.5 466,-582.5"/>
<text text-anchor="start" x="473" y="-593.9" font-family="Arial" font-size="14.00" fill="#000000">match_total_amount_param </text>
<text text-anchor="start" x="651.1584" y="-593.9" font-family="Arial" font-size="14.00" fill="#666666">[double precision]</text>
<polygon fill="none" stroke="#000000" points="466,-552.5 466,-582.5 912,-582.5 912,-552.5 466,-552.5"/>
<text text-anchor="start" x="473" y="-563.9" font-family="Arial" font-size="14.00" fill="#000000">match_partner </text>
<text text-anchor="start" x="567.1318" y="-563.9" font-family="Arial" font-size="14.00" fill="#666666">[boolean]</text>
<polygon fill="none" stroke="#000000" points="466,-522.5 466,-552.5 912,-552.5 912,-522.5 466,-522.5"/>
<text text-anchor="start" x="473" y="-533.9" font-family="Arial" font-size="14.00" fill="#000000">account_id </text>
<text text-anchor="start" x="544.5834" y="-533.9" font-family="Arial" font-size="14.00" fill="#666666">[integer]</text>
<polygon fill="none" stroke="#000000" points="466,-492.5 466,-522.5 912,-522.5 912,-492.5 466,-492.5"/>
<text text-anchor="start" x="473" y="-503.9" font-family="Arial" font-size="14.00" fill="#000000">label </text>
<text text-anchor="start" x="506.4516" y="-503.9" font-family="Arial" font-size="14.00" fill="#666666">[varchar]</text>
<polygon fill="none" stroke="#000000" points="466,-462.5 466,-492.5 912,-492.5 912,-462.5 466,-462.5"/>
<text text-anchor="start" x="473" y="-473.9" font-family="Arial" font-size="14.00" fill="#000000">amount_type </text>
<text text-anchor="start" x="557.8106" y="-473.9" font-family="Arial" font-size="14.00" fill="#666666">[varchar]</text>
<polygon fill="none" stroke="#000000" points="466,-432.5 466,-462.5 912,-462.5 912,-432.5 466,-432.5"/>
<text text-anchor="start" x="473" y="-443.9" font-family="Arial" font-size="14.00" fill="#000000">amount </text>
<text text-anchor="start" x="523.5722" y="-443.9" font-family="Arial" font-size="14.00" fill="#666666">[numeric]</text>
<polygon fill="none" stroke="#000000" points="466,-402.5 466,-432.5 912,-432.5 912,-402.5 466,-402.5"/>
<text text-anchor="start" x="473" y="-413.9" font-family="Arial" font-size="14.00" fill="#000000">force_tax_included </text>
<text text-anchor="start" x="594.3716" y="-413.9" font-family="Arial" font-size="14.00" fill="#666666">[boolean]</text>
<polygon fill="none" stroke="#000000" points="466,-372.5 466,-402.5 912,-402.5 912,-372.5 466,-372.5"/>
<text text-anchor="start" x="473" y="-383.9" font-family="Arial" font-size="14.00" fill="#000000">tax_id </text>
<text text-anchor="start" x="514.2356" y="-383.9" font-family="Arial" font-size="14.00" fill="#666666">[integer]</text>
<polygon fill="none" stroke="#000000" points="466,-342.5 466,-372.5 912,-372.5 912,-342.5 466,-342.5"/>
<text text-anchor="start" x="473" y="-353.9" font-family="Arial" font-size="14.00" fill="#000000">has_second_line </text>
<text text-anchor="start" x="581.9298" y="-353.9" font-family="Arial" font-size="14.00" fill="#666666">[boolean]</text>
<polygon fill="none" stroke="#000000" points="466,-312.5 466,-342.5 912,-342.5 912,-312.5 466,-312.5"/>
<text text-anchor="start" x="473" y="-323.9" font-family="Arial" font-size="14.00" fill="#000000">second_account_id </text>
<text text-anchor="start" x="597.4964" y="-323.9" font-family="Arial" font-size="14.00" fill="#666666">[integer]</text>
<polygon fill="none" stroke="#000000" points="466,-282.5 466,-312.5 912,-312.5 912,-282.5 466,-282.5"/>
<text text-anchor="start" x="473" y="-293.9" font-family="Arial" font-size="14.00" fill="#000000">second_label </text>
<text text-anchor="start" x="559.3646" y="-293.9" font-family="Arial" font-size="14.00" fill="#666666">[varchar]</text>
<polygon fill="none" stroke="#000000" points="466,-252.5 466,-282.5 912,-282.5 912,-252.5 466,-252.5"/>
<text text-anchor="start" x="473" y="-263.9" font-family="Arial" font-size="14.00" fill="#000000">second_amount_type </text>
<text text-anchor="start" x="610.7236" y="-263.9" font-family="Arial" font-size="14.00" fill="#666666">[varchar]</text>
<polygon fill="none" stroke="#000000" points="466,-222.5 466,-252.5 912,-252.5 912,-222.5 466,-222.5"/>
<text text-anchor="start" x="473" y="-233.9" font-family="Arial" font-size="14.00" fill="#000000">second_amount </text>
<text text-anchor="start" x="576.4852" y="-233.9" font-family="Arial" font-size="14.00" fill="#666666">[numeric]</text>
<polygon fill="none" stroke="#000000" points="466,-192.5 466,-222.5 912,-222.5 912,-192.5 466,-192.5"/>
<text text-anchor="start" x="473" y="-203.9" font-family="Arial" font-size="14.00" fill="#000000">force_second_tax_included </text>
<text text-anchor="start" x="647.2846" y="-203.9" font-family="Arial" font-size="14.00" fill="#666666">[boolean]</text>
<polygon fill="none" stroke="#000000" points="466,-162.5 466,-192.5 912,-192.5 912,-162.5 466,-162.5"/>
<text text-anchor="start" x="473" y="-173.9" font-family="Arial" font-size="14.00" fill="#000000">second_tax_id </text>
<text text-anchor="start" x="567.1486" y="-173.9" font-family="Arial" font-size="14.00" fill="#666666">[integer]</text>
<polygon fill="none" stroke="#000000" points="466,-132.5 466,-162.5 912,-162.5 912,-132.5 466,-132.5"/>
<text text-anchor="start" x="473" y="-143.9" font-family="Arial" font-size="14.00" fill="#000000">create_uid </text>
<text text-anchor="start" x="542.244" y="-143.9" font-family="Arial" font-size="14.00" fill="#666666">[integer]</text>
<polygon fill="none" stroke="#000000" points="466,-102.5 466,-132.5 912,-132.5 912,-102.5 466,-102.5"/>
<text text-anchor="start" x="473" y="-113.9" font-family="Arial" font-size="14.00" fill="#000000">create_date </text>
<text text-anchor="start" x="550.8106" y="-113.9" font-family="Arial" font-size="14.00" fill="#666666">[timestamp without time zone]</text>
<polygon fill="none" stroke="#000000" points="466,-72.5 466,-102.5 912,-102.5 912,-72.5 466,-72.5"/>
<text text-anchor="start" x="473" y="-83.9" font-family="Arial" font-size="14.00" fill="#000000">write_uid </text>
<text text-anchor="start" x="532.892" y="-83.9" font-family="Arial" font-size="14.00" fill="#666666">[integer]</text>
<polygon fill="none" stroke="#000000" points="466,-42.5 466,-72.5 912,-72.5 912,-42.5 466,-42.5"/>
<text text-anchor="start" x="473" y="-53.9" font-family="Arial" font-size="14.00" fill="#000000">write_date </text>
<text text-anchor="start" x="541.4586" y="-53.9" font-family="Arial" font-size="14.00" fill="#666666">[timestamp without time zone]</text>
</g>
<!-- public.account_journal_account_reconcile_model_template_rel&#45;&gt;public.account_reconcile_model_template -->
<g id="edge1" class="edge">
<title>public.account_journal_account_reconcile_model_template_rel:account_reconcile_model_template_id&#45;&gt;public.account_reconcile_model_template:id</title>
<path fill="none" stroke="#000000" d="M608.0722,-1235.9826C580.4363,-1226.4448 593.8421,-1174.2965 618,-1147 705.2453,-1048.4199 824.7547,-1209.5801 912,-1111 939.5407,-1079.8813 953.5556,-1017.5 912,-1017.5"/>
<polygon fill="#000000" stroke="#000000" points="608.1148,-1235.9891 617.3201,-1241.9483 613.0574,-1236.7445 618,-1237.5 618,-1237.5 618,-1237.5 613.0574,-1236.7445 618.6799,-1233.0517 608.1148,-1235.9891 608.1148,-1235.9891"/>
<text text-anchor="start" x="6.7385" y="-1247.5" font-family="Arial" font-size="10.00" fill="#000000">FOREIGN KEY (account_reconcile_model_template_id) REFERENCES account_reconcile_model_template(id) ON DELETE CASCADE</text>
</g>
<!-- public.account_journal -->
<g id="node3" class="node">
<title>public.account_journal</title>
<polygon fill="#efefef" stroke="transparent" points="1016,-1002.5 1016,-1037.5 1306,-1037.5 1306,-1002.5 1016,-1002.5"/>
<polygon fill="none" stroke="#000000" points="1016,-1002.5 1016,-1037.5 1306,-1037.5 1306,-1002.5 1016,-1002.5"/>
<text text-anchor="start" x="1022.8492" y="-1015.3" font-family="Arial Bold" font-size="18.00" fill="#000000">public.account_journal</text>
<text text-anchor="start" x="1201.897" y="-1015.3" font-family="Arial" font-size="14.00" fill="#000000"> </text>
<text text-anchor="start" x="1205.7876" y="-1015.3" font-family="Arial" font-size="14.00" fill="#666666">[BASE TABLE]</text>
<polygon fill="none" stroke="#000000" points="1016,-972.5 1016,-1002.5 1306,-1002.5 1306,-972.5 1016,-972.5"/>
<text text-anchor="start" x="1023" y="-983.9" font-family="Arial" font-size="14.00" fill="#000000">id </text>
<text text-anchor="start" x="1037.7798" y="-983.9" font-family="Arial" font-size="14.00" fill="#666666">[integer]</text>
<polygon fill="none" stroke="#000000" points="1016,-942.5 1016,-972.5 1306,-972.5 1306,-942.5 1016,-942.5"/>
<text text-anchor="start" x="1023" y="-953.9" font-family="Arial" font-size="14.00" fill="#000000">name </text>
<text text-anchor="start" x="1061.899" y="-953.9" font-family="Arial" font-size="14.00" fill="#666666">[varchar]</text>
<polygon fill="none" stroke="#000000" points="1016,-912.5 1016,-942.5 1306,-942.5 1306,-912.5 1016,-912.5"/>
<text text-anchor="start" x="1023" y="-923.9" font-family="Arial" font-size="14.00" fill="#000000">code </text>
<text text-anchor="start" x="1057.2384" y="-923.9" font-family="Arial" font-size="14.00" fill="#666666">[varchar(5)]</text>
<polygon fill="none" stroke="#000000" points="1016,-882.5 1016,-912.5 1306,-912.5 1306,-882.5 1016,-882.5"/>
<text text-anchor="start" x="1023" y="-893.9" font-family="Arial" font-size="14.00" fill="#000000">active </text>
<text text-anchor="start" x="1063.453" y="-893.9" font-family="Arial" font-size="14.00" fill="#666666">[boolean]</text>
<polygon fill="none" stroke="#000000" points="1016,-852.5 1016,-882.5 1306,-882.5 1306,-852.5 1016,-852.5"/>
<text text-anchor="start" x="1023" y="-863.9" font-family="Arial" font-size="14.00" fill="#000000">type </text>
<text text-anchor="start" x="1053.3464" y="-863.9" font-family="Arial" font-size="14.00" fill="#666666">[varchar]</text>
<polygon fill="none" stroke="#000000" points="1016,-822.5 1016,-852.5 1306,-852.5 1306,-822.5 1016,-822.5"/>
<text text-anchor="start" x="1023" y="-833.9" font-family="Arial" font-size="14.00" fill="#000000">default_credit_account_id </text>
<text text-anchor="start" x="1186.3898" y="-833.9" font-family="Arial" font-size="14.00" fill="#666666">[integer]</text>
<polygon fill="none" stroke="#000000" points="1016,-792.5 1016,-822.5 1306,-822.5 1306,-792.5 1016,-792.5"/>
<text text-anchor="start" x="1023" y="-803.9" font-family="Arial" font-size="14.00" fill="#000000">default_debit_account_id </text>
<text text-anchor="start" x="1182.5118" y="-803.9" font-family="Arial" font-size="14.00" fill="#666666">[integer]</text>
<polygon fill="none" stroke="#000000" points="1016,-762.5 1016,-792.5 1306,-792.5 1306,-762.5 1016,-762.5"/>
<text text-anchor="start" x="1023" y="-773.9" font-family="Arial" font-size="14.00" fill="#000000">update_posted </text>
<text text-anchor="start" x="1119.4978" y="-773.9" font-family="Arial" font-size="14.00" fill="#666666">[boolean]</text>
<polygon fill="none" stroke="#000000" points="1016,-732.5 1016,-762.5 1306,-762.5 1306,-732.5 1016,-732.5"/>
<text text-anchor="start" x="1023" y="-743.9" font-family="Arial" font-size="14.00" fill="#000000">group_invoice_lines </text>
<text text-anchor="start" x="1150.5862" y="-743.9" font-family="Arial" font-size="14.00" fill="#666666">[boolean]</text>
<polygon fill="none" stroke="#000000" points="1016,-702.5 1016,-732.5 1306,-732.5 1306,-702.5 1016,-702.5"/>
<text text-anchor="start" x="1023" y="-713.9" font-family="Arial" font-size="14.00" fill="#000000">sequence_id </text>
<text text-anchor="start" x="1106.258" y="-713.9" font-family="Arial" font-size="14.00" fill="#666666">[integer]</text>
<polygon fill="none" stroke="#000000" points="1016,-672.5 1016,-702.5 1306,-702.5 1306,-672.5 1016,-672.5"/>
<text text-anchor="start" x="1023" y="-683.9" font-family="Arial" font-size="14.00" fill="#000000">refund_sequence_id </text>
<text text-anchor="start" x="1153.7222" y="-683.9" font-family="Arial" font-size="14.00" fill="#666666">[integer]</text>
<polygon fill="none" stroke="#000000" points="1016,-642.5 1016,-672.5 1306,-672.5 1306,-642.5 1016,-642.5"/>
<text text-anchor="start" x="1023" y="-653.9" font-family="Arial" font-size="14.00" fill="#000000">sequence </text>
<text text-anchor="start" x="1087.5862" y="-653.9" font-family="Arial" font-size="14.00" fill="#666666">[integer]</text>
<polygon fill="none" stroke="#000000" points="1016,-612.5 1016,-642.5 1306,-642.5 1306,-612.5 1016,-612.5"/>
<text text-anchor="start" x="1023" y="-623.9" font-family="Arial" font-size="14.00" fill="#000000">currency_id </text>
<text text-anchor="start" x="1099.2314" y="-623.9" font-family="Arial" font-size="14.00" fill="#666666">[integer]</text>
<polygon fill="none" stroke="#000000" points="1016,-582.5 1016,-612.5 1306,-612.5 1306,-582.5 1016,-582.5"/>
<text text-anchor="start" x="1023" y="-593.9" font-family="Arial" font-size="14.00" fill="#000000">company_id </text>
<text text-anchor="start" x="1102.3534" y="-593.9" font-family="Arial" font-size="14.00" fill="#666666">[integer]</text>
<polygon fill="none" stroke="#000000" points="1016,-552.5 1016,-582.5 1306,-582.5 1306,-552.5 1016,-552.5"/>
<text text-anchor="start" x="1023" y="-563.9" font-family="Arial" font-size="14.00" fill="#000000">refund_sequence </text>
<text text-anchor="start" x="1135.0504" y="-563.9" font-family="Arial" font-size="14.00" fill="#666666">[boolean]</text>
<polygon fill="none" stroke="#000000" points="1016,-522.5 1016,-552.5 1306,-552.5 1306,-522.5 1016,-522.5"/>
<text text-anchor="start" x="1023" y="-533.9" font-family="Arial" font-size="14.00" fill="#000000">at_least_one_inbound </text>
<text text-anchor="start" x="1164.624" y="-533.9" font-family="Arial" font-size="14.00" fill="#666666">[boolean]</text>
<polygon fill="none" stroke="#000000" points="1016,-492.5 1016,-522.5 1306,-522.5 1306,-492.5 1016,-492.5"/>
<text text-anchor="start" x="1023" y="-503.9" font-family="Arial" font-size="14.00" fill="#000000">at_least_one_outbound </text>
<text text-anchor="start" x="1173.1906" y="-503.9" font-family="Arial" font-size="14.00" fill="#666666">[boolean]</text>
<polygon fill="none" stroke="#000000" points="1016,-462.5 1016,-492.5 1306,-492.5 1306,-462.5 1016,-462.5"/>
<text text-anchor="start" x="1023" y="-473.9" font-family="Arial" font-size="14.00" fill="#000000">profit_account_id </text>
<text text-anchor="start" x="1133.4796" y="-473.9" font-family="Arial" font-size="14.00" fill="#666666">[integer]</text>
<polygon fill="none" stroke="#000000" points="1016,-432.5 1016,-462.5 1306,-462.5 1306,-432.5 1016,-432.5"/>
<text text-anchor="start" x="1023" y="-443.9" font-family="Arial" font-size="14.00" fill="#000000">loss_account_id </text>
<text text-anchor="start" x="1127.2552" y="-443.9" font-family="Arial" font-size="14.00" fill="#666666">[integer]</text>
<polygon fill="none" stroke="#000000" points="1016,-402.5 1016,-432.5 1306,-432.5 1306,-402.5 1016,-402.5"/>
<text text-anchor="start" x="1023" y="-413.9" font-family="Arial" font-size="14.00" fill="#000000">bank_account_id </text>
<text text-anchor="start" x="1132.7138" y="-413.9" font-family="Arial" font-size="14.00" fill="#666666">[integer]</text>
<polygon fill="none" stroke="#000000" points="1016,-372.5 1016,-402.5 1306,-402.5 1306,-372.5 1016,-372.5"/>
<text text-anchor="start" x="1023" y="-383.9" font-family="Arial" font-size="14.00" fill="#000000">bank_statements_source </text>
<text text-anchor="start" x="1183.2748" y="-383.9" font-family="Arial" font-size="14.00" fill="#666666">[varchar]</text>
<polygon fill="none" stroke="#000000" points="1016,-342.5 1016,-372.5 1306,-372.5 1306,-342.5 1016,-342.5"/>
<text text-anchor="start" x="1023" y="-353.9" font-family="Arial" font-size="14.00" fill="#000000">post_at_bank_rec </text>
<text text-anchor="start" x="1138.1584" y="-353.9" font-family="Arial" font-size="14.00" fill="#666666">[boolean]</text>
<polygon fill="none" stroke="#000000" points="1016,-312.5 1016,-342.5 1306,-342.5 1306,-312.5 1016,-312.5"/>
<text text-anchor="start" x="1023" y="-323.9" font-family="Arial" font-size="14.00" fill="#000000">alias_id </text>
<text text-anchor="start" x="1074.3408" y="-323.9" font-family="Arial" font-size="14.00" fill="#666666">[integer]</text>
<polygon fill="none" stroke="#000000" points="1016,-282.5 1016,-312.5 1306,-312.5 1306,-282.5 1016,-282.5"/>
<text text-anchor="start" x="1023" y="-293.9" font-family="Arial" font-size="14.00" fill="#000000">show_on_dashboard </text>
<text text-anchor="start" x="1156.8316" y="-293.9" font-family="Arial" font-size="14.00" fill="#666666">[boolean]</text>
<polygon fill="none" stroke="#000000" points="1016,-252.5 1016,-282.5 1306,-282.5 1306,-252.5 1016,-252.5"/>
<text text-anchor="start" x="1023" y="-263.9" font-family="Arial" font-size="14.00" fill="#000000">color </text>
<text text-anchor="start" x="1057.223" y="-263.9" font-family="Arial" font-size="14.00" fill="#666666">[integer]</text>
<polygon fill="none" stroke="#000000" points="1016,-222.5 1016,-252.5 1306,-252.5 1306,-222.5 1016,-222.5"/>
<text text-anchor="start" x="1023" y="-233.9" font-family="Arial" font-size="14.00" fill="#000000">create_uid </text>
<text text-anchor="start" x="1092.244" y="-233.9" font-family="Arial" font-size="14.00" fill="#666666">[integer]</text>
<polygon fill="none" stroke="#000000" points="1016,-192.5 1016,-222.5 1306,-222.5 1306,-192.5 1016,-192.5"/>
<text text-anchor="start" x="1023" y="-203.9" font-family="Arial" font-size="14.00" fill="#000000">create_date </text>
<text text-anchor="start" x="1100.8106" y="-203.9" font-family="Arial" font-size="14.00" fill="#666666">[timestamp without time zone]</text>
<polygon fill="none" stroke="#000000" points="1016,-162.5 1016,-192.5 1306,-192.5 1306,-162.5 1016,-162.5"/>
<text text-anchor="start" x="1023" y="-173.9" font-family="Arial" font-size="14.00" fill="#000000">write_uid </text>
<text text-anchor="start" x="1082.892" y="-173.9" font-family="Arial" font-size="14.00" fill="#666666">[integer]</text>
<polygon fill="none" stroke="#000000" points="1016,-132.5 1016,-162.5 1306,-162.5 1306,-132.5 1016,-132.5"/>
<text text-anchor="start" x="1023" y="-143.9" font-family="Arial" font-size="14.00" fill="#000000">write_date </text>
<text text-anchor="start" x="1091.4586" y="-143.9" font-family="Arial" font-size="14.00" fill="#666666">[timestamp without time zone]</text>
<polygon fill="none" stroke="#000000" points="1016,-102.5 1016,-132.5 1306,-132.5 1306,-102.5 1016,-102.5"/>
<text text-anchor="start" x="1023" y="-113.9" font-family="Arial" font-size="14.00" fill="#000000">journal_user </text>
<text text-anchor="start" x="1103.9032" y="-113.9" font-family="Arial" font-size="14.00" fill="#666666">[boolean]</text>
<polygon fill="none" stroke="#000000" points="1016,-72.5 1016,-102.5 1306,-102.5 1306,-72.5 1016,-72.5"/>
<text text-anchor="start" x="1023" y="-83.9" font-family="Arial" font-size="14.00" fill="#000000">amount_authorized_diff </text>
<text text-anchor="start" x="1173.1612" y="-83.9" font-family="Arial" font-size="14.00" fill="#666666">[double precision]</text>
</g>
<!-- public.account_journal_account_reconcile_model_template_rel&#45;&gt;public.account_journal -->
<g id="edge2" class="edge">
<title>public.account_journal_account_reconcile_model_template_rel:account_journal_id&#45;&gt;public.account_journal:id</title>
<path fill="none" stroke="#000000" d="M1240.9607,-1204.8667C1254.3565,-1195.7724 1244.4847,-1165.2452 1231,-1147 1171.5894,-1066.6154 1075.4106,-1161.3846 1016,-1081 991.3008,-1047.5812 974.4444,-987.5 1016,-987.5"/>
<polygon fill="#000000" stroke="#000000" points="1240.6679,-1204.9441 1229.8498,-1203.1495 1235.8339,-1206.222 1231,-1207.5 1231,-1207.5 1231,-1207.5 1235.8339,-1206.222 1232.1502,-1211.8505 1240.6679,-1204.9441 1240.6679,-1204.9441"/>
<text text-anchor="start" x="1238.4235" y="-1217.5" font-family="Arial" font-size="10.00" fill="#000000">FOREIGN KEY (account_journal_id) REFERENCES account_journal(id) ON DELETE CASCADE</text>
</g>
</g>
</svg>
