<?xml version="1.0" encoding="UTF-8" standalone="no"?>
<!DOCTYPE svg PUBLIC "-//W3C//DTD SVG 1.1//EN"
 "http://www.w3.org/Graphics/SVG/1.1/DTD/svg11.dtd">
<!-- Generated by graphviz version 2.40.1 (20161225.0304)
 -->
<!-- Title: public.ir_model_data Pages: 1 -->
<svg width="714pt" height="1312pt"
 viewBox="0.00 0.00 714.00 1312.00" xmlns="http://www.w3.org/2000/svg" xmlns:xlink="http://www.w3.org/1999/xlink">
<g id="graph0" class="graph" transform="scale(1 1) rotate(0) translate(4 1308)">
<title>public.ir_model_data</title>
<polygon fill="#ffffff" stroke="transparent" points="-4,4 -4,-1308 710,-1308 710,4 -4,4"/>
<!-- public.ir_model_data -->
<g id="node1" class="node">
<title>public.ir_model_data</title>
<polygon fill="#efefef" stroke="transparent" points="46,-1222.5 46,-1257.5 326,-1257.5 326,-1222.5 46,-1222.5"/>
<polygon fill="none" stroke="#000000" points="46,-1222.5 46,-1257.5 326,-1257.5 326,-1222.5 46,-1222.5"/>
<text text-anchor="start" x="54.3562" y="-1235.3" font-family="Arial Bold" font-size="18.00" fill="#000000">public.ir_model_data</text>
<text text-anchor="start" x="220.39" y="-1235.3" font-family="Arial" font-size="14.00" fill="#000000"> </text>
<text text-anchor="start" x="224.2806" y="-1235.3" font-family="Arial" font-size="14.00" fill="#666666">[BASE TABLE]</text>
<polygon fill="none" stroke="#000000" points="46,-1192.5 46,-1222.5 326,-1222.5 326,-1192.5 46,-1192.5"/>
<text text-anchor="start" x="53" y="-1203.9" font-family="Arial" font-size="14.00" fill="#000000">id </text>
<text text-anchor="start" x="67.7798" y="-1203.9" font-family="Arial" font-size="14.00" fill="#666666">[integer]</text>
<polygon fill="none" stroke="#000000" points="46,-1162.5 46,-1192.5 326,-1192.5 326,-1162.5 46,-1162.5"/>
<text text-anchor="start" x="53" y="-1173.9" font-family="Arial" font-size="14.00" fill="#000000">create_uid </text>
<text text-anchor="start" x="122.244" y="-1173.9" font-family="Arial" font-size="14.00" fill="#666666">[integer]</text>
<polygon fill="none" stroke="#000000" points="46,-1132.5 46,-1162.5 326,-1162.5 326,-1132.5 46,-1132.5"/>
<text text-anchor="start" x="53" y="-1143.9" font-family="Arial" font-size="14.00" fill="#000000">create_date </text>
<text text-anchor="start" x="130.8106" y="-1143.9" font-family="Arial" font-size="14.00" fill="#666666">[timestamp without time zone]</text>
<polygon fill="none" stroke="#000000" points="46,-1102.5 46,-1132.5 326,-1132.5 326,-1102.5 46,-1102.5"/>
<text text-anchor="start" x="53" y="-1113.9" font-family="Arial" font-size="14.00" fill="#000000">write_date </text>
<text text-anchor="start" x="121.4586" y="-1113.9" font-family="Arial" font-size="14.00" fill="#666666">[timestamp without time zone]</text>
<polygon fill="none" stroke="#000000" points="46,-1072.5 46,-1102.5 326,-1102.5 326,-1072.5 46,-1072.5"/>
<text text-anchor="start" x="53" y="-1083.9" font-family="Arial" font-size="14.00" fill="#000000">write_uid </text>
<text text-anchor="start" x="112.892" y="-1083.9" font-family="Arial" font-size="14.00" fill="#666666">[integer]</text>
<polygon fill="none" stroke="#000000" points="46,-1042.5 46,-1072.5 326,-1072.5 326,-1042.5 46,-1042.5"/>
<text text-anchor="start" x="53" y="-1053.9" font-family="Arial" font-size="14.00" fill="#000000">noupdate </text>
<text text-anchor="start" x="115.2594" y="-1053.9" font-family="Arial" font-size="14.00" fill="#666666">[boolean]</text>
<polygon fill="none" stroke="#000000" points="46,-1012.5 46,-1042.5 326,-1042.5 326,-1012.5 46,-1012.5"/>
<text text-anchor="start" x="53" y="-1023.9" font-family="Arial" font-size="14.00" fill="#000000">name </text>
<text text-anchor="start" x="91.899" y="-1023.9" font-family="Arial" font-size="14.00" fill="#666666">[varchar]</text>
<polygon fill="none" stroke="#000000" points="46,-982.5 46,-1012.5 326,-1012.5 326,-982.5 46,-982.5"/>
<text text-anchor="start" x="53" y="-993.9" font-family="Arial" font-size="14.00" fill="#000000">date_init </text>
<text text-anchor="start" x="109.798" y="-993.9" font-family="Arial" font-size="14.00" fill="#666666">[timestamp without time zone]</text>
<polygon fill="none" stroke="#000000" points="46,-952.5 46,-982.5 326,-982.5 326,-952.5 46,-952.5"/>
<text text-anchor="start" x="52.5723" y="-963.9" font-family="Arial" font-size="14.00" fill="#000000">date_update </text>
<text text-anchor="start" x="134.2875" y="-963.9" font-family="Arial" font-size="14.00" fill="#666666">[timestamp without time zone]</text>
<polygon fill="none" stroke="#000000" points="46,-922.5 46,-952.5 326,-952.5 326,-922.5 46,-922.5"/>
<text text-anchor="start" x="53" y="-933.9" font-family="Arial" font-size="14.00" fill="#000000">module </text>
<text text-anchor="start" x="102.7882" y="-933.9" font-family="Arial" font-size="14.00" fill="#666666">[varchar]</text>
<polygon fill="none" stroke="#000000" points="46,-892.5 46,-922.5 326,-922.5 326,-892.5 46,-892.5"/>
<text text-anchor="start" x="53" y="-903.9" font-family="Arial" font-size="14.00" fill="#000000">model </text>
<text text-anchor="start" x="95.0056" y="-903.9" font-family="Arial" font-size="14.00" fill="#666666">[varchar]</text>
<polygon fill="none" stroke="#000000" points="46,-862.5 46,-892.5 326,-892.5 326,-862.5 46,-862.5"/>
<text text-anchor="start" x="53" y="-873.9" font-family="Arial" font-size="14.00" fill="#000000">res_id </text>
<text text-anchor="start" x="95.0056" y="-873.9" font-family="Arial" font-size="14.00" fill="#666666">[integer]</text>
<polygon fill="none" stroke="#000000" stroke-width="3" points="44.5,-861.5 44.5,-1259.5 327.5,-1259.5 327.5,-861.5 44.5,-861.5"/>
</g>
<!-- public.res_users -->
<g id="node2" class="node">
<title>public.res_users</title>
<polygon fill="#efefef" stroke="transparent" points="48,-702.5 48,-737.5 324,-737.5 324,-702.5 48,-702.5"/>
<polygon fill="none" stroke="#000000" points="48,-702.5 48,-737.5 324,-737.5 324,-702.5 48,-702.5"/>
<text text-anchor="start" x="71.8639" y="-715.3" font-family="Arial Bold" font-size="18.00" fill="#000000">public.res_users</text>
<text text-anchor="start" x="202.8823" y="-715.3" font-family="Arial" font-size="14.00" fill="#000000"> </text>
<text text-anchor="start" x="206.7729" y="-715.3" font-family="Arial" font-size="14.00" fill="#666666">[BASE TABLE]</text>
<polygon fill="none" stroke="#000000" points="48,-672.5 48,-702.5 324,-702.5 324,-672.5 48,-672.5"/>
<text text-anchor="start" x="55" y="-683.9" font-family="Arial" font-size="14.00" fill="#000000">id </text>
<text text-anchor="start" x="69.7798" y="-683.9" font-family="Arial" font-size="14.00" fill="#666666">[integer]</text>
<polygon fill="none" stroke="#000000" points="48,-642.5 48,-672.5 324,-672.5 324,-642.5 48,-642.5"/>
<text text-anchor="start" x="55" y="-653.9" font-family="Arial" font-size="14.00" fill="#000000">active </text>
<text text-anchor="start" x="95.453" y="-653.9" font-family="Arial" font-size="14.00" fill="#666666">[boolean]</text>
<polygon fill="none" stroke="#000000" points="48,-612.5 48,-642.5 324,-642.5 324,-612.5 48,-612.5"/>
<text text-anchor="start" x="55" y="-623.9" font-family="Arial" font-size="14.00" fill="#000000">login </text>
<text text-anchor="start" x="88.4516" y="-623.9" font-family="Arial" font-size="14.00" fill="#666666">[varchar]</text>
<polygon fill="none" stroke="#000000" points="48,-582.5 48,-612.5 324,-612.5 324,-582.5 48,-582.5"/>
<text text-anchor="start" x="55" y="-593.9" font-family="Arial" font-size="14.00" fill="#000000">password </text>
<text text-anchor="start" x="118.7882" y="-593.9" font-family="Arial" font-size="14.00" fill="#666666">[varchar]</text>
<polygon fill="none" stroke="#000000" points="48,-552.5 48,-582.5 324,-582.5 324,-552.5 48,-552.5"/>
<text text-anchor="start" x="55" y="-563.9" font-family="Arial" font-size="14.00" fill="#000000">company_id </text>
<text text-anchor="start" x="134.3534" y="-563.9" font-family="Arial" font-size="14.00" fill="#666666">[integer]</text>
<polygon fill="none" stroke="#000000" points="48,-522.5 48,-552.5 324,-552.5 324,-522.5 48,-522.5"/>
<text text-anchor="start" x="55" y="-533.9" font-family="Arial" font-size="14.00" fill="#000000">partner_id </text>
<text text-anchor="start" x="121.9046" y="-533.9" font-family="Arial" font-size="14.00" fill="#666666">[integer]</text>
<polygon fill="none" stroke="#000000" points="48,-492.5 48,-522.5 324,-522.5 324,-492.5 48,-492.5"/>
<text text-anchor="start" x="54.5246" y="-503.9" font-family="Arial" font-size="14.00" fill="#000000">create_date </text>
<text text-anchor="start" x="132.3352" y="-503.9" font-family="Arial" font-size="14.00" fill="#666666">[timestamp without time zone]</text>
<polygon fill="none" stroke="#000000" points="48,-462.5 48,-492.5 324,-492.5 324,-462.5 48,-462.5"/>
<text text-anchor="start" x="55" y="-473.9" font-family="Arial" font-size="14.00" fill="#000000">signature </text>
<text text-anchor="start" x="116.4614" y="-473.9" font-family="Arial" font-size="14.00" fill="#666666">[text]</text>
<polygon fill="none" stroke="#000000" points="48,-432.5 48,-462.5 324,-462.5 324,-432.5 48,-432.5"/>
<text text-anchor="start" x="55" y="-443.9" font-family="Arial" font-size="14.00" fill="#000000">action_id </text>
<text text-anchor="start" x="114.9074" y="-443.9" font-family="Arial" font-size="14.00" fill="#666666">[integer]</text>
<polygon fill="none" stroke="#000000" points="48,-402.5 48,-432.5 324,-432.5 324,-402.5 48,-402.5"/>
<text text-anchor="start" x="55" y="-413.9" font-family="Arial" font-size="14.00" fill="#000000">share </text>
<text text-anchor="start" x="93.899" y="-413.9" font-family="Arial" font-size="14.00" fill="#666666">[boolean]</text>
<polygon fill="none" stroke="#000000" points="48,-372.5 48,-402.5 324,-402.5 324,-372.5 48,-372.5"/>
<text text-anchor="start" x="55" y="-383.9" font-family="Arial" font-size="14.00" fill="#000000">create_uid </text>
<text text-anchor="start" x="124.244" y="-383.9" font-family="Arial" font-size="14.00" fill="#666666">[integer]</text>
<polygon fill="none" stroke="#000000" points="48,-342.5 48,-372.5 324,-372.5 324,-342.5 48,-342.5"/>
<text text-anchor="start" x="55" y="-353.9" font-family="Arial" font-size="14.00" fill="#000000">write_uid </text>
<text text-anchor="start" x="114.892" y="-353.9" font-family="Arial" font-size="14.00" fill="#666666">[integer]</text>
<polygon fill="none" stroke="#000000" points="48,-312.5 48,-342.5 324,-342.5 324,-312.5 48,-312.5"/>
<text text-anchor="start" x="55" y="-323.9" font-family="Arial" font-size="14.00" fill="#000000">write_date </text>
<text text-anchor="start" x="123.4586" y="-323.9" font-family="Arial" font-size="14.00" fill="#666666">[timestamp without time zone]</text>
<polygon fill="none" stroke="#000000" points="48,-282.5 48,-312.5 324,-312.5 324,-282.5 48,-282.5"/>
<text text-anchor="start" x="55" y="-293.9" font-family="Arial" font-size="14.00" fill="#000000">alias_id </text>
<text text-anchor="start" x="106.3408" y="-293.9" font-family="Arial" font-size="14.00" fill="#666666">[integer]</text>
<polygon fill="none" stroke="#000000" points="48,-252.5 48,-282.5 324,-282.5 324,-252.5 48,-252.5"/>
<text text-anchor="start" x="55" y="-263.9" font-family="Arial" font-size="14.00" fill="#000000">notification_type </text>
<text text-anchor="start" x="160.0336" y="-263.9" font-family="Arial" font-size="14.00" fill="#666666">[varchar]</text>
<polygon fill="none" stroke="#000000" points="48,-222.5 48,-252.5 324,-252.5 324,-222.5 48,-222.5"/>
<text text-anchor="start" x="55" y="-233.9" font-family="Arial" font-size="14.00" fill="#000000">odoobot_state </text>
<text text-anchor="start" x="147.6058" y="-233.9" font-family="Arial" font-size="14.00" fill="#666666">[varchar]</text>
<polygon fill="none" stroke="#000000" points="48,-192.5 48,-222.5 324,-222.5 324,-192.5 48,-192.5"/>
<text text-anchor="start" x="55" y="-203.9" font-family="Arial" font-size="14.00" fill="#000000">sale_team_id </text>
<text text-anchor="start" x="142.1332" y="-203.9" font-family="Arial" font-size="14.00" fill="#666666">[integer]</text>
<polygon fill="none" stroke="#000000" points="48,-162.5 48,-192.5 324,-192.5 324,-162.5 48,-162.5"/>
<text text-anchor="start" x="55" y="-173.9" font-family="Arial" font-size="14.00" fill="#000000">target_sales_won </text>
<text text-anchor="start" x="168.589" y="-173.9" font-family="Arial" font-size="14.00" fill="#666666">[integer]</text>
<polygon fill="none" stroke="#000000" points="48,-132.5 48,-162.5 324,-162.5 324,-132.5 48,-132.5"/>
<text text-anchor="start" x="55" y="-143.9" font-family="Arial" font-size="14.00" fill="#000000">target_sales_done </text>
<text text-anchor="start" x="174.0476" y="-143.9" font-family="Arial" font-size="14.00" fill="#666666">[integer]</text>
<polygon fill="none" stroke="#000000" points="48,-102.5 48,-132.5 324,-132.5 324,-102.5 48,-102.5"/>
<text text-anchor="start" x="55" y="-113.9" font-family="Arial" font-size="14.00" fill="#000000">website_id </text>
<text text-anchor="start" x="125.014" y="-113.9" font-family="Arial" font-size="14.00" fill="#666666">[integer]</text>
<polygon fill="none" stroke="#000000" points="48,-72.5 48,-102.5 324,-102.5 324,-72.5 48,-72.5"/>
<text text-anchor="start" x="55" y="-83.9" font-family="Arial" font-size="14.00" fill="#000000">target_sales_invoiced </text>
<text text-anchor="start" x="194.2608" y="-83.9" font-family="Arial" font-size="14.00" fill="#666666">[integer]</text>
<polygon fill="none" stroke="#000000" points="48,-42.5 48,-72.5 324,-72.5 324,-42.5 48,-42.5"/>
<text text-anchor="start" x="55" y="-53.9" font-family="Arial" font-size="14.00" fill="#000000">pos_security_pin </text>
<text text-anchor="start" x="163.9158" y="-53.9" font-family="Arial" font-size="14.00" fill="#666666">[varchar(32)]</text>
</g>
<!-- public.ir_model_data&#45;&gt;public.res_users -->
<g id="edge1" class="edge">
<title>public.ir_model_data:create_uid&#45;&gt;public.res_users:id</title>
<path fill="none" stroke="#000000" d="M334.9898,-1172.6503C380.0305,-1121.7604 375.2548,-687.5 324,-687.5"/>
<polygon fill="#000000" stroke="#000000" points="334.801,-1172.7521 323.8634,-1173.5395 330.4005,-1175.1261 326,-1177.5 326,-1177.5 326,-1177.5 330.4005,-1175.1261 328.1366,-1181.4605 334.801,-1172.7521 334.801,-1172.7521"/>
<text text-anchor="start" x="332.657" y="-1187.5" font-family="Arial" font-size="10.00" fill="#000000">FOREIGN KEY (create_uid) REFERENCES res_users(id) ON DELETE SET NULL</text>
</g>
<!-- public.ir_model_data&#45;&gt;public.res_users -->
<g id="edge2" class="edge">
<title>public.ir_model_data:write_uid&#45;&gt;public.res_users:id</title>
<path fill="none" stroke="#000000" d="M336.001,-1085.7166C414.6012,-1056.8604 409.4177,-687.5 324,-687.5"/>
<polygon fill="#000000" stroke="#000000" points="335.8447,-1085.7444 325.21,-1083.0699 330.9224,-1086.6222 326,-1087.5 326,-1087.5 326,-1087.5 330.9224,-1086.6222 326.79,-1091.9301 335.8447,-1085.7444 335.8447,-1085.7444"/>
<text text-anchor="start" x="332.997" y="-1097.5" font-family="Arial" font-size="10.00" fill="#000000">FOREIGN KEY (write_uid) REFERENCES res_users(id) ON DELETE SET NULL</text>
</g>
</g>
</svg>
