<?xml version="1.0" encoding="UTF-8" standalone="no"?>
<!DOCTYPE svg PUBLIC "-//W3C//DTD SVG 1.1//EN"
 "http://www.w3.org/Graphics/SVG/1.1/DTD/svg11.dtd">
<!-- Generated by graphviz version 2.40.1 (20161225.0304)
 -->
<!-- Title: public.account_move_line_account_tax_rel Pages: 1 -->
<svg width="1350pt" height="1582pt"
 viewBox="0.00 0.00 1350.00 1582.00" xmlns="http://www.w3.org/2000/svg" xmlns:xlink="http://www.w3.org/1999/xlink">
<g id="graph0" class="graph" transform="scale(1 1) rotate(0) translate(4 1578)">
<title>public.account_move_line_account_tax_rel</title>
<polygon fill="#ffffff" stroke="transparent" points="-4,4 -4,-1578 1346,-1578 1346,4 -4,4"/>
<!-- public.account_move_line_account_tax_rel -->
<g id="node1" class="node">
<title>public.account_move_line_account_tax_rel</title>
<polygon fill="#efefef" stroke="transparent" points="476,-1492.5 476,-1527.5 931,-1527.5 931,-1492.5 476,-1492.5"/>
<polygon fill="none" stroke="#000000" points="476,-1492.5 476,-1527.5 931,-1527.5 931,-1492.5 476,-1492.5"/>
<text text-anchor="start" x="482.8228" y="-1505.3" font-family="Arial Bold" font-size="18.00" fill="#000000">public.account_move_line_account_tax_rel</text>
<text text-anchor="start" x="826.9234" y="-1505.3" font-family="Arial" font-size="14.00" fill="#000000"> </text>
<text text-anchor="start" x="830.814" y="-1505.3" font-family="Arial" font-size="14.00" fill="#666666">[BASE TABLE]</text>
<polygon fill="none" stroke="#000000" points="476,-1462.5 476,-1492.5 931,-1492.5 931,-1462.5 476,-1462.5"/>
<text text-anchor="start" x="483" y="-1473.9" font-family="Arial" font-size="14.00" fill="#000000">account_move_line_id </text>
<text text-anchor="start" x="626.1528" y="-1473.9" font-family="Arial" font-size="14.00" fill="#666666">[integer]</text>
<polygon fill="none" stroke="#000000" points="476,-1432.5 476,-1462.5 931,-1462.5 931,-1432.5 476,-1432.5"/>
<text text-anchor="start" x="483" y="-1443.9" font-family="Arial" font-size="14.00" fill="#000000">account_tax_id </text>
<text text-anchor="start" x="581.0392" y="-1443.9" font-family="Arial" font-size="14.00" fill="#666666">[integer]</text>
<polygon fill="none" stroke="#000000" stroke-width="3" points="474,-1431.5 474,-1529.5 932,-1529.5 932,-1431.5 474,-1431.5"/>
</g>
<!-- public.account_move_line -->
<g id="node2" class="node">
<title>public.account_move_line</title>
<polygon fill="#efefef" stroke="transparent" points="345,-1272.5 345,-1307.5 663,-1307.5 663,-1272.5 345,-1272.5"/>
<polygon fill="none" stroke="#000000" points="345,-1272.5 345,-1307.5 663,-1307.5 663,-1272.5 345,-1272.5"/>
<text text-anchor="start" x="351.8461" y="-1285.3" font-family="Arial Bold" font-size="18.00" fill="#000000">public.account_move_line</text>
<text text-anchor="start" x="558.9001" y="-1285.3" font-family="Arial" font-size="14.00" fill="#000000"> </text>
<text text-anchor="start" x="562.7907" y="-1285.3" font-family="Arial" font-size="14.00" fill="#666666">[BASE TABLE]</text>
<polygon fill="none" stroke="#000000" points="345,-1242.5 345,-1272.5 663,-1272.5 663,-1242.5 345,-1242.5"/>
<text text-anchor="start" x="352" y="-1253.9" font-family="Arial" font-size="14.00" fill="#000000">id </text>
<text text-anchor="start" x="366.7798" y="-1253.9" font-family="Arial" font-size="14.00" fill="#666666">[integer]</text>
<polygon fill="none" stroke="#000000" points="345,-1212.5 345,-1242.5 663,-1242.5 663,-1212.5 345,-1212.5"/>
<text text-anchor="start" x="352" y="-1223.9" font-family="Arial" font-size="14.00" fill="#000000">name </text>
<text text-anchor="start" x="390.899" y="-1223.9" font-family="Arial" font-size="14.00" fill="#666666">[varchar]</text>
<polygon fill="none" stroke="#000000" points="345,-1182.5 345,-1212.5 663,-1212.5 663,-1182.5 345,-1182.5"/>
<text text-anchor="start" x="352" y="-1193.9" font-family="Arial" font-size="14.00" fill="#000000">quantity </text>
<text text-anchor="start" x="404.9088" y="-1193.9" font-family="Arial" font-size="14.00" fill="#666666">[numeric]</text>
<polygon fill="none" stroke="#000000" points="345,-1152.5 345,-1182.5 663,-1182.5 663,-1152.5 345,-1152.5"/>
<text text-anchor="start" x="352" y="-1163.9" font-family="Arial" font-size="14.00" fill="#000000">product_uom_id </text>
<text text-anchor="start" x="456.2524" y="-1163.9" font-family="Arial" font-size="14.00" fill="#666666">[integer]</text>
<polygon fill="none" stroke="#000000" points="345,-1122.5 345,-1152.5 663,-1152.5 663,-1122.5 345,-1122.5"/>
<text text-anchor="start" x="352" y="-1133.9" font-family="Arial" font-size="14.00" fill="#000000">product_id </text>
<text text-anchor="start" x="421.244" y="-1133.9" font-family="Arial" font-size="14.00" fill="#666666">[integer]</text>
<polygon fill="none" stroke="#000000" points="345,-1092.5 345,-1122.5 663,-1122.5 663,-1092.5 345,-1092.5"/>
<text text-anchor="start" x="352" y="-1103.9" font-family="Arial" font-size="14.00" fill="#000000">debit </text>
<text text-anchor="start" x="386.2356" y="-1103.9" font-family="Arial" font-size="14.00" fill="#666666">[numeric]</text>
<polygon fill="none" stroke="#000000" points="345,-1062.5 345,-1092.5 663,-1092.5 663,-1062.5 345,-1062.5"/>
<text text-anchor="start" x="352" y="-1073.9" font-family="Arial" font-size="14.00" fill="#000000">credit </text>
<text text-anchor="start" x="390.1136" y="-1073.9" font-family="Arial" font-size="14.00" fill="#666666">[numeric]</text>
<polygon fill="none" stroke="#000000" points="345,-1032.5 345,-1062.5 663,-1062.5 663,-1032.5 345,-1032.5"/>
<text text-anchor="start" x="352" y="-1043.9" font-family="Arial" font-size="14.00" fill="#000000">balance </text>
<text text-anchor="start" x="404.9102" y="-1043.9" font-family="Arial" font-size="14.00" fill="#666666">[numeric]</text>
<polygon fill="none" stroke="#000000" points="345,-1002.5 345,-1032.5 663,-1032.5 663,-1002.5 345,-1002.5"/>
<text text-anchor="start" x="352" y="-1013.9" font-family="Arial" font-size="14.00" fill="#000000">debit_cash_basis </text>
<text text-anchor="start" x="464.0378" y="-1013.9" font-family="Arial" font-size="14.00" fill="#666666">[numeric]</text>
<polygon fill="none" stroke="#000000" points="345,-972.5 345,-1002.5 663,-1002.5 663,-972.5 345,-972.5"/>
<text text-anchor="start" x="352" y="-983.9" font-family="Arial" font-size="14.00" fill="#000000">credit_cash_basis </text>
<text text-anchor="start" x="467.9158" y="-983.9" font-family="Arial" font-size="14.00" fill="#666666">[numeric]</text>
<polygon fill="none" stroke="#000000" points="345,-942.5 345,-972.5 663,-972.5 663,-942.5 345,-942.5"/>
<text text-anchor="start" x="352" y="-953.9" font-family="Arial" font-size="14.00" fill="#000000">balance_cash_basis </text>
<text text-anchor="start" x="482.7124" y="-953.9" font-family="Arial" font-size="14.00" fill="#666666">[numeric]</text>
<polygon fill="none" stroke="#000000" points="345,-912.5 345,-942.5 663,-942.5 663,-912.5 345,-912.5"/>
<text text-anchor="start" x="352" y="-923.9" font-family="Arial" font-size="14.00" fill="#000000">amount_currency </text>
<text text-anchor="start" x="464.0238" y="-923.9" font-family="Arial" font-size="14.00" fill="#666666">[numeric]</text>
<polygon fill="none" stroke="#000000" points="345,-882.5 345,-912.5 663,-912.5 663,-882.5 345,-882.5"/>
<text text-anchor="start" x="352" y="-893.9" font-family="Arial" font-size="14.00" fill="#000000">company_currency_id </text>
<text text-anchor="start" x="492.805" y="-893.9" font-family="Arial" font-size="14.00" fill="#666666">[integer]</text>
<polygon fill="none" stroke="#000000" points="345,-852.5 345,-882.5 663,-882.5 663,-852.5 345,-852.5"/>
<text text-anchor="start" x="352" y="-863.9" font-family="Arial" font-size="14.00" fill="#000000">currency_id </text>
<text text-anchor="start" x="428.2314" y="-863.9" font-family="Arial" font-size="14.00" fill="#666666">[integer]</text>
<polygon fill="none" stroke="#000000" points="345,-822.5 345,-852.5 663,-852.5 663,-822.5 345,-822.5"/>
<text text-anchor="start" x="352" y="-833.9" font-family="Arial" font-size="14.00" fill="#000000">amount_residual </text>
<text text-anchor="start" x="459.359" y="-833.9" font-family="Arial" font-size="14.00" fill="#666666">[numeric]</text>
<polygon fill="none" stroke="#000000" points="345,-792.5 345,-822.5 663,-822.5 663,-792.5 345,-792.5"/>
<text text-anchor="start" x="352" y="-803.9" font-family="Arial" font-size="14.00" fill="#000000">amount_residual_currency </text>
<text text-anchor="start" x="520.8106" y="-803.9" font-family="Arial" font-size="14.00" fill="#666666">[numeric]</text>
<polygon fill="none" stroke="#000000" points="345,-762.5 345,-792.5 663,-792.5 663,-762.5 345,-762.5"/>
<text text-anchor="start" x="352" y="-773.9" font-family="Arial" font-size="14.00" fill="#000000">tax_base_amount </text>
<text text-anchor="start" x="467.1584" y="-773.9" font-family="Arial" font-size="14.00" fill="#666666">[numeric]</text>
<polygon fill="none" stroke="#000000" points="345,-732.5 345,-762.5 663,-762.5 663,-732.5 345,-732.5"/>
<text text-anchor="start" x="352" y="-743.9" font-family="Arial" font-size="14.00" fill="#000000">account_id </text>
<text text-anchor="start" x="423.5834" y="-743.9" font-family="Arial" font-size="14.00" fill="#666666">[integer]</text>
<polygon fill="none" stroke="#000000" points="345,-702.5 345,-732.5 663,-732.5 663,-702.5 345,-702.5"/>
<text text-anchor="start" x="352" y="-713.9" font-family="Arial" font-size="14.00" fill="#000000">move_id </text>
<text text-anchor="start" x="408.7882" y="-713.9" font-family="Arial" font-size="14.00" fill="#666666">[integer]</text>
<polygon fill="none" stroke="#000000" points="345,-672.5 345,-702.5 663,-702.5 663,-672.5 345,-672.5"/>
<text text-anchor="start" x="352" y="-683.9" font-family="Arial" font-size="14.00" fill="#000000">ref </text>
<text text-anchor="start" x="372.2244" y="-683.9" font-family="Arial" font-size="14.00" fill="#666666">[varchar]</text>
<polygon fill="none" stroke="#000000" points="345,-642.5 345,-672.5 663,-672.5 663,-642.5 345,-642.5"/>
<text text-anchor="start" x="352" y="-653.9" font-family="Arial" font-size="14.00" fill="#000000">payment_id </text>
<text text-anchor="start" x="428.244" y="-653.9" font-family="Arial" font-size="14.00" fill="#666666">[integer]</text>
<polygon fill="none" stroke="#000000" points="345,-612.5 345,-642.5 663,-642.5 663,-612.5 345,-612.5"/>
<text text-anchor="start" x="352" y="-623.9" font-family="Arial" font-size="14.00" fill="#000000">statement_line_id </text>
<text text-anchor="start" x="465.5862" y="-623.9" font-family="Arial" font-size="14.00" fill="#666666">[integer]</text>
<polygon fill="none" stroke="#000000" points="345,-582.5 345,-612.5 663,-612.5 663,-582.5 345,-582.5"/>
<text text-anchor="start" x="352" y="-593.9" font-family="Arial" font-size="14.00" fill="#000000">statement_id </text>
<text text-anchor="start" x="436.0252" y="-593.9" font-family="Arial" font-size="14.00" fill="#666666">[integer]</text>
<polygon fill="none" stroke="#000000" points="345,-552.5 345,-582.5 663,-582.5 663,-552.5 345,-552.5"/>
<text text-anchor="start" x="352" y="-563.9" font-family="Arial" font-size="14.00" fill="#000000">reconciled </text>
<text text-anchor="start" x="419.6774" y="-563.9" font-family="Arial" font-size="14.00" fill="#666666">[boolean]</text>
<polygon fill="none" stroke="#000000" points="345,-522.5 345,-552.5 663,-552.5 663,-522.5 345,-522.5"/>
<text text-anchor="start" x="352" y="-533.9" font-family="Arial" font-size="14.00" fill="#000000">full_reconcile_id </text>
<text text-anchor="start" x="456.2356" y="-533.9" font-family="Arial" font-size="14.00" fill="#666666">[integer]</text>
<polygon fill="none" stroke="#000000" points="345,-492.5 345,-522.5 663,-522.5 663,-492.5 345,-492.5"/>
<text text-anchor="start" x="352" y="-503.9" font-family="Arial" font-size="14.00" fill="#000000">journal_id </text>
<text text-anchor="start" x="416.5666" y="-503.9" font-family="Arial" font-size="14.00" fill="#666666">[integer]</text>
<polygon fill="none" stroke="#000000" points="345,-462.5 345,-492.5 663,-492.5 663,-462.5 345,-462.5"/>
<text text-anchor="start" x="352" y="-473.9" font-family="Arial" font-size="14.00" fill="#000000">blocked </text>
<text text-anchor="start" x="404.1276" y="-473.9" font-family="Arial" font-size="14.00" fill="#666666">[boolean]</text>
<polygon fill="none" stroke="#000000" points="345,-432.5 345,-462.5 663,-462.5 663,-432.5 345,-432.5"/>
<text text-anchor="start" x="352" y="-443.9" font-family="Arial" font-size="14.00" fill="#000000">date_maturity </text>
<text text-anchor="start" x="440.6858" y="-443.9" font-family="Arial" font-size="14.00" fill="#666666">[date]</text>
<polygon fill="none" stroke="#000000" points="345,-402.5 345,-432.5 663,-432.5 663,-402.5 345,-402.5"/>
<text text-anchor="start" x="352" y="-413.9" font-family="Arial" font-size="14.00" fill="#000000">date </text>
<text text-anchor="start" x="383.129" y="-413.9" font-family="Arial" font-size="14.00" fill="#666666">[date]</text>
<polygon fill="none" stroke="#000000" points="345,-372.5 345,-402.5 663,-402.5 663,-372.5 345,-372.5"/>
<text text-anchor="start" x="352" y="-383.9" font-family="Arial" font-size="14.00" fill="#000000">tax_line_id </text>
<text text-anchor="start" x="422.7966" y="-383.9" font-family="Arial" font-size="14.00" fill="#666666">[integer]</text>
<polygon fill="none" stroke="#000000" points="345,-342.5 345,-372.5 663,-372.5 663,-342.5 345,-342.5"/>
<text text-anchor="start" x="352" y="-353.9" font-family="Arial" font-size="14.00" fill="#000000">analytic_account_id </text>
<text text-anchor="start" x="478.8176" y="-353.9" font-family="Arial" font-size="14.00" fill="#666666">[integer]</text>
<polygon fill="none" stroke="#000000" points="345,-312.5 345,-342.5 663,-342.5 663,-312.5 345,-312.5"/>
<text text-anchor="start" x="352" y="-323.9" font-family="Arial" font-size="14.00" fill="#000000">company_id </text>
<text text-anchor="start" x="431.3534" y="-323.9" font-family="Arial" font-size="14.00" fill="#666666">[integer]</text>
<polygon fill="none" stroke="#000000" points="345,-282.5 345,-312.5 663,-312.5 663,-282.5 345,-282.5"/>
<text text-anchor="start" x="352" y="-293.9" font-family="Arial" font-size="14.00" fill="#000000">invoice_id </text>
<text text-anchor="start" x="418.1234" y="-293.9" font-family="Arial" font-size="14.00" fill="#666666">[integer]</text>
<polygon fill="none" stroke="#000000" points="345,-252.5 345,-282.5 663,-282.5 663,-252.5 345,-252.5"/>
<text text-anchor="start" x="352" y="-263.9" font-family="Arial" font-size="14.00" fill="#000000">partner_id </text>
<text text-anchor="start" x="418.9046" y="-263.9" font-family="Arial" font-size="14.00" fill="#666666">[integer]</text>
<polygon fill="none" stroke="#000000" points="345,-222.5 345,-252.5 663,-252.5 663,-222.5 345,-222.5"/>
<text text-anchor="start" x="352" y="-233.9" font-family="Arial" font-size="14.00" fill="#000000">user_type_id </text>
<text text-anchor="start" x="436.0266" y="-233.9" font-family="Arial" font-size="14.00" fill="#666666">[integer]</text>
<polygon fill="none" stroke="#000000" points="345,-192.5 345,-222.5 663,-222.5 663,-192.5 345,-192.5"/>
<text text-anchor="start" x="352" y="-203.9" font-family="Arial" font-size="14.00" fill="#000000">tax_exigible </text>
<text text-anchor="start" x="429.7966" y="-203.9" font-family="Arial" font-size="14.00" fill="#666666">[boolean]</text>
<polygon fill="none" stroke="#000000" points="345,-162.5 345,-192.5 663,-192.5 663,-162.5 345,-162.5"/>
<text text-anchor="start" x="352" y="-173.9" font-family="Arial" font-size="14.00" fill="#000000">create_uid </text>
<text text-anchor="start" x="421.244" y="-173.9" font-family="Arial" font-size="14.00" fill="#666666">[integer]</text>
<polygon fill="none" stroke="#000000" points="345,-132.5 345,-162.5 663,-162.5 663,-132.5 345,-132.5"/>
<text text-anchor="start" x="352" y="-143.9" font-family="Arial" font-size="14.00" fill="#000000">create_date </text>
<text text-anchor="start" x="429.8106" y="-143.9" font-family="Arial" font-size="14.00" fill="#666666">[timestamp without time zone]</text>
<polygon fill="none" stroke="#000000" points="345,-102.5 345,-132.5 663,-132.5 663,-102.5 345,-102.5"/>
<text text-anchor="start" x="352" y="-113.9" font-family="Arial" font-size="14.00" fill="#000000">write_uid </text>
<text text-anchor="start" x="411.892" y="-113.9" font-family="Arial" font-size="14.00" fill="#666666">[integer]</text>
<polygon fill="none" stroke="#000000" points="345,-72.5 345,-102.5 663,-102.5 663,-72.5 345,-72.5"/>
<text text-anchor="start" x="352" y="-83.9" font-family="Arial" font-size="14.00" fill="#000000">write_date </text>
<text text-anchor="start" x="420.4586" y="-83.9" font-family="Arial" font-size="14.00" fill="#666666">[timestamp without time zone]</text>
<polygon fill="none" stroke="#000000" points="345,-42.5 345,-72.5 663,-72.5 663,-42.5 345,-42.5"/>
<text text-anchor="start" x="352" y="-53.9" font-family="Arial" font-size="14.00" fill="#000000">expense_id </text>
<text text-anchor="start" x="427.4754" y="-53.9" font-family="Arial" font-size="14.00" fill="#666666">[integer]</text>
</g>
<!-- public.account_move_line_account_tax_rel&#45;&gt;public.account_move_line -->
<g id="edge1" class="edge">
<title>public.account_move_line_account_tax_rel:account_move_line_id&#45;&gt;public.account_move_line:id</title>
<path fill="none" stroke="#000000" d="M466.0972,-1476.004C438.6138,-1466.5965 452.7888,-1415.1059 476,-1387 529.8946,-1321.7403 609.1054,-1416.2597 663,-1351 689.4614,-1318.9585 704.5556,-1257.5 663,-1257.5"/>
<polygon fill="#000000" stroke="#000000" points="466.1122,-1476.0062 475.3278,-1481.9495 471.0561,-1476.7531 476,-1477.5 476,-1477.5 476,-1477.5 471.0561,-1476.7531 476.6722,-1473.0505 466.1122,-1476.0062 466.1122,-1476.0062"/>
<text text-anchor="start" x="6.8645" y="-1487.5" font-family="Arial" font-size="10.00" fill="#000000">FOREIGN KEY (account_move_line_id) REFERENCES account_move_line(id) ON DELETE CASCADE</text>
</g>
<!-- public.account_tax -->
<g id="node3" class="node">
<title>public.account_tax</title>
<polygon fill="#efefef" stroke="transparent" points="767,-987.5 767,-1022.5 1043,-1022.5 1043,-987.5 767,-987.5"/>
<polygon fill="none" stroke="#000000" points="767,-987.5 767,-1022.5 1043,-1022.5 1043,-987.5 767,-987.5"/>
<text text-anchor="start" x="781.8477" y="-1000.3" font-family="Arial Bold" font-size="18.00" fill="#000000">public.account_tax</text>
<text text-anchor="start" x="930.8985" y="-1000.3" font-family="Arial" font-size="14.00" fill="#000000"> </text>
<text text-anchor="start" x="934.7891" y="-1000.3" font-family="Arial" font-size="14.00" fill="#666666">[BASE TABLE]</text>
<polygon fill="none" stroke="#000000" points="767,-957.5 767,-987.5 1043,-987.5 1043,-957.5 767,-957.5"/>
<text text-anchor="start" x="774" y="-968.9" font-family="Arial" font-size="14.00" fill="#000000">id </text>
<text text-anchor="start" x="788.7798" y="-968.9" font-family="Arial" font-size="14.00" fill="#666666">[integer]</text>
<polygon fill="none" stroke="#000000" points="767,-927.5 767,-957.5 1043,-957.5 1043,-927.5 767,-927.5"/>
<text text-anchor="start" x="774" y="-938.9" font-family="Arial" font-size="14.00" fill="#000000">name </text>
<text text-anchor="start" x="812.899" y="-938.9" font-family="Arial" font-size="14.00" fill="#666666">[varchar]</text>
<polygon fill="none" stroke="#000000" points="767,-897.5 767,-927.5 1043,-927.5 1043,-897.5 767,-897.5"/>
<text text-anchor="start" x="774" y="-908.9" font-family="Arial" font-size="14.00" fill="#000000">type_tax_use </text>
<text text-anchor="start" x="861.15" y="-908.9" font-family="Arial" font-size="14.00" fill="#666666">[varchar]</text>
<polygon fill="none" stroke="#000000" points="767,-867.5 767,-897.5 1043,-897.5 1043,-867.5 767,-867.5"/>
<text text-anchor="start" x="774" y="-878.9" font-family="Arial" font-size="14.00" fill="#000000">amount_type </text>
<text text-anchor="start" x="858.8106" y="-878.9" font-family="Arial" font-size="14.00" fill="#666666">[varchar]</text>
<polygon fill="none" stroke="#000000" points="767,-837.5 767,-867.5 1043,-867.5 1043,-837.5 767,-837.5"/>
<text text-anchor="start" x="774" y="-848.9" font-family="Arial" font-size="14.00" fill="#000000">active </text>
<text text-anchor="start" x="814.453" y="-848.9" font-family="Arial" font-size="14.00" fill="#666666">[boolean]</text>
<polygon fill="none" stroke="#000000" points="767,-807.5 767,-837.5 1043,-837.5 1043,-807.5 767,-807.5"/>
<text text-anchor="start" x="774" y="-818.9" font-family="Arial" font-size="14.00" fill="#000000">company_id </text>
<text text-anchor="start" x="853.3534" y="-818.9" font-family="Arial" font-size="14.00" fill="#666666">[integer]</text>
<polygon fill="none" stroke="#000000" points="767,-777.5 767,-807.5 1043,-807.5 1043,-777.5 767,-777.5"/>
<text text-anchor="start" x="774" y="-788.9" font-family="Arial" font-size="14.00" fill="#000000">sequence </text>
<text text-anchor="start" x="838.5862" y="-788.9" font-family="Arial" font-size="14.00" fill="#666666">[integer]</text>
<polygon fill="none" stroke="#000000" points="767,-747.5 767,-777.5 1043,-777.5 1043,-747.5 767,-747.5"/>
<text text-anchor="start" x="774" y="-758.9" font-family="Arial" font-size="14.00" fill="#000000">amount </text>
<text text-anchor="start" x="824.5722" y="-758.9" font-family="Arial" font-size="14.00" fill="#666666">[numeric]</text>
<polygon fill="none" stroke="#000000" points="767,-717.5 767,-747.5 1043,-747.5 1043,-717.5 767,-717.5"/>
<text text-anchor="start" x="774" y="-728.9" font-family="Arial" font-size="14.00" fill="#000000">account_id </text>
<text text-anchor="start" x="845.5834" y="-728.9" font-family="Arial" font-size="14.00" fill="#666666">[integer]</text>
<polygon fill="none" stroke="#000000" points="767,-687.5 767,-717.5 1043,-717.5 1043,-687.5 767,-687.5"/>
<text text-anchor="start" x="774" y="-698.9" font-family="Arial" font-size="14.00" fill="#000000">refund_account_id </text>
<text text-anchor="start" x="893.0476" y="-698.9" font-family="Arial" font-size="14.00" fill="#666666">[integer]</text>
<polygon fill="none" stroke="#000000" points="767,-657.5 767,-687.5 1043,-687.5 1043,-657.5 767,-657.5"/>
<text text-anchor="start" x="774" y="-668.9" font-family="Arial" font-size="14.00" fill="#000000">description </text>
<text text-anchor="start" x="845.568" y="-668.9" font-family="Arial" font-size="14.00" fill="#666666">[varchar]</text>
<polygon fill="none" stroke="#000000" points="767,-627.5 767,-657.5 1043,-657.5 1043,-627.5 767,-627.5"/>
<text text-anchor="start" x="774" y="-638.9" font-family="Arial" font-size="14.00" fill="#000000">price_include </text>
<text text-anchor="start" x="860.3492" y="-638.9" font-family="Arial" font-size="14.00" fill="#666666">[boolean]</text>
<polygon fill="none" stroke="#000000" points="767,-597.5 767,-627.5 1043,-627.5 1043,-597.5 767,-597.5"/>
<text text-anchor="start" x="774" y="-608.9" font-family="Arial" font-size="14.00" fill="#000000">include_base_amount </text>
<text text-anchor="start" x="914.8288" y="-608.9" font-family="Arial" font-size="14.00" fill="#666666">[boolean]</text>
<polygon fill="none" stroke="#000000" points="767,-567.5 767,-597.5 1043,-597.5 1043,-567.5 767,-567.5"/>
<text text-anchor="start" x="774" y="-578.9" font-family="Arial" font-size="14.00" fill="#000000">analytic </text>
<text text-anchor="start" x="825.3422" y="-578.9" font-family="Arial" font-size="14.00" fill="#666666">[boolean]</text>
<polygon fill="none" stroke="#000000" points="767,-537.5 767,-567.5 1043,-567.5 1043,-537.5 767,-537.5"/>
<text text-anchor="start" x="774" y="-548.9" font-family="Arial" font-size="14.00" fill="#000000">tax_group_id </text>
<text text-anchor="start" x="858.8092" y="-548.9" font-family="Arial" font-size="14.00" fill="#666666">[integer]</text>
<polygon fill="none" stroke="#000000" points="767,-507.5 767,-537.5 1043,-537.5 1043,-507.5 767,-507.5"/>
<text text-anchor="start" x="774" y="-518.9" font-family="Arial" font-size="14.00" fill="#000000">tax_exigibility </text>
<text text-anchor="start" x="861.1178" y="-518.9" font-family="Arial" font-size="14.00" fill="#666666">[varchar]</text>
<polygon fill="none" stroke="#000000" points="767,-477.5 767,-507.5 1043,-507.5 1043,-477.5 767,-477.5"/>
<text text-anchor="start" x="774" y="-488.9" font-family="Arial" font-size="14.00" fill="#000000">cash_basis_account_id </text>
<text text-anchor="start" x="923.3856" y="-488.9" font-family="Arial" font-size="14.00" fill="#666666">[integer]</text>
<polygon fill="none" stroke="#000000" points="767,-447.5 767,-477.5 1043,-477.5 1043,-447.5 767,-447.5"/>
<text text-anchor="start" x="774" y="-458.9" font-family="Arial" font-size="14.00" fill="#000000">cash_basis_base_account_id </text>
<text text-anchor="start" x="961.516" y="-458.9" font-family="Arial" font-size="14.00" fill="#666666">[integer]</text>
<polygon fill="none" stroke="#000000" points="767,-417.5 767,-447.5 1043,-447.5 1043,-417.5 767,-417.5"/>
<text text-anchor="start" x="774" y="-428.9" font-family="Arial" font-size="14.00" fill="#000000">create_uid </text>
<text text-anchor="start" x="843.244" y="-428.9" font-family="Arial" font-size="14.00" fill="#666666">[integer]</text>
<polygon fill="none" stroke="#000000" points="767,-387.5 767,-417.5 1043,-417.5 1043,-387.5 767,-387.5"/>
<text text-anchor="start" x="773.5246" y="-398.9" font-family="Arial" font-size="14.00" fill="#000000">create_date </text>
<text text-anchor="start" x="851.3352" y="-398.9" font-family="Arial" font-size="14.00" fill="#666666">[timestamp without time zone]</text>
<polygon fill="none" stroke="#000000" points="767,-357.5 767,-387.5 1043,-387.5 1043,-357.5 767,-357.5"/>
<text text-anchor="start" x="774" y="-368.9" font-family="Arial" font-size="14.00" fill="#000000">write_uid </text>
<text text-anchor="start" x="833.892" y="-368.9" font-family="Arial" font-size="14.00" fill="#666666">[integer]</text>
<polygon fill="none" stroke="#000000" points="767,-327.5 767,-357.5 1043,-357.5 1043,-327.5 767,-327.5"/>
<text text-anchor="start" x="774" y="-338.9" font-family="Arial" font-size="14.00" fill="#000000">write_date </text>
<text text-anchor="start" x="842.4586" y="-338.9" font-family="Arial" font-size="14.00" fill="#666666">[timestamp without time zone]</text>
</g>
<!-- public.account_move_line_account_tax_rel&#45;&gt;public.account_tax -->
<g id="edge2" class="edge">
<title>public.account_move_line_account_tax_rel:account_tax_id&#45;&gt;public.account_tax:id</title>
<path fill="none" stroke="#000000" d="M941.1536,-1447.134C1134.8763,-1432.3157 547.2589,-972.5 767,-972.5"/>
<polygon fill="#000000" stroke="#000000" points="940.9935,-1447.1397 930.8378,-1443.0029 935.9968,-1447.3198 931,-1447.5 931,-1447.5 931,-1447.5 935.9968,-1447.3198 931.1622,-1451.9971 940.9935,-1447.1397 940.9935,-1447.1397"/>
<text text-anchor="start" x="938.0885" y="-1457.5" font-family="Arial" font-size="10.00" fill="#000000">FOREIGN KEY (account_tax_id) REFERENCES account_tax(id) ON DELETE CASCADE</text>
</g>
</g>
</svg>
