<?xml version="1.0" encoding="UTF-8" standalone="no"?>
<!DOCTYPE svg PUBLIC "-//W3C//DTD SVG 1.1//EN"
 "http://www.w3.org/Graphics/SVG/1.1/DTD/svg11.dtd">
<!-- Generated by graphviz version 2.40.1 (20161225.0304)
 -->
<!-- Title: public.website_menu Pages: 1 -->
<svg width="1594pt" height="2322pt"
 viewBox="0.00 0.00 1593.50 2322.00" xmlns="http://www.w3.org/2000/svg" xmlns:xlink="http://www.w3.org/1999/xlink">
<g id="graph0" class="graph" transform="scale(1 1) rotate(0) translate(4 2318)">
<title>public.website_menu</title>
<polygon fill="#ffffff" stroke="transparent" points="-4,4 -4,-2318 1589.5,-2318 1589.5,4 -4,4"/>
<!-- public.website_menu -->
<g id="node1" class="node">
<title>public.website_menu</title>
<polygon fill="#efefef" stroke="transparent" points="821,-1762.5 821,-1797.5 1100,-1797.5 1100,-1762.5 821,-1762.5"/>
<polygon fill="none" stroke="#000000" points="821,-1762.5 821,-1797.5 1100,-1797.5 1100,-1762.5 821,-1762.5"/>
<text text-anchor="start" x="827.8554" y="-1775.3" font-family="Arial Bold" font-size="18.00" fill="#000000">public.website_menu</text>
<text text-anchor="start" x="995.8908" y="-1775.3" font-family="Arial" font-size="14.00" fill="#000000"> </text>
<text text-anchor="start" x="999.7814" y="-1775.3" font-family="Arial" font-size="14.00" fill="#666666">[BASE TABLE]</text>
<polygon fill="none" stroke="#000000" points="821,-1732.5 821,-1762.5 1100,-1762.5 1100,-1732.5 821,-1732.5"/>
<text text-anchor="start" x="828" y="-1743.9" font-family="Arial" font-size="14.00" fill="#000000">id </text>
<text text-anchor="start" x="842.7798" y="-1743.9" font-family="Arial" font-size="14.00" fill="#666666">[integer]</text>
<polygon fill="none" stroke="#000000" points="821,-1702.5 821,-1732.5 1100,-1732.5 1100,-1702.5 821,-1702.5"/>
<text text-anchor="start" x="828" y="-1713.9" font-family="Arial" font-size="14.00" fill="#000000">parent_path </text>
<text text-anchor="start" x="906.5932" y="-1713.9" font-family="Arial" font-size="14.00" fill="#666666">[varchar]</text>
<polygon fill="none" stroke="#000000" points="821,-1672.5 821,-1702.5 1100,-1702.5 1100,-1672.5 821,-1672.5"/>
<text text-anchor="start" x="828" y="-1683.9" font-family="Arial" font-size="14.00" fill="#000000">name </text>
<text text-anchor="start" x="866.899" y="-1683.9" font-family="Arial" font-size="14.00" fill="#666666">[varchar]</text>
<polygon fill="none" stroke="#000000" points="821,-1642.5 821,-1672.5 1100,-1672.5 1100,-1642.5 821,-1642.5"/>
<text text-anchor="start" x="828" y="-1653.9" font-family="Arial" font-size="14.00" fill="#000000">url </text>
<text text-anchor="start" x="847.4404" y="-1653.9" font-family="Arial" font-size="14.00" fill="#666666">[varchar]</text>
<polygon fill="none" stroke="#000000" points="821,-1612.5 821,-1642.5 1100,-1642.5 1100,-1612.5 821,-1612.5"/>
<text text-anchor="start" x="828" y="-1623.9" font-family="Arial" font-size="14.00" fill="#000000">page_id </text>
<text text-anchor="start" x="881.6928" y="-1623.9" font-family="Arial" font-size="14.00" fill="#666666">[integer]</text>
<polygon fill="none" stroke="#000000" points="821,-1582.5 821,-1612.5 1100,-1612.5 1100,-1582.5 821,-1582.5"/>
<text text-anchor="start" x="828" y="-1593.9" font-family="Arial" font-size="14.00" fill="#000000">new_window </text>
<text text-anchor="start" x="912.0126" y="-1593.9" font-family="Arial" font-size="14.00" fill="#666666">[boolean]</text>
<polygon fill="none" stroke="#000000" points="821,-1552.5 821,-1582.5 1100,-1582.5 1100,-1552.5 821,-1552.5"/>
<text text-anchor="start" x="828" y="-1563.9" font-family="Arial" font-size="14.00" fill="#000000">sequence </text>
<text text-anchor="start" x="892.5862" y="-1563.9" font-family="Arial" font-size="14.00" fill="#666666">[integer]</text>
<polygon fill="none" stroke="#000000" points="821,-1522.5 821,-1552.5 1100,-1552.5 1100,-1522.5 821,-1522.5"/>
<text text-anchor="start" x="828" y="-1533.9" font-family="Arial" font-size="14.00" fill="#000000">website_id </text>
<text text-anchor="start" x="898.014" y="-1533.9" font-family="Arial" font-size="14.00" fill="#666666">[integer]</text>
<polygon fill="none" stroke="#000000" points="821,-1492.5 821,-1522.5 1100,-1522.5 1100,-1492.5 821,-1492.5"/>
<text text-anchor="start" x="828" y="-1503.9" font-family="Arial" font-size="14.00" fill="#000000">parent_id </text>
<text text-anchor="start" x="890.244" y="-1503.9" font-family="Arial" font-size="14.00" fill="#666666">[integer]</text>
<polygon fill="none" stroke="#000000" points="821,-1462.5 821,-1492.5 1100,-1492.5 1100,-1462.5 821,-1462.5"/>
<text text-anchor="start" x="828" y="-1473.9" font-family="Arial" font-size="14.00" fill="#000000">create_uid </text>
<text text-anchor="start" x="897.244" y="-1473.9" font-family="Arial" font-size="14.00" fill="#666666">[integer]</text>
<polygon fill="none" stroke="#000000" points="821,-1432.5 821,-1462.5 1100,-1462.5 1100,-1432.5 821,-1432.5"/>
<text text-anchor="start" x="828" y="-1443.9" font-family="Arial" font-size="14.00" fill="#000000">create_date </text>
<text text-anchor="start" x="905.8106" y="-1443.9" font-family="Arial" font-size="14.00" fill="#666666">[timestamp without time zone]</text>
<polygon fill="none" stroke="#000000" points="821,-1402.5 821,-1432.5 1100,-1432.5 1100,-1402.5 821,-1402.5"/>
<text text-anchor="start" x="828" y="-1413.9" font-family="Arial" font-size="14.00" fill="#000000">write_uid </text>
<text text-anchor="start" x="887.892" y="-1413.9" font-family="Arial" font-size="14.00" fill="#666666">[integer]</text>
<polygon fill="none" stroke="#000000" points="821,-1372.5 821,-1402.5 1100,-1402.5 1100,-1372.5 821,-1372.5"/>
<text text-anchor="start" x="828" y="-1383.9" font-family="Arial" font-size="14.00" fill="#000000">write_date </text>
<text text-anchor="start" x="896.4586" y="-1383.9" font-family="Arial" font-size="14.00" fill="#666666">[timestamp without time zone]</text>
<polygon fill="none" stroke="#000000" points="821,-1342.5 821,-1372.5 1100,-1372.5 1100,-1342.5 821,-1342.5"/>
<text text-anchor="start" x="828" y="-1353.9" font-family="Arial" font-size="14.00" fill="#000000">theme_template_id </text>
<text text-anchor="start" x="950.9228" y="-1353.9" font-family="Arial" font-size="14.00" fill="#666666">[integer]</text>
<polygon fill="none" stroke="#000000" stroke-width="3" points="819,-1341.5 819,-1799.5 1101,-1799.5 1101,-1341.5 819,-1341.5"/>
</g>
<!-- public.website_menu&#45;&gt;public.website_menu -->
<g id="edge1" class="edge">
<title>public.website_menu:parent_id&#45;&gt;public.website_menu:id</title>
<path fill="none" stroke="#000000" d="M961.8601,-1532.971C969.9902,-1791.5312 969.7035,-2314 961,-2314 952.1846,-2314 952.0038,-2008.2696 960.4576,-1762.8336"/>
<polygon fill="#000000" stroke="#000000" points="961.8529,-1532.7461 966.0274,-1522.6058 961.6913,-1527.7487 961.5297,-1522.7513 961.5297,-1522.7513 961.5297,-1522.7513 961.6913,-1527.7487 957.0321,-1522.8967 961.8529,-1532.7461 961.8529,-1532.7461"/>
<text text-anchor="start" x="968.1287" y="-1532.7513" font-family="Arial" font-size="10.00" fill="#000000">FOREIGN KEY (parent_id) REFERENCES website_menu(id) ON DELETE CASCADE</text>
</g>
<!-- public.website_page -->
<g id="node2" class="node">
<title>public.website_page</title>
<polygon fill="#efefef" stroke="transparent" points="43,-822.5 43,-857.5 325,-857.5 325,-822.5 43,-822.5"/>
<polygon fill="none" stroke="#000000" points="43,-822.5 43,-857.5 325,-857.5 325,-822.5 43,-822.5"/>
<text text-anchor="start" x="53.8484" y="-835.3" font-family="Arial Bold" font-size="18.00" fill="#000000">public.website_page</text>
<text text-anchor="start" x="216.8978" y="-835.3" font-family="Arial" font-size="14.00" fill="#000000"> </text>
<text text-anchor="start" x="220.7884" y="-835.3" font-family="Arial" font-size="14.00" fill="#666666">[BASE TABLE]</text>
<polygon fill="none" stroke="#000000" points="43,-792.5 43,-822.5 325,-822.5 325,-792.5 43,-792.5"/>
<text text-anchor="start" x="50" y="-803.9" font-family="Arial" font-size="14.00" fill="#000000">id </text>
<text text-anchor="start" x="64.7798" y="-803.9" font-family="Arial" font-size="14.00" fill="#666666">[integer]</text>
<polygon fill="none" stroke="#000000" points="43,-762.5 43,-792.5 325,-792.5 325,-762.5 43,-762.5"/>
<text text-anchor="start" x="50" y="-773.9" font-family="Arial" font-size="14.00" fill="#000000">url </text>
<text text-anchor="start" x="69.4404" y="-773.9" font-family="Arial" font-size="14.00" fill="#666666">[varchar]</text>
<polygon fill="none" stroke="#000000" points="43,-732.5 43,-762.5 325,-762.5 325,-732.5 43,-732.5"/>
<text text-anchor="start" x="50" y="-743.9" font-family="Arial" font-size="14.00" fill="#000000">view_id </text>
<text text-anchor="start" x="100.5582" y="-743.9" font-family="Arial" font-size="14.00" fill="#666666">[integer]</text>
<polygon fill="none" stroke="#000000" points="43,-702.5 43,-732.5 325,-732.5 325,-702.5 43,-702.5"/>
<text text-anchor="start" x="50" y="-713.9" font-family="Arial" font-size="14.00" fill="#000000">website_indexed </text>
<text text-anchor="start" x="158.1444" y="-713.9" font-family="Arial" font-size="14.00" fill="#666666">[boolean]</text>
<polygon fill="none" stroke="#000000" points="43,-672.5 43,-702.5 325,-702.5 325,-672.5 43,-672.5"/>
<text text-anchor="start" x="49.8023" y="-683.9" font-family="Arial" font-size="14.00" fill="#000000">date_publish </text>
<text text-anchor="start" x="133.0575" y="-683.9" font-family="Arial" font-size="14.00" fill="#666666">[timestamp without time zone]</text>
<polygon fill="none" stroke="#000000" points="43,-642.5 43,-672.5 325,-672.5 325,-642.5 43,-642.5"/>
<text text-anchor="start" x="50" y="-653.9" font-family="Arial" font-size="14.00" fill="#000000">header_overlay </text>
<text text-anchor="start" x="150.3618" y="-653.9" font-family="Arial" font-size="14.00" fill="#666666">[boolean]</text>
<polygon fill="none" stroke="#000000" points="43,-612.5 43,-642.5 325,-642.5 325,-612.5 43,-612.5"/>
<text text-anchor="start" x="50" y="-623.9" font-family="Arial" font-size="14.00" fill="#000000">header_color </text>
<text text-anchor="start" x="135.5792" y="-623.9" font-family="Arial" font-size="14.00" fill="#666666">[varchar]</text>
<polygon fill="none" stroke="#000000" points="43,-582.5 43,-612.5 325,-612.5 325,-582.5 43,-582.5"/>
<text text-anchor="start" x="50" y="-593.9" font-family="Arial" font-size="14.00" fill="#000000">website_id </text>
<text text-anchor="start" x="120.014" y="-593.9" font-family="Arial" font-size="14.00" fill="#666666">[integer]</text>
<polygon fill="none" stroke="#000000" points="43,-552.5 43,-582.5 325,-582.5 325,-552.5 43,-552.5"/>
<text text-anchor="start" x="50" y="-563.9" font-family="Arial" font-size="14.00" fill="#000000">is_published </text>
<text text-anchor="start" x="131.6886" y="-563.9" font-family="Arial" font-size="14.00" fill="#666666">[boolean]</text>
<polygon fill="none" stroke="#000000" points="43,-522.5 43,-552.5 325,-552.5 325,-522.5 43,-522.5"/>
<text text-anchor="start" x="50" y="-533.9" font-family="Arial" font-size="14.00" fill="#000000">create_uid </text>
<text text-anchor="start" x="119.244" y="-533.9" font-family="Arial" font-size="14.00" fill="#666666">[integer]</text>
<polygon fill="none" stroke="#000000" points="43,-492.5 43,-522.5 325,-522.5 325,-492.5 43,-492.5"/>
<text text-anchor="start" x="50" y="-503.9" font-family="Arial" font-size="14.00" fill="#000000">create_date </text>
<text text-anchor="start" x="127.8106" y="-503.9" font-family="Arial" font-size="14.00" fill="#666666">[timestamp without time zone]</text>
<polygon fill="none" stroke="#000000" points="43,-462.5 43,-492.5 325,-492.5 325,-462.5 43,-462.5"/>
<text text-anchor="start" x="50" y="-473.9" font-family="Arial" font-size="14.00" fill="#000000">write_uid </text>
<text text-anchor="start" x="109.892" y="-473.9" font-family="Arial" font-size="14.00" fill="#666666">[integer]</text>
<polygon fill="none" stroke="#000000" points="43,-432.5 43,-462.5 325,-462.5 325,-432.5 43,-432.5"/>
<text text-anchor="start" x="50" y="-443.9" font-family="Arial" font-size="14.00" fill="#000000">write_date </text>
<text text-anchor="start" x="118.4586" y="-443.9" font-family="Arial" font-size="14.00" fill="#666666">[timestamp without time zone]</text>
<polygon fill="none" stroke="#000000" points="43,-402.5 43,-432.5 325,-432.5 325,-402.5 43,-402.5"/>
<text text-anchor="start" x="50" y="-413.9" font-family="Arial" font-size="14.00" fill="#000000">theme_template_id </text>
<text text-anchor="start" x="172.9228" y="-413.9" font-family="Arial" font-size="14.00" fill="#666666">[integer]</text>
</g>
<!-- public.website_menu&#45;&gt;public.website_page -->
<g id="edge2" class="edge">
<title>public.website_menu:page_id&#45;&gt;public.website_page:id</title>
<path fill="none" stroke="#000000" d="M810.9783,-1627.4263C563.3721,-1623.751 497.4907,-1482.9015 377,-1261 328.5954,-1171.8558 426.4381,-807.5 325,-807.5"/>
<polygon fill="#000000" stroke="#000000" points="811.0003,-1627.4263 820.9669,-1631.9999 816.0001,-1627.4632 821,-1627.5 821,-1627.5 821,-1627.5 816.0001,-1627.4632 821.0331,-1623.0001 811.0003,-1627.4263 811.0003,-1627.4263"/>
<text text-anchor="start" x="441.038" y="-1637.5" font-family="Arial" font-size="10.00" fill="#000000">FOREIGN KEY (page_id) REFERENCES website_page(id) ON DELETE CASCADE</text>
</g>
<!-- public.website -->
<g id="node3" class="node">
<title>public.website</title>
<polygon fill="#efefef" stroke="transparent" points="429,-1182.5 429,-1217.5 719,-1217.5 719,-1182.5 429,-1182.5"/>
<polygon fill="none" stroke="#000000" points="429,-1182.5 429,-1217.5 719,-1217.5 719,-1182.5 429,-1182.5"/>
<text text-anchor="start" x="468.8639" y="-1195.3" font-family="Arial Bold" font-size="18.00" fill="#000000">public.website</text>
<text text-anchor="start" x="581.8823" y="-1195.3" font-family="Arial" font-size="14.00" fill="#000000"> </text>
<text text-anchor="start" x="585.7729" y="-1195.3" font-family="Arial" font-size="14.00" fill="#666666">[BASE TABLE]</text>
<polygon fill="none" stroke="#000000" points="429,-1152.5 429,-1182.5 719,-1182.5 719,-1152.5 429,-1152.5"/>
<text text-anchor="start" x="436" y="-1163.9" font-family="Arial" font-size="14.00" fill="#000000">id </text>
<text text-anchor="start" x="450.7798" y="-1163.9" font-family="Arial" font-size="14.00" fill="#666666">[integer]</text>
<polygon fill="none" stroke="#000000" points="429,-1122.5 429,-1152.5 719,-1152.5 719,-1122.5 429,-1122.5"/>
<text text-anchor="start" x="436" y="-1133.9" font-family="Arial" font-size="14.00" fill="#000000">name </text>
<text text-anchor="start" x="474.899" y="-1133.9" font-family="Arial" font-size="14.00" fill="#666666">[varchar]</text>
<polygon fill="none" stroke="#000000" points="429,-1092.5 429,-1122.5 719,-1122.5 719,-1092.5 429,-1092.5"/>
<text text-anchor="start" x="436" y="-1103.9" font-family="Arial" font-size="14.00" fill="#000000">domain </text>
<text text-anchor="start" x="485.7882" y="-1103.9" font-family="Arial" font-size="14.00" fill="#666666">[varchar]</text>
<polygon fill="none" stroke="#000000" points="429,-1062.5 429,-1092.5 719,-1092.5 719,-1062.5 429,-1062.5"/>
<text text-anchor="start" x="436" y="-1073.9" font-family="Arial" font-size="14.00" fill="#000000">company_id </text>
<text text-anchor="start" x="515.3534" y="-1073.9" font-family="Arial" font-size="14.00" fill="#666666">[integer]</text>
<polygon fill="none" stroke="#000000" points="429,-1032.5 429,-1062.5 719,-1062.5 719,-1032.5 429,-1032.5"/>
<text text-anchor="start" x="436" y="-1043.9" font-family="Arial" font-size="14.00" fill="#000000">default_lang_id </text>
<text text-anchor="start" x="534.8176" y="-1043.9" font-family="Arial" font-size="14.00" fill="#666666">[integer]</text>
<polygon fill="none" stroke="#000000" points="429,-1002.5 429,-1032.5 719,-1032.5 719,-1002.5 429,-1002.5"/>
<text text-anchor="start" x="436" y="-1013.9" font-family="Arial" font-size="14.00" fill="#000000">default_lang_code </text>
<text text-anchor="start" x="554.2762" y="-1013.9" font-family="Arial" font-size="14.00" fill="#666666">[varchar]</text>
<polygon fill="none" stroke="#000000" points="429,-972.5 429,-1002.5 719,-1002.5 719,-972.5 429,-972.5"/>
<text text-anchor="start" x="436" y="-983.9" font-family="Arial" font-size="14.00" fill="#000000">auto_redirect_lang </text>
<text text-anchor="start" x="555.8148" y="-983.9" font-family="Arial" font-size="14.00" fill="#666666">[boolean]</text>
<polygon fill="none" stroke="#000000" points="429,-942.5 429,-972.5 719,-972.5 719,-942.5 429,-942.5"/>
<text text-anchor="start" x="436" y="-953.9" font-family="Arial" font-size="14.00" fill="#000000">social_twitter </text>
<text text-anchor="start" x="520.7798" y="-953.9" font-family="Arial" font-size="14.00" fill="#666666">[varchar]</text>
<polygon fill="none" stroke="#000000" points="429,-912.5 429,-942.5 719,-942.5 719,-912.5 429,-912.5"/>
<text text-anchor="start" x="436" y="-923.9" font-family="Arial" font-size="14.00" fill="#000000">social_facebook </text>
<text text-anchor="start" x="540.2552" y="-923.9" font-family="Arial" font-size="14.00" fill="#666666">[varchar]</text>
<polygon fill="none" stroke="#000000" points="429,-882.5 429,-912.5 719,-912.5 719,-882.5 429,-882.5"/>
<text text-anchor="start" x="436" y="-893.9" font-family="Arial" font-size="14.00" fill="#000000">social_github </text>
<text text-anchor="start" x="521.5792" y="-893.9" font-family="Arial" font-size="14.00" fill="#666666">[varchar]</text>
<polygon fill="none" stroke="#000000" points="429,-852.5 429,-882.5 719,-882.5 719,-852.5 429,-852.5"/>
<text text-anchor="start" x="436" y="-863.9" font-family="Arial" font-size="14.00" fill="#000000">social_linkedin </text>
<text text-anchor="start" x="530.9018" y="-863.9" font-family="Arial" font-size="14.00" fill="#666666">[varchar]</text>
<polygon fill="none" stroke="#000000" points="429,-822.5 429,-852.5 719,-852.5 719,-822.5 429,-822.5"/>
<text text-anchor="start" x="436" y="-833.9" font-family="Arial" font-size="14.00" fill="#000000">social_youtube </text>
<text text-anchor="start" x="533.2552" y="-833.9" font-family="Arial" font-size="14.00" fill="#666666">[varchar]</text>
<polygon fill="none" stroke="#000000" points="429,-792.5 429,-822.5 719,-822.5 719,-792.5 429,-792.5"/>
<text text-anchor="start" x="436" y="-803.9" font-family="Arial" font-size="14.00" fill="#000000">social_googleplus </text>
<text text-anchor="start" x="551.143" y="-803.9" font-family="Arial" font-size="14.00" fill="#666666">[varchar]</text>
<polygon fill="none" stroke="#000000" points="429,-762.5 429,-792.5 719,-792.5 719,-762.5 429,-762.5"/>
<text text-anchor="start" x="436" y="-773.9" font-family="Arial" font-size="14.00" fill="#000000">social_instagram </text>
<text text-anchor="start" x="544.9004" y="-773.9" font-family="Arial" font-size="14.00" fill="#666666">[varchar]</text>
<polygon fill="none" stroke="#000000" points="429,-732.5 429,-762.5 719,-762.5 719,-732.5 429,-732.5"/>
<text text-anchor="start" x="436" y="-743.9" font-family="Arial" font-size="14.00" fill="#000000">google_analytics_key </text>
<text text-anchor="start" x="573.7096" y="-743.9" font-family="Arial" font-size="14.00" fill="#666666">[varchar]</text>
<polygon fill="none" stroke="#000000" points="429,-702.5 429,-732.5 719,-732.5 719,-702.5 429,-702.5"/>
<text text-anchor="start" x="436" y="-713.9" font-family="Arial" font-size="14.00" fill="#000000">google_management_client_id </text>
<text text-anchor="start" x="630.5062" y="-713.9" font-family="Arial" font-size="14.00" fill="#666666">[varchar]</text>
<polygon fill="none" stroke="#000000" points="429,-672.5 429,-702.5 719,-702.5 719,-672.5 429,-672.5"/>
<text text-anchor="start" x="435.9082" y="-683.9" font-family="Arial" font-size="14.00" fill="#000000">google_management_client_secret </text>
<text text-anchor="start" x="657.6416" y="-683.9" font-family="Arial" font-size="14.00" fill="#666666">[varchar]</text>
<polygon fill="none" stroke="#000000" points="429,-642.5 429,-672.5 719,-672.5 719,-642.5 429,-642.5"/>
<text text-anchor="start" x="436" y="-653.9" font-family="Arial" font-size="14.00" fill="#000000">google_maps_api_key </text>
<text text-anchor="start" x="579.9382" y="-653.9" font-family="Arial" font-size="14.00" fill="#666666">[varchar]</text>
<polygon fill="none" stroke="#000000" points="429,-612.5 429,-642.5 719,-642.5 719,-612.5 429,-612.5"/>
<text text-anchor="start" x="436" y="-623.9" font-family="Arial" font-size="14.00" fill="#000000">user_id </text>
<text text-anchor="start" x="485.7882" y="-623.9" font-family="Arial" font-size="14.00" fill="#666666">[integer]</text>
<polygon fill="none" stroke="#000000" points="429,-582.5 429,-612.5 719,-612.5 719,-582.5 429,-582.5"/>
<text text-anchor="start" x="436" y="-593.9" font-family="Arial" font-size="14.00" fill="#000000">cdn_activated </text>
<text text-anchor="start" x="526.2566" y="-593.9" font-family="Arial" font-size="14.00" fill="#666666">[boolean]</text>
<polygon fill="none" stroke="#000000" points="429,-552.5 429,-582.5 719,-582.5 719,-552.5 429,-552.5"/>
<text text-anchor="start" x="436" y="-563.9" font-family="Arial" font-size="14.00" fill="#000000">cdn_url </text>
<text text-anchor="start" x="485.7882" y="-563.9" font-family="Arial" font-size="14.00" fill="#666666">[varchar]</text>
<polygon fill="none" stroke="#000000" points="429,-522.5 429,-552.5 719,-552.5 719,-522.5 429,-522.5"/>
<text text-anchor="start" x="436" y="-533.9" font-family="Arial" font-size="14.00" fill="#000000">cdn_filters </text>
<text text-anchor="start" x="503.676" y="-533.9" font-family="Arial" font-size="14.00" fill="#666666">[text]</text>
<polygon fill="none" stroke="#000000" points="429,-492.5 429,-522.5 719,-522.5 719,-492.5 429,-492.5"/>
<text text-anchor="start" x="436" y="-503.9" font-family="Arial" font-size="14.00" fill="#000000">homepage_id </text>
<text text-anchor="start" x="524.7012" y="-503.9" font-family="Arial" font-size="14.00" fill="#666666">[integer]</text>
<polygon fill="none" stroke="#000000" points="429,-462.5 429,-492.5 719,-492.5 719,-462.5 429,-462.5"/>
<text text-anchor="start" x="436" y="-473.9" font-family="Arial" font-size="14.00" fill="#000000">favicon </text>
<text text-anchor="start" x="484.2356" y="-473.9" font-family="Arial" font-size="14.00" fill="#666666">[bytea]</text>
<polygon fill="none" stroke="#000000" points="429,-432.5 429,-462.5 719,-462.5 719,-432.5 429,-432.5"/>
<text text-anchor="start" x="436" y="-443.9" font-family="Arial" font-size="14.00" fill="#000000">theme_id </text>
<text text-anchor="start" x="497.4614" y="-443.9" font-family="Arial" font-size="14.00" fill="#666666">[integer]</text>
<polygon fill="none" stroke="#000000" points="429,-402.5 429,-432.5 719,-432.5 719,-402.5 429,-402.5"/>
<text text-anchor="start" x="436" y="-413.9" font-family="Arial" font-size="14.00" fill="#000000">specific_user_account </text>
<text text-anchor="start" x="578.3716" y="-413.9" font-family="Arial" font-size="14.00" fill="#666666">[boolean]</text>
<polygon fill="none" stroke="#000000" points="429,-372.5 429,-402.5 719,-402.5 719,-372.5 429,-372.5"/>
<text text-anchor="start" x="436" y="-383.9" font-family="Arial" font-size="14.00" fill="#000000">auth_signup_uninvited </text>
<text text-anchor="start" x="579.948" y="-383.9" font-family="Arial" font-size="14.00" fill="#666666">[varchar]</text>
<polygon fill="none" stroke="#000000" points="429,-342.5 429,-372.5 719,-372.5 719,-342.5 429,-342.5"/>
<text text-anchor="start" x="436" y="-353.9" font-family="Arial" font-size="14.00" fill="#000000">create_uid </text>
<text text-anchor="start" x="505.244" y="-353.9" font-family="Arial" font-size="14.00" fill="#666666">[integer]</text>
<polygon fill="none" stroke="#000000" points="429,-312.5 429,-342.5 719,-342.5 719,-312.5 429,-312.5"/>
<text text-anchor="start" x="436" y="-323.9" font-family="Arial" font-size="14.00" fill="#000000">create_date </text>
<text text-anchor="start" x="513.8106" y="-323.9" font-family="Arial" font-size="14.00" fill="#666666">[timestamp without time zone]</text>
<polygon fill="none" stroke="#000000" points="429,-282.5 429,-312.5 719,-312.5 719,-282.5 429,-282.5"/>
<text text-anchor="start" x="436" y="-293.9" font-family="Arial" font-size="14.00" fill="#000000">write_uid </text>
<text text-anchor="start" x="495.892" y="-293.9" font-family="Arial" font-size="14.00" fill="#666666">[integer]</text>
<polygon fill="none" stroke="#000000" points="429,-252.5 429,-282.5 719,-282.5 719,-252.5 429,-252.5"/>
<text text-anchor="start" x="436" y="-263.9" font-family="Arial" font-size="14.00" fill="#000000">write_date </text>
<text text-anchor="start" x="504.4586" y="-263.9" font-family="Arial" font-size="14.00" fill="#666666">[timestamp without time zone]</text>
<polygon fill="none" stroke="#000000" points="429,-222.5 429,-252.5 719,-252.5 719,-222.5 429,-222.5"/>
<text text-anchor="start" x="436" y="-233.9" font-family="Arial" font-size="14.00" fill="#000000">website_form_enable_metadata </text>
<text text-anchor="start" x="639.0588" y="-233.9" font-family="Arial" font-size="14.00" fill="#666666">[boolean]</text>
<polygon fill="none" stroke="#000000" points="429,-192.5 429,-222.5 719,-222.5 719,-192.5 429,-192.5"/>
<text text-anchor="start" x="436" y="-203.9" font-family="Arial" font-size="14.00" fill="#000000">salesperson_id </text>
<text text-anchor="start" x="534.0252" y="-203.9" font-family="Arial" font-size="14.00" fill="#666666">[integer]</text>
<polygon fill="none" stroke="#000000" points="429,-162.5 429,-192.5 719,-192.5 719,-162.5 429,-162.5"/>
<text text-anchor="start" x="436" y="-173.9" font-family="Arial" font-size="14.00" fill="#000000">salesteam_id </text>
<text text-anchor="start" x="522.3506" y="-173.9" font-family="Arial" font-size="14.00" fill="#666666">[integer]</text>
<polygon fill="none" stroke="#000000" points="429,-132.5 429,-162.5 719,-162.5 719,-132.5 429,-132.5"/>
<text text-anchor="start" x="436" y="-143.9" font-family="Arial" font-size="14.00" fill="#000000">cart_recovery_mail_template_id </text>
<text text-anchor="start" x="638.2482" y="-143.9" font-family="Arial" font-size="14.00" fill="#666666">[integer]</text>
<polygon fill="none" stroke="#000000" points="429,-102.5 429,-132.5 719,-132.5 719,-102.5 429,-102.5"/>
<text text-anchor="start" x="436" y="-113.9" font-family="Arial" font-size="14.00" fill="#000000">cart_abandoned_delay </text>
<text text-anchor="start" x="582.2874" y="-113.9" font-family="Arial" font-size="14.00" fill="#666666">[double precision]</text>
<polygon fill="none" stroke="#000000" points="429,-72.5 429,-102.5 719,-102.5 719,-72.5 429,-72.5"/>
<text text-anchor="start" x="436" y="-83.9" font-family="Arial" font-size="14.00" fill="#000000">crm_default_team_id </text>
<text text-anchor="start" x="570.5834" y="-83.9" font-family="Arial" font-size="14.00" fill="#666666">[integer]</text>
<polygon fill="none" stroke="#000000" points="429,-42.5 429,-72.5 719,-72.5 719,-42.5 429,-42.5"/>
<text text-anchor="start" x="436" y="-53.9" font-family="Arial" font-size="14.00" fill="#000000">crm_default_user_id </text>
<text text-anchor="start" x="566.6928" y="-53.9" font-family="Arial" font-size="14.00" fill="#666666">[integer]</text>
</g>
<!-- public.website_menu&#45;&gt;public.website -->
<g id="edge3" class="edge">
<title>public.website_menu:website_id&#45;&gt;public.website:id</title>
<path fill="none" stroke="#000000" d="M810.8335,-1535.5093C741.3201,-1506.3863 800.6246,-1167.5 719,-1167.5"/>
<polygon fill="#000000" stroke="#000000" points="811.1864,-1535.5783 820.1352,-1541.9161 816.0932,-1536.5392 821,-1537.5 821,-1537.5 821,-1537.5 816.0932,-1536.5392 821.8648,-1533.0839 811.1864,-1535.5783 811.1864,-1535.5783"/>
<text text-anchor="start" x="457.1065" y="-1547.5" font-family="Arial" font-size="10.00" fill="#000000">FOREIGN KEY (website_id) REFERENCES website(id) ON DELETE CASCADE</text>
</g>
<!-- public.res_users -->
<g id="node4" class="node">
<title>public.res_users</title>
<polygon fill="#efefef" stroke="transparent" points="823,-942.5 823,-977.5 1099,-977.5 1099,-942.5 823,-942.5"/>
<polygon fill="none" stroke="#000000" points="823,-942.5 823,-977.5 1099,-977.5 1099,-942.5 823,-942.5"/>
<text text-anchor="start" x="846.8639" y="-955.3" font-family="Arial Bold" font-size="18.00" fill="#000000">public.res_users</text>
<text text-anchor="start" x="977.8823" y="-955.3" font-family="Arial" font-size="14.00" fill="#000000"> </text>
<text text-anchor="start" x="981.7729" y="-955.3" font-family="Arial" font-size="14.00" fill="#666666">[BASE TABLE]</text>
<polygon fill="none" stroke="#000000" points="823,-912.5 823,-942.5 1099,-942.5 1099,-912.5 823,-912.5"/>
<text text-anchor="start" x="830" y="-923.9" font-family="Arial" font-size="14.00" fill="#000000">id </text>
<text text-anchor="start" x="844.7798" y="-923.9" font-family="Arial" font-size="14.00" fill="#666666">[integer]</text>
<polygon fill="none" stroke="#000000" points="823,-882.5 823,-912.5 1099,-912.5 1099,-882.5 823,-882.5"/>
<text text-anchor="start" x="830" y="-893.9" font-family="Arial" font-size="14.00" fill="#000000">active </text>
<text text-anchor="start" x="870.453" y="-893.9" font-family="Arial" font-size="14.00" fill="#666666">[boolean]</text>
<polygon fill="none" stroke="#000000" points="823,-852.5 823,-882.5 1099,-882.5 1099,-852.5 823,-852.5"/>
<text text-anchor="start" x="830" y="-863.9" font-family="Arial" font-size="14.00" fill="#000000">login </text>
<text text-anchor="start" x="863.4516" y="-863.9" font-family="Arial" font-size="14.00" fill="#666666">[varchar]</text>
<polygon fill="none" stroke="#000000" points="823,-822.5 823,-852.5 1099,-852.5 1099,-822.5 823,-822.5"/>
<text text-anchor="start" x="830" y="-833.9" font-family="Arial" font-size="14.00" fill="#000000">password </text>
<text text-anchor="start" x="893.7882" y="-833.9" font-family="Arial" font-size="14.00" fill="#666666">[varchar]</text>
<polygon fill="none" stroke="#000000" points="823,-792.5 823,-822.5 1099,-822.5 1099,-792.5 823,-792.5"/>
<text text-anchor="start" x="830" y="-803.9" font-family="Arial" font-size="14.00" fill="#000000">company_id </text>
<text text-anchor="start" x="909.3534" y="-803.9" font-family="Arial" font-size="14.00" fill="#666666">[integer]</text>
<polygon fill="none" stroke="#000000" points="823,-762.5 823,-792.5 1099,-792.5 1099,-762.5 823,-762.5"/>
<text text-anchor="start" x="830" y="-773.9" font-family="Arial" font-size="14.00" fill="#000000">partner_id </text>
<text text-anchor="start" x="896.9046" y="-773.9" font-family="Arial" font-size="14.00" fill="#666666">[integer]</text>
<polygon fill="none" stroke="#000000" points="823,-732.5 823,-762.5 1099,-762.5 1099,-732.5 823,-732.5"/>
<text text-anchor="start" x="829.5246" y="-743.9" font-family="Arial" font-size="14.00" fill="#000000">create_date </text>
<text text-anchor="start" x="907.3352" y="-743.9" font-family="Arial" font-size="14.00" fill="#666666">[timestamp without time zone]</text>
<polygon fill="none" stroke="#000000" points="823,-702.5 823,-732.5 1099,-732.5 1099,-702.5 823,-702.5"/>
<text text-anchor="start" x="830" y="-713.9" font-family="Arial" font-size="14.00" fill="#000000">signature </text>
<text text-anchor="start" x="891.4614" y="-713.9" font-family="Arial" font-size="14.00" fill="#666666">[text]</text>
<polygon fill="none" stroke="#000000" points="823,-672.5 823,-702.5 1099,-702.5 1099,-672.5 823,-672.5"/>
<text text-anchor="start" x="830" y="-683.9" font-family="Arial" font-size="14.00" fill="#000000">action_id </text>
<text text-anchor="start" x="889.9074" y="-683.9" font-family="Arial" font-size="14.00" fill="#666666">[integer]</text>
<polygon fill="none" stroke="#000000" points="823,-642.5 823,-672.5 1099,-672.5 1099,-642.5 823,-642.5"/>
<text text-anchor="start" x="830" y="-653.9" font-family="Arial" font-size="14.00" fill="#000000">share </text>
<text text-anchor="start" x="868.899" y="-653.9" font-family="Arial" font-size="14.00" fill="#666666">[boolean]</text>
<polygon fill="none" stroke="#000000" points="823,-612.5 823,-642.5 1099,-642.5 1099,-612.5 823,-612.5"/>
<text text-anchor="start" x="830" y="-623.9" font-family="Arial" font-size="14.00" fill="#000000">create_uid </text>
<text text-anchor="start" x="899.244" y="-623.9" font-family="Arial" font-size="14.00" fill="#666666">[integer]</text>
<polygon fill="none" stroke="#000000" points="823,-582.5 823,-612.5 1099,-612.5 1099,-582.5 823,-582.5"/>
<text text-anchor="start" x="830" y="-593.9" font-family="Arial" font-size="14.00" fill="#000000">write_uid </text>
<text text-anchor="start" x="889.892" y="-593.9" font-family="Arial" font-size="14.00" fill="#666666">[integer]</text>
<polygon fill="none" stroke="#000000" points="823,-552.5 823,-582.5 1099,-582.5 1099,-552.5 823,-552.5"/>
<text text-anchor="start" x="830" y="-563.9" font-family="Arial" font-size="14.00" fill="#000000">write_date </text>
<text text-anchor="start" x="898.4586" y="-563.9" font-family="Arial" font-size="14.00" fill="#666666">[timestamp without time zone]</text>
<polygon fill="none" stroke="#000000" points="823,-522.5 823,-552.5 1099,-552.5 1099,-522.5 823,-522.5"/>
<text text-anchor="start" x="830" y="-533.9" font-family="Arial" font-size="14.00" fill="#000000">alias_id </text>
<text text-anchor="start" x="881.3408" y="-533.9" font-family="Arial" font-size="14.00" fill="#666666">[integer]</text>
<polygon fill="none" stroke="#000000" points="823,-492.5 823,-522.5 1099,-522.5 1099,-492.5 823,-492.5"/>
<text text-anchor="start" x="830" y="-503.9" font-family="Arial" font-size="14.00" fill="#000000">notification_type </text>
<text text-anchor="start" x="935.0336" y="-503.9" font-family="Arial" font-size="14.00" fill="#666666">[varchar]</text>
<polygon fill="none" stroke="#000000" points="823,-462.5 823,-492.5 1099,-492.5 1099,-462.5 823,-462.5"/>
<text text-anchor="start" x="830" y="-473.9" font-family="Arial" font-size="14.00" fill="#000000">odoobot_state </text>
<text text-anchor="start" x="922.6058" y="-473.9" font-family="Arial" font-size="14.00" fill="#666666">[varchar]</text>
<polygon fill="none" stroke="#000000" points="823,-432.5 823,-462.5 1099,-462.5 1099,-432.5 823,-432.5"/>
<text text-anchor="start" x="830" y="-443.9" font-family="Arial" font-size="14.00" fill="#000000">sale_team_id </text>
<text text-anchor="start" x="917.1332" y="-443.9" font-family="Arial" font-size="14.00" fill="#666666">[integer]</text>
<polygon fill="none" stroke="#000000" points="823,-402.5 823,-432.5 1099,-432.5 1099,-402.5 823,-402.5"/>
<text text-anchor="start" x="830" y="-413.9" font-family="Arial" font-size="14.00" fill="#000000">target_sales_won </text>
<text text-anchor="start" x="943.589" y="-413.9" font-family="Arial" font-size="14.00" fill="#666666">[integer]</text>
<polygon fill="none" stroke="#000000" points="823,-372.5 823,-402.5 1099,-402.5 1099,-372.5 823,-372.5"/>
<text text-anchor="start" x="830" y="-383.9" font-family="Arial" font-size="14.00" fill="#000000">target_sales_done </text>
<text text-anchor="start" x="949.0476" y="-383.9" font-family="Arial" font-size="14.00" fill="#666666">[integer]</text>
<polygon fill="none" stroke="#000000" points="823,-342.5 823,-372.5 1099,-372.5 1099,-342.5 823,-342.5"/>
<text text-anchor="start" x="830" y="-353.9" font-family="Arial" font-size="14.00" fill="#000000">website_id </text>
<text text-anchor="start" x="900.014" y="-353.9" font-family="Arial" font-size="14.00" fill="#666666">[integer]</text>
<polygon fill="none" stroke="#000000" points="823,-312.5 823,-342.5 1099,-342.5 1099,-312.5 823,-312.5"/>
<text text-anchor="start" x="830" y="-323.9" font-family="Arial" font-size="14.00" fill="#000000">target_sales_invoiced </text>
<text text-anchor="start" x="969.2608" y="-323.9" font-family="Arial" font-size="14.00" fill="#666666">[integer]</text>
<polygon fill="none" stroke="#000000" points="823,-282.5 823,-312.5 1099,-312.5 1099,-282.5 823,-282.5"/>
<text text-anchor="start" x="830" y="-293.9" font-family="Arial" font-size="14.00" fill="#000000">pos_security_pin </text>
<text text-anchor="start" x="938.9158" y="-293.9" font-family="Arial" font-size="14.00" fill="#666666">[varchar(32)]</text>
</g>
<!-- public.website_menu&#45;&gt;public.res_users -->
<g id="edge4" class="edge">
<title>public.website_menu:create_uid&#45;&gt;public.res_users:id</title>
<path fill="none" stroke="#000000" d="M1110.0396,-1476.8684C1175.8167,-1468.0048 1129.3846,-1367.7597 1100,-1297 1033.3478,-1136.4979 889.6522,-1181.5021 823,-1021 807.0627,-982.6221 781.4444,-927.5 823,-927.5"/>
<polygon fill="#000000" stroke="#000000" points="1109.9803,-1476.872 1099.7174,-1473.0089 1104.9901,-1477.186 1100,-1477.5 1100,-1477.5 1100,-1477.5 1104.9901,-1477.186 1100.2826,-1481.9911 1109.9803,-1476.872 1109.9803,-1476.872"/>
<text text-anchor="start" x="1106.657" y="-1487.5" font-family="Arial" font-size="10.00" fill="#000000">FOREIGN KEY (create_uid) REFERENCES res_users(id) ON DELETE SET NULL</text>
</g>
<!-- public.website_menu&#45;&gt;public.res_users -->
<g id="edge5" class="edge">
<title>public.website_menu:write_uid&#45;&gt;public.res_users:id</title>
<path fill="none" stroke="#000000" d="M1110.0473,-1416.4786C1148.9744,-1407.6167 1119.0954,-1342.9827 1100,-1297 1033.3478,-1136.4979 889.6522,-1181.5021 823,-1021 807.0627,-982.6221 781.4444,-927.5 823,-927.5"/>
<polygon fill="#000000" stroke="#000000" points="1109.9487,-1416.4885 1099.5448,-1413.0231 1104.9744,-1416.9943 1100,-1417.5 1100,-1417.5 1100,-1417.5 1104.9744,-1416.9943 1100.4552,-1421.9769 1109.9487,-1416.4885 1109.9487,-1416.4885"/>
<text text-anchor="start" x="1106.997" y="-1427.5" font-family="Arial" font-size="10.00" fill="#000000">FOREIGN KEY (write_uid) REFERENCES res_users(id) ON DELETE SET NULL</text>
</g>
<!-- public.theme_website_menu -->
<g id="node5" class="node">
<title>public.theme_website_menu</title>
<polygon fill="#efefef" stroke="transparent" points="1204,-777.5 1204,-812.5 1543,-812.5 1543,-777.5 1204,-777.5"/>
<polygon fill="none" stroke="#000000" points="1204,-777.5 1204,-812.5 1543,-812.5 1543,-777.5 1204,-777.5"/>
<text text-anchor="start" x="1210.8458" y="-790.3" font-family="Arial Bold" font-size="18.00" fill="#000000">public.theme_website_menu</text>
<text text-anchor="start" x="1438.9004" y="-790.3" font-family="Arial" font-size="14.00" fill="#000000"> </text>
<text text-anchor="start" x="1442.791" y="-790.3" font-family="Arial" font-size="14.00" fill="#666666">[BASE TABLE]</text>
<polygon fill="none" stroke="#000000" points="1204,-747.5 1204,-777.5 1543,-777.5 1543,-747.5 1204,-747.5"/>
<text text-anchor="start" x="1211" y="-758.9" font-family="Arial" font-size="14.00" fill="#000000">id </text>
<text text-anchor="start" x="1225.7798" y="-758.9" font-family="Arial" font-size="14.00" fill="#666666">[integer]</text>
<polygon fill="none" stroke="#000000" points="1204,-717.5 1204,-747.5 1543,-747.5 1543,-717.5 1204,-717.5"/>
<text text-anchor="start" x="1211" y="-728.9" font-family="Arial" font-size="14.00" fill="#000000">name </text>
<text text-anchor="start" x="1249.899" y="-728.9" font-family="Arial" font-size="14.00" fill="#666666">[varchar]</text>
<polygon fill="none" stroke="#000000" points="1204,-687.5 1204,-717.5 1543,-717.5 1543,-687.5 1204,-687.5"/>
<text text-anchor="start" x="1211" y="-698.9" font-family="Arial" font-size="14.00" fill="#000000">url </text>
<text text-anchor="start" x="1230.4404" y="-698.9" font-family="Arial" font-size="14.00" fill="#666666">[varchar]</text>
<polygon fill="none" stroke="#000000" points="1204,-657.5 1204,-687.5 1543,-687.5 1543,-657.5 1204,-657.5"/>
<text text-anchor="start" x="1211" y="-668.9" font-family="Arial" font-size="14.00" fill="#000000">page_id </text>
<text text-anchor="start" x="1264.6928" y="-668.9" font-family="Arial" font-size="14.00" fill="#666666">[integer]</text>
<polygon fill="none" stroke="#000000" points="1204,-627.5 1204,-657.5 1543,-657.5 1543,-627.5 1204,-627.5"/>
<text text-anchor="start" x="1211" y="-638.9" font-family="Arial" font-size="14.00" fill="#000000">new_window </text>
<text text-anchor="start" x="1295.0126" y="-638.9" font-family="Arial" font-size="14.00" fill="#666666">[boolean]</text>
<polygon fill="none" stroke="#000000" points="1204,-597.5 1204,-627.5 1543,-627.5 1543,-597.5 1204,-597.5"/>
<text text-anchor="start" x="1211" y="-608.9" font-family="Arial" font-size="14.00" fill="#000000">sequence </text>
<text text-anchor="start" x="1275.5862" y="-608.9" font-family="Arial" font-size="14.00" fill="#666666">[integer]</text>
<polygon fill="none" stroke="#000000" points="1204,-567.5 1204,-597.5 1543,-597.5 1543,-567.5 1204,-567.5"/>
<text text-anchor="start" x="1211" y="-578.9" font-family="Arial" font-size="14.00" fill="#000000">parent_id </text>
<text text-anchor="start" x="1273.244" y="-578.9" font-family="Arial" font-size="14.00" fill="#666666">[integer]</text>
<polygon fill="none" stroke="#000000" points="1204,-537.5 1204,-567.5 1543,-567.5 1543,-537.5 1204,-537.5"/>
<text text-anchor="start" x="1211" y="-548.9" font-family="Arial" font-size="14.00" fill="#000000">create_uid </text>
<text text-anchor="start" x="1280.244" y="-548.9" font-family="Arial" font-size="14.00" fill="#666666">[integer]</text>
<polygon fill="none" stroke="#000000" points="1204,-507.5 1204,-537.5 1543,-537.5 1543,-507.5 1204,-507.5"/>
<text text-anchor="start" x="1211" y="-518.9" font-family="Arial" font-size="14.00" fill="#000000">create_date </text>
<text text-anchor="start" x="1288.8106" y="-518.9" font-family="Arial" font-size="14.00" fill="#666666">[timestamp without time zone]</text>
<polygon fill="none" stroke="#000000" points="1204,-477.5 1204,-507.5 1543,-507.5 1543,-477.5 1204,-477.5"/>
<text text-anchor="start" x="1211" y="-488.9" font-family="Arial" font-size="14.00" fill="#000000">write_uid </text>
<text text-anchor="start" x="1270.892" y="-488.9" font-family="Arial" font-size="14.00" fill="#666666">[integer]</text>
<polygon fill="none" stroke="#000000" points="1204,-447.5 1204,-477.5 1543,-477.5 1543,-447.5 1204,-447.5"/>
<text text-anchor="start" x="1211" y="-458.9" font-family="Arial" font-size="14.00" fill="#000000">write_date </text>
<text text-anchor="start" x="1279.4586" y="-458.9" font-family="Arial" font-size="14.00" fill="#666666">[timestamp without time zone]</text>
</g>
<!-- public.website_menu&#45;&gt;public.theme_website_menu -->
<g id="edge6" class="edge">
<title>public.website_menu:theme_template_id&#45;&gt;public.theme_website_menu:id</title>
<path fill="none" stroke="#000000" d="M1110.3088,-1356.6083C1146.8454,-1349.6944 1137.953,-1303.7748 1151,-1261 1167.2506,-1207.7222 1148.2989,-762.5 1204,-762.5"/>
<polygon fill="#000000" stroke="#000000" points="1109.9628,-1356.6381 1099.6122,-1353.0167 1104.9814,-1357.0691 1100,-1357.5 1100,-1357.5 1100,-1357.5 1104.9814,-1357.0691 1100.3878,-1361.9833 1109.9628,-1356.6381 1109.9628,-1356.6381"/>
<text text-anchor="start" x="1106.5315" y="-1367.5" font-family="Arial" font-size="10.00" fill="#000000">FOREIGN KEY (theme_template_id) REFERENCES theme_website_menu(id) ON DELETE SET NULL</text>
</g>
</g>
</svg>
