<?xml version="1.0" encoding="UTF-8" standalone="no"?>
<!DOCTYPE svg PUBLIC "-//W3C//DTD SVG 1.1//EN"
 "http://www.w3.org/Graphics/SVG/1.1/DTD/svg11.dtd">
<!-- Generated by graphviz version 2.40.1 (20161225.0304)
 -->
<!-- Title: public.account_move_reversal Pages: 1 -->
<svg width="1146pt" height="1432pt"
 viewBox="0.00 0.00 1146.00 1432.00" xmlns="http://www.w3.org/2000/svg" xmlns:xlink="http://www.w3.org/1999/xlink">
<g id="graph0" class="graph" transform="scale(1 1) rotate(0) translate(4 1428)">
<title>public.account_move_reversal</title>
<polygon fill="#ffffff" stroke="transparent" points="-4,4 -4,-1428 1142,-1428 1142,4 -4,4"/>
<!-- public.account_move_reversal -->
<g id="node1" class="node">
<title>public.account_move_reversal</title>
<polygon fill="#efefef" stroke="transparent" points="404,-1342.5 404,-1377.5 758,-1377.5 758,-1342.5 404,-1342.5"/>
<polygon fill="none" stroke="#000000" points="404,-1342.5 404,-1377.5 758,-1377.5 758,-1342.5 404,-1342.5"/>
<text text-anchor="start" x="410.8479" y="-1355.3" font-family="Arial Bold" font-size="18.00" fill="#000000">public.account_move_reversal</text>
<text text-anchor="start" x="653.8983" y="-1355.3" font-family="Arial" font-size="14.00" fill="#000000"> </text>
<text text-anchor="start" x="657.7889" y="-1355.3" font-family="Arial" font-size="14.00" fill="#666666">[BASE TABLE]</text>
<polygon fill="none" stroke="#000000" points="404,-1312.5 404,-1342.5 758,-1342.5 758,-1312.5 404,-1312.5"/>
<text text-anchor="start" x="411" y="-1323.9" font-family="Arial" font-size="14.00" fill="#000000">id </text>
<text text-anchor="start" x="425.7798" y="-1323.9" font-family="Arial" font-size="14.00" fill="#666666">[integer]</text>
<polygon fill="none" stroke="#000000" points="404,-1282.5 404,-1312.5 758,-1312.5 758,-1282.5 404,-1282.5"/>
<text text-anchor="start" x="411" y="-1293.9" font-family="Arial" font-size="14.00" fill="#000000">date </text>
<text text-anchor="start" x="442.129" y="-1293.9" font-family="Arial" font-size="14.00" fill="#666666">[date]</text>
<polygon fill="none" stroke="#000000" points="404,-1252.5 404,-1282.5 758,-1282.5 758,-1252.5 404,-1252.5"/>
<text text-anchor="start" x="411" y="-1263.9" font-family="Arial" font-size="14.00" fill="#000000">journal_id </text>
<text text-anchor="start" x="475.5666" y="-1263.9" font-family="Arial" font-size="14.00" fill="#666666">[integer]</text>
<polygon fill="none" stroke="#000000" points="404,-1222.5 404,-1252.5 758,-1252.5 758,-1222.5 404,-1222.5"/>
<text text-anchor="start" x="411" y="-1233.9" font-family="Arial" font-size="14.00" fill="#000000">create_uid </text>
<text text-anchor="start" x="480.244" y="-1233.9" font-family="Arial" font-size="14.00" fill="#666666">[integer]</text>
<polygon fill="none" stroke="#000000" points="404,-1192.5 404,-1222.5 758,-1222.5 758,-1192.5 404,-1192.5"/>
<text text-anchor="start" x="411" y="-1203.9" font-family="Arial" font-size="14.00" fill="#000000">create_date </text>
<text text-anchor="start" x="488.8106" y="-1203.9" font-family="Arial" font-size="14.00" fill="#666666">[timestamp without time zone]</text>
<polygon fill="none" stroke="#000000" points="404,-1162.5 404,-1192.5 758,-1192.5 758,-1162.5 404,-1162.5"/>
<text text-anchor="start" x="411" y="-1173.9" font-family="Arial" font-size="14.00" fill="#000000">write_uid </text>
<text text-anchor="start" x="470.892" y="-1173.9" font-family="Arial" font-size="14.00" fill="#666666">[integer]</text>
<polygon fill="none" stroke="#000000" points="404,-1132.5 404,-1162.5 758,-1162.5 758,-1132.5 404,-1132.5"/>
<text text-anchor="start" x="411" y="-1143.9" font-family="Arial" font-size="14.00" fill="#000000">write_date </text>
<text text-anchor="start" x="479.4586" y="-1143.9" font-family="Arial" font-size="14.00" fill="#666666">[timestamp without time zone]</text>
<polygon fill="none" stroke="#000000" stroke-width="3" points="402.5,-1131.5 402.5,-1379.5 759.5,-1379.5 759.5,-1131.5 402.5,-1131.5"/>
</g>
<!-- public.account_journal -->
<g id="node2" class="node">
<title>public.account_journal</title>
<polygon fill="#efefef" stroke="transparent" points="49,-972.5 49,-1007.5 339,-1007.5 339,-972.5 49,-972.5"/>
<polygon fill="none" stroke="#000000" points="49,-972.5 49,-1007.5 339,-1007.5 339,-972.5 49,-972.5"/>
<text text-anchor="start" x="55.8492" y="-985.3" font-family="Arial Bold" font-size="18.00" fill="#000000">public.account_journal</text>
<text text-anchor="start" x="234.897" y="-985.3" font-family="Arial" font-size="14.00" fill="#000000"> </text>
<text text-anchor="start" x="238.7876" y="-985.3" font-family="Arial" font-size="14.00" fill="#666666">[BASE TABLE]</text>
<polygon fill="none" stroke="#000000" points="49,-942.5 49,-972.5 339,-972.5 339,-942.5 49,-942.5"/>
<text text-anchor="start" x="56" y="-953.9" font-family="Arial" font-size="14.00" fill="#000000">id </text>
<text text-anchor="start" x="70.7798" y="-953.9" font-family="Arial" font-size="14.00" fill="#666666">[integer]</text>
<polygon fill="none" stroke="#000000" points="49,-912.5 49,-942.5 339,-942.5 339,-912.5 49,-912.5"/>
<text text-anchor="start" x="56" y="-923.9" font-family="Arial" font-size="14.00" fill="#000000">name </text>
<text text-anchor="start" x="94.899" y="-923.9" font-family="Arial" font-size="14.00" fill="#666666">[varchar]</text>
<polygon fill="none" stroke="#000000" points="49,-882.5 49,-912.5 339,-912.5 339,-882.5 49,-882.5"/>
<text text-anchor="start" x="56" y="-893.9" font-family="Arial" font-size="14.00" fill="#000000">code </text>
<text text-anchor="start" x="90.2384" y="-893.9" font-family="Arial" font-size="14.00" fill="#666666">[varchar(5)]</text>
<polygon fill="none" stroke="#000000" points="49,-852.5 49,-882.5 339,-882.5 339,-852.5 49,-852.5"/>
<text text-anchor="start" x="56" y="-863.9" font-family="Arial" font-size="14.00" fill="#000000">active </text>
<text text-anchor="start" x="96.453" y="-863.9" font-family="Arial" font-size="14.00" fill="#666666">[boolean]</text>
<polygon fill="none" stroke="#000000" points="49,-822.5 49,-852.5 339,-852.5 339,-822.5 49,-822.5"/>
<text text-anchor="start" x="56" y="-833.9" font-family="Arial" font-size="14.00" fill="#000000">type </text>
<text text-anchor="start" x="86.3464" y="-833.9" font-family="Arial" font-size="14.00" fill="#666666">[varchar]</text>
<polygon fill="none" stroke="#000000" points="49,-792.5 49,-822.5 339,-822.5 339,-792.5 49,-792.5"/>
<text text-anchor="start" x="56" y="-803.9" font-family="Arial" font-size="14.00" fill="#000000">default_credit_account_id </text>
<text text-anchor="start" x="219.3898" y="-803.9" font-family="Arial" font-size="14.00" fill="#666666">[integer]</text>
<polygon fill="none" stroke="#000000" points="49,-762.5 49,-792.5 339,-792.5 339,-762.5 49,-762.5"/>
<text text-anchor="start" x="56" y="-773.9" font-family="Arial" font-size="14.00" fill="#000000">default_debit_account_id </text>
<text text-anchor="start" x="215.5118" y="-773.9" font-family="Arial" font-size="14.00" fill="#666666">[integer]</text>
<polygon fill="none" stroke="#000000" points="49,-732.5 49,-762.5 339,-762.5 339,-732.5 49,-732.5"/>
<text text-anchor="start" x="56" y="-743.9" font-family="Arial" font-size="14.00" fill="#000000">update_posted </text>
<text text-anchor="start" x="152.4978" y="-743.9" font-family="Arial" font-size="14.00" fill="#666666">[boolean]</text>
<polygon fill="none" stroke="#000000" points="49,-702.5 49,-732.5 339,-732.5 339,-702.5 49,-702.5"/>
<text text-anchor="start" x="56" y="-713.9" font-family="Arial" font-size="14.00" fill="#000000">group_invoice_lines </text>
<text text-anchor="start" x="183.5862" y="-713.9" font-family="Arial" font-size="14.00" fill="#666666">[boolean]</text>
<polygon fill="none" stroke="#000000" points="49,-672.5 49,-702.5 339,-702.5 339,-672.5 49,-672.5"/>
<text text-anchor="start" x="56" y="-683.9" font-family="Arial" font-size="14.00" fill="#000000">sequence_id </text>
<text text-anchor="start" x="139.258" y="-683.9" font-family="Arial" font-size="14.00" fill="#666666">[integer]</text>
<polygon fill="none" stroke="#000000" points="49,-642.5 49,-672.5 339,-672.5 339,-642.5 49,-642.5"/>
<text text-anchor="start" x="56" y="-653.9" font-family="Arial" font-size="14.00" fill="#000000">refund_sequence_id </text>
<text text-anchor="start" x="186.7222" y="-653.9" font-family="Arial" font-size="14.00" fill="#666666">[integer]</text>
<polygon fill="none" stroke="#000000" points="49,-612.5 49,-642.5 339,-642.5 339,-612.5 49,-612.5"/>
<text text-anchor="start" x="56" y="-623.9" font-family="Arial" font-size="14.00" fill="#000000">sequence </text>
<text text-anchor="start" x="120.5862" y="-623.9" font-family="Arial" font-size="14.00" fill="#666666">[integer]</text>
<polygon fill="none" stroke="#000000" points="49,-582.5 49,-612.5 339,-612.5 339,-582.5 49,-582.5"/>
<text text-anchor="start" x="56" y="-593.9" font-family="Arial" font-size="14.00" fill="#000000">currency_id </text>
<text text-anchor="start" x="132.2314" y="-593.9" font-family="Arial" font-size="14.00" fill="#666666">[integer]</text>
<polygon fill="none" stroke="#000000" points="49,-552.5 49,-582.5 339,-582.5 339,-552.5 49,-552.5"/>
<text text-anchor="start" x="56" y="-563.9" font-family="Arial" font-size="14.00" fill="#000000">company_id </text>
<text text-anchor="start" x="135.3534" y="-563.9" font-family="Arial" font-size="14.00" fill="#666666">[integer]</text>
<polygon fill="none" stroke="#000000" points="49,-522.5 49,-552.5 339,-552.5 339,-522.5 49,-522.5"/>
<text text-anchor="start" x="56" y="-533.9" font-family="Arial" font-size="14.00" fill="#000000">refund_sequence </text>
<text text-anchor="start" x="168.0504" y="-533.9" font-family="Arial" font-size="14.00" fill="#666666">[boolean]</text>
<polygon fill="none" stroke="#000000" points="49,-492.5 49,-522.5 339,-522.5 339,-492.5 49,-492.5"/>
<text text-anchor="start" x="56" y="-503.9" font-family="Arial" font-size="14.00" fill="#000000">at_least_one_inbound </text>
<text text-anchor="start" x="197.624" y="-503.9" font-family="Arial" font-size="14.00" fill="#666666">[boolean]</text>
<polygon fill="none" stroke="#000000" points="49,-462.5 49,-492.5 339,-492.5 339,-462.5 49,-462.5"/>
<text text-anchor="start" x="56" y="-473.9" font-family="Arial" font-size="14.00" fill="#000000">at_least_one_outbound </text>
<text text-anchor="start" x="206.1906" y="-473.9" font-family="Arial" font-size="14.00" fill="#666666">[boolean]</text>
<polygon fill="none" stroke="#000000" points="49,-432.5 49,-462.5 339,-462.5 339,-432.5 49,-432.5"/>
<text text-anchor="start" x="56" y="-443.9" font-family="Arial" font-size="14.00" fill="#000000">profit_account_id </text>
<text text-anchor="start" x="166.4796" y="-443.9" font-family="Arial" font-size="14.00" fill="#666666">[integer]</text>
<polygon fill="none" stroke="#000000" points="49,-402.5 49,-432.5 339,-432.5 339,-402.5 49,-402.5"/>
<text text-anchor="start" x="56" y="-413.9" font-family="Arial" font-size="14.00" fill="#000000">loss_account_id </text>
<text text-anchor="start" x="160.2552" y="-413.9" font-family="Arial" font-size="14.00" fill="#666666">[integer]</text>
<polygon fill="none" stroke="#000000" points="49,-372.5 49,-402.5 339,-402.5 339,-372.5 49,-372.5"/>
<text text-anchor="start" x="56" y="-383.9" font-family="Arial" font-size="14.00" fill="#000000">bank_account_id </text>
<text text-anchor="start" x="165.7138" y="-383.9" font-family="Arial" font-size="14.00" fill="#666666">[integer]</text>
<polygon fill="none" stroke="#000000" points="49,-342.5 49,-372.5 339,-372.5 339,-342.5 49,-342.5"/>
<text text-anchor="start" x="56" y="-353.9" font-family="Arial" font-size="14.00" fill="#000000">bank_statements_source </text>
<text text-anchor="start" x="216.2748" y="-353.9" font-family="Arial" font-size="14.00" fill="#666666">[varchar]</text>
<polygon fill="none" stroke="#000000" points="49,-312.5 49,-342.5 339,-342.5 339,-312.5 49,-312.5"/>
<text text-anchor="start" x="56" y="-323.9" font-family="Arial" font-size="14.00" fill="#000000">post_at_bank_rec </text>
<text text-anchor="start" x="171.1584" y="-323.9" font-family="Arial" font-size="14.00" fill="#666666">[boolean]</text>
<polygon fill="none" stroke="#000000" points="49,-282.5 49,-312.5 339,-312.5 339,-282.5 49,-282.5"/>
<text text-anchor="start" x="56" y="-293.9" font-family="Arial" font-size="14.00" fill="#000000">alias_id </text>
<text text-anchor="start" x="107.3408" y="-293.9" font-family="Arial" font-size="14.00" fill="#666666">[integer]</text>
<polygon fill="none" stroke="#000000" points="49,-252.5 49,-282.5 339,-282.5 339,-252.5 49,-252.5"/>
<text text-anchor="start" x="56" y="-263.9" font-family="Arial" font-size="14.00" fill="#000000">show_on_dashboard </text>
<text text-anchor="start" x="189.8316" y="-263.9" font-family="Arial" font-size="14.00" fill="#666666">[boolean]</text>
<polygon fill="none" stroke="#000000" points="49,-222.5 49,-252.5 339,-252.5 339,-222.5 49,-222.5"/>
<text text-anchor="start" x="56" y="-233.9" font-family="Arial" font-size="14.00" fill="#000000">color </text>
<text text-anchor="start" x="90.223" y="-233.9" font-family="Arial" font-size="14.00" fill="#666666">[integer]</text>
<polygon fill="none" stroke="#000000" points="49,-192.5 49,-222.5 339,-222.5 339,-192.5 49,-192.5"/>
<text text-anchor="start" x="56" y="-203.9" font-family="Arial" font-size="14.00" fill="#000000">create_uid </text>
<text text-anchor="start" x="125.244" y="-203.9" font-family="Arial" font-size="14.00" fill="#666666">[integer]</text>
<polygon fill="none" stroke="#000000" points="49,-162.5 49,-192.5 339,-192.5 339,-162.5 49,-162.5"/>
<text text-anchor="start" x="56" y="-173.9" font-family="Arial" font-size="14.00" fill="#000000">create_date </text>
<text text-anchor="start" x="133.8106" y="-173.9" font-family="Arial" font-size="14.00" fill="#666666">[timestamp without time zone]</text>
<polygon fill="none" stroke="#000000" points="49,-132.5 49,-162.5 339,-162.5 339,-132.5 49,-132.5"/>
<text text-anchor="start" x="56" y="-143.9" font-family="Arial" font-size="14.00" fill="#000000">write_uid </text>
<text text-anchor="start" x="115.892" y="-143.9" font-family="Arial" font-size="14.00" fill="#666666">[integer]</text>
<polygon fill="none" stroke="#000000" points="49,-102.5 49,-132.5 339,-132.5 339,-102.5 49,-102.5"/>
<text text-anchor="start" x="56" y="-113.9" font-family="Arial" font-size="14.00" fill="#000000">write_date </text>
<text text-anchor="start" x="124.4586" y="-113.9" font-family="Arial" font-size="14.00" fill="#666666">[timestamp without time zone]</text>
<polygon fill="none" stroke="#000000" points="49,-72.5 49,-102.5 339,-102.5 339,-72.5 49,-72.5"/>
<text text-anchor="start" x="56" y="-83.9" font-family="Arial" font-size="14.00" fill="#000000">journal_user </text>
<text text-anchor="start" x="136.9032" y="-83.9" font-family="Arial" font-size="14.00" fill="#666666">[boolean]</text>
<polygon fill="none" stroke="#000000" points="49,-42.5 49,-72.5 339,-72.5 339,-42.5 49,-42.5"/>
<text text-anchor="start" x="56" y="-53.9" font-family="Arial" font-size="14.00" fill="#000000">amount_authorized_diff </text>
<text text-anchor="start" x="206.1612" y="-53.9" font-family="Arial" font-size="14.00" fill="#666666">[double precision]</text>
</g>
<!-- public.account_move_reversal&#45;&gt;public.account_journal -->
<g id="edge1" class="edge">
<title>public.account_move_reversal:journal_id&#45;&gt;public.account_journal:id</title>
<path fill="none" stroke="#000000" d="M393.9564,-1266.9106C273.9923,-1251.9577 476.1995,-957.5 339,-957.5"/>
<polygon fill="#000000" stroke="#000000" points="394.0172,-1266.9141 403.7363,-1271.9923 399.0086,-1267.207 404,-1267.5 404,-1267.5 404,-1267.5 399.0086,-1267.207 404.2637,-1263.0077 394.0172,-1266.9141 394.0172,-1266.9141"/>
<text text-anchor="start" x="6.986" y="-1277.5" font-family="Arial" font-size="10.00" fill="#000000">FOREIGN KEY (journal_id) REFERENCES account_journal(id) ON DELETE SET NULL</text>
</g>
<!-- public.res_users -->
<g id="node3" class="node">
<title>public.res_users</title>
<polygon fill="#efefef" stroke="transparent" points="443,-837.5 443,-872.5 719,-872.5 719,-837.5 443,-837.5"/>
<polygon fill="none" stroke="#000000" points="443,-837.5 443,-872.5 719,-872.5 719,-837.5 443,-837.5"/>
<text text-anchor="start" x="466.8639" y="-850.3" font-family="Arial Bold" font-size="18.00" fill="#000000">public.res_users</text>
<text text-anchor="start" x="597.8823" y="-850.3" font-family="Arial" font-size="14.00" fill="#000000"> </text>
<text text-anchor="start" x="601.7729" y="-850.3" font-family="Arial" font-size="14.00" fill="#666666">[BASE TABLE]</text>
<polygon fill="none" stroke="#000000" points="443,-807.5 443,-837.5 719,-837.5 719,-807.5 443,-807.5"/>
<text text-anchor="start" x="450" y="-818.9" font-family="Arial" font-size="14.00" fill="#000000">id </text>
<text text-anchor="start" x="464.7798" y="-818.9" font-family="Arial" font-size="14.00" fill="#666666">[integer]</text>
<polygon fill="none" stroke="#000000" points="443,-777.5 443,-807.5 719,-807.5 719,-777.5 443,-777.5"/>
<text text-anchor="start" x="450" y="-788.9" font-family="Arial" font-size="14.00" fill="#000000">active </text>
<text text-anchor="start" x="490.453" y="-788.9" font-family="Arial" font-size="14.00" fill="#666666">[boolean]</text>
<polygon fill="none" stroke="#000000" points="443,-747.5 443,-777.5 719,-777.5 719,-747.5 443,-747.5"/>
<text text-anchor="start" x="450" y="-758.9" font-family="Arial" font-size="14.00" fill="#000000">login </text>
<text text-anchor="start" x="483.4516" y="-758.9" font-family="Arial" font-size="14.00" fill="#666666">[varchar]</text>
<polygon fill="none" stroke="#000000" points="443,-717.5 443,-747.5 719,-747.5 719,-717.5 443,-717.5"/>
<text text-anchor="start" x="450" y="-728.9" font-family="Arial" font-size="14.00" fill="#000000">password </text>
<text text-anchor="start" x="513.7882" y="-728.9" font-family="Arial" font-size="14.00" fill="#666666">[varchar]</text>
<polygon fill="none" stroke="#000000" points="443,-687.5 443,-717.5 719,-717.5 719,-687.5 443,-687.5"/>
<text text-anchor="start" x="450" y="-698.9" font-family="Arial" font-size="14.00" fill="#000000">company_id </text>
<text text-anchor="start" x="529.3534" y="-698.9" font-family="Arial" font-size="14.00" fill="#666666">[integer]</text>
<polygon fill="none" stroke="#000000" points="443,-657.5 443,-687.5 719,-687.5 719,-657.5 443,-657.5"/>
<text text-anchor="start" x="450" y="-668.9" font-family="Arial" font-size="14.00" fill="#000000">partner_id </text>
<text text-anchor="start" x="516.9046" y="-668.9" font-family="Arial" font-size="14.00" fill="#666666">[integer]</text>
<polygon fill="none" stroke="#000000" points="443,-627.5 443,-657.5 719,-657.5 719,-627.5 443,-627.5"/>
<text text-anchor="start" x="449.5246" y="-638.9" font-family="Arial" font-size="14.00" fill="#000000">create_date </text>
<text text-anchor="start" x="527.3352" y="-638.9" font-family="Arial" font-size="14.00" fill="#666666">[timestamp without time zone]</text>
<polygon fill="none" stroke="#000000" points="443,-597.5 443,-627.5 719,-627.5 719,-597.5 443,-597.5"/>
<text text-anchor="start" x="450" y="-608.9" font-family="Arial" font-size="14.00" fill="#000000">signature </text>
<text text-anchor="start" x="511.4614" y="-608.9" font-family="Arial" font-size="14.00" fill="#666666">[text]</text>
<polygon fill="none" stroke="#000000" points="443,-567.5 443,-597.5 719,-597.5 719,-567.5 443,-567.5"/>
<text text-anchor="start" x="450" y="-578.9" font-family="Arial" font-size="14.00" fill="#000000">action_id </text>
<text text-anchor="start" x="509.9074" y="-578.9" font-family="Arial" font-size="14.00" fill="#666666">[integer]</text>
<polygon fill="none" stroke="#000000" points="443,-537.5 443,-567.5 719,-567.5 719,-537.5 443,-537.5"/>
<text text-anchor="start" x="450" y="-548.9" font-family="Arial" font-size="14.00" fill="#000000">share </text>
<text text-anchor="start" x="488.899" y="-548.9" font-family="Arial" font-size="14.00" fill="#666666">[boolean]</text>
<polygon fill="none" stroke="#000000" points="443,-507.5 443,-537.5 719,-537.5 719,-507.5 443,-507.5"/>
<text text-anchor="start" x="450" y="-518.9" font-family="Arial" font-size="14.00" fill="#000000">create_uid </text>
<text text-anchor="start" x="519.244" y="-518.9" font-family="Arial" font-size="14.00" fill="#666666">[integer]</text>
<polygon fill="none" stroke="#000000" points="443,-477.5 443,-507.5 719,-507.5 719,-477.5 443,-477.5"/>
<text text-anchor="start" x="450" y="-488.9" font-family="Arial" font-size="14.00" fill="#000000">write_uid </text>
<text text-anchor="start" x="509.892" y="-488.9" font-family="Arial" font-size="14.00" fill="#666666">[integer]</text>
<polygon fill="none" stroke="#000000" points="443,-447.5 443,-477.5 719,-477.5 719,-447.5 443,-447.5"/>
<text text-anchor="start" x="450" y="-458.9" font-family="Arial" font-size="14.00" fill="#000000">write_date </text>
<text text-anchor="start" x="518.4586" y="-458.9" font-family="Arial" font-size="14.00" fill="#666666">[timestamp without time zone]</text>
<polygon fill="none" stroke="#000000" points="443,-417.5 443,-447.5 719,-447.5 719,-417.5 443,-417.5"/>
<text text-anchor="start" x="450" y="-428.9" font-family="Arial" font-size="14.00" fill="#000000">alias_id </text>
<text text-anchor="start" x="501.3408" y="-428.9" font-family="Arial" font-size="14.00" fill="#666666">[integer]</text>
<polygon fill="none" stroke="#000000" points="443,-387.5 443,-417.5 719,-417.5 719,-387.5 443,-387.5"/>
<text text-anchor="start" x="450" y="-398.9" font-family="Arial" font-size="14.00" fill="#000000">notification_type </text>
<text text-anchor="start" x="555.0336" y="-398.9" font-family="Arial" font-size="14.00" fill="#666666">[varchar]</text>
<polygon fill="none" stroke="#000000" points="443,-357.5 443,-387.5 719,-387.5 719,-357.5 443,-357.5"/>
<text text-anchor="start" x="450" y="-368.9" font-family="Arial" font-size="14.00" fill="#000000">odoobot_state </text>
<text text-anchor="start" x="542.6058" y="-368.9" font-family="Arial" font-size="14.00" fill="#666666">[varchar]</text>
<polygon fill="none" stroke="#000000" points="443,-327.5 443,-357.5 719,-357.5 719,-327.5 443,-327.5"/>
<text text-anchor="start" x="450" y="-338.9" font-family="Arial" font-size="14.00" fill="#000000">sale_team_id </text>
<text text-anchor="start" x="537.1332" y="-338.9" font-family="Arial" font-size="14.00" fill="#666666">[integer]</text>
<polygon fill="none" stroke="#000000" points="443,-297.5 443,-327.5 719,-327.5 719,-297.5 443,-297.5"/>
<text text-anchor="start" x="450" y="-308.9" font-family="Arial" font-size="14.00" fill="#000000">target_sales_won </text>
<text text-anchor="start" x="563.589" y="-308.9" font-family="Arial" font-size="14.00" fill="#666666">[integer]</text>
<polygon fill="none" stroke="#000000" points="443,-267.5 443,-297.5 719,-297.5 719,-267.5 443,-267.5"/>
<text text-anchor="start" x="450" y="-278.9" font-family="Arial" font-size="14.00" fill="#000000">target_sales_done </text>
<text text-anchor="start" x="569.0476" y="-278.9" font-family="Arial" font-size="14.00" fill="#666666">[integer]</text>
<polygon fill="none" stroke="#000000" points="443,-237.5 443,-267.5 719,-267.5 719,-237.5 443,-237.5"/>
<text text-anchor="start" x="450" y="-248.9" font-family="Arial" font-size="14.00" fill="#000000">website_id </text>
<text text-anchor="start" x="520.014" y="-248.9" font-family="Arial" font-size="14.00" fill="#666666">[integer]</text>
<polygon fill="none" stroke="#000000" points="443,-207.5 443,-237.5 719,-237.5 719,-207.5 443,-207.5"/>
<text text-anchor="start" x="450" y="-218.9" font-family="Arial" font-size="14.00" fill="#000000">target_sales_invoiced </text>
<text text-anchor="start" x="589.2608" y="-218.9" font-family="Arial" font-size="14.00" fill="#666666">[integer]</text>
<polygon fill="none" stroke="#000000" points="443,-177.5 443,-207.5 719,-207.5 719,-177.5 443,-177.5"/>
<text text-anchor="start" x="450" y="-188.9" font-family="Arial" font-size="14.00" fill="#000000">pos_security_pin </text>
<text text-anchor="start" x="558.9158" y="-188.9" font-family="Arial" font-size="14.00" fill="#666666">[varchar(32)]</text>
</g>
<!-- public.account_move_reversal&#45;&gt;public.res_users -->
<g id="edge2" class="edge">
<title>public.account_move_reversal:create_uid&#45;&gt;public.res_users:id</title>
<path fill="none" stroke="#000000" d="M768.257,-1235.6498C847.4999,-1205.7114 808.0103,-822.5 719,-822.5"/>
<polygon fill="#000000" stroke="#000000" points="767.8412,-1235.7247 757.2011,-1233.0715 762.9206,-1236.6123 758,-1237.5 758,-1237.5 758,-1237.5 762.9206,-1236.6123 758.7989,-1241.9285 767.8412,-1235.7247 767.8412,-1235.7247"/>
<text text-anchor="start" x="764.657" y="-1247.5" font-family="Arial" font-size="10.00" fill="#000000">FOREIGN KEY (create_uid) REFERENCES res_users(id) ON DELETE SET NULL</text>
</g>
<!-- public.account_move_reversal&#45;&gt;public.res_users -->
<g id="edge3" class="edge">
<title>public.account_move_reversal:write_uid&#45;&gt;public.res_users:id</title>
<path fill="none" stroke="#000000" d="M767.986,-1175.4152C833.7782,-1146.3218 794.7984,-822.5 719,-822.5"/>
<polygon fill="#000000" stroke="#000000" points="767.789,-1175.4563 757.0803,-1173.095 762.8945,-1176.4781 758,-1177.5 758,-1177.5 758,-1177.5 762.8945,-1176.4781 758.9197,-1181.905 767.789,-1175.4563 767.789,-1175.4563"/>
<text text-anchor="start" x="764.997" y="-1187.5" font-family="Arial" font-size="10.00" fill="#000000">FOREIGN KEY (write_uid) REFERENCES res_users(id) ON DELETE SET NULL</text>
</g>
</g>
</svg>
