<?xml version="1.0" encoding="UTF-8" standalone="no"?>
<!DOCTYPE svg PUBLIC "-//W3C//DTD SVG 1.1//EN"
 "http://www.w3.org/Graphics/SVG/1.1/DTD/svg11.dtd">
<!-- Generated by graphviz version 2.40.1 (20161225.0304)
 -->
<!-- Title: public.mail_message_res_partner_needaction_rel_mail_resend_message_rel Pages: 1 -->
<svg width="1931pt" height="622pt"
 viewBox="0.00 0.00 1931.00 622.00" xmlns="http://www.w3.org/2000/svg" xmlns:xlink="http://www.w3.org/1999/xlink">
<g id="graph0" class="graph" transform="scale(1 1) rotate(0) translate(4 618)">
<title>public.mail_message_res_partner_needaction_rel_mail_resend_message_rel</title>
<polygon fill="#ffffff" stroke="transparent" points="-4,4 -4,-618 1927,-618 1927,4 -4,4"/>
<!-- public.mail_message_res_partner_needaction_rel_mail_resend_message_rel -->
<g id="node1" class="node">
<title>public.mail_message_res_partner_needaction_rel_mail_resend_message_rel</title>
<polygon fill="#efefef" stroke="transparent" points="505,-532.5 505,-567.5 1235,-567.5 1235,-532.5 505,-532.5"/>
<polygon fill="none" stroke="#000000" points="505,-532.5 505,-567.5 1235,-567.5 1235,-532.5 505,-532.5"/>
<text text-anchor="start" x="511.8109" y="-545.3" font-family="Arial Bold" font-size="18.00" fill="#000000">public.mail_message_res_partner_needaction_rel_mail_resend_message_rel</text>
<text text-anchor="start" x="1130.9353" y="-545.3" font-family="Arial" font-size="14.00" fill="#000000"> </text>
<text text-anchor="start" x="1134.8259" y="-545.3" font-family="Arial" font-size="14.00" fill="#666666">[BASE TABLE]</text>
<polygon fill="none" stroke="#000000" points="505,-502.5 505,-532.5 1235,-532.5 1235,-502.5 505,-502.5"/>
<text text-anchor="start" x="512" y="-513.9" font-family="Arial" font-size="14.00" fill="#000000">mail_resend_message_id </text>
<text text-anchor="start" x="675.366" y="-513.9" font-family="Arial" font-size="14.00" fill="#666666">[integer]</text>
<polygon fill="none" stroke="#000000" points="505,-472.5 505,-502.5 1235,-502.5 1235,-472.5 505,-472.5"/>
<text text-anchor="start" x="512" y="-483.9" font-family="Arial" font-size="14.00" fill="#000000">mail_message_res_partner_needaction_rel_id </text>
<text text-anchor="start" x="803.7334" y="-483.9" font-family="Arial" font-size="14.00" fill="#666666">[integer]</text>
<polygon fill="none" stroke="#000000" stroke-width="3" points="503.5,-471.5 503.5,-569.5 1236.5,-569.5 1236.5,-471.5 503.5,-471.5"/>
</g>
<!-- public.mail_resend_message -->
<g id="node2" class="node">
<title>public.mail_resend_message</title>
<polygon fill="#efefef" stroke="transparent" points="432,-267.5 432,-302.5 776,-302.5 776,-267.5 432,-267.5"/>
<polygon fill="none" stroke="#000000" points="432,-267.5 432,-302.5 776,-302.5 776,-267.5 432,-267.5"/>
<text text-anchor="start" x="438.8519" y="-280.3" font-family="Arial Bold" font-size="18.00" fill="#000000">public.mail_resend_message</text>
<text text-anchor="start" x="671.8943" y="-280.3" font-family="Arial" font-size="14.00" fill="#000000"> </text>
<text text-anchor="start" x="675.7849" y="-280.3" font-family="Arial" font-size="14.00" fill="#666666">[BASE TABLE]</text>
<polygon fill="none" stroke="#000000" points="432,-237.5 432,-267.5 776,-267.5 776,-237.5 432,-237.5"/>
<text text-anchor="start" x="439" y="-248.9" font-family="Arial" font-size="14.00" fill="#000000">id </text>
<text text-anchor="start" x="453.7798" y="-248.9" font-family="Arial" font-size="14.00" fill="#666666">[integer]</text>
<polygon fill="none" stroke="#000000" points="432,-207.5 432,-237.5 776,-237.5 776,-207.5 432,-207.5"/>
<text text-anchor="start" x="439" y="-218.9" font-family="Arial" font-size="14.00" fill="#000000">mail_message_id </text>
<text text-anchor="start" x="551.7924" y="-218.9" font-family="Arial" font-size="14.00" fill="#666666">[integer]</text>
<polygon fill="none" stroke="#000000" points="432,-177.5 432,-207.5 776,-207.5 776,-177.5 432,-177.5"/>
<text text-anchor="start" x="439" y="-188.9" font-family="Arial" font-size="14.00" fill="#000000">create_uid </text>
<text text-anchor="start" x="508.244" y="-188.9" font-family="Arial" font-size="14.00" fill="#666666">[integer]</text>
<polygon fill="none" stroke="#000000" points="432,-147.5 432,-177.5 776,-177.5 776,-147.5 432,-147.5"/>
<text text-anchor="start" x="439" y="-158.9" font-family="Arial" font-size="14.00" fill="#000000">create_date </text>
<text text-anchor="start" x="516.8106" y="-158.9" font-family="Arial" font-size="14.00" fill="#666666">[timestamp without time zone]</text>
<polygon fill="none" stroke="#000000" points="432,-117.5 432,-147.5 776,-147.5 776,-117.5 432,-117.5"/>
<text text-anchor="start" x="439" y="-128.9" font-family="Arial" font-size="14.00" fill="#000000">write_uid </text>
<text text-anchor="start" x="498.892" y="-128.9" font-family="Arial" font-size="14.00" fill="#666666">[integer]</text>
<polygon fill="none" stroke="#000000" points="432,-87.5 432,-117.5 776,-117.5 776,-87.5 432,-87.5"/>
<text text-anchor="start" x="439" y="-98.9" font-family="Arial" font-size="14.00" fill="#000000">write_date </text>
<text text-anchor="start" x="507.4586" y="-98.9" font-family="Arial" font-size="14.00" fill="#666666">[timestamp without time zone]</text>
</g>
<!-- public.mail_message_res_partner_needaction_rel_mail_resend_message_rel&#45;&gt;public.mail_resend_message -->
<g id="edge1" class="edge">
<title>public.mail_message_res_partner_needaction_rel_mail_resend_message_rel:mail_resend_message_id&#45;&gt;public.mail_resend_message:id</title>
<path fill="none" stroke="#000000" d="M494.785,-515.9121C468.0157,-506.3724 483.3201,-456.1076 505,-427 580.091,-326.1823 700.909,-446.8177 776,-346 800.8227,-312.6729 817.5556,-252.5 776,-252.5"/>
<polygon fill="#000000" stroke="#000000" points="495.1187,-515.9639 504.3088,-521.9466 500.0593,-516.732 505,-517.5 505,-517.5 505,-517.5 500.0593,-516.732 505.6912,-513.0534 495.1187,-515.9639 495.1187,-515.9639"/>
<text text-anchor="start" x="7.4265" y="-527.5" font-family="Arial" font-size="10.00" fill="#000000">FOREIGN KEY (mail_resend_message_id) REFERENCES mail_resend_message(id) ON DELETE CASCADE</text>
</g>
<!-- public.mail_message_res_partner_needaction_rel -->
<g id="node3" class="node">
<title>public.mail_message_res_partner_needaction_rel</title>
<polygon fill="#efefef" stroke="transparent" points="881,-312.5 881,-347.5 1390,-347.5 1390,-312.5 881,-312.5"/>
<polygon fill="none" stroke="#000000" points="881,-312.5 881,-347.5 1390,-347.5 1390,-312.5 881,-312.5"/>
<text text-anchor="start" x="887.83" y="-325.3" font-family="Arial Bold" font-size="18.00" fill="#000000">public.mail_message_res_partner_needaction_rel</text>
<text text-anchor="start" x="1285.9162" y="-325.3" font-family="Arial" font-size="14.00" fill="#000000"> </text>
<text text-anchor="start" x="1289.8068" y="-325.3" font-family="Arial" font-size="14.00" fill="#666666">[BASE TABLE]</text>
<polygon fill="none" stroke="#000000" points="881,-282.5 881,-312.5 1390,-312.5 1390,-282.5 881,-282.5"/>
<text text-anchor="start" x="888" y="-293.9" font-family="Arial" font-size="14.00" fill="#000000">id </text>
<text text-anchor="start" x="902.7798" y="-293.9" font-family="Arial" font-size="14.00" fill="#666666">[integer]</text>
<polygon fill="none" stroke="#000000" points="881,-252.5 881,-282.5 1390,-282.5 1390,-252.5 881,-252.5"/>
<text text-anchor="start" x="888" y="-263.9" font-family="Arial" font-size="14.00" fill="#000000">mail_message_id </text>
<text text-anchor="start" x="1000.7924" y="-263.9" font-family="Arial" font-size="14.00" fill="#666666">[integer]</text>
<polygon fill="none" stroke="#000000" points="881,-222.5 881,-252.5 1390,-252.5 1390,-222.5 881,-222.5"/>
<text text-anchor="start" x="888" y="-233.9" font-family="Arial" font-size="14.00" fill="#000000">res_partner_id </text>
<text text-anchor="start" x="982.1304" y="-233.9" font-family="Arial" font-size="14.00" fill="#666666">[integer]</text>
<polygon fill="none" stroke="#000000" points="881,-192.5 881,-222.5 1390,-222.5 1390,-192.5 881,-192.5"/>
<text text-anchor="start" x="888" y="-203.9" font-family="Arial" font-size="14.00" fill="#000000">is_read </text>
<text text-anchor="start" x="937.7882" y="-203.9" font-family="Arial" font-size="14.00" fill="#666666">[boolean]</text>
<polygon fill="none" stroke="#000000" points="881,-162.5 881,-192.5 1390,-192.5 1390,-162.5 881,-162.5"/>
<text text-anchor="start" x="888" y="-173.9" font-family="Arial" font-size="14.00" fill="#000000">is_email </text>
<text text-anchor="start" x="943.2188" y="-173.9" font-family="Arial" font-size="14.00" fill="#666666">[boolean]</text>
<polygon fill="none" stroke="#000000" points="881,-132.5 881,-162.5 1390,-162.5 1390,-132.5 881,-132.5"/>
<text text-anchor="start" x="888" y="-143.9" font-family="Arial" font-size="14.00" fill="#000000">email_status </text>
<text text-anchor="start" x="970.4586" y="-143.9" font-family="Arial" font-size="14.00" fill="#666666">[varchar]</text>
<polygon fill="none" stroke="#000000" points="881,-102.5 881,-132.5 1390,-132.5 1390,-102.5 881,-102.5"/>
<text text-anchor="start" x="888" y="-113.9" font-family="Arial" font-size="14.00" fill="#000000">mail_id </text>
<text text-anchor="start" x="936.2188" y="-113.9" font-family="Arial" font-size="14.00" fill="#666666">[integer]</text>
<polygon fill="none" stroke="#000000" points="881,-72.5 881,-102.5 1390,-102.5 1390,-72.5 881,-72.5"/>
<text text-anchor="start" x="888" y="-83.9" font-family="Arial" font-size="14.00" fill="#000000">failure_type </text>
<text text-anchor="start" x="964.2412" y="-83.9" font-family="Arial" font-size="14.00" fill="#666666">[varchar]</text>
<polygon fill="none" stroke="#000000" points="881,-42.5 881,-72.5 1390,-72.5 1390,-42.5 881,-42.5"/>
<text text-anchor="start" x="888" y="-53.9" font-family="Arial" font-size="14.00" fill="#000000">failure_reason </text>
<text text-anchor="start" x="980.5764" y="-53.9" font-family="Arial" font-size="14.00" fill="#666666">[text]</text>
</g>
<!-- public.mail_message_res_partner_needaction_rel_mail_resend_message_rel&#45;&gt;public.mail_message_res_partner_needaction_rel -->
<g id="edge2" class="edge">
<title>public.mail_message_res_partner_needaction_rel_mail_resend_message_rel:mail_message_res_partner_needaction_rel_id&#45;&gt;public.mail_message_res_partner_needaction_rel:id</title>
<path fill="none" stroke="#000000" d="M1244.6977,-485.0197C1259.0558,-475.9161 1250.3501,-443.9903 1235,-427 1181.9912,-368.3271 934.0088,-449.6729 881,-391 853.1419,-360.1651 839.4444,-297.5 881,-297.5"/>
<polygon fill="#000000" stroke="#000000" points="1244.6882,-485.0221 1233.8849,-483.1403 1239.8441,-486.261 1235,-487.5 1235,-487.5 1235,-487.5 1239.8441,-486.261 1236.1151,-491.8597 1244.6882,-485.0221 1244.6882,-485.0221"/>
<text text-anchor="start" x="1241.7355" y="-497.5" font-family="Arial" font-size="10.00" fill="#000000">FOREIGN KEY (mail_message_res_partner_needaction_rel_id) REFERENCES mail_message_res_partner_needaction_rel(id) ON DELETE CASCADE</text>
</g>
</g>
</svg>
