<?xml version="1.0" encoding="UTF-8" standalone="no"?>
<!DOCTYPE svg PUBLIC "-//W3C//DTD SVG 1.1//EN"
 "http://www.w3.org/Graphics/SVG/1.1/DTD/svg11.dtd">
<!-- Generated by graphviz version 2.40.1 (20161225.0304)
 -->
<!-- Title: public.account_tax_pos_order_line_rel Pages: 1 -->
<svg width="1274pt" height="1012pt"
 viewBox="0.00 0.00 1274.00 1012.00" xmlns="http://www.w3.org/2000/svg" xmlns:xlink="http://www.w3.org/1999/xlink">
<g id="graph0" class="graph" transform="scale(1 1) rotate(0) translate(4 1008)">
<title>public.account_tax_pos_order_line_rel</title>
<polygon fill="#ffffff" stroke="transparent" points="-4,4 -4,-1008 1270,-1008 1270,4 -4,4"/>
<!-- public.account_tax_pos_order_line_rel -->
<g id="node1" class="node">
<title>public.account_tax_pos_order_line_rel</title>
<polygon fill="#efefef" stroke="transparent" points="436,-922.5 436,-957.5 855,-957.5 855,-922.5 436,-922.5"/>
<polygon fill="none" stroke="#000000" points="436,-922.5 436,-957.5 855,-957.5 855,-922.5 436,-922.5"/>
<text text-anchor="start" x="442.8309" y="-935.3" font-family="Arial Bold" font-size="18.00" fill="#000000">public.account_tax_pos_order_line_rel</text>
<text text-anchor="start" x="750.9153" y="-935.3" font-family="Arial" font-size="14.00" fill="#000000"> </text>
<text text-anchor="start" x="754.8059" y="-935.3" font-family="Arial" font-size="14.00" fill="#666666">[BASE TABLE]</text>
<polygon fill="none" stroke="#000000" points="436,-892.5 436,-922.5 855,-922.5 855,-892.5 436,-892.5"/>
<text text-anchor="start" x="443" y="-903.9" font-family="Arial" font-size="14.00" fill="#000000">pos_order_line_id </text>
<text text-anchor="start" x="558.1402" y="-903.9" font-family="Arial" font-size="14.00" fill="#666666">[integer]</text>
<polygon fill="none" stroke="#000000" points="436,-862.5 436,-892.5 855,-892.5 855,-862.5 436,-862.5"/>
<text text-anchor="start" x="443" y="-873.9" font-family="Arial" font-size="14.00" fill="#000000">account_tax_id </text>
<text text-anchor="start" x="541.0392" y="-873.9" font-family="Arial" font-size="14.00" fill="#666666">[integer]</text>
<polygon fill="none" stroke="#000000" stroke-width="3" points="434,-861.5 434,-959.5 856,-959.5 856,-861.5 434,-861.5"/>
</g>
<!-- public.pos_order_line -->
<g id="node2" class="node">
<title>public.pos_order_line</title>
<polygon fill="#efefef" stroke="transparent" points="314,-597.5 314,-632.5 596,-632.5 596,-597.5 314,-597.5"/>
<polygon fill="none" stroke="#000000" points="314,-597.5 314,-632.5 596,-632.5 596,-597.5 314,-597.5"/>
<text text-anchor="start" x="320.8542" y="-610.3" font-family="Arial Bold" font-size="18.00" fill="#000000">public.pos_order_line</text>
<text text-anchor="start" x="491.892" y="-610.3" font-family="Arial" font-size="14.00" fill="#000000"> </text>
<text text-anchor="start" x="495.7826" y="-610.3" font-family="Arial" font-size="14.00" fill="#666666">[BASE TABLE]</text>
<polygon fill="none" stroke="#000000" points="314,-567.5 314,-597.5 596,-597.5 596,-567.5 314,-567.5"/>
<text text-anchor="start" x="321" y="-578.9" font-family="Arial" font-size="14.00" fill="#000000">id </text>
<text text-anchor="start" x="335.7798" y="-578.9" font-family="Arial" font-size="14.00" fill="#666666">[integer]</text>
<polygon fill="none" stroke="#000000" points="314,-537.5 314,-567.5 596,-567.5 596,-537.5 314,-537.5"/>
<text text-anchor="start" x="321" y="-548.9" font-family="Arial" font-size="14.00" fill="#000000">company_id </text>
<text text-anchor="start" x="400.3534" y="-548.9" font-family="Arial" font-size="14.00" fill="#666666">[integer]</text>
<polygon fill="none" stroke="#000000" points="314,-507.5 314,-537.5 596,-537.5 596,-507.5 314,-507.5"/>
<text text-anchor="start" x="321" y="-518.9" font-family="Arial" font-size="14.00" fill="#000000">name </text>
<text text-anchor="start" x="359.899" y="-518.9" font-family="Arial" font-size="14.00" fill="#666666">[varchar]</text>
<polygon fill="none" stroke="#000000" points="314,-477.5 314,-507.5 596,-507.5 596,-477.5 314,-477.5"/>
<text text-anchor="start" x="321" y="-488.9" font-family="Arial" font-size="14.00" fill="#000000">notice </text>
<text text-anchor="start" x="362.2356" y="-488.9" font-family="Arial" font-size="14.00" fill="#666666">[varchar]</text>
<polygon fill="none" stroke="#000000" points="314,-447.5 314,-477.5 596,-477.5 596,-447.5 314,-447.5"/>
<text text-anchor="start" x="321" y="-458.9" font-family="Arial" font-size="14.00" fill="#000000">product_id </text>
<text text-anchor="start" x="390.244" y="-458.9" font-family="Arial" font-size="14.00" fill="#666666">[integer]</text>
<polygon fill="none" stroke="#000000" points="314,-417.5 314,-447.5 596,-447.5 596,-417.5 314,-417.5"/>
<text text-anchor="start" x="321" y="-428.9" font-family="Arial" font-size="14.00" fill="#000000">price_unit </text>
<text text-anchor="start" x="385.568" y="-428.9" font-family="Arial" font-size="14.00" fill="#666666">[numeric]</text>
<polygon fill="none" stroke="#000000" points="314,-387.5 314,-417.5 596,-417.5 596,-387.5 314,-387.5"/>
<text text-anchor="start" x="321" y="-398.9" font-family="Arial" font-size="14.00" fill="#000000">qty </text>
<text text-anchor="start" x="343.5638" y="-398.9" font-family="Arial" font-size="14.00" fill="#666666">[numeric]</text>
<polygon fill="none" stroke="#000000" points="314,-357.5 314,-387.5 596,-387.5 596,-357.5 314,-357.5"/>
<text text-anchor="start" x="321" y="-368.9" font-family="Arial" font-size="14.00" fill="#000000">price_subtotal </text>
<text text-anchor="start" x="412.0238" y="-368.9" font-family="Arial" font-size="14.00" fill="#666666">[numeric]</text>
<polygon fill="none" stroke="#000000" points="314,-327.5 314,-357.5 596,-357.5 596,-327.5 314,-327.5"/>
<text text-anchor="start" x="321" y="-338.9" font-family="Arial" font-size="14.00" fill="#000000">price_subtotal_incl </text>
<text text-anchor="start" x="440.8022" y="-338.9" font-family="Arial" font-size="14.00" fill="#666666">[numeric]</text>
<polygon fill="none" stroke="#000000" points="314,-297.5 314,-327.5 596,-327.5 596,-297.5 314,-297.5"/>
<text text-anchor="start" x="321" y="-308.9" font-family="Arial" font-size="14.00" fill="#000000">discount </text>
<text text-anchor="start" x="377.0182" y="-308.9" font-family="Arial" font-size="14.00" fill="#666666">[numeric]</text>
<polygon fill="none" stroke="#000000" points="314,-267.5 314,-297.5 596,-297.5 596,-267.5 314,-267.5"/>
<text text-anchor="start" x="321" y="-278.9" font-family="Arial" font-size="14.00" fill="#000000">order_id </text>
<text text-anchor="start" x="376.2314" y="-278.9" font-family="Arial" font-size="14.00" fill="#666666">[integer]</text>
<polygon fill="none" stroke="#000000" points="314,-237.5 314,-267.5 596,-267.5 596,-237.5 314,-237.5"/>
<text text-anchor="start" x="321" y="-248.9" font-family="Arial" font-size="14.00" fill="#000000">create_uid </text>
<text text-anchor="start" x="390.244" y="-248.9" font-family="Arial" font-size="14.00" fill="#666666">[integer]</text>
<polygon fill="none" stroke="#000000" points="314,-207.5 314,-237.5 596,-237.5 596,-207.5 314,-207.5"/>
<text text-anchor="start" x="321" y="-218.9" font-family="Arial" font-size="14.00" fill="#000000">create_date </text>
<text text-anchor="start" x="398.8106" y="-218.9" font-family="Arial" font-size="14.00" fill="#666666">[timestamp without time zone]</text>
<polygon fill="none" stroke="#000000" points="314,-177.5 314,-207.5 596,-207.5 596,-177.5 314,-177.5"/>
<text text-anchor="start" x="321" y="-188.9" font-family="Arial" font-size="14.00" fill="#000000">write_uid </text>
<text text-anchor="start" x="380.892" y="-188.9" font-family="Arial" font-size="14.00" fill="#666666">[integer]</text>
<polygon fill="none" stroke="#000000" points="314,-147.5 314,-177.5 596,-177.5 596,-147.5 314,-147.5"/>
<text text-anchor="start" x="321" y="-158.9" font-family="Arial" font-size="14.00" fill="#000000">write_date </text>
<text text-anchor="start" x="389.4586" y="-158.9" font-family="Arial" font-size="14.00" fill="#666666">[timestamp without time zone]</text>
</g>
<!-- public.account_tax_pos_order_line_rel&#45;&gt;public.pos_order_line -->
<g id="edge1" class="edge">
<title>public.account_tax_pos_order_line_rel:pos_order_line_id&#45;&gt;public.pos_order_line:id</title>
<path fill="none" stroke="#000000" d="M425.9779,-906.0257C400.3323,-897.1477 421.061,-850.0772 436,-817 475.0137,-730.6181 556.9863,-762.3819 596,-676 613.1046,-638.1279 637.5556,-582.5 596,-582.5"/>
<polygon fill="#000000" stroke="#000000" points="426.1065,-906.0445 435.345,-911.9521 431.0532,-906.7723 436,-907.5 436,-907.5 436,-907.5 431.0532,-906.7723 436.655,-903.0479 426.1065,-906.0445 426.1065,-906.0445"/>
<text text-anchor="start" x="6.8735" y="-917.5" font-family="Arial" font-size="10.00" fill="#000000">FOREIGN KEY (pos_order_line_id) REFERENCES pos_order_line(id) ON DELETE CASCADE</text>
</g>
<!-- public.account_tax -->
<g id="node3" class="node">
<title>public.account_tax</title>
<polygon fill="#efefef" stroke="transparent" points="700,-702.5 700,-737.5 976,-737.5 976,-702.5 700,-702.5"/>
<polygon fill="none" stroke="#000000" points="700,-702.5 700,-737.5 976,-737.5 976,-702.5 700,-702.5"/>
<text text-anchor="start" x="714.8477" y="-715.3" font-family="Arial Bold" font-size="18.00" fill="#000000">public.account_tax</text>
<text text-anchor="start" x="863.8985" y="-715.3" font-family="Arial" font-size="14.00" fill="#000000"> </text>
<text text-anchor="start" x="867.7891" y="-715.3" font-family="Arial" font-size="14.00" fill="#666666">[BASE TABLE]</text>
<polygon fill="none" stroke="#000000" points="700,-672.5 700,-702.5 976,-702.5 976,-672.5 700,-672.5"/>
<text text-anchor="start" x="707" y="-683.9" font-family="Arial" font-size="14.00" fill="#000000">id </text>
<text text-anchor="start" x="721.7798" y="-683.9" font-family="Arial" font-size="14.00" fill="#666666">[integer]</text>
<polygon fill="none" stroke="#000000" points="700,-642.5 700,-672.5 976,-672.5 976,-642.5 700,-642.5"/>
<text text-anchor="start" x="707" y="-653.9" font-family="Arial" font-size="14.00" fill="#000000">name </text>
<text text-anchor="start" x="745.899" y="-653.9" font-family="Arial" font-size="14.00" fill="#666666">[varchar]</text>
<polygon fill="none" stroke="#000000" points="700,-612.5 700,-642.5 976,-642.5 976,-612.5 700,-612.5"/>
<text text-anchor="start" x="707" y="-623.9" font-family="Arial" font-size="14.00" fill="#000000">type_tax_use </text>
<text text-anchor="start" x="794.15" y="-623.9" font-family="Arial" font-size="14.00" fill="#666666">[varchar]</text>
<polygon fill="none" stroke="#000000" points="700,-582.5 700,-612.5 976,-612.5 976,-582.5 700,-582.5"/>
<text text-anchor="start" x="707" y="-593.9" font-family="Arial" font-size="14.00" fill="#000000">amount_type </text>
<text text-anchor="start" x="791.8106" y="-593.9" font-family="Arial" font-size="14.00" fill="#666666">[varchar]</text>
<polygon fill="none" stroke="#000000" points="700,-552.5 700,-582.5 976,-582.5 976,-552.5 700,-552.5"/>
<text text-anchor="start" x="707" y="-563.9" font-family="Arial" font-size="14.00" fill="#000000">active </text>
<text text-anchor="start" x="747.453" y="-563.9" font-family="Arial" font-size="14.00" fill="#666666">[boolean]</text>
<polygon fill="none" stroke="#000000" points="700,-522.5 700,-552.5 976,-552.5 976,-522.5 700,-522.5"/>
<text text-anchor="start" x="707" y="-533.9" font-family="Arial" font-size="14.00" fill="#000000">company_id </text>
<text text-anchor="start" x="786.3534" y="-533.9" font-family="Arial" font-size="14.00" fill="#666666">[integer]</text>
<polygon fill="none" stroke="#000000" points="700,-492.5 700,-522.5 976,-522.5 976,-492.5 700,-492.5"/>
<text text-anchor="start" x="707" y="-503.9" font-family="Arial" font-size="14.00" fill="#000000">sequence </text>
<text text-anchor="start" x="771.5862" y="-503.9" font-family="Arial" font-size="14.00" fill="#666666">[integer]</text>
<polygon fill="none" stroke="#000000" points="700,-462.5 700,-492.5 976,-492.5 976,-462.5 700,-462.5"/>
<text text-anchor="start" x="707" y="-473.9" font-family="Arial" font-size="14.00" fill="#000000">amount </text>
<text text-anchor="start" x="757.5722" y="-473.9" font-family="Arial" font-size="14.00" fill="#666666">[numeric]</text>
<polygon fill="none" stroke="#000000" points="700,-432.5 700,-462.5 976,-462.5 976,-432.5 700,-432.5"/>
<text text-anchor="start" x="707" y="-443.9" font-family="Arial" font-size="14.00" fill="#000000">account_id </text>
<text text-anchor="start" x="778.5834" y="-443.9" font-family="Arial" font-size="14.00" fill="#666666">[integer]</text>
<polygon fill="none" stroke="#000000" points="700,-402.5 700,-432.5 976,-432.5 976,-402.5 700,-402.5"/>
<text text-anchor="start" x="707" y="-413.9" font-family="Arial" font-size="14.00" fill="#000000">refund_account_id </text>
<text text-anchor="start" x="826.0476" y="-413.9" font-family="Arial" font-size="14.00" fill="#666666">[integer]</text>
<polygon fill="none" stroke="#000000" points="700,-372.5 700,-402.5 976,-402.5 976,-372.5 700,-372.5"/>
<text text-anchor="start" x="707" y="-383.9" font-family="Arial" font-size="14.00" fill="#000000">description </text>
<text text-anchor="start" x="778.568" y="-383.9" font-family="Arial" font-size="14.00" fill="#666666">[varchar]</text>
<polygon fill="none" stroke="#000000" points="700,-342.5 700,-372.5 976,-372.5 976,-342.5 700,-342.5"/>
<text text-anchor="start" x="707" y="-353.9" font-family="Arial" font-size="14.00" fill="#000000">price_include </text>
<text text-anchor="start" x="793.3492" y="-353.9" font-family="Arial" font-size="14.00" fill="#666666">[boolean]</text>
<polygon fill="none" stroke="#000000" points="700,-312.5 700,-342.5 976,-342.5 976,-312.5 700,-312.5"/>
<text text-anchor="start" x="707" y="-323.9" font-family="Arial" font-size="14.00" fill="#000000">include_base_amount </text>
<text text-anchor="start" x="847.8288" y="-323.9" font-family="Arial" font-size="14.00" fill="#666666">[boolean]</text>
<polygon fill="none" stroke="#000000" points="700,-282.5 700,-312.5 976,-312.5 976,-282.5 700,-282.5"/>
<text text-anchor="start" x="707" y="-293.9" font-family="Arial" font-size="14.00" fill="#000000">analytic </text>
<text text-anchor="start" x="758.3422" y="-293.9" font-family="Arial" font-size="14.00" fill="#666666">[boolean]</text>
<polygon fill="none" stroke="#000000" points="700,-252.5 700,-282.5 976,-282.5 976,-252.5 700,-252.5"/>
<text text-anchor="start" x="707" y="-263.9" font-family="Arial" font-size="14.00" fill="#000000">tax_group_id </text>
<text text-anchor="start" x="791.8092" y="-263.9" font-family="Arial" font-size="14.00" fill="#666666">[integer]</text>
<polygon fill="none" stroke="#000000" points="700,-222.5 700,-252.5 976,-252.5 976,-222.5 700,-222.5"/>
<text text-anchor="start" x="707" y="-233.9" font-family="Arial" font-size="14.00" fill="#000000">tax_exigibility </text>
<text text-anchor="start" x="794.1178" y="-233.9" font-family="Arial" font-size="14.00" fill="#666666">[varchar]</text>
<polygon fill="none" stroke="#000000" points="700,-192.5 700,-222.5 976,-222.5 976,-192.5 700,-192.5"/>
<text text-anchor="start" x="707" y="-203.9" font-family="Arial" font-size="14.00" fill="#000000">cash_basis_account_id </text>
<text text-anchor="start" x="856.3856" y="-203.9" font-family="Arial" font-size="14.00" fill="#666666">[integer]</text>
<polygon fill="none" stroke="#000000" points="700,-162.5 700,-192.5 976,-192.5 976,-162.5 700,-162.5"/>
<text text-anchor="start" x="707" y="-173.9" font-family="Arial" font-size="14.00" fill="#000000">cash_basis_base_account_id </text>
<text text-anchor="start" x="894.516" y="-173.9" font-family="Arial" font-size="14.00" fill="#666666">[integer]</text>
<polygon fill="none" stroke="#000000" points="700,-132.5 700,-162.5 976,-162.5 976,-132.5 700,-132.5"/>
<text text-anchor="start" x="707" y="-143.9" font-family="Arial" font-size="14.00" fill="#000000">create_uid </text>
<text text-anchor="start" x="776.244" y="-143.9" font-family="Arial" font-size="14.00" fill="#666666">[integer]</text>
<polygon fill="none" stroke="#000000" points="700,-102.5 700,-132.5 976,-132.5 976,-102.5 700,-102.5"/>
<text text-anchor="start" x="706.5246" y="-113.9" font-family="Arial" font-size="14.00" fill="#000000">create_date </text>
<text text-anchor="start" x="784.3352" y="-113.9" font-family="Arial" font-size="14.00" fill="#666666">[timestamp without time zone]</text>
<polygon fill="none" stroke="#000000" points="700,-72.5 700,-102.5 976,-102.5 976,-72.5 700,-72.5"/>
<text text-anchor="start" x="707" y="-83.9" font-family="Arial" font-size="14.00" fill="#000000">write_uid </text>
<text text-anchor="start" x="766.892" y="-83.9" font-family="Arial" font-size="14.00" fill="#666666">[integer]</text>
<polygon fill="none" stroke="#000000" points="700,-42.5 700,-72.5 976,-72.5 976,-42.5 700,-42.5"/>
<text text-anchor="start" x="707" y="-53.9" font-family="Arial" font-size="14.00" fill="#000000">write_date </text>
<text text-anchor="start" x="775.4586" y="-53.9" font-family="Arial" font-size="14.00" fill="#666666">[timestamp without time zone]</text>
</g>
<!-- public.account_tax_pos_order_line_rel&#45;&gt;public.account_tax -->
<g id="edge2" class="edge">
<title>public.account_tax_pos_order_line_rel:account_tax_id&#45;&gt;public.account_tax:id</title>
<path fill="none" stroke="#000000" d="M865.0066,-874.8316C878.5524,-865.6223 869.1116,-834.7647 855,-817 811.0107,-761.6229 743.9893,-836.3771 700,-781 674.1525,-748.4612 658.4444,-687.5 700,-687.5"/>
<polygon fill="#000000" stroke="#000000" points="864.6624,-874.9233 853.8405,-873.1519 859.8312,-876.2116 855,-877.5 855,-877.5 855,-877.5 859.8312,-876.2116 856.1595,-881.8481 864.6624,-874.9233 864.6624,-874.9233"/>
<text text-anchor="start" x="862.0885" y="-887.5" font-family="Arial" font-size="10.00" fill="#000000">FOREIGN KEY (account_tax_id) REFERENCES account_tax(id) ON DELETE CASCADE</text>
</g>
</g>
</svg>
