<?xml version="1.0" encoding="UTF-8" standalone="no"?>
<!DOCTYPE svg PUBLIC "-//W3C//DTD SVG 1.1//EN"
 "http://www.w3.org/Graphics/SVG/1.1/DTD/svg11.dtd">
<!-- Generated by graphviz version 2.40.1 (20161225.0304)
 -->
<!-- Title: public.account_group Pages: 1 -->
<svg width="994pt" height="1889pt"
 viewBox="0.00 0.00 994.00 1889.00" xmlns="http://www.w3.org/2000/svg" xmlns:xlink="http://www.w3.org/1999/xlink">
<g id="graph0" class="graph" transform="scale(1 1) rotate(0) translate(4 1885)">
<title>public.account_group</title>
<polygon fill="#ffffff" stroke="transparent" points="-4,4 -4,-1885 990,-1885 990,4 -4,4"/>
<!-- public.account_group -->
<g id="node1" class="node">
<title>public.account_group</title>
<polygon fill="#efefef" stroke="transparent" points="324,-1132.5 324,-1167.5 606,-1167.5 606,-1132.5 324,-1132.5"/>
<polygon fill="none" stroke="#000000" points="324,-1132.5 324,-1167.5 606,-1167.5 606,-1132.5 324,-1132.5"/>
<text text-anchor="start" x="330.8434" y="-1145.3" font-family="Arial Bold" font-size="18.00" fill="#000000">public.account_group</text>
<text text-anchor="start" x="501.9028" y="-1145.3" font-family="Arial" font-size="14.00" fill="#000000"> </text>
<text text-anchor="start" x="505.7934" y="-1145.3" font-family="Arial" font-size="14.00" fill="#666666">[BASE TABLE]</text>
<polygon fill="none" stroke="#000000" points="324,-1102.5 324,-1132.5 606,-1132.5 606,-1102.5 324,-1102.5"/>
<text text-anchor="start" x="331" y="-1113.9" font-family="Arial" font-size="14.00" fill="#000000">id </text>
<text text-anchor="start" x="345.7798" y="-1113.9" font-family="Arial" font-size="14.00" fill="#666666">[integer]</text>
<polygon fill="none" stroke="#000000" points="324,-1072.5 324,-1102.5 606,-1102.5 606,-1072.5 324,-1072.5"/>
<text text-anchor="start" x="331" y="-1083.9" font-family="Arial" font-size="14.00" fill="#000000">parent_path </text>
<text text-anchor="start" x="409.5932" y="-1083.9" font-family="Arial" font-size="14.00" fill="#666666">[varchar]</text>
<polygon fill="none" stroke="#000000" points="324,-1042.5 324,-1072.5 606,-1072.5 606,-1042.5 324,-1042.5"/>
<text text-anchor="start" x="331" y="-1053.9" font-family="Arial" font-size="14.00" fill="#000000">parent_id </text>
<text text-anchor="start" x="393.244" y="-1053.9" font-family="Arial" font-size="14.00" fill="#666666">[integer]</text>
<polygon fill="none" stroke="#000000" points="324,-1012.5 324,-1042.5 606,-1042.5 606,-1012.5 324,-1012.5"/>
<text text-anchor="start" x="331" y="-1023.9" font-family="Arial" font-size="14.00" fill="#000000">name </text>
<text text-anchor="start" x="369.899" y="-1023.9" font-family="Arial" font-size="14.00" fill="#666666">[varchar]</text>
<polygon fill="none" stroke="#000000" points="324,-982.5 324,-1012.5 606,-1012.5 606,-982.5 324,-982.5"/>
<text text-anchor="start" x="331" y="-993.9" font-family="Arial" font-size="14.00" fill="#000000">code_prefix </text>
<text text-anchor="start" x="407.244" y="-993.9" font-family="Arial" font-size="14.00" fill="#666666">[varchar]</text>
<polygon fill="none" stroke="#000000" points="324,-952.5 324,-982.5 606,-982.5 606,-952.5 324,-952.5"/>
<text text-anchor="start" x="331" y="-963.9" font-family="Arial" font-size="14.00" fill="#000000">create_uid </text>
<text text-anchor="start" x="400.244" y="-963.9" font-family="Arial" font-size="14.00" fill="#666666">[integer]</text>
<polygon fill="none" stroke="#000000" points="324,-922.5 324,-952.5 606,-952.5 606,-922.5 324,-922.5"/>
<text text-anchor="start" x="331" y="-933.9" font-family="Arial" font-size="14.00" fill="#000000">create_date </text>
<text text-anchor="start" x="408.8106" y="-933.9" font-family="Arial" font-size="14.00" fill="#666666">[timestamp without time zone]</text>
<polygon fill="none" stroke="#000000" points="324,-892.5 324,-922.5 606,-922.5 606,-892.5 324,-892.5"/>
<text text-anchor="start" x="331" y="-903.9" font-family="Arial" font-size="14.00" fill="#000000">write_uid </text>
<text text-anchor="start" x="390.892" y="-903.9" font-family="Arial" font-size="14.00" fill="#666666">[integer]</text>
<polygon fill="none" stroke="#000000" points="324,-862.5 324,-892.5 606,-892.5 606,-862.5 324,-862.5"/>
<text text-anchor="start" x="331" y="-873.9" font-family="Arial" font-size="14.00" fill="#000000">write_date </text>
<text text-anchor="start" x="399.4586" y="-873.9" font-family="Arial" font-size="14.00" fill="#666666">[timestamp without time zone]</text>
<polygon fill="none" stroke="#000000" stroke-width="3" points="322.5,-861.5 322.5,-1169.5 607.5,-1169.5 607.5,-861.5 322.5,-861.5"/>
</g>
<!-- public.account_group&#45;&gt;public.account_group -->
<g id="edge2" class="edge">
<title>public.account_group:parent_id&#45;&gt;public.account_group:id</title>
<path fill="none" stroke="#000000" d="M466.3325,-1083.0388C473.9756,-1243.0874 473.5314,-1489 465,-1489 456.29,-1489 456.0093,-1288.8829 464.1579,-1132.9242"/>
<polygon fill="#000000" stroke="#000000" points="466.3115,-1082.6121 470.3119,-1072.402 466.0644,-1077.6182 465.8174,-1072.6243 465.8174,-1072.6243 465.8174,-1072.6243 466.0644,-1077.6182 461.3229,-1072.8467 466.3115,-1082.6121 466.3115,-1082.6121"/>
<text text-anchor="start" x="74.5764" y="-1082.6243" font-family="Arial" font-size="10.00" fill="#000000">FOREIGN KEY (parent_id) REFERENCES account_group(id) ON DELETE CASCADE</text>
</g>
<!-- public.res_users -->
<g id="node4" class="node">
<title>public.res_users</title>
<polygon fill="#efefef" stroke="transparent" points="327,-702.5 327,-737.5 603,-737.5 603,-702.5 327,-702.5"/>
<polygon fill="none" stroke="#000000" points="327,-702.5 327,-737.5 603,-737.5 603,-702.5 327,-702.5"/>
<text text-anchor="start" x="350.8639" y="-715.3" font-family="Arial Bold" font-size="18.00" fill="#000000">public.res_users</text>
<text text-anchor="start" x="481.8823" y="-715.3" font-family="Arial" font-size="14.00" fill="#000000"> </text>
<text text-anchor="start" x="485.7729" y="-715.3" font-family="Arial" font-size="14.00" fill="#666666">[BASE TABLE]</text>
<polygon fill="none" stroke="#000000" points="327,-672.5 327,-702.5 603,-702.5 603,-672.5 327,-672.5"/>
<text text-anchor="start" x="334" y="-683.9" font-family="Arial" font-size="14.00" fill="#000000">id </text>
<text text-anchor="start" x="348.7798" y="-683.9" font-family="Arial" font-size="14.00" fill="#666666">[integer]</text>
<polygon fill="none" stroke="#000000" points="327,-642.5 327,-672.5 603,-672.5 603,-642.5 327,-642.5"/>
<text text-anchor="start" x="334" y="-653.9" font-family="Arial" font-size="14.00" fill="#000000">active </text>
<text text-anchor="start" x="374.453" y="-653.9" font-family="Arial" font-size="14.00" fill="#666666">[boolean]</text>
<polygon fill="none" stroke="#000000" points="327,-612.5 327,-642.5 603,-642.5 603,-612.5 327,-612.5"/>
<text text-anchor="start" x="334" y="-623.9" font-family="Arial" font-size="14.00" fill="#000000">login </text>
<text text-anchor="start" x="367.4516" y="-623.9" font-family="Arial" font-size="14.00" fill="#666666">[varchar]</text>
<polygon fill="none" stroke="#000000" points="327,-582.5 327,-612.5 603,-612.5 603,-582.5 327,-582.5"/>
<text text-anchor="start" x="334" y="-593.9" font-family="Arial" font-size="14.00" fill="#000000">password </text>
<text text-anchor="start" x="397.7882" y="-593.9" font-family="Arial" font-size="14.00" fill="#666666">[varchar]</text>
<polygon fill="none" stroke="#000000" points="327,-552.5 327,-582.5 603,-582.5 603,-552.5 327,-552.5"/>
<text text-anchor="start" x="334" y="-563.9" font-family="Arial" font-size="14.00" fill="#000000">company_id </text>
<text text-anchor="start" x="413.3534" y="-563.9" font-family="Arial" font-size="14.00" fill="#666666">[integer]</text>
<polygon fill="none" stroke="#000000" points="327,-522.5 327,-552.5 603,-552.5 603,-522.5 327,-522.5"/>
<text text-anchor="start" x="334" y="-533.9" font-family="Arial" font-size="14.00" fill="#000000">partner_id </text>
<text text-anchor="start" x="400.9046" y="-533.9" font-family="Arial" font-size="14.00" fill="#666666">[integer]</text>
<polygon fill="none" stroke="#000000" points="327,-492.5 327,-522.5 603,-522.5 603,-492.5 327,-492.5"/>
<text text-anchor="start" x="333.5246" y="-503.9" font-family="Arial" font-size="14.00" fill="#000000">create_date </text>
<text text-anchor="start" x="411.3352" y="-503.9" font-family="Arial" font-size="14.00" fill="#666666">[timestamp without time zone]</text>
<polygon fill="none" stroke="#000000" points="327,-462.5 327,-492.5 603,-492.5 603,-462.5 327,-462.5"/>
<text text-anchor="start" x="334" y="-473.9" font-family="Arial" font-size="14.00" fill="#000000">signature </text>
<text text-anchor="start" x="395.4614" y="-473.9" font-family="Arial" font-size="14.00" fill="#666666">[text]</text>
<polygon fill="none" stroke="#000000" points="327,-432.5 327,-462.5 603,-462.5 603,-432.5 327,-432.5"/>
<text text-anchor="start" x="334" y="-443.9" font-family="Arial" font-size="14.00" fill="#000000">action_id </text>
<text text-anchor="start" x="393.9074" y="-443.9" font-family="Arial" font-size="14.00" fill="#666666">[integer]</text>
<polygon fill="none" stroke="#000000" points="327,-402.5 327,-432.5 603,-432.5 603,-402.5 327,-402.5"/>
<text text-anchor="start" x="334" y="-413.9" font-family="Arial" font-size="14.00" fill="#000000">share </text>
<text text-anchor="start" x="372.899" y="-413.9" font-family="Arial" font-size="14.00" fill="#666666">[boolean]</text>
<polygon fill="none" stroke="#000000" points="327,-372.5 327,-402.5 603,-402.5 603,-372.5 327,-372.5"/>
<text text-anchor="start" x="334" y="-383.9" font-family="Arial" font-size="14.00" fill="#000000">create_uid </text>
<text text-anchor="start" x="403.244" y="-383.9" font-family="Arial" font-size="14.00" fill="#666666">[integer]</text>
<polygon fill="none" stroke="#000000" points="327,-342.5 327,-372.5 603,-372.5 603,-342.5 327,-342.5"/>
<text text-anchor="start" x="334" y="-353.9" font-family="Arial" font-size="14.00" fill="#000000">write_uid </text>
<text text-anchor="start" x="393.892" y="-353.9" font-family="Arial" font-size="14.00" fill="#666666">[integer]</text>
<polygon fill="none" stroke="#000000" points="327,-312.5 327,-342.5 603,-342.5 603,-312.5 327,-312.5"/>
<text text-anchor="start" x="334" y="-323.9" font-family="Arial" font-size="14.00" fill="#000000">write_date </text>
<text text-anchor="start" x="402.4586" y="-323.9" font-family="Arial" font-size="14.00" fill="#666666">[timestamp without time zone]</text>
<polygon fill="none" stroke="#000000" points="327,-282.5 327,-312.5 603,-312.5 603,-282.5 327,-282.5"/>
<text text-anchor="start" x="334" y="-293.9" font-family="Arial" font-size="14.00" fill="#000000">alias_id </text>
<text text-anchor="start" x="385.3408" y="-293.9" font-family="Arial" font-size="14.00" fill="#666666">[integer]</text>
<polygon fill="none" stroke="#000000" points="327,-252.5 327,-282.5 603,-282.5 603,-252.5 327,-252.5"/>
<text text-anchor="start" x="334" y="-263.9" font-family="Arial" font-size="14.00" fill="#000000">notification_type </text>
<text text-anchor="start" x="439.0336" y="-263.9" font-family="Arial" font-size="14.00" fill="#666666">[varchar]</text>
<polygon fill="none" stroke="#000000" points="327,-222.5 327,-252.5 603,-252.5 603,-222.5 327,-222.5"/>
<text text-anchor="start" x="334" y="-233.9" font-family="Arial" font-size="14.00" fill="#000000">odoobot_state </text>
<text text-anchor="start" x="426.6058" y="-233.9" font-family="Arial" font-size="14.00" fill="#666666">[varchar]</text>
<polygon fill="none" stroke="#000000" points="327,-192.5 327,-222.5 603,-222.5 603,-192.5 327,-192.5"/>
<text text-anchor="start" x="334" y="-203.9" font-family="Arial" font-size="14.00" fill="#000000">sale_team_id </text>
<text text-anchor="start" x="421.1332" y="-203.9" font-family="Arial" font-size="14.00" fill="#666666">[integer]</text>
<polygon fill="none" stroke="#000000" points="327,-162.5 327,-192.5 603,-192.5 603,-162.5 327,-162.5"/>
<text text-anchor="start" x="334" y="-173.9" font-family="Arial" font-size="14.00" fill="#000000">target_sales_won </text>
<text text-anchor="start" x="447.589" y="-173.9" font-family="Arial" font-size="14.00" fill="#666666">[integer]</text>
<polygon fill="none" stroke="#000000" points="327,-132.5 327,-162.5 603,-162.5 603,-132.5 327,-132.5"/>
<text text-anchor="start" x="334" y="-143.9" font-family="Arial" font-size="14.00" fill="#000000">target_sales_done </text>
<text text-anchor="start" x="453.0476" y="-143.9" font-family="Arial" font-size="14.00" fill="#666666">[integer]</text>
<polygon fill="none" stroke="#000000" points="327,-102.5 327,-132.5 603,-132.5 603,-102.5 327,-102.5"/>
<text text-anchor="start" x="334" y="-113.9" font-family="Arial" font-size="14.00" fill="#000000">website_id </text>
<text text-anchor="start" x="404.014" y="-113.9" font-family="Arial" font-size="14.00" fill="#666666">[integer]</text>
<polygon fill="none" stroke="#000000" points="327,-72.5 327,-102.5 603,-102.5 603,-72.5 327,-72.5"/>
<text text-anchor="start" x="334" y="-83.9" font-family="Arial" font-size="14.00" fill="#000000">target_sales_invoiced </text>
<text text-anchor="start" x="473.2608" y="-83.9" font-family="Arial" font-size="14.00" fill="#666666">[integer]</text>
<polygon fill="none" stroke="#000000" points="327,-42.5 327,-72.5 603,-72.5 603,-42.5 327,-42.5"/>
<text text-anchor="start" x="334" y="-53.9" font-family="Arial" font-size="14.00" fill="#000000">pos_security_pin </text>
<text text-anchor="start" x="442.9158" y="-53.9" font-family="Arial" font-size="14.00" fill="#666666">[varchar(32)]</text>
</g>
<!-- public.account_group&#45;&gt;public.res_users -->
<g id="edge4" class="edge">
<title>public.account_group:create_uid&#45;&gt;public.res_users:id</title>
<path fill="none" stroke="#000000" d="M616.267,-966.839C730.1843,-951.8652 723.9271,-687.5 603,-687.5"/>
<polygon fill="#000000" stroke="#000000" points="615.9793,-966.8574 605.7108,-963.0093 610.9897,-967.1787 606,-967.5 606,-967.5 606,-967.5 610.9897,-967.1787 606.2892,-971.9907 615.9793,-966.8574 615.9793,-966.8574"/>
<text text-anchor="start" x="612.657" y="-977.5" font-family="Arial" font-size="10.00" fill="#000000">FOREIGN KEY (create_uid) REFERENCES res_users(id) ON DELETE SET NULL</text>
</g>
<!-- public.account_group&#45;&gt;public.res_users -->
<g id="edge5" class="edge">
<title>public.account_group:write_uid&#45;&gt;public.res_users:id</title>
<path fill="none" stroke="#000000" d="M616.2055,-906.6591C703.4463,-891.8888 697.2536,-687.5 603,-687.5"/>
<polygon fill="#000000" stroke="#000000" points="615.9662,-906.6787 605.6304,-903.0152 610.9831,-907.0893 606,-907.5 606,-907.5 606,-907.5 610.9831,-907.0893 606.3696,-911.9848 615.9662,-906.6787 615.9662,-906.6787"/>
<text text-anchor="start" x="612.997" y="-917.5" font-family="Arial" font-size="10.00" fill="#000000">FOREIGN KEY (write_uid) REFERENCES res_users(id) ON DELETE SET NULL</text>
</g>
<!-- public.account_account -->
<g id="node2" class="node">
<title>public.account_account</title>
<polygon fill="#efefef" stroke="transparent" points="43,-1802.5 43,-1837.5 411,-1837.5 411,-1802.5 43,-1802.5"/>
<polygon fill="none" stroke="#000000" points="43,-1802.5 43,-1837.5 411,-1837.5 411,-1802.5 43,-1802.5"/>
<text text-anchor="start" x="84.3384" y="-1815.3" font-family="Arial Bold" font-size="18.00" fill="#000000">public.account_account</text>
<text text-anchor="start" x="272.4078" y="-1815.3" font-family="Arial" font-size="14.00" fill="#000000"> </text>
<text text-anchor="start" x="276.2984" y="-1815.3" font-family="Arial" font-size="14.00" fill="#666666">[BASE TABLE]</text>
<polygon fill="none" stroke="#000000" points="43,-1772.5 43,-1802.5 411,-1802.5 411,-1772.5 43,-1772.5"/>
<text text-anchor="start" x="50" y="-1783.9" font-family="Arial" font-size="14.00" fill="#000000">id </text>
<text text-anchor="start" x="64.7798" y="-1783.9" font-family="Arial" font-size="14.00" fill="#666666">[integer]</text>
<polygon fill="none" stroke="#000000" points="43,-1742.5 43,-1772.5 411,-1772.5 411,-1742.5 43,-1742.5"/>
<text text-anchor="start" x="50" y="-1753.9" font-family="Arial" font-size="14.00" fill="#000000">name </text>
<text text-anchor="start" x="88.899" y="-1753.9" font-family="Arial" font-size="14.00" fill="#666666">[varchar]</text>
<polygon fill="none" stroke="#000000" points="43,-1712.5 43,-1742.5 411,-1742.5 411,-1712.5 43,-1712.5"/>
<text text-anchor="start" x="50" y="-1723.9" font-family="Arial" font-size="14.00" fill="#000000">currency_id </text>
<text text-anchor="start" x="126.2314" y="-1723.9" font-family="Arial" font-size="14.00" fill="#666666">[integer]</text>
<polygon fill="none" stroke="#000000" points="43,-1682.5 43,-1712.5 411,-1712.5 411,-1682.5 43,-1682.5"/>
<text text-anchor="start" x="50" y="-1693.9" font-family="Arial" font-size="14.00" fill="#000000">code </text>
<text text-anchor="start" x="84.2384" y="-1693.9" font-family="Arial" font-size="14.00" fill="#666666">[varchar(64)]</text>
<polygon fill="none" stroke="#000000" points="43,-1652.5 43,-1682.5 411,-1682.5 411,-1652.5 43,-1652.5"/>
<text text-anchor="start" x="50" y="-1663.9" font-family="Arial" font-size="14.00" fill="#000000">deprecated </text>
<text text-anchor="start" x="123.92" y="-1663.9" font-family="Arial" font-size="14.00" fill="#666666">[boolean]</text>
<polygon fill="none" stroke="#000000" points="43,-1622.5 43,-1652.5 411,-1652.5 411,-1622.5 43,-1622.5"/>
<text text-anchor="start" x="50" y="-1633.9" font-family="Arial" font-size="14.00" fill="#000000">user_type_id </text>
<text text-anchor="start" x="134.0266" y="-1633.9" font-family="Arial" font-size="14.00" fill="#666666">[integer]</text>
<polygon fill="none" stroke="#000000" points="43,-1592.5 43,-1622.5 411,-1622.5 411,-1592.5 43,-1592.5"/>
<text text-anchor="start" x="50" y="-1603.9" font-family="Arial" font-size="14.00" fill="#000000">internal_type </text>
<text text-anchor="start" x="134.0238" y="-1603.9" font-family="Arial" font-size="14.00" fill="#666666">[varchar]</text>
<polygon fill="none" stroke="#000000" points="43,-1562.5 43,-1592.5 411,-1592.5 411,-1562.5 43,-1562.5"/>
<text text-anchor="start" x="50" y="-1573.9" font-family="Arial" font-size="14.00" fill="#000000">internal_group </text>
<text text-anchor="start" x="143.359" y="-1573.9" font-family="Arial" font-size="14.00" fill="#666666">[varchar]</text>
<polygon fill="none" stroke="#000000" points="43,-1532.5 43,-1562.5 411,-1562.5 411,-1532.5 43,-1532.5"/>
<text text-anchor="start" x="49.6326" y="-1543.9" font-family="Arial" font-size="14.00" fill="#000000">last_time_entries_checked </text>
<text text-anchor="start" x="219.2272" y="-1543.9" font-family="Arial" font-size="14.00" fill="#666666">[timestamp without time zone]</text>
<polygon fill="none" stroke="#000000" points="43,-1502.5 43,-1532.5 411,-1532.5 411,-1502.5 43,-1502.5"/>
<text text-anchor="start" x="50" y="-1513.9" font-family="Arial" font-size="14.00" fill="#000000">reconcile </text>
<text text-anchor="start" x="109.8948" y="-1513.9" font-family="Arial" font-size="14.00" fill="#666666">[boolean]</text>
<polygon fill="none" stroke="#000000" points="43,-1472.5 43,-1502.5 411,-1502.5 411,-1472.5 43,-1472.5"/>
<text text-anchor="start" x="50" y="-1483.9" font-family="Arial" font-size="14.00" fill="#000000">note </text>
<text text-anchor="start" x="81.129" y="-1483.9" font-family="Arial" font-size="14.00" fill="#666666">[text]</text>
<polygon fill="none" stroke="#000000" points="43,-1442.5 43,-1472.5 411,-1472.5 411,-1442.5 43,-1442.5"/>
<text text-anchor="start" x="50" y="-1453.9" font-family="Arial" font-size="14.00" fill="#000000">company_id </text>
<text text-anchor="start" x="129.3534" y="-1453.9" font-family="Arial" font-size="14.00" fill="#666666">[integer]</text>
<polygon fill="none" stroke="#000000" points="43,-1412.5 43,-1442.5 411,-1442.5 411,-1412.5 43,-1412.5"/>
<text text-anchor="start" x="50" y="-1423.9" font-family="Arial" font-size="14.00" fill="#000000">group_id </text>
<text text-anchor="start" x="108.3534" y="-1423.9" font-family="Arial" font-size="14.00" fill="#666666">[integer]</text>
<polygon fill="none" stroke="#000000" points="43,-1382.5 43,-1412.5 411,-1412.5 411,-1382.5 43,-1382.5"/>
<text text-anchor="start" x="50" y="-1393.9" font-family="Arial" font-size="14.00" fill="#000000">create_uid </text>
<text text-anchor="start" x="119.244" y="-1393.9" font-family="Arial" font-size="14.00" fill="#666666">[integer]</text>
<polygon fill="none" stroke="#000000" points="43,-1352.5 43,-1382.5 411,-1382.5 411,-1352.5 43,-1352.5"/>
<text text-anchor="start" x="50" y="-1363.9" font-family="Arial" font-size="14.00" fill="#000000">create_date </text>
<text text-anchor="start" x="127.8106" y="-1363.9" font-family="Arial" font-size="14.00" fill="#666666">[timestamp without time zone]</text>
<polygon fill="none" stroke="#000000" points="43,-1322.5 43,-1352.5 411,-1352.5 411,-1322.5 43,-1322.5"/>
<text text-anchor="start" x="50" y="-1333.9" font-family="Arial" font-size="14.00" fill="#000000">write_uid </text>
<text text-anchor="start" x="109.892" y="-1333.9" font-family="Arial" font-size="14.00" fill="#666666">[integer]</text>
<polygon fill="none" stroke="#000000" points="43,-1292.5 43,-1322.5 411,-1322.5 411,-1292.5 43,-1292.5"/>
<text text-anchor="start" x="50" y="-1303.9" font-family="Arial" font-size="14.00" fill="#000000">write_date </text>
<text text-anchor="start" x="118.4586" y="-1303.9" font-family="Arial" font-size="14.00" fill="#666666">[timestamp without time zone]</text>
</g>
<!-- public.account_account&#45;&gt;public.account_group -->
<g id="edge1" class="edge">
<title>public.account_account:group_id&#45;&gt;public.account_group:id</title>
<path fill="none" stroke="#000000" d="M421.3535,-1426.7786C486.5837,-1417.1098 452.7851,-1312.5115 411,-1250 387.7452,-1215.2103 347.2548,-1248.7897 324,-1214 300.1658,-1178.3435 281.1111,-1117.5 324,-1117.5"/>
<polygon fill="#000000" stroke="#000000" points="420.9758,-1426.8048 410.6872,-1423.0109 415.9879,-1427.1524 411,-1427.5 411,-1427.5 411,-1427.5 415.9879,-1427.1524 411.3128,-1431.9891 420.9758,-1426.8048 420.9758,-1426.8048"/>
<text text-anchor="start" x="418.424" y="-1437.5" font-family="Arial" font-size="10.00" fill="#000000">FOREIGN KEY (group_id) REFERENCES account_group(id) ON DELETE SET NULL</text>
</g>
<!-- public.account_account_template -->
<g id="node3" class="node">
<title>public.account_account_template</title>
<polygon fill="#efefef" stroke="transparent" points="515,-1757.5 515,-1792.5 893,-1792.5 893,-1757.5 515,-1757.5"/>
<polygon fill="none" stroke="#000000" points="515,-1757.5 515,-1792.5 893,-1792.5 893,-1757.5 515,-1757.5"/>
<text text-anchor="start" x="521.8275" y="-1770.3" font-family="Arial Bold" font-size="18.00" fill="#000000">public.account_account_template</text>
<text text-anchor="start" x="788.9187" y="-1770.3" font-family="Arial" font-size="14.00" fill="#000000"> </text>
<text text-anchor="start" x="792.8093" y="-1770.3" font-family="Arial" font-size="14.00" fill="#666666">[BASE TABLE]</text>
<polygon fill="none" stroke="#000000" points="515,-1727.5 515,-1757.5 893,-1757.5 893,-1727.5 515,-1727.5"/>
<text text-anchor="start" x="522" y="-1738.9" font-family="Arial" font-size="14.00" fill="#000000">id </text>
<text text-anchor="start" x="536.7798" y="-1738.9" font-family="Arial" font-size="14.00" fill="#666666">[integer]</text>
<polygon fill="none" stroke="#000000" points="515,-1697.5 515,-1727.5 893,-1727.5 893,-1697.5 515,-1697.5"/>
<text text-anchor="start" x="522" y="-1708.9" font-family="Arial" font-size="14.00" fill="#000000">name </text>
<text text-anchor="start" x="560.899" y="-1708.9" font-family="Arial" font-size="14.00" fill="#666666">[varchar]</text>
<polygon fill="none" stroke="#000000" points="515,-1667.5 515,-1697.5 893,-1697.5 893,-1667.5 515,-1667.5"/>
<text text-anchor="start" x="522" y="-1678.9" font-family="Arial" font-size="14.00" fill="#000000">currency_id </text>
<text text-anchor="start" x="598.2314" y="-1678.9" font-family="Arial" font-size="14.00" fill="#666666">[integer]</text>
<polygon fill="none" stroke="#000000" points="515,-1637.5 515,-1667.5 893,-1667.5 893,-1637.5 515,-1637.5"/>
<text text-anchor="start" x="522" y="-1648.9" font-family="Arial" font-size="14.00" fill="#000000">code </text>
<text text-anchor="start" x="556.2384" y="-1648.9" font-family="Arial" font-size="14.00" fill="#666666">[varchar(64)]</text>
<polygon fill="none" stroke="#000000" points="515,-1607.5 515,-1637.5 893,-1637.5 893,-1607.5 515,-1607.5"/>
<text text-anchor="start" x="522" y="-1618.9" font-family="Arial" font-size="14.00" fill="#000000">user_type_id </text>
<text text-anchor="start" x="606.0266" y="-1618.9" font-family="Arial" font-size="14.00" fill="#666666">[integer]</text>
<polygon fill="none" stroke="#000000" points="515,-1577.5 515,-1607.5 893,-1607.5 893,-1577.5 515,-1577.5"/>
<text text-anchor="start" x="522" y="-1588.9" font-family="Arial" font-size="14.00" fill="#000000">reconcile </text>
<text text-anchor="start" x="581.8948" y="-1588.9" font-family="Arial" font-size="14.00" fill="#666666">[boolean]</text>
<polygon fill="none" stroke="#000000" points="515,-1547.5 515,-1577.5 893,-1577.5 893,-1547.5 515,-1547.5"/>
<text text-anchor="start" x="522" y="-1558.9" font-family="Arial" font-size="14.00" fill="#000000">note </text>
<text text-anchor="start" x="553.129" y="-1558.9" font-family="Arial" font-size="14.00" fill="#666666">[text]</text>
<polygon fill="none" stroke="#000000" points="515,-1517.5 515,-1547.5 893,-1547.5 893,-1517.5 515,-1517.5"/>
<text text-anchor="start" x="522" y="-1528.9" font-family="Arial" font-size="14.00" fill="#000000">nocreate </text>
<text text-anchor="start" x="580.3548" y="-1528.9" font-family="Arial" font-size="14.00" fill="#666666">[boolean]</text>
<polygon fill="none" stroke="#000000" points="515,-1487.5 515,-1517.5 893,-1517.5 893,-1487.5 515,-1487.5"/>
<text text-anchor="start" x="522" y="-1498.9" font-family="Arial" font-size="14.00" fill="#000000">chart_template_id </text>
<text text-anchor="start" x="637.1402" y="-1498.9" font-family="Arial" font-size="14.00" fill="#666666">[integer]</text>
<polygon fill="none" stroke="#000000" points="515,-1457.5 515,-1487.5 893,-1487.5 893,-1457.5 515,-1457.5"/>
<text text-anchor="start" x="522" y="-1468.9" font-family="Arial" font-size="14.00" fill="#000000">group_id </text>
<text text-anchor="start" x="580.3534" y="-1468.9" font-family="Arial" font-size="14.00" fill="#666666">[integer]</text>
<polygon fill="none" stroke="#000000" points="515,-1427.5 515,-1457.5 893,-1457.5 893,-1427.5 515,-1427.5"/>
<text text-anchor="start" x="522" y="-1438.9" font-family="Arial" font-size="14.00" fill="#000000">create_uid </text>
<text text-anchor="start" x="591.244" y="-1438.9" font-family="Arial" font-size="14.00" fill="#666666">[integer]</text>
<polygon fill="none" stroke="#000000" points="515,-1397.5 515,-1427.5 893,-1427.5 893,-1397.5 515,-1397.5"/>
<text text-anchor="start" x="522" y="-1408.9" font-family="Arial" font-size="14.00" fill="#000000">create_date </text>
<text text-anchor="start" x="599.8106" y="-1408.9" font-family="Arial" font-size="14.00" fill="#666666">[timestamp without time zone]</text>
<polygon fill="none" stroke="#000000" points="515,-1367.5 515,-1397.5 893,-1397.5 893,-1367.5 515,-1367.5"/>
<text text-anchor="start" x="522" y="-1378.9" font-family="Arial" font-size="14.00" fill="#000000">write_uid </text>
<text text-anchor="start" x="581.892" y="-1378.9" font-family="Arial" font-size="14.00" fill="#666666">[integer]</text>
<polygon fill="none" stroke="#000000" points="515,-1337.5 515,-1367.5 893,-1367.5 893,-1337.5 515,-1337.5"/>
<text text-anchor="start" x="522" y="-1348.9" font-family="Arial" font-size="14.00" fill="#000000">write_date </text>
<text text-anchor="start" x="590.4586" y="-1348.9" font-family="Arial" font-size="14.00" fill="#666666">[timestamp without time zone]</text>
</g>
<!-- public.account_account_template&#45;&gt;public.account_group -->
<g id="edge3" class="edge">
<title>public.account_account_template:group_id&#45;&gt;public.account_group:id</title>
<path fill="none" stroke="#000000" d="M504.719,-1471.8187C440.4481,-1462.6809 484.2209,-1363.6027 515,-1295 537.1643,-1245.5986 583.8357,-1263.4014 606,-1214 623.5564,-1174.8691 648.8889,-1117.5 606,-1117.5"/>
<polygon fill="#000000" stroke="#000000" points="505.0219,-1471.8387 514.7024,-1476.9902 510.0109,-1472.1694 515,-1472.5 515,-1472.5 515,-1472.5 510.0109,-1472.1694 515.2976,-1468.0098 505.0219,-1471.8387 505.0219,-1471.8387"/>
<text text-anchor="start" x="522.424" y="-1482.5" font-family="Arial" font-size="10.00" fill="#000000">FOREIGN KEY (group_id) REFERENCES account_group(id) ON DELETE SET NULL</text>
</g>
</g>
</svg>
