<?xml version="1.0" encoding="UTF-8" standalone="no"?>
<!DOCTYPE svg PUBLIC "-//W3C//DTD SVG 1.1//EN"
 "http://www.w3.org/Graphics/SVG/1.1/DTD/svg11.dtd">
<!-- Generated by graphviz version 2.40.1 (20161225.0304)
 -->
<!-- Title: public.res_company_users_rel Pages: 1 -->
<svg width="1093pt" height="2992pt"
 viewBox="0.00 0.00 1093.00 2992.00" xmlns="http://www.w3.org/2000/svg" xmlns:xlink="http://www.w3.org/1999/xlink">
<g id="graph0" class="graph" transform="scale(1 1) rotate(0) translate(4 2988)">
<title>public.res_company_users_rel</title>
<polygon fill="#ffffff" stroke="transparent" points="-4,4 -4,-2988 1089,-2988 1089,4 -4,4"/>
<!-- public.res_company_users_rel -->
<g id="node1" class="node">
<title>public.res_company_users_rel</title>
<polygon fill="#efefef" stroke="transparent" points="363,-2902.5 363,-2937.5 718,-2937.5 718,-2902.5 363,-2902.5"/>
<polygon fill="none" stroke="#000000" points="363,-2902.5 363,-2937.5 718,-2937.5 718,-2902.5 363,-2902.5"/>
<text text-anchor="start" x="369.8529" y="-2915.3" font-family="Arial Bold" font-size="18.00" fill="#000000">public.res_company_users_rel</text>
<text text-anchor="start" x="613.8933" y="-2915.3" font-family="Arial" font-size="14.00" fill="#000000"> </text>
<text text-anchor="start" x="617.7839" y="-2915.3" font-family="Arial" font-size="14.00" fill="#666666">[BASE TABLE]</text>
<polygon fill="none" stroke="#000000" points="363,-2872.5 363,-2902.5 718,-2902.5 718,-2872.5 363,-2872.5"/>
<text text-anchor="start" x="370" y="-2883.9" font-family="Arial" font-size="14.00" fill="#000000">cid </text>
<text text-anchor="start" x="391.7798" y="-2883.9" font-family="Arial" font-size="14.00" fill="#666666">[integer]</text>
<polygon fill="none" stroke="#000000" points="363,-2842.5 363,-2872.5 718,-2872.5 718,-2842.5 363,-2842.5"/>
<text text-anchor="start" x="370" y="-2853.9" font-family="Arial" font-size="14.00" fill="#000000">user_id </text>
<text text-anchor="start" x="419.7882" y="-2853.9" font-family="Arial" font-size="14.00" fill="#666666">[integer]</text>
<polygon fill="none" stroke="#000000" stroke-width="3" points="361,-2841.5 361,-2939.5 719,-2939.5 719,-2841.5 361,-2841.5"/>
</g>
<!-- public.res_company -->
<g id="node2" class="node">
<title>public.res_company</title>
<polygon fill="#efefef" stroke="transparent" points="129,-2682.5 129,-2717.5 517,-2717.5 517,-2682.5 129,-2682.5"/>
<polygon fill="none" stroke="#000000" points="129,-2682.5 129,-2717.5 517,-2717.5 517,-2682.5 129,-2682.5"/>
<text text-anchor="start" x="194.3577" y="-2695.3" font-family="Arial Bold" font-size="18.00" fill="#000000">public.res_company</text>
<text text-anchor="start" x="354.3885" y="-2695.3" font-family="Arial" font-size="14.00" fill="#000000"> </text>
<text text-anchor="start" x="358.2791" y="-2695.3" font-family="Arial" font-size="14.00" fill="#666666">[BASE TABLE]</text>
<polygon fill="none" stroke="#000000" points="129,-2652.5 129,-2682.5 517,-2682.5 517,-2652.5 129,-2652.5"/>
<text text-anchor="start" x="136" y="-2663.9" font-family="Arial" font-size="14.00" fill="#000000">id </text>
<text text-anchor="start" x="150.7798" y="-2663.9" font-family="Arial" font-size="14.00" fill="#666666">[integer]</text>
<polygon fill="none" stroke="#000000" points="129,-2622.5 129,-2652.5 517,-2652.5 517,-2622.5 129,-2622.5"/>
<text text-anchor="start" x="136" y="-2633.9" font-family="Arial" font-size="14.00" fill="#000000">name </text>
<text text-anchor="start" x="174.899" y="-2633.9" font-family="Arial" font-size="14.00" fill="#666666">[varchar]</text>
<polygon fill="none" stroke="#000000" points="129,-2592.5 129,-2622.5 517,-2622.5 517,-2592.5 129,-2592.5"/>
<text text-anchor="start" x="136" y="-2603.9" font-family="Arial" font-size="14.00" fill="#000000">partner_id </text>
<text text-anchor="start" x="202.9046" y="-2603.9" font-family="Arial" font-size="14.00" fill="#666666">[integer]</text>
<polygon fill="none" stroke="#000000" points="129,-2562.5 129,-2592.5 517,-2592.5 517,-2562.5 129,-2562.5"/>
<text text-anchor="start" x="136" y="-2573.9" font-family="Arial" font-size="14.00" fill="#000000">currency_id </text>
<text text-anchor="start" x="212.2314" y="-2573.9" font-family="Arial" font-size="14.00" fill="#666666">[integer]</text>
<polygon fill="none" stroke="#000000" points="129,-2532.5 129,-2562.5 517,-2562.5 517,-2532.5 129,-2532.5"/>
<text text-anchor="start" x="136" y="-2543.9" font-family="Arial" font-size="14.00" fill="#000000">sequence </text>
<text text-anchor="start" x="200.5862" y="-2543.9" font-family="Arial" font-size="14.00" fill="#666666">[integer]</text>
<polygon fill="none" stroke="#000000" points="129,-2502.5 129,-2532.5 517,-2532.5 517,-2502.5 129,-2502.5"/>
<text text-anchor="start" x="136" y="-2513.9" font-family="Arial" font-size="14.00" fill="#000000">create_date </text>
<text text-anchor="start" x="213.8106" y="-2513.9" font-family="Arial" font-size="14.00" fill="#666666">[timestamp without time zone]</text>
<polygon fill="none" stroke="#000000" points="129,-2472.5 129,-2502.5 517,-2502.5 517,-2472.5 129,-2472.5"/>
<text text-anchor="start" x="136" y="-2483.9" font-family="Arial" font-size="14.00" fill="#000000">parent_id </text>
<text text-anchor="start" x="198.244" y="-2483.9" font-family="Arial" font-size="14.00" fill="#666666">[integer]</text>
<polygon fill="none" stroke="#000000" points="129,-2442.5 129,-2472.5 517,-2472.5 517,-2442.5 129,-2442.5"/>
<text text-anchor="start" x="136" y="-2453.9" font-family="Arial" font-size="14.00" fill="#000000">report_header </text>
<text text-anchor="start" x="227.8064" y="-2453.9" font-family="Arial" font-size="14.00" fill="#666666">[text]</text>
<polygon fill="none" stroke="#000000" points="129,-2412.5 129,-2442.5 517,-2442.5 517,-2412.5 129,-2412.5"/>
<text text-anchor="start" x="136" y="-2423.9" font-family="Arial" font-size="14.00" fill="#000000">report_footer </text>
<text text-anchor="start" x="220.0224" y="-2423.9" font-family="Arial" font-size="14.00" fill="#666666">[text]</text>
<polygon fill="none" stroke="#000000" points="129,-2382.5 129,-2412.5 517,-2412.5 517,-2382.5 129,-2382.5"/>
<text text-anchor="start" x="136" y="-2393.9" font-family="Arial" font-size="14.00" fill="#000000">logo_web </text>
<text text-anchor="start" x="199.7994" y="-2393.9" font-family="Arial" font-size="14.00" fill="#666666">[bytea]</text>
<polygon fill="none" stroke="#000000" points="129,-2352.5 129,-2382.5 517,-2382.5 517,-2352.5 129,-2352.5"/>
<text text-anchor="start" x="136" y="-2363.9" font-family="Arial" font-size="14.00" fill="#000000">account_no </text>
<text text-anchor="start" x="212.2594" y="-2363.9" font-family="Arial" font-size="14.00" fill="#666666">[varchar]</text>
<polygon fill="none" stroke="#000000" points="129,-2322.5 129,-2352.5 517,-2352.5 517,-2322.5 129,-2322.5"/>
<text text-anchor="start" x="136" y="-2333.9" font-family="Arial" font-size="14.00" fill="#000000">email </text>
<text text-anchor="start" x="173.3296" y="-2333.9" font-family="Arial" font-size="14.00" fill="#666666">[varchar]</text>
<polygon fill="none" stroke="#000000" points="129,-2292.5 129,-2322.5 517,-2322.5 517,-2292.5 129,-2292.5"/>
<text text-anchor="start" x="136" y="-2303.9" font-family="Arial" font-size="14.00" fill="#000000">phone </text>
<text text-anchor="start" x="178.8036" y="-2303.9" font-family="Arial" font-size="14.00" fill="#666666">[varchar]</text>
<polygon fill="none" stroke="#000000" points="129,-2262.5 129,-2292.5 517,-2292.5 517,-2262.5 129,-2262.5"/>
<text text-anchor="start" x="136" y="-2273.9" font-family="Arial" font-size="14.00" fill="#000000">company_registry </text>
<text text-anchor="start" x="250.3478" y="-2273.9" font-family="Arial" font-size="14.00" fill="#666666">[varchar]</text>
<polygon fill="none" stroke="#000000" points="129,-2232.5 129,-2262.5 517,-2262.5 517,-2232.5 129,-2232.5"/>
<text text-anchor="start" x="136" y="-2243.9" font-family="Arial" font-size="14.00" fill="#000000">paperformat_id </text>
<text text-anchor="start" x="234.021" y="-2243.9" font-family="Arial" font-size="14.00" fill="#666666">[integer]</text>
<polygon fill="none" stroke="#000000" points="129,-2202.5 129,-2232.5 517,-2232.5 517,-2202.5 129,-2202.5"/>
<text text-anchor="start" x="136" y="-2213.9" font-family="Arial" font-size="14.00" fill="#000000">external_report_layout_id </text>
<text text-anchor="start" x="297.8204" y="-2213.9" font-family="Arial" font-size="14.00" fill="#666666">[integer]</text>
<polygon fill="none" stroke="#000000" points="129,-2172.5 129,-2202.5 517,-2202.5 517,-2172.5 129,-2172.5"/>
<text text-anchor="start" x="136" y="-2183.9" font-family="Arial" font-size="14.00" fill="#000000">base_onboarding_company_state </text>
<text text-anchor="start" x="350.7516" y="-2183.9" font-family="Arial" font-size="14.00" fill="#666666">[varchar]</text>
<polygon fill="none" stroke="#000000" points="129,-2142.5 129,-2172.5 517,-2172.5 517,-2142.5 129,-2142.5"/>
<text text-anchor="start" x="136" y="-2153.9" font-family="Arial" font-size="14.00" fill="#000000">create_uid </text>
<text text-anchor="start" x="205.244" y="-2153.9" font-family="Arial" font-size="14.00" fill="#666666">[integer]</text>
<polygon fill="none" stroke="#000000" points="129,-2112.5 129,-2142.5 517,-2142.5 517,-2112.5 129,-2112.5"/>
<text text-anchor="start" x="136" y="-2123.9" font-family="Arial" font-size="14.00" fill="#000000">write_uid </text>
<text text-anchor="start" x="195.892" y="-2123.9" font-family="Arial" font-size="14.00" fill="#666666">[integer]</text>
<polygon fill="none" stroke="#000000" points="129,-2082.5 129,-2112.5 517,-2112.5 517,-2082.5 129,-2082.5"/>
<text text-anchor="start" x="136" y="-2093.9" font-family="Arial" font-size="14.00" fill="#000000">write_date </text>
<text text-anchor="start" x="204.4586" y="-2093.9" font-family="Arial" font-size="14.00" fill="#666666">[timestamp without time zone]</text>
<polygon fill="none" stroke="#000000" points="129,-2052.5 129,-2082.5 517,-2082.5 517,-2052.5 129,-2052.5"/>
<text text-anchor="start" x="136" y="-2063.9" font-family="Arial" font-size="14.00" fill="#000000">resource_calendar_id </text>
<text text-anchor="start" x="274.4768" y="-2063.9" font-family="Arial" font-size="14.00" fill="#666666">[integer]</text>
<polygon fill="none" stroke="#000000" points="129,-2022.5 129,-2052.5 517,-2052.5 517,-2022.5 129,-2022.5"/>
<text text-anchor="start" x="136" y="-2033.9" font-family="Arial" font-size="14.00" fill="#000000">partner_gid </text>
<text text-anchor="start" x="210.6872" y="-2033.9" font-family="Arial" font-size="14.00" fill="#666666">[integer]</text>
<polygon fill="none" stroke="#000000" points="129,-1992.5 129,-2022.5 517,-2022.5 517,-1992.5 129,-1992.5"/>
<text text-anchor="start" x="136" y="-2003.9" font-family="Arial" font-size="14.00" fill="#000000">snailmail_color </text>
<text text-anchor="start" x="232.4404" y="-2003.9" font-family="Arial" font-size="14.00" fill="#666666">[boolean]</text>
<polygon fill="none" stroke="#000000" points="129,-1962.5 129,-1992.5 517,-1992.5 517,-1962.5 129,-1962.5"/>
<text text-anchor="start" x="136" y="-1973.9" font-family="Arial" font-size="14.00" fill="#000000">snailmail_duplex </text>
<text text-anchor="start" x="243.345" y="-1973.9" font-family="Arial" font-size="14.00" fill="#666666">[boolean]</text>
<polygon fill="none" stroke="#000000" points="129,-1932.5 129,-1962.5 517,-1962.5 517,-1932.5 129,-1932.5"/>
<text text-anchor="start" x="136" y="-1943.9" font-family="Arial" font-size="14.00" fill="#000000">social_twitter </text>
<text text-anchor="start" x="220.7798" y="-1943.9" font-family="Arial" font-size="14.00" fill="#666666">[varchar]</text>
<polygon fill="none" stroke="#000000" points="129,-1902.5 129,-1932.5 517,-1932.5 517,-1902.5 129,-1902.5"/>
<text text-anchor="start" x="136" y="-1913.9" font-family="Arial" font-size="14.00" fill="#000000">social_facebook </text>
<text text-anchor="start" x="240.2552" y="-1913.9" font-family="Arial" font-size="14.00" fill="#666666">[varchar]</text>
<polygon fill="none" stroke="#000000" points="129,-1872.5 129,-1902.5 517,-1902.5 517,-1872.5 129,-1872.5"/>
<text text-anchor="start" x="136" y="-1883.9" font-family="Arial" font-size="14.00" fill="#000000">social_github </text>
<text text-anchor="start" x="221.5792" y="-1883.9" font-family="Arial" font-size="14.00" fill="#666666">[varchar]</text>
<polygon fill="none" stroke="#000000" points="129,-1842.5 129,-1872.5 517,-1872.5 517,-1842.5 129,-1842.5"/>
<text text-anchor="start" x="136" y="-1853.9" font-family="Arial" font-size="14.00" fill="#000000">social_linkedin </text>
<text text-anchor="start" x="230.9018" y="-1853.9" font-family="Arial" font-size="14.00" fill="#666666">[varchar]</text>
<polygon fill="none" stroke="#000000" points="129,-1812.5 129,-1842.5 517,-1842.5 517,-1812.5 129,-1812.5"/>
<text text-anchor="start" x="136" y="-1823.9" font-family="Arial" font-size="14.00" fill="#000000">social_youtube </text>
<text text-anchor="start" x="233.2552" y="-1823.9" font-family="Arial" font-size="14.00" fill="#666666">[varchar]</text>
<polygon fill="none" stroke="#000000" points="129,-1782.5 129,-1812.5 517,-1812.5 517,-1782.5 129,-1782.5"/>
<text text-anchor="start" x="136" y="-1793.9" font-family="Arial" font-size="14.00" fill="#000000">social_googleplus </text>
<text text-anchor="start" x="251.143" y="-1793.9" font-family="Arial" font-size="14.00" fill="#666666">[varchar]</text>
<polygon fill="none" stroke="#000000" points="129,-1752.5 129,-1782.5 517,-1782.5 517,-1752.5 129,-1752.5"/>
<text text-anchor="start" x="136" y="-1763.9" font-family="Arial" font-size="14.00" fill="#000000">social_instagram </text>
<text text-anchor="start" x="244.9004" y="-1763.9" font-family="Arial" font-size="14.00" fill="#666666">[varchar]</text>
<polygon fill="none" stroke="#000000" points="129,-1722.5 129,-1752.5 517,-1752.5 517,-1722.5 129,-1722.5"/>
<text text-anchor="start" x="136" y="-1733.9" font-family="Arial" font-size="14.00" fill="#000000">fiscalyear_last_day </text>
<text text-anchor="start" x="258.913" y="-1733.9" font-family="Arial" font-size="14.00" fill="#666666">[integer]</text>
<polygon fill="none" stroke="#000000" points="129,-1692.5 129,-1722.5 517,-1722.5 517,-1692.5 129,-1692.5"/>
<text text-anchor="start" x="136" y="-1703.9" font-family="Arial" font-size="14.00" fill="#000000">fiscalyear_last_month </text>
<text text-anchor="start" x="275.2468" y="-1703.9" font-family="Arial" font-size="14.00" fill="#666666">[integer]</text>
<polygon fill="none" stroke="#000000" points="129,-1662.5 129,-1692.5 517,-1692.5 517,-1662.5 129,-1662.5"/>
<text text-anchor="start" x="136" y="-1673.9" font-family="Arial" font-size="14.00" fill="#000000">period_lock_date </text>
<text text-anchor="start" x="246.481" y="-1673.9" font-family="Arial" font-size="14.00" fill="#666666">[date]</text>
<polygon fill="none" stroke="#000000" points="129,-1632.5 129,-1662.5 517,-1662.5 517,-1632.5 129,-1632.5"/>
<text text-anchor="start" x="136" y="-1643.9" font-family="Arial" font-size="14.00" fill="#000000">fiscalyear_lock_date </text>
<text text-anchor="start" x="266.6956" y="-1643.9" font-family="Arial" font-size="14.00" fill="#666666">[date]</text>
<polygon fill="none" stroke="#000000" points="129,-1602.5 129,-1632.5 517,-1632.5 517,-1602.5 129,-1602.5"/>
<text text-anchor="start" x="136" y="-1613.9" font-family="Arial" font-size="14.00" fill="#000000">transfer_account_id </text>
<text text-anchor="start" x="262.8162" y="-1613.9" font-family="Arial" font-size="14.00" fill="#666666">[integer]</text>
<polygon fill="none" stroke="#000000" points="129,-1572.5 129,-1602.5 517,-1602.5 517,-1572.5 129,-1572.5"/>
<text text-anchor="start" x="136" y="-1583.9" font-family="Arial" font-size="14.00" fill="#000000">expects_chart_of_accounts </text>
<text text-anchor="start" x="310.2874" y="-1583.9" font-family="Arial" font-size="14.00" fill="#666666">[boolean]</text>
<polygon fill="none" stroke="#000000" points="129,-1542.5 129,-1572.5 517,-1572.5 517,-1542.5 129,-1542.5"/>
<text text-anchor="start" x="136" y="-1553.9" font-family="Arial" font-size="14.00" fill="#000000">chart_template_id </text>
<text text-anchor="start" x="251.1402" y="-1553.9" font-family="Arial" font-size="14.00" fill="#666666">[integer]</text>
<polygon fill="none" stroke="#000000" points="129,-1512.5 129,-1542.5 517,-1542.5 517,-1512.5 129,-1512.5"/>
<text text-anchor="start" x="136" y="-1523.9" font-family="Arial" font-size="14.00" fill="#000000">bank_account_code_prefix </text>
<text text-anchor="start" x="307.178" y="-1523.9" font-family="Arial" font-size="14.00" fill="#666666">[varchar]</text>
<polygon fill="none" stroke="#000000" points="129,-1482.5 129,-1512.5 517,-1512.5 517,-1482.5 129,-1482.5"/>
<text text-anchor="start" x="136" y="-1493.9" font-family="Arial" font-size="14.00" fill="#000000">cash_account_code_prefix </text>
<text text-anchor="start" x="306.3954" y="-1493.9" font-family="Arial" font-size="14.00" fill="#666666">[varchar]</text>
<polygon fill="none" stroke="#000000" points="129,-1452.5 129,-1482.5 517,-1482.5 517,-1452.5 129,-1452.5"/>
<text text-anchor="start" x="136" y="-1463.9" font-family="Arial" font-size="14.00" fill="#000000">transfer_account_code_prefix </text>
<text text-anchor="start" x="324.2804" y="-1463.9" font-family="Arial" font-size="14.00" fill="#666666">[varchar]</text>
<polygon fill="none" stroke="#000000" points="129,-1422.5 129,-1452.5 517,-1452.5 517,-1422.5 129,-1422.5"/>
<text text-anchor="start" x="136" y="-1433.9" font-family="Arial" font-size="14.00" fill="#000000">account_sale_tax_id </text>
<text text-anchor="start" x="267.4936" y="-1433.9" font-family="Arial" font-size="14.00" fill="#666666">[integer]</text>
<polygon fill="none" stroke="#000000" points="129,-1392.5 129,-1422.5 517,-1422.5 517,-1392.5 129,-1392.5"/>
<text text-anchor="start" x="136" y="-1403.9" font-family="Arial" font-size="14.00" fill="#000000">account_purchase_tax_id </text>
<text text-anchor="start" x="299.3954" y="-1403.9" font-family="Arial" font-size="14.00" fill="#666666">[integer]</text>
<polygon fill="none" stroke="#000000" points="129,-1362.5 129,-1392.5 517,-1392.5 517,-1362.5 129,-1362.5"/>
<text text-anchor="start" x="136" y="-1373.9" font-family="Arial" font-size="14.00" fill="#000000">tax_cash_basis_journal_id </text>
<text text-anchor="start" x="304.8246" y="-1373.9" font-family="Arial" font-size="14.00" fill="#666666">[integer]</text>
<polygon fill="none" stroke="#000000" points="129,-1332.5 129,-1362.5 517,-1362.5 517,-1332.5 129,-1332.5"/>
<text text-anchor="start" x="136" y="-1343.9" font-family="Arial" font-size="14.00" fill="#000000">tax_calculation_rounding_method </text>
<text text-anchor="start" x="349.1794" y="-1343.9" font-family="Arial" font-size="14.00" fill="#666666">[varchar]</text>
<polygon fill="none" stroke="#000000" points="129,-1302.5 129,-1332.5 517,-1332.5 517,-1302.5 129,-1302.5"/>
<text text-anchor="start" x="136" y="-1313.9" font-family="Arial" font-size="14.00" fill="#000000">currency_exchange_journal_id </text>
<text text-anchor="start" x="330.4964" y="-1313.9" font-family="Arial" font-size="14.00" fill="#666666">[integer]</text>
<polygon fill="none" stroke="#000000" points="129,-1272.5 129,-1302.5 517,-1302.5 517,-1272.5 129,-1272.5"/>
<text text-anchor="start" x="136" y="-1283.9" font-family="Arial" font-size="14.00" fill="#000000">anglo_saxon_accounting </text>
<text text-anchor="start" x="294.7334" y="-1283.9" font-family="Arial" font-size="14.00" fill="#666666">[boolean]</text>
<polygon fill="none" stroke="#000000" points="129,-1242.5 129,-1272.5 517,-1272.5 517,-1242.5 129,-1242.5"/>
<text text-anchor="start" x="136" y="-1253.9" font-family="Arial" font-size="14.00" fill="#000000">property_stock_account_input_categ_id </text>
<text text-anchor="start" x="387.3126" y="-1253.9" font-family="Arial" font-size="14.00" fill="#666666">[integer]</text>
<polygon fill="none" stroke="#000000" points="129,-1212.5 129,-1242.5 517,-1242.5 517,-1212.5 129,-1212.5"/>
<text text-anchor="start" x="136" y="-1223.9" font-family="Arial" font-size="14.00" fill="#000000">property_stock_account_output_categ_id </text>
<text text-anchor="start" x="395.8792" y="-1223.9" font-family="Arial" font-size="14.00" fill="#666666">[integer]</text>
<polygon fill="none" stroke="#000000" points="129,-1182.5 129,-1212.5 517,-1212.5 517,-1182.5 129,-1182.5"/>
<text text-anchor="start" x="136" y="-1193.9" font-family="Arial" font-size="14.00" fill="#000000">property_stock_valuation_account_id </text>
<text text-anchor="start" x="370.9634" y="-1193.9" font-family="Arial" font-size="14.00" fill="#666666">[integer]</text>
<polygon fill="none" stroke="#000000" points="129,-1152.5 129,-1182.5 517,-1182.5 517,-1152.5 129,-1152.5"/>
<text text-anchor="start" x="136" y="-1163.9" font-family="Arial" font-size="14.00" fill="#000000">overdue_msg </text>
<text text-anchor="start" x="224.69" y="-1163.9" font-family="Arial" font-size="14.00" fill="#666666">[text]</text>
<polygon fill="none" stroke="#000000" points="129,-1122.5 129,-1152.5 517,-1152.5 517,-1122.5 129,-1122.5"/>
<text text-anchor="start" x="136" y="-1133.9" font-family="Arial" font-size="14.00" fill="#000000">tax_exigibility </text>
<text text-anchor="start" x="223.1178" y="-1133.9" font-family="Arial" font-size="14.00" fill="#666666">[boolean]</text>
<polygon fill="none" stroke="#000000" points="129,-1092.5 129,-1122.5 517,-1122.5 517,-1092.5 129,-1092.5"/>
<text text-anchor="start" x="136" y="-1103.9" font-family="Arial" font-size="14.00" fill="#000000">account_bank_reconciliation_start </text>
<text text-anchor="start" x="351.5048" y="-1103.9" font-family="Arial" font-size="14.00" fill="#666666">[date]</text>
<polygon fill="none" stroke="#000000" points="129,-1062.5 129,-1092.5 517,-1092.5 517,-1062.5 129,-1062.5"/>
<text text-anchor="start" x="136" y="-1073.9" font-family="Arial" font-size="14.00" fill="#000000">incoterm_id </text>
<text text-anchor="start" x="212.2286" y="-1073.9" font-family="Arial" font-size="14.00" fill="#666666">[integer]</text>
<polygon fill="none" stroke="#000000" points="129,-1032.5 129,-1062.5 517,-1062.5 517,-1032.5 129,-1032.5"/>
<text text-anchor="start" x="136" y="-1043.9" font-family="Arial" font-size="14.00" fill="#000000">invoice_reference_type </text>
<text text-anchor="start" x="284.5974" y="-1043.9" font-family="Arial" font-size="14.00" fill="#666666">[varchar]</text>
<polygon fill="none" stroke="#000000" points="129,-1002.5 129,-1032.5 517,-1032.5 517,-1002.5 129,-1002.5"/>
<text text-anchor="start" x="136" y="-1013.9" font-family="Arial" font-size="14.00" fill="#000000">qr_code </text>
<text text-anchor="start" x="190.4642" y="-1013.9" font-family="Arial" font-size="14.00" fill="#666666">[boolean]</text>
<polygon fill="none" stroke="#000000" points="129,-972.5 129,-1002.5 517,-1002.5 517,-972.5 129,-972.5"/>
<text text-anchor="start" x="136" y="-983.9" font-family="Arial" font-size="14.00" fill="#000000">invoice_is_email </text>
<text text-anchor="start" x="242.5624" y="-983.9" font-family="Arial" font-size="14.00" fill="#666666">[boolean]</text>
<polygon fill="none" stroke="#000000" points="129,-942.5 129,-972.5 517,-972.5 517,-942.5 129,-942.5"/>
<text text-anchor="start" x="136" y="-953.9" font-family="Arial" font-size="14.00" fill="#000000">invoice_is_print </text>
<text text-anchor="start" x="236.3464" y="-953.9" font-family="Arial" font-size="14.00" fill="#666666">[boolean]</text>
<polygon fill="none" stroke="#000000" points="129,-912.5 129,-942.5 517,-942.5 517,-912.5 129,-912.5"/>
<text text-anchor="start" x="136" y="-923.9" font-family="Arial" font-size="14.00" fill="#000000">account_opening_move_id </text>
<text text-anchor="start" x="307.1766" y="-923.9" font-family="Arial" font-size="14.00" fill="#666666">[integer]</text>
<polygon fill="none" stroke="#000000" points="129,-882.5 129,-912.5 517,-912.5 517,-882.5 129,-882.5"/>
<text text-anchor="start" x="136" y="-893.9" font-family="Arial" font-size="14.00" fill="#000000">account_setup_bank_data_state </text>
<text text-anchor="start" x="342.213" y="-893.9" font-family="Arial" font-size="14.00" fill="#666666">[varchar]</text>
<polygon fill="none" stroke="#000000" points="129,-852.5 129,-882.5 517,-882.5 517,-852.5 129,-852.5"/>
<text text-anchor="start" x="136" y="-863.9" font-family="Arial" font-size="14.00" fill="#000000">account_setup_fy_data_state </text>
<text text-anchor="start" x="322.7558" y="-863.9" font-family="Arial" font-size="14.00" fill="#666666">[varchar]</text>
<polygon fill="none" stroke="#000000" points="129,-822.5 129,-852.5 517,-852.5 517,-822.5 129,-822.5"/>
<text text-anchor="start" x="136" y="-833.9" font-family="Arial" font-size="14.00" fill="#000000">account_setup_coa_state </text>
<text text-anchor="start" x="299.4094" y="-833.9" font-family="Arial" font-size="14.00" fill="#666666">[varchar]</text>
<polygon fill="none" stroke="#000000" points="129,-792.5 129,-822.5 517,-822.5 517,-792.5 129,-792.5"/>
<text text-anchor="start" x="136" y="-803.9" font-family="Arial" font-size="14.00" fill="#000000">account_onboarding_invoice_layout_state </text>
<text text-anchor="start" x="401.3224" y="-803.9" font-family="Arial" font-size="14.00" fill="#666666">[varchar]</text>
<polygon fill="none" stroke="#000000" points="129,-762.5 129,-792.5 517,-792.5 517,-762.5 129,-762.5"/>
<text text-anchor="start" x="136" y="-773.9" font-family="Arial" font-size="14.00" fill="#000000">account_onboarding_sample_invoice_state </text>
<text text-anchor="start" x="409.0924" y="-773.9" font-family="Arial" font-size="14.00" fill="#666666">[varchar]</text>
<polygon fill="none" stroke="#000000" points="129,-732.5 129,-762.5 517,-762.5 517,-732.5 129,-732.5"/>
<text text-anchor="start" x="136" y="-743.9" font-family="Arial" font-size="14.00" fill="#000000">account_onboarding_sale_tax_state </text>
<text text-anchor="start" x="364.7614" y="-743.9" font-family="Arial" font-size="14.00" fill="#666666">[varchar]</text>
<polygon fill="none" stroke="#000000" points="129,-702.5 129,-732.5 517,-732.5 517,-702.5 129,-702.5"/>
<text text-anchor="start" x="136" y="-713.9" font-family="Arial" font-size="14.00" fill="#000000">account_invoice_onboarding_state </text>
<text text-anchor="start" x="356.1948" y="-713.9" font-family="Arial" font-size="14.00" fill="#666666">[varchar]</text>
<polygon fill="none" stroke="#000000" points="129,-672.5 129,-702.5 517,-702.5 517,-672.5 129,-672.5"/>
<text text-anchor="start" x="136" y="-683.9" font-family="Arial" font-size="14.00" fill="#000000">account_dashboard_onboarding_state </text>
<text text-anchor="start" x="378.7726" y="-683.9" font-family="Arial" font-size="14.00" fill="#666666">[varchar]</text>
<polygon fill="none" stroke="#000000" points="129,-642.5 129,-672.5 517,-672.5 517,-642.5 129,-642.5"/>
<text text-anchor="start" x="136" y="-653.9" font-family="Arial" font-size="14.00" fill="#000000">payment_acquirer_onboarding_state </text>
<text text-anchor="start" x="367.8526" y="-653.9" font-family="Arial" font-size="14.00" fill="#666666">[varchar]</text>
<polygon fill="none" stroke="#000000" points="129,-612.5 129,-642.5 517,-642.5 517,-612.5 129,-612.5"/>
<text text-anchor="start" x="136" y="-623.9" font-family="Arial" font-size="14.00" fill="#000000">payment_onboarding_payment_method </text>
<text text-anchor="start" x="387.3112" y="-623.9" font-family="Arial" font-size="14.00" fill="#666666">[varchar]</text>
<polygon fill="none" stroke="#000000" points="129,-582.5 129,-612.5 517,-612.5 517,-582.5 129,-582.5"/>
<text text-anchor="start" x="136" y="-593.9" font-family="Arial" font-size="14.00" fill="#000000">invoice_is_snailmail </text>
<text text-anchor="start" x="263.5582" y="-593.9" font-family="Arial" font-size="14.00" fill="#666666">[boolean]</text>
<polygon fill="none" stroke="#000000" points="129,-552.5 129,-582.5 517,-582.5 517,-552.5 129,-552.5"/>
<text text-anchor="start" x="136" y="-563.9" font-family="Arial" font-size="14.00" fill="#000000">sale_note </text>
<text text-anchor="start" x="200.5834" y="-563.9" font-family="Arial" font-size="14.00" fill="#666666">[text]</text>
<polygon fill="none" stroke="#000000" points="129,-522.5 129,-552.5 517,-552.5 517,-522.5 129,-522.5"/>
<text text-anchor="start" x="136" y="-533.9" font-family="Arial" font-size="14.00" fill="#000000">portal_confirmation_sign </text>
<text text-anchor="start" x="292.3618" y="-533.9" font-family="Arial" font-size="14.00" fill="#666666">[boolean]</text>
<polygon fill="none" stroke="#000000" points="129,-492.5 129,-522.5 517,-522.5 517,-492.5 129,-492.5"/>
<text text-anchor="start" x="136" y="-503.9" font-family="Arial" font-size="14.00" fill="#000000">portal_confirmation_pay </text>
<text text-anchor="start" x="289.2552" y="-503.9" font-family="Arial" font-size="14.00" fill="#666666">[boolean]</text>
<polygon fill="none" stroke="#000000" points="129,-462.5 129,-492.5 517,-492.5 517,-462.5 129,-462.5"/>
<text text-anchor="start" x="136" y="-473.9" font-family="Arial" font-size="14.00" fill="#000000">quotation_validity_days </text>
<text text-anchor="start" x="285.38" y="-473.9" font-family="Arial" font-size="14.00" fill="#666666">[integer]</text>
<polygon fill="none" stroke="#000000" points="129,-432.5 129,-462.5 517,-462.5 517,-432.5 129,-432.5"/>
<text text-anchor="start" x="136" y="-443.9" font-family="Arial" font-size="14.00" fill="#000000">sale_quotation_onboarding_state </text>
<text text-anchor="start" x="346.868" y="-443.9" font-family="Arial" font-size="14.00" fill="#666666">[varchar]</text>
<polygon fill="none" stroke="#000000" points="129,-402.5 129,-432.5 517,-432.5 517,-402.5 129,-402.5"/>
<text text-anchor="start" x="136" y="-413.9" font-family="Arial" font-size="14.00" fill="#000000">sale_onboarding_order_confirmation_state </text>
<text text-anchor="start" x="405.9648" y="-413.9" font-family="Arial" font-size="14.00" fill="#666666">[varchar]</text>
<polygon fill="none" stroke="#000000" points="129,-372.5 129,-402.5 517,-402.5 517,-372.5 129,-372.5"/>
<text text-anchor="start" x="136" y="-383.9" font-family="Arial" font-size="14.00" fill="#000000">sale_onboarding_sample_quotation_state </text>
<text text-anchor="start" x="399.7656" y="-383.9" font-family="Arial" font-size="14.00" fill="#666666">[varchar]</text>
<polygon fill="none" stroke="#000000" points="129,-342.5 129,-372.5 517,-372.5 517,-342.5 129,-342.5"/>
<text text-anchor="start" x="136" y="-353.9" font-family="Arial" font-size="14.00" fill="#000000">sale_onboarding_payment_method </text>
<text text-anchor="start" x="359.3014" y="-353.9" font-family="Arial" font-size="14.00" fill="#666666">[varchar]</text>
<polygon fill="none" stroke="#000000" points="129,-312.5 129,-342.5 517,-342.5 517,-312.5 129,-312.5"/>
<text text-anchor="start" x="135.5043" y="-323.9" font-family="Arial" font-size="14.00" fill="#000000">website_sale_onboarding_payment_acquirer_state </text>
<text text-anchor="start" x="456.0455" y="-323.9" font-family="Arial" font-size="14.00" fill="#666666">[varchar]</text>
<polygon fill="none" stroke="#000000" points="129,-282.5 129,-312.5 517,-312.5 517,-282.5 129,-282.5"/>
<text text-anchor="start" x="136" y="-293.9" font-family="Arial" font-size="14.00" fill="#000000">nomenclature_id </text>
<text text-anchor="start" x="243.359" y="-293.9" font-family="Arial" font-size="14.00" fill="#666666">[integer]</text>
<polygon fill="none" stroke="#000000" points="129,-252.5 129,-282.5 517,-282.5 517,-252.5 129,-252.5"/>
<text text-anchor="start" x="136" y="-263.9" font-family="Arial" font-size="14.00" fill="#000000">propagation_minimum_delta </text>
<text text-anchor="start" x="316.4796" y="-263.9" font-family="Arial" font-size="14.00" fill="#666666">[integer]</text>
<polygon fill="none" stroke="#000000" points="129,-222.5 129,-252.5 517,-252.5 517,-222.5 129,-222.5"/>
<text text-anchor="start" x="136" y="-233.9" font-family="Arial" font-size="14.00" fill="#000000">internal_transit_location_id </text>
<text text-anchor="start" x="306.3702" y="-233.9" font-family="Arial" font-size="14.00" fill="#666666">[integer]</text>
<polygon fill="none" stroke="#000000" points="129,-192.5 129,-222.5 517,-222.5 517,-192.5 129,-192.5"/>
<text text-anchor="start" x="136" y="-203.9" font-family="Arial" font-size="14.00" fill="#000000">security_lead </text>
<text text-anchor="start" x="222.3506" y="-203.9" font-family="Arial" font-size="14.00" fill="#666666">[double precision]</text>
<polygon fill="none" stroke="#000000" points="129,-162.5 129,-192.5 517,-192.5 517,-162.5 129,-162.5"/>
<text text-anchor="start" x="136" y="-173.9" font-family="Arial" font-size="14.00" fill="#000000">po_lead </text>
<text text-anchor="start" x="189.6928" y="-173.9" font-family="Arial" font-size="14.00" fill="#666666">[double precision]</text>
<polygon fill="none" stroke="#000000" points="129,-132.5 129,-162.5 517,-162.5 517,-132.5 129,-132.5"/>
<text text-anchor="start" x="136" y="-143.9" font-family="Arial" font-size="14.00" fill="#000000">po_lock </text>
<text text-anchor="start" x="188.1276" y="-143.9" font-family="Arial" font-size="14.00" fill="#666666">[varchar]</text>
<polygon fill="none" stroke="#000000" points="129,-102.5 129,-132.5 517,-132.5 517,-102.5 129,-102.5"/>
<text text-anchor="start" x="136" y="-113.9" font-family="Arial" font-size="14.00" fill="#000000">po_double_validation </text>
<text text-anchor="start" x="272.164" y="-113.9" font-family="Arial" font-size="14.00" fill="#666666">[varchar]</text>
<polygon fill="none" stroke="#000000" points="129,-72.5 129,-102.5 517,-102.5 517,-72.5 129,-72.5"/>
<text text-anchor="start" x="136" y="-83.9" font-family="Arial" font-size="14.00" fill="#000000">po_double_validation_amount </text>
<text text-anchor="start" x="326.6282" y="-83.9" font-family="Arial" font-size="14.00" fill="#666666">[numeric]</text>
<polygon fill="none" stroke="#000000" points="129,-42.5 129,-72.5 517,-72.5 517,-42.5 129,-42.5"/>
<text text-anchor="start" x="136" y="-53.9" font-family="Arial" font-size="14.00" fill="#000000">manufacturing_lead </text>
<text text-anchor="start" x="262.8148" y="-53.9" font-family="Arial" font-size="14.00" fill="#666666">[double precision]</text>
</g>
<!-- public.res_company_users_rel&#45;&gt;public.res_company -->
<g id="edge1" class="edge">
<title>public.res_company_users_rel:cid&#45;&gt;public.res_company:id</title>
<path fill="none" stroke="#000000" d="M352.76,-2885.8929C325.8449,-2876.241 340.4454,-2825.4352 363,-2797 406.6807,-2741.9306 473.3193,-2816.0694 517,-2761 542.8242,-2728.4427 558.5556,-2667.5 517,-2667.5"/>
<polygon fill="#000000" stroke="#000000" points="353.1209,-2885.9494 362.3023,-2891.9456 358.0605,-2886.7247 363,-2887.5 363,-2887.5 363,-2887.5 358.0605,-2886.7247 363.6977,-2883.0544 353.1209,-2885.9494 353.1209,-2885.9494"/>
<text text-anchor="start" x="7.274" y="-2897.5" font-family="Arial" font-size="10.00" fill="#000000">FOREIGN KEY (cid) REFERENCES res_company(id) ON DELETE CASCADE</text>
</g>
<!-- public.res_users -->
<g id="node3" class="node">
<title>public.res_users</title>
<polygon fill="#efefef" stroke="transparent" points="621,-1692.5 621,-1727.5 897,-1727.5 897,-1692.5 621,-1692.5"/>
<polygon fill="none" stroke="#000000" points="621,-1692.5 621,-1727.5 897,-1727.5 897,-1692.5 621,-1692.5"/>
<text text-anchor="start" x="644.8639" y="-1705.3" font-family="Arial Bold" font-size="18.00" fill="#000000">public.res_users</text>
<text text-anchor="start" x="775.8823" y="-1705.3" font-family="Arial" font-size="14.00" fill="#000000"> </text>
<text text-anchor="start" x="779.7729" y="-1705.3" font-family="Arial" font-size="14.00" fill="#666666">[BASE TABLE]</text>
<polygon fill="none" stroke="#000000" points="621,-1662.5 621,-1692.5 897,-1692.5 897,-1662.5 621,-1662.5"/>
<text text-anchor="start" x="628" y="-1673.9" font-family="Arial" font-size="14.00" fill="#000000">id </text>
<text text-anchor="start" x="642.7798" y="-1673.9" font-family="Arial" font-size="14.00" fill="#666666">[integer]</text>
<polygon fill="none" stroke="#000000" points="621,-1632.5 621,-1662.5 897,-1662.5 897,-1632.5 621,-1632.5"/>
<text text-anchor="start" x="628" y="-1643.9" font-family="Arial" font-size="14.00" fill="#000000">active </text>
<text text-anchor="start" x="668.453" y="-1643.9" font-family="Arial" font-size="14.00" fill="#666666">[boolean]</text>
<polygon fill="none" stroke="#000000" points="621,-1602.5 621,-1632.5 897,-1632.5 897,-1602.5 621,-1602.5"/>
<text text-anchor="start" x="628" y="-1613.9" font-family="Arial" font-size="14.00" fill="#000000">login </text>
<text text-anchor="start" x="661.4516" y="-1613.9" font-family="Arial" font-size="14.00" fill="#666666">[varchar]</text>
<polygon fill="none" stroke="#000000" points="621,-1572.5 621,-1602.5 897,-1602.5 897,-1572.5 621,-1572.5"/>
<text text-anchor="start" x="628" y="-1583.9" font-family="Arial" font-size="14.00" fill="#000000">password </text>
<text text-anchor="start" x="691.7882" y="-1583.9" font-family="Arial" font-size="14.00" fill="#666666">[varchar]</text>
<polygon fill="none" stroke="#000000" points="621,-1542.5 621,-1572.5 897,-1572.5 897,-1542.5 621,-1542.5"/>
<text text-anchor="start" x="628" y="-1553.9" font-family="Arial" font-size="14.00" fill="#000000">company_id </text>
<text text-anchor="start" x="707.3534" y="-1553.9" font-family="Arial" font-size="14.00" fill="#666666">[integer]</text>
<polygon fill="none" stroke="#000000" points="621,-1512.5 621,-1542.5 897,-1542.5 897,-1512.5 621,-1512.5"/>
<text text-anchor="start" x="628" y="-1523.9" font-family="Arial" font-size="14.00" fill="#000000">partner_id </text>
<text text-anchor="start" x="694.9046" y="-1523.9" font-family="Arial" font-size="14.00" fill="#666666">[integer]</text>
<polygon fill="none" stroke="#000000" points="621,-1482.5 621,-1512.5 897,-1512.5 897,-1482.5 621,-1482.5"/>
<text text-anchor="start" x="627.5246" y="-1493.9" font-family="Arial" font-size="14.00" fill="#000000">create_date </text>
<text text-anchor="start" x="705.3352" y="-1493.9" font-family="Arial" font-size="14.00" fill="#666666">[timestamp without time zone]</text>
<polygon fill="none" stroke="#000000" points="621,-1452.5 621,-1482.5 897,-1482.5 897,-1452.5 621,-1452.5"/>
<text text-anchor="start" x="628" y="-1463.9" font-family="Arial" font-size="14.00" fill="#000000">signature </text>
<text text-anchor="start" x="689.4614" y="-1463.9" font-family="Arial" font-size="14.00" fill="#666666">[text]</text>
<polygon fill="none" stroke="#000000" points="621,-1422.5 621,-1452.5 897,-1452.5 897,-1422.5 621,-1422.5"/>
<text text-anchor="start" x="628" y="-1433.9" font-family="Arial" font-size="14.00" fill="#000000">action_id </text>
<text text-anchor="start" x="687.9074" y="-1433.9" font-family="Arial" font-size="14.00" fill="#666666">[integer]</text>
<polygon fill="none" stroke="#000000" points="621,-1392.5 621,-1422.5 897,-1422.5 897,-1392.5 621,-1392.5"/>
<text text-anchor="start" x="628" y="-1403.9" font-family="Arial" font-size="14.00" fill="#000000">share </text>
<text text-anchor="start" x="666.899" y="-1403.9" font-family="Arial" font-size="14.00" fill="#666666">[boolean]</text>
<polygon fill="none" stroke="#000000" points="621,-1362.5 621,-1392.5 897,-1392.5 897,-1362.5 621,-1362.5"/>
<text text-anchor="start" x="628" y="-1373.9" font-family="Arial" font-size="14.00" fill="#000000">create_uid </text>
<text text-anchor="start" x="697.244" y="-1373.9" font-family="Arial" font-size="14.00" fill="#666666">[integer]</text>
<polygon fill="none" stroke="#000000" points="621,-1332.5 621,-1362.5 897,-1362.5 897,-1332.5 621,-1332.5"/>
<text text-anchor="start" x="628" y="-1343.9" font-family="Arial" font-size="14.00" fill="#000000">write_uid </text>
<text text-anchor="start" x="687.892" y="-1343.9" font-family="Arial" font-size="14.00" fill="#666666">[integer]</text>
<polygon fill="none" stroke="#000000" points="621,-1302.5 621,-1332.5 897,-1332.5 897,-1302.5 621,-1302.5"/>
<text text-anchor="start" x="628" y="-1313.9" font-family="Arial" font-size="14.00" fill="#000000">write_date </text>
<text text-anchor="start" x="696.4586" y="-1313.9" font-family="Arial" font-size="14.00" fill="#666666">[timestamp without time zone]</text>
<polygon fill="none" stroke="#000000" points="621,-1272.5 621,-1302.5 897,-1302.5 897,-1272.5 621,-1272.5"/>
<text text-anchor="start" x="628" y="-1283.9" font-family="Arial" font-size="14.00" fill="#000000">alias_id </text>
<text text-anchor="start" x="679.3408" y="-1283.9" font-family="Arial" font-size="14.00" fill="#666666">[integer]</text>
<polygon fill="none" stroke="#000000" points="621,-1242.5 621,-1272.5 897,-1272.5 897,-1242.5 621,-1242.5"/>
<text text-anchor="start" x="628" y="-1253.9" font-family="Arial" font-size="14.00" fill="#000000">notification_type </text>
<text text-anchor="start" x="733.0336" y="-1253.9" font-family="Arial" font-size="14.00" fill="#666666">[varchar]</text>
<polygon fill="none" stroke="#000000" points="621,-1212.5 621,-1242.5 897,-1242.5 897,-1212.5 621,-1212.5"/>
<text text-anchor="start" x="628" y="-1223.9" font-family="Arial" font-size="14.00" fill="#000000">odoobot_state </text>
<text text-anchor="start" x="720.6058" y="-1223.9" font-family="Arial" font-size="14.00" fill="#666666">[varchar]</text>
<polygon fill="none" stroke="#000000" points="621,-1182.5 621,-1212.5 897,-1212.5 897,-1182.5 621,-1182.5"/>
<text text-anchor="start" x="628" y="-1193.9" font-family="Arial" font-size="14.00" fill="#000000">sale_team_id </text>
<text text-anchor="start" x="715.1332" y="-1193.9" font-family="Arial" font-size="14.00" fill="#666666">[integer]</text>
<polygon fill="none" stroke="#000000" points="621,-1152.5 621,-1182.5 897,-1182.5 897,-1152.5 621,-1152.5"/>
<text text-anchor="start" x="628" y="-1163.9" font-family="Arial" font-size="14.00" fill="#000000">target_sales_won </text>
<text text-anchor="start" x="741.589" y="-1163.9" font-family="Arial" font-size="14.00" fill="#666666">[integer]</text>
<polygon fill="none" stroke="#000000" points="621,-1122.5 621,-1152.5 897,-1152.5 897,-1122.5 621,-1122.5"/>
<text text-anchor="start" x="628" y="-1133.9" font-family="Arial" font-size="14.00" fill="#000000">target_sales_done </text>
<text text-anchor="start" x="747.0476" y="-1133.9" font-family="Arial" font-size="14.00" fill="#666666">[integer]</text>
<polygon fill="none" stroke="#000000" points="621,-1092.5 621,-1122.5 897,-1122.5 897,-1092.5 621,-1092.5"/>
<text text-anchor="start" x="628" y="-1103.9" font-family="Arial" font-size="14.00" fill="#000000">website_id </text>
<text text-anchor="start" x="698.014" y="-1103.9" font-family="Arial" font-size="14.00" fill="#666666">[integer]</text>
<polygon fill="none" stroke="#000000" points="621,-1062.5 621,-1092.5 897,-1092.5 897,-1062.5 621,-1062.5"/>
<text text-anchor="start" x="628" y="-1073.9" font-family="Arial" font-size="14.00" fill="#000000">target_sales_invoiced </text>
<text text-anchor="start" x="767.2608" y="-1073.9" font-family="Arial" font-size="14.00" fill="#666666">[integer]</text>
<polygon fill="none" stroke="#000000" points="621,-1032.5 621,-1062.5 897,-1062.5 897,-1032.5 621,-1032.5"/>
<text text-anchor="start" x="628" y="-1043.9" font-family="Arial" font-size="14.00" fill="#000000">pos_security_pin </text>
<text text-anchor="start" x="736.9158" y="-1043.9" font-family="Arial" font-size="14.00" fill="#666666">[varchar(32)]</text>
</g>
<!-- public.res_company_users_rel&#45;&gt;public.res_users -->
<g id="edge2" class="edge">
<title>public.res_company_users_rel:user_id&#45;&gt;public.res_users:id</title>
<path fill="none" stroke="#000000" d="M727.7088,-2854.9015C830.2276,-2793.851 493.0438,-1677.5 621,-1677.5"/>
<polygon fill="#000000" stroke="#000000" points="727.66,-2854.9144 716.8365,-2853.153 722.83,-2856.2072 718,-2857.5 718,-2857.5 718,-2857.5 722.83,-2856.2072 719.1635,-2861.847 727.66,-2854.9144 727.66,-2854.9144"/>
<text text-anchor="start" x="725.33" y="-2867.5" font-family="Arial" font-size="10.00" fill="#000000">FOREIGN KEY (user_id) REFERENCES res_users(id) ON DELETE CASCADE</text>
</g>
</g>
</svg>
