<?xml version="1.0" encoding="UTF-8" standalone="no"?>
<!DOCTYPE svg PUBLIC "-//W3C//DTD SVG 1.1//EN"
 "http://www.w3.org/Graphics/SVG/1.1/DTD/svg11.dtd">
<!-- Generated by graphviz version 2.40.1 (20161225.0304)
 -->
<!-- Title: public.rule_group_rel Pages: 1 -->
<svg width="1045pt" height="772pt"
 viewBox="0.00 0.00 1045.00 772.00" xmlns="http://www.w3.org/2000/svg" xmlns:xlink="http://www.w3.org/1999/xlink">
<g id="graph0" class="graph" transform="scale(1 1) rotate(0) translate(4 768)">
<title>public.rule_group_rel</title>
<polygon fill="#ffffff" stroke="transparent" points="-4,4 -4,-768 1041,-768 1041,4 -4,4"/>
<!-- public.rule_group_rel -->
<g id="node1" class="node">
<title>public.rule_group_rel</title>
<polygon fill="#efefef" stroke="transparent" points="379,-682.5 379,-717.5 658,-717.5 658,-682.5 379,-682.5"/>
<polygon fill="none" stroke="#000000" points="379,-682.5 379,-717.5 658,-717.5 658,-682.5 379,-682.5"/>
<text text-anchor="start" x="385.8581" y="-695.3" font-family="Arial Bold" font-size="18.00" fill="#000000">public.rule_group_rel</text>
<text text-anchor="start" x="553.8881" y="-695.3" font-family="Arial" font-size="14.00" fill="#000000"> </text>
<text text-anchor="start" x="557.7787" y="-695.3" font-family="Arial" font-size="14.00" fill="#666666">[BASE TABLE]</text>
<polygon fill="none" stroke="#000000" points="379,-652.5 379,-682.5 658,-682.5 658,-652.5 379,-652.5"/>
<text text-anchor="start" x="386" y="-663.9" font-family="Arial" font-size="14.00" fill="#000000">rule_group_id </text>
<text text-anchor="start" x="475.4684" y="-663.9" font-family="Arial" font-size="14.00" fill="#666666">[integer]</text>
<polygon fill="none" stroke="#000000" points="379,-622.5 379,-652.5 658,-652.5 658,-622.5 379,-622.5"/>
<text text-anchor="start" x="386" y="-633.9" font-family="Arial" font-size="14.00" fill="#000000">group_id </text>
<text text-anchor="start" x="444.3534" y="-633.9" font-family="Arial" font-size="14.00" fill="#666666">[integer]</text>
<polygon fill="none" stroke="#000000" stroke-width="3" points="377,-621.5 377,-719.5 659,-719.5 659,-621.5 377,-621.5"/>
</g>
<!-- public.ir_rule -->
<g id="node2" class="node">
<title>public.ir_rule</title>
<polygon fill="#efefef" stroke="transparent" points="191,-462.5 191,-497.5 467,-497.5 467,-462.5 191,-462.5"/>
<polygon fill="none" stroke="#000000" points="191,-462.5 191,-497.5 467,-497.5 467,-462.5 191,-462.5"/>
<text text-anchor="start" x="229.3728" y="-475.3" font-family="Arial Bold" font-size="18.00" fill="#000000">public.ir_rule</text>
<text text-anchor="start" x="331.3734" y="-475.3" font-family="Arial" font-size="14.00" fill="#000000"> </text>
<text text-anchor="start" x="335.264" y="-475.3" font-family="Arial" font-size="14.00" fill="#666666">[BASE TABLE]</text>
<polygon fill="none" stroke="#000000" points="191,-432.5 191,-462.5 467,-462.5 467,-432.5 191,-432.5"/>
<text text-anchor="start" x="198" y="-443.9" font-family="Arial" font-size="14.00" fill="#000000">id </text>
<text text-anchor="start" x="212.7798" y="-443.9" font-family="Arial" font-size="14.00" fill="#666666">[integer]</text>
<polygon fill="none" stroke="#000000" points="191,-402.5 191,-432.5 467,-432.5 467,-402.5 191,-402.5"/>
<text text-anchor="start" x="198" y="-413.9" font-family="Arial" font-size="14.00" fill="#000000">name </text>
<text text-anchor="start" x="236.899" y="-413.9" font-family="Arial" font-size="14.00" fill="#666666">[varchar]</text>
<polygon fill="none" stroke="#000000" points="191,-372.5 191,-402.5 467,-402.5 467,-372.5 191,-372.5"/>
<text text-anchor="start" x="198" y="-383.9" font-family="Arial" font-size="14.00" fill="#000000">active </text>
<text text-anchor="start" x="238.453" y="-383.9" font-family="Arial" font-size="14.00" fill="#666666">[boolean]</text>
<polygon fill="none" stroke="#000000" points="191,-342.5 191,-372.5 467,-372.5 467,-342.5 191,-342.5"/>
<text text-anchor="start" x="198" y="-353.9" font-family="Arial" font-size="14.00" fill="#000000">model_id </text>
<text text-anchor="start" x="258.6774" y="-353.9" font-family="Arial" font-size="14.00" fill="#666666">[integer]</text>
<polygon fill="none" stroke="#000000" points="191,-312.5 191,-342.5 467,-342.5 467,-312.5 191,-312.5"/>
<text text-anchor="start" x="198" y="-323.9" font-family="Arial" font-size="14.00" fill="#000000">domain_force </text>
<text text-anchor="start" x="286.6872" y="-323.9" font-family="Arial" font-size="14.00" fill="#666666">[text]</text>
<polygon fill="none" stroke="#000000" points="191,-282.5 191,-312.5 467,-312.5 467,-282.5 191,-282.5"/>
<text text-anchor="start" x="198" y="-293.9" font-family="Arial" font-size="14.00" fill="#000000">perm_read </text>
<text text-anchor="start" x="269.568" y="-293.9" font-family="Arial" font-size="14.00" fill="#666666">[boolean]</text>
<polygon fill="none" stroke="#000000" points="191,-252.5 191,-282.5 467,-282.5 467,-252.5 191,-252.5"/>
<text text-anchor="start" x="198" y="-263.9" font-family="Arial" font-size="14.00" fill="#000000">perm_write </text>
<text text-anchor="start" x="271.1066" y="-263.9" font-family="Arial" font-size="14.00" fill="#666666">[boolean]</text>
<polygon fill="none" stroke="#000000" points="191,-222.5 191,-252.5 467,-252.5 467,-222.5 191,-222.5"/>
<text text-anchor="start" x="198" y="-233.9" font-family="Arial" font-size="14.00" fill="#000000">perm_create </text>
<text text-anchor="start" x="280.4586" y="-233.9" font-family="Arial" font-size="14.00" fill="#666666">[boolean]</text>
<polygon fill="none" stroke="#000000" points="191,-192.5 191,-222.5 467,-222.5 467,-192.5 191,-192.5"/>
<text text-anchor="start" x="198" y="-203.9" font-family="Arial" font-size="14.00" fill="#000000">perm_unlink </text>
<text text-anchor="start" x="278.1206" y="-203.9" font-family="Arial" font-size="14.00" fill="#666666">[boolean]</text>
<polygon fill="none" stroke="#000000" points="191,-162.5 191,-192.5 467,-192.5 467,-162.5 191,-162.5"/>
<text text-anchor="start" x="198" y="-173.9" font-family="Arial" font-size="14.00" fill="#000000">global </text>
<text text-anchor="start" x="239.2342" y="-173.9" font-family="Arial" font-size="14.00" fill="#666666">[boolean]</text>
<polygon fill="none" stroke="#000000" points="191,-132.5 191,-162.5 467,-162.5 467,-132.5 191,-132.5"/>
<text text-anchor="start" x="198" y="-143.9" font-family="Arial" font-size="14.00" fill="#000000">create_uid </text>
<text text-anchor="start" x="267.244" y="-143.9" font-family="Arial" font-size="14.00" fill="#666666">[integer]</text>
<polygon fill="none" stroke="#000000" points="191,-102.5 191,-132.5 467,-132.5 467,-102.5 191,-102.5"/>
<text text-anchor="start" x="197.5246" y="-113.9" font-family="Arial" font-size="14.00" fill="#000000">create_date </text>
<text text-anchor="start" x="275.3352" y="-113.9" font-family="Arial" font-size="14.00" fill="#666666">[timestamp without time zone]</text>
<polygon fill="none" stroke="#000000" points="191,-72.5 191,-102.5 467,-102.5 467,-72.5 191,-72.5"/>
<text text-anchor="start" x="198" y="-83.9" font-family="Arial" font-size="14.00" fill="#000000">write_uid </text>
<text text-anchor="start" x="257.892" y="-83.9" font-family="Arial" font-size="14.00" fill="#666666">[integer]</text>
<polygon fill="none" stroke="#000000" points="191,-42.5 191,-72.5 467,-72.5 467,-42.5 191,-42.5"/>
<text text-anchor="start" x="198" y="-53.9" font-family="Arial" font-size="14.00" fill="#000000">write_date </text>
<text text-anchor="start" x="266.4586" y="-53.9" font-family="Arial" font-size="14.00" fill="#666666">[timestamp without time zone]</text>
</g>
<!-- public.rule_group_rel&#45;&gt;public.ir_rule -->
<g id="edge1" class="edge">
<title>public.rule_group_rel:rule_group_id&#45;&gt;public.ir_rule:id</title>
<path fill="none" stroke="#000000" d="M368.8265,-665.9415C342.2989,-656.5727 358.7699,-607.1333 379,-577 402.5538,-541.9158 443.4462,-576.0842 467,-541 490.1626,-506.4985 508.5556,-447.5 467,-447.5"/>
<polygon fill="#000000" stroke="#000000" points="369.1153,-665.9856 378.3185,-671.9481 374.0577,-666.7428 379,-667.5 379,-667.5 379,-667.5 374.0577,-666.7428 379.6815,-663.0519 369.1153,-665.9856 369.1153,-665.9856"/>
<text text-anchor="start" x="7.219" y="-677.5" font-family="Arial" font-size="10.00" fill="#000000">FOREIGN KEY (rule_group_id) REFERENCES ir_rule(id) ON DELETE CASCADE</text>
</g>
<!-- public.res_groups -->
<g id="node3" class="node">
<title>public.res_groups</title>
<polygon fill="#efefef" stroke="transparent" points="571,-402.5 571,-437.5 847,-437.5 847,-402.5 571,-402.5"/>
<polygon fill="none" stroke="#000000" points="571,-402.5 571,-437.5 847,-437.5 847,-402.5 571,-402.5"/>
<text text-anchor="start" x="589.3577" y="-415.3" font-family="Arial Bold" font-size="18.00" fill="#000000">public.res_groups</text>
<text text-anchor="start" x="731.3885" y="-415.3" font-family="Arial" font-size="14.00" fill="#000000"> </text>
<text text-anchor="start" x="735.2791" y="-415.3" font-family="Arial" font-size="14.00" fill="#666666">[BASE TABLE]</text>
<polygon fill="none" stroke="#000000" points="571,-372.5 571,-402.5 847,-402.5 847,-372.5 571,-372.5"/>
<text text-anchor="start" x="578" y="-383.9" font-family="Arial" font-size="14.00" fill="#000000">id </text>
<text text-anchor="start" x="592.7798" y="-383.9" font-family="Arial" font-size="14.00" fill="#666666">[integer]</text>
<polygon fill="none" stroke="#000000" points="571,-342.5 571,-372.5 847,-372.5 847,-342.5 571,-342.5"/>
<text text-anchor="start" x="578" y="-353.9" font-family="Arial" font-size="14.00" fill="#000000">name </text>
<text text-anchor="start" x="616.899" y="-353.9" font-family="Arial" font-size="14.00" fill="#666666">[varchar]</text>
<polygon fill="none" stroke="#000000" points="571,-312.5 571,-342.5 847,-342.5 847,-312.5 571,-312.5"/>
<text text-anchor="start" x="578" y="-323.9" font-family="Arial" font-size="14.00" fill="#000000">comment </text>
<text text-anchor="start" x="639.4502" y="-323.9" font-family="Arial" font-size="14.00" fill="#666666">[text]</text>
<polygon fill="none" stroke="#000000" points="571,-282.5 571,-312.5 847,-312.5 847,-282.5 571,-282.5"/>
<text text-anchor="start" x="578" y="-293.9" font-family="Arial" font-size="14.00" fill="#000000">category_id </text>
<text text-anchor="start" x="654.244" y="-293.9" font-family="Arial" font-size="14.00" fill="#666666">[integer]</text>
<polygon fill="none" stroke="#000000" points="571,-252.5 571,-282.5 847,-282.5 847,-252.5 571,-252.5"/>
<text text-anchor="start" x="578" y="-263.9" font-family="Arial" font-size="14.00" fill="#000000">color </text>
<text text-anchor="start" x="612.223" y="-263.9" font-family="Arial" font-size="14.00" fill="#666666">[integer]</text>
<polygon fill="none" stroke="#000000" points="571,-222.5 571,-252.5 847,-252.5 847,-222.5 571,-222.5"/>
<text text-anchor="start" x="578" y="-233.9" font-family="Arial" font-size="14.00" fill="#000000">share </text>
<text text-anchor="start" x="616.899" y="-233.9" font-family="Arial" font-size="14.00" fill="#666666">[boolean]</text>
<polygon fill="none" stroke="#000000" points="571,-192.5 571,-222.5 847,-222.5 847,-192.5 571,-192.5"/>
<text text-anchor="start" x="578" y="-203.9" font-family="Arial" font-size="14.00" fill="#000000">create_uid </text>
<text text-anchor="start" x="647.244" y="-203.9" font-family="Arial" font-size="14.00" fill="#666666">[integer]</text>
<polygon fill="none" stroke="#000000" points="571,-162.5 571,-192.5 847,-192.5 847,-162.5 571,-162.5"/>
<text text-anchor="start" x="577.5246" y="-173.9" font-family="Arial" font-size="14.00" fill="#000000">create_date </text>
<text text-anchor="start" x="655.3352" y="-173.9" font-family="Arial" font-size="14.00" fill="#666666">[timestamp without time zone]</text>
<polygon fill="none" stroke="#000000" points="571,-132.5 571,-162.5 847,-162.5 847,-132.5 571,-132.5"/>
<text text-anchor="start" x="578" y="-143.9" font-family="Arial" font-size="14.00" fill="#000000">write_uid </text>
<text text-anchor="start" x="637.892" y="-143.9" font-family="Arial" font-size="14.00" fill="#666666">[integer]</text>
<polygon fill="none" stroke="#000000" points="571,-102.5 571,-132.5 847,-132.5 847,-102.5 571,-102.5"/>
<text text-anchor="start" x="578" y="-113.9" font-family="Arial" font-size="14.00" fill="#000000">write_date </text>
<text text-anchor="start" x="646.4586" y="-113.9" font-family="Arial" font-size="14.00" fill="#666666">[timestamp without time zone]</text>
</g>
<!-- public.rule_group_rel&#45;&gt;public.res_groups -->
<g id="edge2" class="edge">
<title>public.rule_group_rel:group_id&#45;&gt;public.res_groups:id</title>
<path fill="none" stroke="#000000" d="M667.9012,-634.8424C679.4439,-626.1582 666.089,-597.9715 658,-577 637.2784,-523.2769 591.7216,-534.7231 571,-481 556.0454,-442.2286 529.4444,-387.5 571,-387.5"/>
<polygon fill="#000000" stroke="#000000" points="667.6582,-634.9076 656.8334,-633.1538 662.8291,-636.2038 658,-637.5 658,-637.5 658,-637.5 662.8291,-636.2038 659.1666,-641.8462 667.6582,-634.9076 667.6582,-634.9076"/>
<text text-anchor="start" x="665.212" y="-647.5" font-family="Arial" font-size="10.00" fill="#000000">FOREIGN KEY (group_id) REFERENCES res_groups(id) ON DELETE CASCADE</text>
</g>
</g>
</svg>
