<?xml version="1.0" encoding="UTF-8" standalone="no"?>
<!DOCTYPE svg PUBLIC "-//W3C//DTD SVG 1.1//EN"
 "http://www.w3.org/Graphics/SVG/1.1/DTD/svg11.dtd">
<!-- Generated by graphviz version 2.40.1 (20161225.0304)
 -->
<!-- Title: public.product_style_product_template_rel Pages: 1 -->
<svg width="1337pt" height="2122pt"
 viewBox="0.00 0.00 1337.00 2122.00" xmlns="http://www.w3.org/2000/svg" xmlns:xlink="http://www.w3.org/1999/xlink">
<g id="graph0" class="graph" transform="scale(1 1) rotate(0) translate(4 2118)">
<title>public.product_style_product_template_rel</title>
<polygon fill="#ffffff" stroke="transparent" points="-4,4 -4,-2118 1333,-2118 1333,4 -4,4"/>
<!-- public.product_style_product_template_rel -->
<g id="node1" class="node">
<title>public.product_style_product_template_rel</title>
<polygon fill="#efefef" stroke="transparent" points="458,-2032.5 458,-2067.5 907,-2067.5 907,-2032.5 458,-2032.5"/>
<polygon fill="none" stroke="#000000" points="458,-2032.5 458,-2067.5 907,-2067.5 907,-2032.5 458,-2032.5"/>
<text text-anchor="start" x="464.8315" y="-2045.3" font-family="Arial Bold" font-size="18.00" fill="#000000">public.product_style_product_template_rel</text>
<text text-anchor="start" x="802.9147" y="-2045.3" font-family="Arial" font-size="14.00" fill="#000000"> </text>
<text text-anchor="start" x="806.8053" y="-2045.3" font-family="Arial" font-size="14.00" fill="#666666">[BASE TABLE]</text>
<polygon fill="none" stroke="#000000" points="458,-2002.5 458,-2032.5 907,-2032.5 907,-2002.5 458,-2002.5"/>
<text text-anchor="start" x="465" y="-2013.9" font-family="Arial" font-size="14.00" fill="#000000">product_template_id </text>
<text text-anchor="start" x="595.7054" y="-2013.9" font-family="Arial" font-size="14.00" fill="#666666">[integer]</text>
<polygon fill="none" stroke="#000000" points="458,-1972.5 458,-2002.5 907,-2002.5 907,-1972.5 458,-1972.5"/>
<text text-anchor="start" x="465" y="-1983.9" font-family="Arial" font-size="14.00" fill="#000000">product_style_id </text>
<text text-anchor="start" x="570.8064" y="-1983.9" font-family="Arial" font-size="14.00" fill="#666666">[integer]</text>
<polygon fill="none" stroke="#000000" stroke-width="3" points="456,-1971.5 456,-2069.5 908,-2069.5 908,-1971.5 456,-1971.5"/>
</g>
<!-- public.product_template -->
<g id="node2" class="node">
<title>public.product_template</title>
<polygon fill="#efefef" stroke="transparent" points="336,-1812.5 336,-1847.5 638,-1847.5 638,-1812.5 336,-1812.5"/>
<polygon fill="none" stroke="#000000" points="336,-1812.5 336,-1847.5 638,-1847.5 638,-1812.5 336,-1812.5"/>
<text text-anchor="start" x="342.848" y="-1825.3" font-family="Arial Bold" font-size="18.00" fill="#000000">public.product_template</text>
<text text-anchor="start" x="533.8982" y="-1825.3" font-family="Arial" font-size="14.00" fill="#000000"> </text>
<text text-anchor="start" x="537.7888" y="-1825.3" font-family="Arial" font-size="14.00" fill="#666666">[BASE TABLE]</text>
<polygon fill="none" stroke="#000000" points="336,-1782.5 336,-1812.5 638,-1812.5 638,-1782.5 336,-1782.5"/>
<text text-anchor="start" x="343" y="-1793.9" font-family="Arial" font-size="14.00" fill="#000000">id </text>
<text text-anchor="start" x="357.7798" y="-1793.9" font-family="Arial" font-size="14.00" fill="#666666">[integer]</text>
<polygon fill="none" stroke="#000000" points="336,-1752.5 336,-1782.5 638,-1782.5 638,-1752.5 336,-1752.5"/>
<text text-anchor="start" x="343" y="-1763.9" font-family="Arial" font-size="14.00" fill="#000000">message_main_attachment_id </text>
<text text-anchor="start" x="537.4964" y="-1763.9" font-family="Arial" font-size="14.00" fill="#666666">[integer]</text>
<polygon fill="none" stroke="#000000" points="336,-1722.5 336,-1752.5 638,-1752.5 638,-1722.5 336,-1722.5"/>
<text text-anchor="start" x="343" y="-1733.9" font-family="Arial" font-size="14.00" fill="#000000">name </text>
<text text-anchor="start" x="381.899" y="-1733.9" font-family="Arial" font-size="14.00" fill="#666666">[varchar]</text>
<polygon fill="none" stroke="#000000" points="336,-1692.5 336,-1722.5 638,-1722.5 638,-1692.5 336,-1692.5"/>
<text text-anchor="start" x="343" y="-1703.9" font-family="Arial" font-size="14.00" fill="#000000">sequence </text>
<text text-anchor="start" x="407.5862" y="-1703.9" font-family="Arial" font-size="14.00" fill="#666666">[integer]</text>
<polygon fill="none" stroke="#000000" points="336,-1662.5 336,-1692.5 638,-1692.5 638,-1662.5 336,-1662.5"/>
<text text-anchor="start" x="343" y="-1673.9" font-family="Arial" font-size="14.00" fill="#000000">description </text>
<text text-anchor="start" x="414.568" y="-1673.9" font-family="Arial" font-size="14.00" fill="#666666">[text]</text>
<polygon fill="none" stroke="#000000" points="336,-1632.5 336,-1662.5 638,-1662.5 638,-1632.5 336,-1632.5"/>
<text text-anchor="start" x="343" y="-1643.9" font-family="Arial" font-size="14.00" fill="#000000">description_purchase </text>
<text text-anchor="start" x="479.9242" y="-1643.9" font-family="Arial" font-size="14.00" fill="#666666">[text]</text>
<polygon fill="none" stroke="#000000" points="336,-1602.5 336,-1632.5 638,-1632.5 638,-1602.5 336,-1602.5"/>
<text text-anchor="start" x="343" y="-1613.9" font-family="Arial" font-size="14.00" fill="#000000">description_sale </text>
<text text-anchor="start" x="448.0224" y="-1613.9" font-family="Arial" font-size="14.00" fill="#666666">[text]</text>
<polygon fill="none" stroke="#000000" points="336,-1572.5 336,-1602.5 638,-1602.5 638,-1572.5 336,-1572.5"/>
<text text-anchor="start" x="343" y="-1583.9" font-family="Arial" font-size="14.00" fill="#000000">type </text>
<text text-anchor="start" x="373.3464" y="-1583.9" font-family="Arial" font-size="14.00" fill="#666666">[varchar]</text>
<polygon fill="none" stroke="#000000" points="336,-1542.5 336,-1572.5 638,-1572.5 638,-1542.5 336,-1542.5"/>
<text text-anchor="start" x="343" y="-1553.9" font-family="Arial" font-size="14.00" fill="#000000">rental </text>
<text text-anchor="start" x="381.8962" y="-1553.9" font-family="Arial" font-size="14.00" fill="#666666">[boolean]</text>
<polygon fill="none" stroke="#000000" points="336,-1512.5 336,-1542.5 638,-1542.5 638,-1512.5 336,-1512.5"/>
<text text-anchor="start" x="343" y="-1523.9" font-family="Arial" font-size="14.00" fill="#000000">categ_id </text>
<text text-anchor="start" x="399.8008" y="-1523.9" font-family="Arial" font-size="14.00" fill="#666666">[integer]</text>
<polygon fill="none" stroke="#000000" points="336,-1482.5 336,-1512.5 638,-1512.5 638,-1482.5 336,-1482.5"/>
<text text-anchor="start" x="343" y="-1493.9" font-family="Arial" font-size="14.00" fill="#000000">list_price </text>
<text text-anchor="start" x="402.1094" y="-1493.9" font-family="Arial" font-size="14.00" fill="#666666">[numeric]</text>
<polygon fill="none" stroke="#000000" points="336,-1452.5 336,-1482.5 638,-1482.5 638,-1452.5 336,-1452.5"/>
<text text-anchor="start" x="343" y="-1463.9" font-family="Arial" font-size="14.00" fill="#000000">volume </text>
<text text-anchor="start" x="392.0056" y="-1463.9" font-family="Arial" font-size="14.00" fill="#666666">[double precision]</text>
<polygon fill="none" stroke="#000000" points="336,-1422.5 336,-1452.5 638,-1452.5 638,-1422.5 336,-1422.5"/>
<text text-anchor="start" x="343" y="-1433.9" font-family="Arial" font-size="14.00" fill="#000000">weight </text>
<text text-anchor="start" x="387.3422" y="-1433.9" font-family="Arial" font-size="14.00" fill="#666666">[numeric]</text>
<polygon fill="none" stroke="#000000" points="336,-1392.5 336,-1422.5 638,-1422.5 638,-1392.5 336,-1392.5"/>
<text text-anchor="start" x="343" y="-1403.9" font-family="Arial" font-size="14.00" fill="#000000">sale_ok </text>
<text text-anchor="start" x="395.1276" y="-1403.9" font-family="Arial" font-size="14.00" fill="#666666">[boolean]</text>
<polygon fill="none" stroke="#000000" points="336,-1362.5 336,-1392.5 638,-1392.5 638,-1362.5 336,-1362.5"/>
<text text-anchor="start" x="343" y="-1373.9" font-family="Arial" font-size="14.00" fill="#000000">purchase_ok </text>
<text text-anchor="start" x="427.0294" y="-1373.9" font-family="Arial" font-size="14.00" fill="#666666">[boolean]</text>
<polygon fill="none" stroke="#000000" points="336,-1332.5 336,-1362.5 638,-1362.5 638,-1332.5 336,-1332.5"/>
<text text-anchor="start" x="343" y="-1343.9" font-family="Arial" font-size="14.00" fill="#000000">uom_id </text>
<text text-anchor="start" x="392.7882" y="-1343.9" font-family="Arial" font-size="14.00" fill="#666666">[integer]</text>
<polygon fill="none" stroke="#000000" points="336,-1302.5 336,-1332.5 638,-1332.5 638,-1302.5 336,-1302.5"/>
<text text-anchor="start" x="343" y="-1313.9" font-family="Arial" font-size="14.00" fill="#000000">uom_po_id </text>
<text text-anchor="start" x="416.136" y="-1313.9" font-family="Arial" font-size="14.00" fill="#666666">[integer]</text>
<polygon fill="none" stroke="#000000" points="336,-1272.5 336,-1302.5 638,-1302.5 638,-1272.5 336,-1272.5"/>
<text text-anchor="start" x="343" y="-1283.9" font-family="Arial" font-size="14.00" fill="#000000">company_id </text>
<text text-anchor="start" x="422.3534" y="-1283.9" font-family="Arial" font-size="14.00" fill="#666666">[integer]</text>
<polygon fill="none" stroke="#000000" points="336,-1242.5 336,-1272.5 638,-1272.5 638,-1242.5 336,-1242.5"/>
<text text-anchor="start" x="343" y="-1253.9" font-family="Arial" font-size="14.00" fill="#000000">active </text>
<text text-anchor="start" x="383.453" y="-1253.9" font-family="Arial" font-size="14.00" fill="#666666">[boolean]</text>
<polygon fill="none" stroke="#000000" points="336,-1212.5 336,-1242.5 638,-1242.5 638,-1212.5 336,-1212.5"/>
<text text-anchor="start" x="343" y="-1223.9" font-family="Arial" font-size="14.00" fill="#000000">color </text>
<text text-anchor="start" x="377.223" y="-1223.9" font-family="Arial" font-size="14.00" fill="#666666">[integer]</text>
<polygon fill="none" stroke="#000000" points="336,-1182.5 336,-1212.5 638,-1212.5 638,-1182.5 336,-1182.5"/>
<text text-anchor="start" x="343" y="-1193.9" font-family="Arial" font-size="14.00" fill="#000000">default_code </text>
<text text-anchor="start" x="427.0392" y="-1193.9" font-family="Arial" font-size="14.00" fill="#666666">[varchar]</text>
<polygon fill="none" stroke="#000000" points="336,-1152.5 336,-1182.5 638,-1182.5 638,-1152.5 336,-1152.5"/>
<text text-anchor="start" x="343" y="-1163.9" font-family="Arial" font-size="14.00" fill="#000000">create_uid </text>
<text text-anchor="start" x="412.244" y="-1163.9" font-family="Arial" font-size="14.00" fill="#666666">[integer]</text>
<polygon fill="none" stroke="#000000" points="336,-1122.5 336,-1152.5 638,-1152.5 638,-1122.5 336,-1122.5"/>
<text text-anchor="start" x="343" y="-1133.9" font-family="Arial" font-size="14.00" fill="#000000">create_date </text>
<text text-anchor="start" x="420.8106" y="-1133.9" font-family="Arial" font-size="14.00" fill="#666666">[timestamp without time zone]</text>
<polygon fill="none" stroke="#000000" points="336,-1092.5 336,-1122.5 638,-1122.5 638,-1092.5 336,-1092.5"/>
<text text-anchor="start" x="343" y="-1103.9" font-family="Arial" font-size="14.00" fill="#000000">write_uid </text>
<text text-anchor="start" x="402.892" y="-1103.9" font-family="Arial" font-size="14.00" fill="#666666">[integer]</text>
<polygon fill="none" stroke="#000000" points="336,-1062.5 336,-1092.5 638,-1092.5 638,-1062.5 336,-1062.5"/>
<text text-anchor="start" x="343" y="-1073.9" font-family="Arial" font-size="14.00" fill="#000000">write_date </text>
<text text-anchor="start" x="411.4586" y="-1073.9" font-family="Arial" font-size="14.00" fill="#666666">[timestamp without time zone]</text>
<polygon fill="none" stroke="#000000" points="336,-1032.5 336,-1062.5 638,-1062.5 638,-1032.5 336,-1032.5"/>
<text text-anchor="start" x="343" y="-1043.9" font-family="Arial" font-size="14.00" fill="#000000">service_type </text>
<text text-anchor="start" x="425.4614" y="-1043.9" font-family="Arial" font-size="14.00" fill="#666666">[varchar]</text>
<polygon fill="none" stroke="#000000" points="336,-1002.5 336,-1032.5 638,-1032.5 638,-1002.5 336,-1002.5"/>
<text text-anchor="start" x="343" y="-1013.9" font-family="Arial" font-size="14.00" fill="#000000">sale_line_warn </text>
<text text-anchor="start" x="440.2384" y="-1013.9" font-family="Arial" font-size="14.00" fill="#666666">[varchar]</text>
<polygon fill="none" stroke="#000000" points="336,-972.5 336,-1002.5 638,-1002.5 638,-972.5 336,-972.5"/>
<text text-anchor="start" x="343" y="-983.9" font-family="Arial" font-size="14.00" fill="#000000">sale_line_warn_msg </text>
<text text-anchor="start" x="474.4642" y="-983.9" font-family="Arial" font-size="14.00" fill="#666666">[text]</text>
<polygon fill="none" stroke="#000000" points="336,-942.5 336,-972.5 638,-972.5 638,-942.5 336,-942.5"/>
<text text-anchor="start" x="343" y="-953.9" font-family="Arial" font-size="14.00" fill="#000000">expense_policy </text>
<text text-anchor="start" x="443.3646" y="-953.9" font-family="Arial" font-size="14.00" fill="#666666">[varchar]</text>
<polygon fill="none" stroke="#000000" points="336,-912.5 336,-942.5 638,-942.5 638,-912.5 336,-912.5"/>
<text text-anchor="start" x="343" y="-923.9" font-family="Arial" font-size="14.00" fill="#000000">invoice_policy </text>
<text text-anchor="start" x="434.0126" y="-923.9" font-family="Arial" font-size="14.00" fill="#666666">[varchar]</text>
<polygon fill="none" stroke="#000000" points="336,-882.5 336,-912.5 638,-912.5 638,-882.5 336,-882.5"/>
<text text-anchor="start" x="343" y="-893.9" font-family="Arial" font-size="14.00" fill="#000000">website_id </text>
<text text-anchor="start" x="413.014" y="-893.9" font-family="Arial" font-size="14.00" fill="#666666">[integer]</text>
<polygon fill="none" stroke="#000000" points="336,-852.5 336,-882.5 638,-882.5 638,-852.5 336,-852.5"/>
<text text-anchor="start" x="343" y="-863.9" font-family="Arial" font-size="14.00" fill="#000000">is_published </text>
<text text-anchor="start" x="424.6886" y="-863.9" font-family="Arial" font-size="14.00" fill="#666666">[boolean]</text>
<polygon fill="none" stroke="#000000" points="336,-822.5 336,-852.5 638,-852.5 638,-822.5 336,-822.5"/>
<text text-anchor="start" x="343" y="-833.9" font-family="Arial" font-size="14.00" fill="#000000">website_meta_title </text>
<text text-anchor="start" x="462.8008" y="-833.9" font-family="Arial" font-size="14.00" fill="#666666">[varchar]</text>
<polygon fill="none" stroke="#000000" points="336,-792.5 336,-822.5 638,-822.5 638,-792.5 336,-792.5"/>
<text text-anchor="start" x="343" y="-803.9" font-family="Arial" font-size="14.00" fill="#000000">website_meta_description </text>
<text text-anchor="start" x="508.7012" y="-803.9" font-family="Arial" font-size="14.00" fill="#666666">[text]</text>
<polygon fill="none" stroke="#000000" points="336,-762.5 336,-792.5 638,-792.5 638,-762.5 336,-762.5"/>
<text text-anchor="start" x="343" y="-773.9" font-family="Arial" font-size="14.00" fill="#000000">website_meta_keywords </text>
<text text-anchor="start" x="500.1388" y="-773.9" font-family="Arial" font-size="14.00" fill="#666666">[varchar]</text>
<polygon fill="none" stroke="#000000" points="336,-732.5 336,-762.5 638,-762.5 638,-732.5 336,-732.5"/>
<text text-anchor="start" x="343" y="-743.9" font-family="Arial" font-size="14.00" fill="#000000">website_meta_og_img </text>
<text text-anchor="start" x="486.9214" y="-743.9" font-family="Arial" font-size="14.00" fill="#666666">[varchar]</text>
<polygon fill="none" stroke="#000000" points="336,-702.5 336,-732.5 638,-732.5 638,-702.5 336,-702.5"/>
<text text-anchor="start" x="343" y="-713.9" font-family="Arial" font-size="14.00" fill="#000000">rating_last_value </text>
<text text-anchor="start" x="452.6956" y="-713.9" font-family="Arial" font-size="14.00" fill="#666666">[double precision]</text>
<polygon fill="none" stroke="#000000" points="336,-672.5 336,-702.5 638,-702.5 638,-672.5 336,-672.5"/>
<text text-anchor="start" x="343" y="-683.9" font-family="Arial" font-size="14.00" fill="#000000">website_description </text>
<text text-anchor="start" x="469.8022" y="-683.9" font-family="Arial" font-size="14.00" fill="#666666">[text]</text>
<polygon fill="none" stroke="#000000" points="336,-642.5 336,-672.5 638,-672.5 638,-642.5 336,-642.5"/>
<text text-anchor="start" x="343" y="-653.9" font-family="Arial" font-size="14.00" fill="#000000">website_size_x </text>
<text text-anchor="start" x="441.7966" y="-653.9" font-family="Arial" font-size="14.00" fill="#666666">[integer]</text>
<polygon fill="none" stroke="#000000" points="336,-612.5 336,-642.5 638,-642.5 638,-612.5 336,-612.5"/>
<text text-anchor="start" x="343" y="-623.9" font-family="Arial" font-size="14.00" fill="#000000">website_size_y </text>
<text text-anchor="start" x="441.7966" y="-623.9" font-family="Arial" font-size="14.00" fill="#666666">[integer]</text>
<polygon fill="none" stroke="#000000" points="336,-582.5 336,-612.5 638,-612.5 638,-582.5 336,-582.5"/>
<text text-anchor="start" x="343" y="-593.9" font-family="Arial" font-size="14.00" fill="#000000">website_sequence </text>
<text text-anchor="start" x="462.8204" y="-593.9" font-family="Arial" font-size="14.00" fill="#666666">[integer]</text>
<polygon fill="none" stroke="#000000" points="336,-552.5 336,-582.5 638,-582.5 638,-552.5 336,-552.5"/>
<text text-anchor="start" x="343" y="-563.9" font-family="Arial" font-size="14.00" fill="#000000">responsible_id </text>
<text text-anchor="start" x="437.1318" y="-563.9" font-family="Arial" font-size="14.00" fill="#666666">[integer]</text>
<polygon fill="none" stroke="#000000" points="336,-522.5 336,-552.5 638,-552.5 638,-522.5 336,-522.5"/>
<text text-anchor="start" x="343" y="-533.9" font-family="Arial" font-size="14.00" fill="#000000">sale_delay </text>
<text text-anchor="start" x="413.7994" y="-533.9" font-family="Arial" font-size="14.00" fill="#666666">[double precision]</text>
<polygon fill="none" stroke="#000000" points="336,-492.5 336,-522.5 638,-522.5 638,-492.5 336,-492.5"/>
<text text-anchor="start" x="343" y="-503.9" font-family="Arial" font-size="14.00" fill="#000000">tracking </text>
<text text-anchor="start" x="395.8962" y="-503.9" font-family="Arial" font-size="14.00" fill="#666666">[varchar]</text>
<polygon fill="none" stroke="#000000" points="336,-462.5 336,-492.5 638,-492.5 638,-462.5 336,-462.5"/>
<text text-anchor="start" x="343" y="-473.9" font-family="Arial" font-size="14.00" fill="#000000">description_picking </text>
<text text-anchor="start" x="465.9116" y="-473.9" font-family="Arial" font-size="14.00" fill="#666666">[text]</text>
<polygon fill="none" stroke="#000000" points="336,-432.5 336,-462.5 638,-462.5 638,-432.5 336,-432.5"/>
<text text-anchor="start" x="343" y="-443.9" font-family="Arial" font-size="14.00" fill="#000000">description_pickingout </text>
<text text-anchor="start" x="485.3674" y="-443.9" font-family="Arial" font-size="14.00" fill="#666666">[text]</text>
<polygon fill="none" stroke="#000000" points="336,-402.5 336,-432.5 638,-432.5 638,-402.5 336,-402.5"/>
<text text-anchor="start" x="343" y="-413.9" font-family="Arial" font-size="14.00" fill="#000000">description_pickingin </text>
<text text-anchor="start" x="476.8008" y="-413.9" font-family="Arial" font-size="14.00" fill="#666666">[text]</text>
<polygon fill="none" stroke="#000000" points="336,-372.5 336,-402.5 638,-402.5 638,-372.5 336,-372.5"/>
<text text-anchor="start" x="343" y="-383.9" font-family="Arial" font-size="14.00" fill="#000000">inventory_availability </text>
<text text-anchor="start" x="476.0154" y="-383.9" font-family="Arial" font-size="14.00" fill="#666666">[varchar]</text>
<polygon fill="none" stroke="#000000" points="336,-342.5 336,-372.5 638,-372.5 638,-342.5 336,-342.5"/>
<text text-anchor="start" x="343" y="-353.9" font-family="Arial" font-size="14.00" fill="#000000">available_threshold </text>
<text text-anchor="start" x="467.4768" y="-353.9" font-family="Arial" font-size="14.00" fill="#666666">[double precision]</text>
<polygon fill="none" stroke="#000000" points="336,-312.5 336,-342.5 638,-342.5 638,-312.5 336,-312.5"/>
<text text-anchor="start" x="343" y="-323.9" font-family="Arial" font-size="14.00" fill="#000000">custom_message </text>
<text text-anchor="start" x="456.5806" y="-323.9" font-family="Arial" font-size="14.00" fill="#666666">[text]</text>
<polygon fill="none" stroke="#000000" points="336,-282.5 336,-312.5 638,-312.5 638,-282.5 336,-282.5"/>
<text text-anchor="start" x="343" y="-293.9" font-family="Arial" font-size="14.00" fill="#000000">purchase_method </text>
<text text-anchor="start" x="458.9284" y="-293.9" font-family="Arial" font-size="14.00" fill="#666666">[varchar]</text>
<polygon fill="none" stroke="#000000" points="336,-252.5 336,-282.5 638,-282.5 638,-252.5 336,-252.5"/>
<text text-anchor="start" x="343" y="-263.9" font-family="Arial" font-size="14.00" fill="#000000">purchase_line_warn </text>
<text text-anchor="start" x="472.1402" y="-263.9" font-family="Arial" font-size="14.00" fill="#666666">[varchar]</text>
<polygon fill="none" stroke="#000000" points="336,-222.5 336,-252.5 638,-252.5 638,-222.5 336,-222.5"/>
<text text-anchor="start" x="343" y="-233.9" font-family="Arial" font-size="14.00" fill="#000000">purchase_line_warn_msg </text>
<text text-anchor="start" x="506.366" y="-233.9" font-family="Arial" font-size="14.00" fill="#666666">[text]</text>
<polygon fill="none" stroke="#000000" points="336,-192.5 336,-222.5 638,-222.5 638,-192.5 336,-192.5"/>
<text text-anchor="start" x="343" y="-203.9" font-family="Arial" font-size="14.00" fill="#000000">service_to_purchase </text>
<text text-anchor="start" x="476.035" y="-203.9" font-family="Arial" font-size="14.00" fill="#666666">[boolean]</text>
<polygon fill="none" stroke="#000000" points="336,-162.5 336,-192.5 638,-192.5 638,-162.5 336,-162.5"/>
<text text-anchor="start" x="343" y="-173.9" font-family="Arial" font-size="14.00" fill="#000000">can_be_expensed </text>
<text text-anchor="start" x="461.2818" y="-173.9" font-family="Arial" font-size="14.00" fill="#666666">[boolean]</text>
<polygon fill="none" stroke="#000000" points="336,-132.5 336,-162.5 638,-162.5 638,-132.5 336,-132.5"/>
<text text-anchor="start" x="343" y="-143.9" font-family="Arial" font-size="14.00" fill="#000000">available_in_pos </text>
<text text-anchor="start" x="451.143" y="-143.9" font-family="Arial" font-size="14.00" fill="#666666">[boolean]</text>
<polygon fill="none" stroke="#000000" points="336,-102.5 336,-132.5 638,-132.5 638,-102.5 336,-102.5"/>
<text text-anchor="start" x="343" y="-113.9" font-family="Arial" font-size="14.00" fill="#000000">to_weight </text>
<text text-anchor="start" x="406.798" y="-113.9" font-family="Arial" font-size="14.00" fill="#666666">[boolean]</text>
<polygon fill="none" stroke="#000000" points="336,-72.5 336,-102.5 638,-102.5 638,-72.5 336,-72.5"/>
<text text-anchor="start" x="343" y="-83.9" font-family="Arial" font-size="14.00" fill="#000000">pos_categ_id </text>
<text text-anchor="start" x="430.1486" y="-83.9" font-family="Arial" font-size="14.00" fill="#666666">[integer]</text>
<polygon fill="none" stroke="#000000" points="336,-42.5 336,-72.5 638,-72.5 638,-42.5 336,-42.5"/>
<text text-anchor="start" x="343" y="-53.9" font-family="Arial" font-size="14.00" fill="#000000">produce_delay </text>
<text text-anchor="start" x="438.7012" y="-53.9" font-family="Arial" font-size="14.00" fill="#666666">[double precision]</text>
</g>
<!-- public.product_style_product_template_rel&#45;&gt;public.product_template -->
<g id="edge1" class="edge">
<title>public.product_style_product_template_rel:product_template_id&#45;&gt;public.product_template:id</title>
<path fill="none" stroke="#000000" d="M448.0998,-2016.0062C420.6328,-2006.6122 434.8902,-1955.1894 458,-1927 509.7235,-1863.9074 586.2765,-1954.0926 638,-1891 664.3458,-1858.8633 679.5556,-1797.5 638,-1797.5"/>
<polygon fill="#000000" stroke="#000000" points="448.1119,-2016.0079 457.3286,-2021.9496 453.056,-2016.754 458,-2017.5 458,-2017.5 458,-2017.5 453.056,-2016.754 458.6714,-2013.0504 448.1119,-2016.0079 448.1119,-2016.0079"/>
<text text-anchor="start" x="6.7555" y="-2027.5" font-family="Arial" font-size="10.00" fill="#000000">FOREIGN KEY (product_template_id) REFERENCES product_template(id) ON DELETE CASCADE</text>
</g>
<!-- public.product_style -->
<g id="node3" class="node">
<title>public.product_style</title>
<polygon fill="#efefef" stroke="transparent" points="742,-1032.5 742,-1067.5 1018,-1067.5 1018,-1032.5 742,-1032.5"/>
<polygon fill="none" stroke="#000000" points="742,-1032.5 742,-1067.5 1018,-1067.5 1018,-1032.5 742,-1032.5"/>
<text text-anchor="start" x="751.8545" y="-1045.3" font-family="Arial Bold" font-size="18.00" fill="#000000">public.product_style</text>
<text text-anchor="start" x="910.8917" y="-1045.3" font-family="Arial" font-size="14.00" fill="#000000"> </text>
<text text-anchor="start" x="914.7823" y="-1045.3" font-family="Arial" font-size="14.00" fill="#666666">[BASE TABLE]</text>
<polygon fill="none" stroke="#000000" points="742,-1002.5 742,-1032.5 1018,-1032.5 1018,-1002.5 742,-1002.5"/>
<text text-anchor="start" x="749" y="-1013.9" font-family="Arial" font-size="14.00" fill="#000000">id </text>
<text text-anchor="start" x="763.7798" y="-1013.9" font-family="Arial" font-size="14.00" fill="#666666">[integer]</text>
<polygon fill="none" stroke="#000000" points="742,-972.5 742,-1002.5 1018,-1002.5 1018,-972.5 742,-972.5"/>
<text text-anchor="start" x="749" y="-983.9" font-family="Arial" font-size="14.00" fill="#000000">name </text>
<text text-anchor="start" x="787.899" y="-983.9" font-family="Arial" font-size="14.00" fill="#666666">[varchar]</text>
<polygon fill="none" stroke="#000000" points="742,-942.5 742,-972.5 1018,-972.5 1018,-942.5 742,-942.5"/>
<text text-anchor="start" x="749" y="-953.9" font-family="Arial" font-size="14.00" fill="#000000">html_class </text>
<text text-anchor="start" x="819.0028" y="-953.9" font-family="Arial" font-size="14.00" fill="#666666">[varchar]</text>
<polygon fill="none" stroke="#000000" points="742,-912.5 742,-942.5 1018,-942.5 1018,-912.5 742,-912.5"/>
<text text-anchor="start" x="749" y="-923.9" font-family="Arial" font-size="14.00" fill="#000000">create_uid </text>
<text text-anchor="start" x="818.244" y="-923.9" font-family="Arial" font-size="14.00" fill="#666666">[integer]</text>
<polygon fill="none" stroke="#000000" points="742,-882.5 742,-912.5 1018,-912.5 1018,-882.5 742,-882.5"/>
<text text-anchor="start" x="748.5246" y="-893.9" font-family="Arial" font-size="14.00" fill="#000000">create_date </text>
<text text-anchor="start" x="826.3352" y="-893.9" font-family="Arial" font-size="14.00" fill="#666666">[timestamp without time zone]</text>
<polygon fill="none" stroke="#000000" points="742,-852.5 742,-882.5 1018,-882.5 1018,-852.5 742,-852.5"/>
<text text-anchor="start" x="749" y="-863.9" font-family="Arial" font-size="14.00" fill="#000000">write_uid </text>
<text text-anchor="start" x="808.892" y="-863.9" font-family="Arial" font-size="14.00" fill="#666666">[integer]</text>
<polygon fill="none" stroke="#000000" points="742,-822.5 742,-852.5 1018,-852.5 1018,-822.5 742,-822.5"/>
<text text-anchor="start" x="749" y="-833.9" font-family="Arial" font-size="14.00" fill="#000000">write_date </text>
<text text-anchor="start" x="817.4586" y="-833.9" font-family="Arial" font-size="14.00" fill="#666666">[timestamp without time zone]</text>
</g>
<!-- public.product_style_product_template_rel&#45;&gt;public.product_style -->
<g id="edge2" class="edge">
<title>public.product_style_product_template_rel:product_style_id&#45;&gt;public.product_style:id</title>
<path fill="none" stroke="#000000" d="M917.2186,-1986.7068C1105.8798,-1955.5603 526.9781,-1017.5 742,-1017.5"/>
<polygon fill="#000000" stroke="#000000" points="916.97,-1986.7261 906.6517,-1983.0135 911.985,-1987.113 907,-1987.5 907,-1987.5 907,-1987.5 911.985,-1987.113 907.3483,-1991.9865 916.97,-1986.7261 916.97,-1986.7261"/>
<text text-anchor="start" x="913.5405" y="-1997.5" font-family="Arial" font-size="10.00" fill="#000000">FOREIGN KEY (product_style_id) REFERENCES product_style(id) ON DELETE CASCADE</text>
</g>
</g>
</svg>
