<?xml version="1.0" encoding="UTF-8" standalone="no"?>
<!DOCTYPE svg PUBLIC "-//W3C//DTD SVG 1.1//EN"
 "http://www.w3.org/Graphics/SVG/1.1/DTD/svg11.dtd">
<!-- Generated by graphviz version 2.40.1 (20161225.0304)
 -->
<!-- Title: public.product_removal Pages: 1 -->
<svg width="1036pt" height="2039pt"
 viewBox="0.00 0.00 1036.00 2039.00" xmlns="http://www.w3.org/2000/svg" xmlns:xlink="http://www.w3.org/1999/xlink">
<g id="graph0" class="graph" transform="scale(1 1) rotate(0) translate(4 2035)">
<title>public.product_removal</title>
<polygon fill="#ffffff" stroke="transparent" points="-4,4 -4,-2035 1032,-2035 1032,4 -4,4"/>
<!-- public.product_removal -->
<g id="node1" class="node">
<title>public.product_removal</title>
<polygon fill="#efefef" stroke="transparent" points="351,-1072.5 351,-1107.5 648,-1107.5 648,-1072.5 351,-1072.5"/>
<polygon fill="none" stroke="#000000" points="351,-1072.5 351,-1107.5 648,-1107.5 648,-1072.5 351,-1072.5"/>
<text text-anchor="start" x="357.8572" y="-1085.3" font-family="Arial Bold" font-size="18.00" fill="#000000">public.product_removal</text>
<text text-anchor="start" x="543.889" y="-1085.3" font-family="Arial" font-size="14.00" fill="#000000"> </text>
<text text-anchor="start" x="547.7796" y="-1085.3" font-family="Arial" font-size="14.00" fill="#666666">[BASE TABLE]</text>
<polygon fill="none" stroke="#000000" points="351,-1042.5 351,-1072.5 648,-1072.5 648,-1042.5 351,-1042.5"/>
<text text-anchor="start" x="358" y="-1053.9" font-family="Arial" font-size="14.00" fill="#000000">id </text>
<text text-anchor="start" x="372.7798" y="-1053.9" font-family="Arial" font-size="14.00" fill="#666666">[integer]</text>
<polygon fill="none" stroke="#000000" points="351,-1012.5 351,-1042.5 648,-1042.5 648,-1012.5 351,-1012.5"/>
<text text-anchor="start" x="358" y="-1023.9" font-family="Arial" font-size="14.00" fill="#000000">name </text>
<text text-anchor="start" x="396.899" y="-1023.9" font-family="Arial" font-size="14.00" fill="#666666">[varchar]</text>
<polygon fill="none" stroke="#000000" points="351,-982.5 351,-1012.5 648,-1012.5 648,-982.5 351,-982.5"/>
<text text-anchor="start" x="358" y="-993.9" font-family="Arial" font-size="14.00" fill="#000000">method </text>
<text text-anchor="start" x="408.5722" y="-993.9" font-family="Arial" font-size="14.00" fill="#666666">[varchar]</text>
<polygon fill="none" stroke="#000000" points="351,-952.5 351,-982.5 648,-982.5 648,-952.5 351,-952.5"/>
<text text-anchor="start" x="358" y="-963.9" font-family="Arial" font-size="14.00" fill="#000000">create_uid </text>
<text text-anchor="start" x="427.244" y="-963.9" font-family="Arial" font-size="14.00" fill="#666666">[integer]</text>
<polygon fill="none" stroke="#000000" points="351,-922.5 351,-952.5 648,-952.5 648,-922.5 351,-922.5"/>
<text text-anchor="start" x="358" y="-933.9" font-family="Arial" font-size="14.00" fill="#000000">create_date </text>
<text text-anchor="start" x="435.8106" y="-933.9" font-family="Arial" font-size="14.00" fill="#666666">[timestamp without time zone]</text>
<polygon fill="none" stroke="#000000" points="351,-892.5 351,-922.5 648,-922.5 648,-892.5 351,-892.5"/>
<text text-anchor="start" x="358" y="-903.9" font-family="Arial" font-size="14.00" fill="#000000">write_uid </text>
<text text-anchor="start" x="417.892" y="-903.9" font-family="Arial" font-size="14.00" fill="#666666">[integer]</text>
<polygon fill="none" stroke="#000000" points="351,-862.5 351,-892.5 648,-892.5 648,-862.5 351,-862.5"/>
<text text-anchor="start" x="358" y="-873.9" font-family="Arial" font-size="14.00" fill="#000000">write_date </text>
<text text-anchor="start" x="426.4586" y="-873.9" font-family="Arial" font-size="14.00" fill="#666666">[timestamp without time zone]</text>
<polygon fill="none" stroke="#000000" stroke-width="3" points="349,-861.5 349,-1109.5 649,-1109.5 649,-861.5 349,-861.5"/>
</g>
<!-- public.res_users -->
<g id="node4" class="node">
<title>public.res_users</title>
<polygon fill="#efefef" stroke="transparent" points="362,-702.5 362,-737.5 638,-737.5 638,-702.5 362,-702.5"/>
<polygon fill="none" stroke="#000000" points="362,-702.5 362,-737.5 638,-737.5 638,-702.5 362,-702.5"/>
<text text-anchor="start" x="385.8639" y="-715.3" font-family="Arial Bold" font-size="18.00" fill="#000000">public.res_users</text>
<text text-anchor="start" x="516.8823" y="-715.3" font-family="Arial" font-size="14.00" fill="#000000"> </text>
<text text-anchor="start" x="520.7729" y="-715.3" font-family="Arial" font-size="14.00" fill="#666666">[BASE TABLE]</text>
<polygon fill="none" stroke="#000000" points="362,-672.5 362,-702.5 638,-702.5 638,-672.5 362,-672.5"/>
<text text-anchor="start" x="369" y="-683.9" font-family="Arial" font-size="14.00" fill="#000000">id </text>
<text text-anchor="start" x="383.7798" y="-683.9" font-family="Arial" font-size="14.00" fill="#666666">[integer]</text>
<polygon fill="none" stroke="#000000" points="362,-642.5 362,-672.5 638,-672.5 638,-642.5 362,-642.5"/>
<text text-anchor="start" x="369" y="-653.9" font-family="Arial" font-size="14.00" fill="#000000">active </text>
<text text-anchor="start" x="409.453" y="-653.9" font-family="Arial" font-size="14.00" fill="#666666">[boolean]</text>
<polygon fill="none" stroke="#000000" points="362,-612.5 362,-642.5 638,-642.5 638,-612.5 362,-612.5"/>
<text text-anchor="start" x="369" y="-623.9" font-family="Arial" font-size="14.00" fill="#000000">login </text>
<text text-anchor="start" x="402.4516" y="-623.9" font-family="Arial" font-size="14.00" fill="#666666">[varchar]</text>
<polygon fill="none" stroke="#000000" points="362,-582.5 362,-612.5 638,-612.5 638,-582.5 362,-582.5"/>
<text text-anchor="start" x="369" y="-593.9" font-family="Arial" font-size="14.00" fill="#000000">password </text>
<text text-anchor="start" x="432.7882" y="-593.9" font-family="Arial" font-size="14.00" fill="#666666">[varchar]</text>
<polygon fill="none" stroke="#000000" points="362,-552.5 362,-582.5 638,-582.5 638,-552.5 362,-552.5"/>
<text text-anchor="start" x="369" y="-563.9" font-family="Arial" font-size="14.00" fill="#000000">company_id </text>
<text text-anchor="start" x="448.3534" y="-563.9" font-family="Arial" font-size="14.00" fill="#666666">[integer]</text>
<polygon fill="none" stroke="#000000" points="362,-522.5 362,-552.5 638,-552.5 638,-522.5 362,-522.5"/>
<text text-anchor="start" x="369" y="-533.9" font-family="Arial" font-size="14.00" fill="#000000">partner_id </text>
<text text-anchor="start" x="435.9046" y="-533.9" font-family="Arial" font-size="14.00" fill="#666666">[integer]</text>
<polygon fill="none" stroke="#000000" points="362,-492.5 362,-522.5 638,-522.5 638,-492.5 362,-492.5"/>
<text text-anchor="start" x="368.5246" y="-503.9" font-family="Arial" font-size="14.00" fill="#000000">create_date </text>
<text text-anchor="start" x="446.3352" y="-503.9" font-family="Arial" font-size="14.00" fill="#666666">[timestamp without time zone]</text>
<polygon fill="none" stroke="#000000" points="362,-462.5 362,-492.5 638,-492.5 638,-462.5 362,-462.5"/>
<text text-anchor="start" x="369" y="-473.9" font-family="Arial" font-size="14.00" fill="#000000">signature </text>
<text text-anchor="start" x="430.4614" y="-473.9" font-family="Arial" font-size="14.00" fill="#666666">[text]</text>
<polygon fill="none" stroke="#000000" points="362,-432.5 362,-462.5 638,-462.5 638,-432.5 362,-432.5"/>
<text text-anchor="start" x="369" y="-443.9" font-family="Arial" font-size="14.00" fill="#000000">action_id </text>
<text text-anchor="start" x="428.9074" y="-443.9" font-family="Arial" font-size="14.00" fill="#666666">[integer]</text>
<polygon fill="none" stroke="#000000" points="362,-402.5 362,-432.5 638,-432.5 638,-402.5 362,-402.5"/>
<text text-anchor="start" x="369" y="-413.9" font-family="Arial" font-size="14.00" fill="#000000">share </text>
<text text-anchor="start" x="407.899" y="-413.9" font-family="Arial" font-size="14.00" fill="#666666">[boolean]</text>
<polygon fill="none" stroke="#000000" points="362,-372.5 362,-402.5 638,-402.5 638,-372.5 362,-372.5"/>
<text text-anchor="start" x="369" y="-383.9" font-family="Arial" font-size="14.00" fill="#000000">create_uid </text>
<text text-anchor="start" x="438.244" y="-383.9" font-family="Arial" font-size="14.00" fill="#666666">[integer]</text>
<polygon fill="none" stroke="#000000" points="362,-342.5 362,-372.5 638,-372.5 638,-342.5 362,-342.5"/>
<text text-anchor="start" x="369" y="-353.9" font-family="Arial" font-size="14.00" fill="#000000">write_uid </text>
<text text-anchor="start" x="428.892" y="-353.9" font-family="Arial" font-size="14.00" fill="#666666">[integer]</text>
<polygon fill="none" stroke="#000000" points="362,-312.5 362,-342.5 638,-342.5 638,-312.5 362,-312.5"/>
<text text-anchor="start" x="369" y="-323.9" font-family="Arial" font-size="14.00" fill="#000000">write_date </text>
<text text-anchor="start" x="437.4586" y="-323.9" font-family="Arial" font-size="14.00" fill="#666666">[timestamp without time zone]</text>
<polygon fill="none" stroke="#000000" points="362,-282.5 362,-312.5 638,-312.5 638,-282.5 362,-282.5"/>
<text text-anchor="start" x="369" y="-293.9" font-family="Arial" font-size="14.00" fill="#000000">alias_id </text>
<text text-anchor="start" x="420.3408" y="-293.9" font-family="Arial" font-size="14.00" fill="#666666">[integer]</text>
<polygon fill="none" stroke="#000000" points="362,-252.5 362,-282.5 638,-282.5 638,-252.5 362,-252.5"/>
<text text-anchor="start" x="369" y="-263.9" font-family="Arial" font-size="14.00" fill="#000000">notification_type </text>
<text text-anchor="start" x="474.0336" y="-263.9" font-family="Arial" font-size="14.00" fill="#666666">[varchar]</text>
<polygon fill="none" stroke="#000000" points="362,-222.5 362,-252.5 638,-252.5 638,-222.5 362,-222.5"/>
<text text-anchor="start" x="369" y="-233.9" font-family="Arial" font-size="14.00" fill="#000000">odoobot_state </text>
<text text-anchor="start" x="461.6058" y="-233.9" font-family="Arial" font-size="14.00" fill="#666666">[varchar]</text>
<polygon fill="none" stroke="#000000" points="362,-192.5 362,-222.5 638,-222.5 638,-192.5 362,-192.5"/>
<text text-anchor="start" x="369" y="-203.9" font-family="Arial" font-size="14.00" fill="#000000">sale_team_id </text>
<text text-anchor="start" x="456.1332" y="-203.9" font-family="Arial" font-size="14.00" fill="#666666">[integer]</text>
<polygon fill="none" stroke="#000000" points="362,-162.5 362,-192.5 638,-192.5 638,-162.5 362,-162.5"/>
<text text-anchor="start" x="369" y="-173.9" font-family="Arial" font-size="14.00" fill="#000000">target_sales_won </text>
<text text-anchor="start" x="482.589" y="-173.9" font-family="Arial" font-size="14.00" fill="#666666">[integer]</text>
<polygon fill="none" stroke="#000000" points="362,-132.5 362,-162.5 638,-162.5 638,-132.5 362,-132.5"/>
<text text-anchor="start" x="369" y="-143.9" font-family="Arial" font-size="14.00" fill="#000000">target_sales_done </text>
<text text-anchor="start" x="488.0476" y="-143.9" font-family="Arial" font-size="14.00" fill="#666666">[integer]</text>
<polygon fill="none" stroke="#000000" points="362,-102.5 362,-132.5 638,-132.5 638,-102.5 362,-102.5"/>
<text text-anchor="start" x="369" y="-113.9" font-family="Arial" font-size="14.00" fill="#000000">website_id </text>
<text text-anchor="start" x="439.014" y="-113.9" font-family="Arial" font-size="14.00" fill="#666666">[integer]</text>
<polygon fill="none" stroke="#000000" points="362,-72.5 362,-102.5 638,-102.5 638,-72.5 362,-72.5"/>
<text text-anchor="start" x="369" y="-83.9" font-family="Arial" font-size="14.00" fill="#000000">target_sales_invoiced </text>
<text text-anchor="start" x="508.2608" y="-83.9" font-family="Arial" font-size="14.00" fill="#666666">[integer]</text>
<polygon fill="none" stroke="#000000" points="362,-42.5 362,-72.5 638,-72.5 638,-42.5 362,-42.5"/>
<text text-anchor="start" x="369" y="-53.9" font-family="Arial" font-size="14.00" fill="#000000">pos_security_pin </text>
<text text-anchor="start" x="477.9158" y="-53.9" font-family="Arial" font-size="14.00" fill="#666666">[varchar(32)]</text>
</g>
<!-- public.product_removal&#45;&gt;public.res_users -->
<g id="edge3" class="edge">
<title>public.product_removal:create_uid&#45;&gt;public.res_users:id</title>
<path fill="none" stroke="#000000" d="M658.1818,-966.6244C712.3477,-956.6758 689.826,-864.4208 648,-817 563.2551,-720.9191 446.7449,-877.0809 362,-781 334.5118,-749.8349 320.4444,-687.5 362,-687.5"/>
<polygon fill="#000000" stroke="#000000" points="657.9632,-966.6431 647.6144,-963.0165 652.9816,-967.0715 648,-967.5 648,-967.5 648,-967.5 652.9816,-967.0715 648.3856,-971.9835 657.9632,-966.6431 657.9632,-966.6431"/>
<text text-anchor="start" x="654.657" y="-977.5" font-family="Arial" font-size="10.00" fill="#000000">FOREIGN KEY (create_uid) REFERENCES res_users(id) ON DELETE SET NULL</text>
</g>
<!-- public.product_removal&#45;&gt;public.res_users -->
<g id="edge4" class="edge">
<title>public.product_removal:write_uid&#45;&gt;public.res_users:id</title>
<path fill="none" stroke="#000000" d="M657.9266,-905.9837C685.555,-896.4524 672.1119,-844.3372 648,-817 563.2551,-720.9191 446.7449,-877.0809 362,-781 334.5118,-749.8349 320.4444,-687.5 362,-687.5"/>
<polygon fill="#000000" stroke="#000000" points="657.8853,-905.9899 647.3205,-903.0516 652.9427,-906.745 648,-907.5 648,-907.5 648,-907.5 652.9427,-906.745 648.6795,-911.9484 657.8853,-905.9899 657.8853,-905.9899"/>
<text text-anchor="start" x="654.997" y="-917.5" font-family="Arial" font-size="10.00" fill="#000000">FOREIGN KEY (write_uid) REFERENCES res_users(id) ON DELETE SET NULL</text>
</g>
<!-- public.product_category -->
<g id="node2" class="node">
<title>public.product_category</title>
<polygon fill="#efefef" stroke="transparent" points="152,-1742.5 152,-1777.5 454,-1777.5 454,-1742.5 152,-1742.5"/>
<polygon fill="none" stroke="#000000" points="152,-1742.5 152,-1777.5 454,-1777.5 454,-1742.5 152,-1742.5"/>
<text text-anchor="start" x="158.8462" y="-1755.3" font-family="Arial Bold" font-size="18.00" fill="#000000">public.product_category</text>
<text text-anchor="start" x="349.9" y="-1755.3" font-family="Arial" font-size="14.00" fill="#000000"> </text>
<text text-anchor="start" x="353.7906" y="-1755.3" font-family="Arial" font-size="14.00" fill="#666666">[BASE TABLE]</text>
<polygon fill="none" stroke="#000000" points="152,-1712.5 152,-1742.5 454,-1742.5 454,-1712.5 152,-1712.5"/>
<text text-anchor="start" x="159" y="-1723.9" font-family="Arial" font-size="14.00" fill="#000000">id </text>
<text text-anchor="start" x="173.7798" y="-1723.9" font-family="Arial" font-size="14.00" fill="#666666">[integer]</text>
<polygon fill="none" stroke="#000000" points="152,-1682.5 152,-1712.5 454,-1712.5 454,-1682.5 152,-1682.5"/>
<text text-anchor="start" x="159" y="-1693.9" font-family="Arial" font-size="14.00" fill="#000000">parent_path </text>
<text text-anchor="start" x="237.5932" y="-1693.9" font-family="Arial" font-size="14.00" fill="#666666">[varchar]</text>
<polygon fill="none" stroke="#000000" points="152,-1652.5 152,-1682.5 454,-1682.5 454,-1652.5 152,-1652.5"/>
<text text-anchor="start" x="159" y="-1663.9" font-family="Arial" font-size="14.00" fill="#000000">name </text>
<text text-anchor="start" x="197.899" y="-1663.9" font-family="Arial" font-size="14.00" fill="#666666">[varchar]</text>
<polygon fill="none" stroke="#000000" points="152,-1622.5 152,-1652.5 454,-1652.5 454,-1622.5 152,-1622.5"/>
<text text-anchor="start" x="159" y="-1633.9" font-family="Arial" font-size="14.00" fill="#000000">complete_name </text>
<text text-anchor="start" x="262.4698" y="-1633.9" font-family="Arial" font-size="14.00" fill="#666666">[varchar]</text>
<polygon fill="none" stroke="#000000" points="152,-1592.5 152,-1622.5 454,-1622.5 454,-1592.5 152,-1592.5"/>
<text text-anchor="start" x="159" y="-1603.9" font-family="Arial" font-size="14.00" fill="#000000">parent_id </text>
<text text-anchor="start" x="221.244" y="-1603.9" font-family="Arial" font-size="14.00" fill="#666666">[integer]</text>
<polygon fill="none" stroke="#000000" points="152,-1562.5 152,-1592.5 454,-1592.5 454,-1562.5 152,-1562.5"/>
<text text-anchor="start" x="159" y="-1573.9" font-family="Arial" font-size="14.00" fill="#000000">create_uid </text>
<text text-anchor="start" x="228.244" y="-1573.9" font-family="Arial" font-size="14.00" fill="#666666">[integer]</text>
<polygon fill="none" stroke="#000000" points="152,-1532.5 152,-1562.5 454,-1562.5 454,-1532.5 152,-1532.5"/>
<text text-anchor="start" x="159" y="-1543.9" font-family="Arial" font-size="14.00" fill="#000000">create_date </text>
<text text-anchor="start" x="236.8106" y="-1543.9" font-family="Arial" font-size="14.00" fill="#666666">[timestamp without time zone]</text>
<polygon fill="none" stroke="#000000" points="152,-1502.5 152,-1532.5 454,-1532.5 454,-1502.5 152,-1502.5"/>
<text text-anchor="start" x="159" y="-1513.9" font-family="Arial" font-size="14.00" fill="#000000">write_uid </text>
<text text-anchor="start" x="218.892" y="-1513.9" font-family="Arial" font-size="14.00" fill="#666666">[integer]</text>
<polygon fill="none" stroke="#000000" points="152,-1472.5 152,-1502.5 454,-1502.5 454,-1472.5 152,-1472.5"/>
<text text-anchor="start" x="159" y="-1483.9" font-family="Arial" font-size="14.00" fill="#000000">write_date </text>
<text text-anchor="start" x="227.4586" y="-1483.9" font-family="Arial" font-size="14.00" fill="#666666">[timestamp without time zone]</text>
<polygon fill="none" stroke="#000000" points="152,-1442.5 152,-1472.5 454,-1472.5 454,-1442.5 152,-1442.5"/>
<text text-anchor="start" x="159" y="-1453.9" font-family="Arial" font-size="14.00" fill="#000000">removal_strategy_id </text>
<text text-anchor="start" x="288.9102" y="-1453.9" font-family="Arial" font-size="14.00" fill="#666666">[integer]</text>
</g>
<!-- public.product_category&#45;&gt;public.product_removal -->
<g id="edge1" class="edge">
<title>public.product_category:removal_strategy_id&#45;&gt;public.product_removal:id</title>
<path fill="none" stroke="#000000" d="M464.0181,-1457.0482C619.4611,-1442.0276 171.0084,-1057.5 351,-1057.5"/>
<polygon fill="#000000" stroke="#000000" points="463.9898,-1457.0494 453.7972,-1453.0046 458.9949,-1457.2747 454,-1457.5 454,-1457.5 454,-1457.5 458.9949,-1457.2747 454.2028,-1461.9954 463.9898,-1457.0494 463.9898,-1457.0494"/>
<text text-anchor="start" x="6.709" y="-1467.5" font-family="Arial" font-size="10.00" fill="#000000">FOREIGN KEY (removal_strategy_id) REFERENCES product_removal(id) ON DELETE SET NULL</text>
</g>
<!-- public.stock_location -->
<g id="node3" class="node">
<title>public.stock_location</title>
<polygon fill="#efefef" stroke="transparent" points="559,-1952.5 559,-1987.5 836,-1987.5 836,-1952.5 559,-1952.5"/>
<polygon fill="none" stroke="#000000" points="559,-1952.5 559,-1987.5 836,-1987.5 836,-1952.5 559,-1952.5"/>
<text text-anchor="start" x="565.8535" y="-1965.3" font-family="Arial Bold" font-size="18.00" fill="#000000">public.stock_location</text>
<text text-anchor="start" x="731.8927" y="-1965.3" font-family="Arial" font-size="14.00" fill="#000000"> </text>
<text text-anchor="start" x="735.7833" y="-1965.3" font-family="Arial" font-size="14.00" fill="#666666">[BASE TABLE]</text>
<polygon fill="none" stroke="#000000" points="559,-1922.5 559,-1952.5 836,-1952.5 836,-1922.5 559,-1922.5"/>
<text text-anchor="start" x="566" y="-1933.9" font-family="Arial" font-size="14.00" fill="#000000">id </text>
<text text-anchor="start" x="580.7798" y="-1933.9" font-family="Arial" font-size="14.00" fill="#666666">[integer]</text>
<polygon fill="none" stroke="#000000" points="559,-1892.5 559,-1922.5 836,-1922.5 836,-1892.5 559,-1892.5"/>
<text text-anchor="start" x="566" y="-1903.9" font-family="Arial" font-size="14.00" fill="#000000">parent_path </text>
<text text-anchor="start" x="644.5932" y="-1903.9" font-family="Arial" font-size="14.00" fill="#666666">[varchar]</text>
<polygon fill="none" stroke="#000000" points="559,-1862.5 559,-1892.5 836,-1892.5 836,-1862.5 559,-1862.5"/>
<text text-anchor="start" x="566" y="-1873.9" font-family="Arial" font-size="14.00" fill="#000000">name </text>
<text text-anchor="start" x="604.899" y="-1873.9" font-family="Arial" font-size="14.00" fill="#666666">[varchar]</text>
<polygon fill="none" stroke="#000000" points="559,-1832.5 559,-1862.5 836,-1862.5 836,-1832.5 559,-1832.5"/>
<text text-anchor="start" x="566" y="-1843.9" font-family="Arial" font-size="14.00" fill="#000000">complete_name </text>
<text text-anchor="start" x="669.4698" y="-1843.9" font-family="Arial" font-size="14.00" fill="#666666">[varchar]</text>
<polygon fill="none" stroke="#000000" points="559,-1802.5 559,-1832.5 836,-1832.5 836,-1802.5 559,-1802.5"/>
<text text-anchor="start" x="566" y="-1813.9" font-family="Arial" font-size="14.00" fill="#000000">active </text>
<text text-anchor="start" x="606.453" y="-1813.9" font-family="Arial" font-size="14.00" fill="#666666">[boolean]</text>
<polygon fill="none" stroke="#000000" points="559,-1772.5 559,-1802.5 836,-1802.5 836,-1772.5 559,-1772.5"/>
<text text-anchor="start" x="566" y="-1783.9" font-family="Arial" font-size="14.00" fill="#000000">usage </text>
<text text-anchor="start" x="608.021" y="-1783.9" font-family="Arial" font-size="14.00" fill="#666666">[varchar]</text>
<polygon fill="none" stroke="#000000" points="559,-1742.5 559,-1772.5 836,-1772.5 836,-1742.5 559,-1742.5"/>
<text text-anchor="start" x="566" y="-1753.9" font-family="Arial" font-size="14.00" fill="#000000">location_id </text>
<text text-anchor="start" x="636.7966" y="-1753.9" font-family="Arial" font-size="14.00" fill="#666666">[integer]</text>
<polygon fill="none" stroke="#000000" points="559,-1712.5 559,-1742.5 836,-1742.5 836,-1712.5 559,-1712.5"/>
<text text-anchor="start" x="566" y="-1723.9" font-family="Arial" font-size="14.00" fill="#000000">partner_id </text>
<text text-anchor="start" x="632.9046" y="-1723.9" font-family="Arial" font-size="14.00" fill="#666666">[integer]</text>
<polygon fill="none" stroke="#000000" points="559,-1682.5 559,-1712.5 836,-1712.5 836,-1682.5 559,-1682.5"/>
<text text-anchor="start" x="566" y="-1693.9" font-family="Arial" font-size="14.00" fill="#000000">comment </text>
<text text-anchor="start" x="627.4502" y="-1693.9" font-family="Arial" font-size="14.00" fill="#666666">[text]</text>
<polygon fill="none" stroke="#000000" points="559,-1652.5 559,-1682.5 836,-1682.5 836,-1652.5 559,-1652.5"/>
<text text-anchor="start" x="566" y="-1663.9" font-family="Arial" font-size="14.00" fill="#000000">posx </text>
<text text-anchor="start" x="599.4558" y="-1663.9" font-family="Arial" font-size="14.00" fill="#666666">[integer]</text>
<polygon fill="none" stroke="#000000" points="559,-1622.5 559,-1652.5 836,-1652.5 836,-1622.5 559,-1622.5"/>
<text text-anchor="start" x="566" y="-1633.9" font-family="Arial" font-size="14.00" fill="#000000">posy </text>
<text text-anchor="start" x="599.4558" y="-1633.9" font-family="Arial" font-size="14.00" fill="#666666">[integer]</text>
<polygon fill="none" stroke="#000000" points="559,-1592.5 559,-1622.5 836,-1622.5 836,-1592.5 559,-1592.5"/>
<text text-anchor="start" x="566" y="-1603.9" font-family="Arial" font-size="14.00" fill="#000000">posz </text>
<text text-anchor="start" x="599.4558" y="-1603.9" font-family="Arial" font-size="14.00" fill="#666666">[integer]</text>
<polygon fill="none" stroke="#000000" points="559,-1562.5 559,-1592.5 836,-1592.5 836,-1562.5 559,-1562.5"/>
<text text-anchor="start" x="566" y="-1573.9" font-family="Arial" font-size="14.00" fill="#000000">company_id </text>
<text text-anchor="start" x="645.3534" y="-1573.9" font-family="Arial" font-size="14.00" fill="#666666">[integer]</text>
<polygon fill="none" stroke="#000000" points="559,-1532.5 559,-1562.5 836,-1562.5 836,-1532.5 559,-1532.5"/>
<text text-anchor="start" x="566" y="-1543.9" font-family="Arial" font-size="14.00" fill="#000000">scrap_location </text>
<text text-anchor="start" x="660.1332" y="-1543.9" font-family="Arial" font-size="14.00" fill="#666666">[boolean]</text>
<polygon fill="none" stroke="#000000" points="559,-1502.5 559,-1532.5 836,-1532.5 836,-1502.5 559,-1502.5"/>
<text text-anchor="start" x="566" y="-1513.9" font-family="Arial" font-size="14.00" fill="#000000">return_location </text>
<text text-anchor="start" x="662.467" y="-1513.9" font-family="Arial" font-size="14.00" fill="#666666">[boolean]</text>
<polygon fill="none" stroke="#000000" points="559,-1472.5 559,-1502.5 836,-1502.5 836,-1472.5 559,-1472.5"/>
<text text-anchor="start" x="566" y="-1483.9" font-family="Arial" font-size="14.00" fill="#000000">removal_strategy_id </text>
<text text-anchor="start" x="695.9102" y="-1483.9" font-family="Arial" font-size="14.00" fill="#666666">[integer]</text>
<polygon fill="none" stroke="#000000" points="559,-1442.5 559,-1472.5 836,-1472.5 836,-1442.5 559,-1442.5"/>
<text text-anchor="start" x="566" y="-1453.9" font-family="Arial" font-size="14.00" fill="#000000">putaway_strategy_id </text>
<text text-anchor="start" x="698.2622" y="-1453.9" font-family="Arial" font-size="14.00" fill="#666666">[integer]</text>
<polygon fill="none" stroke="#000000" points="559,-1412.5 559,-1442.5 836,-1442.5 836,-1412.5 559,-1412.5"/>
<text text-anchor="start" x="566" y="-1423.9" font-family="Arial" font-size="14.00" fill="#000000">barcode </text>
<text text-anchor="start" x="620.4642" y="-1423.9" font-family="Arial" font-size="14.00" fill="#666666">[varchar]</text>
<polygon fill="none" stroke="#000000" points="559,-1382.5 559,-1412.5 836,-1412.5 836,-1382.5 559,-1382.5"/>
<text text-anchor="start" x="566" y="-1393.9" font-family="Arial" font-size="14.00" fill="#000000">create_uid </text>
<text text-anchor="start" x="635.244" y="-1393.9" font-family="Arial" font-size="14.00" fill="#666666">[integer]</text>
<polygon fill="none" stroke="#000000" points="559,-1352.5 559,-1382.5 836,-1382.5 836,-1352.5 559,-1352.5"/>
<text text-anchor="start" x="566" y="-1363.9" font-family="Arial" font-size="14.00" fill="#000000">create_date </text>
<text text-anchor="start" x="643.8106" y="-1363.9" font-family="Arial" font-size="14.00" fill="#666666">[timestamp without time zone]</text>
<polygon fill="none" stroke="#000000" points="559,-1322.5 559,-1352.5 836,-1352.5 836,-1322.5 559,-1322.5"/>
<text text-anchor="start" x="566" y="-1333.9" font-family="Arial" font-size="14.00" fill="#000000">write_uid </text>
<text text-anchor="start" x="625.892" y="-1333.9" font-family="Arial" font-size="14.00" fill="#666666">[integer]</text>
<polygon fill="none" stroke="#000000" points="559,-1292.5 559,-1322.5 836,-1322.5 836,-1292.5 559,-1292.5"/>
<text text-anchor="start" x="566" y="-1303.9" font-family="Arial" font-size="14.00" fill="#000000">write_date </text>
<text text-anchor="start" x="634.4586" y="-1303.9" font-family="Arial" font-size="14.00" fill="#666666">[timestamp without time zone]</text>
<polygon fill="none" stroke="#000000" points="559,-1262.5 559,-1292.5 836,-1292.5 836,-1262.5 559,-1262.5"/>
<text text-anchor="start" x="566" y="-1273.9" font-family="Arial" font-size="14.00" fill="#000000">valuation_in_account_id </text>
<text text-anchor="start" x="720.0546" y="-1273.9" font-family="Arial" font-size="14.00" fill="#666666">[integer]</text>
<polygon fill="none" stroke="#000000" points="559,-1232.5 559,-1262.5 836,-1262.5 836,-1232.5 559,-1232.5"/>
<text text-anchor="start" x="566" y="-1243.9" font-family="Arial" font-size="14.00" fill="#000000">valuation_out_account_id </text>
<text text-anchor="start" x="728.6212" y="-1243.9" font-family="Arial" font-size="14.00" fill="#666666">[integer]</text>
</g>
<!-- public.stock_location&#45;&gt;public.product_removal -->
<g id="edge2" class="edge">
<title>public.stock_location:removal_strategy_id&#45;&gt;public.product_removal:id</title>
<path fill="none" stroke="#000000" d="M548.9941,-1485.393C496.1009,-1461.5183 524.0633,-1241.8183 559,-1190 582.8531,-1154.621 624.1469,-1189.379 648,-1154 671.976,-1118.4387 690.8889,-1057.5 648,-1057.5"/>
<polygon fill="#000000" stroke="#000000" points="549.2146,-1485.4394 558.0727,-1491.9034 554.1073,-1486.4697 559,-1487.5 559,-1487.5 559,-1487.5 554.1073,-1486.4697 559.9273,-1483.0966 549.2146,-1485.4394 549.2146,-1485.4394"/>
<text text-anchor="start" x="565.709" y="-1497.5" font-family="Arial" font-size="10.00" fill="#000000">FOREIGN KEY (removal_strategy_id) REFERENCES product_removal(id) ON DELETE SET NULL</text>
</g>
</g>
</svg>
