<?xml version="1.0" encoding="UTF-8" standalone="no"?>
<!DOCTYPE svg PUBLIC "-//W3C//DTD SVG 1.1//EN"
 "http://www.w3.org/Graphics/SVG/1.1/DTD/svg11.dtd">
<!-- Generated by graphviz version 2.40.1 (20161225.0304)
 -->
<!-- Title: public.calendar_event_res_partner_rel Pages: 1 -->
<svg width="1272pt" height="2422pt"
 viewBox="0.00 0.00 1272.00 2422.00" xmlns="http://www.w3.org/2000/svg" xmlns:xlink="http://www.w3.org/1999/xlink">
<g id="graph0" class="graph" transform="scale(1 1) rotate(0) translate(4 2418)">
<title>public.calendar_event_res_partner_rel</title>
<polygon fill="#ffffff" stroke="transparent" points="-4,4 -4,-2418 1268,-2418 1268,4 -4,4"/>
<!-- public.calendar_event_res_partner_rel -->
<g id="node1" class="node">
<title>public.calendar_event_res_partner_rel</title>
<polygon fill="#efefef" stroke="transparent" points="440,-2332.5 440,-2367.5 858,-2367.5 858,-2332.5 440,-2332.5"/>
<polygon fill="none" stroke="#000000" points="440,-2332.5 440,-2367.5 858,-2367.5 858,-2332.5 440,-2332.5"/>
<text text-anchor="start" x="446.8358" y="-2345.3" font-family="Arial Bold" font-size="18.00" fill="#000000">public.calendar_event_res_partner_rel</text>
<text text-anchor="start" x="753.9104" y="-2345.3" font-family="Arial" font-size="14.00" fill="#000000"> </text>
<text text-anchor="start" x="757.801" y="-2345.3" font-family="Arial" font-size="14.00" fill="#666666">[BASE TABLE]</text>
<polygon fill="none" stroke="#000000" points="440,-2302.5 440,-2332.5 858,-2332.5 858,-2302.5 440,-2302.5"/>
<text text-anchor="start" x="447" y="-2313.9" font-family="Arial" font-size="14.00" fill="#000000">calendar_event_id </text>
<text text-anchor="start" x="565.2636" y="-2313.9" font-family="Arial" font-size="14.00" fill="#666666">[integer]</text>
<polygon fill="none" stroke="#000000" points="440,-2272.5 440,-2302.5 858,-2302.5 858,-2272.5 440,-2272.5"/>
<text text-anchor="start" x="447" y="-2283.9" font-family="Arial" font-size="14.00" fill="#000000">res_partner_id </text>
<text text-anchor="start" x="541.1304" y="-2283.9" font-family="Arial" font-size="14.00" fill="#666666">[integer]</text>
<polygon fill="none" stroke="#000000" stroke-width="3" points="438.5,-2271.5 438.5,-2369.5 859.5,-2369.5 859.5,-2271.5 438.5,-2271.5"/>
</g>
<!-- public.calendar_event -->
<g id="node2" class="node">
<title>public.calendar_event</title>
<polygon fill="#efefef" stroke="transparent" points="271,-1782.5 271,-1817.5 583,-1817.5 583,-1782.5 271,-1782.5"/>
<polygon fill="none" stroke="#000000" points="271,-1782.5 271,-1817.5 583,-1817.5 583,-1782.5 271,-1782.5"/>
<text text-anchor="start" x="290.8463" y="-1795.3" font-family="Arial Bold" font-size="18.00" fill="#000000">public.calendar_event</text>
<text text-anchor="start" x="465.8999" y="-1795.3" font-family="Arial" font-size="14.00" fill="#000000"> </text>
<text text-anchor="start" x="469.7905" y="-1795.3" font-family="Arial" font-size="14.00" fill="#666666">[BASE TABLE]</text>
<polygon fill="none" stroke="#000000" points="271,-1752.5 271,-1782.5 583,-1782.5 583,-1752.5 271,-1752.5"/>
<text text-anchor="start" x="278" y="-1763.9" font-family="Arial" font-size="14.00" fill="#000000">id </text>
<text text-anchor="start" x="292.7798" y="-1763.9" font-family="Arial" font-size="14.00" fill="#666666">[integer]</text>
<polygon fill="none" stroke="#000000" points="271,-1722.5 271,-1752.5 583,-1752.5 583,-1722.5 271,-1722.5"/>
<text text-anchor="start" x="278" y="-1733.9" font-family="Arial" font-size="14.00" fill="#000000">message_main_attachment_id </text>
<text text-anchor="start" x="472.4964" y="-1733.9" font-family="Arial" font-size="14.00" fill="#666666">[integer]</text>
<polygon fill="none" stroke="#000000" points="271,-1692.5 271,-1722.5 583,-1722.5 583,-1692.5 271,-1692.5"/>
<text text-anchor="start" x="278" y="-1703.9" font-family="Arial" font-size="14.00" fill="#000000">name </text>
<text text-anchor="start" x="316.899" y="-1703.9" font-family="Arial" font-size="14.00" fill="#666666">[varchar]</text>
<polygon fill="none" stroke="#000000" points="271,-1662.5 271,-1692.5 583,-1692.5 583,-1662.5 271,-1662.5"/>
<text text-anchor="start" x="278" y="-1673.9" font-family="Arial" font-size="14.00" fill="#000000">state </text>
<text text-anchor="start" x="312.237" y="-1673.9" font-family="Arial" font-size="14.00" fill="#666666">[varchar]</text>
<polygon fill="none" stroke="#000000" points="271,-1632.5 271,-1662.5 583,-1662.5 583,-1632.5 271,-1632.5"/>
<text text-anchor="start" x="278" y="-1643.9" font-family="Arial" font-size="14.00" fill="#000000">display_start </text>
<text text-anchor="start" x="360.4586" y="-1643.9" font-family="Arial" font-size="14.00" fill="#666666">[varchar]</text>
<polygon fill="none" stroke="#000000" points="271,-1602.5 271,-1632.5 583,-1632.5 583,-1602.5 271,-1602.5"/>
<text text-anchor="start" x="278" y="-1613.9" font-family="Arial" font-size="14.00" fill="#000000">start </text>
<text text-anchor="start" x="309.115" y="-1613.9" font-family="Arial" font-size="14.00" fill="#666666">[timestamp without time zone]</text>
<polygon fill="none" stroke="#000000" points="271,-1572.5 271,-1602.5 583,-1602.5 583,-1572.5 271,-1572.5"/>
<text text-anchor="start" x="278" y="-1583.9" font-family="Arial" font-size="14.00" fill="#000000">stop </text>
<text text-anchor="start" x="308.3464" y="-1583.9" font-family="Arial" font-size="14.00" fill="#666666">[timestamp without time zone]</text>
<polygon fill="none" stroke="#000000" points="271,-1542.5 271,-1572.5 583,-1572.5 583,-1542.5 271,-1542.5"/>
<text text-anchor="start" x="278" y="-1553.9" font-family="Arial" font-size="14.00" fill="#000000">allday </text>
<text text-anchor="start" x="318.4516" y="-1553.9" font-family="Arial" font-size="14.00" fill="#666666">[boolean]</text>
<polygon fill="none" stroke="#000000" points="271,-1512.5 271,-1542.5 583,-1542.5 583,-1512.5 271,-1512.5"/>
<text text-anchor="start" x="278" y="-1523.9" font-family="Arial" font-size="14.00" fill="#000000">start_date </text>
<text text-anchor="start" x="344.136" y="-1523.9" font-family="Arial" font-size="14.00" fill="#666666">[date]</text>
<polygon fill="none" stroke="#000000" points="271,-1482.5 271,-1512.5 583,-1512.5 583,-1482.5 271,-1482.5"/>
<text text-anchor="start" x="278" y="-1493.9" font-family="Arial" font-size="14.00" fill="#000000">start_datetime </text>
<text text-anchor="start" x="370.5764" y="-1493.9" font-family="Arial" font-size="14.00" fill="#666666">[timestamp without time zone]</text>
<polygon fill="none" stroke="#000000" points="271,-1452.5 271,-1482.5 583,-1482.5 583,-1452.5 271,-1452.5"/>
<text text-anchor="start" x="278" y="-1463.9" font-family="Arial" font-size="14.00" fill="#000000">stop_date </text>
<text text-anchor="start" x="343.3674" y="-1463.9" font-family="Arial" font-size="14.00" fill="#666666">[date]</text>
<polygon fill="none" stroke="#000000" points="271,-1422.5 271,-1452.5 583,-1452.5 583,-1422.5 271,-1422.5"/>
<text text-anchor="start" x="278" y="-1433.9" font-family="Arial" font-size="14.00" fill="#000000">stop_datetime </text>
<text text-anchor="start" x="369.8078" y="-1433.9" font-family="Arial" font-size="14.00" fill="#666666">[timestamp without time zone]</text>
<polygon fill="none" stroke="#000000" points="271,-1392.5 271,-1422.5 583,-1422.5 583,-1392.5 271,-1392.5"/>
<text text-anchor="start" x="278" y="-1403.9" font-family="Arial" font-size="14.00" fill="#000000">duration </text>
<text text-anchor="start" x="332.4614" y="-1403.9" font-family="Arial" font-size="14.00" fill="#666666">[double precision]</text>
<polygon fill="none" stroke="#000000" points="271,-1362.5 271,-1392.5 583,-1392.5 583,-1362.5 271,-1362.5"/>
<text text-anchor="start" x="278" y="-1373.9" font-family="Arial" font-size="14.00" fill="#000000">description </text>
<text text-anchor="start" x="349.568" y="-1373.9" font-family="Arial" font-size="14.00" fill="#666666">[text]</text>
<polygon fill="none" stroke="#000000" points="271,-1332.5 271,-1362.5 583,-1362.5 583,-1332.5 271,-1332.5"/>
<text text-anchor="start" x="278" y="-1343.9" font-family="Arial" font-size="14.00" fill="#000000">privacy </text>
<text text-anchor="start" x="326.223" y="-1343.9" font-family="Arial" font-size="14.00" fill="#666666">[varchar]</text>
<polygon fill="none" stroke="#000000" points="271,-1302.5 271,-1332.5 583,-1332.5 583,-1302.5 271,-1302.5"/>
<text text-anchor="start" x="278" y="-1313.9" font-family="Arial" font-size="14.00" fill="#000000">location </text>
<text text-anchor="start" x="330.1248" y="-1313.9" font-family="Arial" font-size="14.00" fill="#666666">[varchar]</text>
<polygon fill="none" stroke="#000000" points="271,-1272.5 271,-1302.5 583,-1302.5 583,-1272.5 271,-1272.5"/>
<text text-anchor="start" x="278" y="-1283.9" font-family="Arial" font-size="14.00" fill="#000000">show_as </text>
<text text-anchor="start" x="337.1276" y="-1283.9" font-family="Arial" font-size="14.00" fill="#666666">[varchar]</text>
<polygon fill="none" stroke="#000000" points="271,-1242.5 271,-1272.5 583,-1272.5 583,-1242.5 271,-1242.5"/>
<text text-anchor="start" x="278" y="-1253.9" font-family="Arial" font-size="14.00" fill="#000000">res_id </text>
<text text-anchor="start" x="320.0056" y="-1253.9" font-family="Arial" font-size="14.00" fill="#666666">[integer]</text>
<polygon fill="none" stroke="#000000" points="271,-1212.5 271,-1242.5 583,-1242.5 583,-1212.5 271,-1212.5"/>
<text text-anchor="start" x="278" y="-1223.9" font-family="Arial" font-size="14.00" fill="#000000">res_model_id </text>
<text text-anchor="start" x="365.9032" y="-1223.9" font-family="Arial" font-size="14.00" fill="#666666">[integer]</text>
<polygon fill="none" stroke="#000000" points="271,-1182.5 271,-1212.5 583,-1212.5 583,-1182.5 271,-1182.5"/>
<text text-anchor="start" x="278" y="-1193.9" font-family="Arial" font-size="14.00" fill="#000000">res_model </text>
<text text-anchor="start" x="347.2314" y="-1193.9" font-family="Arial" font-size="14.00" fill="#666666">[varchar]</text>
<polygon fill="none" stroke="#000000" points="271,-1152.5 271,-1182.5 583,-1182.5 583,-1152.5 271,-1152.5"/>
<text text-anchor="start" x="278" y="-1163.9" font-family="Arial" font-size="14.00" fill="#000000">rrule </text>
<text text-anchor="start" x="309.8836" y="-1163.9" font-family="Arial" font-size="14.00" fill="#666666">[varchar]</text>
<polygon fill="none" stroke="#000000" points="271,-1122.5 271,-1152.5 583,-1152.5 583,-1122.5 271,-1122.5"/>
<text text-anchor="start" x="278" y="-1133.9" font-family="Arial" font-size="14.00" fill="#000000">rrule_type </text>
<text text-anchor="start" x="344.122" y="-1133.9" font-family="Arial" font-size="14.00" fill="#666666">[varchar]</text>
<polygon fill="none" stroke="#000000" points="271,-1092.5 271,-1122.5 583,-1122.5 583,-1092.5 271,-1092.5"/>
<text text-anchor="start" x="278" y="-1103.9" font-family="Arial" font-size="14.00" fill="#000000">recurrency </text>
<text text-anchor="start" x="348.0028" y="-1103.9" font-family="Arial" font-size="14.00" fill="#666666">[boolean]</text>
<polygon fill="none" stroke="#000000" points="271,-1062.5 271,-1092.5 583,-1092.5 583,-1062.5 271,-1062.5"/>
<text text-anchor="start" x="278" y="-1073.9" font-family="Arial" font-size="14.00" fill="#000000">recurrent_id </text>
<text text-anchor="start" x="356.5652" y="-1073.9" font-family="Arial" font-size="14.00" fill="#666666">[integer]</text>
<polygon fill="none" stroke="#000000" points="271,-1032.5 271,-1062.5 583,-1062.5 583,-1032.5 271,-1032.5"/>
<text text-anchor="start" x="277.6368" y="-1043.9" font-family="Arial" font-size="14.00" fill="#000000">recurrent_id_date </text>
<text text-anchor="start" x="391.223" y="-1043.9" font-family="Arial" font-size="14.00" fill="#666666">[timestamp without time zone]</text>
<polygon fill="none" stroke="#000000" points="271,-1002.5 271,-1032.5 583,-1032.5 583,-1002.5 271,-1002.5"/>
<text text-anchor="start" x="278" y="-1013.9" font-family="Arial" font-size="14.00" fill="#000000">end_type </text>
<text text-anchor="start" x="339.4768" y="-1013.9" font-family="Arial" font-size="14.00" fill="#666666">[varchar]</text>
<polygon fill="none" stroke="#000000" points="271,-972.5 271,-1002.5 583,-1002.5 583,-972.5 271,-972.5"/>
<text text-anchor="start" x="278" y="-983.9" font-family="Arial" font-size="14.00" fill="#000000">interval </text>
<text text-anchor="start" x="327.0028" y="-983.9" font-family="Arial" font-size="14.00" fill="#666666">[integer]</text>
<polygon fill="none" stroke="#000000" points="271,-942.5 271,-972.5 583,-972.5 583,-942.5 271,-942.5"/>
<text text-anchor="start" x="278" y="-953.9" font-family="Arial" font-size="14.00" fill="#000000">count </text>
<text text-anchor="start" x="316.129" y="-953.9" font-family="Arial" font-size="14.00" fill="#666666">[integer]</text>
<polygon fill="none" stroke="#000000" points="271,-912.5 271,-942.5 583,-942.5 583,-912.5 271,-912.5"/>
<text text-anchor="start" x="278" y="-923.9" font-family="Arial" font-size="14.00" fill="#000000">mo </text>
<text text-anchor="start" x="301.3338" y="-923.9" font-family="Arial" font-size="14.00" fill="#666666">[boolean]</text>
<polygon fill="none" stroke="#000000" points="271,-882.5 271,-912.5 583,-912.5 583,-882.5 271,-882.5"/>
<text text-anchor="start" x="278" y="-893.9" font-family="Arial" font-size="14.00" fill="#000000">tu </text>
<text text-anchor="start" x="293.5638" y="-893.9" font-family="Arial" font-size="14.00" fill="#666666">[boolean]</text>
<polygon fill="none" stroke="#000000" points="271,-852.5 271,-882.5 583,-882.5 583,-852.5 271,-852.5"/>
<text text-anchor="start" x="278" y="-863.9" font-family="Arial" font-size="14.00" fill="#000000">we </text>
<text text-anchor="start" x="299.7798" y="-863.9" font-family="Arial" font-size="14.00" fill="#666666">[boolean]</text>
<polygon fill="none" stroke="#000000" points="271,-822.5 271,-852.5 583,-852.5 583,-822.5 271,-822.5"/>
<text text-anchor="start" x="278" y="-833.9" font-family="Arial" font-size="14.00" fill="#000000">th </text>
<text text-anchor="start" x="293.5638" y="-833.9" font-family="Arial" font-size="14.00" fill="#666666">[boolean]</text>
<polygon fill="none" stroke="#000000" points="271,-792.5 271,-822.5 583,-822.5 583,-792.5 271,-792.5"/>
<text text-anchor="start" x="278" y="-803.9" font-family="Arial" font-size="14.00" fill="#000000">fr </text>
<text text-anchor="start" x="290.4418" y="-803.9" font-family="Arial" font-size="14.00" fill="#666666">[boolean]</text>
<polygon fill="none" stroke="#000000" points="271,-762.5 271,-792.5 583,-792.5 583,-762.5 271,-762.5"/>
<text text-anchor="start" x="278" y="-773.9" font-family="Arial" font-size="14.00" fill="#000000">sa </text>
<text text-anchor="start" x="296.6732" y="-773.9" font-family="Arial" font-size="14.00" fill="#666666">[boolean]</text>
<polygon fill="none" stroke="#000000" points="271,-732.5 271,-762.5 583,-762.5 583,-732.5 271,-732.5"/>
<text text-anchor="start" x="278" y="-743.9" font-family="Arial" font-size="14.00" fill="#000000">su </text>
<text text-anchor="start" x="296.6732" y="-743.9" font-family="Arial" font-size="14.00" fill="#666666">[boolean]</text>
<polygon fill="none" stroke="#000000" points="271,-702.5 271,-732.5 583,-732.5 583,-702.5 271,-702.5"/>
<text text-anchor="start" x="278" y="-713.9" font-family="Arial" font-size="14.00" fill="#000000">month_by </text>
<text text-anchor="start" x="343.3548" y="-713.9" font-family="Arial" font-size="14.00" fill="#666666">[varchar]</text>
<polygon fill="none" stroke="#000000" points="271,-672.5 271,-702.5 583,-702.5 583,-672.5 271,-672.5"/>
<text text-anchor="start" x="278" y="-683.9" font-family="Arial" font-size="14.00" fill="#000000">day </text>
<text text-anchor="start" x="304.4558" y="-683.9" font-family="Arial" font-size="14.00" fill="#666666">[integer]</text>
<polygon fill="none" stroke="#000000" points="271,-642.5 271,-672.5 583,-672.5 583,-642.5 271,-642.5"/>
<text text-anchor="start" x="278" y="-653.9" font-family="Arial" font-size="14.00" fill="#000000">week_list </text>
<text text-anchor="start" x="339.4488" y="-653.9" font-family="Arial" font-size="14.00" fill="#666666">[varchar]</text>
<polygon fill="none" stroke="#000000" points="271,-612.5 271,-642.5 583,-642.5 583,-612.5 271,-612.5"/>
<text text-anchor="start" x="278" y="-623.9" font-family="Arial" font-size="14.00" fill="#000000">byday </text>
<text text-anchor="start" x="319.2384" y="-623.9" font-family="Arial" font-size="14.00" fill="#666666">[varchar]</text>
<polygon fill="none" stroke="#000000" points="271,-582.5 271,-612.5 583,-612.5 583,-582.5 271,-582.5"/>
<text text-anchor="start" x="278" y="-593.9" font-family="Arial" font-size="14.00" fill="#000000">final_date </text>
<text text-anchor="start" x="342.5806" y="-593.9" font-family="Arial" font-size="14.00" fill="#666666">[date]</text>
<polygon fill="none" stroke="#000000" points="271,-552.5 271,-582.5 583,-582.5 583,-552.5 271,-552.5"/>
<text text-anchor="start" x="278" y="-563.9" font-family="Arial" font-size="14.00" fill="#000000">user_id </text>
<text text-anchor="start" x="327.7882" y="-563.9" font-family="Arial" font-size="14.00" fill="#666666">[integer]</text>
<polygon fill="none" stroke="#000000" points="271,-522.5 271,-552.5 583,-552.5 583,-522.5 271,-522.5"/>
<text text-anchor="start" x="278" y="-533.9" font-family="Arial" font-size="14.00" fill="#000000">active </text>
<text text-anchor="start" x="318.453" y="-533.9" font-family="Arial" font-size="14.00" fill="#666666">[boolean]</text>
<polygon fill="none" stroke="#000000" points="271,-492.5 271,-522.5 583,-522.5 583,-492.5 271,-492.5"/>
<text text-anchor="start" x="278" y="-503.9" font-family="Arial" font-size="14.00" fill="#000000">create_uid </text>
<text text-anchor="start" x="347.244" y="-503.9" font-family="Arial" font-size="14.00" fill="#666666">[integer]</text>
<polygon fill="none" stroke="#000000" points="271,-462.5 271,-492.5 583,-492.5 583,-462.5 271,-462.5"/>
<text text-anchor="start" x="278" y="-473.9" font-family="Arial" font-size="14.00" fill="#000000">create_date </text>
<text text-anchor="start" x="355.8106" y="-473.9" font-family="Arial" font-size="14.00" fill="#666666">[timestamp without time zone]</text>
<polygon fill="none" stroke="#000000" points="271,-432.5 271,-462.5 583,-462.5 583,-432.5 271,-432.5"/>
<text text-anchor="start" x="278" y="-443.9" font-family="Arial" font-size="14.00" fill="#000000">write_uid </text>
<text text-anchor="start" x="337.892" y="-443.9" font-family="Arial" font-size="14.00" fill="#666666">[integer]</text>
<polygon fill="none" stroke="#000000" points="271,-402.5 271,-432.5 583,-432.5 583,-402.5 271,-402.5"/>
<text text-anchor="start" x="278" y="-413.9" font-family="Arial" font-size="14.00" fill="#000000">write_date </text>
<text text-anchor="start" x="346.4586" y="-413.9" font-family="Arial" font-size="14.00" fill="#666666">[timestamp without time zone]</text>
<polygon fill="none" stroke="#000000" points="271,-372.5 271,-402.5 583,-402.5 583,-372.5 271,-372.5"/>
<text text-anchor="start" x="278" y="-383.9" font-family="Arial" font-size="14.00" fill="#000000">opportunity_id </text>
<text text-anchor="start" x="369.8064" y="-383.9" font-family="Arial" font-size="14.00" fill="#666666">[integer]</text>
</g>
<!-- public.calendar_event_res_partner_rel&#45;&gt;public.calendar_event -->
<g id="edge1" class="edge">
<title>public.calendar_event_res_partner_rel:calendar_event_id&#45;&gt;public.calendar_event:id</title>
<path fill="none" stroke="#000000" d="M429.9365,-2316.0183C337.1866,-2284.7033 705.4627,-1767.5 583,-1767.5"/>
<polygon fill="#000000" stroke="#000000" points="430.1067,-2316.0433 439.3445,-2321.952 435.0533,-2316.7716 440,-2317.5 440,-2317.5 440,-2317.5 435.0533,-2316.7716 440.6555,-2313.048 430.1067,-2316.0433 430.1067,-2316.0433"/>
<text text-anchor="start" x="6.6425" y="-2327.5" font-family="Arial" font-size="10.00" fill="#000000">FOREIGN KEY (calendar_event_id) REFERENCES calendar_event(id) ON DELETE CASCADE</text>
</g>
<!-- public.res_partner -->
<g id="node3" class="node">
<title>public.res_partner</title>
<polygon fill="#efefef" stroke="transparent" points="687,-2112.5 687,-2147.5 1055,-2147.5 1055,-2112.5 687,-2112.5"/>
<polygon fill="none" stroke="#000000" points="687,-2112.5 687,-2147.5 1055,-2147.5 1055,-2112.5 687,-2112.5"/>
<text text-anchor="start" x="750.3605" y="-2125.3" font-family="Arial Bold" font-size="18.00" fill="#000000">public.res_partner</text>
<text text-anchor="start" x="894.3857" y="-2125.3" font-family="Arial" font-size="14.00" fill="#000000"> </text>
<text text-anchor="start" x="898.2763" y="-2125.3" font-family="Arial" font-size="14.00" fill="#666666">[BASE TABLE]</text>
<polygon fill="none" stroke="#000000" points="687,-2082.5 687,-2112.5 1055,-2112.5 1055,-2082.5 687,-2082.5"/>
<text text-anchor="start" x="694" y="-2093.9" font-family="Arial" font-size="14.00" fill="#000000">id </text>
<text text-anchor="start" x="708.7798" y="-2093.9" font-family="Arial" font-size="14.00" fill="#666666">[integer]</text>
<polygon fill="none" stroke="#000000" points="687,-2052.5 687,-2082.5 1055,-2082.5 1055,-2052.5 687,-2052.5"/>
<text text-anchor="start" x="694" y="-2063.9" font-family="Arial" font-size="14.00" fill="#000000">name </text>
<text text-anchor="start" x="732.899" y="-2063.9" font-family="Arial" font-size="14.00" fill="#666666">[varchar]</text>
<polygon fill="none" stroke="#000000" points="687,-2022.5 687,-2052.5 1055,-2052.5 1055,-2022.5 687,-2022.5"/>
<text text-anchor="start" x="694" y="-2033.9" font-family="Arial" font-size="14.00" fill="#000000">company_id </text>
<text text-anchor="start" x="773.3534" y="-2033.9" font-family="Arial" font-size="14.00" fill="#666666">[integer]</text>
<polygon fill="none" stroke="#000000" points="687,-1992.5 687,-2022.5 1055,-2022.5 1055,-1992.5 687,-1992.5"/>
<text text-anchor="start" x="694" y="-2003.9" font-family="Arial" font-size="14.00" fill="#000000">create_date </text>
<text text-anchor="start" x="771.8106" y="-2003.9" font-family="Arial" font-size="14.00" fill="#666666">[timestamp without time zone]</text>
<polygon fill="none" stroke="#000000" points="687,-1962.5 687,-1992.5 1055,-1992.5 1055,-1962.5 687,-1962.5"/>
<text text-anchor="start" x="694" y="-1973.9" font-family="Arial" font-size="14.00" fill="#000000">display_name </text>
<text text-anchor="start" x="784.2426" y="-1973.9" font-family="Arial" font-size="14.00" fill="#666666">[varchar]</text>
<polygon fill="none" stroke="#000000" points="687,-1932.5 687,-1962.5 1055,-1962.5 1055,-1932.5 687,-1932.5"/>
<text text-anchor="start" x="694" y="-1943.9" font-family="Arial" font-size="14.00" fill="#000000">date </text>
<text text-anchor="start" x="725.129" y="-1943.9" font-family="Arial" font-size="14.00" fill="#666666">[date]</text>
<polygon fill="none" stroke="#000000" points="687,-1902.5 687,-1932.5 1055,-1932.5 1055,-1902.5 687,-1902.5"/>
<text text-anchor="start" x="694" y="-1913.9" font-family="Arial" font-size="14.00" fill="#000000">title </text>
<text text-anchor="start" x="719.6676" y="-1913.9" font-family="Arial" font-size="14.00" fill="#666666">[integer]</text>
<polygon fill="none" stroke="#000000" points="687,-1872.5 687,-1902.5 1055,-1902.5 1055,-1872.5 687,-1872.5"/>
<text text-anchor="start" x="694" y="-1883.9" font-family="Arial" font-size="14.00" fill="#000000">parent_id </text>
<text text-anchor="start" x="756.244" y="-1883.9" font-family="Arial" font-size="14.00" fill="#666666">[integer]</text>
<polygon fill="none" stroke="#000000" points="687,-1842.5 687,-1872.5 1055,-1872.5 1055,-1842.5 687,-1842.5"/>
<text text-anchor="start" x="694" y="-1853.9" font-family="Arial" font-size="14.00" fill="#000000">ref </text>
<text text-anchor="start" x="714.2244" y="-1853.9" font-family="Arial" font-size="14.00" fill="#666666">[varchar]</text>
<polygon fill="none" stroke="#000000" points="687,-1812.5 687,-1842.5 1055,-1842.5 1055,-1812.5 687,-1812.5"/>
<text text-anchor="start" x="694" y="-1823.9" font-family="Arial" font-size="14.00" fill="#000000">lang </text>
<text text-anchor="start" x="724.345" y="-1823.9" font-family="Arial" font-size="14.00" fill="#666666">[varchar]</text>
<polygon fill="none" stroke="#000000" points="687,-1782.5 687,-1812.5 1055,-1812.5 1055,-1782.5 687,-1782.5"/>
<text text-anchor="start" x="694" y="-1793.9" font-family="Arial" font-size="14.00" fill="#000000">tz </text>
<text text-anchor="start" x="708.7812" y="-1793.9" font-family="Arial" font-size="14.00" fill="#666666">[varchar]</text>
<polygon fill="none" stroke="#000000" points="687,-1752.5 687,-1782.5 1055,-1782.5 1055,-1752.5 687,-1752.5"/>
<text text-anchor="start" x="694" y="-1763.9" font-family="Arial" font-size="14.00" fill="#000000">user_id </text>
<text text-anchor="start" x="743.7882" y="-1763.9" font-family="Arial" font-size="14.00" fill="#666666">[integer]</text>
<polygon fill="none" stroke="#000000" points="687,-1722.5 687,-1752.5 1055,-1752.5 1055,-1722.5 687,-1722.5"/>
<text text-anchor="start" x="694" y="-1733.9" font-family="Arial" font-size="14.00" fill="#000000">vat </text>
<text text-anchor="start" x="716.5638" y="-1733.9" font-family="Arial" font-size="14.00" fill="#666666">[varchar]</text>
<polygon fill="none" stroke="#000000" points="687,-1692.5 687,-1722.5 1055,-1722.5 1055,-1692.5 687,-1692.5"/>
<text text-anchor="start" x="694" y="-1703.9" font-family="Arial" font-size="14.00" fill="#000000">website </text>
<text text-anchor="start" x="745.3422" y="-1703.9" font-family="Arial" font-size="14.00" fill="#666666">[varchar]</text>
<polygon fill="none" stroke="#000000" points="687,-1662.5 687,-1692.5 1055,-1692.5 1055,-1662.5 687,-1662.5"/>
<text text-anchor="start" x="694" y="-1673.9" font-family="Arial" font-size="14.00" fill="#000000">comment </text>
<text text-anchor="start" x="755.4502" y="-1673.9" font-family="Arial" font-size="14.00" fill="#666666">[text]</text>
<polygon fill="none" stroke="#000000" points="687,-1632.5 687,-1662.5 1055,-1662.5 1055,-1632.5 687,-1632.5"/>
<text text-anchor="start" x="694" y="-1643.9" font-family="Arial" font-size="14.00" fill="#000000">credit_limit </text>
<text text-anchor="start" x="764.7672" y="-1643.9" font-family="Arial" font-size="14.00" fill="#666666">[double precision]</text>
<polygon fill="none" stroke="#000000" points="687,-1602.5 687,-1632.5 1055,-1632.5 1055,-1602.5 687,-1602.5"/>
<text text-anchor="start" x="694" y="-1613.9" font-family="Arial" font-size="14.00" fill="#000000">barcode </text>
<text text-anchor="start" x="748.4642" y="-1613.9" font-family="Arial" font-size="14.00" fill="#666666">[varchar]</text>
<polygon fill="none" stroke="#000000" points="687,-1572.5 687,-1602.5 1055,-1602.5 1055,-1572.5 687,-1572.5"/>
<text text-anchor="start" x="694" y="-1583.9" font-family="Arial" font-size="14.00" fill="#000000">active </text>
<text text-anchor="start" x="734.453" y="-1583.9" font-family="Arial" font-size="14.00" fill="#666666">[boolean]</text>
<polygon fill="none" stroke="#000000" points="687,-1542.5 687,-1572.5 1055,-1572.5 1055,-1542.5 687,-1542.5"/>
<text text-anchor="start" x="694" y="-1553.9" font-family="Arial" font-size="14.00" fill="#000000">customer </text>
<text text-anchor="start" x="755.4502" y="-1553.9" font-family="Arial" font-size="14.00" fill="#666666">[boolean]</text>
<polygon fill="none" stroke="#000000" points="687,-1512.5 687,-1542.5 1055,-1542.5 1055,-1512.5 687,-1512.5"/>
<text text-anchor="start" x="694" y="-1523.9" font-family="Arial" font-size="14.00" fill="#000000">supplier </text>
<text text-anchor="start" x="746.8948" y="-1523.9" font-family="Arial" font-size="14.00" fill="#666666">[boolean]</text>
<polygon fill="none" stroke="#000000" points="687,-1482.5 687,-1512.5 1055,-1512.5 1055,-1482.5 687,-1482.5"/>
<text text-anchor="start" x="694" y="-1493.9" font-family="Arial" font-size="14.00" fill="#000000">employee </text>
<text text-anchor="start" x="758.5708" y="-1493.9" font-family="Arial" font-size="14.00" fill="#666666">[boolean]</text>
<polygon fill="none" stroke="#000000" points="687,-1452.5 687,-1482.5 1055,-1482.5 1055,-1452.5 687,-1452.5"/>
<text text-anchor="start" x="694" y="-1463.9" font-family="Arial" font-size="14.00" fill="#000000">function </text>
<text text-anchor="start" x="746.9088" y="-1463.9" font-family="Arial" font-size="14.00" fill="#666666">[varchar]</text>
<polygon fill="none" stroke="#000000" points="687,-1422.5 687,-1452.5 1055,-1452.5 1055,-1422.5 687,-1422.5"/>
<text text-anchor="start" x="694" y="-1433.9" font-family="Arial" font-size="14.00" fill="#000000">type </text>
<text text-anchor="start" x="724.3464" y="-1433.9" font-family="Arial" font-size="14.00" fill="#666666">[varchar]</text>
<polygon fill="none" stroke="#000000" points="687,-1392.5 687,-1422.5 1055,-1422.5 1055,-1392.5 687,-1392.5"/>
<text text-anchor="start" x="694" y="-1403.9" font-family="Arial" font-size="14.00" fill="#000000">street </text>
<text text-anchor="start" x="732.8976" y="-1403.9" font-family="Arial" font-size="14.00" fill="#666666">[varchar]</text>
<polygon fill="none" stroke="#000000" points="687,-1362.5 687,-1392.5 1055,-1392.5 1055,-1362.5 687,-1362.5"/>
<text text-anchor="start" x="694" y="-1373.9" font-family="Arial" font-size="14.00" fill="#000000">street2 </text>
<text text-anchor="start" x="740.6802" y="-1373.9" font-family="Arial" font-size="14.00" fill="#666666">[varchar]</text>
<polygon fill="none" stroke="#000000" points="687,-1332.5 687,-1362.5 1055,-1362.5 1055,-1332.5 687,-1332.5"/>
<text text-anchor="start" x="694" y="-1343.9" font-family="Arial" font-size="14.00" fill="#000000">zip </text>
<text text-anchor="start" x="715.7798" y="-1343.9" font-family="Arial" font-size="14.00" fill="#666666">[varchar]</text>
<polygon fill="none" stroke="#000000" points="687,-1302.5 687,-1332.5 1055,-1332.5 1055,-1302.5 687,-1302.5"/>
<text text-anchor="start" x="694" y="-1313.9" font-family="Arial" font-size="14.00" fill="#000000">city </text>
<text text-anchor="start" x="718.8878" y="-1313.9" font-family="Arial" font-size="14.00" fill="#666666">[varchar]</text>
<polygon fill="none" stroke="#000000" points="687,-1272.5 687,-1302.5 1055,-1302.5 1055,-1272.5 687,-1272.5"/>
<text text-anchor="start" x="694" y="-1283.9" font-family="Arial" font-size="14.00" fill="#000000">state_id </text>
<text text-anchor="start" x="746.9088" y="-1283.9" font-family="Arial" font-size="14.00" fill="#666666">[integer]</text>
<polygon fill="none" stroke="#000000" points="687,-1242.5 687,-1272.5 1055,-1272.5 1055,-1242.5 687,-1242.5"/>
<text text-anchor="start" x="694" y="-1253.9" font-family="Arial" font-size="14.00" fill="#000000">country_id </text>
<text text-anchor="start" x="762.4614" y="-1253.9" font-family="Arial" font-size="14.00" fill="#666666">[integer]</text>
<polygon fill="none" stroke="#000000" points="687,-1212.5 687,-1242.5 1055,-1242.5 1055,-1212.5 687,-1212.5"/>
<text text-anchor="start" x="694" y="-1223.9" font-family="Arial" font-size="14.00" fill="#000000">email </text>
<text text-anchor="start" x="731.3296" y="-1223.9" font-family="Arial" font-size="14.00" fill="#666666">[varchar]</text>
<polygon fill="none" stroke="#000000" points="687,-1182.5 687,-1212.5 1055,-1212.5 1055,-1182.5 687,-1182.5"/>
<text text-anchor="start" x="694" y="-1193.9" font-family="Arial" font-size="14.00" fill="#000000">phone </text>
<text text-anchor="start" x="736.8036" y="-1193.9" font-family="Arial" font-size="14.00" fill="#666666">[varchar]</text>
<polygon fill="none" stroke="#000000" points="687,-1152.5 687,-1182.5 1055,-1182.5 1055,-1152.5 687,-1152.5"/>
<text text-anchor="start" x="694" y="-1163.9" font-family="Arial" font-size="14.00" fill="#000000">mobile </text>
<text text-anchor="start" x="739.1122" y="-1163.9" font-family="Arial" font-size="14.00" fill="#666666">[varchar]</text>
<polygon fill="none" stroke="#000000" points="687,-1122.5 687,-1152.5 1055,-1152.5 1055,-1122.5 687,-1122.5"/>
<text text-anchor="start" x="694" y="-1133.9" font-family="Arial" font-size="14.00" fill="#000000">is_company </text>
<text text-anchor="start" x="772.5708" y="-1133.9" font-family="Arial" font-size="14.00" fill="#666666">[boolean]</text>
<polygon fill="none" stroke="#000000" points="687,-1092.5 687,-1122.5 1055,-1122.5 1055,-1092.5 687,-1092.5"/>
<text text-anchor="start" x="694" y="-1103.9" font-family="Arial" font-size="14.00" fill="#000000">industry_id </text>
<text text-anchor="start" x="765.568" y="-1103.9" font-family="Arial" font-size="14.00" fill="#666666">[integer]</text>
<polygon fill="none" stroke="#000000" points="687,-1062.5 687,-1092.5 1055,-1092.5 1055,-1062.5 687,-1062.5"/>
<text text-anchor="start" x="694" y="-1073.9" font-family="Arial" font-size="14.00" fill="#000000">color </text>
<text text-anchor="start" x="728.223" y="-1073.9" font-family="Arial" font-size="14.00" fill="#666666">[integer]</text>
<polygon fill="none" stroke="#000000" points="687,-1032.5 687,-1062.5 1055,-1062.5 1055,-1032.5 687,-1032.5"/>
<text text-anchor="start" x="694" y="-1043.9" font-family="Arial" font-size="14.00" fill="#000000">partner_share </text>
<text text-anchor="start" x="785.0238" y="-1043.9" font-family="Arial" font-size="14.00" fill="#666666">[boolean]</text>
<polygon fill="none" stroke="#000000" points="687,-1002.5 687,-1032.5 1055,-1032.5 1055,-1002.5 687,-1002.5"/>
<text text-anchor="start" x="694" y="-1013.9" font-family="Arial" font-size="14.00" fill="#000000">commercial_partner_id </text>
<text text-anchor="start" x="840.23" y="-1013.9" font-family="Arial" font-size="14.00" fill="#666666">[integer]</text>
<polygon fill="none" stroke="#000000" points="687,-972.5 687,-1002.5 1055,-1002.5 1055,-972.5 687,-972.5"/>
<text text-anchor="start" x="694" y="-983.9" font-family="Arial" font-size="14.00" fill="#000000">commercial_company_name </text>
<text text-anchor="start" x="876.798" y="-983.9" font-family="Arial" font-size="14.00" fill="#666666">[varchar]</text>
<polygon fill="none" stroke="#000000" points="687,-942.5 687,-972.5 1055,-972.5 1055,-942.5 687,-942.5"/>
<text text-anchor="start" x="694" y="-953.9" font-family="Arial" font-size="14.00" fill="#000000">company_name </text>
<text text-anchor="start" x="797.4726" y="-953.9" font-family="Arial" font-size="14.00" fill="#666666">[varchar]</text>
<polygon fill="none" stroke="#000000" points="687,-912.5 687,-942.5 1055,-942.5 1055,-912.5 687,-912.5"/>
<text text-anchor="start" x="694" y="-923.9" font-family="Arial" font-size="14.00" fill="#000000">create_uid </text>
<text text-anchor="start" x="763.244" y="-923.9" font-family="Arial" font-size="14.00" fill="#666666">[integer]</text>
<polygon fill="none" stroke="#000000" points="687,-882.5 687,-912.5 1055,-912.5 1055,-882.5 687,-882.5"/>
<text text-anchor="start" x="694" y="-893.9" font-family="Arial" font-size="14.00" fill="#000000">write_uid </text>
<text text-anchor="start" x="753.892" y="-893.9" font-family="Arial" font-size="14.00" fill="#666666">[integer]</text>
<polygon fill="none" stroke="#000000" points="687,-852.5 687,-882.5 1055,-882.5 1055,-852.5 687,-852.5"/>
<text text-anchor="start" x="694" y="-863.9" font-family="Arial" font-size="14.00" fill="#000000">write_date </text>
<text text-anchor="start" x="762.4586" y="-863.9" font-family="Arial" font-size="14.00" fill="#666666">[timestamp without time zone]</text>
<polygon fill="none" stroke="#000000" points="687,-822.5 687,-852.5 1055,-852.5 1055,-822.5 687,-822.5"/>
<text text-anchor="start" x="694" y="-833.9" font-family="Arial" font-size="14.00" fill="#000000">message_main_attachment_id </text>
<text text-anchor="start" x="888.4964" y="-833.9" font-family="Arial" font-size="14.00" fill="#666666">[integer]</text>
<polygon fill="none" stroke="#000000" points="687,-792.5 687,-822.5 1055,-822.5 1055,-792.5 687,-792.5"/>
<text text-anchor="start" x="694" y="-803.9" font-family="Arial" font-size="14.00" fill="#000000">message_bounce </text>
<text text-anchor="start" x="808.3772" y="-803.9" font-family="Arial" font-size="14.00" fill="#666666">[integer]</text>
<polygon fill="none" stroke="#000000" points="687,-762.5 687,-792.5 1055,-792.5 1055,-762.5 687,-762.5"/>
<text text-anchor="start" x="694" y="-773.9" font-family="Arial" font-size="14.00" fill="#000000">signup_token </text>
<text text-anchor="start" x="781.1486" y="-773.9" font-family="Arial" font-size="14.00" fill="#666666">[varchar]</text>
<polygon fill="none" stroke="#000000" points="687,-732.5 687,-762.5 1055,-762.5 1055,-732.5 687,-732.5"/>
<text text-anchor="start" x="694" y="-743.9" font-family="Arial" font-size="14.00" fill="#000000">signup_type </text>
<text text-anchor="start" x="773.366" y="-743.9" font-family="Arial" font-size="14.00" fill="#666666">[varchar]</text>
<polygon fill="none" stroke="#000000" points="687,-702.5 687,-732.5 1055,-732.5 1055,-702.5 687,-702.5"/>
<text text-anchor="start" x="694" y="-713.9" font-family="Arial" font-size="14.00" fill="#000000">signup_expiration </text>
<text text-anchor="start" x="807.5876" y="-713.9" font-family="Arial" font-size="14.00" fill="#666666">[timestamp without time zone]</text>
<polygon fill="none" stroke="#000000" points="687,-672.5 687,-702.5 1055,-702.5 1055,-672.5 687,-672.5"/>
<text text-anchor="start" x="694" y="-683.9" font-family="Arial" font-size="14.00" fill="#000000">calendar_last_notif_ack </text>
<text text-anchor="start" x="844.934" y="-683.9" font-family="Arial" font-size="14.00" fill="#666666">[timestamp without time zone]</text>
<polygon fill="none" stroke="#000000" points="687,-642.5 687,-672.5 1055,-672.5 1055,-642.5 687,-642.5"/>
<text text-anchor="start" x="694" y="-653.9" font-family="Arial" font-size="14.00" fill="#000000">partner_gid </text>
<text text-anchor="start" x="768.6872" y="-653.9" font-family="Arial" font-size="14.00" fill="#666666">[integer]</text>
<polygon fill="none" stroke="#000000" points="687,-612.5 687,-642.5 1055,-642.5 1055,-612.5 687,-612.5"/>
<text text-anchor="start" x="694" y="-623.9" font-family="Arial" font-size="14.00" fill="#000000">additional_info </text>
<text text-anchor="start" x="788.1416" y="-623.9" font-family="Arial" font-size="14.00" fill="#666666">[varchar]</text>
<polygon fill="none" stroke="#000000" points="687,-582.5 687,-612.5 1055,-612.5 1055,-582.5 687,-582.5"/>
<text text-anchor="start" x="694" y="-593.9" font-family="Arial" font-size="14.00" fill="#000000">team_id </text>
<text text-anchor="start" x="747.6788" y="-593.9" font-family="Arial" font-size="14.00" fill="#666666">[integer]</text>
<polygon fill="none" stroke="#000000" points="687,-552.5 687,-582.5 1055,-582.5 1055,-552.5 687,-552.5"/>
<text text-anchor="start" x="694" y="-563.9" font-family="Arial" font-size="14.00" fill="#000000">website_id </text>
<text text-anchor="start" x="764.014" y="-563.9" font-family="Arial" font-size="14.00" fill="#666666">[integer]</text>
<polygon fill="none" stroke="#000000" points="687,-522.5 687,-552.5 1055,-552.5 1055,-522.5 687,-522.5"/>
<text text-anchor="start" x="694" y="-533.9" font-family="Arial" font-size="14.00" fill="#000000">debit_limit </text>
<text text-anchor="start" x="760.8892" y="-533.9" font-family="Arial" font-size="14.00" fill="#666666">[numeric]</text>
<polygon fill="none" stroke="#000000" points="687,-492.5 687,-522.5 1055,-522.5 1055,-492.5 687,-492.5"/>
<text text-anchor="start" x="693.6326" y="-503.9" font-family="Arial" font-size="14.00" fill="#000000">last_time_entries_checked </text>
<text text-anchor="start" x="863.2272" y="-503.9" font-family="Arial" font-size="14.00" fill="#666666">[timestamp without time zone]</text>
<polygon fill="none" stroke="#000000" points="687,-462.5 687,-492.5 1055,-492.5 1055,-462.5 687,-462.5"/>
<text text-anchor="start" x="694" y="-473.9" font-family="Arial" font-size="14.00" fill="#000000">invoice_warn </text>
<text text-anchor="start" x="779.5666" y="-473.9" font-family="Arial" font-size="14.00" fill="#666666">[varchar]</text>
<polygon fill="none" stroke="#000000" points="687,-432.5 687,-462.5 1055,-462.5 1055,-432.5 687,-432.5"/>
<text text-anchor="start" x="694" y="-443.9" font-family="Arial" font-size="14.00" fill="#000000">invoice_warn_msg </text>
<text text-anchor="start" x="813.7924" y="-443.9" font-family="Arial" font-size="14.00" fill="#666666">[text]</text>
<polygon fill="none" stroke="#000000" points="687,-402.5 687,-432.5 1055,-432.5 1055,-402.5 687,-402.5"/>
<text text-anchor="start" x="694" y="-413.9" font-family="Arial" font-size="14.00" fill="#000000">sale_warn </text>
<text text-anchor="start" x="761.6774" y="-413.9" font-family="Arial" font-size="14.00" fill="#666666">[varchar]</text>
<polygon fill="none" stroke="#000000" points="687,-372.5 687,-402.5 1055,-402.5 1055,-372.5 687,-372.5"/>
<text text-anchor="start" x="694" y="-383.9" font-family="Arial" font-size="14.00" fill="#000000">sale_warn_msg </text>
<text text-anchor="start" x="795.9032" y="-383.9" font-family="Arial" font-size="14.00" fill="#666666">[text]</text>
<polygon fill="none" stroke="#000000" points="687,-342.5 687,-372.5 1055,-372.5 1055,-342.5 687,-342.5"/>
<text text-anchor="start" x="694" y="-353.9" font-family="Arial" font-size="14.00" fill="#000000">picking_warn </text>
<text text-anchor="start" x="779.5666" y="-353.9" font-family="Arial" font-size="14.00" fill="#666666">[varchar]</text>
<polygon fill="none" stroke="#000000" points="687,-312.5 687,-342.5 1055,-342.5 1055,-312.5 687,-312.5"/>
<text text-anchor="start" x="694" y="-323.9" font-family="Arial" font-size="14.00" fill="#000000">picking_warn_msg </text>
<text text-anchor="start" x="813.7924" y="-323.9" font-family="Arial" font-size="14.00" fill="#666666">[text]</text>
<polygon fill="none" stroke="#000000" points="687,-282.5 687,-312.5 1055,-312.5 1055,-282.5 687,-282.5"/>
<text text-anchor="start" x="694" y="-293.9" font-family="Arial" font-size="14.00" fill="#000000">purchase_warn </text>
<text text-anchor="start" x="793.5792" y="-293.9" font-family="Arial" font-size="14.00" fill="#666666">[varchar]</text>
<polygon fill="none" stroke="#000000" points="687,-252.5 687,-282.5 1055,-282.5 1055,-252.5 687,-252.5"/>
<text text-anchor="start" x="694" y="-263.9" font-family="Arial" font-size="14.00" fill="#000000">purchase_warn_msg </text>
<text text-anchor="start" x="827.805" y="-263.9" font-family="Arial" font-size="14.00" fill="#666666">[text]</text>
<polygon fill="none" stroke="#000000" points="687,-222.5 687,-252.5 1055,-252.5 1055,-222.5 687,-222.5"/>
<text text-anchor="start" x="694" y="-233.9" font-family="Arial" font-size="14.00" fill="#000000">is_published </text>
<text text-anchor="start" x="775.6886" y="-233.9" font-family="Arial" font-size="14.00" fill="#666666">[boolean]</text>
<polygon fill="none" stroke="#000000" points="687,-192.5 687,-222.5 1055,-222.5 1055,-192.5 687,-192.5"/>
<text text-anchor="start" x="694" y="-203.9" font-family="Arial" font-size="14.00" fill="#000000">website_meta_title </text>
<text text-anchor="start" x="813.8008" y="-203.9" font-family="Arial" font-size="14.00" fill="#666666">[varchar]</text>
<polygon fill="none" stroke="#000000" points="687,-162.5 687,-192.5 1055,-192.5 1055,-162.5 687,-162.5"/>
<text text-anchor="start" x="694" y="-173.9" font-family="Arial" font-size="14.00" fill="#000000">website_meta_description </text>
<text text-anchor="start" x="859.7012" y="-173.9" font-family="Arial" font-size="14.00" fill="#666666">[text]</text>
<polygon fill="none" stroke="#000000" points="687,-132.5 687,-162.5 1055,-162.5 1055,-132.5 687,-132.5"/>
<text text-anchor="start" x="694" y="-143.9" font-family="Arial" font-size="14.00" fill="#000000">website_meta_keywords </text>
<text text-anchor="start" x="851.1388" y="-143.9" font-family="Arial" font-size="14.00" fill="#666666">[varchar]</text>
<polygon fill="none" stroke="#000000" points="687,-102.5 687,-132.5 1055,-132.5 1055,-102.5 687,-102.5"/>
<text text-anchor="start" x="694" y="-113.9" font-family="Arial" font-size="14.00" fill="#000000">website_meta_og_img </text>
<text text-anchor="start" x="837.9214" y="-113.9" font-family="Arial" font-size="14.00" fill="#666666">[varchar]</text>
<polygon fill="none" stroke="#000000" points="687,-72.5 687,-102.5 1055,-102.5 1055,-72.5 687,-72.5"/>
<text text-anchor="start" x="694" y="-83.9" font-family="Arial" font-size="14.00" fill="#000000">website_description </text>
<text text-anchor="start" x="820.8022" y="-83.9" font-family="Arial" font-size="14.00" fill="#666666">[text]</text>
<polygon fill="none" stroke="#000000" points="687,-42.5 687,-72.5 1055,-72.5 1055,-42.5 687,-42.5"/>
<text text-anchor="start" x="694" y="-53.9" font-family="Arial" font-size="14.00" fill="#000000">website_short_description </text>
<text text-anchor="start" x="859.7012" y="-53.9" font-family="Arial" font-size="14.00" fill="#666666">[text]</text>
</g>
<!-- public.calendar_event_res_partner_rel&#45;&gt;public.res_partner -->
<g id="edge2" class="edge">
<title>public.calendar_event_res_partner_rel:res_partner_id&#45;&gt;public.res_partner:id</title>
<path fill="none" stroke="#000000" d="M868.0201,-2284.8208C881.6097,-2275.5763 872.2948,-2244.6176 858,-2227 809.0646,-2166.6897 735.9354,-2251.3103 687,-2191 660.8169,-2158.7307 645.4444,-2097.5 687,-2097.5"/>
<polygon fill="#000000" stroke="#000000" points="867.6606,-2284.9168 856.8376,-2283.1527 862.8303,-2286.2084 858,-2287.5 858,-2287.5 858,-2287.5 862.8303,-2286.2084 859.1624,-2291.8473 867.6606,-2284.9168 867.6606,-2284.9168"/>
<text text-anchor="start" x="864.8805" y="-2297.5" font-family="Arial" font-size="10.00" fill="#000000">FOREIGN KEY (res_partner_id) REFERENCES res_partner(id) ON DELETE CASCADE</text>
</g>
</g>
</svg>
