<?xml version="1.0" encoding="UTF-8" standalone="no"?>
<!DOCTYPE svg PUBLIC "-//W3C//DTD SVG 1.1//EN"
 "http://www.w3.org/Graphics/SVG/1.1/DTD/svg11.dtd">
<!-- Generated by graphviz version 2.40.1 (20161225.0304)
 -->
<!-- Title: public.base_module_upgrade Pages: 1 -->
<svg width="782pt" height="1132pt"
 viewBox="0.00 0.00 781.50 1132.00" xmlns="http://www.w3.org/2000/svg" xmlns:xlink="http://www.w3.org/1999/xlink">
<g id="graph0" class="graph" transform="scale(1 1) rotate(0) translate(4 1128)">
<title>public.base_module_upgrade</title>
<polygon fill="#ffffff" stroke="transparent" points="-4,4 -4,-1128 777.5,-1128 777.5,4 -4,4"/>
<!-- public.base_module_upgrade -->
<g id="node1" class="node">
<title>public.base_module_upgrade</title>
<polygon fill="#efefef" stroke="transparent" points="46.5,-1042.5 46.5,-1077.5 393.5,-1077.5 393.5,-1042.5 46.5,-1042.5"/>
<polygon fill="none" stroke="#000000" points="46.5,-1042.5 46.5,-1077.5 393.5,-1077.5 393.5,-1042.5 46.5,-1042.5"/>
<text text-anchor="start" x="53.3327" y="-1055.3" font-family="Arial Bold" font-size="18.00" fill="#000000">public.base_module_upgrade</text>
<text text-anchor="start" x="289.4135" y="-1055.3" font-family="Arial" font-size="14.00" fill="#000000"> </text>
<text text-anchor="start" x="293.3041" y="-1055.3" font-family="Arial" font-size="14.00" fill="#666666">[BASE TABLE]</text>
<polygon fill="none" stroke="#000000" points="46.5,-1012.5 46.5,-1042.5 393.5,-1042.5 393.5,-1012.5 46.5,-1012.5"/>
<text text-anchor="start" x="53.5" y="-1023.9" font-family="Arial" font-size="14.00" fill="#000000">id </text>
<text text-anchor="start" x="68.2798" y="-1023.9" font-family="Arial" font-size="14.00" fill="#666666">[integer]</text>
<polygon fill="none" stroke="#000000" points="46.5,-982.5 46.5,-1012.5 393.5,-1012.5 393.5,-982.5 46.5,-982.5"/>
<text text-anchor="start" x="53.5" y="-993.9" font-family="Arial" font-size="14.00" fill="#000000">module_info </text>
<text text-anchor="start" x="133.6332" y="-993.9" font-family="Arial" font-size="14.00" fill="#666666">[text]</text>
<polygon fill="none" stroke="#000000" points="46.5,-952.5 46.5,-982.5 393.5,-982.5 393.5,-952.5 46.5,-952.5"/>
<text text-anchor="start" x="53.5" y="-963.9" font-family="Arial" font-size="14.00" fill="#000000">create_uid </text>
<text text-anchor="start" x="122.744" y="-963.9" font-family="Arial" font-size="14.00" fill="#666666">[integer]</text>
<polygon fill="none" stroke="#000000" points="46.5,-922.5 46.5,-952.5 393.5,-952.5 393.5,-922.5 46.5,-922.5"/>
<text text-anchor="start" x="53.5" y="-933.9" font-family="Arial" font-size="14.00" fill="#000000">create_date </text>
<text text-anchor="start" x="131.3106" y="-933.9" font-family="Arial" font-size="14.00" fill="#666666">[timestamp without time zone]</text>
<polygon fill="none" stroke="#000000" points="46.5,-892.5 46.5,-922.5 393.5,-922.5 393.5,-892.5 46.5,-892.5"/>
<text text-anchor="start" x="53.5" y="-903.9" font-family="Arial" font-size="14.00" fill="#000000">write_uid </text>
<text text-anchor="start" x="113.392" y="-903.9" font-family="Arial" font-size="14.00" fill="#666666">[integer]</text>
<polygon fill="none" stroke="#000000" points="46.5,-862.5 46.5,-892.5 393.5,-892.5 393.5,-862.5 46.5,-862.5"/>
<text text-anchor="start" x="53.5" y="-873.9" font-family="Arial" font-size="14.00" fill="#000000">write_date </text>
<text text-anchor="start" x="121.9586" y="-873.9" font-family="Arial" font-size="14.00" fill="#666666">[timestamp without time zone]</text>
<polygon fill="none" stroke="#000000" stroke-width="3" points="44.5,-861.5 44.5,-1079.5 394.5,-1079.5 394.5,-861.5 44.5,-861.5"/>
</g>
<!-- public.res_users -->
<g id="node2" class="node">
<title>public.res_users</title>
<polygon fill="#efefef" stroke="transparent" points="82.5,-702.5 82.5,-737.5 358.5,-737.5 358.5,-702.5 82.5,-702.5"/>
<polygon fill="none" stroke="#000000" points="82.5,-702.5 82.5,-737.5 358.5,-737.5 358.5,-702.5 82.5,-702.5"/>
<text text-anchor="start" x="106.3639" y="-715.3" font-family="Arial Bold" font-size="18.00" fill="#000000">public.res_users</text>
<text text-anchor="start" x="237.3823" y="-715.3" font-family="Arial" font-size="14.00" fill="#000000"> </text>
<text text-anchor="start" x="241.2729" y="-715.3" font-family="Arial" font-size="14.00" fill="#666666">[BASE TABLE]</text>
<polygon fill="none" stroke="#000000" points="82.5,-672.5 82.5,-702.5 358.5,-702.5 358.5,-672.5 82.5,-672.5"/>
<text text-anchor="start" x="89.5" y="-683.9" font-family="Arial" font-size="14.00" fill="#000000">id </text>
<text text-anchor="start" x="104.2798" y="-683.9" font-family="Arial" font-size="14.00" fill="#666666">[integer]</text>
<polygon fill="none" stroke="#000000" points="82.5,-642.5 82.5,-672.5 358.5,-672.5 358.5,-642.5 82.5,-642.5"/>
<text text-anchor="start" x="89.5" y="-653.9" font-family="Arial" font-size="14.00" fill="#000000">active </text>
<text text-anchor="start" x="129.953" y="-653.9" font-family="Arial" font-size="14.00" fill="#666666">[boolean]</text>
<polygon fill="none" stroke="#000000" points="82.5,-612.5 82.5,-642.5 358.5,-642.5 358.5,-612.5 82.5,-612.5"/>
<text text-anchor="start" x="89.5" y="-623.9" font-family="Arial" font-size="14.00" fill="#000000">login </text>
<text text-anchor="start" x="122.9516" y="-623.9" font-family="Arial" font-size="14.00" fill="#666666">[varchar]</text>
<polygon fill="none" stroke="#000000" points="82.5,-582.5 82.5,-612.5 358.5,-612.5 358.5,-582.5 82.5,-582.5"/>
<text text-anchor="start" x="89.5" y="-593.9" font-family="Arial" font-size="14.00" fill="#000000">password </text>
<text text-anchor="start" x="153.2882" y="-593.9" font-family="Arial" font-size="14.00" fill="#666666">[varchar]</text>
<polygon fill="none" stroke="#000000" points="82.5,-552.5 82.5,-582.5 358.5,-582.5 358.5,-552.5 82.5,-552.5"/>
<text text-anchor="start" x="89.5" y="-563.9" font-family="Arial" font-size="14.00" fill="#000000">company_id </text>
<text text-anchor="start" x="168.8534" y="-563.9" font-family="Arial" font-size="14.00" fill="#666666">[integer]</text>
<polygon fill="none" stroke="#000000" points="82.5,-522.5 82.5,-552.5 358.5,-552.5 358.5,-522.5 82.5,-522.5"/>
<text text-anchor="start" x="89.5" y="-533.9" font-family="Arial" font-size="14.00" fill="#000000">partner_id </text>
<text text-anchor="start" x="156.4046" y="-533.9" font-family="Arial" font-size="14.00" fill="#666666">[integer]</text>
<polygon fill="none" stroke="#000000" points="82.5,-492.5 82.5,-522.5 358.5,-522.5 358.5,-492.5 82.5,-492.5"/>
<text text-anchor="start" x="89.0246" y="-503.9" font-family="Arial" font-size="14.00" fill="#000000">create_date </text>
<text text-anchor="start" x="166.8352" y="-503.9" font-family="Arial" font-size="14.00" fill="#666666">[timestamp without time zone]</text>
<polygon fill="none" stroke="#000000" points="82.5,-462.5 82.5,-492.5 358.5,-492.5 358.5,-462.5 82.5,-462.5"/>
<text text-anchor="start" x="89.5" y="-473.9" font-family="Arial" font-size="14.00" fill="#000000">signature </text>
<text text-anchor="start" x="150.9614" y="-473.9" font-family="Arial" font-size="14.00" fill="#666666">[text]</text>
<polygon fill="none" stroke="#000000" points="82.5,-432.5 82.5,-462.5 358.5,-462.5 358.5,-432.5 82.5,-432.5"/>
<text text-anchor="start" x="89.5" y="-443.9" font-family="Arial" font-size="14.00" fill="#000000">action_id </text>
<text text-anchor="start" x="149.4074" y="-443.9" font-family="Arial" font-size="14.00" fill="#666666">[integer]</text>
<polygon fill="none" stroke="#000000" points="82.5,-402.5 82.5,-432.5 358.5,-432.5 358.5,-402.5 82.5,-402.5"/>
<text text-anchor="start" x="89.5" y="-413.9" font-family="Arial" font-size="14.00" fill="#000000">share </text>
<text text-anchor="start" x="128.399" y="-413.9" font-family="Arial" font-size="14.00" fill="#666666">[boolean]</text>
<polygon fill="none" stroke="#000000" points="82.5,-372.5 82.5,-402.5 358.5,-402.5 358.5,-372.5 82.5,-372.5"/>
<text text-anchor="start" x="89.5" y="-383.9" font-family="Arial" font-size="14.00" fill="#000000">create_uid </text>
<text text-anchor="start" x="158.744" y="-383.9" font-family="Arial" font-size="14.00" fill="#666666">[integer]</text>
<polygon fill="none" stroke="#000000" points="82.5,-342.5 82.5,-372.5 358.5,-372.5 358.5,-342.5 82.5,-342.5"/>
<text text-anchor="start" x="89.5" y="-353.9" font-family="Arial" font-size="14.00" fill="#000000">write_uid </text>
<text text-anchor="start" x="149.392" y="-353.9" font-family="Arial" font-size="14.00" fill="#666666">[integer]</text>
<polygon fill="none" stroke="#000000" points="82.5,-312.5 82.5,-342.5 358.5,-342.5 358.5,-312.5 82.5,-312.5"/>
<text text-anchor="start" x="89.5" y="-323.9" font-family="Arial" font-size="14.00" fill="#000000">write_date </text>
<text text-anchor="start" x="157.9586" y="-323.9" font-family="Arial" font-size="14.00" fill="#666666">[timestamp without time zone]</text>
<polygon fill="none" stroke="#000000" points="82.5,-282.5 82.5,-312.5 358.5,-312.5 358.5,-282.5 82.5,-282.5"/>
<text text-anchor="start" x="89.5" y="-293.9" font-family="Arial" font-size="14.00" fill="#000000">alias_id </text>
<text text-anchor="start" x="140.8408" y="-293.9" font-family="Arial" font-size="14.00" fill="#666666">[integer]</text>
<polygon fill="none" stroke="#000000" points="82.5,-252.5 82.5,-282.5 358.5,-282.5 358.5,-252.5 82.5,-252.5"/>
<text text-anchor="start" x="89.5" y="-263.9" font-family="Arial" font-size="14.00" fill="#000000">notification_type </text>
<text text-anchor="start" x="194.5336" y="-263.9" font-family="Arial" font-size="14.00" fill="#666666">[varchar]</text>
<polygon fill="none" stroke="#000000" points="82.5,-222.5 82.5,-252.5 358.5,-252.5 358.5,-222.5 82.5,-222.5"/>
<text text-anchor="start" x="89.5" y="-233.9" font-family="Arial" font-size="14.00" fill="#000000">odoobot_state </text>
<text text-anchor="start" x="182.1058" y="-233.9" font-family="Arial" font-size="14.00" fill="#666666">[varchar]</text>
<polygon fill="none" stroke="#000000" points="82.5,-192.5 82.5,-222.5 358.5,-222.5 358.5,-192.5 82.5,-192.5"/>
<text text-anchor="start" x="89.5" y="-203.9" font-family="Arial" font-size="14.00" fill="#000000">sale_team_id </text>
<text text-anchor="start" x="176.6332" y="-203.9" font-family="Arial" font-size="14.00" fill="#666666">[integer]</text>
<polygon fill="none" stroke="#000000" points="82.5,-162.5 82.5,-192.5 358.5,-192.5 358.5,-162.5 82.5,-162.5"/>
<text text-anchor="start" x="89.5" y="-173.9" font-family="Arial" font-size="14.00" fill="#000000">target_sales_won </text>
<text text-anchor="start" x="203.089" y="-173.9" font-family="Arial" font-size="14.00" fill="#666666">[integer]</text>
<polygon fill="none" stroke="#000000" points="82.5,-132.5 82.5,-162.5 358.5,-162.5 358.5,-132.5 82.5,-132.5"/>
<text text-anchor="start" x="89.5" y="-143.9" font-family="Arial" font-size="14.00" fill="#000000">target_sales_done </text>
<text text-anchor="start" x="208.5476" y="-143.9" font-family="Arial" font-size="14.00" fill="#666666">[integer]</text>
<polygon fill="none" stroke="#000000" points="82.5,-102.5 82.5,-132.5 358.5,-132.5 358.5,-102.5 82.5,-102.5"/>
<text text-anchor="start" x="89.5" y="-113.9" font-family="Arial" font-size="14.00" fill="#000000">website_id </text>
<text text-anchor="start" x="159.514" y="-113.9" font-family="Arial" font-size="14.00" fill="#666666">[integer]</text>
<polygon fill="none" stroke="#000000" points="82.5,-72.5 82.5,-102.5 358.5,-102.5 358.5,-72.5 82.5,-72.5"/>
<text text-anchor="start" x="89.5" y="-83.9" font-family="Arial" font-size="14.00" fill="#000000">target_sales_invoiced </text>
<text text-anchor="start" x="228.7608" y="-83.9" font-family="Arial" font-size="14.00" fill="#666666">[integer]</text>
<polygon fill="none" stroke="#000000" points="82.5,-42.5 82.5,-72.5 358.5,-72.5 358.5,-42.5 82.5,-42.5"/>
<text text-anchor="start" x="89.5" y="-53.9" font-family="Arial" font-size="14.00" fill="#000000">pos_security_pin </text>
<text text-anchor="start" x="198.4158" y="-53.9" font-family="Arial" font-size="14.00" fill="#666666">[varchar(32)]</text>
</g>
<!-- public.base_module_upgrade&#45;&gt;public.res_users -->
<g id="edge1" class="edge">
<title>public.base_module_upgrade:create_uid&#45;&gt;public.res_users:id</title>
<path fill="none" stroke="#000000" d="M403.6839,-966.6225C457.8735,-956.6529 435.5619,-864.2117 393.5,-817 300.939,-713.1065 175.061,-884.8935 82.5,-781 54.8568,-749.9723 40.9444,-687.5 82.5,-687.5"/>
<polygon fill="#000000" stroke="#000000" points="403.4631,-966.6414 393.1137,-963.0166 398.4815,-967.0707 393.5,-967.5 393.5,-967.5 393.5,-967.5 398.4815,-967.0707 393.8863,-971.9834 403.4631,-966.6414 403.4631,-966.6414"/>
<text text-anchor="start" x="400.157" y="-977.5" font-family="Arial" font-size="10.00" fill="#000000">FOREIGN KEY (create_uid) REFERENCES res_users(id) ON DELETE SET NULL</text>
</g>
<!-- public.base_module_upgrade&#45;&gt;public.res_users -->
<g id="edge2" class="edge">
<title>public.base_module_upgrade:write_uid&#45;&gt;public.res_users:id</title>
<path fill="none" stroke="#000000" d="M403.4302,-905.9805C431.0805,-896.4298 417.7479,-844.2166 393.5,-817 300.939,-713.1065 175.061,-884.8935 82.5,-781 54.8568,-749.9723 40.9444,-687.5 82.5,-687.5"/>
<polygon fill="#000000" stroke="#000000" points="403.3849,-905.9874 392.8193,-903.0518 398.4425,-906.7437 393.5,-907.5 393.5,-907.5 393.5,-907.5 398.4425,-906.7437 394.1807,-911.9482 403.3849,-905.9874 403.3849,-905.9874"/>
<text text-anchor="start" x="400.497" y="-917.5" font-family="Arial" font-size="10.00" fill="#000000">FOREIGN KEY (write_uid) REFERENCES res_users(id) ON DELETE SET NULL</text>
</g>
</g>
</svg>
