<?xml version="1.0" encoding="UTF-8" standalone="no"?>
<!DOCTYPE svg PUBLIC "-//W3C//DTD SVG 1.1//EN"
 "http://www.w3.org/Graphics/SVG/1.1/DTD/svg11.dtd">
<!-- Generated by graphviz version 2.40.1 (20161225.0304)
 -->
<!-- Title: public.base_update_translations Pages: 1 -->
<svg width="804pt" height="1132pt"
 viewBox="0.00 0.00 803.50 1132.00" xmlns="http://www.w3.org/2000/svg" xmlns:xlink="http://www.w3.org/1999/xlink">
<g id="graph0" class="graph" transform="scale(1 1) rotate(0) translate(4 1128)">
<title>public.base_update_translations</title>
<polygon fill="#ffffff" stroke="transparent" points="-4,4 -4,-1128 799.5,-1128 799.5,4 -4,4"/>
<!-- public.base_update_translations -->
<g id="node1" class="node">
<title>public.base_update_translations</title>
<polygon fill="#efefef" stroke="transparent" points="46.5,-1042.5 46.5,-1077.5 415.5,-1077.5 415.5,-1042.5 46.5,-1042.5"/>
<polygon fill="none" stroke="#000000" points="46.5,-1042.5 46.5,-1077.5 415.5,-1077.5 415.5,-1042.5 46.5,-1042.5"/>
<text text-anchor="start" x="53.3284" y="-1055.3" font-family="Arial Bold" font-size="18.00" fill="#000000">public.base_update_translations</text>
<text text-anchor="start" x="311.4178" y="-1055.3" font-family="Arial" font-size="14.00" fill="#000000"> </text>
<text text-anchor="start" x="315.3084" y="-1055.3" font-family="Arial" font-size="14.00" fill="#666666">[BASE TABLE]</text>
<polygon fill="none" stroke="#000000" points="46.5,-1012.5 46.5,-1042.5 415.5,-1042.5 415.5,-1012.5 46.5,-1012.5"/>
<text text-anchor="start" x="53.5" y="-1023.9" font-family="Arial" font-size="14.00" fill="#000000">id </text>
<text text-anchor="start" x="68.2798" y="-1023.9" font-family="Arial" font-size="14.00" fill="#666666">[integer]</text>
<polygon fill="none" stroke="#000000" points="46.5,-982.5 46.5,-1012.5 415.5,-1012.5 415.5,-982.5 46.5,-982.5"/>
<text text-anchor="start" x="53.5" y="-993.9" font-family="Arial" font-size="14.00" fill="#000000">lang </text>
<text text-anchor="start" x="83.845" y="-993.9" font-family="Arial" font-size="14.00" fill="#666666">[varchar]</text>
<polygon fill="none" stroke="#000000" points="46.5,-952.5 46.5,-982.5 415.5,-982.5 415.5,-952.5 46.5,-952.5"/>
<text text-anchor="start" x="53.5" y="-963.9" font-family="Arial" font-size="14.00" fill="#000000">create_uid </text>
<text text-anchor="start" x="122.744" y="-963.9" font-family="Arial" font-size="14.00" fill="#666666">[integer]</text>
<polygon fill="none" stroke="#000000" points="46.5,-922.5 46.5,-952.5 415.5,-952.5 415.5,-922.5 46.5,-922.5"/>
<text text-anchor="start" x="53.5" y="-933.9" font-family="Arial" font-size="14.00" fill="#000000">create_date </text>
<text text-anchor="start" x="131.3106" y="-933.9" font-family="Arial" font-size="14.00" fill="#666666">[timestamp without time zone]</text>
<polygon fill="none" stroke="#000000" points="46.5,-892.5 46.5,-922.5 415.5,-922.5 415.5,-892.5 46.5,-892.5"/>
<text text-anchor="start" x="53.5" y="-903.9" font-family="Arial" font-size="14.00" fill="#000000">write_uid </text>
<text text-anchor="start" x="113.392" y="-903.9" font-family="Arial" font-size="14.00" fill="#666666">[integer]</text>
<polygon fill="none" stroke="#000000" points="46.5,-862.5 46.5,-892.5 415.5,-892.5 415.5,-862.5 46.5,-862.5"/>
<text text-anchor="start" x="53.5" y="-873.9" font-family="Arial" font-size="14.00" fill="#000000">write_date </text>
<text text-anchor="start" x="121.9586" y="-873.9" font-family="Arial" font-size="14.00" fill="#666666">[timestamp without time zone]</text>
<polygon fill="none" stroke="#000000" stroke-width="3" points="44.5,-861.5 44.5,-1079.5 416.5,-1079.5 416.5,-861.5 44.5,-861.5"/>
</g>
<!-- public.res_users -->
<g id="node2" class="node">
<title>public.res_users</title>
<polygon fill="#efefef" stroke="transparent" points="93.5,-702.5 93.5,-737.5 369.5,-737.5 369.5,-702.5 93.5,-702.5"/>
<polygon fill="none" stroke="#000000" points="93.5,-702.5 93.5,-737.5 369.5,-737.5 369.5,-702.5 93.5,-702.5"/>
<text text-anchor="start" x="117.3639" y="-715.3" font-family="Arial Bold" font-size="18.00" fill="#000000">public.res_users</text>
<text text-anchor="start" x="248.3823" y="-715.3" font-family="Arial" font-size="14.00" fill="#000000"> </text>
<text text-anchor="start" x="252.2729" y="-715.3" font-family="Arial" font-size="14.00" fill="#666666">[BASE TABLE]</text>
<polygon fill="none" stroke="#000000" points="93.5,-672.5 93.5,-702.5 369.5,-702.5 369.5,-672.5 93.5,-672.5"/>
<text text-anchor="start" x="100.5" y="-683.9" font-family="Arial" font-size="14.00" fill="#000000">id </text>
<text text-anchor="start" x="115.2798" y="-683.9" font-family="Arial" font-size="14.00" fill="#666666">[integer]</text>
<polygon fill="none" stroke="#000000" points="93.5,-642.5 93.5,-672.5 369.5,-672.5 369.5,-642.5 93.5,-642.5"/>
<text text-anchor="start" x="100.5" y="-653.9" font-family="Arial" font-size="14.00" fill="#000000">active </text>
<text text-anchor="start" x="140.953" y="-653.9" font-family="Arial" font-size="14.00" fill="#666666">[boolean]</text>
<polygon fill="none" stroke="#000000" points="93.5,-612.5 93.5,-642.5 369.5,-642.5 369.5,-612.5 93.5,-612.5"/>
<text text-anchor="start" x="100.5" y="-623.9" font-family="Arial" font-size="14.00" fill="#000000">login </text>
<text text-anchor="start" x="133.9516" y="-623.9" font-family="Arial" font-size="14.00" fill="#666666">[varchar]</text>
<polygon fill="none" stroke="#000000" points="93.5,-582.5 93.5,-612.5 369.5,-612.5 369.5,-582.5 93.5,-582.5"/>
<text text-anchor="start" x="100.5" y="-593.9" font-family="Arial" font-size="14.00" fill="#000000">password </text>
<text text-anchor="start" x="164.2882" y="-593.9" font-family="Arial" font-size="14.00" fill="#666666">[varchar]</text>
<polygon fill="none" stroke="#000000" points="93.5,-552.5 93.5,-582.5 369.5,-582.5 369.5,-552.5 93.5,-552.5"/>
<text text-anchor="start" x="100.5" y="-563.9" font-family="Arial" font-size="14.00" fill="#000000">company_id </text>
<text text-anchor="start" x="179.8534" y="-563.9" font-family="Arial" font-size="14.00" fill="#666666">[integer]</text>
<polygon fill="none" stroke="#000000" points="93.5,-522.5 93.5,-552.5 369.5,-552.5 369.5,-522.5 93.5,-522.5"/>
<text text-anchor="start" x="100.5" y="-533.9" font-family="Arial" font-size="14.00" fill="#000000">partner_id </text>
<text text-anchor="start" x="167.4046" y="-533.9" font-family="Arial" font-size="14.00" fill="#666666">[integer]</text>
<polygon fill="none" stroke="#000000" points="93.5,-492.5 93.5,-522.5 369.5,-522.5 369.5,-492.5 93.5,-492.5"/>
<text text-anchor="start" x="100.0246" y="-503.9" font-family="Arial" font-size="14.00" fill="#000000">create_date </text>
<text text-anchor="start" x="177.8352" y="-503.9" font-family="Arial" font-size="14.00" fill="#666666">[timestamp without time zone]</text>
<polygon fill="none" stroke="#000000" points="93.5,-462.5 93.5,-492.5 369.5,-492.5 369.5,-462.5 93.5,-462.5"/>
<text text-anchor="start" x="100.5" y="-473.9" font-family="Arial" font-size="14.00" fill="#000000">signature </text>
<text text-anchor="start" x="161.9614" y="-473.9" font-family="Arial" font-size="14.00" fill="#666666">[text]</text>
<polygon fill="none" stroke="#000000" points="93.5,-432.5 93.5,-462.5 369.5,-462.5 369.5,-432.5 93.5,-432.5"/>
<text text-anchor="start" x="100.5" y="-443.9" font-family="Arial" font-size="14.00" fill="#000000">action_id </text>
<text text-anchor="start" x="160.4074" y="-443.9" font-family="Arial" font-size="14.00" fill="#666666">[integer]</text>
<polygon fill="none" stroke="#000000" points="93.5,-402.5 93.5,-432.5 369.5,-432.5 369.5,-402.5 93.5,-402.5"/>
<text text-anchor="start" x="100.5" y="-413.9" font-family="Arial" font-size="14.00" fill="#000000">share </text>
<text text-anchor="start" x="139.399" y="-413.9" font-family="Arial" font-size="14.00" fill="#666666">[boolean]</text>
<polygon fill="none" stroke="#000000" points="93.5,-372.5 93.5,-402.5 369.5,-402.5 369.5,-372.5 93.5,-372.5"/>
<text text-anchor="start" x="100.5" y="-383.9" font-family="Arial" font-size="14.00" fill="#000000">create_uid </text>
<text text-anchor="start" x="169.744" y="-383.9" font-family="Arial" font-size="14.00" fill="#666666">[integer]</text>
<polygon fill="none" stroke="#000000" points="93.5,-342.5 93.5,-372.5 369.5,-372.5 369.5,-342.5 93.5,-342.5"/>
<text text-anchor="start" x="100.5" y="-353.9" font-family="Arial" font-size="14.00" fill="#000000">write_uid </text>
<text text-anchor="start" x="160.392" y="-353.9" font-family="Arial" font-size="14.00" fill="#666666">[integer]</text>
<polygon fill="none" stroke="#000000" points="93.5,-312.5 93.5,-342.5 369.5,-342.5 369.5,-312.5 93.5,-312.5"/>
<text text-anchor="start" x="100.5" y="-323.9" font-family="Arial" font-size="14.00" fill="#000000">write_date </text>
<text text-anchor="start" x="168.9586" y="-323.9" font-family="Arial" font-size="14.00" fill="#666666">[timestamp without time zone]</text>
<polygon fill="none" stroke="#000000" points="93.5,-282.5 93.5,-312.5 369.5,-312.5 369.5,-282.5 93.5,-282.5"/>
<text text-anchor="start" x="100.5" y="-293.9" font-family="Arial" font-size="14.00" fill="#000000">alias_id </text>
<text text-anchor="start" x="151.8408" y="-293.9" font-family="Arial" font-size="14.00" fill="#666666">[integer]</text>
<polygon fill="none" stroke="#000000" points="93.5,-252.5 93.5,-282.5 369.5,-282.5 369.5,-252.5 93.5,-252.5"/>
<text text-anchor="start" x="100.5" y="-263.9" font-family="Arial" font-size="14.00" fill="#000000">notification_type </text>
<text text-anchor="start" x="205.5336" y="-263.9" font-family="Arial" font-size="14.00" fill="#666666">[varchar]</text>
<polygon fill="none" stroke="#000000" points="93.5,-222.5 93.5,-252.5 369.5,-252.5 369.5,-222.5 93.5,-222.5"/>
<text text-anchor="start" x="100.5" y="-233.9" font-family="Arial" font-size="14.00" fill="#000000">odoobot_state </text>
<text text-anchor="start" x="193.1058" y="-233.9" font-family="Arial" font-size="14.00" fill="#666666">[varchar]</text>
<polygon fill="none" stroke="#000000" points="93.5,-192.5 93.5,-222.5 369.5,-222.5 369.5,-192.5 93.5,-192.5"/>
<text text-anchor="start" x="100.5" y="-203.9" font-family="Arial" font-size="14.00" fill="#000000">sale_team_id </text>
<text text-anchor="start" x="187.6332" y="-203.9" font-family="Arial" font-size="14.00" fill="#666666">[integer]</text>
<polygon fill="none" stroke="#000000" points="93.5,-162.5 93.5,-192.5 369.5,-192.5 369.5,-162.5 93.5,-162.5"/>
<text text-anchor="start" x="100.5" y="-173.9" font-family="Arial" font-size="14.00" fill="#000000">target_sales_won </text>
<text text-anchor="start" x="214.089" y="-173.9" font-family="Arial" font-size="14.00" fill="#666666">[integer]</text>
<polygon fill="none" stroke="#000000" points="93.5,-132.5 93.5,-162.5 369.5,-162.5 369.5,-132.5 93.5,-132.5"/>
<text text-anchor="start" x="100.5" y="-143.9" font-family="Arial" font-size="14.00" fill="#000000">target_sales_done </text>
<text text-anchor="start" x="219.5476" y="-143.9" font-family="Arial" font-size="14.00" fill="#666666">[integer]</text>
<polygon fill="none" stroke="#000000" points="93.5,-102.5 93.5,-132.5 369.5,-132.5 369.5,-102.5 93.5,-102.5"/>
<text text-anchor="start" x="100.5" y="-113.9" font-family="Arial" font-size="14.00" fill="#000000">website_id </text>
<text text-anchor="start" x="170.514" y="-113.9" font-family="Arial" font-size="14.00" fill="#666666">[integer]</text>
<polygon fill="none" stroke="#000000" points="93.5,-72.5 93.5,-102.5 369.5,-102.5 369.5,-72.5 93.5,-72.5"/>
<text text-anchor="start" x="100.5" y="-83.9" font-family="Arial" font-size="14.00" fill="#000000">target_sales_invoiced </text>
<text text-anchor="start" x="239.7608" y="-83.9" font-family="Arial" font-size="14.00" fill="#666666">[integer]</text>
<polygon fill="none" stroke="#000000" points="93.5,-42.5 93.5,-72.5 369.5,-72.5 369.5,-42.5 93.5,-42.5"/>
<text text-anchor="start" x="100.5" y="-53.9" font-family="Arial" font-size="14.00" fill="#000000">pos_security_pin </text>
<text text-anchor="start" x="209.4158" y="-53.9" font-family="Arial" font-size="14.00" fill="#666666">[varchar(32)]</text>
</g>
<!-- public.base_update_translations&#45;&gt;public.res_users -->
<g id="edge1" class="edge">
<title>public.base_update_translations:create_uid&#45;&gt;public.res_users:id</title>
<path fill="none" stroke="#000000" d="M425.6847,-966.6218C479.8836,-956.644 457.654,-864.1295 415.5,-817 319.4981,-709.6668 189.5019,-888.3332 93.5,-781 65.7963,-750.0263 51.9444,-687.5 93.5,-687.5"/>
<polygon fill="#000000" stroke="#000000" points="425.463,-966.6408 415.1134,-963.0166 420.4815,-967.0704 415.5,-967.5 415.5,-967.5 415.5,-967.5 420.4815,-967.0704 415.8866,-971.9834 425.463,-966.6408 425.463,-966.6408"/>
<text text-anchor="start" x="422.157" y="-977.5" font-family="Arial" font-size="10.00" fill="#000000">FOREIGN KEY (create_uid) REFERENCES res_users(id) ON DELETE SET NULL</text>
</g>
<!-- public.base_update_translations&#45;&gt;public.res_users -->
<g id="edge2" class="edge">
<title>public.base_update_translations:write_uid&#45;&gt;public.res_users:id</title>
<path fill="none" stroke="#000000" d="M425.4316,-905.9793C453.0905,-896.4209 439.801,-844.1692 415.5,-817 319.4981,-709.6668 189.5019,-888.3332 93.5,-781 65.7963,-750.0263 51.9444,-687.5 93.5,-687.5"/>
<polygon fill="#000000" stroke="#000000" points="425.3848,-905.9864 414.8189,-903.0518 420.4424,-906.7432 415.5,-907.5 415.5,-907.5 415.5,-907.5 420.4424,-906.7432 416.1811,-911.9482 425.3848,-905.9864 425.3848,-905.9864"/>
<text text-anchor="start" x="422.497" y="-917.5" font-family="Arial" font-size="10.00" fill="#000000">FOREIGN KEY (write_uid) REFERENCES res_users(id) ON DELETE SET NULL</text>
</g>
</g>
</svg>
