<?xml version="1.0" encoding="UTF-8" standalone="no"?>
<!DOCTYPE svg PUBLIC "-//W3C//DTD SVG 1.1//EN"
 "http://www.w3.org/Graphics/SVG/1.1/DTD/svg11.dtd">
<!-- Generated by graphviz version 2.40.1 (20161225.0304)
 -->
<!-- Title: public.digest_digest_res_users_rel Pages: 1 -->
<svg width="1208pt" height="1012pt"
 viewBox="0.00 0.00 1208.00 1012.00" xmlns="http://www.w3.org/2000/svg" xmlns:xlink="http://www.w3.org/1999/xlink">
<g id="graph0" class="graph" transform="scale(1 1) rotate(0) translate(4 1008)">
<title>public.digest_digest_res_users_rel</title>
<polygon fill="#ffffff" stroke="transparent" points="-4,4 -4,-1008 1204,-1008 1204,4 -4,4"/>
<!-- public.digest_digest_res_users_rel -->
<g id="node1" class="node">
<title>public.digest_digest_res_users_rel</title>
<polygon fill="#efefef" stroke="transparent" points="421,-922.5 421,-957.5 809,-957.5 809,-922.5 421,-922.5"/>
<polygon fill="none" stroke="#000000" points="421,-922.5 421,-957.5 809,-957.5 809,-922.5 421,-922.5"/>
<text text-anchor="start" x="427.8433" y="-935.3" font-family="Arial Bold" font-size="18.00" fill="#000000">public.digest_digest_res_users_rel</text>
<text text-anchor="start" x="704.9029" y="-935.3" font-family="Arial" font-size="14.00" fill="#000000"> </text>
<text text-anchor="start" x="708.7935" y="-935.3" font-family="Arial" font-size="14.00" fill="#666666">[BASE TABLE]</text>
<polygon fill="none" stroke="#000000" points="421,-892.5 421,-922.5 809,-922.5 809,-892.5 421,-892.5"/>
<text text-anchor="start" x="428" y="-903.9" font-family="Arial" font-size="14.00" fill="#000000">digest_digest_id </text>
<text text-anchor="start" x="533.035" y="-903.9" font-family="Arial" font-size="14.00" fill="#666666">[integer]</text>
<polygon fill="none" stroke="#000000" points="421,-862.5 421,-892.5 809,-892.5 809,-862.5 421,-862.5"/>
<text text-anchor="start" x="428" y="-873.9" font-family="Arial" font-size="14.00" fill="#000000">res_users_id </text>
<text text-anchor="start" x="512.014" y="-873.9" font-family="Arial" font-size="14.00" fill="#666666">[integer]</text>
<polygon fill="none" stroke="#000000" stroke-width="3" points="419.5,-861.5 419.5,-959.5 810.5,-959.5 810.5,-861.5 419.5,-861.5"/>
</g>
<!-- public.digest_digest -->
<g id="node2" class="node">
<title>public.digest_digest</title>
<polygon fill="#efefef" stroke="transparent" points="287,-672.5 287,-707.5 563,-707.5 563,-672.5 287,-672.5"/>
<polygon fill="none" stroke="#000000" points="287,-672.5 287,-707.5 563,-707.5 563,-672.5 287,-672.5"/>
<text text-anchor="start" x="297.3504" y="-685.3" font-family="Arial Bold" font-size="18.00" fill="#000000">public.digest_digest</text>
<text text-anchor="start" x="455.3958" y="-685.3" font-family="Arial" font-size="14.00" fill="#000000"> </text>
<text text-anchor="start" x="459.2864" y="-685.3" font-family="Arial" font-size="14.00" fill="#666666">[BASE TABLE]</text>
<polygon fill="none" stroke="#000000" points="287,-642.5 287,-672.5 563,-672.5 563,-642.5 287,-642.5"/>
<text text-anchor="start" x="294" y="-653.9" font-family="Arial" font-size="14.00" fill="#000000">id </text>
<text text-anchor="start" x="308.7798" y="-653.9" font-family="Arial" font-size="14.00" fill="#666666">[integer]</text>
<polygon fill="none" stroke="#000000" points="287,-612.5 287,-642.5 563,-642.5 563,-612.5 287,-612.5"/>
<text text-anchor="start" x="294" y="-623.9" font-family="Arial" font-size="14.00" fill="#000000">name </text>
<text text-anchor="start" x="332.899" y="-623.9" font-family="Arial" font-size="14.00" fill="#666666">[varchar]</text>
<polygon fill="none" stroke="#000000" points="287,-582.5 287,-612.5 563,-612.5 563,-582.5 287,-582.5"/>
<text text-anchor="start" x="294" y="-593.9" font-family="Arial" font-size="14.00" fill="#000000">periodicity </text>
<text text-anchor="start" x="360.892" y="-593.9" font-family="Arial" font-size="14.00" fill="#666666">[varchar]</text>
<polygon fill="none" stroke="#000000" points="287,-552.5 287,-582.5 563,-582.5 563,-552.5 287,-552.5"/>
<text text-anchor="start" x="294" y="-563.9" font-family="Arial" font-size="14.00" fill="#000000">next_run_date </text>
<text text-anchor="start" x="387.3758" y="-563.9" font-family="Arial" font-size="14.00" fill="#666666">[date]</text>
<polygon fill="none" stroke="#000000" points="287,-522.5 287,-552.5 563,-552.5 563,-522.5 287,-522.5"/>
<text text-anchor="start" x="294" y="-533.9" font-family="Arial" font-size="14.00" fill="#000000">template_id </text>
<text text-anchor="start" x="370.2412" y="-533.9" font-family="Arial" font-size="14.00" fill="#666666">[integer]</text>
<polygon fill="none" stroke="#000000" points="287,-492.5 287,-522.5 563,-522.5 563,-492.5 287,-492.5"/>
<text text-anchor="start" x="294" y="-503.9" font-family="Arial" font-size="14.00" fill="#000000">company_id </text>
<text text-anchor="start" x="373.3534" y="-503.9" font-family="Arial" font-size="14.00" fill="#666666">[integer]</text>
<polygon fill="none" stroke="#000000" points="287,-462.5 287,-492.5 563,-492.5 563,-462.5 287,-462.5"/>
<text text-anchor="start" x="294" y="-473.9" font-family="Arial" font-size="14.00" fill="#000000">state </text>
<text text-anchor="start" x="328.237" y="-473.9" font-family="Arial" font-size="14.00" fill="#666666">[varchar]</text>
<polygon fill="none" stroke="#000000" points="287,-432.5 287,-462.5 563,-462.5 563,-432.5 287,-432.5"/>
<text text-anchor="start" x="294" y="-443.9" font-family="Arial" font-size="14.00" fill="#000000">kpi_res_users_connected </text>
<text text-anchor="start" x="457.3828" y="-443.9" font-family="Arial" font-size="14.00" fill="#666666">[boolean]</text>
<polygon fill="none" stroke="#000000" points="287,-402.5 287,-432.5 563,-432.5 563,-402.5 287,-402.5"/>
<text text-anchor="start" x="294" y="-413.9" font-family="Arial" font-size="14.00" fill="#000000">kpi_mail_message_total </text>
<text text-anchor="start" x="448.028" y="-413.9" font-family="Arial" font-size="14.00" fill="#666666">[boolean]</text>
<polygon fill="none" stroke="#000000" points="287,-372.5 287,-402.5 563,-402.5 563,-372.5 287,-372.5"/>
<text text-anchor="start" x="294" y="-383.9" font-family="Arial" font-size="14.00" fill="#000000">create_uid </text>
<text text-anchor="start" x="363.244" y="-383.9" font-family="Arial" font-size="14.00" fill="#666666">[integer]</text>
<polygon fill="none" stroke="#000000" points="287,-342.5 287,-372.5 563,-372.5 563,-342.5 287,-342.5"/>
<text text-anchor="start" x="293.5246" y="-353.9" font-family="Arial" font-size="14.00" fill="#000000">create_date </text>
<text text-anchor="start" x="371.3352" y="-353.9" font-family="Arial" font-size="14.00" fill="#666666">[timestamp without time zone]</text>
<polygon fill="none" stroke="#000000" points="287,-312.5 287,-342.5 563,-342.5 563,-312.5 287,-312.5"/>
<text text-anchor="start" x="294" y="-323.9" font-family="Arial" font-size="14.00" fill="#000000">write_uid </text>
<text text-anchor="start" x="353.892" y="-323.9" font-family="Arial" font-size="14.00" fill="#666666">[integer]</text>
<polygon fill="none" stroke="#000000" points="287,-282.5 287,-312.5 563,-312.5 563,-282.5 287,-282.5"/>
<text text-anchor="start" x="294" y="-293.9" font-family="Arial" font-size="14.00" fill="#000000">write_date </text>
<text text-anchor="start" x="362.4586" y="-293.9" font-family="Arial" font-size="14.00" fill="#666666">[timestamp without time zone]</text>
<polygon fill="none" stroke="#000000" points="287,-252.5 287,-282.5 563,-282.5 563,-252.5 287,-252.5"/>
<text text-anchor="start" x="294" y="-263.9" font-family="Arial" font-size="14.00" fill="#000000">kpi_crm_lead_created </text>
<text text-anchor="start" x="435.5848" y="-263.9" font-family="Arial" font-size="14.00" fill="#666666">[boolean]</text>
<polygon fill="none" stroke="#000000" points="287,-222.5 287,-252.5 563,-252.5 563,-222.5 287,-222.5"/>
<text text-anchor="start" x="294" y="-233.9" font-family="Arial" font-size="14.00" fill="#000000">kpi_crm_opportunities_won </text>
<text text-anchor="start" x="468.2538" y="-233.9" font-family="Arial" font-size="14.00" fill="#666666">[boolean]</text>
<polygon fill="none" stroke="#000000" points="287,-192.5 287,-222.5 563,-222.5 563,-192.5 287,-192.5"/>
<text text-anchor="start" x="294" y="-203.9" font-family="Arial" font-size="14.00" fill="#000000">kpi_account_total_revenue </text>
<text text-anchor="start" x="465.1752" y="-203.9" font-family="Arial" font-size="14.00" fill="#666666">[boolean]</text>
<polygon fill="none" stroke="#000000" points="287,-162.5 287,-192.5 563,-192.5 563,-162.5 287,-162.5"/>
<text text-anchor="start" x="294" y="-173.9" font-family="Arial" font-size="14.00" fill="#000000">kpi_website_sale_total </text>
<text text-anchor="start" x="438.704" y="-173.9" font-family="Arial" font-size="14.00" fill="#666666">[boolean]</text>
<polygon fill="none" stroke="#000000" points="287,-132.5 287,-162.5 563,-162.5 563,-132.5 287,-132.5"/>
<text text-anchor="start" x="294" y="-143.9" font-family="Arial" font-size="14.00" fill="#000000">kpi_project_task_opened </text>
<text text-anchor="start" x="453.502" y="-143.9" font-family="Arial" font-size="14.00" fill="#666666">[boolean]</text>
<polygon fill="none" stroke="#000000" points="287,-102.5 287,-132.5 563,-132.5 563,-102.5 287,-102.5"/>
<text text-anchor="start" x="294" y="-113.9" font-family="Arial" font-size="14.00" fill="#000000">kpi_all_sale_total </text>
<text text-anchor="start" x="405.2482" y="-113.9" font-family="Arial" font-size="14.00" fill="#666666">[boolean]</text>
<polygon fill="none" stroke="#000000" points="287,-72.5 287,-102.5 563,-102.5 563,-72.5 287,-72.5"/>
<text text-anchor="start" x="294" y="-83.9" font-family="Arial" font-size="14.00" fill="#000000">kpi_pos_total </text>
<text text-anchor="start" x="380.3632" y="-83.9" font-family="Arial" font-size="14.00" fill="#666666">[boolean]</text>
</g>
<!-- public.digest_digest_res_users_rel&#45;&gt;public.digest_digest -->
<g id="edge1" class="edge">
<title>public.digest_digest_res_users_rel:digest_digest_id&#45;&gt;public.digest_digest:id</title>
<path fill="none" stroke="#000000" d="M410.8468,-905.9548C384.4376,-896.6635 401.48,-847.5981 421,-817 458.43,-758.3276 525.57,-809.6724 563,-751 585.3497,-715.9663 604.5556,-657.5 563,-657.5"/>
<polygon fill="#000000" stroke="#000000" points="411.1138,-905.9953 420.3229,-911.9488 416.0569,-906.7477 421,-907.5 421,-907.5 421,-907.5 416.0569,-906.7477 421.6771,-903.0512 411.1138,-905.9953 411.1138,-905.9953"/>
<text text-anchor="start" x="7.0915" y="-917.5" font-family="Arial" font-size="10.00" fill="#000000">FOREIGN KEY (digest_digest_id) REFERENCES digest_digest(id) ON DELETE CASCADE</text>
</g>
<!-- public.res_users -->
<g id="node3" class="node">
<title>public.res_users</title>
<polygon fill="#efefef" stroke="transparent" points="667,-702.5 667,-737.5 943,-737.5 943,-702.5 667,-702.5"/>
<polygon fill="none" stroke="#000000" points="667,-702.5 667,-737.5 943,-737.5 943,-702.5 667,-702.5"/>
<text text-anchor="start" x="690.8639" y="-715.3" font-family="Arial Bold" font-size="18.00" fill="#000000">public.res_users</text>
<text text-anchor="start" x="821.8823" y="-715.3" font-family="Arial" font-size="14.00" fill="#000000"> </text>
<text text-anchor="start" x="825.7729" y="-715.3" font-family="Arial" font-size="14.00" fill="#666666">[BASE TABLE]</text>
<polygon fill="none" stroke="#000000" points="667,-672.5 667,-702.5 943,-702.5 943,-672.5 667,-672.5"/>
<text text-anchor="start" x="674" y="-683.9" font-family="Arial" font-size="14.00" fill="#000000">id </text>
<text text-anchor="start" x="688.7798" y="-683.9" font-family="Arial" font-size="14.00" fill="#666666">[integer]</text>
<polygon fill="none" stroke="#000000" points="667,-642.5 667,-672.5 943,-672.5 943,-642.5 667,-642.5"/>
<text text-anchor="start" x="674" y="-653.9" font-family="Arial" font-size="14.00" fill="#000000">active </text>
<text text-anchor="start" x="714.453" y="-653.9" font-family="Arial" font-size="14.00" fill="#666666">[boolean]</text>
<polygon fill="none" stroke="#000000" points="667,-612.5 667,-642.5 943,-642.5 943,-612.5 667,-612.5"/>
<text text-anchor="start" x="674" y="-623.9" font-family="Arial" font-size="14.00" fill="#000000">login </text>
<text text-anchor="start" x="707.4516" y="-623.9" font-family="Arial" font-size="14.00" fill="#666666">[varchar]</text>
<polygon fill="none" stroke="#000000" points="667,-582.5 667,-612.5 943,-612.5 943,-582.5 667,-582.5"/>
<text text-anchor="start" x="674" y="-593.9" font-family="Arial" font-size="14.00" fill="#000000">password </text>
<text text-anchor="start" x="737.7882" y="-593.9" font-family="Arial" font-size="14.00" fill="#666666">[varchar]</text>
<polygon fill="none" stroke="#000000" points="667,-552.5 667,-582.5 943,-582.5 943,-552.5 667,-552.5"/>
<text text-anchor="start" x="674" y="-563.9" font-family="Arial" font-size="14.00" fill="#000000">company_id </text>
<text text-anchor="start" x="753.3534" y="-563.9" font-family="Arial" font-size="14.00" fill="#666666">[integer]</text>
<polygon fill="none" stroke="#000000" points="667,-522.5 667,-552.5 943,-552.5 943,-522.5 667,-522.5"/>
<text text-anchor="start" x="674" y="-533.9" font-family="Arial" font-size="14.00" fill="#000000">partner_id </text>
<text text-anchor="start" x="740.9046" y="-533.9" font-family="Arial" font-size="14.00" fill="#666666">[integer]</text>
<polygon fill="none" stroke="#000000" points="667,-492.5 667,-522.5 943,-522.5 943,-492.5 667,-492.5"/>
<text text-anchor="start" x="673.5246" y="-503.9" font-family="Arial" font-size="14.00" fill="#000000">create_date </text>
<text text-anchor="start" x="751.3352" y="-503.9" font-family="Arial" font-size="14.00" fill="#666666">[timestamp without time zone]</text>
<polygon fill="none" stroke="#000000" points="667,-462.5 667,-492.5 943,-492.5 943,-462.5 667,-462.5"/>
<text text-anchor="start" x="674" y="-473.9" font-family="Arial" font-size="14.00" fill="#000000">signature </text>
<text text-anchor="start" x="735.4614" y="-473.9" font-family="Arial" font-size="14.00" fill="#666666">[text]</text>
<polygon fill="none" stroke="#000000" points="667,-432.5 667,-462.5 943,-462.5 943,-432.5 667,-432.5"/>
<text text-anchor="start" x="674" y="-443.9" font-family="Arial" font-size="14.00" fill="#000000">action_id </text>
<text text-anchor="start" x="733.9074" y="-443.9" font-family="Arial" font-size="14.00" fill="#666666">[integer]</text>
<polygon fill="none" stroke="#000000" points="667,-402.5 667,-432.5 943,-432.5 943,-402.5 667,-402.5"/>
<text text-anchor="start" x="674" y="-413.9" font-family="Arial" font-size="14.00" fill="#000000">share </text>
<text text-anchor="start" x="712.899" y="-413.9" font-family="Arial" font-size="14.00" fill="#666666">[boolean]</text>
<polygon fill="none" stroke="#000000" points="667,-372.5 667,-402.5 943,-402.5 943,-372.5 667,-372.5"/>
<text text-anchor="start" x="674" y="-383.9" font-family="Arial" font-size="14.00" fill="#000000">create_uid </text>
<text text-anchor="start" x="743.244" y="-383.9" font-family="Arial" font-size="14.00" fill="#666666">[integer]</text>
<polygon fill="none" stroke="#000000" points="667,-342.5 667,-372.5 943,-372.5 943,-342.5 667,-342.5"/>
<text text-anchor="start" x="674" y="-353.9" font-family="Arial" font-size="14.00" fill="#000000">write_uid </text>
<text text-anchor="start" x="733.892" y="-353.9" font-family="Arial" font-size="14.00" fill="#666666">[integer]</text>
<polygon fill="none" stroke="#000000" points="667,-312.5 667,-342.5 943,-342.5 943,-312.5 667,-312.5"/>
<text text-anchor="start" x="674" y="-323.9" font-family="Arial" font-size="14.00" fill="#000000">write_date </text>
<text text-anchor="start" x="742.4586" y="-323.9" font-family="Arial" font-size="14.00" fill="#666666">[timestamp without time zone]</text>
<polygon fill="none" stroke="#000000" points="667,-282.5 667,-312.5 943,-312.5 943,-282.5 667,-282.5"/>
<text text-anchor="start" x="674" y="-293.9" font-family="Arial" font-size="14.00" fill="#000000">alias_id </text>
<text text-anchor="start" x="725.3408" y="-293.9" font-family="Arial" font-size="14.00" fill="#666666">[integer]</text>
<polygon fill="none" stroke="#000000" points="667,-252.5 667,-282.5 943,-282.5 943,-252.5 667,-252.5"/>
<text text-anchor="start" x="674" y="-263.9" font-family="Arial" font-size="14.00" fill="#000000">notification_type </text>
<text text-anchor="start" x="779.0336" y="-263.9" font-family="Arial" font-size="14.00" fill="#666666">[varchar]</text>
<polygon fill="none" stroke="#000000" points="667,-222.5 667,-252.5 943,-252.5 943,-222.5 667,-222.5"/>
<text text-anchor="start" x="674" y="-233.9" font-family="Arial" font-size="14.00" fill="#000000">odoobot_state </text>
<text text-anchor="start" x="766.6058" y="-233.9" font-family="Arial" font-size="14.00" fill="#666666">[varchar]</text>
<polygon fill="none" stroke="#000000" points="667,-192.5 667,-222.5 943,-222.5 943,-192.5 667,-192.5"/>
<text text-anchor="start" x="674" y="-203.9" font-family="Arial" font-size="14.00" fill="#000000">sale_team_id </text>
<text text-anchor="start" x="761.1332" y="-203.9" font-family="Arial" font-size="14.00" fill="#666666">[integer]</text>
<polygon fill="none" stroke="#000000" points="667,-162.5 667,-192.5 943,-192.5 943,-162.5 667,-162.5"/>
<text text-anchor="start" x="674" y="-173.9" font-family="Arial" font-size="14.00" fill="#000000">target_sales_won </text>
<text text-anchor="start" x="787.589" y="-173.9" font-family="Arial" font-size="14.00" fill="#666666">[integer]</text>
<polygon fill="none" stroke="#000000" points="667,-132.5 667,-162.5 943,-162.5 943,-132.5 667,-132.5"/>
<text text-anchor="start" x="674" y="-143.9" font-family="Arial" font-size="14.00" fill="#000000">target_sales_done </text>
<text text-anchor="start" x="793.0476" y="-143.9" font-family="Arial" font-size="14.00" fill="#666666">[integer]</text>
<polygon fill="none" stroke="#000000" points="667,-102.5 667,-132.5 943,-132.5 943,-102.5 667,-102.5"/>
<text text-anchor="start" x="674" y="-113.9" font-family="Arial" font-size="14.00" fill="#000000">website_id </text>
<text text-anchor="start" x="744.014" y="-113.9" font-family="Arial" font-size="14.00" fill="#666666">[integer]</text>
<polygon fill="none" stroke="#000000" points="667,-72.5 667,-102.5 943,-102.5 943,-72.5 667,-72.5"/>
<text text-anchor="start" x="674" y="-83.9" font-family="Arial" font-size="14.00" fill="#000000">target_sales_invoiced </text>
<text text-anchor="start" x="813.2608" y="-83.9" font-family="Arial" font-size="14.00" fill="#666666">[integer]</text>
<polygon fill="none" stroke="#000000" points="667,-42.5 667,-72.5 943,-72.5 943,-42.5 667,-42.5"/>
<text text-anchor="start" x="674" y="-53.9" font-family="Arial" font-size="14.00" fill="#000000">pos_security_pin </text>
<text text-anchor="start" x="782.9158" y="-53.9" font-family="Arial" font-size="14.00" fill="#666666">[varchar(32)]</text>
</g>
<!-- public.digest_digest_res_users_rel&#45;&gt;public.res_users -->
<g id="edge2" class="edge">
<title>public.digest_digest_res_users_rel:res_users_id&#45;&gt;public.res_users:id</title>
<path fill="none" stroke="#000000" d="M818.9935,-874.8419C832.4965,-865.6663 822.9325,-834.9055 809,-817 769.0169,-765.6155 706.9831,-832.3845 667,-781 641.4805,-748.2034 625.4444,-687.5 667,-687.5"/>
<polygon fill="#000000" stroke="#000000" points="818.664,-874.9294 807.8433,-873.1512 813.832,-876.2147 809,-877.5 809,-877.5 809,-877.5 813.832,-876.2147 810.1567,-881.8488 818.664,-874.9294 818.664,-874.9294"/>
<text text-anchor="start" x="816.1065" y="-887.5" font-family="Arial" font-size="10.00" fill="#000000">FOREIGN KEY (res_users_id) REFERENCES res_users(id) ON DELETE CASCADE</text>
</g>
</g>
</svg>
