<?xml version="1.0" encoding="UTF-8" standalone="no"?>
<!DOCTYPE svg PUBLIC "-//W3C//DTD SVG 1.1//EN"
 "http://www.w3.org/Graphics/SVG/1.1/DTD/svg11.dtd">
<!-- Generated by graphviz version 2.40.1 (20161225.0304)
 -->
<!-- Title: public.snailmail_letter_account_invoice_send_rel Pages: 1 -->
<svg width="1447pt" height="832pt"
 viewBox="0.00 0.00 1447.00 832.00" xmlns="http://www.w3.org/2000/svg" xmlns:xlink="http://www.w3.org/1999/xlink">
<g id="graph0" class="graph" transform="scale(1 1) rotate(0) translate(4 828)">
<title>public.snailmail_letter_account_invoice_send_rel</title>
<polygon fill="#ffffff" stroke="transparent" points="-4,4 -4,-828 1443,-828 1443,4 -4,4"/>
<!-- public.snailmail_letter_account_invoice_send_rel -->
<g id="node1" class="node">
<title>public.snailmail_letter_account_invoice_send_rel</title>
<polygon fill="#efefef" stroke="transparent" points="501,-742.5 501,-777.5 1002,-777.5 1002,-742.5 501,-742.5"/>
<polygon fill="none" stroke="#000000" points="501,-742.5 501,-777.5 1002,-777.5 1002,-742.5 501,-742.5"/>
<text text-anchor="start" x="507.835" y="-755.3" font-family="Arial Bold" font-size="18.00" fill="#000000">public.snailmail_letter_account_invoice_send_rel</text>
<text text-anchor="start" x="897.9112" y="-755.3" font-family="Arial" font-size="14.00" fill="#000000"> </text>
<text text-anchor="start" x="901.8018" y="-755.3" font-family="Arial" font-size="14.00" fill="#666666">[BASE TABLE]</text>
<polygon fill="none" stroke="#000000" points="501,-712.5 501,-742.5 1002,-742.5 1002,-712.5 501,-712.5"/>
<text text-anchor="start" x="508" y="-723.9" font-family="Arial" font-size="14.00" fill="#000000">account_invoice_send_id </text>
<text text-anchor="start" x="669.0574" y="-723.9" font-family="Arial" font-size="14.00" fill="#666666">[integer]</text>
<polygon fill="none" stroke="#000000" points="501,-682.5 501,-712.5 1002,-712.5 1002,-682.5 501,-682.5"/>
<text text-anchor="start" x="508" y="-693.9" font-family="Arial" font-size="14.00" fill="#000000">snailmail_letter_id </text>
<text text-anchor="start" x="623.8934" y="-693.9" font-family="Arial" font-size="14.00" fill="#666666">[integer]</text>
<polygon fill="none" stroke="#000000" stroke-width="3" points="499,-681.5 499,-779.5 1003,-779.5 1003,-681.5 499,-681.5"/>
</g>
<!-- public.account_invoice_send -->
<g id="node2" class="node">
<title>public.account_invoice_send</title>
<polygon fill="#efefef" stroke="transparent" points="373,-462.5 373,-497.5 714,-497.5 714,-462.5 373,-462.5"/>
<polygon fill="none" stroke="#000000" points="373,-462.5 373,-497.5 714,-497.5 714,-462.5 373,-462.5"/>
<text text-anchor="start" x="379.836" y="-475.3" font-family="Arial Bold" font-size="18.00" fill="#000000">public.account_invoice_send</text>
<text text-anchor="start" x="609.9102" y="-475.3" font-family="Arial" font-size="14.00" fill="#000000"> </text>
<text text-anchor="start" x="613.8008" y="-475.3" font-family="Arial" font-size="14.00" fill="#666666">[BASE TABLE]</text>
<polygon fill="none" stroke="#000000" points="373,-432.5 373,-462.5 714,-462.5 714,-432.5 373,-432.5"/>
<text text-anchor="start" x="380" y="-443.9" font-family="Arial" font-size="14.00" fill="#000000">id </text>
<text text-anchor="start" x="394.7798" y="-443.9" font-family="Arial" font-size="14.00" fill="#666666">[integer]</text>
<polygon fill="none" stroke="#000000" points="373,-402.5 373,-432.5 714,-432.5 714,-402.5 373,-402.5"/>
<text text-anchor="start" x="380" y="-413.9" font-family="Arial" font-size="14.00" fill="#000000">is_email </text>
<text text-anchor="start" x="435.2188" y="-413.9" font-family="Arial" font-size="14.00" fill="#666666">[boolean]</text>
<polygon fill="none" stroke="#000000" points="373,-372.5 373,-402.5 714,-402.5 714,-372.5 373,-372.5"/>
<text text-anchor="start" x="380" y="-383.9" font-family="Arial" font-size="14.00" fill="#000000">is_print </text>
<text text-anchor="start" x="429.0028" y="-383.9" font-family="Arial" font-size="14.00" fill="#666666">[boolean]</text>
<polygon fill="none" stroke="#000000" points="373,-342.5 373,-372.5 714,-372.5 714,-342.5 373,-342.5"/>
<text text-anchor="start" x="380" y="-353.9" font-family="Arial" font-size="14.00" fill="#000000">printed </text>
<text text-anchor="start" x="426.6788" y="-353.9" font-family="Arial" font-size="14.00" fill="#666666">[boolean]</text>
<polygon fill="none" stroke="#000000" points="373,-312.5 373,-342.5 714,-342.5 714,-312.5 373,-312.5"/>
<text text-anchor="start" x="380" y="-323.9" font-family="Arial" font-size="14.00" fill="#000000">composer_id </text>
<text text-anchor="start" x="464.014" y="-323.9" font-family="Arial" font-size="14.00" fill="#666666">[integer]</text>
<polygon fill="none" stroke="#000000" points="373,-282.5 373,-312.5 714,-312.5 714,-282.5 373,-282.5"/>
<text text-anchor="start" x="380" y="-293.9" font-family="Arial" font-size="14.00" fill="#000000">template_id </text>
<text text-anchor="start" x="456.2412" y="-293.9" font-family="Arial" font-size="14.00" fill="#666666">[integer]</text>
<polygon fill="none" stroke="#000000" points="373,-252.5 373,-282.5 714,-282.5 714,-252.5 373,-252.5"/>
<text text-anchor="start" x="380" y="-263.9" font-family="Arial" font-size="14.00" fill="#000000">create_uid </text>
<text text-anchor="start" x="449.244" y="-263.9" font-family="Arial" font-size="14.00" fill="#666666">[integer]</text>
<polygon fill="none" stroke="#000000" points="373,-222.5 373,-252.5 714,-252.5 714,-222.5 373,-222.5"/>
<text text-anchor="start" x="380" y="-233.9" font-family="Arial" font-size="14.00" fill="#000000">create_date </text>
<text text-anchor="start" x="457.8106" y="-233.9" font-family="Arial" font-size="14.00" fill="#666666">[timestamp without time zone]</text>
<polygon fill="none" stroke="#000000" points="373,-192.5 373,-222.5 714,-222.5 714,-192.5 373,-192.5"/>
<text text-anchor="start" x="380" y="-203.9" font-family="Arial" font-size="14.00" fill="#000000">write_uid </text>
<text text-anchor="start" x="439.892" y="-203.9" font-family="Arial" font-size="14.00" fill="#666666">[integer]</text>
<polygon fill="none" stroke="#000000" points="373,-162.5 373,-192.5 714,-192.5 714,-162.5 373,-162.5"/>
<text text-anchor="start" x="380" y="-173.9" font-family="Arial" font-size="14.00" fill="#000000">write_date </text>
<text text-anchor="start" x="448.4586" y="-173.9" font-family="Arial" font-size="14.00" fill="#666666">[timestamp without time zone]</text>
<polygon fill="none" stroke="#000000" points="373,-132.5 373,-162.5 714,-162.5 714,-132.5 373,-132.5"/>
<text text-anchor="start" x="380" y="-143.9" font-family="Arial" font-size="14.00" fill="#000000">snailmail_is_letter </text>
<text text-anchor="start" x="495.1108" y="-143.9" font-family="Arial" font-size="14.00" fill="#666666">[boolean]</text>
<polygon fill="none" stroke="#000000" points="373,-102.5 373,-132.5 714,-132.5 714,-102.5 373,-102.5"/>
<text text-anchor="start" x="380" y="-113.9" font-family="Arial" font-size="14.00" fill="#000000">snailmail_cost </text>
<text text-anchor="start" x="471.7812" y="-113.9" font-family="Arial" font-size="14.00" fill="#666666">[double precision]</text>
</g>
<!-- public.snailmail_letter_account_invoice_send_rel&#45;&gt;public.account_invoice_send -->
<g id="edge1" class="edge">
<title>public.snailmail_letter_account_invoice_send_rel:account_invoice_send_id&#45;&gt;public.account_invoice_send:id</title>
<path fill="none" stroke="#000000" d="M490.8417,-725.9515C464.4029,-716.6412 481.3022,-667.4839 501,-637 557.3552,-549.7858 657.6448,-628.2142 714,-541 736.5533,-506.0971 755.5556,-447.5 714,-447.5"/>
<polygon fill="#000000" stroke="#000000" points="491.1142,-725.9929 500.3218,-731.9486 496.0571,-726.7465 501,-727.5 501,-727.5 501,-727.5 496.0571,-726.7465 501.6782,-723.0514 491.1142,-725.9929 491.1142,-725.9929"/>
<text text-anchor="start" x="7.0755" y="-737.5" font-family="Arial" font-size="10.00" fill="#000000">FOREIGN KEY (account_invoice_send_id) REFERENCES account_invoice_send(id) ON DELETE CASCADE</text>
</g>
<!-- public.snailmail_letter -->
<g id="node3" class="node">
<title>public.snailmail_letter</title>
<polygon fill="#efefef" stroke="transparent" points="818,-522.5 818,-557.5 1101,-557.5 1101,-522.5 818,-522.5"/>
<polygon fill="none" stroke="#000000" points="818,-522.5 818,-557.5 1101,-557.5 1101,-522.5 818,-522.5"/>
<text text-anchor="start" x="824.87" y="-535.3" font-family="Arial Bold" font-size="18.00" fill="#000000">public.snailmail_letter</text>
<text text-anchor="start" x="996.8762" y="-535.3" font-family="Arial" font-size="14.00" fill="#000000"> </text>
<text text-anchor="start" x="1000.7668" y="-535.3" font-family="Arial" font-size="14.00" fill="#666666">[BASE TABLE]</text>
<polygon fill="none" stroke="#000000" points="818,-492.5 818,-522.5 1101,-522.5 1101,-492.5 818,-492.5"/>
<text text-anchor="start" x="825" y="-503.9" font-family="Arial" font-size="14.00" fill="#000000">id </text>
<text text-anchor="start" x="839.7798" y="-503.9" font-family="Arial" font-size="14.00" fill="#666666">[integer]</text>
<polygon fill="none" stroke="#000000" points="818,-462.5 818,-492.5 1101,-492.5 1101,-462.5 818,-462.5"/>
<text text-anchor="start" x="825" y="-473.9" font-family="Arial" font-size="14.00" fill="#000000">user_id </text>
<text text-anchor="start" x="874.7882" y="-473.9" font-family="Arial" font-size="14.00" fill="#666666">[integer]</text>
<polygon fill="none" stroke="#000000" points="818,-432.5 818,-462.5 1101,-462.5 1101,-432.5 818,-432.5"/>
<text text-anchor="start" x="825" y="-443.9" font-family="Arial" font-size="14.00" fill="#000000">model </text>
<text text-anchor="start" x="867.0056" y="-443.9" font-family="Arial" font-size="14.00" fill="#666666">[varchar]</text>
<polygon fill="none" stroke="#000000" points="818,-402.5 818,-432.5 1101,-432.5 1101,-402.5 818,-402.5"/>
<text text-anchor="start" x="825" y="-413.9" font-family="Arial" font-size="14.00" fill="#000000">res_id </text>
<text text-anchor="start" x="867.0056" y="-413.9" font-family="Arial" font-size="14.00" fill="#666666">[integer]</text>
<polygon fill="none" stroke="#000000" points="818,-372.5 818,-402.5 1101,-402.5 1101,-372.5 818,-372.5"/>
<text text-anchor="start" x="825" y="-383.9" font-family="Arial" font-size="14.00" fill="#000000">partner_id </text>
<text text-anchor="start" x="891.9046" y="-383.9" font-family="Arial" font-size="14.00" fill="#666666">[integer]</text>
<polygon fill="none" stroke="#000000" points="818,-342.5 818,-372.5 1101,-372.5 1101,-342.5 818,-342.5"/>
<text text-anchor="start" x="825" y="-353.9" font-family="Arial" font-size="14.00" fill="#000000">company_id </text>
<text text-anchor="start" x="904.3534" y="-353.9" font-family="Arial" font-size="14.00" fill="#666666">[integer]</text>
<polygon fill="none" stroke="#000000" points="818,-312.5 818,-342.5 1101,-342.5 1101,-312.5 818,-312.5"/>
<text text-anchor="start" x="825" y="-323.9" font-family="Arial" font-size="14.00" fill="#000000">report_template </text>
<text text-anchor="start" x="926.9116" y="-323.9" font-family="Arial" font-size="14.00" fill="#666666">[integer]</text>
<polygon fill="none" stroke="#000000" points="818,-282.5 818,-312.5 1101,-312.5 1101,-282.5 818,-282.5"/>
<text text-anchor="start" x="825" y="-293.9" font-family="Arial" font-size="14.00" fill="#000000">attachment_id </text>
<text text-anchor="start" x="916.8078" y="-293.9" font-family="Arial" font-size="14.00" fill="#666666">[integer]</text>
<polygon fill="none" stroke="#000000" points="818,-252.5 818,-282.5 1101,-282.5 1101,-252.5 818,-252.5"/>
<text text-anchor="start" x="825" y="-263.9" font-family="Arial" font-size="14.00" fill="#000000">color </text>
<text text-anchor="start" x="859.223" y="-263.9" font-family="Arial" font-size="14.00" fill="#666666">[boolean]</text>
<polygon fill="none" stroke="#000000" points="818,-222.5 818,-252.5 1101,-252.5 1101,-222.5 818,-222.5"/>
<text text-anchor="start" x="825" y="-233.9" font-family="Arial" font-size="14.00" fill="#000000">duplex </text>
<text text-anchor="start" x="870.1276" y="-233.9" font-family="Arial" font-size="14.00" fill="#666666">[boolean]</text>
<polygon fill="none" stroke="#000000" points="818,-192.5 818,-222.5 1101,-222.5 1101,-192.5 818,-192.5"/>
<text text-anchor="start" x="825" y="-203.9" font-family="Arial" font-size="14.00" fill="#000000">state </text>
<text text-anchor="start" x="859.237" y="-203.9" font-family="Arial" font-size="14.00" fill="#666666">[varchar]</text>
<polygon fill="none" stroke="#000000" points="818,-162.5 818,-192.5 1101,-192.5 1101,-162.5 818,-162.5"/>
<text text-anchor="start" x="825" y="-173.9" font-family="Arial" font-size="14.00" fill="#000000">info_msg </text>
<text text-anchor="start" x="885.6788" y="-173.9" font-family="Arial" font-size="14.00" fill="#666666">[varchar]</text>
<polygon fill="none" stroke="#000000" points="818,-132.5 818,-162.5 1101,-162.5 1101,-132.5 818,-132.5"/>
<text text-anchor="start" x="825" y="-143.9" font-family="Arial" font-size="14.00" fill="#000000">create_uid </text>
<text text-anchor="start" x="894.244" y="-143.9" font-family="Arial" font-size="14.00" fill="#666666">[integer]</text>
<polygon fill="none" stroke="#000000" points="818,-102.5 818,-132.5 1101,-132.5 1101,-102.5 818,-102.5"/>
<text text-anchor="start" x="825" y="-113.9" font-family="Arial" font-size="14.00" fill="#000000">create_date </text>
<text text-anchor="start" x="902.8106" y="-113.9" font-family="Arial" font-size="14.00" fill="#666666">[timestamp without time zone]</text>
<polygon fill="none" stroke="#000000" points="818,-72.5 818,-102.5 1101,-102.5 1101,-72.5 818,-72.5"/>
<text text-anchor="start" x="825" y="-83.9" font-family="Arial" font-size="14.00" fill="#000000">write_uid </text>
<text text-anchor="start" x="884.892" y="-83.9" font-family="Arial" font-size="14.00" fill="#666666">[integer]</text>
<polygon fill="none" stroke="#000000" points="818,-42.5 818,-72.5 1101,-72.5 1101,-42.5 818,-42.5"/>
<text text-anchor="start" x="825" y="-53.9" font-family="Arial" font-size="14.00" fill="#000000">write_date </text>
<text text-anchor="start" x="893.4586" y="-53.9" font-family="Arial" font-size="14.00" fill="#666666">[timestamp without time zone]</text>
</g>
<!-- public.snailmail_letter_account_invoice_send_rel&#45;&gt;public.snailmail_letter -->
<g id="edge2" class="edge">
<title>public.snailmail_letter_account_invoice_send_rel:snailmail_letter_id&#45;&gt;public.snailmail_letter:id</title>
<path fill="none" stroke="#000000" d="M1012.0293,-694.8133C1025.6489,-685.5443 1016.4203,-654.5151 1002,-637 949.0361,-572.6694 870.9639,-665.3306 818,-601 791.5871,-568.9185 776.4444,-507.5 818,-507.5"/>
<polygon fill="#000000" stroke="#000000" points="1011.6594,-694.9123 1000.8355,-693.1533 1006.8297,-696.2061 1002,-697.5 1002,-697.5 1002,-697.5 1006.8297,-696.2061 1003.1645,-701.8467 1011.6594,-694.9123 1011.6594,-694.9123"/>
<text text-anchor="start" x="1009.3355" y="-707.5" font-family="Arial" font-size="10.00" fill="#000000">FOREIGN KEY (snailmail_letter_id) REFERENCES snailmail_letter(id) ON DELETE CASCADE</text>
</g>
</g>
</svg>
