<?xml version="1.0" encoding="UTF-8" standalone="no"?>
<!DOCTYPE svg PUBLIC "-//W3C//DTD SVG 1.1//EN"
 "http://www.w3.org/Graphics/SVG/1.1/DTD/svg11.dtd">
<!-- Generated by graphviz version 2.40.1 (20161225.0304)
 -->
<!-- Title: public.account_payment_term_line Pages: 1 -->
<svg width="1223pt" height="1312pt"
 viewBox="0.00 0.00 1223.00 1312.00" xmlns="http://www.w3.org/2000/svg" xmlns:xlink="http://www.w3.org/1999/xlink">
<g id="graph0" class="graph" transform="scale(1 1) rotate(0) translate(4 1308)">
<title>public.account_payment_term_line</title>
<polygon fill="#ffffff" stroke="transparent" points="-4,4 -4,-1308 1219,-1308 1219,4 -4,4"/>
<!-- public.account_payment_term_line -->
<g id="node1" class="node">
<title>public.account_payment_term_line</title>
<polygon fill="#efefef" stroke="transparent" points="446,-1222.5 446,-1257.5 835,-1257.5 835,-1222.5 446,-1222.5"/>
<polygon fill="none" stroke="#000000" points="446,-1222.5 446,-1257.5 835,-1257.5 835,-1222.5 446,-1222.5"/>
<text text-anchor="start" x="452.8393" y="-1235.3" font-family="Arial Bold" font-size="18.00" fill="#000000">public.account_payment_term_line</text>
<text text-anchor="start" x="730.9069" y="-1235.3" font-family="Arial" font-size="14.00" fill="#000000"> </text>
<text text-anchor="start" x="734.7975" y="-1235.3" font-family="Arial" font-size="14.00" fill="#666666">[BASE TABLE]</text>
<polygon fill="none" stroke="#000000" points="446,-1192.5 446,-1222.5 835,-1222.5 835,-1192.5 446,-1192.5"/>
<text text-anchor="start" x="453" y="-1203.9" font-family="Arial" font-size="14.00" fill="#000000">id </text>
<text text-anchor="start" x="467.7798" y="-1203.9" font-family="Arial" font-size="14.00" fill="#666666">[integer]</text>
<polygon fill="none" stroke="#000000" points="446,-1162.5 446,-1192.5 835,-1192.5 835,-1162.5 446,-1162.5"/>
<text text-anchor="start" x="453" y="-1173.9" font-family="Arial" font-size="14.00" fill="#000000">value </text>
<text text-anchor="start" x="490.345" y="-1173.9" font-family="Arial" font-size="14.00" fill="#666666">[varchar]</text>
<polygon fill="none" stroke="#000000" points="446,-1132.5 446,-1162.5 835,-1162.5 835,-1132.5 446,-1132.5"/>
<text text-anchor="start" x="453" y="-1143.9" font-family="Arial" font-size="14.00" fill="#000000">value_amount </text>
<text text-anchor="start" x="544.8092" y="-1143.9" font-family="Arial" font-size="14.00" fill="#666666">[numeric]</text>
<polygon fill="none" stroke="#000000" points="446,-1102.5 446,-1132.5 835,-1132.5 835,-1102.5 446,-1102.5"/>
<text text-anchor="start" x="453" y="-1113.9" font-family="Arial" font-size="14.00" fill="#000000">days </text>
<text text-anchor="start" x="486.4558" y="-1113.9" font-family="Arial" font-size="14.00" fill="#666666">[integer]</text>
<polygon fill="none" stroke="#000000" points="446,-1072.5 446,-1102.5 835,-1102.5 835,-1072.5 446,-1072.5"/>
<text text-anchor="start" x="453" y="-1083.9" font-family="Arial" font-size="14.00" fill="#000000">day_of_the_month </text>
<text text-anchor="start" x="572.8316" y="-1083.9" font-family="Arial" font-size="14.00" fill="#666666">[integer]</text>
<polygon fill="none" stroke="#000000" points="446,-1042.5 446,-1072.5 835,-1072.5 835,-1042.5 446,-1042.5"/>
<text text-anchor="start" x="453" y="-1053.9" font-family="Arial" font-size="14.00" fill="#000000">option </text>
<text text-anchor="start" x="495.0182" y="-1053.9" font-family="Arial" font-size="14.00" fill="#666666">[varchar]</text>
<polygon fill="none" stroke="#000000" points="446,-1012.5 446,-1042.5 835,-1042.5 835,-1012.5 446,-1012.5"/>
<text text-anchor="start" x="453" y="-1023.9" font-family="Arial" font-size="14.00" fill="#000000">payment_id </text>
<text text-anchor="start" x="529.244" y="-1023.9" font-family="Arial" font-size="14.00" fill="#666666">[integer]</text>
<polygon fill="none" stroke="#000000" points="446,-982.5 446,-1012.5 835,-1012.5 835,-982.5 446,-982.5"/>
<text text-anchor="start" x="453" y="-993.9" font-family="Arial" font-size="14.00" fill="#000000">sequence </text>
<text text-anchor="start" x="517.5862" y="-993.9" font-family="Arial" font-size="14.00" fill="#666666">[integer]</text>
<polygon fill="none" stroke="#000000" points="446,-952.5 446,-982.5 835,-982.5 835,-952.5 446,-952.5"/>
<text text-anchor="start" x="453" y="-963.9" font-family="Arial" font-size="14.00" fill="#000000">create_uid </text>
<text text-anchor="start" x="522.244" y="-963.9" font-family="Arial" font-size="14.00" fill="#666666">[integer]</text>
<polygon fill="none" stroke="#000000" points="446,-922.5 446,-952.5 835,-952.5 835,-922.5 446,-922.5"/>
<text text-anchor="start" x="453" y="-933.9" font-family="Arial" font-size="14.00" fill="#000000">create_date </text>
<text text-anchor="start" x="530.8106" y="-933.9" font-family="Arial" font-size="14.00" fill="#666666">[timestamp without time zone]</text>
<polygon fill="none" stroke="#000000" points="446,-892.5 446,-922.5 835,-922.5 835,-892.5 446,-892.5"/>
<text text-anchor="start" x="453" y="-903.9" font-family="Arial" font-size="14.00" fill="#000000">write_uid </text>
<text text-anchor="start" x="512.892" y="-903.9" font-family="Arial" font-size="14.00" fill="#666666">[integer]</text>
<polygon fill="none" stroke="#000000" points="446,-862.5 446,-892.5 835,-892.5 835,-862.5 446,-862.5"/>
<text text-anchor="start" x="453" y="-873.9" font-family="Arial" font-size="14.00" fill="#000000">write_date </text>
<text text-anchor="start" x="521.4586" y="-873.9" font-family="Arial" font-size="14.00" fill="#666666">[timestamp without time zone]</text>
<polygon fill="none" stroke="#000000" stroke-width="3" points="444,-861.5 444,-1259.5 836,-1259.5 836,-861.5 444,-861.5"/>
</g>
<!-- public.account_payment_term -->
<g id="node2" class="node">
<title>public.account_payment_term</title>
<polygon fill="#efefef" stroke="transparent" points="48,-522.5 48,-557.5 399,-557.5 399,-522.5 48,-522.5"/>
<polygon fill="none" stroke="#000000" points="48,-522.5 48,-557.5 399,-557.5 399,-522.5 48,-522.5"/>
<text text-anchor="start" x="54.8428" y="-535.3" font-family="Arial Bold" font-size="18.00" fill="#000000">public.account_payment_term</text>
<text text-anchor="start" x="294.9034" y="-535.3" font-family="Arial" font-size="14.00" fill="#000000"> </text>
<text text-anchor="start" x="298.794" y="-535.3" font-family="Arial" font-size="14.00" fill="#666666">[BASE TABLE]</text>
<polygon fill="none" stroke="#000000" points="48,-492.5 48,-522.5 399,-522.5 399,-492.5 48,-492.5"/>
<text text-anchor="start" x="55" y="-503.9" font-family="Arial" font-size="14.00" fill="#000000">id </text>
<text text-anchor="start" x="69.7798" y="-503.9" font-family="Arial" font-size="14.00" fill="#666666">[integer]</text>
<polygon fill="none" stroke="#000000" points="48,-462.5 48,-492.5 399,-492.5 399,-462.5 48,-462.5"/>
<text text-anchor="start" x="55" y="-473.9" font-family="Arial" font-size="14.00" fill="#000000">name </text>
<text text-anchor="start" x="93.899" y="-473.9" font-family="Arial" font-size="14.00" fill="#666666">[varchar]</text>
<polygon fill="none" stroke="#000000" points="48,-432.5 48,-462.5 399,-462.5 399,-432.5 48,-432.5"/>
<text text-anchor="start" x="55" y="-443.9" font-family="Arial" font-size="14.00" fill="#000000">active </text>
<text text-anchor="start" x="95.453" y="-443.9" font-family="Arial" font-size="14.00" fill="#666666">[boolean]</text>
<polygon fill="none" stroke="#000000" points="48,-402.5 48,-432.5 399,-432.5 399,-402.5 48,-402.5"/>
<text text-anchor="start" x="55" y="-413.9" font-family="Arial" font-size="14.00" fill="#000000">note </text>
<text text-anchor="start" x="86.129" y="-413.9" font-family="Arial" font-size="14.00" fill="#666666">[text]</text>
<polygon fill="none" stroke="#000000" points="48,-372.5 48,-402.5 399,-402.5 399,-372.5 48,-372.5"/>
<text text-anchor="start" x="55" y="-383.9" font-family="Arial" font-size="14.00" fill="#000000">company_id </text>
<text text-anchor="start" x="134.3534" y="-383.9" font-family="Arial" font-size="14.00" fill="#666666">[integer]</text>
<polygon fill="none" stroke="#000000" points="48,-342.5 48,-372.5 399,-372.5 399,-342.5 48,-342.5"/>
<text text-anchor="start" x="55" y="-353.9" font-family="Arial" font-size="14.00" fill="#000000">sequence </text>
<text text-anchor="start" x="119.5862" y="-353.9" font-family="Arial" font-size="14.00" fill="#666666">[integer]</text>
<polygon fill="none" stroke="#000000" points="48,-312.5 48,-342.5 399,-342.5 399,-312.5 48,-312.5"/>
<text text-anchor="start" x="55" y="-323.9" font-family="Arial" font-size="14.00" fill="#000000">create_uid </text>
<text text-anchor="start" x="124.244" y="-323.9" font-family="Arial" font-size="14.00" fill="#666666">[integer]</text>
<polygon fill="none" stroke="#000000" points="48,-282.5 48,-312.5 399,-312.5 399,-282.5 48,-282.5"/>
<text text-anchor="start" x="55" y="-293.9" font-family="Arial" font-size="14.00" fill="#000000">create_date </text>
<text text-anchor="start" x="132.8106" y="-293.9" font-family="Arial" font-size="14.00" fill="#666666">[timestamp without time zone]</text>
<polygon fill="none" stroke="#000000" points="48,-252.5 48,-282.5 399,-282.5 399,-252.5 48,-252.5"/>
<text text-anchor="start" x="55" y="-263.9" font-family="Arial" font-size="14.00" fill="#000000">write_uid </text>
<text text-anchor="start" x="114.892" y="-263.9" font-family="Arial" font-size="14.00" fill="#666666">[integer]</text>
<polygon fill="none" stroke="#000000" points="48,-222.5 48,-252.5 399,-252.5 399,-222.5 48,-222.5"/>
<text text-anchor="start" x="55" y="-233.9" font-family="Arial" font-size="14.00" fill="#000000">write_date </text>
<text text-anchor="start" x="123.4586" y="-233.9" font-family="Arial" font-size="14.00" fill="#666666">[timestamp without time zone]</text>
</g>
<!-- public.account_payment_term_line&#45;&gt;public.account_payment_term -->
<g id="edge1" class="edge">
<title>public.account_payment_term_line:payment_id&#45;&gt;public.account_payment_term:id</title>
<path fill="none" stroke="#000000" d="M435.9862,-1026.0083C341.2452,-995.5078 511.4008,-507.5 399,-507.5"/>
<polygon fill="#000000" stroke="#000000" points="436.1091,-1026.0265 445.3369,-1031.9509 441.0546,-1026.7633 446,-1027.5 446,-1027.5 446,-1027.5 441.0546,-1026.7633 446.6631,-1023.0491 436.1091,-1026.0265 436.1091,-1026.0265"/>
<text text-anchor="start" x="6.592" y="-1037.5" font-family="Arial" font-size="10.00" fill="#000000">FOREIGN KEY (payment_id) REFERENCES account_payment_term(id) ON DELETE CASCADE</text>
</g>
<!-- public.res_users -->
<g id="node3" class="node">
<title>public.res_users</title>
<polygon fill="#efefef" stroke="transparent" points="503,-702.5 503,-737.5 779,-737.5 779,-702.5 503,-702.5"/>
<polygon fill="none" stroke="#000000" points="503,-702.5 503,-737.5 779,-737.5 779,-702.5 503,-702.5"/>
<text text-anchor="start" x="526.8639" y="-715.3" font-family="Arial Bold" font-size="18.00" fill="#000000">public.res_users</text>
<text text-anchor="start" x="657.8823" y="-715.3" font-family="Arial" font-size="14.00" fill="#000000"> </text>
<text text-anchor="start" x="661.7729" y="-715.3" font-family="Arial" font-size="14.00" fill="#666666">[BASE TABLE]</text>
<polygon fill="none" stroke="#000000" points="503,-672.5 503,-702.5 779,-702.5 779,-672.5 503,-672.5"/>
<text text-anchor="start" x="510" y="-683.9" font-family="Arial" font-size="14.00" fill="#000000">id </text>
<text text-anchor="start" x="524.7798" y="-683.9" font-family="Arial" font-size="14.00" fill="#666666">[integer]</text>
<polygon fill="none" stroke="#000000" points="503,-642.5 503,-672.5 779,-672.5 779,-642.5 503,-642.5"/>
<text text-anchor="start" x="510" y="-653.9" font-family="Arial" font-size="14.00" fill="#000000">active </text>
<text text-anchor="start" x="550.453" y="-653.9" font-family="Arial" font-size="14.00" fill="#666666">[boolean]</text>
<polygon fill="none" stroke="#000000" points="503,-612.5 503,-642.5 779,-642.5 779,-612.5 503,-612.5"/>
<text text-anchor="start" x="510" y="-623.9" font-family="Arial" font-size="14.00" fill="#000000">login </text>
<text text-anchor="start" x="543.4516" y="-623.9" font-family="Arial" font-size="14.00" fill="#666666">[varchar]</text>
<polygon fill="none" stroke="#000000" points="503,-582.5 503,-612.5 779,-612.5 779,-582.5 503,-582.5"/>
<text text-anchor="start" x="510" y="-593.9" font-family="Arial" font-size="14.00" fill="#000000">password </text>
<text text-anchor="start" x="573.7882" y="-593.9" font-family="Arial" font-size="14.00" fill="#666666">[varchar]</text>
<polygon fill="none" stroke="#000000" points="503,-552.5 503,-582.5 779,-582.5 779,-552.5 503,-552.5"/>
<text text-anchor="start" x="510" y="-563.9" font-family="Arial" font-size="14.00" fill="#000000">company_id </text>
<text text-anchor="start" x="589.3534" y="-563.9" font-family="Arial" font-size="14.00" fill="#666666">[integer]</text>
<polygon fill="none" stroke="#000000" points="503,-522.5 503,-552.5 779,-552.5 779,-522.5 503,-522.5"/>
<text text-anchor="start" x="510" y="-533.9" font-family="Arial" font-size="14.00" fill="#000000">partner_id </text>
<text text-anchor="start" x="576.9046" y="-533.9" font-family="Arial" font-size="14.00" fill="#666666">[integer]</text>
<polygon fill="none" stroke="#000000" points="503,-492.5 503,-522.5 779,-522.5 779,-492.5 503,-492.5"/>
<text text-anchor="start" x="509.5246" y="-503.9" font-family="Arial" font-size="14.00" fill="#000000">create_date </text>
<text text-anchor="start" x="587.3352" y="-503.9" font-family="Arial" font-size="14.00" fill="#666666">[timestamp without time zone]</text>
<polygon fill="none" stroke="#000000" points="503,-462.5 503,-492.5 779,-492.5 779,-462.5 503,-462.5"/>
<text text-anchor="start" x="510" y="-473.9" font-family="Arial" font-size="14.00" fill="#000000">signature </text>
<text text-anchor="start" x="571.4614" y="-473.9" font-family="Arial" font-size="14.00" fill="#666666">[text]</text>
<polygon fill="none" stroke="#000000" points="503,-432.5 503,-462.5 779,-462.5 779,-432.5 503,-432.5"/>
<text text-anchor="start" x="510" y="-443.9" font-family="Arial" font-size="14.00" fill="#000000">action_id </text>
<text text-anchor="start" x="569.9074" y="-443.9" font-family="Arial" font-size="14.00" fill="#666666">[integer]</text>
<polygon fill="none" stroke="#000000" points="503,-402.5 503,-432.5 779,-432.5 779,-402.5 503,-402.5"/>
<text text-anchor="start" x="510" y="-413.9" font-family="Arial" font-size="14.00" fill="#000000">share </text>
<text text-anchor="start" x="548.899" y="-413.9" font-family="Arial" font-size="14.00" fill="#666666">[boolean]</text>
<polygon fill="none" stroke="#000000" points="503,-372.5 503,-402.5 779,-402.5 779,-372.5 503,-372.5"/>
<text text-anchor="start" x="510" y="-383.9" font-family="Arial" font-size="14.00" fill="#000000">create_uid </text>
<text text-anchor="start" x="579.244" y="-383.9" font-family="Arial" font-size="14.00" fill="#666666">[integer]</text>
<polygon fill="none" stroke="#000000" points="503,-342.5 503,-372.5 779,-372.5 779,-342.5 503,-342.5"/>
<text text-anchor="start" x="510" y="-353.9" font-family="Arial" font-size="14.00" fill="#000000">write_uid </text>
<text text-anchor="start" x="569.892" y="-353.9" font-family="Arial" font-size="14.00" fill="#666666">[integer]</text>
<polygon fill="none" stroke="#000000" points="503,-312.5 503,-342.5 779,-342.5 779,-312.5 503,-312.5"/>
<text text-anchor="start" x="510" y="-323.9" font-family="Arial" font-size="14.00" fill="#000000">write_date </text>
<text text-anchor="start" x="578.4586" y="-323.9" font-family="Arial" font-size="14.00" fill="#666666">[timestamp without time zone]</text>
<polygon fill="none" stroke="#000000" points="503,-282.5 503,-312.5 779,-312.5 779,-282.5 503,-282.5"/>
<text text-anchor="start" x="510" y="-293.9" font-family="Arial" font-size="14.00" fill="#000000">alias_id </text>
<text text-anchor="start" x="561.3408" y="-293.9" font-family="Arial" font-size="14.00" fill="#666666">[integer]</text>
<polygon fill="none" stroke="#000000" points="503,-252.5 503,-282.5 779,-282.5 779,-252.5 503,-252.5"/>
<text text-anchor="start" x="510" y="-263.9" font-family="Arial" font-size="14.00" fill="#000000">notification_type </text>
<text text-anchor="start" x="615.0336" y="-263.9" font-family="Arial" font-size="14.00" fill="#666666">[varchar]</text>
<polygon fill="none" stroke="#000000" points="503,-222.5 503,-252.5 779,-252.5 779,-222.5 503,-222.5"/>
<text text-anchor="start" x="510" y="-233.9" font-family="Arial" font-size="14.00" fill="#000000">odoobot_state </text>
<text text-anchor="start" x="602.6058" y="-233.9" font-family="Arial" font-size="14.00" fill="#666666">[varchar]</text>
<polygon fill="none" stroke="#000000" points="503,-192.5 503,-222.5 779,-222.5 779,-192.5 503,-192.5"/>
<text text-anchor="start" x="510" y="-203.9" font-family="Arial" font-size="14.00" fill="#000000">sale_team_id </text>
<text text-anchor="start" x="597.1332" y="-203.9" font-family="Arial" font-size="14.00" fill="#666666">[integer]</text>
<polygon fill="none" stroke="#000000" points="503,-162.5 503,-192.5 779,-192.5 779,-162.5 503,-162.5"/>
<text text-anchor="start" x="510" y="-173.9" font-family="Arial" font-size="14.00" fill="#000000">target_sales_won </text>
<text text-anchor="start" x="623.589" y="-173.9" font-family="Arial" font-size="14.00" fill="#666666">[integer]</text>
<polygon fill="none" stroke="#000000" points="503,-132.5 503,-162.5 779,-162.5 779,-132.5 503,-132.5"/>
<text text-anchor="start" x="510" y="-143.9" font-family="Arial" font-size="14.00" fill="#000000">target_sales_done </text>
<text text-anchor="start" x="629.0476" y="-143.9" font-family="Arial" font-size="14.00" fill="#666666">[integer]</text>
<polygon fill="none" stroke="#000000" points="503,-102.5 503,-132.5 779,-132.5 779,-102.5 503,-102.5"/>
<text text-anchor="start" x="510" y="-113.9" font-family="Arial" font-size="14.00" fill="#000000">website_id </text>
<text text-anchor="start" x="580.014" y="-113.9" font-family="Arial" font-size="14.00" fill="#666666">[integer]</text>
<polygon fill="none" stroke="#000000" points="503,-72.5 503,-102.5 779,-102.5 779,-72.5 503,-72.5"/>
<text text-anchor="start" x="510" y="-83.9" font-family="Arial" font-size="14.00" fill="#000000">target_sales_invoiced </text>
<text text-anchor="start" x="649.2608" y="-83.9" font-family="Arial" font-size="14.00" fill="#666666">[integer]</text>
<polygon fill="none" stroke="#000000" points="503,-42.5 503,-72.5 779,-72.5 779,-42.5 503,-42.5"/>
<text text-anchor="start" x="510" y="-53.9" font-family="Arial" font-size="14.00" fill="#000000">pos_security_pin </text>
<text text-anchor="start" x="618.9158" y="-53.9" font-family="Arial" font-size="14.00" fill="#666666">[varchar(32)]</text>
</g>
<!-- public.account_payment_term_line&#45;&gt;public.res_users -->
<g id="edge2" class="edge">
<title>public.account_payment_term_line:create_uid&#45;&gt;public.res_users:id</title>
<path fill="none" stroke="#000000" d="M845.1854,-966.6211C899.3921,-956.6363 877.2323,-864.0593 835,-817 785.4345,-761.7694 552.5655,-836.2306 503,-781 475.2448,-750.0725 461.4444,-687.5 503,-687.5"/>
<polygon fill="#000000" stroke="#000000" points="844.963,-966.6402 834.6131,-963.0167 839.9815,-967.0701 835,-967.5 835,-967.5 835,-967.5 839.9815,-967.0701 835.3869,-971.9833 844.963,-966.6402 844.963,-966.6402"/>
<text text-anchor="start" x="841.657" y="-977.5" font-family="Arial" font-size="10.00" fill="#000000">FOREIGN KEY (create_uid) REFERENCES res_users(id) ON DELETE SET NULL</text>
</g>
<!-- public.account_payment_term_line&#45;&gt;public.res_users -->
<g id="edge3" class="edge">
<title>public.account_payment_term_line:write_uid&#45;&gt;public.res_users:id</title>
<path fill="none" stroke="#000000" d="M844.9328,-905.9782C872.599,-896.4133 859.3461,-844.1288 835,-817 785.4345,-761.7694 552.5655,-836.2306 503,-781 475.2448,-750.0725 461.4444,-687.5 503,-687.5"/>
<polygon fill="#000000" stroke="#000000" points="844.8847,-905.9855 834.3185,-903.0519 839.9423,-906.7428 835,-907.5 835,-907.5 835,-907.5 839.9423,-906.7428 835.6815,-911.9481 844.8847,-905.9855 844.8847,-905.9855"/>
<text text-anchor="start" x="841.997" y="-917.5" font-family="Arial" font-size="10.00" fill="#000000">FOREIGN KEY (write_uid) REFERENCES res_users(id) ON DELETE SET NULL</text>
</g>
</g>
</svg>
