<?xml version="1.0" encoding="UTF-8" standalone="no"?>
<!DOCTYPE svg PUBLIC "-//W3C//DTD SVG 1.1//EN"
 "http://www.w3.org/Graphics/SVG/1.1/DTD/svg11.dtd">
<!-- Generated by graphviz version 2.40.1 (20161225.0304)
 -->
<!-- Title: public.stock_change_standard_price Pages: 1 -->
<svg width="1261pt" height="1192pt"
 viewBox="0.00 0.00 1261.00 1192.00" xmlns="http://www.w3.org/2000/svg" xmlns:xlink="http://www.w3.org/1999/xlink">
<g id="graph0" class="graph" transform="scale(1 1) rotate(0) translate(4 1188)">
<title>public.stock_change_standard_price</title>
<polygon fill="#ffffff" stroke="transparent" points="-4,4 -4,-1188 1257,-1188 1257,4 -4,4"/>
<!-- public.stock_change_standard_price -->
<g id="node1" class="node">
<title>public.stock_change_standard_price</title>
<polygon fill="#efefef" stroke="transparent" points="470,-1102.5 470,-1137.5 873,-1137.5 873,-1102.5 470,-1102.5"/>
<polygon fill="none" stroke="#000000" points="470,-1102.5 470,-1137.5 873,-1137.5 873,-1102.5 470,-1102.5"/>
<text text-anchor="start" x="476.8274" y="-1115.3" font-family="Arial Bold" font-size="18.00" fill="#000000">public.stock_change_standard_price</text>
<text text-anchor="start" x="768.9188" y="-1115.3" font-family="Arial" font-size="14.00" fill="#000000"> </text>
<text text-anchor="start" x="772.8094" y="-1115.3" font-family="Arial" font-size="14.00" fill="#666666">[BASE TABLE]</text>
<polygon fill="none" stroke="#000000" points="470,-1072.5 470,-1102.5 873,-1102.5 873,-1072.5 470,-1072.5"/>
<text text-anchor="start" x="477" y="-1083.9" font-family="Arial" font-size="14.00" fill="#000000">id </text>
<text text-anchor="start" x="491.7798" y="-1083.9" font-family="Arial" font-size="14.00" fill="#666666">[integer]</text>
<polygon fill="none" stroke="#000000" points="470,-1042.5 470,-1072.5 873,-1072.5 873,-1042.5 470,-1042.5"/>
<text text-anchor="start" x="477" y="-1053.9" font-family="Arial" font-size="14.00" fill="#000000">new_price </text>
<text text-anchor="start" x="544.6774" y="-1053.9" font-family="Arial" font-size="14.00" fill="#666666">[numeric]</text>
<polygon fill="none" stroke="#000000" points="470,-1012.5 470,-1042.5 873,-1042.5 873,-1012.5 470,-1012.5"/>
<text text-anchor="start" x="477" y="-1023.9" font-family="Arial" font-size="14.00" fill="#000000">counterpart_account_id </text>
<text text-anchor="start" x="627.164" y="-1023.9" font-family="Arial" font-size="14.00" fill="#666666">[integer]</text>
<polygon fill="none" stroke="#000000" points="470,-982.5 470,-1012.5 873,-1012.5 873,-982.5 470,-982.5"/>
<text text-anchor="start" x="477" y="-993.9" font-family="Arial" font-size="14.00" fill="#000000">counterpart_account_id_required </text>
<text text-anchor="start" x="686.2874" y="-993.9" font-family="Arial" font-size="14.00" fill="#666666">[boolean]</text>
<polygon fill="none" stroke="#000000" points="470,-952.5 470,-982.5 873,-982.5 873,-952.5 470,-952.5"/>
<text text-anchor="start" x="477" y="-963.9" font-family="Arial" font-size="14.00" fill="#000000">create_uid </text>
<text text-anchor="start" x="546.244" y="-963.9" font-family="Arial" font-size="14.00" fill="#666666">[integer]</text>
<polygon fill="none" stroke="#000000" points="470,-922.5 470,-952.5 873,-952.5 873,-922.5 470,-922.5"/>
<text text-anchor="start" x="477" y="-933.9" font-family="Arial" font-size="14.00" fill="#000000">create_date </text>
<text text-anchor="start" x="554.8106" y="-933.9" font-family="Arial" font-size="14.00" fill="#666666">[timestamp without time zone]</text>
<polygon fill="none" stroke="#000000" points="470,-892.5 470,-922.5 873,-922.5 873,-892.5 470,-892.5"/>
<text text-anchor="start" x="477" y="-903.9" font-family="Arial" font-size="14.00" fill="#000000">write_uid </text>
<text text-anchor="start" x="536.892" y="-903.9" font-family="Arial" font-size="14.00" fill="#666666">[integer]</text>
<polygon fill="none" stroke="#000000" points="470,-862.5 470,-892.5 873,-892.5 873,-862.5 470,-862.5"/>
<text text-anchor="start" x="477" y="-873.9" font-family="Arial" font-size="14.00" fill="#000000">write_date </text>
<text text-anchor="start" x="545.4586" y="-873.9" font-family="Arial" font-size="14.00" fill="#666666">[timestamp without time zone]</text>
<polygon fill="none" stroke="#000000" stroke-width="3" points="468,-861.5 468,-1139.5 874,-1139.5 874,-861.5 468,-861.5"/>
</g>
<!-- public.account_account -->
<g id="node2" class="node">
<title>public.account_account</title>
<polygon fill="#efefef" stroke="transparent" points="62,-627.5 62,-662.5 430,-662.5 430,-627.5 62,-627.5"/>
<polygon fill="none" stroke="#000000" points="62,-627.5 62,-662.5 430,-662.5 430,-627.5 62,-627.5"/>
<text text-anchor="start" x="103.3384" y="-640.3" font-family="Arial Bold" font-size="18.00" fill="#000000">public.account_account</text>
<text text-anchor="start" x="291.4078" y="-640.3" font-family="Arial" font-size="14.00" fill="#000000"> </text>
<text text-anchor="start" x="295.2984" y="-640.3" font-family="Arial" font-size="14.00" fill="#666666">[BASE TABLE]</text>
<polygon fill="none" stroke="#000000" points="62,-597.5 62,-627.5 430,-627.5 430,-597.5 62,-597.5"/>
<text text-anchor="start" x="69" y="-608.9" font-family="Arial" font-size="14.00" fill="#000000">id </text>
<text text-anchor="start" x="83.7798" y="-608.9" font-family="Arial" font-size="14.00" fill="#666666">[integer]</text>
<polygon fill="none" stroke="#000000" points="62,-567.5 62,-597.5 430,-597.5 430,-567.5 62,-567.5"/>
<text text-anchor="start" x="69" y="-578.9" font-family="Arial" font-size="14.00" fill="#000000">name </text>
<text text-anchor="start" x="107.899" y="-578.9" font-family="Arial" font-size="14.00" fill="#666666">[varchar]</text>
<polygon fill="none" stroke="#000000" points="62,-537.5 62,-567.5 430,-567.5 430,-537.5 62,-537.5"/>
<text text-anchor="start" x="69" y="-548.9" font-family="Arial" font-size="14.00" fill="#000000">currency_id </text>
<text text-anchor="start" x="145.2314" y="-548.9" font-family="Arial" font-size="14.00" fill="#666666">[integer]</text>
<polygon fill="none" stroke="#000000" points="62,-507.5 62,-537.5 430,-537.5 430,-507.5 62,-507.5"/>
<text text-anchor="start" x="69" y="-518.9" font-family="Arial" font-size="14.00" fill="#000000">code </text>
<text text-anchor="start" x="103.2384" y="-518.9" font-family="Arial" font-size="14.00" fill="#666666">[varchar(64)]</text>
<polygon fill="none" stroke="#000000" points="62,-477.5 62,-507.5 430,-507.5 430,-477.5 62,-477.5"/>
<text text-anchor="start" x="69" y="-488.9" font-family="Arial" font-size="14.00" fill="#000000">deprecated </text>
<text text-anchor="start" x="142.92" y="-488.9" font-family="Arial" font-size="14.00" fill="#666666">[boolean]</text>
<polygon fill="none" stroke="#000000" points="62,-447.5 62,-477.5 430,-477.5 430,-447.5 62,-447.5"/>
<text text-anchor="start" x="69" y="-458.9" font-family="Arial" font-size="14.00" fill="#000000">user_type_id </text>
<text text-anchor="start" x="153.0266" y="-458.9" font-family="Arial" font-size="14.00" fill="#666666">[integer]</text>
<polygon fill="none" stroke="#000000" points="62,-417.5 62,-447.5 430,-447.5 430,-417.5 62,-417.5"/>
<text text-anchor="start" x="69" y="-428.9" font-family="Arial" font-size="14.00" fill="#000000">internal_type </text>
<text text-anchor="start" x="153.0238" y="-428.9" font-family="Arial" font-size="14.00" fill="#666666">[varchar]</text>
<polygon fill="none" stroke="#000000" points="62,-387.5 62,-417.5 430,-417.5 430,-387.5 62,-387.5"/>
<text text-anchor="start" x="69" y="-398.9" font-family="Arial" font-size="14.00" fill="#000000">internal_group </text>
<text text-anchor="start" x="162.359" y="-398.9" font-family="Arial" font-size="14.00" fill="#666666">[varchar]</text>
<polygon fill="none" stroke="#000000" points="62,-357.5 62,-387.5 430,-387.5 430,-357.5 62,-357.5"/>
<text text-anchor="start" x="68.6326" y="-368.9" font-family="Arial" font-size="14.00" fill="#000000">last_time_entries_checked </text>
<text text-anchor="start" x="238.2272" y="-368.9" font-family="Arial" font-size="14.00" fill="#666666">[timestamp without time zone]</text>
<polygon fill="none" stroke="#000000" points="62,-327.5 62,-357.5 430,-357.5 430,-327.5 62,-327.5"/>
<text text-anchor="start" x="69" y="-338.9" font-family="Arial" font-size="14.00" fill="#000000">reconcile </text>
<text text-anchor="start" x="128.8948" y="-338.9" font-family="Arial" font-size="14.00" fill="#666666">[boolean]</text>
<polygon fill="none" stroke="#000000" points="62,-297.5 62,-327.5 430,-327.5 430,-297.5 62,-297.5"/>
<text text-anchor="start" x="69" y="-308.9" font-family="Arial" font-size="14.00" fill="#000000">note </text>
<text text-anchor="start" x="100.129" y="-308.9" font-family="Arial" font-size="14.00" fill="#666666">[text]</text>
<polygon fill="none" stroke="#000000" points="62,-267.5 62,-297.5 430,-297.5 430,-267.5 62,-267.5"/>
<text text-anchor="start" x="69" y="-278.9" font-family="Arial" font-size="14.00" fill="#000000">company_id </text>
<text text-anchor="start" x="148.3534" y="-278.9" font-family="Arial" font-size="14.00" fill="#666666">[integer]</text>
<polygon fill="none" stroke="#000000" points="62,-237.5 62,-267.5 430,-267.5 430,-237.5 62,-237.5"/>
<text text-anchor="start" x="69" y="-248.9" font-family="Arial" font-size="14.00" fill="#000000">group_id </text>
<text text-anchor="start" x="127.3534" y="-248.9" font-family="Arial" font-size="14.00" fill="#666666">[integer]</text>
<polygon fill="none" stroke="#000000" points="62,-207.5 62,-237.5 430,-237.5 430,-207.5 62,-207.5"/>
<text text-anchor="start" x="69" y="-218.9" font-family="Arial" font-size="14.00" fill="#000000">create_uid </text>
<text text-anchor="start" x="138.244" y="-218.9" font-family="Arial" font-size="14.00" fill="#666666">[integer]</text>
<polygon fill="none" stroke="#000000" points="62,-177.5 62,-207.5 430,-207.5 430,-177.5 62,-177.5"/>
<text text-anchor="start" x="69" y="-188.9" font-family="Arial" font-size="14.00" fill="#000000">create_date </text>
<text text-anchor="start" x="146.8106" y="-188.9" font-family="Arial" font-size="14.00" fill="#666666">[timestamp without time zone]</text>
<polygon fill="none" stroke="#000000" points="62,-147.5 62,-177.5 430,-177.5 430,-147.5 62,-147.5"/>
<text text-anchor="start" x="69" y="-158.9" font-family="Arial" font-size="14.00" fill="#000000">write_uid </text>
<text text-anchor="start" x="128.892" y="-158.9" font-family="Arial" font-size="14.00" fill="#666666">[integer]</text>
<polygon fill="none" stroke="#000000" points="62,-117.5 62,-147.5 430,-147.5 430,-117.5 62,-117.5"/>
<text text-anchor="start" x="69" y="-128.9" font-family="Arial" font-size="14.00" fill="#000000">write_date </text>
<text text-anchor="start" x="137.4586" y="-128.9" font-family="Arial" font-size="14.00" fill="#666666">[timestamp without time zone]</text>
</g>
<!-- public.stock_change_standard_price&#45;&gt;public.account_account -->
<g id="edge1" class="edge">
<title>public.stock_change_standard_price:counterpart_account_id&#45;&gt;public.account_account:id</title>
<path fill="none" stroke="#000000" d="M459.7678,-1025.4628C388.8692,-994.1552 518.8495,-612.5 430,-612.5"/>
<polygon fill="#000000" stroke="#000000" points="460.1925,-1025.5473 469.1213,-1031.9134 465.0962,-1026.5237 470,-1027.5 470,-1027.5 470,-1027.5 465.0962,-1026.5237 470.8787,-1023.0866 460.1925,-1025.5473 460.1925,-1025.5473"/>
<text text-anchor="start" x="6.9095" y="-1037.5" font-family="Arial" font-size="10.00" fill="#000000">FOREIGN KEY (counterpart_account_id) REFERENCES account_account(id) ON DELETE SET NULL</text>
</g>
<!-- public.res_users -->
<g id="node3" class="node">
<title>public.res_users</title>
<polygon fill="#efefef" stroke="transparent" points="534,-702.5 534,-737.5 810,-737.5 810,-702.5 534,-702.5"/>
<polygon fill="none" stroke="#000000" points="534,-702.5 534,-737.5 810,-737.5 810,-702.5 534,-702.5"/>
<text text-anchor="start" x="557.8639" y="-715.3" font-family="Arial Bold" font-size="18.00" fill="#000000">public.res_users</text>
<text text-anchor="start" x="688.8823" y="-715.3" font-family="Arial" font-size="14.00" fill="#000000"> </text>
<text text-anchor="start" x="692.7729" y="-715.3" font-family="Arial" font-size="14.00" fill="#666666">[BASE TABLE]</text>
<polygon fill="none" stroke="#000000" points="534,-672.5 534,-702.5 810,-702.5 810,-672.5 534,-672.5"/>
<text text-anchor="start" x="541" y="-683.9" font-family="Arial" font-size="14.00" fill="#000000">id </text>
<text text-anchor="start" x="555.7798" y="-683.9" font-family="Arial" font-size="14.00" fill="#666666">[integer]</text>
<polygon fill="none" stroke="#000000" points="534,-642.5 534,-672.5 810,-672.5 810,-642.5 534,-642.5"/>
<text text-anchor="start" x="541" y="-653.9" font-family="Arial" font-size="14.00" fill="#000000">active </text>
<text text-anchor="start" x="581.453" y="-653.9" font-family="Arial" font-size="14.00" fill="#666666">[boolean]</text>
<polygon fill="none" stroke="#000000" points="534,-612.5 534,-642.5 810,-642.5 810,-612.5 534,-612.5"/>
<text text-anchor="start" x="541" y="-623.9" font-family="Arial" font-size="14.00" fill="#000000">login </text>
<text text-anchor="start" x="574.4516" y="-623.9" font-family="Arial" font-size="14.00" fill="#666666">[varchar]</text>
<polygon fill="none" stroke="#000000" points="534,-582.5 534,-612.5 810,-612.5 810,-582.5 534,-582.5"/>
<text text-anchor="start" x="541" y="-593.9" font-family="Arial" font-size="14.00" fill="#000000">password </text>
<text text-anchor="start" x="604.7882" y="-593.9" font-family="Arial" font-size="14.00" fill="#666666">[varchar]</text>
<polygon fill="none" stroke="#000000" points="534,-552.5 534,-582.5 810,-582.5 810,-552.5 534,-552.5"/>
<text text-anchor="start" x="541" y="-563.9" font-family="Arial" font-size="14.00" fill="#000000">company_id </text>
<text text-anchor="start" x="620.3534" y="-563.9" font-family="Arial" font-size="14.00" fill="#666666">[integer]</text>
<polygon fill="none" stroke="#000000" points="534,-522.5 534,-552.5 810,-552.5 810,-522.5 534,-522.5"/>
<text text-anchor="start" x="541" y="-533.9" font-family="Arial" font-size="14.00" fill="#000000">partner_id </text>
<text text-anchor="start" x="607.9046" y="-533.9" font-family="Arial" font-size="14.00" fill="#666666">[integer]</text>
<polygon fill="none" stroke="#000000" points="534,-492.5 534,-522.5 810,-522.5 810,-492.5 534,-492.5"/>
<text text-anchor="start" x="540.5246" y="-503.9" font-family="Arial" font-size="14.00" fill="#000000">create_date </text>
<text text-anchor="start" x="618.3352" y="-503.9" font-family="Arial" font-size="14.00" fill="#666666">[timestamp without time zone]</text>
<polygon fill="none" stroke="#000000" points="534,-462.5 534,-492.5 810,-492.5 810,-462.5 534,-462.5"/>
<text text-anchor="start" x="541" y="-473.9" font-family="Arial" font-size="14.00" fill="#000000">signature </text>
<text text-anchor="start" x="602.4614" y="-473.9" font-family="Arial" font-size="14.00" fill="#666666">[text]</text>
<polygon fill="none" stroke="#000000" points="534,-432.5 534,-462.5 810,-462.5 810,-432.5 534,-432.5"/>
<text text-anchor="start" x="541" y="-443.9" font-family="Arial" font-size="14.00" fill="#000000">action_id </text>
<text text-anchor="start" x="600.9074" y="-443.9" font-family="Arial" font-size="14.00" fill="#666666">[integer]</text>
<polygon fill="none" stroke="#000000" points="534,-402.5 534,-432.5 810,-432.5 810,-402.5 534,-402.5"/>
<text text-anchor="start" x="541" y="-413.9" font-family="Arial" font-size="14.00" fill="#000000">share </text>
<text text-anchor="start" x="579.899" y="-413.9" font-family="Arial" font-size="14.00" fill="#666666">[boolean]</text>
<polygon fill="none" stroke="#000000" points="534,-372.5 534,-402.5 810,-402.5 810,-372.5 534,-372.5"/>
<text text-anchor="start" x="541" y="-383.9" font-family="Arial" font-size="14.00" fill="#000000">create_uid </text>
<text text-anchor="start" x="610.244" y="-383.9" font-family="Arial" font-size="14.00" fill="#666666">[integer]</text>
<polygon fill="none" stroke="#000000" points="534,-342.5 534,-372.5 810,-372.5 810,-342.5 534,-342.5"/>
<text text-anchor="start" x="541" y="-353.9" font-family="Arial" font-size="14.00" fill="#000000">write_uid </text>
<text text-anchor="start" x="600.892" y="-353.9" font-family="Arial" font-size="14.00" fill="#666666">[integer]</text>
<polygon fill="none" stroke="#000000" points="534,-312.5 534,-342.5 810,-342.5 810,-312.5 534,-312.5"/>
<text text-anchor="start" x="541" y="-323.9" font-family="Arial" font-size="14.00" fill="#000000">write_date </text>
<text text-anchor="start" x="609.4586" y="-323.9" font-family="Arial" font-size="14.00" fill="#666666">[timestamp without time zone]</text>
<polygon fill="none" stroke="#000000" points="534,-282.5 534,-312.5 810,-312.5 810,-282.5 534,-282.5"/>
<text text-anchor="start" x="541" y="-293.9" font-family="Arial" font-size="14.00" fill="#000000">alias_id </text>
<text text-anchor="start" x="592.3408" y="-293.9" font-family="Arial" font-size="14.00" fill="#666666">[integer]</text>
<polygon fill="none" stroke="#000000" points="534,-252.5 534,-282.5 810,-282.5 810,-252.5 534,-252.5"/>
<text text-anchor="start" x="541" y="-263.9" font-family="Arial" font-size="14.00" fill="#000000">notification_type </text>
<text text-anchor="start" x="646.0336" y="-263.9" font-family="Arial" font-size="14.00" fill="#666666">[varchar]</text>
<polygon fill="none" stroke="#000000" points="534,-222.5 534,-252.5 810,-252.5 810,-222.5 534,-222.5"/>
<text text-anchor="start" x="541" y="-233.9" font-family="Arial" font-size="14.00" fill="#000000">odoobot_state </text>
<text text-anchor="start" x="633.6058" y="-233.9" font-family="Arial" font-size="14.00" fill="#666666">[varchar]</text>
<polygon fill="none" stroke="#000000" points="534,-192.5 534,-222.5 810,-222.5 810,-192.5 534,-192.5"/>
<text text-anchor="start" x="541" y="-203.9" font-family="Arial" font-size="14.00" fill="#000000">sale_team_id </text>
<text text-anchor="start" x="628.1332" y="-203.9" font-family="Arial" font-size="14.00" fill="#666666">[integer]</text>
<polygon fill="none" stroke="#000000" points="534,-162.5 534,-192.5 810,-192.5 810,-162.5 534,-162.5"/>
<text text-anchor="start" x="541" y="-173.9" font-family="Arial" font-size="14.00" fill="#000000">target_sales_won </text>
<text text-anchor="start" x="654.589" y="-173.9" font-family="Arial" font-size="14.00" fill="#666666">[integer]</text>
<polygon fill="none" stroke="#000000" points="534,-132.5 534,-162.5 810,-162.5 810,-132.5 534,-132.5"/>
<text text-anchor="start" x="541" y="-143.9" font-family="Arial" font-size="14.00" fill="#000000">target_sales_done </text>
<text text-anchor="start" x="660.0476" y="-143.9" font-family="Arial" font-size="14.00" fill="#666666">[integer]</text>
<polygon fill="none" stroke="#000000" points="534,-102.5 534,-132.5 810,-132.5 810,-102.5 534,-102.5"/>
<text text-anchor="start" x="541" y="-113.9" font-family="Arial" font-size="14.00" fill="#000000">website_id </text>
<text text-anchor="start" x="611.014" y="-113.9" font-family="Arial" font-size="14.00" fill="#666666">[integer]</text>
<polygon fill="none" stroke="#000000" points="534,-72.5 534,-102.5 810,-102.5 810,-72.5 534,-72.5"/>
<text text-anchor="start" x="541" y="-83.9" font-family="Arial" font-size="14.00" fill="#000000">target_sales_invoiced </text>
<text text-anchor="start" x="680.2608" y="-83.9" font-family="Arial" font-size="14.00" fill="#666666">[integer]</text>
<polygon fill="none" stroke="#000000" points="534,-42.5 534,-72.5 810,-72.5 810,-42.5 534,-42.5"/>
<text text-anchor="start" x="541" y="-53.9" font-family="Arial" font-size="14.00" fill="#000000">pos_security_pin </text>
<text text-anchor="start" x="649.9158" y="-53.9" font-family="Arial" font-size="14.00" fill="#666666">[varchar(32)]</text>
</g>
<!-- public.stock_change_standard_price&#45;&gt;public.res_users -->
<g id="edge2" class="edge">
<title>public.stock_change_standard_price:create_uid&#45;&gt;public.res_users:id</title>
<path fill="none" stroke="#000000" d="M883.1859,-966.6207C937.3978,-956.6312 915.2844,-864.0125 873,-817 822.3391,-760.6743 584.6609,-837.3257 534,-781 506.2106,-750.1032 492.4444,-687.5 534,-687.5"/>
<polygon fill="#000000" stroke="#000000" points="882.9629,-966.6399 872.6129,-963.0167 877.9815,-967.0699 873,-967.5 873,-967.5 873,-967.5 877.9815,-967.0699 873.3871,-971.9833 882.9629,-966.6399 882.9629,-966.6399"/>
<text text-anchor="start" x="879.657" y="-977.5" font-family="Arial" font-size="10.00" fill="#000000">FOREIGN KEY (create_uid) REFERENCES res_users(id) ON DELETE SET NULL</text>
</g>
<!-- public.stock_change_standard_price&#45;&gt;public.res_users -->
<g id="edge3" class="edge">
<title>public.stock_change_standard_price:write_uid&#45;&gt;public.res_users:id</title>
<path fill="none" stroke="#000000" d="M882.9336,-905.9775C910.6046,-896.4082 897.3761,-844.1018 873,-817 822.3391,-760.6743 584.6609,-837.3257 534,-781 506.2106,-750.1032 492.4444,-687.5 534,-687.5"/>
<polygon fill="#000000" stroke="#000000" points="882.8846,-905.9849 872.3182,-903.0519 877.9423,-906.7425 873,-907.5 873,-907.5 873,-907.5 877.9423,-906.7425 873.6818,-911.9481 882.8846,-905.9849 882.8846,-905.9849"/>
<text text-anchor="start" x="879.997" y="-917.5" font-family="Arial" font-size="10.00" fill="#000000">FOREIGN KEY (write_uid) REFERENCES res_users(id) ON DELETE SET NULL</text>
</g>
</g>
</svg>
