<?xml version="1.0" encoding="UTF-8" standalone="no"?>
<!DOCTYPE svg PUBLIC "-//W3C//DTD SVG 1.1//EN"
 "http://www.w3.org/Graphics/SVG/1.1/DTD/svg11.dtd">
<!-- Generated by graphviz version 2.40.1 (20161225.0304)
 -->
<!-- Title: public.mail_resend_message Pages: 1 -->
<svg width="1354pt" height="1679pt"
 viewBox="0.00 0.00 1354.00 1679.00" xmlns="http://www.w3.org/2000/svg" xmlns:xlink="http://www.w3.org/1999/xlink">
<g id="graph0" class="graph" transform="scale(1 1) rotate(0) translate(4 1675)">
<title>public.mail_resend_message</title>
<polygon fill="#ffffff" stroke="transparent" points="-4,4 -4,-1675 1350,-1675 1350,4 -4,4"/>
<!-- public.mail_resend_message -->
<g id="node1" class="node">
<title>public.mail_resend_message</title>
<polygon fill="#efefef" stroke="transparent" points="552,-1162.5 552,-1197.5 896,-1197.5 896,-1162.5 552,-1162.5"/>
<polygon fill="none" stroke="#000000" points="552,-1162.5 552,-1197.5 896,-1197.5 896,-1162.5 552,-1162.5"/>
<text text-anchor="start" x="558.8519" y="-1175.3" font-family="Arial Bold" font-size="18.00" fill="#000000">public.mail_resend_message</text>
<text text-anchor="start" x="791.8943" y="-1175.3" font-family="Arial" font-size="14.00" fill="#000000"> </text>
<text text-anchor="start" x="795.7849" y="-1175.3" font-family="Arial" font-size="14.00" fill="#666666">[BASE TABLE]</text>
<polygon fill="none" stroke="#000000" points="552,-1132.5 552,-1162.5 896,-1162.5 896,-1132.5 552,-1132.5"/>
<text text-anchor="start" x="559" y="-1143.9" font-family="Arial" font-size="14.00" fill="#000000">id </text>
<text text-anchor="start" x="573.7798" y="-1143.9" font-family="Arial" font-size="14.00" fill="#666666">[integer]</text>
<polygon fill="none" stroke="#000000" points="552,-1102.5 552,-1132.5 896,-1132.5 896,-1102.5 552,-1102.5"/>
<text text-anchor="start" x="559" y="-1113.9" font-family="Arial" font-size="14.00" fill="#000000">mail_message_id </text>
<text text-anchor="start" x="671.7924" y="-1113.9" font-family="Arial" font-size="14.00" fill="#666666">[integer]</text>
<polygon fill="none" stroke="#000000" points="552,-1072.5 552,-1102.5 896,-1102.5 896,-1072.5 552,-1072.5"/>
<text text-anchor="start" x="559" y="-1083.9" font-family="Arial" font-size="14.00" fill="#000000">create_uid </text>
<text text-anchor="start" x="628.244" y="-1083.9" font-family="Arial" font-size="14.00" fill="#666666">[integer]</text>
<polygon fill="none" stroke="#000000" points="552,-1042.5 552,-1072.5 896,-1072.5 896,-1042.5 552,-1042.5"/>
<text text-anchor="start" x="559" y="-1053.9" font-family="Arial" font-size="14.00" fill="#000000">create_date </text>
<text text-anchor="start" x="636.8106" y="-1053.9" font-family="Arial" font-size="14.00" fill="#666666">[timestamp without time zone]</text>
<polygon fill="none" stroke="#000000" points="552,-1012.5 552,-1042.5 896,-1042.5 896,-1012.5 552,-1012.5"/>
<text text-anchor="start" x="559" y="-1023.9" font-family="Arial" font-size="14.00" fill="#000000">write_uid </text>
<text text-anchor="start" x="618.892" y="-1023.9" font-family="Arial" font-size="14.00" fill="#666666">[integer]</text>
<polygon fill="none" stroke="#000000" points="552,-982.5 552,-1012.5 896,-1012.5 896,-982.5 552,-982.5"/>
<text text-anchor="start" x="559" y="-993.9" font-family="Arial" font-size="14.00" fill="#000000">write_date </text>
<text text-anchor="start" x="627.4586" y="-993.9" font-family="Arial" font-size="14.00" fill="#666666">[timestamp without time zone]</text>
<polygon fill="none" stroke="#000000" stroke-width="3" points="550.5,-981.5 550.5,-1199.5 897.5,-1199.5 897.5,-981.5 550.5,-981.5"/>
</g>
<!-- public.mail_message -->
<g id="node4" class="node">
<title>public.mail_message</title>
<polygon fill="#efefef" stroke="transparent" points="203,-822.5 203,-857.5 482,-857.5 482,-822.5 203,-822.5"/>
<polygon fill="none" stroke="#000000" points="203,-822.5 203,-857.5 482,-857.5 482,-822.5 203,-822.5"/>
<text text-anchor="start" x="209.8635" y="-835.3" font-family="Arial Bold" font-size="18.00" fill="#000000">public.mail_message</text>
<text text-anchor="start" x="377.8827" y="-835.3" font-family="Arial" font-size="14.00" fill="#000000"> </text>
<text text-anchor="start" x="381.7733" y="-835.3" font-family="Arial" font-size="14.00" fill="#666666">[BASE TABLE]</text>
<polygon fill="none" stroke="#000000" points="203,-792.5 203,-822.5 482,-822.5 482,-792.5 203,-792.5"/>
<text text-anchor="start" x="210" y="-803.9" font-family="Arial" font-size="14.00" fill="#000000">id </text>
<text text-anchor="start" x="224.7798" y="-803.9" font-family="Arial" font-size="14.00" fill="#666666">[integer]</text>
<polygon fill="none" stroke="#000000" points="203,-762.5 203,-792.5 482,-792.5 482,-762.5 203,-762.5"/>
<text text-anchor="start" x="210" y="-773.9" font-family="Arial" font-size="14.00" fill="#000000">subject </text>
<text text-anchor="start" x="258.2356" y="-773.9" font-family="Arial" font-size="14.00" fill="#666666">[varchar]</text>
<polygon fill="none" stroke="#000000" points="203,-732.5 203,-762.5 482,-762.5 482,-732.5 203,-732.5"/>
<text text-anchor="start" x="210" y="-743.9" font-family="Arial" font-size="14.00" fill="#000000">date </text>
<text text-anchor="start" x="241.129" y="-743.9" font-family="Arial" font-size="14.00" fill="#666666">[timestamp without time zone]</text>
<polygon fill="none" stroke="#000000" points="203,-702.5 203,-732.5 482,-732.5 482,-702.5 203,-702.5"/>
<text text-anchor="start" x="210" y="-713.9" font-family="Arial" font-size="14.00" fill="#000000">body </text>
<text text-anchor="start" x="244.2384" y="-713.9" font-family="Arial" font-size="14.00" fill="#666666">[text]</text>
<polygon fill="none" stroke="#000000" points="203,-672.5 203,-702.5 482,-702.5 482,-672.5 203,-672.5"/>
<text text-anchor="start" x="210" y="-683.9" font-family="Arial" font-size="14.00" fill="#000000">parent_id </text>
<text text-anchor="start" x="272.244" y="-683.9" font-family="Arial" font-size="14.00" fill="#666666">[integer]</text>
<polygon fill="none" stroke="#000000" points="203,-642.5 203,-672.5 482,-672.5 482,-642.5 203,-642.5"/>
<text text-anchor="start" x="210" y="-653.9" font-family="Arial" font-size="14.00" fill="#000000">model </text>
<text text-anchor="start" x="252.0056" y="-653.9" font-family="Arial" font-size="14.00" fill="#666666">[varchar]</text>
<polygon fill="none" stroke="#000000" points="203,-612.5 203,-642.5 482,-642.5 482,-612.5 203,-612.5"/>
<text text-anchor="start" x="210" y="-623.9" font-family="Arial" font-size="14.00" fill="#000000">res_id </text>
<text text-anchor="start" x="252.0056" y="-623.9" font-family="Arial" font-size="14.00" fill="#666666">[integer]</text>
<polygon fill="none" stroke="#000000" points="203,-582.5 203,-612.5 482,-612.5 482,-582.5 203,-582.5"/>
<text text-anchor="start" x="210" y="-593.9" font-family="Arial" font-size="14.00" fill="#000000">record_name </text>
<text text-anchor="start" x="296.3506" y="-593.9" font-family="Arial" font-size="14.00" fill="#666666">[varchar]</text>
<polygon fill="none" stroke="#000000" points="203,-552.5 203,-582.5 482,-582.5 482,-552.5 203,-552.5"/>
<text text-anchor="start" x="210" y="-563.9" font-family="Arial" font-size="14.00" fill="#000000">message_type </text>
<text text-anchor="start" x="304.92" y="-563.9" font-family="Arial" font-size="14.00" fill="#666666">[varchar]</text>
<polygon fill="none" stroke="#000000" points="203,-522.5 203,-552.5 482,-552.5 482,-522.5 203,-522.5"/>
<text text-anchor="start" x="210" y="-533.9" font-family="Arial" font-size="14.00" fill="#000000">subtype_id </text>
<text text-anchor="start" x="281.5834" y="-533.9" font-family="Arial" font-size="14.00" fill="#666666">[integer]</text>
<polygon fill="none" stroke="#000000" points="203,-492.5 203,-522.5 482,-522.5 482,-492.5 203,-492.5"/>
<text text-anchor="start" x="210" y="-503.9" font-family="Arial" font-size="14.00" fill="#000000">mail_activity_type_id </text>
<text text-anchor="start" x="343.0168" y="-503.9" font-family="Arial" font-size="14.00" fill="#666666">[integer]</text>
<polygon fill="none" stroke="#000000" points="203,-462.5 203,-492.5 482,-492.5 482,-462.5 203,-462.5"/>
<text text-anchor="start" x="210" y="-473.9" font-family="Arial" font-size="14.00" fill="#000000">email_from </text>
<text text-anchor="start" x="283.1066" y="-473.9" font-family="Arial" font-size="14.00" fill="#666666">[varchar]</text>
<polygon fill="none" stroke="#000000" points="203,-432.5 203,-462.5 482,-462.5 482,-432.5 203,-432.5"/>
<text text-anchor="start" x="210" y="-443.9" font-family="Arial" font-size="14.00" fill="#000000">author_id </text>
<text text-anchor="start" x="272.244" y="-443.9" font-family="Arial" font-size="14.00" fill="#666666">[integer]</text>
<polygon fill="none" stroke="#000000" points="203,-402.5 203,-432.5 482,-432.5 482,-402.5 203,-402.5"/>
<text text-anchor="start" x="210" y="-413.9" font-family="Arial" font-size="14.00" fill="#000000">no_auto_thread </text>
<text text-anchor="start" x="311.941" y="-413.9" font-family="Arial" font-size="14.00" fill="#666666">[boolean]</text>
<polygon fill="none" stroke="#000000" points="203,-372.5 203,-402.5 482,-402.5 482,-372.5 203,-372.5"/>
<text text-anchor="start" x="210" y="-383.9" font-family="Arial" font-size="14.00" fill="#000000">message_id </text>
<text text-anchor="start" x="289.3534" y="-383.9" font-family="Arial" font-size="14.00" fill="#666666">[varchar]</text>
<polygon fill="none" stroke="#000000" points="203,-342.5 203,-372.5 482,-372.5 482,-342.5 203,-342.5"/>
<text text-anchor="start" x="210" y="-353.9" font-family="Arial" font-size="14.00" fill="#000000">reply_to </text>
<text text-anchor="start" x="263.6788" y="-353.9" font-family="Arial" font-size="14.00" fill="#666666">[varchar]</text>
<polygon fill="none" stroke="#000000" points="203,-312.5 203,-342.5 482,-342.5 482,-312.5 203,-312.5"/>
<text text-anchor="start" x="210" y="-323.9" font-family="Arial" font-size="14.00" fill="#000000">mail_server_id </text>
<text text-anchor="start" x="304.8878" y="-323.9" font-family="Arial" font-size="14.00" fill="#666666">[integer]</text>
<polygon fill="none" stroke="#000000" points="203,-282.5 203,-312.5 482,-312.5 482,-282.5 203,-282.5"/>
<text text-anchor="start" x="210" y="-293.9" font-family="Arial" font-size="14.00" fill="#000000">moderation_status </text>
<text text-anchor="start" x="329.0336" y="-293.9" font-family="Arial" font-size="14.00" fill="#666666">[varchar]</text>
<polygon fill="none" stroke="#000000" points="203,-252.5 203,-282.5 482,-282.5 482,-252.5 203,-252.5"/>
<text text-anchor="start" x="210" y="-263.9" font-family="Arial" font-size="14.00" fill="#000000">moderator_id </text>
<text text-anchor="start" x="296.3478" y="-263.9" font-family="Arial" font-size="14.00" fill="#666666">[integer]</text>
<polygon fill="none" stroke="#000000" points="203,-222.5 203,-252.5 482,-252.5 482,-222.5 203,-222.5"/>
<text text-anchor="start" x="210" y="-233.9" font-family="Arial" font-size="14.00" fill="#000000">layout </text>
<text text-anchor="start" x="251.2356" y="-233.9" font-family="Arial" font-size="14.00" fill="#666666">[varchar]</text>
<polygon fill="none" stroke="#000000" points="203,-192.5 203,-222.5 482,-222.5 482,-192.5 203,-192.5"/>
<text text-anchor="start" x="210" y="-203.9" font-family="Arial" font-size="14.00" fill="#000000">add_sign </text>
<text text-anchor="start" x="270.6928" y="-203.9" font-family="Arial" font-size="14.00" fill="#666666">[boolean]</text>
<polygon fill="none" stroke="#000000" points="203,-162.5 203,-192.5 482,-192.5 482,-162.5 203,-162.5"/>
<text text-anchor="start" x="210" y="-173.9" font-family="Arial" font-size="14.00" fill="#000000">create_uid </text>
<text text-anchor="start" x="279.244" y="-173.9" font-family="Arial" font-size="14.00" fill="#666666">[integer]</text>
<polygon fill="none" stroke="#000000" points="203,-132.5 203,-162.5 482,-162.5 482,-132.5 203,-132.5"/>
<text text-anchor="start" x="210" y="-143.9" font-family="Arial" font-size="14.00" fill="#000000">create_date </text>
<text text-anchor="start" x="287.8106" y="-143.9" font-family="Arial" font-size="14.00" fill="#666666">[timestamp without time zone]</text>
<polygon fill="none" stroke="#000000" points="203,-102.5 203,-132.5 482,-132.5 482,-102.5 203,-102.5"/>
<text text-anchor="start" x="210" y="-113.9" font-family="Arial" font-size="14.00" fill="#000000">write_uid </text>
<text text-anchor="start" x="269.892" y="-113.9" font-family="Arial" font-size="14.00" fill="#666666">[integer]</text>
<polygon fill="none" stroke="#000000" points="203,-72.5 203,-102.5 482,-102.5 482,-72.5 203,-72.5"/>
<text text-anchor="start" x="210" y="-83.9" font-family="Arial" font-size="14.00" fill="#000000">write_date </text>
<text text-anchor="start" x="278.4586" y="-83.9" font-family="Arial" font-size="14.00" fill="#666666">[timestamp without time zone]</text>
<polygon fill="none" stroke="#000000" points="203,-42.5 203,-72.5 482,-72.5 482,-42.5 203,-42.5"/>
<text text-anchor="start" x="210" y="-53.9" font-family="Arial" font-size="14.00" fill="#000000">website_published </text>
<text text-anchor="start" x="329.0336" y="-53.9" font-family="Arial" font-size="14.00" fill="#666666">[boolean]</text>
</g>
<!-- public.mail_resend_message&#45;&gt;public.mail_message -->
<g id="edge3" class="edge">
<title>public.mail_resend_message:mail_message_id&#45;&gt;public.mail_message:id</title>
<path fill="none" stroke="#000000" d="M541.9135,-1116.9106C421.316,-1101.9577 619.6603,-807.5 482,-807.5"/>
<polygon fill="#000000" stroke="#000000" points="542.017,-1116.9165 551.7374,-1121.9923 547.0085,-1117.2083 552,-1117.5 552,-1117.5 552,-1117.5 547.0085,-1117.2083 552.2626,-1113.0077 542.017,-1116.9165 542.017,-1116.9165"/>
<text text-anchor="start" x="126.826" y="-1127.5" font-family="Arial" font-size="10.00" fill="#000000">FOREIGN KEY (mail_message_id) REFERENCES mail_message(id) ON DELETE SET NULL</text>
</g>
<!-- public.res_users -->
<g id="node5" class="node">
<title>public.res_users</title>
<polygon fill="#efefef" stroke="transparent" points="586,-762.5 586,-797.5 862,-797.5 862,-762.5 586,-762.5"/>
<polygon fill="none" stroke="#000000" points="586,-762.5 586,-797.5 862,-797.5 862,-762.5 586,-762.5"/>
<text text-anchor="start" x="609.8639" y="-775.3" font-family="Arial Bold" font-size="18.00" fill="#000000">public.res_users</text>
<text text-anchor="start" x="740.8823" y="-775.3" font-family="Arial" font-size="14.00" fill="#000000"> </text>
<text text-anchor="start" x="744.7729" y="-775.3" font-family="Arial" font-size="14.00" fill="#666666">[BASE TABLE]</text>
<polygon fill="none" stroke="#000000" points="586,-732.5 586,-762.5 862,-762.5 862,-732.5 586,-732.5"/>
<text text-anchor="start" x="593" y="-743.9" font-family="Arial" font-size="14.00" fill="#000000">id </text>
<text text-anchor="start" x="607.7798" y="-743.9" font-family="Arial" font-size="14.00" fill="#666666">[integer]</text>
<polygon fill="none" stroke="#000000" points="586,-702.5 586,-732.5 862,-732.5 862,-702.5 586,-702.5"/>
<text text-anchor="start" x="593" y="-713.9" font-family="Arial" font-size="14.00" fill="#000000">active </text>
<text text-anchor="start" x="633.453" y="-713.9" font-family="Arial" font-size="14.00" fill="#666666">[boolean]</text>
<polygon fill="none" stroke="#000000" points="586,-672.5 586,-702.5 862,-702.5 862,-672.5 586,-672.5"/>
<text text-anchor="start" x="593" y="-683.9" font-family="Arial" font-size="14.00" fill="#000000">login </text>
<text text-anchor="start" x="626.4516" y="-683.9" font-family="Arial" font-size="14.00" fill="#666666">[varchar]</text>
<polygon fill="none" stroke="#000000" points="586,-642.5 586,-672.5 862,-672.5 862,-642.5 586,-642.5"/>
<text text-anchor="start" x="593" y="-653.9" font-family="Arial" font-size="14.00" fill="#000000">password </text>
<text text-anchor="start" x="656.7882" y="-653.9" font-family="Arial" font-size="14.00" fill="#666666">[varchar]</text>
<polygon fill="none" stroke="#000000" points="586,-612.5 586,-642.5 862,-642.5 862,-612.5 586,-612.5"/>
<text text-anchor="start" x="593" y="-623.9" font-family="Arial" font-size="14.00" fill="#000000">company_id </text>
<text text-anchor="start" x="672.3534" y="-623.9" font-family="Arial" font-size="14.00" fill="#666666">[integer]</text>
<polygon fill="none" stroke="#000000" points="586,-582.5 586,-612.5 862,-612.5 862,-582.5 586,-582.5"/>
<text text-anchor="start" x="593" y="-593.9" font-family="Arial" font-size="14.00" fill="#000000">partner_id </text>
<text text-anchor="start" x="659.9046" y="-593.9" font-family="Arial" font-size="14.00" fill="#666666">[integer]</text>
<polygon fill="none" stroke="#000000" points="586,-552.5 586,-582.5 862,-582.5 862,-552.5 586,-552.5"/>
<text text-anchor="start" x="592.5246" y="-563.9" font-family="Arial" font-size="14.00" fill="#000000">create_date </text>
<text text-anchor="start" x="670.3352" y="-563.9" font-family="Arial" font-size="14.00" fill="#666666">[timestamp without time zone]</text>
<polygon fill="none" stroke="#000000" points="586,-522.5 586,-552.5 862,-552.5 862,-522.5 586,-522.5"/>
<text text-anchor="start" x="593" y="-533.9" font-family="Arial" font-size="14.00" fill="#000000">signature </text>
<text text-anchor="start" x="654.4614" y="-533.9" font-family="Arial" font-size="14.00" fill="#666666">[text]</text>
<polygon fill="none" stroke="#000000" points="586,-492.5 586,-522.5 862,-522.5 862,-492.5 586,-492.5"/>
<text text-anchor="start" x="593" y="-503.9" font-family="Arial" font-size="14.00" fill="#000000">action_id </text>
<text text-anchor="start" x="652.9074" y="-503.9" font-family="Arial" font-size="14.00" fill="#666666">[integer]</text>
<polygon fill="none" stroke="#000000" points="586,-462.5 586,-492.5 862,-492.5 862,-462.5 586,-462.5"/>
<text text-anchor="start" x="593" y="-473.9" font-family="Arial" font-size="14.00" fill="#000000">share </text>
<text text-anchor="start" x="631.899" y="-473.9" font-family="Arial" font-size="14.00" fill="#666666">[boolean]</text>
<polygon fill="none" stroke="#000000" points="586,-432.5 586,-462.5 862,-462.5 862,-432.5 586,-432.5"/>
<text text-anchor="start" x="593" y="-443.9" font-family="Arial" font-size="14.00" fill="#000000">create_uid </text>
<text text-anchor="start" x="662.244" y="-443.9" font-family="Arial" font-size="14.00" fill="#666666">[integer]</text>
<polygon fill="none" stroke="#000000" points="586,-402.5 586,-432.5 862,-432.5 862,-402.5 586,-402.5"/>
<text text-anchor="start" x="593" y="-413.9" font-family="Arial" font-size="14.00" fill="#000000">write_uid </text>
<text text-anchor="start" x="652.892" y="-413.9" font-family="Arial" font-size="14.00" fill="#666666">[integer]</text>
<polygon fill="none" stroke="#000000" points="586,-372.5 586,-402.5 862,-402.5 862,-372.5 586,-372.5"/>
<text text-anchor="start" x="593" y="-383.9" font-family="Arial" font-size="14.00" fill="#000000">write_date </text>
<text text-anchor="start" x="661.4586" y="-383.9" font-family="Arial" font-size="14.00" fill="#666666">[timestamp without time zone]</text>
<polygon fill="none" stroke="#000000" points="586,-342.5 586,-372.5 862,-372.5 862,-342.5 586,-342.5"/>
<text text-anchor="start" x="593" y="-353.9" font-family="Arial" font-size="14.00" fill="#000000">alias_id </text>
<text text-anchor="start" x="644.3408" y="-353.9" font-family="Arial" font-size="14.00" fill="#666666">[integer]</text>
<polygon fill="none" stroke="#000000" points="586,-312.5 586,-342.5 862,-342.5 862,-312.5 586,-312.5"/>
<text text-anchor="start" x="593" y="-323.9" font-family="Arial" font-size="14.00" fill="#000000">notification_type </text>
<text text-anchor="start" x="698.0336" y="-323.9" font-family="Arial" font-size="14.00" fill="#666666">[varchar]</text>
<polygon fill="none" stroke="#000000" points="586,-282.5 586,-312.5 862,-312.5 862,-282.5 586,-282.5"/>
<text text-anchor="start" x="593" y="-293.9" font-family="Arial" font-size="14.00" fill="#000000">odoobot_state </text>
<text text-anchor="start" x="685.6058" y="-293.9" font-family="Arial" font-size="14.00" fill="#666666">[varchar]</text>
<polygon fill="none" stroke="#000000" points="586,-252.5 586,-282.5 862,-282.5 862,-252.5 586,-252.5"/>
<text text-anchor="start" x="593" y="-263.9" font-family="Arial" font-size="14.00" fill="#000000">sale_team_id </text>
<text text-anchor="start" x="680.1332" y="-263.9" font-family="Arial" font-size="14.00" fill="#666666">[integer]</text>
<polygon fill="none" stroke="#000000" points="586,-222.5 586,-252.5 862,-252.5 862,-222.5 586,-222.5"/>
<text text-anchor="start" x="593" y="-233.9" font-family="Arial" font-size="14.00" fill="#000000">target_sales_won </text>
<text text-anchor="start" x="706.589" y="-233.9" font-family="Arial" font-size="14.00" fill="#666666">[integer]</text>
<polygon fill="none" stroke="#000000" points="586,-192.5 586,-222.5 862,-222.5 862,-192.5 586,-192.5"/>
<text text-anchor="start" x="593" y="-203.9" font-family="Arial" font-size="14.00" fill="#000000">target_sales_done </text>
<text text-anchor="start" x="712.0476" y="-203.9" font-family="Arial" font-size="14.00" fill="#666666">[integer]</text>
<polygon fill="none" stroke="#000000" points="586,-162.5 586,-192.5 862,-192.5 862,-162.5 586,-162.5"/>
<text text-anchor="start" x="593" y="-173.9" font-family="Arial" font-size="14.00" fill="#000000">website_id </text>
<text text-anchor="start" x="663.014" y="-173.9" font-family="Arial" font-size="14.00" fill="#666666">[integer]</text>
<polygon fill="none" stroke="#000000" points="586,-132.5 586,-162.5 862,-162.5 862,-132.5 586,-132.5"/>
<text text-anchor="start" x="593" y="-143.9" font-family="Arial" font-size="14.00" fill="#000000">target_sales_invoiced </text>
<text text-anchor="start" x="732.2608" y="-143.9" font-family="Arial" font-size="14.00" fill="#666666">[integer]</text>
<polygon fill="none" stroke="#000000" points="586,-102.5 586,-132.5 862,-132.5 862,-102.5 586,-102.5"/>
<text text-anchor="start" x="593" y="-113.9" font-family="Arial" font-size="14.00" fill="#000000">pos_security_pin </text>
<text text-anchor="start" x="701.9158" y="-113.9" font-family="Arial" font-size="14.00" fill="#666666">[varchar(32)]</text>
</g>
<!-- public.mail_resend_message&#45;&gt;public.res_users -->
<g id="edge4" class="edge">
<title>public.mail_resend_message:create_uid&#45;&gt;public.res_users:id</title>
<path fill="none" stroke="#000000" d="M906.3726,-1086.9485C1046.2063,-1071.7493 1010.3055,-747.5 862,-747.5"/>
<polygon fill="#000000" stroke="#000000" points="905.9859,-1086.9689 895.761,-1083.0063 900.9929,-1087.2345 896,-1087.5 896,-1087.5 896,-1087.5 900.9929,-1087.2345 896.239,-1091.9937 905.9859,-1086.9689 905.9859,-1086.9689"/>
<text text-anchor="start" x="902.657" y="-1097.5" font-family="Arial" font-size="10.00" fill="#000000">FOREIGN KEY (create_uid) REFERENCES res_users(id) ON DELETE SET NULL</text>
</g>
<!-- public.mail_resend_message&#45;&gt;public.res_users -->
<g id="edge5" class="edge">
<title>public.mail_resend_message:write_uid&#45;&gt;public.res_users:id</title>
<path fill="none" stroke="#000000" d="M906.2687,-1026.839C1019.3595,-1011.8652 983.8084,-747.5 862,-747.5"/>
<polygon fill="#000000" stroke="#000000" points="905.9793,-1026.8575 895.7109,-1023.0093 900.9897,-1027.1788 896,-1027.5 896,-1027.5 896,-1027.5 900.9897,-1027.1788 896.2891,-1031.9907 905.9793,-1026.8575 905.9793,-1026.8575"/>
<text text-anchor="start" x="902.997" y="-1037.5" font-family="Arial" font-size="10.00" fill="#000000">FOREIGN KEY (write_uid) REFERENCES res_users(id) ON DELETE SET NULL</text>
</g>
<!-- public.mail_message_res_partner_needaction_rel_mail_resend_message_rel -->
<g id="node2" class="node">
<title>public.mail_message_res_partner_needaction_rel_mail_resend_message_rel</title>
<polygon fill="#efefef" stroke="transparent" points="43,-1487.5 43,-1522.5 773,-1522.5 773,-1487.5 43,-1487.5"/>
<polygon fill="none" stroke="#000000" points="43,-1487.5 43,-1522.5 773,-1522.5 773,-1487.5 43,-1487.5"/>
<text text-anchor="start" x="49.8109" y="-1500.3" font-family="Arial Bold" font-size="18.00" fill="#000000">public.mail_message_res_partner_needaction_rel_mail_resend_message_rel</text>
<text text-anchor="start" x="668.9353" y="-1500.3" font-family="Arial" font-size="14.00" fill="#000000"> </text>
<text text-anchor="start" x="672.8259" y="-1500.3" font-family="Arial" font-size="14.00" fill="#666666">[BASE TABLE]</text>
<polygon fill="none" stroke="#000000" points="43,-1457.5 43,-1487.5 773,-1487.5 773,-1457.5 43,-1457.5"/>
<text text-anchor="start" x="50" y="-1468.9" font-family="Arial" font-size="14.00" fill="#000000">mail_resend_message_id </text>
<text text-anchor="start" x="213.366" y="-1468.9" font-family="Arial" font-size="14.00" fill="#666666">[integer]</text>
<polygon fill="none" stroke="#000000" points="43,-1427.5 43,-1457.5 773,-1457.5 773,-1427.5 43,-1427.5"/>
<text text-anchor="start" x="50" y="-1438.9" font-family="Arial" font-size="14.00" fill="#000000">mail_message_res_partner_needaction_rel_id </text>
<text text-anchor="start" x="341.7334" y="-1438.9" font-family="Arial" font-size="14.00" fill="#666666">[integer]</text>
</g>
<!-- public.mail_message_res_partner_needaction_rel_mail_resend_message_rel&#45;&gt;public.mail_resend_message -->
<g id="edge1" class="edge">
<title>public.mail_message_res_partner_needaction_rel_mail_resend_message_rel:mail_resend_message_id&#45;&gt;public.mail_resend_message:id</title>
<path fill="none" stroke="#000000" d="M783.0841,-1470.9237C807.8022,-1461.8524 789.7952,-1415.6378 773,-1385 716.9938,-1282.8334 608.0062,-1346.1666 552,-1244 531.3835,-1206.3913 509.1111,-1147.5 552,-1147.5"/>
<polygon fill="#000000" stroke="#000000" points="782.88,-1470.9556 772.305,-1468.054 777.94,-1471.7278 773,-1472.5 773,-1472.5 773,-1472.5 777.94,-1471.7278 773.695,-1476.946 782.88,-1470.9556 782.88,-1470.9556"/>
<text text-anchor="start" x="780.4265" y="-1482.5" font-family="Arial" font-size="10.00" fill="#000000">FOREIGN KEY (mail_resend_message_id) REFERENCES mail_resend_message(id) ON DELETE CASCADE</text>
</g>
<!-- public.mail_resend_partner -->
<g id="node3" class="node">
<title>public.mail_resend_partner</title>
<polygon fill="#efefef" stroke="transparent" points="877,-1592.5 877,-1627.5 1205,-1627.5 1205,-1592.5 877,-1592.5"/>
<polygon fill="none" stroke="#000000" points="877,-1592.5 877,-1627.5 1205,-1627.5 1205,-1592.5 877,-1592.5"/>
<text text-anchor="start" x="883.8547" y="-1605.3" font-family="Arial Bold" font-size="18.00" fill="#000000">public.mail_resend_partner</text>
<text text-anchor="start" x="1100.8915" y="-1605.3" font-family="Arial" font-size="14.00" fill="#000000"> </text>
<text text-anchor="start" x="1104.7821" y="-1605.3" font-family="Arial" font-size="14.00" fill="#666666">[BASE TABLE]</text>
<polygon fill="none" stroke="#000000" points="877,-1562.5 877,-1592.5 1205,-1592.5 1205,-1562.5 877,-1562.5"/>
<text text-anchor="start" x="884" y="-1573.9" font-family="Arial" font-size="14.00" fill="#000000">id </text>
<text text-anchor="start" x="898.7798" y="-1573.9" font-family="Arial" font-size="14.00" fill="#666666">[integer]</text>
<polygon fill="none" stroke="#000000" points="877,-1532.5 877,-1562.5 1205,-1562.5 1205,-1532.5 877,-1532.5"/>
<text text-anchor="start" x="884" y="-1543.9" font-family="Arial" font-size="14.00" fill="#000000">partner_id </text>
<text text-anchor="start" x="950.9046" y="-1543.9" font-family="Arial" font-size="14.00" fill="#666666">[integer]</text>
<polygon fill="none" stroke="#000000" points="877,-1502.5 877,-1532.5 1205,-1532.5 1205,-1502.5 877,-1502.5"/>
<text text-anchor="start" x="884" y="-1513.9" font-family="Arial" font-size="14.00" fill="#000000">resend </text>
<text text-anchor="start" x="930.6816" y="-1513.9" font-family="Arial" font-size="14.00" fill="#666666">[boolean]</text>
<polygon fill="none" stroke="#000000" points="877,-1472.5 877,-1502.5 1205,-1502.5 1205,-1472.5 877,-1472.5"/>
<text text-anchor="start" x="884" y="-1483.9" font-family="Arial" font-size="14.00" fill="#000000">resend_wizard_id </text>
<text text-anchor="start" x="997.575" y="-1483.9" font-family="Arial" font-size="14.00" fill="#666666">[integer]</text>
<polygon fill="none" stroke="#000000" points="877,-1442.5 877,-1472.5 1205,-1472.5 1205,-1442.5 877,-1442.5"/>
<text text-anchor="start" x="884" y="-1453.9" font-family="Arial" font-size="14.00" fill="#000000">message </text>
<text text-anchor="start" x="944.6816" y="-1453.9" font-family="Arial" font-size="14.00" fill="#666666">[varchar]</text>
<polygon fill="none" stroke="#000000" points="877,-1412.5 877,-1442.5 1205,-1442.5 1205,-1412.5 877,-1412.5"/>
<text text-anchor="start" x="884" y="-1423.9" font-family="Arial" font-size="14.00" fill="#000000">create_uid </text>
<text text-anchor="start" x="953.244" y="-1423.9" font-family="Arial" font-size="14.00" fill="#666666">[integer]</text>
<polygon fill="none" stroke="#000000" points="877,-1382.5 877,-1412.5 1205,-1412.5 1205,-1382.5 877,-1382.5"/>
<text text-anchor="start" x="884" y="-1393.9" font-family="Arial" font-size="14.00" fill="#000000">create_date </text>
<text text-anchor="start" x="961.8106" y="-1393.9" font-family="Arial" font-size="14.00" fill="#666666">[timestamp without time zone]</text>
<polygon fill="none" stroke="#000000" points="877,-1352.5 877,-1382.5 1205,-1382.5 1205,-1352.5 877,-1352.5"/>
<text text-anchor="start" x="884" y="-1363.9" font-family="Arial" font-size="14.00" fill="#000000">write_uid </text>
<text text-anchor="start" x="943.892" y="-1363.9" font-family="Arial" font-size="14.00" fill="#666666">[integer]</text>
<polygon fill="none" stroke="#000000" points="877,-1322.5 877,-1352.5 1205,-1352.5 1205,-1322.5 877,-1322.5"/>
<text text-anchor="start" x="884" y="-1333.9" font-family="Arial" font-size="14.00" fill="#000000">write_date </text>
<text text-anchor="start" x="952.4586" y="-1333.9" font-family="Arial" font-size="14.00" fill="#666666">[timestamp without time zone]</text>
</g>
<!-- public.mail_resend_partner&#45;&gt;public.mail_resend_message -->
<g id="edge2" class="edge">
<title>public.mail_resend_partner:resend_wizard_id&#45;&gt;public.mail_resend_message:id</title>
<path fill="none" stroke="#000000" d="M866.923,-1486.9686C790.1773,-1478.326 855.693,-1366.0202 877,-1280 881.3498,-1262.439 891.6502,-1261.561 896,-1244 906.3119,-1202.3692 938.8889,-1147.5 896,-1147.5"/>
<polygon fill="#000000" stroke="#000000" points="867.0139,-1486.9733 876.763,-1491.9938 872.0069,-1487.2367 877,-1487.5 877,-1487.5 877,-1487.5 872.0069,-1487.2367 877.237,-1483.0062 867.0139,-1486.9733 867.0139,-1486.9733"/>
<text text-anchor="start" x="884.4845" y="-1497.5" font-family="Arial" font-size="10.00" fill="#000000">FOREIGN KEY (resend_wizard_id) REFERENCES mail_resend_message(id) ON DELETE SET NULL</text>
</g>
</g>
</svg>
