<?xml version="1.0" encoding="UTF-8" standalone="no"?>
<!DOCTYPE svg PUBLIC "-//W3C//DTD SVG 1.1//EN"
 "http://www.w3.org/Graphics/SVG/1.1/DTD/svg11.dtd">
<!-- Generated by graphviz version 2.40.1 (20161225.0304)
 -->
<!-- Title: public.account_fiscal_position_template_res_country_state_rel Pages: 1 -->
<svg width="1679pt" height="802pt"
 viewBox="0.00 0.00 1679.00 802.00" xmlns="http://www.w3.org/2000/svg" xmlns:xlink="http://www.w3.org/1999/xlink">
<g id="graph0" class="graph" transform="scale(1 1) rotate(0) translate(4 798)">
<title>public.account_fiscal_position_template_res_country_state_rel</title>
<polygon fill="#ffffff" stroke="transparent" points="-4,4 -4,-798 1675,-798 1675,4 -4,4"/>
<!-- public.account_fiscal_position_template_res_country_state_rel -->
<g id="node1" class="node">
<title>public.account_fiscal_position_template_res_country_state_rel</title>
<polygon fill="#efefef" stroke="transparent" points="598,-712.5 598,-747.5 1209,-747.5 1209,-712.5 598,-712.5"/>
<polygon fill="none" stroke="#000000" points="598,-712.5 598,-747.5 1209,-747.5 1209,-712.5 598,-712.5"/>
<text text-anchor="start" x="604.809" y="-725.3" font-family="Arial Bold" font-size="18.00" fill="#000000">public.account_fiscal_position_template_res_country_state_rel</text>
<text text-anchor="start" x="1104.9372" y="-725.3" font-family="Arial" font-size="14.00" fill="#000000"> </text>
<text text-anchor="start" x="1108.8278" y="-725.3" font-family="Arial" font-size="14.00" fill="#666666">[BASE TABLE]</text>
<polygon fill="none" stroke="#000000" points="598,-682.5 598,-712.5 1209,-712.5 1209,-682.5 598,-682.5"/>
<text text-anchor="start" x="605" y="-693.9" font-family="Arial" font-size="14.00" fill="#000000">account_fiscal_position_template_id </text>
<text text-anchor="start" x="833.7306" y="-693.9" font-family="Arial" font-size="14.00" fill="#666666">[integer]</text>
<polygon fill="none" stroke="#000000" points="598,-652.5 598,-682.5 1209,-682.5 1209,-652.5 598,-652.5"/>
<text text-anchor="start" x="605" y="-663.9" font-family="Arial" font-size="14.00" fill="#000000">res_country_state_id </text>
<text text-anchor="start" x="738.8162" y="-663.9" font-family="Arial" font-size="14.00" fill="#666666">[integer]</text>
<polygon fill="none" stroke="#000000" stroke-width="3" points="596,-651.5 596,-749.5 1210,-749.5 1210,-651.5 596,-651.5"/>
</g>
<!-- public.account_fiscal_position_template -->
<g id="node2" class="node">
<title>public.account_fiscal_position_template</title>
<polygon fill="#efefef" stroke="transparent" points="455,-492.5 455,-527.5 883,-527.5 883,-492.5 455,-492.5"/>
<polygon fill="none" stroke="#000000" points="455,-492.5 455,-527.5 883,-527.5 883,-492.5 455,-492.5"/>
<text text-anchor="start" x="461.8318" y="-505.3" font-family="Arial Bold" font-size="18.00" fill="#000000">public.account_fiscal_position_template</text>
<text text-anchor="start" x="778.9144" y="-505.3" font-family="Arial" font-size="14.00" fill="#000000"> </text>
<text text-anchor="start" x="782.805" y="-505.3" font-family="Arial" font-size="14.00" fill="#666666">[BASE TABLE]</text>
<polygon fill="none" stroke="#000000" points="455,-462.5 455,-492.5 883,-492.5 883,-462.5 455,-462.5"/>
<text text-anchor="start" x="462" y="-473.9" font-family="Arial" font-size="14.00" fill="#000000">id </text>
<text text-anchor="start" x="476.7798" y="-473.9" font-family="Arial" font-size="14.00" fill="#666666">[integer]</text>
<polygon fill="none" stroke="#000000" points="455,-432.5 455,-462.5 883,-462.5 883,-432.5 455,-432.5"/>
<text text-anchor="start" x="462" y="-443.9" font-family="Arial" font-size="14.00" fill="#000000">sequence </text>
<text text-anchor="start" x="526.5862" y="-443.9" font-family="Arial" font-size="14.00" fill="#666666">[integer]</text>
<polygon fill="none" stroke="#000000" points="455,-402.5 455,-432.5 883,-432.5 883,-402.5 455,-402.5"/>
<text text-anchor="start" x="462" y="-413.9" font-family="Arial" font-size="14.00" fill="#000000">name </text>
<text text-anchor="start" x="500.899" y="-413.9" font-family="Arial" font-size="14.00" fill="#666666">[varchar]</text>
<polygon fill="none" stroke="#000000" points="455,-372.5 455,-402.5 883,-402.5 883,-372.5 455,-372.5"/>
<text text-anchor="start" x="462" y="-383.9" font-family="Arial" font-size="14.00" fill="#000000">chart_template_id </text>
<text text-anchor="start" x="577.1402" y="-383.9" font-family="Arial" font-size="14.00" fill="#666666">[integer]</text>
<polygon fill="none" stroke="#000000" points="455,-342.5 455,-372.5 883,-372.5 883,-342.5 455,-342.5"/>
<text text-anchor="start" x="462" y="-353.9" font-family="Arial" font-size="14.00" fill="#000000">note </text>
<text text-anchor="start" x="493.129" y="-353.9" font-family="Arial" font-size="14.00" fill="#666666">[text]</text>
<polygon fill="none" stroke="#000000" points="455,-312.5 455,-342.5 883,-342.5 883,-312.5 455,-312.5"/>
<text text-anchor="start" x="462" y="-323.9" font-family="Arial" font-size="14.00" fill="#000000">auto_apply </text>
<text text-anchor="start" x="534.366" y="-323.9" font-family="Arial" font-size="14.00" fill="#666666">[boolean]</text>
<polygon fill="none" stroke="#000000" points="455,-282.5 455,-312.5 883,-312.5 883,-282.5 455,-282.5"/>
<text text-anchor="start" x="462" y="-293.9" font-family="Arial" font-size="14.00" fill="#000000">vat_required </text>
<text text-anchor="start" x="543.6872" y="-293.9" font-family="Arial" font-size="14.00" fill="#666666">[boolean]</text>
<polygon fill="none" stroke="#000000" points="455,-252.5 455,-282.5 883,-282.5 883,-252.5 455,-252.5"/>
<text text-anchor="start" x="462" y="-263.9" font-family="Arial" font-size="14.00" fill="#000000">country_id </text>
<text text-anchor="start" x="530.4614" y="-263.9" font-family="Arial" font-size="14.00" fill="#666666">[integer]</text>
<polygon fill="none" stroke="#000000" points="455,-222.5 455,-252.5 883,-252.5 883,-222.5 455,-222.5"/>
<text text-anchor="start" x="462" y="-233.9" font-family="Arial" font-size="14.00" fill="#000000">country_group_id </text>
<text text-anchor="start" x="574.035" y="-233.9" font-family="Arial" font-size="14.00" fill="#666666">[integer]</text>
<polygon fill="none" stroke="#000000" points="455,-192.5 455,-222.5 883,-222.5 883,-192.5 455,-192.5"/>
<text text-anchor="start" x="462" y="-203.9" font-family="Arial" font-size="14.00" fill="#000000">zip_from </text>
<text text-anchor="start" x="519.5568" y="-203.9" font-family="Arial" font-size="14.00" fill="#666666">[integer]</text>
<polygon fill="none" stroke="#000000" points="455,-162.5 455,-192.5 883,-192.5 883,-162.5 455,-162.5"/>
<text text-anchor="start" x="462" y="-173.9" font-family="Arial" font-size="14.00" fill="#000000">zip_to </text>
<text text-anchor="start" x="503.2356" y="-173.9" font-family="Arial" font-size="14.00" fill="#666666">[integer]</text>
<polygon fill="none" stroke="#000000" points="455,-132.5 455,-162.5 883,-162.5 883,-132.5 455,-132.5"/>
<text text-anchor="start" x="462" y="-143.9" font-family="Arial" font-size="14.00" fill="#000000">create_uid </text>
<text text-anchor="start" x="531.244" y="-143.9" font-family="Arial" font-size="14.00" fill="#666666">[integer]</text>
<polygon fill="none" stroke="#000000" points="455,-102.5 455,-132.5 883,-132.5 883,-102.5 455,-102.5"/>
<text text-anchor="start" x="462" y="-113.9" font-family="Arial" font-size="14.00" fill="#000000">create_date </text>
<text text-anchor="start" x="539.8106" y="-113.9" font-family="Arial" font-size="14.00" fill="#666666">[timestamp without time zone]</text>
<polygon fill="none" stroke="#000000" points="455,-72.5 455,-102.5 883,-102.5 883,-72.5 455,-72.5"/>
<text text-anchor="start" x="462" y="-83.9" font-family="Arial" font-size="14.00" fill="#000000">write_uid </text>
<text text-anchor="start" x="521.892" y="-83.9" font-family="Arial" font-size="14.00" fill="#666666">[integer]</text>
<polygon fill="none" stroke="#000000" points="455,-42.5 455,-72.5 883,-72.5 883,-42.5 455,-42.5"/>
<text text-anchor="start" x="462" y="-53.9" font-family="Arial" font-size="14.00" fill="#000000">write_date </text>
<text text-anchor="start" x="530.4586" y="-53.9" font-family="Arial" font-size="14.00" fill="#666666">[timestamp without time zone]</text>
</g>
<!-- public.account_fiscal_position_template_res_country_state_rel&#45;&gt;public.account_fiscal_position_template -->
<g id="edge1" class="edge">
<title>public.account_fiscal_position_template_res_country_state_rel:account_fiscal_position_template_id&#45;&gt;public.account_fiscal_position_template:id</title>
<path fill="none" stroke="#000000" d="M588.0736,-695.9839C560.4461,-686.4534 573.8941,-634.3424 598,-607 682.4324,-511.2315 798.5676,-666.7685 883,-571 910.4814,-539.8289 924.5556,-477.5 883,-477.5"/>
<polygon fill="#000000" stroke="#000000" points="588.1146,-695.99 597.3205,-701.9484 593.0573,-696.745 598,-697.5 598,-697.5 598,-697.5 593.0573,-696.745 598.6795,-693.0516 588.1146,-695.99 588.1146,-695.99"/>
<text text-anchor="start" x="6.7375" y="-707.5" font-family="Arial" font-size="10.00" fill="#000000">FOREIGN KEY (account_fiscal_position_template_id) REFERENCES account_fiscal_position_template(id) ON DELETE CASCADE</text>
</g>
<!-- public.res_country_state -->
<g id="node3" class="node">
<title>public.res_country_state</title>
<polygon fill="#efefef" stroke="transparent" points="987,-387.5 987,-422.5 1293,-422.5 1293,-387.5 987,-387.5"/>
<polygon fill="none" stroke="#000000" points="987,-387.5 987,-422.5 1293,-422.5 1293,-387.5 987,-387.5"/>
<text text-anchor="start" x="993.8482" y="-400.3" font-family="Arial Bold" font-size="18.00" fill="#000000">public.res_country_state</text>
<text text-anchor="start" x="1188.898" y="-400.3" font-family="Arial" font-size="14.00" fill="#000000"> </text>
<text text-anchor="start" x="1192.7886" y="-400.3" font-family="Arial" font-size="14.00" fill="#666666">[BASE TABLE]</text>
<polygon fill="none" stroke="#000000" points="987,-357.5 987,-387.5 1293,-387.5 1293,-357.5 987,-357.5"/>
<text text-anchor="start" x="994" y="-368.9" font-family="Arial" font-size="14.00" fill="#000000">id </text>
<text text-anchor="start" x="1008.7798" y="-368.9" font-family="Arial" font-size="14.00" fill="#666666">[integer]</text>
<polygon fill="none" stroke="#000000" points="987,-327.5 987,-357.5 1293,-357.5 1293,-327.5 987,-327.5"/>
<text text-anchor="start" x="994" y="-338.9" font-family="Arial" font-size="14.00" fill="#000000">country_id </text>
<text text-anchor="start" x="1062.4614" y="-338.9" font-family="Arial" font-size="14.00" fill="#666666">[integer]</text>
<polygon fill="none" stroke="#000000" points="987,-297.5 987,-327.5 1293,-327.5 1293,-297.5 987,-297.5"/>
<text text-anchor="start" x="994" y="-308.9" font-family="Arial" font-size="14.00" fill="#000000">name </text>
<text text-anchor="start" x="1032.899" y="-308.9" font-family="Arial" font-size="14.00" fill="#666666">[varchar]</text>
<polygon fill="none" stroke="#000000" points="987,-267.5 987,-297.5 1293,-297.5 1293,-267.5 987,-267.5"/>
<text text-anchor="start" x="994" y="-278.9" font-family="Arial" font-size="14.00" fill="#000000">code </text>
<text text-anchor="start" x="1028.2384" y="-278.9" font-family="Arial" font-size="14.00" fill="#666666">[varchar]</text>
<polygon fill="none" stroke="#000000" points="987,-237.5 987,-267.5 1293,-267.5 1293,-237.5 987,-237.5"/>
<text text-anchor="start" x="994" y="-248.9" font-family="Arial" font-size="14.00" fill="#000000">create_uid </text>
<text text-anchor="start" x="1063.244" y="-248.9" font-family="Arial" font-size="14.00" fill="#666666">[integer]</text>
<polygon fill="none" stroke="#000000" points="987,-207.5 987,-237.5 1293,-237.5 1293,-207.5 987,-207.5"/>
<text text-anchor="start" x="994" y="-218.9" font-family="Arial" font-size="14.00" fill="#000000">create_date </text>
<text text-anchor="start" x="1071.8106" y="-218.9" font-family="Arial" font-size="14.00" fill="#666666">[timestamp without time zone]</text>
<polygon fill="none" stroke="#000000" points="987,-177.5 987,-207.5 1293,-207.5 1293,-177.5 987,-177.5"/>
<text text-anchor="start" x="994" y="-188.9" font-family="Arial" font-size="14.00" fill="#000000">write_uid </text>
<text text-anchor="start" x="1053.892" y="-188.9" font-family="Arial" font-size="14.00" fill="#666666">[integer]</text>
<polygon fill="none" stroke="#000000" points="987,-147.5 987,-177.5 1293,-177.5 1293,-147.5 987,-147.5"/>
<text text-anchor="start" x="994" y="-158.9" font-family="Arial" font-size="14.00" fill="#000000">write_date </text>
<text text-anchor="start" x="1062.4586" y="-158.9" font-family="Arial" font-size="14.00" fill="#666666">[timestamp without time zone]</text>
</g>
<!-- public.account_fiscal_position_template_res_country_state_rel&#45;&gt;public.res_country_state -->
<g id="edge2" class="edge">
<title>public.account_fiscal_position_template_res_country_state_rel:res_country_state_id&#45;&gt;public.res_country_state:id</title>
<path fill="none" stroke="#000000" d="M1218.7733,-664.9867C1231.557,-656.2843 1219.9261,-626.8832 1209,-607 1152.7088,-504.5621 1043.2912,-568.4379 987,-466 966.9872,-429.5809 945.4444,-372.5 987,-372.5"/>
<polygon fill="#000000" stroke="#000000" points="1218.6849,-665.0094 1207.8792,-663.1418 1213.8424,-666.2547 1209,-667.5 1209,-667.5 1209,-667.5 1213.8424,-666.2547 1210.1208,-671.8582 1218.6849,-665.0094 1218.6849,-665.0094"/>
<text text-anchor="start" x="1215.5335" y="-677.5" font-family="Arial" font-size="10.00" fill="#000000">FOREIGN KEY (res_country_state_id) REFERENCES res_country_state(id) ON DELETE CASCADE</text>
</g>
</g>
</svg>
