<?xml version="1.0" encoding="UTF-8" standalone="no"?>
<!DOCTYPE svg PUBLIC "-//W3C//DTD SVG 1.1//EN"
 "http://www.w3.org/Graphics/SVG/1.1/DTD/svg11.dtd">
<!-- Generated by graphviz version 2.40.1 (20161225.0304)
 -->
<!-- Title: public.base_language_install_website_rel Pages: 1 -->
<svg width="1324pt" height="1492pt"
 viewBox="0.00 0.00 1324.00 1492.00" xmlns="http://www.w3.org/2000/svg" xmlns:xlink="http://www.w3.org/1999/xlink">
<g id="graph0" class="graph" transform="scale(1 1) rotate(0) translate(4 1488)">
<title>public.base_language_install_website_rel</title>
<polygon fill="#ffffff" stroke="transparent" points="-4,4 -4,-1488 1320,-1488 1320,4 -4,4"/>
<!-- public.base_language_install_website_rel -->
<g id="node1" class="node">
<title>public.base_language_install_website_rel</title>
<polygon fill="#efefef" stroke="transparent" points="502,-1402.5 502,-1437.5 945,-1437.5 945,-1402.5 502,-1402.5"/>
<polygon fill="none" stroke="#000000" points="502,-1402.5 502,-1437.5 945,-1437.5 945,-1402.5 502,-1402.5"/>
<text text-anchor="start" x="508.8285" y="-1415.3" font-family="Arial Bold" font-size="18.00" fill="#000000">public.base_language_install_website_rel</text>
<text text-anchor="start" x="840.9177" y="-1415.3" font-family="Arial" font-size="14.00" fill="#000000"> </text>
<text text-anchor="start" x="844.8083" y="-1415.3" font-family="Arial" font-size="14.00" fill="#666666">[BASE TABLE]</text>
<polygon fill="none" stroke="#000000" points="502,-1372.5 502,-1402.5 945,-1402.5 945,-1372.5 502,-1372.5"/>
<text text-anchor="start" x="509" y="-1383.9" font-family="Arial" font-size="14.00" fill="#000000">base_language_install_id </text>
<text text-anchor="start" x="670.8358" y="-1383.9" font-family="Arial" font-size="14.00" fill="#666666">[integer]</text>
<polygon fill="none" stroke="#000000" points="502,-1342.5 502,-1372.5 945,-1372.5 945,-1342.5 502,-1342.5"/>
<text text-anchor="start" x="509" y="-1353.9" font-family="Arial" font-size="14.00" fill="#000000">website_id </text>
<text text-anchor="start" x="579.014" y="-1353.9" font-family="Arial" font-size="14.00" fill="#666666">[integer]</text>
<polygon fill="none" stroke="#000000" stroke-width="3" points="500,-1341.5 500,-1439.5 946,-1439.5 946,-1341.5 500,-1341.5"/>
</g>
<!-- public.base_language_install -->
<g id="node2" class="node">
<title>public.base_language_install</title>
<polygon fill="#efefef" stroke="transparent" points="343,-732.5 343,-767.5 685,-767.5 685,-732.5 343,-732.5"/>
<polygon fill="none" stroke="#000000" points="343,-732.5 343,-767.5 685,-767.5 685,-732.5 343,-732.5"/>
<text text-anchor="start" x="349.8356" y="-745.3" font-family="Arial Bold" font-size="18.00" fill="#000000">public.base_language_install</text>
<text text-anchor="start" x="580.9106" y="-745.3" font-family="Arial" font-size="14.00" fill="#000000"> </text>
<text text-anchor="start" x="584.8012" y="-745.3" font-family="Arial" font-size="14.00" fill="#666666">[BASE TABLE]</text>
<polygon fill="none" stroke="#000000" points="343,-702.5 343,-732.5 685,-732.5 685,-702.5 343,-702.5"/>
<text text-anchor="start" x="350" y="-713.9" font-family="Arial" font-size="14.00" fill="#000000">id </text>
<text text-anchor="start" x="364.7798" y="-713.9" font-family="Arial" font-size="14.00" fill="#666666">[integer]</text>
<polygon fill="none" stroke="#000000" points="343,-672.5 343,-702.5 685,-702.5 685,-672.5 343,-672.5"/>
<text text-anchor="start" x="350" y="-683.9" font-family="Arial" font-size="14.00" fill="#000000">lang </text>
<text text-anchor="start" x="380.345" y="-683.9" font-family="Arial" font-size="14.00" fill="#666666">[varchar]</text>
<polygon fill="none" stroke="#000000" points="343,-642.5 343,-672.5 685,-672.5 685,-642.5 343,-642.5"/>
<text text-anchor="start" x="350" y="-653.9" font-family="Arial" font-size="14.00" fill="#000000">overwrite </text>
<text text-anchor="start" x="410.6634" y="-653.9" font-family="Arial" font-size="14.00" fill="#666666">[boolean]</text>
<polygon fill="none" stroke="#000000" points="343,-612.5 343,-642.5 685,-642.5 685,-612.5 343,-612.5"/>
<text text-anchor="start" x="350" y="-623.9" font-family="Arial" font-size="14.00" fill="#000000">state </text>
<text text-anchor="start" x="384.237" y="-623.9" font-family="Arial" font-size="14.00" fill="#666666">[varchar]</text>
<polygon fill="none" stroke="#000000" points="343,-582.5 343,-612.5 685,-612.5 685,-582.5 343,-582.5"/>
<text text-anchor="start" x="350" y="-593.9" font-family="Arial" font-size="14.00" fill="#000000">create_uid </text>
<text text-anchor="start" x="419.244" y="-593.9" font-family="Arial" font-size="14.00" fill="#666666">[integer]</text>
<polygon fill="none" stroke="#000000" points="343,-552.5 343,-582.5 685,-582.5 685,-552.5 343,-552.5"/>
<text text-anchor="start" x="350" y="-563.9" font-family="Arial" font-size="14.00" fill="#000000">create_date </text>
<text text-anchor="start" x="427.8106" y="-563.9" font-family="Arial" font-size="14.00" fill="#666666">[timestamp without time zone]</text>
<polygon fill="none" stroke="#000000" points="343,-522.5 343,-552.5 685,-552.5 685,-522.5 343,-522.5"/>
<text text-anchor="start" x="350" y="-533.9" font-family="Arial" font-size="14.00" fill="#000000">write_uid </text>
<text text-anchor="start" x="409.892" y="-533.9" font-family="Arial" font-size="14.00" fill="#666666">[integer]</text>
<polygon fill="none" stroke="#000000" points="343,-492.5 343,-522.5 685,-522.5 685,-492.5 343,-492.5"/>
<text text-anchor="start" x="350" y="-503.9" font-family="Arial" font-size="14.00" fill="#000000">write_date </text>
<text text-anchor="start" x="418.4586" y="-503.9" font-family="Arial" font-size="14.00" fill="#666666">[timestamp without time zone]</text>
</g>
<!-- public.base_language_install_website_rel&#45;&gt;public.base_language_install -->
<g id="edge1" class="edge">
<title>public.base_language_install_website_rel:base_language_install_id&#45;&gt;public.base_language_install:id</title>
<path fill="none" stroke="#000000" d="M491.832,-1386.3214C371.2803,-1355.1845 835.5746,-717.5 685,-717.5"/>
<polygon fill="#000000" stroke="#000000" points="492.0665,-1386.3485 501.4818,-1391.9701 497.0333,-1386.9243 502,-1387.5 502,-1387.5 502,-1387.5 497.0333,-1386.9243 502.5182,-1383.0299 492.0665,-1386.3485 492.0665,-1386.3485"/>
<text text-anchor="start" x="6.5195" y="-1397.5" font-family="Arial" font-size="10.00" fill="#000000">FOREIGN KEY (base_language_install_id) REFERENCES base_language_install(id) ON DELETE CASCADE</text>
</g>
<!-- public.website -->
<g id="node3" class="node">
<title>public.website</title>
<polygon fill="#efefef" stroke="transparent" points="789,-1182.5 789,-1217.5 1079,-1217.5 1079,-1182.5 789,-1182.5"/>
<polygon fill="none" stroke="#000000" points="789,-1182.5 789,-1217.5 1079,-1217.5 1079,-1182.5 789,-1182.5"/>
<text text-anchor="start" x="828.8639" y="-1195.3" font-family="Arial Bold" font-size="18.00" fill="#000000">public.website</text>
<text text-anchor="start" x="941.8823" y="-1195.3" font-family="Arial" font-size="14.00" fill="#000000"> </text>
<text text-anchor="start" x="945.7729" y="-1195.3" font-family="Arial" font-size="14.00" fill="#666666">[BASE TABLE]</text>
<polygon fill="none" stroke="#000000" points="789,-1152.5 789,-1182.5 1079,-1182.5 1079,-1152.5 789,-1152.5"/>
<text text-anchor="start" x="796" y="-1163.9" font-family="Arial" font-size="14.00" fill="#000000">id </text>
<text text-anchor="start" x="810.7798" y="-1163.9" font-family="Arial" font-size="14.00" fill="#666666">[integer]</text>
<polygon fill="none" stroke="#000000" points="789,-1122.5 789,-1152.5 1079,-1152.5 1079,-1122.5 789,-1122.5"/>
<text text-anchor="start" x="796" y="-1133.9" font-family="Arial" font-size="14.00" fill="#000000">name </text>
<text text-anchor="start" x="834.899" y="-1133.9" font-family="Arial" font-size="14.00" fill="#666666">[varchar]</text>
<polygon fill="none" stroke="#000000" points="789,-1092.5 789,-1122.5 1079,-1122.5 1079,-1092.5 789,-1092.5"/>
<text text-anchor="start" x="796" y="-1103.9" font-family="Arial" font-size="14.00" fill="#000000">domain </text>
<text text-anchor="start" x="845.7882" y="-1103.9" font-family="Arial" font-size="14.00" fill="#666666">[varchar]</text>
<polygon fill="none" stroke="#000000" points="789,-1062.5 789,-1092.5 1079,-1092.5 1079,-1062.5 789,-1062.5"/>
<text text-anchor="start" x="796" y="-1073.9" font-family="Arial" font-size="14.00" fill="#000000">company_id </text>
<text text-anchor="start" x="875.3534" y="-1073.9" font-family="Arial" font-size="14.00" fill="#666666">[integer]</text>
<polygon fill="none" stroke="#000000" points="789,-1032.5 789,-1062.5 1079,-1062.5 1079,-1032.5 789,-1032.5"/>
<text text-anchor="start" x="796" y="-1043.9" font-family="Arial" font-size="14.00" fill="#000000">default_lang_id </text>
<text text-anchor="start" x="894.8176" y="-1043.9" font-family="Arial" font-size="14.00" fill="#666666">[integer]</text>
<polygon fill="none" stroke="#000000" points="789,-1002.5 789,-1032.5 1079,-1032.5 1079,-1002.5 789,-1002.5"/>
<text text-anchor="start" x="796" y="-1013.9" font-family="Arial" font-size="14.00" fill="#000000">default_lang_code </text>
<text text-anchor="start" x="914.2762" y="-1013.9" font-family="Arial" font-size="14.00" fill="#666666">[varchar]</text>
<polygon fill="none" stroke="#000000" points="789,-972.5 789,-1002.5 1079,-1002.5 1079,-972.5 789,-972.5"/>
<text text-anchor="start" x="796" y="-983.9" font-family="Arial" font-size="14.00" fill="#000000">auto_redirect_lang </text>
<text text-anchor="start" x="915.8148" y="-983.9" font-family="Arial" font-size="14.00" fill="#666666">[boolean]</text>
<polygon fill="none" stroke="#000000" points="789,-942.5 789,-972.5 1079,-972.5 1079,-942.5 789,-942.5"/>
<text text-anchor="start" x="796" y="-953.9" font-family="Arial" font-size="14.00" fill="#000000">social_twitter </text>
<text text-anchor="start" x="880.7798" y="-953.9" font-family="Arial" font-size="14.00" fill="#666666">[varchar]</text>
<polygon fill="none" stroke="#000000" points="789,-912.5 789,-942.5 1079,-942.5 1079,-912.5 789,-912.5"/>
<text text-anchor="start" x="796" y="-923.9" font-family="Arial" font-size="14.00" fill="#000000">social_facebook </text>
<text text-anchor="start" x="900.2552" y="-923.9" font-family="Arial" font-size="14.00" fill="#666666">[varchar]</text>
<polygon fill="none" stroke="#000000" points="789,-882.5 789,-912.5 1079,-912.5 1079,-882.5 789,-882.5"/>
<text text-anchor="start" x="796" y="-893.9" font-family="Arial" font-size="14.00" fill="#000000">social_github </text>
<text text-anchor="start" x="881.5792" y="-893.9" font-family="Arial" font-size="14.00" fill="#666666">[varchar]</text>
<polygon fill="none" stroke="#000000" points="789,-852.5 789,-882.5 1079,-882.5 1079,-852.5 789,-852.5"/>
<text text-anchor="start" x="796" y="-863.9" font-family="Arial" font-size="14.00" fill="#000000">social_linkedin </text>
<text text-anchor="start" x="890.9018" y="-863.9" font-family="Arial" font-size="14.00" fill="#666666">[varchar]</text>
<polygon fill="none" stroke="#000000" points="789,-822.5 789,-852.5 1079,-852.5 1079,-822.5 789,-822.5"/>
<text text-anchor="start" x="796" y="-833.9" font-family="Arial" font-size="14.00" fill="#000000">social_youtube </text>
<text text-anchor="start" x="893.2552" y="-833.9" font-family="Arial" font-size="14.00" fill="#666666">[varchar]</text>
<polygon fill="none" stroke="#000000" points="789,-792.5 789,-822.5 1079,-822.5 1079,-792.5 789,-792.5"/>
<text text-anchor="start" x="796" y="-803.9" font-family="Arial" font-size="14.00" fill="#000000">social_googleplus </text>
<text text-anchor="start" x="911.143" y="-803.9" font-family="Arial" font-size="14.00" fill="#666666">[varchar]</text>
<polygon fill="none" stroke="#000000" points="789,-762.5 789,-792.5 1079,-792.5 1079,-762.5 789,-762.5"/>
<text text-anchor="start" x="796" y="-773.9" font-family="Arial" font-size="14.00" fill="#000000">social_instagram </text>
<text text-anchor="start" x="904.9004" y="-773.9" font-family="Arial" font-size="14.00" fill="#666666">[varchar]</text>
<polygon fill="none" stroke="#000000" points="789,-732.5 789,-762.5 1079,-762.5 1079,-732.5 789,-732.5"/>
<text text-anchor="start" x="796" y="-743.9" font-family="Arial" font-size="14.00" fill="#000000">google_analytics_key </text>
<text text-anchor="start" x="933.7096" y="-743.9" font-family="Arial" font-size="14.00" fill="#666666">[varchar]</text>
<polygon fill="none" stroke="#000000" points="789,-702.5 789,-732.5 1079,-732.5 1079,-702.5 789,-702.5"/>
<text text-anchor="start" x="796" y="-713.9" font-family="Arial" font-size="14.00" fill="#000000">google_management_client_id </text>
<text text-anchor="start" x="990.5062" y="-713.9" font-family="Arial" font-size="14.00" fill="#666666">[varchar]</text>
<polygon fill="none" stroke="#000000" points="789,-672.5 789,-702.5 1079,-702.5 1079,-672.5 789,-672.5"/>
<text text-anchor="start" x="795.9082" y="-683.9" font-family="Arial" font-size="14.00" fill="#000000">google_management_client_secret </text>
<text text-anchor="start" x="1017.6416" y="-683.9" font-family="Arial" font-size="14.00" fill="#666666">[varchar]</text>
<polygon fill="none" stroke="#000000" points="789,-642.5 789,-672.5 1079,-672.5 1079,-642.5 789,-642.5"/>
<text text-anchor="start" x="796" y="-653.9" font-family="Arial" font-size="14.00" fill="#000000">google_maps_api_key </text>
<text text-anchor="start" x="939.9382" y="-653.9" font-family="Arial" font-size="14.00" fill="#666666">[varchar]</text>
<polygon fill="none" stroke="#000000" points="789,-612.5 789,-642.5 1079,-642.5 1079,-612.5 789,-612.5"/>
<text text-anchor="start" x="796" y="-623.9" font-family="Arial" font-size="14.00" fill="#000000">user_id </text>
<text text-anchor="start" x="845.7882" y="-623.9" font-family="Arial" font-size="14.00" fill="#666666">[integer]</text>
<polygon fill="none" stroke="#000000" points="789,-582.5 789,-612.5 1079,-612.5 1079,-582.5 789,-582.5"/>
<text text-anchor="start" x="796" y="-593.9" font-family="Arial" font-size="14.00" fill="#000000">cdn_activated </text>
<text text-anchor="start" x="886.2566" y="-593.9" font-family="Arial" font-size="14.00" fill="#666666">[boolean]</text>
<polygon fill="none" stroke="#000000" points="789,-552.5 789,-582.5 1079,-582.5 1079,-552.5 789,-552.5"/>
<text text-anchor="start" x="796" y="-563.9" font-family="Arial" font-size="14.00" fill="#000000">cdn_url </text>
<text text-anchor="start" x="845.7882" y="-563.9" font-family="Arial" font-size="14.00" fill="#666666">[varchar]</text>
<polygon fill="none" stroke="#000000" points="789,-522.5 789,-552.5 1079,-552.5 1079,-522.5 789,-522.5"/>
<text text-anchor="start" x="796" y="-533.9" font-family="Arial" font-size="14.00" fill="#000000">cdn_filters </text>
<text text-anchor="start" x="863.676" y="-533.9" font-family="Arial" font-size="14.00" fill="#666666">[text]</text>
<polygon fill="none" stroke="#000000" points="789,-492.5 789,-522.5 1079,-522.5 1079,-492.5 789,-492.5"/>
<text text-anchor="start" x="796" y="-503.9" font-family="Arial" font-size="14.00" fill="#000000">homepage_id </text>
<text text-anchor="start" x="884.7012" y="-503.9" font-family="Arial" font-size="14.00" fill="#666666">[integer]</text>
<polygon fill="none" stroke="#000000" points="789,-462.5 789,-492.5 1079,-492.5 1079,-462.5 789,-462.5"/>
<text text-anchor="start" x="796" y="-473.9" font-family="Arial" font-size="14.00" fill="#000000">favicon </text>
<text text-anchor="start" x="844.2356" y="-473.9" font-family="Arial" font-size="14.00" fill="#666666">[bytea]</text>
<polygon fill="none" stroke="#000000" points="789,-432.5 789,-462.5 1079,-462.5 1079,-432.5 789,-432.5"/>
<text text-anchor="start" x="796" y="-443.9" font-family="Arial" font-size="14.00" fill="#000000">theme_id </text>
<text text-anchor="start" x="857.4614" y="-443.9" font-family="Arial" font-size="14.00" fill="#666666">[integer]</text>
<polygon fill="none" stroke="#000000" points="789,-402.5 789,-432.5 1079,-432.5 1079,-402.5 789,-402.5"/>
<text text-anchor="start" x="796" y="-413.9" font-family="Arial" font-size="14.00" fill="#000000">specific_user_account </text>
<text text-anchor="start" x="938.3716" y="-413.9" font-family="Arial" font-size="14.00" fill="#666666">[boolean]</text>
<polygon fill="none" stroke="#000000" points="789,-372.5 789,-402.5 1079,-402.5 1079,-372.5 789,-372.5"/>
<text text-anchor="start" x="796" y="-383.9" font-family="Arial" font-size="14.00" fill="#000000">auth_signup_uninvited </text>
<text text-anchor="start" x="939.948" y="-383.9" font-family="Arial" font-size="14.00" fill="#666666">[varchar]</text>
<polygon fill="none" stroke="#000000" points="789,-342.5 789,-372.5 1079,-372.5 1079,-342.5 789,-342.5"/>
<text text-anchor="start" x="796" y="-353.9" font-family="Arial" font-size="14.00" fill="#000000">create_uid </text>
<text text-anchor="start" x="865.244" y="-353.9" font-family="Arial" font-size="14.00" fill="#666666">[integer]</text>
<polygon fill="none" stroke="#000000" points="789,-312.5 789,-342.5 1079,-342.5 1079,-312.5 789,-312.5"/>
<text text-anchor="start" x="796" y="-323.9" font-family="Arial" font-size="14.00" fill="#000000">create_date </text>
<text text-anchor="start" x="873.8106" y="-323.9" font-family="Arial" font-size="14.00" fill="#666666">[timestamp without time zone]</text>
<polygon fill="none" stroke="#000000" points="789,-282.5 789,-312.5 1079,-312.5 1079,-282.5 789,-282.5"/>
<text text-anchor="start" x="796" y="-293.9" font-family="Arial" font-size="14.00" fill="#000000">write_uid </text>
<text text-anchor="start" x="855.892" y="-293.9" font-family="Arial" font-size="14.00" fill="#666666">[integer]</text>
<polygon fill="none" stroke="#000000" points="789,-252.5 789,-282.5 1079,-282.5 1079,-252.5 789,-252.5"/>
<text text-anchor="start" x="796" y="-263.9" font-family="Arial" font-size="14.00" fill="#000000">write_date </text>
<text text-anchor="start" x="864.4586" y="-263.9" font-family="Arial" font-size="14.00" fill="#666666">[timestamp without time zone]</text>
<polygon fill="none" stroke="#000000" points="789,-222.5 789,-252.5 1079,-252.5 1079,-222.5 789,-222.5"/>
<text text-anchor="start" x="796" y="-233.9" font-family="Arial" font-size="14.00" fill="#000000">website_form_enable_metadata </text>
<text text-anchor="start" x="999.0588" y="-233.9" font-family="Arial" font-size="14.00" fill="#666666">[boolean]</text>
<polygon fill="none" stroke="#000000" points="789,-192.5 789,-222.5 1079,-222.5 1079,-192.5 789,-192.5"/>
<text text-anchor="start" x="796" y="-203.9" font-family="Arial" font-size="14.00" fill="#000000">salesperson_id </text>
<text text-anchor="start" x="894.0252" y="-203.9" font-family="Arial" font-size="14.00" fill="#666666">[integer]</text>
<polygon fill="none" stroke="#000000" points="789,-162.5 789,-192.5 1079,-192.5 1079,-162.5 789,-162.5"/>
<text text-anchor="start" x="796" y="-173.9" font-family="Arial" font-size="14.00" fill="#000000">salesteam_id </text>
<text text-anchor="start" x="882.3506" y="-173.9" font-family="Arial" font-size="14.00" fill="#666666">[integer]</text>
<polygon fill="none" stroke="#000000" points="789,-132.5 789,-162.5 1079,-162.5 1079,-132.5 789,-132.5"/>
<text text-anchor="start" x="796" y="-143.9" font-family="Arial" font-size="14.00" fill="#000000">cart_recovery_mail_template_id </text>
<text text-anchor="start" x="998.2482" y="-143.9" font-family="Arial" font-size="14.00" fill="#666666">[integer]</text>
<polygon fill="none" stroke="#000000" points="789,-102.5 789,-132.5 1079,-132.5 1079,-102.5 789,-102.5"/>
<text text-anchor="start" x="796" y="-113.9" font-family="Arial" font-size="14.00" fill="#000000">cart_abandoned_delay </text>
<text text-anchor="start" x="942.2874" y="-113.9" font-family="Arial" font-size="14.00" fill="#666666">[double precision]</text>
<polygon fill="none" stroke="#000000" points="789,-72.5 789,-102.5 1079,-102.5 1079,-72.5 789,-72.5"/>
<text text-anchor="start" x="796" y="-83.9" font-family="Arial" font-size="14.00" fill="#000000">crm_default_team_id </text>
<text text-anchor="start" x="930.5834" y="-83.9" font-family="Arial" font-size="14.00" fill="#666666">[integer]</text>
<polygon fill="none" stroke="#000000" points="789,-42.5 789,-72.5 1079,-72.5 1079,-42.5 789,-42.5"/>
<text text-anchor="start" x="796" y="-53.9" font-family="Arial" font-size="14.00" fill="#000000">crm_default_user_id </text>
<text text-anchor="start" x="926.6928" y="-53.9" font-family="Arial" font-size="14.00" fill="#666666">[integer]</text>
</g>
<!-- public.base_language_install_website_rel&#45;&gt;public.website -->
<g id="edge2" class="edge">
<title>public.base_language_install_website_rel:website_id&#45;&gt;public.website:id</title>
<path fill="none" stroke="#000000" d="M955.0076,-1354.8308C968.5564,-1345.6192 959.1241,-1314.7548 945,-1297 900.702,-1241.3152 833.298,-1316.6848 789,-1261 763.1295,-1228.4795 747.4444,-1167.5 789,-1167.5"/>
<polygon fill="#000000" stroke="#000000" points="954.6622,-1354.9229 943.8403,-1353.152 949.8311,-1356.2114 945,-1357.5 945,-1357.5 945,-1357.5 949.8311,-1356.2114 946.1597,-1361.848 954.6622,-1354.9229 954.6622,-1354.9229"/>
<text text-anchor="start" x="952.1065" y="-1367.5" font-family="Arial" font-size="10.00" fill="#000000">FOREIGN KEY (website_id) REFERENCES website(id) ON DELETE CASCADE</text>
</g>
</g>
</svg>
