<?xml version="1.0" encoding="UTF-8" standalone="no"?>
<!DOCTYPE svg PUBLIC "-//W3C//DTD SVG 1.1//EN"
 "http://www.w3.org/Graphics/SVG/1.1/DTD/svg11.dtd">
<!-- Generated by graphviz version 2.40.1 (20161225.0304)
 -->
<!-- Title: public.meeting_category_rel Pages: 1 -->
<svg width="1155pt" height="1762pt"
 viewBox="0.00 0.00 1155.00 1762.00" xmlns="http://www.w3.org/2000/svg" xmlns:xlink="http://www.w3.org/1999/xlink">
<g id="graph0" class="graph" transform="scale(1 1) rotate(0) translate(4 1758)">
<title>public.meeting_category_rel</title>
<polygon fill="#ffffff" stroke="transparent" points="-4,4 -4,-1758 1151,-1758 1151,4 -4,4"/>
<!-- public.meeting_category_rel -->
<g id="node1" class="node">
<title>public.meeting_category_rel</title>
<polygon fill="#efefef" stroke="transparent" points="396,-1672.5 396,-1707.5 732,-1707.5 732,-1672.5 396,-1672.5"/>
<polygon fill="none" stroke="#000000" points="396,-1672.5 396,-1707.5 732,-1707.5 732,-1672.5 396,-1672.5"/>
<text text-anchor="start" x="402.8497" y="-1685.3" font-family="Arial Bold" font-size="18.00" fill="#000000">public.meeting_category_rel</text>
<text text-anchor="start" x="627.8965" y="-1685.3" font-family="Arial" font-size="14.00" fill="#000000"> </text>
<text text-anchor="start" x="631.7871" y="-1685.3" font-family="Arial" font-size="14.00" fill="#666666">[BASE TABLE]</text>
<polygon fill="none" stroke="#000000" points="396,-1642.5 396,-1672.5 732,-1672.5 732,-1642.5 396,-1642.5"/>
<text text-anchor="start" x="403" y="-1653.9" font-family="Arial" font-size="14.00" fill="#000000">event_id </text>
<text text-anchor="start" x="459.8008" y="-1653.9" font-family="Arial" font-size="14.00" fill="#666666">[integer]</text>
<polygon fill="none" stroke="#000000" points="396,-1612.5 396,-1642.5 732,-1642.5 732,-1612.5 396,-1612.5"/>
<text text-anchor="start" x="403" y="-1623.9" font-family="Arial" font-size="14.00" fill="#000000">type_id </text>
<text text-anchor="start" x="452.0182" y="-1623.9" font-family="Arial" font-size="14.00" fill="#666666">[integer]</text>
<polygon fill="none" stroke="#000000" stroke-width="3" points="394.5,-1611.5 394.5,-1709.5 733.5,-1709.5 733.5,-1611.5 394.5,-1611.5"/>
</g>
<!-- public.calendar_event -->
<g id="node2" class="node">
<title>public.calendar_event</title>
<polygon fill="#efefef" stroke="transparent" points="196,-1452.5 196,-1487.5 508,-1487.5 508,-1452.5 196,-1452.5"/>
<polygon fill="none" stroke="#000000" points="196,-1452.5 196,-1487.5 508,-1487.5 508,-1452.5 196,-1452.5"/>
<text text-anchor="start" x="215.8463" y="-1465.3" font-family="Arial Bold" font-size="18.00" fill="#000000">public.calendar_event</text>
<text text-anchor="start" x="390.8999" y="-1465.3" font-family="Arial" font-size="14.00" fill="#000000"> </text>
<text text-anchor="start" x="394.7905" y="-1465.3" font-family="Arial" font-size="14.00" fill="#666666">[BASE TABLE]</text>
<polygon fill="none" stroke="#000000" points="196,-1422.5 196,-1452.5 508,-1452.5 508,-1422.5 196,-1422.5"/>
<text text-anchor="start" x="203" y="-1433.9" font-family="Arial" font-size="14.00" fill="#000000">id </text>
<text text-anchor="start" x="217.7798" y="-1433.9" font-family="Arial" font-size="14.00" fill="#666666">[integer]</text>
<polygon fill="none" stroke="#000000" points="196,-1392.5 196,-1422.5 508,-1422.5 508,-1392.5 196,-1392.5"/>
<text text-anchor="start" x="203" y="-1403.9" font-family="Arial" font-size="14.00" fill="#000000">message_main_attachment_id </text>
<text text-anchor="start" x="397.4964" y="-1403.9" font-family="Arial" font-size="14.00" fill="#666666">[integer]</text>
<polygon fill="none" stroke="#000000" points="196,-1362.5 196,-1392.5 508,-1392.5 508,-1362.5 196,-1362.5"/>
<text text-anchor="start" x="203" y="-1373.9" font-family="Arial" font-size="14.00" fill="#000000">name </text>
<text text-anchor="start" x="241.899" y="-1373.9" font-family="Arial" font-size="14.00" fill="#666666">[varchar]</text>
<polygon fill="none" stroke="#000000" points="196,-1332.5 196,-1362.5 508,-1362.5 508,-1332.5 196,-1332.5"/>
<text text-anchor="start" x="203" y="-1343.9" font-family="Arial" font-size="14.00" fill="#000000">state </text>
<text text-anchor="start" x="237.237" y="-1343.9" font-family="Arial" font-size="14.00" fill="#666666">[varchar]</text>
<polygon fill="none" stroke="#000000" points="196,-1302.5 196,-1332.5 508,-1332.5 508,-1302.5 196,-1302.5"/>
<text text-anchor="start" x="203" y="-1313.9" font-family="Arial" font-size="14.00" fill="#000000">display_start </text>
<text text-anchor="start" x="285.4586" y="-1313.9" font-family="Arial" font-size="14.00" fill="#666666">[varchar]</text>
<polygon fill="none" stroke="#000000" points="196,-1272.5 196,-1302.5 508,-1302.5 508,-1272.5 196,-1272.5"/>
<text text-anchor="start" x="203" y="-1283.9" font-family="Arial" font-size="14.00" fill="#000000">start </text>
<text text-anchor="start" x="234.115" y="-1283.9" font-family="Arial" font-size="14.00" fill="#666666">[timestamp without time zone]</text>
<polygon fill="none" stroke="#000000" points="196,-1242.5 196,-1272.5 508,-1272.5 508,-1242.5 196,-1242.5"/>
<text text-anchor="start" x="203" y="-1253.9" font-family="Arial" font-size="14.00" fill="#000000">stop </text>
<text text-anchor="start" x="233.3464" y="-1253.9" font-family="Arial" font-size="14.00" fill="#666666">[timestamp without time zone]</text>
<polygon fill="none" stroke="#000000" points="196,-1212.5 196,-1242.5 508,-1242.5 508,-1212.5 196,-1212.5"/>
<text text-anchor="start" x="203" y="-1223.9" font-family="Arial" font-size="14.00" fill="#000000">allday </text>
<text text-anchor="start" x="243.4516" y="-1223.9" font-family="Arial" font-size="14.00" fill="#666666">[boolean]</text>
<polygon fill="none" stroke="#000000" points="196,-1182.5 196,-1212.5 508,-1212.5 508,-1182.5 196,-1182.5"/>
<text text-anchor="start" x="203" y="-1193.9" font-family="Arial" font-size="14.00" fill="#000000">start_date </text>
<text text-anchor="start" x="269.136" y="-1193.9" font-family="Arial" font-size="14.00" fill="#666666">[date]</text>
<polygon fill="none" stroke="#000000" points="196,-1152.5 196,-1182.5 508,-1182.5 508,-1152.5 196,-1152.5"/>
<text text-anchor="start" x="203" y="-1163.9" font-family="Arial" font-size="14.00" fill="#000000">start_datetime </text>
<text text-anchor="start" x="295.5764" y="-1163.9" font-family="Arial" font-size="14.00" fill="#666666">[timestamp without time zone]</text>
<polygon fill="none" stroke="#000000" points="196,-1122.5 196,-1152.5 508,-1152.5 508,-1122.5 196,-1122.5"/>
<text text-anchor="start" x="203" y="-1133.9" font-family="Arial" font-size="14.00" fill="#000000">stop_date </text>
<text text-anchor="start" x="268.3674" y="-1133.9" font-family="Arial" font-size="14.00" fill="#666666">[date]</text>
<polygon fill="none" stroke="#000000" points="196,-1092.5 196,-1122.5 508,-1122.5 508,-1092.5 196,-1092.5"/>
<text text-anchor="start" x="203" y="-1103.9" font-family="Arial" font-size="14.00" fill="#000000">stop_datetime </text>
<text text-anchor="start" x="294.8078" y="-1103.9" font-family="Arial" font-size="14.00" fill="#666666">[timestamp without time zone]</text>
<polygon fill="none" stroke="#000000" points="196,-1062.5 196,-1092.5 508,-1092.5 508,-1062.5 196,-1062.5"/>
<text text-anchor="start" x="203" y="-1073.9" font-family="Arial" font-size="14.00" fill="#000000">duration </text>
<text text-anchor="start" x="257.4614" y="-1073.9" font-family="Arial" font-size="14.00" fill="#666666">[double precision]</text>
<polygon fill="none" stroke="#000000" points="196,-1032.5 196,-1062.5 508,-1062.5 508,-1032.5 196,-1032.5"/>
<text text-anchor="start" x="203" y="-1043.9" font-family="Arial" font-size="14.00" fill="#000000">description </text>
<text text-anchor="start" x="274.568" y="-1043.9" font-family="Arial" font-size="14.00" fill="#666666">[text]</text>
<polygon fill="none" stroke="#000000" points="196,-1002.5 196,-1032.5 508,-1032.5 508,-1002.5 196,-1002.5"/>
<text text-anchor="start" x="203" y="-1013.9" font-family="Arial" font-size="14.00" fill="#000000">privacy </text>
<text text-anchor="start" x="251.223" y="-1013.9" font-family="Arial" font-size="14.00" fill="#666666">[varchar]</text>
<polygon fill="none" stroke="#000000" points="196,-972.5 196,-1002.5 508,-1002.5 508,-972.5 196,-972.5"/>
<text text-anchor="start" x="203" y="-983.9" font-family="Arial" font-size="14.00" fill="#000000">location </text>
<text text-anchor="start" x="255.1248" y="-983.9" font-family="Arial" font-size="14.00" fill="#666666">[varchar]</text>
<polygon fill="none" stroke="#000000" points="196,-942.5 196,-972.5 508,-972.5 508,-942.5 196,-942.5"/>
<text text-anchor="start" x="203" y="-953.9" font-family="Arial" font-size="14.00" fill="#000000">show_as </text>
<text text-anchor="start" x="262.1276" y="-953.9" font-family="Arial" font-size="14.00" fill="#666666">[varchar]</text>
<polygon fill="none" stroke="#000000" points="196,-912.5 196,-942.5 508,-942.5 508,-912.5 196,-912.5"/>
<text text-anchor="start" x="203" y="-923.9" font-family="Arial" font-size="14.00" fill="#000000">res_id </text>
<text text-anchor="start" x="245.0056" y="-923.9" font-family="Arial" font-size="14.00" fill="#666666">[integer]</text>
<polygon fill="none" stroke="#000000" points="196,-882.5 196,-912.5 508,-912.5 508,-882.5 196,-882.5"/>
<text text-anchor="start" x="203" y="-893.9" font-family="Arial" font-size="14.00" fill="#000000">res_model_id </text>
<text text-anchor="start" x="290.9032" y="-893.9" font-family="Arial" font-size="14.00" fill="#666666">[integer]</text>
<polygon fill="none" stroke="#000000" points="196,-852.5 196,-882.5 508,-882.5 508,-852.5 196,-852.5"/>
<text text-anchor="start" x="203" y="-863.9" font-family="Arial" font-size="14.00" fill="#000000">res_model </text>
<text text-anchor="start" x="272.2314" y="-863.9" font-family="Arial" font-size="14.00" fill="#666666">[varchar]</text>
<polygon fill="none" stroke="#000000" points="196,-822.5 196,-852.5 508,-852.5 508,-822.5 196,-822.5"/>
<text text-anchor="start" x="203" y="-833.9" font-family="Arial" font-size="14.00" fill="#000000">rrule </text>
<text text-anchor="start" x="234.8836" y="-833.9" font-family="Arial" font-size="14.00" fill="#666666">[varchar]</text>
<polygon fill="none" stroke="#000000" points="196,-792.5 196,-822.5 508,-822.5 508,-792.5 196,-792.5"/>
<text text-anchor="start" x="203" y="-803.9" font-family="Arial" font-size="14.00" fill="#000000">rrule_type </text>
<text text-anchor="start" x="269.122" y="-803.9" font-family="Arial" font-size="14.00" fill="#666666">[varchar]</text>
<polygon fill="none" stroke="#000000" points="196,-762.5 196,-792.5 508,-792.5 508,-762.5 196,-762.5"/>
<text text-anchor="start" x="203" y="-773.9" font-family="Arial" font-size="14.00" fill="#000000">recurrency </text>
<text text-anchor="start" x="273.0028" y="-773.9" font-family="Arial" font-size="14.00" fill="#666666">[boolean]</text>
<polygon fill="none" stroke="#000000" points="196,-732.5 196,-762.5 508,-762.5 508,-732.5 196,-732.5"/>
<text text-anchor="start" x="203" y="-743.9" font-family="Arial" font-size="14.00" fill="#000000">recurrent_id </text>
<text text-anchor="start" x="281.5652" y="-743.9" font-family="Arial" font-size="14.00" fill="#666666">[integer]</text>
<polygon fill="none" stroke="#000000" points="196,-702.5 196,-732.5 508,-732.5 508,-702.5 196,-702.5"/>
<text text-anchor="start" x="202.6368" y="-713.9" font-family="Arial" font-size="14.00" fill="#000000">recurrent_id_date </text>
<text text-anchor="start" x="316.223" y="-713.9" font-family="Arial" font-size="14.00" fill="#666666">[timestamp without time zone]</text>
<polygon fill="none" stroke="#000000" points="196,-672.5 196,-702.5 508,-702.5 508,-672.5 196,-672.5"/>
<text text-anchor="start" x="203" y="-683.9" font-family="Arial" font-size="14.00" fill="#000000">end_type </text>
<text text-anchor="start" x="264.4768" y="-683.9" font-family="Arial" font-size="14.00" fill="#666666">[varchar]</text>
<polygon fill="none" stroke="#000000" points="196,-642.5 196,-672.5 508,-672.5 508,-642.5 196,-642.5"/>
<text text-anchor="start" x="203" y="-653.9" font-family="Arial" font-size="14.00" fill="#000000">interval </text>
<text text-anchor="start" x="252.0028" y="-653.9" font-family="Arial" font-size="14.00" fill="#666666">[integer]</text>
<polygon fill="none" stroke="#000000" points="196,-612.5 196,-642.5 508,-642.5 508,-612.5 196,-612.5"/>
<text text-anchor="start" x="203" y="-623.9" font-family="Arial" font-size="14.00" fill="#000000">count </text>
<text text-anchor="start" x="241.129" y="-623.9" font-family="Arial" font-size="14.00" fill="#666666">[integer]</text>
<polygon fill="none" stroke="#000000" points="196,-582.5 196,-612.5 508,-612.5 508,-582.5 196,-582.5"/>
<text text-anchor="start" x="203" y="-593.9" font-family="Arial" font-size="14.00" fill="#000000">mo </text>
<text text-anchor="start" x="226.3338" y="-593.9" font-family="Arial" font-size="14.00" fill="#666666">[boolean]</text>
<polygon fill="none" stroke="#000000" points="196,-552.5 196,-582.5 508,-582.5 508,-552.5 196,-552.5"/>
<text text-anchor="start" x="203" y="-563.9" font-family="Arial" font-size="14.00" fill="#000000">tu </text>
<text text-anchor="start" x="218.5638" y="-563.9" font-family="Arial" font-size="14.00" fill="#666666">[boolean]</text>
<polygon fill="none" stroke="#000000" points="196,-522.5 196,-552.5 508,-552.5 508,-522.5 196,-522.5"/>
<text text-anchor="start" x="203" y="-533.9" font-family="Arial" font-size="14.00" fill="#000000">we </text>
<text text-anchor="start" x="224.7798" y="-533.9" font-family="Arial" font-size="14.00" fill="#666666">[boolean]</text>
<polygon fill="none" stroke="#000000" points="196,-492.5 196,-522.5 508,-522.5 508,-492.5 196,-492.5"/>
<text text-anchor="start" x="203" y="-503.9" font-family="Arial" font-size="14.00" fill="#000000">th </text>
<text text-anchor="start" x="218.5638" y="-503.9" font-family="Arial" font-size="14.00" fill="#666666">[boolean]</text>
<polygon fill="none" stroke="#000000" points="196,-462.5 196,-492.5 508,-492.5 508,-462.5 196,-462.5"/>
<text text-anchor="start" x="203" y="-473.9" font-family="Arial" font-size="14.00" fill="#000000">fr </text>
<text text-anchor="start" x="215.4418" y="-473.9" font-family="Arial" font-size="14.00" fill="#666666">[boolean]</text>
<polygon fill="none" stroke="#000000" points="196,-432.5 196,-462.5 508,-462.5 508,-432.5 196,-432.5"/>
<text text-anchor="start" x="203" y="-443.9" font-family="Arial" font-size="14.00" fill="#000000">sa </text>
<text text-anchor="start" x="221.6732" y="-443.9" font-family="Arial" font-size="14.00" fill="#666666">[boolean]</text>
<polygon fill="none" stroke="#000000" points="196,-402.5 196,-432.5 508,-432.5 508,-402.5 196,-402.5"/>
<text text-anchor="start" x="203" y="-413.9" font-family="Arial" font-size="14.00" fill="#000000">su </text>
<text text-anchor="start" x="221.6732" y="-413.9" font-family="Arial" font-size="14.00" fill="#666666">[boolean]</text>
<polygon fill="none" stroke="#000000" points="196,-372.5 196,-402.5 508,-402.5 508,-372.5 196,-372.5"/>
<text text-anchor="start" x="203" y="-383.9" font-family="Arial" font-size="14.00" fill="#000000">month_by </text>
<text text-anchor="start" x="268.3548" y="-383.9" font-family="Arial" font-size="14.00" fill="#666666">[varchar]</text>
<polygon fill="none" stroke="#000000" points="196,-342.5 196,-372.5 508,-372.5 508,-342.5 196,-342.5"/>
<text text-anchor="start" x="203" y="-353.9" font-family="Arial" font-size="14.00" fill="#000000">day </text>
<text text-anchor="start" x="229.4558" y="-353.9" font-family="Arial" font-size="14.00" fill="#666666">[integer]</text>
<polygon fill="none" stroke="#000000" points="196,-312.5 196,-342.5 508,-342.5 508,-312.5 196,-312.5"/>
<text text-anchor="start" x="203" y="-323.9" font-family="Arial" font-size="14.00" fill="#000000">week_list </text>
<text text-anchor="start" x="264.4488" y="-323.9" font-family="Arial" font-size="14.00" fill="#666666">[varchar]</text>
<polygon fill="none" stroke="#000000" points="196,-282.5 196,-312.5 508,-312.5 508,-282.5 196,-282.5"/>
<text text-anchor="start" x="203" y="-293.9" font-family="Arial" font-size="14.00" fill="#000000">byday </text>
<text text-anchor="start" x="244.2384" y="-293.9" font-family="Arial" font-size="14.00" fill="#666666">[varchar]</text>
<polygon fill="none" stroke="#000000" points="196,-252.5 196,-282.5 508,-282.5 508,-252.5 196,-252.5"/>
<text text-anchor="start" x="203" y="-263.9" font-family="Arial" font-size="14.00" fill="#000000">final_date </text>
<text text-anchor="start" x="267.5806" y="-263.9" font-family="Arial" font-size="14.00" fill="#666666">[date]</text>
<polygon fill="none" stroke="#000000" points="196,-222.5 196,-252.5 508,-252.5 508,-222.5 196,-222.5"/>
<text text-anchor="start" x="203" y="-233.9" font-family="Arial" font-size="14.00" fill="#000000">user_id </text>
<text text-anchor="start" x="252.7882" y="-233.9" font-family="Arial" font-size="14.00" fill="#666666">[integer]</text>
<polygon fill="none" stroke="#000000" points="196,-192.5 196,-222.5 508,-222.5 508,-192.5 196,-192.5"/>
<text text-anchor="start" x="203" y="-203.9" font-family="Arial" font-size="14.00" fill="#000000">active </text>
<text text-anchor="start" x="243.453" y="-203.9" font-family="Arial" font-size="14.00" fill="#666666">[boolean]</text>
<polygon fill="none" stroke="#000000" points="196,-162.5 196,-192.5 508,-192.5 508,-162.5 196,-162.5"/>
<text text-anchor="start" x="203" y="-173.9" font-family="Arial" font-size="14.00" fill="#000000">create_uid </text>
<text text-anchor="start" x="272.244" y="-173.9" font-family="Arial" font-size="14.00" fill="#666666">[integer]</text>
<polygon fill="none" stroke="#000000" points="196,-132.5 196,-162.5 508,-162.5 508,-132.5 196,-132.5"/>
<text text-anchor="start" x="203" y="-143.9" font-family="Arial" font-size="14.00" fill="#000000">create_date </text>
<text text-anchor="start" x="280.8106" y="-143.9" font-family="Arial" font-size="14.00" fill="#666666">[timestamp without time zone]</text>
<polygon fill="none" stroke="#000000" points="196,-102.5 196,-132.5 508,-132.5 508,-102.5 196,-102.5"/>
<text text-anchor="start" x="203" y="-113.9" font-family="Arial" font-size="14.00" fill="#000000">write_uid </text>
<text text-anchor="start" x="262.892" y="-113.9" font-family="Arial" font-size="14.00" fill="#666666">[integer]</text>
<polygon fill="none" stroke="#000000" points="196,-72.5 196,-102.5 508,-102.5 508,-72.5 196,-72.5"/>
<text text-anchor="start" x="203" y="-83.9" font-family="Arial" font-size="14.00" fill="#000000">write_date </text>
<text text-anchor="start" x="271.4586" y="-83.9" font-family="Arial" font-size="14.00" fill="#666666">[timestamp without time zone]</text>
<polygon fill="none" stroke="#000000" points="196,-42.5 196,-72.5 508,-72.5 508,-42.5 196,-42.5"/>
<text text-anchor="start" x="203" y="-53.9" font-family="Arial" font-size="14.00" fill="#000000">opportunity_id </text>
<text text-anchor="start" x="294.8064" y="-53.9" font-family="Arial" font-size="14.00" fill="#666666">[integer]</text>
</g>
<!-- public.meeting_category_rel&#45;&gt;public.calendar_event -->
<g id="edge1" class="edge">
<title>public.meeting_category_rel:event_id&#45;&gt;public.calendar_event:id</title>
<path fill="none" stroke="#000000" d="M385.7936,-1655.9185C359.0744,-1646.4156 374.6204,-1596.3289 396,-1567 426.7998,-1524.7484 477.2002,-1573.2516 508,-1531 532.4788,-1497.4195 549.5556,-1437.5 508,-1437.5"/>
<polygon fill="#000000" stroke="#000000" points="386.1179,-1655.9686 395.3109,-1661.9469 391.059,-1656.7343 396,-1657.5 396,-1657.5 396,-1657.5 391.059,-1656.7343 396.6891,-1653.0531 386.1179,-1655.9686 386.1179,-1655.9686"/>
<text text-anchor="start" x="6.5935" y="-1667.5" font-family="Arial" font-size="10.00" fill="#000000">FOREIGN KEY (event_id) REFERENCES calendar_event(id) ON DELETE CASCADE</text>
</g>
<!-- public.calendar_event_type -->
<g id="node3" class="node">
<title>public.calendar_event_type</title>
<polygon fill="#efefef" stroke="transparent" points="612,-837.5 612,-872.5 942,-872.5 942,-837.5 612,-837.5"/>
<polygon fill="none" stroke="#000000" points="612,-837.5 612,-872.5 942,-872.5 942,-837.5 612,-837.5"/>
<text text-anchor="start" x="618.8359" y="-850.3" font-family="Arial Bold" font-size="18.00" fill="#000000">public.calendar_event_type</text>
<text text-anchor="start" x="837.9103" y="-850.3" font-family="Arial" font-size="14.00" fill="#000000"> </text>
<text text-anchor="start" x="841.8009" y="-850.3" font-family="Arial" font-size="14.00" fill="#666666">[BASE TABLE]</text>
<polygon fill="none" stroke="#000000" points="612,-807.5 612,-837.5 942,-837.5 942,-807.5 612,-807.5"/>
<text text-anchor="start" x="619" y="-818.9" font-family="Arial" font-size="14.00" fill="#000000">id </text>
<text text-anchor="start" x="633.7798" y="-818.9" font-family="Arial" font-size="14.00" fill="#666666">[integer]</text>
<polygon fill="none" stroke="#000000" points="612,-777.5 612,-807.5 942,-807.5 942,-777.5 612,-777.5"/>
<text text-anchor="start" x="619" y="-788.9" font-family="Arial" font-size="14.00" fill="#000000">name </text>
<text text-anchor="start" x="657.899" y="-788.9" font-family="Arial" font-size="14.00" fill="#666666">[varchar]</text>
<polygon fill="none" stroke="#000000" points="612,-747.5 612,-777.5 942,-777.5 942,-747.5 612,-747.5"/>
<text text-anchor="start" x="619" y="-758.9" font-family="Arial" font-size="14.00" fill="#000000">create_uid </text>
<text text-anchor="start" x="688.244" y="-758.9" font-family="Arial" font-size="14.00" fill="#666666">[integer]</text>
<polygon fill="none" stroke="#000000" points="612,-717.5 612,-747.5 942,-747.5 942,-717.5 612,-717.5"/>
<text text-anchor="start" x="619" y="-728.9" font-family="Arial" font-size="14.00" fill="#000000">create_date </text>
<text text-anchor="start" x="696.8106" y="-728.9" font-family="Arial" font-size="14.00" fill="#666666">[timestamp without time zone]</text>
<polygon fill="none" stroke="#000000" points="612,-687.5 612,-717.5 942,-717.5 942,-687.5 612,-687.5"/>
<text text-anchor="start" x="619" y="-698.9" font-family="Arial" font-size="14.00" fill="#000000">write_uid </text>
<text text-anchor="start" x="678.892" y="-698.9" font-family="Arial" font-size="14.00" fill="#666666">[integer]</text>
<polygon fill="none" stroke="#000000" points="612,-657.5 612,-687.5 942,-687.5 942,-657.5 612,-657.5"/>
<text text-anchor="start" x="619" y="-668.9" font-family="Arial" font-size="14.00" fill="#000000">write_date </text>
<text text-anchor="start" x="687.4586" y="-668.9" font-family="Arial" font-size="14.00" fill="#666666">[timestamp without time zone]</text>
</g>
<!-- public.meeting_category_rel&#45;&gt;public.calendar_event_type -->
<g id="edge2" class="edge">
<title>public.meeting_category_rel:type_id&#45;&gt;public.calendar_event_type:id</title>
<path fill="none" stroke="#000000" d="M742.3029,-1626.4982C893.3857,-1594.821 434.8436,-822.5 612,-822.5"/>
<polygon fill="#000000" stroke="#000000" points="741.9531,-1626.5321 731.5645,-1623.0211 736.9765,-1627.0161 732,-1627.5 732,-1627.5 732,-1627.5 736.9765,-1627.0161 732.4355,-1631.9789 741.9531,-1626.5321 741.9531,-1626.5321"/>
<text text-anchor="start" x="739.145" y="-1637.5" font-family="Arial" font-size="10.00" fill="#000000">FOREIGN KEY (type_id) REFERENCES calendar_event_type(id) ON DELETE CASCADE</text>
</g>
</g>
</svg>
