<?xml version="1.0" encoding="UTF-8" standalone="no"?>
<!DOCTYPE svg PUBLIC "-//W3C//DTD SVG 1.1//EN"
 "http://www.w3.org/Graphics/SVG/1.1/DTD/svg11.dtd">
<!-- Generated by graphviz version 2.40.1 (20161225.0304)
 -->
<!-- Title: public.mail_shortcode Pages: 1 -->
<svg width="720pt" height="1192pt"
 viewBox="0.00 0.00 719.50 1192.00" xmlns="http://www.w3.org/2000/svg" xmlns:xlink="http://www.w3.org/1999/xlink">
<g id="graph0" class="graph" transform="scale(1 1) rotate(0) translate(4 1188)">
<title>public.mail_shortcode</title>
<polygon fill="#ffffff" stroke="transparent" points="-4,4 -4,-1188 715.5,-1188 715.5,4 -4,4"/>
<!-- public.mail_shortcode -->
<g id="node1" class="node">
<title>public.mail_shortcode</title>
<polygon fill="#efefef" stroke="transparent" points="46.5,-1102.5 46.5,-1137.5 331.5,-1137.5 331.5,-1102.5 46.5,-1102.5"/>
<polygon fill="none" stroke="#000000" points="46.5,-1102.5 46.5,-1137.5 331.5,-1137.5 331.5,-1102.5 46.5,-1102.5"/>
<text text-anchor="start" x="53.3593" y="-1115.3" font-family="Arial Bold" font-size="18.00" fill="#000000">public.mail_shortcode</text>
<text text-anchor="start" x="227.3869" y="-1115.3" font-family="Arial" font-size="14.00" fill="#000000"> </text>
<text text-anchor="start" x="231.2775" y="-1115.3" font-family="Arial" font-size="14.00" fill="#666666">[BASE TABLE]</text>
<polygon fill="none" stroke="#000000" points="46.5,-1072.5 46.5,-1102.5 331.5,-1102.5 331.5,-1072.5 46.5,-1072.5"/>
<text text-anchor="start" x="53.5" y="-1083.9" font-family="Arial" font-size="14.00" fill="#000000">id </text>
<text text-anchor="start" x="68.2798" y="-1083.9" font-family="Arial" font-size="14.00" fill="#666666">[integer]</text>
<polygon fill="none" stroke="#000000" points="46.5,-1042.5 46.5,-1072.5 331.5,-1072.5 331.5,-1042.5 46.5,-1042.5"/>
<text text-anchor="start" x="53.5" y="-1053.9" font-family="Arial" font-size="14.00" fill="#000000">source </text>
<text text-anchor="start" x="99.399" y="-1053.9" font-family="Arial" font-size="14.00" fill="#666666">[varchar]</text>
<polygon fill="none" stroke="#000000" points="46.5,-1012.5 46.5,-1042.5 331.5,-1042.5 331.5,-1012.5 46.5,-1012.5"/>
<text text-anchor="start" x="53.5" y="-1023.9" font-family="Arial" font-size="14.00" fill="#000000">substitution </text>
<text text-anchor="start" x="128.1886" y="-1023.9" font-family="Arial" font-size="14.00" fill="#666666">[text]</text>
<polygon fill="none" stroke="#000000" points="46.5,-982.5 46.5,-1012.5 331.5,-1012.5 331.5,-982.5 46.5,-982.5"/>
<text text-anchor="start" x="53.5" y="-993.9" font-family="Arial" font-size="14.00" fill="#000000">description </text>
<text text-anchor="start" x="125.068" y="-993.9" font-family="Arial" font-size="14.00" fill="#666666">[varchar]</text>
<polygon fill="none" stroke="#000000" points="46.5,-952.5 46.5,-982.5 331.5,-982.5 331.5,-952.5 46.5,-952.5"/>
<text text-anchor="start" x="53.5" y="-963.9" font-family="Arial" font-size="14.00" fill="#000000">create_uid </text>
<text text-anchor="start" x="122.744" y="-963.9" font-family="Arial" font-size="14.00" fill="#666666">[integer]</text>
<polygon fill="none" stroke="#000000" points="46.5,-922.5 46.5,-952.5 331.5,-952.5 331.5,-922.5 46.5,-922.5"/>
<text text-anchor="start" x="53.5" y="-933.9" font-family="Arial" font-size="14.00" fill="#000000">create_date </text>
<text text-anchor="start" x="131.3106" y="-933.9" font-family="Arial" font-size="14.00" fill="#666666">[timestamp without time zone]</text>
<polygon fill="none" stroke="#000000" points="46.5,-892.5 46.5,-922.5 331.5,-922.5 331.5,-892.5 46.5,-892.5"/>
<text text-anchor="start" x="53.5" y="-903.9" font-family="Arial" font-size="14.00" fill="#000000">write_uid </text>
<text text-anchor="start" x="113.392" y="-903.9" font-family="Arial" font-size="14.00" fill="#666666">[integer]</text>
<polygon fill="none" stroke="#000000" points="46.5,-862.5 46.5,-892.5 331.5,-892.5 331.5,-862.5 46.5,-862.5"/>
<text text-anchor="start" x="53.5" y="-873.9" font-family="Arial" font-size="14.00" fill="#000000">write_date </text>
<text text-anchor="start" x="121.9586" y="-873.9" font-family="Arial" font-size="14.00" fill="#666666">[timestamp without time zone]</text>
<polygon fill="none" stroke="#000000" stroke-width="3" points="44.5,-861.5 44.5,-1139.5 332.5,-1139.5 332.5,-861.5 44.5,-861.5"/>
</g>
<!-- public.res_users -->
<g id="node2" class="node">
<title>public.res_users</title>
<polygon fill="#efefef" stroke="transparent" points="51.5,-702.5 51.5,-737.5 327.5,-737.5 327.5,-702.5 51.5,-702.5"/>
<polygon fill="none" stroke="#000000" points="51.5,-702.5 51.5,-737.5 327.5,-737.5 327.5,-702.5 51.5,-702.5"/>
<text text-anchor="start" x="75.3639" y="-715.3" font-family="Arial Bold" font-size="18.00" fill="#000000">public.res_users</text>
<text text-anchor="start" x="206.3823" y="-715.3" font-family="Arial" font-size="14.00" fill="#000000"> </text>
<text text-anchor="start" x="210.2729" y="-715.3" font-family="Arial" font-size="14.00" fill="#666666">[BASE TABLE]</text>
<polygon fill="none" stroke="#000000" points="51.5,-672.5 51.5,-702.5 327.5,-702.5 327.5,-672.5 51.5,-672.5"/>
<text text-anchor="start" x="58.5" y="-683.9" font-family="Arial" font-size="14.00" fill="#000000">id </text>
<text text-anchor="start" x="73.2798" y="-683.9" font-family="Arial" font-size="14.00" fill="#666666">[integer]</text>
<polygon fill="none" stroke="#000000" points="51.5,-642.5 51.5,-672.5 327.5,-672.5 327.5,-642.5 51.5,-642.5"/>
<text text-anchor="start" x="58.5" y="-653.9" font-family="Arial" font-size="14.00" fill="#000000">active </text>
<text text-anchor="start" x="98.953" y="-653.9" font-family="Arial" font-size="14.00" fill="#666666">[boolean]</text>
<polygon fill="none" stroke="#000000" points="51.5,-612.5 51.5,-642.5 327.5,-642.5 327.5,-612.5 51.5,-612.5"/>
<text text-anchor="start" x="58.5" y="-623.9" font-family="Arial" font-size="14.00" fill="#000000">login </text>
<text text-anchor="start" x="91.9516" y="-623.9" font-family="Arial" font-size="14.00" fill="#666666">[varchar]</text>
<polygon fill="none" stroke="#000000" points="51.5,-582.5 51.5,-612.5 327.5,-612.5 327.5,-582.5 51.5,-582.5"/>
<text text-anchor="start" x="58.5" y="-593.9" font-family="Arial" font-size="14.00" fill="#000000">password </text>
<text text-anchor="start" x="122.2882" y="-593.9" font-family="Arial" font-size="14.00" fill="#666666">[varchar]</text>
<polygon fill="none" stroke="#000000" points="51.5,-552.5 51.5,-582.5 327.5,-582.5 327.5,-552.5 51.5,-552.5"/>
<text text-anchor="start" x="58.5" y="-563.9" font-family="Arial" font-size="14.00" fill="#000000">company_id </text>
<text text-anchor="start" x="137.8534" y="-563.9" font-family="Arial" font-size="14.00" fill="#666666">[integer]</text>
<polygon fill="none" stroke="#000000" points="51.5,-522.5 51.5,-552.5 327.5,-552.5 327.5,-522.5 51.5,-522.5"/>
<text text-anchor="start" x="58.5" y="-533.9" font-family="Arial" font-size="14.00" fill="#000000">partner_id </text>
<text text-anchor="start" x="125.4046" y="-533.9" font-family="Arial" font-size="14.00" fill="#666666">[integer]</text>
<polygon fill="none" stroke="#000000" points="51.5,-492.5 51.5,-522.5 327.5,-522.5 327.5,-492.5 51.5,-492.5"/>
<text text-anchor="start" x="58.0246" y="-503.9" font-family="Arial" font-size="14.00" fill="#000000">create_date </text>
<text text-anchor="start" x="135.8352" y="-503.9" font-family="Arial" font-size="14.00" fill="#666666">[timestamp without time zone]</text>
<polygon fill="none" stroke="#000000" points="51.5,-462.5 51.5,-492.5 327.5,-492.5 327.5,-462.5 51.5,-462.5"/>
<text text-anchor="start" x="58.5" y="-473.9" font-family="Arial" font-size="14.00" fill="#000000">signature </text>
<text text-anchor="start" x="119.9614" y="-473.9" font-family="Arial" font-size="14.00" fill="#666666">[text]</text>
<polygon fill="none" stroke="#000000" points="51.5,-432.5 51.5,-462.5 327.5,-462.5 327.5,-432.5 51.5,-432.5"/>
<text text-anchor="start" x="58.5" y="-443.9" font-family="Arial" font-size="14.00" fill="#000000">action_id </text>
<text text-anchor="start" x="118.4074" y="-443.9" font-family="Arial" font-size="14.00" fill="#666666">[integer]</text>
<polygon fill="none" stroke="#000000" points="51.5,-402.5 51.5,-432.5 327.5,-432.5 327.5,-402.5 51.5,-402.5"/>
<text text-anchor="start" x="58.5" y="-413.9" font-family="Arial" font-size="14.00" fill="#000000">share </text>
<text text-anchor="start" x="97.399" y="-413.9" font-family="Arial" font-size="14.00" fill="#666666">[boolean]</text>
<polygon fill="none" stroke="#000000" points="51.5,-372.5 51.5,-402.5 327.5,-402.5 327.5,-372.5 51.5,-372.5"/>
<text text-anchor="start" x="58.5" y="-383.9" font-family="Arial" font-size="14.00" fill="#000000">create_uid </text>
<text text-anchor="start" x="127.744" y="-383.9" font-family="Arial" font-size="14.00" fill="#666666">[integer]</text>
<polygon fill="none" stroke="#000000" points="51.5,-342.5 51.5,-372.5 327.5,-372.5 327.5,-342.5 51.5,-342.5"/>
<text text-anchor="start" x="58.5" y="-353.9" font-family="Arial" font-size="14.00" fill="#000000">write_uid </text>
<text text-anchor="start" x="118.392" y="-353.9" font-family="Arial" font-size="14.00" fill="#666666">[integer]</text>
<polygon fill="none" stroke="#000000" points="51.5,-312.5 51.5,-342.5 327.5,-342.5 327.5,-312.5 51.5,-312.5"/>
<text text-anchor="start" x="58.5" y="-323.9" font-family="Arial" font-size="14.00" fill="#000000">write_date </text>
<text text-anchor="start" x="126.9586" y="-323.9" font-family="Arial" font-size="14.00" fill="#666666">[timestamp without time zone]</text>
<polygon fill="none" stroke="#000000" points="51.5,-282.5 51.5,-312.5 327.5,-312.5 327.5,-282.5 51.5,-282.5"/>
<text text-anchor="start" x="58.5" y="-293.9" font-family="Arial" font-size="14.00" fill="#000000">alias_id </text>
<text text-anchor="start" x="109.8408" y="-293.9" font-family="Arial" font-size="14.00" fill="#666666">[integer]</text>
<polygon fill="none" stroke="#000000" points="51.5,-252.5 51.5,-282.5 327.5,-282.5 327.5,-252.5 51.5,-252.5"/>
<text text-anchor="start" x="58.5" y="-263.9" font-family="Arial" font-size="14.00" fill="#000000">notification_type </text>
<text text-anchor="start" x="163.5336" y="-263.9" font-family="Arial" font-size="14.00" fill="#666666">[varchar]</text>
<polygon fill="none" stroke="#000000" points="51.5,-222.5 51.5,-252.5 327.5,-252.5 327.5,-222.5 51.5,-222.5"/>
<text text-anchor="start" x="58.5" y="-233.9" font-family="Arial" font-size="14.00" fill="#000000">odoobot_state </text>
<text text-anchor="start" x="151.1058" y="-233.9" font-family="Arial" font-size="14.00" fill="#666666">[varchar]</text>
<polygon fill="none" stroke="#000000" points="51.5,-192.5 51.5,-222.5 327.5,-222.5 327.5,-192.5 51.5,-192.5"/>
<text text-anchor="start" x="58.5" y="-203.9" font-family="Arial" font-size="14.00" fill="#000000">sale_team_id </text>
<text text-anchor="start" x="145.6332" y="-203.9" font-family="Arial" font-size="14.00" fill="#666666">[integer]</text>
<polygon fill="none" stroke="#000000" points="51.5,-162.5 51.5,-192.5 327.5,-192.5 327.5,-162.5 51.5,-162.5"/>
<text text-anchor="start" x="58.5" y="-173.9" font-family="Arial" font-size="14.00" fill="#000000">target_sales_won </text>
<text text-anchor="start" x="172.089" y="-173.9" font-family="Arial" font-size="14.00" fill="#666666">[integer]</text>
<polygon fill="none" stroke="#000000" points="51.5,-132.5 51.5,-162.5 327.5,-162.5 327.5,-132.5 51.5,-132.5"/>
<text text-anchor="start" x="58.5" y="-143.9" font-family="Arial" font-size="14.00" fill="#000000">target_sales_done </text>
<text text-anchor="start" x="177.5476" y="-143.9" font-family="Arial" font-size="14.00" fill="#666666">[integer]</text>
<polygon fill="none" stroke="#000000" points="51.5,-102.5 51.5,-132.5 327.5,-132.5 327.5,-102.5 51.5,-102.5"/>
<text text-anchor="start" x="58.5" y="-113.9" font-family="Arial" font-size="14.00" fill="#000000">website_id </text>
<text text-anchor="start" x="128.514" y="-113.9" font-family="Arial" font-size="14.00" fill="#666666">[integer]</text>
<polygon fill="none" stroke="#000000" points="51.5,-72.5 51.5,-102.5 327.5,-102.5 327.5,-72.5 51.5,-72.5"/>
<text text-anchor="start" x="58.5" y="-83.9" font-family="Arial" font-size="14.00" fill="#000000">target_sales_invoiced </text>
<text text-anchor="start" x="197.7608" y="-83.9" font-family="Arial" font-size="14.00" fill="#666666">[integer]</text>
<polygon fill="none" stroke="#000000" points="51.5,-42.5 51.5,-72.5 327.5,-72.5 327.5,-42.5 51.5,-42.5"/>
<text text-anchor="start" x="58.5" y="-53.9" font-family="Arial" font-size="14.00" fill="#000000">pos_security_pin </text>
<text text-anchor="start" x="167.4158" y="-53.9" font-family="Arial" font-size="14.00" fill="#666666">[varchar(32)]</text>
</g>
<!-- public.mail_shortcode&#45;&gt;public.res_users -->
<g id="edge1" class="edge">
<title>public.mail_shortcode:create_uid&#45;&gt;public.res_users:id</title>
<path fill="none" stroke="#000000" d="M341.6812,-966.6249C395.8408,-956.6819 373.263,-864.4763 331.5,-817 248.6299,-722.793 134.3701,-875.207 51.5,-781 24.0532,-749.7984 9.9444,-687.5 51.5,-687.5"/>
<polygon fill="#000000" stroke="#000000" points="341.4633,-966.6435 331.1146,-963.0165 336.4816,-967.0718 331.5,-967.5 331.5,-967.5 331.5,-967.5 336.4816,-967.0718 331.8854,-971.9835 341.4633,-966.6435 341.4633,-966.6435"/>
<text text-anchor="start" x="338.157" y="-977.5" font-family="Arial" font-size="10.00" fill="#000000">FOREIGN KEY (create_uid) REFERENCES res_users(id) ON DELETE SET NULL</text>
</g>
<!-- public.mail_shortcode&#45;&gt;public.res_users -->
<g id="edge2" class="edge">
<title>public.mail_shortcode:write_uid&#45;&gt;public.res_users:id</title>
<path fill="none" stroke="#000000" d="M341.4256,-905.9846C369.0482,-896.4584 355.5756,-844.3692 331.5,-817 248.6299,-722.793 134.3701,-875.207 51.5,-781 24.0532,-749.7984 9.9444,-687.5 51.5,-687.5"/>
<polygon fill="#000000" stroke="#000000" points="341.3854,-905.9906 330.8208,-903.0515 336.4427,-906.7453 331.5,-907.5 331.5,-907.5 331.5,-907.5 336.4427,-906.7453 332.1792,-911.9485 341.3854,-905.9906 341.3854,-905.9906"/>
<text text-anchor="start" x="338.497" y="-917.5" font-family="Arial" font-size="10.00" fill="#000000">FOREIGN KEY (write_uid) REFERENCES res_users(id) ON DELETE SET NULL</text>
</g>
</g>
</svg>
