<?xml version="1.0" encoding="UTF-8" standalone="no"?>
<!DOCTYPE svg PUBLIC "-//W3C//DTD SVG 1.1//EN"
 "http://www.w3.org/Graphics/SVG/1.1/DTD/svg11.dtd">
<!-- Generated by graphviz version 2.40.1 (20161225.0304)
 -->
<!-- Title: public.bus_presence Pages: 1 -->
<svg width="711pt" height="1102pt"
 viewBox="0.00 0.00 711.00 1102.00" xmlns="http://www.w3.org/2000/svg" xmlns:xlink="http://www.w3.org/1999/xlink">
<g id="graph0" class="graph" transform="scale(1 1) rotate(0) translate(4 1098)">
<title>public.bus_presence</title>
<polygon fill="#ffffff" stroke="transparent" points="-4,4 -4,-1098 707,-1098 707,4 -4,4"/>
<!-- public.bus_presence -->
<g id="node1" class="node">
<title>public.bus_presence</title>
<polygon fill="#efefef" stroke="transparent" points="46,-1012.5 46,-1047.5 336,-1047.5 336,-1012.5 46,-1012.5"/>
<polygon fill="none" stroke="#000000" points="46,-1012.5 46,-1047.5 336,-1047.5 336,-1012.5 46,-1012.5"/>
<text text-anchor="start" x="59.8476" y="-1025.3" font-family="Arial Bold" font-size="18.00" fill="#000000">public.bus_presence</text>
<text text-anchor="start" x="224.8986" y="-1025.3" font-family="Arial" font-size="14.00" fill="#000000"> </text>
<text text-anchor="start" x="228.7892" y="-1025.3" font-family="Arial" font-size="14.00" fill="#666666">[BASE TABLE]</text>
<polygon fill="none" stroke="#000000" points="46,-982.5 46,-1012.5 336,-1012.5 336,-982.5 46,-982.5"/>
<text text-anchor="start" x="53" y="-993.9" font-family="Arial" font-size="14.00" fill="#000000">id </text>
<text text-anchor="start" x="67.7798" y="-993.9" font-family="Arial" font-size="14.00" fill="#666666">[integer]</text>
<polygon fill="none" stroke="#000000" points="46,-952.5 46,-982.5 336,-982.5 336,-952.5 46,-952.5"/>
<text text-anchor="start" x="53" y="-963.9" font-family="Arial" font-size="14.00" fill="#000000">user_id </text>
<text text-anchor="start" x="102.7882" y="-963.9" font-family="Arial" font-size="14.00" fill="#666666">[integer]</text>
<polygon fill="none" stroke="#000000" points="46,-922.5 46,-952.5 336,-952.5 336,-922.5 46,-922.5"/>
<text text-anchor="start" x="53" y="-933.9" font-family="Arial" font-size="14.00" fill="#000000">last_poll </text>
<text text-anchor="start" x="108.2314" y="-933.9" font-family="Arial" font-size="14.00" fill="#666666">[timestamp without time zone]</text>
<polygon fill="none" stroke="#000000" points="46,-892.5 46,-922.5 336,-922.5 336,-892.5 46,-892.5"/>
<text text-anchor="start" x="52.9166" y="-903.9" font-family="Arial" font-size="14.00" fill="#000000">last_presence </text>
<text text-anchor="start" x="143.9432" y="-903.9" font-family="Arial" font-size="14.00" fill="#666666">[timestamp without time zone]</text>
<polygon fill="none" stroke="#000000" points="46,-862.5 46,-892.5 336,-892.5 336,-862.5 46,-862.5"/>
<text text-anchor="start" x="53" y="-873.9" font-family="Arial" font-size="14.00" fill="#000000">status </text>
<text text-anchor="start" x="94.237" y="-873.9" font-family="Arial" font-size="14.00" fill="#666666">[varchar]</text>
<polygon fill="none" stroke="#000000" stroke-width="3" points="44.5,-861.5 44.5,-1049.5 337.5,-1049.5 337.5,-861.5 44.5,-861.5"/>
</g>
<!-- public.res_users -->
<g id="node2" class="node">
<title>public.res_users</title>
<polygon fill="#efefef" stroke="transparent" points="53,-702.5 53,-737.5 329,-737.5 329,-702.5 53,-702.5"/>
<polygon fill="none" stroke="#000000" points="53,-702.5 53,-737.5 329,-737.5 329,-702.5 53,-702.5"/>
<text text-anchor="start" x="76.8639" y="-715.3" font-family="Arial Bold" font-size="18.00" fill="#000000">public.res_users</text>
<text text-anchor="start" x="207.8823" y="-715.3" font-family="Arial" font-size="14.00" fill="#000000"> </text>
<text text-anchor="start" x="211.7729" y="-715.3" font-family="Arial" font-size="14.00" fill="#666666">[BASE TABLE]</text>
<polygon fill="none" stroke="#000000" points="53,-672.5 53,-702.5 329,-702.5 329,-672.5 53,-672.5"/>
<text text-anchor="start" x="60" y="-683.9" font-family="Arial" font-size="14.00" fill="#000000">id </text>
<text text-anchor="start" x="74.7798" y="-683.9" font-family="Arial" font-size="14.00" fill="#666666">[integer]</text>
<polygon fill="none" stroke="#000000" points="53,-642.5 53,-672.5 329,-672.5 329,-642.5 53,-642.5"/>
<text text-anchor="start" x="60" y="-653.9" font-family="Arial" font-size="14.00" fill="#000000">active </text>
<text text-anchor="start" x="100.453" y="-653.9" font-family="Arial" font-size="14.00" fill="#666666">[boolean]</text>
<polygon fill="none" stroke="#000000" points="53,-612.5 53,-642.5 329,-642.5 329,-612.5 53,-612.5"/>
<text text-anchor="start" x="60" y="-623.9" font-family="Arial" font-size="14.00" fill="#000000">login </text>
<text text-anchor="start" x="93.4516" y="-623.9" font-family="Arial" font-size="14.00" fill="#666666">[varchar]</text>
<polygon fill="none" stroke="#000000" points="53,-582.5 53,-612.5 329,-612.5 329,-582.5 53,-582.5"/>
<text text-anchor="start" x="60" y="-593.9" font-family="Arial" font-size="14.00" fill="#000000">password </text>
<text text-anchor="start" x="123.7882" y="-593.9" font-family="Arial" font-size="14.00" fill="#666666">[varchar]</text>
<polygon fill="none" stroke="#000000" points="53,-552.5 53,-582.5 329,-582.5 329,-552.5 53,-552.5"/>
<text text-anchor="start" x="60" y="-563.9" font-family="Arial" font-size="14.00" fill="#000000">company_id </text>
<text text-anchor="start" x="139.3534" y="-563.9" font-family="Arial" font-size="14.00" fill="#666666">[integer]</text>
<polygon fill="none" stroke="#000000" points="53,-522.5 53,-552.5 329,-552.5 329,-522.5 53,-522.5"/>
<text text-anchor="start" x="60" y="-533.9" font-family="Arial" font-size="14.00" fill="#000000">partner_id </text>
<text text-anchor="start" x="126.9046" y="-533.9" font-family="Arial" font-size="14.00" fill="#666666">[integer]</text>
<polygon fill="none" stroke="#000000" points="53,-492.5 53,-522.5 329,-522.5 329,-492.5 53,-492.5"/>
<text text-anchor="start" x="59.5246" y="-503.9" font-family="Arial" font-size="14.00" fill="#000000">create_date </text>
<text text-anchor="start" x="137.3352" y="-503.9" font-family="Arial" font-size="14.00" fill="#666666">[timestamp without time zone]</text>
<polygon fill="none" stroke="#000000" points="53,-462.5 53,-492.5 329,-492.5 329,-462.5 53,-462.5"/>
<text text-anchor="start" x="60" y="-473.9" font-family="Arial" font-size="14.00" fill="#000000">signature </text>
<text text-anchor="start" x="121.4614" y="-473.9" font-family="Arial" font-size="14.00" fill="#666666">[text]</text>
<polygon fill="none" stroke="#000000" points="53,-432.5 53,-462.5 329,-462.5 329,-432.5 53,-432.5"/>
<text text-anchor="start" x="60" y="-443.9" font-family="Arial" font-size="14.00" fill="#000000">action_id </text>
<text text-anchor="start" x="119.9074" y="-443.9" font-family="Arial" font-size="14.00" fill="#666666">[integer]</text>
<polygon fill="none" stroke="#000000" points="53,-402.5 53,-432.5 329,-432.5 329,-402.5 53,-402.5"/>
<text text-anchor="start" x="60" y="-413.9" font-family="Arial" font-size="14.00" fill="#000000">share </text>
<text text-anchor="start" x="98.899" y="-413.9" font-family="Arial" font-size="14.00" fill="#666666">[boolean]</text>
<polygon fill="none" stroke="#000000" points="53,-372.5 53,-402.5 329,-402.5 329,-372.5 53,-372.5"/>
<text text-anchor="start" x="60" y="-383.9" font-family="Arial" font-size="14.00" fill="#000000">create_uid </text>
<text text-anchor="start" x="129.244" y="-383.9" font-family="Arial" font-size="14.00" fill="#666666">[integer]</text>
<polygon fill="none" stroke="#000000" points="53,-342.5 53,-372.5 329,-372.5 329,-342.5 53,-342.5"/>
<text text-anchor="start" x="60" y="-353.9" font-family="Arial" font-size="14.00" fill="#000000">write_uid </text>
<text text-anchor="start" x="119.892" y="-353.9" font-family="Arial" font-size="14.00" fill="#666666">[integer]</text>
<polygon fill="none" stroke="#000000" points="53,-312.5 53,-342.5 329,-342.5 329,-312.5 53,-312.5"/>
<text text-anchor="start" x="60" y="-323.9" font-family="Arial" font-size="14.00" fill="#000000">write_date </text>
<text text-anchor="start" x="128.4586" y="-323.9" font-family="Arial" font-size="14.00" fill="#666666">[timestamp without time zone]</text>
<polygon fill="none" stroke="#000000" points="53,-282.5 53,-312.5 329,-312.5 329,-282.5 53,-282.5"/>
<text text-anchor="start" x="60" y="-293.9" font-family="Arial" font-size="14.00" fill="#000000">alias_id </text>
<text text-anchor="start" x="111.3408" y="-293.9" font-family="Arial" font-size="14.00" fill="#666666">[integer]</text>
<polygon fill="none" stroke="#000000" points="53,-252.5 53,-282.5 329,-282.5 329,-252.5 53,-252.5"/>
<text text-anchor="start" x="60" y="-263.9" font-family="Arial" font-size="14.00" fill="#000000">notification_type </text>
<text text-anchor="start" x="165.0336" y="-263.9" font-family="Arial" font-size="14.00" fill="#666666">[varchar]</text>
<polygon fill="none" stroke="#000000" points="53,-222.5 53,-252.5 329,-252.5 329,-222.5 53,-222.5"/>
<text text-anchor="start" x="60" y="-233.9" font-family="Arial" font-size="14.00" fill="#000000">odoobot_state </text>
<text text-anchor="start" x="152.6058" y="-233.9" font-family="Arial" font-size="14.00" fill="#666666">[varchar]</text>
<polygon fill="none" stroke="#000000" points="53,-192.5 53,-222.5 329,-222.5 329,-192.5 53,-192.5"/>
<text text-anchor="start" x="60" y="-203.9" font-family="Arial" font-size="14.00" fill="#000000">sale_team_id </text>
<text text-anchor="start" x="147.1332" y="-203.9" font-family="Arial" font-size="14.00" fill="#666666">[integer]</text>
<polygon fill="none" stroke="#000000" points="53,-162.5 53,-192.5 329,-192.5 329,-162.5 53,-162.5"/>
<text text-anchor="start" x="60" y="-173.9" font-family="Arial" font-size="14.00" fill="#000000">target_sales_won </text>
<text text-anchor="start" x="173.589" y="-173.9" font-family="Arial" font-size="14.00" fill="#666666">[integer]</text>
<polygon fill="none" stroke="#000000" points="53,-132.5 53,-162.5 329,-162.5 329,-132.5 53,-132.5"/>
<text text-anchor="start" x="60" y="-143.9" font-family="Arial" font-size="14.00" fill="#000000">target_sales_done </text>
<text text-anchor="start" x="179.0476" y="-143.9" font-family="Arial" font-size="14.00" fill="#666666">[integer]</text>
<polygon fill="none" stroke="#000000" points="53,-102.5 53,-132.5 329,-132.5 329,-102.5 53,-102.5"/>
<text text-anchor="start" x="60" y="-113.9" font-family="Arial" font-size="14.00" fill="#000000">website_id </text>
<text text-anchor="start" x="130.014" y="-113.9" font-family="Arial" font-size="14.00" fill="#666666">[integer]</text>
<polygon fill="none" stroke="#000000" points="53,-72.5 53,-102.5 329,-102.5 329,-72.5 53,-72.5"/>
<text text-anchor="start" x="60" y="-83.9" font-family="Arial" font-size="14.00" fill="#000000">target_sales_invoiced </text>
<text text-anchor="start" x="199.2608" y="-83.9" font-family="Arial" font-size="14.00" fill="#666666">[integer]</text>
<polygon fill="none" stroke="#000000" points="53,-42.5 53,-72.5 329,-72.5 329,-42.5 53,-42.5"/>
<text text-anchor="start" x="60" y="-53.9" font-family="Arial" font-size="14.00" fill="#000000">pos_security_pin </text>
<text text-anchor="start" x="168.9158" y="-53.9" font-family="Arial" font-size="14.00" fill="#666666">[varchar(32)]</text>
</g>
<!-- public.bus_presence&#45;&gt;public.res_users -->
<g id="edge1" class="edge">
<title>public.bus_presence:user_id&#45;&gt;public.res_users:id</title>
<path fill="none" stroke="#000000" d="M345.9123,-964.9069C397.2715,-936.6795 387.7163,-687.5 329,-687.5"/>
<polygon fill="#000000" stroke="#000000" points="345.6744,-964.9691 334.8611,-963.1465 340.8372,-966.2345 336,-967.5 336,-967.5 336,-967.5 340.8372,-966.2345 337.1389,-971.8535 345.6744,-964.9691 345.6744,-964.9691"/>
<text text-anchor="start" x="343.33" y="-977.5" font-family="Arial" font-size="10.00" fill="#000000">FOREIGN KEY (user_id) REFERENCES res_users(id) ON DELETE CASCADE</text>
</g>
</g>
</svg>
