<?xml version="1.0" encoding="UTF-8" standalone="no"?>
<!DOCTYPE svg PUBLIC "-//W3C//DTD SVG 1.1//EN"
 "http://www.w3.org/Graphics/SVG/1.1/DTD/svg11.dtd">
<!-- Generated by graphviz version 2.40.1 (20161225.0304)
 -->
<!-- Title: public.account_analytic_tag_account_move_line_rel Pages: 1 -->
<svg width="1502pt" height="1582pt"
 viewBox="0.00 0.00 1502.00 1582.00" xmlns="http://www.w3.org/2000/svg" xmlns:xlink="http://www.w3.org/1999/xlink">
<g id="graph0" class="graph" transform="scale(1 1) rotate(0) translate(4 1578)">
<title>public.account_analytic_tag_account_move_line_rel</title>
<polygon fill="#ffffff" stroke="transparent" points="-4,4 -4,-1578 1498,-1578 1498,4 -4,4"/>
<!-- public.account_analytic_tag_account_move_line_rel -->
<g id="node1" class="node">
<title>public.account_analytic_tag_account_move_line_rel</title>
<polygon fill="#efefef" stroke="transparent" points="476,-1492.5 476,-1527.5 1003,-1527.5 1003,-1492.5 476,-1492.5"/>
<polygon fill="none" stroke="#000000" points="476,-1492.5 476,-1527.5 1003,-1527.5 1003,-1492.5 476,-1492.5"/>
<text text-anchor="start" x="482.812" y="-1505.3" font-family="Arial Bold" font-size="18.00" fill="#000000">public.account_analytic_tag_account_move_line_rel</text>
<text text-anchor="start" x="898.9342" y="-1505.3" font-family="Arial" font-size="14.00" fill="#000000"> </text>
<text text-anchor="start" x="902.8248" y="-1505.3" font-family="Arial" font-size="14.00" fill="#666666">[BASE TABLE]</text>
<polygon fill="none" stroke="#000000" points="476,-1462.5 476,-1492.5 1003,-1492.5 1003,-1462.5 476,-1462.5"/>
<text text-anchor="start" x="483" y="-1473.9" font-family="Arial" font-size="14.00" fill="#000000">account_move_line_id </text>
<text text-anchor="start" x="626.1528" y="-1473.9" font-family="Arial" font-size="14.00" fill="#666666">[integer]</text>
<polygon fill="none" stroke="#000000" points="476,-1432.5 476,-1462.5 1003,-1462.5 1003,-1432.5 476,-1432.5"/>
<text text-anchor="start" x="483" y="-1443.9" font-family="Arial" font-size="14.00" fill="#000000">account_analytic_tag_id </text>
<text text-anchor="start" x="637.056" y="-1443.9" font-family="Arial" font-size="14.00" fill="#666666">[integer]</text>
<polygon fill="none" stroke="#000000" stroke-width="3" points="474,-1431.5 474,-1529.5 1004,-1529.5 1004,-1431.5 474,-1431.5"/>
</g>
<!-- public.account_move_line -->
<g id="node2" class="node">
<title>public.account_move_line</title>
<polygon fill="#efefef" stroke="transparent" points="367,-1272.5 367,-1307.5 685,-1307.5 685,-1272.5 367,-1272.5"/>
<polygon fill="none" stroke="#000000" points="367,-1272.5 367,-1307.5 685,-1307.5 685,-1272.5 367,-1272.5"/>
<text text-anchor="start" x="373.8461" y="-1285.3" font-family="Arial Bold" font-size="18.00" fill="#000000">public.account_move_line</text>
<text text-anchor="start" x="580.9001" y="-1285.3" font-family="Arial" font-size="14.00" fill="#000000"> </text>
<text text-anchor="start" x="584.7907" y="-1285.3" font-family="Arial" font-size="14.00" fill="#666666">[BASE TABLE]</text>
<polygon fill="none" stroke="#000000" points="367,-1242.5 367,-1272.5 685,-1272.5 685,-1242.5 367,-1242.5"/>
<text text-anchor="start" x="374" y="-1253.9" font-family="Arial" font-size="14.00" fill="#000000">id </text>
<text text-anchor="start" x="388.7798" y="-1253.9" font-family="Arial" font-size="14.00" fill="#666666">[integer]</text>
<polygon fill="none" stroke="#000000" points="367,-1212.5 367,-1242.5 685,-1242.5 685,-1212.5 367,-1212.5"/>
<text text-anchor="start" x="374" y="-1223.9" font-family="Arial" font-size="14.00" fill="#000000">name </text>
<text text-anchor="start" x="412.899" y="-1223.9" font-family="Arial" font-size="14.00" fill="#666666">[varchar]</text>
<polygon fill="none" stroke="#000000" points="367,-1182.5 367,-1212.5 685,-1212.5 685,-1182.5 367,-1182.5"/>
<text text-anchor="start" x="374" y="-1193.9" font-family="Arial" font-size="14.00" fill="#000000">quantity </text>
<text text-anchor="start" x="426.9088" y="-1193.9" font-family="Arial" font-size="14.00" fill="#666666">[numeric]</text>
<polygon fill="none" stroke="#000000" points="367,-1152.5 367,-1182.5 685,-1182.5 685,-1152.5 367,-1152.5"/>
<text text-anchor="start" x="374" y="-1163.9" font-family="Arial" font-size="14.00" fill="#000000">product_uom_id </text>
<text text-anchor="start" x="478.2524" y="-1163.9" font-family="Arial" font-size="14.00" fill="#666666">[integer]</text>
<polygon fill="none" stroke="#000000" points="367,-1122.5 367,-1152.5 685,-1152.5 685,-1122.5 367,-1122.5"/>
<text text-anchor="start" x="374" y="-1133.9" font-family="Arial" font-size="14.00" fill="#000000">product_id </text>
<text text-anchor="start" x="443.244" y="-1133.9" font-family="Arial" font-size="14.00" fill="#666666">[integer]</text>
<polygon fill="none" stroke="#000000" points="367,-1092.5 367,-1122.5 685,-1122.5 685,-1092.5 367,-1092.5"/>
<text text-anchor="start" x="374" y="-1103.9" font-family="Arial" font-size="14.00" fill="#000000">debit </text>
<text text-anchor="start" x="408.2356" y="-1103.9" font-family="Arial" font-size="14.00" fill="#666666">[numeric]</text>
<polygon fill="none" stroke="#000000" points="367,-1062.5 367,-1092.5 685,-1092.5 685,-1062.5 367,-1062.5"/>
<text text-anchor="start" x="374" y="-1073.9" font-family="Arial" font-size="14.00" fill="#000000">credit </text>
<text text-anchor="start" x="412.1136" y="-1073.9" font-family="Arial" font-size="14.00" fill="#666666">[numeric]</text>
<polygon fill="none" stroke="#000000" points="367,-1032.5 367,-1062.5 685,-1062.5 685,-1032.5 367,-1032.5"/>
<text text-anchor="start" x="374" y="-1043.9" font-family="Arial" font-size="14.00" fill="#000000">balance </text>
<text text-anchor="start" x="426.9102" y="-1043.9" font-family="Arial" font-size="14.00" fill="#666666">[numeric]</text>
<polygon fill="none" stroke="#000000" points="367,-1002.5 367,-1032.5 685,-1032.5 685,-1002.5 367,-1002.5"/>
<text text-anchor="start" x="374" y="-1013.9" font-family="Arial" font-size="14.00" fill="#000000">debit_cash_basis </text>
<text text-anchor="start" x="486.0378" y="-1013.9" font-family="Arial" font-size="14.00" fill="#666666">[numeric]</text>
<polygon fill="none" stroke="#000000" points="367,-972.5 367,-1002.5 685,-1002.5 685,-972.5 367,-972.5"/>
<text text-anchor="start" x="374" y="-983.9" font-family="Arial" font-size="14.00" fill="#000000">credit_cash_basis </text>
<text text-anchor="start" x="489.9158" y="-983.9" font-family="Arial" font-size="14.00" fill="#666666">[numeric]</text>
<polygon fill="none" stroke="#000000" points="367,-942.5 367,-972.5 685,-972.5 685,-942.5 367,-942.5"/>
<text text-anchor="start" x="374" y="-953.9" font-family="Arial" font-size="14.00" fill="#000000">balance_cash_basis </text>
<text text-anchor="start" x="504.7124" y="-953.9" font-family="Arial" font-size="14.00" fill="#666666">[numeric]</text>
<polygon fill="none" stroke="#000000" points="367,-912.5 367,-942.5 685,-942.5 685,-912.5 367,-912.5"/>
<text text-anchor="start" x="374" y="-923.9" font-family="Arial" font-size="14.00" fill="#000000">amount_currency </text>
<text text-anchor="start" x="486.0238" y="-923.9" font-family="Arial" font-size="14.00" fill="#666666">[numeric]</text>
<polygon fill="none" stroke="#000000" points="367,-882.5 367,-912.5 685,-912.5 685,-882.5 367,-882.5"/>
<text text-anchor="start" x="374" y="-893.9" font-family="Arial" font-size="14.00" fill="#000000">company_currency_id </text>
<text text-anchor="start" x="514.805" y="-893.9" font-family="Arial" font-size="14.00" fill="#666666">[integer]</text>
<polygon fill="none" stroke="#000000" points="367,-852.5 367,-882.5 685,-882.5 685,-852.5 367,-852.5"/>
<text text-anchor="start" x="374" y="-863.9" font-family="Arial" font-size="14.00" fill="#000000">currency_id </text>
<text text-anchor="start" x="450.2314" y="-863.9" font-family="Arial" font-size="14.00" fill="#666666">[integer]</text>
<polygon fill="none" stroke="#000000" points="367,-822.5 367,-852.5 685,-852.5 685,-822.5 367,-822.5"/>
<text text-anchor="start" x="374" y="-833.9" font-family="Arial" font-size="14.00" fill="#000000">amount_residual </text>
<text text-anchor="start" x="481.359" y="-833.9" font-family="Arial" font-size="14.00" fill="#666666">[numeric]</text>
<polygon fill="none" stroke="#000000" points="367,-792.5 367,-822.5 685,-822.5 685,-792.5 367,-792.5"/>
<text text-anchor="start" x="374" y="-803.9" font-family="Arial" font-size="14.00" fill="#000000">amount_residual_currency </text>
<text text-anchor="start" x="542.8106" y="-803.9" font-family="Arial" font-size="14.00" fill="#666666">[numeric]</text>
<polygon fill="none" stroke="#000000" points="367,-762.5 367,-792.5 685,-792.5 685,-762.5 367,-762.5"/>
<text text-anchor="start" x="374" y="-773.9" font-family="Arial" font-size="14.00" fill="#000000">tax_base_amount </text>
<text text-anchor="start" x="489.1584" y="-773.9" font-family="Arial" font-size="14.00" fill="#666666">[numeric]</text>
<polygon fill="none" stroke="#000000" points="367,-732.5 367,-762.5 685,-762.5 685,-732.5 367,-732.5"/>
<text text-anchor="start" x="374" y="-743.9" font-family="Arial" font-size="14.00" fill="#000000">account_id </text>
<text text-anchor="start" x="445.5834" y="-743.9" font-family="Arial" font-size="14.00" fill="#666666">[integer]</text>
<polygon fill="none" stroke="#000000" points="367,-702.5 367,-732.5 685,-732.5 685,-702.5 367,-702.5"/>
<text text-anchor="start" x="374" y="-713.9" font-family="Arial" font-size="14.00" fill="#000000">move_id </text>
<text text-anchor="start" x="430.7882" y="-713.9" font-family="Arial" font-size="14.00" fill="#666666">[integer]</text>
<polygon fill="none" stroke="#000000" points="367,-672.5 367,-702.5 685,-702.5 685,-672.5 367,-672.5"/>
<text text-anchor="start" x="374" y="-683.9" font-family="Arial" font-size="14.00" fill="#000000">ref </text>
<text text-anchor="start" x="394.2244" y="-683.9" font-family="Arial" font-size="14.00" fill="#666666">[varchar]</text>
<polygon fill="none" stroke="#000000" points="367,-642.5 367,-672.5 685,-672.5 685,-642.5 367,-642.5"/>
<text text-anchor="start" x="374" y="-653.9" font-family="Arial" font-size="14.00" fill="#000000">payment_id </text>
<text text-anchor="start" x="450.244" y="-653.9" font-family="Arial" font-size="14.00" fill="#666666">[integer]</text>
<polygon fill="none" stroke="#000000" points="367,-612.5 367,-642.5 685,-642.5 685,-612.5 367,-612.5"/>
<text text-anchor="start" x="374" y="-623.9" font-family="Arial" font-size="14.00" fill="#000000">statement_line_id </text>
<text text-anchor="start" x="487.5862" y="-623.9" font-family="Arial" font-size="14.00" fill="#666666">[integer]</text>
<polygon fill="none" stroke="#000000" points="367,-582.5 367,-612.5 685,-612.5 685,-582.5 367,-582.5"/>
<text text-anchor="start" x="374" y="-593.9" font-family="Arial" font-size="14.00" fill="#000000">statement_id </text>
<text text-anchor="start" x="458.0252" y="-593.9" font-family="Arial" font-size="14.00" fill="#666666">[integer]</text>
<polygon fill="none" stroke="#000000" points="367,-552.5 367,-582.5 685,-582.5 685,-552.5 367,-552.5"/>
<text text-anchor="start" x="374" y="-563.9" font-family="Arial" font-size="14.00" fill="#000000">reconciled </text>
<text text-anchor="start" x="441.6774" y="-563.9" font-family="Arial" font-size="14.00" fill="#666666">[boolean]</text>
<polygon fill="none" stroke="#000000" points="367,-522.5 367,-552.5 685,-552.5 685,-522.5 367,-522.5"/>
<text text-anchor="start" x="374" y="-533.9" font-family="Arial" font-size="14.00" fill="#000000">full_reconcile_id </text>
<text text-anchor="start" x="478.2356" y="-533.9" font-family="Arial" font-size="14.00" fill="#666666">[integer]</text>
<polygon fill="none" stroke="#000000" points="367,-492.5 367,-522.5 685,-522.5 685,-492.5 367,-492.5"/>
<text text-anchor="start" x="374" y="-503.9" font-family="Arial" font-size="14.00" fill="#000000">journal_id </text>
<text text-anchor="start" x="438.5666" y="-503.9" font-family="Arial" font-size="14.00" fill="#666666">[integer]</text>
<polygon fill="none" stroke="#000000" points="367,-462.5 367,-492.5 685,-492.5 685,-462.5 367,-462.5"/>
<text text-anchor="start" x="374" y="-473.9" font-family="Arial" font-size="14.00" fill="#000000">blocked </text>
<text text-anchor="start" x="426.1276" y="-473.9" font-family="Arial" font-size="14.00" fill="#666666">[boolean]</text>
<polygon fill="none" stroke="#000000" points="367,-432.5 367,-462.5 685,-462.5 685,-432.5 367,-432.5"/>
<text text-anchor="start" x="374" y="-443.9" font-family="Arial" font-size="14.00" fill="#000000">date_maturity </text>
<text text-anchor="start" x="462.6858" y="-443.9" font-family="Arial" font-size="14.00" fill="#666666">[date]</text>
<polygon fill="none" stroke="#000000" points="367,-402.5 367,-432.5 685,-432.5 685,-402.5 367,-402.5"/>
<text text-anchor="start" x="374" y="-413.9" font-family="Arial" font-size="14.00" fill="#000000">date </text>
<text text-anchor="start" x="405.129" y="-413.9" font-family="Arial" font-size="14.00" fill="#666666">[date]</text>
<polygon fill="none" stroke="#000000" points="367,-372.5 367,-402.5 685,-402.5 685,-372.5 367,-372.5"/>
<text text-anchor="start" x="374" y="-383.9" font-family="Arial" font-size="14.00" fill="#000000">tax_line_id </text>
<text text-anchor="start" x="444.7966" y="-383.9" font-family="Arial" font-size="14.00" fill="#666666">[integer]</text>
<polygon fill="none" stroke="#000000" points="367,-342.5 367,-372.5 685,-372.5 685,-342.5 367,-342.5"/>
<text text-anchor="start" x="374" y="-353.9" font-family="Arial" font-size="14.00" fill="#000000">analytic_account_id </text>
<text text-anchor="start" x="500.8176" y="-353.9" font-family="Arial" font-size="14.00" fill="#666666">[integer]</text>
<polygon fill="none" stroke="#000000" points="367,-312.5 367,-342.5 685,-342.5 685,-312.5 367,-312.5"/>
<text text-anchor="start" x="374" y="-323.9" font-family="Arial" font-size="14.00" fill="#000000">company_id </text>
<text text-anchor="start" x="453.3534" y="-323.9" font-family="Arial" font-size="14.00" fill="#666666">[integer]</text>
<polygon fill="none" stroke="#000000" points="367,-282.5 367,-312.5 685,-312.5 685,-282.5 367,-282.5"/>
<text text-anchor="start" x="374" y="-293.9" font-family="Arial" font-size="14.00" fill="#000000">invoice_id </text>
<text text-anchor="start" x="440.1234" y="-293.9" font-family="Arial" font-size="14.00" fill="#666666">[integer]</text>
<polygon fill="none" stroke="#000000" points="367,-252.5 367,-282.5 685,-282.5 685,-252.5 367,-252.5"/>
<text text-anchor="start" x="374" y="-263.9" font-family="Arial" font-size="14.00" fill="#000000">partner_id </text>
<text text-anchor="start" x="440.9046" y="-263.9" font-family="Arial" font-size="14.00" fill="#666666">[integer]</text>
<polygon fill="none" stroke="#000000" points="367,-222.5 367,-252.5 685,-252.5 685,-222.5 367,-222.5"/>
<text text-anchor="start" x="374" y="-233.9" font-family="Arial" font-size="14.00" fill="#000000">user_type_id </text>
<text text-anchor="start" x="458.0266" y="-233.9" font-family="Arial" font-size="14.00" fill="#666666">[integer]</text>
<polygon fill="none" stroke="#000000" points="367,-192.5 367,-222.5 685,-222.5 685,-192.5 367,-192.5"/>
<text text-anchor="start" x="374" y="-203.9" font-family="Arial" font-size="14.00" fill="#000000">tax_exigible </text>
<text text-anchor="start" x="451.7966" y="-203.9" font-family="Arial" font-size="14.00" fill="#666666">[boolean]</text>
<polygon fill="none" stroke="#000000" points="367,-162.5 367,-192.5 685,-192.5 685,-162.5 367,-162.5"/>
<text text-anchor="start" x="374" y="-173.9" font-family="Arial" font-size="14.00" fill="#000000">create_uid </text>
<text text-anchor="start" x="443.244" y="-173.9" font-family="Arial" font-size="14.00" fill="#666666">[integer]</text>
<polygon fill="none" stroke="#000000" points="367,-132.5 367,-162.5 685,-162.5 685,-132.5 367,-132.5"/>
<text text-anchor="start" x="374" y="-143.9" font-family="Arial" font-size="14.00" fill="#000000">create_date </text>
<text text-anchor="start" x="451.8106" y="-143.9" font-family="Arial" font-size="14.00" fill="#666666">[timestamp without time zone]</text>
<polygon fill="none" stroke="#000000" points="367,-102.5 367,-132.5 685,-132.5 685,-102.5 367,-102.5"/>
<text text-anchor="start" x="374" y="-113.9" font-family="Arial" font-size="14.00" fill="#000000">write_uid </text>
<text text-anchor="start" x="433.892" y="-113.9" font-family="Arial" font-size="14.00" fill="#666666">[integer]</text>
<polygon fill="none" stroke="#000000" points="367,-72.5 367,-102.5 685,-102.5 685,-72.5 367,-72.5"/>
<text text-anchor="start" x="374" y="-83.9" font-family="Arial" font-size="14.00" fill="#000000">write_date </text>
<text text-anchor="start" x="442.4586" y="-83.9" font-family="Arial" font-size="14.00" fill="#666666">[timestamp without time zone]</text>
<polygon fill="none" stroke="#000000" points="367,-42.5 367,-72.5 685,-72.5 685,-42.5 367,-42.5"/>
<text text-anchor="start" x="374" y="-53.9" font-family="Arial" font-size="14.00" fill="#000000">expense_id </text>
<text text-anchor="start" x="449.4754" y="-53.9" font-family="Arial" font-size="14.00" fill="#666666">[integer]</text>
</g>
<!-- public.account_analytic_tag_account_move_line_rel&#45;&gt;public.account_move_line -->
<g id="edge1" class="edge">
<title>public.account_analytic_tag_account_move_line_rel:account_move_line_id&#45;&gt;public.account_move_line:id</title>
<path fill="none" stroke="#000000" d="M466.0899,-1475.9979C438.5624,-1466.5536 452.5143,-1414.877 476,-1387 536.7299,-1314.9151 624.2701,-1423.0849 685,-1351 711.7743,-1319.2195 726.5556,-1257.5 685,-1257.5"/>
<polygon fill="#000000" stroke="#000000" points="466.1129,-1476.0013 475.3256,-1481.9492 471.0565,-1476.7507 476,-1477.5 476,-1477.5 476,-1477.5 471.0565,-1476.7507 476.6744,-1473.0508 466.1129,-1476.0013 466.1129,-1476.0013"/>
<text text-anchor="start" x="6.8645" y="-1487.5" font-family="Arial" font-size="10.00" fill="#000000">FOREIGN KEY (account_move_line_id) REFERENCES account_move_line(id) ON DELETE CASCADE</text>
</g>
<!-- public.account_analytic_tag -->
<g id="node3" class="node">
<title>public.account_analytic_tag</title>
<polygon fill="#efefef" stroke="transparent" points="789,-807.5 789,-842.5 1121,-842.5 1121,-807.5 789,-807.5"/>
<polygon fill="none" stroke="#000000" points="789,-807.5 789,-842.5 1121,-842.5 1121,-807.5 789,-807.5"/>
<text text-anchor="start" x="795.8369" y="-820.3" font-family="Arial Bold" font-size="18.00" fill="#000000">public.account_analytic_tag</text>
<text text-anchor="start" x="1016.9093" y="-820.3" font-family="Arial" font-size="14.00" fill="#000000"> </text>
<text text-anchor="start" x="1020.7999" y="-820.3" font-family="Arial" font-size="14.00" fill="#666666">[BASE TABLE]</text>
<polygon fill="none" stroke="#000000" points="789,-777.5 789,-807.5 1121,-807.5 1121,-777.5 789,-777.5"/>
<text text-anchor="start" x="796" y="-788.9" font-family="Arial" font-size="14.00" fill="#000000">id </text>
<text text-anchor="start" x="810.7798" y="-788.9" font-family="Arial" font-size="14.00" fill="#666666">[integer]</text>
<polygon fill="none" stroke="#000000" points="789,-747.5 789,-777.5 1121,-777.5 1121,-747.5 789,-747.5"/>
<text text-anchor="start" x="796" y="-758.9" font-family="Arial" font-size="14.00" fill="#000000">name </text>
<text text-anchor="start" x="834.899" y="-758.9" font-family="Arial" font-size="14.00" fill="#666666">[varchar]</text>
<polygon fill="none" stroke="#000000" points="789,-717.5 789,-747.5 1121,-747.5 1121,-717.5 789,-717.5"/>
<text text-anchor="start" x="796" y="-728.9" font-family="Arial" font-size="14.00" fill="#000000">color </text>
<text text-anchor="start" x="830.223" y="-728.9" font-family="Arial" font-size="14.00" fill="#666666">[integer]</text>
<polygon fill="none" stroke="#000000" points="789,-687.5 789,-717.5 1121,-717.5 1121,-687.5 789,-687.5"/>
<text text-anchor="start" x="796" y="-698.9" font-family="Arial" font-size="14.00" fill="#000000">active </text>
<text text-anchor="start" x="836.453" y="-698.9" font-family="Arial" font-size="14.00" fill="#666666">[boolean]</text>
<polygon fill="none" stroke="#000000" points="789,-657.5 789,-687.5 1121,-687.5 1121,-657.5 789,-657.5"/>
<text text-anchor="start" x="796" y="-668.9" font-family="Arial" font-size="14.00" fill="#000000">active_analytic_distribution </text>
<text text-anchor="start" x="967.1444" y="-668.9" font-family="Arial" font-size="14.00" fill="#666666">[boolean]</text>
<polygon fill="none" stroke="#000000" points="789,-627.5 789,-657.5 1121,-657.5 1121,-627.5 789,-627.5"/>
<text text-anchor="start" x="796" y="-638.9" font-family="Arial" font-size="14.00" fill="#000000">company_id </text>
<text text-anchor="start" x="875.3534" y="-638.9" font-family="Arial" font-size="14.00" fill="#666666">[integer]</text>
<polygon fill="none" stroke="#000000" points="789,-597.5 789,-627.5 1121,-627.5 1121,-597.5 789,-597.5"/>
<text text-anchor="start" x="796" y="-608.9" font-family="Arial" font-size="14.00" fill="#000000">create_uid </text>
<text text-anchor="start" x="865.244" y="-608.9" font-family="Arial" font-size="14.00" fill="#666666">[integer]</text>
<polygon fill="none" stroke="#000000" points="789,-567.5 789,-597.5 1121,-597.5 1121,-567.5 789,-567.5"/>
<text text-anchor="start" x="796" y="-578.9" font-family="Arial" font-size="14.00" fill="#000000">create_date </text>
<text text-anchor="start" x="873.8106" y="-578.9" font-family="Arial" font-size="14.00" fill="#666666">[timestamp without time zone]</text>
<polygon fill="none" stroke="#000000" points="789,-537.5 789,-567.5 1121,-567.5 1121,-537.5 789,-537.5"/>
<text text-anchor="start" x="796" y="-548.9" font-family="Arial" font-size="14.00" fill="#000000">write_uid </text>
<text text-anchor="start" x="855.892" y="-548.9" font-family="Arial" font-size="14.00" fill="#666666">[integer]</text>
<polygon fill="none" stroke="#000000" points="789,-507.5 789,-537.5 1121,-537.5 1121,-507.5 789,-507.5"/>
<text text-anchor="start" x="796" y="-518.9" font-family="Arial" font-size="14.00" fill="#000000">write_date </text>
<text text-anchor="start" x="864.4586" y="-518.9" font-family="Arial" font-size="14.00" fill="#666666">[timestamp without time zone]</text>
</g>
<!-- public.account_analytic_tag_account_move_line_rel&#45;&gt;public.account_analytic_tag -->
<g id="edge2" class="edge">
<title>public.account_analytic_tag_account_move_line_rel:account_analytic_tag_id&#45;&gt;public.account_analytic_tag:id</title>
<path fill="none" stroke="#000000" d="M1013.0309,-1446.3478C1131.1256,-1415.908 639.6112,-792.5 789,-792.5"/>
<polygon fill="#000000" stroke="#000000" points="1012.9347,-1446.3588 1002.4865,-1443.0294 1007.9673,-1446.9294 1003,-1447.5 1003,-1447.5 1003,-1447.5 1007.9673,-1446.9294 1003.5135,-1451.9706 1012.9347,-1446.3588 1012.9347,-1446.3588"/>
<text text-anchor="start" x="1010.0765" y="-1457.5" font-family="Arial" font-size="10.00" fill="#000000">FOREIGN KEY (account_analytic_tag_id) REFERENCES account_analytic_tag(id) ON DELETE CASCADE</text>
</g>
</g>
</svg>
