<?xml version="1.0" encoding="UTF-8" standalone="no"?>
<!DOCTYPE svg PUBLIC "-//W3C//DTD SVG 1.1//EN"
 "http://www.w3.org/Graphics/SVG/1.1/DTD/svg11.dtd">
<!-- Generated by graphviz version 2.40.1 (20161225.0304)
 -->
<!-- Title: public.account_bank_statement_import_journal_creation Pages: 1 -->
<svg width="1354pt" height="1402pt"
 viewBox="0.00 0.00 1354.00 1402.00" xmlns="http://www.w3.org/2000/svg" xmlns:xlink="http://www.w3.org/1999/xlink">
<g id="graph0" class="graph" transform="scale(1 1) rotate(0) translate(4 1398)">
<title>public.account_bank_statement_import_journal_creation</title>
<polygon fill="#ffffff" stroke="transparent" points="-4,4 -4,-1398 1350,-1398 1350,4 -4,4"/>
<!-- public.account_bank_statement_import_journal_creation -->
<g id="node1" class="node">
<title>public.account_bank_statement_import_journal_creation</title>
<polygon fill="#efefef" stroke="transparent" points="404,-1312.5 404,-1347.5 966,-1347.5 966,-1312.5 404,-1312.5"/>
<polygon fill="none" stroke="#000000" points="404,-1312.5 404,-1347.5 966,-1347.5 966,-1312.5 404,-1312.5"/>
<text text-anchor="start" x="410.8124" y="-1325.3" font-family="Arial Bold" font-size="18.00" fill="#000000">public.account_bank_statement_import_journal_creation</text>
<text text-anchor="start" x="861.9338" y="-1325.3" font-family="Arial" font-size="14.00" fill="#000000"> </text>
<text text-anchor="start" x="865.8244" y="-1325.3" font-family="Arial" font-size="14.00" fill="#666666">[BASE TABLE]</text>
<polygon fill="none" stroke="#000000" points="404,-1282.5 404,-1312.5 966,-1312.5 966,-1282.5 404,-1282.5"/>
<text text-anchor="start" x="411" y="-1293.9" font-family="Arial" font-size="14.00" fill="#000000">id </text>
<text text-anchor="start" x="425.7798" y="-1293.9" font-family="Arial" font-size="14.00" fill="#666666">[integer]</text>
<polygon fill="none" stroke="#000000" points="404,-1252.5 404,-1282.5 966,-1282.5 966,-1252.5 404,-1252.5"/>
<text text-anchor="start" x="411" y="-1263.9" font-family="Arial" font-size="14.00" fill="#000000">journal_id </text>
<text text-anchor="start" x="475.5666" y="-1263.9" font-family="Arial" font-size="14.00" fill="#666666">[integer]</text>
<polygon fill="none" stroke="#000000" points="404,-1222.5 404,-1252.5 966,-1252.5 966,-1222.5 404,-1222.5"/>
<text text-anchor="start" x="411" y="-1233.9" font-family="Arial" font-size="14.00" fill="#000000">create_uid </text>
<text text-anchor="start" x="480.244" y="-1233.9" font-family="Arial" font-size="14.00" fill="#666666">[integer]</text>
<polygon fill="none" stroke="#000000" points="404,-1192.5 404,-1222.5 966,-1222.5 966,-1192.5 404,-1192.5"/>
<text text-anchor="start" x="411" y="-1203.9" font-family="Arial" font-size="14.00" fill="#000000">create_date </text>
<text text-anchor="start" x="488.8106" y="-1203.9" font-family="Arial" font-size="14.00" fill="#666666">[timestamp without time zone]</text>
<polygon fill="none" stroke="#000000" points="404,-1162.5 404,-1192.5 966,-1192.5 966,-1162.5 404,-1162.5"/>
<text text-anchor="start" x="411" y="-1173.9" font-family="Arial" font-size="14.00" fill="#000000">write_uid </text>
<text text-anchor="start" x="470.892" y="-1173.9" font-family="Arial" font-size="14.00" fill="#666666">[integer]</text>
<polygon fill="none" stroke="#000000" points="404,-1132.5 404,-1162.5 966,-1162.5 966,-1132.5 404,-1132.5"/>
<text text-anchor="start" x="411" y="-1143.9" font-family="Arial" font-size="14.00" fill="#000000">write_date </text>
<text text-anchor="start" x="479.4586" y="-1143.9" font-family="Arial" font-size="14.00" fill="#666666">[timestamp without time zone]</text>
<polygon fill="none" stroke="#000000" stroke-width="3" points="402.5,-1131.5 402.5,-1349.5 967.5,-1349.5 967.5,-1131.5 402.5,-1131.5"/>
</g>
<!-- public.account_journal -->
<g id="node2" class="node">
<title>public.account_journal</title>
<polygon fill="#efefef" stroke="transparent" points="153,-972.5 153,-1007.5 443,-1007.5 443,-972.5 153,-972.5"/>
<polygon fill="none" stroke="#000000" points="153,-972.5 153,-1007.5 443,-1007.5 443,-972.5 153,-972.5"/>
<text text-anchor="start" x="159.8492" y="-985.3" font-family="Arial Bold" font-size="18.00" fill="#000000">public.account_journal</text>
<text text-anchor="start" x="338.897" y="-985.3" font-family="Arial" font-size="14.00" fill="#000000"> </text>
<text text-anchor="start" x="342.7876" y="-985.3" font-family="Arial" font-size="14.00" fill="#666666">[BASE TABLE]</text>
<polygon fill="none" stroke="#000000" points="153,-942.5 153,-972.5 443,-972.5 443,-942.5 153,-942.5"/>
<text text-anchor="start" x="160" y="-953.9" font-family="Arial" font-size="14.00" fill="#000000">id </text>
<text text-anchor="start" x="174.7798" y="-953.9" font-family="Arial" font-size="14.00" fill="#666666">[integer]</text>
<polygon fill="none" stroke="#000000" points="153,-912.5 153,-942.5 443,-942.5 443,-912.5 153,-912.5"/>
<text text-anchor="start" x="160" y="-923.9" font-family="Arial" font-size="14.00" fill="#000000">name </text>
<text text-anchor="start" x="198.899" y="-923.9" font-family="Arial" font-size="14.00" fill="#666666">[varchar]</text>
<polygon fill="none" stroke="#000000" points="153,-882.5 153,-912.5 443,-912.5 443,-882.5 153,-882.5"/>
<text text-anchor="start" x="160" y="-893.9" font-family="Arial" font-size="14.00" fill="#000000">code </text>
<text text-anchor="start" x="194.2384" y="-893.9" font-family="Arial" font-size="14.00" fill="#666666">[varchar(5)]</text>
<polygon fill="none" stroke="#000000" points="153,-852.5 153,-882.5 443,-882.5 443,-852.5 153,-852.5"/>
<text text-anchor="start" x="160" y="-863.9" font-family="Arial" font-size="14.00" fill="#000000">active </text>
<text text-anchor="start" x="200.453" y="-863.9" font-family="Arial" font-size="14.00" fill="#666666">[boolean]</text>
<polygon fill="none" stroke="#000000" points="153,-822.5 153,-852.5 443,-852.5 443,-822.5 153,-822.5"/>
<text text-anchor="start" x="160" y="-833.9" font-family="Arial" font-size="14.00" fill="#000000">type </text>
<text text-anchor="start" x="190.3464" y="-833.9" font-family="Arial" font-size="14.00" fill="#666666">[varchar]</text>
<polygon fill="none" stroke="#000000" points="153,-792.5 153,-822.5 443,-822.5 443,-792.5 153,-792.5"/>
<text text-anchor="start" x="160" y="-803.9" font-family="Arial" font-size="14.00" fill="#000000">default_credit_account_id </text>
<text text-anchor="start" x="323.3898" y="-803.9" font-family="Arial" font-size="14.00" fill="#666666">[integer]</text>
<polygon fill="none" stroke="#000000" points="153,-762.5 153,-792.5 443,-792.5 443,-762.5 153,-762.5"/>
<text text-anchor="start" x="160" y="-773.9" font-family="Arial" font-size="14.00" fill="#000000">default_debit_account_id </text>
<text text-anchor="start" x="319.5118" y="-773.9" font-family="Arial" font-size="14.00" fill="#666666">[integer]</text>
<polygon fill="none" stroke="#000000" points="153,-732.5 153,-762.5 443,-762.5 443,-732.5 153,-732.5"/>
<text text-anchor="start" x="160" y="-743.9" font-family="Arial" font-size="14.00" fill="#000000">update_posted </text>
<text text-anchor="start" x="256.4978" y="-743.9" font-family="Arial" font-size="14.00" fill="#666666">[boolean]</text>
<polygon fill="none" stroke="#000000" points="153,-702.5 153,-732.5 443,-732.5 443,-702.5 153,-702.5"/>
<text text-anchor="start" x="160" y="-713.9" font-family="Arial" font-size="14.00" fill="#000000">group_invoice_lines </text>
<text text-anchor="start" x="287.5862" y="-713.9" font-family="Arial" font-size="14.00" fill="#666666">[boolean]</text>
<polygon fill="none" stroke="#000000" points="153,-672.5 153,-702.5 443,-702.5 443,-672.5 153,-672.5"/>
<text text-anchor="start" x="160" y="-683.9" font-family="Arial" font-size="14.00" fill="#000000">sequence_id </text>
<text text-anchor="start" x="243.258" y="-683.9" font-family="Arial" font-size="14.00" fill="#666666">[integer]</text>
<polygon fill="none" stroke="#000000" points="153,-642.5 153,-672.5 443,-672.5 443,-642.5 153,-642.5"/>
<text text-anchor="start" x="160" y="-653.9" font-family="Arial" font-size="14.00" fill="#000000">refund_sequence_id </text>
<text text-anchor="start" x="290.7222" y="-653.9" font-family="Arial" font-size="14.00" fill="#666666">[integer]</text>
<polygon fill="none" stroke="#000000" points="153,-612.5 153,-642.5 443,-642.5 443,-612.5 153,-612.5"/>
<text text-anchor="start" x="160" y="-623.9" font-family="Arial" font-size="14.00" fill="#000000">sequence </text>
<text text-anchor="start" x="224.5862" y="-623.9" font-family="Arial" font-size="14.00" fill="#666666">[integer]</text>
<polygon fill="none" stroke="#000000" points="153,-582.5 153,-612.5 443,-612.5 443,-582.5 153,-582.5"/>
<text text-anchor="start" x="160" y="-593.9" font-family="Arial" font-size="14.00" fill="#000000">currency_id </text>
<text text-anchor="start" x="236.2314" y="-593.9" font-family="Arial" font-size="14.00" fill="#666666">[integer]</text>
<polygon fill="none" stroke="#000000" points="153,-552.5 153,-582.5 443,-582.5 443,-552.5 153,-552.5"/>
<text text-anchor="start" x="160" y="-563.9" font-family="Arial" font-size="14.00" fill="#000000">company_id </text>
<text text-anchor="start" x="239.3534" y="-563.9" font-family="Arial" font-size="14.00" fill="#666666">[integer]</text>
<polygon fill="none" stroke="#000000" points="153,-522.5 153,-552.5 443,-552.5 443,-522.5 153,-522.5"/>
<text text-anchor="start" x="160" y="-533.9" font-family="Arial" font-size="14.00" fill="#000000">refund_sequence </text>
<text text-anchor="start" x="272.0504" y="-533.9" font-family="Arial" font-size="14.00" fill="#666666">[boolean]</text>
<polygon fill="none" stroke="#000000" points="153,-492.5 153,-522.5 443,-522.5 443,-492.5 153,-492.5"/>
<text text-anchor="start" x="160" y="-503.9" font-family="Arial" font-size="14.00" fill="#000000">at_least_one_inbound </text>
<text text-anchor="start" x="301.624" y="-503.9" font-family="Arial" font-size="14.00" fill="#666666">[boolean]</text>
<polygon fill="none" stroke="#000000" points="153,-462.5 153,-492.5 443,-492.5 443,-462.5 153,-462.5"/>
<text text-anchor="start" x="160" y="-473.9" font-family="Arial" font-size="14.00" fill="#000000">at_least_one_outbound </text>
<text text-anchor="start" x="310.1906" y="-473.9" font-family="Arial" font-size="14.00" fill="#666666">[boolean]</text>
<polygon fill="none" stroke="#000000" points="153,-432.5 153,-462.5 443,-462.5 443,-432.5 153,-432.5"/>
<text text-anchor="start" x="160" y="-443.9" font-family="Arial" font-size="14.00" fill="#000000">profit_account_id </text>
<text text-anchor="start" x="270.4796" y="-443.9" font-family="Arial" font-size="14.00" fill="#666666">[integer]</text>
<polygon fill="none" stroke="#000000" points="153,-402.5 153,-432.5 443,-432.5 443,-402.5 153,-402.5"/>
<text text-anchor="start" x="160" y="-413.9" font-family="Arial" font-size="14.00" fill="#000000">loss_account_id </text>
<text text-anchor="start" x="264.2552" y="-413.9" font-family="Arial" font-size="14.00" fill="#666666">[integer]</text>
<polygon fill="none" stroke="#000000" points="153,-372.5 153,-402.5 443,-402.5 443,-372.5 153,-372.5"/>
<text text-anchor="start" x="160" y="-383.9" font-family="Arial" font-size="14.00" fill="#000000">bank_account_id </text>
<text text-anchor="start" x="269.7138" y="-383.9" font-family="Arial" font-size="14.00" fill="#666666">[integer]</text>
<polygon fill="none" stroke="#000000" points="153,-342.5 153,-372.5 443,-372.5 443,-342.5 153,-342.5"/>
<text text-anchor="start" x="160" y="-353.9" font-family="Arial" font-size="14.00" fill="#000000">bank_statements_source </text>
<text text-anchor="start" x="320.2748" y="-353.9" font-family="Arial" font-size="14.00" fill="#666666">[varchar]</text>
<polygon fill="none" stroke="#000000" points="153,-312.5 153,-342.5 443,-342.5 443,-312.5 153,-312.5"/>
<text text-anchor="start" x="160" y="-323.9" font-family="Arial" font-size="14.00" fill="#000000">post_at_bank_rec </text>
<text text-anchor="start" x="275.1584" y="-323.9" font-family="Arial" font-size="14.00" fill="#666666">[boolean]</text>
<polygon fill="none" stroke="#000000" points="153,-282.5 153,-312.5 443,-312.5 443,-282.5 153,-282.5"/>
<text text-anchor="start" x="160" y="-293.9" font-family="Arial" font-size="14.00" fill="#000000">alias_id </text>
<text text-anchor="start" x="211.3408" y="-293.9" font-family="Arial" font-size="14.00" fill="#666666">[integer]</text>
<polygon fill="none" stroke="#000000" points="153,-252.5 153,-282.5 443,-282.5 443,-252.5 153,-252.5"/>
<text text-anchor="start" x="160" y="-263.9" font-family="Arial" font-size="14.00" fill="#000000">show_on_dashboard </text>
<text text-anchor="start" x="293.8316" y="-263.9" font-family="Arial" font-size="14.00" fill="#666666">[boolean]</text>
<polygon fill="none" stroke="#000000" points="153,-222.5 153,-252.5 443,-252.5 443,-222.5 153,-222.5"/>
<text text-anchor="start" x="160" y="-233.9" font-family="Arial" font-size="14.00" fill="#000000">color </text>
<text text-anchor="start" x="194.223" y="-233.9" font-family="Arial" font-size="14.00" fill="#666666">[integer]</text>
<polygon fill="none" stroke="#000000" points="153,-192.5 153,-222.5 443,-222.5 443,-192.5 153,-192.5"/>
<text text-anchor="start" x="160" y="-203.9" font-family="Arial" font-size="14.00" fill="#000000">create_uid </text>
<text text-anchor="start" x="229.244" y="-203.9" font-family="Arial" font-size="14.00" fill="#666666">[integer]</text>
<polygon fill="none" stroke="#000000" points="153,-162.5 153,-192.5 443,-192.5 443,-162.5 153,-162.5"/>
<text text-anchor="start" x="160" y="-173.9" font-family="Arial" font-size="14.00" fill="#000000">create_date </text>
<text text-anchor="start" x="237.8106" y="-173.9" font-family="Arial" font-size="14.00" fill="#666666">[timestamp without time zone]</text>
<polygon fill="none" stroke="#000000" points="153,-132.5 153,-162.5 443,-162.5 443,-132.5 153,-132.5"/>
<text text-anchor="start" x="160" y="-143.9" font-family="Arial" font-size="14.00" fill="#000000">write_uid </text>
<text text-anchor="start" x="219.892" y="-143.9" font-family="Arial" font-size="14.00" fill="#666666">[integer]</text>
<polygon fill="none" stroke="#000000" points="153,-102.5 153,-132.5 443,-132.5 443,-102.5 153,-102.5"/>
<text text-anchor="start" x="160" y="-113.9" font-family="Arial" font-size="14.00" fill="#000000">write_date </text>
<text text-anchor="start" x="228.4586" y="-113.9" font-family="Arial" font-size="14.00" fill="#666666">[timestamp without time zone]</text>
<polygon fill="none" stroke="#000000" points="153,-72.5 153,-102.5 443,-102.5 443,-72.5 153,-72.5"/>
<text text-anchor="start" x="160" y="-83.9" font-family="Arial" font-size="14.00" fill="#000000">journal_user </text>
<text text-anchor="start" x="240.9032" y="-83.9" font-family="Arial" font-size="14.00" fill="#666666">[boolean]</text>
<polygon fill="none" stroke="#000000" points="153,-42.5 153,-72.5 443,-72.5 443,-42.5 153,-42.5"/>
<text text-anchor="start" x="160" y="-53.9" font-family="Arial" font-size="14.00" fill="#000000">amount_authorized_diff </text>
<text text-anchor="start" x="310.1612" y="-53.9" font-family="Arial" font-size="14.00" fill="#666666">[double precision]</text>
</g>
<!-- public.account_bank_statement_import_journal_creation&#45;&gt;public.account_journal -->
<g id="edge1" class="edge">
<title>public.account_bank_statement_import_journal_creation:journal_id&#45;&gt;public.account_journal:id</title>
<path fill="none" stroke="#000000" d="M393.9523,-1266.8649C328.0625,-1257.9532 373.2704,-1157.1861 404,-1087 413.461,-1065.3913 433.539,-1072.6087 443,-1051 459.6668,-1012.9332 484.5556,-957.5 443,-957.5"/>
<polygon fill="#000000" stroke="#000000" points="394.0199,-1266.8691 403.7161,-1271.991 399.01,-1267.1845 404,-1267.5 404,-1267.5 404,-1267.5 399.01,-1267.1845 404.2839,-1263.009 394.0199,-1266.8691 394.0199,-1266.8691"/>
<text text-anchor="start" x="6.7105" y="-1277.5" font-family="Arial" font-size="10.00" fill="#000000">FOREIGN KEY (journal_id) REFERENCES account_journal(id) ON DELETE CASCADE</text>
</g>
<!-- public.res_users -->
<g id="node3" class="node">
<title>public.res_users</title>
<polygon fill="#efefef" stroke="transparent" points="547,-837.5 547,-872.5 823,-872.5 823,-837.5 547,-837.5"/>
<polygon fill="none" stroke="#000000" points="547,-837.5 547,-872.5 823,-872.5 823,-837.5 547,-837.5"/>
<text text-anchor="start" x="570.8639" y="-850.3" font-family="Arial Bold" font-size="18.00" fill="#000000">public.res_users</text>
<text text-anchor="start" x="701.8823" y="-850.3" font-family="Arial" font-size="14.00" fill="#000000"> </text>
<text text-anchor="start" x="705.7729" y="-850.3" font-family="Arial" font-size="14.00" fill="#666666">[BASE TABLE]</text>
<polygon fill="none" stroke="#000000" points="547,-807.5 547,-837.5 823,-837.5 823,-807.5 547,-807.5"/>
<text text-anchor="start" x="554" y="-818.9" font-family="Arial" font-size="14.00" fill="#000000">id </text>
<text text-anchor="start" x="568.7798" y="-818.9" font-family="Arial" font-size="14.00" fill="#666666">[integer]</text>
<polygon fill="none" stroke="#000000" points="547,-777.5 547,-807.5 823,-807.5 823,-777.5 547,-777.5"/>
<text text-anchor="start" x="554" y="-788.9" font-family="Arial" font-size="14.00" fill="#000000">active </text>
<text text-anchor="start" x="594.453" y="-788.9" font-family="Arial" font-size="14.00" fill="#666666">[boolean]</text>
<polygon fill="none" stroke="#000000" points="547,-747.5 547,-777.5 823,-777.5 823,-747.5 547,-747.5"/>
<text text-anchor="start" x="554" y="-758.9" font-family="Arial" font-size="14.00" fill="#000000">login </text>
<text text-anchor="start" x="587.4516" y="-758.9" font-family="Arial" font-size="14.00" fill="#666666">[varchar]</text>
<polygon fill="none" stroke="#000000" points="547,-717.5 547,-747.5 823,-747.5 823,-717.5 547,-717.5"/>
<text text-anchor="start" x="554" y="-728.9" font-family="Arial" font-size="14.00" fill="#000000">password </text>
<text text-anchor="start" x="617.7882" y="-728.9" font-family="Arial" font-size="14.00" fill="#666666">[varchar]</text>
<polygon fill="none" stroke="#000000" points="547,-687.5 547,-717.5 823,-717.5 823,-687.5 547,-687.5"/>
<text text-anchor="start" x="554" y="-698.9" font-family="Arial" font-size="14.00" fill="#000000">company_id </text>
<text text-anchor="start" x="633.3534" y="-698.9" font-family="Arial" font-size="14.00" fill="#666666">[integer]</text>
<polygon fill="none" stroke="#000000" points="547,-657.5 547,-687.5 823,-687.5 823,-657.5 547,-657.5"/>
<text text-anchor="start" x="554" y="-668.9" font-family="Arial" font-size="14.00" fill="#000000">partner_id </text>
<text text-anchor="start" x="620.9046" y="-668.9" font-family="Arial" font-size="14.00" fill="#666666">[integer]</text>
<polygon fill="none" stroke="#000000" points="547,-627.5 547,-657.5 823,-657.5 823,-627.5 547,-627.5"/>
<text text-anchor="start" x="553.5246" y="-638.9" font-family="Arial" font-size="14.00" fill="#000000">create_date </text>
<text text-anchor="start" x="631.3352" y="-638.9" font-family="Arial" font-size="14.00" fill="#666666">[timestamp without time zone]</text>
<polygon fill="none" stroke="#000000" points="547,-597.5 547,-627.5 823,-627.5 823,-597.5 547,-597.5"/>
<text text-anchor="start" x="554" y="-608.9" font-family="Arial" font-size="14.00" fill="#000000">signature </text>
<text text-anchor="start" x="615.4614" y="-608.9" font-family="Arial" font-size="14.00" fill="#666666">[text]</text>
<polygon fill="none" stroke="#000000" points="547,-567.5 547,-597.5 823,-597.5 823,-567.5 547,-567.5"/>
<text text-anchor="start" x="554" y="-578.9" font-family="Arial" font-size="14.00" fill="#000000">action_id </text>
<text text-anchor="start" x="613.9074" y="-578.9" font-family="Arial" font-size="14.00" fill="#666666">[integer]</text>
<polygon fill="none" stroke="#000000" points="547,-537.5 547,-567.5 823,-567.5 823,-537.5 547,-537.5"/>
<text text-anchor="start" x="554" y="-548.9" font-family="Arial" font-size="14.00" fill="#000000">share </text>
<text text-anchor="start" x="592.899" y="-548.9" font-family="Arial" font-size="14.00" fill="#666666">[boolean]</text>
<polygon fill="none" stroke="#000000" points="547,-507.5 547,-537.5 823,-537.5 823,-507.5 547,-507.5"/>
<text text-anchor="start" x="554" y="-518.9" font-family="Arial" font-size="14.00" fill="#000000">create_uid </text>
<text text-anchor="start" x="623.244" y="-518.9" font-family="Arial" font-size="14.00" fill="#666666">[integer]</text>
<polygon fill="none" stroke="#000000" points="547,-477.5 547,-507.5 823,-507.5 823,-477.5 547,-477.5"/>
<text text-anchor="start" x="554" y="-488.9" font-family="Arial" font-size="14.00" fill="#000000">write_uid </text>
<text text-anchor="start" x="613.892" y="-488.9" font-family="Arial" font-size="14.00" fill="#666666">[integer]</text>
<polygon fill="none" stroke="#000000" points="547,-447.5 547,-477.5 823,-477.5 823,-447.5 547,-447.5"/>
<text text-anchor="start" x="554" y="-458.9" font-family="Arial" font-size="14.00" fill="#000000">write_date </text>
<text text-anchor="start" x="622.4586" y="-458.9" font-family="Arial" font-size="14.00" fill="#666666">[timestamp without time zone]</text>
<polygon fill="none" stroke="#000000" points="547,-417.5 547,-447.5 823,-447.5 823,-417.5 547,-417.5"/>
<text text-anchor="start" x="554" y="-428.9" font-family="Arial" font-size="14.00" fill="#000000">alias_id </text>
<text text-anchor="start" x="605.3408" y="-428.9" font-family="Arial" font-size="14.00" fill="#666666">[integer]</text>
<polygon fill="none" stroke="#000000" points="547,-387.5 547,-417.5 823,-417.5 823,-387.5 547,-387.5"/>
<text text-anchor="start" x="554" y="-398.9" font-family="Arial" font-size="14.00" fill="#000000">notification_type </text>
<text text-anchor="start" x="659.0336" y="-398.9" font-family="Arial" font-size="14.00" fill="#666666">[varchar]</text>
<polygon fill="none" stroke="#000000" points="547,-357.5 547,-387.5 823,-387.5 823,-357.5 547,-357.5"/>
<text text-anchor="start" x="554" y="-368.9" font-family="Arial" font-size="14.00" fill="#000000">odoobot_state </text>
<text text-anchor="start" x="646.6058" y="-368.9" font-family="Arial" font-size="14.00" fill="#666666">[varchar]</text>
<polygon fill="none" stroke="#000000" points="547,-327.5 547,-357.5 823,-357.5 823,-327.5 547,-327.5"/>
<text text-anchor="start" x="554" y="-338.9" font-family="Arial" font-size="14.00" fill="#000000">sale_team_id </text>
<text text-anchor="start" x="641.1332" y="-338.9" font-family="Arial" font-size="14.00" fill="#666666">[integer]</text>
<polygon fill="none" stroke="#000000" points="547,-297.5 547,-327.5 823,-327.5 823,-297.5 547,-297.5"/>
<text text-anchor="start" x="554" y="-308.9" font-family="Arial" font-size="14.00" fill="#000000">target_sales_won </text>
<text text-anchor="start" x="667.589" y="-308.9" font-family="Arial" font-size="14.00" fill="#666666">[integer]</text>
<polygon fill="none" stroke="#000000" points="547,-267.5 547,-297.5 823,-297.5 823,-267.5 547,-267.5"/>
<text text-anchor="start" x="554" y="-278.9" font-family="Arial" font-size="14.00" fill="#000000">target_sales_done </text>
<text text-anchor="start" x="673.0476" y="-278.9" font-family="Arial" font-size="14.00" fill="#666666">[integer]</text>
<polygon fill="none" stroke="#000000" points="547,-237.5 547,-267.5 823,-267.5 823,-237.5 547,-237.5"/>
<text text-anchor="start" x="554" y="-248.9" font-family="Arial" font-size="14.00" fill="#000000">website_id </text>
<text text-anchor="start" x="624.014" y="-248.9" font-family="Arial" font-size="14.00" fill="#666666">[integer]</text>
<polygon fill="none" stroke="#000000" points="547,-207.5 547,-237.5 823,-237.5 823,-207.5 547,-207.5"/>
<text text-anchor="start" x="554" y="-218.9" font-family="Arial" font-size="14.00" fill="#000000">target_sales_invoiced </text>
<text text-anchor="start" x="693.2608" y="-218.9" font-family="Arial" font-size="14.00" fill="#666666">[integer]</text>
<polygon fill="none" stroke="#000000" points="547,-177.5 547,-207.5 823,-207.5 823,-177.5 547,-177.5"/>
<text text-anchor="start" x="554" y="-188.9" font-family="Arial" font-size="14.00" fill="#000000">pos_security_pin </text>
<text text-anchor="start" x="662.9158" y="-188.9" font-family="Arial" font-size="14.00" fill="#666666">[varchar(32)]</text>
</g>
<!-- public.account_bank_statement_import_journal_creation&#45;&gt;public.res_users -->
<g id="edge2" class="edge">
<title>public.account_bank_statement_import_journal_creation:create_uid&#45;&gt;public.res_users:id</title>
<path fill="none" stroke="#000000" d="M975.8802,-1235.8279C1052.993,-1207.2707 916.9239,-822.5 823,-822.5"/>
<polygon fill="#000000" stroke="#000000" points="975.8598,-1235.8313 965.2491,-1233.0631 970.9299,-1236.6656 966,-1237.5 966,-1237.5 966,-1237.5 970.9299,-1236.6656 966.7509,-1241.9369 975.8598,-1235.8313 975.8598,-1235.8313"/>
<text text-anchor="start" x="972.657" y="-1247.5" font-family="Arial" font-size="10.00" fill="#000000">FOREIGN KEY (create_uid) REFERENCES res_users(id) ON DELETE SET NULL</text>
</g>
<!-- public.account_bank_statement_import_journal_creation&#45;&gt;public.res_users -->
<g id="edge3" class="edge">
<title>public.account_bank_statement_import_journal_creation:write_uid&#45;&gt;public.res_users:id</title>
<path fill="none" stroke="#000000" d="M976.0724,-1177.0582C1130.2208,-1163.0888 989.6091,-822.5 823,-822.5"/>
<polygon fill="#000000" stroke="#000000" points="975.9904,-1177.0617 965.8028,-1173.0043 970.9952,-1177.2809 966,-1177.5 966,-1177.5 966,-1177.5 970.9952,-1177.2809 966.1972,-1181.9957 975.9904,-1177.0617 975.9904,-1177.0617"/>
<text text-anchor="start" x="972.997" y="-1187.5" font-family="Arial" font-size="10.00" fill="#000000">FOREIGN KEY (write_uid) REFERENCES res_users(id) ON DELETE SET NULL</text>
</g>
</g>
</svg>
