<?xml version="1.0" encoding="UTF-8" standalone="no"?>
<!DOCTYPE svg PUBLIC "-//W3C//DTD SVG 1.1//EN"
 "http://www.w3.org/Graphics/SVG/1.1/DTD/svg11.dtd">
<!-- Generated by graphviz version 2.40.1 (20161225.0304)
 -->
<!-- Title: public.website_lang_rel Pages: 1 -->
<svg width="1038pt" height="1492pt"
 viewBox="0.00 0.00 1038.00 1492.00" xmlns="http://www.w3.org/2000/svg" xmlns:xlink="http://www.w3.org/1999/xlink">
<g id="graph0" class="graph" transform="scale(1 1) rotate(0) translate(4 1488)">
<title>public.website_lang_rel</title>
<polygon fill="#ffffff" stroke="transparent" points="-4,4 -4,-1488 1034,-1488 1034,4 -4,4"/>
<!-- public.website_lang_rel -->
<g id="node1" class="node">
<title>public.website_lang_rel</title>
<polygon fill="#efefef" stroke="transparent" points="371,-1402.5 371,-1437.5 669,-1437.5 669,-1402.5 371,-1402.5"/>
<polygon fill="none" stroke="#000000" points="371,-1402.5 371,-1437.5 669,-1437.5 669,-1402.5 371,-1402.5"/>
<text text-anchor="start" x="377.855" y="-1415.3" font-family="Arial Bold" font-size="18.00" fill="#000000">public.website_lang_rel</text>
<text text-anchor="start" x="564.8912" y="-1415.3" font-family="Arial" font-size="14.00" fill="#000000"> </text>
<text text-anchor="start" x="568.7818" y="-1415.3" font-family="Arial" font-size="14.00" fill="#666666">[BASE TABLE]</text>
<polygon fill="none" stroke="#000000" points="371,-1372.5 371,-1402.5 669,-1402.5 669,-1372.5 371,-1372.5"/>
<text text-anchor="start" x="378" y="-1383.9" font-family="Arial" font-size="14.00" fill="#000000">website_id </text>
<text text-anchor="start" x="448.014" y="-1383.9" font-family="Arial" font-size="14.00" fill="#666666">[integer]</text>
<polygon fill="none" stroke="#000000" points="371,-1342.5 371,-1372.5 669,-1372.5 669,-1342.5 371,-1342.5"/>
<text text-anchor="start" x="378" y="-1353.9" font-family="Arial" font-size="14.00" fill="#000000">lang_id </text>
<text text-anchor="start" x="427.0168" y="-1353.9" font-family="Arial" font-size="14.00" fill="#666666">[integer]</text>
<polygon fill="none" stroke="#000000" stroke-width="3" points="369.5,-1341.5 369.5,-1439.5 670.5,-1439.5 670.5,-1341.5 369.5,-1341.5"/>
</g>
<!-- public.website -->
<g id="node2" class="node">
<title>public.website</title>
<polygon fill="#efefef" stroke="transparent" points="182,-1182.5 182,-1217.5 472,-1217.5 472,-1182.5 182,-1182.5"/>
<polygon fill="none" stroke="#000000" points="182,-1182.5 182,-1217.5 472,-1217.5 472,-1182.5 182,-1182.5"/>
<text text-anchor="start" x="221.8639" y="-1195.3" font-family="Arial Bold" font-size="18.00" fill="#000000">public.website</text>
<text text-anchor="start" x="334.8823" y="-1195.3" font-family="Arial" font-size="14.00" fill="#000000"> </text>
<text text-anchor="start" x="338.7729" y="-1195.3" font-family="Arial" font-size="14.00" fill="#666666">[BASE TABLE]</text>
<polygon fill="none" stroke="#000000" points="182,-1152.5 182,-1182.5 472,-1182.5 472,-1152.5 182,-1152.5"/>
<text text-anchor="start" x="189" y="-1163.9" font-family="Arial" font-size="14.00" fill="#000000">id </text>
<text text-anchor="start" x="203.7798" y="-1163.9" font-family="Arial" font-size="14.00" fill="#666666">[integer]</text>
<polygon fill="none" stroke="#000000" points="182,-1122.5 182,-1152.5 472,-1152.5 472,-1122.5 182,-1122.5"/>
<text text-anchor="start" x="189" y="-1133.9" font-family="Arial" font-size="14.00" fill="#000000">name </text>
<text text-anchor="start" x="227.899" y="-1133.9" font-family="Arial" font-size="14.00" fill="#666666">[varchar]</text>
<polygon fill="none" stroke="#000000" points="182,-1092.5 182,-1122.5 472,-1122.5 472,-1092.5 182,-1092.5"/>
<text text-anchor="start" x="189" y="-1103.9" font-family="Arial" font-size="14.00" fill="#000000">domain </text>
<text text-anchor="start" x="238.7882" y="-1103.9" font-family="Arial" font-size="14.00" fill="#666666">[varchar]</text>
<polygon fill="none" stroke="#000000" points="182,-1062.5 182,-1092.5 472,-1092.5 472,-1062.5 182,-1062.5"/>
<text text-anchor="start" x="189" y="-1073.9" font-family="Arial" font-size="14.00" fill="#000000">company_id </text>
<text text-anchor="start" x="268.3534" y="-1073.9" font-family="Arial" font-size="14.00" fill="#666666">[integer]</text>
<polygon fill="none" stroke="#000000" points="182,-1032.5 182,-1062.5 472,-1062.5 472,-1032.5 182,-1032.5"/>
<text text-anchor="start" x="189" y="-1043.9" font-family="Arial" font-size="14.00" fill="#000000">default_lang_id </text>
<text text-anchor="start" x="287.8176" y="-1043.9" font-family="Arial" font-size="14.00" fill="#666666">[integer]</text>
<polygon fill="none" stroke="#000000" points="182,-1002.5 182,-1032.5 472,-1032.5 472,-1002.5 182,-1002.5"/>
<text text-anchor="start" x="189" y="-1013.9" font-family="Arial" font-size="14.00" fill="#000000">default_lang_code </text>
<text text-anchor="start" x="307.2762" y="-1013.9" font-family="Arial" font-size="14.00" fill="#666666">[varchar]</text>
<polygon fill="none" stroke="#000000" points="182,-972.5 182,-1002.5 472,-1002.5 472,-972.5 182,-972.5"/>
<text text-anchor="start" x="189" y="-983.9" font-family="Arial" font-size="14.00" fill="#000000">auto_redirect_lang </text>
<text text-anchor="start" x="308.8148" y="-983.9" font-family="Arial" font-size="14.00" fill="#666666">[boolean]</text>
<polygon fill="none" stroke="#000000" points="182,-942.5 182,-972.5 472,-972.5 472,-942.5 182,-942.5"/>
<text text-anchor="start" x="189" y="-953.9" font-family="Arial" font-size="14.00" fill="#000000">social_twitter </text>
<text text-anchor="start" x="273.7798" y="-953.9" font-family="Arial" font-size="14.00" fill="#666666">[varchar]</text>
<polygon fill="none" stroke="#000000" points="182,-912.5 182,-942.5 472,-942.5 472,-912.5 182,-912.5"/>
<text text-anchor="start" x="189" y="-923.9" font-family="Arial" font-size="14.00" fill="#000000">social_facebook </text>
<text text-anchor="start" x="293.2552" y="-923.9" font-family="Arial" font-size="14.00" fill="#666666">[varchar]</text>
<polygon fill="none" stroke="#000000" points="182,-882.5 182,-912.5 472,-912.5 472,-882.5 182,-882.5"/>
<text text-anchor="start" x="189" y="-893.9" font-family="Arial" font-size="14.00" fill="#000000">social_github </text>
<text text-anchor="start" x="274.5792" y="-893.9" font-family="Arial" font-size="14.00" fill="#666666">[varchar]</text>
<polygon fill="none" stroke="#000000" points="182,-852.5 182,-882.5 472,-882.5 472,-852.5 182,-852.5"/>
<text text-anchor="start" x="189" y="-863.9" font-family="Arial" font-size="14.00" fill="#000000">social_linkedin </text>
<text text-anchor="start" x="283.9018" y="-863.9" font-family="Arial" font-size="14.00" fill="#666666">[varchar]</text>
<polygon fill="none" stroke="#000000" points="182,-822.5 182,-852.5 472,-852.5 472,-822.5 182,-822.5"/>
<text text-anchor="start" x="189" y="-833.9" font-family="Arial" font-size="14.00" fill="#000000">social_youtube </text>
<text text-anchor="start" x="286.2552" y="-833.9" font-family="Arial" font-size="14.00" fill="#666666">[varchar]</text>
<polygon fill="none" stroke="#000000" points="182,-792.5 182,-822.5 472,-822.5 472,-792.5 182,-792.5"/>
<text text-anchor="start" x="189" y="-803.9" font-family="Arial" font-size="14.00" fill="#000000">social_googleplus </text>
<text text-anchor="start" x="304.143" y="-803.9" font-family="Arial" font-size="14.00" fill="#666666">[varchar]</text>
<polygon fill="none" stroke="#000000" points="182,-762.5 182,-792.5 472,-792.5 472,-762.5 182,-762.5"/>
<text text-anchor="start" x="189" y="-773.9" font-family="Arial" font-size="14.00" fill="#000000">social_instagram </text>
<text text-anchor="start" x="297.9004" y="-773.9" font-family="Arial" font-size="14.00" fill="#666666">[varchar]</text>
<polygon fill="none" stroke="#000000" points="182,-732.5 182,-762.5 472,-762.5 472,-732.5 182,-732.5"/>
<text text-anchor="start" x="189" y="-743.9" font-family="Arial" font-size="14.00" fill="#000000">google_analytics_key </text>
<text text-anchor="start" x="326.7096" y="-743.9" font-family="Arial" font-size="14.00" fill="#666666">[varchar]</text>
<polygon fill="none" stroke="#000000" points="182,-702.5 182,-732.5 472,-732.5 472,-702.5 182,-702.5"/>
<text text-anchor="start" x="189" y="-713.9" font-family="Arial" font-size="14.00" fill="#000000">google_management_client_id </text>
<text text-anchor="start" x="383.5062" y="-713.9" font-family="Arial" font-size="14.00" fill="#666666">[varchar]</text>
<polygon fill="none" stroke="#000000" points="182,-672.5 182,-702.5 472,-702.5 472,-672.5 182,-672.5"/>
<text text-anchor="start" x="188.9082" y="-683.9" font-family="Arial" font-size="14.00" fill="#000000">google_management_client_secret </text>
<text text-anchor="start" x="410.6416" y="-683.9" font-family="Arial" font-size="14.00" fill="#666666">[varchar]</text>
<polygon fill="none" stroke="#000000" points="182,-642.5 182,-672.5 472,-672.5 472,-642.5 182,-642.5"/>
<text text-anchor="start" x="189" y="-653.9" font-family="Arial" font-size="14.00" fill="#000000">google_maps_api_key </text>
<text text-anchor="start" x="332.9382" y="-653.9" font-family="Arial" font-size="14.00" fill="#666666">[varchar]</text>
<polygon fill="none" stroke="#000000" points="182,-612.5 182,-642.5 472,-642.5 472,-612.5 182,-612.5"/>
<text text-anchor="start" x="189" y="-623.9" font-family="Arial" font-size="14.00" fill="#000000">user_id </text>
<text text-anchor="start" x="238.7882" y="-623.9" font-family="Arial" font-size="14.00" fill="#666666">[integer]</text>
<polygon fill="none" stroke="#000000" points="182,-582.5 182,-612.5 472,-612.5 472,-582.5 182,-582.5"/>
<text text-anchor="start" x="189" y="-593.9" font-family="Arial" font-size="14.00" fill="#000000">cdn_activated </text>
<text text-anchor="start" x="279.2566" y="-593.9" font-family="Arial" font-size="14.00" fill="#666666">[boolean]</text>
<polygon fill="none" stroke="#000000" points="182,-552.5 182,-582.5 472,-582.5 472,-552.5 182,-552.5"/>
<text text-anchor="start" x="189" y="-563.9" font-family="Arial" font-size="14.00" fill="#000000">cdn_url </text>
<text text-anchor="start" x="238.7882" y="-563.9" font-family="Arial" font-size="14.00" fill="#666666">[varchar]</text>
<polygon fill="none" stroke="#000000" points="182,-522.5 182,-552.5 472,-552.5 472,-522.5 182,-522.5"/>
<text text-anchor="start" x="189" y="-533.9" font-family="Arial" font-size="14.00" fill="#000000">cdn_filters </text>
<text text-anchor="start" x="256.676" y="-533.9" font-family="Arial" font-size="14.00" fill="#666666">[text]</text>
<polygon fill="none" stroke="#000000" points="182,-492.5 182,-522.5 472,-522.5 472,-492.5 182,-492.5"/>
<text text-anchor="start" x="189" y="-503.9" font-family="Arial" font-size="14.00" fill="#000000">homepage_id </text>
<text text-anchor="start" x="277.7012" y="-503.9" font-family="Arial" font-size="14.00" fill="#666666">[integer]</text>
<polygon fill="none" stroke="#000000" points="182,-462.5 182,-492.5 472,-492.5 472,-462.5 182,-462.5"/>
<text text-anchor="start" x="189" y="-473.9" font-family="Arial" font-size="14.00" fill="#000000">favicon </text>
<text text-anchor="start" x="237.2356" y="-473.9" font-family="Arial" font-size="14.00" fill="#666666">[bytea]</text>
<polygon fill="none" stroke="#000000" points="182,-432.5 182,-462.5 472,-462.5 472,-432.5 182,-432.5"/>
<text text-anchor="start" x="189" y="-443.9" font-family="Arial" font-size="14.00" fill="#000000">theme_id </text>
<text text-anchor="start" x="250.4614" y="-443.9" font-family="Arial" font-size="14.00" fill="#666666">[integer]</text>
<polygon fill="none" stroke="#000000" points="182,-402.5 182,-432.5 472,-432.5 472,-402.5 182,-402.5"/>
<text text-anchor="start" x="189" y="-413.9" font-family="Arial" font-size="14.00" fill="#000000">specific_user_account </text>
<text text-anchor="start" x="331.3716" y="-413.9" font-family="Arial" font-size="14.00" fill="#666666">[boolean]</text>
<polygon fill="none" stroke="#000000" points="182,-372.5 182,-402.5 472,-402.5 472,-372.5 182,-372.5"/>
<text text-anchor="start" x="189" y="-383.9" font-family="Arial" font-size="14.00" fill="#000000">auth_signup_uninvited </text>
<text text-anchor="start" x="332.948" y="-383.9" font-family="Arial" font-size="14.00" fill="#666666">[varchar]</text>
<polygon fill="none" stroke="#000000" points="182,-342.5 182,-372.5 472,-372.5 472,-342.5 182,-342.5"/>
<text text-anchor="start" x="189" y="-353.9" font-family="Arial" font-size="14.00" fill="#000000">create_uid </text>
<text text-anchor="start" x="258.244" y="-353.9" font-family="Arial" font-size="14.00" fill="#666666">[integer]</text>
<polygon fill="none" stroke="#000000" points="182,-312.5 182,-342.5 472,-342.5 472,-312.5 182,-312.5"/>
<text text-anchor="start" x="189" y="-323.9" font-family="Arial" font-size="14.00" fill="#000000">create_date </text>
<text text-anchor="start" x="266.8106" y="-323.9" font-family="Arial" font-size="14.00" fill="#666666">[timestamp without time zone]</text>
<polygon fill="none" stroke="#000000" points="182,-282.5 182,-312.5 472,-312.5 472,-282.5 182,-282.5"/>
<text text-anchor="start" x="189" y="-293.9" font-family="Arial" font-size="14.00" fill="#000000">write_uid </text>
<text text-anchor="start" x="248.892" y="-293.9" font-family="Arial" font-size="14.00" fill="#666666">[integer]</text>
<polygon fill="none" stroke="#000000" points="182,-252.5 182,-282.5 472,-282.5 472,-252.5 182,-252.5"/>
<text text-anchor="start" x="189" y="-263.9" font-family="Arial" font-size="14.00" fill="#000000">write_date </text>
<text text-anchor="start" x="257.4586" y="-263.9" font-family="Arial" font-size="14.00" fill="#666666">[timestamp without time zone]</text>
<polygon fill="none" stroke="#000000" points="182,-222.5 182,-252.5 472,-252.5 472,-222.5 182,-222.5"/>
<text text-anchor="start" x="189" y="-233.9" font-family="Arial" font-size="14.00" fill="#000000">website_form_enable_metadata </text>
<text text-anchor="start" x="392.0588" y="-233.9" font-family="Arial" font-size="14.00" fill="#666666">[boolean]</text>
<polygon fill="none" stroke="#000000" points="182,-192.5 182,-222.5 472,-222.5 472,-192.5 182,-192.5"/>
<text text-anchor="start" x="189" y="-203.9" font-family="Arial" font-size="14.00" fill="#000000">salesperson_id </text>
<text text-anchor="start" x="287.0252" y="-203.9" font-family="Arial" font-size="14.00" fill="#666666">[integer]</text>
<polygon fill="none" stroke="#000000" points="182,-162.5 182,-192.5 472,-192.5 472,-162.5 182,-162.5"/>
<text text-anchor="start" x="189" y="-173.9" font-family="Arial" font-size="14.00" fill="#000000">salesteam_id </text>
<text text-anchor="start" x="275.3506" y="-173.9" font-family="Arial" font-size="14.00" fill="#666666">[integer]</text>
<polygon fill="none" stroke="#000000" points="182,-132.5 182,-162.5 472,-162.5 472,-132.5 182,-132.5"/>
<text text-anchor="start" x="189" y="-143.9" font-family="Arial" font-size="14.00" fill="#000000">cart_recovery_mail_template_id </text>
<text text-anchor="start" x="391.2482" y="-143.9" font-family="Arial" font-size="14.00" fill="#666666">[integer]</text>
<polygon fill="none" stroke="#000000" points="182,-102.5 182,-132.5 472,-132.5 472,-102.5 182,-102.5"/>
<text text-anchor="start" x="189" y="-113.9" font-family="Arial" font-size="14.00" fill="#000000">cart_abandoned_delay </text>
<text text-anchor="start" x="335.2874" y="-113.9" font-family="Arial" font-size="14.00" fill="#666666">[double precision]</text>
<polygon fill="none" stroke="#000000" points="182,-72.5 182,-102.5 472,-102.5 472,-72.5 182,-72.5"/>
<text text-anchor="start" x="189" y="-83.9" font-family="Arial" font-size="14.00" fill="#000000">crm_default_team_id </text>
<text text-anchor="start" x="323.5834" y="-83.9" font-family="Arial" font-size="14.00" fill="#666666">[integer]</text>
<polygon fill="none" stroke="#000000" points="182,-42.5 182,-72.5 472,-72.5 472,-42.5 182,-42.5"/>
<text text-anchor="start" x="189" y="-53.9" font-family="Arial" font-size="14.00" fill="#000000">crm_default_user_id </text>
<text text-anchor="start" x="319.6928" y="-53.9" font-family="Arial" font-size="14.00" fill="#666666">[integer]</text>
</g>
<!-- public.website_lang_rel&#45;&gt;public.website -->
<g id="edge1" class="edge">
<title>public.website_lang_rel:website_id&#45;&gt;public.website:id</title>
<path fill="none" stroke="#000000" d="M360.8069,-1385.9279C334.1648,-1376.4804 350.0834,-1326.6609 371,-1297 398.4639,-1258.0546 444.5361,-1299.9454 472,-1261 495.9487,-1227.0394 513.5556,-1167.5 472,-1167.5"/>
<polygon fill="#000000" stroke="#000000" points="361.1168,-1385.9757 370.3141,-1391.9474 366.0584,-1386.7378 371,-1387.5 371,-1387.5 371,-1387.5 366.0584,-1386.7378 371.6859,-1383.0526 361.1168,-1385.9757 361.1168,-1385.9757"/>
<text text-anchor="start" x="7.1065" y="-1397.5" font-family="Arial" font-size="10.00" fill="#000000">FOREIGN KEY (website_id) REFERENCES website(id) ON DELETE CASCADE</text>
</g>
<!-- public.res_lang -->
<g id="node3" class="node">
<title>public.res_lang</title>
<polygon fill="#efefef" stroke="transparent" points="576,-867.5 576,-902.5 852,-902.5 852,-867.5 576,-867.5"/>
<polygon fill="none" stroke="#000000" points="576,-867.5 576,-902.5 852,-902.5 852,-867.5 576,-867.5"/>
<text text-anchor="start" x="604.8598" y="-880.3" font-family="Arial Bold" font-size="18.00" fill="#000000">public.res_lang</text>
<text text-anchor="start" x="725.8864" y="-880.3" font-family="Arial" font-size="14.00" fill="#000000"> </text>
<text text-anchor="start" x="729.777" y="-880.3" font-family="Arial" font-size="14.00" fill="#666666">[BASE TABLE]</text>
<polygon fill="none" stroke="#000000" points="576,-837.5 576,-867.5 852,-867.5 852,-837.5 576,-837.5"/>
<text text-anchor="start" x="583" y="-848.9" font-family="Arial" font-size="14.00" fill="#000000">id </text>
<text text-anchor="start" x="597.7798" y="-848.9" font-family="Arial" font-size="14.00" fill="#666666">[integer]</text>
<polygon fill="none" stroke="#000000" points="576,-807.5 576,-837.5 852,-837.5 852,-807.5 576,-807.5"/>
<text text-anchor="start" x="583" y="-818.9" font-family="Arial" font-size="14.00" fill="#000000">name </text>
<text text-anchor="start" x="621.899" y="-818.9" font-family="Arial" font-size="14.00" fill="#666666">[varchar]</text>
<polygon fill="none" stroke="#000000" points="576,-777.5 576,-807.5 852,-807.5 852,-777.5 576,-777.5"/>
<text text-anchor="start" x="583" y="-788.9" font-family="Arial" font-size="14.00" fill="#000000">code </text>
<text text-anchor="start" x="617.2384" y="-788.9" font-family="Arial" font-size="14.00" fill="#666666">[varchar]</text>
<polygon fill="none" stroke="#000000" points="576,-747.5 576,-777.5 852,-777.5 852,-747.5 576,-747.5"/>
<text text-anchor="start" x="583" y="-758.9" font-family="Arial" font-size="14.00" fill="#000000">iso_code </text>
<text text-anchor="start" x="642.9102" y="-758.9" font-family="Arial" font-size="14.00" fill="#666666">[varchar]</text>
<polygon fill="none" stroke="#000000" points="576,-717.5 576,-747.5 852,-747.5 852,-717.5 576,-717.5"/>
<text text-anchor="start" x="583" y="-728.9" font-family="Arial" font-size="14.00" fill="#000000">translatable </text>
<text text-anchor="start" x="659.2412" y="-728.9" font-family="Arial" font-size="14.00" fill="#666666">[boolean]</text>
<polygon fill="none" stroke="#000000" points="576,-687.5 576,-717.5 852,-717.5 852,-687.5 576,-687.5"/>
<text text-anchor="start" x="583" y="-698.9" font-family="Arial" font-size="14.00" fill="#000000">active </text>
<text text-anchor="start" x="623.453" y="-698.9" font-family="Arial" font-size="14.00" fill="#666666">[boolean]</text>
<polygon fill="none" stroke="#000000" points="576,-657.5 576,-687.5 852,-687.5 852,-657.5 576,-657.5"/>
<text text-anchor="start" x="583" y="-668.9" font-family="Arial" font-size="14.00" fill="#000000">direction </text>
<text text-anchor="start" x="639.7854" y="-668.9" font-family="Arial" font-size="14.00" fill="#666666">[varchar]</text>
<polygon fill="none" stroke="#000000" points="576,-627.5 576,-657.5 852,-657.5 852,-627.5 576,-627.5"/>
<text text-anchor="start" x="583" y="-638.9" font-family="Arial" font-size="14.00" fill="#000000">date_format </text>
<text text-anchor="start" x="661.5792" y="-638.9" font-family="Arial" font-size="14.00" fill="#666666">[varchar]</text>
<polygon fill="none" stroke="#000000" points="576,-597.5 576,-627.5 852,-627.5 852,-597.5 576,-597.5"/>
<text text-anchor="start" x="583" y="-608.9" font-family="Arial" font-size="14.00" fill="#000000">time_format </text>
<text text-anchor="start" x="660.7812" y="-608.9" font-family="Arial" font-size="14.00" fill="#666666">[varchar]</text>
<polygon fill="none" stroke="#000000" points="576,-567.5 576,-597.5 852,-597.5 852,-567.5 576,-567.5"/>
<text text-anchor="start" x="583" y="-578.9" font-family="Arial" font-size="14.00" fill="#000000">week_start </text>
<text text-anchor="start" x="654.5694" y="-578.9" font-family="Arial" font-size="14.00" fill="#666666">[integer]</text>
<polygon fill="none" stroke="#000000" points="576,-537.5 576,-567.5 852,-567.5 852,-537.5 576,-537.5"/>
<text text-anchor="start" x="583" y="-548.9" font-family="Arial" font-size="14.00" fill="#000000">grouping </text>
<text text-anchor="start" x="641.3534" y="-548.9" font-family="Arial" font-size="14.00" fill="#666666">[varchar]</text>
<polygon fill="none" stroke="#000000" points="576,-507.5 576,-537.5 852,-537.5 852,-507.5 576,-507.5"/>
<text text-anchor="start" x="583" y="-518.9" font-family="Arial" font-size="14.00" fill="#000000">decimal_point </text>
<text text-anchor="start" x="673.2398" y="-518.9" font-family="Arial" font-size="14.00" fill="#666666">[varchar]</text>
<polygon fill="none" stroke="#000000" points="576,-477.5 576,-507.5 852,-507.5 852,-477.5 576,-477.5"/>
<text text-anchor="start" x="583" y="-488.9" font-family="Arial" font-size="14.00" fill="#000000">thousands_sep </text>
<text text-anchor="start" x="681.8246" y="-488.9" font-family="Arial" font-size="14.00" fill="#666666">[varchar]</text>
<polygon fill="none" stroke="#000000" points="576,-447.5 576,-477.5 852,-477.5 852,-447.5 576,-447.5"/>
<text text-anchor="start" x="583" y="-458.9" font-family="Arial" font-size="14.00" fill="#000000">create_uid </text>
<text text-anchor="start" x="652.244" y="-458.9" font-family="Arial" font-size="14.00" fill="#666666">[integer]</text>
<polygon fill="none" stroke="#000000" points="576,-417.5 576,-447.5 852,-447.5 852,-417.5 576,-417.5"/>
<text text-anchor="start" x="582.5246" y="-428.9" font-family="Arial" font-size="14.00" fill="#000000">create_date </text>
<text text-anchor="start" x="660.3352" y="-428.9" font-family="Arial" font-size="14.00" fill="#666666">[timestamp without time zone]</text>
<polygon fill="none" stroke="#000000" points="576,-387.5 576,-417.5 852,-417.5 852,-387.5 576,-387.5"/>
<text text-anchor="start" x="583" y="-398.9" font-family="Arial" font-size="14.00" fill="#000000">write_uid </text>
<text text-anchor="start" x="642.892" y="-398.9" font-family="Arial" font-size="14.00" fill="#666666">[integer]</text>
<polygon fill="none" stroke="#000000" points="576,-357.5 576,-387.5 852,-387.5 852,-357.5 576,-357.5"/>
<text text-anchor="start" x="583" y="-368.9" font-family="Arial" font-size="14.00" fill="#000000">write_date </text>
<text text-anchor="start" x="651.4586" y="-368.9" font-family="Arial" font-size="14.00" fill="#666666">[timestamp without time zone]</text>
</g>
<!-- public.website_lang_rel&#45;&gt;public.res_lang -->
<g id="edge2" class="edge">
<title>public.website_lang_rel:lang_id&#45;&gt;public.res_lang:id</title>
<path fill="none" stroke="#000000" d="M678.9585,-1355.8668C762.2583,-1324.5216 465.6795,-852.5 576,-852.5"/>
<polygon fill="#000000" stroke="#000000" points="678.8682,-1355.8815 668.2717,-1353.0593 673.9341,-1356.6907 669,-1357.5 669,-1357.5 669,-1357.5 673.9341,-1356.6907 669.7283,-1361.9407 678.8682,-1355.8815 678.8682,-1355.8815"/>
<text text-anchor="start" x="676.381" y="-1367.5" font-family="Arial" font-size="10.00" fill="#000000">FOREIGN KEY (lang_id) REFERENCES res_lang(id) ON DELETE CASCADE</text>
</g>
</g>
</svg>
