<?xml version="1.0" encoding="UTF-8" standalone="no"?>
<!DOCTYPE svg PUBLIC "-//W3C//DTD SVG 1.1//EN"
 "http://www.w3.org/Graphics/SVG/1.1/DTD/svg11.dtd">
<!-- Generated by graphviz version 2.40.1 (20161225.0304)
 -->
<!-- Title: public.mail_mail_res_partner_rel Pages: 1 -->
<svg width="1173pt" height="2422pt"
 viewBox="0.00 0.00 1173.00 2422.00" xmlns="http://www.w3.org/2000/svg" xmlns:xlink="http://www.w3.org/1999/xlink">
<g id="graph0" class="graph" transform="scale(1 1) rotate(0) translate(4 2418)">
<title>public.mail_mail_res_partner_rel</title>
<polygon fill="#ffffff" stroke="transparent" points="-4,4 -4,-2418 1169,-2418 1169,4 -4,4"/>
<!-- public.mail_mail_res_partner_rel -->
<g id="node1" class="node">
<title>public.mail_mail_res_partner_rel</title>
<polygon fill="#efefef" stroke="transparent" points="388,-2332.5 388,-2367.5 759,-2367.5 759,-2332.5 388,-2332.5"/>
<polygon fill="none" stroke="#000000" points="388,-2332.5 388,-2367.5 759,-2367.5 759,-2332.5 388,-2332.5"/>
<text text-anchor="start" x="394.8681" y="-2345.3" font-family="Arial Bold" font-size="18.00" fill="#000000">public.mail_mail_res_partner_rel</text>
<text text-anchor="start" x="654.8781" y="-2345.3" font-family="Arial" font-size="14.00" fill="#000000"> </text>
<text text-anchor="start" x="658.7687" y="-2345.3" font-family="Arial" font-size="14.00" fill="#666666">[BASE TABLE]</text>
<polygon fill="none" stroke="#000000" points="388,-2302.5 388,-2332.5 759,-2332.5 759,-2302.5 388,-2302.5"/>
<text text-anchor="start" x="395" y="-2313.9" font-family="Arial" font-size="14.00" fill="#000000">mail_mail_id </text>
<text text-anchor="start" x="476.6578" y="-2313.9" font-family="Arial" font-size="14.00" fill="#666666">[integer]</text>
<polygon fill="none" stroke="#000000" points="388,-2272.5 388,-2302.5 759,-2302.5 759,-2272.5 388,-2272.5"/>
<text text-anchor="start" x="395" y="-2283.9" font-family="Arial" font-size="14.00" fill="#000000">res_partner_id </text>
<text text-anchor="start" x="489.1304" y="-2283.9" font-family="Arial" font-size="14.00" fill="#666666">[integer]</text>
<polygon fill="none" stroke="#000000" stroke-width="3" points="386,-2271.5 386,-2369.5 760,-2369.5 760,-2271.5 386,-2271.5"/>
</g>
<!-- public.mail_mail -->
<g id="node2" class="node">
<title>public.mail_mail</title>
<polygon fill="#efefef" stroke="transparent" points="223,-1332.5 223,-1367.5 499,-1367.5 499,-1332.5 223,-1332.5"/>
<polygon fill="none" stroke="#000000" points="223,-1332.5 223,-1367.5 499,-1367.5 499,-1332.5 223,-1332.5"/>
<text text-anchor="start" x="248.3786" y="-1345.3" font-family="Arial Bold" font-size="18.00" fill="#000000">public.mail_mail</text>
<text text-anchor="start" x="376.3676" y="-1345.3" font-family="Arial" font-size="14.00" fill="#000000"> </text>
<text text-anchor="start" x="380.2582" y="-1345.3" font-family="Arial" font-size="14.00" fill="#666666">[BASE TABLE]</text>
<polygon fill="none" stroke="#000000" points="223,-1302.5 223,-1332.5 499,-1332.5 499,-1302.5 223,-1302.5"/>
<text text-anchor="start" x="230" y="-1313.9" font-family="Arial" font-size="14.00" fill="#000000">id </text>
<text text-anchor="start" x="244.7798" y="-1313.9" font-family="Arial" font-size="14.00" fill="#666666">[integer]</text>
<polygon fill="none" stroke="#000000" points="223,-1272.5 223,-1302.5 499,-1302.5 499,-1272.5 223,-1272.5"/>
<text text-anchor="start" x="230" y="-1283.9" font-family="Arial" font-size="14.00" fill="#000000">mail_message_id </text>
<text text-anchor="start" x="342.7924" y="-1283.9" font-family="Arial" font-size="14.00" fill="#666666">[integer]</text>
<polygon fill="none" stroke="#000000" points="223,-1242.5 223,-1272.5 499,-1272.5 499,-1242.5 223,-1242.5"/>
<text text-anchor="start" x="230" y="-1253.9" font-family="Arial" font-size="14.00" fill="#000000">body_html </text>
<text text-anchor="start" x="298.4614" y="-1253.9" font-family="Arial" font-size="14.00" fill="#666666">[text]</text>
<polygon fill="none" stroke="#000000" points="223,-1212.5 223,-1242.5 499,-1242.5 499,-1212.5 223,-1212.5"/>
<text text-anchor="start" x="230" y="-1223.9" font-family="Arial" font-size="14.00" fill="#000000">references </text>
<text text-anchor="start" x="300.0154" y="-1223.9" font-family="Arial" font-size="14.00" fill="#666666">[text]</text>
<polygon fill="none" stroke="#000000" points="223,-1182.5 223,-1212.5 499,-1212.5 499,-1182.5 223,-1182.5"/>
<text text-anchor="start" x="230" y="-1193.9" font-family="Arial" font-size="14.00" fill="#000000">headers </text>
<text text-anchor="start" x="284.4642" y="-1193.9" font-family="Arial" font-size="14.00" fill="#666666">[text]</text>
<polygon fill="none" stroke="#000000" points="223,-1152.5 223,-1182.5 499,-1182.5 499,-1152.5 223,-1152.5"/>
<text text-anchor="start" x="230" y="-1163.9" font-family="Arial" font-size="14.00" fill="#000000">notification </text>
<text text-anchor="start" x="300.7952" y="-1163.9" font-family="Arial" font-size="14.00" fill="#666666">[boolean]</text>
<polygon fill="none" stroke="#000000" points="223,-1122.5 223,-1152.5 499,-1152.5 499,-1122.5 223,-1122.5"/>
<text text-anchor="start" x="230" y="-1133.9" font-family="Arial" font-size="14.00" fill="#000000">email_to </text>
<text text-anchor="start" x="286.7854" y="-1133.9" font-family="Arial" font-size="14.00" fill="#666666">[text]</text>
<polygon fill="none" stroke="#000000" points="223,-1092.5 223,-1122.5 499,-1122.5 499,-1092.5 223,-1092.5"/>
<text text-anchor="start" x="230" y="-1103.9" font-family="Arial" font-size="14.00" fill="#000000">email_cc </text>
<text text-anchor="start" x="289.1122" y="-1103.9" font-family="Arial" font-size="14.00" fill="#666666">[varchar]</text>
<polygon fill="none" stroke="#000000" points="223,-1062.5 223,-1092.5 499,-1092.5 499,-1062.5 223,-1062.5"/>
<text text-anchor="start" x="230" y="-1073.9" font-family="Arial" font-size="14.00" fill="#000000">state </text>
<text text-anchor="start" x="264.237" y="-1073.9" font-family="Arial" font-size="14.00" fill="#666666">[varchar]</text>
<polygon fill="none" stroke="#000000" points="223,-1032.5 223,-1062.5 499,-1062.5 499,-1032.5 223,-1032.5"/>
<text text-anchor="start" x="230" y="-1043.9" font-family="Arial" font-size="14.00" fill="#000000">auto_delete </text>
<text text-anchor="start" x="307.0392" y="-1043.9" font-family="Arial" font-size="14.00" fill="#666666">[boolean]</text>
<polygon fill="none" stroke="#000000" points="223,-1002.5 223,-1032.5 499,-1032.5 499,-1002.5 223,-1002.5"/>
<text text-anchor="start" x="230" y="-1013.9" font-family="Arial" font-size="14.00" fill="#000000">failure_reason </text>
<text text-anchor="start" x="322.5764" y="-1013.9" font-family="Arial" font-size="14.00" fill="#666666">[text]</text>
<polygon fill="none" stroke="#000000" points="223,-972.5 223,-1002.5 499,-1002.5 499,-972.5 223,-972.5"/>
<text text-anchor="start" x="230" y="-983.9" font-family="Arial" font-size="14.00" fill="#000000">scheduled_date </text>
<text text-anchor="start" x="332.7138" y="-983.9" font-family="Arial" font-size="14.00" fill="#666666">[varchar]</text>
<polygon fill="none" stroke="#000000" points="223,-942.5 223,-972.5 499,-972.5 499,-942.5 223,-942.5"/>
<text text-anchor="start" x="230" y="-953.9" font-family="Arial" font-size="14.00" fill="#000000">create_uid </text>
<text text-anchor="start" x="299.244" y="-953.9" font-family="Arial" font-size="14.00" fill="#666666">[integer]</text>
<polygon fill="none" stroke="#000000" points="223,-912.5 223,-942.5 499,-942.5 499,-912.5 223,-912.5"/>
<text text-anchor="start" x="229.5246" y="-923.9" font-family="Arial" font-size="14.00" fill="#000000">create_date </text>
<text text-anchor="start" x="307.3352" y="-923.9" font-family="Arial" font-size="14.00" fill="#666666">[timestamp without time zone]</text>
<polygon fill="none" stroke="#000000" points="223,-882.5 223,-912.5 499,-912.5 499,-882.5 223,-882.5"/>
<text text-anchor="start" x="230" y="-893.9" font-family="Arial" font-size="14.00" fill="#000000">write_uid </text>
<text text-anchor="start" x="289.892" y="-893.9" font-family="Arial" font-size="14.00" fill="#666666">[integer]</text>
<polygon fill="none" stroke="#000000" points="223,-852.5 223,-882.5 499,-882.5 499,-852.5 223,-852.5"/>
<text text-anchor="start" x="230" y="-863.9" font-family="Arial" font-size="14.00" fill="#000000">write_date </text>
<text text-anchor="start" x="298.4586" y="-863.9" font-family="Arial" font-size="14.00" fill="#666666">[timestamp without time zone]</text>
<polygon fill="none" stroke="#000000" points="223,-822.5 223,-852.5 499,-852.5 499,-822.5 223,-822.5"/>
<text text-anchor="start" x="230" y="-833.9" font-family="Arial" font-size="14.00" fill="#000000">fetchmail_server_id </text>
<text text-anchor="start" x="355.2342" y="-833.9" font-family="Arial" font-size="14.00" fill="#666666">[integer]</text>
</g>
<!-- public.mail_mail_res_partner_rel&#45;&gt;public.mail_mail -->
<g id="edge1" class="edge">
<title>public.mail_mail_res_partner_rel:mail_mail_id&#45;&gt;public.mail_mail:id</title>
<path fill="none" stroke="#000000" d="M378.308,-2314.2659C297.933,-2252.1962 607.0816,-1317.5 499,-1317.5"/>
<polygon fill="#000000" stroke="#000000" points="378.5142,-2314.3346 386.5756,-2321.7686 383.2571,-2315.9173 388,-2317.5 388,-2317.5 388,-2317.5 383.2571,-2315.9173 389.4244,-2313.2314 378.5142,-2314.3346 378.5142,-2314.3346"/>
<text text-anchor="start" x="6.7895" y="-2327.5" font-family="Arial" font-size="10.00" fill="#000000">FOREIGN KEY (mail_mail_id) REFERENCES mail_mail(id) ON DELETE CASCADE</text>
</g>
<!-- public.res_partner -->
<g id="node3" class="node">
<title>public.res_partner</title>
<polygon fill="#efefef" stroke="transparent" points="603,-2112.5 603,-2147.5 971,-2147.5 971,-2112.5 603,-2112.5"/>
<polygon fill="none" stroke="#000000" points="603,-2112.5 603,-2147.5 971,-2147.5 971,-2112.5 603,-2112.5"/>
<text text-anchor="start" x="666.3605" y="-2125.3" font-family="Arial Bold" font-size="18.00" fill="#000000">public.res_partner</text>
<text text-anchor="start" x="810.3857" y="-2125.3" font-family="Arial" font-size="14.00" fill="#000000"> </text>
<text text-anchor="start" x="814.2763" y="-2125.3" font-family="Arial" font-size="14.00" fill="#666666">[BASE TABLE]</text>
<polygon fill="none" stroke="#000000" points="603,-2082.5 603,-2112.5 971,-2112.5 971,-2082.5 603,-2082.5"/>
<text text-anchor="start" x="610" y="-2093.9" font-family="Arial" font-size="14.00" fill="#000000">id </text>
<text text-anchor="start" x="624.7798" y="-2093.9" font-family="Arial" font-size="14.00" fill="#666666">[integer]</text>
<polygon fill="none" stroke="#000000" points="603,-2052.5 603,-2082.5 971,-2082.5 971,-2052.5 603,-2052.5"/>
<text text-anchor="start" x="610" y="-2063.9" font-family="Arial" font-size="14.00" fill="#000000">name </text>
<text text-anchor="start" x="648.899" y="-2063.9" font-family="Arial" font-size="14.00" fill="#666666">[varchar]</text>
<polygon fill="none" stroke="#000000" points="603,-2022.5 603,-2052.5 971,-2052.5 971,-2022.5 603,-2022.5"/>
<text text-anchor="start" x="610" y="-2033.9" font-family="Arial" font-size="14.00" fill="#000000">company_id </text>
<text text-anchor="start" x="689.3534" y="-2033.9" font-family="Arial" font-size="14.00" fill="#666666">[integer]</text>
<polygon fill="none" stroke="#000000" points="603,-1992.5 603,-2022.5 971,-2022.5 971,-1992.5 603,-1992.5"/>
<text text-anchor="start" x="610" y="-2003.9" font-family="Arial" font-size="14.00" fill="#000000">create_date </text>
<text text-anchor="start" x="687.8106" y="-2003.9" font-family="Arial" font-size="14.00" fill="#666666">[timestamp without time zone]</text>
<polygon fill="none" stroke="#000000" points="603,-1962.5 603,-1992.5 971,-1992.5 971,-1962.5 603,-1962.5"/>
<text text-anchor="start" x="610" y="-1973.9" font-family="Arial" font-size="14.00" fill="#000000">display_name </text>
<text text-anchor="start" x="700.2426" y="-1973.9" font-family="Arial" font-size="14.00" fill="#666666">[varchar]</text>
<polygon fill="none" stroke="#000000" points="603,-1932.5 603,-1962.5 971,-1962.5 971,-1932.5 603,-1932.5"/>
<text text-anchor="start" x="610" y="-1943.9" font-family="Arial" font-size="14.00" fill="#000000">date </text>
<text text-anchor="start" x="641.129" y="-1943.9" font-family="Arial" font-size="14.00" fill="#666666">[date]</text>
<polygon fill="none" stroke="#000000" points="603,-1902.5 603,-1932.5 971,-1932.5 971,-1902.5 603,-1902.5"/>
<text text-anchor="start" x="610" y="-1913.9" font-family="Arial" font-size="14.00" fill="#000000">title </text>
<text text-anchor="start" x="635.6676" y="-1913.9" font-family="Arial" font-size="14.00" fill="#666666">[integer]</text>
<polygon fill="none" stroke="#000000" points="603,-1872.5 603,-1902.5 971,-1902.5 971,-1872.5 603,-1872.5"/>
<text text-anchor="start" x="610" y="-1883.9" font-family="Arial" font-size="14.00" fill="#000000">parent_id </text>
<text text-anchor="start" x="672.244" y="-1883.9" font-family="Arial" font-size="14.00" fill="#666666">[integer]</text>
<polygon fill="none" stroke="#000000" points="603,-1842.5 603,-1872.5 971,-1872.5 971,-1842.5 603,-1842.5"/>
<text text-anchor="start" x="610" y="-1853.9" font-family="Arial" font-size="14.00" fill="#000000">ref </text>
<text text-anchor="start" x="630.2244" y="-1853.9" font-family="Arial" font-size="14.00" fill="#666666">[varchar]</text>
<polygon fill="none" stroke="#000000" points="603,-1812.5 603,-1842.5 971,-1842.5 971,-1812.5 603,-1812.5"/>
<text text-anchor="start" x="610" y="-1823.9" font-family="Arial" font-size="14.00" fill="#000000">lang </text>
<text text-anchor="start" x="640.345" y="-1823.9" font-family="Arial" font-size="14.00" fill="#666666">[varchar]</text>
<polygon fill="none" stroke="#000000" points="603,-1782.5 603,-1812.5 971,-1812.5 971,-1782.5 603,-1782.5"/>
<text text-anchor="start" x="610" y="-1793.9" font-family="Arial" font-size="14.00" fill="#000000">tz </text>
<text text-anchor="start" x="624.7812" y="-1793.9" font-family="Arial" font-size="14.00" fill="#666666">[varchar]</text>
<polygon fill="none" stroke="#000000" points="603,-1752.5 603,-1782.5 971,-1782.5 971,-1752.5 603,-1752.5"/>
<text text-anchor="start" x="610" y="-1763.9" font-family="Arial" font-size="14.00" fill="#000000">user_id </text>
<text text-anchor="start" x="659.7882" y="-1763.9" font-family="Arial" font-size="14.00" fill="#666666">[integer]</text>
<polygon fill="none" stroke="#000000" points="603,-1722.5 603,-1752.5 971,-1752.5 971,-1722.5 603,-1722.5"/>
<text text-anchor="start" x="610" y="-1733.9" font-family="Arial" font-size="14.00" fill="#000000">vat </text>
<text text-anchor="start" x="632.5638" y="-1733.9" font-family="Arial" font-size="14.00" fill="#666666">[varchar]</text>
<polygon fill="none" stroke="#000000" points="603,-1692.5 603,-1722.5 971,-1722.5 971,-1692.5 603,-1692.5"/>
<text text-anchor="start" x="610" y="-1703.9" font-family="Arial" font-size="14.00" fill="#000000">website </text>
<text text-anchor="start" x="661.3422" y="-1703.9" font-family="Arial" font-size="14.00" fill="#666666">[varchar]</text>
<polygon fill="none" stroke="#000000" points="603,-1662.5 603,-1692.5 971,-1692.5 971,-1662.5 603,-1662.5"/>
<text text-anchor="start" x="610" y="-1673.9" font-family="Arial" font-size="14.00" fill="#000000">comment </text>
<text text-anchor="start" x="671.4502" y="-1673.9" font-family="Arial" font-size="14.00" fill="#666666">[text]</text>
<polygon fill="none" stroke="#000000" points="603,-1632.5 603,-1662.5 971,-1662.5 971,-1632.5 603,-1632.5"/>
<text text-anchor="start" x="610" y="-1643.9" font-family="Arial" font-size="14.00" fill="#000000">credit_limit </text>
<text text-anchor="start" x="680.7672" y="-1643.9" font-family="Arial" font-size="14.00" fill="#666666">[double precision]</text>
<polygon fill="none" stroke="#000000" points="603,-1602.5 603,-1632.5 971,-1632.5 971,-1602.5 603,-1602.5"/>
<text text-anchor="start" x="610" y="-1613.9" font-family="Arial" font-size="14.00" fill="#000000">barcode </text>
<text text-anchor="start" x="664.4642" y="-1613.9" font-family="Arial" font-size="14.00" fill="#666666">[varchar]</text>
<polygon fill="none" stroke="#000000" points="603,-1572.5 603,-1602.5 971,-1602.5 971,-1572.5 603,-1572.5"/>
<text text-anchor="start" x="610" y="-1583.9" font-family="Arial" font-size="14.00" fill="#000000">active </text>
<text text-anchor="start" x="650.453" y="-1583.9" font-family="Arial" font-size="14.00" fill="#666666">[boolean]</text>
<polygon fill="none" stroke="#000000" points="603,-1542.5 603,-1572.5 971,-1572.5 971,-1542.5 603,-1542.5"/>
<text text-anchor="start" x="610" y="-1553.9" font-family="Arial" font-size="14.00" fill="#000000">customer </text>
<text text-anchor="start" x="671.4502" y="-1553.9" font-family="Arial" font-size="14.00" fill="#666666">[boolean]</text>
<polygon fill="none" stroke="#000000" points="603,-1512.5 603,-1542.5 971,-1542.5 971,-1512.5 603,-1512.5"/>
<text text-anchor="start" x="610" y="-1523.9" font-family="Arial" font-size="14.00" fill="#000000">supplier </text>
<text text-anchor="start" x="662.8948" y="-1523.9" font-family="Arial" font-size="14.00" fill="#666666">[boolean]</text>
<polygon fill="none" stroke="#000000" points="603,-1482.5 603,-1512.5 971,-1512.5 971,-1482.5 603,-1482.5"/>
<text text-anchor="start" x="610" y="-1493.9" font-family="Arial" font-size="14.00" fill="#000000">employee </text>
<text text-anchor="start" x="674.5708" y="-1493.9" font-family="Arial" font-size="14.00" fill="#666666">[boolean]</text>
<polygon fill="none" stroke="#000000" points="603,-1452.5 603,-1482.5 971,-1482.5 971,-1452.5 603,-1452.5"/>
<text text-anchor="start" x="610" y="-1463.9" font-family="Arial" font-size="14.00" fill="#000000">function </text>
<text text-anchor="start" x="662.9088" y="-1463.9" font-family="Arial" font-size="14.00" fill="#666666">[varchar]</text>
<polygon fill="none" stroke="#000000" points="603,-1422.5 603,-1452.5 971,-1452.5 971,-1422.5 603,-1422.5"/>
<text text-anchor="start" x="610" y="-1433.9" font-family="Arial" font-size="14.00" fill="#000000">type </text>
<text text-anchor="start" x="640.3464" y="-1433.9" font-family="Arial" font-size="14.00" fill="#666666">[varchar]</text>
<polygon fill="none" stroke="#000000" points="603,-1392.5 603,-1422.5 971,-1422.5 971,-1392.5 603,-1392.5"/>
<text text-anchor="start" x="610" y="-1403.9" font-family="Arial" font-size="14.00" fill="#000000">street </text>
<text text-anchor="start" x="648.8976" y="-1403.9" font-family="Arial" font-size="14.00" fill="#666666">[varchar]</text>
<polygon fill="none" stroke="#000000" points="603,-1362.5 603,-1392.5 971,-1392.5 971,-1362.5 603,-1362.5"/>
<text text-anchor="start" x="610" y="-1373.9" font-family="Arial" font-size="14.00" fill="#000000">street2 </text>
<text text-anchor="start" x="656.6802" y="-1373.9" font-family="Arial" font-size="14.00" fill="#666666">[varchar]</text>
<polygon fill="none" stroke="#000000" points="603,-1332.5 603,-1362.5 971,-1362.5 971,-1332.5 603,-1332.5"/>
<text text-anchor="start" x="610" y="-1343.9" font-family="Arial" font-size="14.00" fill="#000000">zip </text>
<text text-anchor="start" x="631.7798" y="-1343.9" font-family="Arial" font-size="14.00" fill="#666666">[varchar]</text>
<polygon fill="none" stroke="#000000" points="603,-1302.5 603,-1332.5 971,-1332.5 971,-1302.5 603,-1302.5"/>
<text text-anchor="start" x="610" y="-1313.9" font-family="Arial" font-size="14.00" fill="#000000">city </text>
<text text-anchor="start" x="634.8878" y="-1313.9" font-family="Arial" font-size="14.00" fill="#666666">[varchar]</text>
<polygon fill="none" stroke="#000000" points="603,-1272.5 603,-1302.5 971,-1302.5 971,-1272.5 603,-1272.5"/>
<text text-anchor="start" x="610" y="-1283.9" font-family="Arial" font-size="14.00" fill="#000000">state_id </text>
<text text-anchor="start" x="662.9088" y="-1283.9" font-family="Arial" font-size="14.00" fill="#666666">[integer]</text>
<polygon fill="none" stroke="#000000" points="603,-1242.5 603,-1272.5 971,-1272.5 971,-1242.5 603,-1242.5"/>
<text text-anchor="start" x="610" y="-1253.9" font-family="Arial" font-size="14.00" fill="#000000">country_id </text>
<text text-anchor="start" x="678.4614" y="-1253.9" font-family="Arial" font-size="14.00" fill="#666666">[integer]</text>
<polygon fill="none" stroke="#000000" points="603,-1212.5 603,-1242.5 971,-1242.5 971,-1212.5 603,-1212.5"/>
<text text-anchor="start" x="610" y="-1223.9" font-family="Arial" font-size="14.00" fill="#000000">email </text>
<text text-anchor="start" x="647.3296" y="-1223.9" font-family="Arial" font-size="14.00" fill="#666666">[varchar]</text>
<polygon fill="none" stroke="#000000" points="603,-1182.5 603,-1212.5 971,-1212.5 971,-1182.5 603,-1182.5"/>
<text text-anchor="start" x="610" y="-1193.9" font-family="Arial" font-size="14.00" fill="#000000">phone </text>
<text text-anchor="start" x="652.8036" y="-1193.9" font-family="Arial" font-size="14.00" fill="#666666">[varchar]</text>
<polygon fill="none" stroke="#000000" points="603,-1152.5 603,-1182.5 971,-1182.5 971,-1152.5 603,-1152.5"/>
<text text-anchor="start" x="610" y="-1163.9" font-family="Arial" font-size="14.00" fill="#000000">mobile </text>
<text text-anchor="start" x="655.1122" y="-1163.9" font-family="Arial" font-size="14.00" fill="#666666">[varchar]</text>
<polygon fill="none" stroke="#000000" points="603,-1122.5 603,-1152.5 971,-1152.5 971,-1122.5 603,-1122.5"/>
<text text-anchor="start" x="610" y="-1133.9" font-family="Arial" font-size="14.00" fill="#000000">is_company </text>
<text text-anchor="start" x="688.5708" y="-1133.9" font-family="Arial" font-size="14.00" fill="#666666">[boolean]</text>
<polygon fill="none" stroke="#000000" points="603,-1092.5 603,-1122.5 971,-1122.5 971,-1092.5 603,-1092.5"/>
<text text-anchor="start" x="610" y="-1103.9" font-family="Arial" font-size="14.00" fill="#000000">industry_id </text>
<text text-anchor="start" x="681.568" y="-1103.9" font-family="Arial" font-size="14.00" fill="#666666">[integer]</text>
<polygon fill="none" stroke="#000000" points="603,-1062.5 603,-1092.5 971,-1092.5 971,-1062.5 603,-1062.5"/>
<text text-anchor="start" x="610" y="-1073.9" font-family="Arial" font-size="14.00" fill="#000000">color </text>
<text text-anchor="start" x="644.223" y="-1073.9" font-family="Arial" font-size="14.00" fill="#666666">[integer]</text>
<polygon fill="none" stroke="#000000" points="603,-1032.5 603,-1062.5 971,-1062.5 971,-1032.5 603,-1032.5"/>
<text text-anchor="start" x="610" y="-1043.9" font-family="Arial" font-size="14.00" fill="#000000">partner_share </text>
<text text-anchor="start" x="701.0238" y="-1043.9" font-family="Arial" font-size="14.00" fill="#666666">[boolean]</text>
<polygon fill="none" stroke="#000000" points="603,-1002.5 603,-1032.5 971,-1032.5 971,-1002.5 603,-1002.5"/>
<text text-anchor="start" x="610" y="-1013.9" font-family="Arial" font-size="14.00" fill="#000000">commercial_partner_id </text>
<text text-anchor="start" x="756.23" y="-1013.9" font-family="Arial" font-size="14.00" fill="#666666">[integer]</text>
<polygon fill="none" stroke="#000000" points="603,-972.5 603,-1002.5 971,-1002.5 971,-972.5 603,-972.5"/>
<text text-anchor="start" x="610" y="-983.9" font-family="Arial" font-size="14.00" fill="#000000">commercial_company_name </text>
<text text-anchor="start" x="792.798" y="-983.9" font-family="Arial" font-size="14.00" fill="#666666">[varchar]</text>
<polygon fill="none" stroke="#000000" points="603,-942.5 603,-972.5 971,-972.5 971,-942.5 603,-942.5"/>
<text text-anchor="start" x="610" y="-953.9" font-family="Arial" font-size="14.00" fill="#000000">company_name </text>
<text text-anchor="start" x="713.4726" y="-953.9" font-family="Arial" font-size="14.00" fill="#666666">[varchar]</text>
<polygon fill="none" stroke="#000000" points="603,-912.5 603,-942.5 971,-942.5 971,-912.5 603,-912.5"/>
<text text-anchor="start" x="610" y="-923.9" font-family="Arial" font-size="14.00" fill="#000000">create_uid </text>
<text text-anchor="start" x="679.244" y="-923.9" font-family="Arial" font-size="14.00" fill="#666666">[integer]</text>
<polygon fill="none" stroke="#000000" points="603,-882.5 603,-912.5 971,-912.5 971,-882.5 603,-882.5"/>
<text text-anchor="start" x="610" y="-893.9" font-family="Arial" font-size="14.00" fill="#000000">write_uid </text>
<text text-anchor="start" x="669.892" y="-893.9" font-family="Arial" font-size="14.00" fill="#666666">[integer]</text>
<polygon fill="none" stroke="#000000" points="603,-852.5 603,-882.5 971,-882.5 971,-852.5 603,-852.5"/>
<text text-anchor="start" x="610" y="-863.9" font-family="Arial" font-size="14.00" fill="#000000">write_date </text>
<text text-anchor="start" x="678.4586" y="-863.9" font-family="Arial" font-size="14.00" fill="#666666">[timestamp without time zone]</text>
<polygon fill="none" stroke="#000000" points="603,-822.5 603,-852.5 971,-852.5 971,-822.5 603,-822.5"/>
<text text-anchor="start" x="610" y="-833.9" font-family="Arial" font-size="14.00" fill="#000000">message_main_attachment_id </text>
<text text-anchor="start" x="804.4964" y="-833.9" font-family="Arial" font-size="14.00" fill="#666666">[integer]</text>
<polygon fill="none" stroke="#000000" points="603,-792.5 603,-822.5 971,-822.5 971,-792.5 603,-792.5"/>
<text text-anchor="start" x="610" y="-803.9" font-family="Arial" font-size="14.00" fill="#000000">message_bounce </text>
<text text-anchor="start" x="724.3772" y="-803.9" font-family="Arial" font-size="14.00" fill="#666666">[integer]</text>
<polygon fill="none" stroke="#000000" points="603,-762.5 603,-792.5 971,-792.5 971,-762.5 603,-762.5"/>
<text text-anchor="start" x="610" y="-773.9" font-family="Arial" font-size="14.00" fill="#000000">signup_token </text>
<text text-anchor="start" x="697.1486" y="-773.9" font-family="Arial" font-size="14.00" fill="#666666">[varchar]</text>
<polygon fill="none" stroke="#000000" points="603,-732.5 603,-762.5 971,-762.5 971,-732.5 603,-732.5"/>
<text text-anchor="start" x="610" y="-743.9" font-family="Arial" font-size="14.00" fill="#000000">signup_type </text>
<text text-anchor="start" x="689.366" y="-743.9" font-family="Arial" font-size="14.00" fill="#666666">[varchar]</text>
<polygon fill="none" stroke="#000000" points="603,-702.5 603,-732.5 971,-732.5 971,-702.5 603,-702.5"/>
<text text-anchor="start" x="610" y="-713.9" font-family="Arial" font-size="14.00" fill="#000000">signup_expiration </text>
<text text-anchor="start" x="723.5876" y="-713.9" font-family="Arial" font-size="14.00" fill="#666666">[timestamp without time zone]</text>
<polygon fill="none" stroke="#000000" points="603,-672.5 603,-702.5 971,-702.5 971,-672.5 603,-672.5"/>
<text text-anchor="start" x="610" y="-683.9" font-family="Arial" font-size="14.00" fill="#000000">calendar_last_notif_ack </text>
<text text-anchor="start" x="760.934" y="-683.9" font-family="Arial" font-size="14.00" fill="#666666">[timestamp without time zone]</text>
<polygon fill="none" stroke="#000000" points="603,-642.5 603,-672.5 971,-672.5 971,-642.5 603,-642.5"/>
<text text-anchor="start" x="610" y="-653.9" font-family="Arial" font-size="14.00" fill="#000000">partner_gid </text>
<text text-anchor="start" x="684.6872" y="-653.9" font-family="Arial" font-size="14.00" fill="#666666">[integer]</text>
<polygon fill="none" stroke="#000000" points="603,-612.5 603,-642.5 971,-642.5 971,-612.5 603,-612.5"/>
<text text-anchor="start" x="610" y="-623.9" font-family="Arial" font-size="14.00" fill="#000000">additional_info </text>
<text text-anchor="start" x="704.1416" y="-623.9" font-family="Arial" font-size="14.00" fill="#666666">[varchar]</text>
<polygon fill="none" stroke="#000000" points="603,-582.5 603,-612.5 971,-612.5 971,-582.5 603,-582.5"/>
<text text-anchor="start" x="610" y="-593.9" font-family="Arial" font-size="14.00" fill="#000000">team_id </text>
<text text-anchor="start" x="663.6788" y="-593.9" font-family="Arial" font-size="14.00" fill="#666666">[integer]</text>
<polygon fill="none" stroke="#000000" points="603,-552.5 603,-582.5 971,-582.5 971,-552.5 603,-552.5"/>
<text text-anchor="start" x="610" y="-563.9" font-family="Arial" font-size="14.00" fill="#000000">website_id </text>
<text text-anchor="start" x="680.014" y="-563.9" font-family="Arial" font-size="14.00" fill="#666666">[integer]</text>
<polygon fill="none" stroke="#000000" points="603,-522.5 603,-552.5 971,-552.5 971,-522.5 603,-522.5"/>
<text text-anchor="start" x="610" y="-533.9" font-family="Arial" font-size="14.00" fill="#000000">debit_limit </text>
<text text-anchor="start" x="676.8892" y="-533.9" font-family="Arial" font-size="14.00" fill="#666666">[numeric]</text>
<polygon fill="none" stroke="#000000" points="603,-492.5 603,-522.5 971,-522.5 971,-492.5 603,-492.5"/>
<text text-anchor="start" x="609.6326" y="-503.9" font-family="Arial" font-size="14.00" fill="#000000">last_time_entries_checked </text>
<text text-anchor="start" x="779.2272" y="-503.9" font-family="Arial" font-size="14.00" fill="#666666">[timestamp without time zone]</text>
<polygon fill="none" stroke="#000000" points="603,-462.5 603,-492.5 971,-492.5 971,-462.5 603,-462.5"/>
<text text-anchor="start" x="610" y="-473.9" font-family="Arial" font-size="14.00" fill="#000000">invoice_warn </text>
<text text-anchor="start" x="695.5666" y="-473.9" font-family="Arial" font-size="14.00" fill="#666666">[varchar]</text>
<polygon fill="none" stroke="#000000" points="603,-432.5 603,-462.5 971,-462.5 971,-432.5 603,-432.5"/>
<text text-anchor="start" x="610" y="-443.9" font-family="Arial" font-size="14.00" fill="#000000">invoice_warn_msg </text>
<text text-anchor="start" x="729.7924" y="-443.9" font-family="Arial" font-size="14.00" fill="#666666">[text]</text>
<polygon fill="none" stroke="#000000" points="603,-402.5 603,-432.5 971,-432.5 971,-402.5 603,-402.5"/>
<text text-anchor="start" x="610" y="-413.9" font-family="Arial" font-size="14.00" fill="#000000">sale_warn </text>
<text text-anchor="start" x="677.6774" y="-413.9" font-family="Arial" font-size="14.00" fill="#666666">[varchar]</text>
<polygon fill="none" stroke="#000000" points="603,-372.5 603,-402.5 971,-402.5 971,-372.5 603,-372.5"/>
<text text-anchor="start" x="610" y="-383.9" font-family="Arial" font-size="14.00" fill="#000000">sale_warn_msg </text>
<text text-anchor="start" x="711.9032" y="-383.9" font-family="Arial" font-size="14.00" fill="#666666">[text]</text>
<polygon fill="none" stroke="#000000" points="603,-342.5 603,-372.5 971,-372.5 971,-342.5 603,-342.5"/>
<text text-anchor="start" x="610" y="-353.9" font-family="Arial" font-size="14.00" fill="#000000">picking_warn </text>
<text text-anchor="start" x="695.5666" y="-353.9" font-family="Arial" font-size="14.00" fill="#666666">[varchar]</text>
<polygon fill="none" stroke="#000000" points="603,-312.5 603,-342.5 971,-342.5 971,-312.5 603,-312.5"/>
<text text-anchor="start" x="610" y="-323.9" font-family="Arial" font-size="14.00" fill="#000000">picking_warn_msg </text>
<text text-anchor="start" x="729.7924" y="-323.9" font-family="Arial" font-size="14.00" fill="#666666">[text]</text>
<polygon fill="none" stroke="#000000" points="603,-282.5 603,-312.5 971,-312.5 971,-282.5 603,-282.5"/>
<text text-anchor="start" x="610" y="-293.9" font-family="Arial" font-size="14.00" fill="#000000">purchase_warn </text>
<text text-anchor="start" x="709.5792" y="-293.9" font-family="Arial" font-size="14.00" fill="#666666">[varchar]</text>
<polygon fill="none" stroke="#000000" points="603,-252.5 603,-282.5 971,-282.5 971,-252.5 603,-252.5"/>
<text text-anchor="start" x="610" y="-263.9" font-family="Arial" font-size="14.00" fill="#000000">purchase_warn_msg </text>
<text text-anchor="start" x="743.805" y="-263.9" font-family="Arial" font-size="14.00" fill="#666666">[text]</text>
<polygon fill="none" stroke="#000000" points="603,-222.5 603,-252.5 971,-252.5 971,-222.5 603,-222.5"/>
<text text-anchor="start" x="610" y="-233.9" font-family="Arial" font-size="14.00" fill="#000000">is_published </text>
<text text-anchor="start" x="691.6886" y="-233.9" font-family="Arial" font-size="14.00" fill="#666666">[boolean]</text>
<polygon fill="none" stroke="#000000" points="603,-192.5 603,-222.5 971,-222.5 971,-192.5 603,-192.5"/>
<text text-anchor="start" x="610" y="-203.9" font-family="Arial" font-size="14.00" fill="#000000">website_meta_title </text>
<text text-anchor="start" x="729.8008" y="-203.9" font-family="Arial" font-size="14.00" fill="#666666">[varchar]</text>
<polygon fill="none" stroke="#000000" points="603,-162.5 603,-192.5 971,-192.5 971,-162.5 603,-162.5"/>
<text text-anchor="start" x="610" y="-173.9" font-family="Arial" font-size="14.00" fill="#000000">website_meta_description </text>
<text text-anchor="start" x="775.7012" y="-173.9" font-family="Arial" font-size="14.00" fill="#666666">[text]</text>
<polygon fill="none" stroke="#000000" points="603,-132.5 603,-162.5 971,-162.5 971,-132.5 603,-132.5"/>
<text text-anchor="start" x="610" y="-143.9" font-family="Arial" font-size="14.00" fill="#000000">website_meta_keywords </text>
<text text-anchor="start" x="767.1388" y="-143.9" font-family="Arial" font-size="14.00" fill="#666666">[varchar]</text>
<polygon fill="none" stroke="#000000" points="603,-102.5 603,-132.5 971,-132.5 971,-102.5 603,-102.5"/>
<text text-anchor="start" x="610" y="-113.9" font-family="Arial" font-size="14.00" fill="#000000">website_meta_og_img </text>
<text text-anchor="start" x="753.9214" y="-113.9" font-family="Arial" font-size="14.00" fill="#666666">[varchar]</text>
<polygon fill="none" stroke="#000000" points="603,-72.5 603,-102.5 971,-102.5 971,-72.5 603,-72.5"/>
<text text-anchor="start" x="610" y="-83.9" font-family="Arial" font-size="14.00" fill="#000000">website_description </text>
<text text-anchor="start" x="736.8022" y="-83.9" font-family="Arial" font-size="14.00" fill="#666666">[text]</text>
<polygon fill="none" stroke="#000000" points="603,-42.5 603,-72.5 971,-72.5 971,-42.5 603,-42.5"/>
<text text-anchor="start" x="610" y="-53.9" font-family="Arial" font-size="14.00" fill="#000000">website_short_description </text>
<text text-anchor="start" x="775.7012" y="-53.9" font-family="Arial" font-size="14.00" fill="#666666">[text]</text>
</g>
<!-- public.mail_mail_res_partner_rel&#45;&gt;public.res_partner -->
<g id="edge2" class="edge">
<title>public.mail_mail_res_partner_rel:res_partner_id&#45;&gt;public.res_partner:id</title>
<path fill="none" stroke="#000000" d="M769.0076,-2284.8308C782.5564,-2275.6192 773.1241,-2244.7548 759,-2227 714.702,-2171.3152 647.298,-2246.6848 603,-2191 577.1295,-2158.4795 561.4444,-2097.5 603,-2097.5"/>
<polygon fill="#000000" stroke="#000000" points="768.6622,-2284.9229 757.8403,-2283.152 763.8311,-2286.2114 759,-2287.5 759,-2287.5 759,-2287.5 763.8311,-2286.2114 760.1597,-2291.848 768.6622,-2284.9229 768.6622,-2284.9229"/>
<text text-anchor="start" x="765.8805" y="-2297.5" font-family="Arial" font-size="10.00" fill="#000000">FOREIGN KEY (res_partner_id) REFERENCES res_partner(id) ON DELETE CASCADE</text>
</g>
</g>
</svg>
