<?xml version="1.0" encoding="UTF-8" standalone="no"?>
<!DOCTYPE svg PUBLIC "-//W3C//DTD SVG 1.1//EN"
 "http://www.w3.org/Graphics/SVG/1.1/DTD/svg11.dtd">
<!-- Generated by graphviz version 2.40.1 (20161225.0304)
 -->
<!-- Title: public.blog_tag Pages: 1 -->
<svg width="1160pt" height="1499pt"
 viewBox="0.00 0.00 1159.50 1499.00" xmlns="http://www.w3.org/2000/svg" xmlns:xlink="http://www.w3.org/1999/xlink">
<g id="graph0" class="graph" transform="scale(1 1) rotate(0) translate(4 1495)">
<title>public.blog_tag</title>
<polygon fill="#ffffff" stroke="transparent" points="-4,4 -4,-1495 1155.5,-1495 1155.5,4 -4,4"/>
<!-- public.blog_tag -->
<g id="node1" class="node">
<title>public.blog_tag</title>
<polygon fill="#efefef" stroke="transparent" points="458.5,-1192.5 458.5,-1227.5 734.5,-1227.5 734.5,-1192.5 458.5,-1192.5"/>
<polygon fill="none" stroke="#000000" points="458.5,-1192.5 458.5,-1227.5 734.5,-1227.5 734.5,-1192.5 458.5,-1192.5"/>
<text text-anchor="start" x="487.3517" y="-1205.3" font-family="Arial Bold" font-size="18.00" fill="#000000">public.blog_tag</text>
<text text-anchor="start" x="608.3945" y="-1205.3" font-family="Arial" font-size="14.00" fill="#000000"> </text>
<text text-anchor="start" x="612.2851" y="-1205.3" font-family="Arial" font-size="14.00" fill="#666666">[BASE TABLE]</text>
<polygon fill="none" stroke="#000000" points="458.5,-1162.5 458.5,-1192.5 734.5,-1192.5 734.5,-1162.5 458.5,-1162.5"/>
<text text-anchor="start" x="465.5" y="-1173.9" font-family="Arial" font-size="14.00" fill="#000000">id </text>
<text text-anchor="start" x="480.2798" y="-1173.9" font-family="Arial" font-size="14.00" fill="#666666">[integer]</text>
<polygon fill="none" stroke="#000000" points="458.5,-1132.5 458.5,-1162.5 734.5,-1162.5 734.5,-1132.5 458.5,-1132.5"/>
<text text-anchor="start" x="465.5" y="-1143.9" font-family="Arial" font-size="14.00" fill="#000000">website_meta_title </text>
<text text-anchor="start" x="585.3008" y="-1143.9" font-family="Arial" font-size="14.00" fill="#666666">[varchar]</text>
<polygon fill="none" stroke="#000000" points="458.5,-1102.5 458.5,-1132.5 734.5,-1132.5 734.5,-1102.5 458.5,-1102.5"/>
<text text-anchor="start" x="465.5" y="-1113.9" font-family="Arial" font-size="14.00" fill="#000000">website_meta_description </text>
<text text-anchor="start" x="631.2012" y="-1113.9" font-family="Arial" font-size="14.00" fill="#666666">[text]</text>
<polygon fill="none" stroke="#000000" points="458.5,-1072.5 458.5,-1102.5 734.5,-1102.5 734.5,-1072.5 458.5,-1072.5"/>
<text text-anchor="start" x="465.5" y="-1083.9" font-family="Arial" font-size="14.00" fill="#000000">website_meta_keywords </text>
<text text-anchor="start" x="622.6388" y="-1083.9" font-family="Arial" font-size="14.00" fill="#666666">[varchar]</text>
<polygon fill="none" stroke="#000000" points="458.5,-1042.5 458.5,-1072.5 734.5,-1072.5 734.5,-1042.5 458.5,-1042.5"/>
<text text-anchor="start" x="465.5" y="-1053.9" font-family="Arial" font-size="14.00" fill="#000000">website_meta_og_img </text>
<text text-anchor="start" x="609.4214" y="-1053.9" font-family="Arial" font-size="14.00" fill="#666666">[varchar]</text>
<polygon fill="none" stroke="#000000" points="458.5,-1012.5 458.5,-1042.5 734.5,-1042.5 734.5,-1012.5 458.5,-1012.5"/>
<text text-anchor="start" x="465.5" y="-1023.9" font-family="Arial" font-size="14.00" fill="#000000">name </text>
<text text-anchor="start" x="504.399" y="-1023.9" font-family="Arial" font-size="14.00" fill="#666666">[varchar]</text>
<polygon fill="none" stroke="#000000" points="458.5,-982.5 458.5,-1012.5 734.5,-1012.5 734.5,-982.5 458.5,-982.5"/>
<text text-anchor="start" x="465.5" y="-993.9" font-family="Arial" font-size="14.00" fill="#000000">category_id </text>
<text text-anchor="start" x="541.744" y="-993.9" font-family="Arial" font-size="14.00" fill="#666666">[integer]</text>
<polygon fill="none" stroke="#000000" points="458.5,-952.5 458.5,-982.5 734.5,-982.5 734.5,-952.5 458.5,-952.5"/>
<text text-anchor="start" x="465.5" y="-963.9" font-family="Arial" font-size="14.00" fill="#000000">create_uid </text>
<text text-anchor="start" x="534.744" y="-963.9" font-family="Arial" font-size="14.00" fill="#666666">[integer]</text>
<polygon fill="none" stroke="#000000" points="458.5,-922.5 458.5,-952.5 734.5,-952.5 734.5,-922.5 458.5,-922.5"/>
<text text-anchor="start" x="465.0246" y="-933.9" font-family="Arial" font-size="14.00" fill="#000000">create_date </text>
<text text-anchor="start" x="542.8352" y="-933.9" font-family="Arial" font-size="14.00" fill="#666666">[timestamp without time zone]</text>
<polygon fill="none" stroke="#000000" points="458.5,-892.5 458.5,-922.5 734.5,-922.5 734.5,-892.5 458.5,-892.5"/>
<text text-anchor="start" x="465.5" y="-903.9" font-family="Arial" font-size="14.00" fill="#000000">write_uid </text>
<text text-anchor="start" x="525.392" y="-903.9" font-family="Arial" font-size="14.00" fill="#666666">[integer]</text>
<polygon fill="none" stroke="#000000" points="458.5,-862.5 458.5,-892.5 734.5,-892.5 734.5,-862.5 458.5,-862.5"/>
<text text-anchor="start" x="465.5" y="-873.9" font-family="Arial" font-size="14.00" fill="#000000">write_date </text>
<text text-anchor="start" x="533.9586" y="-873.9" font-family="Arial" font-size="14.00" fill="#666666">[timestamp without time zone]</text>
<polygon fill="none" stroke="#000000" stroke-width="3" points="457,-861.5 457,-1229.5 736,-1229.5 736,-861.5 457,-861.5"/>
</g>
<!-- public.blog_tag_category -->
<g id="node3" class="node">
<title>public.blog_tag_category</title>
<polygon fill="#efefef" stroke="transparent" points="43.5,-462.5 43.5,-497.5 354.5,-497.5 354.5,-462.5 43.5,-462.5"/>
<polygon fill="none" stroke="#000000" points="43.5,-462.5 43.5,-497.5 354.5,-497.5 354.5,-462.5 43.5,-462.5"/>
<text text-anchor="start" x="50.339" y="-475.3" font-family="Arial Bold" font-size="18.00" fill="#000000">public.blog_tag_category</text>
<text text-anchor="start" x="250.4072" y="-475.3" font-family="Arial" font-size="14.00" fill="#000000"> </text>
<text text-anchor="start" x="254.2978" y="-475.3" font-family="Arial" font-size="14.00" fill="#666666">[BASE TABLE]</text>
<polygon fill="none" stroke="#000000" points="43.5,-432.5 43.5,-462.5 354.5,-462.5 354.5,-432.5 43.5,-432.5"/>
<text text-anchor="start" x="50.5" y="-443.9" font-family="Arial" font-size="14.00" fill="#000000">id </text>
<text text-anchor="start" x="65.2798" y="-443.9" font-family="Arial" font-size="14.00" fill="#666666">[integer]</text>
<polygon fill="none" stroke="#000000" points="43.5,-402.5 43.5,-432.5 354.5,-432.5 354.5,-402.5 43.5,-402.5"/>
<text text-anchor="start" x="50.5" y="-413.9" font-family="Arial" font-size="14.00" fill="#000000">name </text>
<text text-anchor="start" x="89.399" y="-413.9" font-family="Arial" font-size="14.00" fill="#666666">[varchar]</text>
<polygon fill="none" stroke="#000000" points="43.5,-372.5 43.5,-402.5 354.5,-402.5 354.5,-372.5 43.5,-372.5"/>
<text text-anchor="start" x="50.5" y="-383.9" font-family="Arial" font-size="14.00" fill="#000000">create_uid </text>
<text text-anchor="start" x="119.744" y="-383.9" font-family="Arial" font-size="14.00" fill="#666666">[integer]</text>
<polygon fill="none" stroke="#000000" points="43.5,-342.5 43.5,-372.5 354.5,-372.5 354.5,-342.5 43.5,-342.5"/>
<text text-anchor="start" x="50.5" y="-353.9" font-family="Arial" font-size="14.00" fill="#000000">create_date </text>
<text text-anchor="start" x="128.3106" y="-353.9" font-family="Arial" font-size="14.00" fill="#666666">[timestamp without time zone]</text>
<polygon fill="none" stroke="#000000" points="43.5,-312.5 43.5,-342.5 354.5,-342.5 354.5,-312.5 43.5,-312.5"/>
<text text-anchor="start" x="50.5" y="-323.9" font-family="Arial" font-size="14.00" fill="#000000">write_uid </text>
<text text-anchor="start" x="110.392" y="-323.9" font-family="Arial" font-size="14.00" fill="#666666">[integer]</text>
<polygon fill="none" stroke="#000000" points="43.5,-282.5 43.5,-312.5 354.5,-312.5 354.5,-282.5 43.5,-282.5"/>
<text text-anchor="start" x="50.5" y="-293.9" font-family="Arial" font-size="14.00" fill="#000000">write_date </text>
<text text-anchor="start" x="118.9586" y="-293.9" font-family="Arial" font-size="14.00" fill="#666666">[timestamp without time zone]</text>
</g>
<!-- public.blog_tag&#45;&gt;public.blog_tag_category -->
<g id="edge2" class="edge">
<title>public.blog_tag:category_id&#45;&gt;public.blog_tag_category:id</title>
<path fill="none" stroke="#000000" d="M448.4079,-997.0389C364.2104,-988.8992 425.0006,-874.5717 406.5,-781 391.9517,-707.4178 429.5066,-447.5 354.5,-447.5"/>
<polygon fill="#000000" stroke="#000000" points="448.5104,-997.0435 458.2946,-1001.9953 453.5052,-997.2718 458.5,-997.5 458.5,-997.5 458.5,-997.5 453.5052,-997.2718 458.7054,-993.0047 448.5104,-997.0435 448.5104,-997.0435"/>
<text text-anchor="start" x="41.4765" y="-1007.5" font-family="Arial" font-size="10.00" fill="#000000">FOREIGN KEY (category_id) REFERENCES blog_tag_category(id) ON DELETE SET NULL</text>
</g>
<!-- public.res_users -->
<g id="node4" class="node">
<title>public.res_users</title>
<polygon fill="#efefef" stroke="transparent" points="458.5,-702.5 458.5,-737.5 734.5,-737.5 734.5,-702.5 458.5,-702.5"/>
<polygon fill="none" stroke="#000000" points="458.5,-702.5 458.5,-737.5 734.5,-737.5 734.5,-702.5 458.5,-702.5"/>
<text text-anchor="start" x="482.3639" y="-715.3" font-family="Arial Bold" font-size="18.00" fill="#000000">public.res_users</text>
<text text-anchor="start" x="613.3823" y="-715.3" font-family="Arial" font-size="14.00" fill="#000000"> </text>
<text text-anchor="start" x="617.2729" y="-715.3" font-family="Arial" font-size="14.00" fill="#666666">[BASE TABLE]</text>
<polygon fill="none" stroke="#000000" points="458.5,-672.5 458.5,-702.5 734.5,-702.5 734.5,-672.5 458.5,-672.5"/>
<text text-anchor="start" x="465.5" y="-683.9" font-family="Arial" font-size="14.00" fill="#000000">id </text>
<text text-anchor="start" x="480.2798" y="-683.9" font-family="Arial" font-size="14.00" fill="#666666">[integer]</text>
<polygon fill="none" stroke="#000000" points="458.5,-642.5 458.5,-672.5 734.5,-672.5 734.5,-642.5 458.5,-642.5"/>
<text text-anchor="start" x="465.5" y="-653.9" font-family="Arial" font-size="14.00" fill="#000000">active </text>
<text text-anchor="start" x="505.953" y="-653.9" font-family="Arial" font-size="14.00" fill="#666666">[boolean]</text>
<polygon fill="none" stroke="#000000" points="458.5,-612.5 458.5,-642.5 734.5,-642.5 734.5,-612.5 458.5,-612.5"/>
<text text-anchor="start" x="465.5" y="-623.9" font-family="Arial" font-size="14.00" fill="#000000">login </text>
<text text-anchor="start" x="498.9516" y="-623.9" font-family="Arial" font-size="14.00" fill="#666666">[varchar]</text>
<polygon fill="none" stroke="#000000" points="458.5,-582.5 458.5,-612.5 734.5,-612.5 734.5,-582.5 458.5,-582.5"/>
<text text-anchor="start" x="465.5" y="-593.9" font-family="Arial" font-size="14.00" fill="#000000">password </text>
<text text-anchor="start" x="529.2882" y="-593.9" font-family="Arial" font-size="14.00" fill="#666666">[varchar]</text>
<polygon fill="none" stroke="#000000" points="458.5,-552.5 458.5,-582.5 734.5,-582.5 734.5,-552.5 458.5,-552.5"/>
<text text-anchor="start" x="465.5" y="-563.9" font-family="Arial" font-size="14.00" fill="#000000">company_id </text>
<text text-anchor="start" x="544.8534" y="-563.9" font-family="Arial" font-size="14.00" fill="#666666">[integer]</text>
<polygon fill="none" stroke="#000000" points="458.5,-522.5 458.5,-552.5 734.5,-552.5 734.5,-522.5 458.5,-522.5"/>
<text text-anchor="start" x="465.5" y="-533.9" font-family="Arial" font-size="14.00" fill="#000000">partner_id </text>
<text text-anchor="start" x="532.4046" y="-533.9" font-family="Arial" font-size="14.00" fill="#666666">[integer]</text>
<polygon fill="none" stroke="#000000" points="458.5,-492.5 458.5,-522.5 734.5,-522.5 734.5,-492.5 458.5,-492.5"/>
<text text-anchor="start" x="465.0246" y="-503.9" font-family="Arial" font-size="14.00" fill="#000000">create_date </text>
<text text-anchor="start" x="542.8352" y="-503.9" font-family="Arial" font-size="14.00" fill="#666666">[timestamp without time zone]</text>
<polygon fill="none" stroke="#000000" points="458.5,-462.5 458.5,-492.5 734.5,-492.5 734.5,-462.5 458.5,-462.5"/>
<text text-anchor="start" x="465.5" y="-473.9" font-family="Arial" font-size="14.00" fill="#000000">signature </text>
<text text-anchor="start" x="526.9614" y="-473.9" font-family="Arial" font-size="14.00" fill="#666666">[text]</text>
<polygon fill="none" stroke="#000000" points="458.5,-432.5 458.5,-462.5 734.5,-462.5 734.5,-432.5 458.5,-432.5"/>
<text text-anchor="start" x="465.5" y="-443.9" font-family="Arial" font-size="14.00" fill="#000000">action_id </text>
<text text-anchor="start" x="525.4074" y="-443.9" font-family="Arial" font-size="14.00" fill="#666666">[integer]</text>
<polygon fill="none" stroke="#000000" points="458.5,-402.5 458.5,-432.5 734.5,-432.5 734.5,-402.5 458.5,-402.5"/>
<text text-anchor="start" x="465.5" y="-413.9" font-family="Arial" font-size="14.00" fill="#000000">share </text>
<text text-anchor="start" x="504.399" y="-413.9" font-family="Arial" font-size="14.00" fill="#666666">[boolean]</text>
<polygon fill="none" stroke="#000000" points="458.5,-372.5 458.5,-402.5 734.5,-402.5 734.5,-372.5 458.5,-372.5"/>
<text text-anchor="start" x="465.5" y="-383.9" font-family="Arial" font-size="14.00" fill="#000000">create_uid </text>
<text text-anchor="start" x="534.744" y="-383.9" font-family="Arial" font-size="14.00" fill="#666666">[integer]</text>
<polygon fill="none" stroke="#000000" points="458.5,-342.5 458.5,-372.5 734.5,-372.5 734.5,-342.5 458.5,-342.5"/>
<text text-anchor="start" x="465.5" y="-353.9" font-family="Arial" font-size="14.00" fill="#000000">write_uid </text>
<text text-anchor="start" x="525.392" y="-353.9" font-family="Arial" font-size="14.00" fill="#666666">[integer]</text>
<polygon fill="none" stroke="#000000" points="458.5,-312.5 458.5,-342.5 734.5,-342.5 734.5,-312.5 458.5,-312.5"/>
<text text-anchor="start" x="465.5" y="-323.9" font-family="Arial" font-size="14.00" fill="#000000">write_date </text>
<text text-anchor="start" x="533.9586" y="-323.9" font-family="Arial" font-size="14.00" fill="#666666">[timestamp without time zone]</text>
<polygon fill="none" stroke="#000000" points="458.5,-282.5 458.5,-312.5 734.5,-312.5 734.5,-282.5 458.5,-282.5"/>
<text text-anchor="start" x="465.5" y="-293.9" font-family="Arial" font-size="14.00" fill="#000000">alias_id </text>
<text text-anchor="start" x="516.8408" y="-293.9" font-family="Arial" font-size="14.00" fill="#666666">[integer]</text>
<polygon fill="none" stroke="#000000" points="458.5,-252.5 458.5,-282.5 734.5,-282.5 734.5,-252.5 458.5,-252.5"/>
<text text-anchor="start" x="465.5" y="-263.9" font-family="Arial" font-size="14.00" fill="#000000">notification_type </text>
<text text-anchor="start" x="570.5336" y="-263.9" font-family="Arial" font-size="14.00" fill="#666666">[varchar]</text>
<polygon fill="none" stroke="#000000" points="458.5,-222.5 458.5,-252.5 734.5,-252.5 734.5,-222.5 458.5,-222.5"/>
<text text-anchor="start" x="465.5" y="-233.9" font-family="Arial" font-size="14.00" fill="#000000">odoobot_state </text>
<text text-anchor="start" x="558.1058" y="-233.9" font-family="Arial" font-size="14.00" fill="#666666">[varchar]</text>
<polygon fill="none" stroke="#000000" points="458.5,-192.5 458.5,-222.5 734.5,-222.5 734.5,-192.5 458.5,-192.5"/>
<text text-anchor="start" x="465.5" y="-203.9" font-family="Arial" font-size="14.00" fill="#000000">sale_team_id </text>
<text text-anchor="start" x="552.6332" y="-203.9" font-family="Arial" font-size="14.00" fill="#666666">[integer]</text>
<polygon fill="none" stroke="#000000" points="458.5,-162.5 458.5,-192.5 734.5,-192.5 734.5,-162.5 458.5,-162.5"/>
<text text-anchor="start" x="465.5" y="-173.9" font-family="Arial" font-size="14.00" fill="#000000">target_sales_won </text>
<text text-anchor="start" x="579.089" y="-173.9" font-family="Arial" font-size="14.00" fill="#666666">[integer]</text>
<polygon fill="none" stroke="#000000" points="458.5,-132.5 458.5,-162.5 734.5,-162.5 734.5,-132.5 458.5,-132.5"/>
<text text-anchor="start" x="465.5" y="-143.9" font-family="Arial" font-size="14.00" fill="#000000">target_sales_done </text>
<text text-anchor="start" x="584.5476" y="-143.9" font-family="Arial" font-size="14.00" fill="#666666">[integer]</text>
<polygon fill="none" stroke="#000000" points="458.5,-102.5 458.5,-132.5 734.5,-132.5 734.5,-102.5 458.5,-102.5"/>
<text text-anchor="start" x="465.5" y="-113.9" font-family="Arial" font-size="14.00" fill="#000000">website_id </text>
<text text-anchor="start" x="535.514" y="-113.9" font-family="Arial" font-size="14.00" fill="#666666">[integer]</text>
<polygon fill="none" stroke="#000000" points="458.5,-72.5 458.5,-102.5 734.5,-102.5 734.5,-72.5 458.5,-72.5"/>
<text text-anchor="start" x="465.5" y="-83.9" font-family="Arial" font-size="14.00" fill="#000000">target_sales_invoiced </text>
<text text-anchor="start" x="604.7608" y="-83.9" font-family="Arial" font-size="14.00" fill="#666666">[integer]</text>
<polygon fill="none" stroke="#000000" points="458.5,-42.5 458.5,-72.5 734.5,-72.5 734.5,-42.5 458.5,-42.5"/>
<text text-anchor="start" x="465.5" y="-53.9" font-family="Arial" font-size="14.00" fill="#000000">pos_security_pin </text>
<text text-anchor="start" x="574.4158" y="-53.9" font-family="Arial" font-size="14.00" fill="#666666">[varchar(32)]</text>
</g>
<!-- public.blog_tag&#45;&gt;public.res_users -->
<g id="edge3" class="edge">
<title>public.blog_tag:create_uid&#45;&gt;public.res_users:id</title>
<path fill="none" stroke="#000000" d="M744.7735,-966.839C858.8446,-951.8652 855.4201,-687.5 734.5,-687.5"/>
<polygon fill="#000000" stroke="#000000" points="744.4794,-966.8578 734.211,-963.0093 739.4897,-967.1789 734.5,-967.5 734.5,-967.5 734.5,-967.5 739.4897,-967.1789 734.789,-971.9907 744.4794,-966.8578 744.4794,-966.8578"/>
<text text-anchor="start" x="741.157" y="-977.5" font-family="Arial" font-size="10.00" fill="#000000">FOREIGN KEY (create_uid) REFERENCES res_users(id) ON DELETE SET NULL</text>
</g>
<!-- public.blog_tag&#45;&gt;public.res_users -->
<g id="edge4" class="edge">
<title>public.blog_tag:write_uid&#45;&gt;public.res_users:id</title>
<path fill="none" stroke="#000000" d="M744.716,-906.6591C832.1501,-891.8888 828.7448,-687.5 734.5,-687.5"/>
<polygon fill="#000000" stroke="#000000" points="744.4663,-906.6795 734.1308,-903.0152 739.4831,-907.0898 734.5,-907.5 734.5,-907.5 734.5,-907.5 739.4831,-907.0898 734.8692,-911.9848 744.4663,-906.6795 744.4663,-906.6795"/>
<text text-anchor="start" x="741.497" y="-917.5" font-family="Arial" font-size="10.00" fill="#000000">FOREIGN KEY (write_uid) REFERENCES res_users(id) ON DELETE SET NULL</text>
</g>
<!-- public.blog_post_blog_tag_rel -->
<g id="node2" class="node">
<title>public.blog_post_blog_tag_rel</title>
<polygon fill="#efefef" stroke="transparent" points="421.5,-1412.5 421.5,-1447.5 771.5,-1447.5 771.5,-1412.5 421.5,-1412.5"/>
<polygon fill="none" stroke="#000000" points="421.5,-1412.5 421.5,-1447.5 771.5,-1447.5 771.5,-1412.5 421.5,-1412.5"/>
<text text-anchor="start" x="428.3324" y="-1425.3" font-family="Arial Bold" font-size="18.00" fill="#000000">public.blog_post_blog_tag_rel</text>
<text text-anchor="start" x="667.4138" y="-1425.3" font-family="Arial" font-size="14.00" fill="#000000"> </text>
<text text-anchor="start" x="671.3044" y="-1425.3" font-family="Arial" font-size="14.00" fill="#666666">[BASE TABLE]</text>
<polygon fill="none" stroke="#000000" points="421.5,-1382.5 421.5,-1412.5 771.5,-1412.5 771.5,-1382.5 421.5,-1382.5"/>
<text text-anchor="start" x="428.5" y="-1393.9" font-family="Arial" font-size="14.00" fill="#000000">blog_tag_id </text>
<text text-anchor="start" x="504.7552" y="-1393.9" font-family="Arial" font-size="14.00" fill="#666666">[integer]</text>
<polygon fill="none" stroke="#000000" points="421.5,-1352.5 421.5,-1382.5 771.5,-1382.5 771.5,-1352.5 421.5,-1352.5"/>
<text text-anchor="start" x="428.5" y="-1363.9" font-family="Arial" font-size="14.00" fill="#000000">blog_post_id </text>
<text text-anchor="start" x="511.7552" y="-1363.9" font-family="Arial" font-size="14.00" fill="#666666">[integer]</text>
</g>
<!-- public.blog_post_blog_tag_rel&#45;&gt;public.blog_tag -->
<g id="edge1" class="edge">
<title>public.blog_post_blog_tag_rel:blog_tag_id&#45;&gt;public.blog_tag:id</title>
<path fill="none" stroke="#000000" d="M781.718,-1396.6591C867.896,-1381.8888 830.0684,-1177.5 734.5,-1177.5"/>
<polygon fill="#000000" stroke="#000000" points="781.4663,-1396.6797 771.1309,-1393.0152 776.4832,-1397.0899 771.5,-1397.5 771.5,-1397.5 771.5,-1397.5 776.4832,-1397.0899 771.8691,-1401.9848 781.4663,-1396.6797 781.4663,-1396.6797"/>
<text text-anchor="start" x="778.1485" y="-1407.5" font-family="Arial" font-size="10.00" fill="#000000">FOREIGN KEY (blog_tag_id) REFERENCES blog_tag(id) ON DELETE CASCADE</text>
</g>
</g>
</svg>
