<?xml version="1.0" encoding="UTF-8" standalone="no"?>
<!DOCTYPE svg PUBLIC "-//W3C//DTD SVG 1.1//EN"
 "http://www.w3.org/Graphics/SVG/1.1/DTD/svg11.dtd">
<!-- Generated by graphviz version 2.40.1 (20161225.0304)
 -->
<!-- Title: public.ir_model_access Pages: 1 -->
<svg width="1288pt" height="1342pt"
 viewBox="0.00 0.00 1288.00 1342.00" xmlns="http://www.w3.org/2000/svg" xmlns:xlink="http://www.w3.org/1999/xlink">
<g id="graph0" class="graph" transform="scale(1 1) rotate(0) translate(4 1338)">
<title>public.ir_model_access</title>
<polygon fill="#ffffff" stroke="transparent" points="-4,4 -4,-1338 1284,-1338 1284,4 -4,4"/>
<!-- public.ir_model_access -->
<g id="node1" class="node">
<title>public.ir_model_access</title>
<polygon fill="#efefef" stroke="transparent" points="602,-1252.5 602,-1287.5 900,-1287.5 900,-1252.5 602,-1252.5"/>
<polygon fill="none" stroke="#000000" points="602,-1252.5 602,-1287.5 900,-1287.5 900,-1252.5 602,-1252.5"/>
<text text-anchor="start" x="608.8604" y="-1265.3" font-family="Arial Bold" font-size="18.00" fill="#000000">public.ir_model_access</text>
<text text-anchor="start" x="795.8858" y="-1265.3" font-family="Arial" font-size="14.00" fill="#000000"> </text>
<text text-anchor="start" x="799.7764" y="-1265.3" font-family="Arial" font-size="14.00" fill="#666666">[BASE TABLE]</text>
<polygon fill="none" stroke="#000000" points="602,-1222.5 602,-1252.5 900,-1252.5 900,-1222.5 602,-1222.5"/>
<text text-anchor="start" x="609" y="-1233.9" font-family="Arial" font-size="14.00" fill="#000000">id </text>
<text text-anchor="start" x="623.7798" y="-1233.9" font-family="Arial" font-size="14.00" fill="#666666">[integer]</text>
<polygon fill="none" stroke="#000000" points="602,-1192.5 602,-1222.5 900,-1222.5 900,-1192.5 602,-1192.5"/>
<text text-anchor="start" x="609" y="-1203.9" font-family="Arial" font-size="14.00" fill="#000000">name </text>
<text text-anchor="start" x="647.899" y="-1203.9" font-family="Arial" font-size="14.00" fill="#666666">[varchar]</text>
<polygon fill="none" stroke="#000000" points="602,-1162.5 602,-1192.5 900,-1192.5 900,-1162.5 602,-1162.5"/>
<text text-anchor="start" x="609" y="-1173.9" font-family="Arial" font-size="14.00" fill="#000000">active </text>
<text text-anchor="start" x="649.453" y="-1173.9" font-family="Arial" font-size="14.00" fill="#666666">[boolean]</text>
<polygon fill="none" stroke="#000000" points="602,-1132.5 602,-1162.5 900,-1162.5 900,-1132.5 602,-1132.5"/>
<text text-anchor="start" x="609" y="-1143.9" font-family="Arial" font-size="14.00" fill="#000000">model_id </text>
<text text-anchor="start" x="669.6774" y="-1143.9" font-family="Arial" font-size="14.00" fill="#666666">[integer]</text>
<polygon fill="none" stroke="#000000" points="602,-1102.5 602,-1132.5 900,-1132.5 900,-1102.5 602,-1102.5"/>
<text text-anchor="start" x="609" y="-1113.9" font-family="Arial" font-size="14.00" fill="#000000">group_id </text>
<text text-anchor="start" x="667.3534" y="-1113.9" font-family="Arial" font-size="14.00" fill="#666666">[integer]</text>
<polygon fill="none" stroke="#000000" points="602,-1072.5 602,-1102.5 900,-1102.5 900,-1072.5 602,-1072.5"/>
<text text-anchor="start" x="609" y="-1083.9" font-family="Arial" font-size="14.00" fill="#000000">perm_read </text>
<text text-anchor="start" x="680.568" y="-1083.9" font-family="Arial" font-size="14.00" fill="#666666">[boolean]</text>
<polygon fill="none" stroke="#000000" points="602,-1042.5 602,-1072.5 900,-1072.5 900,-1042.5 602,-1042.5"/>
<text text-anchor="start" x="609" y="-1053.9" font-family="Arial" font-size="14.00" fill="#000000">perm_write </text>
<text text-anchor="start" x="682.1066" y="-1053.9" font-family="Arial" font-size="14.00" fill="#666666">[boolean]</text>
<polygon fill="none" stroke="#000000" points="602,-1012.5 602,-1042.5 900,-1042.5 900,-1012.5 602,-1012.5"/>
<text text-anchor="start" x="609" y="-1023.9" font-family="Arial" font-size="14.00" fill="#000000">perm_create </text>
<text text-anchor="start" x="691.4586" y="-1023.9" font-family="Arial" font-size="14.00" fill="#666666">[boolean]</text>
<polygon fill="none" stroke="#000000" points="602,-982.5 602,-1012.5 900,-1012.5 900,-982.5 602,-982.5"/>
<text text-anchor="start" x="609" y="-993.9" font-family="Arial" font-size="14.00" fill="#000000">perm_unlink </text>
<text text-anchor="start" x="689.1206" y="-993.9" font-family="Arial" font-size="14.00" fill="#666666">[boolean]</text>
<polygon fill="none" stroke="#000000" points="602,-952.5 602,-982.5 900,-982.5 900,-952.5 602,-952.5"/>
<text text-anchor="start" x="609" y="-963.9" font-family="Arial" font-size="14.00" fill="#000000">create_uid </text>
<text text-anchor="start" x="678.244" y="-963.9" font-family="Arial" font-size="14.00" fill="#666666">[integer]</text>
<polygon fill="none" stroke="#000000" points="602,-922.5 602,-952.5 900,-952.5 900,-922.5 602,-922.5"/>
<text text-anchor="start" x="609" y="-933.9" font-family="Arial" font-size="14.00" fill="#000000">create_date </text>
<text text-anchor="start" x="686.8106" y="-933.9" font-family="Arial" font-size="14.00" fill="#666666">[timestamp without time zone]</text>
<polygon fill="none" stroke="#000000" points="602,-892.5 602,-922.5 900,-922.5 900,-892.5 602,-892.5"/>
<text text-anchor="start" x="609" y="-903.9" font-family="Arial" font-size="14.00" fill="#000000">write_uid </text>
<text text-anchor="start" x="668.892" y="-903.9" font-family="Arial" font-size="14.00" fill="#666666">[integer]</text>
<polygon fill="none" stroke="#000000" points="602,-862.5 602,-892.5 900,-892.5 900,-862.5 602,-862.5"/>
<text text-anchor="start" x="609" y="-873.9" font-family="Arial" font-size="14.00" fill="#000000">write_date </text>
<text text-anchor="start" x="677.4586" y="-873.9" font-family="Arial" font-size="14.00" fill="#666666">[timestamp without time zone]</text>
<polygon fill="none" stroke="#000000" stroke-width="3" points="600.5,-861.5 600.5,-1289.5 901.5,-1289.5 901.5,-861.5 600.5,-861.5"/>
</g>
<!-- public.ir_model -->
<g id="node2" class="node">
<title>public.ir_model</title>
<polygon fill="#efefef" stroke="transparent" points="43,-582.5 43,-617.5 319,-617.5 319,-582.5 43,-582.5"/>
<polygon fill="none" stroke="#000000" points="43,-582.5 43,-617.5 319,-617.5 319,-582.5 43,-582.5"/>
<text text-anchor="start" x="71.8697" y="-595.3" font-family="Arial Bold" font-size="18.00" fill="#000000">public.ir_model</text>
<text text-anchor="start" x="192.8765" y="-595.3" font-family="Arial" font-size="14.00" fill="#000000"> </text>
<text text-anchor="start" x="196.7671" y="-595.3" font-family="Arial" font-size="14.00" fill="#666666">[BASE TABLE]</text>
<polygon fill="none" stroke="#000000" points="43,-552.5 43,-582.5 319,-582.5 319,-552.5 43,-552.5"/>
<text text-anchor="start" x="50" y="-563.9" font-family="Arial" font-size="14.00" fill="#000000">id </text>
<text text-anchor="start" x="64.7798" y="-563.9" font-family="Arial" font-size="14.00" fill="#666666">[integer]</text>
<polygon fill="none" stroke="#000000" points="43,-522.5 43,-552.5 319,-552.5 319,-522.5 43,-522.5"/>
<text text-anchor="start" x="50" y="-533.9" font-family="Arial" font-size="14.00" fill="#000000">name </text>
<text text-anchor="start" x="88.899" y="-533.9" font-family="Arial" font-size="14.00" fill="#666666">[varchar]</text>
<polygon fill="none" stroke="#000000" points="43,-492.5 43,-522.5 319,-522.5 319,-492.5 43,-492.5"/>
<text text-anchor="start" x="50" y="-503.9" font-family="Arial" font-size="14.00" fill="#000000">model </text>
<text text-anchor="start" x="92.0056" y="-503.9" font-family="Arial" font-size="14.00" fill="#666666">[varchar]</text>
<polygon fill="none" stroke="#000000" points="43,-462.5 43,-492.5 319,-492.5 319,-462.5 43,-462.5"/>
<text text-anchor="start" x="50" y="-473.9" font-family="Arial" font-size="14.00" fill="#000000">info </text>
<text text-anchor="start" x="76.453" y="-473.9" font-family="Arial" font-size="14.00" fill="#666666">[text]</text>
<polygon fill="none" stroke="#000000" points="43,-432.5 43,-462.5 319,-462.5 319,-432.5 43,-432.5"/>
<text text-anchor="start" x="50" y="-443.9" font-family="Arial" font-size="14.00" fill="#000000">state </text>
<text text-anchor="start" x="84.237" y="-443.9" font-family="Arial" font-size="14.00" fill="#666666">[varchar]</text>
<polygon fill="none" stroke="#000000" points="43,-402.5 43,-432.5 319,-432.5 319,-402.5 43,-402.5"/>
<text text-anchor="start" x="50" y="-413.9" font-family="Arial" font-size="14.00" fill="#000000">transient </text>
<text text-anchor="start" x="107.5694" y="-413.9" font-family="Arial" font-size="14.00" fill="#666666">[boolean]</text>
<polygon fill="none" stroke="#000000" points="43,-372.5 43,-402.5 319,-402.5 319,-372.5 43,-372.5"/>
<text text-anchor="start" x="50" y="-383.9" font-family="Arial" font-size="14.00" fill="#000000">create_uid </text>
<text text-anchor="start" x="119.244" y="-383.9" font-family="Arial" font-size="14.00" fill="#666666">[integer]</text>
<polygon fill="none" stroke="#000000" points="43,-342.5 43,-372.5 319,-372.5 319,-342.5 43,-342.5"/>
<text text-anchor="start" x="49.5246" y="-353.9" font-family="Arial" font-size="14.00" fill="#000000">create_date </text>
<text text-anchor="start" x="127.3352" y="-353.9" font-family="Arial" font-size="14.00" fill="#666666">[timestamp without time zone]</text>
<polygon fill="none" stroke="#000000" points="43,-312.5 43,-342.5 319,-342.5 319,-312.5 43,-312.5"/>
<text text-anchor="start" x="50" y="-323.9" font-family="Arial" font-size="14.00" fill="#000000">write_uid </text>
<text text-anchor="start" x="109.892" y="-323.9" font-family="Arial" font-size="14.00" fill="#666666">[integer]</text>
<polygon fill="none" stroke="#000000" points="43,-282.5 43,-312.5 319,-312.5 319,-282.5 43,-282.5"/>
<text text-anchor="start" x="50" y="-293.9" font-family="Arial" font-size="14.00" fill="#000000">write_date </text>
<text text-anchor="start" x="118.4586" y="-293.9" font-family="Arial" font-size="14.00" fill="#666666">[timestamp without time zone]</text>
<polygon fill="none" stroke="#000000" points="43,-252.5 43,-282.5 319,-282.5 319,-252.5 43,-252.5"/>
<text text-anchor="start" x="50" y="-263.9" font-family="Arial" font-size="14.00" fill="#000000">is_mail_thread </text>
<text text-anchor="start" x="144.9004" y="-263.9" font-family="Arial" font-size="14.00" fill="#666666">[boolean]</text>
<polygon fill="none" stroke="#000000" points="43,-222.5 43,-252.5 319,-252.5 319,-222.5 43,-222.5"/>
<text text-anchor="start" x="50" y="-233.9" font-family="Arial" font-size="14.00" fill="#000000">website_form_access </text>
<text text-anchor="start" x="188.467" y="-233.9" font-family="Arial" font-size="14.00" fill="#666666">[boolean]</text>
<polygon fill="none" stroke="#000000" points="43,-192.5 43,-222.5 319,-222.5 319,-192.5 43,-192.5"/>
<text text-anchor="start" x="50" y="-203.9" font-family="Arial" font-size="14.00" fill="#000000">website_form_default_field_id </text>
<text text-anchor="start" x="239.0434" y="-203.9" font-family="Arial" font-size="14.00" fill="#666666">[integer]</text>
<polygon fill="none" stroke="#000000" points="43,-162.5 43,-192.5 319,-192.5 319,-162.5 43,-162.5"/>
<text text-anchor="start" x="50" y="-173.9" font-family="Arial" font-size="14.00" fill="#000000">website_form_label </text>
<text text-anchor="start" x="174.4628" y="-173.9" font-family="Arial" font-size="14.00" fill="#666666">[varchar]</text>
</g>
<!-- public.ir_model_access&#45;&gt;public.ir_model -->
<g id="edge1" class="edge">
<title>public.ir_model_access:model_id&#45;&gt;public.ir_model:id</title>
<path fill="none" stroke="#000000" d="M591.7867,-1147.3159C410.7433,-1140.6674 444.7388,-955.093 371,-781 332.9099,-691.0713 416.6628,-567.5 319,-567.5"/>
<polygon fill="#000000" stroke="#000000" points="592.0016,-1147.3197 601.9189,-1151.9993 597.0008,-1147.4098 602,-1147.5 602,-1147.5 602,-1147.5 597.0008,-1147.4098 602.0811,-1143.0007 592.0016,-1147.3197 592.0016,-1147.3197"/>
<text text-anchor="start" x="240.222" y="-1157.5" font-family="Arial" font-size="10.00" fill="#000000">FOREIGN KEY (model_id) REFERENCES ir_model(id) ON DELETE CASCADE</text>
</g>
<!-- public.res_groups -->
<g id="node3" class="node">
<title>public.res_groups</title>
<polygon fill="#efefef" stroke="transparent" points="423,-522.5 423,-557.5 699,-557.5 699,-522.5 423,-522.5"/>
<polygon fill="none" stroke="#000000" points="423,-522.5 423,-557.5 699,-557.5 699,-522.5 423,-522.5"/>
<text text-anchor="start" x="441.3577" y="-535.3" font-family="Arial Bold" font-size="18.00" fill="#000000">public.res_groups</text>
<text text-anchor="start" x="583.3885" y="-535.3" font-family="Arial" font-size="14.00" fill="#000000"> </text>
<text text-anchor="start" x="587.2791" y="-535.3" font-family="Arial" font-size="14.00" fill="#666666">[BASE TABLE]</text>
<polygon fill="none" stroke="#000000" points="423,-492.5 423,-522.5 699,-522.5 699,-492.5 423,-492.5"/>
<text text-anchor="start" x="430" y="-503.9" font-family="Arial" font-size="14.00" fill="#000000">id </text>
<text text-anchor="start" x="444.7798" y="-503.9" font-family="Arial" font-size="14.00" fill="#666666">[integer]</text>
<polygon fill="none" stroke="#000000" points="423,-462.5 423,-492.5 699,-492.5 699,-462.5 423,-462.5"/>
<text text-anchor="start" x="430" y="-473.9" font-family="Arial" font-size="14.00" fill="#000000">name </text>
<text text-anchor="start" x="468.899" y="-473.9" font-family="Arial" font-size="14.00" fill="#666666">[varchar]</text>
<polygon fill="none" stroke="#000000" points="423,-432.5 423,-462.5 699,-462.5 699,-432.5 423,-432.5"/>
<text text-anchor="start" x="430" y="-443.9" font-family="Arial" font-size="14.00" fill="#000000">comment </text>
<text text-anchor="start" x="491.4502" y="-443.9" font-family="Arial" font-size="14.00" fill="#666666">[text]</text>
<polygon fill="none" stroke="#000000" points="423,-402.5 423,-432.5 699,-432.5 699,-402.5 423,-402.5"/>
<text text-anchor="start" x="430" y="-413.9" font-family="Arial" font-size="14.00" fill="#000000">category_id </text>
<text text-anchor="start" x="506.244" y="-413.9" font-family="Arial" font-size="14.00" fill="#666666">[integer]</text>
<polygon fill="none" stroke="#000000" points="423,-372.5 423,-402.5 699,-402.5 699,-372.5 423,-372.5"/>
<text text-anchor="start" x="430" y="-383.9" font-family="Arial" font-size="14.00" fill="#000000">color </text>
<text text-anchor="start" x="464.223" y="-383.9" font-family="Arial" font-size="14.00" fill="#666666">[integer]</text>
<polygon fill="none" stroke="#000000" points="423,-342.5 423,-372.5 699,-372.5 699,-342.5 423,-342.5"/>
<text text-anchor="start" x="430" y="-353.9" font-family="Arial" font-size="14.00" fill="#000000">share </text>
<text text-anchor="start" x="468.899" y="-353.9" font-family="Arial" font-size="14.00" fill="#666666">[boolean]</text>
<polygon fill="none" stroke="#000000" points="423,-312.5 423,-342.5 699,-342.5 699,-312.5 423,-312.5"/>
<text text-anchor="start" x="430" y="-323.9" font-family="Arial" font-size="14.00" fill="#000000">create_uid </text>
<text text-anchor="start" x="499.244" y="-323.9" font-family="Arial" font-size="14.00" fill="#666666">[integer]</text>
<polygon fill="none" stroke="#000000" points="423,-282.5 423,-312.5 699,-312.5 699,-282.5 423,-282.5"/>
<text text-anchor="start" x="429.5246" y="-293.9" font-family="Arial" font-size="14.00" fill="#000000">create_date </text>
<text text-anchor="start" x="507.3352" y="-293.9" font-family="Arial" font-size="14.00" fill="#666666">[timestamp without time zone]</text>
<polygon fill="none" stroke="#000000" points="423,-252.5 423,-282.5 699,-282.5 699,-252.5 423,-252.5"/>
<text text-anchor="start" x="430" y="-263.9" font-family="Arial" font-size="14.00" fill="#000000">write_uid </text>
<text text-anchor="start" x="489.892" y="-263.9" font-family="Arial" font-size="14.00" fill="#666666">[integer]</text>
<polygon fill="none" stroke="#000000" points="423,-222.5 423,-252.5 699,-252.5 699,-222.5 423,-222.5"/>
<text text-anchor="start" x="430" y="-233.9" font-family="Arial" font-size="14.00" fill="#000000">write_date </text>
<text text-anchor="start" x="498.4586" y="-233.9" font-family="Arial" font-size="14.00" fill="#666666">[timestamp without time zone]</text>
</g>
<!-- public.ir_model_access&#45;&gt;public.res_groups -->
<g id="edge2" class="edge">
<title>public.ir_model_access:group_id&#45;&gt;public.res_groups:id</title>
<path fill="none" stroke="#000000" d="M591.9285,-1117.1495C473.9581,-1108.5674 574.7606,-944.149 602,-817 624.0447,-714.0991 676.9553,-703.9009 699,-601 707.705,-560.3664 740.5556,-507.5 699,-507.5"/>
<polygon fill="#000000" stroke="#000000" points="592.0061,-1117.1521 601.8434,-1121.9973 597.003,-1117.326 602,-1117.5 602,-1117.5 602,-1117.5 597.003,-1117.326 602.1566,-1113.0027 592.0061,-1117.1521 592.0061,-1117.1521"/>
<text text-anchor="start" x="230.212" y="-1127.5" font-family="Arial" font-size="10.00" fill="#000000">FOREIGN KEY (group_id) REFERENCES res_groups(id) ON DELETE CASCADE</text>
</g>
<!-- public.res_users -->
<g id="node4" class="node">
<title>public.res_users</title>
<polygon fill="#efefef" stroke="transparent" points="803,-702.5 803,-737.5 1079,-737.5 1079,-702.5 803,-702.5"/>
<polygon fill="none" stroke="#000000" points="803,-702.5 803,-737.5 1079,-737.5 1079,-702.5 803,-702.5"/>
<text text-anchor="start" x="826.8639" y="-715.3" font-family="Arial Bold" font-size="18.00" fill="#000000">public.res_users</text>
<text text-anchor="start" x="957.8823" y="-715.3" font-family="Arial" font-size="14.00" fill="#000000"> </text>
<text text-anchor="start" x="961.7729" y="-715.3" font-family="Arial" font-size="14.00" fill="#666666">[BASE TABLE]</text>
<polygon fill="none" stroke="#000000" points="803,-672.5 803,-702.5 1079,-702.5 1079,-672.5 803,-672.5"/>
<text text-anchor="start" x="810" y="-683.9" font-family="Arial" font-size="14.00" fill="#000000">id </text>
<text text-anchor="start" x="824.7798" y="-683.9" font-family="Arial" font-size="14.00" fill="#666666">[integer]</text>
<polygon fill="none" stroke="#000000" points="803,-642.5 803,-672.5 1079,-672.5 1079,-642.5 803,-642.5"/>
<text text-anchor="start" x="810" y="-653.9" font-family="Arial" font-size="14.00" fill="#000000">active </text>
<text text-anchor="start" x="850.453" y="-653.9" font-family="Arial" font-size="14.00" fill="#666666">[boolean]</text>
<polygon fill="none" stroke="#000000" points="803,-612.5 803,-642.5 1079,-642.5 1079,-612.5 803,-612.5"/>
<text text-anchor="start" x="810" y="-623.9" font-family="Arial" font-size="14.00" fill="#000000">login </text>
<text text-anchor="start" x="843.4516" y="-623.9" font-family="Arial" font-size="14.00" fill="#666666">[varchar]</text>
<polygon fill="none" stroke="#000000" points="803,-582.5 803,-612.5 1079,-612.5 1079,-582.5 803,-582.5"/>
<text text-anchor="start" x="810" y="-593.9" font-family="Arial" font-size="14.00" fill="#000000">password </text>
<text text-anchor="start" x="873.7882" y="-593.9" font-family="Arial" font-size="14.00" fill="#666666">[varchar]</text>
<polygon fill="none" stroke="#000000" points="803,-552.5 803,-582.5 1079,-582.5 1079,-552.5 803,-552.5"/>
<text text-anchor="start" x="810" y="-563.9" font-family="Arial" font-size="14.00" fill="#000000">company_id </text>
<text text-anchor="start" x="889.3534" y="-563.9" font-family="Arial" font-size="14.00" fill="#666666">[integer]</text>
<polygon fill="none" stroke="#000000" points="803,-522.5 803,-552.5 1079,-552.5 1079,-522.5 803,-522.5"/>
<text text-anchor="start" x="810" y="-533.9" font-family="Arial" font-size="14.00" fill="#000000">partner_id </text>
<text text-anchor="start" x="876.9046" y="-533.9" font-family="Arial" font-size="14.00" fill="#666666">[integer]</text>
<polygon fill="none" stroke="#000000" points="803,-492.5 803,-522.5 1079,-522.5 1079,-492.5 803,-492.5"/>
<text text-anchor="start" x="809.5246" y="-503.9" font-family="Arial" font-size="14.00" fill="#000000">create_date </text>
<text text-anchor="start" x="887.3352" y="-503.9" font-family="Arial" font-size="14.00" fill="#666666">[timestamp without time zone]</text>
<polygon fill="none" stroke="#000000" points="803,-462.5 803,-492.5 1079,-492.5 1079,-462.5 803,-462.5"/>
<text text-anchor="start" x="810" y="-473.9" font-family="Arial" font-size="14.00" fill="#000000">signature </text>
<text text-anchor="start" x="871.4614" y="-473.9" font-family="Arial" font-size="14.00" fill="#666666">[text]</text>
<polygon fill="none" stroke="#000000" points="803,-432.5 803,-462.5 1079,-462.5 1079,-432.5 803,-432.5"/>
<text text-anchor="start" x="810" y="-443.9" font-family="Arial" font-size="14.00" fill="#000000">action_id </text>
<text text-anchor="start" x="869.9074" y="-443.9" font-family="Arial" font-size="14.00" fill="#666666">[integer]</text>
<polygon fill="none" stroke="#000000" points="803,-402.5 803,-432.5 1079,-432.5 1079,-402.5 803,-402.5"/>
<text text-anchor="start" x="810" y="-413.9" font-family="Arial" font-size="14.00" fill="#000000">share </text>
<text text-anchor="start" x="848.899" y="-413.9" font-family="Arial" font-size="14.00" fill="#666666">[boolean]</text>
<polygon fill="none" stroke="#000000" points="803,-372.5 803,-402.5 1079,-402.5 1079,-372.5 803,-372.5"/>
<text text-anchor="start" x="810" y="-383.9" font-family="Arial" font-size="14.00" fill="#000000">create_uid </text>
<text text-anchor="start" x="879.244" y="-383.9" font-family="Arial" font-size="14.00" fill="#666666">[integer]</text>
<polygon fill="none" stroke="#000000" points="803,-342.5 803,-372.5 1079,-372.5 1079,-342.5 803,-342.5"/>
<text text-anchor="start" x="810" y="-353.9" font-family="Arial" font-size="14.00" fill="#000000">write_uid </text>
<text text-anchor="start" x="869.892" y="-353.9" font-family="Arial" font-size="14.00" fill="#666666">[integer]</text>
<polygon fill="none" stroke="#000000" points="803,-312.5 803,-342.5 1079,-342.5 1079,-312.5 803,-312.5"/>
<text text-anchor="start" x="810" y="-323.9" font-family="Arial" font-size="14.00" fill="#000000">write_date </text>
<text text-anchor="start" x="878.4586" y="-323.9" font-family="Arial" font-size="14.00" fill="#666666">[timestamp without time zone]</text>
<polygon fill="none" stroke="#000000" points="803,-282.5 803,-312.5 1079,-312.5 1079,-282.5 803,-282.5"/>
<text text-anchor="start" x="810" y="-293.9" font-family="Arial" font-size="14.00" fill="#000000">alias_id </text>
<text text-anchor="start" x="861.3408" y="-293.9" font-family="Arial" font-size="14.00" fill="#666666">[integer]</text>
<polygon fill="none" stroke="#000000" points="803,-252.5 803,-282.5 1079,-282.5 1079,-252.5 803,-252.5"/>
<text text-anchor="start" x="810" y="-263.9" font-family="Arial" font-size="14.00" fill="#000000">notification_type </text>
<text text-anchor="start" x="915.0336" y="-263.9" font-family="Arial" font-size="14.00" fill="#666666">[varchar]</text>
<polygon fill="none" stroke="#000000" points="803,-222.5 803,-252.5 1079,-252.5 1079,-222.5 803,-222.5"/>
<text text-anchor="start" x="810" y="-233.9" font-family="Arial" font-size="14.00" fill="#000000">odoobot_state </text>
<text text-anchor="start" x="902.6058" y="-233.9" font-family="Arial" font-size="14.00" fill="#666666">[varchar]</text>
<polygon fill="none" stroke="#000000" points="803,-192.5 803,-222.5 1079,-222.5 1079,-192.5 803,-192.5"/>
<text text-anchor="start" x="810" y="-203.9" font-family="Arial" font-size="14.00" fill="#000000">sale_team_id </text>
<text text-anchor="start" x="897.1332" y="-203.9" font-family="Arial" font-size="14.00" fill="#666666">[integer]</text>
<polygon fill="none" stroke="#000000" points="803,-162.5 803,-192.5 1079,-192.5 1079,-162.5 803,-162.5"/>
<text text-anchor="start" x="810" y="-173.9" font-family="Arial" font-size="14.00" fill="#000000">target_sales_won </text>
<text text-anchor="start" x="923.589" y="-173.9" font-family="Arial" font-size="14.00" fill="#666666">[integer]</text>
<polygon fill="none" stroke="#000000" points="803,-132.5 803,-162.5 1079,-162.5 1079,-132.5 803,-132.5"/>
<text text-anchor="start" x="810" y="-143.9" font-family="Arial" font-size="14.00" fill="#000000">target_sales_done </text>
<text text-anchor="start" x="929.0476" y="-143.9" font-family="Arial" font-size="14.00" fill="#666666">[integer]</text>
<polygon fill="none" stroke="#000000" points="803,-102.5 803,-132.5 1079,-132.5 1079,-102.5 803,-102.5"/>
<text text-anchor="start" x="810" y="-113.9" font-family="Arial" font-size="14.00" fill="#000000">website_id </text>
<text text-anchor="start" x="880.014" y="-113.9" font-family="Arial" font-size="14.00" fill="#666666">[integer]</text>
<polygon fill="none" stroke="#000000" points="803,-72.5 803,-102.5 1079,-102.5 1079,-72.5 803,-72.5"/>
<text text-anchor="start" x="810" y="-83.9" font-family="Arial" font-size="14.00" fill="#000000">target_sales_invoiced </text>
<text text-anchor="start" x="949.2608" y="-83.9" font-family="Arial" font-size="14.00" fill="#666666">[integer]</text>
<polygon fill="none" stroke="#000000" points="803,-42.5 803,-72.5 1079,-72.5 1079,-42.5 803,-42.5"/>
<text text-anchor="start" x="810" y="-53.9" font-family="Arial" font-size="14.00" fill="#000000">pos_security_pin </text>
<text text-anchor="start" x="918.9158" y="-53.9" font-family="Arial" font-size="14.00" fill="#666666">[varchar(32)]</text>
</g>
<!-- public.ir_model_access&#45;&gt;public.res_users -->
<g id="edge3" class="edge">
<title>public.ir_model_access:create_uid&#45;&gt;public.res_users:id</title>
<path fill="none" stroke="#000000" d="M910.1304,-966.6647C963.7219,-957.1668 936.1041,-868.9099 900,-817 873.7434,-779.2487 829.2566,-818.7513 803,-781 779.2722,-746.8846 761.4444,-687.5 803,-687.5"/>
<polygon fill="#000000" stroke="#000000" points="909.9662,-966.6781 899.6302,-963.0152 904.9831,-967.0891 900,-967.5 900,-967.5 900,-967.5 904.9831,-967.0891 900.3698,-971.9848 909.9662,-966.6781 909.9662,-966.6781"/>
<text text-anchor="start" x="906.657" y="-977.5" font-family="Arial" font-size="10.00" fill="#000000">FOREIGN KEY (create_uid) REFERENCES res_users(id) ON DELETE SET NULL</text>
</g>
<!-- public.ir_model_access&#45;&gt;public.res_users -->
<g id="edge4" class="edge">
<title>public.ir_model_access:write_uid&#45;&gt;public.res_users:id</title>
<path fill="none" stroke="#000000" d="M910.1876,-905.9318C936.7975,-896.5068 920.7236,-846.7961 900,-817 873.7434,-779.2487 829.2566,-818.7513 803,-781 779.2722,-746.8846 761.4444,-687.5 803,-687.5"/>
<polygon fill="#000000" stroke="#000000" points="909.8836,-905.9785 899.3153,-903.0524 904.9418,-906.7393 900,-907.5 900,-907.5 900,-907.5 904.9418,-906.7393 900.6847,-911.9476 909.8836,-905.9785 909.8836,-905.9785"/>
<text text-anchor="start" x="906.997" y="-917.5" font-family="Arial" font-size="10.00" fill="#000000">FOREIGN KEY (write_uid) REFERENCES res_users(id) ON DELETE SET NULL</text>
</g>
</g>
</svg>
