<?xml version="1.0" encoding="UTF-8" standalone="no"?>
<!DOCTYPE svg PUBLIC "-//W3C//DTD SVG 1.1//EN"
 "http://www.w3.org/Graphics/SVG/1.1/DTD/svg11.dtd">
<!-- Generated by graphviz version 2.40.1 (20161225.0304)
 -->
<!-- Title: public.res_country_res_country_group_rel Pages: 1 -->
<svg width="1333pt" height="742pt"
 viewBox="0.00 0.00 1333.00 742.00" xmlns="http://www.w3.org/2000/svg" xmlns:xlink="http://www.w3.org/1999/xlink">
<g id="graph0" class="graph" transform="scale(1 1) rotate(0) translate(4 738)">
<title>public.res_country_res_country_group_rel</title>
<polygon fill="#ffffff" stroke="transparent" points="-4,4 -4,-738 1329,-738 1329,4 -4,4"/>
<!-- public.res_country_res_country_group_rel -->
<g id="node1" class="node">
<title>public.res_country_res_country_group_rel</title>
<polygon fill="#efefef" stroke="transparent" points="408,-652.5 408,-687.5 855,-687.5 855,-652.5 408,-652.5"/>
<polygon fill="none" stroke="#000000" points="408,-652.5 408,-687.5 855,-687.5 855,-652.5 408,-652.5"/>
<text text-anchor="start" x="414.8368" y="-665.3" font-family="Arial Bold" font-size="18.00" fill="#000000">public.res_country_res_country_group_rel</text>
<text text-anchor="start" x="750.9094" y="-665.3" font-family="Arial" font-size="14.00" fill="#000000"> </text>
<text text-anchor="start" x="754.8" y="-665.3" font-family="Arial" font-size="14.00" fill="#666666">[BASE TABLE]</text>
<polygon fill="none" stroke="#000000" points="408,-622.5 408,-652.5 855,-652.5 855,-622.5 408,-622.5"/>
<text text-anchor="start" x="415" y="-633.9" font-family="Arial" font-size="14.00" fill="#000000">res_country_id </text>
<text text-anchor="start" x="510.6872" y="-633.9" font-family="Arial" font-size="14.00" fill="#666666">[integer]</text>
<polygon fill="none" stroke="#000000" points="408,-592.5 408,-622.5 855,-622.5 855,-592.5 408,-592.5"/>
<text text-anchor="start" x="415" y="-603.9" font-family="Arial" font-size="14.00" fill="#000000">res_country_group_id </text>
<text text-anchor="start" x="554.2608" y="-603.9" font-family="Arial" font-size="14.00" fill="#666666">[integer]</text>
<polygon fill="none" stroke="#000000" stroke-width="3" points="406,-591.5 406,-689.5 856,-689.5 856,-591.5 406,-591.5"/>
</g>
<!-- public.res_country -->
<g id="node2" class="node">
<title>public.res_country</title>
<polygon fill="#efefef" stroke="transparent" points="294,-432.5 294,-467.5 570,-467.5 570,-432.5 294,-432.5"/>
<polygon fill="none" stroke="#000000" points="294,-432.5 294,-467.5 570,-467.5 570,-432.5 294,-432.5"/>
<text text-anchor="start" x="310.3597" y="-445.3" font-family="Arial Bold" font-size="18.00" fill="#000000">public.res_country</text>
<text text-anchor="start" x="456.3865" y="-445.3" font-family="Arial" font-size="14.00" fill="#000000"> </text>
<text text-anchor="start" x="460.2771" y="-445.3" font-family="Arial" font-size="14.00" fill="#666666">[BASE TABLE]</text>
<polygon fill="none" stroke="#000000" points="294,-402.5 294,-432.5 570,-432.5 570,-402.5 294,-402.5"/>
<text text-anchor="start" x="301" y="-413.9" font-family="Arial" font-size="14.00" fill="#000000">id </text>
<text text-anchor="start" x="315.7798" y="-413.9" font-family="Arial" font-size="14.00" fill="#666666">[integer]</text>
<polygon fill="none" stroke="#000000" points="294,-372.5 294,-402.5 570,-402.5 570,-372.5 294,-372.5"/>
<text text-anchor="start" x="301" y="-383.9" font-family="Arial" font-size="14.00" fill="#000000">name </text>
<text text-anchor="start" x="339.899" y="-383.9" font-family="Arial" font-size="14.00" fill="#666666">[varchar]</text>
<polygon fill="none" stroke="#000000" points="294,-342.5 294,-372.5 570,-372.5 570,-342.5 294,-342.5"/>
<text text-anchor="start" x="301" y="-353.9" font-family="Arial" font-size="14.00" fill="#000000">code </text>
<text text-anchor="start" x="335.2384" y="-353.9" font-family="Arial" font-size="14.00" fill="#666666">[varchar(2)]</text>
<polygon fill="none" stroke="#000000" points="294,-312.5 294,-342.5 570,-342.5 570,-312.5 294,-312.5"/>
<text text-anchor="start" x="301" y="-323.9" font-family="Arial" font-size="14.00" fill="#000000">address_format </text>
<text text-anchor="start" x="402.1318" y="-323.9" font-family="Arial" font-size="14.00" fill="#666666">[text]</text>
<polygon fill="none" stroke="#000000" points="294,-282.5 294,-312.5 570,-312.5 570,-282.5 294,-282.5"/>
<text text-anchor="start" x="301" y="-293.9" font-family="Arial" font-size="14.00" fill="#000000">address_view_id </text>
<text text-anchor="start" x="409.1318" y="-293.9" font-family="Arial" font-size="14.00" fill="#666666">[integer]</text>
<polygon fill="none" stroke="#000000" points="294,-252.5 294,-282.5 570,-282.5 570,-252.5 294,-252.5"/>
<text text-anchor="start" x="301" y="-263.9" font-family="Arial" font-size="14.00" fill="#000000">currency_id </text>
<text text-anchor="start" x="377.2314" y="-263.9" font-family="Arial" font-size="14.00" fill="#666666">[integer]</text>
<polygon fill="none" stroke="#000000" points="294,-222.5 294,-252.5 570,-252.5 570,-222.5 294,-222.5"/>
<text text-anchor="start" x="301" y="-233.9" font-family="Arial" font-size="14.00" fill="#000000">phone_code </text>
<text text-anchor="start" x="381.934" y="-233.9" font-family="Arial" font-size="14.00" fill="#666666">[integer]</text>
<polygon fill="none" stroke="#000000" points="294,-192.5 294,-222.5 570,-222.5 570,-192.5 294,-192.5"/>
<text text-anchor="start" x="301" y="-203.9" font-family="Arial" font-size="14.00" fill="#000000">name_position </text>
<text text-anchor="start" x="395.9158" y="-203.9" font-family="Arial" font-size="14.00" fill="#666666">[varchar]</text>
<polygon fill="none" stroke="#000000" points="294,-162.5 294,-192.5 570,-192.5 570,-162.5 294,-162.5"/>
<text text-anchor="start" x="301" y="-173.9" font-family="Arial" font-size="14.00" fill="#000000">vat_label </text>
<text text-anchor="start" x="360.9074" y="-173.9" font-family="Arial" font-size="14.00" fill="#666666">[varchar]</text>
<polygon fill="none" stroke="#000000" points="294,-132.5 294,-162.5 570,-162.5 570,-132.5 294,-132.5"/>
<text text-anchor="start" x="301" y="-143.9" font-family="Arial" font-size="14.00" fill="#000000">create_uid </text>
<text text-anchor="start" x="370.244" y="-143.9" font-family="Arial" font-size="14.00" fill="#666666">[integer]</text>
<polygon fill="none" stroke="#000000" points="294,-102.5 294,-132.5 570,-132.5 570,-102.5 294,-102.5"/>
<text text-anchor="start" x="300.5246" y="-113.9" font-family="Arial" font-size="14.00" fill="#000000">create_date </text>
<text text-anchor="start" x="378.3352" y="-113.9" font-family="Arial" font-size="14.00" fill="#666666">[timestamp without time zone]</text>
<polygon fill="none" stroke="#000000" points="294,-72.5 294,-102.5 570,-102.5 570,-72.5 294,-72.5"/>
<text text-anchor="start" x="301" y="-83.9" font-family="Arial" font-size="14.00" fill="#000000">write_uid </text>
<text text-anchor="start" x="360.892" y="-83.9" font-family="Arial" font-size="14.00" fill="#666666">[integer]</text>
<polygon fill="none" stroke="#000000" points="294,-42.5 294,-72.5 570,-72.5 570,-42.5 294,-42.5"/>
<text text-anchor="start" x="301" y="-53.9" font-family="Arial" font-size="14.00" fill="#000000">write_date </text>
<text text-anchor="start" x="369.4586" y="-53.9" font-family="Arial" font-size="14.00" fill="#666666">[timestamp without time zone]</text>
</g>
<!-- public.res_country_res_country_group_rel&#45;&gt;public.res_country -->
<g id="edge1" class="edge">
<title>public.res_country_res_country_group_rel:res_country_id&#45;&gt;public.res_country:id</title>
<path fill="none" stroke="#000000" d="M398.1078,-636.0126C370.6893,-626.658 385.1914,-575.4336 408,-547 454.1514,-489.467 523.8486,-568.533 570,-511 596.0024,-478.5849 611.5556,-417.5 570,-417.5"/>
<polygon fill="#000000" stroke="#000000" points="398.1112,-636.013 407.3309,-641.95 403.0556,-636.7565 408,-637.5 408,-637.5 408,-637.5 403.0556,-636.7565 408.6691,-633.05 398.1112,-636.013 398.1112,-636.013"/>
<text text-anchor="start" x="6.7685" y="-647.5" font-family="Arial" font-size="10.00" fill="#000000">FOREIGN KEY (res_country_id) REFERENCES res_country(id) ON DELETE CASCADE</text>
</g>
<!-- public.res_country_group -->
<g id="node3" class="node">
<title>public.res_country_group</title>
<polygon fill="#efefef" stroke="transparent" points="675,-327.5 675,-362.5 988,-362.5 988,-327.5 675,-327.5"/>
<polygon fill="none" stroke="#000000" points="675,-327.5 675,-362.5 988,-362.5 988,-327.5 675,-327.5"/>
<text text-anchor="start" x="681.8481" y="-340.3" font-family="Arial Bold" font-size="18.00" fill="#000000">public.res_country_group</text>
<text text-anchor="start" x="883.8981" y="-340.3" font-family="Arial" font-size="14.00" fill="#000000"> </text>
<text text-anchor="start" x="887.7887" y="-340.3" font-family="Arial" font-size="14.00" fill="#666666">[BASE TABLE]</text>
<polygon fill="none" stroke="#000000" points="675,-297.5 675,-327.5 988,-327.5 988,-297.5 675,-297.5"/>
<text text-anchor="start" x="682" y="-308.9" font-family="Arial" font-size="14.00" fill="#000000">id </text>
<text text-anchor="start" x="696.7798" y="-308.9" font-family="Arial" font-size="14.00" fill="#666666">[integer]</text>
<polygon fill="none" stroke="#000000" points="675,-267.5 675,-297.5 988,-297.5 988,-267.5 675,-267.5"/>
<text text-anchor="start" x="682" y="-278.9" font-family="Arial" font-size="14.00" fill="#000000">name </text>
<text text-anchor="start" x="720.899" y="-278.9" font-family="Arial" font-size="14.00" fill="#666666">[varchar]</text>
<polygon fill="none" stroke="#000000" points="675,-237.5 675,-267.5 988,-267.5 988,-237.5 675,-237.5"/>
<text text-anchor="start" x="682" y="-248.9" font-family="Arial" font-size="14.00" fill="#000000">create_uid </text>
<text text-anchor="start" x="751.244" y="-248.9" font-family="Arial" font-size="14.00" fill="#666666">[integer]</text>
<polygon fill="none" stroke="#000000" points="675,-207.5 675,-237.5 988,-237.5 988,-207.5 675,-207.5"/>
<text text-anchor="start" x="682" y="-218.9" font-family="Arial" font-size="14.00" fill="#000000">create_date </text>
<text text-anchor="start" x="759.8106" y="-218.9" font-family="Arial" font-size="14.00" fill="#666666">[timestamp without time zone]</text>
<polygon fill="none" stroke="#000000" points="675,-177.5 675,-207.5 988,-207.5 988,-177.5 675,-177.5"/>
<text text-anchor="start" x="682" y="-188.9" font-family="Arial" font-size="14.00" fill="#000000">write_uid </text>
<text text-anchor="start" x="741.892" y="-188.9" font-family="Arial" font-size="14.00" fill="#666666">[integer]</text>
<polygon fill="none" stroke="#000000" points="675,-147.5 675,-177.5 988,-177.5 988,-147.5 675,-147.5"/>
<text text-anchor="start" x="682" y="-158.9" font-family="Arial" font-size="14.00" fill="#000000">write_date </text>
<text text-anchor="start" x="750.4586" y="-158.9" font-family="Arial" font-size="14.00" fill="#666666">[timestamp without time zone]</text>
</g>
<!-- public.res_country_res_country_group_rel&#45;&gt;public.res_country_group -->
<g id="edge2" class="edge">
<title>public.res_country_res_country_group_rel:res_country_group_id&#45;&gt;public.res_country_group:id</title>
<path fill="none" stroke="#000000" d="M864.7006,-605.0244C877.2465,-596.4451 864.9326,-567.3977 855,-547 810.5097,-455.6341 719.4903,-497.3659 675,-406 656.807,-368.6386 633.4444,-312.5 675,-312.5"/>
<polygon fill="#000000" stroke="#000000" points="864.6895,-605.0272 853.8872,-603.1397 859.8447,-606.2636 855,-607.5 855,-607.5 855,-607.5 859.8447,-606.2636 856.1128,-611.8603 864.6895,-605.0272 864.6895,-605.0272"/>
<text text-anchor="start" x="861.6445" y="-617.5" font-family="Arial" font-size="10.00" fill="#000000">FOREIGN KEY (res_country_group_id) REFERENCES res_country_group(id) ON DELETE CASCADE</text>
</g>
</g>
</svg>
