<?xml version="1.0" encoding="UTF-8" standalone="no"?>
<!DOCTYPE svg PUBLIC "-//W3C//DTD SVG 1.1//EN"
 "http://www.w3.org/Graphics/SVG/1.1/DTD/svg11.dtd">
<!-- Generated by graphviz version 2.40.1 (20161225.0304)
 -->
<!-- Title: public.digest_tip_res_users_rel Pages: 1 -->
<svg width="1147pt" height="1012pt"
 viewBox="0.00 0.00 1147.00 1012.00" xmlns="http://www.w3.org/2000/svg" xmlns:xlink="http://www.w3.org/1999/xlink">
<g id="graph0" class="graph" transform="scale(1 1) rotate(0) translate(4 1008)">
<title>public.digest_tip_res_users_rel</title>
<polygon fill="#ffffff" stroke="transparent" points="-4,4 -4,-1008 1143,-1008 1143,4 -4,4"/>
<!-- public.digest_tip_res_users_rel -->
<g id="node1" class="node">
<title>public.digest_tip_res_users_rel</title>
<polygon fill="#efefef" stroke="transparent" points="389,-922.5 389,-957.5 748,-957.5 748,-922.5 389,-922.5"/>
<polygon fill="none" stroke="#000000" points="389,-922.5 389,-957.5 748,-957.5 748,-922.5 389,-922.5"/>
<text text-anchor="start" x="395.8495" y="-935.3" font-family="Arial Bold" font-size="18.00" fill="#000000">public.digest_tip_res_users_rel</text>
<text text-anchor="start" x="643.8967" y="-935.3" font-family="Arial" font-size="14.00" fill="#000000"> </text>
<text text-anchor="start" x="647.7873" y="-935.3" font-family="Arial" font-size="14.00" fill="#666666">[BASE TABLE]</text>
<polygon fill="none" stroke="#000000" points="389,-892.5 389,-922.5 748,-922.5 748,-892.5 389,-892.5"/>
<text text-anchor="start" x="396" y="-903.9" font-family="Arial" font-size="14.00" fill="#000000">digest_tip_id </text>
<text text-anchor="start" x="478.4698" y="-903.9" font-family="Arial" font-size="14.00" fill="#666666">[integer]</text>
<polygon fill="none" stroke="#000000" points="389,-862.5 389,-892.5 748,-892.5 748,-862.5 389,-862.5"/>
<text text-anchor="start" x="396" y="-873.9" font-family="Arial" font-size="14.00" fill="#000000">res_users_id </text>
<text text-anchor="start" x="480.014" y="-873.9" font-family="Arial" font-size="14.00" fill="#666666">[integer]</text>
<polygon fill="none" stroke="#000000" stroke-width="3" points="387,-861.5 387,-959.5 749,-959.5 749,-861.5 387,-861.5"/>
</g>
<!-- public.digest_tip -->
<g id="node2" class="node">
<title>public.digest_tip</title>
<polygon fill="#efefef" stroke="transparent" points="241,-492.5 241,-527.5 517,-527.5 517,-492.5 241,-492.5"/>
<polygon fill="none" stroke="#000000" points="241,-492.5 241,-527.5 517,-527.5 517,-492.5 241,-492.5"/>
<text text-anchor="start" x="265.8566" y="-505.3" font-family="Arial Bold" font-size="18.00" fill="#000000">public.digest_tip</text>
<text text-anchor="start" x="394.8896" y="-505.3" font-family="Arial" font-size="14.00" fill="#000000"> </text>
<text text-anchor="start" x="398.7802" y="-505.3" font-family="Arial" font-size="14.00" fill="#666666">[BASE TABLE]</text>
<polygon fill="none" stroke="#000000" points="241,-462.5 241,-492.5 517,-492.5 517,-462.5 241,-462.5"/>
<text text-anchor="start" x="248" y="-473.9" font-family="Arial" font-size="14.00" fill="#000000">id </text>
<text text-anchor="start" x="262.7798" y="-473.9" font-family="Arial" font-size="14.00" fill="#666666">[integer]</text>
<polygon fill="none" stroke="#000000" points="241,-432.5 241,-462.5 517,-462.5 517,-432.5 241,-432.5"/>
<text text-anchor="start" x="248" y="-443.9" font-family="Arial" font-size="14.00" fill="#000000">sequence </text>
<text text-anchor="start" x="312.5862" y="-443.9" font-family="Arial" font-size="14.00" fill="#666666">[integer]</text>
<polygon fill="none" stroke="#000000" points="241,-402.5 241,-432.5 517,-432.5 517,-402.5 241,-402.5"/>
<text text-anchor="start" x="248" y="-413.9" font-family="Arial" font-size="14.00" fill="#000000">tip_description </text>
<text text-anchor="start" x="342.1304" y="-413.9" font-family="Arial" font-size="14.00" fill="#666666">[text]</text>
<polygon fill="none" stroke="#000000" points="241,-372.5 241,-402.5 517,-402.5 517,-372.5 241,-372.5"/>
<text text-anchor="start" x="248" y="-383.9" font-family="Arial" font-size="14.00" fill="#000000">group_id </text>
<text text-anchor="start" x="306.3534" y="-383.9" font-family="Arial" font-size="14.00" fill="#666666">[integer]</text>
<polygon fill="none" stroke="#000000" points="241,-342.5 241,-372.5 517,-372.5 517,-342.5 241,-342.5"/>
<text text-anchor="start" x="248" y="-353.9" font-family="Arial" font-size="14.00" fill="#000000">create_uid </text>
<text text-anchor="start" x="317.244" y="-353.9" font-family="Arial" font-size="14.00" fill="#666666">[integer]</text>
<polygon fill="none" stroke="#000000" points="241,-312.5 241,-342.5 517,-342.5 517,-312.5 241,-312.5"/>
<text text-anchor="start" x="247.5246" y="-323.9" font-family="Arial" font-size="14.00" fill="#000000">create_date </text>
<text text-anchor="start" x="325.3352" y="-323.9" font-family="Arial" font-size="14.00" fill="#666666">[timestamp without time zone]</text>
<polygon fill="none" stroke="#000000" points="241,-282.5 241,-312.5 517,-312.5 517,-282.5 241,-282.5"/>
<text text-anchor="start" x="248" y="-293.9" font-family="Arial" font-size="14.00" fill="#000000">write_uid </text>
<text text-anchor="start" x="307.892" y="-293.9" font-family="Arial" font-size="14.00" fill="#666666">[integer]</text>
<polygon fill="none" stroke="#000000" points="241,-252.5 241,-282.5 517,-282.5 517,-252.5 241,-252.5"/>
<text text-anchor="start" x="248" y="-263.9" font-family="Arial" font-size="14.00" fill="#000000">write_date </text>
<text text-anchor="start" x="316.4586" y="-263.9" font-family="Arial" font-size="14.00" fill="#666666">[timestamp without time zone]</text>
</g>
<!-- public.digest_tip_res_users_rel&#45;&gt;public.digest_tip -->
<g id="edge1" class="edge">
<title>public.digest_tip_res_users_rel:digest_tip_id&#45;&gt;public.digest_tip:id</title>
<path fill="none" stroke="#000000" d="M378.8953,-907.084C208.399,-892.1032 712.7962,-477.5 517,-477.5"/>
<polygon fill="#000000" stroke="#000000" points="379.0085,-907.0886 388.8149,-911.9962 384.0042,-907.2943 389,-907.5 389,-907.5 389,-907.5 384.0042,-907.2943 389.1851,-903.0038 379.0085,-907.0886 379.0085,-907.0886"/>
<text text-anchor="start" x="7.2095" y="-917.5" font-family="Arial" font-size="10.00" fill="#000000">FOREIGN KEY (digest_tip_id) REFERENCES digest_tip(id) ON DELETE CASCADE</text>
</g>
<!-- public.res_users -->
<g id="node3" class="node">
<title>public.res_users</title>
<polygon fill="#efefef" stroke="transparent" points="621,-702.5 621,-737.5 897,-737.5 897,-702.5 621,-702.5"/>
<polygon fill="none" stroke="#000000" points="621,-702.5 621,-737.5 897,-737.5 897,-702.5 621,-702.5"/>
<text text-anchor="start" x="644.8639" y="-715.3" font-family="Arial Bold" font-size="18.00" fill="#000000">public.res_users</text>
<text text-anchor="start" x="775.8823" y="-715.3" font-family="Arial" font-size="14.00" fill="#000000"> </text>
<text text-anchor="start" x="779.7729" y="-715.3" font-family="Arial" font-size="14.00" fill="#666666">[BASE TABLE]</text>
<polygon fill="none" stroke="#000000" points="621,-672.5 621,-702.5 897,-702.5 897,-672.5 621,-672.5"/>
<text text-anchor="start" x="628" y="-683.9" font-family="Arial" font-size="14.00" fill="#000000">id </text>
<text text-anchor="start" x="642.7798" y="-683.9" font-family="Arial" font-size="14.00" fill="#666666">[integer]</text>
<polygon fill="none" stroke="#000000" points="621,-642.5 621,-672.5 897,-672.5 897,-642.5 621,-642.5"/>
<text text-anchor="start" x="628" y="-653.9" font-family="Arial" font-size="14.00" fill="#000000">active </text>
<text text-anchor="start" x="668.453" y="-653.9" font-family="Arial" font-size="14.00" fill="#666666">[boolean]</text>
<polygon fill="none" stroke="#000000" points="621,-612.5 621,-642.5 897,-642.5 897,-612.5 621,-612.5"/>
<text text-anchor="start" x="628" y="-623.9" font-family="Arial" font-size="14.00" fill="#000000">login </text>
<text text-anchor="start" x="661.4516" y="-623.9" font-family="Arial" font-size="14.00" fill="#666666">[varchar]</text>
<polygon fill="none" stroke="#000000" points="621,-582.5 621,-612.5 897,-612.5 897,-582.5 621,-582.5"/>
<text text-anchor="start" x="628" y="-593.9" font-family="Arial" font-size="14.00" fill="#000000">password </text>
<text text-anchor="start" x="691.7882" y="-593.9" font-family="Arial" font-size="14.00" fill="#666666">[varchar]</text>
<polygon fill="none" stroke="#000000" points="621,-552.5 621,-582.5 897,-582.5 897,-552.5 621,-552.5"/>
<text text-anchor="start" x="628" y="-563.9" font-family="Arial" font-size="14.00" fill="#000000">company_id </text>
<text text-anchor="start" x="707.3534" y="-563.9" font-family="Arial" font-size="14.00" fill="#666666">[integer]</text>
<polygon fill="none" stroke="#000000" points="621,-522.5 621,-552.5 897,-552.5 897,-522.5 621,-522.5"/>
<text text-anchor="start" x="628" y="-533.9" font-family="Arial" font-size="14.00" fill="#000000">partner_id </text>
<text text-anchor="start" x="694.9046" y="-533.9" font-family="Arial" font-size="14.00" fill="#666666">[integer]</text>
<polygon fill="none" stroke="#000000" points="621,-492.5 621,-522.5 897,-522.5 897,-492.5 621,-492.5"/>
<text text-anchor="start" x="627.5246" y="-503.9" font-family="Arial" font-size="14.00" fill="#000000">create_date </text>
<text text-anchor="start" x="705.3352" y="-503.9" font-family="Arial" font-size="14.00" fill="#666666">[timestamp without time zone]</text>
<polygon fill="none" stroke="#000000" points="621,-462.5 621,-492.5 897,-492.5 897,-462.5 621,-462.5"/>
<text text-anchor="start" x="628" y="-473.9" font-family="Arial" font-size="14.00" fill="#000000">signature </text>
<text text-anchor="start" x="689.4614" y="-473.9" font-family="Arial" font-size="14.00" fill="#666666">[text]</text>
<polygon fill="none" stroke="#000000" points="621,-432.5 621,-462.5 897,-462.5 897,-432.5 621,-432.5"/>
<text text-anchor="start" x="628" y="-443.9" font-family="Arial" font-size="14.00" fill="#000000">action_id </text>
<text text-anchor="start" x="687.9074" y="-443.9" font-family="Arial" font-size="14.00" fill="#666666">[integer]</text>
<polygon fill="none" stroke="#000000" points="621,-402.5 621,-432.5 897,-432.5 897,-402.5 621,-402.5"/>
<text text-anchor="start" x="628" y="-413.9" font-family="Arial" font-size="14.00" fill="#000000">share </text>
<text text-anchor="start" x="666.899" y="-413.9" font-family="Arial" font-size="14.00" fill="#666666">[boolean]</text>
<polygon fill="none" stroke="#000000" points="621,-372.5 621,-402.5 897,-402.5 897,-372.5 621,-372.5"/>
<text text-anchor="start" x="628" y="-383.9" font-family="Arial" font-size="14.00" fill="#000000">create_uid </text>
<text text-anchor="start" x="697.244" y="-383.9" font-family="Arial" font-size="14.00" fill="#666666">[integer]</text>
<polygon fill="none" stroke="#000000" points="621,-342.5 621,-372.5 897,-372.5 897,-342.5 621,-342.5"/>
<text text-anchor="start" x="628" y="-353.9" font-family="Arial" font-size="14.00" fill="#000000">write_uid </text>
<text text-anchor="start" x="687.892" y="-353.9" font-family="Arial" font-size="14.00" fill="#666666">[integer]</text>
<polygon fill="none" stroke="#000000" points="621,-312.5 621,-342.5 897,-342.5 897,-312.5 621,-312.5"/>
<text text-anchor="start" x="628" y="-323.9" font-family="Arial" font-size="14.00" fill="#000000">write_date </text>
<text text-anchor="start" x="696.4586" y="-323.9" font-family="Arial" font-size="14.00" fill="#666666">[timestamp without time zone]</text>
<polygon fill="none" stroke="#000000" points="621,-282.5 621,-312.5 897,-312.5 897,-282.5 621,-282.5"/>
<text text-anchor="start" x="628" y="-293.9" font-family="Arial" font-size="14.00" fill="#000000">alias_id </text>
<text text-anchor="start" x="679.3408" y="-293.9" font-family="Arial" font-size="14.00" fill="#666666">[integer]</text>
<polygon fill="none" stroke="#000000" points="621,-252.5 621,-282.5 897,-282.5 897,-252.5 621,-252.5"/>
<text text-anchor="start" x="628" y="-263.9" font-family="Arial" font-size="14.00" fill="#000000">notification_type </text>
<text text-anchor="start" x="733.0336" y="-263.9" font-family="Arial" font-size="14.00" fill="#666666">[varchar]</text>
<polygon fill="none" stroke="#000000" points="621,-222.5 621,-252.5 897,-252.5 897,-222.5 621,-222.5"/>
<text text-anchor="start" x="628" y="-233.9" font-family="Arial" font-size="14.00" fill="#000000">odoobot_state </text>
<text text-anchor="start" x="720.6058" y="-233.9" font-family="Arial" font-size="14.00" fill="#666666">[varchar]</text>
<polygon fill="none" stroke="#000000" points="621,-192.5 621,-222.5 897,-222.5 897,-192.5 621,-192.5"/>
<text text-anchor="start" x="628" y="-203.9" font-family="Arial" font-size="14.00" fill="#000000">sale_team_id </text>
<text text-anchor="start" x="715.1332" y="-203.9" font-family="Arial" font-size="14.00" fill="#666666">[integer]</text>
<polygon fill="none" stroke="#000000" points="621,-162.5 621,-192.5 897,-192.5 897,-162.5 621,-162.5"/>
<text text-anchor="start" x="628" y="-173.9" font-family="Arial" font-size="14.00" fill="#000000">target_sales_won </text>
<text text-anchor="start" x="741.589" y="-173.9" font-family="Arial" font-size="14.00" fill="#666666">[integer]</text>
<polygon fill="none" stroke="#000000" points="621,-132.5 621,-162.5 897,-162.5 897,-132.5 621,-132.5"/>
<text text-anchor="start" x="628" y="-143.9" font-family="Arial" font-size="14.00" fill="#000000">target_sales_done </text>
<text text-anchor="start" x="747.0476" y="-143.9" font-family="Arial" font-size="14.00" fill="#666666">[integer]</text>
<polygon fill="none" stroke="#000000" points="621,-102.5 621,-132.5 897,-132.5 897,-102.5 621,-102.5"/>
<text text-anchor="start" x="628" y="-113.9" font-family="Arial" font-size="14.00" fill="#000000">website_id </text>
<text text-anchor="start" x="698.014" y="-113.9" font-family="Arial" font-size="14.00" fill="#666666">[integer]</text>
<polygon fill="none" stroke="#000000" points="621,-72.5 621,-102.5 897,-102.5 897,-72.5 621,-72.5"/>
<text text-anchor="start" x="628" y="-83.9" font-family="Arial" font-size="14.00" fill="#000000">target_sales_invoiced </text>
<text text-anchor="start" x="767.2608" y="-83.9" font-family="Arial" font-size="14.00" fill="#666666">[integer]</text>
<polygon fill="none" stroke="#000000" points="621,-42.5 621,-72.5 897,-72.5 897,-42.5 621,-42.5"/>
<text text-anchor="start" x="628" y="-53.9" font-family="Arial" font-size="14.00" fill="#000000">pos_security_pin </text>
<text text-anchor="start" x="736.9158" y="-53.9" font-family="Arial" font-size="14.00" fill="#666666">[varchar(32)]</text>
</g>
<!-- public.digest_tip_res_users_rel&#45;&gt;public.res_users -->
<g id="edge2" class="edge">
<title>public.digest_tip_res_users_rel:res_users_id&#45;&gt;public.res_users:id</title>
<path fill="none" stroke="#000000" d="M757.9751,-874.856C771.4179,-865.7265 761.6812,-835.0983 748,-817 712.6215,-770.199 656.3785,-827.801 621,-781 595.9409,-747.8502 579.4444,-687.5 621,-687.5"/>
<polygon fill="#000000" stroke="#000000" points="757.6662,-874.9378 746.847,-873.1502 752.8331,-876.2189 748,-877.5 748,-877.5 748,-877.5 752.8331,-876.2189 749.153,-881.8498 757.6662,-874.9378 757.6662,-874.9378"/>
<text text-anchor="start" x="755.1065" y="-887.5" font-family="Arial" font-size="10.00" fill="#000000">FOREIGN KEY (res_users_id) REFERENCES res_users(id) ON DELETE CASCADE</text>
</g>
</g>
</svg>
