<?xml version="1.0" encoding="UTF-8" standalone="no"?>
<!DOCTYPE svg PUBLIC "-//W3C//DTD SVG 1.1//EN"
 "http://www.w3.org/Graphics/SVG/1.1/DTD/svg11.dtd">
<!-- Generated by graphviz version 2.40.1 (20161225.0304)
 -->
<!-- Title: public.email_template_attachment_rel Pages: 1 -->
<svg width="1270pt" height="1222pt"
 viewBox="0.00 0.00 1270.00 1222.00" xmlns="http://www.w3.org/2000/svg" xmlns:xlink="http://www.w3.org/1999/xlink">
<g id="graph0" class="graph" transform="scale(1 1) rotate(0) translate(4 1218)">
<title>public.email_template_attachment_rel</title>
<polygon fill="#ffffff" stroke="transparent" points="-4,4 -4,-1218 1266,-1218 1266,4 -4,4"/>
<!-- public.email_template_attachment_rel -->
<g id="node1" class="node">
<title>public.email_template_attachment_rel</title>
<polygon fill="#efefef" stroke="transparent" points="434,-1132.5 434,-1167.5 848,-1167.5 848,-1132.5 434,-1132.5"/>
<polygon fill="none" stroke="#000000" points="434,-1132.5 434,-1167.5 848,-1167.5 848,-1132.5 434,-1132.5"/>
<text text-anchor="start" x="440.8437" y="-1145.3" font-family="Arial Bold" font-size="18.00" fill="#000000">public.email_template_attachment_rel</text>
<text text-anchor="start" x="743.9025" y="-1145.3" font-family="Arial" font-size="14.00" fill="#000000"> </text>
<text text-anchor="start" x="747.7931" y="-1145.3" font-family="Arial" font-size="14.00" fill="#666666">[BASE TABLE]</text>
<polygon fill="none" stroke="#000000" points="434,-1102.5 434,-1132.5 848,-1132.5 848,-1102.5 434,-1102.5"/>
<text text-anchor="start" x="441" y="-1113.9" font-family="Arial" font-size="14.00" fill="#000000">email_template_id </text>
<text text-anchor="start" x="558.4628" y="-1113.9" font-family="Arial" font-size="14.00" fill="#666666">[integer]</text>
<polygon fill="none" stroke="#000000" points="434,-1072.5 434,-1102.5 848,-1102.5 848,-1072.5 434,-1072.5"/>
<text text-anchor="start" x="441" y="-1083.9" font-family="Arial" font-size="14.00" fill="#000000">attachment_id </text>
<text text-anchor="start" x="532.8078" y="-1083.9" font-family="Arial" font-size="14.00" fill="#666666">[integer]</text>
<polygon fill="none" stroke="#000000" stroke-width="3" points="432.5,-1071.5 432.5,-1169.5 849.5,-1169.5 849.5,-1071.5 432.5,-1071.5"/>
</g>
<!-- public.mail_template -->
<g id="node2" class="node">
<title>public.mail_template</title>
<polygon fill="#efefef" stroke="transparent" points="313,-912.5 313,-947.5 589,-947.5 589,-912.5 313,-912.5"/>
<polygon fill="none" stroke="#000000" points="313,-912.5 313,-947.5 589,-947.5 589,-912.5 313,-912.5"/>
<text text-anchor="start" x="320.3642" y="-925.3" font-family="Arial Bold" font-size="18.00" fill="#000000">public.mail_template</text>
<text text-anchor="start" x="484.382" y="-925.3" font-family="Arial" font-size="14.00" fill="#000000"> </text>
<text text-anchor="start" x="488.2726" y="-925.3" font-family="Arial" font-size="14.00" fill="#666666">[BASE TABLE]</text>
<polygon fill="none" stroke="#000000" points="313,-882.5 313,-912.5 589,-912.5 589,-882.5 313,-882.5"/>
<text text-anchor="start" x="320" y="-893.9" font-family="Arial" font-size="14.00" fill="#000000">id </text>
<text text-anchor="start" x="334.7798" y="-893.9" font-family="Arial" font-size="14.00" fill="#666666">[integer]</text>
<polygon fill="none" stroke="#000000" points="313,-852.5 313,-882.5 589,-882.5 589,-852.5 313,-852.5"/>
<text text-anchor="start" x="320" y="-863.9" font-family="Arial" font-size="14.00" fill="#000000">name </text>
<text text-anchor="start" x="358.899" y="-863.9" font-family="Arial" font-size="14.00" fill="#666666">[varchar]</text>
<polygon fill="none" stroke="#000000" points="313,-822.5 313,-852.5 589,-852.5 589,-822.5 313,-822.5"/>
<text text-anchor="start" x="320" y="-833.9" font-family="Arial" font-size="14.00" fill="#000000">model_id </text>
<text text-anchor="start" x="380.6774" y="-833.9" font-family="Arial" font-size="14.00" fill="#666666">[integer]</text>
<polygon fill="none" stroke="#000000" points="313,-792.5 313,-822.5 589,-822.5 589,-792.5 313,-792.5"/>
<text text-anchor="start" x="320" y="-803.9" font-family="Arial" font-size="14.00" fill="#000000">model </text>
<text text-anchor="start" x="362.0056" y="-803.9" font-family="Arial" font-size="14.00" fill="#666666">[varchar]</text>
<polygon fill="none" stroke="#000000" points="313,-762.5 313,-792.5 589,-792.5 589,-762.5 313,-762.5"/>
<text text-anchor="start" x="320" y="-773.9" font-family="Arial" font-size="14.00" fill="#000000">lang </text>
<text text-anchor="start" x="350.345" y="-773.9" font-family="Arial" font-size="14.00" fill="#666666">[varchar]</text>
<polygon fill="none" stroke="#000000" points="313,-732.5 313,-762.5 589,-762.5 589,-732.5 313,-732.5"/>
<text text-anchor="start" x="320" y="-743.9" font-family="Arial" font-size="14.00" fill="#000000">user_signature </text>
<text text-anchor="start" x="416.4698" y="-743.9" font-family="Arial" font-size="14.00" fill="#666666">[boolean]</text>
<polygon fill="none" stroke="#000000" points="313,-702.5 313,-732.5 589,-732.5 589,-702.5 313,-702.5"/>
<text text-anchor="start" x="320" y="-713.9" font-family="Arial" font-size="14.00" fill="#000000">subject </text>
<text text-anchor="start" x="368.2356" y="-713.9" font-family="Arial" font-size="14.00" fill="#666666">[varchar]</text>
<polygon fill="none" stroke="#000000" points="313,-672.5 313,-702.5 589,-702.5 589,-672.5 313,-672.5"/>
<text text-anchor="start" x="320" y="-683.9" font-family="Arial" font-size="14.00" fill="#000000">email_from </text>
<text text-anchor="start" x="393.1066" y="-683.9" font-family="Arial" font-size="14.00" fill="#666666">[varchar]</text>
<polygon fill="none" stroke="#000000" points="313,-642.5 313,-672.5 589,-672.5 589,-642.5 313,-642.5"/>
<text text-anchor="start" x="320" y="-653.9" font-family="Arial" font-size="14.00" fill="#000000">use_default_to </text>
<text text-anchor="start" x="415.7124" y="-653.9" font-family="Arial" font-size="14.00" fill="#666666">[boolean]</text>
<polygon fill="none" stroke="#000000" points="313,-612.5 313,-642.5 589,-642.5 589,-612.5 313,-612.5"/>
<text text-anchor="start" x="320" y="-623.9" font-family="Arial" font-size="14.00" fill="#000000">email_to </text>
<text text-anchor="start" x="376.7854" y="-623.9" font-family="Arial" font-size="14.00" fill="#666666">[varchar]</text>
<polygon fill="none" stroke="#000000" points="313,-582.5 313,-612.5 589,-612.5 589,-582.5 313,-582.5"/>
<text text-anchor="start" x="320" y="-593.9" font-family="Arial" font-size="14.00" fill="#000000">partner_to </text>
<text text-anchor="start" x="387.6886" y="-593.9" font-family="Arial" font-size="14.00" fill="#666666">[varchar]</text>
<polygon fill="none" stroke="#000000" points="313,-552.5 313,-582.5 589,-582.5 589,-552.5 313,-552.5"/>
<text text-anchor="start" x="320" y="-563.9" font-family="Arial" font-size="14.00" fill="#000000">email_cc </text>
<text text-anchor="start" x="379.1122" y="-563.9" font-family="Arial" font-size="14.00" fill="#666666">[varchar]</text>
<polygon fill="none" stroke="#000000" points="313,-522.5 313,-552.5 589,-552.5 589,-522.5 313,-522.5"/>
<text text-anchor="start" x="320" y="-533.9" font-family="Arial" font-size="14.00" fill="#000000">reply_to </text>
<text text-anchor="start" x="373.6788" y="-533.9" font-family="Arial" font-size="14.00" fill="#666666">[varchar]</text>
<polygon fill="none" stroke="#000000" points="313,-492.5 313,-522.5 589,-522.5 589,-492.5 313,-492.5"/>
<text text-anchor="start" x="320" y="-503.9" font-family="Arial" font-size="14.00" fill="#000000">mail_server_id </text>
<text text-anchor="start" x="414.8878" y="-503.9" font-family="Arial" font-size="14.00" fill="#666666">[integer]</text>
<polygon fill="none" stroke="#000000" points="313,-462.5 313,-492.5 589,-492.5 589,-462.5 313,-462.5"/>
<text text-anchor="start" x="320" y="-473.9" font-family="Arial" font-size="14.00" fill="#000000">body_html </text>
<text text-anchor="start" x="388.4614" y="-473.9" font-family="Arial" font-size="14.00" fill="#666666">[text]</text>
<polygon fill="none" stroke="#000000" points="313,-432.5 313,-462.5 589,-462.5 589,-432.5 313,-432.5"/>
<text text-anchor="start" x="320" y="-443.9" font-family="Arial" font-size="14.00" fill="#000000">report_name </text>
<text text-anchor="start" x="403.2412" y="-443.9" font-family="Arial" font-size="14.00" fill="#666666">[varchar]</text>
<polygon fill="none" stroke="#000000" points="313,-402.5 313,-432.5 589,-432.5 589,-402.5 313,-402.5"/>
<text text-anchor="start" x="320" y="-413.9" font-family="Arial" font-size="14.00" fill="#000000">report_template </text>
<text text-anchor="start" x="421.9116" y="-413.9" font-family="Arial" font-size="14.00" fill="#666666">[integer]</text>
<polygon fill="none" stroke="#000000" points="313,-372.5 313,-402.5 589,-402.5 589,-372.5 313,-372.5"/>
<text text-anchor="start" x="320" y="-383.9" font-family="Arial" font-size="14.00" fill="#000000">ref_ir_act_window </text>
<text text-anchor="start" x="436.6802" y="-383.9" font-family="Arial" font-size="14.00" fill="#666666">[integer]</text>
<polygon fill="none" stroke="#000000" points="313,-342.5 313,-372.5 589,-372.5 589,-342.5 313,-342.5"/>
<text text-anchor="start" x="320" y="-353.9" font-family="Arial" font-size="14.00" fill="#000000">auto_delete </text>
<text text-anchor="start" x="397.0392" y="-353.9" font-family="Arial" font-size="14.00" fill="#666666">[boolean]</text>
<polygon fill="none" stroke="#000000" points="313,-312.5 313,-342.5 589,-342.5 589,-312.5 313,-312.5"/>
<text text-anchor="start" x="320" y="-323.9" font-family="Arial" font-size="14.00" fill="#000000">model_object_field </text>
<text text-anchor="start" x="440.5848" y="-323.9" font-family="Arial" font-size="14.00" fill="#666666">[integer]</text>
<polygon fill="none" stroke="#000000" points="313,-282.5 313,-312.5 589,-312.5 589,-282.5 313,-282.5"/>
<text text-anchor="start" x="320" y="-293.9" font-family="Arial" font-size="14.00" fill="#000000">sub_object </text>
<text text-anchor="start" x="391.5834" y="-293.9" font-family="Arial" font-size="14.00" fill="#666666">[integer]</text>
<polygon fill="none" stroke="#000000" points="313,-252.5 313,-282.5 589,-282.5 589,-252.5 313,-252.5"/>
<text text-anchor="start" x="320" y="-263.9" font-family="Arial" font-size="14.00" fill="#000000">sub_model_object_field </text>
<text text-anchor="start" x="470.9326" y="-263.9" font-family="Arial" font-size="14.00" fill="#666666">[integer]</text>
<polygon fill="none" stroke="#000000" points="313,-222.5 313,-252.5 589,-252.5 589,-222.5 313,-222.5"/>
<text text-anchor="start" x="320" y="-233.9" font-family="Arial" font-size="14.00" fill="#000000">null_value </text>
<text text-anchor="start" x="386.906" y="-233.9" font-family="Arial" font-size="14.00" fill="#666666">[varchar]</text>
<polygon fill="none" stroke="#000000" points="313,-192.5 313,-222.5 589,-222.5 589,-192.5 313,-192.5"/>
<text text-anchor="start" x="320" y="-203.9" font-family="Arial" font-size="14.00" fill="#000000">copyvalue </text>
<text text-anchor="start" x="386.9102" y="-203.9" font-family="Arial" font-size="14.00" fill="#666666">[varchar]</text>
<polygon fill="none" stroke="#000000" points="313,-162.5 313,-192.5 589,-192.5 589,-162.5 313,-162.5"/>
<text text-anchor="start" x="320" y="-173.9" font-family="Arial" font-size="14.00" fill="#000000">scheduled_date </text>
<text text-anchor="start" x="422.7138" y="-173.9" font-family="Arial" font-size="14.00" fill="#666666">[varchar]</text>
<polygon fill="none" stroke="#000000" points="313,-132.5 313,-162.5 589,-162.5 589,-132.5 313,-132.5"/>
<text text-anchor="start" x="320" y="-143.9" font-family="Arial" font-size="14.00" fill="#000000">create_uid </text>
<text text-anchor="start" x="389.244" y="-143.9" font-family="Arial" font-size="14.00" fill="#666666">[integer]</text>
<polygon fill="none" stroke="#000000" points="313,-102.5 313,-132.5 589,-132.5 589,-102.5 313,-102.5"/>
<text text-anchor="start" x="319.5246" y="-113.9" font-family="Arial" font-size="14.00" fill="#000000">create_date </text>
<text text-anchor="start" x="397.3352" y="-113.9" font-family="Arial" font-size="14.00" fill="#666666">[timestamp without time zone]</text>
<polygon fill="none" stroke="#000000" points="313,-72.5 313,-102.5 589,-102.5 589,-72.5 313,-72.5"/>
<text text-anchor="start" x="320" y="-83.9" font-family="Arial" font-size="14.00" fill="#000000">write_uid </text>
<text text-anchor="start" x="379.892" y="-83.9" font-family="Arial" font-size="14.00" fill="#666666">[integer]</text>
<polygon fill="none" stroke="#000000" points="313,-42.5 313,-72.5 589,-72.5 589,-42.5 313,-42.5"/>
<text text-anchor="start" x="320" y="-53.9" font-family="Arial" font-size="14.00" fill="#000000">write_date </text>
<text text-anchor="start" x="388.4586" y="-53.9" font-family="Arial" font-size="14.00" fill="#666666">[timestamp without time zone]</text>
</g>
<!-- public.email_template_attachment_rel&#45;&gt;public.mail_template -->
<g id="edge1" class="edge">
<title>public.email_template_attachment_rel:email_template_id&#45;&gt;public.mail_template:id</title>
<path fill="none" stroke="#000000" d="M423.7594,-1115.8924C396.8409,-1106.2379 411.425,-1055.4191 434,-1027 477.9893,-971.6229 545.0107,-1046.3771 589,-991 614.8475,-958.4612 630.5556,-897.5 589,-897.5"/>
<polygon fill="#000000" stroke="#000000" points="424.121,-1115.9491 433.3021,-1121.9456 429.0605,-1116.7245 434,-1117.5 434,-1117.5 434,-1117.5 429.0605,-1116.7245 434.6979,-1113.0544 424.121,-1115.9491 424.121,-1115.9491"/>
<text text-anchor="start" x="6.994" y="-1127.5" font-family="Arial" font-size="10.00" fill="#000000">FOREIGN KEY (email_template_id) REFERENCES mail_template(id) ON DELETE CASCADE</text>
</g>
<!-- public.ir_attachment -->
<g id="node3" class="node">
<title>public.ir_attachment</title>
<polygon fill="#efefef" stroke="transparent" points="693,-897.5 693,-932.5 969,-932.5 969,-897.5 693,-897.5"/>
<polygon fill="none" stroke="#000000" points="693,-897.5 693,-932.5 969,-932.5 969,-897.5 693,-897.5"/>
<text text-anchor="start" x="701.8573" y="-910.3" font-family="Arial Bold" font-size="18.00" fill="#000000">public.ir_attachment</text>
<text text-anchor="start" x="862.8889" y="-910.3" font-family="Arial" font-size="14.00" fill="#000000"> </text>
<text text-anchor="start" x="866.7795" y="-910.3" font-family="Arial" font-size="14.00" fill="#666666">[BASE TABLE]</text>
<polygon fill="none" stroke="#000000" points="693,-867.5 693,-897.5 969,-897.5 969,-867.5 693,-867.5"/>
<text text-anchor="start" x="700" y="-878.9" font-family="Arial" font-size="14.00" fill="#000000">id </text>
<text text-anchor="start" x="714.7798" y="-878.9" font-family="Arial" font-size="14.00" fill="#666666">[integer]</text>
<polygon fill="none" stroke="#000000" points="693,-837.5 693,-867.5 969,-867.5 969,-837.5 693,-837.5"/>
<text text-anchor="start" x="700" y="-848.9" font-family="Arial" font-size="14.00" fill="#000000">name </text>
<text text-anchor="start" x="738.899" y="-848.9" font-family="Arial" font-size="14.00" fill="#666666">[varchar]</text>
<polygon fill="none" stroke="#000000" points="693,-807.5 693,-837.5 969,-837.5 969,-807.5 693,-807.5"/>
<text text-anchor="start" x="700" y="-818.9" font-family="Arial" font-size="14.00" fill="#000000">datas_fname </text>
<text text-anchor="start" x="784.8106" y="-818.9" font-family="Arial" font-size="14.00" fill="#666666">[varchar]</text>
<polygon fill="none" stroke="#000000" points="693,-777.5 693,-807.5 969,-807.5 969,-777.5 693,-777.5"/>
<text text-anchor="start" x="700" y="-788.9" font-family="Arial" font-size="14.00" fill="#000000">description </text>
<text text-anchor="start" x="771.568" y="-788.9" font-family="Arial" font-size="14.00" fill="#666666">[text]</text>
<polygon fill="none" stroke="#000000" points="693,-747.5 693,-777.5 969,-777.5 969,-747.5 693,-747.5"/>
<text text-anchor="start" x="700" y="-758.9" font-family="Arial" font-size="14.00" fill="#000000">res_name </text>
<text text-anchor="start" x="766.1248" y="-758.9" font-family="Arial" font-size="14.00" fill="#666666">[varchar]</text>
<polygon fill="none" stroke="#000000" points="693,-717.5 693,-747.5 969,-747.5 969,-717.5 693,-717.5"/>
<text text-anchor="start" x="700" y="-728.9" font-family="Arial" font-size="14.00" fill="#000000">res_model </text>
<text text-anchor="start" x="769.2314" y="-728.9" font-family="Arial" font-size="14.00" fill="#666666">[varchar]</text>
<polygon fill="none" stroke="#000000" points="693,-687.5 693,-717.5 969,-717.5 969,-687.5 693,-687.5"/>
<text text-anchor="start" x="700" y="-698.9" font-family="Arial" font-size="14.00" fill="#000000">res_model_name </text>
<text text-anchor="start" x="812.0224" y="-698.9" font-family="Arial" font-size="14.00" fill="#666666">[varchar]</text>
<polygon fill="none" stroke="#000000" points="693,-657.5 693,-687.5 969,-687.5 969,-657.5 693,-657.5"/>
<text text-anchor="start" x="700" y="-668.9" font-family="Arial" font-size="14.00" fill="#000000">res_field </text>
<text text-anchor="start" x="756.7854" y="-668.9" font-family="Arial" font-size="14.00" fill="#666666">[varchar]</text>
<polygon fill="none" stroke="#000000" points="693,-627.5 693,-657.5 969,-657.5 969,-627.5 693,-627.5"/>
<text text-anchor="start" x="700" y="-638.9" font-family="Arial" font-size="14.00" fill="#000000">res_id </text>
<text text-anchor="start" x="742.0056" y="-638.9" font-family="Arial" font-size="14.00" fill="#666666">[integer]</text>
<polygon fill="none" stroke="#000000" points="693,-597.5 693,-627.5 969,-627.5 969,-597.5 693,-597.5"/>
<text text-anchor="start" x="700" y="-608.9" font-family="Arial" font-size="14.00" fill="#000000">company_id </text>
<text text-anchor="start" x="779.3534" y="-608.9" font-family="Arial" font-size="14.00" fill="#666666">[integer]</text>
<polygon fill="none" stroke="#000000" points="693,-567.5 693,-597.5 969,-597.5 969,-567.5 693,-567.5"/>
<text text-anchor="start" x="700" y="-578.9" font-family="Arial" font-size="14.00" fill="#000000">type </text>
<text text-anchor="start" x="730.3464" y="-578.9" font-family="Arial" font-size="14.00" fill="#666666">[varchar]</text>
<polygon fill="none" stroke="#000000" points="693,-537.5 693,-567.5 969,-567.5 969,-537.5 693,-537.5"/>
<text text-anchor="start" x="700" y="-548.9" font-family="Arial" font-size="14.00" fill="#000000">url </text>
<text text-anchor="start" x="719.4404" y="-548.9" font-family="Arial" font-size="14.00" fill="#666666">[varchar(1024)]</text>
<polygon fill="none" stroke="#000000" points="693,-507.5 693,-537.5 969,-537.5 969,-507.5 693,-507.5"/>
<text text-anchor="start" x="700" y="-518.9" font-family="Arial" font-size="14.00" fill="#000000">public </text>
<text text-anchor="start" x="740.4516" y="-518.9" font-family="Arial" font-size="14.00" fill="#666666">[boolean]</text>
<polygon fill="none" stroke="#000000" points="693,-477.5 693,-507.5 969,-507.5 969,-477.5 693,-477.5"/>
<text text-anchor="start" x="700" y="-488.9" font-family="Arial" font-size="14.00" fill="#000000">access_token </text>
<text text-anchor="start" x="789.4768" y="-488.9" font-family="Arial" font-size="14.00" fill="#666666">[varchar]</text>
<polygon fill="none" stroke="#000000" points="693,-447.5 693,-477.5 969,-477.5 969,-447.5 693,-447.5"/>
<text text-anchor="start" x="700" y="-458.9" font-family="Arial" font-size="14.00" fill="#000000">db_datas </text>
<text text-anchor="start" x="761.4768" y="-458.9" font-family="Arial" font-size="14.00" fill="#666666">[bytea]</text>
<polygon fill="none" stroke="#000000" points="693,-417.5 693,-447.5 969,-447.5 969,-417.5 693,-417.5"/>
<text text-anchor="start" x="700" y="-428.9" font-family="Arial" font-size="14.00" fill="#000000">store_fname </text>
<text text-anchor="start" x="781.6886" y="-428.9" font-family="Arial" font-size="14.00" fill="#666666">[varchar]</text>
<polygon fill="none" stroke="#000000" points="693,-387.5 693,-417.5 969,-417.5 969,-387.5 693,-387.5"/>
<text text-anchor="start" x="700" y="-398.9" font-family="Arial" font-size="14.00" fill="#000000">file_size </text>
<text text-anchor="start" x="754.4488" y="-398.9" font-family="Arial" font-size="14.00" fill="#666666">[integer]</text>
<polygon fill="none" stroke="#000000" points="693,-357.5 693,-387.5 969,-387.5 969,-357.5 693,-357.5"/>
<text text-anchor="start" x="700" y="-368.9" font-family="Arial" font-size="14.00" fill="#000000">checksum </text>
<text text-anchor="start" x="766.899" y="-368.9" font-family="Arial" font-size="14.00" fill="#666666">[varchar(40)]</text>
<polygon fill="none" stroke="#000000" points="693,-327.5 693,-357.5 969,-357.5 969,-327.5 693,-327.5"/>
<text text-anchor="start" x="700" y="-338.9" font-family="Arial" font-size="14.00" fill="#000000">mimetype </text>
<text text-anchor="start" x="764.5568" y="-338.9" font-family="Arial" font-size="14.00" fill="#666666">[varchar]</text>
<polygon fill="none" stroke="#000000" points="693,-297.5 693,-327.5 969,-327.5 969,-297.5 693,-297.5"/>
<text text-anchor="start" x="700" y="-308.9" font-family="Arial" font-size="14.00" fill="#000000">index_content </text>
<text text-anchor="start" x="791.0392" y="-308.9" font-family="Arial" font-size="14.00" fill="#666666">[text]</text>
<polygon fill="none" stroke="#000000" points="693,-267.5 693,-297.5 969,-297.5 969,-267.5 693,-267.5"/>
<text text-anchor="start" x="700" y="-278.9" font-family="Arial" font-size="14.00" fill="#000000">active </text>
<text text-anchor="start" x="740.453" y="-278.9" font-family="Arial" font-size="14.00" fill="#666666">[boolean]</text>
<polygon fill="none" stroke="#000000" points="693,-237.5 693,-267.5 969,-267.5 969,-237.5 693,-237.5"/>
<text text-anchor="start" x="700" y="-248.9" font-family="Arial" font-size="14.00" fill="#000000">create_uid </text>
<text text-anchor="start" x="769.244" y="-248.9" font-family="Arial" font-size="14.00" fill="#666666">[integer]</text>
<polygon fill="none" stroke="#000000" points="693,-207.5 693,-237.5 969,-237.5 969,-207.5 693,-207.5"/>
<text text-anchor="start" x="699.5246" y="-218.9" font-family="Arial" font-size="14.00" fill="#000000">create_date </text>
<text text-anchor="start" x="777.3352" y="-218.9" font-family="Arial" font-size="14.00" fill="#666666">[timestamp without time zone]</text>
<polygon fill="none" stroke="#000000" points="693,-177.5 693,-207.5 969,-207.5 969,-177.5 693,-177.5"/>
<text text-anchor="start" x="700" y="-188.9" font-family="Arial" font-size="14.00" fill="#000000">write_uid </text>
<text text-anchor="start" x="759.892" y="-188.9" font-family="Arial" font-size="14.00" fill="#666666">[integer]</text>
<polygon fill="none" stroke="#000000" points="693,-147.5 693,-177.5 969,-177.5 969,-147.5 693,-147.5"/>
<text text-anchor="start" x="700" y="-158.9" font-family="Arial" font-size="14.00" fill="#000000">write_date </text>
<text text-anchor="start" x="768.4586" y="-158.9" font-family="Arial" font-size="14.00" fill="#666666">[timestamp without time zone]</text>
<polygon fill="none" stroke="#000000" points="693,-117.5 693,-147.5 969,-147.5 969,-117.5 693,-117.5"/>
<text text-anchor="start" x="700" y="-128.9" font-family="Arial" font-size="14.00" fill="#000000">key </text>
<text text-anchor="start" x="725.6732" y="-128.9" font-family="Arial" font-size="14.00" fill="#666666">[varchar]</text>
<polygon fill="none" stroke="#000000" points="693,-87.5 693,-117.5 969,-117.5 969,-87.5 693,-87.5"/>
<text text-anchor="start" x="700" y="-98.9" font-family="Arial" font-size="14.00" fill="#000000">website_id </text>
<text text-anchor="start" x="770.014" y="-98.9" font-family="Arial" font-size="14.00" fill="#666666">[integer]</text>
<polygon fill="none" stroke="#000000" points="693,-57.5 693,-87.5 969,-87.5 969,-57.5 693,-57.5"/>
<text text-anchor="start" x="700" y="-68.9" font-family="Arial" font-size="14.00" fill="#000000">theme_template_id </text>
<text text-anchor="start" x="822.9228" y="-68.9" font-family="Arial" font-size="14.00" fill="#666666">[integer]</text>
</g>
<!-- public.email_template_attachment_rel&#45;&gt;public.ir_attachment -->
<g id="edge2" class="edge">
<title>public.email_template_attachment_rel:attachment_id&#45;&gt;public.ir_attachment:id</title>
<path fill="none" stroke="#000000" d="M857.9473,-1084.8766C871.2992,-1075.8143 861.3013,-1045.3793 848,-1027 805.4816,-968.2493 735.5184,-1034.7507 693,-976 668.6368,-942.3355 651.4444,-882.5 693,-882.5"/>
<polygon fill="#000000" stroke="#000000" points="857.6694,-1084.9498 846.8524,-1083.1488 852.8347,-1086.2249 848,-1087.5 848,-1087.5 848,-1087.5 852.8347,-1086.2249 849.1476,-1091.8512 857.6694,-1084.9498 857.6694,-1084.9498"/>
<text text-anchor="start" x="854.986" y="-1097.5" font-family="Arial" font-size="10.00" fill="#000000">FOREIGN KEY (attachment_id) REFERENCES ir_attachment(id) ON DELETE CASCADE</text>
</g>
</g>
</svg>
