<?xml version="1.0" encoding="UTF-8" standalone="no"?>
<!DOCTYPE svg PUBLIC "-//W3C//DTD SVG 1.1//EN"
 "http://www.w3.org/Graphics/SVG/1.1/DTD/svg11.dtd">
<!-- Generated by graphviz version 2.40.1 (20161225.0304)
 -->
<!-- Title: public.crm_merge_opportunity Pages: 1 -->
<svg width="1184pt" height="1439pt"
 viewBox="0.00 0.00 1183.50 1439.00" xmlns="http://www.w3.org/2000/svg" xmlns:xlink="http://www.w3.org/1999/xlink">
<g id="graph0" class="graph" transform="scale(1 1) rotate(0) translate(4 1435)">
<title>public.crm_merge_opportunity</title>
<polygon fill="#ffffff" stroke="transparent" points="-4,4 -4,-1435 1179.5,-1435 1179.5,4 -4,4"/>
<!-- public.crm_merge_opportunity -->
<g id="node1" class="node">
<title>public.crm_merge_opportunity</title>
<polygon fill="#efefef" stroke="transparent" points="432,-1132.5 432,-1167.5 785,-1167.5 785,-1132.5 432,-1132.5"/>
<polygon fill="none" stroke="#000000" points="432,-1132.5 432,-1167.5 785,-1167.5 785,-1132.5 432,-1132.5"/>
<text text-anchor="start" x="438.8546" y="-1145.3" font-family="Arial Bold" font-size="18.00" fill="#000000">public.crm_merge_opportunity</text>
<text text-anchor="start" x="680.8916" y="-1145.3" font-family="Arial" font-size="14.00" fill="#000000"> </text>
<text text-anchor="start" x="684.7822" y="-1145.3" font-family="Arial" font-size="14.00" fill="#666666">[BASE TABLE]</text>
<polygon fill="none" stroke="#000000" points="432,-1102.5 432,-1132.5 785,-1132.5 785,-1102.5 432,-1102.5"/>
<text text-anchor="start" x="439" y="-1113.9" font-family="Arial" font-size="14.00" fill="#000000">id </text>
<text text-anchor="start" x="453.7798" y="-1113.9" font-family="Arial" font-size="14.00" fill="#666666">[integer]</text>
<polygon fill="none" stroke="#000000" points="432,-1072.5 432,-1102.5 785,-1102.5 785,-1072.5 432,-1072.5"/>
<text text-anchor="start" x="439" y="-1083.9" font-family="Arial" font-size="14.00" fill="#000000">user_id </text>
<text text-anchor="start" x="488.7882" y="-1083.9" font-family="Arial" font-size="14.00" fill="#666666">[integer]</text>
<polygon fill="none" stroke="#000000" points="432,-1042.5 432,-1072.5 785,-1072.5 785,-1042.5 432,-1042.5"/>
<text text-anchor="start" x="439" y="-1053.9" font-family="Arial" font-size="14.00" fill="#000000">team_id </text>
<text text-anchor="start" x="492.6788" y="-1053.9" font-family="Arial" font-size="14.00" fill="#666666">[integer]</text>
<polygon fill="none" stroke="#000000" points="432,-1012.5 432,-1042.5 785,-1042.5 785,-1012.5 432,-1012.5"/>
<text text-anchor="start" x="439" y="-1023.9" font-family="Arial" font-size="14.00" fill="#000000">create_uid </text>
<text text-anchor="start" x="508.244" y="-1023.9" font-family="Arial" font-size="14.00" fill="#666666">[integer]</text>
<polygon fill="none" stroke="#000000" points="432,-982.5 432,-1012.5 785,-1012.5 785,-982.5 432,-982.5"/>
<text text-anchor="start" x="439" y="-993.9" font-family="Arial" font-size="14.00" fill="#000000">create_date </text>
<text text-anchor="start" x="516.8106" y="-993.9" font-family="Arial" font-size="14.00" fill="#666666">[timestamp without time zone]</text>
<polygon fill="none" stroke="#000000" points="432,-952.5 432,-982.5 785,-982.5 785,-952.5 432,-952.5"/>
<text text-anchor="start" x="439" y="-963.9" font-family="Arial" font-size="14.00" fill="#000000">write_uid </text>
<text text-anchor="start" x="498.892" y="-963.9" font-family="Arial" font-size="14.00" fill="#666666">[integer]</text>
<polygon fill="none" stroke="#000000" points="432,-922.5 432,-952.5 785,-952.5 785,-922.5 432,-922.5"/>
<text text-anchor="start" x="439" y="-933.9" font-family="Arial" font-size="14.00" fill="#000000">write_date </text>
<text text-anchor="start" x="507.4586" y="-933.9" font-family="Arial" font-size="14.00" fill="#666666">[timestamp without time zone]</text>
<polygon fill="none" stroke="#000000" stroke-width="3" points="430,-921.5 430,-1169.5 786,-1169.5 786,-921.5 430,-921.5"/>
</g>
<!-- public.res_users -->
<g id="node3" class="node">
<title>public.res_users</title>
<polygon fill="#efefef" stroke="transparent" points="471,-732.5 471,-767.5 747,-767.5 747,-732.5 471,-732.5"/>
<polygon fill="none" stroke="#000000" points="471,-732.5 471,-767.5 747,-767.5 747,-732.5 471,-732.5"/>
<text text-anchor="start" x="494.8639" y="-745.3" font-family="Arial Bold" font-size="18.00" fill="#000000">public.res_users</text>
<text text-anchor="start" x="625.8823" y="-745.3" font-family="Arial" font-size="14.00" fill="#000000"> </text>
<text text-anchor="start" x="629.7729" y="-745.3" font-family="Arial" font-size="14.00" fill="#666666">[BASE TABLE]</text>
<polygon fill="none" stroke="#000000" points="471,-702.5 471,-732.5 747,-732.5 747,-702.5 471,-702.5"/>
<text text-anchor="start" x="478" y="-713.9" font-family="Arial" font-size="14.00" fill="#000000">id </text>
<text text-anchor="start" x="492.7798" y="-713.9" font-family="Arial" font-size="14.00" fill="#666666">[integer]</text>
<polygon fill="none" stroke="#000000" points="471,-672.5 471,-702.5 747,-702.5 747,-672.5 471,-672.5"/>
<text text-anchor="start" x="478" y="-683.9" font-family="Arial" font-size="14.00" fill="#000000">active </text>
<text text-anchor="start" x="518.453" y="-683.9" font-family="Arial" font-size="14.00" fill="#666666">[boolean]</text>
<polygon fill="none" stroke="#000000" points="471,-642.5 471,-672.5 747,-672.5 747,-642.5 471,-642.5"/>
<text text-anchor="start" x="478" y="-653.9" font-family="Arial" font-size="14.00" fill="#000000">login </text>
<text text-anchor="start" x="511.4516" y="-653.9" font-family="Arial" font-size="14.00" fill="#666666">[varchar]</text>
<polygon fill="none" stroke="#000000" points="471,-612.5 471,-642.5 747,-642.5 747,-612.5 471,-612.5"/>
<text text-anchor="start" x="478" y="-623.9" font-family="Arial" font-size="14.00" fill="#000000">password </text>
<text text-anchor="start" x="541.7882" y="-623.9" font-family="Arial" font-size="14.00" fill="#666666">[varchar]</text>
<polygon fill="none" stroke="#000000" points="471,-582.5 471,-612.5 747,-612.5 747,-582.5 471,-582.5"/>
<text text-anchor="start" x="478" y="-593.9" font-family="Arial" font-size="14.00" fill="#000000">company_id </text>
<text text-anchor="start" x="557.3534" y="-593.9" font-family="Arial" font-size="14.00" fill="#666666">[integer]</text>
<polygon fill="none" stroke="#000000" points="471,-552.5 471,-582.5 747,-582.5 747,-552.5 471,-552.5"/>
<text text-anchor="start" x="478" y="-563.9" font-family="Arial" font-size="14.00" fill="#000000">partner_id </text>
<text text-anchor="start" x="544.9046" y="-563.9" font-family="Arial" font-size="14.00" fill="#666666">[integer]</text>
<polygon fill="none" stroke="#000000" points="471,-522.5 471,-552.5 747,-552.5 747,-522.5 471,-522.5"/>
<text text-anchor="start" x="477.5246" y="-533.9" font-family="Arial" font-size="14.00" fill="#000000">create_date </text>
<text text-anchor="start" x="555.3352" y="-533.9" font-family="Arial" font-size="14.00" fill="#666666">[timestamp without time zone]</text>
<polygon fill="none" stroke="#000000" points="471,-492.5 471,-522.5 747,-522.5 747,-492.5 471,-492.5"/>
<text text-anchor="start" x="478" y="-503.9" font-family="Arial" font-size="14.00" fill="#000000">signature </text>
<text text-anchor="start" x="539.4614" y="-503.9" font-family="Arial" font-size="14.00" fill="#666666">[text]</text>
<polygon fill="none" stroke="#000000" points="471,-462.5 471,-492.5 747,-492.5 747,-462.5 471,-462.5"/>
<text text-anchor="start" x="478" y="-473.9" font-family="Arial" font-size="14.00" fill="#000000">action_id </text>
<text text-anchor="start" x="537.9074" y="-473.9" font-family="Arial" font-size="14.00" fill="#666666">[integer]</text>
<polygon fill="none" stroke="#000000" points="471,-432.5 471,-462.5 747,-462.5 747,-432.5 471,-432.5"/>
<text text-anchor="start" x="478" y="-443.9" font-family="Arial" font-size="14.00" fill="#000000">share </text>
<text text-anchor="start" x="516.899" y="-443.9" font-family="Arial" font-size="14.00" fill="#666666">[boolean]</text>
<polygon fill="none" stroke="#000000" points="471,-402.5 471,-432.5 747,-432.5 747,-402.5 471,-402.5"/>
<text text-anchor="start" x="478" y="-413.9" font-family="Arial" font-size="14.00" fill="#000000">create_uid </text>
<text text-anchor="start" x="547.244" y="-413.9" font-family="Arial" font-size="14.00" fill="#666666">[integer]</text>
<polygon fill="none" stroke="#000000" points="471,-372.5 471,-402.5 747,-402.5 747,-372.5 471,-372.5"/>
<text text-anchor="start" x="478" y="-383.9" font-family="Arial" font-size="14.00" fill="#000000">write_uid </text>
<text text-anchor="start" x="537.892" y="-383.9" font-family="Arial" font-size="14.00" fill="#666666">[integer]</text>
<polygon fill="none" stroke="#000000" points="471,-342.5 471,-372.5 747,-372.5 747,-342.5 471,-342.5"/>
<text text-anchor="start" x="478" y="-353.9" font-family="Arial" font-size="14.00" fill="#000000">write_date </text>
<text text-anchor="start" x="546.4586" y="-353.9" font-family="Arial" font-size="14.00" fill="#666666">[timestamp without time zone]</text>
<polygon fill="none" stroke="#000000" points="471,-312.5 471,-342.5 747,-342.5 747,-312.5 471,-312.5"/>
<text text-anchor="start" x="478" y="-323.9" font-family="Arial" font-size="14.00" fill="#000000">alias_id </text>
<text text-anchor="start" x="529.3408" y="-323.9" font-family="Arial" font-size="14.00" fill="#666666">[integer]</text>
<polygon fill="none" stroke="#000000" points="471,-282.5 471,-312.5 747,-312.5 747,-282.5 471,-282.5"/>
<text text-anchor="start" x="478" y="-293.9" font-family="Arial" font-size="14.00" fill="#000000">notification_type </text>
<text text-anchor="start" x="583.0336" y="-293.9" font-family="Arial" font-size="14.00" fill="#666666">[varchar]</text>
<polygon fill="none" stroke="#000000" points="471,-252.5 471,-282.5 747,-282.5 747,-252.5 471,-252.5"/>
<text text-anchor="start" x="478" y="-263.9" font-family="Arial" font-size="14.00" fill="#000000">odoobot_state </text>
<text text-anchor="start" x="570.6058" y="-263.9" font-family="Arial" font-size="14.00" fill="#666666">[varchar]</text>
<polygon fill="none" stroke="#000000" points="471,-222.5 471,-252.5 747,-252.5 747,-222.5 471,-222.5"/>
<text text-anchor="start" x="478" y="-233.9" font-family="Arial" font-size="14.00" fill="#000000">sale_team_id </text>
<text text-anchor="start" x="565.1332" y="-233.9" font-family="Arial" font-size="14.00" fill="#666666">[integer]</text>
<polygon fill="none" stroke="#000000" points="471,-192.5 471,-222.5 747,-222.5 747,-192.5 471,-192.5"/>
<text text-anchor="start" x="478" y="-203.9" font-family="Arial" font-size="14.00" fill="#000000">target_sales_won </text>
<text text-anchor="start" x="591.589" y="-203.9" font-family="Arial" font-size="14.00" fill="#666666">[integer]</text>
<polygon fill="none" stroke="#000000" points="471,-162.5 471,-192.5 747,-192.5 747,-162.5 471,-162.5"/>
<text text-anchor="start" x="478" y="-173.9" font-family="Arial" font-size="14.00" fill="#000000">target_sales_done </text>
<text text-anchor="start" x="597.0476" y="-173.9" font-family="Arial" font-size="14.00" fill="#666666">[integer]</text>
<polygon fill="none" stroke="#000000" points="471,-132.5 471,-162.5 747,-162.5 747,-132.5 471,-132.5"/>
<text text-anchor="start" x="478" y="-143.9" font-family="Arial" font-size="14.00" fill="#000000">website_id </text>
<text text-anchor="start" x="548.014" y="-143.9" font-family="Arial" font-size="14.00" fill="#666666">[integer]</text>
<polygon fill="none" stroke="#000000" points="471,-102.5 471,-132.5 747,-132.5 747,-102.5 471,-102.5"/>
<text text-anchor="start" x="478" y="-113.9" font-family="Arial" font-size="14.00" fill="#000000">target_sales_invoiced </text>
<text text-anchor="start" x="617.2608" y="-113.9" font-family="Arial" font-size="14.00" fill="#666666">[integer]</text>
<polygon fill="none" stroke="#000000" points="471,-72.5 471,-102.5 747,-102.5 747,-72.5 471,-72.5"/>
<text text-anchor="start" x="478" y="-83.9" font-family="Arial" font-size="14.00" fill="#000000">pos_security_pin </text>
<text text-anchor="start" x="586.9158" y="-83.9" font-family="Arial" font-size="14.00" fill="#666666">[varchar(32)]</text>
</g>
<!-- public.crm_merge_opportunity&#45;&gt;public.res_users -->
<g id="edge2" class="edge">
<title>public.crm_merge_opportunity:user_id&#45;&gt;public.res_users:id</title>
<path fill="none" stroke="#000000" d="M795.3831,-1086.881C875.8155,-1076.8292 841.6556,-946.8021 785,-877 695.1303,-766.2767 560.8697,-921.7233 471,-811 444.8117,-778.7349 429.4444,-717.5 471,-717.5"/>
<polygon fill="#000000" stroke="#000000" points="794.9823,-1086.9048 784.7322,-1083.008 789.9911,-1087.2024 785,-1087.5 785,-1087.5 785,-1087.5 789.9911,-1087.2024 785.2678,-1091.992 794.9823,-1086.9048 794.9823,-1086.9048"/>
<text text-anchor="start" x="791.6055" y="-1097.5" font-family="Arial" font-size="10.00" fill="#000000">FOREIGN KEY (user_id) REFERENCES res_users(id) ON DELETE SET NULL</text>
</g>
<!-- public.crm_merge_opportunity&#45;&gt;public.res_users -->
<g id="edge4" class="edge">
<title>public.crm_merge_opportunity:create_uid&#45;&gt;public.res_users:id</title>
<path fill="none" stroke="#000000" d="M795.164,-1026.6394C849.1313,-1016.8589 824.8481,-926.0946 785,-877 695.1303,-766.2767 560.8697,-921.7233 471,-811 444.8117,-778.7349 429.4444,-717.5 471,-717.5"/>
<polygon fill="#000000" stroke="#000000" points="794.9643,-1026.6562 784.6203,-1023.016 789.9822,-1027.0781 785,-1027.5 785,-1027.5 785,-1027.5 789.9822,-1027.0781 785.3797,-1031.984 794.9643,-1026.6562 794.9643,-1026.6562"/>
<text text-anchor="start" x="791.657" y="-1037.5" font-family="Arial" font-size="10.00" fill="#000000">FOREIGN KEY (create_uid) REFERENCES res_users(id) ON DELETE SET NULL</text>
</g>
<!-- public.crm_merge_opportunity&#45;&gt;public.res_users -->
<g id="edge5" class="edge">
<title>public.crm_merge_opportunity:write_uid&#45;&gt;public.res_users:id</title>
<path fill="none" stroke="#000000" d="M794.8965,-966.0092C822.3413,-956.6333 807.9717,-905.3021 785,-877 695.1303,-766.2767 560.8697,-921.7233 471,-811 444.8117,-778.7349 429.4444,-717.5 471,-717.5"/>
<polygon fill="#000000" stroke="#000000" points="794.8884,-966.0103 784.3296,-963.0502 789.9442,-966.7551 785,-967.5 785,-967.5 785,-967.5 789.9442,-966.7551 785.6704,-971.9498 794.8884,-966.0103 794.8884,-966.0103"/>
<text text-anchor="start" x="791.997" y="-977.5" font-family="Arial" font-size="10.00" fill="#000000">FOREIGN KEY (write_uid) REFERENCES res_users(id) ON DELETE SET NULL</text>
</g>
<!-- public.crm_team -->
<g id="node4" class="node">
<title>public.crm_team</title>
<polygon fill="#efefef" stroke="transparent" points="852,-762.5 852,-797.5 1133,-797.5 1133,-762.5 852,-762.5"/>
<polygon fill="none" stroke="#000000" points="852,-762.5 852,-797.5 1133,-797.5 1133,-762.5 852,-762.5"/>
<text text-anchor="start" x="877.8698" y="-775.3" font-family="Arial Bold" font-size="18.00" fill="#000000">public.crm_team</text>
<text text-anchor="start" x="1009.8764" y="-775.3" font-family="Arial" font-size="14.00" fill="#000000"> </text>
<text text-anchor="start" x="1013.767" y="-775.3" font-family="Arial" font-size="14.00" fill="#666666">[BASE TABLE]</text>
<polygon fill="none" stroke="#000000" points="852,-732.5 852,-762.5 1133,-762.5 1133,-732.5 852,-732.5"/>
<text text-anchor="start" x="859" y="-743.9" font-family="Arial" font-size="14.00" fill="#000000">id </text>
<text text-anchor="start" x="873.7798" y="-743.9" font-family="Arial" font-size="14.00" fill="#666666">[integer]</text>
<polygon fill="none" stroke="#000000" points="852,-702.5 852,-732.5 1133,-732.5 1133,-702.5 852,-702.5"/>
<text text-anchor="start" x="859" y="-713.9" font-family="Arial" font-size="14.00" fill="#000000">message_main_attachment_id </text>
<text text-anchor="start" x="1053.4964" y="-713.9" font-family="Arial" font-size="14.00" fill="#666666">[integer]</text>
<polygon fill="none" stroke="#000000" points="852,-672.5 852,-702.5 1133,-702.5 1133,-672.5 852,-672.5"/>
<text text-anchor="start" x="859" y="-683.9" font-family="Arial" font-size="14.00" fill="#000000">name </text>
<text text-anchor="start" x="897.899" y="-683.9" font-family="Arial" font-size="14.00" fill="#666666">[varchar]</text>
<polygon fill="none" stroke="#000000" points="852,-642.5 852,-672.5 1133,-672.5 1133,-642.5 852,-642.5"/>
<text text-anchor="start" x="859" y="-653.9" font-family="Arial" font-size="14.00" fill="#000000">active </text>
<text text-anchor="start" x="899.453" y="-653.9" font-family="Arial" font-size="14.00" fill="#666666">[boolean]</text>
<polygon fill="none" stroke="#000000" points="852,-612.5 852,-642.5 1133,-642.5 1133,-612.5 852,-612.5"/>
<text text-anchor="start" x="859" y="-623.9" font-family="Arial" font-size="14.00" fill="#000000">company_id </text>
<text text-anchor="start" x="938.3534" y="-623.9" font-family="Arial" font-size="14.00" fill="#666666">[integer]</text>
<polygon fill="none" stroke="#000000" points="852,-582.5 852,-612.5 1133,-612.5 1133,-582.5 852,-582.5"/>
<text text-anchor="start" x="859" y="-593.9" font-family="Arial" font-size="14.00" fill="#000000">user_id </text>
<text text-anchor="start" x="908.7882" y="-593.9" font-family="Arial" font-size="14.00" fill="#666666">[integer]</text>
<polygon fill="none" stroke="#000000" points="852,-552.5 852,-582.5 1133,-582.5 1133,-552.5 852,-552.5"/>
<text text-anchor="start" x="859" y="-563.9" font-family="Arial" font-size="14.00" fill="#000000">reply_to </text>
<text text-anchor="start" x="912.6788" y="-563.9" font-family="Arial" font-size="14.00" fill="#666666">[varchar]</text>
<polygon fill="none" stroke="#000000" points="852,-522.5 852,-552.5 1133,-552.5 1133,-522.5 852,-522.5"/>
<text text-anchor="start" x="859" y="-533.9" font-family="Arial" font-size="14.00" fill="#000000">color </text>
<text text-anchor="start" x="893.223" y="-533.9" font-family="Arial" font-size="14.00" fill="#666666">[integer]</text>
<polygon fill="none" stroke="#000000" points="852,-492.5 852,-522.5 1133,-522.5 1133,-492.5 852,-492.5"/>
<text text-anchor="start" x="859" y="-503.9" font-family="Arial" font-size="14.00" fill="#000000">team_type </text>
<text text-anchor="start" x="928.2454" y="-503.9" font-family="Arial" font-size="14.00" fill="#666666">[varchar]</text>
<polygon fill="none" stroke="#000000" points="852,-462.5 852,-492.5 1133,-492.5 1133,-462.5 852,-462.5"/>
<text text-anchor="start" x="859" y="-473.9" font-family="Arial" font-size="14.00" fill="#000000">dashboard_graph_model </text>
<text text-anchor="start" x="1018.5006" y="-473.9" font-family="Arial" font-size="14.00" fill="#666666">[varchar]</text>
<polygon fill="none" stroke="#000000" points="852,-432.5 852,-462.5 1133,-462.5 1133,-432.5 852,-432.5"/>
<text text-anchor="start" x="859" y="-443.9" font-family="Arial" font-size="14.00" fill="#000000">dashboard_graph_group </text>
<text text-anchor="start" x="1016.1766" y="-443.9" font-family="Arial" font-size="14.00" fill="#666666">[varchar]</text>
<polygon fill="none" stroke="#000000" points="852,-402.5 852,-432.5 1133,-432.5 1133,-402.5 852,-402.5"/>
<text text-anchor="start" x="859" y="-413.9" font-family="Arial" font-size="14.00" fill="#000000">dashboard_graph_period </text>
<text text-anchor="start" x="1019.2832" y="-413.9" font-family="Arial" font-size="14.00" fill="#666666">[varchar]</text>
<polygon fill="none" stroke="#000000" points="852,-372.5 852,-402.5 1133,-402.5 1133,-372.5 852,-372.5"/>
<text text-anchor="start" x="859" y="-383.9" font-family="Arial" font-size="14.00" fill="#000000">create_uid </text>
<text text-anchor="start" x="928.244" y="-383.9" font-family="Arial" font-size="14.00" fill="#666666">[integer]</text>
<polygon fill="none" stroke="#000000" points="852,-342.5 852,-372.5 1133,-372.5 1133,-342.5 852,-342.5"/>
<text text-anchor="start" x="859" y="-353.9" font-family="Arial" font-size="14.00" fill="#000000">create_date </text>
<text text-anchor="start" x="936.8106" y="-353.9" font-family="Arial" font-size="14.00" fill="#666666">[timestamp without time zone]</text>
<polygon fill="none" stroke="#000000" points="852,-312.5 852,-342.5 1133,-342.5 1133,-312.5 852,-312.5"/>
<text text-anchor="start" x="859" y="-323.9" font-family="Arial" font-size="14.00" fill="#000000">write_uid </text>
<text text-anchor="start" x="918.892" y="-323.9" font-family="Arial" font-size="14.00" fill="#666666">[integer]</text>
<polygon fill="none" stroke="#000000" points="852,-282.5 852,-312.5 1133,-312.5 1133,-282.5 852,-282.5"/>
<text text-anchor="start" x="859" y="-293.9" font-family="Arial" font-size="14.00" fill="#000000">write_date </text>
<text text-anchor="start" x="927.4586" y="-293.9" font-family="Arial" font-size="14.00" fill="#666666">[timestamp without time zone]</text>
<polygon fill="none" stroke="#000000" points="852,-252.5 852,-282.5 1133,-282.5 1133,-252.5 852,-252.5"/>
<text text-anchor="start" x="859" y="-263.9" font-family="Arial" font-size="14.00" fill="#000000">use_leads </text>
<text text-anchor="start" x="926.6928" y="-263.9" font-family="Arial" font-size="14.00" fill="#666666">[boolean]</text>
<polygon fill="none" stroke="#000000" points="852,-222.5 852,-252.5 1133,-252.5 1133,-222.5 852,-222.5"/>
<text text-anchor="start" x="859" y="-233.9" font-family="Arial" font-size="14.00" fill="#000000">use_opportunities </text>
<text text-anchor="start" x="973.3716" y="-233.9" font-family="Arial" font-size="14.00" fill="#666666">[boolean]</text>
<polygon fill="none" stroke="#000000" points="852,-192.5 852,-222.5 1133,-222.5 1133,-192.5 852,-192.5"/>
<text text-anchor="start" x="859" y="-203.9" font-family="Arial" font-size="14.00" fill="#000000">alias_id </text>
<text text-anchor="start" x="910.3408" y="-203.9" font-family="Arial" font-size="14.00" fill="#666666">[integer]</text>
<polygon fill="none" stroke="#000000" points="852,-162.5 852,-192.5 1133,-192.5 1133,-162.5 852,-162.5"/>
<text text-anchor="start" x="858.6789" y="-173.9" font-family="Arial" font-size="14.00" fill="#000000">dashboard_graph_group_pipeline </text>
<text text-anchor="start" x="1071.8709" y="-173.9" font-family="Arial" font-size="14.00" fill="#666666">[varchar]</text>
<polygon fill="none" stroke="#000000" points="852,-132.5 852,-162.5 1133,-162.5 1133,-132.5 852,-132.5"/>
<text text-anchor="start" x="859" y="-143.9" font-family="Arial" font-size="14.00" fill="#000000">use_quotations </text>
<text text-anchor="start" x="957.8218" y="-143.9" font-family="Arial" font-size="14.00" fill="#666666">[boolean]</text>
<polygon fill="none" stroke="#000000" points="852,-102.5 852,-132.5 1133,-132.5 1133,-102.5 852,-102.5"/>
<text text-anchor="start" x="859" y="-113.9" font-family="Arial" font-size="14.00" fill="#000000">use_invoices </text>
<text text-anchor="start" x="943.7994" y="-113.9" font-family="Arial" font-size="14.00" fill="#666666">[boolean]</text>
<polygon fill="none" stroke="#000000" points="852,-72.5 852,-102.5 1133,-102.5 1133,-72.5 852,-72.5"/>
<text text-anchor="start" x="859" y="-83.9" font-family="Arial" font-size="14.00" fill="#000000">invoiced_target </text>
<text text-anchor="start" x="957.8064" y="-83.9" font-family="Arial" font-size="14.00" fill="#666666">[integer]</text>
<polygon fill="none" stroke="#000000" points="852,-42.5 852,-72.5 1133,-72.5 1133,-42.5 852,-42.5"/>
<text text-anchor="start" x="859" y="-53.9" font-family="Arial" font-size="14.00" fill="#000000">dashboard_graph_group_pos </text>
<text text-anchor="start" x="1046.5244" y="-53.9" font-family="Arial" font-size="14.00" fill="#666666">[varchar]</text>
</g>
<!-- public.crm_merge_opportunity&#45;&gt;public.crm_team -->
<g id="edge3" class="edge">
<title>public.crm_merge_opportunity:team_id&#45;&gt;public.crm_team:id</title>
<path fill="none" stroke="#000000" d="M795.0605,-1056.9106C915.2746,-1041.9577 714.6201,-747.5 852,-747.5"/>
<polygon fill="#000000" stroke="#000000" points="794.9829,-1056.915 784.7368,-1053.0077 789.9914,-1057.2075 785,-1057.5 785,-1057.5 785,-1057.5 789.9914,-1057.2075 785.2632,-1061.9923 794.9829,-1056.915 794.9829,-1056.915"/>
<text text-anchor="start" x="791.9415" y="-1067.5" font-family="Arial" font-size="10.00" fill="#000000">FOREIGN KEY (team_id) REFERENCES crm_team(id) ON DELETE SET NULL</text>
</g>
<!-- public.merge_opportunity_rel -->
<g id="node2" class="node">
<title>public.merge_opportunity_rel</title>
<polygon fill="#efefef" stroke="transparent" points="437,-1352.5 437,-1387.5 780,-1387.5 780,-1352.5 437,-1352.5"/>
<polygon fill="none" stroke="#000000" points="437,-1352.5 437,-1387.5 780,-1387.5 780,-1352.5 437,-1352.5"/>
<text text-anchor="start" x="443.8505" y="-1365.3" font-family="Arial Bold" font-size="18.00" fill="#000000">public.merge_opportunity_rel</text>
<text text-anchor="start" x="675.8957" y="-1365.3" font-family="Arial" font-size="14.00" fill="#000000"> </text>
<text text-anchor="start" x="679.7863" y="-1365.3" font-family="Arial" font-size="14.00" fill="#666666">[BASE TABLE]</text>
<polygon fill="none" stroke="#000000" points="437,-1322.5 437,-1352.5 780,-1352.5 780,-1322.5 437,-1322.5"/>
<text text-anchor="start" x="444" y="-1333.9" font-family="Arial" font-size="14.00" fill="#000000">merge_id </text>
<text text-anchor="start" x="506.2314" y="-1333.9" font-family="Arial" font-size="14.00" fill="#666666">[integer]</text>
<polygon fill="none" stroke="#000000" points="437,-1292.5 437,-1322.5 780,-1322.5 780,-1292.5 437,-1292.5"/>
<text text-anchor="start" x="444" y="-1303.9" font-family="Arial" font-size="14.00" fill="#000000">opportunity_id </text>
<text text-anchor="start" x="535.8064" y="-1303.9" font-family="Arial" font-size="14.00" fill="#666666">[integer]</text>
</g>
<!-- public.merge_opportunity_rel&#45;&gt;public.crm_merge_opportunity -->
<g id="edge1" class="edge">
<title>public.merge_opportunity_rel:merge_id&#45;&gt;public.crm_merge_opportunity:id</title>
<path fill="none" stroke="#000000" d="M427.0294,-1336.7034C338.9725,-1322.3032 337.6354,-1117.5 432,-1117.5"/>
<polygon fill="#000000" stroke="#000000" points="427.0318,-1336.7035 436.6416,-1341.9857 432.0159,-1337.1017 437,-1337.5 437,-1337.5 437,-1337.5 432.0159,-1337.1017 437.3584,-1333.0143 427.0318,-1336.7035 427.0318,-1336.7035"/>
<text text-anchor="start" x="7.0475" y="-1347.5" font-family="Arial" font-size="10.00" fill="#000000">FOREIGN KEY (merge_id) REFERENCES crm_merge_opportunity(id) ON DELETE CASCADE</text>
</g>
</g>
</svg>
