<?xml version="1.0" encoding="UTF-8" standalone="no"?>
<!DOCTYPE svg PUBLIC "-//W3C//DTD SVG 1.1//EN"
 "http://www.w3.org/Graphics/SVG/1.1/DTD/svg11.dtd">
<!-- Generated by graphviz version 2.40.1 (20161225.0304)
 -->
<!-- Title: public.crm_lead2opportunity_partner_mass_res_users_rel Pages: 1 -->
<svg width="1603pt" height="1012pt"
 viewBox="0.00 0.00 1603.00 1012.00" xmlns="http://www.w3.org/2000/svg" xmlns:xlink="http://www.w3.org/1999/xlink">
<g id="graph0" class="graph" transform="scale(1 1) rotate(0) translate(4 1008)">
<title>public.crm_lead2opportunity_partner_mass_res_users_rel</title>
<polygon fill="#ffffff" stroke="transparent" points="-4,4 -4,-1008 1599,-1008 1599,4 -4,4"/>
<!-- public.crm_lead2opportunity_partner_mass_res_users_rel -->
<g id="node1" class="node">
<title>public.crm_lead2opportunity_partner_mass_res_users_rel</title>
<polygon fill="#efefef" stroke="transparent" points="629,-922.5 629,-957.5 1204,-957.5 1204,-922.5 629,-922.5"/>
<polygon fill="none" stroke="#000000" points="629,-922.5 629,-957.5 1204,-957.5 1204,-922.5 629,-922.5"/>
<text text-anchor="start" x="635.8315" y="-935.3" font-family="Arial Bold" font-size="18.00" fill="#000000">public.crm_lead2opportunity_partner_mass_res_users_rel</text>
<text text-anchor="start" x="1099.9147" y="-935.3" font-family="Arial" font-size="14.00" fill="#000000"> </text>
<text text-anchor="start" x="1103.8053" y="-935.3" font-family="Arial" font-size="14.00" fill="#666666">[BASE TABLE]</text>
<polygon fill="none" stroke="#000000" points="629,-892.5 629,-922.5 1204,-922.5 1204,-892.5 629,-892.5"/>
<text text-anchor="start" x="636" y="-903.9" font-family="Arial" font-size="14.00" fill="#000000">crm_lead2opportunity_partner_mass_id </text>
<text text-anchor="start" x="886.4978" y="-903.9" font-family="Arial" font-size="14.00" fill="#666666">[integer]</text>
<polygon fill="none" stroke="#000000" points="629,-862.5 629,-892.5 1204,-892.5 1204,-862.5 629,-862.5"/>
<text text-anchor="start" x="636" y="-873.9" font-family="Arial" font-size="14.00" fill="#000000">res_users_id </text>
<text text-anchor="start" x="720.014" y="-873.9" font-family="Arial" font-size="14.00" fill="#666666">[integer]</text>
<polygon fill="none" stroke="#000000" stroke-width="3" points="627,-861.5 627,-959.5 1205,-959.5 1205,-861.5 627,-861.5"/>
</g>
<!-- public.crm_lead2opportunity_partner_mass -->
<g id="node2" class="node">
<title>public.crm_lead2opportunity_partner_mass</title>
<polygon fill="#efefef" stroke="transparent" points="454,-552.5 454,-587.5 910,-587.5 910,-552.5 454,-552.5"/>
<polygon fill="none" stroke="#000000" points="454,-552.5 454,-587.5 910,-587.5 910,-552.5 454,-552.5"/>
<text text-anchor="start" x="460.8386" y="-565.3" font-family="Arial Bold" font-size="18.00" fill="#000000">public.crm_lead2opportunity_partner_mass</text>
<text text-anchor="start" x="805.9076" y="-565.3" font-family="Arial" font-size="14.00" fill="#000000"> </text>
<text text-anchor="start" x="809.7982" y="-565.3" font-family="Arial" font-size="14.00" fill="#666666">[BASE TABLE]</text>
<polygon fill="none" stroke="#000000" points="454,-522.5 454,-552.5 910,-552.5 910,-522.5 454,-522.5"/>
<text text-anchor="start" x="461" y="-533.9" font-family="Arial" font-size="14.00" fill="#000000">id </text>
<text text-anchor="start" x="475.7798" y="-533.9" font-family="Arial" font-size="14.00" fill="#666666">[integer]</text>
<polygon fill="none" stroke="#000000" points="454,-492.5 454,-522.5 910,-522.5 910,-492.5 454,-492.5"/>
<text text-anchor="start" x="461" y="-503.9" font-family="Arial" font-size="14.00" fill="#000000">team_id </text>
<text text-anchor="start" x="514.6788" y="-503.9" font-family="Arial" font-size="14.00" fill="#666666">[integer]</text>
<polygon fill="none" stroke="#000000" points="454,-462.5 454,-492.5 910,-492.5 910,-462.5 454,-462.5"/>
<text text-anchor="start" x="461" y="-473.9" font-family="Arial" font-size="14.00" fill="#000000">deduplicate </text>
<text text-anchor="start" x="536.4726" y="-473.9" font-family="Arial" font-size="14.00" fill="#666666">[boolean]</text>
<polygon fill="none" stroke="#000000" points="454,-432.5 454,-462.5 910,-462.5 910,-432.5 454,-432.5"/>
<text text-anchor="start" x="461" y="-443.9" font-family="Arial" font-size="14.00" fill="#000000">action </text>
<text text-anchor="start" x="502.2356" y="-443.9" font-family="Arial" font-size="14.00" fill="#666666">[varchar]</text>
<polygon fill="none" stroke="#000000" points="454,-402.5 454,-432.5 910,-432.5 910,-402.5 454,-402.5"/>
<text text-anchor="start" x="461" y="-413.9" font-family="Arial" font-size="14.00" fill="#000000">force_assignation </text>
<text text-anchor="start" x="574.589" y="-413.9" font-family="Arial" font-size="14.00" fill="#666666">[boolean]</text>
<polygon fill="none" stroke="#000000" points="454,-372.5 454,-402.5 910,-402.5 910,-372.5 454,-372.5"/>
<text text-anchor="start" x="461" y="-383.9" font-family="Arial" font-size="14.00" fill="#000000">partner_id </text>
<text text-anchor="start" x="527.9046" y="-383.9" font-family="Arial" font-size="14.00" fill="#666666">[integer]</text>
<polygon fill="none" stroke="#000000" points="454,-342.5 454,-372.5 910,-372.5 910,-342.5 454,-342.5"/>
<text text-anchor="start" x="461" y="-353.9" font-family="Arial" font-size="14.00" fill="#000000">name </text>
<text text-anchor="start" x="499.899" y="-353.9" font-family="Arial" font-size="14.00" fill="#666666">[varchar]</text>
<polygon fill="none" stroke="#000000" points="454,-312.5 454,-342.5 910,-342.5 910,-312.5 454,-312.5"/>
<text text-anchor="start" x="461" y="-323.9" font-family="Arial" font-size="14.00" fill="#000000">user_id </text>
<text text-anchor="start" x="510.7882" y="-323.9" font-family="Arial" font-size="14.00" fill="#666666">[integer]</text>
<polygon fill="none" stroke="#000000" points="454,-282.5 454,-312.5 910,-312.5 910,-282.5 454,-282.5"/>
<text text-anchor="start" x="461" y="-293.9" font-family="Arial" font-size="14.00" fill="#000000">create_uid </text>
<text text-anchor="start" x="530.244" y="-293.9" font-family="Arial" font-size="14.00" fill="#666666">[integer]</text>
<polygon fill="none" stroke="#000000" points="454,-252.5 454,-282.5 910,-282.5 910,-252.5 454,-252.5"/>
<text text-anchor="start" x="461" y="-263.9" font-family="Arial" font-size="14.00" fill="#000000">create_date </text>
<text text-anchor="start" x="538.8106" y="-263.9" font-family="Arial" font-size="14.00" fill="#666666">[timestamp without time zone]</text>
<polygon fill="none" stroke="#000000" points="454,-222.5 454,-252.5 910,-252.5 910,-222.5 454,-222.5"/>
<text text-anchor="start" x="461" y="-233.9" font-family="Arial" font-size="14.00" fill="#000000">write_uid </text>
<text text-anchor="start" x="520.892" y="-233.9" font-family="Arial" font-size="14.00" fill="#666666">[integer]</text>
<polygon fill="none" stroke="#000000" points="454,-192.5 454,-222.5 910,-222.5 910,-192.5 454,-192.5"/>
<text text-anchor="start" x="461" y="-203.9" font-family="Arial" font-size="14.00" fill="#000000">write_date </text>
<text text-anchor="start" x="529.4586" y="-203.9" font-family="Arial" font-size="14.00" fill="#666666">[timestamp without time zone]</text>
</g>
<!-- public.crm_lead2opportunity_partner_mass_res_users_rel&#45;&gt;public.crm_lead2opportunity_partner_mass -->
<g id="edge1" class="edge">
<title>public.crm_lead2opportunity_partner_mass_res_users_rel:crm_lead2opportunity_partner_mass_id&#45;&gt;public.crm_lead2opportunity_partner_mass:id</title>
<path fill="none" stroke="#000000" d="M618.9138,-905.9941C592.8949,-896.9317 611.8216,-848.9715 629,-817 699.8874,-685.0682 839.1126,-762.9318 910,-631 929.6686,-594.3938 951.5556,-537.5 910,-537.5"/>
<polygon fill="#000000" stroke="#000000" points="619.1096,-906.0232 628.3354,-911.9507 624.0548,-906.7616 629,-907.5 629,-907.5 629,-907.5 624.0548,-906.7616 629.6646,-903.0493 619.1096,-906.0232 619.1096,-906.0232"/>
<text text-anchor="start" x="7.1895" y="-917.5" font-family="Arial" font-size="10.00" fill="#000000">FOREIGN KEY (crm_lead2opportunity_partner_mass_id) REFERENCES crm_lead2opportunity_partner_mass(id) ON DELETE CASCADE</text>
</g>
<!-- public.res_users -->
<g id="node3" class="node">
<title>public.res_users</title>
<polygon fill="#efefef" stroke="transparent" points="1014,-702.5 1014,-737.5 1290,-737.5 1290,-702.5 1014,-702.5"/>
<polygon fill="none" stroke="#000000" points="1014,-702.5 1014,-737.5 1290,-737.5 1290,-702.5 1014,-702.5"/>
<text text-anchor="start" x="1037.8639" y="-715.3" font-family="Arial Bold" font-size="18.00" fill="#000000">public.res_users</text>
<text text-anchor="start" x="1168.8823" y="-715.3" font-family="Arial" font-size="14.00" fill="#000000"> </text>
<text text-anchor="start" x="1172.7729" y="-715.3" font-family="Arial" font-size="14.00" fill="#666666">[BASE TABLE]</text>
<polygon fill="none" stroke="#000000" points="1014,-672.5 1014,-702.5 1290,-702.5 1290,-672.5 1014,-672.5"/>
<text text-anchor="start" x="1021" y="-683.9" font-family="Arial" font-size="14.00" fill="#000000">id </text>
<text text-anchor="start" x="1035.7798" y="-683.9" font-family="Arial" font-size="14.00" fill="#666666">[integer]</text>
<polygon fill="none" stroke="#000000" points="1014,-642.5 1014,-672.5 1290,-672.5 1290,-642.5 1014,-642.5"/>
<text text-anchor="start" x="1021" y="-653.9" font-family="Arial" font-size="14.00" fill="#000000">active </text>
<text text-anchor="start" x="1061.453" y="-653.9" font-family="Arial" font-size="14.00" fill="#666666">[boolean]</text>
<polygon fill="none" stroke="#000000" points="1014,-612.5 1014,-642.5 1290,-642.5 1290,-612.5 1014,-612.5"/>
<text text-anchor="start" x="1021" y="-623.9" font-family="Arial" font-size="14.00" fill="#000000">login </text>
<text text-anchor="start" x="1054.4516" y="-623.9" font-family="Arial" font-size="14.00" fill="#666666">[varchar]</text>
<polygon fill="none" stroke="#000000" points="1014,-582.5 1014,-612.5 1290,-612.5 1290,-582.5 1014,-582.5"/>
<text text-anchor="start" x="1021" y="-593.9" font-family="Arial" font-size="14.00" fill="#000000">password </text>
<text text-anchor="start" x="1084.7882" y="-593.9" font-family="Arial" font-size="14.00" fill="#666666">[varchar]</text>
<polygon fill="none" stroke="#000000" points="1014,-552.5 1014,-582.5 1290,-582.5 1290,-552.5 1014,-552.5"/>
<text text-anchor="start" x="1021" y="-563.9" font-family="Arial" font-size="14.00" fill="#000000">company_id </text>
<text text-anchor="start" x="1100.3534" y="-563.9" font-family="Arial" font-size="14.00" fill="#666666">[integer]</text>
<polygon fill="none" stroke="#000000" points="1014,-522.5 1014,-552.5 1290,-552.5 1290,-522.5 1014,-522.5"/>
<text text-anchor="start" x="1021" y="-533.9" font-family="Arial" font-size="14.00" fill="#000000">partner_id </text>
<text text-anchor="start" x="1087.9046" y="-533.9" font-family="Arial" font-size="14.00" fill="#666666">[integer]</text>
<polygon fill="none" stroke="#000000" points="1014,-492.5 1014,-522.5 1290,-522.5 1290,-492.5 1014,-492.5"/>
<text text-anchor="start" x="1020.5246" y="-503.9" font-family="Arial" font-size="14.00" fill="#000000">create_date </text>
<text text-anchor="start" x="1098.3352" y="-503.9" font-family="Arial" font-size="14.00" fill="#666666">[timestamp without time zone]</text>
<polygon fill="none" stroke="#000000" points="1014,-462.5 1014,-492.5 1290,-492.5 1290,-462.5 1014,-462.5"/>
<text text-anchor="start" x="1021" y="-473.9" font-family="Arial" font-size="14.00" fill="#000000">signature </text>
<text text-anchor="start" x="1082.4614" y="-473.9" font-family="Arial" font-size="14.00" fill="#666666">[text]</text>
<polygon fill="none" stroke="#000000" points="1014,-432.5 1014,-462.5 1290,-462.5 1290,-432.5 1014,-432.5"/>
<text text-anchor="start" x="1021" y="-443.9" font-family="Arial" font-size="14.00" fill="#000000">action_id </text>
<text text-anchor="start" x="1080.9074" y="-443.9" font-family="Arial" font-size="14.00" fill="#666666">[integer]</text>
<polygon fill="none" stroke="#000000" points="1014,-402.5 1014,-432.5 1290,-432.5 1290,-402.5 1014,-402.5"/>
<text text-anchor="start" x="1021" y="-413.9" font-family="Arial" font-size="14.00" fill="#000000">share </text>
<text text-anchor="start" x="1059.899" y="-413.9" font-family="Arial" font-size="14.00" fill="#666666">[boolean]</text>
<polygon fill="none" stroke="#000000" points="1014,-372.5 1014,-402.5 1290,-402.5 1290,-372.5 1014,-372.5"/>
<text text-anchor="start" x="1021" y="-383.9" font-family="Arial" font-size="14.00" fill="#000000">create_uid </text>
<text text-anchor="start" x="1090.244" y="-383.9" font-family="Arial" font-size="14.00" fill="#666666">[integer]</text>
<polygon fill="none" stroke="#000000" points="1014,-342.5 1014,-372.5 1290,-372.5 1290,-342.5 1014,-342.5"/>
<text text-anchor="start" x="1021" y="-353.9" font-family="Arial" font-size="14.00" fill="#000000">write_uid </text>
<text text-anchor="start" x="1080.892" y="-353.9" font-family="Arial" font-size="14.00" fill="#666666">[integer]</text>
<polygon fill="none" stroke="#000000" points="1014,-312.5 1014,-342.5 1290,-342.5 1290,-312.5 1014,-312.5"/>
<text text-anchor="start" x="1021" y="-323.9" font-family="Arial" font-size="14.00" fill="#000000">write_date </text>
<text text-anchor="start" x="1089.4586" y="-323.9" font-family="Arial" font-size="14.00" fill="#666666">[timestamp without time zone]</text>
<polygon fill="none" stroke="#000000" points="1014,-282.5 1014,-312.5 1290,-312.5 1290,-282.5 1014,-282.5"/>
<text text-anchor="start" x="1021" y="-293.9" font-family="Arial" font-size="14.00" fill="#000000">alias_id </text>
<text text-anchor="start" x="1072.3408" y="-293.9" font-family="Arial" font-size="14.00" fill="#666666">[integer]</text>
<polygon fill="none" stroke="#000000" points="1014,-252.5 1014,-282.5 1290,-282.5 1290,-252.5 1014,-252.5"/>
<text text-anchor="start" x="1021" y="-263.9" font-family="Arial" font-size="14.00" fill="#000000">notification_type </text>
<text text-anchor="start" x="1126.0336" y="-263.9" font-family="Arial" font-size="14.00" fill="#666666">[varchar]</text>
<polygon fill="none" stroke="#000000" points="1014,-222.5 1014,-252.5 1290,-252.5 1290,-222.5 1014,-222.5"/>
<text text-anchor="start" x="1021" y="-233.9" font-family="Arial" font-size="14.00" fill="#000000">odoobot_state </text>
<text text-anchor="start" x="1113.6058" y="-233.9" font-family="Arial" font-size="14.00" fill="#666666">[varchar]</text>
<polygon fill="none" stroke="#000000" points="1014,-192.5 1014,-222.5 1290,-222.5 1290,-192.5 1014,-192.5"/>
<text text-anchor="start" x="1021" y="-203.9" font-family="Arial" font-size="14.00" fill="#000000">sale_team_id </text>
<text text-anchor="start" x="1108.1332" y="-203.9" font-family="Arial" font-size="14.00" fill="#666666">[integer]</text>
<polygon fill="none" stroke="#000000" points="1014,-162.5 1014,-192.5 1290,-192.5 1290,-162.5 1014,-162.5"/>
<text text-anchor="start" x="1021" y="-173.9" font-family="Arial" font-size="14.00" fill="#000000">target_sales_won </text>
<text text-anchor="start" x="1134.589" y="-173.9" font-family="Arial" font-size="14.00" fill="#666666">[integer]</text>
<polygon fill="none" stroke="#000000" points="1014,-132.5 1014,-162.5 1290,-162.5 1290,-132.5 1014,-132.5"/>
<text text-anchor="start" x="1021" y="-143.9" font-family="Arial" font-size="14.00" fill="#000000">target_sales_done </text>
<text text-anchor="start" x="1140.0476" y="-143.9" font-family="Arial" font-size="14.00" fill="#666666">[integer]</text>
<polygon fill="none" stroke="#000000" points="1014,-102.5 1014,-132.5 1290,-132.5 1290,-102.5 1014,-102.5"/>
<text text-anchor="start" x="1021" y="-113.9" font-family="Arial" font-size="14.00" fill="#000000">website_id </text>
<text text-anchor="start" x="1091.014" y="-113.9" font-family="Arial" font-size="14.00" fill="#666666">[integer]</text>
<polygon fill="none" stroke="#000000" points="1014,-72.5 1014,-102.5 1290,-102.5 1290,-72.5 1014,-72.5"/>
<text text-anchor="start" x="1021" y="-83.9" font-family="Arial" font-size="14.00" fill="#000000">target_sales_invoiced </text>
<text text-anchor="start" x="1160.2608" y="-83.9" font-family="Arial" font-size="14.00" fill="#666666">[integer]</text>
<polygon fill="none" stroke="#000000" points="1014,-42.5 1014,-72.5 1290,-72.5 1290,-42.5 1014,-42.5"/>
<text text-anchor="start" x="1021" y="-53.9" font-family="Arial" font-size="14.00" fill="#000000">pos_security_pin </text>
<text text-anchor="start" x="1129.9158" y="-53.9" font-family="Arial" font-size="14.00" fill="#666666">[varchar(32)]</text>
</g>
<!-- public.crm_lead2opportunity_partner_mass_res_users_rel&#45;&gt;public.res_users -->
<g id="edge2" class="edge">
<title>public.crm_lead2opportunity_partner_mass_res_users_rel:res_users_id&#45;&gt;public.res_users:id</title>
<path fill="none" stroke="#000000" d="M1214.0331,-874.8101C1227.6652,-865.5308 1218.4724,-834.472 1204,-817 1149.1743,-750.8108 1068.8257,-847.1892 1014,-781 987.4916,-748.9973 972.4444,-687.5 1014,-687.5"/>
<polygon fill="#000000" stroke="#000000" points="1213.6589,-874.9104 1202.8347,-873.1535 1208.8294,-876.2052 1204,-877.5 1204,-877.5 1204,-877.5 1208.8294,-876.2052 1205.1653,-881.8465 1213.6589,-874.9104 1213.6589,-874.9104"/>
<text text-anchor="start" x="1211.1065" y="-887.5" font-family="Arial" font-size="10.00" fill="#000000">FOREIGN KEY (res_users_id) REFERENCES res_users(id) ON DELETE CASCADE</text>
</g>
</g>
</svg>
