<?xml version="1.0" encoding="UTF-8" standalone="no"?>
<!DOCTYPE svg PUBLIC "-//W3C//DTD SVG 1.1//EN"
 "http://www.w3.org/Graphics/SVG/1.1/DTD/svg11.dtd">
<!-- Generated by graphviz version 2.40.1 (20161225.0304)
 -->
<!-- Title: public.base_import_import Pages: 1 -->
<svg width="756pt" height="1222pt"
 viewBox="0.00 0.00 756.00 1222.00" xmlns="http://www.w3.org/2000/svg" xmlns:xlink="http://www.w3.org/1999/xlink">
<g id="graph0" class="graph" transform="scale(1 1) rotate(0) translate(4 1218)">
<title>public.base_import_import</title>
<polygon fill="#ffffff" stroke="transparent" points="-4,4 -4,-1218 752,-1218 752,4 -4,4"/>
<!-- public.base_import_import -->
<g id="node1" class="node">
<title>public.base_import_import</title>
<polygon fill="#efefef" stroke="transparent" points="46,-1132.5 46,-1167.5 368,-1167.5 368,-1132.5 46,-1132.5"/>
<polygon fill="none" stroke="#000000" points="46,-1132.5 46,-1167.5 368,-1167.5 368,-1132.5 46,-1132.5"/>
<text text-anchor="start" x="52.8598" y="-1145.3" font-family="Arial Bold" font-size="18.00" fill="#000000">public.base_import_import</text>
<text text-anchor="start" x="263.8864" y="-1145.3" font-family="Arial" font-size="14.00" fill="#000000"> </text>
<text text-anchor="start" x="267.777" y="-1145.3" font-family="Arial" font-size="14.00" fill="#666666">[BASE TABLE]</text>
<polygon fill="none" stroke="#000000" points="46,-1102.5 46,-1132.5 368,-1132.5 368,-1102.5 46,-1102.5"/>
<text text-anchor="start" x="53" y="-1113.9" font-family="Arial" font-size="14.00" fill="#000000">id </text>
<text text-anchor="start" x="67.7798" y="-1113.9" font-family="Arial" font-size="14.00" fill="#666666">[integer]</text>
<polygon fill="none" stroke="#000000" points="46,-1072.5 46,-1102.5 368,-1102.5 368,-1072.5 46,-1072.5"/>
<text text-anchor="start" x="53" y="-1083.9" font-family="Arial" font-size="14.00" fill="#000000">res_model </text>
<text text-anchor="start" x="122.2314" y="-1083.9" font-family="Arial" font-size="14.00" fill="#666666">[varchar]</text>
<polygon fill="none" stroke="#000000" points="46,-1042.5 46,-1072.5 368,-1072.5 368,-1042.5 46,-1042.5"/>
<text text-anchor="start" x="53" y="-1053.9" font-family="Arial" font-size="14.00" fill="#000000">file </text>
<text text-anchor="start" x="74.777" y="-1053.9" font-family="Arial" font-size="14.00" fill="#666666">[bytea]</text>
<polygon fill="none" stroke="#000000" points="46,-1012.5 46,-1042.5 368,-1042.5 368,-1012.5 46,-1012.5"/>
<text text-anchor="start" x="53" y="-1023.9" font-family="Arial" font-size="14.00" fill="#000000">file_name </text>
<text text-anchor="start" x="117.568" y="-1023.9" font-family="Arial" font-size="14.00" fill="#666666">[varchar]</text>
<polygon fill="none" stroke="#000000" points="46,-982.5 46,-1012.5 368,-1012.5 368,-982.5 46,-982.5"/>
<text text-anchor="start" x="53" y="-993.9" font-family="Arial" font-size="14.00" fill="#000000">file_type </text>
<text text-anchor="start" x="109.0154" y="-993.9" font-family="Arial" font-size="14.00" fill="#666666">[varchar]</text>
<polygon fill="none" stroke="#000000" points="46,-952.5 46,-982.5 368,-982.5 368,-952.5 46,-952.5"/>
<text text-anchor="start" x="53" y="-963.9" font-family="Arial" font-size="14.00" fill="#000000">create_uid </text>
<text text-anchor="start" x="122.244" y="-963.9" font-family="Arial" font-size="14.00" fill="#666666">[integer]</text>
<polygon fill="none" stroke="#000000" points="46,-922.5 46,-952.5 368,-952.5 368,-922.5 46,-922.5"/>
<text text-anchor="start" x="53" y="-933.9" font-family="Arial" font-size="14.00" fill="#000000">create_date </text>
<text text-anchor="start" x="130.8106" y="-933.9" font-family="Arial" font-size="14.00" fill="#666666">[timestamp without time zone]</text>
<polygon fill="none" stroke="#000000" points="46,-892.5 46,-922.5 368,-922.5 368,-892.5 46,-892.5"/>
<text text-anchor="start" x="53" y="-903.9" font-family="Arial" font-size="14.00" fill="#000000">write_uid </text>
<text text-anchor="start" x="112.892" y="-903.9" font-family="Arial" font-size="14.00" fill="#666666">[integer]</text>
<polygon fill="none" stroke="#000000" points="46,-862.5 46,-892.5 368,-892.5 368,-862.5 46,-862.5"/>
<text text-anchor="start" x="53" y="-873.9" font-family="Arial" font-size="14.00" fill="#000000">write_date </text>
<text text-anchor="start" x="121.4586" y="-873.9" font-family="Arial" font-size="14.00" fill="#666666">[timestamp without time zone]</text>
<polygon fill="none" stroke="#000000" stroke-width="3" points="44.5,-861.5 44.5,-1169.5 369.5,-1169.5 369.5,-861.5 44.5,-861.5"/>
</g>
<!-- public.res_users -->
<g id="node2" class="node">
<title>public.res_users</title>
<polygon fill="#efefef" stroke="transparent" points="69,-702.5 69,-737.5 345,-737.5 345,-702.5 69,-702.5"/>
<polygon fill="none" stroke="#000000" points="69,-702.5 69,-737.5 345,-737.5 345,-702.5 69,-702.5"/>
<text text-anchor="start" x="92.8639" y="-715.3" font-family="Arial Bold" font-size="18.00" fill="#000000">public.res_users</text>
<text text-anchor="start" x="223.8823" y="-715.3" font-family="Arial" font-size="14.00" fill="#000000"> </text>
<text text-anchor="start" x="227.7729" y="-715.3" font-family="Arial" font-size="14.00" fill="#666666">[BASE TABLE]</text>
<polygon fill="none" stroke="#000000" points="69,-672.5 69,-702.5 345,-702.5 345,-672.5 69,-672.5"/>
<text text-anchor="start" x="76" y="-683.9" font-family="Arial" font-size="14.00" fill="#000000">id </text>
<text text-anchor="start" x="90.7798" y="-683.9" font-family="Arial" font-size="14.00" fill="#666666">[integer]</text>
<polygon fill="none" stroke="#000000" points="69,-642.5 69,-672.5 345,-672.5 345,-642.5 69,-642.5"/>
<text text-anchor="start" x="76" y="-653.9" font-family="Arial" font-size="14.00" fill="#000000">active </text>
<text text-anchor="start" x="116.453" y="-653.9" font-family="Arial" font-size="14.00" fill="#666666">[boolean]</text>
<polygon fill="none" stroke="#000000" points="69,-612.5 69,-642.5 345,-642.5 345,-612.5 69,-612.5"/>
<text text-anchor="start" x="76" y="-623.9" font-family="Arial" font-size="14.00" fill="#000000">login </text>
<text text-anchor="start" x="109.4516" y="-623.9" font-family="Arial" font-size="14.00" fill="#666666">[varchar]</text>
<polygon fill="none" stroke="#000000" points="69,-582.5 69,-612.5 345,-612.5 345,-582.5 69,-582.5"/>
<text text-anchor="start" x="76" y="-593.9" font-family="Arial" font-size="14.00" fill="#000000">password </text>
<text text-anchor="start" x="139.7882" y="-593.9" font-family="Arial" font-size="14.00" fill="#666666">[varchar]</text>
<polygon fill="none" stroke="#000000" points="69,-552.5 69,-582.5 345,-582.5 345,-552.5 69,-552.5"/>
<text text-anchor="start" x="76" y="-563.9" font-family="Arial" font-size="14.00" fill="#000000">company_id </text>
<text text-anchor="start" x="155.3534" y="-563.9" font-family="Arial" font-size="14.00" fill="#666666">[integer]</text>
<polygon fill="none" stroke="#000000" points="69,-522.5 69,-552.5 345,-552.5 345,-522.5 69,-522.5"/>
<text text-anchor="start" x="76" y="-533.9" font-family="Arial" font-size="14.00" fill="#000000">partner_id </text>
<text text-anchor="start" x="142.9046" y="-533.9" font-family="Arial" font-size="14.00" fill="#666666">[integer]</text>
<polygon fill="none" stroke="#000000" points="69,-492.5 69,-522.5 345,-522.5 345,-492.5 69,-492.5"/>
<text text-anchor="start" x="75.5246" y="-503.9" font-family="Arial" font-size="14.00" fill="#000000">create_date </text>
<text text-anchor="start" x="153.3352" y="-503.9" font-family="Arial" font-size="14.00" fill="#666666">[timestamp without time zone]</text>
<polygon fill="none" stroke="#000000" points="69,-462.5 69,-492.5 345,-492.5 345,-462.5 69,-462.5"/>
<text text-anchor="start" x="76" y="-473.9" font-family="Arial" font-size="14.00" fill="#000000">signature </text>
<text text-anchor="start" x="137.4614" y="-473.9" font-family="Arial" font-size="14.00" fill="#666666">[text]</text>
<polygon fill="none" stroke="#000000" points="69,-432.5 69,-462.5 345,-462.5 345,-432.5 69,-432.5"/>
<text text-anchor="start" x="76" y="-443.9" font-family="Arial" font-size="14.00" fill="#000000">action_id </text>
<text text-anchor="start" x="135.9074" y="-443.9" font-family="Arial" font-size="14.00" fill="#666666">[integer]</text>
<polygon fill="none" stroke="#000000" points="69,-402.5 69,-432.5 345,-432.5 345,-402.5 69,-402.5"/>
<text text-anchor="start" x="76" y="-413.9" font-family="Arial" font-size="14.00" fill="#000000">share </text>
<text text-anchor="start" x="114.899" y="-413.9" font-family="Arial" font-size="14.00" fill="#666666">[boolean]</text>
<polygon fill="none" stroke="#000000" points="69,-372.5 69,-402.5 345,-402.5 345,-372.5 69,-372.5"/>
<text text-anchor="start" x="76" y="-383.9" font-family="Arial" font-size="14.00" fill="#000000">create_uid </text>
<text text-anchor="start" x="145.244" y="-383.9" font-family="Arial" font-size="14.00" fill="#666666">[integer]</text>
<polygon fill="none" stroke="#000000" points="69,-342.5 69,-372.5 345,-372.5 345,-342.5 69,-342.5"/>
<text text-anchor="start" x="76" y="-353.9" font-family="Arial" font-size="14.00" fill="#000000">write_uid </text>
<text text-anchor="start" x="135.892" y="-353.9" font-family="Arial" font-size="14.00" fill="#666666">[integer]</text>
<polygon fill="none" stroke="#000000" points="69,-312.5 69,-342.5 345,-342.5 345,-312.5 69,-312.5"/>
<text text-anchor="start" x="76" y="-323.9" font-family="Arial" font-size="14.00" fill="#000000">write_date </text>
<text text-anchor="start" x="144.4586" y="-323.9" font-family="Arial" font-size="14.00" fill="#666666">[timestamp without time zone]</text>
<polygon fill="none" stroke="#000000" points="69,-282.5 69,-312.5 345,-312.5 345,-282.5 69,-282.5"/>
<text text-anchor="start" x="76" y="-293.9" font-family="Arial" font-size="14.00" fill="#000000">alias_id </text>
<text text-anchor="start" x="127.3408" y="-293.9" font-family="Arial" font-size="14.00" fill="#666666">[integer]</text>
<polygon fill="none" stroke="#000000" points="69,-252.5 69,-282.5 345,-282.5 345,-252.5 69,-252.5"/>
<text text-anchor="start" x="76" y="-263.9" font-family="Arial" font-size="14.00" fill="#000000">notification_type </text>
<text text-anchor="start" x="181.0336" y="-263.9" font-family="Arial" font-size="14.00" fill="#666666">[varchar]</text>
<polygon fill="none" stroke="#000000" points="69,-222.5 69,-252.5 345,-252.5 345,-222.5 69,-222.5"/>
<text text-anchor="start" x="76" y="-233.9" font-family="Arial" font-size="14.00" fill="#000000">odoobot_state </text>
<text text-anchor="start" x="168.6058" y="-233.9" font-family="Arial" font-size="14.00" fill="#666666">[varchar]</text>
<polygon fill="none" stroke="#000000" points="69,-192.5 69,-222.5 345,-222.5 345,-192.5 69,-192.5"/>
<text text-anchor="start" x="76" y="-203.9" font-family="Arial" font-size="14.00" fill="#000000">sale_team_id </text>
<text text-anchor="start" x="163.1332" y="-203.9" font-family="Arial" font-size="14.00" fill="#666666">[integer]</text>
<polygon fill="none" stroke="#000000" points="69,-162.5 69,-192.5 345,-192.5 345,-162.5 69,-162.5"/>
<text text-anchor="start" x="76" y="-173.9" font-family="Arial" font-size="14.00" fill="#000000">target_sales_won </text>
<text text-anchor="start" x="189.589" y="-173.9" font-family="Arial" font-size="14.00" fill="#666666">[integer]</text>
<polygon fill="none" stroke="#000000" points="69,-132.5 69,-162.5 345,-162.5 345,-132.5 69,-132.5"/>
<text text-anchor="start" x="76" y="-143.9" font-family="Arial" font-size="14.00" fill="#000000">target_sales_done </text>
<text text-anchor="start" x="195.0476" y="-143.9" font-family="Arial" font-size="14.00" fill="#666666">[integer]</text>
<polygon fill="none" stroke="#000000" points="69,-102.5 69,-132.5 345,-132.5 345,-102.5 69,-102.5"/>
<text text-anchor="start" x="76" y="-113.9" font-family="Arial" font-size="14.00" fill="#000000">website_id </text>
<text text-anchor="start" x="146.014" y="-113.9" font-family="Arial" font-size="14.00" fill="#666666">[integer]</text>
<polygon fill="none" stroke="#000000" points="69,-72.5 69,-102.5 345,-102.5 345,-72.5 69,-72.5"/>
<text text-anchor="start" x="76" y="-83.9" font-family="Arial" font-size="14.00" fill="#000000">target_sales_invoiced </text>
<text text-anchor="start" x="215.2608" y="-83.9" font-family="Arial" font-size="14.00" fill="#666666">[integer]</text>
<polygon fill="none" stroke="#000000" points="69,-42.5 69,-72.5 345,-72.5 345,-42.5 69,-42.5"/>
<text text-anchor="start" x="76" y="-53.9" font-family="Arial" font-size="14.00" fill="#000000">pos_security_pin </text>
<text text-anchor="start" x="184.9158" y="-53.9" font-family="Arial" font-size="14.00" fill="#666666">[varchar(32)]</text>
</g>
<!-- public.base_import_import&#45;&gt;public.res_users -->
<g id="edge1" class="edge">
<title>public.base_import_import:create_uid&#45;&gt;public.res_users:id</title>
<path fill="none" stroke="#000000" d="M377.7946,-964.9069C427.6998,-936.6795 403.8956,-687.5 345,-687.5"/>
<polygon fill="#000000" stroke="#000000" points="377.667,-964.9406 366.8483,-963.1499 372.8335,-966.2203 368,-967.5 368,-967.5 368,-967.5 372.8335,-966.2203 369.1517,-971.8501 377.667,-964.9406 377.667,-964.9406"/>
<text text-anchor="start" x="374.657" y="-977.5" font-family="Arial" font-size="10.00" fill="#000000">FOREIGN KEY (create_uid) REFERENCES res_users(id) ON DELETE SET NULL</text>
</g>
<!-- public.base_import_import&#45;&gt;public.res_users -->
<g id="edge2" class="edge">
<title>public.base_import_import:write_uid&#45;&gt;public.res_users:id</title>
<path fill="none" stroke="#000000" d="M378.1838,-906.6591C464.5502,-891.8888 439.7584,-687.5 345,-687.5"/>
<polygon fill="#000000" stroke="#000000" points="377.9661,-906.677 367.6296,-903.0153 372.983,-907.0885 368,-907.5 368,-907.5 368,-907.5 372.983,-907.0885 368.3704,-911.9847 377.9661,-906.677 377.9661,-906.677"/>
<text text-anchor="start" x="374.997" y="-917.5" font-family="Arial" font-size="10.00" fill="#000000">FOREIGN KEY (write_uid) REFERENCES res_users(id) ON DELETE SET NULL</text>
</g>
</g>
</svg>
