<?xml version="1.0" encoding="UTF-8" standalone="no"?>
<!DOCTYPE svg PUBLIC "-//W3C//DTD SVG 1.1//EN"
 "http://www.w3.org/Graphics/SVG/1.1/DTD/svg11.dtd">
<!-- Generated by graphviz version 2.40.1 (20161225.0304)
 -->
<!-- Title: public.crm_lead_tag_rel Pages: 1 -->
<svg width="1052pt" height="1822pt"
 viewBox="0.00 0.00 1052.00 1822.00" xmlns="http://www.w3.org/2000/svg" xmlns:xlink="http://www.w3.org/1999/xlink">
<g id="graph0" class="graph" transform="scale(1 1) rotate(0) translate(4 1818)">
<title>public.crm_lead_tag_rel</title>
<polygon fill="#ffffff" stroke="transparent" points="-4,4 -4,-1818 1048,-1818 1048,4 -4,4"/>
<!-- public.crm_lead_tag_rel -->
<g id="node1" class="node">
<title>public.crm_lead_tag_rel</title>
<polygon fill="#efefef" stroke="transparent" points="364,-1732.5 364,-1767.5 666,-1767.5 666,-1732.5 364,-1732.5"/>
<polygon fill="none" stroke="#000000" points="364,-1732.5 364,-1767.5 666,-1767.5 666,-1732.5 364,-1732.5"/>
<text text-anchor="start" x="370.857" y="-1745.3" font-family="Arial Bold" font-size="18.00" fill="#000000">public.crm_lead_tag_rel</text>
<text text-anchor="start" x="561.8892" y="-1745.3" font-family="Arial" font-size="14.00" fill="#000000"> </text>
<text text-anchor="start" x="565.7798" y="-1745.3" font-family="Arial" font-size="14.00" fill="#666666">[BASE TABLE]</text>
<polygon fill="none" stroke="#000000" points="364,-1702.5 364,-1732.5 666,-1732.5 666,-1702.5 364,-1702.5"/>
<text text-anchor="start" x="371" y="-1713.9" font-family="Arial" font-size="14.00" fill="#000000">lead_id </text>
<text text-anchor="start" x="420.0168" y="-1713.9" font-family="Arial" font-size="14.00" fill="#666666">[integer]</text>
<polygon fill="none" stroke="#000000" points="364,-1672.5 364,-1702.5 666,-1702.5 666,-1672.5 364,-1672.5"/>
<text text-anchor="start" x="371" y="-1683.9" font-family="Arial" font-size="14.00" fill="#000000">tag_id </text>
<text text-anchor="start" x="413.0182" y="-1683.9" font-family="Arial" font-size="14.00" fill="#666666">[integer]</text>
<polygon fill="none" stroke="#000000" stroke-width="3" points="362.5,-1671.5 362.5,-1769.5 667.5,-1769.5 667.5,-1671.5 362.5,-1671.5"/>
</g>
<!-- public.crm_lead -->
<g id="node2" class="node">
<title>public.crm_lead</title>
<polygon fill="#efefef" stroke="transparent" points="130,-1512.5 130,-1547.5 482,-1547.5 482,-1512.5 130,-1512.5"/>
<polygon fill="none" stroke="#000000" points="130,-1512.5 130,-1547.5 482,-1547.5 482,-1512.5 130,-1512.5"/>
<text text-anchor="start" x="194.3668" y="-1525.3" font-family="Arial Bold" font-size="18.00" fill="#000000">public.crm_lead</text>
<text text-anchor="start" x="320.3794" y="-1525.3" font-family="Arial" font-size="14.00" fill="#000000"> </text>
<text text-anchor="start" x="324.27" y="-1525.3" font-family="Arial" font-size="14.00" fill="#666666">[BASE TABLE]</text>
<polygon fill="none" stroke="#000000" points="130,-1482.5 130,-1512.5 482,-1512.5 482,-1482.5 130,-1482.5"/>
<text text-anchor="start" x="137" y="-1493.9" font-family="Arial" font-size="14.00" fill="#000000">id </text>
<text text-anchor="start" x="151.7798" y="-1493.9" font-family="Arial" font-size="14.00" fill="#666666">[integer]</text>
<polygon fill="none" stroke="#000000" points="130,-1452.5 130,-1482.5 482,-1482.5 482,-1452.5 130,-1452.5"/>
<text text-anchor="start" x="137" y="-1463.9" font-family="Arial" font-size="14.00" fill="#000000">campaign_id </text>
<text text-anchor="start" x="220.2426" y="-1463.9" font-family="Arial" font-size="14.00" fill="#666666">[integer]</text>
<polygon fill="none" stroke="#000000" points="130,-1422.5 130,-1452.5 482,-1452.5 482,-1422.5 130,-1422.5"/>
<text text-anchor="start" x="137" y="-1433.9" font-family="Arial" font-size="14.00" fill="#000000">source_id </text>
<text text-anchor="start" x="201.5708" y="-1433.9" font-family="Arial" font-size="14.00" fill="#666666">[integer]</text>
<polygon fill="none" stroke="#000000" points="130,-1392.5 130,-1422.5 482,-1422.5 482,-1392.5 130,-1392.5"/>
<text text-anchor="start" x="137" y="-1403.9" font-family="Arial" font-size="14.00" fill="#000000">medium_id </text>
<text text-anchor="start" x="209.338" y="-1403.9" font-family="Arial" font-size="14.00" fill="#666666">[integer]</text>
<polygon fill="none" stroke="#000000" points="130,-1362.5 130,-1392.5 482,-1392.5 482,-1362.5 130,-1362.5"/>
<text text-anchor="start" x="137" y="-1373.9" font-family="Arial" font-size="14.00" fill="#000000">message_main_attachment_id </text>
<text text-anchor="start" x="331.4964" y="-1373.9" font-family="Arial" font-size="14.00" fill="#666666">[integer]</text>
<polygon fill="none" stroke="#000000" points="130,-1332.5 130,-1362.5 482,-1362.5 482,-1332.5 130,-1332.5"/>
<text text-anchor="start" x="137" y="-1343.9" font-family="Arial" font-size="14.00" fill="#000000">name </text>
<text text-anchor="start" x="175.899" y="-1343.9" font-family="Arial" font-size="14.00" fill="#666666">[varchar]</text>
<polygon fill="none" stroke="#000000" points="130,-1302.5 130,-1332.5 482,-1332.5 482,-1302.5 130,-1302.5"/>
<text text-anchor="start" x="137" y="-1313.9" font-family="Arial" font-size="14.00" fill="#000000">partner_id </text>
<text text-anchor="start" x="203.9046" y="-1313.9" font-family="Arial" font-size="14.00" fill="#666666">[integer]</text>
<polygon fill="none" stroke="#000000" points="130,-1272.5 130,-1302.5 482,-1302.5 482,-1272.5 130,-1272.5"/>
<text text-anchor="start" x="137" y="-1283.9" font-family="Arial" font-size="14.00" fill="#000000">active </text>
<text text-anchor="start" x="177.453" y="-1283.9" font-family="Arial" font-size="14.00" fill="#666666">[boolean]</text>
<polygon fill="none" stroke="#000000" points="130,-1242.5 130,-1272.5 482,-1272.5 482,-1242.5 130,-1242.5"/>
<text text-anchor="start" x="137" y="-1253.9" font-family="Arial" font-size="14.00" fill="#000000">date_action_last </text>
<text text-anchor="start" x="242.819" y="-1253.9" font-family="Arial" font-size="14.00" fill="#666666">[timestamp without time zone]</text>
<polygon fill="none" stroke="#000000" points="130,-1212.5 130,-1242.5 482,-1242.5 482,-1212.5 130,-1212.5"/>
<text text-anchor="start" x="137" y="-1223.9" font-family="Arial" font-size="14.00" fill="#000000">email_from </text>
<text text-anchor="start" x="210.1066" y="-1223.9" font-family="Arial" font-size="14.00" fill="#666666">[varchar]</text>
<polygon fill="none" stroke="#000000" points="130,-1182.5 130,-1212.5 482,-1212.5 482,-1182.5 130,-1182.5"/>
<text text-anchor="start" x="137" y="-1193.9" font-family="Arial" font-size="14.00" fill="#000000">website </text>
<text text-anchor="start" x="188.3422" y="-1193.9" font-family="Arial" font-size="14.00" fill="#666666">[varchar]</text>
<polygon fill="none" stroke="#000000" points="130,-1152.5 130,-1182.5 482,-1182.5 482,-1152.5 130,-1152.5"/>
<text text-anchor="start" x="137" y="-1163.9" font-family="Arial" font-size="14.00" fill="#000000">team_id </text>
<text text-anchor="start" x="190.6788" y="-1163.9" font-family="Arial" font-size="14.00" fill="#666666">[integer]</text>
<polygon fill="none" stroke="#000000" points="130,-1122.5 130,-1152.5 482,-1152.5 482,-1122.5 130,-1122.5"/>
<text text-anchor="start" x="137" y="-1133.9" font-family="Arial" font-size="14.00" fill="#000000">email_cc </text>
<text text-anchor="start" x="196.1122" y="-1133.9" font-family="Arial" font-size="14.00" fill="#666666">[text]</text>
<polygon fill="none" stroke="#000000" points="130,-1092.5 130,-1122.5 482,-1122.5 482,-1092.5 130,-1092.5"/>
<text text-anchor="start" x="137" y="-1103.9" font-family="Arial" font-size="14.00" fill="#000000">description </text>
<text text-anchor="start" x="208.568" y="-1103.9" font-family="Arial" font-size="14.00" fill="#666666">[text]</text>
<polygon fill="none" stroke="#000000" points="130,-1062.5 130,-1092.5 482,-1092.5 482,-1062.5 130,-1062.5"/>
<text text-anchor="start" x="137" y="-1073.9" font-family="Arial" font-size="14.00" fill="#000000">contact_name </text>
<text text-anchor="start" x="228.8106" y="-1073.9" font-family="Arial" font-size="14.00" fill="#666666">[varchar]</text>
<polygon fill="none" stroke="#000000" points="130,-1032.5 130,-1062.5 482,-1062.5 482,-1032.5 130,-1032.5"/>
<text text-anchor="start" x="137" y="-1043.9" font-family="Arial" font-size="14.00" fill="#000000">partner_name </text>
<text text-anchor="start" x="228.0238" y="-1043.9" font-family="Arial" font-size="14.00" fill="#666666">[varchar]</text>
<polygon fill="none" stroke="#000000" points="130,-1002.5 130,-1032.5 482,-1032.5 482,-1002.5 130,-1002.5"/>
<text text-anchor="start" x="137" y="-1013.9" font-family="Arial" font-size="14.00" fill="#000000">type </text>
<text text-anchor="start" x="167.3464" y="-1013.9" font-family="Arial" font-size="14.00" fill="#666666">[varchar]</text>
<polygon fill="none" stroke="#000000" points="130,-972.5 130,-1002.5 482,-1002.5 482,-972.5 130,-972.5"/>
<text text-anchor="start" x="137" y="-983.9" font-family="Arial" font-size="14.00" fill="#000000">priority </text>
<text text-anchor="start" x="182.8808" y="-983.9" font-family="Arial" font-size="14.00" fill="#666666">[varchar]</text>
<polygon fill="none" stroke="#000000" points="130,-942.5 130,-972.5 482,-972.5 482,-942.5 130,-942.5"/>
<text text-anchor="start" x="137" y="-953.9" font-family="Arial" font-size="14.00" fill="#000000">date_closed </text>
<text text-anchor="start" x="216.366" y="-953.9" font-family="Arial" font-size="14.00" fill="#666666">[timestamp without time zone]</text>
<polygon fill="none" stroke="#000000" points="130,-912.5 130,-942.5 482,-942.5 482,-912.5 130,-912.5"/>
<text text-anchor="start" x="137" y="-923.9" font-family="Arial" font-size="14.00" fill="#000000">stage_id </text>
<text text-anchor="start" x="193.8008" y="-923.9" font-family="Arial" font-size="14.00" fill="#666666">[integer]</text>
<polygon fill="none" stroke="#000000" points="130,-882.5 130,-912.5 482,-912.5 482,-882.5 130,-882.5"/>
<text text-anchor="start" x="137" y="-893.9" font-family="Arial" font-size="14.00" fill="#000000">user_id </text>
<text text-anchor="start" x="186.7882" y="-893.9" font-family="Arial" font-size="14.00" fill="#666666">[integer]</text>
<polygon fill="none" stroke="#000000" points="130,-852.5 130,-882.5 482,-882.5 482,-852.5 130,-852.5"/>
<text text-anchor="start" x="137" y="-863.9" font-family="Arial" font-size="14.00" fill="#000000">referred </text>
<text text-anchor="start" x="189.8934" y="-863.9" font-family="Arial" font-size="14.00" fill="#666666">[varchar]</text>
<polygon fill="none" stroke="#000000" points="130,-822.5 130,-852.5 482,-852.5 482,-822.5 130,-822.5"/>
<text text-anchor="start" x="137" y="-833.9" font-family="Arial" font-size="14.00" fill="#000000">date_open </text>
<text text-anchor="start" x="207.042" y="-833.9" font-family="Arial" font-size="14.00" fill="#666666">[timestamp without time zone]</text>
<polygon fill="none" stroke="#000000" points="130,-792.5 130,-822.5 482,-822.5 482,-792.5 130,-792.5"/>
<text text-anchor="start" x="137" y="-803.9" font-family="Arial" font-size="14.00" fill="#000000">day_open </text>
<text text-anchor="start" x="202.3688" y="-803.9" font-family="Arial" font-size="14.00" fill="#666666">[double precision]</text>
<polygon fill="none" stroke="#000000" points="130,-762.5 130,-792.5 482,-792.5 482,-762.5 130,-762.5"/>
<text text-anchor="start" x="137" y="-773.9" font-family="Arial" font-size="14.00" fill="#000000">day_close </text>
<text text-anchor="start" x="203.9102" y="-773.9" font-family="Arial" font-size="14.00" fill="#666666">[double precision]</text>
<polygon fill="none" stroke="#000000" points="130,-732.5 130,-762.5 482,-762.5 482,-732.5 130,-732.5"/>
<text text-anchor="start" x="136.7806" y="-743.9" font-family="Arial" font-size="14.00" fill="#000000">date_last_stage_update </text>
<text text-anchor="start" x="290.0792" y="-743.9" font-family="Arial" font-size="14.00" fill="#666666">[timestamp without time zone]</text>
<polygon fill="none" stroke="#000000" points="130,-702.5 130,-732.5 482,-732.5 482,-702.5 130,-702.5"/>
<text text-anchor="start" x="137" y="-713.9" font-family="Arial" font-size="14.00" fill="#000000">date_conversion </text>
<text text-anchor="start" x="243.5918" y="-713.9" font-family="Arial" font-size="14.00" fill="#666666">[timestamp without time zone]</text>
<polygon fill="none" stroke="#000000" points="130,-672.5 130,-702.5 482,-702.5 482,-672.5 130,-672.5"/>
<text text-anchor="start" x="137" y="-683.9" font-family="Arial" font-size="14.00" fill="#000000">message_bounce </text>
<text text-anchor="start" x="251.3772" y="-683.9" font-family="Arial" font-size="14.00" fill="#666666">[integer]</text>
<polygon fill="none" stroke="#000000" points="130,-642.5 130,-672.5 482,-672.5 482,-642.5 130,-642.5"/>
<text text-anchor="start" x="137" y="-653.9" font-family="Arial" font-size="14.00" fill="#000000">probability </text>
<text text-anchor="start" x="204.6746" y="-653.9" font-family="Arial" font-size="14.00" fill="#666666">[double precision]</text>
<polygon fill="none" stroke="#000000" points="130,-612.5 130,-642.5 482,-642.5 482,-612.5 130,-612.5"/>
<text text-anchor="start" x="137" y="-623.9" font-family="Arial" font-size="14.00" fill="#000000">planned_revenue </text>
<text text-anchor="start" x="249.049" y="-623.9" font-family="Arial" font-size="14.00" fill="#666666">[numeric]</text>
<polygon fill="none" stroke="#000000" points="130,-582.5 130,-612.5 482,-612.5 482,-582.5 130,-582.5"/>
<text text-anchor="start" x="137" y="-593.9" font-family="Arial" font-size="14.00" fill="#000000">expected_revenue </text>
<text text-anchor="start" x="256.0504" y="-593.9" font-family="Arial" font-size="14.00" fill="#666666">[numeric]</text>
<polygon fill="none" stroke="#000000" points="130,-552.5 130,-582.5 482,-582.5 482,-552.5 130,-552.5"/>
<text text-anchor="start" x="137" y="-563.9" font-family="Arial" font-size="14.00" fill="#000000">date_deadline </text>
<text text-anchor="start" x="228.8204" y="-563.9" font-family="Arial" font-size="14.00" fill="#666666">[date]</text>
<polygon fill="none" stroke="#000000" points="130,-522.5 130,-552.5 482,-552.5 482,-522.5 130,-522.5"/>
<text text-anchor="start" x="137" y="-533.9" font-family="Arial" font-size="14.00" fill="#000000">color </text>
<text text-anchor="start" x="171.223" y="-533.9" font-family="Arial" font-size="14.00" fill="#666666">[integer]</text>
<polygon fill="none" stroke="#000000" points="130,-492.5 130,-522.5 482,-522.5 482,-492.5 130,-492.5"/>
<text text-anchor="start" x="137" y="-503.9" font-family="Arial" font-size="14.00" fill="#000000">street </text>
<text text-anchor="start" x="175.8976" y="-503.9" font-family="Arial" font-size="14.00" fill="#666666">[varchar]</text>
<polygon fill="none" stroke="#000000" points="130,-462.5 130,-492.5 482,-492.5 482,-462.5 130,-462.5"/>
<text text-anchor="start" x="137" y="-473.9" font-family="Arial" font-size="14.00" fill="#000000">street2 </text>
<text text-anchor="start" x="183.6802" y="-473.9" font-family="Arial" font-size="14.00" fill="#666666">[varchar]</text>
<polygon fill="none" stroke="#000000" points="130,-432.5 130,-462.5 482,-462.5 482,-432.5 130,-432.5"/>
<text text-anchor="start" x="137" y="-443.9" font-family="Arial" font-size="14.00" fill="#000000">zip </text>
<text text-anchor="start" x="158.7798" y="-443.9" font-family="Arial" font-size="14.00" fill="#666666">[varchar]</text>
<polygon fill="none" stroke="#000000" points="130,-402.5 130,-432.5 482,-432.5 482,-402.5 130,-402.5"/>
<text text-anchor="start" x="137" y="-413.9" font-family="Arial" font-size="14.00" fill="#000000">city </text>
<text text-anchor="start" x="161.8878" y="-413.9" font-family="Arial" font-size="14.00" fill="#666666">[varchar]</text>
<polygon fill="none" stroke="#000000" points="130,-372.5 130,-402.5 482,-402.5 482,-372.5 130,-372.5"/>
<text text-anchor="start" x="137" y="-383.9" font-family="Arial" font-size="14.00" fill="#000000">state_id </text>
<text text-anchor="start" x="189.9088" y="-383.9" font-family="Arial" font-size="14.00" fill="#666666">[integer]</text>
<polygon fill="none" stroke="#000000" points="130,-342.5 130,-372.5 482,-372.5 482,-342.5 130,-342.5"/>
<text text-anchor="start" x="137" y="-353.9" font-family="Arial" font-size="14.00" fill="#000000">country_id </text>
<text text-anchor="start" x="205.4614" y="-353.9" font-family="Arial" font-size="14.00" fill="#666666">[integer]</text>
<polygon fill="none" stroke="#000000" points="130,-312.5 130,-342.5 482,-342.5 482,-312.5 130,-312.5"/>
<text text-anchor="start" x="137" y="-323.9" font-family="Arial" font-size="14.00" fill="#000000">phone </text>
<text text-anchor="start" x="179.8036" y="-323.9" font-family="Arial" font-size="14.00" fill="#666666">[varchar]</text>
<polygon fill="none" stroke="#000000" points="130,-282.5 130,-312.5 482,-312.5 482,-282.5 130,-282.5"/>
<text text-anchor="start" x="137" y="-293.9" font-family="Arial" font-size="14.00" fill="#000000">mobile </text>
<text text-anchor="start" x="182.1122" y="-293.9" font-family="Arial" font-size="14.00" fill="#666666">[varchar]</text>
<polygon fill="none" stroke="#000000" points="130,-252.5 130,-282.5 482,-282.5 482,-252.5 130,-252.5"/>
<text text-anchor="start" x="137" y="-263.9" font-family="Arial" font-size="14.00" fill="#000000">function </text>
<text text-anchor="start" x="189.9088" y="-263.9" font-family="Arial" font-size="14.00" fill="#666666">[varchar]</text>
<polygon fill="none" stroke="#000000" points="130,-222.5 130,-252.5 482,-252.5 482,-222.5 130,-222.5"/>
<text text-anchor="start" x="137" y="-233.9" font-family="Arial" font-size="14.00" fill="#000000">title </text>
<text text-anchor="start" x="162.6676" y="-233.9" font-family="Arial" font-size="14.00" fill="#666666">[integer]</text>
<polygon fill="none" stroke="#000000" points="130,-192.5 130,-222.5 482,-222.5 482,-192.5 130,-192.5"/>
<text text-anchor="start" x="137" y="-203.9" font-family="Arial" font-size="14.00" fill="#000000">company_id </text>
<text text-anchor="start" x="216.3534" y="-203.9" font-family="Arial" font-size="14.00" fill="#666666">[integer]</text>
<polygon fill="none" stroke="#000000" points="130,-162.5 130,-192.5 482,-192.5 482,-162.5 130,-162.5"/>
<text text-anchor="start" x="137" y="-173.9" font-family="Arial" font-size="14.00" fill="#000000">lost_reason </text>
<text text-anchor="start" x="213.244" y="-173.9" font-family="Arial" font-size="14.00" fill="#666666">[integer]</text>
<polygon fill="none" stroke="#000000" points="130,-132.5 130,-162.5 482,-162.5 482,-132.5 130,-132.5"/>
<text text-anchor="start" x="137" y="-143.9" font-family="Arial" font-size="14.00" fill="#000000">create_uid </text>
<text text-anchor="start" x="206.244" y="-143.9" font-family="Arial" font-size="14.00" fill="#666666">[integer]</text>
<polygon fill="none" stroke="#000000" points="130,-102.5 130,-132.5 482,-132.5 482,-102.5 130,-102.5"/>
<text text-anchor="start" x="137" y="-113.9" font-family="Arial" font-size="14.00" fill="#000000">create_date </text>
<text text-anchor="start" x="214.8106" y="-113.9" font-family="Arial" font-size="14.00" fill="#666666">[timestamp without time zone]</text>
<polygon fill="none" stroke="#000000" points="130,-72.5 130,-102.5 482,-102.5 482,-72.5 130,-72.5"/>
<text text-anchor="start" x="137" y="-83.9" font-family="Arial" font-size="14.00" fill="#000000">write_uid </text>
<text text-anchor="start" x="196.892" y="-83.9" font-family="Arial" font-size="14.00" fill="#666666">[integer]</text>
<polygon fill="none" stroke="#000000" points="130,-42.5 130,-72.5 482,-72.5 482,-42.5 130,-42.5"/>
<text text-anchor="start" x="137" y="-53.9" font-family="Arial" font-size="14.00" fill="#000000">write_date </text>
<text text-anchor="start" x="205.4586" y="-53.9" font-family="Arial" font-size="14.00" fill="#666666">[timestamp without time zone]</text>
</g>
<!-- public.crm_lead_tag_rel&#45;&gt;public.crm_lead -->
<g id="edge1" class="edge">
<title>public.crm_lead_tag_rel:lead_id&#45;&gt;public.crm_lead:id</title>
<path fill="none" stroke="#000000" d="M353.7874,-1715.9139C327.0319,-1706.3844 342.4027,-1656.169 364,-1627 396.6276,-1582.9335 449.3724,-1635.0665 482,-1591 506.7281,-1557.6026 523.5556,-1497.5 482,-1497.5"/>
<polygon fill="#000000" stroke="#000000" points="354.1185,-1715.9652 363.3093,-1721.9467 359.0592,-1716.7326 364,-1717.5 364,-1717.5 364,-1717.5 359.0592,-1716.7326 364.6907,-1713.0533 354.1185,-1715.9652 354.1185,-1715.9652"/>
<text text-anchor="start" x="6.996" y="-1727.5" font-family="Arial" font-size="10.00" fill="#000000">FOREIGN KEY (lead_id) REFERENCES crm_lead(id) ON DELETE CASCADE</text>
</g>
<!-- public.crm_lead_tag -->
<g id="node3" class="node">
<title>public.crm_lead_tag</title>
<polygon fill="#efefef" stroke="transparent" points="586,-882.5 586,-917.5 862,-917.5 862,-882.5 586,-882.5"/>
<polygon fill="none" stroke="#000000" points="586,-882.5 586,-917.5 862,-917.5 862,-882.5 586,-882.5"/>
<text text-anchor="start" x="594.8564" y="-895.3" font-family="Arial Bold" font-size="18.00" fill="#000000">public.crm_lead_tag</text>
<text text-anchor="start" x="755.8898" y="-895.3" font-family="Arial" font-size="14.00" fill="#000000"> </text>
<text text-anchor="start" x="759.7804" y="-895.3" font-family="Arial" font-size="14.00" fill="#666666">[BASE TABLE]</text>
<polygon fill="none" stroke="#000000" points="586,-852.5 586,-882.5 862,-882.5 862,-852.5 586,-852.5"/>
<text text-anchor="start" x="593" y="-863.9" font-family="Arial" font-size="14.00" fill="#000000">id </text>
<text text-anchor="start" x="607.7798" y="-863.9" font-family="Arial" font-size="14.00" fill="#666666">[integer]</text>
<polygon fill="none" stroke="#000000" points="586,-822.5 586,-852.5 862,-852.5 862,-822.5 586,-822.5"/>
<text text-anchor="start" x="593" y="-833.9" font-family="Arial" font-size="14.00" fill="#000000">name </text>
<text text-anchor="start" x="631.899" y="-833.9" font-family="Arial" font-size="14.00" fill="#666666">[varchar]</text>
<polygon fill="none" stroke="#000000" points="586,-792.5 586,-822.5 862,-822.5 862,-792.5 586,-792.5"/>
<text text-anchor="start" x="593" y="-803.9" font-family="Arial" font-size="14.00" fill="#000000">color </text>
<text text-anchor="start" x="627.223" y="-803.9" font-family="Arial" font-size="14.00" fill="#666666">[integer]</text>
<polygon fill="none" stroke="#000000" points="586,-762.5 586,-792.5 862,-792.5 862,-762.5 586,-762.5"/>
<text text-anchor="start" x="593" y="-773.9" font-family="Arial" font-size="14.00" fill="#000000">create_uid </text>
<text text-anchor="start" x="662.244" y="-773.9" font-family="Arial" font-size="14.00" fill="#666666">[integer]</text>
<polygon fill="none" stroke="#000000" points="586,-732.5 586,-762.5 862,-762.5 862,-732.5 586,-732.5"/>
<text text-anchor="start" x="592.5246" y="-743.9" font-family="Arial" font-size="14.00" fill="#000000">create_date </text>
<text text-anchor="start" x="670.3352" y="-743.9" font-family="Arial" font-size="14.00" fill="#666666">[timestamp without time zone]</text>
<polygon fill="none" stroke="#000000" points="586,-702.5 586,-732.5 862,-732.5 862,-702.5 586,-702.5"/>
<text text-anchor="start" x="593" y="-713.9" font-family="Arial" font-size="14.00" fill="#000000">write_uid </text>
<text text-anchor="start" x="652.892" y="-713.9" font-family="Arial" font-size="14.00" fill="#666666">[integer]</text>
<polygon fill="none" stroke="#000000" points="586,-672.5 586,-702.5 862,-702.5 862,-672.5 586,-672.5"/>
<text text-anchor="start" x="593" y="-683.9" font-family="Arial" font-size="14.00" fill="#000000">write_date </text>
<text text-anchor="start" x="661.4586" y="-683.9" font-family="Arial" font-size="14.00" fill="#666666">[timestamp without time zone]</text>
</g>
<!-- public.crm_lead_tag_rel&#45;&gt;public.crm_lead_tag -->
<g id="edge2" class="edge">
<title>public.crm_lead_tag_rel:tag_id&#45;&gt;public.crm_lead_tag:id</title>
<path fill="none" stroke="#000000" d="M676.017,-1686.5738C831.8987,-1655.7816 406.4885,-867.5 586,-867.5"/>
<polygon fill="#000000" stroke="#000000" points="675.9575,-1686.5792 665.5856,-1683.0191 670.9788,-1687.0396 666,-1687.5 666,-1687.5 666,-1687.5 670.9788,-1687.0396 666.4144,-1691.9809 675.9575,-1686.5792 675.9575,-1686.5792"/>
<text text-anchor="start" x="672.7675" y="-1697.5" font-family="Arial" font-size="10.00" fill="#000000">FOREIGN KEY (tag_id) REFERENCES crm_lead_tag(id) ON DELETE CASCADE</text>
</g>
</g>
</svg>
