<?xml version="1.0" encoding="UTF-8" standalone="no"?>
<!DOCTYPE svg PUBLIC "-//W3C//DTD SVG 1.1//EN"
 "http://www.w3.org/Graphics/SVG/1.1/DTD/svg11.dtd">
<!-- Generated by graphviz version 2.40.1 (20161225.0304)
 -->
<!-- Title: public.pos_detail_configs Pages: 1 -->
<svg width="1194pt" height="2152pt"
 viewBox="0.00 0.00 1194.00 2152.00" xmlns="http://www.w3.org/2000/svg" xmlns:xlink="http://www.w3.org/1999/xlink">
<g id="graph0" class="graph" transform="scale(1 1) rotate(0) translate(4 2148)">
<title>public.pos_detail_configs</title>
<polygon fill="#ffffff" stroke="transparent" points="-4,4 -4,-2148 1190,-2148 1190,4 -4,4"/>
<!-- public.pos_detail_configs -->
<g id="node1" class="node">
<title>public.pos_detail_configs</title>
<polygon fill="#efefef" stroke="transparent" points="474,-2062.5 474,-2097.5 786,-2097.5 786,-2062.5 474,-2062.5"/>
<polygon fill="none" stroke="#000000" points="474,-2062.5 474,-2097.5 786,-2097.5 786,-2062.5 474,-2062.5"/>
<text text-anchor="start" x="480.844" y="-2075.3" font-family="Arial Bold" font-size="18.00" fill="#000000">public.pos_detail_configs</text>
<text text-anchor="start" x="681.9022" y="-2075.3" font-family="Arial" font-size="14.00" fill="#000000"> </text>
<text text-anchor="start" x="685.7928" y="-2075.3" font-family="Arial" font-size="14.00" fill="#666666">[BASE TABLE]</text>
<polygon fill="none" stroke="#000000" points="474,-2032.5 474,-2062.5 786,-2062.5 786,-2032.5 474,-2032.5"/>
<text text-anchor="start" x="481" y="-2043.9" font-family="Arial" font-size="14.00" fill="#000000">pos_details_wizard_id </text>
<text text-anchor="start" x="622.5834" y="-2043.9" font-family="Arial" font-size="14.00" fill="#666666">[integer]</text>
<polygon fill="none" stroke="#000000" points="474,-2002.5 474,-2032.5 786,-2032.5 786,-2002.5 474,-2002.5"/>
<text text-anchor="start" x="481" y="-2013.9" font-family="Arial" font-size="14.00" fill="#000000">pos_config_id </text>
<text text-anchor="start" x="571.2552" y="-2013.9" font-family="Arial" font-size="14.00" fill="#666666">[integer]</text>
<polygon fill="none" stroke="#000000" stroke-width="3" points="472.5,-2001.5 472.5,-2099.5 787.5,-2099.5 787.5,-2001.5 472.5,-2001.5"/>
</g>
<!-- public.pos_details_wizard -->
<g id="node2" class="node">
<title>public.pos_details_wizard</title>
<polygon fill="#efefef" stroke="transparent" points="272,-1047.5 272,-1082.5 588,-1082.5 588,-1047.5 272,-1047.5"/>
<polygon fill="none" stroke="#000000" points="272,-1047.5 272,-1082.5 588,-1082.5 588,-1047.5 272,-1047.5"/>
<text text-anchor="start" x="278.855" y="-1060.3" font-family="Arial Bold" font-size="18.00" fill="#000000">public.pos_details_wizard</text>
<text text-anchor="start" x="483.8912" y="-1060.3" font-family="Arial" font-size="14.00" fill="#000000"> </text>
<text text-anchor="start" x="487.7818" y="-1060.3" font-family="Arial" font-size="14.00" fill="#666666">[BASE TABLE]</text>
<polygon fill="none" stroke="#000000" points="272,-1017.5 272,-1047.5 588,-1047.5 588,-1017.5 272,-1017.5"/>
<text text-anchor="start" x="279" y="-1028.9" font-family="Arial" font-size="14.00" fill="#000000">id </text>
<text text-anchor="start" x="293.7798" y="-1028.9" font-family="Arial" font-size="14.00" fill="#666666">[integer]</text>
<polygon fill="none" stroke="#000000" points="272,-987.5 272,-1017.5 588,-1017.5 588,-987.5 272,-987.5"/>
<text text-anchor="start" x="279" y="-998.9" font-family="Arial" font-size="14.00" fill="#000000">start_date </text>
<text text-anchor="start" x="345.136" y="-998.9" font-family="Arial" font-size="14.00" fill="#666666">[timestamp without time zone]</text>
<polygon fill="none" stroke="#000000" points="272,-957.5 272,-987.5 588,-987.5 588,-957.5 272,-957.5"/>
<text text-anchor="start" x="279" y="-968.9" font-family="Arial" font-size="14.00" fill="#000000">end_date </text>
<text text-anchor="start" x="341.2594" y="-968.9" font-family="Arial" font-size="14.00" fill="#666666">[timestamp without time zone]</text>
<polygon fill="none" stroke="#000000" points="272,-927.5 272,-957.5 588,-957.5 588,-927.5 272,-927.5"/>
<text text-anchor="start" x="279" y="-938.9" font-family="Arial" font-size="14.00" fill="#000000">create_uid </text>
<text text-anchor="start" x="348.244" y="-938.9" font-family="Arial" font-size="14.00" fill="#666666">[integer]</text>
<polygon fill="none" stroke="#000000" points="272,-897.5 272,-927.5 588,-927.5 588,-897.5 272,-897.5"/>
<text text-anchor="start" x="279" y="-908.9" font-family="Arial" font-size="14.00" fill="#000000">create_date </text>
<text text-anchor="start" x="356.8106" y="-908.9" font-family="Arial" font-size="14.00" fill="#666666">[timestamp without time zone]</text>
<polygon fill="none" stroke="#000000" points="272,-867.5 272,-897.5 588,-897.5 588,-867.5 272,-867.5"/>
<text text-anchor="start" x="279" y="-878.9" font-family="Arial" font-size="14.00" fill="#000000">write_uid </text>
<text text-anchor="start" x="338.892" y="-878.9" font-family="Arial" font-size="14.00" fill="#666666">[integer]</text>
<polygon fill="none" stroke="#000000" points="272,-837.5 272,-867.5 588,-867.5 588,-837.5 272,-837.5"/>
<text text-anchor="start" x="279" y="-848.9" font-family="Arial" font-size="14.00" fill="#000000">write_date </text>
<text text-anchor="start" x="347.4586" y="-848.9" font-family="Arial" font-size="14.00" fill="#666666">[timestamp without time zone]</text>
</g>
<!-- public.pos_detail_configs&#45;&gt;public.pos_details_wizard -->
<g id="edge1" class="edge">
<title>public.pos_detail_configs:pos_details_wizard_id&#45;&gt;public.pos_details_wizard:id</title>
<path fill="none" stroke="#000000" d="M464.1654,-2044.2174C382.6549,-1981.2166 697.7188,-1032.5 588,-1032.5"/>
<polygon fill="#000000" stroke="#000000" points="464.5145,-2044.3338 472.5752,-2051.7685 469.2572,-2045.9169 474,-2047.5 474,-2047.5 474,-2047.5 469.2572,-2045.9169 475.4248,-2043.2315 464.5145,-2044.3338 464.5145,-2044.3338"/>
<text text-anchor="start" x="6.9855" y="-2057.5" font-family="Arial" font-size="10.00" fill="#000000">FOREIGN KEY (pos_details_wizard_id) REFERENCES pos_details_wizard(id) ON DELETE CASCADE</text>
</g>
<!-- public.pos_config -->
<g id="node3" class="node">
<title>public.pos_config</title>
<polygon fill="#efefef" stroke="transparent" points="692,-1842.5 692,-1877.5 968,-1877.5 968,-1842.5 692,-1842.5"/>
<polygon fill="none" stroke="#000000" points="692,-1842.5 692,-1877.5 968,-1877.5 968,-1842.5 692,-1842.5"/>
<text text-anchor="start" x="711.8517" y="-1855.3" font-family="Arial Bold" font-size="18.00" fill="#000000">public.pos_config</text>
<text text-anchor="start" x="850.8945" y="-1855.3" font-family="Arial" font-size="14.00" fill="#000000"> </text>
<text text-anchor="start" x="854.7851" y="-1855.3" font-family="Arial" font-size="14.00" fill="#666666">[BASE TABLE]</text>
<polygon fill="none" stroke="#000000" points="692,-1812.5 692,-1842.5 968,-1842.5 968,-1812.5 692,-1812.5"/>
<text text-anchor="start" x="699" y="-1823.9" font-family="Arial" font-size="14.00" fill="#000000">id </text>
<text text-anchor="start" x="713.7798" y="-1823.9" font-family="Arial" font-size="14.00" fill="#666666">[integer]</text>
<polygon fill="none" stroke="#000000" points="692,-1782.5 692,-1812.5 968,-1812.5 968,-1782.5 692,-1782.5"/>
<text text-anchor="start" x="699" y="-1793.9" font-family="Arial" font-size="14.00" fill="#000000">name </text>
<text text-anchor="start" x="737.899" y="-1793.9" font-family="Arial" font-size="14.00" fill="#666666">[varchar]</text>
<polygon fill="none" stroke="#000000" points="692,-1752.5 692,-1782.5 968,-1782.5 968,-1752.5 692,-1752.5"/>
<text text-anchor="start" x="699" y="-1763.9" font-family="Arial" font-size="14.00" fill="#000000">picking_type_id </text>
<text text-anchor="start" x="799.3618" y="-1763.9" font-family="Arial" font-size="14.00" fill="#666666">[integer]</text>
<polygon fill="none" stroke="#000000" points="692,-1722.5 692,-1752.5 968,-1752.5 968,-1722.5 692,-1722.5"/>
<text text-anchor="start" x="699" y="-1733.9" font-family="Arial" font-size="14.00" fill="#000000">stock_location_id </text>
<text text-anchor="start" x="810.2524" y="-1733.9" font-family="Arial" font-size="14.00" fill="#666666">[integer]</text>
<polygon fill="none" stroke="#000000" points="692,-1692.5 692,-1722.5 968,-1722.5 968,-1692.5 692,-1692.5"/>
<text text-anchor="start" x="699" y="-1703.9" font-family="Arial" font-size="14.00" fill="#000000">journal_id </text>
<text text-anchor="start" x="763.5666" y="-1703.9" font-family="Arial" font-size="14.00" fill="#666666">[integer]</text>
<polygon fill="none" stroke="#000000" points="692,-1662.5 692,-1692.5 968,-1692.5 968,-1662.5 692,-1662.5"/>
<text text-anchor="start" x="699" y="-1673.9" font-family="Arial" font-size="14.00" fill="#000000">invoice_journal_id </text>
<text text-anchor="start" x="814.9102" y="-1673.9" font-family="Arial" font-size="14.00" fill="#666666">[integer]</text>
<polygon fill="none" stroke="#000000" points="692,-1632.5 692,-1662.5 968,-1662.5 968,-1632.5 692,-1632.5"/>
<text text-anchor="start" x="699" y="-1643.9" font-family="Arial" font-size="14.00" fill="#000000">iface_cashdrawer </text>
<text text-anchor="start" x="812.5764" y="-1643.9" font-family="Arial" font-size="14.00" fill="#666666">[boolean]</text>
<polygon fill="none" stroke="#000000" points="692,-1602.5 692,-1632.5 968,-1632.5 968,-1602.5 692,-1602.5"/>
<text text-anchor="start" x="699" y="-1613.9" font-family="Arial" font-size="14.00" fill="#000000">iface_payment_terminal </text>
<text text-anchor="start" x="851.4726" y="-1613.9" font-family="Arial" font-size="14.00" fill="#666666">[boolean]</text>
<polygon fill="none" stroke="#000000" points="692,-1572.5 692,-1602.5 968,-1602.5 968,-1572.5 692,-1572.5"/>
<text text-anchor="start" x="699" y="-1583.9" font-family="Arial" font-size="14.00" fill="#000000">iface_electronic_scale </text>
<text text-anchor="start" x="840.5848" y="-1583.9" font-family="Arial" font-size="14.00" fill="#666666">[boolean]</text>
<polygon fill="none" stroke="#000000" points="692,-1542.5 692,-1572.5 968,-1572.5 968,-1542.5 692,-1542.5"/>
<text text-anchor="start" x="699" y="-1553.9" font-family="Arial" font-size="14.00" fill="#000000">iface_vkeyboard </text>
<text text-anchor="start" x="804.8092" y="-1553.9" font-family="Arial" font-size="14.00" fill="#666666">[boolean]</text>
<polygon fill="none" stroke="#000000" points="692,-1512.5 692,-1542.5 968,-1542.5 968,-1512.5 692,-1512.5"/>
<text text-anchor="start" x="699" y="-1523.9" font-family="Arial" font-size="14.00" fill="#000000">iface_customer_facing_display </text>
<text text-anchor="start" x="894.2664" y="-1523.9" font-family="Arial" font-size="14.00" fill="#666666">[boolean]</text>
<polygon fill="none" stroke="#000000" points="692,-1482.5 692,-1512.5 968,-1512.5 968,-1482.5 692,-1482.5"/>
<text text-anchor="start" x="699" y="-1493.9" font-family="Arial" font-size="14.00" fill="#000000">iface_print_via_proxy </text>
<text text-anchor="start" x="835.1388" y="-1493.9" font-family="Arial" font-size="14.00" fill="#666666">[boolean]</text>
<polygon fill="none" stroke="#000000" points="692,-1452.5 692,-1482.5 968,-1482.5 968,-1452.5 692,-1452.5"/>
<text text-anchor="start" x="699" y="-1463.9" font-family="Arial" font-size="14.00" fill="#000000">iface_scan_via_proxy </text>
<text text-anchor="start" x="837.481" y="-1463.9" font-family="Arial" font-size="14.00" fill="#666666">[boolean]</text>
<polygon fill="none" stroke="#000000" points="692,-1422.5 692,-1452.5 968,-1452.5 968,-1422.5 692,-1422.5"/>
<text text-anchor="start" x="699" y="-1433.9" font-family="Arial" font-size="14.00" fill="#000000">iface_big_scrollbars </text>
<text text-anchor="start" x="826.5722" y="-1433.9" font-family="Arial" font-size="14.00" fill="#666666">[boolean]</text>
<polygon fill="none" stroke="#000000" points="692,-1392.5 692,-1422.5 968,-1422.5 968,-1392.5 692,-1392.5"/>
<text text-anchor="start" x="699" y="-1403.9" font-family="Arial" font-size="14.00" fill="#000000">iface_print_auto </text>
<text text-anchor="start" x="802.4796" y="-1403.9" font-family="Arial" font-size="14.00" fill="#666666">[boolean]</text>
<polygon fill="none" stroke="#000000" points="692,-1362.5 692,-1392.5 968,-1392.5 968,-1362.5 692,-1362.5"/>
<text text-anchor="start" x="699" y="-1373.9" font-family="Arial" font-size="14.00" fill="#000000">iface_print_skip_screen </text>
<text text-anchor="start" x="849.9214" y="-1373.9" font-family="Arial" font-size="14.00" fill="#666666">[boolean]</text>
<polygon fill="none" stroke="#000000" points="692,-1332.5 692,-1362.5 968,-1362.5 968,-1332.5 692,-1332.5"/>
<text text-anchor="start" x="699" y="-1343.9" font-family="Arial" font-size="14.00" fill="#000000">iface_precompute_cash </text>
<text text-anchor="start" x="851.4908" y="-1343.9" font-family="Arial" font-size="14.00" fill="#666666">[boolean]</text>
<polygon fill="none" stroke="#000000" points="692,-1302.5 692,-1332.5 968,-1332.5 968,-1302.5 692,-1302.5"/>
<text text-anchor="start" x="699" y="-1313.9" font-family="Arial" font-size="14.00" fill="#000000">iface_tax_included </text>
<text text-anchor="start" x="818.8176" y="-1313.9" font-family="Arial" font-size="14.00" fill="#666666">[varchar]</text>
<polygon fill="none" stroke="#000000" points="692,-1272.5 692,-1302.5 968,-1302.5 968,-1272.5 692,-1272.5"/>
<text text-anchor="start" x="699" y="-1283.9" font-family="Arial" font-size="14.00" fill="#000000">iface_start_categ_id </text>
<text text-anchor="start" x="828.1528" y="-1283.9" font-family="Arial" font-size="14.00" fill="#666666">[integer]</text>
<polygon fill="none" stroke="#000000" points="692,-1242.5 692,-1272.5 968,-1272.5 968,-1242.5 692,-1242.5"/>
<text text-anchor="start" x="699" y="-1253.9" font-family="Arial" font-size="14.00" fill="#000000">iface_display_categ_images </text>
<text text-anchor="start" x="878.7152" y="-1253.9" font-family="Arial" font-size="14.00" fill="#666666">[boolean]</text>
<polygon fill="none" stroke="#000000" points="692,-1212.5 692,-1242.5 968,-1242.5 968,-1212.5 692,-1212.5"/>
<text text-anchor="start" x="699" y="-1223.9" font-family="Arial" font-size="14.00" fill="#000000">restrict_price_control </text>
<text text-anchor="start" x="832.7854" y="-1223.9" font-family="Arial" font-size="14.00" fill="#666666">[boolean]</text>
<polygon fill="none" stroke="#000000" points="692,-1182.5 692,-1212.5 968,-1212.5 968,-1182.5 692,-1182.5"/>
<text text-anchor="start" x="699" y="-1193.9" font-family="Arial" font-size="14.00" fill="#000000">cash_control </text>
<text text-anchor="start" x="782.244" y="-1193.9" font-family="Arial" font-size="14.00" fill="#666666">[boolean]</text>
<polygon fill="none" stroke="#000000" points="692,-1152.5 692,-1182.5 968,-1182.5 968,-1152.5 692,-1152.5"/>
<text text-anchor="start" x="699" y="-1163.9" font-family="Arial" font-size="14.00" fill="#000000">receipt_header </text>
<text text-anchor="start" x="796.2524" y="-1163.9" font-family="Arial" font-size="14.00" fill="#666666">[text]</text>
<polygon fill="none" stroke="#000000" points="692,-1122.5 692,-1152.5 968,-1152.5 968,-1122.5 692,-1122.5"/>
<text text-anchor="start" x="699" y="-1133.9" font-family="Arial" font-size="14.00" fill="#000000">receipt_footer </text>
<text text-anchor="start" x="788.4684" y="-1133.9" font-family="Arial" font-size="14.00" fill="#666666">[text]</text>
<polygon fill="none" stroke="#000000" points="692,-1092.5 692,-1122.5 968,-1122.5 968,-1092.5 692,-1092.5"/>
<text text-anchor="start" x="699" y="-1103.9" font-family="Arial" font-size="14.00" fill="#000000">proxy_ip </text>
<text text-anchor="start" x="755.7882" y="-1103.9" font-family="Arial" font-size="14.00" fill="#666666">[varchar(45)]</text>
<polygon fill="none" stroke="#000000" points="692,-1062.5 692,-1092.5 968,-1092.5 968,-1062.5 692,-1062.5"/>
<text text-anchor="start" x="699" y="-1073.9" font-family="Arial" font-size="14.00" fill="#000000">active </text>
<text text-anchor="start" x="739.453" y="-1073.9" font-family="Arial" font-size="14.00" fill="#666666">[boolean]</text>
<polygon fill="none" stroke="#000000" points="692,-1032.5 692,-1062.5 968,-1062.5 968,-1032.5 692,-1032.5"/>
<text text-anchor="start" x="699" y="-1043.9" font-family="Arial" font-size="14.00" fill="#000000">uuid </text>
<text text-anchor="start" x="729.345" y="-1043.9" font-family="Arial" font-size="14.00" fill="#666666">[varchar]</text>
<polygon fill="none" stroke="#000000" points="692,-1002.5 692,-1032.5 968,-1032.5 968,-1002.5 692,-1002.5"/>
<text text-anchor="start" x="699" y="-1013.9" font-family="Arial" font-size="14.00" fill="#000000">sequence_id </text>
<text text-anchor="start" x="782.258" y="-1013.9" font-family="Arial" font-size="14.00" fill="#666666">[integer]</text>
<polygon fill="none" stroke="#000000" points="692,-972.5 692,-1002.5 968,-1002.5 968,-972.5 692,-972.5"/>
<text text-anchor="start" x="699" y="-983.9" font-family="Arial" font-size="14.00" fill="#000000">sequence_line_id </text>
<text text-anchor="start" x="811.819" y="-983.9" font-family="Arial" font-size="14.00" fill="#666666">[integer]</text>
<polygon fill="none" stroke="#000000" points="692,-942.5 692,-972.5 968,-972.5 968,-942.5 692,-942.5"/>
<text text-anchor="start" x="699" y="-953.9" font-family="Arial" font-size="14.00" fill="#000000">group_by </text>
<text text-anchor="start" x="761.2468" y="-953.9" font-family="Arial" font-size="14.00" fill="#666666">[boolean]</text>
<polygon fill="none" stroke="#000000" points="692,-912.5 692,-942.5 968,-942.5 968,-912.5 692,-912.5"/>
<text text-anchor="start" x="699" y="-923.9" font-family="Arial" font-size="14.00" fill="#000000">pricelist_id </text>
<text text-anchor="start" x="768.9986" y="-923.9" font-family="Arial" font-size="14.00" fill="#666666">[integer]</text>
<polygon fill="none" stroke="#000000" points="692,-882.5 692,-912.5 968,-912.5 968,-882.5 692,-882.5"/>
<text text-anchor="start" x="699" y="-893.9" font-family="Arial" font-size="14.00" fill="#000000">company_id </text>
<text text-anchor="start" x="778.3534" y="-893.9" font-family="Arial" font-size="14.00" fill="#666666">[integer]</text>
<polygon fill="none" stroke="#000000" points="692,-852.5 692,-882.5 968,-882.5 968,-852.5 692,-852.5"/>
<text text-anchor="start" x="699" y="-863.9" font-family="Arial" font-size="14.00" fill="#000000">barcode_nomenclature_id </text>
<text text-anchor="start" x="864.7152" y="-863.9" font-family="Arial" font-size="14.00" fill="#666666">[integer]</text>
<polygon fill="none" stroke="#000000" points="692,-822.5 692,-852.5 968,-852.5 968,-822.5 692,-822.5"/>
<text text-anchor="start" x="699" y="-833.9" font-family="Arial" font-size="14.00" fill="#000000">group_pos_manager_id </text>
<text text-anchor="start" x="850.718" y="-833.9" font-family="Arial" font-size="14.00" fill="#666666">[integer]</text>
<polygon fill="none" stroke="#000000" points="692,-792.5 692,-822.5 968,-822.5 968,-792.5 692,-792.5"/>
<text text-anchor="start" x="699" y="-803.9" font-family="Arial" font-size="14.00" fill="#000000">group_pos_user_id </text>
<text text-anchor="start" x="822.7096" y="-803.9" font-family="Arial" font-size="14.00" fill="#666666">[integer]</text>
<polygon fill="none" stroke="#000000" points="692,-762.5 692,-792.5 968,-792.5 968,-762.5 692,-762.5"/>
<text text-anchor="start" x="699" y="-773.9" font-family="Arial" font-size="14.00" fill="#000000">iface_tipproduct </text>
<text text-anchor="start" x="801.697" y="-773.9" font-family="Arial" font-size="14.00" fill="#666666">[boolean]</text>
<polygon fill="none" stroke="#000000" points="692,-732.5 692,-762.5 968,-762.5 968,-732.5 692,-732.5"/>
<text text-anchor="start" x="699" y="-743.9" font-family="Arial" font-size="14.00" fill="#000000">tip_product_id </text>
<text text-anchor="start" x="790.8064" y="-743.9" font-family="Arial" font-size="14.00" fill="#666666">[integer]</text>
<polygon fill="none" stroke="#000000" points="692,-702.5 692,-732.5 968,-732.5 968,-702.5 692,-702.5"/>
<text text-anchor="start" x="699" y="-713.9" font-family="Arial" font-size="14.00" fill="#000000">default_fiscal_position_id </text>
<text text-anchor="start" x="859.2664" y="-713.9" font-family="Arial" font-size="14.00" fill="#666666">[integer]</text>
<polygon fill="none" stroke="#000000" points="692,-672.5 692,-702.5 968,-702.5 968,-672.5 692,-672.5"/>
<text text-anchor="start" x="699" y="-683.9" font-family="Arial" font-size="14.00" fill="#000000">customer_facing_display_html </text>
<text text-anchor="start" x="891.1444" y="-683.9" font-family="Arial" font-size="14.00" fill="#666666">[text]</text>
<polygon fill="none" stroke="#000000" points="692,-642.5 692,-672.5 968,-672.5 968,-642.5 692,-642.5"/>
<text text-anchor="start" x="699" y="-653.9" font-family="Arial" font-size="14.00" fill="#000000">use_pricelist </text>
<text text-anchor="start" x="780.6746" y="-653.9" font-family="Arial" font-size="14.00" fill="#666666">[boolean]</text>
<polygon fill="none" stroke="#000000" points="692,-612.5 692,-642.5 968,-642.5 968,-612.5 692,-612.5"/>
<text text-anchor="start" x="699" y="-623.9" font-family="Arial" font-size="14.00" fill="#000000">tax_regime </text>
<text text-anchor="start" x="772.122" y="-623.9" font-family="Arial" font-size="14.00" fill="#666666">[boolean]</text>
<polygon fill="none" stroke="#000000" points="692,-582.5 692,-612.5 968,-612.5 968,-582.5 692,-582.5"/>
<text text-anchor="start" x="699" y="-593.9" font-family="Arial" font-size="14.00" fill="#000000">tax_regime_selection </text>
<text text-anchor="start" x="835.1388" y="-593.9" font-family="Arial" font-size="14.00" fill="#666666">[boolean]</text>
<polygon fill="none" stroke="#000000" points="692,-552.5 692,-582.5 968,-582.5 968,-552.5 692,-552.5"/>
<text text-anchor="start" x="699" y="-563.9" font-family="Arial" font-size="14.00" fill="#000000">barcode_scanner </text>
<text text-anchor="start" x="811.0378" y="-563.9" font-family="Arial" font-size="14.00" fill="#666666">[boolean]</text>
<polygon fill="none" stroke="#000000" points="692,-522.5 692,-552.5 968,-552.5 968,-522.5 692,-522.5"/>
<text text-anchor="start" x="699" y="-533.9" font-family="Arial" font-size="14.00" fill="#000000">start_category </text>
<text text-anchor="start" x="791.5792" y="-533.9" font-family="Arial" font-size="14.00" fill="#666666">[boolean]</text>
<polygon fill="none" stroke="#000000" points="692,-492.5 692,-522.5 968,-522.5 968,-492.5 692,-492.5"/>
<text text-anchor="start" x="699" y="-503.9" font-family="Arial" font-size="14.00" fill="#000000">module_account </text>
<text text-anchor="start" x="805.5918" y="-503.9" font-family="Arial" font-size="14.00" fill="#666666">[boolean]</text>
<polygon fill="none" stroke="#000000" points="692,-462.5 692,-492.5 968,-492.5 968,-462.5 692,-462.5"/>
<text text-anchor="start" x="699" y="-473.9" font-family="Arial" font-size="14.00" fill="#000000">module_pos_restaurant </text>
<text text-anchor="start" x="849.934" y="-473.9" font-family="Arial" font-size="14.00" fill="#666666">[boolean]</text>
<polygon fill="none" stroke="#000000" points="692,-432.5 692,-462.5 968,-462.5 968,-432.5 692,-432.5"/>
<text text-anchor="start" x="699" y="-443.9" font-family="Arial" font-size="14.00" fill="#000000">module_pos_discount </text>
<text text-anchor="start" x="839.0462" y="-443.9" font-family="Arial" font-size="14.00" fill="#666666">[boolean]</text>
<polygon fill="none" stroke="#000000" points="692,-402.5 692,-432.5 968,-432.5 968,-402.5 692,-402.5"/>
<text text-anchor="start" x="699" y="-413.9" font-family="Arial" font-size="14.00" fill="#000000">module_pos_loyalty </text>
<text text-anchor="start" x="826.5876" y="-413.9" font-family="Arial" font-size="14.00" fill="#666666">[boolean]</text>
<polygon fill="none" stroke="#000000" points="692,-372.5 692,-402.5 968,-402.5 968,-372.5 692,-372.5"/>
<text text-anchor="start" x="699" y="-383.9" font-family="Arial" font-size="14.00" fill="#000000">module_pos_mercury </text>
<text text-anchor="start" x="837.4656" y="-383.9" font-family="Arial" font-size="14.00" fill="#666666">[boolean]</text>
<polygon fill="none" stroke="#000000" points="692,-342.5 692,-372.5 968,-372.5 968,-342.5 692,-342.5"/>
<text text-anchor="start" x="699" y="-353.9" font-family="Arial" font-size="14.00" fill="#000000">module_pos_reprint </text>
<text text-anchor="start" x="826.5848" y="-353.9" font-family="Arial" font-size="14.00" fill="#666666">[boolean]</text>
<polygon fill="none" stroke="#000000" points="692,-312.5 692,-342.5 968,-342.5 968,-312.5 692,-312.5"/>
<text text-anchor="start" x="699" y="-323.9" font-family="Arial" font-size="14.00" fill="#000000">is_posbox </text>
<text text-anchor="start" x="765.9102" y="-323.9" font-family="Arial" font-size="14.00" fill="#666666">[boolean]</text>
<polygon fill="none" stroke="#000000" points="692,-282.5 692,-312.5 968,-312.5 968,-282.5 692,-282.5"/>
<text text-anchor="start" x="699" y="-293.9" font-family="Arial" font-size="14.00" fill="#000000">is_header_or_footer </text>
<text text-anchor="start" x="828.1514" y="-293.9" font-family="Arial" font-size="14.00" fill="#666666">[boolean]</text>
<polygon fill="none" stroke="#000000" points="692,-252.5 692,-282.5 968,-282.5 968,-252.5 692,-252.5"/>
<text text-anchor="start" x="699" y="-263.9" font-family="Arial" font-size="14.00" fill="#000000">create_uid </text>
<text text-anchor="start" x="768.244" y="-263.9" font-family="Arial" font-size="14.00" fill="#666666">[integer]</text>
<polygon fill="none" stroke="#000000" points="692,-222.5 692,-252.5 968,-252.5 968,-222.5 692,-222.5"/>
<text text-anchor="start" x="698.5246" y="-233.9" font-family="Arial" font-size="14.00" fill="#000000">create_date </text>
<text text-anchor="start" x="776.3352" y="-233.9" font-family="Arial" font-size="14.00" fill="#666666">[timestamp without time zone]</text>
<polygon fill="none" stroke="#000000" points="692,-192.5 692,-222.5 968,-222.5 968,-192.5 692,-192.5"/>
<text text-anchor="start" x="699" y="-203.9" font-family="Arial" font-size="14.00" fill="#000000">write_uid </text>
<text text-anchor="start" x="758.892" y="-203.9" font-family="Arial" font-size="14.00" fill="#666666">[integer]</text>
<polygon fill="none" stroke="#000000" points="692,-162.5 692,-192.5 968,-192.5 968,-162.5 692,-162.5"/>
<text text-anchor="start" x="699" y="-173.9" font-family="Arial" font-size="14.00" fill="#000000">write_date </text>
<text text-anchor="start" x="767.4586" y="-173.9" font-family="Arial" font-size="14.00" fill="#666666">[timestamp without time zone]</text>
<polygon fill="none" stroke="#000000" points="692,-132.5 692,-162.5 968,-162.5 968,-132.5 692,-132.5"/>
<text text-anchor="start" x="699" y="-143.9" font-family="Arial" font-size="14.00" fill="#000000">rounding_method </text>
<text text-anchor="start" x="811.8176" y="-143.9" font-family="Arial" font-size="14.00" fill="#666666">[integer]</text>
<polygon fill="none" stroke="#000000" points="692,-102.5 692,-132.5 968,-132.5 968,-102.5 692,-102.5"/>
<text text-anchor="start" x="699" y="-113.9" font-family="Arial" font-size="14.00" fill="#000000">cash_rounding </text>
<text text-anchor="start" x="794.7012" y="-113.9" font-family="Arial" font-size="14.00" fill="#666666">[boolean]</text>
<polygon fill="none" stroke="#000000" points="692,-72.5 692,-102.5 968,-102.5 968,-72.5 692,-72.5"/>
<text text-anchor="start" x="699" y="-83.9" font-family="Arial" font-size="14.00" fill="#000000">only_round_cash_method </text>
<text text-anchor="start" x="863.948" y="-83.9" font-family="Arial" font-size="14.00" fill="#666666">[boolean]</text>
<polygon fill="none" stroke="#000000" points="692,-42.5 692,-72.5 968,-72.5 968,-42.5 692,-42.5"/>
<text text-anchor="start" x="699" y="-53.9" font-family="Arial" font-size="14.00" fill="#000000">crm_team_id </text>
<text text-anchor="start" x="783.7826" y="-53.9" font-family="Arial" font-size="14.00" fill="#666666">[integer]</text>
</g>
<!-- public.pos_detail_configs&#45;&gt;public.pos_config -->
<g id="edge2" class="edge">
<title>public.pos_detail_configs:pos_config_id&#45;&gt;public.pos_config:id</title>
<path fill="none" stroke="#000000" d="M795.9148,-2014.8995C809.1606,-2005.9122 798.8576,-1975.6924 786,-1957 760.6466,-1920.141 717.3534,-1957.859 692,-1921 668.4495,-1886.7621 650.4444,-1827.5 692,-1827.5"/>
<polygon fill="#000000" stroke="#000000" points="795.6728,-2014.9629 784.8583,-2013.1472 790.8364,-2016.2314 786,-2017.5 786,-2017.5 786,-2017.5 790.8364,-2016.2314 787.1417,-2021.8528 795.6728,-2014.9629 795.6728,-2014.9629"/>
<text text-anchor="start" x="792.6485" y="-2027.5" font-family="Arial" font-size="10.00" fill="#000000">FOREIGN KEY (pos_config_id) REFERENCES pos_config(id) ON DELETE CASCADE</text>
</g>
</g>
</svg>
