<?xml version="1.0" encoding="UTF-8" standalone="no"?>
<!DOCTYPE svg PUBLIC "-//W3C//DTD SVG 1.1//EN"
 "http://www.w3.org/Graphics/SVG/1.1/DTD/svg11.dtd">
<!-- Generated by graphviz version 2.40.1 (20161225.0304)
 -->
<!-- Title: public.mail_followers_mail_message_subtype_rel Pages: 1 -->
<svg width="1458pt" height="772pt"
 viewBox="0.00 0.00 1458.00 772.00" xmlns="http://www.w3.org/2000/svg" xmlns:xlink="http://www.w3.org/1999/xlink">
<g id="graph0" class="graph" transform="scale(1 1) rotate(0) translate(4 768)">
<title>public.mail_followers_mail_message_subtype_rel</title>
<polygon fill="#ffffff" stroke="transparent" points="-4,4 -4,-768 1454,-768 1454,4 -4,4"/>
<!-- public.mail_followers_mail_message_subtype_rel -->
<g id="node1" class="node">
<title>public.mail_followers_mail_message_subtype_rel</title>
<polygon fill="#efefef" stroke="transparent" points="430,-682.5 430,-717.5 936,-717.5 936,-682.5 430,-682.5"/>
<polygon fill="none" stroke="#000000" points="430,-682.5 430,-717.5 936,-717.5 936,-682.5 430,-682.5"/>
<text text-anchor="start" x="436.8501" y="-695.3" font-family="Arial Bold" font-size="18.00" fill="#000000">public.mail_followers_mail_message_subtype_rel</text>
<text text-anchor="start" x="831.8961" y="-695.3" font-family="Arial" font-size="14.00" fill="#000000"> </text>
<text text-anchor="start" x="835.7867" y="-695.3" font-family="Arial" font-size="14.00" fill="#666666">[BASE TABLE]</text>
<polygon fill="none" stroke="#000000" points="430,-652.5 430,-682.5 936,-682.5 936,-652.5 430,-652.5"/>
<text text-anchor="start" x="437" y="-663.9" font-family="Arial" font-size="14.00" fill="#000000">mail_followers_id </text>
<text text-anchor="start" x="548.2202" y="-663.9" font-family="Arial" font-size="14.00" fill="#666666">[integer]</text>
<polygon fill="none" stroke="#000000" points="430,-622.5 430,-652.5 936,-652.5 936,-622.5 430,-622.5"/>
<text text-anchor="start" x="437" y="-633.9" font-family="Arial" font-size="14.00" fill="#000000">mail_message_subtype_id </text>
<text text-anchor="start" x="606.596" y="-633.9" font-family="Arial" font-size="14.00" fill="#666666">[integer]</text>
<polygon fill="none" stroke="#000000" stroke-width="3" points="428.5,-621.5 428.5,-719.5 937.5,-719.5 937.5,-621.5 428.5,-621.5"/>
</g>
<!-- public.mail_followers -->
<g id="node2" class="node">
<title>public.mail_followers</title>
<polygon fill="#efefef" stroke="transparent" points="335,-327.5 335,-362.5 612,-362.5 612,-327.5 335,-327.5"/>
<polygon fill="none" stroke="#000000" points="335,-327.5 335,-362.5 612,-362.5 612,-327.5 335,-327.5"/>
<text text-anchor="start" x="341.8742" y="-340.3" font-family="Arial Bold" font-size="18.00" fill="#000000">public.mail_followers</text>
<text text-anchor="start" x="507.872" y="-340.3" font-family="Arial" font-size="14.00" fill="#000000"> </text>
<text text-anchor="start" x="511.7626" y="-340.3" font-family="Arial" font-size="14.00" fill="#666666">[BASE TABLE]</text>
<polygon fill="none" stroke="#000000" points="335,-297.5 335,-327.5 612,-327.5 612,-297.5 335,-297.5"/>
<text text-anchor="start" x="342" y="-308.9" font-family="Arial" font-size="14.00" fill="#000000">id </text>
<text text-anchor="start" x="356.7798" y="-308.9" font-family="Arial" font-size="14.00" fill="#666666">[integer]</text>
<polygon fill="none" stroke="#000000" points="335,-267.5 335,-297.5 612,-297.5 612,-267.5 335,-267.5"/>
<text text-anchor="start" x="342" y="-278.9" font-family="Arial" font-size="14.00" fill="#000000">res_model </text>
<text text-anchor="start" x="411.2314" y="-278.9" font-family="Arial" font-size="14.00" fill="#666666">[varchar]</text>
<polygon fill="none" stroke="#000000" points="335,-237.5 335,-267.5 612,-267.5 612,-237.5 335,-237.5"/>
<text text-anchor="start" x="342" y="-248.9" font-family="Arial" font-size="14.00" fill="#000000">res_id </text>
<text text-anchor="start" x="384.0056" y="-248.9" font-family="Arial" font-size="14.00" fill="#666666">[integer]</text>
<polygon fill="none" stroke="#000000" points="335,-207.5 335,-237.5 612,-237.5 612,-207.5 335,-207.5"/>
<text text-anchor="start" x="342" y="-218.9" font-family="Arial" font-size="14.00" fill="#000000">partner_id </text>
<text text-anchor="start" x="408.9046" y="-218.9" font-family="Arial" font-size="14.00" fill="#666666">[integer]</text>
<polygon fill="none" stroke="#000000" points="335,-177.5 335,-207.5 612,-207.5 612,-177.5 335,-177.5"/>
<text text-anchor="start" x="342" y="-188.9" font-family="Arial" font-size="14.00" fill="#000000">channel_id </text>
<text text-anchor="start" x="413.582" y="-188.9" font-family="Arial" font-size="14.00" fill="#666666">[integer]</text>
</g>
<!-- public.mail_followers_mail_message_subtype_rel&#45;&gt;public.mail_followers -->
<g id="edge1" class="edge">
<title>public.mail_followers_mail_message_subtype_rel:mail_followers_id&#45;&gt;public.mail_followers:id</title>
<path fill="none" stroke="#000000" d="M419.993,-666.0324C394.4357,-657.1934 415.5902,-610.3111 430,-577 474.0664,-475.1316 567.9336,-507.8684 612,-406 628.4987,-367.86 653.5556,-312.5 612,-312.5"/>
<polygon fill="#000000" stroke="#000000" points="420.1058,-666.0488 429.347,-671.9524 425.0529,-666.7744 430,-667.5 430,-667.5 430,-667.5 425.0529,-666.7744 430.653,-663.0476 420.1058,-666.0488 420.1058,-666.0488"/>
<text text-anchor="start" x="6.6735" y="-677.5" font-family="Arial" font-size="10.00" fill="#000000">FOREIGN KEY (mail_followers_id) REFERENCES mail_followers(id) ON DELETE CASCADE</text>
</g>
<!-- public.mail_message_subtype -->
<g id="node3" class="node">
<title>public.mail_message_subtype</title>
<polygon fill="#efefef" stroke="transparent" points="716,-462.5 716,-497.5 1068,-497.5 1068,-462.5 716,-462.5"/>
<polygon fill="none" stroke="#000000" points="716,-462.5 716,-497.5 1068,-497.5 1068,-462.5 716,-462.5"/>
<text text-anchor="start" x="722.8469" y="-475.3" font-family="Arial Bold" font-size="18.00" fill="#000000">public.mail_message_subtype</text>
<text text-anchor="start" x="963.8993" y="-475.3" font-family="Arial" font-size="14.00" fill="#000000"> </text>
<text text-anchor="start" x="967.7899" y="-475.3" font-family="Arial" font-size="14.00" fill="#666666">[BASE TABLE]</text>
<polygon fill="none" stroke="#000000" points="716,-432.5 716,-462.5 1068,-462.5 1068,-432.5 716,-432.5"/>
<text text-anchor="start" x="723" y="-443.9" font-family="Arial" font-size="14.00" fill="#000000">id </text>
<text text-anchor="start" x="737.7798" y="-443.9" font-family="Arial" font-size="14.00" fill="#666666">[integer]</text>
<polygon fill="none" stroke="#000000" points="716,-402.5 716,-432.5 1068,-432.5 1068,-402.5 716,-402.5"/>
<text text-anchor="start" x="723" y="-413.9" font-family="Arial" font-size="14.00" fill="#000000">name </text>
<text text-anchor="start" x="761.899" y="-413.9" font-family="Arial" font-size="14.00" fill="#666666">[varchar]</text>
<polygon fill="none" stroke="#000000" points="716,-372.5 716,-402.5 1068,-402.5 1068,-372.5 716,-372.5"/>
<text text-anchor="start" x="723" y="-383.9" font-family="Arial" font-size="14.00" fill="#000000">description </text>
<text text-anchor="start" x="794.568" y="-383.9" font-family="Arial" font-size="14.00" fill="#666666">[text]</text>
<polygon fill="none" stroke="#000000" points="716,-342.5 716,-372.5 1068,-372.5 1068,-342.5 716,-342.5"/>
<text text-anchor="start" x="723" y="-353.9" font-family="Arial" font-size="14.00" fill="#000000">internal </text>
<text text-anchor="start" x="772.7854" y="-353.9" font-family="Arial" font-size="14.00" fill="#666666">[boolean]</text>
<polygon fill="none" stroke="#000000" points="716,-312.5 716,-342.5 1068,-342.5 1068,-312.5 716,-312.5"/>
<text text-anchor="start" x="723" y="-323.9" font-family="Arial" font-size="14.00" fill="#000000">parent_id </text>
<text text-anchor="start" x="785.244" y="-323.9" font-family="Arial" font-size="14.00" fill="#666666">[integer]</text>
<polygon fill="none" stroke="#000000" points="716,-282.5 716,-312.5 1068,-312.5 1068,-282.5 716,-282.5"/>
<text text-anchor="start" x="723" y="-293.9" font-family="Arial" font-size="14.00" fill="#000000">relation_field </text>
<text text-anchor="start" x="806.237" y="-293.9" font-family="Arial" font-size="14.00" fill="#666666">[varchar]</text>
<polygon fill="none" stroke="#000000" points="716,-252.5 716,-282.5 1068,-282.5 1068,-252.5 716,-252.5"/>
<text text-anchor="start" x="723" y="-263.9" font-family="Arial" font-size="14.00" fill="#000000">res_model </text>
<text text-anchor="start" x="792.2314" y="-263.9" font-family="Arial" font-size="14.00" fill="#666666">[varchar]</text>
<polygon fill="none" stroke="#000000" points="716,-222.5 716,-252.5 1068,-252.5 1068,-222.5 716,-222.5"/>
<text text-anchor="start" x="723" y="-233.9" font-family="Arial" font-size="14.00" fill="#000000">default </text>
<text text-anchor="start" x="768.9088" y="-233.9" font-family="Arial" font-size="14.00" fill="#666666">[boolean]</text>
<polygon fill="none" stroke="#000000" points="716,-192.5 716,-222.5 1068,-222.5 1068,-192.5 716,-192.5"/>
<text text-anchor="start" x="723" y="-203.9" font-family="Arial" font-size="14.00" fill="#000000">sequence </text>
<text text-anchor="start" x="787.5862" y="-203.9" font-family="Arial" font-size="14.00" fill="#666666">[integer]</text>
<polygon fill="none" stroke="#000000" points="716,-162.5 716,-192.5 1068,-192.5 1068,-162.5 716,-162.5"/>
<text text-anchor="start" x="723" y="-173.9" font-family="Arial" font-size="14.00" fill="#000000">hidden </text>
<text text-anchor="start" x="768.9102" y="-173.9" font-family="Arial" font-size="14.00" fill="#666666">[boolean]</text>
<polygon fill="none" stroke="#000000" points="716,-132.5 716,-162.5 1068,-162.5 1068,-132.5 716,-132.5"/>
<text text-anchor="start" x="723" y="-143.9" font-family="Arial" font-size="14.00" fill="#000000">create_uid </text>
<text text-anchor="start" x="792.244" y="-143.9" font-family="Arial" font-size="14.00" fill="#666666">[integer]</text>
<polygon fill="none" stroke="#000000" points="716,-102.5 716,-132.5 1068,-132.5 1068,-102.5 716,-102.5"/>
<text text-anchor="start" x="723" y="-113.9" font-family="Arial" font-size="14.00" fill="#000000">create_date </text>
<text text-anchor="start" x="800.8106" y="-113.9" font-family="Arial" font-size="14.00" fill="#666666">[timestamp without time zone]</text>
<polygon fill="none" stroke="#000000" points="716,-72.5 716,-102.5 1068,-102.5 1068,-72.5 716,-72.5"/>
<text text-anchor="start" x="723" y="-83.9" font-family="Arial" font-size="14.00" fill="#000000">write_uid </text>
<text text-anchor="start" x="782.892" y="-83.9" font-family="Arial" font-size="14.00" fill="#666666">[integer]</text>
<polygon fill="none" stroke="#000000" points="716,-42.5 716,-72.5 1068,-72.5 1068,-42.5 716,-42.5"/>
<text text-anchor="start" x="723" y="-53.9" font-family="Arial" font-size="14.00" fill="#000000">write_date </text>
<text text-anchor="start" x="791.4586" y="-53.9" font-family="Arial" font-size="14.00" fill="#666666">[timestamp without time zone]</text>
</g>
<!-- public.mail_followers_mail_message_subtype_rel&#45;&gt;public.mail_message_subtype -->
<g id="edge2" class="edge">
<title>public.mail_followers_mail_message_subtype_rel:mail_message_subtype_id&#45;&gt;public.mail_message_subtype:id</title>
<path fill="none" stroke="#000000" d="M946.049,-634.7967C959.7332,-625.4737 950.6901,-594.2894 936,-577 871.8469,-501.4959 780.1531,-616.5041 716,-541 689.0928,-509.3319 674.4444,-447.5 716,-447.5"/>
<polygon fill="#000000" stroke="#000000" points="945.6567,-634.9022 934.831,-633.1545 940.8284,-636.2011 936,-637.5 936,-637.5 936,-637.5 940.8284,-636.2011 937.169,-641.8455 945.6567,-634.9022 945.6567,-634.9022"/>
<text text-anchor="start" x="942.9765" y="-647.5" font-family="Arial" font-size="10.00" fill="#000000">FOREIGN KEY (mail_message_subtype_id) REFERENCES mail_message_subtype(id) ON DELETE CASCADE</text>
</g>
</g>
</svg>
