<?xml version="1.0" encoding="UTF-8" standalone="no"?>
<!DOCTYPE svg PUBLIC "-//W3C//DTD SVG 1.1//EN"
 "http://www.w3.org/Graphics/SVG/1.1/DTD/svg11.dtd">
<!-- Generated by graphviz version 2.40.1 (20161225.0304)
 -->
<!-- Title: public.account_analytic_tag_account_invoice_line_rel Pages: 1 -->
<svg width="1527pt" height="1102pt"
 viewBox="0.00 0.00 1527.00 1102.00" xmlns="http://www.w3.org/2000/svg" xmlns:xlink="http://www.w3.org/1999/xlink">
<g id="graph0" class="graph" transform="scale(1 1) rotate(0) translate(4 1098)">
<title>public.account_analytic_tag_account_invoice_line_rel</title>
<polygon fill="#ffffff" stroke="transparent" points="-4,4 -4,-1098 1523,-1098 1523,4 -4,4"/>
<!-- public.account_analytic_tag_account_invoice_line_rel -->
<g id="node1" class="node">
<title>public.account_analytic_tag_account_invoice_line_rel</title>
<polygon fill="#efefef" stroke="transparent" points="489,-1012.5 489,-1047.5 1028,-1047.5 1028,-1012.5 489,-1012.5"/>
<polygon fill="none" stroke="#000000" points="489,-1012.5 489,-1047.5 1028,-1047.5 1028,-1012.5 489,-1012.5"/>
<text text-anchor="start" x="495.8108" y="-1025.3" font-family="Arial Bold" font-size="18.00" fill="#000000">public.account_analytic_tag_account_invoice_line_rel</text>
<text text-anchor="start" x="923.9354" y="-1025.3" font-family="Arial" font-size="14.00" fill="#000000"> </text>
<text text-anchor="start" x="927.826" y="-1025.3" font-family="Arial" font-size="14.00" fill="#666666">[BASE TABLE]</text>
<polygon fill="none" stroke="#000000" points="489,-982.5 489,-1012.5 1028,-1012.5 1028,-982.5 489,-982.5"/>
<text text-anchor="start" x="496" y="-993.9" font-family="Arial" font-size="14.00" fill="#000000">account_invoice_line_id </text>
<text text-anchor="start" x="648.488" y="-993.9" font-family="Arial" font-size="14.00" fill="#666666">[integer]</text>
<polygon fill="none" stroke="#000000" points="489,-952.5 489,-982.5 1028,-982.5 1028,-952.5 489,-952.5"/>
<text text-anchor="start" x="496" y="-963.9" font-family="Arial" font-size="14.00" fill="#000000">account_analytic_tag_id </text>
<text text-anchor="start" x="650.056" y="-963.9" font-family="Arial" font-size="14.00" fill="#666666">[integer]</text>
<polygon fill="none" stroke="#000000" stroke-width="3" points="487,-951.5 487,-1049.5 1029,-1049.5 1029,-951.5 487,-951.5"/>
</g>
<!-- public.account_invoice_line -->
<g id="node2" class="node">
<title>public.account_invoice_line</title>
<polygon fill="#efefef" stroke="transparent" points="377,-792.5 377,-827.5 707,-827.5 707,-792.5 377,-792.5"/>
<polygon fill="none" stroke="#000000" points="377,-792.5 377,-827.5 707,-827.5 707,-792.5 377,-792.5"/>
<text text-anchor="start" x="383.8449" y="-805.3" font-family="Arial Bold" font-size="18.00" fill="#000000">public.account_invoice_line</text>
<text text-anchor="start" x="602.9013" y="-805.3" font-family="Arial" font-size="14.00" fill="#000000"> </text>
<text text-anchor="start" x="606.7919" y="-805.3" font-family="Arial" font-size="14.00" fill="#666666">[BASE TABLE]</text>
<polygon fill="none" stroke="#000000" points="377,-762.5 377,-792.5 707,-792.5 707,-762.5 377,-762.5"/>
<text text-anchor="start" x="384" y="-773.9" font-family="Arial" font-size="14.00" fill="#000000">id </text>
<text text-anchor="start" x="398.7798" y="-773.9" font-family="Arial" font-size="14.00" fill="#666666">[integer]</text>
<polygon fill="none" stroke="#000000" points="377,-732.5 377,-762.5 707,-762.5 707,-732.5 377,-732.5"/>
<text text-anchor="start" x="384" y="-743.9" font-family="Arial" font-size="14.00" fill="#000000">name </text>
<text text-anchor="start" x="422.899" y="-743.9" font-family="Arial" font-size="14.00" fill="#666666">[text]</text>
<polygon fill="none" stroke="#000000" points="377,-702.5 377,-732.5 707,-732.5 707,-702.5 377,-702.5"/>
<text text-anchor="start" x="384" y="-713.9" font-family="Arial" font-size="14.00" fill="#000000">origin </text>
<text text-anchor="start" x="422.1122" y="-713.9" font-family="Arial" font-size="14.00" fill="#666666">[varchar]</text>
<polygon fill="none" stroke="#000000" points="377,-672.5 377,-702.5 707,-702.5 707,-672.5 377,-672.5"/>
<text text-anchor="start" x="384" y="-683.9" font-family="Arial" font-size="14.00" fill="#000000">sequence </text>
<text text-anchor="start" x="448.5862" y="-683.9" font-family="Arial" font-size="14.00" fill="#666666">[integer]</text>
<polygon fill="none" stroke="#000000" points="377,-642.5 377,-672.5 707,-672.5 707,-642.5 377,-642.5"/>
<text text-anchor="start" x="384" y="-653.9" font-family="Arial" font-size="14.00" fill="#000000">invoice_id </text>
<text text-anchor="start" x="450.1234" y="-653.9" font-family="Arial" font-size="14.00" fill="#666666">[integer]</text>
<polygon fill="none" stroke="#000000" points="377,-612.5 377,-642.5 707,-642.5 707,-612.5 377,-612.5"/>
<text text-anchor="start" x="384" y="-623.9" font-family="Arial" font-size="14.00" fill="#000000">uom_id </text>
<text text-anchor="start" x="433.7882" y="-623.9" font-family="Arial" font-size="14.00" fill="#666666">[integer]</text>
<polygon fill="none" stroke="#000000" points="377,-582.5 377,-612.5 707,-612.5 707,-582.5 377,-582.5"/>
<text text-anchor="start" x="384" y="-593.9" font-family="Arial" font-size="14.00" fill="#000000">product_id </text>
<text text-anchor="start" x="453.244" y="-593.9" font-family="Arial" font-size="14.00" fill="#666666">[integer]</text>
<polygon fill="none" stroke="#000000" points="377,-552.5 377,-582.5 707,-582.5 707,-552.5 377,-552.5"/>
<text text-anchor="start" x="384" y="-563.9" font-family="Arial" font-size="14.00" fill="#000000">account_id </text>
<text text-anchor="start" x="455.5834" y="-563.9" font-family="Arial" font-size="14.00" fill="#666666">[integer]</text>
<polygon fill="none" stroke="#000000" points="377,-522.5 377,-552.5 707,-552.5 707,-522.5 377,-522.5"/>
<text text-anchor="start" x="384" y="-533.9" font-family="Arial" font-size="14.00" fill="#000000">price_unit </text>
<text text-anchor="start" x="448.568" y="-533.9" font-family="Arial" font-size="14.00" fill="#666666">[numeric]</text>
<polygon fill="none" stroke="#000000" points="377,-492.5 377,-522.5 707,-522.5 707,-492.5 377,-492.5"/>
<text text-anchor="start" x="384" y="-503.9" font-family="Arial" font-size="14.00" fill="#000000">price_subtotal </text>
<text text-anchor="start" x="475.0238" y="-503.9" font-family="Arial" font-size="14.00" fill="#666666">[numeric]</text>
<polygon fill="none" stroke="#000000" points="377,-462.5 377,-492.5 707,-492.5 707,-462.5 377,-462.5"/>
<text text-anchor="start" x="384" y="-473.9" font-family="Arial" font-size="14.00" fill="#000000">price_total </text>
<text text-anchor="start" x="452.4586" y="-473.9" font-family="Arial" font-size="14.00" fill="#666666">[numeric]</text>
<polygon fill="none" stroke="#000000" points="377,-432.5 377,-462.5 707,-462.5 707,-432.5 377,-432.5"/>
<text text-anchor="start" x="384" y="-443.9" font-family="Arial" font-size="14.00" fill="#000000">price_subtotal_signed </text>
<text text-anchor="start" x="524.0434" y="-443.9" font-family="Arial" font-size="14.00" fill="#666666">[numeric]</text>
<polygon fill="none" stroke="#000000" points="377,-402.5 377,-432.5 707,-432.5 707,-402.5 377,-402.5"/>
<text text-anchor="start" x="384" y="-413.9" font-family="Arial" font-size="14.00" fill="#000000">quantity </text>
<text text-anchor="start" x="436.9088" y="-413.9" font-family="Arial" font-size="14.00" fill="#666666">[numeric]</text>
<polygon fill="none" stroke="#000000" points="377,-372.5 377,-402.5 707,-402.5 707,-372.5 377,-372.5"/>
<text text-anchor="start" x="384" y="-383.9" font-family="Arial" font-size="14.00" fill="#000000">discount </text>
<text text-anchor="start" x="440.0182" y="-383.9" font-family="Arial" font-size="14.00" fill="#666666">[numeric]</text>
<polygon fill="none" stroke="#000000" points="377,-342.5 377,-372.5 707,-372.5 707,-342.5 377,-342.5"/>
<text text-anchor="start" x="384" y="-353.9" font-family="Arial" font-size="14.00" fill="#000000">account_analytic_id </text>
<text text-anchor="start" x="510.8176" y="-353.9" font-family="Arial" font-size="14.00" fill="#666666">[integer]</text>
<polygon fill="none" stroke="#000000" points="377,-312.5 377,-342.5 707,-342.5 707,-312.5 377,-312.5"/>
<text text-anchor="start" x="384" y="-323.9" font-family="Arial" font-size="14.00" fill="#000000">company_id </text>
<text text-anchor="start" x="463.3534" y="-323.9" font-family="Arial" font-size="14.00" fill="#666666">[integer]</text>
<polygon fill="none" stroke="#000000" points="377,-282.5 377,-312.5 707,-312.5 707,-282.5 377,-282.5"/>
<text text-anchor="start" x="384" y="-293.9" font-family="Arial" font-size="14.00" fill="#000000">partner_id </text>
<text text-anchor="start" x="450.9046" y="-293.9" font-family="Arial" font-size="14.00" fill="#666666">[integer]</text>
<polygon fill="none" stroke="#000000" points="377,-252.5 377,-282.5 707,-282.5 707,-252.5 377,-252.5"/>
<text text-anchor="start" x="384" y="-263.9" font-family="Arial" font-size="14.00" fill="#000000">currency_id </text>
<text text-anchor="start" x="460.2314" y="-263.9" font-family="Arial" font-size="14.00" fill="#666666">[integer]</text>
<polygon fill="none" stroke="#000000" points="377,-222.5 377,-252.5 707,-252.5 707,-222.5 377,-222.5"/>
<text text-anchor="start" x="384" y="-233.9" font-family="Arial" font-size="14.00" fill="#000000">is_rounding_line </text>
<text text-anchor="start" x="489.8036" y="-233.9" font-family="Arial" font-size="14.00" fill="#666666">[boolean]</text>
<polygon fill="none" stroke="#000000" points="377,-192.5 377,-222.5 707,-222.5 707,-192.5 377,-192.5"/>
<text text-anchor="start" x="384" y="-203.9" font-family="Arial" font-size="14.00" fill="#000000">display_type </text>
<text text-anchor="start" x="465.69" y="-203.9" font-family="Arial" font-size="14.00" fill="#666666">[varchar]</text>
<polygon fill="none" stroke="#000000" points="377,-162.5 377,-192.5 707,-192.5 707,-162.5 377,-162.5"/>
<text text-anchor="start" x="384" y="-173.9" font-family="Arial" font-size="14.00" fill="#000000">create_uid </text>
<text text-anchor="start" x="453.244" y="-173.9" font-family="Arial" font-size="14.00" fill="#666666">[integer]</text>
<polygon fill="none" stroke="#000000" points="377,-132.5 377,-162.5 707,-162.5 707,-132.5 377,-132.5"/>
<text text-anchor="start" x="384" y="-143.9" font-family="Arial" font-size="14.00" fill="#000000">create_date </text>
<text text-anchor="start" x="461.8106" y="-143.9" font-family="Arial" font-size="14.00" fill="#666666">[timestamp without time zone]</text>
<polygon fill="none" stroke="#000000" points="377,-102.5 377,-132.5 707,-132.5 707,-102.5 377,-102.5"/>
<text text-anchor="start" x="384" y="-113.9" font-family="Arial" font-size="14.00" fill="#000000">write_uid </text>
<text text-anchor="start" x="443.892" y="-113.9" font-family="Arial" font-size="14.00" fill="#666666">[integer]</text>
<polygon fill="none" stroke="#000000" points="377,-72.5 377,-102.5 707,-102.5 707,-72.5 377,-72.5"/>
<text text-anchor="start" x="384" y="-83.9" font-family="Arial" font-size="14.00" fill="#000000">write_date </text>
<text text-anchor="start" x="452.4586" y="-83.9" font-family="Arial" font-size="14.00" fill="#666666">[timestamp without time zone]</text>
<polygon fill="none" stroke="#000000" points="377,-42.5 377,-72.5 707,-72.5 707,-42.5 377,-42.5"/>
<text text-anchor="start" x="384" y="-53.9" font-family="Arial" font-size="14.00" fill="#000000">purchase_line_id </text>
<text text-anchor="start" x="493.697" y="-53.9" font-family="Arial" font-size="14.00" fill="#666666">[integer]</text>
</g>
<!-- public.account_analytic_tag_account_invoice_line_rel&#45;&gt;public.account_invoice_line -->
<g id="edge1" class="edge">
<title>public.account_analytic_tag_account_invoice_line_rel:account_invoice_line_id&#45;&gt;public.account_invoice_line:id</title>
<path fill="none" stroke="#000000" d="M479.0874,-995.9958C451.5443,-986.5383 465.418,-934.7956 489,-907 552.5305,-832.1178 643.4695,-945.8822 707,-871 733.8841,-839.3123 748.5556,-777.5 707,-777.5"/>
<polygon fill="#000000" stroke="#000000" points="479.1132,-995.9996 488.3248,-1001.9491 484.0566,-996.7498 489,-997.5 489,-997.5 489,-997.5 484.0566,-996.7498 489.6752,-993.0509 479.1132,-995.9996 479.1132,-995.9996"/>
<text text-anchor="start" x="7.1965" y="-1007.5" font-family="Arial" font-size="10.00" fill="#000000">FOREIGN KEY (account_invoice_line_id) REFERENCES account_invoice_line(id) ON DELETE CASCADE</text>
</g>
<!-- public.account_analytic_tag -->
<g id="node3" class="node">
<title>public.account_analytic_tag</title>
<polygon fill="#efefef" stroke="transparent" points="811,-567.5 811,-602.5 1143,-602.5 1143,-567.5 811,-567.5"/>
<polygon fill="none" stroke="#000000" points="811,-567.5 811,-602.5 1143,-602.5 1143,-567.5 811,-567.5"/>
<text text-anchor="start" x="817.8369" y="-580.3" font-family="Arial Bold" font-size="18.00" fill="#000000">public.account_analytic_tag</text>
<text text-anchor="start" x="1038.9093" y="-580.3" font-family="Arial" font-size="14.00" fill="#000000"> </text>
<text text-anchor="start" x="1042.7999" y="-580.3" font-family="Arial" font-size="14.00" fill="#666666">[BASE TABLE]</text>
<polygon fill="none" stroke="#000000" points="811,-537.5 811,-567.5 1143,-567.5 1143,-537.5 811,-537.5"/>
<text text-anchor="start" x="818" y="-548.9" font-family="Arial" font-size="14.00" fill="#000000">id </text>
<text text-anchor="start" x="832.7798" y="-548.9" font-family="Arial" font-size="14.00" fill="#666666">[integer]</text>
<polygon fill="none" stroke="#000000" points="811,-507.5 811,-537.5 1143,-537.5 1143,-507.5 811,-507.5"/>
<text text-anchor="start" x="818" y="-518.9" font-family="Arial" font-size="14.00" fill="#000000">name </text>
<text text-anchor="start" x="856.899" y="-518.9" font-family="Arial" font-size="14.00" fill="#666666">[varchar]</text>
<polygon fill="none" stroke="#000000" points="811,-477.5 811,-507.5 1143,-507.5 1143,-477.5 811,-477.5"/>
<text text-anchor="start" x="818" y="-488.9" font-family="Arial" font-size="14.00" fill="#000000">color </text>
<text text-anchor="start" x="852.223" y="-488.9" font-family="Arial" font-size="14.00" fill="#666666">[integer]</text>
<polygon fill="none" stroke="#000000" points="811,-447.5 811,-477.5 1143,-477.5 1143,-447.5 811,-447.5"/>
<text text-anchor="start" x="818" y="-458.9" font-family="Arial" font-size="14.00" fill="#000000">active </text>
<text text-anchor="start" x="858.453" y="-458.9" font-family="Arial" font-size="14.00" fill="#666666">[boolean]</text>
<polygon fill="none" stroke="#000000" points="811,-417.5 811,-447.5 1143,-447.5 1143,-417.5 811,-417.5"/>
<text text-anchor="start" x="818" y="-428.9" font-family="Arial" font-size="14.00" fill="#000000">active_analytic_distribution </text>
<text text-anchor="start" x="989.1444" y="-428.9" font-family="Arial" font-size="14.00" fill="#666666">[boolean]</text>
<polygon fill="none" stroke="#000000" points="811,-387.5 811,-417.5 1143,-417.5 1143,-387.5 811,-387.5"/>
<text text-anchor="start" x="818" y="-398.9" font-family="Arial" font-size="14.00" fill="#000000">company_id </text>
<text text-anchor="start" x="897.3534" y="-398.9" font-family="Arial" font-size="14.00" fill="#666666">[integer]</text>
<polygon fill="none" stroke="#000000" points="811,-357.5 811,-387.5 1143,-387.5 1143,-357.5 811,-357.5"/>
<text text-anchor="start" x="818" y="-368.9" font-family="Arial" font-size="14.00" fill="#000000">create_uid </text>
<text text-anchor="start" x="887.244" y="-368.9" font-family="Arial" font-size="14.00" fill="#666666">[integer]</text>
<polygon fill="none" stroke="#000000" points="811,-327.5 811,-357.5 1143,-357.5 1143,-327.5 811,-327.5"/>
<text text-anchor="start" x="818" y="-338.9" font-family="Arial" font-size="14.00" fill="#000000">create_date </text>
<text text-anchor="start" x="895.8106" y="-338.9" font-family="Arial" font-size="14.00" fill="#666666">[timestamp without time zone]</text>
<polygon fill="none" stroke="#000000" points="811,-297.5 811,-327.5 1143,-327.5 1143,-297.5 811,-297.5"/>
<text text-anchor="start" x="818" y="-308.9" font-family="Arial" font-size="14.00" fill="#000000">write_uid </text>
<text text-anchor="start" x="877.892" y="-308.9" font-family="Arial" font-size="14.00" fill="#666666">[integer]</text>
<polygon fill="none" stroke="#000000" points="811,-267.5 811,-297.5 1143,-297.5 1143,-267.5 811,-267.5"/>
<text text-anchor="start" x="818" y="-278.9" font-family="Arial" font-size="14.00" fill="#000000">write_date </text>
<text text-anchor="start" x="886.4586" y="-278.9" font-family="Arial" font-size="14.00" fill="#666666">[timestamp without time zone]</text>
</g>
<!-- public.account_analytic_tag_account_invoice_line_rel&#45;&gt;public.account_analytic_tag -->
<g id="edge2" class="edge">
<title>public.account_analytic_tag_account_invoice_line_rel:account_analytic_tag_id&#45;&gt;public.account_analytic_tag:id</title>
<path fill="none" stroke="#000000" d="M1038.2052,-967.1198C1214.1341,-953.0384 606.521,-552.5 811,-552.5"/>
<polygon fill="#000000" stroke="#000000" points="1037.9931,-967.1276 1027.8324,-963.0031 1032.9965,-967.3138 1028,-967.5 1028,-967.5 1028,-967.5 1032.9965,-967.3138 1028.1676,-971.9969 1037.9931,-967.1276 1037.9931,-967.1276"/>
<text text-anchor="start" x="1035.0765" y="-977.5" font-family="Arial" font-size="10.00" fill="#000000">FOREIGN KEY (account_analytic_tag_id) REFERENCES account_analytic_tag(id) ON DELETE CASCADE</text>
</g>
</g>
</svg>
