<?xml version="1.0" encoding="UTF-8" standalone="no"?>
<!DOCTYPE svg PUBLIC "-//W3C//DTD SVG 1.1//EN"
 "http://www.w3.org/Graphics/SVG/1.1/DTD/svg11.dtd">
<!-- Generated by graphviz version 2.40.1 (20161225.0304)
 -->
<!-- Title: public.purchase_report Pages: 1 -->
<svg width="370pt" height="975pt"
 viewBox="0.00 0.00 370.00 975.00" xmlns="http://www.w3.org/2000/svg" xmlns:xlink="http://www.w3.org/1999/xlink">
<g id="graph0" class="graph" transform="scale(1 1) rotate(0) translate(4 971)">
<title>public.purchase_report</title>
<polygon fill="#ffffff" stroke="transparent" points="-4,4 -4,-971 366,-971 366,4 -4,4"/>
<!-- public.purchase_report -->
<g id="node1" class="node">
<title>public.purchase_report</title>
<polygon fill="#efefef" stroke="transparent" points="46,-885.5 46,-920.5 316,-920.5 316,-885.5 46,-885.5"/>
<polygon fill="none" stroke="#000000" points="46,-885.5 46,-920.5 316,-920.5 316,-885.5 46,-885.5"/>
<text text-anchor="start" x="65.753" y="-898.3" font-family="Arial Bold" font-size="18.00" fill="#000000">public.purchase_report</text>
<text text-anchor="start" x="248.7968" y="-898.3" font-family="Arial" font-size="14.00" fill="#000000"> </text>
<text text-anchor="start" x="252.6874" y="-898.3" font-family="Arial" font-size="14.00" fill="#666666">[VIEW]</text>
<polygon fill="none" stroke="#000000" points="46,-855.5 46,-885.5 316,-885.5 316,-855.5 46,-855.5"/>
<text text-anchor="start" x="53" y="-866.9" font-family="Arial" font-size="14.00" fill="#000000">id </text>
<text text-anchor="start" x="67.7798" y="-866.9" font-family="Arial" font-size="14.00" fill="#666666">[integer]</text>
<polygon fill="none" stroke="#000000" points="46,-825.5 46,-855.5 316,-855.5 316,-825.5 46,-825.5"/>
<text text-anchor="start" x="52.6396" y="-836.9" font-family="Arial" font-size="14.00" fill="#000000">date_order </text>
<text text-anchor="start" x="124.2202" y="-836.9" font-family="Arial" font-size="14.00" fill="#666666">[timestamp without time zone]</text>
<polygon fill="none" stroke="#000000" points="46,-795.5 46,-825.5 316,-825.5 316,-795.5 46,-795.5"/>
<text text-anchor="start" x="53" y="-806.9" font-family="Arial" font-size="14.00" fill="#000000">state </text>
<text text-anchor="start" x="87.237" y="-806.9" font-family="Arial" font-size="14.00" fill="#666666">[varchar]</text>
<polygon fill="none" stroke="#000000" points="46,-765.5 46,-795.5 316,-795.5 316,-765.5 46,-765.5"/>
<text text-anchor="start" x="53" y="-776.9" font-family="Arial" font-size="14.00" fill="#000000">date_approve </text>
<text text-anchor="start" x="142.4852" y="-776.9" font-family="Arial" font-size="14.00" fill="#666666">[date]</text>
<polygon fill="none" stroke="#000000" points="46,-735.5 46,-765.5 316,-765.5 316,-735.5 46,-735.5"/>
<text text-anchor="start" x="53" y="-746.9" font-family="Arial" font-size="14.00" fill="#000000">dest_address_id </text>
<text text-anchor="start" x="159.5918" y="-746.9" font-family="Arial" font-size="14.00" fill="#666666">[integer]</text>
<polygon fill="none" stroke="#000000" points="46,-705.5 46,-735.5 316,-735.5 316,-705.5 46,-705.5"/>
<text text-anchor="start" x="53" y="-716.9" font-family="Arial" font-size="14.00" fill="#000000">partner_id </text>
<text text-anchor="start" x="119.9046" y="-716.9" font-family="Arial" font-size="14.00" fill="#666666">[integer]</text>
<polygon fill="none" stroke="#000000" points="46,-675.5 46,-705.5 316,-705.5 316,-675.5 46,-675.5"/>
<text text-anchor="start" x="53" y="-686.9" font-family="Arial" font-size="14.00" fill="#000000">user_id </text>
<text text-anchor="start" x="102.7882" y="-686.9" font-family="Arial" font-size="14.00" fill="#666666">[integer]</text>
<polygon fill="none" stroke="#000000" points="46,-645.5 46,-675.5 316,-675.5 316,-645.5 46,-645.5"/>
<text text-anchor="start" x="53" y="-656.9" font-family="Arial" font-size="14.00" fill="#000000">company_id </text>
<text text-anchor="start" x="132.3534" y="-656.9" font-family="Arial" font-size="14.00" fill="#666666">[integer]</text>
<polygon fill="none" stroke="#000000" points="46,-615.5 46,-645.5 316,-645.5 316,-615.5 46,-615.5"/>
<text text-anchor="start" x="53" y="-626.9" font-family="Arial" font-size="14.00" fill="#000000">fiscal_position_id </text>
<text text-anchor="start" x="163.4656" y="-626.9" font-family="Arial" font-size="14.00" fill="#666666">[integer]</text>
<polygon fill="none" stroke="#000000" points="46,-585.5 46,-615.5 316,-615.5 316,-585.5 46,-585.5"/>
<text text-anchor="start" x="53" y="-596.9" font-family="Arial" font-size="14.00" fill="#000000">product_id </text>
<text text-anchor="start" x="122.244" y="-596.9" font-family="Arial" font-size="14.00" fill="#666666">[integer]</text>
<polygon fill="none" stroke="#000000" points="46,-555.5 46,-585.5 316,-585.5 316,-555.5 46,-555.5"/>
<text text-anchor="start" x="53" y="-566.9" font-family="Arial" font-size="14.00" fill="#000000">product_tmpl_id </text>
<text text-anchor="start" x="156.467" y="-566.9" font-family="Arial" font-size="14.00" fill="#666666">[integer]</text>
<polygon fill="none" stroke="#000000" points="46,-525.5 46,-555.5 316,-555.5 316,-525.5 46,-525.5"/>
<text text-anchor="start" x="53" y="-536.9" font-family="Arial" font-size="14.00" fill="#000000">category_id </text>
<text text-anchor="start" x="129.244" y="-536.9" font-family="Arial" font-size="14.00" fill="#666666">[integer]</text>
<polygon fill="none" stroke="#000000" points="46,-495.5 46,-525.5 316,-525.5 316,-495.5 46,-495.5"/>
<text text-anchor="start" x="53" y="-506.9" font-family="Arial" font-size="14.00" fill="#000000">currency_id </text>
<text text-anchor="start" x="129.2314" y="-506.9" font-family="Arial" font-size="14.00" fill="#666666">[integer]</text>
<polygon fill="none" stroke="#000000" points="46,-465.5 46,-495.5 316,-495.5 316,-465.5 46,-465.5"/>
<text text-anchor="start" x="53" y="-476.9" font-family="Arial" font-size="14.00" fill="#000000">product_uom </text>
<text text-anchor="start" x="138.5806" y="-476.9" font-family="Arial" font-size="14.00" fill="#666666">[integer]</text>
<polygon fill="none" stroke="#000000" points="46,-435.5 46,-465.5 316,-465.5 316,-435.5 46,-435.5"/>
<text text-anchor="start" x="53" y="-446.9" font-family="Arial" font-size="14.00" fill="#000000">unit_quantity </text>
<text text-anchor="start" x="136.2538" y="-446.9" font-family="Arial" font-size="14.00" fill="#666666">[numeric]</text>
<polygon fill="none" stroke="#000000" points="46,-405.5 46,-435.5 316,-435.5 316,-405.5 46,-405.5"/>
<text text-anchor="start" x="53" y="-416.9" font-family="Arial" font-size="14.00" fill="#000000">delay </text>
<text text-anchor="start" x="90.345" y="-416.9" font-family="Arial" font-size="14.00" fill="#666666">[double precision]</text>
<polygon fill="none" stroke="#000000" points="46,-375.5 46,-405.5 316,-405.5 316,-375.5 46,-375.5"/>
<text text-anchor="start" x="53" y="-386.9" font-family="Arial" font-size="14.00" fill="#000000">delay_pass </text>
<text text-anchor="start" x="127.6928" y="-386.9" font-family="Arial" font-size="14.00" fill="#666666">[double precision]</text>
<polygon fill="none" stroke="#000000" points="46,-345.5 46,-375.5 316,-375.5 316,-345.5 46,-345.5"/>
<text text-anchor="start" x="53" y="-356.9" font-family="Arial" font-size="14.00" fill="#000000">nbr_lines </text>
<text text-anchor="start" x="113.6774" y="-356.9" font-family="Arial" font-size="14.00" fill="#666666">[bigint]</text>
<polygon fill="none" stroke="#000000" points="46,-315.5 46,-345.5 316,-345.5 316,-315.5 46,-315.5"/>
<text text-anchor="start" x="53" y="-326.9" font-family="Arial" font-size="14.00" fill="#000000">price_total </text>
<text text-anchor="start" x="121.4586" y="-326.9" font-family="Arial" font-size="14.00" fill="#666666">[numeric(16,2)]</text>
<polygon fill="none" stroke="#000000" points="46,-285.5 46,-315.5 316,-315.5 316,-285.5 46,-285.5"/>
<text text-anchor="start" x="53" y="-296.9" font-family="Arial" font-size="14.00" fill="#000000">negociation </text>
<text text-anchor="start" x="128.4726" y="-296.9" font-family="Arial" font-size="14.00" fill="#666666">[numeric(16,2)]</text>
<polygon fill="none" stroke="#000000" points="46,-255.5 46,-285.5 316,-285.5 316,-255.5 46,-255.5"/>
<text text-anchor="start" x="53" y="-266.9" font-family="Arial" font-size="14.00" fill="#000000">price_standard </text>
<text text-anchor="start" x="149.4698" y="-266.9" font-family="Arial" font-size="14.00" fill="#666666">[numeric(16,2)]</text>
<polygon fill="none" stroke="#000000" points="46,-225.5 46,-255.5 316,-255.5 316,-225.5 46,-225.5"/>
<text text-anchor="start" x="53" y="-236.9" font-family="Arial" font-size="14.00" fill="#000000">price_average </text>
<text text-anchor="start" x="145.5792" y="-236.9" font-family="Arial" font-size="14.00" fill="#666666">[numeric(16,2)]</text>
<polygon fill="none" stroke="#000000" points="46,-195.5 46,-225.5 316,-225.5 316,-195.5 46,-195.5"/>
<text text-anchor="start" x="53" y="-206.9" font-family="Arial" font-size="14.00" fill="#000000">country_id </text>
<text text-anchor="start" x="121.4614" y="-206.9" font-family="Arial" font-size="14.00" fill="#666666">[integer]</text>
<polygon fill="none" stroke="#000000" points="46,-165.5 46,-195.5 316,-195.5 316,-165.5 46,-165.5"/>
<text text-anchor="start" x="53" y="-176.9" font-family="Arial" font-size="14.00" fill="#000000">commercial_partner_id </text>
<text text-anchor="start" x="199.23" y="-176.9" font-family="Arial" font-size="14.00" fill="#666666">[integer]</text>
<polygon fill="none" stroke="#000000" points="46,-135.5 46,-165.5 316,-165.5 316,-135.5 46,-135.5"/>
<text text-anchor="start" x="53" y="-146.9" font-family="Arial" font-size="14.00" fill="#000000">account_analytic_id </text>
<text text-anchor="start" x="179.8176" y="-146.9" font-family="Arial" font-size="14.00" fill="#666666">[integer]</text>
<polygon fill="none" stroke="#000000" points="46,-105.5 46,-135.5 316,-135.5 316,-105.5 46,-105.5"/>
<text text-anchor="start" x="53" y="-116.9" font-family="Arial" font-size="14.00" fill="#000000">weight </text>
<text text-anchor="start" x="97.3422" y="-116.9" font-family="Arial" font-size="14.00" fill="#666666">[numeric]</text>
<polygon fill="none" stroke="#000000" points="46,-75.5 46,-105.5 316,-105.5 316,-75.5 46,-75.5"/>
<text text-anchor="start" x="53" y="-86.9" font-family="Arial" font-size="14.00" fill="#000000">volume </text>
<text text-anchor="start" x="102.0056" y="-86.9" font-family="Arial" font-size="14.00" fill="#666666">[double precision]</text>
<polygon fill="none" stroke="#000000" points="46,-45.5 46,-75.5 316,-75.5 316,-45.5 46,-45.5"/>
<text text-anchor="start" x="53" y="-56.9" font-family="Arial" font-size="14.00" fill="#000000">picking_type_id </text>
<text text-anchor="start" x="153.3618" y="-56.9" font-family="Arial" font-size="14.00" fill="#666666">[integer]</text>
<polygon fill="none" stroke="#000000" stroke-width="3" points="44.5,-44.5 44.5,-922.5 317.5,-922.5 317.5,-44.5 44.5,-44.5"/>
</g>
</g>
</svg>
