<?xml version="1.0" encoding="UTF-8" standalone="no"?>
<!DOCTYPE svg PUBLIC "-//W3C//DTD SVG 1.1//EN"
 "http://www.w3.org/Graphics/SVG/1.1/DTD/svg11.dtd">
<!-- Generated by graphviz version 2.40.1 (20161225.0304)
 -->
<!-- Title: public.account_account_template_tax_rel Pages: 1 -->
<svg width="1323pt" height="1012pt"
 viewBox="0.00 0.00 1323.00 1012.00" xmlns="http://www.w3.org/2000/svg" xmlns:xlink="http://www.w3.org/1999/xlink">
<g id="graph0" class="graph" transform="scale(1 1) rotate(0) translate(4 1008)">
<title>public.account_account_template_tax_rel</title>
<polygon fill="#ffffff" stroke="transparent" points="-4,4 -4,-1008 1319,-1008 1319,4 -4,4"/>
<!-- public.account_account_template_tax_rel -->
<g id="node1" class="node">
<title>public.account_account_template_tax_rel</title>
<polygon fill="#efefef" stroke="transparent" points="458,-922.5 458,-957.5 900,-957.5 900,-922.5 458,-922.5"/>
<polygon fill="none" stroke="#000000" points="458,-922.5 458,-957.5 900,-957.5 900,-922.5 458,-922.5"/>
<text text-anchor="start" x="464.8208" y="-935.3" font-family="Arial Bold" font-size="18.00" fill="#000000">public.account_account_template_tax_rel</text>
<text text-anchor="start" x="795.9254" y="-935.3" font-family="Arial" font-size="14.00" fill="#000000"> </text>
<text text-anchor="start" x="799.816" y="-935.3" font-family="Arial" font-size="14.00" fill="#666666">[BASE TABLE]</text>
<polygon fill="none" stroke="#000000" points="458,-892.5 458,-922.5 900,-922.5 900,-892.5 458,-892.5"/>
<text text-anchor="start" x="465" y="-903.9" font-family="Arial" font-size="14.00" fill="#000000">account_id </text>
<text text-anchor="start" x="536.5834" y="-903.9" font-family="Arial" font-size="14.00" fill="#666666">[integer]</text>
<polygon fill="none" stroke="#000000" points="458,-862.5 458,-892.5 900,-892.5 900,-862.5 458,-862.5"/>
<text text-anchor="start" x="465" y="-873.9" font-family="Arial" font-size="14.00" fill="#000000">tax_id </text>
<text text-anchor="start" x="506.2356" y="-873.9" font-family="Arial" font-size="14.00" fill="#666666">[integer]</text>
<polygon fill="none" stroke="#000000" stroke-width="3" points="456.5,-861.5 456.5,-959.5 901.5,-959.5 901.5,-861.5 456.5,-861.5"/>
</g>
<!-- public.account_account_template -->
<g id="node2" class="node">
<title>public.account_account_template</title>
<polygon fill="#efefef" stroke="transparent" points="258,-582.5 258,-617.5 636,-617.5 636,-582.5 258,-582.5"/>
<polygon fill="none" stroke="#000000" points="258,-582.5 258,-617.5 636,-617.5 636,-582.5 258,-582.5"/>
<text text-anchor="start" x="264.8275" y="-595.3" font-family="Arial Bold" font-size="18.00" fill="#000000">public.account_account_template</text>
<text text-anchor="start" x="531.9187" y="-595.3" font-family="Arial" font-size="14.00" fill="#000000"> </text>
<text text-anchor="start" x="535.8093" y="-595.3" font-family="Arial" font-size="14.00" fill="#666666">[BASE TABLE]</text>
<polygon fill="none" stroke="#000000" points="258,-552.5 258,-582.5 636,-582.5 636,-552.5 258,-552.5"/>
<text text-anchor="start" x="265" y="-563.9" font-family="Arial" font-size="14.00" fill="#000000">id </text>
<text text-anchor="start" x="279.7798" y="-563.9" font-family="Arial" font-size="14.00" fill="#666666">[integer]</text>
<polygon fill="none" stroke="#000000" points="258,-522.5 258,-552.5 636,-552.5 636,-522.5 258,-522.5"/>
<text text-anchor="start" x="265" y="-533.9" font-family="Arial" font-size="14.00" fill="#000000">name </text>
<text text-anchor="start" x="303.899" y="-533.9" font-family="Arial" font-size="14.00" fill="#666666">[varchar]</text>
<polygon fill="none" stroke="#000000" points="258,-492.5 258,-522.5 636,-522.5 636,-492.5 258,-492.5"/>
<text text-anchor="start" x="265" y="-503.9" font-family="Arial" font-size="14.00" fill="#000000">currency_id </text>
<text text-anchor="start" x="341.2314" y="-503.9" font-family="Arial" font-size="14.00" fill="#666666">[integer]</text>
<polygon fill="none" stroke="#000000" points="258,-462.5 258,-492.5 636,-492.5 636,-462.5 258,-462.5"/>
<text text-anchor="start" x="265" y="-473.9" font-family="Arial" font-size="14.00" fill="#000000">code </text>
<text text-anchor="start" x="299.2384" y="-473.9" font-family="Arial" font-size="14.00" fill="#666666">[varchar(64)]</text>
<polygon fill="none" stroke="#000000" points="258,-432.5 258,-462.5 636,-462.5 636,-432.5 258,-432.5"/>
<text text-anchor="start" x="265" y="-443.9" font-family="Arial" font-size="14.00" fill="#000000">user_type_id </text>
<text text-anchor="start" x="349.0266" y="-443.9" font-family="Arial" font-size="14.00" fill="#666666">[integer]</text>
<polygon fill="none" stroke="#000000" points="258,-402.5 258,-432.5 636,-432.5 636,-402.5 258,-402.5"/>
<text text-anchor="start" x="265" y="-413.9" font-family="Arial" font-size="14.00" fill="#000000">reconcile </text>
<text text-anchor="start" x="324.8948" y="-413.9" font-family="Arial" font-size="14.00" fill="#666666">[boolean]</text>
<polygon fill="none" stroke="#000000" points="258,-372.5 258,-402.5 636,-402.5 636,-372.5 258,-372.5"/>
<text text-anchor="start" x="265" y="-383.9" font-family="Arial" font-size="14.00" fill="#000000">note </text>
<text text-anchor="start" x="296.129" y="-383.9" font-family="Arial" font-size="14.00" fill="#666666">[text]</text>
<polygon fill="none" stroke="#000000" points="258,-342.5 258,-372.5 636,-372.5 636,-342.5 258,-342.5"/>
<text text-anchor="start" x="265" y="-353.9" font-family="Arial" font-size="14.00" fill="#000000">nocreate </text>
<text text-anchor="start" x="323.3548" y="-353.9" font-family="Arial" font-size="14.00" fill="#666666">[boolean]</text>
<polygon fill="none" stroke="#000000" points="258,-312.5 258,-342.5 636,-342.5 636,-312.5 258,-312.5"/>
<text text-anchor="start" x="265" y="-323.9" font-family="Arial" font-size="14.00" fill="#000000">chart_template_id </text>
<text text-anchor="start" x="380.1402" y="-323.9" font-family="Arial" font-size="14.00" fill="#666666">[integer]</text>
<polygon fill="none" stroke="#000000" points="258,-282.5 258,-312.5 636,-312.5 636,-282.5 258,-282.5"/>
<text text-anchor="start" x="265" y="-293.9" font-family="Arial" font-size="14.00" fill="#000000">group_id </text>
<text text-anchor="start" x="323.3534" y="-293.9" font-family="Arial" font-size="14.00" fill="#666666">[integer]</text>
<polygon fill="none" stroke="#000000" points="258,-252.5 258,-282.5 636,-282.5 636,-252.5 258,-252.5"/>
<text text-anchor="start" x="265" y="-263.9" font-family="Arial" font-size="14.00" fill="#000000">create_uid </text>
<text text-anchor="start" x="334.244" y="-263.9" font-family="Arial" font-size="14.00" fill="#666666">[integer]</text>
<polygon fill="none" stroke="#000000" points="258,-222.5 258,-252.5 636,-252.5 636,-222.5 258,-222.5"/>
<text text-anchor="start" x="265" y="-233.9" font-family="Arial" font-size="14.00" fill="#000000">create_date </text>
<text text-anchor="start" x="342.8106" y="-233.9" font-family="Arial" font-size="14.00" fill="#666666">[timestamp without time zone]</text>
<polygon fill="none" stroke="#000000" points="258,-192.5 258,-222.5 636,-222.5 636,-192.5 258,-192.5"/>
<text text-anchor="start" x="265" y="-203.9" font-family="Arial" font-size="14.00" fill="#000000">write_uid </text>
<text text-anchor="start" x="324.892" y="-203.9" font-family="Arial" font-size="14.00" fill="#666666">[integer]</text>
<polygon fill="none" stroke="#000000" points="258,-162.5 258,-192.5 636,-192.5 636,-162.5 258,-162.5"/>
<text text-anchor="start" x="265" y="-173.9" font-family="Arial" font-size="14.00" fill="#000000">write_date </text>
<text text-anchor="start" x="333.4586" y="-173.9" font-family="Arial" font-size="14.00" fill="#666666">[timestamp without time zone]</text>
</g>
<!-- public.account_account_template_tax_rel&#45;&gt;public.account_account_template -->
<g id="edge1" class="edge">
<title>public.account_account_template_tax_rel:account_id&#45;&gt;public.account_account_template:id</title>
<path fill="none" stroke="#000000" d="M447.9766,-906.0251C422.3235,-897.1437 443.0158,-850.0567 458,-817 501.4296,-721.19 592.5704,-756.81 636,-661 653.1564,-623.1513 677.5556,-567.5 636,-567.5"/>
<polygon fill="#000000" stroke="#000000" points="448.1065,-906.0441 457.3449,-911.9521 453.0533,-906.7721 458,-907.5 458,-907.5 458,-907.5 453.0533,-906.7721 458.6551,-903.0479 448.1065,-906.0441 448.1065,-906.0441"/>
<text text-anchor="start" x="6.748" y="-917.5" font-family="Arial" font-size="10.00" fill="#000000">FOREIGN KEY (account_id) REFERENCES account_account_template(id) ON DELETE CASCADE</text>
</g>
<!-- public.account_tax_template -->
<g id="node3" class="node">
<title>public.account_tax_template</title>
<polygon fill="#efefef" stroke="transparent" points="741,-702.5 741,-737.5 1080,-737.5 1080,-702.5 741,-702.5"/>
<polygon fill="none" stroke="#000000" points="741,-702.5 741,-737.5 1080,-737.5 1080,-702.5 741,-702.5"/>
<text text-anchor="start" x="747.8368" y="-715.3" font-family="Arial Bold" font-size="18.00" fill="#000000">public.account_tax_template</text>
<text text-anchor="start" x="975.9094" y="-715.3" font-family="Arial" font-size="14.00" fill="#000000"> </text>
<text text-anchor="start" x="979.8" y="-715.3" font-family="Arial" font-size="14.00" fill="#666666">[BASE TABLE]</text>
<polygon fill="none" stroke="#000000" points="741,-672.5 741,-702.5 1080,-702.5 1080,-672.5 741,-672.5"/>
<text text-anchor="start" x="748" y="-683.9" font-family="Arial" font-size="14.00" fill="#000000">id </text>
<text text-anchor="start" x="762.7798" y="-683.9" font-family="Arial" font-size="14.00" fill="#666666">[integer]</text>
<polygon fill="none" stroke="#000000" points="741,-642.5 741,-672.5 1080,-672.5 1080,-642.5 741,-642.5"/>
<text text-anchor="start" x="748" y="-653.9" font-family="Arial" font-size="14.00" fill="#000000">chart_template_id </text>
<text text-anchor="start" x="863.1402" y="-653.9" font-family="Arial" font-size="14.00" fill="#666666">[integer]</text>
<polygon fill="none" stroke="#000000" points="741,-612.5 741,-642.5 1080,-642.5 1080,-612.5 741,-612.5"/>
<text text-anchor="start" x="748" y="-623.9" font-family="Arial" font-size="14.00" fill="#000000">name </text>
<text text-anchor="start" x="786.899" y="-623.9" font-family="Arial" font-size="14.00" fill="#666666">[varchar]</text>
<polygon fill="none" stroke="#000000" points="741,-582.5 741,-612.5 1080,-612.5 1080,-582.5 741,-582.5"/>
<text text-anchor="start" x="748" y="-593.9" font-family="Arial" font-size="14.00" fill="#000000">type_tax_use </text>
<text text-anchor="start" x="835.15" y="-593.9" font-family="Arial" font-size="14.00" fill="#666666">[varchar]</text>
<polygon fill="none" stroke="#000000" points="741,-552.5 741,-582.5 1080,-582.5 1080,-552.5 741,-552.5"/>
<text text-anchor="start" x="748" y="-563.9" font-family="Arial" font-size="14.00" fill="#000000">amount_type </text>
<text text-anchor="start" x="832.8106" y="-563.9" font-family="Arial" font-size="14.00" fill="#666666">[varchar]</text>
<polygon fill="none" stroke="#000000" points="741,-522.5 741,-552.5 1080,-552.5 1080,-522.5 741,-522.5"/>
<text text-anchor="start" x="748" y="-533.9" font-family="Arial" font-size="14.00" fill="#000000">active </text>
<text text-anchor="start" x="788.453" y="-533.9" font-family="Arial" font-size="14.00" fill="#666666">[boolean]</text>
<polygon fill="none" stroke="#000000" points="741,-492.5 741,-522.5 1080,-522.5 1080,-492.5 741,-492.5"/>
<text text-anchor="start" x="748" y="-503.9" font-family="Arial" font-size="14.00" fill="#000000">sequence </text>
<text text-anchor="start" x="812.5862" y="-503.9" font-family="Arial" font-size="14.00" fill="#666666">[integer]</text>
<polygon fill="none" stroke="#000000" points="741,-462.5 741,-492.5 1080,-492.5 1080,-462.5 741,-462.5"/>
<text text-anchor="start" x="748" y="-473.9" font-family="Arial" font-size="14.00" fill="#000000">amount </text>
<text text-anchor="start" x="798.5722" y="-473.9" font-family="Arial" font-size="14.00" fill="#666666">[numeric]</text>
<polygon fill="none" stroke="#000000" points="741,-432.5 741,-462.5 1080,-462.5 1080,-432.5 741,-432.5"/>
<text text-anchor="start" x="748" y="-443.9" font-family="Arial" font-size="14.00" fill="#000000">account_id </text>
<text text-anchor="start" x="819.5834" y="-443.9" font-family="Arial" font-size="14.00" fill="#666666">[integer]</text>
<polygon fill="none" stroke="#000000" points="741,-402.5 741,-432.5 1080,-432.5 1080,-402.5 741,-402.5"/>
<text text-anchor="start" x="748" y="-413.9" font-family="Arial" font-size="14.00" fill="#000000">refund_account_id </text>
<text text-anchor="start" x="867.0476" y="-413.9" font-family="Arial" font-size="14.00" fill="#666666">[integer]</text>
<polygon fill="none" stroke="#000000" points="741,-372.5 741,-402.5 1080,-402.5 1080,-372.5 741,-372.5"/>
<text text-anchor="start" x="748" y="-383.9" font-family="Arial" font-size="14.00" fill="#000000">description </text>
<text text-anchor="start" x="819.568" y="-383.9" font-family="Arial" font-size="14.00" fill="#666666">[varchar]</text>
<polygon fill="none" stroke="#000000" points="741,-342.5 741,-372.5 1080,-372.5 1080,-342.5 741,-342.5"/>
<text text-anchor="start" x="748" y="-353.9" font-family="Arial" font-size="14.00" fill="#000000">price_include </text>
<text text-anchor="start" x="834.3492" y="-353.9" font-family="Arial" font-size="14.00" fill="#666666">[boolean]</text>
<polygon fill="none" stroke="#000000" points="741,-312.5 741,-342.5 1080,-342.5 1080,-312.5 741,-312.5"/>
<text text-anchor="start" x="748" y="-323.9" font-family="Arial" font-size="14.00" fill="#000000">include_base_amount </text>
<text text-anchor="start" x="888.8288" y="-323.9" font-family="Arial" font-size="14.00" fill="#666666">[boolean]</text>
<polygon fill="none" stroke="#000000" points="741,-282.5 741,-312.5 1080,-312.5 1080,-282.5 741,-282.5"/>
<text text-anchor="start" x="748" y="-293.9" font-family="Arial" font-size="14.00" fill="#000000">analytic </text>
<text text-anchor="start" x="799.3422" y="-293.9" font-family="Arial" font-size="14.00" fill="#666666">[boolean]</text>
<polygon fill="none" stroke="#000000" points="741,-252.5 741,-282.5 1080,-282.5 1080,-252.5 741,-252.5"/>
<text text-anchor="start" x="748" y="-263.9" font-family="Arial" font-size="14.00" fill="#000000">tax_group_id </text>
<text text-anchor="start" x="832.8092" y="-263.9" font-family="Arial" font-size="14.00" fill="#666666">[integer]</text>
<polygon fill="none" stroke="#000000" points="741,-222.5 741,-252.5 1080,-252.5 1080,-222.5 741,-222.5"/>
<text text-anchor="start" x="748" y="-233.9" font-family="Arial" font-size="14.00" fill="#000000">tax_exigibility </text>
<text text-anchor="start" x="835.1178" y="-233.9" font-family="Arial" font-size="14.00" fill="#666666">[varchar]</text>
<polygon fill="none" stroke="#000000" points="741,-192.5 741,-222.5 1080,-222.5 1080,-192.5 741,-192.5"/>
<text text-anchor="start" x="748" y="-203.9" font-family="Arial" font-size="14.00" fill="#000000">cash_basis_account_id </text>
<text text-anchor="start" x="897.3856" y="-203.9" font-family="Arial" font-size="14.00" fill="#666666">[integer]</text>
<polygon fill="none" stroke="#000000" points="741,-162.5 741,-192.5 1080,-192.5 1080,-162.5 741,-162.5"/>
<text text-anchor="start" x="748" y="-173.9" font-family="Arial" font-size="14.00" fill="#000000">cash_basis_base_account_id </text>
<text text-anchor="start" x="935.516" y="-173.9" font-family="Arial" font-size="14.00" fill="#666666">[integer]</text>
<polygon fill="none" stroke="#000000" points="741,-132.5 741,-162.5 1080,-162.5 1080,-132.5 741,-132.5"/>
<text text-anchor="start" x="748" y="-143.9" font-family="Arial" font-size="14.00" fill="#000000">create_uid </text>
<text text-anchor="start" x="817.244" y="-143.9" font-family="Arial" font-size="14.00" fill="#666666">[integer]</text>
<polygon fill="none" stroke="#000000" points="741,-102.5 741,-132.5 1080,-132.5 1080,-102.5 741,-102.5"/>
<text text-anchor="start" x="748" y="-113.9" font-family="Arial" font-size="14.00" fill="#000000">create_date </text>
<text text-anchor="start" x="825.8106" y="-113.9" font-family="Arial" font-size="14.00" fill="#666666">[timestamp without time zone]</text>
<polygon fill="none" stroke="#000000" points="741,-72.5 741,-102.5 1080,-102.5 1080,-72.5 741,-72.5"/>
<text text-anchor="start" x="748" y="-83.9" font-family="Arial" font-size="14.00" fill="#000000">write_uid </text>
<text text-anchor="start" x="807.892" y="-83.9" font-family="Arial" font-size="14.00" fill="#666666">[integer]</text>
<polygon fill="none" stroke="#000000" points="741,-42.5 741,-72.5 1080,-72.5 1080,-42.5 741,-42.5"/>
<text text-anchor="start" x="748" y="-53.9" font-family="Arial" font-size="14.00" fill="#000000">write_date </text>
<text text-anchor="start" x="816.4586" y="-53.9" font-family="Arial" font-size="14.00" fill="#666666">[timestamp without time zone]</text>
</g>
<!-- public.account_account_template_tax_rel&#45;&gt;public.account_tax_template -->
<g id="edge2" class="edge">
<title>public.account_account_template_tax_rel:tax_id&#45;&gt;public.account_tax_template:id</title>
<path fill="none" stroke="#000000" d="M910.0103,-874.8287C923.5678,-865.61 914.1608,-834.7255 900,-817 854.7756,-760.3914 786.2244,-837.6086 741,-781 715.0623,-748.5331 699.4444,-687.5 741,-687.5"/>
<polygon fill="#000000" stroke="#000000" points="909.6619,-874.9216 898.8397,-873.1521 904.8309,-876.2108 900,-877.5 900,-877.5 900,-877.5 904.8309,-876.2108 901.1603,-881.8479 909.6619,-874.9216 909.6619,-874.9216"/>
<text text-anchor="start" x="907.425" y="-887.5" font-family="Arial" font-size="10.00" fill="#000000">FOREIGN KEY (tax_id) REFERENCES account_tax_template(id) ON DELETE CASCADE</text>
</g>
</g>
</svg>
