<?xml version="1.0" encoding="UTF-8" standalone="no"?>
<!DOCTYPE svg PUBLIC "-//W3C//DTD SVG 1.1//EN"
 "http://www.w3.org/Graphics/SVG/1.1/DTD/svg11.dtd">
<!-- Generated by graphviz version 2.40.1 (20161225.0304)
 -->
<!-- Title: public.stock_track_confirmation Pages: 1 -->
<svg width="1190pt" height="1529pt"
 viewBox="0.00 0.00 1190.00 1529.00" xmlns="http://www.w3.org/2000/svg" xmlns:xlink="http://www.w3.org/1999/xlink">
<g id="graph0" class="graph" transform="scale(1 1) rotate(0) translate(4 1525)">
<title>public.stock_track_confirmation</title>
<polygon fill="#ffffff" stroke="transparent" points="-4,4 -4,-1525 1186,-1525 1186,4 -4,4"/>
<!-- public.stock_track_confirmation -->
<g id="node1" class="node">
<title>public.stock_track_confirmation</title>
<polygon fill="#efefef" stroke="transparent" points="413,-1042.5 413,-1077.5 775,-1077.5 775,-1042.5 413,-1042.5"/>
<polygon fill="none" stroke="#000000" points="413,-1042.5 413,-1077.5 775,-1077.5 775,-1042.5 413,-1042.5"/>
<text text-anchor="start" x="419.8537" y="-1055.3" font-family="Arial Bold" font-size="18.00" fill="#000000">public.stock_track_confirmation</text>
<text text-anchor="start" x="670.8925" y="-1055.3" font-family="Arial" font-size="14.00" fill="#000000"> </text>
<text text-anchor="start" x="674.7831" y="-1055.3" font-family="Arial" font-size="14.00" fill="#666666">[BASE TABLE]</text>
<polygon fill="none" stroke="#000000" points="413,-1012.5 413,-1042.5 775,-1042.5 775,-1012.5 413,-1012.5"/>
<text text-anchor="start" x="420" y="-1023.9" font-family="Arial" font-size="14.00" fill="#000000">id </text>
<text text-anchor="start" x="434.7798" y="-1023.9" font-family="Arial" font-size="14.00" fill="#666666">[integer]</text>
<polygon fill="none" stroke="#000000" points="413,-982.5 413,-1012.5 775,-1012.5 775,-982.5 413,-982.5"/>
<text text-anchor="start" x="420" y="-993.9" font-family="Arial" font-size="14.00" fill="#000000">inventory_id </text>
<text text-anchor="start" x="499.3506" y="-993.9" font-family="Arial" font-size="14.00" fill="#666666">[integer]</text>
<polygon fill="none" stroke="#000000" points="413,-952.5 413,-982.5 775,-982.5 775,-952.5 413,-952.5"/>
<text text-anchor="start" x="420" y="-963.9" font-family="Arial" font-size="14.00" fill="#000000">create_uid </text>
<text text-anchor="start" x="489.244" y="-963.9" font-family="Arial" font-size="14.00" fill="#666666">[integer]</text>
<polygon fill="none" stroke="#000000" points="413,-922.5 413,-952.5 775,-952.5 775,-922.5 413,-922.5"/>
<text text-anchor="start" x="420" y="-933.9" font-family="Arial" font-size="14.00" fill="#000000">create_date </text>
<text text-anchor="start" x="497.8106" y="-933.9" font-family="Arial" font-size="14.00" fill="#666666">[timestamp without time zone]</text>
<polygon fill="none" stroke="#000000" points="413,-892.5 413,-922.5 775,-922.5 775,-892.5 413,-892.5"/>
<text text-anchor="start" x="420" y="-903.9" font-family="Arial" font-size="14.00" fill="#000000">write_uid </text>
<text text-anchor="start" x="479.892" y="-903.9" font-family="Arial" font-size="14.00" fill="#666666">[integer]</text>
<polygon fill="none" stroke="#000000" points="413,-862.5 413,-892.5 775,-892.5 775,-862.5 413,-862.5"/>
<text text-anchor="start" x="420" y="-873.9" font-family="Arial" font-size="14.00" fill="#000000">write_date </text>
<text text-anchor="start" x="488.4586" y="-873.9" font-family="Arial" font-size="14.00" fill="#666666">[timestamp without time zone]</text>
<polygon fill="none" stroke="#000000" stroke-width="3" points="411.5,-861.5 411.5,-1079.5 776.5,-1079.5 776.5,-861.5 411.5,-861.5"/>
</g>
<!-- public.stock_inventory -->
<g id="node3" class="node">
<title>public.stock_inventory</title>
<polygon fill="#efefef" stroke="transparent" points="64,-642.5 64,-677.5 352,-677.5 352,-642.5 64,-642.5"/>
<polygon fill="none" stroke="#000000" points="64,-642.5 64,-677.5 352,-677.5 352,-642.5 64,-642.5"/>
<text text-anchor="start" x="70.8545" y="-655.3" font-family="Arial Bold" font-size="18.00" fill="#000000">public.stock_inventory</text>
<text text-anchor="start" x="247.8917" y="-655.3" font-family="Arial" font-size="14.00" fill="#000000"> </text>
<text text-anchor="start" x="251.7823" y="-655.3" font-family="Arial" font-size="14.00" fill="#666666">[BASE TABLE]</text>
<polygon fill="none" stroke="#000000" points="64,-612.5 64,-642.5 352,-642.5 352,-612.5 64,-612.5"/>
<text text-anchor="start" x="71" y="-623.9" font-family="Arial" font-size="14.00" fill="#000000">id </text>
<text text-anchor="start" x="85.7798" y="-623.9" font-family="Arial" font-size="14.00" fill="#666666">[integer]</text>
<polygon fill="none" stroke="#000000" points="64,-582.5 64,-612.5 352,-612.5 352,-582.5 64,-582.5"/>
<text text-anchor="start" x="71" y="-593.9" font-family="Arial" font-size="14.00" fill="#000000">name </text>
<text text-anchor="start" x="109.899" y="-593.9" font-family="Arial" font-size="14.00" fill="#666666">[varchar]</text>
<polygon fill="none" stroke="#000000" points="64,-552.5 64,-582.5 352,-582.5 352,-552.5 64,-552.5"/>
<text text-anchor="start" x="71" y="-563.9" font-family="Arial" font-size="14.00" fill="#000000">date </text>
<text text-anchor="start" x="102.129" y="-563.9" font-family="Arial" font-size="14.00" fill="#666666">[timestamp without time zone]</text>
<polygon fill="none" stroke="#000000" points="64,-522.5 64,-552.5 352,-552.5 352,-522.5 64,-522.5"/>
<text text-anchor="start" x="71" y="-533.9" font-family="Arial" font-size="14.00" fill="#000000">state </text>
<text text-anchor="start" x="105.237" y="-533.9" font-family="Arial" font-size="14.00" fill="#666666">[varchar]</text>
<polygon fill="none" stroke="#000000" points="64,-492.5 64,-522.5 352,-522.5 352,-492.5 64,-492.5"/>
<text text-anchor="start" x="71" y="-503.9" font-family="Arial" font-size="14.00" fill="#000000">company_id </text>
<text text-anchor="start" x="150.3534" y="-503.9" font-family="Arial" font-size="14.00" fill="#666666">[integer]</text>
<polygon fill="none" stroke="#000000" points="64,-462.5 64,-492.5 352,-492.5 352,-462.5 64,-462.5"/>
<text text-anchor="start" x="71" y="-473.9" font-family="Arial" font-size="14.00" fill="#000000">location_id </text>
<text text-anchor="start" x="141.7966" y="-473.9" font-family="Arial" font-size="14.00" fill="#666666">[integer]</text>
<polygon fill="none" stroke="#000000" points="64,-432.5 64,-462.5 352,-462.5 352,-432.5 64,-432.5"/>
<text text-anchor="start" x="71" y="-443.9" font-family="Arial" font-size="14.00" fill="#000000">product_id </text>
<text text-anchor="start" x="140.244" y="-443.9" font-family="Arial" font-size="14.00" fill="#666666">[integer]</text>
<polygon fill="none" stroke="#000000" points="64,-402.5 64,-432.5 352,-432.5 352,-402.5 64,-402.5"/>
<text text-anchor="start" x="71" y="-413.9" font-family="Arial" font-size="14.00" fill="#000000">package_id </text>
<text text-anchor="start" x="146.4754" y="-413.9" font-family="Arial" font-size="14.00" fill="#666666">[integer]</text>
<polygon fill="none" stroke="#000000" points="64,-372.5 64,-402.5 352,-402.5 352,-372.5 64,-372.5"/>
<text text-anchor="start" x="71" y="-383.9" font-family="Arial" font-size="14.00" fill="#000000">partner_id </text>
<text text-anchor="start" x="137.9046" y="-383.9" font-family="Arial" font-size="14.00" fill="#666666">[integer]</text>
<polygon fill="none" stroke="#000000" points="64,-342.5 64,-372.5 352,-372.5 352,-342.5 64,-342.5"/>
<text text-anchor="start" x="71" y="-353.9" font-family="Arial" font-size="14.00" fill="#000000">lot_id </text>
<text text-anchor="start" x="108.3422" y="-353.9" font-family="Arial" font-size="14.00" fill="#666666">[integer]</text>
<polygon fill="none" stroke="#000000" points="64,-312.5 64,-342.5 352,-342.5 352,-312.5 64,-312.5"/>
<text text-anchor="start" x="71" y="-323.9" font-family="Arial" font-size="14.00" fill="#000000">filter </text>
<text text-anchor="start" x="101.3282" y="-323.9" font-family="Arial" font-size="14.00" fill="#666666">[varchar]</text>
<polygon fill="none" stroke="#000000" points="64,-282.5 64,-312.5 352,-312.5 352,-282.5 64,-282.5"/>
<text text-anchor="start" x="71" y="-293.9" font-family="Arial" font-size="14.00" fill="#000000">category_id </text>
<text text-anchor="start" x="147.244" y="-293.9" font-family="Arial" font-size="14.00" fill="#666666">[integer]</text>
<polygon fill="none" stroke="#000000" points="64,-252.5 64,-282.5 352,-282.5 352,-252.5 64,-252.5"/>
<text text-anchor="start" x="71" y="-263.9" font-family="Arial" font-size="14.00" fill="#000000">exhausted </text>
<text text-anchor="start" x="139.4768" y="-263.9" font-family="Arial" font-size="14.00" fill="#666666">[boolean]</text>
<polygon fill="none" stroke="#000000" points="64,-222.5 64,-252.5 352,-252.5 352,-222.5 64,-222.5"/>
<text text-anchor="start" x="71" y="-233.9" font-family="Arial" font-size="14.00" fill="#000000">create_uid </text>
<text text-anchor="start" x="140.244" y="-233.9" font-family="Arial" font-size="14.00" fill="#666666">[integer]</text>
<polygon fill="none" stroke="#000000" points="64,-192.5 64,-222.5 352,-222.5 352,-192.5 64,-192.5"/>
<text text-anchor="start" x="71" y="-203.9" font-family="Arial" font-size="14.00" fill="#000000">create_date </text>
<text text-anchor="start" x="148.8106" y="-203.9" font-family="Arial" font-size="14.00" fill="#666666">[timestamp without time zone]</text>
<polygon fill="none" stroke="#000000" points="64,-162.5 64,-192.5 352,-192.5 352,-162.5 64,-162.5"/>
<text text-anchor="start" x="71" y="-173.9" font-family="Arial" font-size="14.00" fill="#000000">write_uid </text>
<text text-anchor="start" x="130.892" y="-173.9" font-family="Arial" font-size="14.00" fill="#666666">[integer]</text>
<polygon fill="none" stroke="#000000" points="64,-132.5 64,-162.5 352,-162.5 352,-132.5 64,-132.5"/>
<text text-anchor="start" x="71" y="-143.9" font-family="Arial" font-size="14.00" fill="#000000">write_date </text>
<text text-anchor="start" x="139.4586" y="-143.9" font-family="Arial" font-size="14.00" fill="#666666">[timestamp without time zone]</text>
<polygon fill="none" stroke="#000000" points="64,-102.5 64,-132.5 352,-132.5 352,-102.5 64,-102.5"/>
<text text-anchor="start" x="71" y="-113.9" font-family="Arial" font-size="14.00" fill="#000000">accounting_date </text>
<text text-anchor="start" x="177.6044" y="-113.9" font-family="Arial" font-size="14.00" fill="#666666">[date]</text>
</g>
<!-- public.stock_track_confirmation&#45;&gt;public.stock_inventory -->
<g id="edge2" class="edge">
<title>public.stock_track_confirmation:inventory_id&#45;&gt;public.stock_inventory:id</title>
<path fill="none" stroke="#000000" d="M402.8796,-995.3271C338.7797,-965.0045 431.5887,-627.5 352,-627.5"/>
<polygon fill="#000000" stroke="#000000" points="403.2228,-995.4007 412.0553,-1001.8997 408.1114,-996.4504 413,-997.5 413,-997.5 413,-997.5 408.1114,-996.4504 413.9447,-993.1003 403.2228,-995.4007 403.2228,-995.4007"/>
<text text-anchor="start" x="7.2645" y="-1007.5" font-family="Arial" font-size="10.00" fill="#000000">FOREIGN KEY (inventory_id) REFERENCES stock_inventory(id) ON DELETE SET NULL</text>
</g>
<!-- public.res_users -->
<g id="node4" class="node">
<title>public.res_users</title>
<polygon fill="#efefef" stroke="transparent" points="456,-702.5 456,-737.5 732,-737.5 732,-702.5 456,-702.5"/>
<polygon fill="none" stroke="#000000" points="456,-702.5 456,-737.5 732,-737.5 732,-702.5 456,-702.5"/>
<text text-anchor="start" x="479.8639" y="-715.3" font-family="Arial Bold" font-size="18.00" fill="#000000">public.res_users</text>
<text text-anchor="start" x="610.8823" y="-715.3" font-family="Arial" font-size="14.00" fill="#000000"> </text>
<text text-anchor="start" x="614.7729" y="-715.3" font-family="Arial" font-size="14.00" fill="#666666">[BASE TABLE]</text>
<polygon fill="none" stroke="#000000" points="456,-672.5 456,-702.5 732,-702.5 732,-672.5 456,-672.5"/>
<text text-anchor="start" x="463" y="-683.9" font-family="Arial" font-size="14.00" fill="#000000">id </text>
<text text-anchor="start" x="477.7798" y="-683.9" font-family="Arial" font-size="14.00" fill="#666666">[integer]</text>
<polygon fill="none" stroke="#000000" points="456,-642.5 456,-672.5 732,-672.5 732,-642.5 456,-642.5"/>
<text text-anchor="start" x="463" y="-653.9" font-family="Arial" font-size="14.00" fill="#000000">active </text>
<text text-anchor="start" x="503.453" y="-653.9" font-family="Arial" font-size="14.00" fill="#666666">[boolean]</text>
<polygon fill="none" stroke="#000000" points="456,-612.5 456,-642.5 732,-642.5 732,-612.5 456,-612.5"/>
<text text-anchor="start" x="463" y="-623.9" font-family="Arial" font-size="14.00" fill="#000000">login </text>
<text text-anchor="start" x="496.4516" y="-623.9" font-family="Arial" font-size="14.00" fill="#666666">[varchar]</text>
<polygon fill="none" stroke="#000000" points="456,-582.5 456,-612.5 732,-612.5 732,-582.5 456,-582.5"/>
<text text-anchor="start" x="463" y="-593.9" font-family="Arial" font-size="14.00" fill="#000000">password </text>
<text text-anchor="start" x="526.7882" y="-593.9" font-family="Arial" font-size="14.00" fill="#666666">[varchar]</text>
<polygon fill="none" stroke="#000000" points="456,-552.5 456,-582.5 732,-582.5 732,-552.5 456,-552.5"/>
<text text-anchor="start" x="463" y="-563.9" font-family="Arial" font-size="14.00" fill="#000000">company_id </text>
<text text-anchor="start" x="542.3534" y="-563.9" font-family="Arial" font-size="14.00" fill="#666666">[integer]</text>
<polygon fill="none" stroke="#000000" points="456,-522.5 456,-552.5 732,-552.5 732,-522.5 456,-522.5"/>
<text text-anchor="start" x="463" y="-533.9" font-family="Arial" font-size="14.00" fill="#000000">partner_id </text>
<text text-anchor="start" x="529.9046" y="-533.9" font-family="Arial" font-size="14.00" fill="#666666">[integer]</text>
<polygon fill="none" stroke="#000000" points="456,-492.5 456,-522.5 732,-522.5 732,-492.5 456,-492.5"/>
<text text-anchor="start" x="462.5246" y="-503.9" font-family="Arial" font-size="14.00" fill="#000000">create_date </text>
<text text-anchor="start" x="540.3352" y="-503.9" font-family="Arial" font-size="14.00" fill="#666666">[timestamp without time zone]</text>
<polygon fill="none" stroke="#000000" points="456,-462.5 456,-492.5 732,-492.5 732,-462.5 456,-462.5"/>
<text text-anchor="start" x="463" y="-473.9" font-family="Arial" font-size="14.00" fill="#000000">signature </text>
<text text-anchor="start" x="524.4614" y="-473.9" font-family="Arial" font-size="14.00" fill="#666666">[text]</text>
<polygon fill="none" stroke="#000000" points="456,-432.5 456,-462.5 732,-462.5 732,-432.5 456,-432.5"/>
<text text-anchor="start" x="463" y="-443.9" font-family="Arial" font-size="14.00" fill="#000000">action_id </text>
<text text-anchor="start" x="522.9074" y="-443.9" font-family="Arial" font-size="14.00" fill="#666666">[integer]</text>
<polygon fill="none" stroke="#000000" points="456,-402.5 456,-432.5 732,-432.5 732,-402.5 456,-402.5"/>
<text text-anchor="start" x="463" y="-413.9" font-family="Arial" font-size="14.00" fill="#000000">share </text>
<text text-anchor="start" x="501.899" y="-413.9" font-family="Arial" font-size="14.00" fill="#666666">[boolean]</text>
<polygon fill="none" stroke="#000000" points="456,-372.5 456,-402.5 732,-402.5 732,-372.5 456,-372.5"/>
<text text-anchor="start" x="463" y="-383.9" font-family="Arial" font-size="14.00" fill="#000000">create_uid </text>
<text text-anchor="start" x="532.244" y="-383.9" font-family="Arial" font-size="14.00" fill="#666666">[integer]</text>
<polygon fill="none" stroke="#000000" points="456,-342.5 456,-372.5 732,-372.5 732,-342.5 456,-342.5"/>
<text text-anchor="start" x="463" y="-353.9" font-family="Arial" font-size="14.00" fill="#000000">write_uid </text>
<text text-anchor="start" x="522.892" y="-353.9" font-family="Arial" font-size="14.00" fill="#666666">[integer]</text>
<polygon fill="none" stroke="#000000" points="456,-312.5 456,-342.5 732,-342.5 732,-312.5 456,-312.5"/>
<text text-anchor="start" x="463" y="-323.9" font-family="Arial" font-size="14.00" fill="#000000">write_date </text>
<text text-anchor="start" x="531.4586" y="-323.9" font-family="Arial" font-size="14.00" fill="#666666">[timestamp without time zone]</text>
<polygon fill="none" stroke="#000000" points="456,-282.5 456,-312.5 732,-312.5 732,-282.5 456,-282.5"/>
<text text-anchor="start" x="463" y="-293.9" font-family="Arial" font-size="14.00" fill="#000000">alias_id </text>
<text text-anchor="start" x="514.3408" y="-293.9" font-family="Arial" font-size="14.00" fill="#666666">[integer]</text>
<polygon fill="none" stroke="#000000" points="456,-252.5 456,-282.5 732,-282.5 732,-252.5 456,-252.5"/>
<text text-anchor="start" x="463" y="-263.9" font-family="Arial" font-size="14.00" fill="#000000">notification_type </text>
<text text-anchor="start" x="568.0336" y="-263.9" font-family="Arial" font-size="14.00" fill="#666666">[varchar]</text>
<polygon fill="none" stroke="#000000" points="456,-222.5 456,-252.5 732,-252.5 732,-222.5 456,-222.5"/>
<text text-anchor="start" x="463" y="-233.9" font-family="Arial" font-size="14.00" fill="#000000">odoobot_state </text>
<text text-anchor="start" x="555.6058" y="-233.9" font-family="Arial" font-size="14.00" fill="#666666">[varchar]</text>
<polygon fill="none" stroke="#000000" points="456,-192.5 456,-222.5 732,-222.5 732,-192.5 456,-192.5"/>
<text text-anchor="start" x="463" y="-203.9" font-family="Arial" font-size="14.00" fill="#000000">sale_team_id </text>
<text text-anchor="start" x="550.1332" y="-203.9" font-family="Arial" font-size="14.00" fill="#666666">[integer]</text>
<polygon fill="none" stroke="#000000" points="456,-162.5 456,-192.5 732,-192.5 732,-162.5 456,-162.5"/>
<text text-anchor="start" x="463" y="-173.9" font-family="Arial" font-size="14.00" fill="#000000">target_sales_won </text>
<text text-anchor="start" x="576.589" y="-173.9" font-family="Arial" font-size="14.00" fill="#666666">[integer]</text>
<polygon fill="none" stroke="#000000" points="456,-132.5 456,-162.5 732,-162.5 732,-132.5 456,-132.5"/>
<text text-anchor="start" x="463" y="-143.9" font-family="Arial" font-size="14.00" fill="#000000">target_sales_done </text>
<text text-anchor="start" x="582.0476" y="-143.9" font-family="Arial" font-size="14.00" fill="#666666">[integer]</text>
<polygon fill="none" stroke="#000000" points="456,-102.5 456,-132.5 732,-132.5 732,-102.5 456,-102.5"/>
<text text-anchor="start" x="463" y="-113.9" font-family="Arial" font-size="14.00" fill="#000000">website_id </text>
<text text-anchor="start" x="533.014" y="-113.9" font-family="Arial" font-size="14.00" fill="#666666">[integer]</text>
<polygon fill="none" stroke="#000000" points="456,-72.5 456,-102.5 732,-102.5 732,-72.5 456,-72.5"/>
<text text-anchor="start" x="463" y="-83.9" font-family="Arial" font-size="14.00" fill="#000000">target_sales_invoiced </text>
<text text-anchor="start" x="602.2608" y="-83.9" font-family="Arial" font-size="14.00" fill="#666666">[integer]</text>
<polygon fill="none" stroke="#000000" points="456,-42.5 456,-72.5 732,-72.5 732,-42.5 456,-42.5"/>
<text text-anchor="start" x="463" y="-53.9" font-family="Arial" font-size="14.00" fill="#000000">pos_security_pin </text>
<text text-anchor="start" x="571.9158" y="-53.9" font-family="Arial" font-size="14.00" fill="#666666">[varchar(32)]</text>
</g>
<!-- public.stock_track_confirmation&#45;&gt;public.res_users -->
<g id="edge3" class="edge">
<title>public.stock_track_confirmation:create_uid&#45;&gt;public.res_users:id</title>
<path fill="none" stroke="#000000" d="M785.2924,-966.839C898.4013,-951.8652 854.3377,-687.5 732,-687.5"/>
<polygon fill="#000000" stroke="#000000" points="784.9794,-966.859 774.7116,-963.0093 779.9897,-967.1795 775,-967.5 775,-967.5 775,-967.5 779.9897,-967.1795 775.2884,-971.9907 784.9794,-966.859 784.9794,-966.859"/>
<text text-anchor="start" x="781.657" y="-977.5" font-family="Arial" font-size="10.00" fill="#000000">FOREIGN KEY (create_uid) REFERENCES res_users(id) ON DELETE SET NULL</text>
</g>
<!-- public.stock_track_confirmation&#45;&gt;public.res_users -->
<g id="edge4" class="edge">
<title>public.stock_track_confirmation:write_uid&#45;&gt;public.res_users:id</title>
<path fill="none" stroke="#000000" d="M784.9825,-906.7034C871.5345,-892.3032 828.1254,-687.5 732,-687.5"/>
<polygon fill="#000000" stroke="#000000" points="784.9683,-906.7044 774.642,-903.0143 779.9842,-907.1022 775,-907.5 775,-907.5 775,-907.5 779.9842,-907.1022 775.358,-911.9857 784.9683,-906.7044 784.9683,-906.7044"/>
<text text-anchor="start" x="781.997" y="-917.5" font-family="Arial" font-size="10.00" fill="#000000">FOREIGN KEY (write_uid) REFERENCES res_users(id) ON DELETE SET NULL</text>
</g>
<!-- public.stock_track_line -->
<g id="node2" class="node">
<title>public.stock_track_line</title>
<polygon fill="#efefef" stroke="transparent" points="448,-1442.5 448,-1477.5 740,-1477.5 740,-1442.5 448,-1442.5"/>
<polygon fill="none" stroke="#000000" points="448,-1442.5 448,-1477.5 740,-1477.5 740,-1442.5 448,-1442.5"/>
<text text-anchor="start" x="454.8574" y="-1455.3" font-family="Arial Bold" font-size="18.00" fill="#000000">public.stock_track_line</text>
<text text-anchor="start" x="635.8888" y="-1455.3" font-family="Arial" font-size="14.00" fill="#000000"> </text>
<text text-anchor="start" x="639.7794" y="-1455.3" font-family="Arial" font-size="14.00" fill="#666666">[BASE TABLE]</text>
<polygon fill="none" stroke="#000000" points="448,-1412.5 448,-1442.5 740,-1442.5 740,-1412.5 448,-1412.5"/>
<text text-anchor="start" x="455" y="-1423.9" font-family="Arial" font-size="14.00" fill="#000000">id </text>
<text text-anchor="start" x="469.7798" y="-1423.9" font-family="Arial" font-size="14.00" fill="#666666">[integer]</text>
<polygon fill="none" stroke="#000000" points="448,-1382.5 448,-1412.5 740,-1412.5 740,-1382.5 448,-1382.5"/>
<text text-anchor="start" x="455" y="-1393.9" font-family="Arial" font-size="14.00" fill="#000000">product_id </text>
<text text-anchor="start" x="524.244" y="-1393.9" font-family="Arial" font-size="14.00" fill="#666666">[integer]</text>
<polygon fill="none" stroke="#000000" points="448,-1352.5 448,-1382.5 740,-1382.5 740,-1352.5 448,-1352.5"/>
<text text-anchor="start" x="455" y="-1363.9" font-family="Arial" font-size="14.00" fill="#000000">tracking </text>
<text text-anchor="start" x="507.8962" y="-1363.9" font-family="Arial" font-size="14.00" fill="#666666">[varchar]</text>
<polygon fill="none" stroke="#000000" points="448,-1322.5 448,-1352.5 740,-1352.5 740,-1322.5 448,-1322.5"/>
<text text-anchor="start" x="455" y="-1333.9" font-family="Arial" font-size="14.00" fill="#000000">wizard_id </text>
<text text-anchor="start" x="518.0014" y="-1333.9" font-family="Arial" font-size="14.00" fill="#666666">[integer]</text>
<polygon fill="none" stroke="#000000" points="448,-1292.5 448,-1322.5 740,-1322.5 740,-1292.5 448,-1292.5"/>
<text text-anchor="start" x="455" y="-1303.9" font-family="Arial" font-size="14.00" fill="#000000">create_uid </text>
<text text-anchor="start" x="524.244" y="-1303.9" font-family="Arial" font-size="14.00" fill="#666666">[integer]</text>
<polygon fill="none" stroke="#000000" points="448,-1262.5 448,-1292.5 740,-1292.5 740,-1262.5 448,-1262.5"/>
<text text-anchor="start" x="455" y="-1273.9" font-family="Arial" font-size="14.00" fill="#000000">create_date </text>
<text text-anchor="start" x="532.8106" y="-1273.9" font-family="Arial" font-size="14.00" fill="#666666">[timestamp without time zone]</text>
<polygon fill="none" stroke="#000000" points="448,-1232.5 448,-1262.5 740,-1262.5 740,-1232.5 448,-1232.5"/>
<text text-anchor="start" x="455" y="-1243.9" font-family="Arial" font-size="14.00" fill="#000000">write_uid </text>
<text text-anchor="start" x="514.892" y="-1243.9" font-family="Arial" font-size="14.00" fill="#666666">[integer]</text>
<polygon fill="none" stroke="#000000" points="448,-1202.5 448,-1232.5 740,-1232.5 740,-1202.5 448,-1202.5"/>
<text text-anchor="start" x="455" y="-1213.9" font-family="Arial" font-size="14.00" fill="#000000">write_date </text>
<text text-anchor="start" x="523.4586" y="-1213.9" font-family="Arial" font-size="14.00" fill="#666666">[timestamp without time zone]</text>
</g>
<!-- public.stock_track_line&#45;&gt;public.stock_track_confirmation -->
<g id="edge1" class="edge">
<title>public.stock_track_line:wizard_id&#45;&gt;public.stock_track_confirmation:id</title>
<path fill="none" stroke="#000000" d="M749.9016,-1335.3549C812.4958,-1307.9657 840.9415,-1027.5 775,-1027.5"/>
<polygon fill="#000000" stroke="#000000" points="749.7733,-1335.3826 739.0472,-1333.102 744.8866,-1336.4413 740,-1337.5 740,-1337.5 740,-1337.5 744.8866,-1336.4413 740.9528,-1341.898 749.7733,-1335.3826 749.7733,-1335.3826"/>
<text text-anchor="start" x="746.5475" y="-1347.5" font-family="Arial" font-size="10.00" fill="#000000">FOREIGN KEY (wizard_id) REFERENCES stock_track_confirmation(id) ON DELETE SET NULL</text>
</g>
</g>
</svg>
