<?xml version="1.0" encoding="UTF-8" standalone="no"?>
<!DOCTYPE svg PUBLIC "-//W3C//DTD SVG 1.1//EN"
 "http://www.w3.org/Graphics/SVG/1.1/DTD/svg11.dtd">
<!-- Generated by graphviz version 2.40.1 (20161225.0304)
 -->
<!-- Title: public.decimal_precision Pages: 1 -->
<svg width="742pt" height="1162pt"
 viewBox="0.00 0.00 741.50 1162.00" xmlns="http://www.w3.org/2000/svg" xmlns:xlink="http://www.w3.org/1999/xlink">
<g id="graph0" class="graph" transform="scale(1 1) rotate(0) translate(4 1158)">
<title>public.decimal_precision</title>
<polygon fill="#ffffff" stroke="transparent" points="-4,4 -4,-1158 737.5,-1158 737.5,4 -4,4"/>
<!-- public.decimal_precision -->
<g id="node1" class="node">
<title>public.decimal_precision</title>
<polygon fill="#efefef" stroke="transparent" points="46.5,-1072.5 46.5,-1107.5 353.5,-1107.5 353.5,-1072.5 46.5,-1072.5"/>
<polygon fill="none" stroke="#000000" points="46.5,-1072.5 46.5,-1107.5 353.5,-1107.5 353.5,-1072.5 46.5,-1072.5"/>
<text text-anchor="start" x="53.3631" y="-1085.3" font-family="Arial Bold" font-size="18.00" fill="#000000">public.decimal_precision</text>
<text text-anchor="start" x="249.3831" y="-1085.3" font-family="Arial" font-size="14.00" fill="#000000"> </text>
<text text-anchor="start" x="253.2737" y="-1085.3" font-family="Arial" font-size="14.00" fill="#666666">[BASE TABLE]</text>
<polygon fill="none" stroke="#000000" points="46.5,-1042.5 46.5,-1072.5 353.5,-1072.5 353.5,-1042.5 46.5,-1042.5"/>
<text text-anchor="start" x="53.5" y="-1053.9" font-family="Arial" font-size="14.00" fill="#000000">id </text>
<text text-anchor="start" x="68.2798" y="-1053.9" font-family="Arial" font-size="14.00" fill="#666666">[integer]</text>
<polygon fill="none" stroke="#000000" points="46.5,-1012.5 46.5,-1042.5 353.5,-1042.5 353.5,-1012.5 46.5,-1012.5"/>
<text text-anchor="start" x="53.5" y="-1023.9" font-family="Arial" font-size="14.00" fill="#000000">name </text>
<text text-anchor="start" x="92.399" y="-1023.9" font-family="Arial" font-size="14.00" fill="#666666">[varchar]</text>
<polygon fill="none" stroke="#000000" points="46.5,-982.5 46.5,-1012.5 353.5,-1012.5 353.5,-982.5 46.5,-982.5"/>
<text text-anchor="start" x="53.5" y="-993.9" font-family="Arial" font-size="14.00" fill="#000000">digits </text>
<text text-anchor="start" x="90.0596" y="-993.9" font-family="Arial" font-size="14.00" fill="#666666">[integer]</text>
<polygon fill="none" stroke="#000000" points="46.5,-952.5 46.5,-982.5 353.5,-982.5 353.5,-952.5 46.5,-952.5"/>
<text text-anchor="start" x="53.5" y="-963.9" font-family="Arial" font-size="14.00" fill="#000000">create_uid </text>
<text text-anchor="start" x="122.744" y="-963.9" font-family="Arial" font-size="14.00" fill="#666666">[integer]</text>
<polygon fill="none" stroke="#000000" points="46.5,-922.5 46.5,-952.5 353.5,-952.5 353.5,-922.5 46.5,-922.5"/>
<text text-anchor="start" x="53.5" y="-933.9" font-family="Arial" font-size="14.00" fill="#000000">create_date </text>
<text text-anchor="start" x="131.3106" y="-933.9" font-family="Arial" font-size="14.00" fill="#666666">[timestamp without time zone]</text>
<polygon fill="none" stroke="#000000" points="46.5,-892.5 46.5,-922.5 353.5,-922.5 353.5,-892.5 46.5,-892.5"/>
<text text-anchor="start" x="53.5" y="-903.9" font-family="Arial" font-size="14.00" fill="#000000">write_uid </text>
<text text-anchor="start" x="113.392" y="-903.9" font-family="Arial" font-size="14.00" fill="#666666">[integer]</text>
<polygon fill="none" stroke="#000000" points="46.5,-862.5 46.5,-892.5 353.5,-892.5 353.5,-862.5 46.5,-862.5"/>
<text text-anchor="start" x="53.5" y="-873.9" font-family="Arial" font-size="14.00" fill="#000000">write_date </text>
<text text-anchor="start" x="121.9586" y="-873.9" font-family="Arial" font-size="14.00" fill="#666666">[timestamp without time zone]</text>
<polygon fill="none" stroke="#000000" stroke-width="3" points="44.5,-861.5 44.5,-1109.5 354.5,-1109.5 354.5,-861.5 44.5,-861.5"/>
</g>
<!-- public.res_users -->
<g id="node2" class="node">
<title>public.res_users</title>
<polygon fill="#efefef" stroke="transparent" points="62.5,-702.5 62.5,-737.5 338.5,-737.5 338.5,-702.5 62.5,-702.5"/>
<polygon fill="none" stroke="#000000" points="62.5,-702.5 62.5,-737.5 338.5,-737.5 338.5,-702.5 62.5,-702.5"/>
<text text-anchor="start" x="86.3639" y="-715.3" font-family="Arial Bold" font-size="18.00" fill="#000000">public.res_users</text>
<text text-anchor="start" x="217.3823" y="-715.3" font-family="Arial" font-size="14.00" fill="#000000"> </text>
<text text-anchor="start" x="221.2729" y="-715.3" font-family="Arial" font-size="14.00" fill="#666666">[BASE TABLE]</text>
<polygon fill="none" stroke="#000000" points="62.5,-672.5 62.5,-702.5 338.5,-702.5 338.5,-672.5 62.5,-672.5"/>
<text text-anchor="start" x="69.5" y="-683.9" font-family="Arial" font-size="14.00" fill="#000000">id </text>
<text text-anchor="start" x="84.2798" y="-683.9" font-family="Arial" font-size="14.00" fill="#666666">[integer]</text>
<polygon fill="none" stroke="#000000" points="62.5,-642.5 62.5,-672.5 338.5,-672.5 338.5,-642.5 62.5,-642.5"/>
<text text-anchor="start" x="69.5" y="-653.9" font-family="Arial" font-size="14.00" fill="#000000">active </text>
<text text-anchor="start" x="109.953" y="-653.9" font-family="Arial" font-size="14.00" fill="#666666">[boolean]</text>
<polygon fill="none" stroke="#000000" points="62.5,-612.5 62.5,-642.5 338.5,-642.5 338.5,-612.5 62.5,-612.5"/>
<text text-anchor="start" x="69.5" y="-623.9" font-family="Arial" font-size="14.00" fill="#000000">login </text>
<text text-anchor="start" x="102.9516" y="-623.9" font-family="Arial" font-size="14.00" fill="#666666">[varchar]</text>
<polygon fill="none" stroke="#000000" points="62.5,-582.5 62.5,-612.5 338.5,-612.5 338.5,-582.5 62.5,-582.5"/>
<text text-anchor="start" x="69.5" y="-593.9" font-family="Arial" font-size="14.00" fill="#000000">password </text>
<text text-anchor="start" x="133.2882" y="-593.9" font-family="Arial" font-size="14.00" fill="#666666">[varchar]</text>
<polygon fill="none" stroke="#000000" points="62.5,-552.5 62.5,-582.5 338.5,-582.5 338.5,-552.5 62.5,-552.5"/>
<text text-anchor="start" x="69.5" y="-563.9" font-family="Arial" font-size="14.00" fill="#000000">company_id </text>
<text text-anchor="start" x="148.8534" y="-563.9" font-family="Arial" font-size="14.00" fill="#666666">[integer]</text>
<polygon fill="none" stroke="#000000" points="62.5,-522.5 62.5,-552.5 338.5,-552.5 338.5,-522.5 62.5,-522.5"/>
<text text-anchor="start" x="69.5" y="-533.9" font-family="Arial" font-size="14.00" fill="#000000">partner_id </text>
<text text-anchor="start" x="136.4046" y="-533.9" font-family="Arial" font-size="14.00" fill="#666666">[integer]</text>
<polygon fill="none" stroke="#000000" points="62.5,-492.5 62.5,-522.5 338.5,-522.5 338.5,-492.5 62.5,-492.5"/>
<text text-anchor="start" x="69.0246" y="-503.9" font-family="Arial" font-size="14.00" fill="#000000">create_date </text>
<text text-anchor="start" x="146.8352" y="-503.9" font-family="Arial" font-size="14.00" fill="#666666">[timestamp without time zone]</text>
<polygon fill="none" stroke="#000000" points="62.5,-462.5 62.5,-492.5 338.5,-492.5 338.5,-462.5 62.5,-462.5"/>
<text text-anchor="start" x="69.5" y="-473.9" font-family="Arial" font-size="14.00" fill="#000000">signature </text>
<text text-anchor="start" x="130.9614" y="-473.9" font-family="Arial" font-size="14.00" fill="#666666">[text]</text>
<polygon fill="none" stroke="#000000" points="62.5,-432.5 62.5,-462.5 338.5,-462.5 338.5,-432.5 62.5,-432.5"/>
<text text-anchor="start" x="69.5" y="-443.9" font-family="Arial" font-size="14.00" fill="#000000">action_id </text>
<text text-anchor="start" x="129.4074" y="-443.9" font-family="Arial" font-size="14.00" fill="#666666">[integer]</text>
<polygon fill="none" stroke="#000000" points="62.5,-402.5 62.5,-432.5 338.5,-432.5 338.5,-402.5 62.5,-402.5"/>
<text text-anchor="start" x="69.5" y="-413.9" font-family="Arial" font-size="14.00" fill="#000000">share </text>
<text text-anchor="start" x="108.399" y="-413.9" font-family="Arial" font-size="14.00" fill="#666666">[boolean]</text>
<polygon fill="none" stroke="#000000" points="62.5,-372.5 62.5,-402.5 338.5,-402.5 338.5,-372.5 62.5,-372.5"/>
<text text-anchor="start" x="69.5" y="-383.9" font-family="Arial" font-size="14.00" fill="#000000">create_uid </text>
<text text-anchor="start" x="138.744" y="-383.9" font-family="Arial" font-size="14.00" fill="#666666">[integer]</text>
<polygon fill="none" stroke="#000000" points="62.5,-342.5 62.5,-372.5 338.5,-372.5 338.5,-342.5 62.5,-342.5"/>
<text text-anchor="start" x="69.5" y="-353.9" font-family="Arial" font-size="14.00" fill="#000000">write_uid </text>
<text text-anchor="start" x="129.392" y="-353.9" font-family="Arial" font-size="14.00" fill="#666666">[integer]</text>
<polygon fill="none" stroke="#000000" points="62.5,-312.5 62.5,-342.5 338.5,-342.5 338.5,-312.5 62.5,-312.5"/>
<text text-anchor="start" x="69.5" y="-323.9" font-family="Arial" font-size="14.00" fill="#000000">write_date </text>
<text text-anchor="start" x="137.9586" y="-323.9" font-family="Arial" font-size="14.00" fill="#666666">[timestamp without time zone]</text>
<polygon fill="none" stroke="#000000" points="62.5,-282.5 62.5,-312.5 338.5,-312.5 338.5,-282.5 62.5,-282.5"/>
<text text-anchor="start" x="69.5" y="-293.9" font-family="Arial" font-size="14.00" fill="#000000">alias_id </text>
<text text-anchor="start" x="120.8408" y="-293.9" font-family="Arial" font-size="14.00" fill="#666666">[integer]</text>
<polygon fill="none" stroke="#000000" points="62.5,-252.5 62.5,-282.5 338.5,-282.5 338.5,-252.5 62.5,-252.5"/>
<text text-anchor="start" x="69.5" y="-263.9" font-family="Arial" font-size="14.00" fill="#000000">notification_type </text>
<text text-anchor="start" x="174.5336" y="-263.9" font-family="Arial" font-size="14.00" fill="#666666">[varchar]</text>
<polygon fill="none" stroke="#000000" points="62.5,-222.5 62.5,-252.5 338.5,-252.5 338.5,-222.5 62.5,-222.5"/>
<text text-anchor="start" x="69.5" y="-233.9" font-family="Arial" font-size="14.00" fill="#000000">odoobot_state </text>
<text text-anchor="start" x="162.1058" y="-233.9" font-family="Arial" font-size="14.00" fill="#666666">[varchar]</text>
<polygon fill="none" stroke="#000000" points="62.5,-192.5 62.5,-222.5 338.5,-222.5 338.5,-192.5 62.5,-192.5"/>
<text text-anchor="start" x="69.5" y="-203.9" font-family="Arial" font-size="14.00" fill="#000000">sale_team_id </text>
<text text-anchor="start" x="156.6332" y="-203.9" font-family="Arial" font-size="14.00" fill="#666666">[integer]</text>
<polygon fill="none" stroke="#000000" points="62.5,-162.5 62.5,-192.5 338.5,-192.5 338.5,-162.5 62.5,-162.5"/>
<text text-anchor="start" x="69.5" y="-173.9" font-family="Arial" font-size="14.00" fill="#000000">target_sales_won </text>
<text text-anchor="start" x="183.089" y="-173.9" font-family="Arial" font-size="14.00" fill="#666666">[integer]</text>
<polygon fill="none" stroke="#000000" points="62.5,-132.5 62.5,-162.5 338.5,-162.5 338.5,-132.5 62.5,-132.5"/>
<text text-anchor="start" x="69.5" y="-143.9" font-family="Arial" font-size="14.00" fill="#000000">target_sales_done </text>
<text text-anchor="start" x="188.5476" y="-143.9" font-family="Arial" font-size="14.00" fill="#666666">[integer]</text>
<polygon fill="none" stroke="#000000" points="62.5,-102.5 62.5,-132.5 338.5,-132.5 338.5,-102.5 62.5,-102.5"/>
<text text-anchor="start" x="69.5" y="-113.9" font-family="Arial" font-size="14.00" fill="#000000">website_id </text>
<text text-anchor="start" x="139.514" y="-113.9" font-family="Arial" font-size="14.00" fill="#666666">[integer]</text>
<polygon fill="none" stroke="#000000" points="62.5,-72.5 62.5,-102.5 338.5,-102.5 338.5,-72.5 62.5,-72.5"/>
<text text-anchor="start" x="69.5" y="-83.9" font-family="Arial" font-size="14.00" fill="#000000">target_sales_invoiced </text>
<text text-anchor="start" x="208.7608" y="-83.9" font-family="Arial" font-size="14.00" fill="#666666">[integer]</text>
<polygon fill="none" stroke="#000000" points="62.5,-42.5 62.5,-72.5 338.5,-72.5 338.5,-42.5 62.5,-42.5"/>
<text text-anchor="start" x="69.5" y="-53.9" font-family="Arial" font-size="14.00" fill="#000000">pos_security_pin </text>
<text text-anchor="start" x="178.4158" y="-53.9" font-family="Arial" font-size="14.00" fill="#666666">[varchar(32)]</text>
</g>
<!-- public.decimal_precision&#45;&gt;public.res_users -->
<g id="edge1" class="edge">
<title>public.decimal_precision:create_uid&#45;&gt;public.res_users:id</title>
<path fill="none" stroke="#000000" d="M363.6822,-966.624C417.8532,-956.6709 395.3764,-864.3763 353.5,-817 267.1924,-719.3572 148.8076,-878.6428 62.5,-781 34.9787,-749.8642 20.9444,-687.5 62.5,-687.5"/>
<polygon fill="#000000" stroke="#000000" points="363.4632,-966.6427 353.1142,-963.0166 358.4816,-967.0714 353.5,-967.5 353.5,-967.5 353.5,-967.5 358.4816,-967.0714 353.8858,-971.9834 363.4632,-966.6427 363.4632,-966.6427"/>
<text text-anchor="start" x="360.157" y="-977.5" font-family="Arial" font-size="10.00" fill="#000000">FOREIGN KEY (create_uid) REFERENCES res_users(id) ON DELETE SET NULL</text>
</g>
<!-- public.decimal_precision&#45;&gt;public.res_users -->
<g id="edge2" class="edge">
<title>public.decimal_precision:write_uid&#45;&gt;public.res_users:id</title>
<path fill="none" stroke="#000000" d="M363.4274,-905.983C391.0605,-896.4476 377.641,-844.3115 353.5,-817 267.1924,-719.3572 148.8076,-878.6428 62.5,-781 34.9787,-749.8642 20.9444,-687.5 62.5,-687.5"/>
<polygon fill="#000000" stroke="#000000" points="363.3853,-905.9894 352.8202,-903.0516 358.4426,-906.7447 353.5,-907.5 353.5,-907.5 353.5,-907.5 358.4426,-906.7447 354.1798,-911.9484 363.3853,-905.9894 363.3853,-905.9894"/>
<text text-anchor="start" x="360.497" y="-917.5" font-family="Arial" font-size="10.00" fill="#000000">FOREIGN KEY (write_uid) REFERENCES res_users(id) ON DELETE SET NULL</text>
</g>
</g>
</svg>
