<?xml version="1.0" encoding="UTF-8" standalone="no"?>
<!DOCTYPE svg PUBLIC "-//W3C//DTD SVG 1.1//EN"
 "http://www.w3.org/Graphics/SVG/1.1/DTD/svg11.dtd">
<!-- Generated by graphviz version 2.40.1 (20161225.0304)
 -->
<!-- Title: public.account_account_tag Pages: 1 -->
<svg width="2261pt" height="1439pt"
 viewBox="0.00 0.00 2261.00 1439.00" xmlns="http://www.w3.org/2000/svg" xmlns:xlink="http://www.w3.org/1999/xlink">
<g id="graph0" class="graph" transform="scale(1 1) rotate(0) translate(4 1435)">
<title>public.account_account_tag</title>
<polygon fill="#ffffff" stroke="transparent" points="-4,4 -4,-1435 2257,-1435 2257,4 -4,4"/>
<!-- public.account_account_tag -->
<g id="node1" class="node">
<title>public.account_account_tag</title>
<polygon fill="#efefef" stroke="transparent" points="880,-1132.5 880,-1167.5 1214,-1167.5 1214,-1132.5 880,-1132.5"/>
<polygon fill="none" stroke="#000000" points="880,-1132.5 880,-1167.5 1214,-1167.5 1214,-1132.5 880,-1132.5"/>
<text text-anchor="start" x="886.828" y="-1145.3" font-family="Arial Bold" font-size="18.00" fill="#000000">public.account_account_tag</text>
<text text-anchor="start" x="1109.9182" y="-1145.3" font-family="Arial" font-size="14.00" fill="#000000"> </text>
<text text-anchor="start" x="1113.8088" y="-1145.3" font-family="Arial" font-size="14.00" fill="#666666">[BASE TABLE]</text>
<polygon fill="none" stroke="#000000" points="880,-1102.5 880,-1132.5 1214,-1132.5 1214,-1102.5 880,-1102.5"/>
<text text-anchor="start" x="887" y="-1113.9" font-family="Arial" font-size="14.00" fill="#000000">id </text>
<text text-anchor="start" x="901.7798" y="-1113.9" font-family="Arial" font-size="14.00" fill="#666666">[integer]</text>
<polygon fill="none" stroke="#000000" points="880,-1072.5 880,-1102.5 1214,-1102.5 1214,-1072.5 880,-1072.5"/>
<text text-anchor="start" x="887" y="-1083.9" font-family="Arial" font-size="14.00" fill="#000000">name </text>
<text text-anchor="start" x="925.899" y="-1083.9" font-family="Arial" font-size="14.00" fill="#666666">[varchar]</text>
<polygon fill="none" stroke="#000000" points="880,-1042.5 880,-1072.5 1214,-1072.5 1214,-1042.5 880,-1042.5"/>
<text text-anchor="start" x="887" y="-1053.9" font-family="Arial" font-size="14.00" fill="#000000">applicability </text>
<text text-anchor="start" x="963.2272" y="-1053.9" font-family="Arial" font-size="14.00" fill="#666666">[varchar]</text>
<polygon fill="none" stroke="#000000" points="880,-1012.5 880,-1042.5 1214,-1042.5 1214,-1012.5 880,-1012.5"/>
<text text-anchor="start" x="887" y="-1023.9" font-family="Arial" font-size="14.00" fill="#000000">color </text>
<text text-anchor="start" x="921.223" y="-1023.9" font-family="Arial" font-size="14.00" fill="#666666">[integer]</text>
<polygon fill="none" stroke="#000000" points="880,-982.5 880,-1012.5 1214,-1012.5 1214,-982.5 880,-982.5"/>
<text text-anchor="start" x="887" y="-993.9" font-family="Arial" font-size="14.00" fill="#000000">active </text>
<text text-anchor="start" x="927.453" y="-993.9" font-family="Arial" font-size="14.00" fill="#666666">[boolean]</text>
<polygon fill="none" stroke="#000000" points="880,-952.5 880,-982.5 1214,-982.5 1214,-952.5 880,-952.5"/>
<text text-anchor="start" x="887" y="-963.9" font-family="Arial" font-size="14.00" fill="#000000">create_uid </text>
<text text-anchor="start" x="956.244" y="-963.9" font-family="Arial" font-size="14.00" fill="#666666">[integer]</text>
<polygon fill="none" stroke="#000000" points="880,-922.5 880,-952.5 1214,-952.5 1214,-922.5 880,-922.5"/>
<text text-anchor="start" x="887" y="-933.9" font-family="Arial" font-size="14.00" fill="#000000">create_date </text>
<text text-anchor="start" x="964.8106" y="-933.9" font-family="Arial" font-size="14.00" fill="#666666">[timestamp without time zone]</text>
<polygon fill="none" stroke="#000000" points="880,-892.5 880,-922.5 1214,-922.5 1214,-892.5 880,-892.5"/>
<text text-anchor="start" x="887" y="-903.9" font-family="Arial" font-size="14.00" fill="#000000">write_uid </text>
<text text-anchor="start" x="946.892" y="-903.9" font-family="Arial" font-size="14.00" fill="#666666">[integer]</text>
<polygon fill="none" stroke="#000000" points="880,-862.5 880,-892.5 1214,-892.5 1214,-862.5 880,-862.5"/>
<text text-anchor="start" x="887" y="-873.9" font-family="Arial" font-size="14.00" fill="#000000">write_date </text>
<text text-anchor="start" x="955.4586" y="-873.9" font-family="Arial" font-size="14.00" fill="#666666">[timestamp without time zone]</text>
<polygon fill="none" stroke="#000000" stroke-width="3" points="878.5,-861.5 878.5,-1169.5 1215.5,-1169.5 1215.5,-861.5 878.5,-861.5"/>
</g>
<!-- public.res_users -->
<g id="node6" class="node">
<title>public.res_users</title>
<polygon fill="#efefef" stroke="transparent" points="909,-702.5 909,-737.5 1185,-737.5 1185,-702.5 909,-702.5"/>
<polygon fill="none" stroke="#000000" points="909,-702.5 909,-737.5 1185,-737.5 1185,-702.5 909,-702.5"/>
<text text-anchor="start" x="932.8639" y="-715.3" font-family="Arial Bold" font-size="18.00" fill="#000000">public.res_users</text>
<text text-anchor="start" x="1063.8823" y="-715.3" font-family="Arial" font-size="14.00" fill="#000000"> </text>
<text text-anchor="start" x="1067.7729" y="-715.3" font-family="Arial" font-size="14.00" fill="#666666">[BASE TABLE]</text>
<polygon fill="none" stroke="#000000" points="909,-672.5 909,-702.5 1185,-702.5 1185,-672.5 909,-672.5"/>
<text text-anchor="start" x="916" y="-683.9" font-family="Arial" font-size="14.00" fill="#000000">id </text>
<text text-anchor="start" x="930.7798" y="-683.9" font-family="Arial" font-size="14.00" fill="#666666">[integer]</text>
<polygon fill="none" stroke="#000000" points="909,-642.5 909,-672.5 1185,-672.5 1185,-642.5 909,-642.5"/>
<text text-anchor="start" x="916" y="-653.9" font-family="Arial" font-size="14.00" fill="#000000">active </text>
<text text-anchor="start" x="956.453" y="-653.9" font-family="Arial" font-size="14.00" fill="#666666">[boolean]</text>
<polygon fill="none" stroke="#000000" points="909,-612.5 909,-642.5 1185,-642.5 1185,-612.5 909,-612.5"/>
<text text-anchor="start" x="916" y="-623.9" font-family="Arial" font-size="14.00" fill="#000000">login </text>
<text text-anchor="start" x="949.4516" y="-623.9" font-family="Arial" font-size="14.00" fill="#666666">[varchar]</text>
<polygon fill="none" stroke="#000000" points="909,-582.5 909,-612.5 1185,-612.5 1185,-582.5 909,-582.5"/>
<text text-anchor="start" x="916" y="-593.9" font-family="Arial" font-size="14.00" fill="#000000">password </text>
<text text-anchor="start" x="979.7882" y="-593.9" font-family="Arial" font-size="14.00" fill="#666666">[varchar]</text>
<polygon fill="none" stroke="#000000" points="909,-552.5 909,-582.5 1185,-582.5 1185,-552.5 909,-552.5"/>
<text text-anchor="start" x="916" y="-563.9" font-family="Arial" font-size="14.00" fill="#000000">company_id </text>
<text text-anchor="start" x="995.3534" y="-563.9" font-family="Arial" font-size="14.00" fill="#666666">[integer]</text>
<polygon fill="none" stroke="#000000" points="909,-522.5 909,-552.5 1185,-552.5 1185,-522.5 909,-522.5"/>
<text text-anchor="start" x="916" y="-533.9" font-family="Arial" font-size="14.00" fill="#000000">partner_id </text>
<text text-anchor="start" x="982.9046" y="-533.9" font-family="Arial" font-size="14.00" fill="#666666">[integer]</text>
<polygon fill="none" stroke="#000000" points="909,-492.5 909,-522.5 1185,-522.5 1185,-492.5 909,-492.5"/>
<text text-anchor="start" x="915.5246" y="-503.9" font-family="Arial" font-size="14.00" fill="#000000">create_date </text>
<text text-anchor="start" x="993.3352" y="-503.9" font-family="Arial" font-size="14.00" fill="#666666">[timestamp without time zone]</text>
<polygon fill="none" stroke="#000000" points="909,-462.5 909,-492.5 1185,-492.5 1185,-462.5 909,-462.5"/>
<text text-anchor="start" x="916" y="-473.9" font-family="Arial" font-size="14.00" fill="#000000">signature </text>
<text text-anchor="start" x="977.4614" y="-473.9" font-family="Arial" font-size="14.00" fill="#666666">[text]</text>
<polygon fill="none" stroke="#000000" points="909,-432.5 909,-462.5 1185,-462.5 1185,-432.5 909,-432.5"/>
<text text-anchor="start" x="916" y="-443.9" font-family="Arial" font-size="14.00" fill="#000000">action_id </text>
<text text-anchor="start" x="975.9074" y="-443.9" font-family="Arial" font-size="14.00" fill="#666666">[integer]</text>
<polygon fill="none" stroke="#000000" points="909,-402.5 909,-432.5 1185,-432.5 1185,-402.5 909,-402.5"/>
<text text-anchor="start" x="916" y="-413.9" font-family="Arial" font-size="14.00" fill="#000000">share </text>
<text text-anchor="start" x="954.899" y="-413.9" font-family="Arial" font-size="14.00" fill="#666666">[boolean]</text>
<polygon fill="none" stroke="#000000" points="909,-372.5 909,-402.5 1185,-402.5 1185,-372.5 909,-372.5"/>
<text text-anchor="start" x="916" y="-383.9" font-family="Arial" font-size="14.00" fill="#000000">create_uid </text>
<text text-anchor="start" x="985.244" y="-383.9" font-family="Arial" font-size="14.00" fill="#666666">[integer]</text>
<polygon fill="none" stroke="#000000" points="909,-342.5 909,-372.5 1185,-372.5 1185,-342.5 909,-342.5"/>
<text text-anchor="start" x="916" y="-353.9" font-family="Arial" font-size="14.00" fill="#000000">write_uid </text>
<text text-anchor="start" x="975.892" y="-353.9" font-family="Arial" font-size="14.00" fill="#666666">[integer]</text>
<polygon fill="none" stroke="#000000" points="909,-312.5 909,-342.5 1185,-342.5 1185,-312.5 909,-312.5"/>
<text text-anchor="start" x="916" y="-323.9" font-family="Arial" font-size="14.00" fill="#000000">write_date </text>
<text text-anchor="start" x="984.4586" y="-323.9" font-family="Arial" font-size="14.00" fill="#666666">[timestamp without time zone]</text>
<polygon fill="none" stroke="#000000" points="909,-282.5 909,-312.5 1185,-312.5 1185,-282.5 909,-282.5"/>
<text text-anchor="start" x="916" y="-293.9" font-family="Arial" font-size="14.00" fill="#000000">alias_id </text>
<text text-anchor="start" x="967.3408" y="-293.9" font-family="Arial" font-size="14.00" fill="#666666">[integer]</text>
<polygon fill="none" stroke="#000000" points="909,-252.5 909,-282.5 1185,-282.5 1185,-252.5 909,-252.5"/>
<text text-anchor="start" x="916" y="-263.9" font-family="Arial" font-size="14.00" fill="#000000">notification_type </text>
<text text-anchor="start" x="1021.0336" y="-263.9" font-family="Arial" font-size="14.00" fill="#666666">[varchar]</text>
<polygon fill="none" stroke="#000000" points="909,-222.5 909,-252.5 1185,-252.5 1185,-222.5 909,-222.5"/>
<text text-anchor="start" x="916" y="-233.9" font-family="Arial" font-size="14.00" fill="#000000">odoobot_state </text>
<text text-anchor="start" x="1008.6058" y="-233.9" font-family="Arial" font-size="14.00" fill="#666666">[varchar]</text>
<polygon fill="none" stroke="#000000" points="909,-192.5 909,-222.5 1185,-222.5 1185,-192.5 909,-192.5"/>
<text text-anchor="start" x="916" y="-203.9" font-family="Arial" font-size="14.00" fill="#000000">sale_team_id </text>
<text text-anchor="start" x="1003.1332" y="-203.9" font-family="Arial" font-size="14.00" fill="#666666">[integer]</text>
<polygon fill="none" stroke="#000000" points="909,-162.5 909,-192.5 1185,-192.5 1185,-162.5 909,-162.5"/>
<text text-anchor="start" x="916" y="-173.9" font-family="Arial" font-size="14.00" fill="#000000">target_sales_won </text>
<text text-anchor="start" x="1029.589" y="-173.9" font-family="Arial" font-size="14.00" fill="#666666">[integer]</text>
<polygon fill="none" stroke="#000000" points="909,-132.5 909,-162.5 1185,-162.5 1185,-132.5 909,-132.5"/>
<text text-anchor="start" x="916" y="-143.9" font-family="Arial" font-size="14.00" fill="#000000">target_sales_done </text>
<text text-anchor="start" x="1035.0476" y="-143.9" font-family="Arial" font-size="14.00" fill="#666666">[integer]</text>
<polygon fill="none" stroke="#000000" points="909,-102.5 909,-132.5 1185,-132.5 1185,-102.5 909,-102.5"/>
<text text-anchor="start" x="916" y="-113.9" font-family="Arial" font-size="14.00" fill="#000000">website_id </text>
<text text-anchor="start" x="986.014" y="-113.9" font-family="Arial" font-size="14.00" fill="#666666">[integer]</text>
<polygon fill="none" stroke="#000000" points="909,-72.5 909,-102.5 1185,-102.5 1185,-72.5 909,-72.5"/>
<text text-anchor="start" x="916" y="-83.9" font-family="Arial" font-size="14.00" fill="#000000">target_sales_invoiced </text>
<text text-anchor="start" x="1055.2608" y="-83.9" font-family="Arial" font-size="14.00" fill="#666666">[integer]</text>
<polygon fill="none" stroke="#000000" points="909,-42.5 909,-72.5 1185,-72.5 1185,-42.5 909,-42.5"/>
<text text-anchor="start" x="916" y="-53.9" font-family="Arial" font-size="14.00" fill="#000000">pos_security_pin </text>
<text text-anchor="start" x="1024.9158" y="-53.9" font-family="Arial" font-size="14.00" fill="#666666">[varchar(32)]</text>
</g>
<!-- public.account_account_tag&#45;&gt;public.res_users -->
<g id="edge5" class="edge">
<title>public.account_account_tag:create_uid&#45;&gt;public.res_users:id</title>
<path fill="none" stroke="#000000" d="M1224.26,-966.839C1337.3905,-951.8652 1306.567,-687.5 1185,-687.5"/>
<polygon fill="#000000" stroke="#000000" points="1223.9793,-966.857 1213.7106,-963.0093 1218.9897,-967.1785 1214,-967.5 1214,-967.5 1214,-967.5 1218.9897,-967.1785 1214.2894,-971.9907 1223.9793,-966.857 1223.9793,-966.857"/>
<text text-anchor="start" x="1220.657" y="-977.5" font-family="Arial" font-size="10.00" fill="#000000">FOREIGN KEY (create_uid) REFERENCES res_users(id) ON DELETE SET NULL</text>
</g>
<!-- public.account_account_tag&#45;&gt;public.res_users -->
<g id="edge6" class="edge">
<title>public.account_account_tag:write_uid&#45;&gt;public.res_users:id</title>
<path fill="none" stroke="#000000" d="M1224.1935,-906.6591C1310.437,-891.8888 1280.0601,-687.5 1185,-687.5"/>
<polygon fill="#000000" stroke="#000000" points="1223.9661,-906.6777 1213.63,-903.0152 1218.9831,-907.0889 1214,-907.5 1214,-907.5 1214,-907.5 1218.9831,-907.0889 1214.37,-911.9848 1223.9661,-906.6777 1223.9661,-906.6777"/>
<text text-anchor="start" x="1220.997" y="-917.5" font-family="Arial" font-size="10.00" fill="#000000">FOREIGN KEY (write_uid) REFERENCES res_users(id) ON DELETE SET NULL</text>
</g>
<!-- public.account_account_account_tag -->
<g id="node2" class="node">
<title>public.account_account_account_tag</title>
<polygon fill="#efefef" stroke="transparent" points="87,-1352.5 87,-1387.5 494,-1387.5 494,-1352.5 87,-1352.5"/>
<polygon fill="none" stroke="#000000" points="87,-1352.5 87,-1387.5 494,-1387.5 494,-1352.5 87,-1352.5"/>
<text text-anchor="start" x="93.8114" y="-1365.3" font-family="Arial Bold" font-size="18.00" fill="#000000">public.account_account_account_tag</text>
<text text-anchor="start" x="389.9348" y="-1365.3" font-family="Arial" font-size="14.00" fill="#000000"> </text>
<text text-anchor="start" x="393.8254" y="-1365.3" font-family="Arial" font-size="14.00" fill="#666666">[BASE TABLE]</text>
<polygon fill="none" stroke="#000000" points="87,-1322.5 87,-1352.5 494,-1352.5 494,-1322.5 87,-1322.5"/>
<text text-anchor="start" x="94" y="-1333.9" font-family="Arial" font-size="14.00" fill="#000000">account_account_id </text>
<text text-anchor="start" x="222.387" y="-1333.9" font-family="Arial" font-size="14.00" fill="#666666">[integer]</text>
<polygon fill="none" stroke="#000000" points="87,-1292.5 87,-1322.5 494,-1322.5 494,-1292.5 87,-1292.5"/>
<text text-anchor="start" x="94" y="-1303.9" font-family="Arial" font-size="14.00" fill="#000000">account_account_tag_id </text>
<text text-anchor="start" x="249.6254" y="-1303.9" font-family="Arial" font-size="14.00" fill="#666666">[integer]</text>
</g>
<!-- public.account_account_account_tag&#45;&gt;public.account_account_tag -->
<g id="edge1" class="edge">
<title>public.account_account_account_tag:account_account_tag_id&#45;&gt;public.account_account_tag:id</title>
<path fill="none" stroke="#000000" d="M504.0913,-1306.1241C526.5186,-1299.1568 520.8986,-1267.418 546,-1250 677.2048,-1158.9563 720.3014,-1117.5 880,-1117.5"/>
<polygon fill="#000000" stroke="#000000" points="503.9083,-1306.149 493.392,-1303.0413 498.9542,-1306.8245 494,-1307.5 494,-1307.5 494,-1307.5 498.9542,-1306.8245 494.608,-1311.9587 503.9083,-1306.149 503.9083,-1306.149"/>
<text text-anchor="start" x="6.9555" y="-1317.5" font-family="Arial" font-size="10.00" fill="#000000">FOREIGN KEY (account_account_tag_id) REFERENCES account_account_tag(id) ON DELETE CASCADE</text>
</g>
<!-- public.account_tax_account_tag -->
<g id="node3" class="node">
<title>public.account_tax_account_tag</title>
<polygon fill="#efefef" stroke="transparent" points="598,-1352.5 598,-1387.5 966,-1387.5 966,-1352.5 598,-1352.5"/>
<polygon fill="none" stroke="#000000" points="598,-1352.5 598,-1387.5 966,-1387.5 966,-1352.5 598,-1352.5"/>
<text text-anchor="start" x="604.8207" y="-1365.3" font-family="Arial Bold" font-size="18.00" fill="#000000">public.account_tax_account_tag</text>
<text text-anchor="start" x="861.9255" y="-1365.3" font-family="Arial" font-size="14.00" fill="#000000"> </text>
<text text-anchor="start" x="865.8161" y="-1365.3" font-family="Arial" font-size="14.00" fill="#666666">[BASE TABLE]</text>
<polygon fill="none" stroke="#000000" points="598,-1322.5 598,-1352.5 966,-1352.5 966,-1322.5 598,-1322.5"/>
<text text-anchor="start" x="605" y="-1333.9" font-family="Arial" font-size="14.00" fill="#000000">account_tax_id </text>
<text text-anchor="start" x="703.0392" y="-1333.9" font-family="Arial" font-size="14.00" fill="#666666">[integer]</text>
<polygon fill="none" stroke="#000000" points="598,-1292.5 598,-1322.5 966,-1322.5 966,-1292.5 598,-1292.5"/>
<text text-anchor="start" x="605" y="-1303.9" font-family="Arial" font-size="14.00" fill="#000000">account_account_tag_id </text>
<text text-anchor="start" x="760.6254" y="-1303.9" font-family="Arial" font-size="14.00" fill="#666666">[integer]</text>
</g>
<!-- public.account_tax_account_tag&#45;&gt;public.account_account_tag -->
<g id="edge2" class="edge">
<title>public.account_tax_account_tag:account_account_tag_id&#45;&gt;public.account_account_tag:id</title>
<path fill="none" stroke="#000000" d="M975.7452,-1304.8009C987.7415,-1296.0161 977.8353,-1267.7847 966,-1250 943.0439,-1215.5043 902.9561,-1248.4957 880,-1214 856.239,-1178.2947 837.1111,-1117.5 880,-1117.5"/>
<polygon fill="#000000" stroke="#000000" points="975.6372,-1304.8307 964.7988,-1303.1633 970.8186,-1306.1653 966,-1307.5 966,-1307.5 966,-1307.5 970.8186,-1306.1653 967.2012,-1311.8367 975.6372,-1304.8307 975.6372,-1304.8307"/>
<text text-anchor="start" x="972.9555" y="-1317.5" font-family="Arial" font-size="10.00" fill="#000000">FOREIGN KEY (account_account_tag_id) REFERENCES account_account_tag(id) ON DELETE CASCADE</text>
</g>
<!-- public.account_account_template_account_tag -->
<g id="node4" class="node">
<title>public.account_account_template_account_tag</title>
<polygon fill="#efefef" stroke="transparent" points="1070,-1352.5 1070,-1387.5 1556,-1387.5 1556,-1352.5 1070,-1352.5"/>
<polygon fill="none" stroke="#000000" points="1070,-1352.5 1070,-1387.5 1556,-1387.5 1556,-1352.5 1070,-1352.5"/>
<text text-anchor="start" x="1076.8005" y="-1365.3" font-family="Arial Bold" font-size="18.00" fill="#000000">public.account_account_template_account_tag</text>
<text text-anchor="start" x="1451.9457" y="-1365.3" font-family="Arial" font-size="14.00" fill="#000000"> </text>
<text text-anchor="start" x="1455.8363" y="-1365.3" font-family="Arial" font-size="14.00" fill="#666666">[BASE TABLE]</text>
<polygon fill="none" stroke="#000000" points="1070,-1322.5 1070,-1352.5 1556,-1352.5 1556,-1322.5 1070,-1322.5"/>
<text text-anchor="start" x="1077" y="-1333.9" font-family="Arial" font-size="14.00" fill="#000000">account_account_template_id </text>
<text text-anchor="start" x="1266.8484" y="-1333.9" font-family="Arial" font-size="14.00" fill="#666666">[integer]</text>
<polygon fill="none" stroke="#000000" points="1070,-1292.5 1070,-1322.5 1556,-1322.5 1556,-1292.5 1070,-1292.5"/>
<text text-anchor="start" x="1077" y="-1303.9" font-family="Arial" font-size="14.00" fill="#000000">account_account_tag_id </text>
<text text-anchor="start" x="1232.6254" y="-1303.9" font-family="Arial" font-size="14.00" fill="#666666">[integer]</text>
</g>
<!-- public.account_account_template_account_tag&#45;&gt;public.account_account_tag -->
<g id="edge3" class="edge">
<title>public.account_account_template_account_tag:account_account_tag_id&#45;&gt;public.account_account_tag:id</title>
<path fill="none" stroke="#000000" d="M1060.1489,-1304.7244C1047.8281,-1295.7056 1056.853,-1266.8383 1070,-1250 1110.5986,-1198.0023 1173.4014,-1265.9977 1214,-1214 1240.3943,-1180.1947 1256.8889,-1117.5 1214,-1117.5"/>
<polygon fill="#000000" stroke="#000000" points="1060.3747,-1304.788 1068.7796,-1311.8314 1065.1874,-1306.144 1070,-1307.5 1070,-1307.5 1070,-1307.5 1065.1874,-1306.144 1071.2204,-1303.1686 1060.3747,-1304.788 1060.3747,-1304.788"/>
<text text-anchor="start" x="1076.9555" y="-1291.5" font-family="Arial" font-size="10.00" fill="#000000">FOREIGN KEY (account_account_tag_id) REFERENCES account_account_tag(id) ON DELETE CASCADE</text>
</g>
<!-- public.account_account_tag_account_tax_template_rel -->
<g id="node5" class="node">
<title>public.account_account_tag_account_tax_template_rel</title>
<polygon fill="#efefef" stroke="transparent" points="1660,-1352.5 1660,-1387.5 2210,-1387.5 2210,-1352.5 1660,-1352.5"/>
<polygon fill="none" stroke="#000000" points="1660,-1352.5 1660,-1387.5 2210,-1387.5 2210,-1352.5 1660,-1352.5"/>
<text text-anchor="start" x="1666.7938" y="-1365.3" font-family="Arial Bold" font-size="18.00" fill="#000000">public.account_account_tag_account_tax_template_rel</text>
<text text-anchor="start" x="2105.9524" y="-1365.3" font-family="Arial" font-size="14.00" fill="#000000"> </text>
<text text-anchor="start" x="2109.843" y="-1365.3" font-family="Arial" font-size="14.00" fill="#666666">[BASE TABLE]</text>
<polygon fill="none" stroke="#000000" points="1660,-1322.5 1660,-1352.5 2210,-1352.5 2210,-1322.5 1660,-1322.5"/>
<text text-anchor="start" x="1667" y="-1333.9" font-family="Arial" font-size="14.00" fill="#000000">account_tax_template_id </text>
<text text-anchor="start" x="1826.5006" y="-1333.9" font-family="Arial" font-size="14.00" fill="#666666">[integer]</text>
<polygon fill="none" stroke="#000000" points="1660,-1292.5 1660,-1322.5 2210,-1322.5 2210,-1292.5 1660,-1292.5"/>
<text text-anchor="start" x="1667" y="-1303.9" font-family="Arial" font-size="14.00" fill="#000000">account_account_tag_id </text>
<text text-anchor="start" x="1822.6254" y="-1303.9" font-family="Arial" font-size="14.00" fill="#666666">[integer]</text>
</g>
<!-- public.account_account_tag_account_tax_template_rel&#45;&gt;public.account_account_tag -->
<g id="edge4" class="edge">
<title>public.account_account_tag_account_tax_template_rel:account_account_tag_id&#45;&gt;public.account_account_tag:id</title>
<path fill="none" stroke="#000000" d="M1649.9262,-1306.0981C1627.5845,-1299.004 1633.5562,-1266.7436 1608,-1250 1453.4651,-1148.7539 1398.7479,-1117.5 1214,-1117.5"/>
<polygon fill="#000000" stroke="#000000" points="1650.0954,-1306.1216 1659.3797,-1311.9571 1655.0477,-1306.8108 1660,-1307.5 1660,-1307.5 1660,-1307.5 1655.0477,-1306.8108 1660.6203,-1303.0429 1650.0954,-1306.1216 1650.0954,-1306.1216"/>
<text text-anchor="start" x="1666.9555" y="-1317.5" font-family="Arial" font-size="10.00" fill="#000000">FOREIGN KEY (account_account_tag_id) REFERENCES account_account_tag(id) ON DELETE CASCADE</text>
</g>
</g>
</svg>
