<?xml version="1.0" encoding="UTF-8" standalone="no"?>
<!DOCTYPE svg PUBLIC "-//W3C//DTD SVG 1.1//EN"
 "http://www.w3.org/Graphics/SVG/1.1/DTD/svg11.dtd">
<!-- Generated by graphviz version 2.40.1 (20161225.0304)
 -->
<!-- Title: public.stock_move_line_consume_rel Pages: 1 -->
<svg width="904pt" height="1222pt"
 viewBox="0.00 0.00 904.00 1222.00" xmlns="http://www.w3.org/2000/svg" xmlns:xlink="http://www.w3.org/1999/xlink">
<g id="graph0" class="graph" transform="scale(1 1) rotate(0) translate(4 1218)">
<title>public.stock_move_line_consume_rel</title>
<polygon fill="#ffffff" stroke="transparent" points="-4,4 -4,-1218 900,-1218 900,4 -4,4"/>
<!-- public.stock_move_line_consume_rel -->
<g id="node1" class="node">
<title>public.stock_move_line_consume_rel</title>
<polygon fill="#efefef" stroke="transparent" points="440,-1132.5 440,-1167.5 850,-1167.5 850,-1132.5 440,-1132.5"/>
<polygon fill="none" stroke="#000000" points="440,-1132.5 440,-1167.5 850,-1167.5 850,-1132.5 440,-1132.5"/>
<text text-anchor="start" x="446.8444" y="-1145.3" font-family="Arial Bold" font-size="18.00" fill="#000000">public.stock_move_line_consume_rel</text>
<text text-anchor="start" x="745.9018" y="-1145.3" font-family="Arial" font-size="14.00" fill="#000000"> </text>
<text text-anchor="start" x="749.7924" y="-1145.3" font-family="Arial" font-size="14.00" fill="#666666">[BASE TABLE]</text>
<polygon fill="none" stroke="#000000" points="440,-1102.5 440,-1132.5 850,-1132.5 850,-1102.5 440,-1102.5"/>
<text text-anchor="start" x="447" y="-1113.9" font-family="Arial" font-size="14.00" fill="#000000">consume_line_id </text>
<text text-anchor="start" x="555.9144" y="-1113.9" font-family="Arial" font-size="14.00" fill="#666666">[integer]</text>
<polygon fill="none" stroke="#000000" points="440,-1072.5 440,-1102.5 850,-1102.5 850,-1072.5 440,-1072.5"/>
<text text-anchor="start" x="447" y="-1083.9" font-family="Arial" font-size="14.00" fill="#000000">produce_line_id </text>
<text text-anchor="start" x="549.697" y="-1083.9" font-family="Arial" font-size="14.00" fill="#666666">[integer]</text>
<polygon fill="none" stroke="#000000" stroke-width="3" points="438.5,-1071.5 438.5,-1169.5 851.5,-1169.5 851.5,-1071.5 438.5,-1071.5"/>
</g>
<!-- public.stock_move_line -->
<g id="node2" class="node">
<title>public.stock_move_line</title>
<polygon fill="#efefef" stroke="transparent" points="496,-912.5 496,-947.5 793,-947.5 793,-912.5 496,-912.5"/>
<polygon fill="none" stroke="#000000" points="496,-912.5 496,-947.5 793,-947.5 793,-912.5 496,-912.5"/>
<text text-anchor="start" x="502.8554" y="-925.3" font-family="Arial Bold" font-size="18.00" fill="#000000">public.stock_move_line</text>
<text text-anchor="start" x="688.8908" y="-925.3" font-family="Arial" font-size="14.00" fill="#000000"> </text>
<text text-anchor="start" x="692.7814" y="-925.3" font-family="Arial" font-size="14.00" fill="#666666">[BASE TABLE]</text>
<polygon fill="none" stroke="#000000" points="496,-882.5 496,-912.5 793,-912.5 793,-882.5 496,-882.5"/>
<text text-anchor="start" x="503" y="-893.9" font-family="Arial" font-size="14.00" fill="#000000">id </text>
<text text-anchor="start" x="517.7798" y="-893.9" font-family="Arial" font-size="14.00" fill="#666666">[integer]</text>
<polygon fill="none" stroke="#000000" points="496,-852.5 496,-882.5 793,-882.5 793,-852.5 496,-852.5"/>
<text text-anchor="start" x="503" y="-863.9" font-family="Arial" font-size="14.00" fill="#000000">picking_id </text>
<text text-anchor="start" x="569.1234" y="-863.9" font-family="Arial" font-size="14.00" fill="#666666">[integer]</text>
<polygon fill="none" stroke="#000000" points="496,-822.5 496,-852.5 793,-852.5 793,-822.5 496,-822.5"/>
<text text-anchor="start" x="503" y="-833.9" font-family="Arial" font-size="14.00" fill="#000000">move_id </text>
<text text-anchor="start" x="559.7882" y="-833.9" font-family="Arial" font-size="14.00" fill="#666666">[integer]</text>
<polygon fill="none" stroke="#000000" points="496,-792.5 496,-822.5 793,-822.5 793,-792.5 496,-792.5"/>
<text text-anchor="start" x="503" y="-803.9" font-family="Arial" font-size="14.00" fill="#000000">product_id </text>
<text text-anchor="start" x="572.244" y="-803.9" font-family="Arial" font-size="14.00" fill="#666666">[integer]</text>
<polygon fill="none" stroke="#000000" points="496,-762.5 496,-792.5 793,-792.5 793,-762.5 496,-762.5"/>
<text text-anchor="start" x="503" y="-773.9" font-family="Arial" font-size="14.00" fill="#000000">product_uom_id </text>
<text text-anchor="start" x="607.2524" y="-773.9" font-family="Arial" font-size="14.00" fill="#666666">[integer]</text>
<polygon fill="none" stroke="#000000" points="496,-732.5 496,-762.5 793,-762.5 793,-732.5 496,-732.5"/>
<text text-anchor="start" x="503" y="-743.9" font-family="Arial" font-size="14.00" fill="#000000">product_qty </text>
<text text-anchor="start" x="580.028" y="-743.9" font-family="Arial" font-size="14.00" fill="#666666">[numeric]</text>
<polygon fill="none" stroke="#000000" points="496,-702.5 496,-732.5 793,-732.5 793,-702.5 496,-702.5"/>
<text text-anchor="start" x="503" y="-713.9" font-family="Arial" font-size="14.00" fill="#000000">product_uom_qty </text>
<text text-anchor="start" x="615.0364" y="-713.9" font-family="Arial" font-size="14.00" fill="#666666">[numeric]</text>
<polygon fill="none" stroke="#000000" points="496,-672.5 496,-702.5 793,-702.5 793,-672.5 496,-672.5"/>
<text text-anchor="start" x="503" y="-683.9" font-family="Arial" font-size="14.00" fill="#000000">qty_done </text>
<text text-anchor="start" x="564.4768" y="-683.9" font-family="Arial" font-size="14.00" fill="#666666">[numeric]</text>
<polygon fill="none" stroke="#000000" points="496,-642.5 496,-672.5 793,-672.5 793,-642.5 496,-642.5"/>
<text text-anchor="start" x="503" y="-653.9" font-family="Arial" font-size="14.00" fill="#000000">package_id </text>
<text text-anchor="start" x="578.4754" y="-653.9" font-family="Arial" font-size="14.00" fill="#666666">[integer]</text>
<polygon fill="none" stroke="#000000" points="496,-612.5 496,-642.5 793,-642.5 793,-612.5 496,-612.5"/>
<text text-anchor="start" x="503" y="-623.9" font-family="Arial" font-size="14.00" fill="#000000">package_level_id </text>
<text text-anchor="start" x="615.0364" y="-623.9" font-family="Arial" font-size="14.00" fill="#666666">[integer]</text>
<polygon fill="none" stroke="#000000" points="496,-582.5 496,-612.5 793,-612.5 793,-582.5 496,-582.5"/>
<text text-anchor="start" x="503" y="-593.9" font-family="Arial" font-size="14.00" fill="#000000">lot_id </text>
<text text-anchor="start" x="540.3422" y="-593.9" font-family="Arial" font-size="14.00" fill="#666666">[integer]</text>
<polygon fill="none" stroke="#000000" points="496,-552.5 496,-582.5 793,-582.5 793,-552.5 496,-552.5"/>
<text text-anchor="start" x="503" y="-563.9" font-family="Arial" font-size="14.00" fill="#000000">lot_name </text>
<text text-anchor="start" x="564.4614" y="-563.9" font-family="Arial" font-size="14.00" fill="#666666">[varchar]</text>
<polygon fill="none" stroke="#000000" points="496,-522.5 496,-552.5 793,-552.5 793,-522.5 496,-522.5"/>
<text text-anchor="start" x="503" y="-533.9" font-family="Arial" font-size="14.00" fill="#000000">result_package_id </text>
<text text-anchor="start" x="620.481" y="-533.9" font-family="Arial" font-size="14.00" fill="#666666">[integer]</text>
<polygon fill="none" stroke="#000000" points="496,-492.5 496,-522.5 793,-522.5 793,-492.5 496,-492.5"/>
<text text-anchor="start" x="503" y="-503.9" font-family="Arial" font-size="14.00" fill="#000000">date </text>
<text text-anchor="start" x="534.129" y="-503.9" font-family="Arial" font-size="14.00" fill="#666666">[timestamp without time zone]</text>
<polygon fill="none" stroke="#000000" points="496,-462.5 496,-492.5 793,-492.5 793,-462.5 496,-462.5"/>
<text text-anchor="start" x="503" y="-473.9" font-family="Arial" font-size="14.00" fill="#000000">owner_id </text>
<text text-anchor="start" x="563.6774" y="-473.9" font-family="Arial" font-size="14.00" fill="#666666">[integer]</text>
<polygon fill="none" stroke="#000000" points="496,-432.5 496,-462.5 793,-462.5 793,-432.5 496,-432.5"/>
<text text-anchor="start" x="503" y="-443.9" font-family="Arial" font-size="14.00" fill="#000000">location_id </text>
<text text-anchor="start" x="573.7966" y="-443.9" font-family="Arial" font-size="14.00" fill="#666666">[integer]</text>
<polygon fill="none" stroke="#000000" points="496,-402.5 496,-432.5 793,-432.5 793,-402.5 496,-402.5"/>
<text text-anchor="start" x="503" y="-413.9" font-family="Arial" font-size="14.00" fill="#000000">location_dest_id </text>
<text text-anchor="start" x="608.035" y="-413.9" font-family="Arial" font-size="14.00" fill="#666666">[integer]</text>
<polygon fill="none" stroke="#000000" points="496,-372.5 496,-402.5 793,-402.5 793,-372.5 496,-372.5"/>
<text text-anchor="start" x="503" y="-383.9" font-family="Arial" font-size="14.00" fill="#000000">state </text>
<text text-anchor="start" x="537.237" y="-383.9" font-family="Arial" font-size="14.00" fill="#666666">[varchar]</text>
<polygon fill="none" stroke="#000000" points="496,-342.5 496,-372.5 793,-372.5 793,-342.5 496,-342.5"/>
<text text-anchor="start" x="503" y="-353.9" font-family="Arial" font-size="14.00" fill="#000000">reference </text>
<text text-anchor="start" x="566.0154" y="-353.9" font-family="Arial" font-size="14.00" fill="#666666">[varchar]</text>
<polygon fill="none" stroke="#000000" points="496,-312.5 496,-342.5 793,-342.5 793,-312.5 496,-312.5"/>
<text text-anchor="start" x="503" y="-323.9" font-family="Arial" font-size="14.00" fill="#000000">create_uid </text>
<text text-anchor="start" x="572.244" y="-323.9" font-family="Arial" font-size="14.00" fill="#666666">[integer]</text>
<polygon fill="none" stroke="#000000" points="496,-282.5 496,-312.5 793,-312.5 793,-282.5 496,-282.5"/>
<text text-anchor="start" x="503" y="-293.9" font-family="Arial" font-size="14.00" fill="#000000">create_date </text>
<text text-anchor="start" x="580.8106" y="-293.9" font-family="Arial" font-size="14.00" fill="#666666">[timestamp without time zone]</text>
<polygon fill="none" stroke="#000000" points="496,-252.5 496,-282.5 793,-282.5 793,-252.5 496,-252.5"/>
<text text-anchor="start" x="503" y="-263.9" font-family="Arial" font-size="14.00" fill="#000000">write_uid </text>
<text text-anchor="start" x="562.892" y="-263.9" font-family="Arial" font-size="14.00" fill="#666666">[integer]</text>
<polygon fill="none" stroke="#000000" points="496,-222.5 496,-252.5 793,-252.5 793,-222.5 496,-222.5"/>
<text text-anchor="start" x="503" y="-233.9" font-family="Arial" font-size="14.00" fill="#000000">write_date </text>
<text text-anchor="start" x="571.4586" y="-233.9" font-family="Arial" font-size="14.00" fill="#666666">[timestamp without time zone]</text>
<polygon fill="none" stroke="#000000" points="496,-192.5 496,-222.5 793,-222.5 793,-192.5 496,-192.5"/>
<text text-anchor="start" x="503" y="-203.9" font-family="Arial" font-size="14.00" fill="#000000">workorder_id </text>
<text text-anchor="start" x="587.7812" y="-203.9" font-family="Arial" font-size="14.00" fill="#666666">[integer]</text>
<polygon fill="none" stroke="#000000" points="496,-162.5 496,-192.5 793,-192.5 793,-162.5 496,-162.5"/>
<text text-anchor="start" x="503" y="-173.9" font-family="Arial" font-size="14.00" fill="#000000">production_id </text>
<text text-anchor="start" x="590.9158" y="-173.9" font-family="Arial" font-size="14.00" fill="#666666">[integer]</text>
<polygon fill="none" stroke="#000000" points="496,-132.5 496,-162.5 793,-162.5 793,-132.5 496,-132.5"/>
<text text-anchor="start" x="503" y="-143.9" font-family="Arial" font-size="14.00" fill="#000000">lot_produced_id </text>
<text text-anchor="start" x="606.481" y="-143.9" font-family="Arial" font-size="14.00" fill="#666666">[integer]</text>
<polygon fill="none" stroke="#000000" points="496,-102.5 496,-132.5 793,-132.5 793,-102.5 496,-102.5"/>
<text text-anchor="start" x="503" y="-113.9" font-family="Arial" font-size="14.00" fill="#000000">lot_produced_qty </text>
<text text-anchor="start" x="614.265" y="-113.9" font-family="Arial" font-size="14.00" fill="#666666">[numeric]</text>
<polygon fill="none" stroke="#000000" points="496,-72.5 496,-102.5 793,-102.5 793,-72.5 496,-72.5"/>
<text text-anchor="start" x="503" y="-83.9" font-family="Arial" font-size="14.00" fill="#000000">done_wo </text>
<text text-anchor="start" x="563.6928" y="-83.9" font-family="Arial" font-size="14.00" fill="#666666">[boolean]</text>
<polygon fill="none" stroke="#000000" points="496,-42.5 496,-72.5 793,-72.5 793,-42.5 496,-42.5"/>
<text text-anchor="start" x="503" y="-53.9" font-family="Arial" font-size="14.00" fill="#000000">done_move </text>
<text text-anchor="start" x="580.0294" y="-53.9" font-family="Arial" font-size="14.00" fill="#666666">[boolean]</text>
</g>
<!-- public.stock_move_line_consume_rel&#45;&gt;public.stock_move_line -->
<g id="edge1" class="edge">
<title>public.stock_move_line_consume_rel:consume_line_id&#45;&gt;public.stock_move_line:id</title>
<path fill="none" stroke="#000000" d="M430.065,-1115.9762C402.3848,-1106.3987 415.5675,-1054.051 440,-1027 492.8522,-968.4836 740.1478,-1049.5164 793,-991 820.8537,-960.1612 834.5556,-897.5 793,-897.5"/>
<polygon fill="#000000" stroke="#000000" points="430.1156,-1115.9838 439.3177,-1121.948 435.0578,-1116.7419 440,-1117.5 440,-1117.5 440,-1117.5 435.0578,-1116.7419 440.6823,-1113.052 430.1156,-1115.9838 430.1156,-1115.9838"/>
<text text-anchor="start" x="6.931" y="-1127.5" font-family="Arial" font-size="10.00" fill="#000000">FOREIGN KEY (consume_line_id) REFERENCES stock_move_line(id) ON DELETE CASCADE</text>
</g>
<!-- public.stock_move_line_consume_rel&#45;&gt;public.stock_move_line -->
<g id="edge2" class="edge">
<title>public.stock_move_line_consume_rel:produce_line_id&#45;&gt;public.stock_move_line:id</title>
<path fill="none" stroke="#000000" d="M645.7642,-1062.4241C655.5518,-1002.8028 756.6634,-1052.4915 793,-991 814.1409,-955.2239 834.5556,-897.5 793,-897.5"/>
<polygon fill="#000000" stroke="#000000" points="645.7564,-1062.5286 640.5129,-1072.1596 645.3782,-1067.5143 645,-1072.5 645,-1072.5 645,-1072.5 645.3782,-1067.5143 649.4871,-1072.8404 645.7564,-1062.5286 645.7564,-1062.5286"/>
<text text-anchor="start" x="217.1515" y="-1082.5" font-family="Arial" font-size="10.00" fill="#000000">FOREIGN KEY (produce_line_id) REFERENCES stock_move_line(id) ON DELETE CASCADE</text>
</g>
</g>
</svg>
