<?xml version="1.0" encoding="UTF-8" standalone="no"?>
<!DOCTYPE svg PUBLIC "-//W3C//DTD SVG 1.1//EN"
 "http://www.w3.org/Graphics/SVG/1.1/DTD/svg11.dtd">
<!-- Generated by graphviz version 2.40.1 (20161225.0304)
 -->
<!-- Title: public.account_analytic_distribution Pages: 1 -->
<svg width="1472pt" height="1192pt"
 viewBox="0.00 0.00 1472.00 1192.00" xmlns="http://www.w3.org/2000/svg" xmlns:xlink="http://www.w3.org/1999/xlink">
<g id="graph0" class="graph" transform="scale(1 1) rotate(0) translate(4 1188)">
<title>public.account_analytic_distribution</title>
<polygon fill="#ffffff" stroke="transparent" points="-4,4 -4,-1188 1468,-1188 1468,4 -4,4"/>
<!-- public.account_analytic_distribution -->
<g id="node1" class="node">
<title>public.account_analytic_distribution</title>
<polygon fill="#efefef" stroke="transparent" points="690,-1102.5 690,-1137.5 1084,-1137.5 1084,-1102.5 690,-1102.5"/>
<polygon fill="none" stroke="#000000" points="690,-1102.5 690,-1137.5 1084,-1137.5 1084,-1102.5 690,-1102.5"/>
<text text-anchor="start" x="696.8391" y="-1115.3" font-family="Arial Bold" font-size="18.00" fill="#000000">public.account_analytic_distribution</text>
<text text-anchor="start" x="979.9071" y="-1115.3" font-family="Arial" font-size="14.00" fill="#000000"> </text>
<text text-anchor="start" x="983.7977" y="-1115.3" font-family="Arial" font-size="14.00" fill="#666666">[BASE TABLE]</text>
<polygon fill="none" stroke="#000000" points="690,-1072.5 690,-1102.5 1084,-1102.5 1084,-1072.5 690,-1072.5"/>
<text text-anchor="start" x="697" y="-1083.9" font-family="Arial" font-size="14.00" fill="#000000">id </text>
<text text-anchor="start" x="711.7798" y="-1083.9" font-family="Arial" font-size="14.00" fill="#666666">[integer]</text>
<polygon fill="none" stroke="#000000" points="690,-1042.5 690,-1072.5 1084,-1072.5 1084,-1042.5 690,-1042.5"/>
<text text-anchor="start" x="697" y="-1053.9" font-family="Arial" font-size="14.00" fill="#000000">account_id </text>
<text text-anchor="start" x="768.5834" y="-1053.9" font-family="Arial" font-size="14.00" fill="#666666">[integer]</text>
<polygon fill="none" stroke="#000000" points="690,-1012.5 690,-1042.5 1084,-1042.5 1084,-1012.5 690,-1012.5"/>
<text text-anchor="start" x="697" y="-1023.9" font-family="Arial" font-size="14.00" fill="#000000">percentage </text>
<text text-anchor="start" x="770.92" y="-1023.9" font-family="Arial" font-size="14.00" fill="#666666">[double precision]</text>
<polygon fill="none" stroke="#000000" points="690,-982.5 690,-1012.5 1084,-1012.5 1084,-982.5 690,-982.5"/>
<text text-anchor="start" x="697" y="-993.9" font-family="Arial" font-size="14.00" fill="#000000">tag_id </text>
<text text-anchor="start" x="739.0182" y="-993.9" font-family="Arial" font-size="14.00" fill="#666666">[integer]</text>
<polygon fill="none" stroke="#000000" points="690,-952.5 690,-982.5 1084,-982.5 1084,-952.5 690,-952.5"/>
<text text-anchor="start" x="697" y="-963.9" font-family="Arial" font-size="14.00" fill="#000000">create_uid </text>
<text text-anchor="start" x="766.244" y="-963.9" font-family="Arial" font-size="14.00" fill="#666666">[integer]</text>
<polygon fill="none" stroke="#000000" points="690,-922.5 690,-952.5 1084,-952.5 1084,-922.5 690,-922.5"/>
<text text-anchor="start" x="697" y="-933.9" font-family="Arial" font-size="14.00" fill="#000000">create_date </text>
<text text-anchor="start" x="774.8106" y="-933.9" font-family="Arial" font-size="14.00" fill="#666666">[timestamp without time zone]</text>
<polygon fill="none" stroke="#000000" points="690,-892.5 690,-922.5 1084,-922.5 1084,-892.5 690,-892.5"/>
<text text-anchor="start" x="697" y="-903.9" font-family="Arial" font-size="14.00" fill="#000000">write_uid </text>
<text text-anchor="start" x="756.892" y="-903.9" font-family="Arial" font-size="14.00" fill="#666666">[integer]</text>
<polygon fill="none" stroke="#000000" points="690,-862.5 690,-892.5 1084,-892.5 1084,-862.5 690,-862.5"/>
<text text-anchor="start" x="697" y="-873.9" font-family="Arial" font-size="14.00" fill="#000000">write_date </text>
<text text-anchor="start" x="765.4586" y="-873.9" font-family="Arial" font-size="14.00" fill="#666666">[timestamp without time zone]</text>
<polygon fill="none" stroke="#000000" stroke-width="3" points="688.5,-861.5 688.5,-1139.5 1085.5,-1139.5 1085.5,-861.5 688.5,-861.5"/>
</g>
<!-- public.account_analytic_account -->
<g id="node2" class="node">
<title>public.account_analytic_account</title>
<polygon fill="#efefef" stroke="transparent" points="43,-552.5 43,-587.5 413,-587.5 413,-552.5 43,-552.5"/>
<polygon fill="none" stroke="#000000" points="43,-552.5 43,-587.5 413,-587.5 413,-552.5 43,-552.5"/>
<text text-anchor="start" x="49.8307" y="-565.3" font-family="Arial Bold" font-size="18.00" fill="#000000">public.account_analytic_account</text>
<text text-anchor="start" x="308.9155" y="-565.3" font-family="Arial" font-size="14.00" fill="#000000"> </text>
<text text-anchor="start" x="312.8061" y="-565.3" font-family="Arial" font-size="14.00" fill="#666666">[BASE TABLE]</text>
<polygon fill="none" stroke="#000000" points="43,-522.5 43,-552.5 413,-552.5 413,-522.5 43,-522.5"/>
<text text-anchor="start" x="50" y="-533.9" font-family="Arial" font-size="14.00" fill="#000000">id </text>
<text text-anchor="start" x="64.7798" y="-533.9" font-family="Arial" font-size="14.00" fill="#666666">[integer]</text>
<polygon fill="none" stroke="#000000" points="43,-492.5 43,-522.5 413,-522.5 413,-492.5 43,-492.5"/>
<text text-anchor="start" x="50" y="-503.9" font-family="Arial" font-size="14.00" fill="#000000">message_main_attachment_id </text>
<text text-anchor="start" x="244.4964" y="-503.9" font-family="Arial" font-size="14.00" fill="#666666">[integer]</text>
<polygon fill="none" stroke="#000000" points="43,-462.5 43,-492.5 413,-492.5 413,-462.5 43,-462.5"/>
<text text-anchor="start" x="50" y="-473.9" font-family="Arial" font-size="14.00" fill="#000000">name </text>
<text text-anchor="start" x="88.899" y="-473.9" font-family="Arial" font-size="14.00" fill="#666666">[varchar]</text>
<polygon fill="none" stroke="#000000" points="43,-432.5 43,-462.5 413,-462.5 413,-432.5 43,-432.5"/>
<text text-anchor="start" x="50" y="-443.9" font-family="Arial" font-size="14.00" fill="#000000">code </text>
<text text-anchor="start" x="84.2384" y="-443.9" font-family="Arial" font-size="14.00" fill="#666666">[varchar]</text>
<polygon fill="none" stroke="#000000" points="43,-402.5 43,-432.5 413,-432.5 413,-402.5 43,-402.5"/>
<text text-anchor="start" x="50" y="-413.9" font-family="Arial" font-size="14.00" fill="#000000">active </text>
<text text-anchor="start" x="90.453" y="-413.9" font-family="Arial" font-size="14.00" fill="#666666">[boolean]</text>
<polygon fill="none" stroke="#000000" points="43,-372.5 43,-402.5 413,-402.5 413,-372.5 43,-372.5"/>
<text text-anchor="start" x="50" y="-383.9" font-family="Arial" font-size="14.00" fill="#000000">group_id </text>
<text text-anchor="start" x="108.3534" y="-383.9" font-family="Arial" font-size="14.00" fill="#666666">[integer]</text>
<polygon fill="none" stroke="#000000" points="43,-342.5 43,-372.5 413,-372.5 413,-342.5 43,-342.5"/>
<text text-anchor="start" x="50" y="-353.9" font-family="Arial" font-size="14.00" fill="#000000">company_id </text>
<text text-anchor="start" x="129.3534" y="-353.9" font-family="Arial" font-size="14.00" fill="#666666">[integer]</text>
<polygon fill="none" stroke="#000000" points="43,-312.5 43,-342.5 413,-342.5 413,-312.5 43,-312.5"/>
<text text-anchor="start" x="50" y="-323.9" font-family="Arial" font-size="14.00" fill="#000000">partner_id </text>
<text text-anchor="start" x="116.9046" y="-323.9" font-family="Arial" font-size="14.00" fill="#666666">[integer]</text>
<polygon fill="none" stroke="#000000" points="43,-282.5 43,-312.5 413,-312.5 413,-282.5 43,-282.5"/>
<text text-anchor="start" x="50" y="-293.9" font-family="Arial" font-size="14.00" fill="#000000">create_uid </text>
<text text-anchor="start" x="119.244" y="-293.9" font-family="Arial" font-size="14.00" fill="#666666">[integer]</text>
<polygon fill="none" stroke="#000000" points="43,-252.5 43,-282.5 413,-282.5 413,-252.5 43,-252.5"/>
<text text-anchor="start" x="50" y="-263.9" font-family="Arial" font-size="14.00" fill="#000000">create_date </text>
<text text-anchor="start" x="127.8106" y="-263.9" font-family="Arial" font-size="14.00" fill="#666666">[timestamp without time zone]</text>
<polygon fill="none" stroke="#000000" points="43,-222.5 43,-252.5 413,-252.5 413,-222.5 43,-222.5"/>
<text text-anchor="start" x="50" y="-233.9" font-family="Arial" font-size="14.00" fill="#000000">write_uid </text>
<text text-anchor="start" x="109.892" y="-233.9" font-family="Arial" font-size="14.00" fill="#666666">[integer]</text>
<polygon fill="none" stroke="#000000" points="43,-192.5 43,-222.5 413,-222.5 413,-192.5 43,-192.5"/>
<text text-anchor="start" x="50" y="-203.9" font-family="Arial" font-size="14.00" fill="#000000">write_date </text>
<text text-anchor="start" x="118.4586" y="-203.9" font-family="Arial" font-size="14.00" fill="#666666">[timestamp without time zone]</text>
</g>
<!-- public.account_analytic_distribution&#45;&gt;public.account_analytic_account -->
<g id="edge1" class="edge">
<title>public.account_analytic_distribution:account_id&#45;&gt;public.account_analytic_account:id</title>
<path fill="none" stroke="#000000" d="M679.5642,-1057.2992C531.614,-1051.4932 531.9093,-920.6777 465,-781 441.096,-731.0987 468.3312,-537.5 413,-537.5"/>
<polygon fill="#000000" stroke="#000000" points="680.0019,-1057.3075 689.9134,-1061.9992 685.0009,-1057.4038 690,-1057.5 690,-1057.5 690,-1057.5 685.0009,-1057.4038 690.0866,-1053.0008 680.0019,-1057.3075 680.0019,-1057.3075"/>
<text text-anchor="start" x="244.2475" y="-1067.5" font-family="Arial" font-size="10.00" fill="#000000">FOREIGN KEY (account_id) REFERENCES account_analytic_account(id) ON DELETE SET NULL</text>
</g>
<!-- public.account_analytic_tag -->
<g id="node3" class="node">
<title>public.account_analytic_tag</title>
<polygon fill="#efefef" stroke="transparent" points="517,-522.5 517,-557.5 849,-557.5 849,-522.5 517,-522.5"/>
<polygon fill="none" stroke="#000000" points="517,-522.5 517,-557.5 849,-557.5 849,-522.5 517,-522.5"/>
<text text-anchor="start" x="523.8369" y="-535.3" font-family="Arial Bold" font-size="18.00" fill="#000000">public.account_analytic_tag</text>
<text text-anchor="start" x="744.9093" y="-535.3" font-family="Arial" font-size="14.00" fill="#000000"> </text>
<text text-anchor="start" x="748.7999" y="-535.3" font-family="Arial" font-size="14.00" fill="#666666">[BASE TABLE]</text>
<polygon fill="none" stroke="#000000" points="517,-492.5 517,-522.5 849,-522.5 849,-492.5 517,-492.5"/>
<text text-anchor="start" x="524" y="-503.9" font-family="Arial" font-size="14.00" fill="#000000">id </text>
<text text-anchor="start" x="538.7798" y="-503.9" font-family="Arial" font-size="14.00" fill="#666666">[integer]</text>
<polygon fill="none" stroke="#000000" points="517,-462.5 517,-492.5 849,-492.5 849,-462.5 517,-462.5"/>
<text text-anchor="start" x="524" y="-473.9" font-family="Arial" font-size="14.00" fill="#000000">name </text>
<text text-anchor="start" x="562.899" y="-473.9" font-family="Arial" font-size="14.00" fill="#666666">[varchar]</text>
<polygon fill="none" stroke="#000000" points="517,-432.5 517,-462.5 849,-462.5 849,-432.5 517,-432.5"/>
<text text-anchor="start" x="524" y="-443.9" font-family="Arial" font-size="14.00" fill="#000000">color </text>
<text text-anchor="start" x="558.223" y="-443.9" font-family="Arial" font-size="14.00" fill="#666666">[integer]</text>
<polygon fill="none" stroke="#000000" points="517,-402.5 517,-432.5 849,-432.5 849,-402.5 517,-402.5"/>
<text text-anchor="start" x="524" y="-413.9" font-family="Arial" font-size="14.00" fill="#000000">active </text>
<text text-anchor="start" x="564.453" y="-413.9" font-family="Arial" font-size="14.00" fill="#666666">[boolean]</text>
<polygon fill="none" stroke="#000000" points="517,-372.5 517,-402.5 849,-402.5 849,-372.5 517,-372.5"/>
<text text-anchor="start" x="524" y="-383.9" font-family="Arial" font-size="14.00" fill="#000000">active_analytic_distribution </text>
<text text-anchor="start" x="695.1444" y="-383.9" font-family="Arial" font-size="14.00" fill="#666666">[boolean]</text>
<polygon fill="none" stroke="#000000" points="517,-342.5 517,-372.5 849,-372.5 849,-342.5 517,-342.5"/>
<text text-anchor="start" x="524" y="-353.9" font-family="Arial" font-size="14.00" fill="#000000">company_id </text>
<text text-anchor="start" x="603.3534" y="-353.9" font-family="Arial" font-size="14.00" fill="#666666">[integer]</text>
<polygon fill="none" stroke="#000000" points="517,-312.5 517,-342.5 849,-342.5 849,-312.5 517,-312.5"/>
<text text-anchor="start" x="524" y="-323.9" font-family="Arial" font-size="14.00" fill="#000000">create_uid </text>
<text text-anchor="start" x="593.244" y="-323.9" font-family="Arial" font-size="14.00" fill="#666666">[integer]</text>
<polygon fill="none" stroke="#000000" points="517,-282.5 517,-312.5 849,-312.5 849,-282.5 517,-282.5"/>
<text text-anchor="start" x="524" y="-293.9" font-family="Arial" font-size="14.00" fill="#000000">create_date </text>
<text text-anchor="start" x="601.8106" y="-293.9" font-family="Arial" font-size="14.00" fill="#666666">[timestamp without time zone]</text>
<polygon fill="none" stroke="#000000" points="517,-252.5 517,-282.5 849,-282.5 849,-252.5 517,-252.5"/>
<text text-anchor="start" x="524" y="-263.9" font-family="Arial" font-size="14.00" fill="#000000">write_uid </text>
<text text-anchor="start" x="583.892" y="-263.9" font-family="Arial" font-size="14.00" fill="#666666">[integer]</text>
<polygon fill="none" stroke="#000000" points="517,-222.5 517,-252.5 849,-252.5 849,-222.5 517,-222.5"/>
<text text-anchor="start" x="524" y="-233.9" font-family="Arial" font-size="14.00" fill="#000000">write_date </text>
<text text-anchor="start" x="592.4586" y="-233.9" font-family="Arial" font-size="14.00" fill="#666666">[timestamp without time zone]</text>
</g>
<!-- public.account_analytic_distribution&#45;&gt;public.account_analytic_tag -->
<g id="edge2" class="edge">
<title>public.account_analytic_distribution:tag_id&#45;&gt;public.account_analytic_tag:id</title>
<path fill="none" stroke="#000000" d="M679.9936,-996.8807C614.6758,-988.1876 666.0966,-889.7944 690,-817 738.2464,-670.0728 1003.6458,-507.5 849,-507.5"/>
<polygon fill="#000000" stroke="#000000" points="680.0191,-996.8822 689.722,-1001.9914 685.0095,-997.1911 690,-997.5 690,-997.5 690,-997.5 685.0095,-997.1911 690.278,-993.0086 680.0191,-996.8822 680.0191,-996.8822"/>
<text text-anchor="start" x="286.3655" y="-1007.5" font-family="Arial" font-size="10.00" fill="#000000">FOREIGN KEY (tag_id) REFERENCES account_analytic_tag(id) ON DELETE SET NULL</text>
</g>
<!-- public.res_users -->
<g id="node4" class="node">
<title>public.res_users</title>
<polygon fill="#efefef" stroke="transparent" points="953,-702.5 953,-737.5 1229,-737.5 1229,-702.5 953,-702.5"/>
<polygon fill="none" stroke="#000000" points="953,-702.5 953,-737.5 1229,-737.5 1229,-702.5 953,-702.5"/>
<text text-anchor="start" x="976.8639" y="-715.3" font-family="Arial Bold" font-size="18.00" fill="#000000">public.res_users</text>
<text text-anchor="start" x="1107.8823" y="-715.3" font-family="Arial" font-size="14.00" fill="#000000"> </text>
<text text-anchor="start" x="1111.7729" y="-715.3" font-family="Arial" font-size="14.00" fill="#666666">[BASE TABLE]</text>
<polygon fill="none" stroke="#000000" points="953,-672.5 953,-702.5 1229,-702.5 1229,-672.5 953,-672.5"/>
<text text-anchor="start" x="960" y="-683.9" font-family="Arial" font-size="14.00" fill="#000000">id </text>
<text text-anchor="start" x="974.7798" y="-683.9" font-family="Arial" font-size="14.00" fill="#666666">[integer]</text>
<polygon fill="none" stroke="#000000" points="953,-642.5 953,-672.5 1229,-672.5 1229,-642.5 953,-642.5"/>
<text text-anchor="start" x="960" y="-653.9" font-family="Arial" font-size="14.00" fill="#000000">active </text>
<text text-anchor="start" x="1000.453" y="-653.9" font-family="Arial" font-size="14.00" fill="#666666">[boolean]</text>
<polygon fill="none" stroke="#000000" points="953,-612.5 953,-642.5 1229,-642.5 1229,-612.5 953,-612.5"/>
<text text-anchor="start" x="960" y="-623.9" font-family="Arial" font-size="14.00" fill="#000000">login </text>
<text text-anchor="start" x="993.4516" y="-623.9" font-family="Arial" font-size="14.00" fill="#666666">[varchar]</text>
<polygon fill="none" stroke="#000000" points="953,-582.5 953,-612.5 1229,-612.5 1229,-582.5 953,-582.5"/>
<text text-anchor="start" x="960" y="-593.9" font-family="Arial" font-size="14.00" fill="#000000">password </text>
<text text-anchor="start" x="1023.7882" y="-593.9" font-family="Arial" font-size="14.00" fill="#666666">[varchar]</text>
<polygon fill="none" stroke="#000000" points="953,-552.5 953,-582.5 1229,-582.5 1229,-552.5 953,-552.5"/>
<text text-anchor="start" x="960" y="-563.9" font-family="Arial" font-size="14.00" fill="#000000">company_id </text>
<text text-anchor="start" x="1039.3534" y="-563.9" font-family="Arial" font-size="14.00" fill="#666666">[integer]</text>
<polygon fill="none" stroke="#000000" points="953,-522.5 953,-552.5 1229,-552.5 1229,-522.5 953,-522.5"/>
<text text-anchor="start" x="960" y="-533.9" font-family="Arial" font-size="14.00" fill="#000000">partner_id </text>
<text text-anchor="start" x="1026.9046" y="-533.9" font-family="Arial" font-size="14.00" fill="#666666">[integer]</text>
<polygon fill="none" stroke="#000000" points="953,-492.5 953,-522.5 1229,-522.5 1229,-492.5 953,-492.5"/>
<text text-anchor="start" x="959.5246" y="-503.9" font-family="Arial" font-size="14.00" fill="#000000">create_date </text>
<text text-anchor="start" x="1037.3352" y="-503.9" font-family="Arial" font-size="14.00" fill="#666666">[timestamp without time zone]</text>
<polygon fill="none" stroke="#000000" points="953,-462.5 953,-492.5 1229,-492.5 1229,-462.5 953,-462.5"/>
<text text-anchor="start" x="960" y="-473.9" font-family="Arial" font-size="14.00" fill="#000000">signature </text>
<text text-anchor="start" x="1021.4614" y="-473.9" font-family="Arial" font-size="14.00" fill="#666666">[text]</text>
<polygon fill="none" stroke="#000000" points="953,-432.5 953,-462.5 1229,-462.5 1229,-432.5 953,-432.5"/>
<text text-anchor="start" x="960" y="-443.9" font-family="Arial" font-size="14.00" fill="#000000">action_id </text>
<text text-anchor="start" x="1019.9074" y="-443.9" font-family="Arial" font-size="14.00" fill="#666666">[integer]</text>
<polygon fill="none" stroke="#000000" points="953,-402.5 953,-432.5 1229,-432.5 1229,-402.5 953,-402.5"/>
<text text-anchor="start" x="960" y="-413.9" font-family="Arial" font-size="14.00" fill="#000000">share </text>
<text text-anchor="start" x="998.899" y="-413.9" font-family="Arial" font-size="14.00" fill="#666666">[boolean]</text>
<polygon fill="none" stroke="#000000" points="953,-372.5 953,-402.5 1229,-402.5 1229,-372.5 953,-372.5"/>
<text text-anchor="start" x="960" y="-383.9" font-family="Arial" font-size="14.00" fill="#000000">create_uid </text>
<text text-anchor="start" x="1029.244" y="-383.9" font-family="Arial" font-size="14.00" fill="#666666">[integer]</text>
<polygon fill="none" stroke="#000000" points="953,-342.5 953,-372.5 1229,-372.5 1229,-342.5 953,-342.5"/>
<text text-anchor="start" x="960" y="-353.9" font-family="Arial" font-size="14.00" fill="#000000">write_uid </text>
<text text-anchor="start" x="1019.892" y="-353.9" font-family="Arial" font-size="14.00" fill="#666666">[integer]</text>
<polygon fill="none" stroke="#000000" points="953,-312.5 953,-342.5 1229,-342.5 1229,-312.5 953,-312.5"/>
<text text-anchor="start" x="960" y="-323.9" font-family="Arial" font-size="14.00" fill="#000000">write_date </text>
<text text-anchor="start" x="1028.4586" y="-323.9" font-family="Arial" font-size="14.00" fill="#666666">[timestamp without time zone]</text>
<polygon fill="none" stroke="#000000" points="953,-282.5 953,-312.5 1229,-312.5 1229,-282.5 953,-282.5"/>
<text text-anchor="start" x="960" y="-293.9" font-family="Arial" font-size="14.00" fill="#000000">alias_id </text>
<text text-anchor="start" x="1011.3408" y="-293.9" font-family="Arial" font-size="14.00" fill="#666666">[integer]</text>
<polygon fill="none" stroke="#000000" points="953,-252.5 953,-282.5 1229,-282.5 1229,-252.5 953,-252.5"/>
<text text-anchor="start" x="960" y="-263.9" font-family="Arial" font-size="14.00" fill="#000000">notification_type </text>
<text text-anchor="start" x="1065.0336" y="-263.9" font-family="Arial" font-size="14.00" fill="#666666">[varchar]</text>
<polygon fill="none" stroke="#000000" points="953,-222.5 953,-252.5 1229,-252.5 1229,-222.5 953,-222.5"/>
<text text-anchor="start" x="960" y="-233.9" font-family="Arial" font-size="14.00" fill="#000000">odoobot_state </text>
<text text-anchor="start" x="1052.6058" y="-233.9" font-family="Arial" font-size="14.00" fill="#666666">[varchar]</text>
<polygon fill="none" stroke="#000000" points="953,-192.5 953,-222.5 1229,-222.5 1229,-192.5 953,-192.5"/>
<text text-anchor="start" x="960" y="-203.9" font-family="Arial" font-size="14.00" fill="#000000">sale_team_id </text>
<text text-anchor="start" x="1047.1332" y="-203.9" font-family="Arial" font-size="14.00" fill="#666666">[integer]</text>
<polygon fill="none" stroke="#000000" points="953,-162.5 953,-192.5 1229,-192.5 1229,-162.5 953,-162.5"/>
<text text-anchor="start" x="960" y="-173.9" font-family="Arial" font-size="14.00" fill="#000000">target_sales_won </text>
<text text-anchor="start" x="1073.589" y="-173.9" font-family="Arial" font-size="14.00" fill="#666666">[integer]</text>
<polygon fill="none" stroke="#000000" points="953,-132.5 953,-162.5 1229,-162.5 1229,-132.5 953,-132.5"/>
<text text-anchor="start" x="960" y="-143.9" font-family="Arial" font-size="14.00" fill="#000000">target_sales_done </text>
<text text-anchor="start" x="1079.0476" y="-143.9" font-family="Arial" font-size="14.00" fill="#666666">[integer]</text>
<polygon fill="none" stroke="#000000" points="953,-102.5 953,-132.5 1229,-132.5 1229,-102.5 953,-102.5"/>
<text text-anchor="start" x="960" y="-113.9" font-family="Arial" font-size="14.00" fill="#000000">website_id </text>
<text text-anchor="start" x="1030.014" y="-113.9" font-family="Arial" font-size="14.00" fill="#666666">[integer]</text>
<polygon fill="none" stroke="#000000" points="953,-72.5 953,-102.5 1229,-102.5 1229,-72.5 953,-72.5"/>
<text text-anchor="start" x="960" y="-83.9" font-family="Arial" font-size="14.00" fill="#000000">target_sales_invoiced </text>
<text text-anchor="start" x="1099.2608" y="-83.9" font-family="Arial" font-size="14.00" fill="#666666">[integer]</text>
<polygon fill="none" stroke="#000000" points="953,-42.5 953,-72.5 1229,-72.5 1229,-42.5 953,-42.5"/>
<text text-anchor="start" x="960" y="-53.9" font-family="Arial" font-size="14.00" fill="#000000">pos_security_pin </text>
<text text-anchor="start" x="1068.9158" y="-53.9" font-family="Arial" font-size="14.00" fill="#666666">[varchar(32)]</text>
</g>
<!-- public.account_analytic_distribution&#45;&gt;public.res_users -->
<g id="edge3" class="edge">
<title>public.account_analytic_distribution:create_uid&#45;&gt;public.res_users:id</title>
<path fill="none" stroke="#000000" d="M1094.1504,-966.6501C1147.9655,-956.9893 1122.3321,-867.2872 1084,-817 1047.3958,-768.9796 989.6042,-829.0204 953,-781 927.808,-747.9511 911.4444,-687.5 953,-687.5"/>
<polygon fill="#000000" stroke="#000000" points="1093.9651,-966.6655 1083.6245,-963.0157 1088.9826,-967.0828 1084,-967.5 1084,-967.5 1084,-967.5 1088.9826,-967.0828 1084.3755,-971.9843 1093.9651,-966.6655 1093.9651,-966.6655"/>
<text text-anchor="start" x="1090.657" y="-977.5" font-family="Arial" font-size="10.00" fill="#000000">FOREIGN KEY (create_uid) REFERENCES res_users(id) ON DELETE SET NULL</text>
</g>
<!-- public.account_analytic_distribution&#45;&gt;public.res_users -->
<g id="edge4" class="edge">
<title>public.account_analytic_distribution:write_uid&#45;&gt;public.res_users:id</title>
<path fill="none" stroke="#000000" d="M1094.2242,-905.9052C1121.0473,-896.3249 1106.0025,-845.8646 1084,-817 1047.3958,-768.9796 989.6042,-829.0204 953,-781 927.808,-747.9511 911.4444,-687.5 953,-687.5"/>
<polygon fill="#000000" stroke="#000000" points="1093.8805,-905.9587 1083.3064,-903.0538 1088.9403,-906.7293 1084,-907.5 1084,-907.5 1084,-907.5 1088.9403,-906.7293 1084.6936,-911.9462 1093.8805,-905.9587 1093.8805,-905.9587"/>
<text text-anchor="start" x="1090.997" y="-917.5" font-family="Arial" font-size="10.00" fill="#000000">FOREIGN KEY (write_uid) REFERENCES res_users(id) ON DELETE SET NULL</text>
</g>
</g>
</svg>
