<?xml version="1.0" encoding="UTF-8" standalone="no"?>
<!DOCTYPE svg PUBLIC "-//W3C//DTD SVG 1.1//EN"
 "http://www.w3.org/Graphics/SVG/1.1/DTD/svg11.dtd">
<!-- Generated by graphviz version 2.40.1 (20161225.0304)
 -->
<!-- Title: public.mail_followers Pages: 1 -->
<svg width="1226pt" height="2729pt"
 viewBox="0.00 0.00 1226.00 2729.00" xmlns="http://www.w3.org/2000/svg" xmlns:xlink="http://www.w3.org/1999/xlink">
<g id="graph0" class="graph" transform="scale(1 1) rotate(0) translate(4 2725)">
<title>public.mail_followers</title>
<polygon fill="#ffffff" stroke="transparent" points="-4,4 -4,-2725 1222,-2725 1222,4 -4,4"/>
<!-- public.mail_followers -->
<g id="node1" class="node">
<title>public.mail_followers</title>
<polygon fill="#efefef" stroke="transparent" points="544,-2422.5 544,-2457.5 821,-2457.5 821,-2422.5 544,-2422.5"/>
<polygon fill="none" stroke="#000000" points="544,-2422.5 544,-2457.5 821,-2457.5 821,-2422.5 544,-2422.5"/>
<text text-anchor="start" x="550.8742" y="-2435.3" font-family="Arial Bold" font-size="18.00" fill="#000000">public.mail_followers</text>
<text text-anchor="start" x="716.872" y="-2435.3" font-family="Arial" font-size="14.00" fill="#000000"> </text>
<text text-anchor="start" x="720.7626" y="-2435.3" font-family="Arial" font-size="14.00" fill="#666666">[BASE TABLE]</text>
<polygon fill="none" stroke="#000000" points="544,-2392.5 544,-2422.5 821,-2422.5 821,-2392.5 544,-2392.5"/>
<text text-anchor="start" x="551" y="-2403.9" font-family="Arial" font-size="14.00" fill="#000000">id </text>
<text text-anchor="start" x="565.7798" y="-2403.9" font-family="Arial" font-size="14.00" fill="#666666">[integer]</text>
<polygon fill="none" stroke="#000000" points="544,-2362.5 544,-2392.5 821,-2392.5 821,-2362.5 544,-2362.5"/>
<text text-anchor="start" x="551" y="-2373.9" font-family="Arial" font-size="14.00" fill="#000000">res_model </text>
<text text-anchor="start" x="620.2314" y="-2373.9" font-family="Arial" font-size="14.00" fill="#666666">[varchar]</text>
<polygon fill="none" stroke="#000000" points="544,-2332.5 544,-2362.5 821,-2362.5 821,-2332.5 544,-2332.5"/>
<text text-anchor="start" x="551" y="-2343.9" font-family="Arial" font-size="14.00" fill="#000000">res_id </text>
<text text-anchor="start" x="593.0056" y="-2343.9" font-family="Arial" font-size="14.00" fill="#666666">[integer]</text>
<polygon fill="none" stroke="#000000" points="544,-2302.5 544,-2332.5 821,-2332.5 821,-2302.5 544,-2302.5"/>
<text text-anchor="start" x="551" y="-2313.9" font-family="Arial" font-size="14.00" fill="#000000">partner_id </text>
<text text-anchor="start" x="617.9046" y="-2313.9" font-family="Arial" font-size="14.00" fill="#666666">[integer]</text>
<polygon fill="none" stroke="#000000" points="544,-2272.5 544,-2302.5 821,-2302.5 821,-2272.5 544,-2272.5"/>
<text text-anchor="start" x="551" y="-2283.9" font-family="Arial" font-size="14.00" fill="#000000">channel_id </text>
<text text-anchor="start" x="622.582" y="-2283.9" font-family="Arial" font-size="14.00" fill="#666666">[integer]</text>
<polygon fill="none" stroke="#000000" stroke-width="3" points="542,-2271.5 542,-2459.5 822,-2459.5 822,-2271.5 542,-2271.5"/>
</g>
<!-- public.res_partner -->
<g id="node3" class="node">
<title>public.res_partner</title>
<polygon fill="#efefef" stroke="transparent" points="286,-2112.5 286,-2147.5 654,-2147.5 654,-2112.5 286,-2112.5"/>
<polygon fill="none" stroke="#000000" points="286,-2112.5 286,-2147.5 654,-2147.5 654,-2112.5 286,-2112.5"/>
<text text-anchor="start" x="349.3605" y="-2125.3" font-family="Arial Bold" font-size="18.00" fill="#000000">public.res_partner</text>
<text text-anchor="start" x="493.3857" y="-2125.3" font-family="Arial" font-size="14.00" fill="#000000"> </text>
<text text-anchor="start" x="497.2763" y="-2125.3" font-family="Arial" font-size="14.00" fill="#666666">[BASE TABLE]</text>
<polygon fill="none" stroke="#000000" points="286,-2082.5 286,-2112.5 654,-2112.5 654,-2082.5 286,-2082.5"/>
<text text-anchor="start" x="293" y="-2093.9" font-family="Arial" font-size="14.00" fill="#000000">id </text>
<text text-anchor="start" x="307.7798" y="-2093.9" font-family="Arial" font-size="14.00" fill="#666666">[integer]</text>
<polygon fill="none" stroke="#000000" points="286,-2052.5 286,-2082.5 654,-2082.5 654,-2052.5 286,-2052.5"/>
<text text-anchor="start" x="293" y="-2063.9" font-family="Arial" font-size="14.00" fill="#000000">name </text>
<text text-anchor="start" x="331.899" y="-2063.9" font-family="Arial" font-size="14.00" fill="#666666">[varchar]</text>
<polygon fill="none" stroke="#000000" points="286,-2022.5 286,-2052.5 654,-2052.5 654,-2022.5 286,-2022.5"/>
<text text-anchor="start" x="293" y="-2033.9" font-family="Arial" font-size="14.00" fill="#000000">company_id </text>
<text text-anchor="start" x="372.3534" y="-2033.9" font-family="Arial" font-size="14.00" fill="#666666">[integer]</text>
<polygon fill="none" stroke="#000000" points="286,-1992.5 286,-2022.5 654,-2022.5 654,-1992.5 286,-1992.5"/>
<text text-anchor="start" x="293" y="-2003.9" font-family="Arial" font-size="14.00" fill="#000000">create_date </text>
<text text-anchor="start" x="370.8106" y="-2003.9" font-family="Arial" font-size="14.00" fill="#666666">[timestamp without time zone]</text>
<polygon fill="none" stroke="#000000" points="286,-1962.5 286,-1992.5 654,-1992.5 654,-1962.5 286,-1962.5"/>
<text text-anchor="start" x="293" y="-1973.9" font-family="Arial" font-size="14.00" fill="#000000">display_name </text>
<text text-anchor="start" x="383.2426" y="-1973.9" font-family="Arial" font-size="14.00" fill="#666666">[varchar]</text>
<polygon fill="none" stroke="#000000" points="286,-1932.5 286,-1962.5 654,-1962.5 654,-1932.5 286,-1932.5"/>
<text text-anchor="start" x="293" y="-1943.9" font-family="Arial" font-size="14.00" fill="#000000">date </text>
<text text-anchor="start" x="324.129" y="-1943.9" font-family="Arial" font-size="14.00" fill="#666666">[date]</text>
<polygon fill="none" stroke="#000000" points="286,-1902.5 286,-1932.5 654,-1932.5 654,-1902.5 286,-1902.5"/>
<text text-anchor="start" x="293" y="-1913.9" font-family="Arial" font-size="14.00" fill="#000000">title </text>
<text text-anchor="start" x="318.6676" y="-1913.9" font-family="Arial" font-size="14.00" fill="#666666">[integer]</text>
<polygon fill="none" stroke="#000000" points="286,-1872.5 286,-1902.5 654,-1902.5 654,-1872.5 286,-1872.5"/>
<text text-anchor="start" x="293" y="-1883.9" font-family="Arial" font-size="14.00" fill="#000000">parent_id </text>
<text text-anchor="start" x="355.244" y="-1883.9" font-family="Arial" font-size="14.00" fill="#666666">[integer]</text>
<polygon fill="none" stroke="#000000" points="286,-1842.5 286,-1872.5 654,-1872.5 654,-1842.5 286,-1842.5"/>
<text text-anchor="start" x="293" y="-1853.9" font-family="Arial" font-size="14.00" fill="#000000">ref </text>
<text text-anchor="start" x="313.2244" y="-1853.9" font-family="Arial" font-size="14.00" fill="#666666">[varchar]</text>
<polygon fill="none" stroke="#000000" points="286,-1812.5 286,-1842.5 654,-1842.5 654,-1812.5 286,-1812.5"/>
<text text-anchor="start" x="293" y="-1823.9" font-family="Arial" font-size="14.00" fill="#000000">lang </text>
<text text-anchor="start" x="323.345" y="-1823.9" font-family="Arial" font-size="14.00" fill="#666666">[varchar]</text>
<polygon fill="none" stroke="#000000" points="286,-1782.5 286,-1812.5 654,-1812.5 654,-1782.5 286,-1782.5"/>
<text text-anchor="start" x="293" y="-1793.9" font-family="Arial" font-size="14.00" fill="#000000">tz </text>
<text text-anchor="start" x="307.7812" y="-1793.9" font-family="Arial" font-size="14.00" fill="#666666">[varchar]</text>
<polygon fill="none" stroke="#000000" points="286,-1752.5 286,-1782.5 654,-1782.5 654,-1752.5 286,-1752.5"/>
<text text-anchor="start" x="293" y="-1763.9" font-family="Arial" font-size="14.00" fill="#000000">user_id </text>
<text text-anchor="start" x="342.7882" y="-1763.9" font-family="Arial" font-size="14.00" fill="#666666">[integer]</text>
<polygon fill="none" stroke="#000000" points="286,-1722.5 286,-1752.5 654,-1752.5 654,-1722.5 286,-1722.5"/>
<text text-anchor="start" x="293" y="-1733.9" font-family="Arial" font-size="14.00" fill="#000000">vat </text>
<text text-anchor="start" x="315.5638" y="-1733.9" font-family="Arial" font-size="14.00" fill="#666666">[varchar]</text>
<polygon fill="none" stroke="#000000" points="286,-1692.5 286,-1722.5 654,-1722.5 654,-1692.5 286,-1692.5"/>
<text text-anchor="start" x="293" y="-1703.9" font-family="Arial" font-size="14.00" fill="#000000">website </text>
<text text-anchor="start" x="344.3422" y="-1703.9" font-family="Arial" font-size="14.00" fill="#666666">[varchar]</text>
<polygon fill="none" stroke="#000000" points="286,-1662.5 286,-1692.5 654,-1692.5 654,-1662.5 286,-1662.5"/>
<text text-anchor="start" x="293" y="-1673.9" font-family="Arial" font-size="14.00" fill="#000000">comment </text>
<text text-anchor="start" x="354.4502" y="-1673.9" font-family="Arial" font-size="14.00" fill="#666666">[text]</text>
<polygon fill="none" stroke="#000000" points="286,-1632.5 286,-1662.5 654,-1662.5 654,-1632.5 286,-1632.5"/>
<text text-anchor="start" x="293" y="-1643.9" font-family="Arial" font-size="14.00" fill="#000000">credit_limit </text>
<text text-anchor="start" x="363.7672" y="-1643.9" font-family="Arial" font-size="14.00" fill="#666666">[double precision]</text>
<polygon fill="none" stroke="#000000" points="286,-1602.5 286,-1632.5 654,-1632.5 654,-1602.5 286,-1602.5"/>
<text text-anchor="start" x="293" y="-1613.9" font-family="Arial" font-size="14.00" fill="#000000">barcode </text>
<text text-anchor="start" x="347.4642" y="-1613.9" font-family="Arial" font-size="14.00" fill="#666666">[varchar]</text>
<polygon fill="none" stroke="#000000" points="286,-1572.5 286,-1602.5 654,-1602.5 654,-1572.5 286,-1572.5"/>
<text text-anchor="start" x="293" y="-1583.9" font-family="Arial" font-size="14.00" fill="#000000">active </text>
<text text-anchor="start" x="333.453" y="-1583.9" font-family="Arial" font-size="14.00" fill="#666666">[boolean]</text>
<polygon fill="none" stroke="#000000" points="286,-1542.5 286,-1572.5 654,-1572.5 654,-1542.5 286,-1542.5"/>
<text text-anchor="start" x="293" y="-1553.9" font-family="Arial" font-size="14.00" fill="#000000">customer </text>
<text text-anchor="start" x="354.4502" y="-1553.9" font-family="Arial" font-size="14.00" fill="#666666">[boolean]</text>
<polygon fill="none" stroke="#000000" points="286,-1512.5 286,-1542.5 654,-1542.5 654,-1512.5 286,-1512.5"/>
<text text-anchor="start" x="293" y="-1523.9" font-family="Arial" font-size="14.00" fill="#000000">supplier </text>
<text text-anchor="start" x="345.8948" y="-1523.9" font-family="Arial" font-size="14.00" fill="#666666">[boolean]</text>
<polygon fill="none" stroke="#000000" points="286,-1482.5 286,-1512.5 654,-1512.5 654,-1482.5 286,-1482.5"/>
<text text-anchor="start" x="293" y="-1493.9" font-family="Arial" font-size="14.00" fill="#000000">employee </text>
<text text-anchor="start" x="357.5708" y="-1493.9" font-family="Arial" font-size="14.00" fill="#666666">[boolean]</text>
<polygon fill="none" stroke="#000000" points="286,-1452.5 286,-1482.5 654,-1482.5 654,-1452.5 286,-1452.5"/>
<text text-anchor="start" x="293" y="-1463.9" font-family="Arial" font-size="14.00" fill="#000000">function </text>
<text text-anchor="start" x="345.9088" y="-1463.9" font-family="Arial" font-size="14.00" fill="#666666">[varchar]</text>
<polygon fill="none" stroke="#000000" points="286,-1422.5 286,-1452.5 654,-1452.5 654,-1422.5 286,-1422.5"/>
<text text-anchor="start" x="293" y="-1433.9" font-family="Arial" font-size="14.00" fill="#000000">type </text>
<text text-anchor="start" x="323.3464" y="-1433.9" font-family="Arial" font-size="14.00" fill="#666666">[varchar]</text>
<polygon fill="none" stroke="#000000" points="286,-1392.5 286,-1422.5 654,-1422.5 654,-1392.5 286,-1392.5"/>
<text text-anchor="start" x="293" y="-1403.9" font-family="Arial" font-size="14.00" fill="#000000">street </text>
<text text-anchor="start" x="331.8976" y="-1403.9" font-family="Arial" font-size="14.00" fill="#666666">[varchar]</text>
<polygon fill="none" stroke="#000000" points="286,-1362.5 286,-1392.5 654,-1392.5 654,-1362.5 286,-1362.5"/>
<text text-anchor="start" x="293" y="-1373.9" font-family="Arial" font-size="14.00" fill="#000000">street2 </text>
<text text-anchor="start" x="339.6802" y="-1373.9" font-family="Arial" font-size="14.00" fill="#666666">[varchar]</text>
<polygon fill="none" stroke="#000000" points="286,-1332.5 286,-1362.5 654,-1362.5 654,-1332.5 286,-1332.5"/>
<text text-anchor="start" x="293" y="-1343.9" font-family="Arial" font-size="14.00" fill="#000000">zip </text>
<text text-anchor="start" x="314.7798" y="-1343.9" font-family="Arial" font-size="14.00" fill="#666666">[varchar]</text>
<polygon fill="none" stroke="#000000" points="286,-1302.5 286,-1332.5 654,-1332.5 654,-1302.5 286,-1302.5"/>
<text text-anchor="start" x="293" y="-1313.9" font-family="Arial" font-size="14.00" fill="#000000">city </text>
<text text-anchor="start" x="317.8878" y="-1313.9" font-family="Arial" font-size="14.00" fill="#666666">[varchar]</text>
<polygon fill="none" stroke="#000000" points="286,-1272.5 286,-1302.5 654,-1302.5 654,-1272.5 286,-1272.5"/>
<text text-anchor="start" x="293" y="-1283.9" font-family="Arial" font-size="14.00" fill="#000000">state_id </text>
<text text-anchor="start" x="345.9088" y="-1283.9" font-family="Arial" font-size="14.00" fill="#666666">[integer]</text>
<polygon fill="none" stroke="#000000" points="286,-1242.5 286,-1272.5 654,-1272.5 654,-1242.5 286,-1242.5"/>
<text text-anchor="start" x="293" y="-1253.9" font-family="Arial" font-size="14.00" fill="#000000">country_id </text>
<text text-anchor="start" x="361.4614" y="-1253.9" font-family="Arial" font-size="14.00" fill="#666666">[integer]</text>
<polygon fill="none" stroke="#000000" points="286,-1212.5 286,-1242.5 654,-1242.5 654,-1212.5 286,-1212.5"/>
<text text-anchor="start" x="293" y="-1223.9" font-family="Arial" font-size="14.00" fill="#000000">email </text>
<text text-anchor="start" x="330.3296" y="-1223.9" font-family="Arial" font-size="14.00" fill="#666666">[varchar]</text>
<polygon fill="none" stroke="#000000" points="286,-1182.5 286,-1212.5 654,-1212.5 654,-1182.5 286,-1182.5"/>
<text text-anchor="start" x="293" y="-1193.9" font-family="Arial" font-size="14.00" fill="#000000">phone </text>
<text text-anchor="start" x="335.8036" y="-1193.9" font-family="Arial" font-size="14.00" fill="#666666">[varchar]</text>
<polygon fill="none" stroke="#000000" points="286,-1152.5 286,-1182.5 654,-1182.5 654,-1152.5 286,-1152.5"/>
<text text-anchor="start" x="293" y="-1163.9" font-family="Arial" font-size="14.00" fill="#000000">mobile </text>
<text text-anchor="start" x="338.1122" y="-1163.9" font-family="Arial" font-size="14.00" fill="#666666">[varchar]</text>
<polygon fill="none" stroke="#000000" points="286,-1122.5 286,-1152.5 654,-1152.5 654,-1122.5 286,-1122.5"/>
<text text-anchor="start" x="293" y="-1133.9" font-family="Arial" font-size="14.00" fill="#000000">is_company </text>
<text text-anchor="start" x="371.5708" y="-1133.9" font-family="Arial" font-size="14.00" fill="#666666">[boolean]</text>
<polygon fill="none" stroke="#000000" points="286,-1092.5 286,-1122.5 654,-1122.5 654,-1092.5 286,-1092.5"/>
<text text-anchor="start" x="293" y="-1103.9" font-family="Arial" font-size="14.00" fill="#000000">industry_id </text>
<text text-anchor="start" x="364.568" y="-1103.9" font-family="Arial" font-size="14.00" fill="#666666">[integer]</text>
<polygon fill="none" stroke="#000000" points="286,-1062.5 286,-1092.5 654,-1092.5 654,-1062.5 286,-1062.5"/>
<text text-anchor="start" x="293" y="-1073.9" font-family="Arial" font-size="14.00" fill="#000000">color </text>
<text text-anchor="start" x="327.223" y="-1073.9" font-family="Arial" font-size="14.00" fill="#666666">[integer]</text>
<polygon fill="none" stroke="#000000" points="286,-1032.5 286,-1062.5 654,-1062.5 654,-1032.5 286,-1032.5"/>
<text text-anchor="start" x="293" y="-1043.9" font-family="Arial" font-size="14.00" fill="#000000">partner_share </text>
<text text-anchor="start" x="384.0238" y="-1043.9" font-family="Arial" font-size="14.00" fill="#666666">[boolean]</text>
<polygon fill="none" stroke="#000000" points="286,-1002.5 286,-1032.5 654,-1032.5 654,-1002.5 286,-1002.5"/>
<text text-anchor="start" x="293" y="-1013.9" font-family="Arial" font-size="14.00" fill="#000000">commercial_partner_id </text>
<text text-anchor="start" x="439.23" y="-1013.9" font-family="Arial" font-size="14.00" fill="#666666">[integer]</text>
<polygon fill="none" stroke="#000000" points="286,-972.5 286,-1002.5 654,-1002.5 654,-972.5 286,-972.5"/>
<text text-anchor="start" x="293" y="-983.9" font-family="Arial" font-size="14.00" fill="#000000">commercial_company_name </text>
<text text-anchor="start" x="475.798" y="-983.9" font-family="Arial" font-size="14.00" fill="#666666">[varchar]</text>
<polygon fill="none" stroke="#000000" points="286,-942.5 286,-972.5 654,-972.5 654,-942.5 286,-942.5"/>
<text text-anchor="start" x="293" y="-953.9" font-family="Arial" font-size="14.00" fill="#000000">company_name </text>
<text text-anchor="start" x="396.4726" y="-953.9" font-family="Arial" font-size="14.00" fill="#666666">[varchar]</text>
<polygon fill="none" stroke="#000000" points="286,-912.5 286,-942.5 654,-942.5 654,-912.5 286,-912.5"/>
<text text-anchor="start" x="293" y="-923.9" font-family="Arial" font-size="14.00" fill="#000000">create_uid </text>
<text text-anchor="start" x="362.244" y="-923.9" font-family="Arial" font-size="14.00" fill="#666666">[integer]</text>
<polygon fill="none" stroke="#000000" points="286,-882.5 286,-912.5 654,-912.5 654,-882.5 286,-882.5"/>
<text text-anchor="start" x="293" y="-893.9" font-family="Arial" font-size="14.00" fill="#000000">write_uid </text>
<text text-anchor="start" x="352.892" y="-893.9" font-family="Arial" font-size="14.00" fill="#666666">[integer]</text>
<polygon fill="none" stroke="#000000" points="286,-852.5 286,-882.5 654,-882.5 654,-852.5 286,-852.5"/>
<text text-anchor="start" x="293" y="-863.9" font-family="Arial" font-size="14.00" fill="#000000">write_date </text>
<text text-anchor="start" x="361.4586" y="-863.9" font-family="Arial" font-size="14.00" fill="#666666">[timestamp without time zone]</text>
<polygon fill="none" stroke="#000000" points="286,-822.5 286,-852.5 654,-852.5 654,-822.5 286,-822.5"/>
<text text-anchor="start" x="293" y="-833.9" font-family="Arial" font-size="14.00" fill="#000000">message_main_attachment_id </text>
<text text-anchor="start" x="487.4964" y="-833.9" font-family="Arial" font-size="14.00" fill="#666666">[integer]</text>
<polygon fill="none" stroke="#000000" points="286,-792.5 286,-822.5 654,-822.5 654,-792.5 286,-792.5"/>
<text text-anchor="start" x="293" y="-803.9" font-family="Arial" font-size="14.00" fill="#000000">message_bounce </text>
<text text-anchor="start" x="407.3772" y="-803.9" font-family="Arial" font-size="14.00" fill="#666666">[integer]</text>
<polygon fill="none" stroke="#000000" points="286,-762.5 286,-792.5 654,-792.5 654,-762.5 286,-762.5"/>
<text text-anchor="start" x="293" y="-773.9" font-family="Arial" font-size="14.00" fill="#000000">signup_token </text>
<text text-anchor="start" x="380.1486" y="-773.9" font-family="Arial" font-size="14.00" fill="#666666">[varchar]</text>
<polygon fill="none" stroke="#000000" points="286,-732.5 286,-762.5 654,-762.5 654,-732.5 286,-732.5"/>
<text text-anchor="start" x="293" y="-743.9" font-family="Arial" font-size="14.00" fill="#000000">signup_type </text>
<text text-anchor="start" x="372.366" y="-743.9" font-family="Arial" font-size="14.00" fill="#666666">[varchar]</text>
<polygon fill="none" stroke="#000000" points="286,-702.5 286,-732.5 654,-732.5 654,-702.5 286,-702.5"/>
<text text-anchor="start" x="293" y="-713.9" font-family="Arial" font-size="14.00" fill="#000000">signup_expiration </text>
<text text-anchor="start" x="406.5876" y="-713.9" font-family="Arial" font-size="14.00" fill="#666666">[timestamp without time zone]</text>
<polygon fill="none" stroke="#000000" points="286,-672.5 286,-702.5 654,-702.5 654,-672.5 286,-672.5"/>
<text text-anchor="start" x="293" y="-683.9" font-family="Arial" font-size="14.00" fill="#000000">calendar_last_notif_ack </text>
<text text-anchor="start" x="443.934" y="-683.9" font-family="Arial" font-size="14.00" fill="#666666">[timestamp without time zone]</text>
<polygon fill="none" stroke="#000000" points="286,-642.5 286,-672.5 654,-672.5 654,-642.5 286,-642.5"/>
<text text-anchor="start" x="293" y="-653.9" font-family="Arial" font-size="14.00" fill="#000000">partner_gid </text>
<text text-anchor="start" x="367.6872" y="-653.9" font-family="Arial" font-size="14.00" fill="#666666">[integer]</text>
<polygon fill="none" stroke="#000000" points="286,-612.5 286,-642.5 654,-642.5 654,-612.5 286,-612.5"/>
<text text-anchor="start" x="293" y="-623.9" font-family="Arial" font-size="14.00" fill="#000000">additional_info </text>
<text text-anchor="start" x="387.1416" y="-623.9" font-family="Arial" font-size="14.00" fill="#666666">[varchar]</text>
<polygon fill="none" stroke="#000000" points="286,-582.5 286,-612.5 654,-612.5 654,-582.5 286,-582.5"/>
<text text-anchor="start" x="293" y="-593.9" font-family="Arial" font-size="14.00" fill="#000000">team_id </text>
<text text-anchor="start" x="346.6788" y="-593.9" font-family="Arial" font-size="14.00" fill="#666666">[integer]</text>
<polygon fill="none" stroke="#000000" points="286,-552.5 286,-582.5 654,-582.5 654,-552.5 286,-552.5"/>
<text text-anchor="start" x="293" y="-563.9" font-family="Arial" font-size="14.00" fill="#000000">website_id </text>
<text text-anchor="start" x="363.014" y="-563.9" font-family="Arial" font-size="14.00" fill="#666666">[integer]</text>
<polygon fill="none" stroke="#000000" points="286,-522.5 286,-552.5 654,-552.5 654,-522.5 286,-522.5"/>
<text text-anchor="start" x="293" y="-533.9" font-family="Arial" font-size="14.00" fill="#000000">debit_limit </text>
<text text-anchor="start" x="359.8892" y="-533.9" font-family="Arial" font-size="14.00" fill="#666666">[numeric]</text>
<polygon fill="none" stroke="#000000" points="286,-492.5 286,-522.5 654,-522.5 654,-492.5 286,-492.5"/>
<text text-anchor="start" x="292.6326" y="-503.9" font-family="Arial" font-size="14.00" fill="#000000">last_time_entries_checked </text>
<text text-anchor="start" x="462.2272" y="-503.9" font-family="Arial" font-size="14.00" fill="#666666">[timestamp without time zone]</text>
<polygon fill="none" stroke="#000000" points="286,-462.5 286,-492.5 654,-492.5 654,-462.5 286,-462.5"/>
<text text-anchor="start" x="293" y="-473.9" font-family="Arial" font-size="14.00" fill="#000000">invoice_warn </text>
<text text-anchor="start" x="378.5666" y="-473.9" font-family="Arial" font-size="14.00" fill="#666666">[varchar]</text>
<polygon fill="none" stroke="#000000" points="286,-432.5 286,-462.5 654,-462.5 654,-432.5 286,-432.5"/>
<text text-anchor="start" x="293" y="-443.9" font-family="Arial" font-size="14.00" fill="#000000">invoice_warn_msg </text>
<text text-anchor="start" x="412.7924" y="-443.9" font-family="Arial" font-size="14.00" fill="#666666">[text]</text>
<polygon fill="none" stroke="#000000" points="286,-402.5 286,-432.5 654,-432.5 654,-402.5 286,-402.5"/>
<text text-anchor="start" x="293" y="-413.9" font-family="Arial" font-size="14.00" fill="#000000">sale_warn </text>
<text text-anchor="start" x="360.6774" y="-413.9" font-family="Arial" font-size="14.00" fill="#666666">[varchar]</text>
<polygon fill="none" stroke="#000000" points="286,-372.5 286,-402.5 654,-402.5 654,-372.5 286,-372.5"/>
<text text-anchor="start" x="293" y="-383.9" font-family="Arial" font-size="14.00" fill="#000000">sale_warn_msg </text>
<text text-anchor="start" x="394.9032" y="-383.9" font-family="Arial" font-size="14.00" fill="#666666">[text]</text>
<polygon fill="none" stroke="#000000" points="286,-342.5 286,-372.5 654,-372.5 654,-342.5 286,-342.5"/>
<text text-anchor="start" x="293" y="-353.9" font-family="Arial" font-size="14.00" fill="#000000">picking_warn </text>
<text text-anchor="start" x="378.5666" y="-353.9" font-family="Arial" font-size="14.00" fill="#666666">[varchar]</text>
<polygon fill="none" stroke="#000000" points="286,-312.5 286,-342.5 654,-342.5 654,-312.5 286,-312.5"/>
<text text-anchor="start" x="293" y="-323.9" font-family="Arial" font-size="14.00" fill="#000000">picking_warn_msg </text>
<text text-anchor="start" x="412.7924" y="-323.9" font-family="Arial" font-size="14.00" fill="#666666">[text]</text>
<polygon fill="none" stroke="#000000" points="286,-282.5 286,-312.5 654,-312.5 654,-282.5 286,-282.5"/>
<text text-anchor="start" x="293" y="-293.9" font-family="Arial" font-size="14.00" fill="#000000">purchase_warn </text>
<text text-anchor="start" x="392.5792" y="-293.9" font-family="Arial" font-size="14.00" fill="#666666">[varchar]</text>
<polygon fill="none" stroke="#000000" points="286,-252.5 286,-282.5 654,-282.5 654,-252.5 286,-252.5"/>
<text text-anchor="start" x="293" y="-263.9" font-family="Arial" font-size="14.00" fill="#000000">purchase_warn_msg </text>
<text text-anchor="start" x="426.805" y="-263.9" font-family="Arial" font-size="14.00" fill="#666666">[text]</text>
<polygon fill="none" stroke="#000000" points="286,-222.5 286,-252.5 654,-252.5 654,-222.5 286,-222.5"/>
<text text-anchor="start" x="293" y="-233.9" font-family="Arial" font-size="14.00" fill="#000000">is_published </text>
<text text-anchor="start" x="374.6886" y="-233.9" font-family="Arial" font-size="14.00" fill="#666666">[boolean]</text>
<polygon fill="none" stroke="#000000" points="286,-192.5 286,-222.5 654,-222.5 654,-192.5 286,-192.5"/>
<text text-anchor="start" x="293" y="-203.9" font-family="Arial" font-size="14.00" fill="#000000">website_meta_title </text>
<text text-anchor="start" x="412.8008" y="-203.9" font-family="Arial" font-size="14.00" fill="#666666">[varchar]</text>
<polygon fill="none" stroke="#000000" points="286,-162.5 286,-192.5 654,-192.5 654,-162.5 286,-162.5"/>
<text text-anchor="start" x="293" y="-173.9" font-family="Arial" font-size="14.00" fill="#000000">website_meta_description </text>
<text text-anchor="start" x="458.7012" y="-173.9" font-family="Arial" font-size="14.00" fill="#666666">[text]</text>
<polygon fill="none" stroke="#000000" points="286,-132.5 286,-162.5 654,-162.5 654,-132.5 286,-132.5"/>
<text text-anchor="start" x="293" y="-143.9" font-family="Arial" font-size="14.00" fill="#000000">website_meta_keywords </text>
<text text-anchor="start" x="450.1388" y="-143.9" font-family="Arial" font-size="14.00" fill="#666666">[varchar]</text>
<polygon fill="none" stroke="#000000" points="286,-102.5 286,-132.5 654,-132.5 654,-102.5 286,-102.5"/>
<text text-anchor="start" x="293" y="-113.9" font-family="Arial" font-size="14.00" fill="#000000">website_meta_og_img </text>
<text text-anchor="start" x="436.9214" y="-113.9" font-family="Arial" font-size="14.00" fill="#666666">[varchar]</text>
<polygon fill="none" stroke="#000000" points="286,-72.5 286,-102.5 654,-102.5 654,-72.5 286,-72.5"/>
<text text-anchor="start" x="293" y="-83.9" font-family="Arial" font-size="14.00" fill="#000000">website_description </text>
<text text-anchor="start" x="419.8022" y="-83.9" font-family="Arial" font-size="14.00" fill="#666666">[text]</text>
<polygon fill="none" stroke="#000000" points="286,-42.5 286,-72.5 654,-72.5 654,-42.5 286,-42.5"/>
<text text-anchor="start" x="293" y="-53.9" font-family="Arial" font-size="14.00" fill="#000000">website_short_description </text>
<text text-anchor="start" x="458.7012" y="-53.9" font-family="Arial" font-size="14.00" fill="#666666">[text]</text>
</g>
<!-- public.mail_followers&#45;&gt;public.res_partner -->
<g id="edge2" class="edge">
<title>public.mail_followers:partner_id&#45;&gt;public.res_partner:id</title>
<path fill="none" stroke="#000000" d="M533.7958,-2315.9201C507.0895,-2306.4266 522.698,-2256.3854 544,-2227 574.1917,-2185.3516 623.8083,-2232.6484 654,-2191 678.39,-2157.3549 695.5556,-2097.5 654,-2097.5"/>
<polygon fill="#000000" stroke="#000000" points="534.1178,-2315.9698 543.3114,-2321.947 539.0589,-2316.7349 544,-2317.5 544,-2317.5 544,-2317.5 539.0589,-2316.7349 544.6886,-2313.053 534.1178,-2315.9698 534.1178,-2315.9698"/>
<text text-anchor="start" x="164.604" y="-2327.5" font-family="Arial" font-size="10.00" fill="#000000">FOREIGN KEY (partner_id) REFERENCES res_partner(id) ON DELETE CASCADE</text>
</g>
<!-- public.mail_channel -->
<g id="node4" class="node">
<title>public.mail_channel</title>
<polygon fill="#efefef" stroke="transparent" points="758,-1362.5 758,-1397.5 1034,-1397.5 1034,-1362.5 758,-1362.5"/>
<polygon fill="none" stroke="#000000" points="758,-1362.5 758,-1397.5 1034,-1397.5 1034,-1362.5 758,-1362.5"/>
<text text-anchor="start" x="768.3594" y="-1375.3" font-family="Arial Bold" font-size="18.00" fill="#000000">public.mail_channel</text>
<text text-anchor="start" x="926.3868" y="-1375.3" font-family="Arial" font-size="14.00" fill="#000000"> </text>
<text text-anchor="start" x="930.2774" y="-1375.3" font-family="Arial" font-size="14.00" fill="#666666">[BASE TABLE]</text>
<polygon fill="none" stroke="#000000" points="758,-1332.5 758,-1362.5 1034,-1362.5 1034,-1332.5 758,-1332.5"/>
<text text-anchor="start" x="765" y="-1343.9" font-family="Arial" font-size="14.00" fill="#000000">id </text>
<text text-anchor="start" x="779.7798" y="-1343.9" font-family="Arial" font-size="14.00" fill="#666666">[integer]</text>
<polygon fill="none" stroke="#000000" points="758,-1302.5 758,-1332.5 1034,-1332.5 1034,-1302.5 758,-1302.5"/>
<text text-anchor="start" x="765" y="-1313.9" font-family="Arial" font-size="14.00" fill="#000000">message_main_attachment_id </text>
<text text-anchor="start" x="959.4964" y="-1313.9" font-family="Arial" font-size="14.00" fill="#666666">[integer]</text>
<polygon fill="none" stroke="#000000" points="758,-1272.5 758,-1302.5 1034,-1302.5 1034,-1272.5 758,-1272.5"/>
<text text-anchor="start" x="765" y="-1283.9" font-family="Arial" font-size="14.00" fill="#000000">name </text>
<text text-anchor="start" x="803.899" y="-1283.9" font-family="Arial" font-size="14.00" fill="#666666">[varchar]</text>
<polygon fill="none" stroke="#000000" points="758,-1242.5 758,-1272.5 1034,-1272.5 1034,-1242.5 758,-1242.5"/>
<text text-anchor="start" x="765" y="-1253.9" font-family="Arial" font-size="14.00" fill="#000000">channel_type </text>
<text text-anchor="start" x="852.1486" y="-1253.9" font-family="Arial" font-size="14.00" fill="#666666">[varchar]</text>
<polygon fill="none" stroke="#000000" points="758,-1212.5 758,-1242.5 1034,-1242.5 1034,-1212.5 758,-1212.5"/>
<text text-anchor="start" x="765" y="-1223.9" font-family="Arial" font-size="14.00" fill="#000000">description </text>
<text text-anchor="start" x="836.568" y="-1223.9" font-family="Arial" font-size="14.00" fill="#666666">[text]</text>
<polygon fill="none" stroke="#000000" points="758,-1182.5 758,-1212.5 1034,-1212.5 1034,-1182.5 758,-1182.5"/>
<text text-anchor="start" x="765" y="-1193.9" font-family="Arial" font-size="14.00" fill="#000000">uuid </text>
<text text-anchor="start" x="795.345" y="-1193.9" font-family="Arial" font-size="14.00" fill="#666666">[varchar(50)]</text>
<polygon fill="none" stroke="#000000" points="758,-1152.5 758,-1182.5 1034,-1182.5 1034,-1152.5 758,-1152.5"/>
<text text-anchor="start" x="765" y="-1163.9" font-family="Arial" font-size="14.00" fill="#000000">email_send </text>
<text text-anchor="start" x="840.46" y="-1163.9" font-family="Arial" font-size="14.00" fill="#666666">[boolean]</text>
<polygon fill="none" stroke="#000000" points="758,-1122.5 758,-1152.5 1034,-1152.5 1034,-1122.5 758,-1122.5"/>
<text text-anchor="start" x="765" y="-1133.9" font-family="Arial" font-size="14.00" fill="#000000">public </text>
<text text-anchor="start" x="805.4516" y="-1133.9" font-family="Arial" font-size="14.00" fill="#666666">[varchar]</text>
<polygon fill="none" stroke="#000000" points="758,-1092.5 758,-1122.5 1034,-1122.5 1034,-1092.5 758,-1092.5"/>
<text text-anchor="start" x="765" y="-1103.9" font-family="Arial" font-size="14.00" fill="#000000">group_public_id </text>
<text text-anchor="start" x="867.697" y="-1103.9" font-family="Arial" font-size="14.00" fill="#666666">[integer]</text>
<polygon fill="none" stroke="#000000" points="758,-1062.5 758,-1092.5 1034,-1092.5 1034,-1062.5 758,-1062.5"/>
<text text-anchor="start" x="765" y="-1073.9" font-family="Arial" font-size="14.00" fill="#000000">moderation </text>
<text text-anchor="start" x="838.9046" y="-1073.9" font-family="Arial" font-size="14.00" fill="#666666">[boolean]</text>
<polygon fill="none" stroke="#000000" points="758,-1032.5 758,-1062.5 1034,-1062.5 1034,-1032.5 758,-1032.5"/>
<text text-anchor="start" x="765" y="-1043.9" font-family="Arial" font-size="14.00" fill="#000000">moderation_notify </text>
<text text-anchor="start" x="880.1402" y="-1043.9" font-family="Arial" font-size="14.00" fill="#666666">[boolean]</text>
<polygon fill="none" stroke="#000000" points="758,-1002.5 758,-1032.5 1034,-1032.5 1034,-1002.5 758,-1002.5"/>
<text text-anchor="start" x="765" y="-1013.9" font-family="Arial" font-size="14.00" fill="#000000">moderation_notify_msg </text>
<text text-anchor="start" x="914.366" y="-1013.9" font-family="Arial" font-size="14.00" fill="#666666">[text]</text>
<polygon fill="none" stroke="#000000" points="758,-972.5 758,-1002.5 1034,-1002.5 1034,-972.5 758,-972.5"/>
<text text-anchor="start" x="765" y="-983.9" font-family="Arial" font-size="14.00" fill="#000000">moderation_guidelines </text>
<text text-anchor="start" x="909.7026" y="-983.9" font-family="Arial" font-size="14.00" fill="#666666">[boolean]</text>
<polygon fill="none" stroke="#000000" points="758,-942.5 758,-972.5 1034,-972.5 1034,-942.5 758,-942.5"/>
<text text-anchor="start" x="765" y="-953.9" font-family="Arial" font-size="14.00" fill="#000000">moderation_guidelines_msg </text>
<text text-anchor="start" x="943.9284" y="-953.9" font-family="Arial" font-size="14.00" fill="#666666">[text]</text>
<polygon fill="none" stroke="#000000" points="758,-912.5 758,-942.5 1034,-942.5 1034,-912.5 758,-912.5"/>
<text text-anchor="start" x="765" y="-923.9" font-family="Arial" font-size="14.00" fill="#000000">alias_id </text>
<text text-anchor="start" x="816.3408" y="-923.9" font-family="Arial" font-size="14.00" fill="#666666">[integer]</text>
<polygon fill="none" stroke="#000000" points="758,-882.5 758,-912.5 1034,-912.5 1034,-882.5 758,-882.5"/>
<text text-anchor="start" x="765" y="-893.9" font-family="Arial" font-size="14.00" fill="#000000">create_uid </text>
<text text-anchor="start" x="834.244" y="-893.9" font-family="Arial" font-size="14.00" fill="#666666">[integer]</text>
<polygon fill="none" stroke="#000000" points="758,-852.5 758,-882.5 1034,-882.5 1034,-852.5 758,-852.5"/>
<text text-anchor="start" x="764.5246" y="-863.9" font-family="Arial" font-size="14.00" fill="#000000">create_date </text>
<text text-anchor="start" x="842.3352" y="-863.9" font-family="Arial" font-size="14.00" fill="#666666">[timestamp without time zone]</text>
<polygon fill="none" stroke="#000000" points="758,-822.5 758,-852.5 1034,-852.5 1034,-822.5 758,-822.5"/>
<text text-anchor="start" x="765" y="-833.9" font-family="Arial" font-size="14.00" fill="#000000">write_uid </text>
<text text-anchor="start" x="824.892" y="-833.9" font-family="Arial" font-size="14.00" fill="#666666">[integer]</text>
<polygon fill="none" stroke="#000000" points="758,-792.5 758,-822.5 1034,-822.5 1034,-792.5 758,-792.5"/>
<text text-anchor="start" x="765" y="-803.9" font-family="Arial" font-size="14.00" fill="#000000">write_date </text>
<text text-anchor="start" x="833.4586" y="-803.9" font-family="Arial" font-size="14.00" fill="#666666">[timestamp without time zone]</text>
</g>
<!-- public.mail_followers&#45;&gt;public.mail_channel -->
<g id="edge3" class="edge">
<title>public.mail_followers:channel_id&#45;&gt;public.mail_channel:id</title>
<path fill="none" stroke="#000000" d="M830.6751,-2284.0963C906.9946,-2222.5681 657.0014,-1347.5 758,-1347.5"/>
<polygon fill="#000000" stroke="#000000" points="830.4333,-2284.1813 819.5066,-2283.255 825.7166,-2285.8406 821,-2287.5 821,-2287.5 821,-2287.5 825.7166,-2285.8406 822.4934,-2291.745 830.4333,-2284.1813 830.4333,-2284.1813"/>
<text text-anchor="start" x="828.044" y="-2297.5" font-family="Arial" font-size="10.00" fill="#000000">FOREIGN KEY (channel_id) REFERENCES mail_channel(id) ON DELETE CASCADE</text>
</g>
<!-- public.mail_followers_mail_message_subtype_rel -->
<g id="node2" class="node">
<title>public.mail_followers_mail_message_subtype_rel</title>
<polygon fill="#efefef" stroke="transparent" points="430,-2642.5 430,-2677.5 936,-2677.5 936,-2642.5 430,-2642.5"/>
<polygon fill="none" stroke="#000000" points="430,-2642.5 430,-2677.5 936,-2677.5 936,-2642.5 430,-2642.5"/>
<text text-anchor="start" x="436.8501" y="-2655.3" font-family="Arial Bold" font-size="18.00" fill="#000000">public.mail_followers_mail_message_subtype_rel</text>
<text text-anchor="start" x="831.8961" y="-2655.3" font-family="Arial" font-size="14.00" fill="#000000"> </text>
<text text-anchor="start" x="835.7867" y="-2655.3" font-family="Arial" font-size="14.00" fill="#666666">[BASE TABLE]</text>
<polygon fill="none" stroke="#000000" points="430,-2612.5 430,-2642.5 936,-2642.5 936,-2612.5 430,-2612.5"/>
<text text-anchor="start" x="437" y="-2623.9" font-family="Arial" font-size="14.00" fill="#000000">mail_followers_id </text>
<text text-anchor="start" x="548.2202" y="-2623.9" font-family="Arial" font-size="14.00" fill="#666666">[integer]</text>
<polygon fill="none" stroke="#000000" points="430,-2582.5 430,-2612.5 936,-2612.5 936,-2582.5 430,-2582.5"/>
<text text-anchor="start" x="437" y="-2593.9" font-family="Arial" font-size="14.00" fill="#000000">mail_message_subtype_id </text>
<text text-anchor="start" x="606.596" y="-2593.9" font-family="Arial" font-size="14.00" fill="#666666">[integer]</text>
</g>
<!-- public.mail_followers_mail_message_subtype_rel&#45;&gt;public.mail_followers -->
<g id="edge1" class="edge">
<title>public.mail_followers_mail_message_subtype_rel:mail_followers_id&#45;&gt;public.mail_followers:id</title>
<path fill="none" stroke="#000000" d="M420.0468,-2625.9013C393.7169,-2616.3082 406.3516,-2565.9257 430,-2540 488.8032,-2475.534 762.1968,-2568.466 821,-2504 849.9034,-2472.3132 863.8889,-2407.5 821,-2407.5"/>
<polygon fill="#000000" stroke="#000000" points="420.1265,-2625.9141 429.2863,-2631.9431 425.0633,-2626.707 430,-2627.5 430,-2627.5 430,-2627.5 425.0633,-2626.707 430.7137,-2623.0569 420.1265,-2625.9141 420.1265,-2625.9141"/>
<text text-anchor="start" x="6.6735" y="-2637.5" font-family="Arial" font-size="10.00" fill="#000000">FOREIGN KEY (mail_followers_id) REFERENCES mail_followers(id) ON DELETE CASCADE</text>
</g>
</g>
</svg>
