<?xml version="1.0" encoding="UTF-8" standalone="no"?>
<!DOCTYPE svg PUBLIC "-//W3C//DTD SVG 1.1//EN"
 "http://www.w3.org/Graphics/SVG/1.1/DTD/svg11.dtd">
<!-- Generated by graphviz version 2.40.1 (20161225.0304)
 -->
<!-- Title: public.mail_tracking_value Pages: 1 -->
<svg width="1151pt" height="1732pt"
 viewBox="0.00 0.00 1151.00 1732.00" xmlns="http://www.w3.org/2000/svg" xmlns:xlink="http://www.w3.org/1999/xlink">
<g id="graph0" class="graph" transform="scale(1 1) rotate(0) translate(4 1728)">
<title>public.mail_tracking_value</title>
<polygon fill="#ffffff" stroke="transparent" points="-4,4 -4,-1728 1147,-1728 1147,4 -4,4"/>
<!-- public.mail_tracking_value -->
<g id="node1" class="node">
<title>public.mail_tracking_value</title>
<polygon fill="#efefef" stroke="transparent" points="432,-1642.5 432,-1677.5 763,-1677.5 763,-1642.5 432,-1642.5"/>
<polygon fill="none" stroke="#000000" points="432,-1642.5 432,-1677.5 763,-1677.5 763,-1642.5 432,-1642.5"/>
<text text-anchor="start" x="443.3589" y="-1655.3" font-family="Arial Bold" font-size="18.00" fill="#000000">public.mail_tracking_value</text>
<text text-anchor="start" x="654.3873" y="-1655.3" font-family="Arial" font-size="14.00" fill="#000000"> </text>
<text text-anchor="start" x="658.2779" y="-1655.3" font-family="Arial" font-size="14.00" fill="#666666">[BASE TABLE]</text>
<polygon fill="none" stroke="#000000" points="432,-1612.5 432,-1642.5 763,-1642.5 763,-1612.5 432,-1612.5"/>
<text text-anchor="start" x="439" y="-1623.9" font-family="Arial" font-size="14.00" fill="#000000">id </text>
<text text-anchor="start" x="453.7798" y="-1623.9" font-family="Arial" font-size="14.00" fill="#666666">[integer]</text>
<polygon fill="none" stroke="#000000" points="432,-1582.5 432,-1612.5 763,-1612.5 763,-1582.5 432,-1582.5"/>
<text text-anchor="start" x="439" y="-1593.9" font-family="Arial" font-size="14.00" fill="#000000">field </text>
<text text-anchor="start" x="468.5596" y="-1593.9" font-family="Arial" font-size="14.00" fill="#666666">[varchar]</text>
<polygon fill="none" stroke="#000000" points="432,-1552.5 432,-1582.5 763,-1582.5 763,-1552.5 432,-1552.5"/>
<text text-anchor="start" x="439" y="-1563.9" font-family="Arial" font-size="14.00" fill="#000000">field_desc </text>
<text text-anchor="start" x="505.9074" y="-1563.9" font-family="Arial" font-size="14.00" fill="#666666">[varchar]</text>
<polygon fill="none" stroke="#000000" points="432,-1522.5 432,-1552.5 763,-1552.5 763,-1522.5 432,-1522.5"/>
<text text-anchor="start" x="439" y="-1533.9" font-family="Arial" font-size="14.00" fill="#000000">field_type </text>
<text text-anchor="start" x="502.798" y="-1533.9" font-family="Arial" font-size="14.00" fill="#666666">[varchar]</text>
<polygon fill="none" stroke="#000000" points="432,-1492.5 432,-1522.5 763,-1522.5 763,-1492.5 432,-1492.5"/>
<text text-anchor="start" x="439" y="-1503.9" font-family="Arial" font-size="14.00" fill="#000000">old_value_integer </text>
<text text-anchor="start" x="553.3702" y="-1503.9" font-family="Arial" font-size="14.00" fill="#666666">[integer]</text>
<polygon fill="none" stroke="#000000" points="432,-1462.5 432,-1492.5 763,-1492.5 763,-1462.5 432,-1462.5"/>
<text text-anchor="start" x="439" y="-1473.9" font-family="Arial" font-size="14.00" fill="#000000">old_value_float </text>
<text text-anchor="start" x="537.035" y="-1473.9" font-family="Arial" font-size="14.00" fill="#666666">[double precision]</text>
<polygon fill="none" stroke="#000000" points="432,-1432.5 432,-1462.5 763,-1462.5 763,-1432.5 432,-1432.5"/>
<text text-anchor="start" x="439" y="-1443.9" font-family="Arial" font-size="14.00" fill="#000000">old_value_monetary </text>
<text text-anchor="start" x="568.9242" y="-1443.9" font-family="Arial" font-size="14.00" fill="#666666">[double precision]</text>
<polygon fill="none" stroke="#000000" points="432,-1402.5 432,-1432.5 763,-1432.5 763,-1402.5 432,-1402.5"/>
<text text-anchor="start" x="439" y="-1413.9" font-family="Arial" font-size="14.00" fill="#000000">old_value_char </text>
<text text-anchor="start" x="537.8078" y="-1413.9" font-family="Arial" font-size="14.00" fill="#666666">[varchar]</text>
<polygon fill="none" stroke="#000000" points="432,-1372.5 432,-1402.5 763,-1402.5 763,-1372.5 432,-1372.5"/>
<text text-anchor="start" x="439" y="-1383.9" font-family="Arial" font-size="14.00" fill="#000000">old_value_text </text>
<text text-anchor="start" x="533.1458" y="-1383.9" font-family="Arial" font-size="14.00" fill="#666666">[text]</text>
<polygon fill="none" stroke="#000000" points="432,-1342.5 432,-1372.5 763,-1372.5 763,-1342.5 432,-1342.5"/>
<text text-anchor="start" x="439" y="-1353.9" font-family="Arial" font-size="14.00" fill="#000000">old_value_datetime </text>
<text text-anchor="start" x="564.2608" y="-1353.9" font-family="Arial" font-size="14.00" fill="#666666">[timestamp without time zone]</text>
<polygon fill="none" stroke="#000000" points="432,-1312.5 432,-1342.5 763,-1342.5 763,-1312.5 432,-1312.5"/>
<text text-anchor="start" x="439" y="-1323.9" font-family="Arial" font-size="14.00" fill="#000000">new_value_integer </text>
<text text-anchor="start" x="560.3702" y="-1323.9" font-family="Arial" font-size="14.00" fill="#666666">[integer]</text>
<polygon fill="none" stroke="#000000" points="432,-1282.5 432,-1312.5 763,-1312.5 763,-1282.5 432,-1282.5"/>
<text text-anchor="start" x="439" y="-1293.9" font-family="Arial" font-size="14.00" fill="#000000">new_value_float </text>
<text text-anchor="start" x="544.035" y="-1293.9" font-family="Arial" font-size="14.00" fill="#666666">[double precision]</text>
<polygon fill="none" stroke="#000000" points="432,-1252.5 432,-1282.5 763,-1282.5 763,-1252.5 432,-1252.5"/>
<text text-anchor="start" x="439" y="-1263.9" font-family="Arial" font-size="14.00" fill="#000000">new_value_monetary </text>
<text text-anchor="start" x="575.9242" y="-1263.9" font-family="Arial" font-size="14.00" fill="#666666">[double precision]</text>
<polygon fill="none" stroke="#000000" points="432,-1222.5 432,-1252.5 763,-1252.5 763,-1222.5 432,-1222.5"/>
<text text-anchor="start" x="439" y="-1233.9" font-family="Arial" font-size="14.00" fill="#000000">new_value_char </text>
<text text-anchor="start" x="544.8078" y="-1233.9" font-family="Arial" font-size="14.00" fill="#666666">[varchar]</text>
<polygon fill="none" stroke="#000000" points="432,-1192.5 432,-1222.5 763,-1222.5 763,-1192.5 432,-1192.5"/>
<text text-anchor="start" x="439" y="-1203.9" font-family="Arial" font-size="14.00" fill="#000000">new_value_text </text>
<text text-anchor="start" x="540.1458" y="-1203.9" font-family="Arial" font-size="14.00" fill="#666666">[text]</text>
<polygon fill="none" stroke="#000000" points="432,-1162.5 432,-1192.5 763,-1192.5 763,-1162.5 432,-1162.5"/>
<text text-anchor="start" x="438.7995" y="-1173.9" font-family="Arial" font-size="14.00" fill="#000000">new_value_datetime </text>
<text text-anchor="start" x="571.0603" y="-1173.9" font-family="Arial" font-size="14.00" fill="#666666">[timestamp without time zone]</text>
<polygon fill="none" stroke="#000000" points="432,-1132.5 432,-1162.5 763,-1162.5 763,-1132.5 432,-1132.5"/>
<text text-anchor="start" x="439" y="-1143.9" font-family="Arial" font-size="14.00" fill="#000000">mail_message_id </text>
<text text-anchor="start" x="551.7924" y="-1143.9" font-family="Arial" font-size="14.00" fill="#666666">[integer]</text>
<polygon fill="none" stroke="#000000" points="432,-1102.5 432,-1132.5 763,-1132.5 763,-1102.5 432,-1102.5"/>
<text text-anchor="start" x="439" y="-1113.9" font-family="Arial" font-size="14.00" fill="#000000">track_sequence </text>
<text text-anchor="start" x="541.7026" y="-1113.9" font-family="Arial" font-size="14.00" fill="#666666">[integer]</text>
<polygon fill="none" stroke="#000000" points="432,-1072.5 432,-1102.5 763,-1102.5 763,-1072.5 432,-1072.5"/>
<text text-anchor="start" x="439" y="-1083.9" font-family="Arial" font-size="14.00" fill="#000000">create_uid </text>
<text text-anchor="start" x="508.244" y="-1083.9" font-family="Arial" font-size="14.00" fill="#666666">[integer]</text>
<polygon fill="none" stroke="#000000" points="432,-1042.5 432,-1072.5 763,-1072.5 763,-1042.5 432,-1042.5"/>
<text text-anchor="start" x="439" y="-1053.9" font-family="Arial" font-size="14.00" fill="#000000">create_date </text>
<text text-anchor="start" x="516.8106" y="-1053.9" font-family="Arial" font-size="14.00" fill="#666666">[timestamp without time zone]</text>
<polygon fill="none" stroke="#000000" points="432,-1012.5 432,-1042.5 763,-1042.5 763,-1012.5 432,-1012.5"/>
<text text-anchor="start" x="439" y="-1023.9" font-family="Arial" font-size="14.00" fill="#000000">write_uid </text>
<text text-anchor="start" x="498.892" y="-1023.9" font-family="Arial" font-size="14.00" fill="#666666">[integer]</text>
<polygon fill="none" stroke="#000000" points="432,-982.5 432,-1012.5 763,-1012.5 763,-982.5 432,-982.5"/>
<text text-anchor="start" x="439" y="-993.9" font-family="Arial" font-size="14.00" fill="#000000">write_date </text>
<text text-anchor="start" x="507.4586" y="-993.9" font-family="Arial" font-size="14.00" fill="#666666">[timestamp without time zone]</text>
<polygon fill="none" stroke="#000000" stroke-width="3" points="430,-981.5 430,-1679.5 764,-1679.5 764,-981.5 430,-981.5"/>
</g>
<!-- public.mail_message -->
<g id="node2" class="node">
<title>public.mail_message</title>
<polygon fill="#efefef" stroke="transparent" points="77,-822.5 77,-857.5 356,-857.5 356,-822.5 77,-822.5"/>
<polygon fill="none" stroke="#000000" points="77,-822.5 77,-857.5 356,-857.5 356,-822.5 77,-822.5"/>
<text text-anchor="start" x="83.8635" y="-835.3" font-family="Arial Bold" font-size="18.00" fill="#000000">public.mail_message</text>
<text text-anchor="start" x="251.8827" y="-835.3" font-family="Arial" font-size="14.00" fill="#000000"> </text>
<text text-anchor="start" x="255.7733" y="-835.3" font-family="Arial" font-size="14.00" fill="#666666">[BASE TABLE]</text>
<polygon fill="none" stroke="#000000" points="77,-792.5 77,-822.5 356,-822.5 356,-792.5 77,-792.5"/>
<text text-anchor="start" x="84" y="-803.9" font-family="Arial" font-size="14.00" fill="#000000">id </text>
<text text-anchor="start" x="98.7798" y="-803.9" font-family="Arial" font-size="14.00" fill="#666666">[integer]</text>
<polygon fill="none" stroke="#000000" points="77,-762.5 77,-792.5 356,-792.5 356,-762.5 77,-762.5"/>
<text text-anchor="start" x="84" y="-773.9" font-family="Arial" font-size="14.00" fill="#000000">subject </text>
<text text-anchor="start" x="132.2356" y="-773.9" font-family="Arial" font-size="14.00" fill="#666666">[varchar]</text>
<polygon fill="none" stroke="#000000" points="77,-732.5 77,-762.5 356,-762.5 356,-732.5 77,-732.5"/>
<text text-anchor="start" x="84" y="-743.9" font-family="Arial" font-size="14.00" fill="#000000">date </text>
<text text-anchor="start" x="115.129" y="-743.9" font-family="Arial" font-size="14.00" fill="#666666">[timestamp without time zone]</text>
<polygon fill="none" stroke="#000000" points="77,-702.5 77,-732.5 356,-732.5 356,-702.5 77,-702.5"/>
<text text-anchor="start" x="84" y="-713.9" font-family="Arial" font-size="14.00" fill="#000000">body </text>
<text text-anchor="start" x="118.2384" y="-713.9" font-family="Arial" font-size="14.00" fill="#666666">[text]</text>
<polygon fill="none" stroke="#000000" points="77,-672.5 77,-702.5 356,-702.5 356,-672.5 77,-672.5"/>
<text text-anchor="start" x="84" y="-683.9" font-family="Arial" font-size="14.00" fill="#000000">parent_id </text>
<text text-anchor="start" x="146.244" y="-683.9" font-family="Arial" font-size="14.00" fill="#666666">[integer]</text>
<polygon fill="none" stroke="#000000" points="77,-642.5 77,-672.5 356,-672.5 356,-642.5 77,-642.5"/>
<text text-anchor="start" x="84" y="-653.9" font-family="Arial" font-size="14.00" fill="#000000">model </text>
<text text-anchor="start" x="126.0056" y="-653.9" font-family="Arial" font-size="14.00" fill="#666666">[varchar]</text>
<polygon fill="none" stroke="#000000" points="77,-612.5 77,-642.5 356,-642.5 356,-612.5 77,-612.5"/>
<text text-anchor="start" x="84" y="-623.9" font-family="Arial" font-size="14.00" fill="#000000">res_id </text>
<text text-anchor="start" x="126.0056" y="-623.9" font-family="Arial" font-size="14.00" fill="#666666">[integer]</text>
<polygon fill="none" stroke="#000000" points="77,-582.5 77,-612.5 356,-612.5 356,-582.5 77,-582.5"/>
<text text-anchor="start" x="84" y="-593.9" font-family="Arial" font-size="14.00" fill="#000000">record_name </text>
<text text-anchor="start" x="170.3506" y="-593.9" font-family="Arial" font-size="14.00" fill="#666666">[varchar]</text>
<polygon fill="none" stroke="#000000" points="77,-552.5 77,-582.5 356,-582.5 356,-552.5 77,-552.5"/>
<text text-anchor="start" x="84" y="-563.9" font-family="Arial" font-size="14.00" fill="#000000">message_type </text>
<text text-anchor="start" x="178.92" y="-563.9" font-family="Arial" font-size="14.00" fill="#666666">[varchar]</text>
<polygon fill="none" stroke="#000000" points="77,-522.5 77,-552.5 356,-552.5 356,-522.5 77,-522.5"/>
<text text-anchor="start" x="84" y="-533.9" font-family="Arial" font-size="14.00" fill="#000000">subtype_id </text>
<text text-anchor="start" x="155.5834" y="-533.9" font-family="Arial" font-size="14.00" fill="#666666">[integer]</text>
<polygon fill="none" stroke="#000000" points="77,-492.5 77,-522.5 356,-522.5 356,-492.5 77,-492.5"/>
<text text-anchor="start" x="84" y="-503.9" font-family="Arial" font-size="14.00" fill="#000000">mail_activity_type_id </text>
<text text-anchor="start" x="217.0168" y="-503.9" font-family="Arial" font-size="14.00" fill="#666666">[integer]</text>
<polygon fill="none" stroke="#000000" points="77,-462.5 77,-492.5 356,-492.5 356,-462.5 77,-462.5"/>
<text text-anchor="start" x="84" y="-473.9" font-family="Arial" font-size="14.00" fill="#000000">email_from </text>
<text text-anchor="start" x="157.1066" y="-473.9" font-family="Arial" font-size="14.00" fill="#666666">[varchar]</text>
<polygon fill="none" stroke="#000000" points="77,-432.5 77,-462.5 356,-462.5 356,-432.5 77,-432.5"/>
<text text-anchor="start" x="84" y="-443.9" font-family="Arial" font-size="14.00" fill="#000000">author_id </text>
<text text-anchor="start" x="146.244" y="-443.9" font-family="Arial" font-size="14.00" fill="#666666">[integer]</text>
<polygon fill="none" stroke="#000000" points="77,-402.5 77,-432.5 356,-432.5 356,-402.5 77,-402.5"/>
<text text-anchor="start" x="84" y="-413.9" font-family="Arial" font-size="14.00" fill="#000000">no_auto_thread </text>
<text text-anchor="start" x="185.941" y="-413.9" font-family="Arial" font-size="14.00" fill="#666666">[boolean]</text>
<polygon fill="none" stroke="#000000" points="77,-372.5 77,-402.5 356,-402.5 356,-372.5 77,-372.5"/>
<text text-anchor="start" x="84" y="-383.9" font-family="Arial" font-size="14.00" fill="#000000">message_id </text>
<text text-anchor="start" x="163.3534" y="-383.9" font-family="Arial" font-size="14.00" fill="#666666">[varchar]</text>
<polygon fill="none" stroke="#000000" points="77,-342.5 77,-372.5 356,-372.5 356,-342.5 77,-342.5"/>
<text text-anchor="start" x="84" y="-353.9" font-family="Arial" font-size="14.00" fill="#000000">reply_to </text>
<text text-anchor="start" x="137.6788" y="-353.9" font-family="Arial" font-size="14.00" fill="#666666">[varchar]</text>
<polygon fill="none" stroke="#000000" points="77,-312.5 77,-342.5 356,-342.5 356,-312.5 77,-312.5"/>
<text text-anchor="start" x="84" y="-323.9" font-family="Arial" font-size="14.00" fill="#000000">mail_server_id </text>
<text text-anchor="start" x="178.8878" y="-323.9" font-family="Arial" font-size="14.00" fill="#666666">[integer]</text>
<polygon fill="none" stroke="#000000" points="77,-282.5 77,-312.5 356,-312.5 356,-282.5 77,-282.5"/>
<text text-anchor="start" x="84" y="-293.9" font-family="Arial" font-size="14.00" fill="#000000">moderation_status </text>
<text text-anchor="start" x="203.0336" y="-293.9" font-family="Arial" font-size="14.00" fill="#666666">[varchar]</text>
<polygon fill="none" stroke="#000000" points="77,-252.5 77,-282.5 356,-282.5 356,-252.5 77,-252.5"/>
<text text-anchor="start" x="84" y="-263.9" font-family="Arial" font-size="14.00" fill="#000000">moderator_id </text>
<text text-anchor="start" x="170.3478" y="-263.9" font-family="Arial" font-size="14.00" fill="#666666">[integer]</text>
<polygon fill="none" stroke="#000000" points="77,-222.5 77,-252.5 356,-252.5 356,-222.5 77,-222.5"/>
<text text-anchor="start" x="84" y="-233.9" font-family="Arial" font-size="14.00" fill="#000000">layout </text>
<text text-anchor="start" x="125.2356" y="-233.9" font-family="Arial" font-size="14.00" fill="#666666">[varchar]</text>
<polygon fill="none" stroke="#000000" points="77,-192.5 77,-222.5 356,-222.5 356,-192.5 77,-192.5"/>
<text text-anchor="start" x="84" y="-203.9" font-family="Arial" font-size="14.00" fill="#000000">add_sign </text>
<text text-anchor="start" x="144.6928" y="-203.9" font-family="Arial" font-size="14.00" fill="#666666">[boolean]</text>
<polygon fill="none" stroke="#000000" points="77,-162.5 77,-192.5 356,-192.5 356,-162.5 77,-162.5"/>
<text text-anchor="start" x="84" y="-173.9" font-family="Arial" font-size="14.00" fill="#000000">create_uid </text>
<text text-anchor="start" x="153.244" y="-173.9" font-family="Arial" font-size="14.00" fill="#666666">[integer]</text>
<polygon fill="none" stroke="#000000" points="77,-132.5 77,-162.5 356,-162.5 356,-132.5 77,-132.5"/>
<text text-anchor="start" x="84" y="-143.9" font-family="Arial" font-size="14.00" fill="#000000">create_date </text>
<text text-anchor="start" x="161.8106" y="-143.9" font-family="Arial" font-size="14.00" fill="#666666">[timestamp without time zone]</text>
<polygon fill="none" stroke="#000000" points="77,-102.5 77,-132.5 356,-132.5 356,-102.5 77,-102.5"/>
<text text-anchor="start" x="84" y="-113.9" font-family="Arial" font-size="14.00" fill="#000000">write_uid </text>
<text text-anchor="start" x="143.892" y="-113.9" font-family="Arial" font-size="14.00" fill="#666666">[integer]</text>
<polygon fill="none" stroke="#000000" points="77,-72.5 77,-102.5 356,-102.5 356,-72.5 77,-72.5"/>
<text text-anchor="start" x="84" y="-83.9" font-family="Arial" font-size="14.00" fill="#000000">write_date </text>
<text text-anchor="start" x="152.4586" y="-83.9" font-family="Arial" font-size="14.00" fill="#666666">[timestamp without time zone]</text>
<polygon fill="none" stroke="#000000" points="77,-42.5 77,-72.5 356,-72.5 356,-42.5 77,-42.5"/>
<text text-anchor="start" x="84" y="-53.9" font-family="Arial" font-size="14.00" fill="#000000">website_published </text>
<text text-anchor="start" x="203.0336" y="-53.9" font-family="Arial" font-size="14.00" fill="#666666">[boolean]</text>
</g>
<!-- public.mail_tracking_value&#45;&gt;public.mail_message -->
<g id="edge1" class="edge">
<title>public.mail_tracking_value:mail_message_id&#45;&gt;public.mail_message:id</title>
<path fill="none" stroke="#000000" d="M422.1106,-1145.3288C361.6278,-1116.3721 429.7911,-807.5 356,-807.5"/>
<polygon fill="#000000" stroke="#000000" points="422.2326,-1145.3555 431.035,-1151.8953 427.1163,-1146.4278 432,-1147.5 432,-1147.5 432,-1147.5 427.1163,-1146.4278 432.965,-1143.1047 422.2326,-1145.3555 422.2326,-1145.3555"/>
<text text-anchor="start" x="6.5505" y="-1157.5" font-family="Arial" font-size="10.00" fill="#000000">FOREIGN KEY (mail_message_id) REFERENCES mail_message(id) ON DELETE CASCADE</text>
</g>
<!-- public.res_users -->
<g id="node3" class="node">
<title>public.res_users</title>
<polygon fill="#efefef" stroke="transparent" points="460,-762.5 460,-797.5 736,-797.5 736,-762.5 460,-762.5"/>
<polygon fill="none" stroke="#000000" points="460,-762.5 460,-797.5 736,-797.5 736,-762.5 460,-762.5"/>
<text text-anchor="start" x="483.8639" y="-775.3" font-family="Arial Bold" font-size="18.00" fill="#000000">public.res_users</text>
<text text-anchor="start" x="614.8823" y="-775.3" font-family="Arial" font-size="14.00" fill="#000000"> </text>
<text text-anchor="start" x="618.7729" y="-775.3" font-family="Arial" font-size="14.00" fill="#666666">[BASE TABLE]</text>
<polygon fill="none" stroke="#000000" points="460,-732.5 460,-762.5 736,-762.5 736,-732.5 460,-732.5"/>
<text text-anchor="start" x="467" y="-743.9" font-family="Arial" font-size="14.00" fill="#000000">id </text>
<text text-anchor="start" x="481.7798" y="-743.9" font-family="Arial" font-size="14.00" fill="#666666">[integer]</text>
<polygon fill="none" stroke="#000000" points="460,-702.5 460,-732.5 736,-732.5 736,-702.5 460,-702.5"/>
<text text-anchor="start" x="467" y="-713.9" font-family="Arial" font-size="14.00" fill="#000000">active </text>
<text text-anchor="start" x="507.453" y="-713.9" font-family="Arial" font-size="14.00" fill="#666666">[boolean]</text>
<polygon fill="none" stroke="#000000" points="460,-672.5 460,-702.5 736,-702.5 736,-672.5 460,-672.5"/>
<text text-anchor="start" x="467" y="-683.9" font-family="Arial" font-size="14.00" fill="#000000">login </text>
<text text-anchor="start" x="500.4516" y="-683.9" font-family="Arial" font-size="14.00" fill="#666666">[varchar]</text>
<polygon fill="none" stroke="#000000" points="460,-642.5 460,-672.5 736,-672.5 736,-642.5 460,-642.5"/>
<text text-anchor="start" x="467" y="-653.9" font-family="Arial" font-size="14.00" fill="#000000">password </text>
<text text-anchor="start" x="530.7882" y="-653.9" font-family="Arial" font-size="14.00" fill="#666666">[varchar]</text>
<polygon fill="none" stroke="#000000" points="460,-612.5 460,-642.5 736,-642.5 736,-612.5 460,-612.5"/>
<text text-anchor="start" x="467" y="-623.9" font-family="Arial" font-size="14.00" fill="#000000">company_id </text>
<text text-anchor="start" x="546.3534" y="-623.9" font-family="Arial" font-size="14.00" fill="#666666">[integer]</text>
<polygon fill="none" stroke="#000000" points="460,-582.5 460,-612.5 736,-612.5 736,-582.5 460,-582.5"/>
<text text-anchor="start" x="467" y="-593.9" font-family="Arial" font-size="14.00" fill="#000000">partner_id </text>
<text text-anchor="start" x="533.9046" y="-593.9" font-family="Arial" font-size="14.00" fill="#666666">[integer]</text>
<polygon fill="none" stroke="#000000" points="460,-552.5 460,-582.5 736,-582.5 736,-552.5 460,-552.5"/>
<text text-anchor="start" x="466.5246" y="-563.9" font-family="Arial" font-size="14.00" fill="#000000">create_date </text>
<text text-anchor="start" x="544.3352" y="-563.9" font-family="Arial" font-size="14.00" fill="#666666">[timestamp without time zone]</text>
<polygon fill="none" stroke="#000000" points="460,-522.5 460,-552.5 736,-552.5 736,-522.5 460,-522.5"/>
<text text-anchor="start" x="467" y="-533.9" font-family="Arial" font-size="14.00" fill="#000000">signature </text>
<text text-anchor="start" x="528.4614" y="-533.9" font-family="Arial" font-size="14.00" fill="#666666">[text]</text>
<polygon fill="none" stroke="#000000" points="460,-492.5 460,-522.5 736,-522.5 736,-492.5 460,-492.5"/>
<text text-anchor="start" x="467" y="-503.9" font-family="Arial" font-size="14.00" fill="#000000">action_id </text>
<text text-anchor="start" x="526.9074" y="-503.9" font-family="Arial" font-size="14.00" fill="#666666">[integer]</text>
<polygon fill="none" stroke="#000000" points="460,-462.5 460,-492.5 736,-492.5 736,-462.5 460,-462.5"/>
<text text-anchor="start" x="467" y="-473.9" font-family="Arial" font-size="14.00" fill="#000000">share </text>
<text text-anchor="start" x="505.899" y="-473.9" font-family="Arial" font-size="14.00" fill="#666666">[boolean]</text>
<polygon fill="none" stroke="#000000" points="460,-432.5 460,-462.5 736,-462.5 736,-432.5 460,-432.5"/>
<text text-anchor="start" x="467" y="-443.9" font-family="Arial" font-size="14.00" fill="#000000">create_uid </text>
<text text-anchor="start" x="536.244" y="-443.9" font-family="Arial" font-size="14.00" fill="#666666">[integer]</text>
<polygon fill="none" stroke="#000000" points="460,-402.5 460,-432.5 736,-432.5 736,-402.5 460,-402.5"/>
<text text-anchor="start" x="467" y="-413.9" font-family="Arial" font-size="14.00" fill="#000000">write_uid </text>
<text text-anchor="start" x="526.892" y="-413.9" font-family="Arial" font-size="14.00" fill="#666666">[integer]</text>
<polygon fill="none" stroke="#000000" points="460,-372.5 460,-402.5 736,-402.5 736,-372.5 460,-372.5"/>
<text text-anchor="start" x="467" y="-383.9" font-family="Arial" font-size="14.00" fill="#000000">write_date </text>
<text text-anchor="start" x="535.4586" y="-383.9" font-family="Arial" font-size="14.00" fill="#666666">[timestamp without time zone]</text>
<polygon fill="none" stroke="#000000" points="460,-342.5 460,-372.5 736,-372.5 736,-342.5 460,-342.5"/>
<text text-anchor="start" x="467" y="-353.9" font-family="Arial" font-size="14.00" fill="#000000">alias_id </text>
<text text-anchor="start" x="518.3408" y="-353.9" font-family="Arial" font-size="14.00" fill="#666666">[integer]</text>
<polygon fill="none" stroke="#000000" points="460,-312.5 460,-342.5 736,-342.5 736,-312.5 460,-312.5"/>
<text text-anchor="start" x="467" y="-323.9" font-family="Arial" font-size="14.00" fill="#000000">notification_type </text>
<text text-anchor="start" x="572.0336" y="-323.9" font-family="Arial" font-size="14.00" fill="#666666">[varchar]</text>
<polygon fill="none" stroke="#000000" points="460,-282.5 460,-312.5 736,-312.5 736,-282.5 460,-282.5"/>
<text text-anchor="start" x="467" y="-293.9" font-family="Arial" font-size="14.00" fill="#000000">odoobot_state </text>
<text text-anchor="start" x="559.6058" y="-293.9" font-family="Arial" font-size="14.00" fill="#666666">[varchar]</text>
<polygon fill="none" stroke="#000000" points="460,-252.5 460,-282.5 736,-282.5 736,-252.5 460,-252.5"/>
<text text-anchor="start" x="467" y="-263.9" font-family="Arial" font-size="14.00" fill="#000000">sale_team_id </text>
<text text-anchor="start" x="554.1332" y="-263.9" font-family="Arial" font-size="14.00" fill="#666666">[integer]</text>
<polygon fill="none" stroke="#000000" points="460,-222.5 460,-252.5 736,-252.5 736,-222.5 460,-222.5"/>
<text text-anchor="start" x="467" y="-233.9" font-family="Arial" font-size="14.00" fill="#000000">target_sales_won </text>
<text text-anchor="start" x="580.589" y="-233.9" font-family="Arial" font-size="14.00" fill="#666666">[integer]</text>
<polygon fill="none" stroke="#000000" points="460,-192.5 460,-222.5 736,-222.5 736,-192.5 460,-192.5"/>
<text text-anchor="start" x="467" y="-203.9" font-family="Arial" font-size="14.00" fill="#000000">target_sales_done </text>
<text text-anchor="start" x="586.0476" y="-203.9" font-family="Arial" font-size="14.00" fill="#666666">[integer]</text>
<polygon fill="none" stroke="#000000" points="460,-162.5 460,-192.5 736,-192.5 736,-162.5 460,-162.5"/>
<text text-anchor="start" x="467" y="-173.9" font-family="Arial" font-size="14.00" fill="#000000">website_id </text>
<text text-anchor="start" x="537.014" y="-173.9" font-family="Arial" font-size="14.00" fill="#666666">[integer]</text>
<polygon fill="none" stroke="#000000" points="460,-132.5 460,-162.5 736,-162.5 736,-132.5 460,-132.5"/>
<text text-anchor="start" x="467" y="-143.9" font-family="Arial" font-size="14.00" fill="#000000">target_sales_invoiced </text>
<text text-anchor="start" x="606.2608" y="-143.9" font-family="Arial" font-size="14.00" fill="#666666">[integer]</text>
<polygon fill="none" stroke="#000000" points="460,-102.5 460,-132.5 736,-132.5 736,-102.5 460,-102.5"/>
<text text-anchor="start" x="467" y="-113.9" font-family="Arial" font-size="14.00" fill="#000000">pos_security_pin </text>
<text text-anchor="start" x="575.9158" y="-113.9" font-family="Arial" font-size="14.00" fill="#666666">[varchar(32)]</text>
</g>
<!-- public.mail_tracking_value&#45;&gt;public.res_users -->
<g id="edge2" class="edge">
<title>public.mail_tracking_value:create_uid&#45;&gt;public.res_users:id</title>
<path fill="none" stroke="#000000" d="M773.1416,-1086.6567C826.8585,-1077.0693 800.3535,-988.0183 763,-937 679.5486,-823.0201 543.4514,-954.9799 460,-841 435.4512,-807.4706 418.4444,-747.5 460,-747.5"/>
<polygon fill="#000000" stroke="#000000" points="772.9656,-1086.6712 762.627,-1083.0155 767.9828,-1087.0856 763,-1087.5 763,-1087.5 763,-1087.5 767.9828,-1087.0856 763.373,-1091.9845 772.9656,-1086.6712 772.9656,-1086.6712"/>
<text text-anchor="start" x="769.657" y="-1097.5" font-family="Arial" font-size="10.00" fill="#000000">FOREIGN KEY (create_uid) REFERENCES res_users(id) ON DELETE SET NULL</text>
</g>
<!-- public.mail_tracking_value&#45;&gt;public.res_users -->
<g id="edge3" class="edge">
<title>public.mail_tracking_value:write_uid&#45;&gt;public.res_users:id</title>
<path fill="none" stroke="#000000" d="M773.2081,-1025.9172C799.9376,-1016.4069 784.4408,-966.2843 763,-937 679.5486,-823.0201 543.4514,-954.9799 460,-841 435.4512,-807.4706 418.4444,-747.5 460,-747.5"/>
<polygon fill="#000000" stroke="#000000" points="772.8819,-1025.9677 762.3105,-1023.0531 767.941,-1026.7338 763,-1027.5 763,-1027.5 763,-1027.5 767.941,-1026.7338 763.6895,-1031.9469 772.8819,-1025.9677 772.8819,-1025.9677"/>
<text text-anchor="start" x="769.997" y="-1037.5" font-family="Arial" font-size="10.00" fill="#000000">FOREIGN KEY (write_uid) REFERENCES res_users(id) ON DELETE SET NULL</text>
</g>
</g>
</svg>
