<?xml version="1.0" encoding="UTF-8" standalone="no"?>
<!DOCTYPE svg PUBLIC "-//W3C//DTD SVG 1.1//EN"
 "http://www.w3.org/Graphics/SVG/1.1/DTD/svg11.dtd">
<!-- Generated by graphviz version 2.40.1 (20161225.0304)
 -->
<!-- Title: public.account_cashbox_line Pages: 1 -->
<svg width="1308pt" height="2362pt"
 viewBox="0.00 0.00 1307.50 2362.00" xmlns="http://www.w3.org/2000/svg" xmlns:xlink="http://www.w3.org/1999/xlink">
<g id="graph0" class="graph" transform="scale(1 1) rotate(0) translate(4 2358)">
<title>public.account_cashbox_line</title>
<polygon fill="#ffffff" stroke="transparent" points="-4,4 -4,-2358 1303.5,-2358 1303.5,4 -4,4"/>
<!-- public.account_cashbox_line -->
<g id="node1" class="node">
<title>public.account_cashbox_line</title>
<polygon fill="#efefef" stroke="transparent" points="555.5,-2272.5 555.5,-2307.5 896.5,-2307.5 896.5,-2272.5 555.5,-2272.5"/>
<polygon fill="none" stroke="#000000" points="555.5,-2272.5 555.5,-2307.5 896.5,-2307.5 896.5,-2272.5 555.5,-2272.5"/>
<text text-anchor="start" x="562.336" y="-2285.3" font-family="Arial Bold" font-size="18.00" fill="#000000">public.account_cashbox_line</text>
<text text-anchor="start" x="792.4102" y="-2285.3" font-family="Arial" font-size="14.00" fill="#000000"> </text>
<text text-anchor="start" x="796.3008" y="-2285.3" font-family="Arial" font-size="14.00" fill="#666666">[BASE TABLE]</text>
<polygon fill="none" stroke="#000000" points="555.5,-2242.5 555.5,-2272.5 896.5,-2272.5 896.5,-2242.5 555.5,-2242.5"/>
<text text-anchor="start" x="562.5" y="-2253.9" font-family="Arial" font-size="14.00" fill="#000000">id </text>
<text text-anchor="start" x="577.2798" y="-2253.9" font-family="Arial" font-size="14.00" fill="#666666">[integer]</text>
<polygon fill="none" stroke="#000000" points="555.5,-2212.5 555.5,-2242.5 896.5,-2242.5 896.5,-2212.5 555.5,-2212.5"/>
<text text-anchor="start" x="562.5" y="-2223.9" font-family="Arial" font-size="14.00" fill="#000000">coin_value </text>
<text text-anchor="start" x="633.2994" y="-2223.9" font-family="Arial" font-size="14.00" fill="#666666">[numeric]</text>
<polygon fill="none" stroke="#000000" points="555.5,-2182.5 555.5,-2212.5 896.5,-2212.5 896.5,-2182.5 555.5,-2182.5"/>
<text text-anchor="start" x="562.5" y="-2193.9" font-family="Arial" font-size="14.00" fill="#000000">number </text>
<text text-anchor="start" x="613.8422" y="-2193.9" font-family="Arial" font-size="14.00" fill="#666666">[integer]</text>
<polygon fill="none" stroke="#000000" points="555.5,-2152.5 555.5,-2182.5 896.5,-2182.5 896.5,-2152.5 555.5,-2152.5"/>
<text text-anchor="start" x="562.5" y="-2163.9" font-family="Arial" font-size="14.00" fill="#000000">cashbox_id </text>
<text text-anchor="start" x="637.1928" y="-2163.9" font-family="Arial" font-size="14.00" fill="#666666">[integer]</text>
<polygon fill="none" stroke="#000000" points="555.5,-2122.5 555.5,-2152.5 896.5,-2152.5 896.5,-2122.5 555.5,-2122.5"/>
<text text-anchor="start" x="562.5" y="-2133.9" font-family="Arial" font-size="14.00" fill="#000000">create_uid </text>
<text text-anchor="start" x="631.744" y="-2133.9" font-family="Arial" font-size="14.00" fill="#666666">[integer]</text>
<polygon fill="none" stroke="#000000" points="555.5,-2092.5 555.5,-2122.5 896.5,-2122.5 896.5,-2092.5 555.5,-2092.5"/>
<text text-anchor="start" x="562.5" y="-2103.9" font-family="Arial" font-size="14.00" fill="#000000">create_date </text>
<text text-anchor="start" x="640.3106" y="-2103.9" font-family="Arial" font-size="14.00" fill="#666666">[timestamp without time zone]</text>
<polygon fill="none" stroke="#000000" points="555.5,-2062.5 555.5,-2092.5 896.5,-2092.5 896.5,-2062.5 555.5,-2062.5"/>
<text text-anchor="start" x="562.5" y="-2073.9" font-family="Arial" font-size="14.00" fill="#000000">write_uid </text>
<text text-anchor="start" x="622.392" y="-2073.9" font-family="Arial" font-size="14.00" fill="#666666">[integer]</text>
<polygon fill="none" stroke="#000000" points="555.5,-2032.5 555.5,-2062.5 896.5,-2062.5 896.5,-2032.5 555.5,-2032.5"/>
<text text-anchor="start" x="562.5" y="-2043.9" font-family="Arial" font-size="14.00" fill="#000000">write_date </text>
<text text-anchor="start" x="630.9586" y="-2043.9" font-family="Arial" font-size="14.00" fill="#666666">[timestamp without time zone]</text>
<polygon fill="none" stroke="#000000" points="555.5,-2002.5 555.5,-2032.5 896.5,-2032.5 896.5,-2002.5 555.5,-2002.5"/>
<text text-anchor="start" x="562.5" y="-2013.9" font-family="Arial" font-size="14.00" fill="#000000">default_pos_id </text>
<text text-anchor="start" x="657.4284" y="-2013.9" font-family="Arial" font-size="14.00" fill="#666666">[integer]</text>
<polygon fill="none" stroke="#000000" stroke-width="3" points="553.5,-2001.5 553.5,-2309.5 897.5,-2309.5 897.5,-2001.5 553.5,-2001.5"/>
</g>
<!-- public.account_bank_statement_cashbox -->
<g id="node2" class="node">
<title>public.account_bank_statement_cashbox</title>
<polygon fill="#efefef" stroke="transparent" points="43.5,-1017.5 43.5,-1052.5 484.5,-1052.5 484.5,-1017.5 43.5,-1017.5"/>
<polygon fill="none" stroke="#000000" points="43.5,-1017.5 43.5,-1052.5 484.5,-1052.5 484.5,-1017.5 43.5,-1017.5"/>
<text text-anchor="start" x="50.3122" y="-1030.3" font-family="Arial Bold" font-size="18.00" fill="#000000">public.account_bank_statement_cashbox</text>
<text text-anchor="start" x="380.434" y="-1030.3" font-family="Arial" font-size="14.00" fill="#000000"> </text>
<text text-anchor="start" x="384.3246" y="-1030.3" font-family="Arial" font-size="14.00" fill="#666666">[BASE TABLE]</text>
<polygon fill="none" stroke="#000000" points="43.5,-987.5 43.5,-1017.5 484.5,-1017.5 484.5,-987.5 43.5,-987.5"/>
<text text-anchor="start" x="50.5" y="-998.9" font-family="Arial" font-size="14.00" fill="#000000">id </text>
<text text-anchor="start" x="65.2798" y="-998.9" font-family="Arial" font-size="14.00" fill="#666666">[integer]</text>
<polygon fill="none" stroke="#000000" points="43.5,-957.5 43.5,-987.5 484.5,-987.5 484.5,-957.5 43.5,-957.5"/>
<text text-anchor="start" x="50.5" y="-968.9" font-family="Arial" font-size="14.00" fill="#000000">create_uid </text>
<text text-anchor="start" x="119.744" y="-968.9" font-family="Arial" font-size="14.00" fill="#666666">[integer]</text>
<polygon fill="none" stroke="#000000" points="43.5,-927.5 43.5,-957.5 484.5,-957.5 484.5,-927.5 43.5,-927.5"/>
<text text-anchor="start" x="50.5" y="-938.9" font-family="Arial" font-size="14.00" fill="#000000">create_date </text>
<text text-anchor="start" x="128.3106" y="-938.9" font-family="Arial" font-size="14.00" fill="#666666">[timestamp without time zone]</text>
<polygon fill="none" stroke="#000000" points="43.5,-897.5 43.5,-927.5 484.5,-927.5 484.5,-897.5 43.5,-897.5"/>
<text text-anchor="start" x="50.5" y="-908.9" font-family="Arial" font-size="14.00" fill="#000000">write_uid </text>
<text text-anchor="start" x="110.392" y="-908.9" font-family="Arial" font-size="14.00" fill="#666666">[integer]</text>
<polygon fill="none" stroke="#000000" points="43.5,-867.5 43.5,-897.5 484.5,-897.5 484.5,-867.5 43.5,-867.5"/>
<text text-anchor="start" x="50.5" y="-878.9" font-family="Arial" font-size="14.00" fill="#000000">write_date </text>
<text text-anchor="start" x="118.9586" y="-878.9" font-family="Arial" font-size="14.00" fill="#666666">[timestamp without time zone]</text>
</g>
<!-- public.account_cashbox_line&#45;&gt;public.account_bank_statement_cashbox -->
<g id="edge1" class="edge">
<title>public.account_cashbox_line:cashbox_id&#45;&gt;public.account_bank_statement_cashbox:id</title>
<path fill="none" stroke="#000000" d="M545.5622,-2164.9345C435.879,-2104.6601 610.6385,-1002.5 484.5,-1002.5"/>
<polygon fill="#000000" stroke="#000000" points="545.8174,-2165.0003 554.3751,-2171.8572 550.6587,-2166.2502 555.5,-2167.5 555.5,-2167.5 555.5,-2167.5 550.6587,-2166.2502 556.6249,-2163.1428 545.8174,-2165.0003 545.8174,-2165.0003"/>
<text text-anchor="start" x="67.9045" y="-2177.5" font-family="Arial" font-size="10.00" fill="#000000">FOREIGN KEY (cashbox_id) REFERENCES account_bank_statement_cashbox(id) ON DELETE SET NULL</text>
</g>
<!-- public.res_users -->
<g id="node3" class="node">
<title>public.res_users</title>
<polygon fill="#efefef" stroke="transparent" points="588.5,-1272.5 588.5,-1307.5 864.5,-1307.5 864.5,-1272.5 588.5,-1272.5"/>
<polygon fill="none" stroke="#000000" points="588.5,-1272.5 588.5,-1307.5 864.5,-1307.5 864.5,-1272.5 588.5,-1272.5"/>
<text text-anchor="start" x="612.3639" y="-1285.3" font-family="Arial Bold" font-size="18.00" fill="#000000">public.res_users</text>
<text text-anchor="start" x="743.3823" y="-1285.3" font-family="Arial" font-size="14.00" fill="#000000"> </text>
<text text-anchor="start" x="747.2729" y="-1285.3" font-family="Arial" font-size="14.00" fill="#666666">[BASE TABLE]</text>
<polygon fill="none" stroke="#000000" points="588.5,-1242.5 588.5,-1272.5 864.5,-1272.5 864.5,-1242.5 588.5,-1242.5"/>
<text text-anchor="start" x="595.5" y="-1253.9" font-family="Arial" font-size="14.00" fill="#000000">id </text>
<text text-anchor="start" x="610.2798" y="-1253.9" font-family="Arial" font-size="14.00" fill="#666666">[integer]</text>
<polygon fill="none" stroke="#000000" points="588.5,-1212.5 588.5,-1242.5 864.5,-1242.5 864.5,-1212.5 588.5,-1212.5"/>
<text text-anchor="start" x="595.5" y="-1223.9" font-family="Arial" font-size="14.00" fill="#000000">active </text>
<text text-anchor="start" x="635.953" y="-1223.9" font-family="Arial" font-size="14.00" fill="#666666">[boolean]</text>
<polygon fill="none" stroke="#000000" points="588.5,-1182.5 588.5,-1212.5 864.5,-1212.5 864.5,-1182.5 588.5,-1182.5"/>
<text text-anchor="start" x="595.5" y="-1193.9" font-family="Arial" font-size="14.00" fill="#000000">login </text>
<text text-anchor="start" x="628.9516" y="-1193.9" font-family="Arial" font-size="14.00" fill="#666666">[varchar]</text>
<polygon fill="none" stroke="#000000" points="588.5,-1152.5 588.5,-1182.5 864.5,-1182.5 864.5,-1152.5 588.5,-1152.5"/>
<text text-anchor="start" x="595.5" y="-1163.9" font-family="Arial" font-size="14.00" fill="#000000">password </text>
<text text-anchor="start" x="659.2882" y="-1163.9" font-family="Arial" font-size="14.00" fill="#666666">[varchar]</text>
<polygon fill="none" stroke="#000000" points="588.5,-1122.5 588.5,-1152.5 864.5,-1152.5 864.5,-1122.5 588.5,-1122.5"/>
<text text-anchor="start" x="595.5" y="-1133.9" font-family="Arial" font-size="14.00" fill="#000000">company_id </text>
<text text-anchor="start" x="674.8534" y="-1133.9" font-family="Arial" font-size="14.00" fill="#666666">[integer]</text>
<polygon fill="none" stroke="#000000" points="588.5,-1092.5 588.5,-1122.5 864.5,-1122.5 864.5,-1092.5 588.5,-1092.5"/>
<text text-anchor="start" x="595.5" y="-1103.9" font-family="Arial" font-size="14.00" fill="#000000">partner_id </text>
<text text-anchor="start" x="662.4046" y="-1103.9" font-family="Arial" font-size="14.00" fill="#666666">[integer]</text>
<polygon fill="none" stroke="#000000" points="588.5,-1062.5 588.5,-1092.5 864.5,-1092.5 864.5,-1062.5 588.5,-1062.5"/>
<text text-anchor="start" x="595.0246" y="-1073.9" font-family="Arial" font-size="14.00" fill="#000000">create_date </text>
<text text-anchor="start" x="672.8352" y="-1073.9" font-family="Arial" font-size="14.00" fill="#666666">[timestamp without time zone]</text>
<polygon fill="none" stroke="#000000" points="588.5,-1032.5 588.5,-1062.5 864.5,-1062.5 864.5,-1032.5 588.5,-1032.5"/>
<text text-anchor="start" x="595.5" y="-1043.9" font-family="Arial" font-size="14.00" fill="#000000">signature </text>
<text text-anchor="start" x="656.9614" y="-1043.9" font-family="Arial" font-size="14.00" fill="#666666">[text]</text>
<polygon fill="none" stroke="#000000" points="588.5,-1002.5 588.5,-1032.5 864.5,-1032.5 864.5,-1002.5 588.5,-1002.5"/>
<text text-anchor="start" x="595.5" y="-1013.9" font-family="Arial" font-size="14.00" fill="#000000">action_id </text>
<text text-anchor="start" x="655.4074" y="-1013.9" font-family="Arial" font-size="14.00" fill="#666666">[integer]</text>
<polygon fill="none" stroke="#000000" points="588.5,-972.5 588.5,-1002.5 864.5,-1002.5 864.5,-972.5 588.5,-972.5"/>
<text text-anchor="start" x="595.5" y="-983.9" font-family="Arial" font-size="14.00" fill="#000000">share </text>
<text text-anchor="start" x="634.399" y="-983.9" font-family="Arial" font-size="14.00" fill="#666666">[boolean]</text>
<polygon fill="none" stroke="#000000" points="588.5,-942.5 588.5,-972.5 864.5,-972.5 864.5,-942.5 588.5,-942.5"/>
<text text-anchor="start" x="595.5" y="-953.9" font-family="Arial" font-size="14.00" fill="#000000">create_uid </text>
<text text-anchor="start" x="664.744" y="-953.9" font-family="Arial" font-size="14.00" fill="#666666">[integer]</text>
<polygon fill="none" stroke="#000000" points="588.5,-912.5 588.5,-942.5 864.5,-942.5 864.5,-912.5 588.5,-912.5"/>
<text text-anchor="start" x="595.5" y="-923.9" font-family="Arial" font-size="14.00" fill="#000000">write_uid </text>
<text text-anchor="start" x="655.392" y="-923.9" font-family="Arial" font-size="14.00" fill="#666666">[integer]</text>
<polygon fill="none" stroke="#000000" points="588.5,-882.5 588.5,-912.5 864.5,-912.5 864.5,-882.5 588.5,-882.5"/>
<text text-anchor="start" x="595.5" y="-893.9" font-family="Arial" font-size="14.00" fill="#000000">write_date </text>
<text text-anchor="start" x="663.9586" y="-893.9" font-family="Arial" font-size="14.00" fill="#666666">[timestamp without time zone]</text>
<polygon fill="none" stroke="#000000" points="588.5,-852.5 588.5,-882.5 864.5,-882.5 864.5,-852.5 588.5,-852.5"/>
<text text-anchor="start" x="595.5" y="-863.9" font-family="Arial" font-size="14.00" fill="#000000">alias_id </text>
<text text-anchor="start" x="646.8408" y="-863.9" font-family="Arial" font-size="14.00" fill="#666666">[integer]</text>
<polygon fill="none" stroke="#000000" points="588.5,-822.5 588.5,-852.5 864.5,-852.5 864.5,-822.5 588.5,-822.5"/>
<text text-anchor="start" x="595.5" y="-833.9" font-family="Arial" font-size="14.00" fill="#000000">notification_type </text>
<text text-anchor="start" x="700.5336" y="-833.9" font-family="Arial" font-size="14.00" fill="#666666">[varchar]</text>
<polygon fill="none" stroke="#000000" points="588.5,-792.5 588.5,-822.5 864.5,-822.5 864.5,-792.5 588.5,-792.5"/>
<text text-anchor="start" x="595.5" y="-803.9" font-family="Arial" font-size="14.00" fill="#000000">odoobot_state </text>
<text text-anchor="start" x="688.1058" y="-803.9" font-family="Arial" font-size="14.00" fill="#666666">[varchar]</text>
<polygon fill="none" stroke="#000000" points="588.5,-762.5 588.5,-792.5 864.5,-792.5 864.5,-762.5 588.5,-762.5"/>
<text text-anchor="start" x="595.5" y="-773.9" font-family="Arial" font-size="14.00" fill="#000000">sale_team_id </text>
<text text-anchor="start" x="682.6332" y="-773.9" font-family="Arial" font-size="14.00" fill="#666666">[integer]</text>
<polygon fill="none" stroke="#000000" points="588.5,-732.5 588.5,-762.5 864.5,-762.5 864.5,-732.5 588.5,-732.5"/>
<text text-anchor="start" x="595.5" y="-743.9" font-family="Arial" font-size="14.00" fill="#000000">target_sales_won </text>
<text text-anchor="start" x="709.089" y="-743.9" font-family="Arial" font-size="14.00" fill="#666666">[integer]</text>
<polygon fill="none" stroke="#000000" points="588.5,-702.5 588.5,-732.5 864.5,-732.5 864.5,-702.5 588.5,-702.5"/>
<text text-anchor="start" x="595.5" y="-713.9" font-family="Arial" font-size="14.00" fill="#000000">target_sales_done </text>
<text text-anchor="start" x="714.5476" y="-713.9" font-family="Arial" font-size="14.00" fill="#666666">[integer]</text>
<polygon fill="none" stroke="#000000" points="588.5,-672.5 588.5,-702.5 864.5,-702.5 864.5,-672.5 588.5,-672.5"/>
<text text-anchor="start" x="595.5" y="-683.9" font-family="Arial" font-size="14.00" fill="#000000">website_id </text>
<text text-anchor="start" x="665.514" y="-683.9" font-family="Arial" font-size="14.00" fill="#666666">[integer]</text>
<polygon fill="none" stroke="#000000" points="588.5,-642.5 588.5,-672.5 864.5,-672.5 864.5,-642.5 588.5,-642.5"/>
<text text-anchor="start" x="595.5" y="-653.9" font-family="Arial" font-size="14.00" fill="#000000">target_sales_invoiced </text>
<text text-anchor="start" x="734.7608" y="-653.9" font-family="Arial" font-size="14.00" fill="#666666">[integer]</text>
<polygon fill="none" stroke="#000000" points="588.5,-612.5 588.5,-642.5 864.5,-642.5 864.5,-612.5 588.5,-612.5"/>
<text text-anchor="start" x="595.5" y="-623.9" font-family="Arial" font-size="14.00" fill="#000000">pos_security_pin </text>
<text text-anchor="start" x="704.4158" y="-623.9" font-family="Arial" font-size="14.00" fill="#666666">[varchar(32)]</text>
</g>
<!-- public.account_cashbox_line&#45;&gt;public.res_users -->
<g id="edge2" class="edge">
<title>public.account_cashbox_line:create_uid&#45;&gt;public.res_users:id</title>
<path fill="none" stroke="#000000" d="M906.8658,-2136.8375C971.0475,-2127.9458 914.312,-2031.3582 896.5,-1957 856.9339,-1791.8269 418.6541,-1257.5 588.5,-1257.5"/>
<polygon fill="#000000" stroke="#000000" points="906.4796,-2136.8621 896.2129,-2133.0092 901.4898,-2137.1811 896.5,-2137.5 896.5,-2137.5 896.5,-2137.5 901.4898,-2137.1811 896.7871,-2141.9908 906.4796,-2136.8621 906.4796,-2136.8621"/>
<text text-anchor="start" x="903.157" y="-2147.5" font-family="Arial" font-size="10.00" fill="#000000">FOREIGN KEY (create_uid) REFERENCES res_users(id) ON DELETE SET NULL</text>
</g>
<!-- public.account_cashbox_line&#45;&gt;public.res_users -->
<g id="edge3" class="edge">
<title>public.account_cashbox_line:write_uid&#45;&gt;public.res_users:id</title>
<path fill="none" stroke="#000000" d="M906.8979,-2076.5738C1064.2542,-2045.7816 397.6493,-1257.5 588.5,-1257.5"/>
<polygon fill="#000000" stroke="#000000" points="906.4606,-2076.6127 896.1007,-2073.0177 901.4803,-2077.0563 896.5,-2077.5 896.5,-2077.5 896.5,-2077.5 901.4803,-2077.0563 896.8993,-2081.9823 906.4606,-2076.6127 906.4606,-2076.6127"/>
<text text-anchor="start" x="903.497" y="-2087.5" font-family="Arial" font-size="10.00" fill="#000000">FOREIGN KEY (write_uid) REFERENCES res_users(id) ON DELETE SET NULL</text>
</g>
<!-- public.pos_config -->
<g id="node4" class="node">
<title>public.pos_config</title>
<polygon fill="#efefef" stroke="transparent" points="968.5,-1842.5 968.5,-1877.5 1244.5,-1877.5 1244.5,-1842.5 968.5,-1842.5"/>
<polygon fill="none" stroke="#000000" points="968.5,-1842.5 968.5,-1877.5 1244.5,-1877.5 1244.5,-1842.5 968.5,-1842.5"/>
<text text-anchor="start" x="988.3517" y="-1855.3" font-family="Arial Bold" font-size="18.00" fill="#000000">public.pos_config</text>
<text text-anchor="start" x="1127.3945" y="-1855.3" font-family="Arial" font-size="14.00" fill="#000000"> </text>
<text text-anchor="start" x="1131.2851" y="-1855.3" font-family="Arial" font-size="14.00" fill="#666666">[BASE TABLE]</text>
<polygon fill="none" stroke="#000000" points="968.5,-1812.5 968.5,-1842.5 1244.5,-1842.5 1244.5,-1812.5 968.5,-1812.5"/>
<text text-anchor="start" x="975.5" y="-1823.9" font-family="Arial" font-size="14.00" fill="#000000">id </text>
<text text-anchor="start" x="990.2798" y="-1823.9" font-family="Arial" font-size="14.00" fill="#666666">[integer]</text>
<polygon fill="none" stroke="#000000" points="968.5,-1782.5 968.5,-1812.5 1244.5,-1812.5 1244.5,-1782.5 968.5,-1782.5"/>
<text text-anchor="start" x="975.5" y="-1793.9" font-family="Arial" font-size="14.00" fill="#000000">name </text>
<text text-anchor="start" x="1014.399" y="-1793.9" font-family="Arial" font-size="14.00" fill="#666666">[varchar]</text>
<polygon fill="none" stroke="#000000" points="968.5,-1752.5 968.5,-1782.5 1244.5,-1782.5 1244.5,-1752.5 968.5,-1752.5"/>
<text text-anchor="start" x="975.5" y="-1763.9" font-family="Arial" font-size="14.00" fill="#000000">picking_type_id </text>
<text text-anchor="start" x="1075.8618" y="-1763.9" font-family="Arial" font-size="14.00" fill="#666666">[integer]</text>
<polygon fill="none" stroke="#000000" points="968.5,-1722.5 968.5,-1752.5 1244.5,-1752.5 1244.5,-1722.5 968.5,-1722.5"/>
<text text-anchor="start" x="975.5" y="-1733.9" font-family="Arial" font-size="14.00" fill="#000000">stock_location_id </text>
<text text-anchor="start" x="1086.7524" y="-1733.9" font-family="Arial" font-size="14.00" fill="#666666">[integer]</text>
<polygon fill="none" stroke="#000000" points="968.5,-1692.5 968.5,-1722.5 1244.5,-1722.5 1244.5,-1692.5 968.5,-1692.5"/>
<text text-anchor="start" x="975.5" y="-1703.9" font-family="Arial" font-size="14.00" fill="#000000">journal_id </text>
<text text-anchor="start" x="1040.0666" y="-1703.9" font-family="Arial" font-size="14.00" fill="#666666">[integer]</text>
<polygon fill="none" stroke="#000000" points="968.5,-1662.5 968.5,-1692.5 1244.5,-1692.5 1244.5,-1662.5 968.5,-1662.5"/>
<text text-anchor="start" x="975.5" y="-1673.9" font-family="Arial" font-size="14.00" fill="#000000">invoice_journal_id </text>
<text text-anchor="start" x="1091.4102" y="-1673.9" font-family="Arial" font-size="14.00" fill="#666666">[integer]</text>
<polygon fill="none" stroke="#000000" points="968.5,-1632.5 968.5,-1662.5 1244.5,-1662.5 1244.5,-1632.5 968.5,-1632.5"/>
<text text-anchor="start" x="975.5" y="-1643.9" font-family="Arial" font-size="14.00" fill="#000000">iface_cashdrawer </text>
<text text-anchor="start" x="1089.0764" y="-1643.9" font-family="Arial" font-size="14.00" fill="#666666">[boolean]</text>
<polygon fill="none" stroke="#000000" points="968.5,-1602.5 968.5,-1632.5 1244.5,-1632.5 1244.5,-1602.5 968.5,-1602.5"/>
<text text-anchor="start" x="975.5" y="-1613.9" font-family="Arial" font-size="14.00" fill="#000000">iface_payment_terminal </text>
<text text-anchor="start" x="1127.9726" y="-1613.9" font-family="Arial" font-size="14.00" fill="#666666">[boolean]</text>
<polygon fill="none" stroke="#000000" points="968.5,-1572.5 968.5,-1602.5 1244.5,-1602.5 1244.5,-1572.5 968.5,-1572.5"/>
<text text-anchor="start" x="975.5" y="-1583.9" font-family="Arial" font-size="14.00" fill="#000000">iface_electronic_scale </text>
<text text-anchor="start" x="1117.0848" y="-1583.9" font-family="Arial" font-size="14.00" fill="#666666">[boolean]</text>
<polygon fill="none" stroke="#000000" points="968.5,-1542.5 968.5,-1572.5 1244.5,-1572.5 1244.5,-1542.5 968.5,-1542.5"/>
<text text-anchor="start" x="975.5" y="-1553.9" font-family="Arial" font-size="14.00" fill="#000000">iface_vkeyboard </text>
<text text-anchor="start" x="1081.3092" y="-1553.9" font-family="Arial" font-size="14.00" fill="#666666">[boolean]</text>
<polygon fill="none" stroke="#000000" points="968.5,-1512.5 968.5,-1542.5 1244.5,-1542.5 1244.5,-1512.5 968.5,-1512.5"/>
<text text-anchor="start" x="975.5" y="-1523.9" font-family="Arial" font-size="14.00" fill="#000000">iface_customer_facing_display </text>
<text text-anchor="start" x="1170.7664" y="-1523.9" font-family="Arial" font-size="14.00" fill="#666666">[boolean]</text>
<polygon fill="none" stroke="#000000" points="968.5,-1482.5 968.5,-1512.5 1244.5,-1512.5 1244.5,-1482.5 968.5,-1482.5"/>
<text text-anchor="start" x="975.5" y="-1493.9" font-family="Arial" font-size="14.00" fill="#000000">iface_print_via_proxy </text>
<text text-anchor="start" x="1111.6388" y="-1493.9" font-family="Arial" font-size="14.00" fill="#666666">[boolean]</text>
<polygon fill="none" stroke="#000000" points="968.5,-1452.5 968.5,-1482.5 1244.5,-1482.5 1244.5,-1452.5 968.5,-1452.5"/>
<text text-anchor="start" x="975.5" y="-1463.9" font-family="Arial" font-size="14.00" fill="#000000">iface_scan_via_proxy </text>
<text text-anchor="start" x="1113.981" y="-1463.9" font-family="Arial" font-size="14.00" fill="#666666">[boolean]</text>
<polygon fill="none" stroke="#000000" points="968.5,-1422.5 968.5,-1452.5 1244.5,-1452.5 1244.5,-1422.5 968.5,-1422.5"/>
<text text-anchor="start" x="975.5" y="-1433.9" font-family="Arial" font-size="14.00" fill="#000000">iface_big_scrollbars </text>
<text text-anchor="start" x="1103.0722" y="-1433.9" font-family="Arial" font-size="14.00" fill="#666666">[boolean]</text>
<polygon fill="none" stroke="#000000" points="968.5,-1392.5 968.5,-1422.5 1244.5,-1422.5 1244.5,-1392.5 968.5,-1392.5"/>
<text text-anchor="start" x="975.5" y="-1403.9" font-family="Arial" font-size="14.00" fill="#000000">iface_print_auto </text>
<text text-anchor="start" x="1078.9796" y="-1403.9" font-family="Arial" font-size="14.00" fill="#666666">[boolean]</text>
<polygon fill="none" stroke="#000000" points="968.5,-1362.5 968.5,-1392.5 1244.5,-1392.5 1244.5,-1362.5 968.5,-1362.5"/>
<text text-anchor="start" x="975.5" y="-1373.9" font-family="Arial" font-size="14.00" fill="#000000">iface_print_skip_screen </text>
<text text-anchor="start" x="1126.4214" y="-1373.9" font-family="Arial" font-size="14.00" fill="#666666">[boolean]</text>
<polygon fill="none" stroke="#000000" points="968.5,-1332.5 968.5,-1362.5 1244.5,-1362.5 1244.5,-1332.5 968.5,-1332.5"/>
<text text-anchor="start" x="975.5" y="-1343.9" font-family="Arial" font-size="14.00" fill="#000000">iface_precompute_cash </text>
<text text-anchor="start" x="1127.9908" y="-1343.9" font-family="Arial" font-size="14.00" fill="#666666">[boolean]</text>
<polygon fill="none" stroke="#000000" points="968.5,-1302.5 968.5,-1332.5 1244.5,-1332.5 1244.5,-1302.5 968.5,-1302.5"/>
<text text-anchor="start" x="975.5" y="-1313.9" font-family="Arial" font-size="14.00" fill="#000000">iface_tax_included </text>
<text text-anchor="start" x="1095.3176" y="-1313.9" font-family="Arial" font-size="14.00" fill="#666666">[varchar]</text>
<polygon fill="none" stroke="#000000" points="968.5,-1272.5 968.5,-1302.5 1244.5,-1302.5 1244.5,-1272.5 968.5,-1272.5"/>
<text text-anchor="start" x="975.5" y="-1283.9" font-family="Arial" font-size="14.00" fill="#000000">iface_start_categ_id </text>
<text text-anchor="start" x="1104.6528" y="-1283.9" font-family="Arial" font-size="14.00" fill="#666666">[integer]</text>
<polygon fill="none" stroke="#000000" points="968.5,-1242.5 968.5,-1272.5 1244.5,-1272.5 1244.5,-1242.5 968.5,-1242.5"/>
<text text-anchor="start" x="975.5" y="-1253.9" font-family="Arial" font-size="14.00" fill="#000000">iface_display_categ_images </text>
<text text-anchor="start" x="1155.2152" y="-1253.9" font-family="Arial" font-size="14.00" fill="#666666">[boolean]</text>
<polygon fill="none" stroke="#000000" points="968.5,-1212.5 968.5,-1242.5 1244.5,-1242.5 1244.5,-1212.5 968.5,-1212.5"/>
<text text-anchor="start" x="975.5" y="-1223.9" font-family="Arial" font-size="14.00" fill="#000000">restrict_price_control </text>
<text text-anchor="start" x="1109.2854" y="-1223.9" font-family="Arial" font-size="14.00" fill="#666666">[boolean]</text>
<polygon fill="none" stroke="#000000" points="968.5,-1182.5 968.5,-1212.5 1244.5,-1212.5 1244.5,-1182.5 968.5,-1182.5"/>
<text text-anchor="start" x="975.5" y="-1193.9" font-family="Arial" font-size="14.00" fill="#000000">cash_control </text>
<text text-anchor="start" x="1058.744" y="-1193.9" font-family="Arial" font-size="14.00" fill="#666666">[boolean]</text>
<polygon fill="none" stroke="#000000" points="968.5,-1152.5 968.5,-1182.5 1244.5,-1182.5 1244.5,-1152.5 968.5,-1152.5"/>
<text text-anchor="start" x="975.5" y="-1163.9" font-family="Arial" font-size="14.00" fill="#000000">receipt_header </text>
<text text-anchor="start" x="1072.7524" y="-1163.9" font-family="Arial" font-size="14.00" fill="#666666">[text]</text>
<polygon fill="none" stroke="#000000" points="968.5,-1122.5 968.5,-1152.5 1244.5,-1152.5 1244.5,-1122.5 968.5,-1122.5"/>
<text text-anchor="start" x="975.5" y="-1133.9" font-family="Arial" font-size="14.00" fill="#000000">receipt_footer </text>
<text text-anchor="start" x="1064.9684" y="-1133.9" font-family="Arial" font-size="14.00" fill="#666666">[text]</text>
<polygon fill="none" stroke="#000000" points="968.5,-1092.5 968.5,-1122.5 1244.5,-1122.5 1244.5,-1092.5 968.5,-1092.5"/>
<text text-anchor="start" x="975.5" y="-1103.9" font-family="Arial" font-size="14.00" fill="#000000">proxy_ip </text>
<text text-anchor="start" x="1032.2882" y="-1103.9" font-family="Arial" font-size="14.00" fill="#666666">[varchar(45)]</text>
<polygon fill="none" stroke="#000000" points="968.5,-1062.5 968.5,-1092.5 1244.5,-1092.5 1244.5,-1062.5 968.5,-1062.5"/>
<text text-anchor="start" x="975.5" y="-1073.9" font-family="Arial" font-size="14.00" fill="#000000">active </text>
<text text-anchor="start" x="1015.953" y="-1073.9" font-family="Arial" font-size="14.00" fill="#666666">[boolean]</text>
<polygon fill="none" stroke="#000000" points="968.5,-1032.5 968.5,-1062.5 1244.5,-1062.5 1244.5,-1032.5 968.5,-1032.5"/>
<text text-anchor="start" x="975.5" y="-1043.9" font-family="Arial" font-size="14.00" fill="#000000">uuid </text>
<text text-anchor="start" x="1005.845" y="-1043.9" font-family="Arial" font-size="14.00" fill="#666666">[varchar]</text>
<polygon fill="none" stroke="#000000" points="968.5,-1002.5 968.5,-1032.5 1244.5,-1032.5 1244.5,-1002.5 968.5,-1002.5"/>
<text text-anchor="start" x="975.5" y="-1013.9" font-family="Arial" font-size="14.00" fill="#000000">sequence_id </text>
<text text-anchor="start" x="1058.758" y="-1013.9" font-family="Arial" font-size="14.00" fill="#666666">[integer]</text>
<polygon fill="none" stroke="#000000" points="968.5,-972.5 968.5,-1002.5 1244.5,-1002.5 1244.5,-972.5 968.5,-972.5"/>
<text text-anchor="start" x="975.5" y="-983.9" font-family="Arial" font-size="14.00" fill="#000000">sequence_line_id </text>
<text text-anchor="start" x="1088.319" y="-983.9" font-family="Arial" font-size="14.00" fill="#666666">[integer]</text>
<polygon fill="none" stroke="#000000" points="968.5,-942.5 968.5,-972.5 1244.5,-972.5 1244.5,-942.5 968.5,-942.5"/>
<text text-anchor="start" x="975.5" y="-953.9" font-family="Arial" font-size="14.00" fill="#000000">group_by </text>
<text text-anchor="start" x="1037.7468" y="-953.9" font-family="Arial" font-size="14.00" fill="#666666">[boolean]</text>
<polygon fill="none" stroke="#000000" points="968.5,-912.5 968.5,-942.5 1244.5,-942.5 1244.5,-912.5 968.5,-912.5"/>
<text text-anchor="start" x="975.5" y="-923.9" font-family="Arial" font-size="14.00" fill="#000000">pricelist_id </text>
<text text-anchor="start" x="1045.4986" y="-923.9" font-family="Arial" font-size="14.00" fill="#666666">[integer]</text>
<polygon fill="none" stroke="#000000" points="968.5,-882.5 968.5,-912.5 1244.5,-912.5 1244.5,-882.5 968.5,-882.5"/>
<text text-anchor="start" x="975.5" y="-893.9" font-family="Arial" font-size="14.00" fill="#000000">company_id </text>
<text text-anchor="start" x="1054.8534" y="-893.9" font-family="Arial" font-size="14.00" fill="#666666">[integer]</text>
<polygon fill="none" stroke="#000000" points="968.5,-852.5 968.5,-882.5 1244.5,-882.5 1244.5,-852.5 968.5,-852.5"/>
<text text-anchor="start" x="975.5" y="-863.9" font-family="Arial" font-size="14.00" fill="#000000">barcode_nomenclature_id </text>
<text text-anchor="start" x="1141.2152" y="-863.9" font-family="Arial" font-size="14.00" fill="#666666">[integer]</text>
<polygon fill="none" stroke="#000000" points="968.5,-822.5 968.5,-852.5 1244.5,-852.5 1244.5,-822.5 968.5,-822.5"/>
<text text-anchor="start" x="975.5" y="-833.9" font-family="Arial" font-size="14.00" fill="#000000">group_pos_manager_id </text>
<text text-anchor="start" x="1127.218" y="-833.9" font-family="Arial" font-size="14.00" fill="#666666">[integer]</text>
<polygon fill="none" stroke="#000000" points="968.5,-792.5 968.5,-822.5 1244.5,-822.5 1244.5,-792.5 968.5,-792.5"/>
<text text-anchor="start" x="975.5" y="-803.9" font-family="Arial" font-size="14.00" fill="#000000">group_pos_user_id </text>
<text text-anchor="start" x="1099.2096" y="-803.9" font-family="Arial" font-size="14.00" fill="#666666">[integer]</text>
<polygon fill="none" stroke="#000000" points="968.5,-762.5 968.5,-792.5 1244.5,-792.5 1244.5,-762.5 968.5,-762.5"/>
<text text-anchor="start" x="975.5" y="-773.9" font-family="Arial" font-size="14.00" fill="#000000">iface_tipproduct </text>
<text text-anchor="start" x="1078.197" y="-773.9" font-family="Arial" font-size="14.00" fill="#666666">[boolean]</text>
<polygon fill="none" stroke="#000000" points="968.5,-732.5 968.5,-762.5 1244.5,-762.5 1244.5,-732.5 968.5,-732.5"/>
<text text-anchor="start" x="975.5" y="-743.9" font-family="Arial" font-size="14.00" fill="#000000">tip_product_id </text>
<text text-anchor="start" x="1067.3064" y="-743.9" font-family="Arial" font-size="14.00" fill="#666666">[integer]</text>
<polygon fill="none" stroke="#000000" points="968.5,-702.5 968.5,-732.5 1244.5,-732.5 1244.5,-702.5 968.5,-702.5"/>
<text text-anchor="start" x="975.5" y="-713.9" font-family="Arial" font-size="14.00" fill="#000000">default_fiscal_position_id </text>
<text text-anchor="start" x="1135.7664" y="-713.9" font-family="Arial" font-size="14.00" fill="#666666">[integer]</text>
<polygon fill="none" stroke="#000000" points="968.5,-672.5 968.5,-702.5 1244.5,-702.5 1244.5,-672.5 968.5,-672.5"/>
<text text-anchor="start" x="975.5" y="-683.9" font-family="Arial" font-size="14.00" fill="#000000">customer_facing_display_html </text>
<text text-anchor="start" x="1167.6444" y="-683.9" font-family="Arial" font-size="14.00" fill="#666666">[text]</text>
<polygon fill="none" stroke="#000000" points="968.5,-642.5 968.5,-672.5 1244.5,-672.5 1244.5,-642.5 968.5,-642.5"/>
<text text-anchor="start" x="975.5" y="-653.9" font-family="Arial" font-size="14.00" fill="#000000">use_pricelist </text>
<text text-anchor="start" x="1057.1746" y="-653.9" font-family="Arial" font-size="14.00" fill="#666666">[boolean]</text>
<polygon fill="none" stroke="#000000" points="968.5,-612.5 968.5,-642.5 1244.5,-642.5 1244.5,-612.5 968.5,-612.5"/>
<text text-anchor="start" x="975.5" y="-623.9" font-family="Arial" font-size="14.00" fill="#000000">tax_regime </text>
<text text-anchor="start" x="1048.622" y="-623.9" font-family="Arial" font-size="14.00" fill="#666666">[boolean]</text>
<polygon fill="none" stroke="#000000" points="968.5,-582.5 968.5,-612.5 1244.5,-612.5 1244.5,-582.5 968.5,-582.5"/>
<text text-anchor="start" x="975.5" y="-593.9" font-family="Arial" font-size="14.00" fill="#000000">tax_regime_selection </text>
<text text-anchor="start" x="1111.6388" y="-593.9" font-family="Arial" font-size="14.00" fill="#666666">[boolean]</text>
<polygon fill="none" stroke="#000000" points="968.5,-552.5 968.5,-582.5 1244.5,-582.5 1244.5,-552.5 968.5,-552.5"/>
<text text-anchor="start" x="975.5" y="-563.9" font-family="Arial" font-size="14.00" fill="#000000">barcode_scanner </text>
<text text-anchor="start" x="1087.5378" y="-563.9" font-family="Arial" font-size="14.00" fill="#666666">[boolean]</text>
<polygon fill="none" stroke="#000000" points="968.5,-522.5 968.5,-552.5 1244.5,-552.5 1244.5,-522.5 968.5,-522.5"/>
<text text-anchor="start" x="975.5" y="-533.9" font-family="Arial" font-size="14.00" fill="#000000">start_category </text>
<text text-anchor="start" x="1068.0792" y="-533.9" font-family="Arial" font-size="14.00" fill="#666666">[boolean]</text>
<polygon fill="none" stroke="#000000" points="968.5,-492.5 968.5,-522.5 1244.5,-522.5 1244.5,-492.5 968.5,-492.5"/>
<text text-anchor="start" x="975.5" y="-503.9" font-family="Arial" font-size="14.00" fill="#000000">module_account </text>
<text text-anchor="start" x="1082.0918" y="-503.9" font-family="Arial" font-size="14.00" fill="#666666">[boolean]</text>
<polygon fill="none" stroke="#000000" points="968.5,-462.5 968.5,-492.5 1244.5,-492.5 1244.5,-462.5 968.5,-462.5"/>
<text text-anchor="start" x="975.5" y="-473.9" font-family="Arial" font-size="14.00" fill="#000000">module_pos_restaurant </text>
<text text-anchor="start" x="1126.434" y="-473.9" font-family="Arial" font-size="14.00" fill="#666666">[boolean]</text>
<polygon fill="none" stroke="#000000" points="968.5,-432.5 968.5,-462.5 1244.5,-462.5 1244.5,-432.5 968.5,-432.5"/>
<text text-anchor="start" x="975.5" y="-443.9" font-family="Arial" font-size="14.00" fill="#000000">module_pos_discount </text>
<text text-anchor="start" x="1115.5462" y="-443.9" font-family="Arial" font-size="14.00" fill="#666666">[boolean]</text>
<polygon fill="none" stroke="#000000" points="968.5,-402.5 968.5,-432.5 1244.5,-432.5 1244.5,-402.5 968.5,-402.5"/>
<text text-anchor="start" x="975.5" y="-413.9" font-family="Arial" font-size="14.00" fill="#000000">module_pos_loyalty </text>
<text text-anchor="start" x="1103.0876" y="-413.9" font-family="Arial" font-size="14.00" fill="#666666">[boolean]</text>
<polygon fill="none" stroke="#000000" points="968.5,-372.5 968.5,-402.5 1244.5,-402.5 1244.5,-372.5 968.5,-372.5"/>
<text text-anchor="start" x="975.5" y="-383.9" font-family="Arial" font-size="14.00" fill="#000000">module_pos_mercury </text>
<text text-anchor="start" x="1113.9656" y="-383.9" font-family="Arial" font-size="14.00" fill="#666666">[boolean]</text>
<polygon fill="none" stroke="#000000" points="968.5,-342.5 968.5,-372.5 1244.5,-372.5 1244.5,-342.5 968.5,-342.5"/>
<text text-anchor="start" x="975.5" y="-353.9" font-family="Arial" font-size="14.00" fill="#000000">module_pos_reprint </text>
<text text-anchor="start" x="1103.0848" y="-353.9" font-family="Arial" font-size="14.00" fill="#666666">[boolean]</text>
<polygon fill="none" stroke="#000000" points="968.5,-312.5 968.5,-342.5 1244.5,-342.5 1244.5,-312.5 968.5,-312.5"/>
<text text-anchor="start" x="975.5" y="-323.9" font-family="Arial" font-size="14.00" fill="#000000">is_posbox </text>
<text text-anchor="start" x="1042.4102" y="-323.9" font-family="Arial" font-size="14.00" fill="#666666">[boolean]</text>
<polygon fill="none" stroke="#000000" points="968.5,-282.5 968.5,-312.5 1244.5,-312.5 1244.5,-282.5 968.5,-282.5"/>
<text text-anchor="start" x="975.5" y="-293.9" font-family="Arial" font-size="14.00" fill="#000000">is_header_or_footer </text>
<text text-anchor="start" x="1104.6514" y="-293.9" font-family="Arial" font-size="14.00" fill="#666666">[boolean]</text>
<polygon fill="none" stroke="#000000" points="968.5,-252.5 968.5,-282.5 1244.5,-282.5 1244.5,-252.5 968.5,-252.5"/>
<text text-anchor="start" x="975.5" y="-263.9" font-family="Arial" font-size="14.00" fill="#000000">create_uid </text>
<text text-anchor="start" x="1044.744" y="-263.9" font-family="Arial" font-size="14.00" fill="#666666">[integer]</text>
<polygon fill="none" stroke="#000000" points="968.5,-222.5 968.5,-252.5 1244.5,-252.5 1244.5,-222.5 968.5,-222.5"/>
<text text-anchor="start" x="975.0246" y="-233.9" font-family="Arial" font-size="14.00" fill="#000000">create_date </text>
<text text-anchor="start" x="1052.8352" y="-233.9" font-family="Arial" font-size="14.00" fill="#666666">[timestamp without time zone]</text>
<polygon fill="none" stroke="#000000" points="968.5,-192.5 968.5,-222.5 1244.5,-222.5 1244.5,-192.5 968.5,-192.5"/>
<text text-anchor="start" x="975.5" y="-203.9" font-family="Arial" font-size="14.00" fill="#000000">write_uid </text>
<text text-anchor="start" x="1035.392" y="-203.9" font-family="Arial" font-size="14.00" fill="#666666">[integer]</text>
<polygon fill="none" stroke="#000000" points="968.5,-162.5 968.5,-192.5 1244.5,-192.5 1244.5,-162.5 968.5,-162.5"/>
<text text-anchor="start" x="975.5" y="-173.9" font-family="Arial" font-size="14.00" fill="#000000">write_date </text>
<text text-anchor="start" x="1043.9586" y="-173.9" font-family="Arial" font-size="14.00" fill="#666666">[timestamp without time zone]</text>
<polygon fill="none" stroke="#000000" points="968.5,-132.5 968.5,-162.5 1244.5,-162.5 1244.5,-132.5 968.5,-132.5"/>
<text text-anchor="start" x="975.5" y="-143.9" font-family="Arial" font-size="14.00" fill="#000000">rounding_method </text>
<text text-anchor="start" x="1088.3176" y="-143.9" font-family="Arial" font-size="14.00" fill="#666666">[integer]</text>
<polygon fill="none" stroke="#000000" points="968.5,-102.5 968.5,-132.5 1244.5,-132.5 1244.5,-102.5 968.5,-102.5"/>
<text text-anchor="start" x="975.5" y="-113.9" font-family="Arial" font-size="14.00" fill="#000000">cash_rounding </text>
<text text-anchor="start" x="1071.2012" y="-113.9" font-family="Arial" font-size="14.00" fill="#666666">[boolean]</text>
<polygon fill="none" stroke="#000000" points="968.5,-72.5 968.5,-102.5 1244.5,-102.5 1244.5,-72.5 968.5,-72.5"/>
<text text-anchor="start" x="975.5" y="-83.9" font-family="Arial" font-size="14.00" fill="#000000">only_round_cash_method </text>
<text text-anchor="start" x="1140.448" y="-83.9" font-family="Arial" font-size="14.00" fill="#666666">[boolean]</text>
<polygon fill="none" stroke="#000000" points="968.5,-42.5 968.5,-72.5 1244.5,-72.5 1244.5,-42.5 968.5,-42.5"/>
<text text-anchor="start" x="975.5" y="-53.9" font-family="Arial" font-size="14.00" fill="#000000">crm_team_id </text>
<text text-anchor="start" x="1060.2826" y="-53.9" font-family="Arial" font-size="14.00" fill="#666666">[integer]</text>
</g>
<!-- public.account_cashbox_line&#45;&gt;public.pos_config -->
<g id="edge4" class="edge">
<title>public.account_cashbox_line:default_pos_id&#45;&gt;public.pos_config:id</title>
<path fill="none" stroke="#000000" d="M906.6352,-2016.5673C978.2296,-2002.2337 881.8996,-1827.5 968.5,-1827.5"/>
<polygon fill="#000000" stroke="#000000" points="906.4579,-2016.5835 896.0876,-2013.0189 901.479,-2017.0418 896.5,-2017.5 896.5,-2017.5 896.5,-2017.5 901.479,-2017.0418 896.9124,-2021.9811 906.4579,-2016.5835 906.4579,-2016.5835"/>
<text text-anchor="start" x="903.755" y="-2027.5" font-family="Arial" font-size="10.00" fill="#000000">FOREIGN KEY (default_pos_id) REFERENCES pos_config(id) ON DELETE SET NULL</text>
</g>
</g>
</svg>
