<?xml version="1.0" encoding="UTF-8" standalone="no"?>
<!DOCTYPE svg PUBLIC "-//W3C//DTD SVG 1.1//EN"
 "http://www.w3.org/Graphics/SVG/1.1/DTD/svg11.dtd">
<!-- Generated by graphviz version 2.40.1 (20161225.0304)
 -->
<!-- Title: public.mail_compose_message_res_partner_rel Pages: 1 -->
<svg width="1331pt" height="2422pt"
 viewBox="0.00 0.00 1331.00 2422.00" xmlns="http://www.w3.org/2000/svg" xmlns:xlink="http://www.w3.org/1999/xlink">
<g id="graph0" class="graph" transform="scale(1 1) rotate(0) translate(4 2418)">
<title>public.mail_compose_message_res_partner_rel</title>
<polygon fill="#ffffff" stroke="transparent" points="-4,4 -4,-2418 1327,-2418 1327,4 -4,4"/>
<!-- public.mail_compose_message_res_partner_rel -->
<g id="node1" class="node">
<title>public.mail_compose_message_res_partner_rel</title>
<polygon fill="#efefef" stroke="transparent" points="443,-2332.5 443,-2367.5 937,-2367.5 937,-2332.5 443,-2332.5"/>
<polygon fill="none" stroke="#000000" points="443,-2332.5 443,-2367.5 937,-2367.5 937,-2332.5 443,-2332.5"/>
<text text-anchor="start" x="449.8414" y="-2345.3" font-family="Arial Bold" font-size="18.00" fill="#000000">public.mail_compose_message_res_partner_rel</text>
<text text-anchor="start" x="832.9048" y="-2345.3" font-family="Arial" font-size="14.00" fill="#000000"> </text>
<text text-anchor="start" x="836.7954" y="-2345.3" font-family="Arial" font-size="14.00" fill="#666666">[BASE TABLE]</text>
<polygon fill="none" stroke="#000000" points="443,-2302.5 443,-2332.5 937,-2332.5 937,-2302.5 443,-2302.5"/>
<text text-anchor="start" x="450" y="-2313.9" font-family="Arial" font-size="14.00" fill="#000000">wizard_id </text>
<text text-anchor="start" x="513.0014" y="-2313.9" font-family="Arial" font-size="14.00" fill="#666666">[integer]</text>
<polygon fill="none" stroke="#000000" points="443,-2272.5 443,-2302.5 937,-2302.5 937,-2272.5 443,-2272.5"/>
<text text-anchor="start" x="450" y="-2283.9" font-family="Arial" font-size="14.00" fill="#000000">partner_id </text>
<text text-anchor="start" x="516.9046" y="-2283.9" font-family="Arial" font-size="14.00" fill="#666666">[integer]</text>
<polygon fill="none" stroke="#000000" stroke-width="3" points="441.5,-2271.5 441.5,-2369.5 938.5,-2369.5 938.5,-2271.5 441.5,-2271.5"/>
</g>
<!-- public.mail_compose_message -->
<g id="node2" class="node">
<title>public.mail_compose_message</title>
<polygon fill="#efefef" stroke="transparent" points="275,-1587.5 275,-1622.5 637,-1622.5 637,-1587.5 275,-1587.5"/>
<polygon fill="none" stroke="#000000" points="275,-1587.5 275,-1622.5 637,-1622.5 637,-1587.5 275,-1587.5"/>
<text text-anchor="start" x="281.8519" y="-1600.3" font-family="Arial Bold" font-size="18.00" fill="#000000">public.mail_compose_message</text>
<text text-anchor="start" x="532.8943" y="-1600.3" font-family="Arial" font-size="14.00" fill="#000000"> </text>
<text text-anchor="start" x="536.7849" y="-1600.3" font-family="Arial" font-size="14.00" fill="#666666">[BASE TABLE]</text>
<polygon fill="none" stroke="#000000" points="275,-1557.5 275,-1587.5 637,-1587.5 637,-1557.5 275,-1557.5"/>
<text text-anchor="start" x="282" y="-1568.9" font-family="Arial" font-size="14.00" fill="#000000">id </text>
<text text-anchor="start" x="296.7798" y="-1568.9" font-family="Arial" font-size="14.00" fill="#666666">[integer]</text>
<polygon fill="none" stroke="#000000" points="275,-1527.5 275,-1557.5 637,-1557.5 637,-1527.5 275,-1527.5"/>
<text text-anchor="start" x="282" y="-1538.9" font-family="Arial" font-size="14.00" fill="#000000">composition_mode </text>
<text text-anchor="start" x="403.359" y="-1538.9" font-family="Arial" font-size="14.00" fill="#666666">[varchar]</text>
<polygon fill="none" stroke="#000000" points="275,-1497.5 275,-1527.5 637,-1527.5 637,-1497.5 275,-1497.5"/>
<text text-anchor="start" x="282" y="-1508.9" font-family="Arial" font-size="14.00" fill="#000000">use_active_domain </text>
<text text-anchor="start" x="406.481" y="-1508.9" font-family="Arial" font-size="14.00" fill="#666666">[boolean]</text>
<polygon fill="none" stroke="#000000" points="275,-1467.5 275,-1497.5 637,-1497.5 637,-1467.5 275,-1467.5"/>
<text text-anchor="start" x="282" y="-1478.9" font-family="Arial" font-size="14.00" fill="#000000">active_domain </text>
<text text-anchor="start" x="376.1332" y="-1478.9" font-family="Arial" font-size="14.00" fill="#666666">[text]</text>
<polygon fill="none" stroke="#000000" points="275,-1437.5 275,-1467.5 637,-1467.5 637,-1437.5 275,-1437.5"/>
<text text-anchor="start" x="282" y="-1448.9" font-family="Arial" font-size="14.00" fill="#000000">is_log </text>
<text text-anchor="start" x="322.4516" y="-1448.9" font-family="Arial" font-size="14.00" fill="#666666">[boolean]</text>
<polygon fill="none" stroke="#000000" points="275,-1407.5 275,-1437.5 637,-1437.5 637,-1407.5 275,-1407.5"/>
<text text-anchor="start" x="282" y="-1418.9" font-family="Arial" font-size="14.00" fill="#000000">subject </text>
<text text-anchor="start" x="330.2356" y="-1418.9" font-family="Arial" font-size="14.00" fill="#666666">[varchar]</text>
<polygon fill="none" stroke="#000000" points="275,-1377.5 275,-1407.5 637,-1407.5 637,-1377.5 275,-1377.5"/>
<text text-anchor="start" x="282" y="-1388.9" font-family="Arial" font-size="14.00" fill="#000000">notify </text>
<text text-anchor="start" x="319.3436" y="-1388.9" font-family="Arial" font-size="14.00" fill="#666666">[boolean]</text>
<polygon fill="none" stroke="#000000" points="275,-1347.5 275,-1377.5 637,-1377.5 637,-1347.5 275,-1347.5"/>
<text text-anchor="start" x="282" y="-1358.9" font-family="Arial" font-size="14.00" fill="#000000">auto_delete </text>
<text text-anchor="start" x="359.0392" y="-1358.9" font-family="Arial" font-size="14.00" fill="#666666">[boolean]</text>
<polygon fill="none" stroke="#000000" points="275,-1317.5 275,-1347.5 637,-1347.5 637,-1317.5 275,-1317.5"/>
<text text-anchor="start" x="282" y="-1328.9" font-family="Arial" font-size="14.00" fill="#000000">auto_delete_message </text>
<text text-anchor="start" x="423.6128" y="-1328.9" font-family="Arial" font-size="14.00" fill="#666666">[boolean]</text>
<polygon fill="none" stroke="#000000" points="275,-1287.5 275,-1317.5 637,-1317.5 637,-1287.5 275,-1287.5"/>
<text text-anchor="start" x="282" y="-1298.9" font-family="Arial" font-size="14.00" fill="#000000">template_id </text>
<text text-anchor="start" x="358.2412" y="-1298.9" font-family="Arial" font-size="14.00" fill="#666666">[integer]</text>
<polygon fill="none" stroke="#000000" points="275,-1257.5 275,-1287.5 637,-1287.5 637,-1257.5 275,-1257.5"/>
<text text-anchor="start" x="282" y="-1268.9" font-family="Arial" font-size="14.00" fill="#000000">message_type </text>
<text text-anchor="start" x="376.92" y="-1268.9" font-family="Arial" font-size="14.00" fill="#666666">[varchar]</text>
<polygon fill="none" stroke="#000000" points="275,-1227.5 275,-1257.5 637,-1257.5 637,-1227.5 275,-1227.5"/>
<text text-anchor="start" x="282" y="-1238.9" font-family="Arial" font-size="14.00" fill="#000000">subtype_id </text>
<text text-anchor="start" x="353.5834" y="-1238.9" font-family="Arial" font-size="14.00" fill="#666666">[integer]</text>
<polygon fill="none" stroke="#000000" points="275,-1197.5 275,-1227.5 637,-1227.5 637,-1197.5 275,-1197.5"/>
<text text-anchor="start" x="282" y="-1208.9" font-family="Arial" font-size="14.00" fill="#000000">date </text>
<text text-anchor="start" x="313.129" y="-1208.9" font-family="Arial" font-size="14.00" fill="#666666">[timestamp without time zone]</text>
<polygon fill="none" stroke="#000000" points="275,-1167.5 275,-1197.5 637,-1197.5 637,-1167.5 275,-1167.5"/>
<text text-anchor="start" x="282" y="-1178.9" font-family="Arial" font-size="14.00" fill="#000000">body </text>
<text text-anchor="start" x="316.2384" y="-1178.9" font-family="Arial" font-size="14.00" fill="#666666">[text]</text>
<polygon fill="none" stroke="#000000" points="275,-1137.5 275,-1167.5 637,-1167.5 637,-1137.5 275,-1137.5"/>
<text text-anchor="start" x="282" y="-1148.9" font-family="Arial" font-size="14.00" fill="#000000">parent_id </text>
<text text-anchor="start" x="344.244" y="-1148.9" font-family="Arial" font-size="14.00" fill="#666666">[integer]</text>
<polygon fill="none" stroke="#000000" points="275,-1107.5 275,-1137.5 637,-1137.5 637,-1107.5 275,-1107.5"/>
<text text-anchor="start" x="282" y="-1118.9" font-family="Arial" font-size="14.00" fill="#000000">model </text>
<text text-anchor="start" x="324.0056" y="-1118.9" font-family="Arial" font-size="14.00" fill="#666666">[varchar]</text>
<polygon fill="none" stroke="#000000" points="275,-1077.5 275,-1107.5 637,-1107.5 637,-1077.5 275,-1077.5"/>
<text text-anchor="start" x="282" y="-1088.9" font-family="Arial" font-size="14.00" fill="#000000">res_id </text>
<text text-anchor="start" x="324.0056" y="-1088.9" font-family="Arial" font-size="14.00" fill="#666666">[integer]</text>
<polygon fill="none" stroke="#000000" points="275,-1047.5 275,-1077.5 637,-1077.5 637,-1047.5 275,-1047.5"/>
<text text-anchor="start" x="282" y="-1058.9" font-family="Arial" font-size="14.00" fill="#000000">record_name </text>
<text text-anchor="start" x="368.3506" y="-1058.9" font-family="Arial" font-size="14.00" fill="#666666">[varchar]</text>
<polygon fill="none" stroke="#000000" points="275,-1017.5 275,-1047.5 637,-1047.5 637,-1017.5 275,-1017.5"/>
<text text-anchor="start" x="282" y="-1028.9" font-family="Arial" font-size="14.00" fill="#000000">mail_activity_type_id </text>
<text text-anchor="start" x="415.0168" y="-1028.9" font-family="Arial" font-size="14.00" fill="#666666">[integer]</text>
<polygon fill="none" stroke="#000000" points="275,-987.5 275,-1017.5 637,-1017.5 637,-987.5 275,-987.5"/>
<text text-anchor="start" x="282" y="-998.9" font-family="Arial" font-size="14.00" fill="#000000">email_from </text>
<text text-anchor="start" x="355.1066" y="-998.9" font-family="Arial" font-size="14.00" fill="#666666">[varchar]</text>
<polygon fill="none" stroke="#000000" points="275,-957.5 275,-987.5 637,-987.5 637,-957.5 275,-957.5"/>
<text text-anchor="start" x="282" y="-968.9" font-family="Arial" font-size="14.00" fill="#000000">author_id </text>
<text text-anchor="start" x="344.244" y="-968.9" font-family="Arial" font-size="14.00" fill="#666666">[integer]</text>
<polygon fill="none" stroke="#000000" points="275,-927.5 275,-957.5 637,-957.5 637,-927.5 275,-927.5"/>
<text text-anchor="start" x="282" y="-938.9" font-family="Arial" font-size="14.00" fill="#000000">no_auto_thread </text>
<text text-anchor="start" x="383.941" y="-938.9" font-family="Arial" font-size="14.00" fill="#666666">[boolean]</text>
<polygon fill="none" stroke="#000000" points="275,-897.5 275,-927.5 637,-927.5 637,-897.5 275,-897.5"/>
<text text-anchor="start" x="282" y="-908.9" font-family="Arial" font-size="14.00" fill="#000000">message_id </text>
<text text-anchor="start" x="361.3534" y="-908.9" font-family="Arial" font-size="14.00" fill="#666666">[varchar]</text>
<polygon fill="none" stroke="#000000" points="275,-867.5 275,-897.5 637,-897.5 637,-867.5 275,-867.5"/>
<text text-anchor="start" x="282" y="-878.9" font-family="Arial" font-size="14.00" fill="#000000">reply_to </text>
<text text-anchor="start" x="335.6788" y="-878.9" font-family="Arial" font-size="14.00" fill="#666666">[varchar]</text>
<polygon fill="none" stroke="#000000" points="275,-837.5 275,-867.5 637,-867.5 637,-837.5 275,-837.5"/>
<text text-anchor="start" x="282" y="-848.9" font-family="Arial" font-size="14.00" fill="#000000">mail_server_id </text>
<text text-anchor="start" x="376.8878" y="-848.9" font-family="Arial" font-size="14.00" fill="#666666">[integer]</text>
<polygon fill="none" stroke="#000000" points="275,-807.5 275,-837.5 637,-837.5 637,-807.5 275,-807.5"/>
<text text-anchor="start" x="282" y="-818.9" font-family="Arial" font-size="14.00" fill="#000000">moderation_status </text>
<text text-anchor="start" x="401.0336" y="-818.9" font-family="Arial" font-size="14.00" fill="#666666">[varchar]</text>
<polygon fill="none" stroke="#000000" points="275,-777.5 275,-807.5 637,-807.5 637,-777.5 275,-777.5"/>
<text text-anchor="start" x="282" y="-788.9" font-family="Arial" font-size="14.00" fill="#000000">moderator_id </text>
<text text-anchor="start" x="368.3478" y="-788.9" font-family="Arial" font-size="14.00" fill="#666666">[integer]</text>
<polygon fill="none" stroke="#000000" points="275,-747.5 275,-777.5 637,-777.5 637,-747.5 275,-747.5"/>
<text text-anchor="start" x="282" y="-758.9" font-family="Arial" font-size="14.00" fill="#000000">layout </text>
<text text-anchor="start" x="323.2356" y="-758.9" font-family="Arial" font-size="14.00" fill="#666666">[varchar]</text>
<polygon fill="none" stroke="#000000" points="275,-717.5 275,-747.5 637,-747.5 637,-717.5 275,-717.5"/>
<text text-anchor="start" x="282" y="-728.9" font-family="Arial" font-size="14.00" fill="#000000">add_sign </text>
<text text-anchor="start" x="342.6928" y="-728.9" font-family="Arial" font-size="14.00" fill="#666666">[boolean]</text>
<polygon fill="none" stroke="#000000" points="275,-687.5 275,-717.5 637,-717.5 637,-687.5 275,-687.5"/>
<text text-anchor="start" x="282" y="-698.9" font-family="Arial" font-size="14.00" fill="#000000">create_uid </text>
<text text-anchor="start" x="351.244" y="-698.9" font-family="Arial" font-size="14.00" fill="#666666">[integer]</text>
<polygon fill="none" stroke="#000000" points="275,-657.5 275,-687.5 637,-687.5 637,-657.5 275,-657.5"/>
<text text-anchor="start" x="282" y="-668.9" font-family="Arial" font-size="14.00" fill="#000000">create_date </text>
<text text-anchor="start" x="359.8106" y="-668.9" font-family="Arial" font-size="14.00" fill="#666666">[timestamp without time zone]</text>
<polygon fill="none" stroke="#000000" points="275,-627.5 275,-657.5 637,-657.5 637,-627.5 275,-627.5"/>
<text text-anchor="start" x="282" y="-638.9" font-family="Arial" font-size="14.00" fill="#000000">write_uid </text>
<text text-anchor="start" x="341.892" y="-638.9" font-family="Arial" font-size="14.00" fill="#666666">[integer]</text>
<polygon fill="none" stroke="#000000" points="275,-597.5 275,-627.5 637,-627.5 637,-597.5 275,-597.5"/>
<text text-anchor="start" x="282" y="-608.9" font-family="Arial" font-size="14.00" fill="#000000">write_date </text>
<text text-anchor="start" x="350.4586" y="-608.9" font-family="Arial" font-size="14.00" fill="#666666">[timestamp without time zone]</text>
<polygon fill="none" stroke="#000000" points="275,-567.5 275,-597.5 637,-597.5 637,-567.5 275,-567.5"/>
<text text-anchor="start" x="282" y="-578.9" font-family="Arial" font-size="14.00" fill="#000000">website_published </text>
<text text-anchor="start" x="401.0336" y="-578.9" font-family="Arial" font-size="14.00" fill="#666666">[boolean]</text>
</g>
<!-- public.mail_compose_message_res_partner_rel&#45;&gt;public.mail_compose_message -->
<g id="edge1" class="edge">
<title>public.mail_compose_message_res_partner_rel:wizard_id&#45;&gt;public.mail_compose_message:id</title>
<path fill="none" stroke="#000000" d="M432.9389,-2316.4831C294.6348,-2285.8322 804.4011,-1572.5 637,-1572.5"/>
<polygon fill="#000000" stroke="#000000" points="433.0507,-2316.4944 442.5475,-2321.9772 438.0253,-2316.9972 443,-2317.5 443,-2317.5 443,-2317.5 438.0253,-2316.9972 443.4525,-2313.0228 433.0507,-2316.4944 433.0507,-2316.4944"/>
<text text-anchor="start" x="7.271" y="-2327.5" font-family="Arial" font-size="10.00" fill="#000000">FOREIGN KEY (wizard_id) REFERENCES mail_compose_message(id) ON DELETE CASCADE</text>
</g>
<!-- public.res_partner -->
<g id="node3" class="node">
<title>public.res_partner</title>
<polygon fill="#efefef" stroke="transparent" points="741,-2112.5 741,-2147.5 1109,-2147.5 1109,-2112.5 741,-2112.5"/>
<polygon fill="none" stroke="#000000" points="741,-2112.5 741,-2147.5 1109,-2147.5 1109,-2112.5 741,-2112.5"/>
<text text-anchor="start" x="804.3605" y="-2125.3" font-family="Arial Bold" font-size="18.00" fill="#000000">public.res_partner</text>
<text text-anchor="start" x="948.3857" y="-2125.3" font-family="Arial" font-size="14.00" fill="#000000"> </text>
<text text-anchor="start" x="952.2763" y="-2125.3" font-family="Arial" font-size="14.00" fill="#666666">[BASE TABLE]</text>
<polygon fill="none" stroke="#000000" points="741,-2082.5 741,-2112.5 1109,-2112.5 1109,-2082.5 741,-2082.5"/>
<text text-anchor="start" x="748" y="-2093.9" font-family="Arial" font-size="14.00" fill="#000000">id </text>
<text text-anchor="start" x="762.7798" y="-2093.9" font-family="Arial" font-size="14.00" fill="#666666">[integer]</text>
<polygon fill="none" stroke="#000000" points="741,-2052.5 741,-2082.5 1109,-2082.5 1109,-2052.5 741,-2052.5"/>
<text text-anchor="start" x="748" y="-2063.9" font-family="Arial" font-size="14.00" fill="#000000">name </text>
<text text-anchor="start" x="786.899" y="-2063.9" font-family="Arial" font-size="14.00" fill="#666666">[varchar]</text>
<polygon fill="none" stroke="#000000" points="741,-2022.5 741,-2052.5 1109,-2052.5 1109,-2022.5 741,-2022.5"/>
<text text-anchor="start" x="748" y="-2033.9" font-family="Arial" font-size="14.00" fill="#000000">company_id </text>
<text text-anchor="start" x="827.3534" y="-2033.9" font-family="Arial" font-size="14.00" fill="#666666">[integer]</text>
<polygon fill="none" stroke="#000000" points="741,-1992.5 741,-2022.5 1109,-2022.5 1109,-1992.5 741,-1992.5"/>
<text text-anchor="start" x="748" y="-2003.9" font-family="Arial" font-size="14.00" fill="#000000">create_date </text>
<text text-anchor="start" x="825.8106" y="-2003.9" font-family="Arial" font-size="14.00" fill="#666666">[timestamp without time zone]</text>
<polygon fill="none" stroke="#000000" points="741,-1962.5 741,-1992.5 1109,-1992.5 1109,-1962.5 741,-1962.5"/>
<text text-anchor="start" x="748" y="-1973.9" font-family="Arial" font-size="14.00" fill="#000000">display_name </text>
<text text-anchor="start" x="838.2426" y="-1973.9" font-family="Arial" font-size="14.00" fill="#666666">[varchar]</text>
<polygon fill="none" stroke="#000000" points="741,-1932.5 741,-1962.5 1109,-1962.5 1109,-1932.5 741,-1932.5"/>
<text text-anchor="start" x="748" y="-1943.9" font-family="Arial" font-size="14.00" fill="#000000">date </text>
<text text-anchor="start" x="779.129" y="-1943.9" font-family="Arial" font-size="14.00" fill="#666666">[date]</text>
<polygon fill="none" stroke="#000000" points="741,-1902.5 741,-1932.5 1109,-1932.5 1109,-1902.5 741,-1902.5"/>
<text text-anchor="start" x="748" y="-1913.9" font-family="Arial" font-size="14.00" fill="#000000">title </text>
<text text-anchor="start" x="773.6676" y="-1913.9" font-family="Arial" font-size="14.00" fill="#666666">[integer]</text>
<polygon fill="none" stroke="#000000" points="741,-1872.5 741,-1902.5 1109,-1902.5 1109,-1872.5 741,-1872.5"/>
<text text-anchor="start" x="748" y="-1883.9" font-family="Arial" font-size="14.00" fill="#000000">parent_id </text>
<text text-anchor="start" x="810.244" y="-1883.9" font-family="Arial" font-size="14.00" fill="#666666">[integer]</text>
<polygon fill="none" stroke="#000000" points="741,-1842.5 741,-1872.5 1109,-1872.5 1109,-1842.5 741,-1842.5"/>
<text text-anchor="start" x="748" y="-1853.9" font-family="Arial" font-size="14.00" fill="#000000">ref </text>
<text text-anchor="start" x="768.2244" y="-1853.9" font-family="Arial" font-size="14.00" fill="#666666">[varchar]</text>
<polygon fill="none" stroke="#000000" points="741,-1812.5 741,-1842.5 1109,-1842.5 1109,-1812.5 741,-1812.5"/>
<text text-anchor="start" x="748" y="-1823.9" font-family="Arial" font-size="14.00" fill="#000000">lang </text>
<text text-anchor="start" x="778.345" y="-1823.9" font-family="Arial" font-size="14.00" fill="#666666">[varchar]</text>
<polygon fill="none" stroke="#000000" points="741,-1782.5 741,-1812.5 1109,-1812.5 1109,-1782.5 741,-1782.5"/>
<text text-anchor="start" x="748" y="-1793.9" font-family="Arial" font-size="14.00" fill="#000000">tz </text>
<text text-anchor="start" x="762.7812" y="-1793.9" font-family="Arial" font-size="14.00" fill="#666666">[varchar]</text>
<polygon fill="none" stroke="#000000" points="741,-1752.5 741,-1782.5 1109,-1782.5 1109,-1752.5 741,-1752.5"/>
<text text-anchor="start" x="748" y="-1763.9" font-family="Arial" font-size="14.00" fill="#000000">user_id </text>
<text text-anchor="start" x="797.7882" y="-1763.9" font-family="Arial" font-size="14.00" fill="#666666">[integer]</text>
<polygon fill="none" stroke="#000000" points="741,-1722.5 741,-1752.5 1109,-1752.5 1109,-1722.5 741,-1722.5"/>
<text text-anchor="start" x="748" y="-1733.9" font-family="Arial" font-size="14.00" fill="#000000">vat </text>
<text text-anchor="start" x="770.5638" y="-1733.9" font-family="Arial" font-size="14.00" fill="#666666">[varchar]</text>
<polygon fill="none" stroke="#000000" points="741,-1692.5 741,-1722.5 1109,-1722.5 1109,-1692.5 741,-1692.5"/>
<text text-anchor="start" x="748" y="-1703.9" font-family="Arial" font-size="14.00" fill="#000000">website </text>
<text text-anchor="start" x="799.3422" y="-1703.9" font-family="Arial" font-size="14.00" fill="#666666">[varchar]</text>
<polygon fill="none" stroke="#000000" points="741,-1662.5 741,-1692.5 1109,-1692.5 1109,-1662.5 741,-1662.5"/>
<text text-anchor="start" x="748" y="-1673.9" font-family="Arial" font-size="14.00" fill="#000000">comment </text>
<text text-anchor="start" x="809.4502" y="-1673.9" font-family="Arial" font-size="14.00" fill="#666666">[text]</text>
<polygon fill="none" stroke="#000000" points="741,-1632.5 741,-1662.5 1109,-1662.5 1109,-1632.5 741,-1632.5"/>
<text text-anchor="start" x="748" y="-1643.9" font-family="Arial" font-size="14.00" fill="#000000">credit_limit </text>
<text text-anchor="start" x="818.7672" y="-1643.9" font-family="Arial" font-size="14.00" fill="#666666">[double precision]</text>
<polygon fill="none" stroke="#000000" points="741,-1602.5 741,-1632.5 1109,-1632.5 1109,-1602.5 741,-1602.5"/>
<text text-anchor="start" x="748" y="-1613.9" font-family="Arial" font-size="14.00" fill="#000000">barcode </text>
<text text-anchor="start" x="802.4642" y="-1613.9" font-family="Arial" font-size="14.00" fill="#666666">[varchar]</text>
<polygon fill="none" stroke="#000000" points="741,-1572.5 741,-1602.5 1109,-1602.5 1109,-1572.5 741,-1572.5"/>
<text text-anchor="start" x="748" y="-1583.9" font-family="Arial" font-size="14.00" fill="#000000">active </text>
<text text-anchor="start" x="788.453" y="-1583.9" font-family="Arial" font-size="14.00" fill="#666666">[boolean]</text>
<polygon fill="none" stroke="#000000" points="741,-1542.5 741,-1572.5 1109,-1572.5 1109,-1542.5 741,-1542.5"/>
<text text-anchor="start" x="748" y="-1553.9" font-family="Arial" font-size="14.00" fill="#000000">customer </text>
<text text-anchor="start" x="809.4502" y="-1553.9" font-family="Arial" font-size="14.00" fill="#666666">[boolean]</text>
<polygon fill="none" stroke="#000000" points="741,-1512.5 741,-1542.5 1109,-1542.5 1109,-1512.5 741,-1512.5"/>
<text text-anchor="start" x="748" y="-1523.9" font-family="Arial" font-size="14.00" fill="#000000">supplier </text>
<text text-anchor="start" x="800.8948" y="-1523.9" font-family="Arial" font-size="14.00" fill="#666666">[boolean]</text>
<polygon fill="none" stroke="#000000" points="741,-1482.5 741,-1512.5 1109,-1512.5 1109,-1482.5 741,-1482.5"/>
<text text-anchor="start" x="748" y="-1493.9" font-family="Arial" font-size="14.00" fill="#000000">employee </text>
<text text-anchor="start" x="812.5708" y="-1493.9" font-family="Arial" font-size="14.00" fill="#666666">[boolean]</text>
<polygon fill="none" stroke="#000000" points="741,-1452.5 741,-1482.5 1109,-1482.5 1109,-1452.5 741,-1452.5"/>
<text text-anchor="start" x="748" y="-1463.9" font-family="Arial" font-size="14.00" fill="#000000">function </text>
<text text-anchor="start" x="800.9088" y="-1463.9" font-family="Arial" font-size="14.00" fill="#666666">[varchar]</text>
<polygon fill="none" stroke="#000000" points="741,-1422.5 741,-1452.5 1109,-1452.5 1109,-1422.5 741,-1422.5"/>
<text text-anchor="start" x="748" y="-1433.9" font-family="Arial" font-size="14.00" fill="#000000">type </text>
<text text-anchor="start" x="778.3464" y="-1433.9" font-family="Arial" font-size="14.00" fill="#666666">[varchar]</text>
<polygon fill="none" stroke="#000000" points="741,-1392.5 741,-1422.5 1109,-1422.5 1109,-1392.5 741,-1392.5"/>
<text text-anchor="start" x="748" y="-1403.9" font-family="Arial" font-size="14.00" fill="#000000">street </text>
<text text-anchor="start" x="786.8976" y="-1403.9" font-family="Arial" font-size="14.00" fill="#666666">[varchar]</text>
<polygon fill="none" stroke="#000000" points="741,-1362.5 741,-1392.5 1109,-1392.5 1109,-1362.5 741,-1362.5"/>
<text text-anchor="start" x="748" y="-1373.9" font-family="Arial" font-size="14.00" fill="#000000">street2 </text>
<text text-anchor="start" x="794.6802" y="-1373.9" font-family="Arial" font-size="14.00" fill="#666666">[varchar]</text>
<polygon fill="none" stroke="#000000" points="741,-1332.5 741,-1362.5 1109,-1362.5 1109,-1332.5 741,-1332.5"/>
<text text-anchor="start" x="748" y="-1343.9" font-family="Arial" font-size="14.00" fill="#000000">zip </text>
<text text-anchor="start" x="769.7798" y="-1343.9" font-family="Arial" font-size="14.00" fill="#666666">[varchar]</text>
<polygon fill="none" stroke="#000000" points="741,-1302.5 741,-1332.5 1109,-1332.5 1109,-1302.5 741,-1302.5"/>
<text text-anchor="start" x="748" y="-1313.9" font-family="Arial" font-size="14.00" fill="#000000">city </text>
<text text-anchor="start" x="772.8878" y="-1313.9" font-family="Arial" font-size="14.00" fill="#666666">[varchar]</text>
<polygon fill="none" stroke="#000000" points="741,-1272.5 741,-1302.5 1109,-1302.5 1109,-1272.5 741,-1272.5"/>
<text text-anchor="start" x="748" y="-1283.9" font-family="Arial" font-size="14.00" fill="#000000">state_id </text>
<text text-anchor="start" x="800.9088" y="-1283.9" font-family="Arial" font-size="14.00" fill="#666666">[integer]</text>
<polygon fill="none" stroke="#000000" points="741,-1242.5 741,-1272.5 1109,-1272.5 1109,-1242.5 741,-1242.5"/>
<text text-anchor="start" x="748" y="-1253.9" font-family="Arial" font-size="14.00" fill="#000000">country_id </text>
<text text-anchor="start" x="816.4614" y="-1253.9" font-family="Arial" font-size="14.00" fill="#666666">[integer]</text>
<polygon fill="none" stroke="#000000" points="741,-1212.5 741,-1242.5 1109,-1242.5 1109,-1212.5 741,-1212.5"/>
<text text-anchor="start" x="748" y="-1223.9" font-family="Arial" font-size="14.00" fill="#000000">email </text>
<text text-anchor="start" x="785.3296" y="-1223.9" font-family="Arial" font-size="14.00" fill="#666666">[varchar]</text>
<polygon fill="none" stroke="#000000" points="741,-1182.5 741,-1212.5 1109,-1212.5 1109,-1182.5 741,-1182.5"/>
<text text-anchor="start" x="748" y="-1193.9" font-family="Arial" font-size="14.00" fill="#000000">phone </text>
<text text-anchor="start" x="790.8036" y="-1193.9" font-family="Arial" font-size="14.00" fill="#666666">[varchar]</text>
<polygon fill="none" stroke="#000000" points="741,-1152.5 741,-1182.5 1109,-1182.5 1109,-1152.5 741,-1152.5"/>
<text text-anchor="start" x="748" y="-1163.9" font-family="Arial" font-size="14.00" fill="#000000">mobile </text>
<text text-anchor="start" x="793.1122" y="-1163.9" font-family="Arial" font-size="14.00" fill="#666666">[varchar]</text>
<polygon fill="none" stroke="#000000" points="741,-1122.5 741,-1152.5 1109,-1152.5 1109,-1122.5 741,-1122.5"/>
<text text-anchor="start" x="748" y="-1133.9" font-family="Arial" font-size="14.00" fill="#000000">is_company </text>
<text text-anchor="start" x="826.5708" y="-1133.9" font-family="Arial" font-size="14.00" fill="#666666">[boolean]</text>
<polygon fill="none" stroke="#000000" points="741,-1092.5 741,-1122.5 1109,-1122.5 1109,-1092.5 741,-1092.5"/>
<text text-anchor="start" x="748" y="-1103.9" font-family="Arial" font-size="14.00" fill="#000000">industry_id </text>
<text text-anchor="start" x="819.568" y="-1103.9" font-family="Arial" font-size="14.00" fill="#666666">[integer]</text>
<polygon fill="none" stroke="#000000" points="741,-1062.5 741,-1092.5 1109,-1092.5 1109,-1062.5 741,-1062.5"/>
<text text-anchor="start" x="748" y="-1073.9" font-family="Arial" font-size="14.00" fill="#000000">color </text>
<text text-anchor="start" x="782.223" y="-1073.9" font-family="Arial" font-size="14.00" fill="#666666">[integer]</text>
<polygon fill="none" stroke="#000000" points="741,-1032.5 741,-1062.5 1109,-1062.5 1109,-1032.5 741,-1032.5"/>
<text text-anchor="start" x="748" y="-1043.9" font-family="Arial" font-size="14.00" fill="#000000">partner_share </text>
<text text-anchor="start" x="839.0238" y="-1043.9" font-family="Arial" font-size="14.00" fill="#666666">[boolean]</text>
<polygon fill="none" stroke="#000000" points="741,-1002.5 741,-1032.5 1109,-1032.5 1109,-1002.5 741,-1002.5"/>
<text text-anchor="start" x="748" y="-1013.9" font-family="Arial" font-size="14.00" fill="#000000">commercial_partner_id </text>
<text text-anchor="start" x="894.23" y="-1013.9" font-family="Arial" font-size="14.00" fill="#666666">[integer]</text>
<polygon fill="none" stroke="#000000" points="741,-972.5 741,-1002.5 1109,-1002.5 1109,-972.5 741,-972.5"/>
<text text-anchor="start" x="748" y="-983.9" font-family="Arial" font-size="14.00" fill="#000000">commercial_company_name </text>
<text text-anchor="start" x="930.798" y="-983.9" font-family="Arial" font-size="14.00" fill="#666666">[varchar]</text>
<polygon fill="none" stroke="#000000" points="741,-942.5 741,-972.5 1109,-972.5 1109,-942.5 741,-942.5"/>
<text text-anchor="start" x="748" y="-953.9" font-family="Arial" font-size="14.00" fill="#000000">company_name </text>
<text text-anchor="start" x="851.4726" y="-953.9" font-family="Arial" font-size="14.00" fill="#666666">[varchar]</text>
<polygon fill="none" stroke="#000000" points="741,-912.5 741,-942.5 1109,-942.5 1109,-912.5 741,-912.5"/>
<text text-anchor="start" x="748" y="-923.9" font-family="Arial" font-size="14.00" fill="#000000">create_uid </text>
<text text-anchor="start" x="817.244" y="-923.9" font-family="Arial" font-size="14.00" fill="#666666">[integer]</text>
<polygon fill="none" stroke="#000000" points="741,-882.5 741,-912.5 1109,-912.5 1109,-882.5 741,-882.5"/>
<text text-anchor="start" x="748" y="-893.9" font-family="Arial" font-size="14.00" fill="#000000">write_uid </text>
<text text-anchor="start" x="807.892" y="-893.9" font-family="Arial" font-size="14.00" fill="#666666">[integer]</text>
<polygon fill="none" stroke="#000000" points="741,-852.5 741,-882.5 1109,-882.5 1109,-852.5 741,-852.5"/>
<text text-anchor="start" x="748" y="-863.9" font-family="Arial" font-size="14.00" fill="#000000">write_date </text>
<text text-anchor="start" x="816.4586" y="-863.9" font-family="Arial" font-size="14.00" fill="#666666">[timestamp without time zone]</text>
<polygon fill="none" stroke="#000000" points="741,-822.5 741,-852.5 1109,-852.5 1109,-822.5 741,-822.5"/>
<text text-anchor="start" x="748" y="-833.9" font-family="Arial" font-size="14.00" fill="#000000">message_main_attachment_id </text>
<text text-anchor="start" x="942.4964" y="-833.9" font-family="Arial" font-size="14.00" fill="#666666">[integer]</text>
<polygon fill="none" stroke="#000000" points="741,-792.5 741,-822.5 1109,-822.5 1109,-792.5 741,-792.5"/>
<text text-anchor="start" x="748" y="-803.9" font-family="Arial" font-size="14.00" fill="#000000">message_bounce </text>
<text text-anchor="start" x="862.3772" y="-803.9" font-family="Arial" font-size="14.00" fill="#666666">[integer]</text>
<polygon fill="none" stroke="#000000" points="741,-762.5 741,-792.5 1109,-792.5 1109,-762.5 741,-762.5"/>
<text text-anchor="start" x="748" y="-773.9" font-family="Arial" font-size="14.00" fill="#000000">signup_token </text>
<text text-anchor="start" x="835.1486" y="-773.9" font-family="Arial" font-size="14.00" fill="#666666">[varchar]</text>
<polygon fill="none" stroke="#000000" points="741,-732.5 741,-762.5 1109,-762.5 1109,-732.5 741,-732.5"/>
<text text-anchor="start" x="748" y="-743.9" font-family="Arial" font-size="14.00" fill="#000000">signup_type </text>
<text text-anchor="start" x="827.366" y="-743.9" font-family="Arial" font-size="14.00" fill="#666666">[varchar]</text>
<polygon fill="none" stroke="#000000" points="741,-702.5 741,-732.5 1109,-732.5 1109,-702.5 741,-702.5"/>
<text text-anchor="start" x="748" y="-713.9" font-family="Arial" font-size="14.00" fill="#000000">signup_expiration </text>
<text text-anchor="start" x="861.5876" y="-713.9" font-family="Arial" font-size="14.00" fill="#666666">[timestamp without time zone]</text>
<polygon fill="none" stroke="#000000" points="741,-672.5 741,-702.5 1109,-702.5 1109,-672.5 741,-672.5"/>
<text text-anchor="start" x="748" y="-683.9" font-family="Arial" font-size="14.00" fill="#000000">calendar_last_notif_ack </text>
<text text-anchor="start" x="898.934" y="-683.9" font-family="Arial" font-size="14.00" fill="#666666">[timestamp without time zone]</text>
<polygon fill="none" stroke="#000000" points="741,-642.5 741,-672.5 1109,-672.5 1109,-642.5 741,-642.5"/>
<text text-anchor="start" x="748" y="-653.9" font-family="Arial" font-size="14.00" fill="#000000">partner_gid </text>
<text text-anchor="start" x="822.6872" y="-653.9" font-family="Arial" font-size="14.00" fill="#666666">[integer]</text>
<polygon fill="none" stroke="#000000" points="741,-612.5 741,-642.5 1109,-642.5 1109,-612.5 741,-612.5"/>
<text text-anchor="start" x="748" y="-623.9" font-family="Arial" font-size="14.00" fill="#000000">additional_info </text>
<text text-anchor="start" x="842.1416" y="-623.9" font-family="Arial" font-size="14.00" fill="#666666">[varchar]</text>
<polygon fill="none" stroke="#000000" points="741,-582.5 741,-612.5 1109,-612.5 1109,-582.5 741,-582.5"/>
<text text-anchor="start" x="748" y="-593.9" font-family="Arial" font-size="14.00" fill="#000000">team_id </text>
<text text-anchor="start" x="801.6788" y="-593.9" font-family="Arial" font-size="14.00" fill="#666666">[integer]</text>
<polygon fill="none" stroke="#000000" points="741,-552.5 741,-582.5 1109,-582.5 1109,-552.5 741,-552.5"/>
<text text-anchor="start" x="748" y="-563.9" font-family="Arial" font-size="14.00" fill="#000000">website_id </text>
<text text-anchor="start" x="818.014" y="-563.9" font-family="Arial" font-size="14.00" fill="#666666">[integer]</text>
<polygon fill="none" stroke="#000000" points="741,-522.5 741,-552.5 1109,-552.5 1109,-522.5 741,-522.5"/>
<text text-anchor="start" x="748" y="-533.9" font-family="Arial" font-size="14.00" fill="#000000">debit_limit </text>
<text text-anchor="start" x="814.8892" y="-533.9" font-family="Arial" font-size="14.00" fill="#666666">[numeric]</text>
<polygon fill="none" stroke="#000000" points="741,-492.5 741,-522.5 1109,-522.5 1109,-492.5 741,-492.5"/>
<text text-anchor="start" x="747.6326" y="-503.9" font-family="Arial" font-size="14.00" fill="#000000">last_time_entries_checked </text>
<text text-anchor="start" x="917.2272" y="-503.9" font-family="Arial" font-size="14.00" fill="#666666">[timestamp without time zone]</text>
<polygon fill="none" stroke="#000000" points="741,-462.5 741,-492.5 1109,-492.5 1109,-462.5 741,-462.5"/>
<text text-anchor="start" x="748" y="-473.9" font-family="Arial" font-size="14.00" fill="#000000">invoice_warn </text>
<text text-anchor="start" x="833.5666" y="-473.9" font-family="Arial" font-size="14.00" fill="#666666">[varchar]</text>
<polygon fill="none" stroke="#000000" points="741,-432.5 741,-462.5 1109,-462.5 1109,-432.5 741,-432.5"/>
<text text-anchor="start" x="748" y="-443.9" font-family="Arial" font-size="14.00" fill="#000000">invoice_warn_msg </text>
<text text-anchor="start" x="867.7924" y="-443.9" font-family="Arial" font-size="14.00" fill="#666666">[text]</text>
<polygon fill="none" stroke="#000000" points="741,-402.5 741,-432.5 1109,-432.5 1109,-402.5 741,-402.5"/>
<text text-anchor="start" x="748" y="-413.9" font-family="Arial" font-size="14.00" fill="#000000">sale_warn </text>
<text text-anchor="start" x="815.6774" y="-413.9" font-family="Arial" font-size="14.00" fill="#666666">[varchar]</text>
<polygon fill="none" stroke="#000000" points="741,-372.5 741,-402.5 1109,-402.5 1109,-372.5 741,-372.5"/>
<text text-anchor="start" x="748" y="-383.9" font-family="Arial" font-size="14.00" fill="#000000">sale_warn_msg </text>
<text text-anchor="start" x="849.9032" y="-383.9" font-family="Arial" font-size="14.00" fill="#666666">[text]</text>
<polygon fill="none" stroke="#000000" points="741,-342.5 741,-372.5 1109,-372.5 1109,-342.5 741,-342.5"/>
<text text-anchor="start" x="748" y="-353.9" font-family="Arial" font-size="14.00" fill="#000000">picking_warn </text>
<text text-anchor="start" x="833.5666" y="-353.9" font-family="Arial" font-size="14.00" fill="#666666">[varchar]</text>
<polygon fill="none" stroke="#000000" points="741,-312.5 741,-342.5 1109,-342.5 1109,-312.5 741,-312.5"/>
<text text-anchor="start" x="748" y="-323.9" font-family="Arial" font-size="14.00" fill="#000000">picking_warn_msg </text>
<text text-anchor="start" x="867.7924" y="-323.9" font-family="Arial" font-size="14.00" fill="#666666">[text]</text>
<polygon fill="none" stroke="#000000" points="741,-282.5 741,-312.5 1109,-312.5 1109,-282.5 741,-282.5"/>
<text text-anchor="start" x="748" y="-293.9" font-family="Arial" font-size="14.00" fill="#000000">purchase_warn </text>
<text text-anchor="start" x="847.5792" y="-293.9" font-family="Arial" font-size="14.00" fill="#666666">[varchar]</text>
<polygon fill="none" stroke="#000000" points="741,-252.5 741,-282.5 1109,-282.5 1109,-252.5 741,-252.5"/>
<text text-anchor="start" x="748" y="-263.9" font-family="Arial" font-size="14.00" fill="#000000">purchase_warn_msg </text>
<text text-anchor="start" x="881.805" y="-263.9" font-family="Arial" font-size="14.00" fill="#666666">[text]</text>
<polygon fill="none" stroke="#000000" points="741,-222.5 741,-252.5 1109,-252.5 1109,-222.5 741,-222.5"/>
<text text-anchor="start" x="748" y="-233.9" font-family="Arial" font-size="14.00" fill="#000000">is_published </text>
<text text-anchor="start" x="829.6886" y="-233.9" font-family="Arial" font-size="14.00" fill="#666666">[boolean]</text>
<polygon fill="none" stroke="#000000" points="741,-192.5 741,-222.5 1109,-222.5 1109,-192.5 741,-192.5"/>
<text text-anchor="start" x="748" y="-203.9" font-family="Arial" font-size="14.00" fill="#000000">website_meta_title </text>
<text text-anchor="start" x="867.8008" y="-203.9" font-family="Arial" font-size="14.00" fill="#666666">[varchar]</text>
<polygon fill="none" stroke="#000000" points="741,-162.5 741,-192.5 1109,-192.5 1109,-162.5 741,-162.5"/>
<text text-anchor="start" x="748" y="-173.9" font-family="Arial" font-size="14.00" fill="#000000">website_meta_description </text>
<text text-anchor="start" x="913.7012" y="-173.9" font-family="Arial" font-size="14.00" fill="#666666">[text]</text>
<polygon fill="none" stroke="#000000" points="741,-132.5 741,-162.5 1109,-162.5 1109,-132.5 741,-132.5"/>
<text text-anchor="start" x="748" y="-143.9" font-family="Arial" font-size="14.00" fill="#000000">website_meta_keywords </text>
<text text-anchor="start" x="905.1388" y="-143.9" font-family="Arial" font-size="14.00" fill="#666666">[varchar]</text>
<polygon fill="none" stroke="#000000" points="741,-102.5 741,-132.5 1109,-132.5 1109,-102.5 741,-102.5"/>
<text text-anchor="start" x="748" y="-113.9" font-family="Arial" font-size="14.00" fill="#000000">website_meta_og_img </text>
<text text-anchor="start" x="891.9214" y="-113.9" font-family="Arial" font-size="14.00" fill="#666666">[varchar]</text>
<polygon fill="none" stroke="#000000" points="741,-72.5 741,-102.5 1109,-102.5 1109,-72.5 741,-72.5"/>
<text text-anchor="start" x="748" y="-83.9" font-family="Arial" font-size="14.00" fill="#000000">website_description </text>
<text text-anchor="start" x="874.8022" y="-83.9" font-family="Arial" font-size="14.00" fill="#666666">[text]</text>
<polygon fill="none" stroke="#000000" points="741,-42.5 741,-72.5 1109,-72.5 1109,-42.5 741,-42.5"/>
<text text-anchor="start" x="748" y="-53.9" font-family="Arial" font-size="14.00" fill="#000000">website_short_description </text>
<text text-anchor="start" x="913.7012" y="-53.9" font-family="Arial" font-size="14.00" fill="#666666">[text]</text>
</g>
<!-- public.mail_compose_message_res_partner_rel&#45;&gt;public.res_partner -->
<g id="edge2" class="edge">
<title>public.mail_compose_message_res_partner_rel:partner_id&#45;&gt;public.res_partner:id</title>
<path fill="none" stroke="#000000" d="M947.0367,-2284.8071C960.6805,-2275.5181 951.5213,-2244.4314 937,-2227 880.3111,-2158.9506 797.6889,-2259.0494 741,-2191 714.402,-2159.0718 699.4444,-2097.5 741,-2097.5"/>
<polygon fill="#000000" stroke="#000000" points="946.6584,-2284.9086 935.8338,-2283.1537 941.8292,-2286.2043 937,-2287.5 937,-2287.5 937,-2287.5 941.8292,-2286.2043 938.1662,-2291.8463 946.6584,-2284.9086 946.6584,-2284.9086"/>
<text text-anchor="start" x="943.604" y="-2297.5" font-family="Arial" font-size="10.00" fill="#000000">FOREIGN KEY (partner_id) REFERENCES res_partner(id) ON DELETE CASCADE</text>
</g>
</g>
</svg>
