<?xml version="1.0" encoding="UTF-8" standalone="no"?>
<!DOCTYPE svg PUBLIC "-//W3C//DTD SVG 1.1//EN"
 "http://www.w3.org/Graphics/SVG/1.1/DTD/svg11.dtd">
<!-- Generated by graphviz version 2.40.1 (20161225.0304)
 -->
<!-- Title: public.account_tax_filiation_rel Pages: 1 -->
<svg width="961pt" height="1012pt"
 viewBox="0.00 0.00 961.00 1012.00" xmlns="http://www.w3.org/2000/svg" xmlns:xlink="http://www.w3.org/1999/xlink">
<g id="graph0" class="graph" transform="scale(1 1) rotate(0) translate(4 1008)">
<title>public.account_tax_filiation_rel</title>
<polygon fill="#ffffff" stroke="transparent" points="-4,4 -4,-1008 957,-1008 957,4 -4,4"/>
<!-- public.account_tax_filiation_rel -->
<g id="node1" class="node">
<title>public.account_tax_filiation_rel</title>
<polygon fill="#efefef" stroke="transparent" points="206,-922.5 206,-957.5 562,-957.5 562,-922.5 206,-922.5"/>
<polygon fill="none" stroke="#000000" points="206,-922.5 206,-957.5 562,-957.5 562,-922.5 206,-922.5"/>
<text text-anchor="start" x="212.8453" y="-935.3" font-family="Arial Bold" font-size="18.00" fill="#000000">public.account_tax_filiation_rel</text>
<text text-anchor="start" x="457.9009" y="-935.3" font-family="Arial" font-size="14.00" fill="#000000"> </text>
<text text-anchor="start" x="461.7915" y="-935.3" font-family="Arial" font-size="14.00" fill="#666666">[BASE TABLE]</text>
<polygon fill="none" stroke="#000000" points="206,-892.5 206,-922.5 562,-922.5 562,-892.5 206,-892.5"/>
<text text-anchor="start" x="213" y="-903.9" font-family="Arial" font-size="14.00" fill="#000000">parent_tax </text>
<text text-anchor="start" x="283.028" y="-903.9" font-family="Arial" font-size="14.00" fill="#666666">[integer]</text>
<polygon fill="none" stroke="#000000" points="206,-862.5 206,-892.5 562,-892.5 562,-862.5 206,-862.5"/>
<text text-anchor="start" x="213" y="-873.9" font-family="Arial" font-size="14.00" fill="#000000">child_tax </text>
<text text-anchor="start" x="272.1248" y="-873.9" font-family="Arial" font-size="14.00" fill="#666666">[integer]</text>
<polygon fill="none" stroke="#000000" stroke-width="3" points="204.5,-861.5 204.5,-959.5 563.5,-959.5 563.5,-861.5 204.5,-861.5"/>
</g>
<!-- public.account_tax -->
<g id="node2" class="node">
<title>public.account_tax</title>
<polygon fill="#efefef" stroke="transparent" points="246,-702.5 246,-737.5 522,-737.5 522,-702.5 246,-702.5"/>
<polygon fill="none" stroke="#000000" points="246,-702.5 246,-737.5 522,-737.5 522,-702.5 246,-702.5"/>
<text text-anchor="start" x="260.8477" y="-715.3" font-family="Arial Bold" font-size="18.00" fill="#000000">public.account_tax</text>
<text text-anchor="start" x="409.8985" y="-715.3" font-family="Arial" font-size="14.00" fill="#000000"> </text>
<text text-anchor="start" x="413.7891" y="-715.3" font-family="Arial" font-size="14.00" fill="#666666">[BASE TABLE]</text>
<polygon fill="none" stroke="#000000" points="246,-672.5 246,-702.5 522,-702.5 522,-672.5 246,-672.5"/>
<text text-anchor="start" x="253" y="-683.9" font-family="Arial" font-size="14.00" fill="#000000">id </text>
<text text-anchor="start" x="267.7798" y="-683.9" font-family="Arial" font-size="14.00" fill="#666666">[integer]</text>
<polygon fill="none" stroke="#000000" points="246,-642.5 246,-672.5 522,-672.5 522,-642.5 246,-642.5"/>
<text text-anchor="start" x="253" y="-653.9" font-family="Arial" font-size="14.00" fill="#000000">name </text>
<text text-anchor="start" x="291.899" y="-653.9" font-family="Arial" font-size="14.00" fill="#666666">[varchar]</text>
<polygon fill="none" stroke="#000000" points="246,-612.5 246,-642.5 522,-642.5 522,-612.5 246,-612.5"/>
<text text-anchor="start" x="253" y="-623.9" font-family="Arial" font-size="14.00" fill="#000000">type_tax_use </text>
<text text-anchor="start" x="340.15" y="-623.9" font-family="Arial" font-size="14.00" fill="#666666">[varchar]</text>
<polygon fill="none" stroke="#000000" points="246,-582.5 246,-612.5 522,-612.5 522,-582.5 246,-582.5"/>
<text text-anchor="start" x="253" y="-593.9" font-family="Arial" font-size="14.00" fill="#000000">amount_type </text>
<text text-anchor="start" x="337.8106" y="-593.9" font-family="Arial" font-size="14.00" fill="#666666">[varchar]</text>
<polygon fill="none" stroke="#000000" points="246,-552.5 246,-582.5 522,-582.5 522,-552.5 246,-552.5"/>
<text text-anchor="start" x="253" y="-563.9" font-family="Arial" font-size="14.00" fill="#000000">active </text>
<text text-anchor="start" x="293.453" y="-563.9" font-family="Arial" font-size="14.00" fill="#666666">[boolean]</text>
<polygon fill="none" stroke="#000000" points="246,-522.5 246,-552.5 522,-552.5 522,-522.5 246,-522.5"/>
<text text-anchor="start" x="253" y="-533.9" font-family="Arial" font-size="14.00" fill="#000000">company_id </text>
<text text-anchor="start" x="332.3534" y="-533.9" font-family="Arial" font-size="14.00" fill="#666666">[integer]</text>
<polygon fill="none" stroke="#000000" points="246,-492.5 246,-522.5 522,-522.5 522,-492.5 246,-492.5"/>
<text text-anchor="start" x="253" y="-503.9" font-family="Arial" font-size="14.00" fill="#000000">sequence </text>
<text text-anchor="start" x="317.5862" y="-503.9" font-family="Arial" font-size="14.00" fill="#666666">[integer]</text>
<polygon fill="none" stroke="#000000" points="246,-462.5 246,-492.5 522,-492.5 522,-462.5 246,-462.5"/>
<text text-anchor="start" x="253" y="-473.9" font-family="Arial" font-size="14.00" fill="#000000">amount </text>
<text text-anchor="start" x="303.5722" y="-473.9" font-family="Arial" font-size="14.00" fill="#666666">[numeric]</text>
<polygon fill="none" stroke="#000000" points="246,-432.5 246,-462.5 522,-462.5 522,-432.5 246,-432.5"/>
<text text-anchor="start" x="253" y="-443.9" font-family="Arial" font-size="14.00" fill="#000000">account_id </text>
<text text-anchor="start" x="324.5834" y="-443.9" font-family="Arial" font-size="14.00" fill="#666666">[integer]</text>
<polygon fill="none" stroke="#000000" points="246,-402.5 246,-432.5 522,-432.5 522,-402.5 246,-402.5"/>
<text text-anchor="start" x="253" y="-413.9" font-family="Arial" font-size="14.00" fill="#000000">refund_account_id </text>
<text text-anchor="start" x="372.0476" y="-413.9" font-family="Arial" font-size="14.00" fill="#666666">[integer]</text>
<polygon fill="none" stroke="#000000" points="246,-372.5 246,-402.5 522,-402.5 522,-372.5 246,-372.5"/>
<text text-anchor="start" x="253" y="-383.9" font-family="Arial" font-size="14.00" fill="#000000">description </text>
<text text-anchor="start" x="324.568" y="-383.9" font-family="Arial" font-size="14.00" fill="#666666">[varchar]</text>
<polygon fill="none" stroke="#000000" points="246,-342.5 246,-372.5 522,-372.5 522,-342.5 246,-342.5"/>
<text text-anchor="start" x="253" y="-353.9" font-family="Arial" font-size="14.00" fill="#000000">price_include </text>
<text text-anchor="start" x="339.3492" y="-353.9" font-family="Arial" font-size="14.00" fill="#666666">[boolean]</text>
<polygon fill="none" stroke="#000000" points="246,-312.5 246,-342.5 522,-342.5 522,-312.5 246,-312.5"/>
<text text-anchor="start" x="253" y="-323.9" font-family="Arial" font-size="14.00" fill="#000000">include_base_amount </text>
<text text-anchor="start" x="393.8288" y="-323.9" font-family="Arial" font-size="14.00" fill="#666666">[boolean]</text>
<polygon fill="none" stroke="#000000" points="246,-282.5 246,-312.5 522,-312.5 522,-282.5 246,-282.5"/>
<text text-anchor="start" x="253" y="-293.9" font-family="Arial" font-size="14.00" fill="#000000">analytic </text>
<text text-anchor="start" x="304.3422" y="-293.9" font-family="Arial" font-size="14.00" fill="#666666">[boolean]</text>
<polygon fill="none" stroke="#000000" points="246,-252.5 246,-282.5 522,-282.5 522,-252.5 246,-252.5"/>
<text text-anchor="start" x="253" y="-263.9" font-family="Arial" font-size="14.00" fill="#000000">tax_group_id </text>
<text text-anchor="start" x="337.8092" y="-263.9" font-family="Arial" font-size="14.00" fill="#666666">[integer]</text>
<polygon fill="none" stroke="#000000" points="246,-222.5 246,-252.5 522,-252.5 522,-222.5 246,-222.5"/>
<text text-anchor="start" x="253" y="-233.9" font-family="Arial" font-size="14.00" fill="#000000">tax_exigibility </text>
<text text-anchor="start" x="340.1178" y="-233.9" font-family="Arial" font-size="14.00" fill="#666666">[varchar]</text>
<polygon fill="none" stroke="#000000" points="246,-192.5 246,-222.5 522,-222.5 522,-192.5 246,-192.5"/>
<text text-anchor="start" x="253" y="-203.9" font-family="Arial" font-size="14.00" fill="#000000">cash_basis_account_id </text>
<text text-anchor="start" x="402.3856" y="-203.9" font-family="Arial" font-size="14.00" fill="#666666">[integer]</text>
<polygon fill="none" stroke="#000000" points="246,-162.5 246,-192.5 522,-192.5 522,-162.5 246,-162.5"/>
<text text-anchor="start" x="253" y="-173.9" font-family="Arial" font-size="14.00" fill="#000000">cash_basis_base_account_id </text>
<text text-anchor="start" x="440.516" y="-173.9" font-family="Arial" font-size="14.00" fill="#666666">[integer]</text>
<polygon fill="none" stroke="#000000" points="246,-132.5 246,-162.5 522,-162.5 522,-132.5 246,-132.5"/>
<text text-anchor="start" x="253" y="-143.9" font-family="Arial" font-size="14.00" fill="#000000">create_uid </text>
<text text-anchor="start" x="322.244" y="-143.9" font-family="Arial" font-size="14.00" fill="#666666">[integer]</text>
<polygon fill="none" stroke="#000000" points="246,-102.5 246,-132.5 522,-132.5 522,-102.5 246,-102.5"/>
<text text-anchor="start" x="252.5246" y="-113.9" font-family="Arial" font-size="14.00" fill="#000000">create_date </text>
<text text-anchor="start" x="330.3352" y="-113.9" font-family="Arial" font-size="14.00" fill="#666666">[timestamp without time zone]</text>
<polygon fill="none" stroke="#000000" points="246,-72.5 246,-102.5 522,-102.5 522,-72.5 246,-72.5"/>
<text text-anchor="start" x="253" y="-83.9" font-family="Arial" font-size="14.00" fill="#000000">write_uid </text>
<text text-anchor="start" x="312.892" y="-83.9" font-family="Arial" font-size="14.00" fill="#666666">[integer]</text>
<polygon fill="none" stroke="#000000" points="246,-42.5 246,-72.5 522,-72.5 522,-42.5 246,-42.5"/>
<text text-anchor="start" x="253" y="-53.9" font-family="Arial" font-size="14.00" fill="#000000">write_date </text>
<text text-anchor="start" x="321.4586" y="-53.9" font-family="Arial" font-size="14.00" fill="#666666">[timestamp without time zone]</text>
</g>
<!-- public.account_tax_filiation_rel&#45;&gt;public.account_tax -->
<g id="edge1" class="edge">
<title>public.account_tax_filiation_rel:parent_tax&#45;&gt;public.account_tax:id</title>
<path fill="none" stroke="#000000" d="M571.9682,-906.7034C658.4949,-892.3032 617.8869,-687.5 522,-687.5"/>
<polygon fill="#000000" stroke="#000000" points="571.9682,-906.7033 561.6415,-903.0143 566.9841,-907.1016 562,-907.5 562,-907.5 562,-907.5 566.9841,-907.1016 562.3585,-911.9857 571.9682,-906.7033 571.9682,-906.7033"/>
<text text-anchor="start" x="569.0925" y="-917.5" font-family="Arial" font-size="10.00" fill="#000000">FOREIGN KEY (parent_tax) REFERENCES account_tax(id) ON DELETE CASCADE</text>
</g>
<!-- public.account_tax_filiation_rel&#45;&gt;public.account_tax -->
<g id="edge2" class="edge">
<title>public.account_tax_filiation_rel:child_tax&#45;&gt;public.account_tax:id</title>
<path fill="none" stroke="#000000" d="M384.8318,-852.2211C394.6431,-796.3952 488.5514,-839.6003 522,-781 542.6,-744.9098 563.5556,-687.5 522,-687.5"/>
<polygon fill="#000000" stroke="#000000" points="384.8067,-852.5326 379.5147,-862.137 384.4033,-857.5163 384,-862.5 384,-862.5 384,-862.5 384.4033,-857.5163 388.4853,-862.863 384.8067,-852.5326 384.8067,-852.5326"/>
<text text-anchor="start" x="6.9865" y="-872.5" font-family="Arial" font-size="10.00" fill="#000000">FOREIGN KEY (child_tax) REFERENCES account_tax(id) ON DELETE CASCADE</text>
</g>
</g>
</svg>
