<?xml version="1.0" encoding="UTF-8" standalone="no"?>
<!DOCTYPE svg PUBLIC "-//W3C//DTD SVG 1.1//EN"
 "http://www.w3.org/Graphics/SVG/1.1/DTD/svg11.dtd">
<!-- Generated by graphviz version 2.40.1 (20161225.0304)
 -->
<!-- Title: public.res_lang Pages: 1 -->
<svg width="1156pt" height="2759pt"
 viewBox="0.00 0.00 1156.00 2759.00" xmlns="http://www.w3.org/2000/svg" xmlns:xlink="http://www.w3.org/1999/xlink">
<g id="graph0" class="graph" transform="scale(1 1) rotate(0) translate(4 2755)">
<title>public.res_lang</title>
<polygon fill="#ffffff" stroke="transparent" points="-4,4 -4,-2755 1152,-2755 1152,4 -4,4"/>
<!-- public.res_lang -->
<g id="node1" class="node">
<title>public.res_lang</title>
<polygon fill="#efefef" stroke="transparent" points="448,-1372.5 448,-1407.5 724,-1407.5 724,-1372.5 448,-1372.5"/>
<polygon fill="none" stroke="#000000" points="448,-1372.5 448,-1407.5 724,-1407.5 724,-1372.5 448,-1372.5"/>
<text text-anchor="start" x="476.8598" y="-1385.3" font-family="Arial Bold" font-size="18.00" fill="#000000">public.res_lang</text>
<text text-anchor="start" x="597.8864" y="-1385.3" font-family="Arial" font-size="14.00" fill="#000000"> </text>
<text text-anchor="start" x="601.777" y="-1385.3" font-family="Arial" font-size="14.00" fill="#666666">[BASE TABLE]</text>
<polygon fill="none" stroke="#000000" points="448,-1342.5 448,-1372.5 724,-1372.5 724,-1342.5 448,-1342.5"/>
<text text-anchor="start" x="455" y="-1353.9" font-family="Arial" font-size="14.00" fill="#000000">id </text>
<text text-anchor="start" x="469.7798" y="-1353.9" font-family="Arial" font-size="14.00" fill="#666666">[integer]</text>
<polygon fill="none" stroke="#000000" points="448,-1312.5 448,-1342.5 724,-1342.5 724,-1312.5 448,-1312.5"/>
<text text-anchor="start" x="455" y="-1323.9" font-family="Arial" font-size="14.00" fill="#000000">name </text>
<text text-anchor="start" x="493.899" y="-1323.9" font-family="Arial" font-size="14.00" fill="#666666">[varchar]</text>
<polygon fill="none" stroke="#000000" points="448,-1282.5 448,-1312.5 724,-1312.5 724,-1282.5 448,-1282.5"/>
<text text-anchor="start" x="455" y="-1293.9" font-family="Arial" font-size="14.00" fill="#000000">code </text>
<text text-anchor="start" x="489.2384" y="-1293.9" font-family="Arial" font-size="14.00" fill="#666666">[varchar]</text>
<polygon fill="none" stroke="#000000" points="448,-1252.5 448,-1282.5 724,-1282.5 724,-1252.5 448,-1252.5"/>
<text text-anchor="start" x="455" y="-1263.9" font-family="Arial" font-size="14.00" fill="#000000">iso_code </text>
<text text-anchor="start" x="514.9102" y="-1263.9" font-family="Arial" font-size="14.00" fill="#666666">[varchar]</text>
<polygon fill="none" stroke="#000000" points="448,-1222.5 448,-1252.5 724,-1252.5 724,-1222.5 448,-1222.5"/>
<text text-anchor="start" x="455" y="-1233.9" font-family="Arial" font-size="14.00" fill="#000000">translatable </text>
<text text-anchor="start" x="531.2412" y="-1233.9" font-family="Arial" font-size="14.00" fill="#666666">[boolean]</text>
<polygon fill="none" stroke="#000000" points="448,-1192.5 448,-1222.5 724,-1222.5 724,-1192.5 448,-1192.5"/>
<text text-anchor="start" x="455" y="-1203.9" font-family="Arial" font-size="14.00" fill="#000000">active </text>
<text text-anchor="start" x="495.453" y="-1203.9" font-family="Arial" font-size="14.00" fill="#666666">[boolean]</text>
<polygon fill="none" stroke="#000000" points="448,-1162.5 448,-1192.5 724,-1192.5 724,-1162.5 448,-1162.5"/>
<text text-anchor="start" x="455" y="-1173.9" font-family="Arial" font-size="14.00" fill="#000000">direction </text>
<text text-anchor="start" x="511.7854" y="-1173.9" font-family="Arial" font-size="14.00" fill="#666666">[varchar]</text>
<polygon fill="none" stroke="#000000" points="448,-1132.5 448,-1162.5 724,-1162.5 724,-1132.5 448,-1132.5"/>
<text text-anchor="start" x="455" y="-1143.9" font-family="Arial" font-size="14.00" fill="#000000">date_format </text>
<text text-anchor="start" x="533.5792" y="-1143.9" font-family="Arial" font-size="14.00" fill="#666666">[varchar]</text>
<polygon fill="none" stroke="#000000" points="448,-1102.5 448,-1132.5 724,-1132.5 724,-1102.5 448,-1102.5"/>
<text text-anchor="start" x="455" y="-1113.9" font-family="Arial" font-size="14.00" fill="#000000">time_format </text>
<text text-anchor="start" x="532.7812" y="-1113.9" font-family="Arial" font-size="14.00" fill="#666666">[varchar]</text>
<polygon fill="none" stroke="#000000" points="448,-1072.5 448,-1102.5 724,-1102.5 724,-1072.5 448,-1072.5"/>
<text text-anchor="start" x="455" y="-1083.9" font-family="Arial" font-size="14.00" fill="#000000">week_start </text>
<text text-anchor="start" x="526.5694" y="-1083.9" font-family="Arial" font-size="14.00" fill="#666666">[integer]</text>
<polygon fill="none" stroke="#000000" points="448,-1042.5 448,-1072.5 724,-1072.5 724,-1042.5 448,-1042.5"/>
<text text-anchor="start" x="455" y="-1053.9" font-family="Arial" font-size="14.00" fill="#000000">grouping </text>
<text text-anchor="start" x="513.3534" y="-1053.9" font-family="Arial" font-size="14.00" fill="#666666">[varchar]</text>
<polygon fill="none" stroke="#000000" points="448,-1012.5 448,-1042.5 724,-1042.5 724,-1012.5 448,-1012.5"/>
<text text-anchor="start" x="455" y="-1023.9" font-family="Arial" font-size="14.00" fill="#000000">decimal_point </text>
<text text-anchor="start" x="545.2398" y="-1023.9" font-family="Arial" font-size="14.00" fill="#666666">[varchar]</text>
<polygon fill="none" stroke="#000000" points="448,-982.5 448,-1012.5 724,-1012.5 724,-982.5 448,-982.5"/>
<text text-anchor="start" x="455" y="-993.9" font-family="Arial" font-size="14.00" fill="#000000">thousands_sep </text>
<text text-anchor="start" x="553.8246" y="-993.9" font-family="Arial" font-size="14.00" fill="#666666">[varchar]</text>
<polygon fill="none" stroke="#000000" points="448,-952.5 448,-982.5 724,-982.5 724,-952.5 448,-952.5"/>
<text text-anchor="start" x="455" y="-963.9" font-family="Arial" font-size="14.00" fill="#000000">create_uid </text>
<text text-anchor="start" x="524.244" y="-963.9" font-family="Arial" font-size="14.00" fill="#666666">[integer]</text>
<polygon fill="none" stroke="#000000" points="448,-922.5 448,-952.5 724,-952.5 724,-922.5 448,-922.5"/>
<text text-anchor="start" x="454.5246" y="-933.9" font-family="Arial" font-size="14.00" fill="#000000">create_date </text>
<text text-anchor="start" x="532.3352" y="-933.9" font-family="Arial" font-size="14.00" fill="#666666">[timestamp without time zone]</text>
<polygon fill="none" stroke="#000000" points="448,-892.5 448,-922.5 724,-922.5 724,-892.5 448,-892.5"/>
<text text-anchor="start" x="455" y="-903.9" font-family="Arial" font-size="14.00" fill="#000000">write_uid </text>
<text text-anchor="start" x="514.892" y="-903.9" font-family="Arial" font-size="14.00" fill="#666666">[integer]</text>
<polygon fill="none" stroke="#000000" points="448,-862.5 448,-892.5 724,-892.5 724,-862.5 448,-862.5"/>
<text text-anchor="start" x="455" y="-873.9" font-family="Arial" font-size="14.00" fill="#000000">write_date </text>
<text text-anchor="start" x="523.4586" y="-873.9" font-family="Arial" font-size="14.00" fill="#666666">[timestamp without time zone]</text>
<polygon fill="none" stroke="#000000" stroke-width="3" points="446.5,-861.5 446.5,-1409.5 725.5,-1409.5 725.5,-861.5 446.5,-861.5"/>
</g>
<!-- public.res_users -->
<g id="node5" class="node">
<title>public.res_users</title>
<polygon fill="#efefef" stroke="transparent" points="448,-702.5 448,-737.5 724,-737.5 724,-702.5 448,-702.5"/>
<polygon fill="none" stroke="#000000" points="448,-702.5 448,-737.5 724,-737.5 724,-702.5 448,-702.5"/>
<text text-anchor="start" x="471.8639" y="-715.3" font-family="Arial Bold" font-size="18.00" fill="#000000">public.res_users</text>
<text text-anchor="start" x="602.8823" y="-715.3" font-family="Arial" font-size="14.00" fill="#000000"> </text>
<text text-anchor="start" x="606.7729" y="-715.3" font-family="Arial" font-size="14.00" fill="#666666">[BASE TABLE]</text>
<polygon fill="none" stroke="#000000" points="448,-672.5 448,-702.5 724,-702.5 724,-672.5 448,-672.5"/>
<text text-anchor="start" x="455" y="-683.9" font-family="Arial" font-size="14.00" fill="#000000">id </text>
<text text-anchor="start" x="469.7798" y="-683.9" font-family="Arial" font-size="14.00" fill="#666666">[integer]</text>
<polygon fill="none" stroke="#000000" points="448,-642.5 448,-672.5 724,-672.5 724,-642.5 448,-642.5"/>
<text text-anchor="start" x="455" y="-653.9" font-family="Arial" font-size="14.00" fill="#000000">active </text>
<text text-anchor="start" x="495.453" y="-653.9" font-family="Arial" font-size="14.00" fill="#666666">[boolean]</text>
<polygon fill="none" stroke="#000000" points="448,-612.5 448,-642.5 724,-642.5 724,-612.5 448,-612.5"/>
<text text-anchor="start" x="455" y="-623.9" font-family="Arial" font-size="14.00" fill="#000000">login </text>
<text text-anchor="start" x="488.4516" y="-623.9" font-family="Arial" font-size="14.00" fill="#666666">[varchar]</text>
<polygon fill="none" stroke="#000000" points="448,-582.5 448,-612.5 724,-612.5 724,-582.5 448,-582.5"/>
<text text-anchor="start" x="455" y="-593.9" font-family="Arial" font-size="14.00" fill="#000000">password </text>
<text text-anchor="start" x="518.7882" y="-593.9" font-family="Arial" font-size="14.00" fill="#666666">[varchar]</text>
<polygon fill="none" stroke="#000000" points="448,-552.5 448,-582.5 724,-582.5 724,-552.5 448,-552.5"/>
<text text-anchor="start" x="455" y="-563.9" font-family="Arial" font-size="14.00" fill="#000000">company_id </text>
<text text-anchor="start" x="534.3534" y="-563.9" font-family="Arial" font-size="14.00" fill="#666666">[integer]</text>
<polygon fill="none" stroke="#000000" points="448,-522.5 448,-552.5 724,-552.5 724,-522.5 448,-522.5"/>
<text text-anchor="start" x="455" y="-533.9" font-family="Arial" font-size="14.00" fill="#000000">partner_id </text>
<text text-anchor="start" x="521.9046" y="-533.9" font-family="Arial" font-size="14.00" fill="#666666">[integer]</text>
<polygon fill="none" stroke="#000000" points="448,-492.5 448,-522.5 724,-522.5 724,-492.5 448,-492.5"/>
<text text-anchor="start" x="454.5246" y="-503.9" font-family="Arial" font-size="14.00" fill="#000000">create_date </text>
<text text-anchor="start" x="532.3352" y="-503.9" font-family="Arial" font-size="14.00" fill="#666666">[timestamp without time zone]</text>
<polygon fill="none" stroke="#000000" points="448,-462.5 448,-492.5 724,-492.5 724,-462.5 448,-462.5"/>
<text text-anchor="start" x="455" y="-473.9" font-family="Arial" font-size="14.00" fill="#000000">signature </text>
<text text-anchor="start" x="516.4614" y="-473.9" font-family="Arial" font-size="14.00" fill="#666666">[text]</text>
<polygon fill="none" stroke="#000000" points="448,-432.5 448,-462.5 724,-462.5 724,-432.5 448,-432.5"/>
<text text-anchor="start" x="455" y="-443.9" font-family="Arial" font-size="14.00" fill="#000000">action_id </text>
<text text-anchor="start" x="514.9074" y="-443.9" font-family="Arial" font-size="14.00" fill="#666666">[integer]</text>
<polygon fill="none" stroke="#000000" points="448,-402.5 448,-432.5 724,-432.5 724,-402.5 448,-402.5"/>
<text text-anchor="start" x="455" y="-413.9" font-family="Arial" font-size="14.00" fill="#000000">share </text>
<text text-anchor="start" x="493.899" y="-413.9" font-family="Arial" font-size="14.00" fill="#666666">[boolean]</text>
<polygon fill="none" stroke="#000000" points="448,-372.5 448,-402.5 724,-402.5 724,-372.5 448,-372.5"/>
<text text-anchor="start" x="455" y="-383.9" font-family="Arial" font-size="14.00" fill="#000000">create_uid </text>
<text text-anchor="start" x="524.244" y="-383.9" font-family="Arial" font-size="14.00" fill="#666666">[integer]</text>
<polygon fill="none" stroke="#000000" points="448,-342.5 448,-372.5 724,-372.5 724,-342.5 448,-342.5"/>
<text text-anchor="start" x="455" y="-353.9" font-family="Arial" font-size="14.00" fill="#000000">write_uid </text>
<text text-anchor="start" x="514.892" y="-353.9" font-family="Arial" font-size="14.00" fill="#666666">[integer]</text>
<polygon fill="none" stroke="#000000" points="448,-312.5 448,-342.5 724,-342.5 724,-312.5 448,-312.5"/>
<text text-anchor="start" x="455" y="-323.9" font-family="Arial" font-size="14.00" fill="#000000">write_date </text>
<text text-anchor="start" x="523.4586" y="-323.9" font-family="Arial" font-size="14.00" fill="#666666">[timestamp without time zone]</text>
<polygon fill="none" stroke="#000000" points="448,-282.5 448,-312.5 724,-312.5 724,-282.5 448,-282.5"/>
<text text-anchor="start" x="455" y="-293.9" font-family="Arial" font-size="14.00" fill="#000000">alias_id </text>
<text text-anchor="start" x="506.3408" y="-293.9" font-family="Arial" font-size="14.00" fill="#666666">[integer]</text>
<polygon fill="none" stroke="#000000" points="448,-252.5 448,-282.5 724,-282.5 724,-252.5 448,-252.5"/>
<text text-anchor="start" x="455" y="-263.9" font-family="Arial" font-size="14.00" fill="#000000">notification_type </text>
<text text-anchor="start" x="560.0336" y="-263.9" font-family="Arial" font-size="14.00" fill="#666666">[varchar]</text>
<polygon fill="none" stroke="#000000" points="448,-222.5 448,-252.5 724,-252.5 724,-222.5 448,-222.5"/>
<text text-anchor="start" x="455" y="-233.9" font-family="Arial" font-size="14.00" fill="#000000">odoobot_state </text>
<text text-anchor="start" x="547.6058" y="-233.9" font-family="Arial" font-size="14.00" fill="#666666">[varchar]</text>
<polygon fill="none" stroke="#000000" points="448,-192.5 448,-222.5 724,-222.5 724,-192.5 448,-192.5"/>
<text text-anchor="start" x="455" y="-203.9" font-family="Arial" font-size="14.00" fill="#000000">sale_team_id </text>
<text text-anchor="start" x="542.1332" y="-203.9" font-family="Arial" font-size="14.00" fill="#666666">[integer]</text>
<polygon fill="none" stroke="#000000" points="448,-162.5 448,-192.5 724,-192.5 724,-162.5 448,-162.5"/>
<text text-anchor="start" x="455" y="-173.9" font-family="Arial" font-size="14.00" fill="#000000">target_sales_won </text>
<text text-anchor="start" x="568.589" y="-173.9" font-family="Arial" font-size="14.00" fill="#666666">[integer]</text>
<polygon fill="none" stroke="#000000" points="448,-132.5 448,-162.5 724,-162.5 724,-132.5 448,-132.5"/>
<text text-anchor="start" x="455" y="-143.9" font-family="Arial" font-size="14.00" fill="#000000">target_sales_done </text>
<text text-anchor="start" x="574.0476" y="-143.9" font-family="Arial" font-size="14.00" fill="#666666">[integer]</text>
<polygon fill="none" stroke="#000000" points="448,-102.5 448,-132.5 724,-132.5 724,-102.5 448,-102.5"/>
<text text-anchor="start" x="455" y="-113.9" font-family="Arial" font-size="14.00" fill="#000000">website_id </text>
<text text-anchor="start" x="525.014" y="-113.9" font-family="Arial" font-size="14.00" fill="#666666">[integer]</text>
<polygon fill="none" stroke="#000000" points="448,-72.5 448,-102.5 724,-102.5 724,-72.5 448,-72.5"/>
<text text-anchor="start" x="455" y="-83.9" font-family="Arial" font-size="14.00" fill="#000000">target_sales_invoiced </text>
<text text-anchor="start" x="594.2608" y="-83.9" font-family="Arial" font-size="14.00" fill="#666666">[integer]</text>
<polygon fill="none" stroke="#000000" points="448,-42.5 448,-72.5 724,-72.5 724,-42.5 448,-42.5"/>
<text text-anchor="start" x="455" y="-53.9" font-family="Arial" font-size="14.00" fill="#000000">pos_security_pin </text>
<text text-anchor="start" x="563.9158" y="-53.9" font-family="Arial" font-size="14.00" fill="#666666">[varchar(32)]</text>
</g>
<!-- public.res_lang&#45;&gt;public.res_users -->
<g id="edge4" class="edge">
<title>public.res_lang:create_uid&#45;&gt;public.res_users:id</title>
<path fill="none" stroke="#000000" d="M734.2735,-966.839C848.3446,-951.8652 844.9201,-687.5 724,-687.5"/>
<polygon fill="#000000" stroke="#000000" points="733.9794,-966.8578 723.711,-963.0093 728.9897,-967.1789 724,-967.5 724,-967.5 724,-967.5 728.9897,-967.1789 724.289,-971.9907 733.9794,-966.8578 733.9794,-966.8578"/>
<text text-anchor="start" x="730.657" y="-977.5" font-family="Arial" font-size="10.00" fill="#000000">FOREIGN KEY (create_uid) REFERENCES res_users(id) ON DELETE SET NULL</text>
</g>
<!-- public.res_lang&#45;&gt;public.res_users -->
<g id="edge5" class="edge">
<title>public.res_lang:write_uid&#45;&gt;public.res_users:id</title>
<path fill="none" stroke="#000000" d="M734.216,-906.6591C821.6501,-891.8888 818.2448,-687.5 724,-687.5"/>
<polygon fill="#000000" stroke="#000000" points="733.9663,-906.6795 723.6308,-903.0152 728.9831,-907.0898 724,-907.5 724,-907.5 724,-907.5 728.9831,-907.0898 724.3692,-911.9848 733.9663,-906.6795 733.9663,-906.6795"/>
<text text-anchor="start" x="730.997" y="-917.5" font-family="Arial" font-size="10.00" fill="#000000">FOREIGN KEY (write_uid) REFERENCES res_users(id) ON DELETE SET NULL</text>
</g>
<!-- public.website -->
<g id="node2" class="node">
<title>public.website</title>
<polygon fill="#efefef" stroke="transparent" points="43,-2672.5 43,-2707.5 333,-2707.5 333,-2672.5 43,-2672.5"/>
<polygon fill="none" stroke="#000000" points="43,-2672.5 43,-2707.5 333,-2707.5 333,-2672.5 43,-2672.5"/>
<text text-anchor="start" x="82.8639" y="-2685.3" font-family="Arial Bold" font-size="18.00" fill="#000000">public.website</text>
<text text-anchor="start" x="195.8823" y="-2685.3" font-family="Arial" font-size="14.00" fill="#000000"> </text>
<text text-anchor="start" x="199.7729" y="-2685.3" font-family="Arial" font-size="14.00" fill="#666666">[BASE TABLE]</text>
<polygon fill="none" stroke="#000000" points="43,-2642.5 43,-2672.5 333,-2672.5 333,-2642.5 43,-2642.5"/>
<text text-anchor="start" x="50" y="-2653.9" font-family="Arial" font-size="14.00" fill="#000000">id </text>
<text text-anchor="start" x="64.7798" y="-2653.9" font-family="Arial" font-size="14.00" fill="#666666">[integer]</text>
<polygon fill="none" stroke="#000000" points="43,-2612.5 43,-2642.5 333,-2642.5 333,-2612.5 43,-2612.5"/>
<text text-anchor="start" x="50" y="-2623.9" font-family="Arial" font-size="14.00" fill="#000000">name </text>
<text text-anchor="start" x="88.899" y="-2623.9" font-family="Arial" font-size="14.00" fill="#666666">[varchar]</text>
<polygon fill="none" stroke="#000000" points="43,-2582.5 43,-2612.5 333,-2612.5 333,-2582.5 43,-2582.5"/>
<text text-anchor="start" x="50" y="-2593.9" font-family="Arial" font-size="14.00" fill="#000000">domain </text>
<text text-anchor="start" x="99.7882" y="-2593.9" font-family="Arial" font-size="14.00" fill="#666666">[varchar]</text>
<polygon fill="none" stroke="#000000" points="43,-2552.5 43,-2582.5 333,-2582.5 333,-2552.5 43,-2552.5"/>
<text text-anchor="start" x="50" y="-2563.9" font-family="Arial" font-size="14.00" fill="#000000">company_id </text>
<text text-anchor="start" x="129.3534" y="-2563.9" font-family="Arial" font-size="14.00" fill="#666666">[integer]</text>
<polygon fill="none" stroke="#000000" points="43,-2522.5 43,-2552.5 333,-2552.5 333,-2522.5 43,-2522.5"/>
<text text-anchor="start" x="50" y="-2533.9" font-family="Arial" font-size="14.00" fill="#000000">default_lang_id </text>
<text text-anchor="start" x="148.8176" y="-2533.9" font-family="Arial" font-size="14.00" fill="#666666">[integer]</text>
<polygon fill="none" stroke="#000000" points="43,-2492.5 43,-2522.5 333,-2522.5 333,-2492.5 43,-2492.5"/>
<text text-anchor="start" x="50" y="-2503.9" font-family="Arial" font-size="14.00" fill="#000000">default_lang_code </text>
<text text-anchor="start" x="168.2762" y="-2503.9" font-family="Arial" font-size="14.00" fill="#666666">[varchar]</text>
<polygon fill="none" stroke="#000000" points="43,-2462.5 43,-2492.5 333,-2492.5 333,-2462.5 43,-2462.5"/>
<text text-anchor="start" x="50" y="-2473.9" font-family="Arial" font-size="14.00" fill="#000000">auto_redirect_lang </text>
<text text-anchor="start" x="169.8148" y="-2473.9" font-family="Arial" font-size="14.00" fill="#666666">[boolean]</text>
<polygon fill="none" stroke="#000000" points="43,-2432.5 43,-2462.5 333,-2462.5 333,-2432.5 43,-2432.5"/>
<text text-anchor="start" x="50" y="-2443.9" font-family="Arial" font-size="14.00" fill="#000000">social_twitter </text>
<text text-anchor="start" x="134.7798" y="-2443.9" font-family="Arial" font-size="14.00" fill="#666666">[varchar]</text>
<polygon fill="none" stroke="#000000" points="43,-2402.5 43,-2432.5 333,-2432.5 333,-2402.5 43,-2402.5"/>
<text text-anchor="start" x="50" y="-2413.9" font-family="Arial" font-size="14.00" fill="#000000">social_facebook </text>
<text text-anchor="start" x="154.2552" y="-2413.9" font-family="Arial" font-size="14.00" fill="#666666">[varchar]</text>
<polygon fill="none" stroke="#000000" points="43,-2372.5 43,-2402.5 333,-2402.5 333,-2372.5 43,-2372.5"/>
<text text-anchor="start" x="50" y="-2383.9" font-family="Arial" font-size="14.00" fill="#000000">social_github </text>
<text text-anchor="start" x="135.5792" y="-2383.9" font-family="Arial" font-size="14.00" fill="#666666">[varchar]</text>
<polygon fill="none" stroke="#000000" points="43,-2342.5 43,-2372.5 333,-2372.5 333,-2342.5 43,-2342.5"/>
<text text-anchor="start" x="50" y="-2353.9" font-family="Arial" font-size="14.00" fill="#000000">social_linkedin </text>
<text text-anchor="start" x="144.9018" y="-2353.9" font-family="Arial" font-size="14.00" fill="#666666">[varchar]</text>
<polygon fill="none" stroke="#000000" points="43,-2312.5 43,-2342.5 333,-2342.5 333,-2312.5 43,-2312.5"/>
<text text-anchor="start" x="50" y="-2323.9" font-family="Arial" font-size="14.00" fill="#000000">social_youtube </text>
<text text-anchor="start" x="147.2552" y="-2323.9" font-family="Arial" font-size="14.00" fill="#666666">[varchar]</text>
<polygon fill="none" stroke="#000000" points="43,-2282.5 43,-2312.5 333,-2312.5 333,-2282.5 43,-2282.5"/>
<text text-anchor="start" x="50" y="-2293.9" font-family="Arial" font-size="14.00" fill="#000000">social_googleplus </text>
<text text-anchor="start" x="165.143" y="-2293.9" font-family="Arial" font-size="14.00" fill="#666666">[varchar]</text>
<polygon fill="none" stroke="#000000" points="43,-2252.5 43,-2282.5 333,-2282.5 333,-2252.5 43,-2252.5"/>
<text text-anchor="start" x="50" y="-2263.9" font-family="Arial" font-size="14.00" fill="#000000">social_instagram </text>
<text text-anchor="start" x="158.9004" y="-2263.9" font-family="Arial" font-size="14.00" fill="#666666">[varchar]</text>
<polygon fill="none" stroke="#000000" points="43,-2222.5 43,-2252.5 333,-2252.5 333,-2222.5 43,-2222.5"/>
<text text-anchor="start" x="50" y="-2233.9" font-family="Arial" font-size="14.00" fill="#000000">google_analytics_key </text>
<text text-anchor="start" x="187.7096" y="-2233.9" font-family="Arial" font-size="14.00" fill="#666666">[varchar]</text>
<polygon fill="none" stroke="#000000" points="43,-2192.5 43,-2222.5 333,-2222.5 333,-2192.5 43,-2192.5"/>
<text text-anchor="start" x="50" y="-2203.9" font-family="Arial" font-size="14.00" fill="#000000">google_management_client_id </text>
<text text-anchor="start" x="244.5062" y="-2203.9" font-family="Arial" font-size="14.00" fill="#666666">[varchar]</text>
<polygon fill="none" stroke="#000000" points="43,-2162.5 43,-2192.5 333,-2192.5 333,-2162.5 43,-2162.5"/>
<text text-anchor="start" x="49.9082" y="-2173.9" font-family="Arial" font-size="14.00" fill="#000000">google_management_client_secret </text>
<text text-anchor="start" x="271.6416" y="-2173.9" font-family="Arial" font-size="14.00" fill="#666666">[varchar]</text>
<polygon fill="none" stroke="#000000" points="43,-2132.5 43,-2162.5 333,-2162.5 333,-2132.5 43,-2132.5"/>
<text text-anchor="start" x="50" y="-2143.9" font-family="Arial" font-size="14.00" fill="#000000">google_maps_api_key </text>
<text text-anchor="start" x="193.9382" y="-2143.9" font-family="Arial" font-size="14.00" fill="#666666">[varchar]</text>
<polygon fill="none" stroke="#000000" points="43,-2102.5 43,-2132.5 333,-2132.5 333,-2102.5 43,-2102.5"/>
<text text-anchor="start" x="50" y="-2113.9" font-family="Arial" font-size="14.00" fill="#000000">user_id </text>
<text text-anchor="start" x="99.7882" y="-2113.9" font-family="Arial" font-size="14.00" fill="#666666">[integer]</text>
<polygon fill="none" stroke="#000000" points="43,-2072.5 43,-2102.5 333,-2102.5 333,-2072.5 43,-2072.5"/>
<text text-anchor="start" x="50" y="-2083.9" font-family="Arial" font-size="14.00" fill="#000000">cdn_activated </text>
<text text-anchor="start" x="140.2566" y="-2083.9" font-family="Arial" font-size="14.00" fill="#666666">[boolean]</text>
<polygon fill="none" stroke="#000000" points="43,-2042.5 43,-2072.5 333,-2072.5 333,-2042.5 43,-2042.5"/>
<text text-anchor="start" x="50" y="-2053.9" font-family="Arial" font-size="14.00" fill="#000000">cdn_url </text>
<text text-anchor="start" x="99.7882" y="-2053.9" font-family="Arial" font-size="14.00" fill="#666666">[varchar]</text>
<polygon fill="none" stroke="#000000" points="43,-2012.5 43,-2042.5 333,-2042.5 333,-2012.5 43,-2012.5"/>
<text text-anchor="start" x="50" y="-2023.9" font-family="Arial" font-size="14.00" fill="#000000">cdn_filters </text>
<text text-anchor="start" x="117.676" y="-2023.9" font-family="Arial" font-size="14.00" fill="#666666">[text]</text>
<polygon fill="none" stroke="#000000" points="43,-1982.5 43,-2012.5 333,-2012.5 333,-1982.5 43,-1982.5"/>
<text text-anchor="start" x="50" y="-1993.9" font-family="Arial" font-size="14.00" fill="#000000">homepage_id </text>
<text text-anchor="start" x="138.7012" y="-1993.9" font-family="Arial" font-size="14.00" fill="#666666">[integer]</text>
<polygon fill="none" stroke="#000000" points="43,-1952.5 43,-1982.5 333,-1982.5 333,-1952.5 43,-1952.5"/>
<text text-anchor="start" x="50" y="-1963.9" font-family="Arial" font-size="14.00" fill="#000000">favicon </text>
<text text-anchor="start" x="98.2356" y="-1963.9" font-family="Arial" font-size="14.00" fill="#666666">[bytea]</text>
<polygon fill="none" stroke="#000000" points="43,-1922.5 43,-1952.5 333,-1952.5 333,-1922.5 43,-1922.5"/>
<text text-anchor="start" x="50" y="-1933.9" font-family="Arial" font-size="14.00" fill="#000000">theme_id </text>
<text text-anchor="start" x="111.4614" y="-1933.9" font-family="Arial" font-size="14.00" fill="#666666">[integer]</text>
<polygon fill="none" stroke="#000000" points="43,-1892.5 43,-1922.5 333,-1922.5 333,-1892.5 43,-1892.5"/>
<text text-anchor="start" x="50" y="-1903.9" font-family="Arial" font-size="14.00" fill="#000000">specific_user_account </text>
<text text-anchor="start" x="192.3716" y="-1903.9" font-family="Arial" font-size="14.00" fill="#666666">[boolean]</text>
<polygon fill="none" stroke="#000000" points="43,-1862.5 43,-1892.5 333,-1892.5 333,-1862.5 43,-1862.5"/>
<text text-anchor="start" x="50" y="-1873.9" font-family="Arial" font-size="14.00" fill="#000000">auth_signup_uninvited </text>
<text text-anchor="start" x="193.948" y="-1873.9" font-family="Arial" font-size="14.00" fill="#666666">[varchar]</text>
<polygon fill="none" stroke="#000000" points="43,-1832.5 43,-1862.5 333,-1862.5 333,-1832.5 43,-1832.5"/>
<text text-anchor="start" x="50" y="-1843.9" font-family="Arial" font-size="14.00" fill="#000000">create_uid </text>
<text text-anchor="start" x="119.244" y="-1843.9" font-family="Arial" font-size="14.00" fill="#666666">[integer]</text>
<polygon fill="none" stroke="#000000" points="43,-1802.5 43,-1832.5 333,-1832.5 333,-1802.5 43,-1802.5"/>
<text text-anchor="start" x="50" y="-1813.9" font-family="Arial" font-size="14.00" fill="#000000">create_date </text>
<text text-anchor="start" x="127.8106" y="-1813.9" font-family="Arial" font-size="14.00" fill="#666666">[timestamp without time zone]</text>
<polygon fill="none" stroke="#000000" points="43,-1772.5 43,-1802.5 333,-1802.5 333,-1772.5 43,-1772.5"/>
<text text-anchor="start" x="50" y="-1783.9" font-family="Arial" font-size="14.00" fill="#000000">write_uid </text>
<text text-anchor="start" x="109.892" y="-1783.9" font-family="Arial" font-size="14.00" fill="#666666">[integer]</text>
<polygon fill="none" stroke="#000000" points="43,-1742.5 43,-1772.5 333,-1772.5 333,-1742.5 43,-1742.5"/>
<text text-anchor="start" x="50" y="-1753.9" font-family="Arial" font-size="14.00" fill="#000000">write_date </text>
<text text-anchor="start" x="118.4586" y="-1753.9" font-family="Arial" font-size="14.00" fill="#666666">[timestamp without time zone]</text>
<polygon fill="none" stroke="#000000" points="43,-1712.5 43,-1742.5 333,-1742.5 333,-1712.5 43,-1712.5"/>
<text text-anchor="start" x="50" y="-1723.9" font-family="Arial" font-size="14.00" fill="#000000">website_form_enable_metadata </text>
<text text-anchor="start" x="253.0588" y="-1723.9" font-family="Arial" font-size="14.00" fill="#666666">[boolean]</text>
<polygon fill="none" stroke="#000000" points="43,-1682.5 43,-1712.5 333,-1712.5 333,-1682.5 43,-1682.5"/>
<text text-anchor="start" x="50" y="-1693.9" font-family="Arial" font-size="14.00" fill="#000000">salesperson_id </text>
<text text-anchor="start" x="148.0252" y="-1693.9" font-family="Arial" font-size="14.00" fill="#666666">[integer]</text>
<polygon fill="none" stroke="#000000" points="43,-1652.5 43,-1682.5 333,-1682.5 333,-1652.5 43,-1652.5"/>
<text text-anchor="start" x="50" y="-1663.9" font-family="Arial" font-size="14.00" fill="#000000">salesteam_id </text>
<text text-anchor="start" x="136.3506" y="-1663.9" font-family="Arial" font-size="14.00" fill="#666666">[integer]</text>
<polygon fill="none" stroke="#000000" points="43,-1622.5 43,-1652.5 333,-1652.5 333,-1622.5 43,-1622.5"/>
<text text-anchor="start" x="50" y="-1633.9" font-family="Arial" font-size="14.00" fill="#000000">cart_recovery_mail_template_id </text>
<text text-anchor="start" x="252.2482" y="-1633.9" font-family="Arial" font-size="14.00" fill="#666666">[integer]</text>
<polygon fill="none" stroke="#000000" points="43,-1592.5 43,-1622.5 333,-1622.5 333,-1592.5 43,-1592.5"/>
<text text-anchor="start" x="50" y="-1603.9" font-family="Arial" font-size="14.00" fill="#000000">cart_abandoned_delay </text>
<text text-anchor="start" x="196.2874" y="-1603.9" font-family="Arial" font-size="14.00" fill="#666666">[double precision]</text>
<polygon fill="none" stroke="#000000" points="43,-1562.5 43,-1592.5 333,-1592.5 333,-1562.5 43,-1562.5"/>
<text text-anchor="start" x="50" y="-1573.9" font-family="Arial" font-size="14.00" fill="#000000">crm_default_team_id </text>
<text text-anchor="start" x="184.5834" y="-1573.9" font-family="Arial" font-size="14.00" fill="#666666">[integer]</text>
<polygon fill="none" stroke="#000000" points="43,-1532.5 43,-1562.5 333,-1562.5 333,-1532.5 43,-1532.5"/>
<text text-anchor="start" x="50" y="-1543.9" font-family="Arial" font-size="14.00" fill="#000000">crm_default_user_id </text>
<text text-anchor="start" x="180.6928" y="-1543.9" font-family="Arial" font-size="14.00" fill="#666666">[integer]</text>
</g>
<!-- public.website&#45;&gt;public.res_lang -->
<g id="edge1" class="edge">
<title>public.website:default_lang_id&#45;&gt;public.res_lang:id</title>
<path fill="none" stroke="#000000" d="M340.8358,-2530.9035C389.3841,-2444.7982 371.4511,-1543.7981 385,-1490 400.9249,-1426.7679 382.7934,-1357.5 448,-1357.5"/>
<polygon fill="#000000" stroke="#000000" points="340.6501,-2531.0598 330.1019,-2534.0574 336.8251,-2534.2799 333,-2537.5 333,-2537.5 333,-2537.5 336.8251,-2534.2799 335.8981,-2540.9426 340.6501,-2531.0598 340.6501,-2531.0598"/>
<text text-anchor="start" x="339.8705" y="-2547.5" font-family="Arial" font-size="10.00" fill="#000000">FOREIGN KEY (default_lang_id) REFERENCES res_lang(id) ON DELETE SET NULL</text>
</g>
<!-- public.website_lang_rel -->
<g id="node3" class="node">
<title>public.website_lang_rel</title>
<polygon fill="#efefef" stroke="transparent" points="437,-2132.5 437,-2167.5 735,-2167.5 735,-2132.5 437,-2132.5"/>
<polygon fill="none" stroke="#000000" points="437,-2132.5 437,-2167.5 735,-2167.5 735,-2132.5 437,-2132.5"/>
<text text-anchor="start" x="443.855" y="-2145.3" font-family="Arial Bold" font-size="18.00" fill="#000000">public.website_lang_rel</text>
<text text-anchor="start" x="630.8912" y="-2145.3" font-family="Arial" font-size="14.00" fill="#000000"> </text>
<text text-anchor="start" x="634.7818" y="-2145.3" font-family="Arial" font-size="14.00" fill="#666666">[BASE TABLE]</text>
<polygon fill="none" stroke="#000000" points="437,-2102.5 437,-2132.5 735,-2132.5 735,-2102.5 437,-2102.5"/>
<text text-anchor="start" x="444" y="-2113.9" font-family="Arial" font-size="14.00" fill="#000000">website_id </text>
<text text-anchor="start" x="514.014" y="-2113.9" font-family="Arial" font-size="14.00" fill="#666666">[integer]</text>
<polygon fill="none" stroke="#000000" points="437,-2072.5 437,-2102.5 735,-2102.5 735,-2072.5 437,-2072.5"/>
<text text-anchor="start" x="444" y="-2083.9" font-family="Arial" font-size="14.00" fill="#000000">lang_id </text>
<text text-anchor="start" x="493.0168" y="-2083.9" font-family="Arial" font-size="14.00" fill="#666666">[integer]</text>
</g>
<!-- public.website_lang_rel&#45;&gt;public.res_lang -->
<g id="edge2" class="edge">
<title>public.website_lang_rel:lang_id&#45;&gt;public.res_lang:id</title>
<path fill="none" stroke="#000000" d="M586.3544,-2062.3183C597.8195,-1888.7517 882.5817,-1357.5 724,-1357.5"/>
<polygon fill="#000000" stroke="#000000" points="586.3479,-2062.5061 581.5027,-2072.3434 586.174,-2067.503 586,-2072.5 586,-2072.5 586,-2072.5 586.174,-2067.503 590.4973,-2072.6566 586.3479,-2062.5061 586.3479,-2062.5061"/>
<text text-anchor="start" x="232.381" y="-2082.5" font-family="Arial" font-size="10.00" fill="#000000">FOREIGN KEY (lang_id) REFERENCES res_lang(id) ON DELETE CASCADE</text>
</g>
<!-- public.ir_translation -->
<g id="node4" class="node">
<title>public.ir_translation</title>
<polygon fill="#efefef" stroke="transparent" points="839,-2252.5 839,-2287.5 1105,-2287.5 1105,-2252.5 839,-2252.5"/>
<polygon fill="none" stroke="#000000" points="839,-2252.5 839,-2287.5 1105,-2287.5 1105,-2252.5 839,-2252.5"/>
<text text-anchor="start" x="845.8642" y="-2265.3" font-family="Arial Bold" font-size="18.00" fill="#000000">public.ir_translation</text>
<text text-anchor="start" x="1000.882" y="-2265.3" font-family="Arial" font-size="14.00" fill="#000000"> </text>
<text text-anchor="start" x="1004.7726" y="-2265.3" font-family="Arial" font-size="14.00" fill="#666666">[BASE TABLE]</text>
<polygon fill="none" stroke="#000000" points="839,-2222.5 839,-2252.5 1105,-2252.5 1105,-2222.5 839,-2222.5"/>
<text text-anchor="start" x="846" y="-2233.9" font-family="Arial" font-size="14.00" fill="#000000">id </text>
<text text-anchor="start" x="860.7798" y="-2233.9" font-family="Arial" font-size="14.00" fill="#666666">[integer]</text>
<polygon fill="none" stroke="#000000" points="839,-2192.5 839,-2222.5 1105,-2222.5 1105,-2192.5 839,-2192.5"/>
<text text-anchor="start" x="846" y="-2203.9" font-family="Arial" font-size="14.00" fill="#000000">name </text>
<text text-anchor="start" x="884.899" y="-2203.9" font-family="Arial" font-size="14.00" fill="#666666">[varchar]</text>
<polygon fill="none" stroke="#000000" points="839,-2162.5 839,-2192.5 1105,-2192.5 1105,-2162.5 839,-2162.5"/>
<text text-anchor="start" x="846" y="-2173.9" font-family="Arial" font-size="14.00" fill="#000000">res_id </text>
<text text-anchor="start" x="888.0056" y="-2173.9" font-family="Arial" font-size="14.00" fill="#666666">[integer]</text>
<polygon fill="none" stroke="#000000" points="839,-2132.5 839,-2162.5 1105,-2162.5 1105,-2132.5 839,-2132.5"/>
<text text-anchor="start" x="846" y="-2143.9" font-family="Arial" font-size="14.00" fill="#000000">lang </text>
<text text-anchor="start" x="876.345" y="-2143.9" font-family="Arial" font-size="14.00" fill="#666666">[varchar]</text>
<polygon fill="none" stroke="#000000" points="839,-2102.5 839,-2132.5 1105,-2132.5 1105,-2102.5 839,-2102.5"/>
<text text-anchor="start" x="846" y="-2113.9" font-family="Arial" font-size="14.00" fill="#000000">type </text>
<text text-anchor="start" x="876.3464" y="-2113.9" font-family="Arial" font-size="14.00" fill="#666666">[varchar]</text>
<polygon fill="none" stroke="#000000" points="839,-2072.5 839,-2102.5 1105,-2102.5 1105,-2072.5 839,-2072.5"/>
<text text-anchor="start" x="846" y="-2083.9" font-family="Arial" font-size="14.00" fill="#000000">src </text>
<text text-anchor="start" x="868.5512" y="-2083.9" font-family="Arial" font-size="14.00" fill="#666666">[text]</text>
<polygon fill="none" stroke="#000000" points="839,-2042.5 839,-2072.5 1105,-2072.5 1105,-2042.5 839,-2042.5"/>
<text text-anchor="start" x="846" y="-2053.9" font-family="Arial" font-size="14.00" fill="#000000">value </text>
<text text-anchor="start" x="883.345" y="-2053.9" font-family="Arial" font-size="14.00" fill="#666666">[text]</text>
<polygon fill="none" stroke="#000000" points="839,-2012.5 839,-2042.5 1105,-2042.5 1105,-2012.5 839,-2012.5"/>
<text text-anchor="start" x="846" y="-2023.9" font-family="Arial" font-size="14.00" fill="#000000">module </text>
<text text-anchor="start" x="895.7882" y="-2023.9" font-family="Arial" font-size="14.00" fill="#666666">[varchar]</text>
<polygon fill="none" stroke="#000000" points="839,-1982.5 839,-2012.5 1105,-2012.5 1105,-1982.5 839,-1982.5"/>
<text text-anchor="start" x="846" y="-1993.9" font-family="Arial" font-size="14.00" fill="#000000">state </text>
<text text-anchor="start" x="880.237" y="-1993.9" font-family="Arial" font-size="14.00" fill="#666666">[varchar]</text>
<polygon fill="none" stroke="#000000" points="839,-1952.5 839,-1982.5 1105,-1982.5 1105,-1952.5 839,-1952.5"/>
<text text-anchor="start" x="846" y="-1963.9" font-family="Arial" font-size="14.00" fill="#000000">comments </text>
<text text-anchor="start" x="914.4502" y="-1963.9" font-family="Arial" font-size="14.00" fill="#666666">[text]</text>
</g>
<!-- public.ir_translation&#45;&gt;public.res_lang -->
<g id="edge3" class="edge">
<title>public.ir_translation:lang&#45;&gt;public.res_lang:code</title>
<path fill="none" stroke="#000000" d="M829.3963,-2143.7528C768.9505,-2093.7249 800.7127,-1558.4892 787,-1490 769.327,-1401.731 814.0208,-1297.5 724,-1297.5"/>
<polygon fill="#000000" stroke="#000000" points="829.684,-2143.865 837.3643,-2151.6922 834.342,-2145.6825 839,-2147.5 839,-2147.5 839,-2147.5 834.342,-2145.6825 840.6357,-2143.3078 829.684,-2143.865 829.684,-2143.865"/>
<text text-anchor="start" x="595.381" y="-2157.5" font-family="Arial" font-size="10.00" fill="#000000">FOREIGN KEY (lang) REFERENCES res_lang(code)</text>
</g>
</g>
</svg>
