<?xml version="1.0" encoding="UTF-8" standalone="no"?>
<!DOCTYPE svg PUBLIC "-//W3C//DTD SVG 1.1//EN"
 "http://www.w3.org/Graphics/SVG/1.1/DTD/svg11.dtd">
<!-- Generated by graphviz version 2.40.1 (20161225.0304)
 -->
<!-- Title: public.account_account_tax_default_rel Pages: 1 -->
<svg width="1220pt" height="1012pt"
 viewBox="0.00 0.00 1220.00 1012.00" xmlns="http://www.w3.org/2000/svg" xmlns:xlink="http://www.w3.org/1999/xlink">
<g id="graph0" class="graph" transform="scale(1 1) rotate(0) translate(4 1008)">
<title>public.account_account_tax_default_rel</title>
<polygon fill="#ffffff" stroke="transparent" points="-4,4 -4,-1008 1216,-1008 1216,4 -4,4"/>
<!-- public.account_account_tax_default_rel -->
<g id="node1" class="node">
<title>public.account_account_tax_default_rel</title>
<polygon fill="#efefef" stroke="transparent" points="414,-922.5 414,-957.5 841,-957.5 841,-922.5 414,-922.5"/>
<polygon fill="none" stroke="#000000" points="414,-922.5 414,-957.5 841,-957.5 841,-922.5 414,-922.5"/>
<text text-anchor="start" x="420.8169" y="-935.3" font-family="Arial Bold" font-size="18.00" fill="#000000">public.account_account_tax_default_rel</text>
<text text-anchor="start" x="736.9293" y="-935.3" font-family="Arial" font-size="14.00" fill="#000000"> </text>
<text text-anchor="start" x="740.8199" y="-935.3" font-family="Arial" font-size="14.00" fill="#666666">[BASE TABLE]</text>
<polygon fill="none" stroke="#000000" points="414,-892.5 414,-922.5 841,-922.5 841,-892.5 414,-892.5"/>
<text text-anchor="start" x="421" y="-903.9" font-family="Arial" font-size="14.00" fill="#000000">account_id </text>
<text text-anchor="start" x="492.5834" y="-903.9" font-family="Arial" font-size="14.00" fill="#666666">[integer]</text>
<polygon fill="none" stroke="#000000" points="414,-862.5 414,-892.5 841,-892.5 841,-862.5 414,-862.5"/>
<text text-anchor="start" x="421" y="-873.9" font-family="Arial" font-size="14.00" fill="#000000">tax_id </text>
<text text-anchor="start" x="462.2356" y="-873.9" font-family="Arial" font-size="14.00" fill="#666666">[integer]</text>
<polygon fill="none" stroke="#000000" stroke-width="3" points="412,-861.5 412,-959.5 842,-959.5 842,-861.5 412,-861.5"/>
</g>
<!-- public.account_account -->
<g id="node2" class="node">
<title>public.account_account</title>
<polygon fill="#efefef" stroke="transparent" points="231,-627.5 231,-662.5 599,-662.5 599,-627.5 231,-627.5"/>
<polygon fill="none" stroke="#000000" points="231,-627.5 231,-662.5 599,-662.5 599,-627.5 231,-627.5"/>
<text text-anchor="start" x="272.3384" y="-640.3" font-family="Arial Bold" font-size="18.00" fill="#000000">public.account_account</text>
<text text-anchor="start" x="460.4078" y="-640.3" font-family="Arial" font-size="14.00" fill="#000000"> </text>
<text text-anchor="start" x="464.2984" y="-640.3" font-family="Arial" font-size="14.00" fill="#666666">[BASE TABLE]</text>
<polygon fill="none" stroke="#000000" points="231,-597.5 231,-627.5 599,-627.5 599,-597.5 231,-597.5"/>
<text text-anchor="start" x="238" y="-608.9" font-family="Arial" font-size="14.00" fill="#000000">id </text>
<text text-anchor="start" x="252.7798" y="-608.9" font-family="Arial" font-size="14.00" fill="#666666">[integer]</text>
<polygon fill="none" stroke="#000000" points="231,-567.5 231,-597.5 599,-597.5 599,-567.5 231,-567.5"/>
<text text-anchor="start" x="238" y="-578.9" font-family="Arial" font-size="14.00" fill="#000000">name </text>
<text text-anchor="start" x="276.899" y="-578.9" font-family="Arial" font-size="14.00" fill="#666666">[varchar]</text>
<polygon fill="none" stroke="#000000" points="231,-537.5 231,-567.5 599,-567.5 599,-537.5 231,-537.5"/>
<text text-anchor="start" x="238" y="-548.9" font-family="Arial" font-size="14.00" fill="#000000">currency_id </text>
<text text-anchor="start" x="314.2314" y="-548.9" font-family="Arial" font-size="14.00" fill="#666666">[integer]</text>
<polygon fill="none" stroke="#000000" points="231,-507.5 231,-537.5 599,-537.5 599,-507.5 231,-507.5"/>
<text text-anchor="start" x="238" y="-518.9" font-family="Arial" font-size="14.00" fill="#000000">code </text>
<text text-anchor="start" x="272.2384" y="-518.9" font-family="Arial" font-size="14.00" fill="#666666">[varchar(64)]</text>
<polygon fill="none" stroke="#000000" points="231,-477.5 231,-507.5 599,-507.5 599,-477.5 231,-477.5"/>
<text text-anchor="start" x="238" y="-488.9" font-family="Arial" font-size="14.00" fill="#000000">deprecated </text>
<text text-anchor="start" x="311.92" y="-488.9" font-family="Arial" font-size="14.00" fill="#666666">[boolean]</text>
<polygon fill="none" stroke="#000000" points="231,-447.5 231,-477.5 599,-477.5 599,-447.5 231,-447.5"/>
<text text-anchor="start" x="238" y="-458.9" font-family="Arial" font-size="14.00" fill="#000000">user_type_id </text>
<text text-anchor="start" x="322.0266" y="-458.9" font-family="Arial" font-size="14.00" fill="#666666">[integer]</text>
<polygon fill="none" stroke="#000000" points="231,-417.5 231,-447.5 599,-447.5 599,-417.5 231,-417.5"/>
<text text-anchor="start" x="238" y="-428.9" font-family="Arial" font-size="14.00" fill="#000000">internal_type </text>
<text text-anchor="start" x="322.0238" y="-428.9" font-family="Arial" font-size="14.00" fill="#666666">[varchar]</text>
<polygon fill="none" stroke="#000000" points="231,-387.5 231,-417.5 599,-417.5 599,-387.5 231,-387.5"/>
<text text-anchor="start" x="238" y="-398.9" font-family="Arial" font-size="14.00" fill="#000000">internal_group </text>
<text text-anchor="start" x="331.359" y="-398.9" font-family="Arial" font-size="14.00" fill="#666666">[varchar]</text>
<polygon fill="none" stroke="#000000" points="231,-357.5 231,-387.5 599,-387.5 599,-357.5 231,-357.5"/>
<text text-anchor="start" x="237.6326" y="-368.9" font-family="Arial" font-size="14.00" fill="#000000">last_time_entries_checked </text>
<text text-anchor="start" x="407.2272" y="-368.9" font-family="Arial" font-size="14.00" fill="#666666">[timestamp without time zone]</text>
<polygon fill="none" stroke="#000000" points="231,-327.5 231,-357.5 599,-357.5 599,-327.5 231,-327.5"/>
<text text-anchor="start" x="238" y="-338.9" font-family="Arial" font-size="14.00" fill="#000000">reconcile </text>
<text text-anchor="start" x="297.8948" y="-338.9" font-family="Arial" font-size="14.00" fill="#666666">[boolean]</text>
<polygon fill="none" stroke="#000000" points="231,-297.5 231,-327.5 599,-327.5 599,-297.5 231,-297.5"/>
<text text-anchor="start" x="238" y="-308.9" font-family="Arial" font-size="14.00" fill="#000000">note </text>
<text text-anchor="start" x="269.129" y="-308.9" font-family="Arial" font-size="14.00" fill="#666666">[text]</text>
<polygon fill="none" stroke="#000000" points="231,-267.5 231,-297.5 599,-297.5 599,-267.5 231,-267.5"/>
<text text-anchor="start" x="238" y="-278.9" font-family="Arial" font-size="14.00" fill="#000000">company_id </text>
<text text-anchor="start" x="317.3534" y="-278.9" font-family="Arial" font-size="14.00" fill="#666666">[integer]</text>
<polygon fill="none" stroke="#000000" points="231,-237.5 231,-267.5 599,-267.5 599,-237.5 231,-237.5"/>
<text text-anchor="start" x="238" y="-248.9" font-family="Arial" font-size="14.00" fill="#000000">group_id </text>
<text text-anchor="start" x="296.3534" y="-248.9" font-family="Arial" font-size="14.00" fill="#666666">[integer]</text>
<polygon fill="none" stroke="#000000" points="231,-207.5 231,-237.5 599,-237.5 599,-207.5 231,-207.5"/>
<text text-anchor="start" x="238" y="-218.9" font-family="Arial" font-size="14.00" fill="#000000">create_uid </text>
<text text-anchor="start" x="307.244" y="-218.9" font-family="Arial" font-size="14.00" fill="#666666">[integer]</text>
<polygon fill="none" stroke="#000000" points="231,-177.5 231,-207.5 599,-207.5 599,-177.5 231,-177.5"/>
<text text-anchor="start" x="238" y="-188.9" font-family="Arial" font-size="14.00" fill="#000000">create_date </text>
<text text-anchor="start" x="315.8106" y="-188.9" font-family="Arial" font-size="14.00" fill="#666666">[timestamp without time zone]</text>
<polygon fill="none" stroke="#000000" points="231,-147.5 231,-177.5 599,-177.5 599,-147.5 231,-147.5"/>
<text text-anchor="start" x="238" y="-158.9" font-family="Arial" font-size="14.00" fill="#000000">write_uid </text>
<text text-anchor="start" x="297.892" y="-158.9" font-family="Arial" font-size="14.00" fill="#666666">[integer]</text>
<polygon fill="none" stroke="#000000" points="231,-117.5 231,-147.5 599,-147.5 599,-117.5 231,-117.5"/>
<text text-anchor="start" x="238" y="-128.9" font-family="Arial" font-size="14.00" fill="#000000">write_date </text>
<text text-anchor="start" x="306.4586" y="-128.9" font-family="Arial" font-size="14.00" fill="#666666">[timestamp without time zone]</text>
</g>
<!-- public.account_account_tax_default_rel&#45;&gt;public.account_account -->
<g id="edge1" class="edge">
<title>public.account_account_tax_default_rel:account_id&#45;&gt;public.account_account:id</title>
<path fill="none" stroke="#000000" d="M403.8937,-905.9829C377.7575,-896.8559 396.1179,-848.5833 414,-817 461.2433,-733.5593 551.7567,-789.4407 599,-706 619.4744,-669.8384 640.5556,-612.5 599,-612.5"/>
<polygon fill="#000000" stroke="#000000" points="404.1108,-906.0155 413.332,-911.9501 409.0554,-906.7577 414,-907.5 414,-907.5 414,-907.5 409.0554,-906.7577 414.668,-903.0499 404.1108,-906.0155 404.1108,-906.0155"/>
<text text-anchor="start" x="6.6985" y="-917.5" font-family="Arial" font-size="10.00" fill="#000000">FOREIGN KEY (account_id) REFERENCES account_account(id) ON DELETE CASCADE</text>
</g>
<!-- public.account_tax -->
<g id="node3" class="node">
<title>public.account_tax</title>
<polygon fill="#efefef" stroke="transparent" points="703,-702.5 703,-737.5 979,-737.5 979,-702.5 703,-702.5"/>
<polygon fill="none" stroke="#000000" points="703,-702.5 703,-737.5 979,-737.5 979,-702.5 703,-702.5"/>
<text text-anchor="start" x="717.8477" y="-715.3" font-family="Arial Bold" font-size="18.00" fill="#000000">public.account_tax</text>
<text text-anchor="start" x="866.8985" y="-715.3" font-family="Arial" font-size="14.00" fill="#000000"> </text>
<text text-anchor="start" x="870.7891" y="-715.3" font-family="Arial" font-size="14.00" fill="#666666">[BASE TABLE]</text>
<polygon fill="none" stroke="#000000" points="703,-672.5 703,-702.5 979,-702.5 979,-672.5 703,-672.5"/>
<text text-anchor="start" x="710" y="-683.9" font-family="Arial" font-size="14.00" fill="#000000">id </text>
<text text-anchor="start" x="724.7798" y="-683.9" font-family="Arial" font-size="14.00" fill="#666666">[integer]</text>
<polygon fill="none" stroke="#000000" points="703,-642.5 703,-672.5 979,-672.5 979,-642.5 703,-642.5"/>
<text text-anchor="start" x="710" y="-653.9" font-family="Arial" font-size="14.00" fill="#000000">name </text>
<text text-anchor="start" x="748.899" y="-653.9" font-family="Arial" font-size="14.00" fill="#666666">[varchar]</text>
<polygon fill="none" stroke="#000000" points="703,-612.5 703,-642.5 979,-642.5 979,-612.5 703,-612.5"/>
<text text-anchor="start" x="710" y="-623.9" font-family="Arial" font-size="14.00" fill="#000000">type_tax_use </text>
<text text-anchor="start" x="797.15" y="-623.9" font-family="Arial" font-size="14.00" fill="#666666">[varchar]</text>
<polygon fill="none" stroke="#000000" points="703,-582.5 703,-612.5 979,-612.5 979,-582.5 703,-582.5"/>
<text text-anchor="start" x="710" y="-593.9" font-family="Arial" font-size="14.00" fill="#000000">amount_type </text>
<text text-anchor="start" x="794.8106" y="-593.9" font-family="Arial" font-size="14.00" fill="#666666">[varchar]</text>
<polygon fill="none" stroke="#000000" points="703,-552.5 703,-582.5 979,-582.5 979,-552.5 703,-552.5"/>
<text text-anchor="start" x="710" y="-563.9" font-family="Arial" font-size="14.00" fill="#000000">active </text>
<text text-anchor="start" x="750.453" y="-563.9" font-family="Arial" font-size="14.00" fill="#666666">[boolean]</text>
<polygon fill="none" stroke="#000000" points="703,-522.5 703,-552.5 979,-552.5 979,-522.5 703,-522.5"/>
<text text-anchor="start" x="710" y="-533.9" font-family="Arial" font-size="14.00" fill="#000000">company_id </text>
<text text-anchor="start" x="789.3534" y="-533.9" font-family="Arial" font-size="14.00" fill="#666666">[integer]</text>
<polygon fill="none" stroke="#000000" points="703,-492.5 703,-522.5 979,-522.5 979,-492.5 703,-492.5"/>
<text text-anchor="start" x="710" y="-503.9" font-family="Arial" font-size="14.00" fill="#000000">sequence </text>
<text text-anchor="start" x="774.5862" y="-503.9" font-family="Arial" font-size="14.00" fill="#666666">[integer]</text>
<polygon fill="none" stroke="#000000" points="703,-462.5 703,-492.5 979,-492.5 979,-462.5 703,-462.5"/>
<text text-anchor="start" x="710" y="-473.9" font-family="Arial" font-size="14.00" fill="#000000">amount </text>
<text text-anchor="start" x="760.5722" y="-473.9" font-family="Arial" font-size="14.00" fill="#666666">[numeric]</text>
<polygon fill="none" stroke="#000000" points="703,-432.5 703,-462.5 979,-462.5 979,-432.5 703,-432.5"/>
<text text-anchor="start" x="710" y="-443.9" font-family="Arial" font-size="14.00" fill="#000000">account_id </text>
<text text-anchor="start" x="781.5834" y="-443.9" font-family="Arial" font-size="14.00" fill="#666666">[integer]</text>
<polygon fill="none" stroke="#000000" points="703,-402.5 703,-432.5 979,-432.5 979,-402.5 703,-402.5"/>
<text text-anchor="start" x="710" y="-413.9" font-family="Arial" font-size="14.00" fill="#000000">refund_account_id </text>
<text text-anchor="start" x="829.0476" y="-413.9" font-family="Arial" font-size="14.00" fill="#666666">[integer]</text>
<polygon fill="none" stroke="#000000" points="703,-372.5 703,-402.5 979,-402.5 979,-372.5 703,-372.5"/>
<text text-anchor="start" x="710" y="-383.9" font-family="Arial" font-size="14.00" fill="#000000">description </text>
<text text-anchor="start" x="781.568" y="-383.9" font-family="Arial" font-size="14.00" fill="#666666">[varchar]</text>
<polygon fill="none" stroke="#000000" points="703,-342.5 703,-372.5 979,-372.5 979,-342.5 703,-342.5"/>
<text text-anchor="start" x="710" y="-353.9" font-family="Arial" font-size="14.00" fill="#000000">price_include </text>
<text text-anchor="start" x="796.3492" y="-353.9" font-family="Arial" font-size="14.00" fill="#666666">[boolean]</text>
<polygon fill="none" stroke="#000000" points="703,-312.5 703,-342.5 979,-342.5 979,-312.5 703,-312.5"/>
<text text-anchor="start" x="710" y="-323.9" font-family="Arial" font-size="14.00" fill="#000000">include_base_amount </text>
<text text-anchor="start" x="850.8288" y="-323.9" font-family="Arial" font-size="14.00" fill="#666666">[boolean]</text>
<polygon fill="none" stroke="#000000" points="703,-282.5 703,-312.5 979,-312.5 979,-282.5 703,-282.5"/>
<text text-anchor="start" x="710" y="-293.9" font-family="Arial" font-size="14.00" fill="#000000">analytic </text>
<text text-anchor="start" x="761.3422" y="-293.9" font-family="Arial" font-size="14.00" fill="#666666">[boolean]</text>
<polygon fill="none" stroke="#000000" points="703,-252.5 703,-282.5 979,-282.5 979,-252.5 703,-252.5"/>
<text text-anchor="start" x="710" y="-263.9" font-family="Arial" font-size="14.00" fill="#000000">tax_group_id </text>
<text text-anchor="start" x="794.8092" y="-263.9" font-family="Arial" font-size="14.00" fill="#666666">[integer]</text>
<polygon fill="none" stroke="#000000" points="703,-222.5 703,-252.5 979,-252.5 979,-222.5 703,-222.5"/>
<text text-anchor="start" x="710" y="-233.9" font-family="Arial" font-size="14.00" fill="#000000">tax_exigibility </text>
<text text-anchor="start" x="797.1178" y="-233.9" font-family="Arial" font-size="14.00" fill="#666666">[varchar]</text>
<polygon fill="none" stroke="#000000" points="703,-192.5 703,-222.5 979,-222.5 979,-192.5 703,-192.5"/>
<text text-anchor="start" x="710" y="-203.9" font-family="Arial" font-size="14.00" fill="#000000">cash_basis_account_id </text>
<text text-anchor="start" x="859.3856" y="-203.9" font-family="Arial" font-size="14.00" fill="#666666">[integer]</text>
<polygon fill="none" stroke="#000000" points="703,-162.5 703,-192.5 979,-192.5 979,-162.5 703,-162.5"/>
<text text-anchor="start" x="710" y="-173.9" font-family="Arial" font-size="14.00" fill="#000000">cash_basis_base_account_id </text>
<text text-anchor="start" x="897.516" y="-173.9" font-family="Arial" font-size="14.00" fill="#666666">[integer]</text>
<polygon fill="none" stroke="#000000" points="703,-132.5 703,-162.5 979,-162.5 979,-132.5 703,-132.5"/>
<text text-anchor="start" x="710" y="-143.9" font-family="Arial" font-size="14.00" fill="#000000">create_uid </text>
<text text-anchor="start" x="779.244" y="-143.9" font-family="Arial" font-size="14.00" fill="#666666">[integer]</text>
<polygon fill="none" stroke="#000000" points="703,-102.5 703,-132.5 979,-132.5 979,-102.5 703,-102.5"/>
<text text-anchor="start" x="709.5246" y="-113.9" font-family="Arial" font-size="14.00" fill="#000000">create_date </text>
<text text-anchor="start" x="787.3352" y="-113.9" font-family="Arial" font-size="14.00" fill="#666666">[timestamp without time zone]</text>
<polygon fill="none" stroke="#000000" points="703,-72.5 703,-102.5 979,-102.5 979,-72.5 703,-72.5"/>
<text text-anchor="start" x="710" y="-83.9" font-family="Arial" font-size="14.00" fill="#000000">write_uid </text>
<text text-anchor="start" x="769.892" y="-83.9" font-family="Arial" font-size="14.00" fill="#666666">[integer]</text>
<polygon fill="none" stroke="#000000" points="703,-42.5 703,-72.5 979,-72.5 979,-42.5 703,-42.5"/>
<text text-anchor="start" x="710" y="-53.9" font-family="Arial" font-size="14.00" fill="#000000">write_date </text>
<text text-anchor="start" x="778.4586" y="-53.9" font-family="Arial" font-size="14.00" fill="#666666">[timestamp without time zone]</text>
</g>
<!-- public.account_account_tax_default_rel&#45;&gt;public.account_tax -->
<g id="edge2" class="edge">
<title>public.account_account_tax_default_rel:tax_id&#45;&gt;public.account_tax:id</title>
<path fill="none" stroke="#000000" d="M850.989,-874.8454C864.4772,-865.6812 854.8707,-834.9534 841,-817 802.2469,-766.8405 741.7531,-831.1595 703,-781 677.5936,-748.1156 661.4444,-687.5 703,-687.5"/>
<polygon fill="#000000" stroke="#000000" points="850.6645,-874.9315 839.8442,-873.151 845.8323,-876.2158 841,-877.5 841,-877.5 841,-877.5 845.8323,-876.2158 842.1558,-881.849 850.6645,-874.9315 850.6645,-874.9315"/>
<text text-anchor="start" x="848.3755" y="-887.5" font-family="Arial" font-size="10.00" fill="#000000">FOREIGN KEY (tax_id) REFERENCES account_tax(id) ON DELETE CASCADE</text>
</g>
</g>
</svg>
