<?xml version="1.0" encoding="UTF-8" standalone="no"?>
<!DOCTYPE svg PUBLIC "-//W3C//DTD SVG 1.1//EN"
 "http://www.w3.org/Graphics/SVG/1.1/DTD/svg11.dtd">
<!-- Generated by graphviz version 2.40.1 (20161225.0304)
 -->
<!-- Title: public.mail_activity_type_mail_template_rel Pages: 1 -->
<svg width="1354pt" height="1222pt"
 viewBox="0.00 0.00 1354.00 1222.00" xmlns="http://www.w3.org/2000/svg" xmlns:xlink="http://www.w3.org/1999/xlink">
<g id="graph0" class="graph" transform="scale(1 1) rotate(0) translate(4 1218)">
<title>public.mail_activity_type_mail_template_rel</title>
<polygon fill="#ffffff" stroke="transparent" points="-4,4 -4,-1218 1350,-1218 1350,4 -4,4"/>
<!-- public.mail_activity_type_mail_template_rel -->
<g id="node1" class="node">
<title>public.mail_activity_type_mail_template_rel</title>
<polygon fill="#efefef" stroke="transparent" points="461,-1132.5 461,-1167.5 918,-1167.5 918,-1132.5 461,-1132.5"/>
<polygon fill="none" stroke="#000000" points="461,-1132.5 461,-1167.5 918,-1167.5 918,-1132.5 461,-1132.5"/>
<text text-anchor="start" x="467.8553" y="-1145.3" font-family="Arial Bold" font-size="18.00" fill="#000000">public.mail_activity_type_mail_template_rel</text>
<text text-anchor="start" x="813.8909" y="-1145.3" font-family="Arial" font-size="14.00" fill="#000000"> </text>
<text text-anchor="start" x="817.7815" y="-1145.3" font-family="Arial" font-size="14.00" fill="#666666">[BASE TABLE]</text>
<polygon fill="none" stroke="#000000" points="461,-1102.5 461,-1132.5 918,-1132.5 918,-1102.5 461,-1102.5"/>
<text text-anchor="start" x="468" y="-1113.9" font-family="Arial" font-size="14.00" fill="#000000">mail_activity_type_id </text>
<text text-anchor="start" x="601.0168" y="-1113.9" font-family="Arial" font-size="14.00" fill="#666666">[integer]</text>
<polygon fill="none" stroke="#000000" points="461,-1072.5 461,-1102.5 918,-1102.5 918,-1072.5 461,-1072.5"/>
<text text-anchor="start" x="468" y="-1083.9" font-family="Arial" font-size="14.00" fill="#000000">mail_template_id </text>
<text text-anchor="start" x="577.6802" y="-1083.9" font-family="Arial" font-size="14.00" fill="#666666">[integer]</text>
<polygon fill="none" stroke="#000000" stroke-width="3" points="459,-1071.5 459,-1169.5 919,-1169.5 919,-1071.5 459,-1071.5"/>
</g>
<!-- public.mail_activity_type -->
<g id="node2" class="node">
<title>public.mail_activity_type</title>
<polygon fill="#efefef" stroke="transparent" points="340,-747.5 340,-782.5 645,-782.5 645,-747.5 340,-747.5"/>
<polygon fill="none" stroke="#000000" points="340,-747.5 340,-782.5 645,-782.5 645,-747.5 340,-747.5"/>
<text text-anchor="start" x="346.8621" y="-760.3" font-family="Arial Bold" font-size="18.00" fill="#000000">public.mail_activity_type</text>
<text text-anchor="start" x="540.8841" y="-760.3" font-family="Arial" font-size="14.00" fill="#000000"> </text>
<text text-anchor="start" x="544.7747" y="-760.3" font-family="Arial" font-size="14.00" fill="#666666">[BASE TABLE]</text>
<polygon fill="none" stroke="#000000" points="340,-717.5 340,-747.5 645,-747.5 645,-717.5 340,-717.5"/>
<text text-anchor="start" x="347" y="-728.9" font-family="Arial" font-size="14.00" fill="#000000">id </text>
<text text-anchor="start" x="361.7798" y="-728.9" font-family="Arial" font-size="14.00" fill="#666666">[integer]</text>
<polygon fill="none" stroke="#000000" points="340,-687.5 340,-717.5 645,-717.5 645,-687.5 340,-687.5"/>
<text text-anchor="start" x="347" y="-698.9" font-family="Arial" font-size="14.00" fill="#000000">name </text>
<text text-anchor="start" x="385.899" y="-698.9" font-family="Arial" font-size="14.00" fill="#666666">[varchar]</text>
<polygon fill="none" stroke="#000000" points="340,-657.5 340,-687.5 645,-687.5 645,-657.5 340,-657.5"/>
<text text-anchor="start" x="347" y="-668.9" font-family="Arial" font-size="14.00" fill="#000000">summary </text>
<text text-anchor="start" x="408.4376" y="-668.9" font-family="Arial" font-size="14.00" fill="#666666">[varchar]</text>
<polygon fill="none" stroke="#000000" points="340,-627.5 340,-657.5 645,-657.5 645,-627.5 340,-627.5"/>
<text text-anchor="start" x="347" y="-638.9" font-family="Arial" font-size="14.00" fill="#000000">sequence </text>
<text text-anchor="start" x="411.5862" y="-638.9" font-family="Arial" font-size="14.00" fill="#666666">[integer]</text>
<polygon fill="none" stroke="#000000" points="340,-597.5 340,-627.5 645,-627.5 645,-597.5 340,-597.5"/>
<text text-anchor="start" x="347" y="-608.9" font-family="Arial" font-size="14.00" fill="#000000">active </text>
<text text-anchor="start" x="387.453" y="-608.9" font-family="Arial" font-size="14.00" fill="#666666">[boolean]</text>
<polygon fill="none" stroke="#000000" points="340,-567.5 340,-597.5 645,-597.5 645,-567.5 340,-567.5"/>
<text text-anchor="start" x="347" y="-578.9" font-family="Arial" font-size="14.00" fill="#000000">delay_count </text>
<text text-anchor="start" x="426.366" y="-578.9" font-family="Arial" font-size="14.00" fill="#666666">[integer]</text>
<polygon fill="none" stroke="#000000" points="340,-537.5 340,-567.5 645,-567.5 645,-537.5 340,-537.5"/>
<text text-anchor="start" x="347" y="-548.9" font-family="Arial" font-size="14.00" fill="#000000">delay_unit </text>
<text text-anchor="start" x="414.69" y="-548.9" font-family="Arial" font-size="14.00" fill="#666666">[varchar]</text>
<polygon fill="none" stroke="#000000" points="340,-507.5 340,-537.5 645,-537.5 645,-507.5 340,-507.5"/>
<text text-anchor="start" x="347" y="-518.9" font-family="Arial" font-size="14.00" fill="#000000">delay_from </text>
<text text-anchor="start" x="420.122" y="-518.9" font-family="Arial" font-size="14.00" fill="#666666">[varchar]</text>
<polygon fill="none" stroke="#000000" points="340,-477.5 340,-507.5 645,-507.5 645,-477.5 340,-477.5"/>
<text text-anchor="start" x="347" y="-488.9" font-family="Arial" font-size="14.00" fill="#000000">icon </text>
<text text-anchor="start" x="376.5624" y="-488.9" font-family="Arial" font-size="14.00" fill="#666666">[varchar]</text>
<polygon fill="none" stroke="#000000" points="340,-447.5 340,-477.5 645,-477.5 645,-447.5 340,-447.5"/>
<text text-anchor="start" x="347" y="-458.9" font-family="Arial" font-size="14.00" fill="#000000">decoration_type </text>
<text text-anchor="start" x="450.4824" y="-458.9" font-family="Arial" font-size="14.00" fill="#666666">[varchar]</text>
<polygon fill="none" stroke="#000000" points="340,-417.5 340,-447.5 645,-447.5 645,-417.5 340,-417.5"/>
<text text-anchor="start" x="347" y="-428.9" font-family="Arial" font-size="14.00" fill="#000000">res_model_id </text>
<text text-anchor="start" x="434.9032" y="-428.9" font-family="Arial" font-size="14.00" fill="#666666">[integer]</text>
<polygon fill="none" stroke="#000000" points="340,-387.5 340,-417.5 645,-417.5 645,-387.5 340,-387.5"/>
<text text-anchor="start" x="347" y="-398.9" font-family="Arial" font-size="14.00" fill="#000000">default_next_type_id </text>
<text text-anchor="start" x="480.0574" y="-398.9" font-family="Arial" font-size="14.00" fill="#666666">[integer]</text>
<polygon fill="none" stroke="#000000" points="340,-357.5 340,-387.5 645,-387.5 645,-357.5 340,-357.5"/>
<text text-anchor="start" x="347" y="-368.9" font-family="Arial" font-size="14.00" fill="#000000">force_next </text>
<text text-anchor="start" x="416.2454" y="-368.9" font-family="Arial" font-size="14.00" fill="#666666">[boolean]</text>
<polygon fill="none" stroke="#000000" points="340,-327.5 340,-357.5 645,-357.5 645,-327.5 340,-327.5"/>
<text text-anchor="start" x="347" y="-338.9" font-family="Arial" font-size="14.00" fill="#000000">category </text>
<text text-anchor="start" x="404.5722" y="-338.9" font-family="Arial" font-size="14.00" fill="#666666">[varchar]</text>
<polygon fill="none" stroke="#000000" points="340,-297.5 340,-327.5 645,-327.5 645,-297.5 340,-297.5"/>
<text text-anchor="start" x="347" y="-308.9" font-family="Arial" font-size="14.00" fill="#000000">create_uid </text>
<text text-anchor="start" x="416.244" y="-308.9" font-family="Arial" font-size="14.00" fill="#666666">[integer]</text>
<polygon fill="none" stroke="#000000" points="340,-267.5 340,-297.5 645,-297.5 645,-267.5 340,-267.5"/>
<text text-anchor="start" x="347" y="-278.9" font-family="Arial" font-size="14.00" fill="#000000">create_date </text>
<text text-anchor="start" x="424.8106" y="-278.9" font-family="Arial" font-size="14.00" fill="#666666">[timestamp without time zone]</text>
<polygon fill="none" stroke="#000000" points="340,-237.5 340,-267.5 645,-267.5 645,-237.5 340,-237.5"/>
<text text-anchor="start" x="347" y="-248.9" font-family="Arial" font-size="14.00" fill="#000000">write_uid </text>
<text text-anchor="start" x="406.892" y="-248.9" font-family="Arial" font-size="14.00" fill="#666666">[integer]</text>
<polygon fill="none" stroke="#000000" points="340,-207.5 340,-237.5 645,-237.5 645,-207.5 340,-207.5"/>
<text text-anchor="start" x="347" y="-218.9" font-family="Arial" font-size="14.00" fill="#000000">write_date </text>
<text text-anchor="start" x="415.4586" y="-218.9" font-family="Arial" font-size="14.00" fill="#666666">[timestamp without time zone]</text>
</g>
<!-- public.mail_activity_type_mail_template_rel&#45;&gt;public.mail_activity_type -->
<g id="edge1" class="edge">
<title>public.mail_activity_type_mail_template_rel:mail_activity_type_id&#45;&gt;public.mail_activity_type:id</title>
<path fill="none" stroke="#000000" d="M451.0292,-1116.0472C425.6825,-1107.2947 447.8539,-1060.8298 461,-1027 504.8676,-914.1121 601.1324,-938.8879 645,-826 660.0517,-787.2662 686.5556,-732.5 645,-732.5"/>
<polygon fill="#000000" stroke="#000000" points="451.1045,-1116.0581 460.3511,-1121.953 456.0522,-1116.7791 461,-1117.5 461,-1117.5 461,-1117.5 456.0522,-1116.7791 461.6489,-1113.047 451.1045,-1116.0581 451.1045,-1116.0581"/>
<text text-anchor="start" x="7.1045" y="-1127.5" font-family="Arial" font-size="10.00" fill="#000000">FOREIGN KEY (mail_activity_type_id) REFERENCES mail_activity_type(id) ON DELETE CASCADE</text>
</g>
<!-- public.mail_template -->
<g id="node3" class="node">
<title>public.mail_template</title>
<polygon fill="#efefef" stroke="transparent" points="749,-912.5 749,-947.5 1025,-947.5 1025,-912.5 749,-912.5"/>
<polygon fill="none" stroke="#000000" points="749,-912.5 749,-947.5 1025,-947.5 1025,-912.5 749,-912.5"/>
<text text-anchor="start" x="756.3642" y="-925.3" font-family="Arial Bold" font-size="18.00" fill="#000000">public.mail_template</text>
<text text-anchor="start" x="920.382" y="-925.3" font-family="Arial" font-size="14.00" fill="#000000"> </text>
<text text-anchor="start" x="924.2726" y="-925.3" font-family="Arial" font-size="14.00" fill="#666666">[BASE TABLE]</text>
<polygon fill="none" stroke="#000000" points="749,-882.5 749,-912.5 1025,-912.5 1025,-882.5 749,-882.5"/>
<text text-anchor="start" x="756" y="-893.9" font-family="Arial" font-size="14.00" fill="#000000">id </text>
<text text-anchor="start" x="770.7798" y="-893.9" font-family="Arial" font-size="14.00" fill="#666666">[integer]</text>
<polygon fill="none" stroke="#000000" points="749,-852.5 749,-882.5 1025,-882.5 1025,-852.5 749,-852.5"/>
<text text-anchor="start" x="756" y="-863.9" font-family="Arial" font-size="14.00" fill="#000000">name </text>
<text text-anchor="start" x="794.899" y="-863.9" font-family="Arial" font-size="14.00" fill="#666666">[varchar]</text>
<polygon fill="none" stroke="#000000" points="749,-822.5 749,-852.5 1025,-852.5 1025,-822.5 749,-822.5"/>
<text text-anchor="start" x="756" y="-833.9" font-family="Arial" font-size="14.00" fill="#000000">model_id </text>
<text text-anchor="start" x="816.6774" y="-833.9" font-family="Arial" font-size="14.00" fill="#666666">[integer]</text>
<polygon fill="none" stroke="#000000" points="749,-792.5 749,-822.5 1025,-822.5 1025,-792.5 749,-792.5"/>
<text text-anchor="start" x="756" y="-803.9" font-family="Arial" font-size="14.00" fill="#000000">model </text>
<text text-anchor="start" x="798.0056" y="-803.9" font-family="Arial" font-size="14.00" fill="#666666">[varchar]</text>
<polygon fill="none" stroke="#000000" points="749,-762.5 749,-792.5 1025,-792.5 1025,-762.5 749,-762.5"/>
<text text-anchor="start" x="756" y="-773.9" font-family="Arial" font-size="14.00" fill="#000000">lang </text>
<text text-anchor="start" x="786.345" y="-773.9" font-family="Arial" font-size="14.00" fill="#666666">[varchar]</text>
<polygon fill="none" stroke="#000000" points="749,-732.5 749,-762.5 1025,-762.5 1025,-732.5 749,-732.5"/>
<text text-anchor="start" x="756" y="-743.9" font-family="Arial" font-size="14.00" fill="#000000">user_signature </text>
<text text-anchor="start" x="852.4698" y="-743.9" font-family="Arial" font-size="14.00" fill="#666666">[boolean]</text>
<polygon fill="none" stroke="#000000" points="749,-702.5 749,-732.5 1025,-732.5 1025,-702.5 749,-702.5"/>
<text text-anchor="start" x="756" y="-713.9" font-family="Arial" font-size="14.00" fill="#000000">subject </text>
<text text-anchor="start" x="804.2356" y="-713.9" font-family="Arial" font-size="14.00" fill="#666666">[varchar]</text>
<polygon fill="none" stroke="#000000" points="749,-672.5 749,-702.5 1025,-702.5 1025,-672.5 749,-672.5"/>
<text text-anchor="start" x="756" y="-683.9" font-family="Arial" font-size="14.00" fill="#000000">email_from </text>
<text text-anchor="start" x="829.1066" y="-683.9" font-family="Arial" font-size="14.00" fill="#666666">[varchar]</text>
<polygon fill="none" stroke="#000000" points="749,-642.5 749,-672.5 1025,-672.5 1025,-642.5 749,-642.5"/>
<text text-anchor="start" x="756" y="-653.9" font-family="Arial" font-size="14.00" fill="#000000">use_default_to </text>
<text text-anchor="start" x="851.7124" y="-653.9" font-family="Arial" font-size="14.00" fill="#666666">[boolean]</text>
<polygon fill="none" stroke="#000000" points="749,-612.5 749,-642.5 1025,-642.5 1025,-612.5 749,-612.5"/>
<text text-anchor="start" x="756" y="-623.9" font-family="Arial" font-size="14.00" fill="#000000">email_to </text>
<text text-anchor="start" x="812.7854" y="-623.9" font-family="Arial" font-size="14.00" fill="#666666">[varchar]</text>
<polygon fill="none" stroke="#000000" points="749,-582.5 749,-612.5 1025,-612.5 1025,-582.5 749,-582.5"/>
<text text-anchor="start" x="756" y="-593.9" font-family="Arial" font-size="14.00" fill="#000000">partner_to </text>
<text text-anchor="start" x="823.6886" y="-593.9" font-family="Arial" font-size="14.00" fill="#666666">[varchar]</text>
<polygon fill="none" stroke="#000000" points="749,-552.5 749,-582.5 1025,-582.5 1025,-552.5 749,-552.5"/>
<text text-anchor="start" x="756" y="-563.9" font-family="Arial" font-size="14.00" fill="#000000">email_cc </text>
<text text-anchor="start" x="815.1122" y="-563.9" font-family="Arial" font-size="14.00" fill="#666666">[varchar]</text>
<polygon fill="none" stroke="#000000" points="749,-522.5 749,-552.5 1025,-552.5 1025,-522.5 749,-522.5"/>
<text text-anchor="start" x="756" y="-533.9" font-family="Arial" font-size="14.00" fill="#000000">reply_to </text>
<text text-anchor="start" x="809.6788" y="-533.9" font-family="Arial" font-size="14.00" fill="#666666">[varchar]</text>
<polygon fill="none" stroke="#000000" points="749,-492.5 749,-522.5 1025,-522.5 1025,-492.5 749,-492.5"/>
<text text-anchor="start" x="756" y="-503.9" font-family="Arial" font-size="14.00" fill="#000000">mail_server_id </text>
<text text-anchor="start" x="850.8878" y="-503.9" font-family="Arial" font-size="14.00" fill="#666666">[integer]</text>
<polygon fill="none" stroke="#000000" points="749,-462.5 749,-492.5 1025,-492.5 1025,-462.5 749,-462.5"/>
<text text-anchor="start" x="756" y="-473.9" font-family="Arial" font-size="14.00" fill="#000000">body_html </text>
<text text-anchor="start" x="824.4614" y="-473.9" font-family="Arial" font-size="14.00" fill="#666666">[text]</text>
<polygon fill="none" stroke="#000000" points="749,-432.5 749,-462.5 1025,-462.5 1025,-432.5 749,-432.5"/>
<text text-anchor="start" x="756" y="-443.9" font-family="Arial" font-size="14.00" fill="#000000">report_name </text>
<text text-anchor="start" x="839.2412" y="-443.9" font-family="Arial" font-size="14.00" fill="#666666">[varchar]</text>
<polygon fill="none" stroke="#000000" points="749,-402.5 749,-432.5 1025,-432.5 1025,-402.5 749,-402.5"/>
<text text-anchor="start" x="756" y="-413.9" font-family="Arial" font-size="14.00" fill="#000000">report_template </text>
<text text-anchor="start" x="857.9116" y="-413.9" font-family="Arial" font-size="14.00" fill="#666666">[integer]</text>
<polygon fill="none" stroke="#000000" points="749,-372.5 749,-402.5 1025,-402.5 1025,-372.5 749,-372.5"/>
<text text-anchor="start" x="756" y="-383.9" font-family="Arial" font-size="14.00" fill="#000000">ref_ir_act_window </text>
<text text-anchor="start" x="872.6802" y="-383.9" font-family="Arial" font-size="14.00" fill="#666666">[integer]</text>
<polygon fill="none" stroke="#000000" points="749,-342.5 749,-372.5 1025,-372.5 1025,-342.5 749,-342.5"/>
<text text-anchor="start" x="756" y="-353.9" font-family="Arial" font-size="14.00" fill="#000000">auto_delete </text>
<text text-anchor="start" x="833.0392" y="-353.9" font-family="Arial" font-size="14.00" fill="#666666">[boolean]</text>
<polygon fill="none" stroke="#000000" points="749,-312.5 749,-342.5 1025,-342.5 1025,-312.5 749,-312.5"/>
<text text-anchor="start" x="756" y="-323.9" font-family="Arial" font-size="14.00" fill="#000000">model_object_field </text>
<text text-anchor="start" x="876.5848" y="-323.9" font-family="Arial" font-size="14.00" fill="#666666">[integer]</text>
<polygon fill="none" stroke="#000000" points="749,-282.5 749,-312.5 1025,-312.5 1025,-282.5 749,-282.5"/>
<text text-anchor="start" x="756" y="-293.9" font-family="Arial" font-size="14.00" fill="#000000">sub_object </text>
<text text-anchor="start" x="827.5834" y="-293.9" font-family="Arial" font-size="14.00" fill="#666666">[integer]</text>
<polygon fill="none" stroke="#000000" points="749,-252.5 749,-282.5 1025,-282.5 1025,-252.5 749,-252.5"/>
<text text-anchor="start" x="756" y="-263.9" font-family="Arial" font-size="14.00" fill="#000000">sub_model_object_field </text>
<text text-anchor="start" x="906.9326" y="-263.9" font-family="Arial" font-size="14.00" fill="#666666">[integer]</text>
<polygon fill="none" stroke="#000000" points="749,-222.5 749,-252.5 1025,-252.5 1025,-222.5 749,-222.5"/>
<text text-anchor="start" x="756" y="-233.9" font-family="Arial" font-size="14.00" fill="#000000">null_value </text>
<text text-anchor="start" x="822.906" y="-233.9" font-family="Arial" font-size="14.00" fill="#666666">[varchar]</text>
<polygon fill="none" stroke="#000000" points="749,-192.5 749,-222.5 1025,-222.5 1025,-192.5 749,-192.5"/>
<text text-anchor="start" x="756" y="-203.9" font-family="Arial" font-size="14.00" fill="#000000">copyvalue </text>
<text text-anchor="start" x="822.9102" y="-203.9" font-family="Arial" font-size="14.00" fill="#666666">[varchar]</text>
<polygon fill="none" stroke="#000000" points="749,-162.5 749,-192.5 1025,-192.5 1025,-162.5 749,-162.5"/>
<text text-anchor="start" x="756" y="-173.9" font-family="Arial" font-size="14.00" fill="#000000">scheduled_date </text>
<text text-anchor="start" x="858.7138" y="-173.9" font-family="Arial" font-size="14.00" fill="#666666">[varchar]</text>
<polygon fill="none" stroke="#000000" points="749,-132.5 749,-162.5 1025,-162.5 1025,-132.5 749,-132.5"/>
<text text-anchor="start" x="756" y="-143.9" font-family="Arial" font-size="14.00" fill="#000000">create_uid </text>
<text text-anchor="start" x="825.244" y="-143.9" font-family="Arial" font-size="14.00" fill="#666666">[integer]</text>
<polygon fill="none" stroke="#000000" points="749,-102.5 749,-132.5 1025,-132.5 1025,-102.5 749,-102.5"/>
<text text-anchor="start" x="755.5246" y="-113.9" font-family="Arial" font-size="14.00" fill="#000000">create_date </text>
<text text-anchor="start" x="833.3352" y="-113.9" font-family="Arial" font-size="14.00" fill="#666666">[timestamp without time zone]</text>
<polygon fill="none" stroke="#000000" points="749,-72.5 749,-102.5 1025,-102.5 1025,-72.5 749,-72.5"/>
<text text-anchor="start" x="756" y="-83.9" font-family="Arial" font-size="14.00" fill="#000000">write_uid </text>
<text text-anchor="start" x="815.892" y="-83.9" font-family="Arial" font-size="14.00" fill="#666666">[integer]</text>
<polygon fill="none" stroke="#000000" points="749,-42.5 749,-72.5 1025,-72.5 1025,-42.5 749,-42.5"/>
<text text-anchor="start" x="756" y="-53.9" font-family="Arial" font-size="14.00" fill="#000000">write_date </text>
<text text-anchor="start" x="824.4586" y="-53.9" font-family="Arial" font-size="14.00" fill="#666666">[timestamp without time zone]</text>
</g>
<!-- public.mail_activity_type_mail_template_rel&#45;&gt;public.mail_template -->
<g id="edge2" class="edge">
<title>public.mail_activity_type_mail_template_rel:mail_template_id&#45;&gt;public.mail_template:id</title>
<path fill="none" stroke="#000000" d="M928.0185,-1084.822C941.6031,-1075.5816 932.2738,-1044.6346 918,-1027 869.6837,-967.3074 797.3163,-1050.6926 749,-991 722.8554,-958.6995 707.4444,-897.5 749,-897.5"/>
<polygon fill="#000000" stroke="#000000" points="927.6608,-1084.9176 916.8379,-1083.1526 922.8304,-1086.2088 918,-1087.5 918,-1087.5 918,-1087.5 922.8304,-1086.2088 919.1621,-1091.8474 927.6608,-1084.9176 927.6608,-1084.9176"/>
<text text-anchor="start" x="924.7735" y="-1097.5" font-family="Arial" font-size="10.00" fill="#000000">FOREIGN KEY (mail_template_id) REFERENCES mail_template(id) ON DELETE CASCADE</text>
</g>
</g>
</svg>
