<?xml version="1.0" encoding="UTF-8" standalone="no"?>
<!DOCTYPE svg PUBLIC "-//W3C//DTD SVG 1.1//EN"
 "http://www.w3.org/Graphics/SVG/1.1/DTD/svg11.dtd">
<!-- Generated by graphviz version 2.40.1 (20161225.0304)
 -->
<!-- Title: public.stock_return_picking_line Pages: 1 -->
<svg width="1598pt" height="2212pt"
 viewBox="0.00 0.00 1597.50 2212.00" xmlns="http://www.w3.org/2000/svg" xmlns:xlink="http://www.w3.org/1999/xlink">
<g id="graph0" class="graph" transform="scale(1 1) rotate(0) translate(4 2208)">
<title>public.stock_return_picking_line</title>
<polygon fill="#ffffff" stroke="transparent" points="-4,4 -4,-2208 1593.5,-2208 1593.5,4 -4,4"/>
<!-- public.stock_return_picking_line -->
<g id="node1" class="node">
<title>public.stock_return_picking_line</title>
<polygon fill="#efefef" stroke="transparent" points="836.5,-2122.5 836.5,-2157.5 1202.5,-2157.5 1202.5,-2122.5 836.5,-2122.5"/>
<polygon fill="none" stroke="#000000" points="836.5,-2122.5 836.5,-2157.5 1202.5,-2157.5 1202.5,-2122.5 836.5,-2122.5"/>
<text text-anchor="start" x="843.3485" y="-2135.3" font-family="Arial Bold" font-size="18.00" fill="#000000">public.stock_return_picking_line</text>
<text text-anchor="start" x="1098.3977" y="-2135.3" font-family="Arial" font-size="14.00" fill="#000000"> </text>
<text text-anchor="start" x="1102.2883" y="-2135.3" font-family="Arial" font-size="14.00" fill="#666666">[BASE TABLE]</text>
<polygon fill="none" stroke="#000000" points="836.5,-2092.5 836.5,-2122.5 1202.5,-2122.5 1202.5,-2092.5 836.5,-2092.5"/>
<text text-anchor="start" x="843.5" y="-2103.9" font-family="Arial" font-size="14.00" fill="#000000">id </text>
<text text-anchor="start" x="858.2798" y="-2103.9" font-family="Arial" font-size="14.00" fill="#666666">[integer]</text>
<polygon fill="none" stroke="#000000" points="836.5,-2062.5 836.5,-2092.5 1202.5,-2092.5 1202.5,-2062.5 836.5,-2062.5"/>
<text text-anchor="start" x="843.5" y="-2073.9" font-family="Arial" font-size="14.00" fill="#000000">product_id </text>
<text text-anchor="start" x="912.744" y="-2073.9" font-family="Arial" font-size="14.00" fill="#666666">[integer]</text>
<polygon fill="none" stroke="#000000" points="836.5,-2032.5 836.5,-2062.5 1202.5,-2062.5 1202.5,-2032.5 836.5,-2032.5"/>
<text text-anchor="start" x="843.5" y="-2043.9" font-family="Arial" font-size="14.00" fill="#000000">quantity </text>
<text text-anchor="start" x="896.4088" y="-2043.9" font-family="Arial" font-size="14.00" fill="#666666">[numeric]</text>
<polygon fill="none" stroke="#000000" points="836.5,-2002.5 836.5,-2032.5 1202.5,-2032.5 1202.5,-2002.5 836.5,-2002.5"/>
<text text-anchor="start" x="843.5" y="-2013.9" font-family="Arial" font-size="14.00" fill="#000000">wizard_id </text>
<text text-anchor="start" x="906.5014" y="-2013.9" font-family="Arial" font-size="14.00" fill="#666666">[integer]</text>
<polygon fill="none" stroke="#000000" points="836.5,-1972.5 836.5,-2002.5 1202.5,-2002.5 1202.5,-1972.5 836.5,-1972.5"/>
<text text-anchor="start" x="843.5" y="-1983.9" font-family="Arial" font-size="14.00" fill="#000000">move_id </text>
<text text-anchor="start" x="900.2882" y="-1983.9" font-family="Arial" font-size="14.00" fill="#666666">[integer]</text>
<polygon fill="none" stroke="#000000" points="836.5,-1942.5 836.5,-1972.5 1202.5,-1972.5 1202.5,-1942.5 836.5,-1942.5"/>
<text text-anchor="start" x="843.5" y="-1953.9" font-family="Arial" font-size="14.00" fill="#000000">create_uid </text>
<text text-anchor="start" x="912.744" y="-1953.9" font-family="Arial" font-size="14.00" fill="#666666">[integer]</text>
<polygon fill="none" stroke="#000000" points="836.5,-1912.5 836.5,-1942.5 1202.5,-1942.5 1202.5,-1912.5 836.5,-1912.5"/>
<text text-anchor="start" x="843.5" y="-1923.9" font-family="Arial" font-size="14.00" fill="#000000">create_date </text>
<text text-anchor="start" x="921.3106" y="-1923.9" font-family="Arial" font-size="14.00" fill="#666666">[timestamp without time zone]</text>
<polygon fill="none" stroke="#000000" points="836.5,-1882.5 836.5,-1912.5 1202.5,-1912.5 1202.5,-1882.5 836.5,-1882.5"/>
<text text-anchor="start" x="843.5" y="-1893.9" font-family="Arial" font-size="14.00" fill="#000000">write_uid </text>
<text text-anchor="start" x="903.392" y="-1893.9" font-family="Arial" font-size="14.00" fill="#666666">[integer]</text>
<polygon fill="none" stroke="#000000" points="836.5,-1852.5 836.5,-1882.5 1202.5,-1882.5 1202.5,-1852.5 836.5,-1852.5"/>
<text text-anchor="start" x="843.5" y="-1863.9" font-family="Arial" font-size="14.00" fill="#000000">write_date </text>
<text text-anchor="start" x="911.9586" y="-1863.9" font-family="Arial" font-size="14.00" fill="#666666">[timestamp without time zone]</text>
<polygon fill="none" stroke="#000000" points="836.5,-1822.5 836.5,-1852.5 1202.5,-1852.5 1202.5,-1822.5 836.5,-1822.5"/>
<text text-anchor="start" x="843.5" y="-1833.9" font-family="Arial" font-size="14.00" fill="#000000">to_refund </text>
<text text-anchor="start" x="906.528" y="-1833.9" font-family="Arial" font-size="14.00" fill="#666666">[boolean]</text>
<polygon fill="none" stroke="#000000" stroke-width="3" points="835,-1821.5 835,-2159.5 1204,-2159.5 1204,-1821.5 835,-1821.5"/>
</g>
<!-- public.product_product -->
<g id="node2" class="node">
<title>public.product_product</title>
<polygon fill="#efefef" stroke="transparent" points="43.5,-1032.5 43.5,-1067.5 336.5,-1067.5 336.5,-1032.5 43.5,-1032.5"/>
<polygon fill="none" stroke="#000000" points="43.5,-1032.5 43.5,-1067.5 336.5,-1067.5 336.5,-1032.5 43.5,-1032.5"/>
<text text-anchor="start" x="50.3462" y="-1045.3" font-family="Arial Bold" font-size="18.00" fill="#000000">public.product_product</text>
<text text-anchor="start" x="232.4" y="-1045.3" font-family="Arial" font-size="14.00" fill="#000000"> </text>
<text text-anchor="start" x="236.2906" y="-1045.3" font-family="Arial" font-size="14.00" fill="#666666">[BASE TABLE]</text>
<polygon fill="none" stroke="#000000" points="43.5,-1002.5 43.5,-1032.5 336.5,-1032.5 336.5,-1002.5 43.5,-1002.5"/>
<text text-anchor="start" x="50.5" y="-1013.9" font-family="Arial" font-size="14.00" fill="#000000">id </text>
<text text-anchor="start" x="65.2798" y="-1013.9" font-family="Arial" font-size="14.00" fill="#666666">[integer]</text>
<polygon fill="none" stroke="#000000" points="43.5,-972.5 43.5,-1002.5 336.5,-1002.5 336.5,-972.5 43.5,-972.5"/>
<text text-anchor="start" x="50.5" y="-983.9" font-family="Arial" font-size="14.00" fill="#000000">message_main_attachment_id </text>
<text text-anchor="start" x="244.9964" y="-983.9" font-family="Arial" font-size="14.00" fill="#666666">[integer]</text>
<polygon fill="none" stroke="#000000" points="43.5,-942.5 43.5,-972.5 336.5,-972.5 336.5,-942.5 43.5,-942.5"/>
<text text-anchor="start" x="50.5" y="-953.9" font-family="Arial" font-size="14.00" fill="#000000">default_code </text>
<text text-anchor="start" x="134.5392" y="-953.9" font-family="Arial" font-size="14.00" fill="#666666">[varchar]</text>
<polygon fill="none" stroke="#000000" points="43.5,-912.5 43.5,-942.5 336.5,-942.5 336.5,-912.5 43.5,-912.5"/>
<text text-anchor="start" x="50.5" y="-923.9" font-family="Arial" font-size="14.00" fill="#000000">active </text>
<text text-anchor="start" x="90.953" y="-923.9" font-family="Arial" font-size="14.00" fill="#666666">[boolean]</text>
<polygon fill="none" stroke="#000000" points="43.5,-882.5 43.5,-912.5 336.5,-912.5 336.5,-882.5 43.5,-882.5"/>
<text text-anchor="start" x="50.5" y="-893.9" font-family="Arial" font-size="14.00" fill="#000000">product_tmpl_id </text>
<text text-anchor="start" x="153.967" y="-893.9" font-family="Arial" font-size="14.00" fill="#666666">[integer]</text>
<polygon fill="none" stroke="#000000" points="43.5,-852.5 43.5,-882.5 336.5,-882.5 336.5,-852.5 43.5,-852.5"/>
<text text-anchor="start" x="50.5" y="-863.9" font-family="Arial" font-size="14.00" fill="#000000">barcode </text>
<text text-anchor="start" x="104.9642" y="-863.9" font-family="Arial" font-size="14.00" fill="#666666">[varchar]</text>
<polygon fill="none" stroke="#000000" points="43.5,-822.5 43.5,-852.5 336.5,-852.5 336.5,-822.5 43.5,-822.5"/>
<text text-anchor="start" x="50.5" y="-833.9" font-family="Arial" font-size="14.00" fill="#000000">volume </text>
<text text-anchor="start" x="99.5056" y="-833.9" font-family="Arial" font-size="14.00" fill="#666666">[double precision]</text>
<polygon fill="none" stroke="#000000" points="43.5,-792.5 43.5,-822.5 336.5,-822.5 336.5,-792.5 43.5,-792.5"/>
<text text-anchor="start" x="50.5" y="-803.9" font-family="Arial" font-size="14.00" fill="#000000">weight </text>
<text text-anchor="start" x="94.8422" y="-803.9" font-family="Arial" font-size="14.00" fill="#666666">[numeric]</text>
<polygon fill="none" stroke="#000000" points="43.5,-762.5 43.5,-792.5 336.5,-792.5 336.5,-762.5 43.5,-762.5"/>
<text text-anchor="start" x="50.5" y="-773.9" font-family="Arial" font-size="14.00" fill="#000000">create_uid </text>
<text text-anchor="start" x="119.744" y="-773.9" font-family="Arial" font-size="14.00" fill="#666666">[integer]</text>
<polygon fill="none" stroke="#000000" points="43.5,-732.5 43.5,-762.5 336.5,-762.5 336.5,-732.5 43.5,-732.5"/>
<text text-anchor="start" x="50.5" y="-743.9" font-family="Arial" font-size="14.00" fill="#000000">create_date </text>
<text text-anchor="start" x="128.3106" y="-743.9" font-family="Arial" font-size="14.00" fill="#666666">[timestamp without time zone]</text>
<polygon fill="none" stroke="#000000" points="43.5,-702.5 43.5,-732.5 336.5,-732.5 336.5,-702.5 43.5,-702.5"/>
<text text-anchor="start" x="50.5" y="-713.9" font-family="Arial" font-size="14.00" fill="#000000">write_uid </text>
<text text-anchor="start" x="110.392" y="-713.9" font-family="Arial" font-size="14.00" fill="#666666">[integer]</text>
<polygon fill="none" stroke="#000000" points="43.5,-672.5 43.5,-702.5 336.5,-702.5 336.5,-672.5 43.5,-672.5"/>
<text text-anchor="start" x="50.5" y="-683.9" font-family="Arial" font-size="14.00" fill="#000000">write_date </text>
<text text-anchor="start" x="118.9586" y="-683.9" font-family="Arial" font-size="14.00" fill="#666666">[timestamp without time zone]</text>
</g>
<!-- public.stock_return_picking_line&#45;&gt;public.product_product -->
<g id="edge1" class="edge">
<title>public.stock_return_picking_line:product_id&#45;&gt;public.product_product:id</title>
<path fill="none" stroke="#000000" d="M826.3806,-2077.434C585.2891,-2074.2584 506.0754,-1956.648 388.5,-1741 349.9191,-1670.2379 417.0963,-1017.5 336.5,-1017.5"/>
<polygon fill="#000000" stroke="#000000" points="826.5002,-2077.4346 836.4706,-2081.9999 831.5001,-2077.4673 836.5,-2077.5 836.5,-2077.5 836.5,-2077.5 831.5001,-2077.4673 836.5294,-2073.0001 826.5002,-2077.4346 826.5002,-2077.4346"/>
<text text-anchor="start" x="434.9805" y="-2087.5" font-family="Arial" font-size="10.00" fill="#000000">FOREIGN KEY (product_id) REFERENCES product_product(id) ON DELETE SET NULL</text>
</g>
<!-- public.stock_return_picking -->
<g id="node3" class="node">
<title>public.stock_return_picking</title>
<polygon fill="#efefef" stroke="transparent" points="440.5,-1002.5 440.5,-1037.5 768.5,-1037.5 768.5,-1002.5 440.5,-1002.5"/>
<polygon fill="none" stroke="#000000" points="440.5,-1002.5 440.5,-1037.5 768.5,-1037.5 768.5,-1002.5 440.5,-1002.5"/>
<text text-anchor="start" x="447.352" y="-1015.3" font-family="Arial Bold" font-size="18.00" fill="#000000">public.stock_return_picking</text>
<text text-anchor="start" x="664.3942" y="-1015.3" font-family="Arial" font-size="14.00" fill="#000000"> </text>
<text text-anchor="start" x="668.2848" y="-1015.3" font-family="Arial" font-size="14.00" fill="#666666">[BASE TABLE]</text>
<polygon fill="none" stroke="#000000" points="440.5,-972.5 440.5,-1002.5 768.5,-1002.5 768.5,-972.5 440.5,-972.5"/>
<text text-anchor="start" x="447.5" y="-983.9" font-family="Arial" font-size="14.00" fill="#000000">id </text>
<text text-anchor="start" x="462.2798" y="-983.9" font-family="Arial" font-size="14.00" fill="#666666">[integer]</text>
<polygon fill="none" stroke="#000000" points="440.5,-942.5 440.5,-972.5 768.5,-972.5 768.5,-942.5 440.5,-942.5"/>
<text text-anchor="start" x="447.5" y="-953.9" font-family="Arial" font-size="14.00" fill="#000000">picking_id </text>
<text text-anchor="start" x="513.6234" y="-953.9" font-family="Arial" font-size="14.00" fill="#666666">[integer]</text>
<polygon fill="none" stroke="#000000" points="440.5,-912.5 440.5,-942.5 768.5,-942.5 768.5,-912.5 440.5,-912.5"/>
<text text-anchor="start" x="447.5" y="-923.9" font-family="Arial" font-size="14.00" fill="#000000">move_dest_exists </text>
<text text-anchor="start" x="563.4172" y="-923.9" font-family="Arial" font-size="14.00" fill="#666666">[boolean]</text>
<polygon fill="none" stroke="#000000" points="440.5,-882.5 440.5,-912.5 768.5,-912.5 768.5,-882.5 440.5,-882.5"/>
<text text-anchor="start" x="447.5" y="-893.9" font-family="Arial" font-size="14.00" fill="#000000">original_location_id </text>
<text text-anchor="start" x="571.19" y="-893.9" font-family="Arial" font-size="14.00" fill="#666666">[integer]</text>
<polygon fill="none" stroke="#000000" points="440.5,-852.5 440.5,-882.5 768.5,-882.5 768.5,-852.5 440.5,-852.5"/>
<text text-anchor="start" x="447.5" y="-863.9" font-family="Arial" font-size="14.00" fill="#000000">parent_location_id </text>
<text text-anchor="start" x="565.7608" y="-863.9" font-family="Arial" font-size="14.00" fill="#666666">[integer]</text>
<polygon fill="none" stroke="#000000" points="440.5,-822.5 440.5,-852.5 768.5,-852.5 768.5,-822.5 440.5,-822.5"/>
<text text-anchor="start" x="447.5" y="-833.9" font-family="Arial" font-size="14.00" fill="#000000">location_id </text>
<text text-anchor="start" x="518.2966" y="-833.9" font-family="Arial" font-size="14.00" fill="#666666">[integer]</text>
<polygon fill="none" stroke="#000000" points="440.5,-792.5 440.5,-822.5 768.5,-822.5 768.5,-792.5 440.5,-792.5"/>
<text text-anchor="start" x="447.5" y="-803.9" font-family="Arial" font-size="14.00" fill="#000000">create_uid </text>
<text text-anchor="start" x="516.744" y="-803.9" font-family="Arial" font-size="14.00" fill="#666666">[integer]</text>
<polygon fill="none" stroke="#000000" points="440.5,-762.5 440.5,-792.5 768.5,-792.5 768.5,-762.5 440.5,-762.5"/>
<text text-anchor="start" x="447.5" y="-773.9" font-family="Arial" font-size="14.00" fill="#000000">create_date </text>
<text text-anchor="start" x="525.3106" y="-773.9" font-family="Arial" font-size="14.00" fill="#666666">[timestamp without time zone]</text>
<polygon fill="none" stroke="#000000" points="440.5,-732.5 440.5,-762.5 768.5,-762.5 768.5,-732.5 440.5,-732.5"/>
<text text-anchor="start" x="447.5" y="-743.9" font-family="Arial" font-size="14.00" fill="#000000">write_uid </text>
<text text-anchor="start" x="507.392" y="-743.9" font-family="Arial" font-size="14.00" fill="#666666">[integer]</text>
<polygon fill="none" stroke="#000000" points="440.5,-702.5 440.5,-732.5 768.5,-732.5 768.5,-702.5 440.5,-702.5"/>
<text text-anchor="start" x="447.5" y="-713.9" font-family="Arial" font-size="14.00" fill="#000000">write_date </text>
<text text-anchor="start" x="515.9586" y="-713.9" font-family="Arial" font-size="14.00" fill="#666666">[timestamp without time zone]</text>
</g>
<!-- public.stock_return_picking_line&#45;&gt;public.stock_return_picking -->
<g id="edge2" class="edge">
<title>public.stock_return_picking_line:wizard_id&#45;&gt;public.stock_return_picking:id</title>
<path fill="none" stroke="#000000" d="M826.8272,-2014.7252C731.3249,-1956.0807 879.7214,-987.5 768.5,-987.5"/>
<polygon fill="#000000" stroke="#000000" points="826.8877,-2014.7425 835.2591,-2021.8255 831.6938,-2016.1212 836.5,-2017.5 836.5,-2017.5 836.5,-2017.5 831.6938,-2016.1212 837.7409,-2013.1745 826.8877,-2014.7425 826.8877,-2014.7425"/>
<text text-anchor="start" x="419.491" y="-2027.5" font-family="Arial" font-size="10.00" fill="#000000">FOREIGN KEY (wizard_id) REFERENCES stock_return_picking(id) ON DELETE SET NULL</text>
</g>
<!-- public.stock_move -->
<g id="node4" class="node">
<title>public.stock_move</title>
<polygon fill="#efefef" stroke="transparent" points="872.5,-1662.5 872.5,-1697.5 1166.5,-1697.5 1166.5,-1662.5 872.5,-1662.5"/>
<polygon fill="none" stroke="#000000" points="872.5,-1662.5 872.5,-1697.5 1166.5,-1697.5 1166.5,-1662.5 872.5,-1662.5"/>
<text text-anchor="start" x="896.8589" y="-1675.3" font-family="Arial Bold" font-size="18.00" fill="#000000">public.stock_move</text>
<text text-anchor="start" x="1044.8873" y="-1675.3" font-family="Arial" font-size="14.00" fill="#000000"> </text>
<text text-anchor="start" x="1048.7779" y="-1675.3" font-family="Arial" font-size="14.00" fill="#666666">[BASE TABLE]</text>
<polygon fill="none" stroke="#000000" points="872.5,-1632.5 872.5,-1662.5 1166.5,-1662.5 1166.5,-1632.5 872.5,-1632.5"/>
<text text-anchor="start" x="879.5" y="-1643.9" font-family="Arial" font-size="14.00" fill="#000000">id </text>
<text text-anchor="start" x="894.2798" y="-1643.9" font-family="Arial" font-size="14.00" fill="#666666">[integer]</text>
<polygon fill="none" stroke="#000000" points="872.5,-1602.5 872.5,-1632.5 1166.5,-1632.5 1166.5,-1602.5 872.5,-1602.5"/>
<text text-anchor="start" x="879.5" y="-1613.9" font-family="Arial" font-size="14.00" fill="#000000">name </text>
<text text-anchor="start" x="918.399" y="-1613.9" font-family="Arial" font-size="14.00" fill="#666666">[varchar]</text>
<polygon fill="none" stroke="#000000" points="872.5,-1572.5 872.5,-1602.5 1166.5,-1602.5 1166.5,-1572.5 872.5,-1572.5"/>
<text text-anchor="start" x="879.5" y="-1583.9" font-family="Arial" font-size="14.00" fill="#000000">sequence </text>
<text text-anchor="start" x="944.0862" y="-1583.9" font-family="Arial" font-size="14.00" fill="#666666">[integer]</text>
<polygon fill="none" stroke="#000000" points="872.5,-1542.5 872.5,-1572.5 1166.5,-1572.5 1166.5,-1542.5 872.5,-1542.5"/>
<text text-anchor="start" x="879.5" y="-1553.9" font-family="Arial" font-size="14.00" fill="#000000">priority </text>
<text text-anchor="start" x="925.3808" y="-1553.9" font-family="Arial" font-size="14.00" fill="#666666">[varchar]</text>
<polygon fill="none" stroke="#000000" points="872.5,-1512.5 872.5,-1542.5 1166.5,-1542.5 1166.5,-1512.5 872.5,-1512.5"/>
<text text-anchor="start" x="879.5" y="-1523.9" font-family="Arial" font-size="14.00" fill="#000000">create_date </text>
<text text-anchor="start" x="957.3106" y="-1523.9" font-family="Arial" font-size="14.00" fill="#666666">[timestamp without time zone]</text>
<polygon fill="none" stroke="#000000" points="872.5,-1482.5 872.5,-1512.5 1166.5,-1512.5 1166.5,-1482.5 872.5,-1482.5"/>
<text text-anchor="start" x="879.5" y="-1493.9" font-family="Arial" font-size="14.00" fill="#000000">date </text>
<text text-anchor="start" x="910.629" y="-1493.9" font-family="Arial" font-size="14.00" fill="#666666">[timestamp without time zone]</text>
<polygon fill="none" stroke="#000000" points="872.5,-1452.5 872.5,-1482.5 1166.5,-1482.5 1166.5,-1452.5 872.5,-1452.5"/>
<text text-anchor="start" x="879.5" y="-1463.9" font-family="Arial" font-size="14.00" fill="#000000">company_id </text>
<text text-anchor="start" x="958.8534" y="-1463.9" font-family="Arial" font-size="14.00" fill="#666666">[integer]</text>
<polygon fill="none" stroke="#000000" points="872.5,-1422.5 872.5,-1452.5 1166.5,-1452.5 1166.5,-1422.5 872.5,-1422.5"/>
<text text-anchor="start" x="879.0723" y="-1433.9" font-family="Arial" font-size="14.00" fill="#000000">date_expected </text>
<text text-anchor="start" x="974.7875" y="-1433.9" font-family="Arial" font-size="14.00" fill="#666666">[timestamp without time zone]</text>
<polygon fill="none" stroke="#000000" points="872.5,-1392.5 872.5,-1422.5 1166.5,-1422.5 1166.5,-1392.5 872.5,-1392.5"/>
<text text-anchor="start" x="879.5" y="-1403.9" font-family="Arial" font-size="14.00" fill="#000000">product_id </text>
<text text-anchor="start" x="948.744" y="-1403.9" font-family="Arial" font-size="14.00" fill="#666666">[integer]</text>
<polygon fill="none" stroke="#000000" points="872.5,-1362.5 872.5,-1392.5 1166.5,-1392.5 1166.5,-1362.5 872.5,-1362.5"/>
<text text-anchor="start" x="879.5" y="-1373.9" font-family="Arial" font-size="14.00" fill="#000000">product_qty </text>
<text text-anchor="start" x="956.528" y="-1373.9" font-family="Arial" font-size="14.00" fill="#666666">[numeric]</text>
<polygon fill="none" stroke="#000000" points="872.5,-1332.5 872.5,-1362.5 1166.5,-1362.5 1166.5,-1332.5 872.5,-1332.5"/>
<text text-anchor="start" x="879.5" y="-1343.9" font-family="Arial" font-size="14.00" fill="#000000">product_uom_qty </text>
<text text-anchor="start" x="991.5364" y="-1343.9" font-family="Arial" font-size="14.00" fill="#666666">[numeric]</text>
<polygon fill="none" stroke="#000000" points="872.5,-1302.5 872.5,-1332.5 1166.5,-1332.5 1166.5,-1302.5 872.5,-1302.5"/>
<text text-anchor="start" x="879.5" y="-1313.9" font-family="Arial" font-size="14.00" fill="#000000">product_uom </text>
<text text-anchor="start" x="965.0806" y="-1313.9" font-family="Arial" font-size="14.00" fill="#666666">[integer]</text>
<polygon fill="none" stroke="#000000" points="872.5,-1272.5 872.5,-1302.5 1166.5,-1302.5 1166.5,-1272.5 872.5,-1272.5"/>
<text text-anchor="start" x="879.5" y="-1283.9" font-family="Arial" font-size="14.00" fill="#000000">product_packaging </text>
<text text-anchor="start" x="1001.657" y="-1283.9" font-family="Arial" font-size="14.00" fill="#666666">[integer]</text>
<polygon fill="none" stroke="#000000" points="872.5,-1242.5 872.5,-1272.5 1166.5,-1272.5 1166.5,-1242.5 872.5,-1242.5"/>
<text text-anchor="start" x="879.5" y="-1253.9" font-family="Arial" font-size="14.00" fill="#000000">location_id </text>
<text text-anchor="start" x="950.2966" y="-1253.9" font-family="Arial" font-size="14.00" fill="#666666">[integer]</text>
<polygon fill="none" stroke="#000000" points="872.5,-1212.5 872.5,-1242.5 1166.5,-1242.5 1166.5,-1212.5 872.5,-1212.5"/>
<text text-anchor="start" x="879.5" y="-1223.9" font-family="Arial" font-size="14.00" fill="#000000">location_dest_id </text>
<text text-anchor="start" x="984.535" y="-1223.9" font-family="Arial" font-size="14.00" fill="#666666">[integer]</text>
<polygon fill="none" stroke="#000000" points="872.5,-1182.5 872.5,-1212.5 1166.5,-1212.5 1166.5,-1182.5 872.5,-1182.5"/>
<text text-anchor="start" x="879.5" y="-1193.9" font-family="Arial" font-size="14.00" fill="#000000">partner_id </text>
<text text-anchor="start" x="946.4046" y="-1193.9" font-family="Arial" font-size="14.00" fill="#666666">[integer]</text>
<polygon fill="none" stroke="#000000" points="872.5,-1152.5 872.5,-1182.5 1166.5,-1182.5 1166.5,-1152.5 872.5,-1152.5"/>
<text text-anchor="start" x="879.5" y="-1163.9" font-family="Arial" font-size="14.00" fill="#000000">picking_id </text>
<text text-anchor="start" x="945.6234" y="-1163.9" font-family="Arial" font-size="14.00" fill="#666666">[integer]</text>
<polygon fill="none" stroke="#000000" points="872.5,-1122.5 872.5,-1152.5 1166.5,-1152.5 1166.5,-1122.5 872.5,-1122.5"/>
<text text-anchor="start" x="879.5" y="-1133.9" font-family="Arial" font-size="14.00" fill="#000000">note </text>
<text text-anchor="start" x="910.629" y="-1133.9" font-family="Arial" font-size="14.00" fill="#666666">[text]</text>
<polygon fill="none" stroke="#000000" points="872.5,-1092.5 872.5,-1122.5 1166.5,-1122.5 1166.5,-1092.5 872.5,-1092.5"/>
<text text-anchor="start" x="879.5" y="-1103.9" font-family="Arial" font-size="14.00" fill="#000000">state </text>
<text text-anchor="start" x="913.737" y="-1103.9" font-family="Arial" font-size="14.00" fill="#666666">[varchar]</text>
<polygon fill="none" stroke="#000000" points="872.5,-1062.5 872.5,-1092.5 1166.5,-1092.5 1166.5,-1062.5 872.5,-1062.5"/>
<text text-anchor="start" x="879.5" y="-1073.9" font-family="Arial" font-size="14.00" fill="#000000">price_unit </text>
<text text-anchor="start" x="944.068" y="-1073.9" font-family="Arial" font-size="14.00" fill="#666666">[double precision]</text>
<polygon fill="none" stroke="#000000" points="872.5,-1032.5 872.5,-1062.5 1166.5,-1062.5 1166.5,-1032.5 872.5,-1032.5"/>
<text text-anchor="start" x="879.5" y="-1043.9" font-family="Arial" font-size="14.00" fill="#000000">origin </text>
<text text-anchor="start" x="917.6122" y="-1043.9" font-family="Arial" font-size="14.00" fill="#666666">[varchar]</text>
<polygon fill="none" stroke="#000000" points="872.5,-1002.5 872.5,-1032.5 1166.5,-1032.5 1166.5,-1002.5 872.5,-1002.5"/>
<text text-anchor="start" x="879.5" y="-1013.9" font-family="Arial" font-size="14.00" fill="#000000">procure_method </text>
<text text-anchor="start" x="985.3064" y="-1013.9" font-family="Arial" font-size="14.00" fill="#666666">[varchar]</text>
<polygon fill="none" stroke="#000000" points="872.5,-972.5 872.5,-1002.5 1166.5,-1002.5 1166.5,-972.5 872.5,-972.5"/>
<text text-anchor="start" x="879.5" y="-983.9" font-family="Arial" font-size="14.00" fill="#000000">scrapped </text>
<text text-anchor="start" x="940.9642" y="-983.9" font-family="Arial" font-size="14.00" fill="#666666">[boolean]</text>
<polygon fill="none" stroke="#000000" points="872.5,-942.5 872.5,-972.5 1166.5,-972.5 1166.5,-942.5 872.5,-942.5"/>
<text text-anchor="start" x="879.5" y="-953.9" font-family="Arial" font-size="14.00" fill="#000000">group_id </text>
<text text-anchor="start" x="937.8534" y="-953.9" font-family="Arial" font-size="14.00" fill="#666666">[integer]</text>
<polygon fill="none" stroke="#000000" points="872.5,-912.5 872.5,-942.5 1166.5,-942.5 1166.5,-912.5 872.5,-912.5"/>
<text text-anchor="start" x="879.5" y="-923.9" font-family="Arial" font-size="14.00" fill="#000000">rule_id </text>
<text text-anchor="start" x="925.3948" y="-923.9" font-family="Arial" font-size="14.00" fill="#666666">[integer]</text>
<polygon fill="none" stroke="#000000" points="872.5,-882.5 872.5,-912.5 1166.5,-912.5 1166.5,-882.5 872.5,-882.5"/>
<text text-anchor="start" x="879.5" y="-893.9" font-family="Arial" font-size="14.00" fill="#000000">propagate </text>
<text text-anchor="start" x="946.42" y="-893.9" font-family="Arial" font-size="14.00" fill="#666666">[boolean]</text>
<polygon fill="none" stroke="#000000" points="872.5,-852.5 872.5,-882.5 1166.5,-882.5 1166.5,-852.5 872.5,-852.5"/>
<text text-anchor="start" x="879.5" y="-863.9" font-family="Arial" font-size="14.00" fill="#000000">picking_type_id </text>
<text text-anchor="start" x="979.8618" y="-863.9" font-family="Arial" font-size="14.00" fill="#666666">[integer]</text>
<polygon fill="none" stroke="#000000" points="872.5,-822.5 872.5,-852.5 1166.5,-852.5 1166.5,-822.5 872.5,-822.5"/>
<text text-anchor="start" x="879.5" y="-833.9" font-family="Arial" font-size="14.00" fill="#000000">inventory_id </text>
<text text-anchor="start" x="958.8506" y="-833.9" font-family="Arial" font-size="14.00" fill="#666666">[integer]</text>
<polygon fill="none" stroke="#000000" points="872.5,-792.5 872.5,-822.5 1166.5,-822.5 1166.5,-792.5 872.5,-792.5"/>
<text text-anchor="start" x="879.5" y="-803.9" font-family="Arial" font-size="14.00" fill="#000000">origin_returned_move_id </text>
<text text-anchor="start" x="1038.1998" y="-803.9" font-family="Arial" font-size="14.00" fill="#666666">[integer]</text>
<polygon fill="none" stroke="#000000" points="872.5,-762.5 872.5,-792.5 1166.5,-792.5 1166.5,-762.5 872.5,-762.5"/>
<text text-anchor="start" x="879.5" y="-773.9" font-family="Arial" font-size="14.00" fill="#000000">restrict_partner_id </text>
<text text-anchor="start" x="996.1788" y="-773.9" font-family="Arial" font-size="14.00" fill="#666666">[integer]</text>
<polygon fill="none" stroke="#000000" points="872.5,-732.5 872.5,-762.5 1166.5,-762.5 1166.5,-732.5 872.5,-732.5"/>
<text text-anchor="start" x="879.5" y="-743.9" font-family="Arial" font-size="14.00" fill="#000000">warehouse_id </text>
<text text-anchor="start" x="970.5252" y="-743.9" font-family="Arial" font-size="14.00" fill="#666666">[integer]</text>
<polygon fill="none" stroke="#000000" points="872.5,-702.5 872.5,-732.5 1166.5,-732.5 1166.5,-702.5 872.5,-702.5"/>
<text text-anchor="start" x="879.5" y="-713.9" font-family="Arial" font-size="14.00" fill="#000000">additional </text>
<text text-anchor="start" x="943.2966" y="-713.9" font-family="Arial" font-size="14.00" fill="#666666">[boolean]</text>
<polygon fill="none" stroke="#000000" points="872.5,-672.5 872.5,-702.5 1166.5,-702.5 1166.5,-672.5 872.5,-672.5"/>
<text text-anchor="start" x="879.5" y="-683.9" font-family="Arial" font-size="14.00" fill="#000000">reference </text>
<text text-anchor="start" x="942.5154" y="-683.9" font-family="Arial" font-size="14.00" fill="#666666">[varchar]</text>
<polygon fill="none" stroke="#000000" points="872.5,-642.5 872.5,-672.5 1166.5,-672.5 1166.5,-642.5 872.5,-642.5"/>
<text text-anchor="start" x="879.5" y="-653.9" font-family="Arial" font-size="14.00" fill="#000000">package_level_id </text>
<text text-anchor="start" x="991.5364" y="-653.9" font-family="Arial" font-size="14.00" fill="#666666">[integer]</text>
<polygon fill="none" stroke="#000000" points="872.5,-612.5 872.5,-642.5 1166.5,-642.5 1166.5,-612.5 872.5,-612.5"/>
<text text-anchor="start" x="879.5" y="-623.9" font-family="Arial" font-size="14.00" fill="#000000">create_uid </text>
<text text-anchor="start" x="948.744" y="-623.9" font-family="Arial" font-size="14.00" fill="#666666">[integer]</text>
<polygon fill="none" stroke="#000000" points="872.5,-582.5 872.5,-612.5 1166.5,-612.5 1166.5,-582.5 872.5,-582.5"/>
<text text-anchor="start" x="879.5" y="-593.9" font-family="Arial" font-size="14.00" fill="#000000">write_uid </text>
<text text-anchor="start" x="939.392" y="-593.9" font-family="Arial" font-size="14.00" fill="#666666">[integer]</text>
<polygon fill="none" stroke="#000000" points="872.5,-552.5 872.5,-582.5 1166.5,-582.5 1166.5,-552.5 872.5,-552.5"/>
<text text-anchor="start" x="879.5" y="-563.9" font-family="Arial" font-size="14.00" fill="#000000">write_date </text>
<text text-anchor="start" x="947.9586" y="-563.9" font-family="Arial" font-size="14.00" fill="#666666">[timestamp without time zone]</text>
<polygon fill="none" stroke="#000000" points="872.5,-522.5 872.5,-552.5 1166.5,-552.5 1166.5,-522.5 872.5,-522.5"/>
<text text-anchor="start" x="879.5" y="-533.9" font-family="Arial" font-size="14.00" fill="#000000">to_refund </text>
<text text-anchor="start" x="942.528" y="-533.9" font-family="Arial" font-size="14.00" fill="#666666">[boolean]</text>
<polygon fill="none" stroke="#000000" points="872.5,-492.5 872.5,-522.5 1166.5,-522.5 1166.5,-492.5 872.5,-492.5"/>
<text text-anchor="start" x="879.5" y="-503.9" font-family="Arial" font-size="14.00" fill="#000000">value </text>
<text text-anchor="start" x="916.845" y="-503.9" font-family="Arial" font-size="14.00" fill="#666666">[double precision]</text>
<polygon fill="none" stroke="#000000" points="872.5,-462.5 872.5,-492.5 1166.5,-492.5 1166.5,-462.5 872.5,-462.5"/>
<text text-anchor="start" x="879.5" y="-473.9" font-family="Arial" font-size="14.00" fill="#000000">remaining_qty </text>
<text text-anchor="start" x="971.2938" y="-473.9" font-family="Arial" font-size="14.00" fill="#666666">[double precision]</text>
<polygon fill="none" stroke="#000000" points="872.5,-432.5 872.5,-462.5 1166.5,-462.5 1166.5,-432.5 872.5,-432.5"/>
<text text-anchor="start" x="879.5" y="-443.9" font-family="Arial" font-size="14.00" fill="#000000">remaining_value </text>
<text text-anchor="start" x="986.075" y="-443.9" font-family="Arial" font-size="14.00" fill="#666666">[double precision]</text>
<polygon fill="none" stroke="#000000" points="872.5,-402.5 872.5,-432.5 1166.5,-432.5 1166.5,-402.5 872.5,-402.5"/>
<text text-anchor="start" x="879.5" y="-413.9" font-family="Arial" font-size="14.00" fill="#000000">sale_line_id </text>
<text text-anchor="start" x="957.2952" y="-413.9" font-family="Arial" font-size="14.00" fill="#666666">[integer]</text>
<polygon fill="none" stroke="#000000" points="872.5,-372.5 872.5,-402.5 1166.5,-402.5 1166.5,-372.5 872.5,-372.5"/>
<text text-anchor="start" x="879.5" y="-383.9" font-family="Arial" font-size="14.00" fill="#000000">purchase_line_id </text>
<text text-anchor="start" x="989.197" y="-383.9" font-family="Arial" font-size="14.00" fill="#666666">[integer]</text>
<polygon fill="none" stroke="#000000" points="872.5,-342.5 872.5,-372.5 1166.5,-372.5 1166.5,-342.5 872.5,-342.5"/>
<text text-anchor="start" x="879.5" y="-353.9" font-family="Arial" font-size="14.00" fill="#000000">created_purchase_line_id </text>
<text text-anchor="start" x="1043.6612" y="-353.9" font-family="Arial" font-size="14.00" fill="#666666">[integer]</text>
<polygon fill="none" stroke="#000000" points="872.5,-312.5 872.5,-342.5 1166.5,-342.5 1166.5,-312.5 872.5,-312.5"/>
<text text-anchor="start" x="879.5" y="-323.9" font-family="Arial" font-size="14.00" fill="#000000">created_production_id </text>
<text text-anchor="start" x="1021.88" y="-323.9" font-family="Arial" font-size="14.00" fill="#666666">[integer]</text>
<polygon fill="none" stroke="#000000" points="872.5,-282.5 872.5,-312.5 1166.5,-312.5 1166.5,-282.5 872.5,-282.5"/>
<text text-anchor="start" x="879.5" y="-293.9" font-family="Arial" font-size="14.00" fill="#000000">production_id </text>
<text text-anchor="start" x="967.4158" y="-293.9" font-family="Arial" font-size="14.00" fill="#666666">[integer]</text>
<polygon fill="none" stroke="#000000" points="872.5,-252.5 872.5,-282.5 1166.5,-282.5 1166.5,-252.5 872.5,-252.5"/>
<text text-anchor="start" x="879.5" y="-263.9" font-family="Arial" font-size="14.00" fill="#000000">raw_material_production_id </text>
<text text-anchor="start" x="1055.3036" y="-263.9" font-family="Arial" font-size="14.00" fill="#666666">[integer]</text>
<polygon fill="none" stroke="#000000" points="872.5,-222.5 872.5,-252.5 1166.5,-252.5 1166.5,-222.5 872.5,-222.5"/>
<text text-anchor="start" x="879.5" y="-233.9" font-family="Arial" font-size="14.00" fill="#000000">unbuild_id </text>
<text text-anchor="start" x="947.1886" y="-233.9" font-family="Arial" font-size="14.00" fill="#666666">[integer]</text>
<polygon fill="none" stroke="#000000" points="872.5,-192.5 872.5,-222.5 1166.5,-222.5 1166.5,-192.5 872.5,-192.5"/>
<text text-anchor="start" x="879.5" y="-203.9" font-family="Arial" font-size="14.00" fill="#000000">consume_unbuild_id </text>
<text text-anchor="start" x="1011.7622" y="-203.9" font-family="Arial" font-size="14.00" fill="#666666">[integer]</text>
<polygon fill="none" stroke="#000000" points="872.5,-162.5 872.5,-192.5 1166.5,-192.5 1166.5,-162.5 872.5,-162.5"/>
<text text-anchor="start" x="879.5" y="-173.9" font-family="Arial" font-size="14.00" fill="#000000">operation_id </text>
<text text-anchor="start" x="960.4158" y="-173.9" font-family="Arial" font-size="14.00" fill="#666666">[integer]</text>
<polygon fill="none" stroke="#000000" points="872.5,-132.5 872.5,-162.5 1166.5,-162.5 1166.5,-132.5 872.5,-132.5"/>
<text text-anchor="start" x="879.5" y="-143.9" font-family="Arial" font-size="14.00" fill="#000000">workorder_id </text>
<text text-anchor="start" x="964.2812" y="-143.9" font-family="Arial" font-size="14.00" fill="#666666">[integer]</text>
<polygon fill="none" stroke="#000000" points="872.5,-102.5 872.5,-132.5 1166.5,-132.5 1166.5,-102.5 872.5,-102.5"/>
<text text-anchor="start" x="879.5" y="-113.9" font-family="Arial" font-size="14.00" fill="#000000">bom_line_id </text>
<text text-anchor="start" x="958.8492" y="-113.9" font-family="Arial" font-size="14.00" fill="#666666">[integer]</text>
<polygon fill="none" stroke="#000000" points="872.5,-72.5 872.5,-102.5 1166.5,-102.5 1166.5,-72.5 872.5,-72.5"/>
<text text-anchor="start" x="879.5" y="-83.9" font-family="Arial" font-size="14.00" fill="#000000">unit_factor </text>
<text text-anchor="start" x="948.7426" y="-83.9" font-family="Arial" font-size="14.00" fill="#666666">[double precision]</text>
<polygon fill="none" stroke="#000000" points="872.5,-42.5 872.5,-72.5 1166.5,-72.5 1166.5,-42.5 872.5,-42.5"/>
<text text-anchor="start" x="879.5" y="-53.9" font-family="Arial" font-size="14.00" fill="#000000">is_done </text>
<text text-anchor="start" x="932.4102" y="-53.9" font-family="Arial" font-size="14.00" fill="#666666">[boolean]</text>
</g>
<!-- public.stock_return_picking_line&#45;&gt;public.stock_move -->
<g id="edge3" class="edge">
<title>public.stock_return_picking_line:move_id&#45;&gt;public.stock_move:id</title>
<path fill="none" stroke="#000000" d="M1210.3949,-1981.0117C1234.5693,-1934.0067 1201.3727,-1647.5 1166.5,-1647.5"/>
<polygon fill="#000000" stroke="#000000" points="1210.2257,-1981.1507 1199.6428,-1984.0234 1206.3629,-1984.3253 1202.5,-1987.5 1202.5,-1987.5 1202.5,-1987.5 1206.3629,-1984.3253 1205.3572,-1990.9766 1210.2257,-1981.1507 1210.2257,-1981.1507"/>
<text text-anchor="start" x="1209.8805" y="-1997.5" font-family="Arial" font-size="10.00" fill="#000000">FOREIGN KEY (move_id) REFERENCES stock_move(id) ON DELETE SET NULL</text>
</g>
<!-- public.res_users -->
<g id="node5" class="node">
<title>public.res_users</title>
<polygon fill="#efefef" stroke="transparent" points="1270.5,-1182.5 1270.5,-1217.5 1546.5,-1217.5 1546.5,-1182.5 1270.5,-1182.5"/>
<polygon fill="none" stroke="#000000" points="1270.5,-1182.5 1270.5,-1217.5 1546.5,-1217.5 1546.5,-1182.5 1270.5,-1182.5"/>
<text text-anchor="start" x="1294.3639" y="-1195.3" font-family="Arial Bold" font-size="18.00" fill="#000000">public.res_users</text>
<text text-anchor="start" x="1425.3823" y="-1195.3" font-family="Arial" font-size="14.00" fill="#000000"> </text>
<text text-anchor="start" x="1429.2729" y="-1195.3" font-family="Arial" font-size="14.00" fill="#666666">[BASE TABLE]</text>
<polygon fill="none" stroke="#000000" points="1270.5,-1152.5 1270.5,-1182.5 1546.5,-1182.5 1546.5,-1152.5 1270.5,-1152.5"/>
<text text-anchor="start" x="1277.5" y="-1163.9" font-family="Arial" font-size="14.00" fill="#000000">id </text>
<text text-anchor="start" x="1292.2798" y="-1163.9" font-family="Arial" font-size="14.00" fill="#666666">[integer]</text>
<polygon fill="none" stroke="#000000" points="1270.5,-1122.5 1270.5,-1152.5 1546.5,-1152.5 1546.5,-1122.5 1270.5,-1122.5"/>
<text text-anchor="start" x="1277.5" y="-1133.9" font-family="Arial" font-size="14.00" fill="#000000">active </text>
<text text-anchor="start" x="1317.953" y="-1133.9" font-family="Arial" font-size="14.00" fill="#666666">[boolean]</text>
<polygon fill="none" stroke="#000000" points="1270.5,-1092.5 1270.5,-1122.5 1546.5,-1122.5 1546.5,-1092.5 1270.5,-1092.5"/>
<text text-anchor="start" x="1277.5" y="-1103.9" font-family="Arial" font-size="14.00" fill="#000000">login </text>
<text text-anchor="start" x="1310.9516" y="-1103.9" font-family="Arial" font-size="14.00" fill="#666666">[varchar]</text>
<polygon fill="none" stroke="#000000" points="1270.5,-1062.5 1270.5,-1092.5 1546.5,-1092.5 1546.5,-1062.5 1270.5,-1062.5"/>
<text text-anchor="start" x="1277.5" y="-1073.9" font-family="Arial" font-size="14.00" fill="#000000">password </text>
<text text-anchor="start" x="1341.2882" y="-1073.9" font-family="Arial" font-size="14.00" fill="#666666">[varchar]</text>
<polygon fill="none" stroke="#000000" points="1270.5,-1032.5 1270.5,-1062.5 1546.5,-1062.5 1546.5,-1032.5 1270.5,-1032.5"/>
<text text-anchor="start" x="1277.5" y="-1043.9" font-family="Arial" font-size="14.00" fill="#000000">company_id </text>
<text text-anchor="start" x="1356.8534" y="-1043.9" font-family="Arial" font-size="14.00" fill="#666666">[integer]</text>
<polygon fill="none" stroke="#000000" points="1270.5,-1002.5 1270.5,-1032.5 1546.5,-1032.5 1546.5,-1002.5 1270.5,-1002.5"/>
<text text-anchor="start" x="1277.5" y="-1013.9" font-family="Arial" font-size="14.00" fill="#000000">partner_id </text>
<text text-anchor="start" x="1344.4046" y="-1013.9" font-family="Arial" font-size="14.00" fill="#666666">[integer]</text>
<polygon fill="none" stroke="#000000" points="1270.5,-972.5 1270.5,-1002.5 1546.5,-1002.5 1546.5,-972.5 1270.5,-972.5"/>
<text text-anchor="start" x="1277.0246" y="-983.9" font-family="Arial" font-size="14.00" fill="#000000">create_date </text>
<text text-anchor="start" x="1354.8352" y="-983.9" font-family="Arial" font-size="14.00" fill="#666666">[timestamp without time zone]</text>
<polygon fill="none" stroke="#000000" points="1270.5,-942.5 1270.5,-972.5 1546.5,-972.5 1546.5,-942.5 1270.5,-942.5"/>
<text text-anchor="start" x="1277.5" y="-953.9" font-family="Arial" font-size="14.00" fill="#000000">signature </text>
<text text-anchor="start" x="1338.9614" y="-953.9" font-family="Arial" font-size="14.00" fill="#666666">[text]</text>
<polygon fill="none" stroke="#000000" points="1270.5,-912.5 1270.5,-942.5 1546.5,-942.5 1546.5,-912.5 1270.5,-912.5"/>
<text text-anchor="start" x="1277.5" y="-923.9" font-family="Arial" font-size="14.00" fill="#000000">action_id </text>
<text text-anchor="start" x="1337.4074" y="-923.9" font-family="Arial" font-size="14.00" fill="#666666">[integer]</text>
<polygon fill="none" stroke="#000000" points="1270.5,-882.5 1270.5,-912.5 1546.5,-912.5 1546.5,-882.5 1270.5,-882.5"/>
<text text-anchor="start" x="1277.5" y="-893.9" font-family="Arial" font-size="14.00" fill="#000000">share </text>
<text text-anchor="start" x="1316.399" y="-893.9" font-family="Arial" font-size="14.00" fill="#666666">[boolean]</text>
<polygon fill="none" stroke="#000000" points="1270.5,-852.5 1270.5,-882.5 1546.5,-882.5 1546.5,-852.5 1270.5,-852.5"/>
<text text-anchor="start" x="1277.5" y="-863.9" font-family="Arial" font-size="14.00" fill="#000000">create_uid </text>
<text text-anchor="start" x="1346.744" y="-863.9" font-family="Arial" font-size="14.00" fill="#666666">[integer]</text>
<polygon fill="none" stroke="#000000" points="1270.5,-822.5 1270.5,-852.5 1546.5,-852.5 1546.5,-822.5 1270.5,-822.5"/>
<text text-anchor="start" x="1277.5" y="-833.9" font-family="Arial" font-size="14.00" fill="#000000">write_uid </text>
<text text-anchor="start" x="1337.392" y="-833.9" font-family="Arial" font-size="14.00" fill="#666666">[integer]</text>
<polygon fill="none" stroke="#000000" points="1270.5,-792.5 1270.5,-822.5 1546.5,-822.5 1546.5,-792.5 1270.5,-792.5"/>
<text text-anchor="start" x="1277.5" y="-803.9" font-family="Arial" font-size="14.00" fill="#000000">write_date </text>
<text text-anchor="start" x="1345.9586" y="-803.9" font-family="Arial" font-size="14.00" fill="#666666">[timestamp without time zone]</text>
<polygon fill="none" stroke="#000000" points="1270.5,-762.5 1270.5,-792.5 1546.5,-792.5 1546.5,-762.5 1270.5,-762.5"/>
<text text-anchor="start" x="1277.5" y="-773.9" font-family="Arial" font-size="14.00" fill="#000000">alias_id </text>
<text text-anchor="start" x="1328.8408" y="-773.9" font-family="Arial" font-size="14.00" fill="#666666">[integer]</text>
<polygon fill="none" stroke="#000000" points="1270.5,-732.5 1270.5,-762.5 1546.5,-762.5 1546.5,-732.5 1270.5,-732.5"/>
<text text-anchor="start" x="1277.5" y="-743.9" font-family="Arial" font-size="14.00" fill="#000000">notification_type </text>
<text text-anchor="start" x="1382.5336" y="-743.9" font-family="Arial" font-size="14.00" fill="#666666">[varchar]</text>
<polygon fill="none" stroke="#000000" points="1270.5,-702.5 1270.5,-732.5 1546.5,-732.5 1546.5,-702.5 1270.5,-702.5"/>
<text text-anchor="start" x="1277.5" y="-713.9" font-family="Arial" font-size="14.00" fill="#000000">odoobot_state </text>
<text text-anchor="start" x="1370.1058" y="-713.9" font-family="Arial" font-size="14.00" fill="#666666">[varchar]</text>
<polygon fill="none" stroke="#000000" points="1270.5,-672.5 1270.5,-702.5 1546.5,-702.5 1546.5,-672.5 1270.5,-672.5"/>
<text text-anchor="start" x="1277.5" y="-683.9" font-family="Arial" font-size="14.00" fill="#000000">sale_team_id </text>
<text text-anchor="start" x="1364.6332" y="-683.9" font-family="Arial" font-size="14.00" fill="#666666">[integer]</text>
<polygon fill="none" stroke="#000000" points="1270.5,-642.5 1270.5,-672.5 1546.5,-672.5 1546.5,-642.5 1270.5,-642.5"/>
<text text-anchor="start" x="1277.5" y="-653.9" font-family="Arial" font-size="14.00" fill="#000000">target_sales_won </text>
<text text-anchor="start" x="1391.089" y="-653.9" font-family="Arial" font-size="14.00" fill="#666666">[integer]</text>
<polygon fill="none" stroke="#000000" points="1270.5,-612.5 1270.5,-642.5 1546.5,-642.5 1546.5,-612.5 1270.5,-612.5"/>
<text text-anchor="start" x="1277.5" y="-623.9" font-family="Arial" font-size="14.00" fill="#000000">target_sales_done </text>
<text text-anchor="start" x="1396.5476" y="-623.9" font-family="Arial" font-size="14.00" fill="#666666">[integer]</text>
<polygon fill="none" stroke="#000000" points="1270.5,-582.5 1270.5,-612.5 1546.5,-612.5 1546.5,-582.5 1270.5,-582.5"/>
<text text-anchor="start" x="1277.5" y="-593.9" font-family="Arial" font-size="14.00" fill="#000000">website_id </text>
<text text-anchor="start" x="1347.514" y="-593.9" font-family="Arial" font-size="14.00" fill="#666666">[integer]</text>
<polygon fill="none" stroke="#000000" points="1270.5,-552.5 1270.5,-582.5 1546.5,-582.5 1546.5,-552.5 1270.5,-552.5"/>
<text text-anchor="start" x="1277.5" y="-563.9" font-family="Arial" font-size="14.00" fill="#000000">target_sales_invoiced </text>
<text text-anchor="start" x="1416.7608" y="-563.9" font-family="Arial" font-size="14.00" fill="#666666">[integer]</text>
<polygon fill="none" stroke="#000000" points="1270.5,-522.5 1270.5,-552.5 1546.5,-552.5 1546.5,-522.5 1270.5,-522.5"/>
<text text-anchor="start" x="1277.5" y="-533.9" font-family="Arial" font-size="14.00" fill="#000000">pos_security_pin </text>
<text text-anchor="start" x="1386.4158" y="-533.9" font-family="Arial" font-size="14.00" fill="#666666">[varchar(32)]</text>
</g>
<!-- public.stock_return_picking_line&#45;&gt;public.res_users -->
<g id="edge4" class="edge">
<title>public.stock_return_picking_line:create_uid&#45;&gt;public.res_users:id</title>
<path fill="none" stroke="#000000" d="M1211.9493,-1953.9778C1282.4484,-1896.9867 1185.8391,-1167.5 1270.5,-1167.5"/>
<polygon fill="#000000" stroke="#000000" points="1211.8702,-1954.0072 1200.9283,-1953.2834 1207.1851,-1955.7536 1202.5,-1957.5 1202.5,-1957.5 1202.5,-1957.5 1207.1851,-1955.7536 1204.0717,-1961.7166 1211.8702,-1954.0072 1211.8702,-1954.0072"/>
<text text-anchor="start" x="1209.157" y="-1967.5" font-family="Arial" font-size="10.00" fill="#000000">FOREIGN KEY (create_uid) REFERENCES res_users(id) ON DELETE SET NULL</text>
</g>
<!-- public.stock_return_picking_line&#45;&gt;public.res_users -->
<g id="edge5" class="edge">
<title>public.stock_return_picking_line:write_uid&#45;&gt;public.res_users:id</title>
<path fill="none" stroke="#000000" d="M1212.052,-1893.5724C1276.1303,-1836.1134 1192.5381,-1167.5 1270.5,-1167.5"/>
<polygon fill="#000000" stroke="#000000" points="1211.7487,-1893.6971 1200.7887,-1893.3381 1207.1243,-1895.5985 1202.5,-1897.5 1202.5,-1897.5 1202.5,-1897.5 1207.1243,-1895.5985 1204.2113,-1901.6619 1211.7487,-1893.6971 1211.7487,-1893.6971"/>
<text text-anchor="start" x="1209.497" y="-1907.5" font-family="Arial" font-size="10.00" fill="#000000">FOREIGN KEY (write_uid) REFERENCES res_users(id) ON DELETE SET NULL</text>
</g>
</g>
</svg>
