<?xml version="1.0" encoding="UTF-8" standalone="no"?>
<!DOCTYPE svg PUBLIC "-//W3C//DTD SVG 1.1//EN"
 "http://www.w3.org/Graphics/SVG/1.1/DTD/svg11.dtd">
<!-- Generated by graphviz version 2.40.1 (20161225.0304)
 -->
<!-- Title: public.res_partner_industry Pages: 1 -->
<svg width="849pt" height="3419pt"
 viewBox="0.00 0.00 849.00 3419.00" xmlns="http://www.w3.org/2000/svg" xmlns:xlink="http://www.w3.org/1999/xlink">
<g id="graph0" class="graph" transform="scale(1 1) rotate(0) translate(4 3415)">
<title>public.res_partner_industry</title>
<polygon fill="#ffffff" stroke="transparent" points="-4,4 -4,-3415 845,-3415 845,4 -4,4"/>
<!-- public.res_partner_industry -->
<g id="node1" class="node">
<title>public.res_partner_industry</title>
<polygon fill="#efefef" stroke="transparent" points="63,-1102.5 63,-1137.5 391,-1137.5 391,-1102.5 63,-1102.5"/>
<polygon fill="none" stroke="#000000" points="63,-1102.5 63,-1137.5 391,-1137.5 391,-1102.5 63,-1102.5"/>
<text text-anchor="start" x="69.8538" y="-1115.3" font-family="Arial Bold" font-size="18.00" fill="#000000">public.res_partner_industry</text>
<text text-anchor="start" x="286.8924" y="-1115.3" font-family="Arial" font-size="14.00" fill="#000000"> </text>
<text text-anchor="start" x="290.783" y="-1115.3" font-family="Arial" font-size="14.00" fill="#666666">[BASE TABLE]</text>
<polygon fill="none" stroke="#000000" points="63,-1072.5 63,-1102.5 391,-1102.5 391,-1072.5 63,-1072.5"/>
<text text-anchor="start" x="70" y="-1083.9" font-family="Arial" font-size="14.00" fill="#000000">id </text>
<text text-anchor="start" x="84.7798" y="-1083.9" font-family="Arial" font-size="14.00" fill="#666666">[integer]</text>
<polygon fill="none" stroke="#000000" points="63,-1042.5 63,-1072.5 391,-1072.5 391,-1042.5 63,-1042.5"/>
<text text-anchor="start" x="70" y="-1053.9" font-family="Arial" font-size="14.00" fill="#000000">name </text>
<text text-anchor="start" x="108.899" y="-1053.9" font-family="Arial" font-size="14.00" fill="#666666">[varchar]</text>
<polygon fill="none" stroke="#000000" points="63,-1012.5 63,-1042.5 391,-1042.5 391,-1012.5 63,-1012.5"/>
<text text-anchor="start" x="70" y="-1023.9" font-family="Arial" font-size="14.00" fill="#000000">full_name </text>
<text text-anchor="start" x="134.568" y="-1023.9" font-family="Arial" font-size="14.00" fill="#666666">[varchar]</text>
<polygon fill="none" stroke="#000000" points="63,-982.5 63,-1012.5 391,-1012.5 391,-982.5 63,-982.5"/>
<text text-anchor="start" x="70" y="-993.9" font-family="Arial" font-size="14.00" fill="#000000">active </text>
<text text-anchor="start" x="110.453" y="-993.9" font-family="Arial" font-size="14.00" fill="#666666">[boolean]</text>
<polygon fill="none" stroke="#000000" points="63,-952.5 63,-982.5 391,-982.5 391,-952.5 63,-952.5"/>
<text text-anchor="start" x="70" y="-963.9" font-family="Arial" font-size="14.00" fill="#000000">create_uid </text>
<text text-anchor="start" x="139.244" y="-963.9" font-family="Arial" font-size="14.00" fill="#666666">[integer]</text>
<polygon fill="none" stroke="#000000" points="63,-922.5 63,-952.5 391,-952.5 391,-922.5 63,-922.5"/>
<text text-anchor="start" x="70" y="-933.9" font-family="Arial" font-size="14.00" fill="#000000">create_date </text>
<text text-anchor="start" x="147.8106" y="-933.9" font-family="Arial" font-size="14.00" fill="#666666">[timestamp without time zone]</text>
<polygon fill="none" stroke="#000000" points="63,-892.5 63,-922.5 391,-922.5 391,-892.5 63,-892.5"/>
<text text-anchor="start" x="70" y="-903.9" font-family="Arial" font-size="14.00" fill="#000000">write_uid </text>
<text text-anchor="start" x="129.892" y="-903.9" font-family="Arial" font-size="14.00" fill="#666666">[integer]</text>
<polygon fill="none" stroke="#000000" points="63,-862.5 63,-892.5 391,-892.5 391,-862.5 63,-862.5"/>
<text text-anchor="start" x="70" y="-873.9" font-family="Arial" font-size="14.00" fill="#000000">write_date </text>
<text text-anchor="start" x="138.4586" y="-873.9" font-family="Arial" font-size="14.00" fill="#666666">[timestamp without time zone]</text>
<polygon fill="none" stroke="#000000" stroke-width="3" points="61.5,-861.5 61.5,-1139.5 392.5,-1139.5 392.5,-861.5 61.5,-861.5"/>
</g>
<!-- public.res_users -->
<g id="node3" class="node">
<title>public.res_users</title>
<polygon fill="#efefef" stroke="transparent" points="89,-702.5 89,-737.5 365,-737.5 365,-702.5 89,-702.5"/>
<polygon fill="none" stroke="#000000" points="89,-702.5 89,-737.5 365,-737.5 365,-702.5 89,-702.5"/>
<text text-anchor="start" x="112.8639" y="-715.3" font-family="Arial Bold" font-size="18.00" fill="#000000">public.res_users</text>
<text text-anchor="start" x="243.8823" y="-715.3" font-family="Arial" font-size="14.00" fill="#000000"> </text>
<text text-anchor="start" x="247.7729" y="-715.3" font-family="Arial" font-size="14.00" fill="#666666">[BASE TABLE]</text>
<polygon fill="none" stroke="#000000" points="89,-672.5 89,-702.5 365,-702.5 365,-672.5 89,-672.5"/>
<text text-anchor="start" x="96" y="-683.9" font-family="Arial" font-size="14.00" fill="#000000">id </text>
<text text-anchor="start" x="110.7798" y="-683.9" font-family="Arial" font-size="14.00" fill="#666666">[integer]</text>
<polygon fill="none" stroke="#000000" points="89,-642.5 89,-672.5 365,-672.5 365,-642.5 89,-642.5"/>
<text text-anchor="start" x="96" y="-653.9" font-family="Arial" font-size="14.00" fill="#000000">active </text>
<text text-anchor="start" x="136.453" y="-653.9" font-family="Arial" font-size="14.00" fill="#666666">[boolean]</text>
<polygon fill="none" stroke="#000000" points="89,-612.5 89,-642.5 365,-642.5 365,-612.5 89,-612.5"/>
<text text-anchor="start" x="96" y="-623.9" font-family="Arial" font-size="14.00" fill="#000000">login </text>
<text text-anchor="start" x="129.4516" y="-623.9" font-family="Arial" font-size="14.00" fill="#666666">[varchar]</text>
<polygon fill="none" stroke="#000000" points="89,-582.5 89,-612.5 365,-612.5 365,-582.5 89,-582.5"/>
<text text-anchor="start" x="96" y="-593.9" font-family="Arial" font-size="14.00" fill="#000000">password </text>
<text text-anchor="start" x="159.7882" y="-593.9" font-family="Arial" font-size="14.00" fill="#666666">[varchar]</text>
<polygon fill="none" stroke="#000000" points="89,-552.5 89,-582.5 365,-582.5 365,-552.5 89,-552.5"/>
<text text-anchor="start" x="96" y="-563.9" font-family="Arial" font-size="14.00" fill="#000000">company_id </text>
<text text-anchor="start" x="175.3534" y="-563.9" font-family="Arial" font-size="14.00" fill="#666666">[integer]</text>
<polygon fill="none" stroke="#000000" points="89,-522.5 89,-552.5 365,-552.5 365,-522.5 89,-522.5"/>
<text text-anchor="start" x="96" y="-533.9" font-family="Arial" font-size="14.00" fill="#000000">partner_id </text>
<text text-anchor="start" x="162.9046" y="-533.9" font-family="Arial" font-size="14.00" fill="#666666">[integer]</text>
<polygon fill="none" stroke="#000000" points="89,-492.5 89,-522.5 365,-522.5 365,-492.5 89,-492.5"/>
<text text-anchor="start" x="95.5246" y="-503.9" font-family="Arial" font-size="14.00" fill="#000000">create_date </text>
<text text-anchor="start" x="173.3352" y="-503.9" font-family="Arial" font-size="14.00" fill="#666666">[timestamp without time zone]</text>
<polygon fill="none" stroke="#000000" points="89,-462.5 89,-492.5 365,-492.5 365,-462.5 89,-462.5"/>
<text text-anchor="start" x="96" y="-473.9" font-family="Arial" font-size="14.00" fill="#000000">signature </text>
<text text-anchor="start" x="157.4614" y="-473.9" font-family="Arial" font-size="14.00" fill="#666666">[text]</text>
<polygon fill="none" stroke="#000000" points="89,-432.5 89,-462.5 365,-462.5 365,-432.5 89,-432.5"/>
<text text-anchor="start" x="96" y="-443.9" font-family="Arial" font-size="14.00" fill="#000000">action_id </text>
<text text-anchor="start" x="155.9074" y="-443.9" font-family="Arial" font-size="14.00" fill="#666666">[integer]</text>
<polygon fill="none" stroke="#000000" points="89,-402.5 89,-432.5 365,-432.5 365,-402.5 89,-402.5"/>
<text text-anchor="start" x="96" y="-413.9" font-family="Arial" font-size="14.00" fill="#000000">share </text>
<text text-anchor="start" x="134.899" y="-413.9" font-family="Arial" font-size="14.00" fill="#666666">[boolean]</text>
<polygon fill="none" stroke="#000000" points="89,-372.5 89,-402.5 365,-402.5 365,-372.5 89,-372.5"/>
<text text-anchor="start" x="96" y="-383.9" font-family="Arial" font-size="14.00" fill="#000000">create_uid </text>
<text text-anchor="start" x="165.244" y="-383.9" font-family="Arial" font-size="14.00" fill="#666666">[integer]</text>
<polygon fill="none" stroke="#000000" points="89,-342.5 89,-372.5 365,-372.5 365,-342.5 89,-342.5"/>
<text text-anchor="start" x="96" y="-353.9" font-family="Arial" font-size="14.00" fill="#000000">write_uid </text>
<text text-anchor="start" x="155.892" y="-353.9" font-family="Arial" font-size="14.00" fill="#666666">[integer]</text>
<polygon fill="none" stroke="#000000" points="89,-312.5 89,-342.5 365,-342.5 365,-312.5 89,-312.5"/>
<text text-anchor="start" x="96" y="-323.9" font-family="Arial" font-size="14.00" fill="#000000">write_date </text>
<text text-anchor="start" x="164.4586" y="-323.9" font-family="Arial" font-size="14.00" fill="#666666">[timestamp without time zone]</text>
<polygon fill="none" stroke="#000000" points="89,-282.5 89,-312.5 365,-312.5 365,-282.5 89,-282.5"/>
<text text-anchor="start" x="96" y="-293.9" font-family="Arial" font-size="14.00" fill="#000000">alias_id </text>
<text text-anchor="start" x="147.3408" y="-293.9" font-family="Arial" font-size="14.00" fill="#666666">[integer]</text>
<polygon fill="none" stroke="#000000" points="89,-252.5 89,-282.5 365,-282.5 365,-252.5 89,-252.5"/>
<text text-anchor="start" x="96" y="-263.9" font-family="Arial" font-size="14.00" fill="#000000">notification_type </text>
<text text-anchor="start" x="201.0336" y="-263.9" font-family="Arial" font-size="14.00" fill="#666666">[varchar]</text>
<polygon fill="none" stroke="#000000" points="89,-222.5 89,-252.5 365,-252.5 365,-222.5 89,-222.5"/>
<text text-anchor="start" x="96" y="-233.9" font-family="Arial" font-size="14.00" fill="#000000">odoobot_state </text>
<text text-anchor="start" x="188.6058" y="-233.9" font-family="Arial" font-size="14.00" fill="#666666">[varchar]</text>
<polygon fill="none" stroke="#000000" points="89,-192.5 89,-222.5 365,-222.5 365,-192.5 89,-192.5"/>
<text text-anchor="start" x="96" y="-203.9" font-family="Arial" font-size="14.00" fill="#000000">sale_team_id </text>
<text text-anchor="start" x="183.1332" y="-203.9" font-family="Arial" font-size="14.00" fill="#666666">[integer]</text>
<polygon fill="none" stroke="#000000" points="89,-162.5 89,-192.5 365,-192.5 365,-162.5 89,-162.5"/>
<text text-anchor="start" x="96" y="-173.9" font-family="Arial" font-size="14.00" fill="#000000">target_sales_won </text>
<text text-anchor="start" x="209.589" y="-173.9" font-family="Arial" font-size="14.00" fill="#666666">[integer]</text>
<polygon fill="none" stroke="#000000" points="89,-132.5 89,-162.5 365,-162.5 365,-132.5 89,-132.5"/>
<text text-anchor="start" x="96" y="-143.9" font-family="Arial" font-size="14.00" fill="#000000">target_sales_done </text>
<text text-anchor="start" x="215.0476" y="-143.9" font-family="Arial" font-size="14.00" fill="#666666">[integer]</text>
<polygon fill="none" stroke="#000000" points="89,-102.5 89,-132.5 365,-132.5 365,-102.5 89,-102.5"/>
<text text-anchor="start" x="96" y="-113.9" font-family="Arial" font-size="14.00" fill="#000000">website_id </text>
<text text-anchor="start" x="166.014" y="-113.9" font-family="Arial" font-size="14.00" fill="#666666">[integer]</text>
<polygon fill="none" stroke="#000000" points="89,-72.5 89,-102.5 365,-102.5 365,-72.5 89,-72.5"/>
<text text-anchor="start" x="96" y="-83.9" font-family="Arial" font-size="14.00" fill="#000000">target_sales_invoiced </text>
<text text-anchor="start" x="235.2608" y="-83.9" font-family="Arial" font-size="14.00" fill="#666666">[integer]</text>
<polygon fill="none" stroke="#000000" points="89,-42.5 89,-72.5 365,-72.5 365,-42.5 89,-42.5"/>
<text text-anchor="start" x="96" y="-53.9" font-family="Arial" font-size="14.00" fill="#000000">pos_security_pin </text>
<text text-anchor="start" x="204.9158" y="-53.9" font-family="Arial" font-size="14.00" fill="#666666">[varchar(32)]</text>
</g>
<!-- public.res_partner_industry&#45;&gt;public.res_users -->
<g id="edge2" class="edge">
<title>public.res_partner_industry:create_uid&#45;&gt;public.res_users:id</title>
<path fill="none" stroke="#000000" d="M401.2563,-966.839C514.4278,-951.8652 486.4403,-687.5 365,-687.5"/>
<polygon fill="#000000" stroke="#000000" points="400.9793,-966.8568 390.7105,-963.0093 395.9896,-967.1784 391,-967.5 391,-967.5 391,-967.5 395.9896,-967.1784 391.2895,-971.9907 400.9793,-966.8568 400.9793,-966.8568"/>
<text text-anchor="start" x="397.657" y="-977.5" font-family="Arial" font-size="10.00" fill="#000000">FOREIGN KEY (create_uid) REFERENCES res_users(id) ON DELETE SET NULL</text>
</g>
<!-- public.res_partner_industry&#45;&gt;public.res_users -->
<g id="edge3" class="edge">
<title>public.res_partner_industry:write_uid&#45;&gt;public.res_users:id</title>
<path fill="none" stroke="#000000" d="M401.1877,-906.6591C487.4847,-891.8888 459.9007,-687.5 365,-687.5"/>
<polygon fill="#000000" stroke="#000000" points="400.9661,-906.6773 390.6298,-903.0153 395.9831,-907.0886 391,-907.5 391,-907.5 391,-907.5 395.9831,-907.0886 391.3702,-911.9847 400.9661,-906.6773 400.9661,-906.6773"/>
<text text-anchor="start" x="397.997" y="-917.5" font-family="Arial" font-size="10.00" fill="#000000">FOREIGN KEY (write_uid) REFERENCES res_users(id) ON DELETE SET NULL</text>
</g>
<!-- public.res_partner -->
<g id="node2" class="node">
<title>public.res_partner</title>
<polygon fill="#efefef" stroke="transparent" points="43,-3332.5 43,-3367.5 411,-3367.5 411,-3332.5 43,-3332.5"/>
<polygon fill="none" stroke="#000000" points="43,-3332.5 43,-3367.5 411,-3367.5 411,-3332.5 43,-3332.5"/>
<text text-anchor="start" x="106.3605" y="-3345.3" font-family="Arial Bold" font-size="18.00" fill="#000000">public.res_partner</text>
<text text-anchor="start" x="250.3857" y="-3345.3" font-family="Arial" font-size="14.00" fill="#000000"> </text>
<text text-anchor="start" x="254.2763" y="-3345.3" font-family="Arial" font-size="14.00" fill="#666666">[BASE TABLE]</text>
<polygon fill="none" stroke="#000000" points="43,-3302.5 43,-3332.5 411,-3332.5 411,-3302.5 43,-3302.5"/>
<text text-anchor="start" x="50" y="-3313.9" font-family="Arial" font-size="14.00" fill="#000000">id </text>
<text text-anchor="start" x="64.7798" y="-3313.9" font-family="Arial" font-size="14.00" fill="#666666">[integer]</text>
<polygon fill="none" stroke="#000000" points="43,-3272.5 43,-3302.5 411,-3302.5 411,-3272.5 43,-3272.5"/>
<text text-anchor="start" x="50" y="-3283.9" font-family="Arial" font-size="14.00" fill="#000000">name </text>
<text text-anchor="start" x="88.899" y="-3283.9" font-family="Arial" font-size="14.00" fill="#666666">[varchar]</text>
<polygon fill="none" stroke="#000000" points="43,-3242.5 43,-3272.5 411,-3272.5 411,-3242.5 43,-3242.5"/>
<text text-anchor="start" x="50" y="-3253.9" font-family="Arial" font-size="14.00" fill="#000000">company_id </text>
<text text-anchor="start" x="129.3534" y="-3253.9" font-family="Arial" font-size="14.00" fill="#666666">[integer]</text>
<polygon fill="none" stroke="#000000" points="43,-3212.5 43,-3242.5 411,-3242.5 411,-3212.5 43,-3212.5"/>
<text text-anchor="start" x="50" y="-3223.9" font-family="Arial" font-size="14.00" fill="#000000">create_date </text>
<text text-anchor="start" x="127.8106" y="-3223.9" font-family="Arial" font-size="14.00" fill="#666666">[timestamp without time zone]</text>
<polygon fill="none" stroke="#000000" points="43,-3182.5 43,-3212.5 411,-3212.5 411,-3182.5 43,-3182.5"/>
<text text-anchor="start" x="50" y="-3193.9" font-family="Arial" font-size="14.00" fill="#000000">display_name </text>
<text text-anchor="start" x="140.2426" y="-3193.9" font-family="Arial" font-size="14.00" fill="#666666">[varchar]</text>
<polygon fill="none" stroke="#000000" points="43,-3152.5 43,-3182.5 411,-3182.5 411,-3152.5 43,-3152.5"/>
<text text-anchor="start" x="50" y="-3163.9" font-family="Arial" font-size="14.00" fill="#000000">date </text>
<text text-anchor="start" x="81.129" y="-3163.9" font-family="Arial" font-size="14.00" fill="#666666">[date]</text>
<polygon fill="none" stroke="#000000" points="43,-3122.5 43,-3152.5 411,-3152.5 411,-3122.5 43,-3122.5"/>
<text text-anchor="start" x="50" y="-3133.9" font-family="Arial" font-size="14.00" fill="#000000">title </text>
<text text-anchor="start" x="75.6676" y="-3133.9" font-family="Arial" font-size="14.00" fill="#666666">[integer]</text>
<polygon fill="none" stroke="#000000" points="43,-3092.5 43,-3122.5 411,-3122.5 411,-3092.5 43,-3092.5"/>
<text text-anchor="start" x="50" y="-3103.9" font-family="Arial" font-size="14.00" fill="#000000">parent_id </text>
<text text-anchor="start" x="112.244" y="-3103.9" font-family="Arial" font-size="14.00" fill="#666666">[integer]</text>
<polygon fill="none" stroke="#000000" points="43,-3062.5 43,-3092.5 411,-3092.5 411,-3062.5 43,-3062.5"/>
<text text-anchor="start" x="50" y="-3073.9" font-family="Arial" font-size="14.00" fill="#000000">ref </text>
<text text-anchor="start" x="70.2244" y="-3073.9" font-family="Arial" font-size="14.00" fill="#666666">[varchar]</text>
<polygon fill="none" stroke="#000000" points="43,-3032.5 43,-3062.5 411,-3062.5 411,-3032.5 43,-3032.5"/>
<text text-anchor="start" x="50" y="-3043.9" font-family="Arial" font-size="14.00" fill="#000000">lang </text>
<text text-anchor="start" x="80.345" y="-3043.9" font-family="Arial" font-size="14.00" fill="#666666">[varchar]</text>
<polygon fill="none" stroke="#000000" points="43,-3002.5 43,-3032.5 411,-3032.5 411,-3002.5 43,-3002.5"/>
<text text-anchor="start" x="50" y="-3013.9" font-family="Arial" font-size="14.00" fill="#000000">tz </text>
<text text-anchor="start" x="64.7812" y="-3013.9" font-family="Arial" font-size="14.00" fill="#666666">[varchar]</text>
<polygon fill="none" stroke="#000000" points="43,-2972.5 43,-3002.5 411,-3002.5 411,-2972.5 43,-2972.5"/>
<text text-anchor="start" x="50" y="-2983.9" font-family="Arial" font-size="14.00" fill="#000000">user_id </text>
<text text-anchor="start" x="99.7882" y="-2983.9" font-family="Arial" font-size="14.00" fill="#666666">[integer]</text>
<polygon fill="none" stroke="#000000" points="43,-2942.5 43,-2972.5 411,-2972.5 411,-2942.5 43,-2942.5"/>
<text text-anchor="start" x="50" y="-2953.9" font-family="Arial" font-size="14.00" fill="#000000">vat </text>
<text text-anchor="start" x="72.5638" y="-2953.9" font-family="Arial" font-size="14.00" fill="#666666">[varchar]</text>
<polygon fill="none" stroke="#000000" points="43,-2912.5 43,-2942.5 411,-2942.5 411,-2912.5 43,-2912.5"/>
<text text-anchor="start" x="50" y="-2923.9" font-family="Arial" font-size="14.00" fill="#000000">website </text>
<text text-anchor="start" x="101.3422" y="-2923.9" font-family="Arial" font-size="14.00" fill="#666666">[varchar]</text>
<polygon fill="none" stroke="#000000" points="43,-2882.5 43,-2912.5 411,-2912.5 411,-2882.5 43,-2882.5"/>
<text text-anchor="start" x="50" y="-2893.9" font-family="Arial" font-size="14.00" fill="#000000">comment </text>
<text text-anchor="start" x="111.4502" y="-2893.9" font-family="Arial" font-size="14.00" fill="#666666">[text]</text>
<polygon fill="none" stroke="#000000" points="43,-2852.5 43,-2882.5 411,-2882.5 411,-2852.5 43,-2852.5"/>
<text text-anchor="start" x="50" y="-2863.9" font-family="Arial" font-size="14.00" fill="#000000">credit_limit </text>
<text text-anchor="start" x="120.7672" y="-2863.9" font-family="Arial" font-size="14.00" fill="#666666">[double precision]</text>
<polygon fill="none" stroke="#000000" points="43,-2822.5 43,-2852.5 411,-2852.5 411,-2822.5 43,-2822.5"/>
<text text-anchor="start" x="50" y="-2833.9" font-family="Arial" font-size="14.00" fill="#000000">barcode </text>
<text text-anchor="start" x="104.4642" y="-2833.9" font-family="Arial" font-size="14.00" fill="#666666">[varchar]</text>
<polygon fill="none" stroke="#000000" points="43,-2792.5 43,-2822.5 411,-2822.5 411,-2792.5 43,-2792.5"/>
<text text-anchor="start" x="50" y="-2803.9" font-family="Arial" font-size="14.00" fill="#000000">active </text>
<text text-anchor="start" x="90.453" y="-2803.9" font-family="Arial" font-size="14.00" fill="#666666">[boolean]</text>
<polygon fill="none" stroke="#000000" points="43,-2762.5 43,-2792.5 411,-2792.5 411,-2762.5 43,-2762.5"/>
<text text-anchor="start" x="50" y="-2773.9" font-family="Arial" font-size="14.00" fill="#000000">customer </text>
<text text-anchor="start" x="111.4502" y="-2773.9" font-family="Arial" font-size="14.00" fill="#666666">[boolean]</text>
<polygon fill="none" stroke="#000000" points="43,-2732.5 43,-2762.5 411,-2762.5 411,-2732.5 43,-2732.5"/>
<text text-anchor="start" x="50" y="-2743.9" font-family="Arial" font-size="14.00" fill="#000000">supplier </text>
<text text-anchor="start" x="102.8948" y="-2743.9" font-family="Arial" font-size="14.00" fill="#666666">[boolean]</text>
<polygon fill="none" stroke="#000000" points="43,-2702.5 43,-2732.5 411,-2732.5 411,-2702.5 43,-2702.5"/>
<text text-anchor="start" x="50" y="-2713.9" font-family="Arial" font-size="14.00" fill="#000000">employee </text>
<text text-anchor="start" x="114.5708" y="-2713.9" font-family="Arial" font-size="14.00" fill="#666666">[boolean]</text>
<polygon fill="none" stroke="#000000" points="43,-2672.5 43,-2702.5 411,-2702.5 411,-2672.5 43,-2672.5"/>
<text text-anchor="start" x="50" y="-2683.9" font-family="Arial" font-size="14.00" fill="#000000">function </text>
<text text-anchor="start" x="102.9088" y="-2683.9" font-family="Arial" font-size="14.00" fill="#666666">[varchar]</text>
<polygon fill="none" stroke="#000000" points="43,-2642.5 43,-2672.5 411,-2672.5 411,-2642.5 43,-2642.5"/>
<text text-anchor="start" x="50" y="-2653.9" font-family="Arial" font-size="14.00" fill="#000000">type </text>
<text text-anchor="start" x="80.3464" y="-2653.9" font-family="Arial" font-size="14.00" fill="#666666">[varchar]</text>
<polygon fill="none" stroke="#000000" points="43,-2612.5 43,-2642.5 411,-2642.5 411,-2612.5 43,-2612.5"/>
<text text-anchor="start" x="50" y="-2623.9" font-family="Arial" font-size="14.00" fill="#000000">street </text>
<text text-anchor="start" x="88.8976" y="-2623.9" font-family="Arial" font-size="14.00" fill="#666666">[varchar]</text>
<polygon fill="none" stroke="#000000" points="43,-2582.5 43,-2612.5 411,-2612.5 411,-2582.5 43,-2582.5"/>
<text text-anchor="start" x="50" y="-2593.9" font-family="Arial" font-size="14.00" fill="#000000">street2 </text>
<text text-anchor="start" x="96.6802" y="-2593.9" font-family="Arial" font-size="14.00" fill="#666666">[varchar]</text>
<polygon fill="none" stroke="#000000" points="43,-2552.5 43,-2582.5 411,-2582.5 411,-2552.5 43,-2552.5"/>
<text text-anchor="start" x="50" y="-2563.9" font-family="Arial" font-size="14.00" fill="#000000">zip </text>
<text text-anchor="start" x="71.7798" y="-2563.9" font-family="Arial" font-size="14.00" fill="#666666">[varchar]</text>
<polygon fill="none" stroke="#000000" points="43,-2522.5 43,-2552.5 411,-2552.5 411,-2522.5 43,-2522.5"/>
<text text-anchor="start" x="50" y="-2533.9" font-family="Arial" font-size="14.00" fill="#000000">city </text>
<text text-anchor="start" x="74.8878" y="-2533.9" font-family="Arial" font-size="14.00" fill="#666666">[varchar]</text>
<polygon fill="none" stroke="#000000" points="43,-2492.5 43,-2522.5 411,-2522.5 411,-2492.5 43,-2492.5"/>
<text text-anchor="start" x="50" y="-2503.9" font-family="Arial" font-size="14.00" fill="#000000">state_id </text>
<text text-anchor="start" x="102.9088" y="-2503.9" font-family="Arial" font-size="14.00" fill="#666666">[integer]</text>
<polygon fill="none" stroke="#000000" points="43,-2462.5 43,-2492.5 411,-2492.5 411,-2462.5 43,-2462.5"/>
<text text-anchor="start" x="50" y="-2473.9" font-family="Arial" font-size="14.00" fill="#000000">country_id </text>
<text text-anchor="start" x="118.4614" y="-2473.9" font-family="Arial" font-size="14.00" fill="#666666">[integer]</text>
<polygon fill="none" stroke="#000000" points="43,-2432.5 43,-2462.5 411,-2462.5 411,-2432.5 43,-2432.5"/>
<text text-anchor="start" x="50" y="-2443.9" font-family="Arial" font-size="14.00" fill="#000000">email </text>
<text text-anchor="start" x="87.3296" y="-2443.9" font-family="Arial" font-size="14.00" fill="#666666">[varchar]</text>
<polygon fill="none" stroke="#000000" points="43,-2402.5 43,-2432.5 411,-2432.5 411,-2402.5 43,-2402.5"/>
<text text-anchor="start" x="50" y="-2413.9" font-family="Arial" font-size="14.00" fill="#000000">phone </text>
<text text-anchor="start" x="92.8036" y="-2413.9" font-family="Arial" font-size="14.00" fill="#666666">[varchar]</text>
<polygon fill="none" stroke="#000000" points="43,-2372.5 43,-2402.5 411,-2402.5 411,-2372.5 43,-2372.5"/>
<text text-anchor="start" x="50" y="-2383.9" font-family="Arial" font-size="14.00" fill="#000000">mobile </text>
<text text-anchor="start" x="95.1122" y="-2383.9" font-family="Arial" font-size="14.00" fill="#666666">[varchar]</text>
<polygon fill="none" stroke="#000000" points="43,-2342.5 43,-2372.5 411,-2372.5 411,-2342.5 43,-2342.5"/>
<text text-anchor="start" x="50" y="-2353.9" font-family="Arial" font-size="14.00" fill="#000000">is_company </text>
<text text-anchor="start" x="128.5708" y="-2353.9" font-family="Arial" font-size="14.00" fill="#666666">[boolean]</text>
<polygon fill="none" stroke="#000000" points="43,-2312.5 43,-2342.5 411,-2342.5 411,-2312.5 43,-2312.5"/>
<text text-anchor="start" x="50" y="-2323.9" font-family="Arial" font-size="14.00" fill="#000000">industry_id </text>
<text text-anchor="start" x="121.568" y="-2323.9" font-family="Arial" font-size="14.00" fill="#666666">[integer]</text>
<polygon fill="none" stroke="#000000" points="43,-2282.5 43,-2312.5 411,-2312.5 411,-2282.5 43,-2282.5"/>
<text text-anchor="start" x="50" y="-2293.9" font-family="Arial" font-size="14.00" fill="#000000">color </text>
<text text-anchor="start" x="84.223" y="-2293.9" font-family="Arial" font-size="14.00" fill="#666666">[integer]</text>
<polygon fill="none" stroke="#000000" points="43,-2252.5 43,-2282.5 411,-2282.5 411,-2252.5 43,-2252.5"/>
<text text-anchor="start" x="50" y="-2263.9" font-family="Arial" font-size="14.00" fill="#000000">partner_share </text>
<text text-anchor="start" x="141.0238" y="-2263.9" font-family="Arial" font-size="14.00" fill="#666666">[boolean]</text>
<polygon fill="none" stroke="#000000" points="43,-2222.5 43,-2252.5 411,-2252.5 411,-2222.5 43,-2222.5"/>
<text text-anchor="start" x="50" y="-2233.9" font-family="Arial" font-size="14.00" fill="#000000">commercial_partner_id </text>
<text text-anchor="start" x="196.23" y="-2233.9" font-family="Arial" font-size="14.00" fill="#666666">[integer]</text>
<polygon fill="none" stroke="#000000" points="43,-2192.5 43,-2222.5 411,-2222.5 411,-2192.5 43,-2192.5"/>
<text text-anchor="start" x="50" y="-2203.9" font-family="Arial" font-size="14.00" fill="#000000">commercial_company_name </text>
<text text-anchor="start" x="232.798" y="-2203.9" font-family="Arial" font-size="14.00" fill="#666666">[varchar]</text>
<polygon fill="none" stroke="#000000" points="43,-2162.5 43,-2192.5 411,-2192.5 411,-2162.5 43,-2162.5"/>
<text text-anchor="start" x="50" y="-2173.9" font-family="Arial" font-size="14.00" fill="#000000">company_name </text>
<text text-anchor="start" x="153.4726" y="-2173.9" font-family="Arial" font-size="14.00" fill="#666666">[varchar]</text>
<polygon fill="none" stroke="#000000" points="43,-2132.5 43,-2162.5 411,-2162.5 411,-2132.5 43,-2132.5"/>
<text text-anchor="start" x="50" y="-2143.9" font-family="Arial" font-size="14.00" fill="#000000">create_uid </text>
<text text-anchor="start" x="119.244" y="-2143.9" font-family="Arial" font-size="14.00" fill="#666666">[integer]</text>
<polygon fill="none" stroke="#000000" points="43,-2102.5 43,-2132.5 411,-2132.5 411,-2102.5 43,-2102.5"/>
<text text-anchor="start" x="50" y="-2113.9" font-family="Arial" font-size="14.00" fill="#000000">write_uid </text>
<text text-anchor="start" x="109.892" y="-2113.9" font-family="Arial" font-size="14.00" fill="#666666">[integer]</text>
<polygon fill="none" stroke="#000000" points="43,-2072.5 43,-2102.5 411,-2102.5 411,-2072.5 43,-2072.5"/>
<text text-anchor="start" x="50" y="-2083.9" font-family="Arial" font-size="14.00" fill="#000000">write_date </text>
<text text-anchor="start" x="118.4586" y="-2083.9" font-family="Arial" font-size="14.00" fill="#666666">[timestamp without time zone]</text>
<polygon fill="none" stroke="#000000" points="43,-2042.5 43,-2072.5 411,-2072.5 411,-2042.5 43,-2042.5"/>
<text text-anchor="start" x="50" y="-2053.9" font-family="Arial" font-size="14.00" fill="#000000">message_main_attachment_id </text>
<text text-anchor="start" x="244.4964" y="-2053.9" font-family="Arial" font-size="14.00" fill="#666666">[integer]</text>
<polygon fill="none" stroke="#000000" points="43,-2012.5 43,-2042.5 411,-2042.5 411,-2012.5 43,-2012.5"/>
<text text-anchor="start" x="50" y="-2023.9" font-family="Arial" font-size="14.00" fill="#000000">message_bounce </text>
<text text-anchor="start" x="164.3772" y="-2023.9" font-family="Arial" font-size="14.00" fill="#666666">[integer]</text>
<polygon fill="none" stroke="#000000" points="43,-1982.5 43,-2012.5 411,-2012.5 411,-1982.5 43,-1982.5"/>
<text text-anchor="start" x="50" y="-1993.9" font-family="Arial" font-size="14.00" fill="#000000">signup_token </text>
<text text-anchor="start" x="137.1486" y="-1993.9" font-family="Arial" font-size="14.00" fill="#666666">[varchar]</text>
<polygon fill="none" stroke="#000000" points="43,-1952.5 43,-1982.5 411,-1982.5 411,-1952.5 43,-1952.5"/>
<text text-anchor="start" x="50" y="-1963.9" font-family="Arial" font-size="14.00" fill="#000000">signup_type </text>
<text text-anchor="start" x="129.366" y="-1963.9" font-family="Arial" font-size="14.00" fill="#666666">[varchar]</text>
<polygon fill="none" stroke="#000000" points="43,-1922.5 43,-1952.5 411,-1952.5 411,-1922.5 43,-1922.5"/>
<text text-anchor="start" x="50" y="-1933.9" font-family="Arial" font-size="14.00" fill="#000000">signup_expiration </text>
<text text-anchor="start" x="163.5876" y="-1933.9" font-family="Arial" font-size="14.00" fill="#666666">[timestamp without time zone]</text>
<polygon fill="none" stroke="#000000" points="43,-1892.5 43,-1922.5 411,-1922.5 411,-1892.5 43,-1892.5"/>
<text text-anchor="start" x="50" y="-1903.9" font-family="Arial" font-size="14.00" fill="#000000">calendar_last_notif_ack </text>
<text text-anchor="start" x="200.934" y="-1903.9" font-family="Arial" font-size="14.00" fill="#666666">[timestamp without time zone]</text>
<polygon fill="none" stroke="#000000" points="43,-1862.5 43,-1892.5 411,-1892.5 411,-1862.5 43,-1862.5"/>
<text text-anchor="start" x="50" y="-1873.9" font-family="Arial" font-size="14.00" fill="#000000">partner_gid </text>
<text text-anchor="start" x="124.6872" y="-1873.9" font-family="Arial" font-size="14.00" fill="#666666">[integer]</text>
<polygon fill="none" stroke="#000000" points="43,-1832.5 43,-1862.5 411,-1862.5 411,-1832.5 43,-1832.5"/>
<text text-anchor="start" x="50" y="-1843.9" font-family="Arial" font-size="14.00" fill="#000000">additional_info </text>
<text text-anchor="start" x="144.1416" y="-1843.9" font-family="Arial" font-size="14.00" fill="#666666">[varchar]</text>
<polygon fill="none" stroke="#000000" points="43,-1802.5 43,-1832.5 411,-1832.5 411,-1802.5 43,-1802.5"/>
<text text-anchor="start" x="50" y="-1813.9" font-family="Arial" font-size="14.00" fill="#000000">team_id </text>
<text text-anchor="start" x="103.6788" y="-1813.9" font-family="Arial" font-size="14.00" fill="#666666">[integer]</text>
<polygon fill="none" stroke="#000000" points="43,-1772.5 43,-1802.5 411,-1802.5 411,-1772.5 43,-1772.5"/>
<text text-anchor="start" x="50" y="-1783.9" font-family="Arial" font-size="14.00" fill="#000000">website_id </text>
<text text-anchor="start" x="120.014" y="-1783.9" font-family="Arial" font-size="14.00" fill="#666666">[integer]</text>
<polygon fill="none" stroke="#000000" points="43,-1742.5 43,-1772.5 411,-1772.5 411,-1742.5 43,-1742.5"/>
<text text-anchor="start" x="50" y="-1753.9" font-family="Arial" font-size="14.00" fill="#000000">debit_limit </text>
<text text-anchor="start" x="116.8892" y="-1753.9" font-family="Arial" font-size="14.00" fill="#666666">[numeric]</text>
<polygon fill="none" stroke="#000000" points="43,-1712.5 43,-1742.5 411,-1742.5 411,-1712.5 43,-1712.5"/>
<text text-anchor="start" x="49.6326" y="-1723.9" font-family="Arial" font-size="14.00" fill="#000000">last_time_entries_checked </text>
<text text-anchor="start" x="219.2272" y="-1723.9" font-family="Arial" font-size="14.00" fill="#666666">[timestamp without time zone]</text>
<polygon fill="none" stroke="#000000" points="43,-1682.5 43,-1712.5 411,-1712.5 411,-1682.5 43,-1682.5"/>
<text text-anchor="start" x="50" y="-1693.9" font-family="Arial" font-size="14.00" fill="#000000">invoice_warn </text>
<text text-anchor="start" x="135.5666" y="-1693.9" font-family="Arial" font-size="14.00" fill="#666666">[varchar]</text>
<polygon fill="none" stroke="#000000" points="43,-1652.5 43,-1682.5 411,-1682.5 411,-1652.5 43,-1652.5"/>
<text text-anchor="start" x="50" y="-1663.9" font-family="Arial" font-size="14.00" fill="#000000">invoice_warn_msg </text>
<text text-anchor="start" x="169.7924" y="-1663.9" font-family="Arial" font-size="14.00" fill="#666666">[text]</text>
<polygon fill="none" stroke="#000000" points="43,-1622.5 43,-1652.5 411,-1652.5 411,-1622.5 43,-1622.5"/>
<text text-anchor="start" x="50" y="-1633.9" font-family="Arial" font-size="14.00" fill="#000000">sale_warn </text>
<text text-anchor="start" x="117.6774" y="-1633.9" font-family="Arial" font-size="14.00" fill="#666666">[varchar]</text>
<polygon fill="none" stroke="#000000" points="43,-1592.5 43,-1622.5 411,-1622.5 411,-1592.5 43,-1592.5"/>
<text text-anchor="start" x="50" y="-1603.9" font-family="Arial" font-size="14.00" fill="#000000">sale_warn_msg </text>
<text text-anchor="start" x="151.9032" y="-1603.9" font-family="Arial" font-size="14.00" fill="#666666">[text]</text>
<polygon fill="none" stroke="#000000" points="43,-1562.5 43,-1592.5 411,-1592.5 411,-1562.5 43,-1562.5"/>
<text text-anchor="start" x="50" y="-1573.9" font-family="Arial" font-size="14.00" fill="#000000">picking_warn </text>
<text text-anchor="start" x="135.5666" y="-1573.9" font-family="Arial" font-size="14.00" fill="#666666">[varchar]</text>
<polygon fill="none" stroke="#000000" points="43,-1532.5 43,-1562.5 411,-1562.5 411,-1532.5 43,-1532.5"/>
<text text-anchor="start" x="50" y="-1543.9" font-family="Arial" font-size="14.00" fill="#000000">picking_warn_msg </text>
<text text-anchor="start" x="169.7924" y="-1543.9" font-family="Arial" font-size="14.00" fill="#666666">[text]</text>
<polygon fill="none" stroke="#000000" points="43,-1502.5 43,-1532.5 411,-1532.5 411,-1502.5 43,-1502.5"/>
<text text-anchor="start" x="50" y="-1513.9" font-family="Arial" font-size="14.00" fill="#000000">purchase_warn </text>
<text text-anchor="start" x="149.5792" y="-1513.9" font-family="Arial" font-size="14.00" fill="#666666">[varchar]</text>
<polygon fill="none" stroke="#000000" points="43,-1472.5 43,-1502.5 411,-1502.5 411,-1472.5 43,-1472.5"/>
<text text-anchor="start" x="50" y="-1483.9" font-family="Arial" font-size="14.00" fill="#000000">purchase_warn_msg </text>
<text text-anchor="start" x="183.805" y="-1483.9" font-family="Arial" font-size="14.00" fill="#666666">[text]</text>
<polygon fill="none" stroke="#000000" points="43,-1442.5 43,-1472.5 411,-1472.5 411,-1442.5 43,-1442.5"/>
<text text-anchor="start" x="50" y="-1453.9" font-family="Arial" font-size="14.00" fill="#000000">is_published </text>
<text text-anchor="start" x="131.6886" y="-1453.9" font-family="Arial" font-size="14.00" fill="#666666">[boolean]</text>
<polygon fill="none" stroke="#000000" points="43,-1412.5 43,-1442.5 411,-1442.5 411,-1412.5 43,-1412.5"/>
<text text-anchor="start" x="50" y="-1423.9" font-family="Arial" font-size="14.00" fill="#000000">website_meta_title </text>
<text text-anchor="start" x="169.8008" y="-1423.9" font-family="Arial" font-size="14.00" fill="#666666">[varchar]</text>
<polygon fill="none" stroke="#000000" points="43,-1382.5 43,-1412.5 411,-1412.5 411,-1382.5 43,-1382.5"/>
<text text-anchor="start" x="50" y="-1393.9" font-family="Arial" font-size="14.00" fill="#000000">website_meta_description </text>
<text text-anchor="start" x="215.7012" y="-1393.9" font-family="Arial" font-size="14.00" fill="#666666">[text]</text>
<polygon fill="none" stroke="#000000" points="43,-1352.5 43,-1382.5 411,-1382.5 411,-1352.5 43,-1352.5"/>
<text text-anchor="start" x="50" y="-1363.9" font-family="Arial" font-size="14.00" fill="#000000">website_meta_keywords </text>
<text text-anchor="start" x="207.1388" y="-1363.9" font-family="Arial" font-size="14.00" fill="#666666">[varchar]</text>
<polygon fill="none" stroke="#000000" points="43,-1322.5 43,-1352.5 411,-1352.5 411,-1322.5 43,-1322.5"/>
<text text-anchor="start" x="50" y="-1333.9" font-family="Arial" font-size="14.00" fill="#000000">website_meta_og_img </text>
<text text-anchor="start" x="193.9214" y="-1333.9" font-family="Arial" font-size="14.00" fill="#666666">[varchar]</text>
<polygon fill="none" stroke="#000000" points="43,-1292.5 43,-1322.5 411,-1322.5 411,-1292.5 43,-1292.5"/>
<text text-anchor="start" x="50" y="-1303.9" font-family="Arial" font-size="14.00" fill="#000000">website_description </text>
<text text-anchor="start" x="176.8022" y="-1303.9" font-family="Arial" font-size="14.00" fill="#666666">[text]</text>
<polygon fill="none" stroke="#000000" points="43,-1262.5 43,-1292.5 411,-1292.5 411,-1262.5 43,-1262.5"/>
<text text-anchor="start" x="50" y="-1273.9" font-family="Arial" font-size="14.00" fill="#000000">website_short_description </text>
<text text-anchor="start" x="215.7012" y="-1273.9" font-family="Arial" font-size="14.00" fill="#666666">[text]</text>
</g>
<!-- public.res_partner&#45;&gt;public.res_partner_industry -->
<g id="edge1" class="edge">
<title>public.res_partner:industry_id&#45;&gt;public.res_partner_industry:id</title>
<path fill="none" stroke="#000000" d="M419.0318,-2321.413C478.175,-2227.8673 457.072,-1087.5 391,-1087.5"/>
<polygon fill="#000000" stroke="#000000" points="418.9698,-2321.4599 408.282,-2323.9136 414.9849,-2324.48 411,-2327.5 411,-2327.5 411,-2327.5 414.9849,-2324.48 413.718,-2331.0864 418.9698,-2321.4599 418.9698,-2321.4599"/>
<text text-anchor="start" x="417.9325" y="-2337.5" font-family="Arial" font-size="10.00" fill="#000000">FOREIGN KEY (industry_id) REFERENCES res_partner_industry(id) ON DELETE SET NULL</text>
</g>
</g>
</svg>
