<?xml version="1.0" encoding="UTF-8" standalone="no"?>
<!DOCTYPE svg PUBLIC "-//W3C//DTD SVG 1.1//EN"
 "http://www.w3.org/Graphics/SVG/1.1/DTD/svg11.dtd">
<!-- Generated by graphviz version 2.40.1 (20161225.0304)
 -->
<!-- Title: public.stock_route_warehouse Pages: 1 -->
<svg width="1210pt" height="1552pt"
 viewBox="0.00 0.00 1210.00 1552.00" xmlns="http://www.w3.org/2000/svg" xmlns:xlink="http://www.w3.org/1999/xlink">
<g id="graph0" class="graph" transform="scale(1 1) rotate(0) translate(4 1548)">
<title>public.stock_route_warehouse</title>
<polygon fill="#ffffff" stroke="transparent" points="-4,4 -4,-1548 1206,-1548 1206,4 -4,4"/>
<!-- public.stock_route_warehouse -->
<g id="node1" class="node">
<title>public.stock_route_warehouse</title>
<polygon fill="#efefef" stroke="transparent" points="418,-1462.5 418,-1497.5 772,-1497.5 772,-1462.5 418,-1462.5"/>
<polygon fill="none" stroke="#000000" points="418,-1462.5 418,-1497.5 772,-1497.5 772,-1462.5 418,-1462.5"/>
<text text-anchor="start" x="424.8398" y="-1475.3" font-family="Arial Bold" font-size="18.00" fill="#000000">public.stock_route_warehouse</text>
<text text-anchor="start" x="667.9064" y="-1475.3" font-family="Arial" font-size="14.00" fill="#000000"> </text>
<text text-anchor="start" x="671.797" y="-1475.3" font-family="Arial" font-size="14.00" fill="#666666">[BASE TABLE]</text>
<polygon fill="none" stroke="#000000" points="418,-1432.5 418,-1462.5 772,-1462.5 772,-1432.5 418,-1432.5"/>
<text text-anchor="start" x="425" y="-1443.9" font-family="Arial" font-size="14.00" fill="#000000">route_id </text>
<text text-anchor="start" x="479.4614" y="-1443.9" font-family="Arial" font-size="14.00" fill="#666666">[integer]</text>
<polygon fill="none" stroke="#000000" points="418,-1402.5 418,-1432.5 772,-1432.5 772,-1402.5 418,-1402.5"/>
<text text-anchor="start" x="425" y="-1413.9" font-family="Arial" font-size="14.00" fill="#000000">warehouse_id </text>
<text text-anchor="start" x="516.0252" y="-1413.9" font-family="Arial" font-size="14.00" fill="#666666">[integer]</text>
<polygon fill="none" stroke="#000000" stroke-width="3" points="416.5,-1401.5 416.5,-1499.5 773.5,-1499.5 773.5,-1401.5 416.5,-1401.5"/>
</g>
<!-- public.stock_location_route -->
<g id="node2" class="node">
<title>public.stock_location_route</title>
<polygon fill="#efefef" stroke="transparent" points="221,-867.5 221,-902.5 549,-902.5 549,-867.5 221,-867.5"/>
<polygon fill="none" stroke="#000000" points="221,-867.5 221,-902.5 549,-902.5 549,-867.5 221,-867.5"/>
<text text-anchor="start" x="227.8439" y="-880.3" font-family="Arial Bold" font-size="18.00" fill="#000000">public.stock_location_route</text>
<text text-anchor="start" x="444.9023" y="-880.3" font-family="Arial" font-size="14.00" fill="#000000"> </text>
<text text-anchor="start" x="448.7929" y="-880.3" font-family="Arial" font-size="14.00" fill="#666666">[BASE TABLE]</text>
<polygon fill="none" stroke="#000000" points="221,-837.5 221,-867.5 549,-867.5 549,-837.5 221,-837.5"/>
<text text-anchor="start" x="228" y="-848.9" font-family="Arial" font-size="14.00" fill="#000000">id </text>
<text text-anchor="start" x="242.7798" y="-848.9" font-family="Arial" font-size="14.00" fill="#666666">[integer]</text>
<polygon fill="none" stroke="#000000" points="221,-807.5 221,-837.5 549,-837.5 549,-807.5 221,-807.5"/>
<text text-anchor="start" x="228" y="-818.9" font-family="Arial" font-size="14.00" fill="#000000">name </text>
<text text-anchor="start" x="266.899" y="-818.9" font-family="Arial" font-size="14.00" fill="#666666">[varchar]</text>
<polygon fill="none" stroke="#000000" points="221,-777.5 221,-807.5 549,-807.5 549,-777.5 221,-777.5"/>
<text text-anchor="start" x="228" y="-788.9" font-family="Arial" font-size="14.00" fill="#000000">active </text>
<text text-anchor="start" x="268.453" y="-788.9" font-family="Arial" font-size="14.00" fill="#666666">[boolean]</text>
<polygon fill="none" stroke="#000000" points="221,-747.5 221,-777.5 549,-777.5 549,-747.5 221,-747.5"/>
<text text-anchor="start" x="228" y="-758.9" font-family="Arial" font-size="14.00" fill="#000000">sequence </text>
<text text-anchor="start" x="292.5862" y="-758.9" font-family="Arial" font-size="14.00" fill="#666666">[integer]</text>
<polygon fill="none" stroke="#000000" points="221,-717.5 221,-747.5 549,-747.5 549,-717.5 221,-717.5"/>
<text text-anchor="start" x="228" y="-728.9" font-family="Arial" font-size="14.00" fill="#000000">product_selectable </text>
<text text-anchor="start" x="349.3716" y="-728.9" font-family="Arial" font-size="14.00" fill="#666666">[boolean]</text>
<polygon fill="none" stroke="#000000" points="221,-687.5 221,-717.5 549,-717.5 549,-687.5 221,-687.5"/>
<text text-anchor="start" x="228" y="-698.9" font-family="Arial" font-size="14.00" fill="#000000">product_categ_selectable </text>
<text text-anchor="start" x="391.3926" y="-698.9" font-family="Arial" font-size="14.00" fill="#666666">[boolean]</text>
<polygon fill="none" stroke="#000000" points="221,-657.5 221,-687.5 549,-687.5 549,-657.5 221,-657.5"/>
<text text-anchor="start" x="228" y="-668.9" font-family="Arial" font-size="14.00" fill="#000000">warehouse_selectable </text>
<text text-anchor="start" x="371.1528" y="-668.9" font-family="Arial" font-size="14.00" fill="#666666">[boolean]</text>
<polygon fill="none" stroke="#000000" points="221,-627.5 221,-657.5 549,-657.5 549,-627.5 221,-627.5"/>
<text text-anchor="start" x="228" y="-638.9" font-family="Arial" font-size="14.00" fill="#000000">supplied_wh_id </text>
<text text-anchor="start" x="328.3604" y="-638.9" font-family="Arial" font-size="14.00" fill="#666666">[integer]</text>
<polygon fill="none" stroke="#000000" points="221,-597.5 221,-627.5 549,-627.5 549,-597.5 221,-597.5"/>
<text text-anchor="start" x="228" y="-608.9" font-family="Arial" font-size="14.00" fill="#000000">supplier_wh_id </text>
<text text-anchor="start" x="325.2384" y="-608.9" font-family="Arial" font-size="14.00" fill="#666666">[integer]</text>
<polygon fill="none" stroke="#000000" points="221,-567.5 221,-597.5 549,-597.5 549,-567.5 221,-567.5"/>
<text text-anchor="start" x="228" y="-578.9" font-family="Arial" font-size="14.00" fill="#000000">company_id </text>
<text text-anchor="start" x="307.3534" y="-578.9" font-family="Arial" font-size="14.00" fill="#666666">[integer]</text>
<polygon fill="none" stroke="#000000" points="221,-537.5 221,-567.5 549,-567.5 549,-537.5 221,-537.5"/>
<text text-anchor="start" x="228" y="-548.9" font-family="Arial" font-size="14.00" fill="#000000">create_uid </text>
<text text-anchor="start" x="297.244" y="-548.9" font-family="Arial" font-size="14.00" fill="#666666">[integer]</text>
<polygon fill="none" stroke="#000000" points="221,-507.5 221,-537.5 549,-537.5 549,-507.5 221,-507.5"/>
<text text-anchor="start" x="228" y="-518.9" font-family="Arial" font-size="14.00" fill="#000000">create_date </text>
<text text-anchor="start" x="305.8106" y="-518.9" font-family="Arial" font-size="14.00" fill="#666666">[timestamp without time zone]</text>
<polygon fill="none" stroke="#000000" points="221,-477.5 221,-507.5 549,-507.5 549,-477.5 221,-477.5"/>
<text text-anchor="start" x="228" y="-488.9" font-family="Arial" font-size="14.00" fill="#000000">write_uid </text>
<text text-anchor="start" x="287.892" y="-488.9" font-family="Arial" font-size="14.00" fill="#666666">[integer]</text>
<polygon fill="none" stroke="#000000" points="221,-447.5 221,-477.5 549,-477.5 549,-447.5 221,-447.5"/>
<text text-anchor="start" x="228" y="-458.9" font-family="Arial" font-size="14.00" fill="#000000">write_date </text>
<text text-anchor="start" x="296.4586" y="-458.9" font-family="Arial" font-size="14.00" fill="#666666">[timestamp without time zone]</text>
<polygon fill="none" stroke="#000000" points="221,-417.5 221,-447.5 549,-447.5 549,-417.5 221,-417.5"/>
<text text-anchor="start" x="228" y="-428.9" font-family="Arial" font-size="14.00" fill="#000000">sale_selectable </text>
<text text-anchor="start" x="328.3618" y="-428.9" font-family="Arial" font-size="14.00" fill="#666666">[boolean]</text>
</g>
<!-- public.stock_route_warehouse&#45;&gt;public.stock_location_route -->
<g id="edge1" class="edge">
<title>public.stock_route_warehouse:route_id&#45;&gt;public.stock_location_route:id</title>
<path fill="none" stroke="#000000" d="M408.0768,-1446.1897C304.1816,-1415.4058 680.6869,-852.5 549,-852.5"/>
<polygon fill="#000000" stroke="#000000" points="408.0861,-1446.1909 417.4109,-1451.9613 413.043,-1446.8454 418,-1447.5 418,-1447.5 418,-1447.5 413.043,-1446.8454 418.5891,-1443.0387 408.0861,-1446.1909 408.0861,-1446.1909"/>
<text text-anchor="start" x="6.761" y="-1457.5" font-family="Arial" font-size="10.00" fill="#000000">FOREIGN KEY (route_id) REFERENCES stock_location_route(id) ON DELETE CASCADE</text>
</g>
<!-- public.stock_warehouse -->
<g id="node3" class="node">
<title>public.stock_warehouse</title>
<polygon fill="#efefef" stroke="transparent" points="654,-1242.5 654,-1277.5 957,-1277.5 957,-1242.5 654,-1242.5"/>
<polygon fill="none" stroke="#000000" points="654,-1242.5 654,-1277.5 957,-1277.5 957,-1242.5 654,-1242.5"/>
<text text-anchor="start" x="660.8494" y="-1255.3" font-family="Arial Bold" font-size="18.00" fill="#000000">public.stock_warehouse</text>
<text text-anchor="start" x="852.8968" y="-1255.3" font-family="Arial" font-size="14.00" fill="#000000"> </text>
<text text-anchor="start" x="856.7874" y="-1255.3" font-family="Arial" font-size="14.00" fill="#666666">[BASE TABLE]</text>
<polygon fill="none" stroke="#000000" points="654,-1212.5 654,-1242.5 957,-1242.5 957,-1212.5 654,-1212.5"/>
<text text-anchor="start" x="661" y="-1223.9" font-family="Arial" font-size="14.00" fill="#000000">id </text>
<text text-anchor="start" x="675.7798" y="-1223.9" font-family="Arial" font-size="14.00" fill="#666666">[integer]</text>
<polygon fill="none" stroke="#000000" points="654,-1182.5 654,-1212.5 957,-1212.5 957,-1182.5 654,-1182.5"/>
<text text-anchor="start" x="661" y="-1193.9" font-family="Arial" font-size="14.00" fill="#000000">name </text>
<text text-anchor="start" x="699.899" y="-1193.9" font-family="Arial" font-size="14.00" fill="#666666">[varchar]</text>
<polygon fill="none" stroke="#000000" points="654,-1152.5 654,-1182.5 957,-1182.5 957,-1152.5 654,-1152.5"/>
<text text-anchor="start" x="661" y="-1163.9" font-family="Arial" font-size="14.00" fill="#000000">active </text>
<text text-anchor="start" x="701.453" y="-1163.9" font-family="Arial" font-size="14.00" fill="#666666">[boolean]</text>
<polygon fill="none" stroke="#000000" points="654,-1122.5 654,-1152.5 957,-1152.5 957,-1122.5 654,-1122.5"/>
<text text-anchor="start" x="661" y="-1133.9" font-family="Arial" font-size="14.00" fill="#000000">company_id </text>
<text text-anchor="start" x="740.3534" y="-1133.9" font-family="Arial" font-size="14.00" fill="#666666">[integer]</text>
<polygon fill="none" stroke="#000000" points="654,-1092.5 654,-1122.5 957,-1122.5 957,-1092.5 654,-1092.5"/>
<text text-anchor="start" x="661" y="-1103.9" font-family="Arial" font-size="14.00" fill="#000000">partner_id </text>
<text text-anchor="start" x="727.9046" y="-1103.9" font-family="Arial" font-size="14.00" fill="#666666">[integer]</text>
<polygon fill="none" stroke="#000000" points="654,-1062.5 654,-1092.5 957,-1092.5 957,-1062.5 654,-1062.5"/>
<text text-anchor="start" x="661" y="-1073.9" font-family="Arial" font-size="14.00" fill="#000000">view_location_id </text>
<text text-anchor="start" x="767.575" y="-1073.9" font-family="Arial" font-size="14.00" fill="#666666">[integer]</text>
<polygon fill="none" stroke="#000000" points="654,-1032.5 654,-1062.5 957,-1062.5 957,-1032.5 654,-1032.5"/>
<text text-anchor="start" x="661" y="-1043.9" font-family="Arial" font-size="14.00" fill="#000000">lot_stock_id </text>
<text text-anchor="start" x="738.798" y="-1043.9" font-family="Arial" font-size="14.00" fill="#666666">[integer]</text>
<polygon fill="none" stroke="#000000" points="654,-1002.5 654,-1032.5 957,-1032.5 957,-1002.5 654,-1002.5"/>
<text text-anchor="start" x="661" y="-1013.9" font-family="Arial" font-size="14.00" fill="#000000">code </text>
<text text-anchor="start" x="695.2384" y="-1013.9" font-family="Arial" font-size="14.00" fill="#666666">[varchar(5)]</text>
<polygon fill="none" stroke="#000000" points="654,-972.5 654,-1002.5 957,-1002.5 957,-972.5 654,-972.5"/>
<text text-anchor="start" x="661" y="-983.9" font-family="Arial" font-size="14.00" fill="#000000">reception_steps </text>
<text text-anchor="start" x="763.6998" y="-983.9" font-family="Arial" font-size="14.00" fill="#666666">[varchar]</text>
<polygon fill="none" stroke="#000000" points="654,-942.5 654,-972.5 957,-972.5 957,-942.5 654,-942.5"/>
<text text-anchor="start" x="661" y="-953.9" font-family="Arial" font-size="14.00" fill="#000000">delivery_steps </text>
<text text-anchor="start" x="754.3506" y="-953.9" font-family="Arial" font-size="14.00" fill="#666666">[varchar]</text>
<polygon fill="none" stroke="#000000" points="654,-912.5 654,-942.5 957,-942.5 957,-912.5 654,-912.5"/>
<text text-anchor="start" x="661" y="-923.9" font-family="Arial" font-size="14.00" fill="#000000">wh_input_stock_loc_id </text>
<text text-anchor="start" x="805.7068" y="-923.9" font-family="Arial" font-size="14.00" fill="#666666">[integer]</text>
<polygon fill="none" stroke="#000000" points="654,-882.5 654,-912.5 957,-912.5 957,-882.5 654,-882.5"/>
<text text-anchor="start" x="661" y="-893.9" font-family="Arial" font-size="14.00" fill="#000000">wh_qc_stock_loc_id </text>
<text text-anchor="start" x="790.1444" y="-893.9" font-family="Arial" font-size="14.00" fill="#666666">[integer]</text>
<polygon fill="none" stroke="#000000" points="654,-852.5 654,-882.5 957,-882.5 957,-852.5 654,-852.5"/>
<text text-anchor="start" x="661" y="-863.9" font-family="Arial" font-size="14.00" fill="#000000">wh_output_stock_loc_id </text>
<text text-anchor="start" x="814.2734" y="-863.9" font-family="Arial" font-size="14.00" fill="#666666">[integer]</text>
<polygon fill="none" stroke="#000000" points="654,-822.5 654,-852.5 957,-852.5 957,-822.5 654,-822.5"/>
<text text-anchor="start" x="661" y="-833.9" font-family="Arial" font-size="14.00" fill="#000000">wh_pack_stock_loc_id </text>
<text text-anchor="start" x="804.927" y="-833.9" font-family="Arial" font-size="14.00" fill="#666666">[integer]</text>
<polygon fill="none" stroke="#000000" points="654,-792.5 654,-822.5 957,-822.5 957,-792.5 654,-792.5"/>
<text text-anchor="start" x="661" y="-803.9" font-family="Arial" font-size="14.00" fill="#000000">mto_pull_id </text>
<text text-anchor="start" x="736.4572" y="-803.9" font-family="Arial" font-size="14.00" fill="#666666">[integer]</text>
<polygon fill="none" stroke="#000000" points="654,-762.5 654,-792.5 957,-792.5 957,-762.5 654,-762.5"/>
<text text-anchor="start" x="661" y="-773.9" font-family="Arial" font-size="14.00" fill="#000000">pick_type_id </text>
<text text-anchor="start" x="742.69" y="-773.9" font-family="Arial" font-size="14.00" fill="#666666">[integer]</text>
<polygon fill="none" stroke="#000000" points="654,-732.5 654,-762.5 957,-762.5 957,-732.5 654,-732.5"/>
<text text-anchor="start" x="661" y="-743.9" font-family="Arial" font-size="14.00" fill="#000000">pack_type_id </text>
<text text-anchor="start" x="747.366" y="-743.9" font-family="Arial" font-size="14.00" fill="#666666">[integer]</text>
<polygon fill="none" stroke="#000000" points="654,-702.5 654,-732.5 957,-732.5 957,-702.5 654,-702.5"/>
<text text-anchor="start" x="661" y="-713.9" font-family="Arial" font-size="14.00" fill="#000000">out_type_id </text>
<text text-anchor="start" x="737.2566" y="-713.9" font-family="Arial" font-size="14.00" fill="#666666">[integer]</text>
<polygon fill="none" stroke="#000000" points="654,-672.5 654,-702.5 957,-702.5 957,-672.5 654,-672.5"/>
<text text-anchor="start" x="661" y="-683.9" font-family="Arial" font-size="14.00" fill="#000000">in_type_id </text>
<text text-anchor="start" x="728.69" y="-683.9" font-family="Arial" font-size="14.00" fill="#666666">[integer]</text>
<polygon fill="none" stroke="#000000" points="654,-642.5 654,-672.5 957,-672.5 957,-642.5 654,-642.5"/>
<text text-anchor="start" x="661" y="-653.9" font-family="Arial" font-size="14.00" fill="#000000">int_type_id </text>
<text text-anchor="start" x="732.5806" y="-653.9" font-family="Arial" font-size="14.00" fill="#666666">[integer]</text>
<polygon fill="none" stroke="#000000" points="654,-612.5 654,-642.5 957,-642.5 957,-612.5 654,-612.5"/>
<text text-anchor="start" x="661" y="-623.9" font-family="Arial" font-size="14.00" fill="#000000">crossdock_route_id </text>
<text text-anchor="start" x="786.2524" y="-623.9" font-family="Arial" font-size="14.00" fill="#666666">[integer]</text>
<polygon fill="none" stroke="#000000" points="654,-582.5 654,-612.5 957,-612.5 957,-582.5 654,-582.5"/>
<text text-anchor="start" x="661" y="-593.9" font-family="Arial" font-size="14.00" fill="#000000">reception_route_id </text>
<text text-anchor="start" x="780.8148" y="-593.9" font-family="Arial" font-size="14.00" fill="#666666">[integer]</text>
<polygon fill="none" stroke="#000000" points="654,-552.5 654,-582.5 957,-582.5 957,-552.5 654,-552.5"/>
<text text-anchor="start" x="661" y="-563.9" font-family="Arial" font-size="14.00" fill="#000000">delivery_route_id </text>
<text text-anchor="start" x="771.4656" y="-563.9" font-family="Arial" font-size="14.00" fill="#666666">[integer]</text>
<polygon fill="none" stroke="#000000" points="654,-522.5 654,-552.5 957,-552.5 957,-522.5 654,-522.5"/>
<text text-anchor="start" x="661" y="-533.9" font-family="Arial" font-size="14.00" fill="#000000">create_uid </text>
<text text-anchor="start" x="730.244" y="-533.9" font-family="Arial" font-size="14.00" fill="#666666">[integer]</text>
<polygon fill="none" stroke="#000000" points="654,-492.5 654,-522.5 957,-522.5 957,-492.5 654,-492.5"/>
<text text-anchor="start" x="661" y="-503.9" font-family="Arial" font-size="14.00" fill="#000000">create_date </text>
<text text-anchor="start" x="738.8106" y="-503.9" font-family="Arial" font-size="14.00" fill="#666666">[timestamp without time zone]</text>
<polygon fill="none" stroke="#000000" points="654,-462.5 654,-492.5 957,-492.5 957,-462.5 654,-462.5"/>
<text text-anchor="start" x="661" y="-473.9" font-family="Arial" font-size="14.00" fill="#000000">write_uid </text>
<text text-anchor="start" x="720.892" y="-473.9" font-family="Arial" font-size="14.00" fill="#666666">[integer]</text>
<polygon fill="none" stroke="#000000" points="654,-432.5 654,-462.5 957,-462.5 957,-432.5 654,-432.5"/>
<text text-anchor="start" x="661" y="-443.9" font-family="Arial" font-size="14.00" fill="#000000">write_date </text>
<text text-anchor="start" x="729.4586" y="-443.9" font-family="Arial" font-size="14.00" fill="#666666">[timestamp without time zone]</text>
<polygon fill="none" stroke="#000000" points="654,-402.5 654,-432.5 957,-432.5 957,-402.5 654,-402.5"/>
<text text-anchor="start" x="661" y="-413.9" font-family="Arial" font-size="14.00" fill="#000000">buy_to_resupply </text>
<text text-anchor="start" x="767.5918" y="-413.9" font-family="Arial" font-size="14.00" fill="#666666">[boolean]</text>
<polygon fill="none" stroke="#000000" points="654,-372.5 654,-402.5 957,-402.5 957,-372.5 654,-372.5"/>
<text text-anchor="start" x="661" y="-383.9" font-family="Arial" font-size="14.00" fill="#000000">buy_pull_id </text>
<text text-anchor="start" x="735.6886" y="-383.9" font-family="Arial" font-size="14.00" fill="#666666">[integer]</text>
<polygon fill="none" stroke="#000000" points="654,-342.5 654,-372.5 957,-372.5 957,-342.5 654,-342.5"/>
<text text-anchor="start" x="661" y="-353.9" font-family="Arial" font-size="14.00" fill="#000000">manufacture_to_resupply </text>
<text text-anchor="start" x="822.8246" y="-353.9" font-family="Arial" font-size="14.00" fill="#666666">[boolean]</text>
<polygon fill="none" stroke="#000000" points="654,-312.5 654,-342.5 957,-342.5 957,-312.5 654,-312.5"/>
<text text-anchor="start" x="661" y="-323.9" font-family="Arial" font-size="14.00" fill="#000000">manufacture_pull_id </text>
<text text-anchor="start" x="790.9214" y="-323.9" font-family="Arial" font-size="14.00" fill="#666666">[integer]</text>
<polygon fill="none" stroke="#000000" points="654,-282.5 654,-312.5 957,-312.5 957,-282.5 654,-282.5"/>
<text text-anchor="start" x="661" y="-293.9" font-family="Arial" font-size="14.00" fill="#000000">pbm_mto_pull_id </text>
<text text-anchor="start" x="771.4656" y="-293.9" font-family="Arial" font-size="14.00" fill="#666666">[integer]</text>
<polygon fill="none" stroke="#000000" points="654,-252.5 654,-282.5 957,-282.5 957,-252.5 654,-252.5"/>
<text text-anchor="start" x="661" y="-263.9" font-family="Arial" font-size="14.00" fill="#000000">sam_rule_id </text>
<text text-anchor="start" x="741.1206" y="-263.9" font-family="Arial" font-size="14.00" fill="#666666">[integer]</text>
<polygon fill="none" stroke="#000000" points="654,-222.5 654,-252.5 957,-252.5 957,-222.5 654,-222.5"/>
<text text-anchor="start" x="661" y="-233.9" font-family="Arial" font-size="14.00" fill="#000000">manu_type_id </text>
<text text-anchor="start" x="752.8092" y="-233.9" font-family="Arial" font-size="14.00" fill="#666666">[integer]</text>
<polygon fill="none" stroke="#000000" points="654,-192.5 654,-222.5 957,-222.5 957,-192.5 654,-192.5"/>
<text text-anchor="start" x="661" y="-203.9" font-family="Arial" font-size="14.00" fill="#000000">pbm_type_id </text>
<text text-anchor="start" x="745.0266" y="-203.9" font-family="Arial" font-size="14.00" fill="#666666">[integer]</text>
<polygon fill="none" stroke="#000000" points="654,-162.5 654,-192.5 957,-192.5 957,-162.5 654,-162.5"/>
<text text-anchor="start" x="661" y="-173.9" font-family="Arial" font-size="14.00" fill="#000000">sam_type_id </text>
<text text-anchor="start" x="744.244" y="-173.9" font-family="Arial" font-size="14.00" fill="#666666">[integer]</text>
<polygon fill="none" stroke="#000000" points="654,-132.5 654,-162.5 957,-162.5 957,-132.5 654,-132.5"/>
<text text-anchor="start" x="661" y="-143.9" font-family="Arial" font-size="14.00" fill="#000000">manufacture_steps </text>
<text text-anchor="start" x="783.927" y="-143.9" font-family="Arial" font-size="14.00" fill="#666666">[varchar]</text>
<polygon fill="none" stroke="#000000" points="654,-102.5 654,-132.5 957,-132.5 957,-102.5 654,-102.5"/>
<text text-anchor="start" x="661" y="-113.9" font-family="Arial" font-size="14.00" fill="#000000">pbm_route_id </text>
<text text-anchor="start" x="750.4698" y="-113.9" font-family="Arial" font-size="14.00" fill="#666666">[integer]</text>
<polygon fill="none" stroke="#000000" points="654,-72.5 654,-102.5 957,-102.5 957,-72.5 654,-72.5"/>
<text text-anchor="start" x="661" y="-83.9" font-family="Arial" font-size="14.00" fill="#000000">pbm_loc_id </text>
<text text-anchor="start" x="736.46" y="-83.9" font-family="Arial" font-size="14.00" fill="#666666">[integer]</text>
<polygon fill="none" stroke="#000000" points="654,-42.5 654,-72.5 957,-72.5 957,-42.5 654,-42.5"/>
<text text-anchor="start" x="661" y="-53.9" font-family="Arial" font-size="14.00" fill="#000000">sam_loc_id </text>
<text text-anchor="start" x="735.6774" y="-53.9" font-family="Arial" font-size="14.00" fill="#666666">[integer]</text>
</g>
<!-- public.stock_route_warehouse&#45;&gt;public.stock_warehouse -->
<g id="edge2" class="edge">
<title>public.stock_route_warehouse:warehouse_id&#45;&gt;public.stock_warehouse:id</title>
<path fill="none" stroke="#000000" d="M781.9619,-1414.8659C795.3615,-1405.7688 785.5004,-1375.2335 772,-1357 739.3724,-1312.9335 686.6276,-1365.0665 654,-1321 629.2719,-1287.6026 612.4444,-1227.5 654,-1227.5"/>
<polygon fill="#000000" stroke="#000000" points="781.6677,-1414.9436 770.8496,-1413.1495 776.8339,-1416.2218 772,-1417.5 772,-1417.5 772,-1417.5 776.8339,-1416.2218 773.1504,-1421.8505 781.6677,-1414.9436 781.6677,-1414.9436"/>
<text text-anchor="start" x="778.65" y="-1427.5" font-family="Arial" font-size="10.00" fill="#000000">FOREIGN KEY (warehouse_id) REFERENCES stock_warehouse(id) ON DELETE CASCADE</text>
</g>
</g>
</svg>
