<?xml version="1.0" encoding="UTF-8" standalone="no"?>
<!DOCTYPE svg PUBLIC "-//W3C//DTD SVG 1.1//EN"
 "http://www.w3.org/Graphics/SVG/1.1/DTD/svg11.dtd">
<!-- Generated by graphviz version 2.40.1 (20161225.0304)
 -->
<!-- Title: public.stock_wh_resupply_table Pages: 1 -->
<svg width="1063pt" height="1552pt"
 viewBox="0.00 0.00 1063.00 1552.00" xmlns="http://www.w3.org/2000/svg" xmlns:xlink="http://www.w3.org/1999/xlink">
<g id="graph0" class="graph" transform="scale(1 1) rotate(0) translate(4 1548)">
<title>public.stock_wh_resupply_table</title>
<polygon fill="#ffffff" stroke="transparent" points="-4,4 -4,-1548 1059,-1548 1059,4 -4,4"/>
<!-- public.stock_wh_resupply_table -->
<g id="node1" class="node">
<title>public.stock_wh_resupply_table</title>
<polygon fill="#efefef" stroke="transparent" points="437,-1462.5 437,-1497.5 802,-1497.5 802,-1462.5 437,-1462.5"/>
<polygon fill="none" stroke="#000000" points="437,-1462.5 437,-1497.5 802,-1497.5 802,-1462.5 437,-1462.5"/>
<text text-anchor="start" x="443.8417" y="-1475.3" font-family="Arial Bold" font-size="18.00" fill="#000000">public.stock_wh_resupply_table</text>
<text text-anchor="start" x="697.9045" y="-1475.3" font-family="Arial" font-size="14.00" fill="#000000"> </text>
<text text-anchor="start" x="701.7951" y="-1475.3" font-family="Arial" font-size="14.00" fill="#666666">[BASE TABLE]</text>
<polygon fill="none" stroke="#000000" points="437,-1432.5 437,-1462.5 802,-1462.5 802,-1432.5 437,-1432.5"/>
<text text-anchor="start" x="444" y="-1443.9" font-family="Arial" font-size="14.00" fill="#000000">supplied_wh_id </text>
<text text-anchor="start" x="544.3604" y="-1443.9" font-family="Arial" font-size="14.00" fill="#666666">[integer]</text>
<polygon fill="none" stroke="#000000" points="437,-1402.5 437,-1432.5 802,-1432.5 802,-1402.5 437,-1402.5"/>
<text text-anchor="start" x="444" y="-1413.9" font-family="Arial" font-size="14.00" fill="#000000">supplier_wh_id </text>
<text text-anchor="start" x="541.2384" y="-1413.9" font-family="Arial" font-size="14.00" fill="#666666">[integer]</text>
<polygon fill="none" stroke="#000000" stroke-width="3" points="435,-1401.5 435,-1499.5 803,-1499.5 803,-1401.5 435,-1401.5"/>
</g>
<!-- public.stock_warehouse -->
<g id="node2" class="node">
<title>public.stock_warehouse</title>
<polygon fill="#efefef" stroke="transparent" points="468,-1242.5 468,-1277.5 771,-1277.5 771,-1242.5 468,-1242.5"/>
<polygon fill="none" stroke="#000000" points="468,-1242.5 468,-1277.5 771,-1277.5 771,-1242.5 468,-1242.5"/>
<text text-anchor="start" x="474.8494" y="-1255.3" font-family="Arial Bold" font-size="18.00" fill="#000000">public.stock_warehouse</text>
<text text-anchor="start" x="666.8968" y="-1255.3" font-family="Arial" font-size="14.00" fill="#000000"> </text>
<text text-anchor="start" x="670.7874" y="-1255.3" font-family="Arial" font-size="14.00" fill="#666666">[BASE TABLE]</text>
<polygon fill="none" stroke="#000000" points="468,-1212.5 468,-1242.5 771,-1242.5 771,-1212.5 468,-1212.5"/>
<text text-anchor="start" x="475" y="-1223.9" font-family="Arial" font-size="14.00" fill="#000000">id </text>
<text text-anchor="start" x="489.7798" y="-1223.9" font-family="Arial" font-size="14.00" fill="#666666">[integer]</text>
<polygon fill="none" stroke="#000000" points="468,-1182.5 468,-1212.5 771,-1212.5 771,-1182.5 468,-1182.5"/>
<text text-anchor="start" x="475" y="-1193.9" font-family="Arial" font-size="14.00" fill="#000000">name </text>
<text text-anchor="start" x="513.899" y="-1193.9" font-family="Arial" font-size="14.00" fill="#666666">[varchar]</text>
<polygon fill="none" stroke="#000000" points="468,-1152.5 468,-1182.5 771,-1182.5 771,-1152.5 468,-1152.5"/>
<text text-anchor="start" x="475" y="-1163.9" font-family="Arial" font-size="14.00" fill="#000000">active </text>
<text text-anchor="start" x="515.453" y="-1163.9" font-family="Arial" font-size="14.00" fill="#666666">[boolean]</text>
<polygon fill="none" stroke="#000000" points="468,-1122.5 468,-1152.5 771,-1152.5 771,-1122.5 468,-1122.5"/>
<text text-anchor="start" x="475" y="-1133.9" font-family="Arial" font-size="14.00" fill="#000000">company_id </text>
<text text-anchor="start" x="554.3534" y="-1133.9" font-family="Arial" font-size="14.00" fill="#666666">[integer]</text>
<polygon fill="none" stroke="#000000" points="468,-1092.5 468,-1122.5 771,-1122.5 771,-1092.5 468,-1092.5"/>
<text text-anchor="start" x="475" y="-1103.9" font-family="Arial" font-size="14.00" fill="#000000">partner_id </text>
<text text-anchor="start" x="541.9046" y="-1103.9" font-family="Arial" font-size="14.00" fill="#666666">[integer]</text>
<polygon fill="none" stroke="#000000" points="468,-1062.5 468,-1092.5 771,-1092.5 771,-1062.5 468,-1062.5"/>
<text text-anchor="start" x="475" y="-1073.9" font-family="Arial" font-size="14.00" fill="#000000">view_location_id </text>
<text text-anchor="start" x="581.575" y="-1073.9" font-family="Arial" font-size="14.00" fill="#666666">[integer]</text>
<polygon fill="none" stroke="#000000" points="468,-1032.5 468,-1062.5 771,-1062.5 771,-1032.5 468,-1032.5"/>
<text text-anchor="start" x="475" y="-1043.9" font-family="Arial" font-size="14.00" fill="#000000">lot_stock_id </text>
<text text-anchor="start" x="552.798" y="-1043.9" font-family="Arial" font-size="14.00" fill="#666666">[integer]</text>
<polygon fill="none" stroke="#000000" points="468,-1002.5 468,-1032.5 771,-1032.5 771,-1002.5 468,-1002.5"/>
<text text-anchor="start" x="475" y="-1013.9" font-family="Arial" font-size="14.00" fill="#000000">code </text>
<text text-anchor="start" x="509.2384" y="-1013.9" font-family="Arial" font-size="14.00" fill="#666666">[varchar(5)]</text>
<polygon fill="none" stroke="#000000" points="468,-972.5 468,-1002.5 771,-1002.5 771,-972.5 468,-972.5"/>
<text text-anchor="start" x="475" y="-983.9" font-family="Arial" font-size="14.00" fill="#000000">reception_steps </text>
<text text-anchor="start" x="577.6998" y="-983.9" font-family="Arial" font-size="14.00" fill="#666666">[varchar]</text>
<polygon fill="none" stroke="#000000" points="468,-942.5 468,-972.5 771,-972.5 771,-942.5 468,-942.5"/>
<text text-anchor="start" x="475" y="-953.9" font-family="Arial" font-size="14.00" fill="#000000">delivery_steps </text>
<text text-anchor="start" x="568.3506" y="-953.9" font-family="Arial" font-size="14.00" fill="#666666">[varchar]</text>
<polygon fill="none" stroke="#000000" points="468,-912.5 468,-942.5 771,-942.5 771,-912.5 468,-912.5"/>
<text text-anchor="start" x="475" y="-923.9" font-family="Arial" font-size="14.00" fill="#000000">wh_input_stock_loc_id </text>
<text text-anchor="start" x="619.7068" y="-923.9" font-family="Arial" font-size="14.00" fill="#666666">[integer]</text>
<polygon fill="none" stroke="#000000" points="468,-882.5 468,-912.5 771,-912.5 771,-882.5 468,-882.5"/>
<text text-anchor="start" x="475" y="-893.9" font-family="Arial" font-size="14.00" fill="#000000">wh_qc_stock_loc_id </text>
<text text-anchor="start" x="604.1444" y="-893.9" font-family="Arial" font-size="14.00" fill="#666666">[integer]</text>
<polygon fill="none" stroke="#000000" points="468,-852.5 468,-882.5 771,-882.5 771,-852.5 468,-852.5"/>
<text text-anchor="start" x="475" y="-863.9" font-family="Arial" font-size="14.00" fill="#000000">wh_output_stock_loc_id </text>
<text text-anchor="start" x="628.2734" y="-863.9" font-family="Arial" font-size="14.00" fill="#666666">[integer]</text>
<polygon fill="none" stroke="#000000" points="468,-822.5 468,-852.5 771,-852.5 771,-822.5 468,-822.5"/>
<text text-anchor="start" x="475" y="-833.9" font-family="Arial" font-size="14.00" fill="#000000">wh_pack_stock_loc_id </text>
<text text-anchor="start" x="618.927" y="-833.9" font-family="Arial" font-size="14.00" fill="#666666">[integer]</text>
<polygon fill="none" stroke="#000000" points="468,-792.5 468,-822.5 771,-822.5 771,-792.5 468,-792.5"/>
<text text-anchor="start" x="475" y="-803.9" font-family="Arial" font-size="14.00" fill="#000000">mto_pull_id </text>
<text text-anchor="start" x="550.4572" y="-803.9" font-family="Arial" font-size="14.00" fill="#666666">[integer]</text>
<polygon fill="none" stroke="#000000" points="468,-762.5 468,-792.5 771,-792.5 771,-762.5 468,-762.5"/>
<text text-anchor="start" x="475" y="-773.9" font-family="Arial" font-size="14.00" fill="#000000">pick_type_id </text>
<text text-anchor="start" x="556.69" y="-773.9" font-family="Arial" font-size="14.00" fill="#666666">[integer]</text>
<polygon fill="none" stroke="#000000" points="468,-732.5 468,-762.5 771,-762.5 771,-732.5 468,-732.5"/>
<text text-anchor="start" x="475" y="-743.9" font-family="Arial" font-size="14.00" fill="#000000">pack_type_id </text>
<text text-anchor="start" x="561.366" y="-743.9" font-family="Arial" font-size="14.00" fill="#666666">[integer]</text>
<polygon fill="none" stroke="#000000" points="468,-702.5 468,-732.5 771,-732.5 771,-702.5 468,-702.5"/>
<text text-anchor="start" x="475" y="-713.9" font-family="Arial" font-size="14.00" fill="#000000">out_type_id </text>
<text text-anchor="start" x="551.2566" y="-713.9" font-family="Arial" font-size="14.00" fill="#666666">[integer]</text>
<polygon fill="none" stroke="#000000" points="468,-672.5 468,-702.5 771,-702.5 771,-672.5 468,-672.5"/>
<text text-anchor="start" x="475" y="-683.9" font-family="Arial" font-size="14.00" fill="#000000">in_type_id </text>
<text text-anchor="start" x="542.69" y="-683.9" font-family="Arial" font-size="14.00" fill="#666666">[integer]</text>
<polygon fill="none" stroke="#000000" points="468,-642.5 468,-672.5 771,-672.5 771,-642.5 468,-642.5"/>
<text text-anchor="start" x="475" y="-653.9" font-family="Arial" font-size="14.00" fill="#000000">int_type_id </text>
<text text-anchor="start" x="546.5806" y="-653.9" font-family="Arial" font-size="14.00" fill="#666666">[integer]</text>
<polygon fill="none" stroke="#000000" points="468,-612.5 468,-642.5 771,-642.5 771,-612.5 468,-612.5"/>
<text text-anchor="start" x="475" y="-623.9" font-family="Arial" font-size="14.00" fill="#000000">crossdock_route_id </text>
<text text-anchor="start" x="600.2524" y="-623.9" font-family="Arial" font-size="14.00" fill="#666666">[integer]</text>
<polygon fill="none" stroke="#000000" points="468,-582.5 468,-612.5 771,-612.5 771,-582.5 468,-582.5"/>
<text text-anchor="start" x="475" y="-593.9" font-family="Arial" font-size="14.00" fill="#000000">reception_route_id </text>
<text text-anchor="start" x="594.8148" y="-593.9" font-family="Arial" font-size="14.00" fill="#666666">[integer]</text>
<polygon fill="none" stroke="#000000" points="468,-552.5 468,-582.5 771,-582.5 771,-552.5 468,-552.5"/>
<text text-anchor="start" x="475" y="-563.9" font-family="Arial" font-size="14.00" fill="#000000">delivery_route_id </text>
<text text-anchor="start" x="585.4656" y="-563.9" font-family="Arial" font-size="14.00" fill="#666666">[integer]</text>
<polygon fill="none" stroke="#000000" points="468,-522.5 468,-552.5 771,-552.5 771,-522.5 468,-522.5"/>
<text text-anchor="start" x="475" y="-533.9" font-family="Arial" font-size="14.00" fill="#000000">create_uid </text>
<text text-anchor="start" x="544.244" y="-533.9" font-family="Arial" font-size="14.00" fill="#666666">[integer]</text>
<polygon fill="none" stroke="#000000" points="468,-492.5 468,-522.5 771,-522.5 771,-492.5 468,-492.5"/>
<text text-anchor="start" x="475" y="-503.9" font-family="Arial" font-size="14.00" fill="#000000">create_date </text>
<text text-anchor="start" x="552.8106" y="-503.9" font-family="Arial" font-size="14.00" fill="#666666">[timestamp without time zone]</text>
<polygon fill="none" stroke="#000000" points="468,-462.5 468,-492.5 771,-492.5 771,-462.5 468,-462.5"/>
<text text-anchor="start" x="475" y="-473.9" font-family="Arial" font-size="14.00" fill="#000000">write_uid </text>
<text text-anchor="start" x="534.892" y="-473.9" font-family="Arial" font-size="14.00" fill="#666666">[integer]</text>
<polygon fill="none" stroke="#000000" points="468,-432.5 468,-462.5 771,-462.5 771,-432.5 468,-432.5"/>
<text text-anchor="start" x="475" y="-443.9" font-family="Arial" font-size="14.00" fill="#000000">write_date </text>
<text text-anchor="start" x="543.4586" y="-443.9" font-family="Arial" font-size="14.00" fill="#666666">[timestamp without time zone]</text>
<polygon fill="none" stroke="#000000" points="468,-402.5 468,-432.5 771,-432.5 771,-402.5 468,-402.5"/>
<text text-anchor="start" x="475" y="-413.9" font-family="Arial" font-size="14.00" fill="#000000">buy_to_resupply </text>
<text text-anchor="start" x="581.5918" y="-413.9" font-family="Arial" font-size="14.00" fill="#666666">[boolean]</text>
<polygon fill="none" stroke="#000000" points="468,-372.5 468,-402.5 771,-402.5 771,-372.5 468,-372.5"/>
<text text-anchor="start" x="475" y="-383.9" font-family="Arial" font-size="14.00" fill="#000000">buy_pull_id </text>
<text text-anchor="start" x="549.6886" y="-383.9" font-family="Arial" font-size="14.00" fill="#666666">[integer]</text>
<polygon fill="none" stroke="#000000" points="468,-342.5 468,-372.5 771,-372.5 771,-342.5 468,-342.5"/>
<text text-anchor="start" x="475" y="-353.9" font-family="Arial" font-size="14.00" fill="#000000">manufacture_to_resupply </text>
<text text-anchor="start" x="636.8246" y="-353.9" font-family="Arial" font-size="14.00" fill="#666666">[boolean]</text>
<polygon fill="none" stroke="#000000" points="468,-312.5 468,-342.5 771,-342.5 771,-312.5 468,-312.5"/>
<text text-anchor="start" x="475" y="-323.9" font-family="Arial" font-size="14.00" fill="#000000">manufacture_pull_id </text>
<text text-anchor="start" x="604.9214" y="-323.9" font-family="Arial" font-size="14.00" fill="#666666">[integer]</text>
<polygon fill="none" stroke="#000000" points="468,-282.5 468,-312.5 771,-312.5 771,-282.5 468,-282.5"/>
<text text-anchor="start" x="475" y="-293.9" font-family="Arial" font-size="14.00" fill="#000000">pbm_mto_pull_id </text>
<text text-anchor="start" x="585.4656" y="-293.9" font-family="Arial" font-size="14.00" fill="#666666">[integer]</text>
<polygon fill="none" stroke="#000000" points="468,-252.5 468,-282.5 771,-282.5 771,-252.5 468,-252.5"/>
<text text-anchor="start" x="475" y="-263.9" font-family="Arial" font-size="14.00" fill="#000000">sam_rule_id </text>
<text text-anchor="start" x="555.1206" y="-263.9" font-family="Arial" font-size="14.00" fill="#666666">[integer]</text>
<polygon fill="none" stroke="#000000" points="468,-222.5 468,-252.5 771,-252.5 771,-222.5 468,-222.5"/>
<text text-anchor="start" x="475" y="-233.9" font-family="Arial" font-size="14.00" fill="#000000">manu_type_id </text>
<text text-anchor="start" x="566.8092" y="-233.9" font-family="Arial" font-size="14.00" fill="#666666">[integer]</text>
<polygon fill="none" stroke="#000000" points="468,-192.5 468,-222.5 771,-222.5 771,-192.5 468,-192.5"/>
<text text-anchor="start" x="475" y="-203.9" font-family="Arial" font-size="14.00" fill="#000000">pbm_type_id </text>
<text text-anchor="start" x="559.0266" y="-203.9" font-family="Arial" font-size="14.00" fill="#666666">[integer]</text>
<polygon fill="none" stroke="#000000" points="468,-162.5 468,-192.5 771,-192.5 771,-162.5 468,-162.5"/>
<text text-anchor="start" x="475" y="-173.9" font-family="Arial" font-size="14.00" fill="#000000">sam_type_id </text>
<text text-anchor="start" x="558.244" y="-173.9" font-family="Arial" font-size="14.00" fill="#666666">[integer]</text>
<polygon fill="none" stroke="#000000" points="468,-132.5 468,-162.5 771,-162.5 771,-132.5 468,-132.5"/>
<text text-anchor="start" x="475" y="-143.9" font-family="Arial" font-size="14.00" fill="#000000">manufacture_steps </text>
<text text-anchor="start" x="597.927" y="-143.9" font-family="Arial" font-size="14.00" fill="#666666">[varchar]</text>
<polygon fill="none" stroke="#000000" points="468,-102.5 468,-132.5 771,-132.5 771,-102.5 468,-102.5"/>
<text text-anchor="start" x="475" y="-113.9" font-family="Arial" font-size="14.00" fill="#000000">pbm_route_id </text>
<text text-anchor="start" x="564.4698" y="-113.9" font-family="Arial" font-size="14.00" fill="#666666">[integer]</text>
<polygon fill="none" stroke="#000000" points="468,-72.5 468,-102.5 771,-102.5 771,-72.5 468,-72.5"/>
<text text-anchor="start" x="475" y="-83.9" font-family="Arial" font-size="14.00" fill="#000000">pbm_loc_id </text>
<text text-anchor="start" x="550.46" y="-83.9" font-family="Arial" font-size="14.00" fill="#666666">[integer]</text>
<polygon fill="none" stroke="#000000" points="468,-42.5 468,-72.5 771,-72.5 771,-42.5 468,-42.5"/>
<text text-anchor="start" x="475" y="-53.9" font-family="Arial" font-size="14.00" fill="#000000">sam_loc_id </text>
<text text-anchor="start" x="549.6774" y="-53.9" font-family="Arial" font-size="14.00" fill="#666666">[integer]</text>
</g>
<!-- public.stock_wh_resupply_table&#45;&gt;public.stock_warehouse -->
<g id="edge1" class="edge">
<title>public.stock_wh_resupply_table:supplied_wh_id&#45;&gt;public.stock_warehouse:id</title>
<path fill="none" stroke="#000000" d="M426.8016,-1446.6591C340.585,-1431.8888 372.8242,-1227.5 468,-1227.5"/>
<polygon fill="#000000" stroke="#000000" points="427.0338,-1446.6781 436.6302,-1451.9848 432.0169,-1447.0891 437,-1447.5 437,-1447.5 437,-1447.5 432.0169,-1447.0891 437.3698,-1443.0152 427.0338,-1446.6781 427.0338,-1446.6781"/>
<text text-anchor="start" x="7.316" y="-1457.5" font-family="Arial" font-size="10.00" fill="#000000">FOREIGN KEY (supplied_wh_id) REFERENCES stock_warehouse(id) ON DELETE CASCADE</text>
</g>
<!-- public.stock_wh_resupply_table&#45;&gt;public.stock_warehouse -->
<g id="edge2" class="edge">
<title>public.stock_wh_resupply_table:supplier_wh_id&#45;&gt;public.stock_warehouse:id</title>
<path fill="none" stroke="#000000" d="M619.216,-1392.2247C609.1752,-1331.4941 505.443,-1383.5621 468,-1321 446.6594,-1285.3427 426.4444,-1227.5 468,-1227.5"/>
<polygon fill="#000000" stroke="#000000" points="619.2391,-1392.529 615.513,-1402.8424 619.6196,-1397.5145 620,-1402.5 620,-1402.5 620,-1402.5 619.6196,-1397.5145 624.487,-1402.1576 619.2391,-1392.529 619.2391,-1392.529"/>
<text text-anchor="start" x="627.431" y="-1412.5" font-family="Arial" font-size="10.00" fill="#000000">FOREIGN KEY (supplier_wh_id) REFERENCES stock_warehouse(id) ON DELETE CASCADE</text>
</g>
</g>
</svg>
