<?xml version="1.0" encoding="UTF-8" standalone="no"?>
<!DOCTYPE svg PUBLIC "-//W3C//DTD SVG 1.1//EN"
 "http://www.w3.org/Graphics/SVG/1.1/DTD/svg11.dtd">
<!-- Generated by graphviz version 2.40.1 (20161225.0304)
 -->
<!-- Title: public.payment_country_rel Pages: 1 -->
<svg width="1150pt" height="1372pt"
 viewBox="0.00 0.00 1150.00 1372.00" xmlns="http://www.w3.org/2000/svg" xmlns:xlink="http://www.w3.org/1999/xlink">
<g id="graph0" class="graph" transform="scale(1 1) rotate(0) translate(4 1368)">
<title>public.payment_country_rel</title>
<polygon fill="#ffffff" stroke="transparent" points="-4,4 -4,-1368 1146,-1368 1146,4 -4,4"/>
<!-- public.payment_country_rel -->
<g id="node1" class="node">
<title>public.payment_country_rel</title>
<polygon fill="#efefef" stroke="transparent" points="422,-1282.5 422,-1317.5 753,-1317.5 753,-1282.5 422,-1282.5"/>
<polygon fill="none" stroke="#000000" points="422,-1282.5 422,-1317.5 753,-1317.5 753,-1282.5 422,-1282.5"/>
<text text-anchor="start" x="428.8499" y="-1295.3" font-family="Arial Bold" font-size="18.00" fill="#000000">public.payment_country_rel</text>
<text text-anchor="start" x="648.8963" y="-1295.3" font-family="Arial" font-size="14.00" fill="#000000"> </text>
<text text-anchor="start" x="652.7869" y="-1295.3" font-family="Arial" font-size="14.00" fill="#666666">[BASE TABLE]</text>
<polygon fill="none" stroke="#000000" points="422,-1252.5 422,-1282.5 753,-1282.5 753,-1252.5 422,-1252.5"/>
<text text-anchor="start" x="429" y="-1263.9" font-family="Arial" font-size="14.00" fill="#000000">payment_id </text>
<text text-anchor="start" x="505.244" y="-1263.9" font-family="Arial" font-size="14.00" fill="#666666">[integer]</text>
<polygon fill="none" stroke="#000000" points="422,-1222.5 422,-1252.5 753,-1252.5 753,-1222.5 422,-1222.5"/>
<text text-anchor="start" x="429" y="-1233.9" font-family="Arial" font-size="14.00" fill="#000000">country_id </text>
<text text-anchor="start" x="497.4614" y="-1233.9" font-family="Arial" font-size="14.00" fill="#666666">[integer]</text>
<polygon fill="none" stroke="#000000" stroke-width="3" points="420,-1221.5 420,-1319.5 754,-1319.5 754,-1221.5 420,-1221.5"/>
</g>
<!-- public.payment_acquirer -->
<g id="node2" class="node">
<title>public.payment_acquirer</title>
<polygon fill="#efefef" stroke="transparent" points="237,-1062.5 237,-1097.5 544,-1097.5 544,-1062.5 237,-1062.5"/>
<polygon fill="none" stroke="#000000" points="237,-1062.5 237,-1097.5 544,-1097.5 544,-1062.5 237,-1062.5"/>
<text text-anchor="start" x="243.8541" y="-1075.3" font-family="Arial Bold" font-size="18.00" fill="#000000">public.payment_acquirer</text>
<text text-anchor="start" x="439.8921" y="-1075.3" font-family="Arial" font-size="14.00" fill="#000000"> </text>
<text text-anchor="start" x="443.7827" y="-1075.3" font-family="Arial" font-size="14.00" fill="#666666">[BASE TABLE]</text>
<polygon fill="none" stroke="#000000" points="237,-1032.5 237,-1062.5 544,-1062.5 544,-1032.5 237,-1032.5"/>
<text text-anchor="start" x="244" y="-1043.9" font-family="Arial" font-size="14.00" fill="#000000">id </text>
<text text-anchor="start" x="258.7798" y="-1043.9" font-family="Arial" font-size="14.00" fill="#666666">[integer]</text>
<polygon fill="none" stroke="#000000" points="237,-1002.5 237,-1032.5 544,-1032.5 544,-1002.5 237,-1002.5"/>
<text text-anchor="start" x="244" y="-1013.9" font-family="Arial" font-size="14.00" fill="#000000">name </text>
<text text-anchor="start" x="282.899" y="-1013.9" font-family="Arial" font-size="14.00" fill="#666666">[varchar]</text>
<polygon fill="none" stroke="#000000" points="237,-972.5 237,-1002.5 544,-1002.5 544,-972.5 237,-972.5"/>
<text text-anchor="start" x="244" y="-983.9" font-family="Arial" font-size="14.00" fill="#000000">description </text>
<text text-anchor="start" x="315.568" y="-983.9" font-family="Arial" font-size="14.00" fill="#666666">[text]</text>
<polygon fill="none" stroke="#000000" points="237,-942.5 237,-972.5 544,-972.5 544,-942.5 237,-942.5"/>
<text text-anchor="start" x="244" y="-953.9" font-family="Arial" font-size="14.00" fill="#000000">sequence </text>
<text text-anchor="start" x="308.5862" y="-953.9" font-family="Arial" font-size="14.00" fill="#666666">[integer]</text>
<polygon fill="none" stroke="#000000" points="237,-912.5 237,-942.5 544,-942.5 544,-912.5 237,-912.5"/>
<text text-anchor="start" x="244" y="-923.9" font-family="Arial" font-size="14.00" fill="#000000">provider </text>
<text text-anchor="start" x="298.4488" y="-923.9" font-family="Arial" font-size="14.00" fill="#666666">[varchar]</text>
<polygon fill="none" stroke="#000000" points="237,-882.5 237,-912.5 544,-912.5 544,-882.5 237,-882.5"/>
<text text-anchor="start" x="244" y="-893.9" font-family="Arial" font-size="14.00" fill="#000000">company_id </text>
<text text-anchor="start" x="323.3534" y="-893.9" font-family="Arial" font-size="14.00" fill="#666666">[integer]</text>
<polygon fill="none" stroke="#000000" points="237,-852.5 237,-882.5 544,-882.5 544,-852.5 237,-852.5"/>
<text text-anchor="start" x="244" y="-863.9" font-family="Arial" font-size="14.00" fill="#000000">view_template_id </text>
<text text-anchor="start" x="356.0196" y="-863.9" font-family="Arial" font-size="14.00" fill="#666666">[integer]</text>
<polygon fill="none" stroke="#000000" points="237,-822.5 237,-852.5 544,-852.5 544,-822.5 237,-822.5"/>
<text text-anchor="start" x="244" y="-833.9" font-family="Arial" font-size="14.00" fill="#000000">registration_view_template_id </text>
<text text-anchor="start" x="433.0308" y="-833.9" font-family="Arial" font-size="14.00" fill="#666666">[integer]</text>
<polygon fill="none" stroke="#000000" points="237,-792.5 237,-822.5 544,-822.5 544,-792.5 237,-792.5"/>
<text text-anchor="start" x="244" y="-803.9" font-family="Arial" font-size="14.00" fill="#000000">environment </text>
<text text-anchor="start" x="324.9046" y="-803.9" font-family="Arial" font-size="14.00" fill="#666666">[varchar]</text>
<polygon fill="none" stroke="#000000" points="237,-762.5 237,-792.5 544,-792.5 544,-762.5 237,-762.5"/>
<text text-anchor="start" x="244" y="-773.9" font-family="Arial" font-size="14.00" fill="#000000">website_published </text>
<text text-anchor="start" x="363.0336" y="-773.9" font-family="Arial" font-size="14.00" fill="#666666">[boolean]</text>
<polygon fill="none" stroke="#000000" points="237,-732.5 237,-762.5 544,-762.5 544,-732.5 237,-732.5"/>
<text text-anchor="start" x="244" y="-743.9" font-family="Arial" font-size="14.00" fill="#000000">capture_manually </text>
<text text-anchor="start" x="358.359" y="-743.9" font-family="Arial" font-size="14.00" fill="#666666">[boolean]</text>
<polygon fill="none" stroke="#000000" points="237,-702.5 237,-732.5 544,-732.5 544,-702.5 237,-702.5"/>
<text text-anchor="start" x="244" y="-713.9" font-family="Arial" font-size="14.00" fill="#000000">journal_id </text>
<text text-anchor="start" x="308.5666" y="-713.9" font-family="Arial" font-size="14.00" fill="#666666">[integer]</text>
<polygon fill="none" stroke="#000000" points="237,-672.5 237,-702.5 544,-702.5 544,-672.5 237,-672.5"/>
<text text-anchor="start" x="244" y="-683.9" font-family="Arial" font-size="14.00" fill="#000000">specific_countries </text>
<text text-anchor="start" x="359.1304" y="-683.9" font-family="Arial" font-size="14.00" fill="#666666">[boolean]</text>
<polygon fill="none" stroke="#000000" points="237,-642.5 237,-672.5 544,-672.5 544,-642.5 237,-642.5"/>
<text text-anchor="start" x="244" y="-653.9" font-family="Arial" font-size="14.00" fill="#000000">pre_msg </text>
<text text-anchor="start" x="302.3422" y="-653.9" font-family="Arial" font-size="14.00" fill="#666666">[text]</text>
<polygon fill="none" stroke="#000000" points="237,-612.5 237,-642.5 544,-642.5 544,-612.5 237,-612.5"/>
<text text-anchor="start" x="244" y="-623.9" font-family="Arial" font-size="14.00" fill="#000000">post_msg </text>
<text text-anchor="start" x="308.5722" y="-623.9" font-family="Arial" font-size="14.00" fill="#666666">[text]</text>
<polygon fill="none" stroke="#000000" points="237,-582.5 237,-612.5 544,-612.5 544,-582.5 237,-582.5"/>
<text text-anchor="start" x="244" y="-593.9" font-family="Arial" font-size="14.00" fill="#000000">pending_msg </text>
<text text-anchor="start" x="331.9186" y="-593.9" font-family="Arial" font-size="14.00" fill="#666666">[text]</text>
<polygon fill="none" stroke="#000000" points="237,-552.5 237,-582.5 544,-582.5 544,-552.5 237,-552.5"/>
<text text-anchor="start" x="244" y="-563.9" font-family="Arial" font-size="14.00" fill="#000000">done_msg </text>
<text text-anchor="start" x="313.2468" y="-563.9" font-family="Arial" font-size="14.00" fill="#666666">[text]</text>
<polygon fill="none" stroke="#000000" points="237,-522.5 237,-552.5 544,-552.5 544,-522.5 237,-522.5"/>
<text text-anchor="start" x="244" y="-533.9" font-family="Arial" font-size="14.00" fill="#000000">cancel_msg </text>
<text text-anchor="start" x="322.5708" y="-533.9" font-family="Arial" font-size="14.00" fill="#666666">[text]</text>
<polygon fill="none" stroke="#000000" points="237,-492.5 237,-522.5 544,-522.5 544,-492.5 237,-492.5"/>
<text text-anchor="start" x="244" y="-503.9" font-family="Arial" font-size="14.00" fill="#000000">error_msg </text>
<text text-anchor="start" x="311.6634" y="-503.9" font-family="Arial" font-size="14.00" fill="#666666">[text]</text>
<polygon fill="none" stroke="#000000" points="237,-462.5 237,-492.5 544,-492.5 544,-462.5 237,-462.5"/>
<text text-anchor="start" x="244" y="-473.9" font-family="Arial" font-size="14.00" fill="#000000">save_token </text>
<text text-anchor="start" x="319.4768" y="-473.9" font-family="Arial" font-size="14.00" fill="#666666">[varchar]</text>
<polygon fill="none" stroke="#000000" points="237,-432.5 237,-462.5 544,-462.5 544,-432.5 237,-432.5"/>
<text text-anchor="start" x="244" y="-443.9" font-family="Arial" font-size="14.00" fill="#000000">fees_active </text>
<text text-anchor="start" x="318.6914" y="-443.9" font-family="Arial" font-size="14.00" fill="#666666">[boolean]</text>
<polygon fill="none" stroke="#000000" points="237,-402.5 237,-432.5 544,-432.5 544,-402.5 237,-402.5"/>
<text text-anchor="start" x="244" y="-413.9" font-family="Arial" font-size="14.00" fill="#000000">fees_dom_fixed </text>
<text text-anchor="start" x="346.6998" y="-413.9" font-family="Arial" font-size="14.00" fill="#666666">[double precision]</text>
<polygon fill="none" stroke="#000000" points="237,-372.5 237,-402.5 544,-402.5 544,-372.5 237,-372.5"/>
<text text-anchor="start" x="244" y="-383.9" font-family="Arial" font-size="14.00" fill="#000000">fees_dom_var </text>
<text text-anchor="start" x="336.5806" y="-383.9" font-family="Arial" font-size="14.00" fill="#666666">[double precision]</text>
<polygon fill="none" stroke="#000000" points="237,-342.5 237,-372.5 544,-372.5 544,-342.5 237,-342.5"/>
<text text-anchor="start" x="244" y="-353.9" font-family="Arial" font-size="14.00" fill="#000000">fees_int_fixed </text>
<text text-anchor="start" x="334.2538" y="-353.9" font-family="Arial" font-size="14.00" fill="#666666">[double precision]</text>
<polygon fill="none" stroke="#000000" points="237,-312.5 237,-342.5 544,-342.5 544,-312.5 237,-312.5"/>
<text text-anchor="start" x="244" y="-323.9" font-family="Arial" font-size="14.00" fill="#000000">fees_int_var </text>
<text text-anchor="start" x="324.1346" y="-323.9" font-family="Arial" font-size="14.00" fill="#666666">[double precision]</text>
<polygon fill="none" stroke="#000000" points="237,-282.5 237,-312.5 544,-312.5 544,-282.5 237,-282.5"/>
<text text-anchor="start" x="244" y="-293.9" font-family="Arial" font-size="14.00" fill="#000000">qr_code </text>
<text text-anchor="start" x="298.4642" y="-293.9" font-family="Arial" font-size="14.00" fill="#666666">[boolean]</text>
<polygon fill="none" stroke="#000000" points="237,-252.5 237,-282.5 544,-282.5 544,-252.5 237,-252.5"/>
<text text-anchor="start" x="244" y="-263.9" font-family="Arial" font-size="14.00" fill="#000000">module_id </text>
<text text-anchor="start" x="312.46" y="-263.9" font-family="Arial" font-size="14.00" fill="#666666">[integer]</text>
<polygon fill="none" stroke="#000000" points="237,-222.5 237,-252.5 544,-252.5 544,-222.5 237,-222.5"/>
<text text-anchor="start" x="244" y="-233.9" font-family="Arial" font-size="14.00" fill="#000000">payment_flow </text>
<text text-anchor="start" x="334.2412" y="-233.9" font-family="Arial" font-size="14.00" fill="#666666">[varchar]</text>
<polygon fill="none" stroke="#000000" points="237,-192.5 237,-222.5 544,-222.5 544,-192.5 237,-192.5"/>
<text text-anchor="start" x="244" y="-203.9" font-family="Arial" font-size="14.00" fill="#000000">create_uid </text>
<text text-anchor="start" x="313.244" y="-203.9" font-family="Arial" font-size="14.00" fill="#666666">[integer]</text>
<polygon fill="none" stroke="#000000" points="237,-162.5 237,-192.5 544,-192.5 544,-162.5 237,-162.5"/>
<text text-anchor="start" x="244" y="-173.9" font-family="Arial" font-size="14.00" fill="#000000">create_date </text>
<text text-anchor="start" x="321.8106" y="-173.9" font-family="Arial" font-size="14.00" fill="#666666">[timestamp without time zone]</text>
<polygon fill="none" stroke="#000000" points="237,-132.5 237,-162.5 544,-162.5 544,-132.5 237,-132.5"/>
<text text-anchor="start" x="244" y="-143.9" font-family="Arial" font-size="14.00" fill="#000000">write_uid </text>
<text text-anchor="start" x="303.892" y="-143.9" font-family="Arial" font-size="14.00" fill="#666666">[integer]</text>
<polygon fill="none" stroke="#000000" points="237,-102.5 237,-132.5 544,-132.5 544,-102.5 237,-102.5"/>
<text text-anchor="start" x="244" y="-113.9" font-family="Arial" font-size="14.00" fill="#000000">write_date </text>
<text text-anchor="start" x="312.4586" y="-113.9" font-family="Arial" font-size="14.00" fill="#666666">[timestamp without time zone]</text>
<polygon fill="none" stroke="#000000" points="237,-72.5 237,-102.5 544,-102.5 544,-72.5 237,-72.5"/>
<text text-anchor="start" x="244" y="-83.9" font-family="Arial" font-size="14.00" fill="#000000">so_reference_type </text>
<text text-anchor="start" x="363.819" y="-83.9" font-family="Arial" font-size="14.00" fill="#666666">[varchar]</text>
<polygon fill="none" stroke="#000000" points="237,-42.5 237,-72.5 544,-72.5 544,-42.5 237,-42.5"/>
<text text-anchor="start" x="244" y="-53.9" font-family="Arial" font-size="14.00" fill="#000000">website_id </text>
<text text-anchor="start" x="314.014" y="-53.9" font-family="Arial" font-size="14.00" fill="#666666">[integer]</text>
</g>
<!-- public.payment_country_rel&#45;&gt;public.payment_acquirer -->
<g id="edge1" class="edge">
<title>public.payment_country_rel:payment_id&#45;&gt;public.payment_acquirer:id</title>
<path fill="none" stroke="#000000" d="M411.7836,-1265.911C385.0058,-1256.365 400.2691,-1206.0696 422,-1177 455.849,-1131.7198 510.151,-1186.2802 544,-1141 568.881,-1107.7164 585.5556,-1047.5 544,-1047.5"/>
<polygon fill="#000000" stroke="#000000" points="412.1188,-1265.9631 421.3084,-1271.9465 417.0594,-1266.7315 422,-1267.5 422,-1267.5 422,-1267.5 417.0594,-1266.7315 422.6916,-1263.0535 412.1188,-1265.9631 412.1188,-1265.9631"/>
<text text-anchor="start" x="6.8205" y="-1277.5" font-family="Arial" font-size="10.00" fill="#000000">FOREIGN KEY (payment_id) REFERENCES payment_acquirer(id) ON DELETE CASCADE</text>
</g>
<!-- public.res_country -->
<g id="node3" class="node">
<title>public.res_country</title>
<polygon fill="#efefef" stroke="transparent" points="648,-747.5 648,-782.5 924,-782.5 924,-747.5 648,-747.5"/>
<polygon fill="none" stroke="#000000" points="648,-747.5 648,-782.5 924,-782.5 924,-747.5 648,-747.5"/>
<text text-anchor="start" x="664.3597" y="-760.3" font-family="Arial Bold" font-size="18.00" fill="#000000">public.res_country</text>
<text text-anchor="start" x="810.3865" y="-760.3" font-family="Arial" font-size="14.00" fill="#000000"> </text>
<text text-anchor="start" x="814.2771" y="-760.3" font-family="Arial" font-size="14.00" fill="#666666">[BASE TABLE]</text>
<polygon fill="none" stroke="#000000" points="648,-717.5 648,-747.5 924,-747.5 924,-717.5 648,-717.5"/>
<text text-anchor="start" x="655" y="-728.9" font-family="Arial" font-size="14.00" fill="#000000">id </text>
<text text-anchor="start" x="669.7798" y="-728.9" font-family="Arial" font-size="14.00" fill="#666666">[integer]</text>
<polygon fill="none" stroke="#000000" points="648,-687.5 648,-717.5 924,-717.5 924,-687.5 648,-687.5"/>
<text text-anchor="start" x="655" y="-698.9" font-family="Arial" font-size="14.00" fill="#000000">name </text>
<text text-anchor="start" x="693.899" y="-698.9" font-family="Arial" font-size="14.00" fill="#666666">[varchar]</text>
<polygon fill="none" stroke="#000000" points="648,-657.5 648,-687.5 924,-687.5 924,-657.5 648,-657.5"/>
<text text-anchor="start" x="655" y="-668.9" font-family="Arial" font-size="14.00" fill="#000000">code </text>
<text text-anchor="start" x="689.2384" y="-668.9" font-family="Arial" font-size="14.00" fill="#666666">[varchar(2)]</text>
<polygon fill="none" stroke="#000000" points="648,-627.5 648,-657.5 924,-657.5 924,-627.5 648,-627.5"/>
<text text-anchor="start" x="655" y="-638.9" font-family="Arial" font-size="14.00" fill="#000000">address_format </text>
<text text-anchor="start" x="756.1318" y="-638.9" font-family="Arial" font-size="14.00" fill="#666666">[text]</text>
<polygon fill="none" stroke="#000000" points="648,-597.5 648,-627.5 924,-627.5 924,-597.5 648,-597.5"/>
<text text-anchor="start" x="655" y="-608.9" font-family="Arial" font-size="14.00" fill="#000000">address_view_id </text>
<text text-anchor="start" x="763.1318" y="-608.9" font-family="Arial" font-size="14.00" fill="#666666">[integer]</text>
<polygon fill="none" stroke="#000000" points="648,-567.5 648,-597.5 924,-597.5 924,-567.5 648,-567.5"/>
<text text-anchor="start" x="655" y="-578.9" font-family="Arial" font-size="14.00" fill="#000000">currency_id </text>
<text text-anchor="start" x="731.2314" y="-578.9" font-family="Arial" font-size="14.00" fill="#666666">[integer]</text>
<polygon fill="none" stroke="#000000" points="648,-537.5 648,-567.5 924,-567.5 924,-537.5 648,-537.5"/>
<text text-anchor="start" x="655" y="-548.9" font-family="Arial" font-size="14.00" fill="#000000">phone_code </text>
<text text-anchor="start" x="735.934" y="-548.9" font-family="Arial" font-size="14.00" fill="#666666">[integer]</text>
<polygon fill="none" stroke="#000000" points="648,-507.5 648,-537.5 924,-537.5 924,-507.5 648,-507.5"/>
<text text-anchor="start" x="655" y="-518.9" font-family="Arial" font-size="14.00" fill="#000000">name_position </text>
<text text-anchor="start" x="749.9158" y="-518.9" font-family="Arial" font-size="14.00" fill="#666666">[varchar]</text>
<polygon fill="none" stroke="#000000" points="648,-477.5 648,-507.5 924,-507.5 924,-477.5 648,-477.5"/>
<text text-anchor="start" x="655" y="-488.9" font-family="Arial" font-size="14.00" fill="#000000">vat_label </text>
<text text-anchor="start" x="714.9074" y="-488.9" font-family="Arial" font-size="14.00" fill="#666666">[varchar]</text>
<polygon fill="none" stroke="#000000" points="648,-447.5 648,-477.5 924,-477.5 924,-447.5 648,-447.5"/>
<text text-anchor="start" x="655" y="-458.9" font-family="Arial" font-size="14.00" fill="#000000">create_uid </text>
<text text-anchor="start" x="724.244" y="-458.9" font-family="Arial" font-size="14.00" fill="#666666">[integer]</text>
<polygon fill="none" stroke="#000000" points="648,-417.5 648,-447.5 924,-447.5 924,-417.5 648,-417.5"/>
<text text-anchor="start" x="654.5246" y="-428.9" font-family="Arial" font-size="14.00" fill="#000000">create_date </text>
<text text-anchor="start" x="732.3352" y="-428.9" font-family="Arial" font-size="14.00" fill="#666666">[timestamp without time zone]</text>
<polygon fill="none" stroke="#000000" points="648,-387.5 648,-417.5 924,-417.5 924,-387.5 648,-387.5"/>
<text text-anchor="start" x="655" y="-398.9" font-family="Arial" font-size="14.00" fill="#000000">write_uid </text>
<text text-anchor="start" x="714.892" y="-398.9" font-family="Arial" font-size="14.00" fill="#666666">[integer]</text>
<polygon fill="none" stroke="#000000" points="648,-357.5 648,-387.5 924,-387.5 924,-357.5 648,-357.5"/>
<text text-anchor="start" x="655" y="-368.9" font-family="Arial" font-size="14.00" fill="#000000">write_date </text>
<text text-anchor="start" x="723.4586" y="-368.9" font-family="Arial" font-size="14.00" fill="#666666">[timestamp without time zone]</text>
</g>
<!-- public.payment_country_rel&#45;&gt;public.res_country -->
<g id="edge2" class="edge">
<title>public.payment_country_rel:country_id&#45;&gt;public.res_country:id</title>
<path fill="none" stroke="#000000" d="M762.9658,-1235.8668C845.9212,-1204.5216 537.1835,-732.5 648,-732.5"/>
<polygon fill="#000000" stroke="#000000" points="762.8684,-1235.8826 752.2722,-1233.0592 757.9342,-1236.6913 753,-1237.5 753,-1237.5 753,-1237.5 757.9342,-1236.6913 753.7278,-1241.9408 762.8684,-1235.8826 762.8684,-1235.8826"/>
<text text-anchor="start" x="760.492" y="-1247.5" font-family="Arial" font-size="10.00" fill="#000000">FOREIGN KEY (country_id) REFERENCES res_country(id) ON DELETE CASCADE</text>
</g>
</g>
</svg>
