<?xml version="1.0" encoding="UTF-8" standalone="no"?>
<!DOCTYPE svg PUBLIC "-//W3C//DTD SVG 1.1//EN"
 "http://www.w3.org/Graphics/SVG/1.1/DTD/svg11.dtd">
<!-- Generated by graphviz version 2.40.1 (20161225.0304)
 -->
<!-- Title: public.ir_ui_menu_group_rel Pages: 1 -->
<svg width="1078pt" height="712pt"
 viewBox="0.00 0.00 1078.00 712.00" xmlns="http://www.w3.org/2000/svg" xmlns:xlink="http://www.w3.org/1999/xlink">
<g id="graph0" class="graph" transform="scale(1 1) rotate(0) translate(4 708)">
<title>public.ir_ui_menu_group_rel</title>
<polygon fill="#ffffff" stroke="transparent" points="-4,4 -4,-708 1074,-708 1074,4 -4,4"/>
<!-- public.ir_ui_menu_group_rel -->
<g id="node1" class="node">
<title>public.ir_ui_menu_group_rel</title>
<polygon fill="#efefef" stroke="transparent" points="378,-622.5 378,-657.5 716,-657.5 716,-622.5 378,-622.5"/>
<polygon fill="none" stroke="#000000" points="378,-622.5 378,-657.5 716,-657.5 716,-622.5 378,-622.5"/>
<text text-anchor="start" x="384.8525" y="-635.3" font-family="Arial Bold" font-size="18.00" fill="#000000">public.ir_ui_menu_group_rel</text>
<text text-anchor="start" x="611.8937" y="-635.3" font-family="Arial" font-size="14.00" fill="#000000"> </text>
<text text-anchor="start" x="615.7843" y="-635.3" font-family="Arial" font-size="14.00" fill="#666666">[BASE TABLE]</text>
<polygon fill="none" stroke="#000000" points="378,-592.5 378,-622.5 716,-622.5 716,-592.5 378,-592.5"/>
<text text-anchor="start" x="385" y="-603.9" font-family="Arial" font-size="14.00" fill="#000000">menu_id </text>
<text text-anchor="start" x="442.5708" y="-603.9" font-family="Arial" font-size="14.00" fill="#666666">[integer]</text>
<polygon fill="none" stroke="#000000" points="378,-562.5 378,-592.5 716,-592.5 716,-562.5 378,-562.5"/>
<text text-anchor="start" x="385" y="-573.9" font-family="Arial" font-size="14.00" fill="#000000">gid </text>
<text text-anchor="start" x="407.5624" y="-573.9" font-family="Arial" font-size="14.00" fill="#666666">[integer]</text>
<polygon fill="none" stroke="#000000" stroke-width="3" points="376.5,-561.5 376.5,-659.5 717.5,-659.5 717.5,-561.5 376.5,-561.5"/>
</g>
<!-- public.ir_ui_menu -->
<g id="node2" class="node">
<title>public.ir_ui_menu</title>
<polygon fill="#efefef" stroke="transparent" points="219,-402.5 219,-437.5 495,-437.5 495,-402.5 219,-402.5"/>
<polygon fill="none" stroke="#000000" points="219,-402.5 219,-437.5 495,-437.5 495,-402.5 219,-402.5"/>
<text text-anchor="start" x="237.8635" y="-415.3" font-family="Arial Bold" font-size="18.00" fill="#000000">public.ir_ui_menu</text>
<text text-anchor="start" x="378.8827" y="-415.3" font-family="Arial" font-size="14.00" fill="#000000"> </text>
<text text-anchor="start" x="382.7733" y="-415.3" font-family="Arial" font-size="14.00" fill="#666666">[BASE TABLE]</text>
<polygon fill="none" stroke="#000000" points="219,-372.5 219,-402.5 495,-402.5 495,-372.5 219,-372.5"/>
<text text-anchor="start" x="226" y="-383.9" font-family="Arial" font-size="14.00" fill="#000000">id </text>
<text text-anchor="start" x="240.7798" y="-383.9" font-family="Arial" font-size="14.00" fill="#666666">[integer]</text>
<polygon fill="none" stroke="#000000" points="219,-342.5 219,-372.5 495,-372.5 495,-342.5 219,-342.5"/>
<text text-anchor="start" x="226" y="-353.9" font-family="Arial" font-size="14.00" fill="#000000">parent_path </text>
<text text-anchor="start" x="304.5932" y="-353.9" font-family="Arial" font-size="14.00" fill="#666666">[varchar]</text>
<polygon fill="none" stroke="#000000" points="219,-312.5 219,-342.5 495,-342.5 495,-312.5 219,-312.5"/>
<text text-anchor="start" x="226" y="-323.9" font-family="Arial" font-size="14.00" fill="#000000">name </text>
<text text-anchor="start" x="264.899" y="-323.9" font-family="Arial" font-size="14.00" fill="#666666">[varchar]</text>
<polygon fill="none" stroke="#000000" points="219,-282.5 219,-312.5 495,-312.5 495,-282.5 219,-282.5"/>
<text text-anchor="start" x="226" y="-293.9" font-family="Arial" font-size="14.00" fill="#000000">active </text>
<text text-anchor="start" x="266.453" y="-293.9" font-family="Arial" font-size="14.00" fill="#666666">[boolean]</text>
<polygon fill="none" stroke="#000000" points="219,-252.5 219,-282.5 495,-282.5 495,-252.5 219,-252.5"/>
<text text-anchor="start" x="226" y="-263.9" font-family="Arial" font-size="14.00" fill="#000000">sequence </text>
<text text-anchor="start" x="290.5862" y="-263.9" font-family="Arial" font-size="14.00" fill="#666666">[integer]</text>
<polygon fill="none" stroke="#000000" points="219,-222.5 219,-252.5 495,-252.5 495,-222.5 219,-222.5"/>
<text text-anchor="start" x="226" y="-233.9" font-family="Arial" font-size="14.00" fill="#000000">parent_id </text>
<text text-anchor="start" x="288.244" y="-233.9" font-family="Arial" font-size="14.00" fill="#666666">[integer]</text>
<polygon fill="none" stroke="#000000" points="219,-192.5 219,-222.5 495,-222.5 495,-192.5 219,-192.5"/>
<text text-anchor="start" x="226" y="-203.9" font-family="Arial" font-size="14.00" fill="#000000">web_icon </text>
<text text-anchor="start" x="289.0168" y="-203.9" font-family="Arial" font-size="14.00" fill="#666666">[varchar]</text>
<polygon fill="none" stroke="#000000" points="219,-162.5 219,-192.5 495,-192.5 495,-162.5 219,-162.5"/>
<text text-anchor="start" x="226" y="-173.9" font-family="Arial" font-size="14.00" fill="#000000">action </text>
<text text-anchor="start" x="267.2356" y="-173.9" font-family="Arial" font-size="14.00" fill="#666666">[varchar]</text>
<polygon fill="none" stroke="#000000" points="219,-132.5 219,-162.5 495,-162.5 495,-132.5 219,-132.5"/>
<text text-anchor="start" x="226" y="-143.9" font-family="Arial" font-size="14.00" fill="#000000">create_uid </text>
<text text-anchor="start" x="295.244" y="-143.9" font-family="Arial" font-size="14.00" fill="#666666">[integer]</text>
<polygon fill="none" stroke="#000000" points="219,-102.5 219,-132.5 495,-132.5 495,-102.5 219,-102.5"/>
<text text-anchor="start" x="225.5246" y="-113.9" font-family="Arial" font-size="14.00" fill="#000000">create_date </text>
<text text-anchor="start" x="303.3352" y="-113.9" font-family="Arial" font-size="14.00" fill="#666666">[timestamp without time zone]</text>
<polygon fill="none" stroke="#000000" points="219,-72.5 219,-102.5 495,-102.5 495,-72.5 219,-72.5"/>
<text text-anchor="start" x="226" y="-83.9" font-family="Arial" font-size="14.00" fill="#000000">write_uid </text>
<text text-anchor="start" x="285.892" y="-83.9" font-family="Arial" font-size="14.00" fill="#666666">[integer]</text>
<polygon fill="none" stroke="#000000" points="219,-42.5 219,-72.5 495,-72.5 495,-42.5 219,-42.5"/>
<text text-anchor="start" x="226" y="-53.9" font-family="Arial" font-size="14.00" fill="#000000">write_date </text>
<text text-anchor="start" x="294.4586" y="-53.9" font-family="Arial" font-size="14.00" fill="#666666">[timestamp without time zone]</text>
</g>
<!-- public.ir_ui_menu_group_rel&#45;&gt;public.ir_ui_menu -->
<g id="edge1" class="edge">
<title>public.ir_ui_menu_group_rel:menu_id&#45;&gt;public.ir_ui_menu:id</title>
<path fill="none" stroke="#000000" d="M367.7884,-605.9146C341.0387,-596.3894 356.4375,-546.1947 378,-517 410.3226,-473.2365 462.6774,-524.7635 495,-481 519.6882,-447.5731 536.5556,-387.5 495,-387.5"/>
<polygon fill="#000000" stroke="#000000" points="368.1184,-605.9658 377.3096,-611.9467 373.0592,-606.7329 378,-607.5 378,-607.5 378,-607.5 373.0592,-606.7329 378.6904,-603.0533 368.1184,-605.9658 368.1184,-605.9658"/>
<text text-anchor="start" x="6.7725" y="-617.5" font-family="Arial" font-size="10.00" fill="#000000">FOREIGN KEY (menu_id) REFERENCES ir_ui_menu(id) ON DELETE CASCADE</text>
</g>
<!-- public.res_groups -->
<g id="node3" class="node">
<title>public.res_groups</title>
<polygon fill="#efefef" stroke="transparent" points="599,-372.5 599,-407.5 875,-407.5 875,-372.5 599,-372.5"/>
<polygon fill="none" stroke="#000000" points="599,-372.5 599,-407.5 875,-407.5 875,-372.5 599,-372.5"/>
<text text-anchor="start" x="617.3577" y="-385.3" font-family="Arial Bold" font-size="18.00" fill="#000000">public.res_groups</text>
<text text-anchor="start" x="759.3885" y="-385.3" font-family="Arial" font-size="14.00" fill="#000000"> </text>
<text text-anchor="start" x="763.2791" y="-385.3" font-family="Arial" font-size="14.00" fill="#666666">[BASE TABLE]</text>
<polygon fill="none" stroke="#000000" points="599,-342.5 599,-372.5 875,-372.5 875,-342.5 599,-342.5"/>
<text text-anchor="start" x="606" y="-353.9" font-family="Arial" font-size="14.00" fill="#000000">id </text>
<text text-anchor="start" x="620.7798" y="-353.9" font-family="Arial" font-size="14.00" fill="#666666">[integer]</text>
<polygon fill="none" stroke="#000000" points="599,-312.5 599,-342.5 875,-342.5 875,-312.5 599,-312.5"/>
<text text-anchor="start" x="606" y="-323.9" font-family="Arial" font-size="14.00" fill="#000000">name </text>
<text text-anchor="start" x="644.899" y="-323.9" font-family="Arial" font-size="14.00" fill="#666666">[varchar]</text>
<polygon fill="none" stroke="#000000" points="599,-282.5 599,-312.5 875,-312.5 875,-282.5 599,-282.5"/>
<text text-anchor="start" x="606" y="-293.9" font-family="Arial" font-size="14.00" fill="#000000">comment </text>
<text text-anchor="start" x="667.4502" y="-293.9" font-family="Arial" font-size="14.00" fill="#666666">[text]</text>
<polygon fill="none" stroke="#000000" points="599,-252.5 599,-282.5 875,-282.5 875,-252.5 599,-252.5"/>
<text text-anchor="start" x="606" y="-263.9" font-family="Arial" font-size="14.00" fill="#000000">category_id </text>
<text text-anchor="start" x="682.244" y="-263.9" font-family="Arial" font-size="14.00" fill="#666666">[integer]</text>
<polygon fill="none" stroke="#000000" points="599,-222.5 599,-252.5 875,-252.5 875,-222.5 599,-222.5"/>
<text text-anchor="start" x="606" y="-233.9" font-family="Arial" font-size="14.00" fill="#000000">color </text>
<text text-anchor="start" x="640.223" y="-233.9" font-family="Arial" font-size="14.00" fill="#666666">[integer]</text>
<polygon fill="none" stroke="#000000" points="599,-192.5 599,-222.5 875,-222.5 875,-192.5 599,-192.5"/>
<text text-anchor="start" x="606" y="-203.9" font-family="Arial" font-size="14.00" fill="#000000">share </text>
<text text-anchor="start" x="644.899" y="-203.9" font-family="Arial" font-size="14.00" fill="#666666">[boolean]</text>
<polygon fill="none" stroke="#000000" points="599,-162.5 599,-192.5 875,-192.5 875,-162.5 599,-162.5"/>
<text text-anchor="start" x="606" y="-173.9" font-family="Arial" font-size="14.00" fill="#000000">create_uid </text>
<text text-anchor="start" x="675.244" y="-173.9" font-family="Arial" font-size="14.00" fill="#666666">[integer]</text>
<polygon fill="none" stroke="#000000" points="599,-132.5 599,-162.5 875,-162.5 875,-132.5 599,-132.5"/>
<text text-anchor="start" x="605.5246" y="-143.9" font-family="Arial" font-size="14.00" fill="#000000">create_date </text>
<text text-anchor="start" x="683.3352" y="-143.9" font-family="Arial" font-size="14.00" fill="#666666">[timestamp without time zone]</text>
<polygon fill="none" stroke="#000000" points="599,-102.5 599,-132.5 875,-132.5 875,-102.5 599,-102.5"/>
<text text-anchor="start" x="606" y="-113.9" font-family="Arial" font-size="14.00" fill="#000000">write_uid </text>
<text text-anchor="start" x="665.892" y="-113.9" font-family="Arial" font-size="14.00" fill="#666666">[integer]</text>
<polygon fill="none" stroke="#000000" points="599,-72.5 599,-102.5 875,-102.5 875,-72.5 599,-72.5"/>
<text text-anchor="start" x="606" y="-83.9" font-family="Arial" font-size="14.00" fill="#000000">write_date </text>
<text text-anchor="start" x="674.4586" y="-83.9" font-family="Arial" font-size="14.00" fill="#666666">[timestamp without time zone]</text>
</g>
<!-- public.ir_ui_menu_group_rel&#45;&gt;public.res_groups -->
<g id="edge2" class="edge">
<title>public.ir_ui_menu_group_rel:gid&#45;&gt;public.res_groups:id</title>
<path fill="none" stroke="#000000" d="M725.8111,-574.9653C738.7181,-566.193 727.4418,-536.591 716,-517 685.8906,-465.4455 629.1094,-502.5545 599,-451 578.0427,-415.1161 557.4444,-357.5 599,-357.5"/>
<polygon fill="#000000" stroke="#000000" points="725.6821,-574.9986 714.8744,-573.1431 720.8411,-576.2493 716,-577.5 716,-577.5 716,-577.5 720.8411,-576.2493 717.1256,-581.8569 725.6821,-574.9986 725.6821,-574.9986"/>
<text text-anchor="start" x="722.9945" y="-587.5" font-family="Arial" font-size="10.00" fill="#000000">FOREIGN KEY (gid) REFERENCES res_groups(id) ON DELETE CASCADE</text>
</g>
</g>
</svg>
