<?xml version="1.0" encoding="UTF-8" standalone="no"?>
<!DOCTYPE svg PUBLIC "-//W3C//DTD SVG 1.1//EN"
 "http://www.w3.org/Graphics/SVG/1.1/DTD/svg11.dtd">
<!-- Generated by graphviz version 2.40.1 (20161225.0304)
 -->
<!-- Title: public.res_groups_users_rel Pages: 1 -->
<svg width="1046pt" height="1012pt"
 viewBox="0.00 0.00 1046.00 1012.00" xmlns="http://www.w3.org/2000/svg" xmlns:xlink="http://www.w3.org/1999/xlink">
<g id="graph0" class="graph" transform="scale(1 1) rotate(0) translate(4 1008)">
<title>public.res_groups_users_rel</title>
<polygon fill="#ffffff" stroke="transparent" points="-4,4 -4,-1008 1042,-1008 1042,4 -4,4"/>
<!-- public.res_groups_users_rel -->
<g id="node1" class="node">
<title>public.res_groups_users_rel</title>
<polygon fill="#efefef" stroke="transparent" points="354,-922.5 354,-957.5 691,-957.5 691,-922.5 354,-922.5"/>
<polygon fill="none" stroke="#000000" points="354,-922.5 354,-957.5 691,-957.5 691,-922.5 354,-922.5"/>
<text text-anchor="start" x="360.8529" y="-935.3" font-family="Arial Bold" font-size="18.00" fill="#000000">public.res_groups_users_rel</text>
<text text-anchor="start" x="586.8933" y="-935.3" font-family="Arial" font-size="14.00" fill="#000000"> </text>
<text text-anchor="start" x="590.7839" y="-935.3" font-family="Arial" font-size="14.00" fill="#666666">[BASE TABLE]</text>
<polygon fill="none" stroke="#000000" points="354,-892.5 354,-922.5 691,-922.5 691,-892.5 354,-892.5"/>
<text text-anchor="start" x="361" y="-903.9" font-family="Arial" font-size="14.00" fill="#000000">gid </text>
<text text-anchor="start" x="383.5624" y="-903.9" font-family="Arial" font-size="14.00" fill="#666666">[integer]</text>
<polygon fill="none" stroke="#000000" points="354,-862.5 354,-892.5 691,-892.5 691,-862.5 354,-862.5"/>
<text text-anchor="start" x="361" y="-873.9" font-family="Arial" font-size="14.00" fill="#000000">uid </text>
<text text-anchor="start" x="383.5624" y="-873.9" font-family="Arial" font-size="14.00" fill="#666666">[integer]</text>
<polygon fill="none" stroke="#000000" stroke-width="3" points="352,-861.5 352,-959.5 692,-959.5 692,-861.5 352,-861.5"/>
</g>
<!-- public.res_groups -->
<g id="node2" class="node">
<title>public.res_groups</title>
<polygon fill="#efefef" stroke="transparent" points="195,-522.5 195,-557.5 471,-557.5 471,-522.5 195,-522.5"/>
<polygon fill="none" stroke="#000000" points="195,-522.5 195,-557.5 471,-557.5 471,-522.5 195,-522.5"/>
<text text-anchor="start" x="213.3577" y="-535.3" font-family="Arial Bold" font-size="18.00" fill="#000000">public.res_groups</text>
<text text-anchor="start" x="355.3885" y="-535.3" font-family="Arial" font-size="14.00" fill="#000000"> </text>
<text text-anchor="start" x="359.2791" y="-535.3" font-family="Arial" font-size="14.00" fill="#666666">[BASE TABLE]</text>
<polygon fill="none" stroke="#000000" points="195,-492.5 195,-522.5 471,-522.5 471,-492.5 195,-492.5"/>
<text text-anchor="start" x="202" y="-503.9" font-family="Arial" font-size="14.00" fill="#000000">id </text>
<text text-anchor="start" x="216.7798" y="-503.9" font-family="Arial" font-size="14.00" fill="#666666">[integer]</text>
<polygon fill="none" stroke="#000000" points="195,-462.5 195,-492.5 471,-492.5 471,-462.5 195,-462.5"/>
<text text-anchor="start" x="202" y="-473.9" font-family="Arial" font-size="14.00" fill="#000000">name </text>
<text text-anchor="start" x="240.899" y="-473.9" font-family="Arial" font-size="14.00" fill="#666666">[varchar]</text>
<polygon fill="none" stroke="#000000" points="195,-432.5 195,-462.5 471,-462.5 471,-432.5 195,-432.5"/>
<text text-anchor="start" x="202" y="-443.9" font-family="Arial" font-size="14.00" fill="#000000">comment </text>
<text text-anchor="start" x="263.4502" y="-443.9" font-family="Arial" font-size="14.00" fill="#666666">[text]</text>
<polygon fill="none" stroke="#000000" points="195,-402.5 195,-432.5 471,-432.5 471,-402.5 195,-402.5"/>
<text text-anchor="start" x="202" y="-413.9" font-family="Arial" font-size="14.00" fill="#000000">category_id </text>
<text text-anchor="start" x="278.244" y="-413.9" font-family="Arial" font-size="14.00" fill="#666666">[integer]</text>
<polygon fill="none" stroke="#000000" points="195,-372.5 195,-402.5 471,-402.5 471,-372.5 195,-372.5"/>
<text text-anchor="start" x="202" y="-383.9" font-family="Arial" font-size="14.00" fill="#000000">color </text>
<text text-anchor="start" x="236.223" y="-383.9" font-family="Arial" font-size="14.00" fill="#666666">[integer]</text>
<polygon fill="none" stroke="#000000" points="195,-342.5 195,-372.5 471,-372.5 471,-342.5 195,-342.5"/>
<text text-anchor="start" x="202" y="-353.9" font-family="Arial" font-size="14.00" fill="#000000">share </text>
<text text-anchor="start" x="240.899" y="-353.9" font-family="Arial" font-size="14.00" fill="#666666">[boolean]</text>
<polygon fill="none" stroke="#000000" points="195,-312.5 195,-342.5 471,-342.5 471,-312.5 195,-312.5"/>
<text text-anchor="start" x="202" y="-323.9" font-family="Arial" font-size="14.00" fill="#000000">create_uid </text>
<text text-anchor="start" x="271.244" y="-323.9" font-family="Arial" font-size="14.00" fill="#666666">[integer]</text>
<polygon fill="none" stroke="#000000" points="195,-282.5 195,-312.5 471,-312.5 471,-282.5 195,-282.5"/>
<text text-anchor="start" x="201.5246" y="-293.9" font-family="Arial" font-size="14.00" fill="#000000">create_date </text>
<text text-anchor="start" x="279.3352" y="-293.9" font-family="Arial" font-size="14.00" fill="#666666">[timestamp without time zone]</text>
<polygon fill="none" stroke="#000000" points="195,-252.5 195,-282.5 471,-282.5 471,-252.5 195,-252.5"/>
<text text-anchor="start" x="202" y="-263.9" font-family="Arial" font-size="14.00" fill="#000000">write_uid </text>
<text text-anchor="start" x="261.892" y="-263.9" font-family="Arial" font-size="14.00" fill="#666666">[integer]</text>
<polygon fill="none" stroke="#000000" points="195,-222.5 195,-252.5 471,-252.5 471,-222.5 195,-222.5"/>
<text text-anchor="start" x="202" y="-233.9" font-family="Arial" font-size="14.00" fill="#000000">write_date </text>
<text text-anchor="start" x="270.4586" y="-233.9" font-family="Arial" font-size="14.00" fill="#666666">[timestamp without time zone]</text>
</g>
<!-- public.res_groups_users_rel&#45;&gt;public.res_groups -->
<g id="edge1" class="edge">
<title>public.res_groups_users_rel:gid&#45;&gt;public.res_groups:id</title>
<path fill="none" stroke="#000000" d="M343.9067,-907.0482C187.5578,-892.0276 652.609,-507.5 471,-507.5"/>
<polygon fill="#000000" stroke="#000000" points="344.01,-907.0527 353.7987,-911.9955 349.005,-907.2764 354,-907.5 354,-907.5 354,-907.5 349.005,-907.2764 354.2013,-903.0045 344.01,-907.0527 344.01,-907.0527"/>
<text text-anchor="start" x="6.9945" y="-917.5" font-family="Arial" font-size="10.00" fill="#000000">FOREIGN KEY (gid) REFERENCES res_groups(id) ON DELETE CASCADE</text>
</g>
<!-- public.res_users -->
<g id="node3" class="node">
<title>public.res_users</title>
<polygon fill="#efefef" stroke="transparent" points="575,-702.5 575,-737.5 851,-737.5 851,-702.5 575,-702.5"/>
<polygon fill="none" stroke="#000000" points="575,-702.5 575,-737.5 851,-737.5 851,-702.5 575,-702.5"/>
<text text-anchor="start" x="598.8639" y="-715.3" font-family="Arial Bold" font-size="18.00" fill="#000000">public.res_users</text>
<text text-anchor="start" x="729.8823" y="-715.3" font-family="Arial" font-size="14.00" fill="#000000"> </text>
<text text-anchor="start" x="733.7729" y="-715.3" font-family="Arial" font-size="14.00" fill="#666666">[BASE TABLE]</text>
<polygon fill="none" stroke="#000000" points="575,-672.5 575,-702.5 851,-702.5 851,-672.5 575,-672.5"/>
<text text-anchor="start" x="582" y="-683.9" font-family="Arial" font-size="14.00" fill="#000000">id </text>
<text text-anchor="start" x="596.7798" y="-683.9" font-family="Arial" font-size="14.00" fill="#666666">[integer]</text>
<polygon fill="none" stroke="#000000" points="575,-642.5 575,-672.5 851,-672.5 851,-642.5 575,-642.5"/>
<text text-anchor="start" x="582" y="-653.9" font-family="Arial" font-size="14.00" fill="#000000">active </text>
<text text-anchor="start" x="622.453" y="-653.9" font-family="Arial" font-size="14.00" fill="#666666">[boolean]</text>
<polygon fill="none" stroke="#000000" points="575,-612.5 575,-642.5 851,-642.5 851,-612.5 575,-612.5"/>
<text text-anchor="start" x="582" y="-623.9" font-family="Arial" font-size="14.00" fill="#000000">login </text>
<text text-anchor="start" x="615.4516" y="-623.9" font-family="Arial" font-size="14.00" fill="#666666">[varchar]</text>
<polygon fill="none" stroke="#000000" points="575,-582.5 575,-612.5 851,-612.5 851,-582.5 575,-582.5"/>
<text text-anchor="start" x="582" y="-593.9" font-family="Arial" font-size="14.00" fill="#000000">password </text>
<text text-anchor="start" x="645.7882" y="-593.9" font-family="Arial" font-size="14.00" fill="#666666">[varchar]</text>
<polygon fill="none" stroke="#000000" points="575,-552.5 575,-582.5 851,-582.5 851,-552.5 575,-552.5"/>
<text text-anchor="start" x="582" y="-563.9" font-family="Arial" font-size="14.00" fill="#000000">company_id </text>
<text text-anchor="start" x="661.3534" y="-563.9" font-family="Arial" font-size="14.00" fill="#666666">[integer]</text>
<polygon fill="none" stroke="#000000" points="575,-522.5 575,-552.5 851,-552.5 851,-522.5 575,-522.5"/>
<text text-anchor="start" x="582" y="-533.9" font-family="Arial" font-size="14.00" fill="#000000">partner_id </text>
<text text-anchor="start" x="648.9046" y="-533.9" font-family="Arial" font-size="14.00" fill="#666666">[integer]</text>
<polygon fill="none" stroke="#000000" points="575,-492.5 575,-522.5 851,-522.5 851,-492.5 575,-492.5"/>
<text text-anchor="start" x="581.5246" y="-503.9" font-family="Arial" font-size="14.00" fill="#000000">create_date </text>
<text text-anchor="start" x="659.3352" y="-503.9" font-family="Arial" font-size="14.00" fill="#666666">[timestamp without time zone]</text>
<polygon fill="none" stroke="#000000" points="575,-462.5 575,-492.5 851,-492.5 851,-462.5 575,-462.5"/>
<text text-anchor="start" x="582" y="-473.9" font-family="Arial" font-size="14.00" fill="#000000">signature </text>
<text text-anchor="start" x="643.4614" y="-473.9" font-family="Arial" font-size="14.00" fill="#666666">[text]</text>
<polygon fill="none" stroke="#000000" points="575,-432.5 575,-462.5 851,-462.5 851,-432.5 575,-432.5"/>
<text text-anchor="start" x="582" y="-443.9" font-family="Arial" font-size="14.00" fill="#000000">action_id </text>
<text text-anchor="start" x="641.9074" y="-443.9" font-family="Arial" font-size="14.00" fill="#666666">[integer]</text>
<polygon fill="none" stroke="#000000" points="575,-402.5 575,-432.5 851,-432.5 851,-402.5 575,-402.5"/>
<text text-anchor="start" x="582" y="-413.9" font-family="Arial" font-size="14.00" fill="#000000">share </text>
<text text-anchor="start" x="620.899" y="-413.9" font-family="Arial" font-size="14.00" fill="#666666">[boolean]</text>
<polygon fill="none" stroke="#000000" points="575,-372.5 575,-402.5 851,-402.5 851,-372.5 575,-372.5"/>
<text text-anchor="start" x="582" y="-383.9" font-family="Arial" font-size="14.00" fill="#000000">create_uid </text>
<text text-anchor="start" x="651.244" y="-383.9" font-family="Arial" font-size="14.00" fill="#666666">[integer]</text>
<polygon fill="none" stroke="#000000" points="575,-342.5 575,-372.5 851,-372.5 851,-342.5 575,-342.5"/>
<text text-anchor="start" x="582" y="-353.9" font-family="Arial" font-size="14.00" fill="#000000">write_uid </text>
<text text-anchor="start" x="641.892" y="-353.9" font-family="Arial" font-size="14.00" fill="#666666">[integer]</text>
<polygon fill="none" stroke="#000000" points="575,-312.5 575,-342.5 851,-342.5 851,-312.5 575,-312.5"/>
<text text-anchor="start" x="582" y="-323.9" font-family="Arial" font-size="14.00" fill="#000000">write_date </text>
<text text-anchor="start" x="650.4586" y="-323.9" font-family="Arial" font-size="14.00" fill="#666666">[timestamp without time zone]</text>
<polygon fill="none" stroke="#000000" points="575,-282.5 575,-312.5 851,-312.5 851,-282.5 575,-282.5"/>
<text text-anchor="start" x="582" y="-293.9" font-family="Arial" font-size="14.00" fill="#000000">alias_id </text>
<text text-anchor="start" x="633.3408" y="-293.9" font-family="Arial" font-size="14.00" fill="#666666">[integer]</text>
<polygon fill="none" stroke="#000000" points="575,-252.5 575,-282.5 851,-282.5 851,-252.5 575,-252.5"/>
<text text-anchor="start" x="582" y="-263.9" font-family="Arial" font-size="14.00" fill="#000000">notification_type </text>
<text text-anchor="start" x="687.0336" y="-263.9" font-family="Arial" font-size="14.00" fill="#666666">[varchar]</text>
<polygon fill="none" stroke="#000000" points="575,-222.5 575,-252.5 851,-252.5 851,-222.5 575,-222.5"/>
<text text-anchor="start" x="582" y="-233.9" font-family="Arial" font-size="14.00" fill="#000000">odoobot_state </text>
<text text-anchor="start" x="674.6058" y="-233.9" font-family="Arial" font-size="14.00" fill="#666666">[varchar]</text>
<polygon fill="none" stroke="#000000" points="575,-192.5 575,-222.5 851,-222.5 851,-192.5 575,-192.5"/>
<text text-anchor="start" x="582" y="-203.9" font-family="Arial" font-size="14.00" fill="#000000">sale_team_id </text>
<text text-anchor="start" x="669.1332" y="-203.9" font-family="Arial" font-size="14.00" fill="#666666">[integer]</text>
<polygon fill="none" stroke="#000000" points="575,-162.5 575,-192.5 851,-192.5 851,-162.5 575,-162.5"/>
<text text-anchor="start" x="582" y="-173.9" font-family="Arial" font-size="14.00" fill="#000000">target_sales_won </text>
<text text-anchor="start" x="695.589" y="-173.9" font-family="Arial" font-size="14.00" fill="#666666">[integer]</text>
<polygon fill="none" stroke="#000000" points="575,-132.5 575,-162.5 851,-162.5 851,-132.5 575,-132.5"/>
<text text-anchor="start" x="582" y="-143.9" font-family="Arial" font-size="14.00" fill="#000000">target_sales_done </text>
<text text-anchor="start" x="701.0476" y="-143.9" font-family="Arial" font-size="14.00" fill="#666666">[integer]</text>
<polygon fill="none" stroke="#000000" points="575,-102.5 575,-132.5 851,-132.5 851,-102.5 575,-102.5"/>
<text text-anchor="start" x="582" y="-113.9" font-family="Arial" font-size="14.00" fill="#000000">website_id </text>
<text text-anchor="start" x="652.014" y="-113.9" font-family="Arial" font-size="14.00" fill="#666666">[integer]</text>
<polygon fill="none" stroke="#000000" points="575,-72.5 575,-102.5 851,-102.5 851,-72.5 575,-72.5"/>
<text text-anchor="start" x="582" y="-83.9" font-family="Arial" font-size="14.00" fill="#000000">target_sales_invoiced </text>
<text text-anchor="start" x="721.2608" y="-83.9" font-family="Arial" font-size="14.00" fill="#666666">[integer]</text>
<polygon fill="none" stroke="#000000" points="575,-42.5 575,-72.5 851,-72.5 851,-42.5 575,-42.5"/>
<text text-anchor="start" x="582" y="-53.9" font-family="Arial" font-size="14.00" fill="#000000">pos_security_pin </text>
<text text-anchor="start" x="690.9158" y="-53.9" font-family="Arial" font-size="14.00" fill="#666666">[varchar(32)]</text>
</g>
<!-- public.res_groups_users_rel&#45;&gt;public.res_users -->
<g id="edge2" class="edge">
<title>public.res_groups_users_rel:uid&#45;&gt;public.res_users:id</title>
<path fill="none" stroke="#000000" d="M700.9587,-874.8683C714.3478,-865.7789 704.4566,-835.2659 691,-817 658.9822,-773.5392 607.0178,-824.4608 575,-781 550.3523,-747.5433 533.4444,-687.5 575,-687.5"/>
<polygon fill="#000000" stroke="#000000" points="700.6681,-874.945 689.8502,-873.1494 695.8341,-876.2225 691,-877.5 691,-877.5 691,-877.5 695.8341,-876.2225 692.1498,-881.8506 700.6681,-874.945 700.6681,-874.945"/>
<text text-anchor="start" x="698.0535" y="-887.5" font-family="Arial" font-size="10.00" fill="#000000">FOREIGN KEY (uid) REFERENCES res_users(id) ON DELETE CASCADE</text>
</g>
</g>
</svg>
