<?xml version="1.0" encoding="UTF-8" standalone="no"?>
<!DOCTYPE svg PUBLIC "-//W3C//DTD SVG 1.1//EN"
 "http://www.w3.org/Graphics/SVG/1.1/DTD/svg11.dtd">
<!-- Generated by graphviz version 2.40.1 (20161225.0304)
 -->
<!-- Title: public.purchase_order_stock_picking_rel Pages: 1 -->
<svg width="1313pt" height="1282pt"
 viewBox="0.00 0.00 1313.00 1282.00" xmlns="http://www.w3.org/2000/svg" xmlns:xlink="http://www.w3.org/1999/xlink">
<g id="graph0" class="graph" transform="scale(1 1) rotate(0) translate(4 1278)">
<title>public.purchase_order_stock_picking_rel</title>
<polygon fill="#ffffff" stroke="transparent" points="-4,4 -4,-1278 1309,-1278 1309,4 -4,4"/>
<!-- public.purchase_order_stock_picking_rel -->
<g id="node1" class="node">
<title>public.purchase_order_stock_picking_rel</title>
<polygon fill="#efefef" stroke="transparent" points="444,-1192.5 444,-1227.5 881,-1227.5 881,-1192.5 444,-1192.5"/>
<polygon fill="none" stroke="#000000" points="444,-1192.5 444,-1227.5 881,-1227.5 881,-1192.5 444,-1192.5"/>
<text text-anchor="start" x="450.839" y="-1205.3" font-family="Arial Bold" font-size="18.00" fill="#000000">public.purchase_order_stock_picking_rel</text>
<text text-anchor="start" x="776.9072" y="-1205.3" font-family="Arial" font-size="14.00" fill="#000000"> </text>
<text text-anchor="start" x="780.7978" y="-1205.3" font-family="Arial" font-size="14.00" fill="#666666">[BASE TABLE]</text>
<polygon fill="none" stroke="#000000" points="444,-1162.5 444,-1192.5 881,-1192.5 881,-1162.5 444,-1162.5"/>
<text text-anchor="start" x="451" y="-1173.9" font-family="Arial" font-size="14.00" fill="#000000">purchase_order_id </text>
<text text-anchor="start" x="571.5876" y="-1173.9" font-family="Arial" font-size="14.00" fill="#666666">[integer]</text>
<polygon fill="none" stroke="#000000" points="444,-1132.5 444,-1162.5 881,-1162.5 881,-1132.5 444,-1132.5"/>
<text text-anchor="start" x="451" y="-1143.9" font-family="Arial" font-size="14.00" fill="#000000">stock_picking_id </text>
<text text-anchor="start" x="557.5792" y="-1143.9" font-family="Arial" font-size="14.00" fill="#666666">[integer]</text>
<polygon fill="none" stroke="#000000" stroke-width="3" points="442,-1131.5 442,-1229.5 882,-1229.5 882,-1131.5 442,-1131.5"/>
</g>
<!-- public.purchase_order -->
<g id="node2" class="node">
<title>public.purchase_order</title>
<polygon fill="#efefef" stroke="transparent" points="319,-972.5 319,-1007.5 608,-1007.5 608,-972.5 319,-972.5"/>
<polygon fill="none" stroke="#000000" points="319,-972.5 319,-1007.5 608,-1007.5 608,-972.5 319,-972.5"/>
<text text-anchor="start" x="325.8523" y="-985.3" font-family="Arial Bold" font-size="18.00" fill="#000000">public.purchase_order</text>
<text text-anchor="start" x="503.8939" y="-985.3" font-family="Arial" font-size="14.00" fill="#000000"> </text>
<text text-anchor="start" x="507.7845" y="-985.3" font-family="Arial" font-size="14.00" fill="#666666">[BASE TABLE]</text>
<polygon fill="none" stroke="#000000" points="319,-942.5 319,-972.5 608,-972.5 608,-942.5 319,-942.5"/>
<text text-anchor="start" x="326" y="-953.9" font-family="Arial" font-size="14.00" fill="#000000">id </text>
<text text-anchor="start" x="340.7798" y="-953.9" font-family="Arial" font-size="14.00" fill="#666666">[integer]</text>
<polygon fill="none" stroke="#000000" points="319,-912.5 319,-942.5 608,-942.5 608,-912.5 319,-912.5"/>
<text text-anchor="start" x="326" y="-923.9" font-family="Arial" font-size="14.00" fill="#000000">access_token </text>
<text text-anchor="start" x="415.4768" y="-923.9" font-family="Arial" font-size="14.00" fill="#666666">[varchar]</text>
<polygon fill="none" stroke="#000000" points="319,-882.5 319,-912.5 608,-912.5 608,-882.5 319,-882.5"/>
<text text-anchor="start" x="326" y="-893.9" font-family="Arial" font-size="14.00" fill="#000000">message_main_attachment_id </text>
<text text-anchor="start" x="520.4964" y="-893.9" font-family="Arial" font-size="14.00" fill="#666666">[integer]</text>
<polygon fill="none" stroke="#000000" points="319,-852.5 319,-882.5 608,-882.5 608,-852.5 319,-852.5"/>
<text text-anchor="start" x="326" y="-863.9" font-family="Arial" font-size="14.00" fill="#000000">name </text>
<text text-anchor="start" x="364.899" y="-863.9" font-family="Arial" font-size="14.00" fill="#666666">[varchar]</text>
<polygon fill="none" stroke="#000000" points="319,-822.5 319,-852.5 608,-852.5 608,-822.5 319,-822.5"/>
<text text-anchor="start" x="326" y="-833.9" font-family="Arial" font-size="14.00" fill="#000000">origin </text>
<text text-anchor="start" x="364.1122" y="-833.9" font-family="Arial" font-size="14.00" fill="#666666">[varchar]</text>
<polygon fill="none" stroke="#000000" points="319,-792.5 319,-822.5 608,-822.5 608,-792.5 319,-792.5"/>
<text text-anchor="start" x="326" y="-803.9" font-family="Arial" font-size="14.00" fill="#000000">partner_ref </text>
<text text-anchor="start" x="398.3492" y="-803.9" font-family="Arial" font-size="14.00" fill="#666666">[varchar]</text>
<polygon fill="none" stroke="#000000" points="319,-762.5 319,-792.5 608,-792.5 608,-762.5 319,-762.5"/>
<text text-anchor="start" x="326" y="-773.9" font-family="Arial" font-size="14.00" fill="#000000">date_order </text>
<text text-anchor="start" x="397.5806" y="-773.9" font-family="Arial" font-size="14.00" fill="#666666">[timestamp without time zone]</text>
<polygon fill="none" stroke="#000000" points="319,-732.5 319,-762.5 608,-762.5 608,-732.5 319,-732.5"/>
<text text-anchor="start" x="326" y="-743.9" font-family="Arial" font-size="14.00" fill="#000000">date_approve </text>
<text text-anchor="start" x="415.4852" y="-743.9" font-family="Arial" font-size="14.00" fill="#666666">[date]</text>
<polygon fill="none" stroke="#000000" points="319,-702.5 319,-732.5 608,-732.5 608,-702.5 319,-702.5"/>
<text text-anchor="start" x="326" y="-713.9" font-family="Arial" font-size="14.00" fill="#000000">partner_id </text>
<text text-anchor="start" x="392.9046" y="-713.9" font-family="Arial" font-size="14.00" fill="#666666">[integer]</text>
<polygon fill="none" stroke="#000000" points="319,-672.5 319,-702.5 608,-702.5 608,-672.5 319,-672.5"/>
<text text-anchor="start" x="326" y="-683.9" font-family="Arial" font-size="14.00" fill="#000000">dest_address_id </text>
<text text-anchor="start" x="432.5918" y="-683.9" font-family="Arial" font-size="14.00" fill="#666666">[integer]</text>
<polygon fill="none" stroke="#000000" points="319,-642.5 319,-672.5 608,-672.5 608,-642.5 319,-642.5"/>
<text text-anchor="start" x="326" y="-653.9" font-family="Arial" font-size="14.00" fill="#000000">currency_id </text>
<text text-anchor="start" x="402.2314" y="-653.9" font-family="Arial" font-size="14.00" fill="#666666">[integer]</text>
<polygon fill="none" stroke="#000000" points="319,-612.5 319,-642.5 608,-642.5 608,-612.5 319,-612.5"/>
<text text-anchor="start" x="326" y="-623.9" font-family="Arial" font-size="14.00" fill="#000000">state </text>
<text text-anchor="start" x="360.237" y="-623.9" font-family="Arial" font-size="14.00" fill="#666666">[varchar]</text>
<polygon fill="none" stroke="#000000" points="319,-582.5 319,-612.5 608,-612.5 608,-582.5 319,-582.5"/>
<text text-anchor="start" x="326" y="-593.9" font-family="Arial" font-size="14.00" fill="#000000">notes </text>
<text text-anchor="start" x="364.129" y="-593.9" font-family="Arial" font-size="14.00" fill="#666666">[text]</text>
<polygon fill="none" stroke="#000000" points="319,-552.5 319,-582.5 608,-582.5 608,-552.5 319,-552.5"/>
<text text-anchor="start" x="326" y="-563.9" font-family="Arial" font-size="14.00" fill="#000000">invoice_count </text>
<text text-anchor="start" x="415.4726" y="-563.9" font-family="Arial" font-size="14.00" fill="#666666">[integer]</text>
<polygon fill="none" stroke="#000000" points="319,-522.5 319,-552.5 608,-552.5 608,-522.5 319,-522.5"/>
<text text-anchor="start" x="326" y="-533.9" font-family="Arial" font-size="14.00" fill="#000000">invoice_status </text>
<text text-anchor="start" x="418.5806" y="-533.9" font-family="Arial" font-size="14.00" fill="#666666">[varchar]</text>
<polygon fill="none" stroke="#000000" points="319,-492.5 319,-522.5 608,-522.5 608,-492.5 319,-492.5"/>
<text text-anchor="start" x="326" y="-503.9" font-family="Arial" font-size="14.00" fill="#000000">date_planned </text>
<text text-anchor="start" x="414.7138" y="-503.9" font-family="Arial" font-size="14.00" fill="#666666">[timestamp without time zone]</text>
<polygon fill="none" stroke="#000000" points="319,-462.5 319,-492.5 608,-492.5 608,-462.5 319,-462.5"/>
<text text-anchor="start" x="326" y="-473.9" font-family="Arial" font-size="14.00" fill="#000000">amount_untaxed </text>
<text text-anchor="start" x="434.1584" y="-473.9" font-family="Arial" font-size="14.00" fill="#666666">[numeric]</text>
<polygon fill="none" stroke="#000000" points="319,-432.5 319,-462.5 608,-462.5 608,-432.5 319,-432.5"/>
<text text-anchor="start" x="326" y="-443.9" font-family="Arial" font-size="14.00" fill="#000000">amount_tax </text>
<text text-anchor="start" x="403.028" y="-443.9" font-family="Arial" font-size="14.00" fill="#666666">[numeric]</text>
<polygon fill="none" stroke="#000000" points="319,-402.5 319,-432.5 608,-432.5 608,-402.5 319,-402.5"/>
<text text-anchor="start" x="326" y="-413.9" font-family="Arial" font-size="14.00" fill="#000000">amount_total </text>
<text text-anchor="start" x="410.8078" y="-413.9" font-family="Arial" font-size="14.00" fill="#666666">[numeric]</text>
<polygon fill="none" stroke="#000000" points="319,-372.5 319,-402.5 608,-402.5 608,-372.5 319,-372.5"/>
<text text-anchor="start" x="326" y="-383.9" font-family="Arial" font-size="14.00" fill="#000000">fiscal_position_id </text>
<text text-anchor="start" x="436.4656" y="-383.9" font-family="Arial" font-size="14.00" fill="#666666">[integer]</text>
<polygon fill="none" stroke="#000000" points="319,-342.5 319,-372.5 608,-372.5 608,-342.5 319,-342.5"/>
<text text-anchor="start" x="326" y="-353.9" font-family="Arial" font-size="14.00" fill="#000000">payment_term_id </text>
<text text-anchor="start" x="438.021" y="-353.9" font-family="Arial" font-size="14.00" fill="#666666">[integer]</text>
<polygon fill="none" stroke="#000000" points="319,-312.5 319,-342.5 608,-342.5 608,-312.5 319,-312.5"/>
<text text-anchor="start" x="326" y="-323.9" font-family="Arial" font-size="14.00" fill="#000000">incoterm_id </text>
<text text-anchor="start" x="402.2286" y="-323.9" font-family="Arial" font-size="14.00" fill="#666666">[integer]</text>
<polygon fill="none" stroke="#000000" points="319,-282.5 319,-312.5 608,-312.5 608,-282.5 319,-282.5"/>
<text text-anchor="start" x="326" y="-293.9" font-family="Arial" font-size="14.00" fill="#000000">user_id </text>
<text text-anchor="start" x="375.7882" y="-293.9" font-family="Arial" font-size="14.00" fill="#666666">[integer]</text>
<polygon fill="none" stroke="#000000" points="319,-252.5 319,-282.5 608,-282.5 608,-252.5 319,-252.5"/>
<text text-anchor="start" x="326" y="-263.9" font-family="Arial" font-size="14.00" fill="#000000">company_id </text>
<text text-anchor="start" x="405.3534" y="-263.9" font-family="Arial" font-size="14.00" fill="#666666">[integer]</text>
<polygon fill="none" stroke="#000000" points="319,-222.5 319,-252.5 608,-252.5 608,-222.5 319,-222.5"/>
<text text-anchor="start" x="326" y="-233.9" font-family="Arial" font-size="14.00" fill="#000000">create_uid </text>
<text text-anchor="start" x="395.244" y="-233.9" font-family="Arial" font-size="14.00" fill="#666666">[integer]</text>
<polygon fill="none" stroke="#000000" points="319,-192.5 319,-222.5 608,-222.5 608,-192.5 319,-192.5"/>
<text text-anchor="start" x="326" y="-203.9" font-family="Arial" font-size="14.00" fill="#000000">create_date </text>
<text text-anchor="start" x="403.8106" y="-203.9" font-family="Arial" font-size="14.00" fill="#666666">[timestamp without time zone]</text>
<polygon fill="none" stroke="#000000" points="319,-162.5 319,-192.5 608,-192.5 608,-162.5 319,-162.5"/>
<text text-anchor="start" x="326" y="-173.9" font-family="Arial" font-size="14.00" fill="#000000">write_uid </text>
<text text-anchor="start" x="385.892" y="-173.9" font-family="Arial" font-size="14.00" fill="#666666">[integer]</text>
<polygon fill="none" stroke="#000000" points="319,-132.5 319,-162.5 608,-162.5 608,-132.5 319,-132.5"/>
<text text-anchor="start" x="326" y="-143.9" font-family="Arial" font-size="14.00" fill="#000000">write_date </text>
<text text-anchor="start" x="394.4586" y="-143.9" font-family="Arial" font-size="14.00" fill="#666666">[timestamp without time zone]</text>
<polygon fill="none" stroke="#000000" points="319,-102.5 319,-132.5 608,-132.5 608,-102.5 319,-102.5"/>
<text text-anchor="start" x="326" y="-113.9" font-family="Arial" font-size="14.00" fill="#000000">picking_count </text>
<text text-anchor="start" x="415.4726" y="-113.9" font-family="Arial" font-size="14.00" fill="#666666">[integer]</text>
<polygon fill="none" stroke="#000000" points="319,-72.5 319,-102.5 608,-102.5 608,-72.5 319,-72.5"/>
<text text-anchor="start" x="326" y="-83.9" font-family="Arial" font-size="14.00" fill="#000000">picking_type_id </text>
<text text-anchor="start" x="426.3618" y="-83.9" font-family="Arial" font-size="14.00" fill="#666666">[integer]</text>
<polygon fill="none" stroke="#000000" points="319,-42.5 319,-72.5 608,-72.5 608,-42.5 319,-42.5"/>
<text text-anchor="start" x="326" y="-53.9" font-family="Arial" font-size="14.00" fill="#000000">group_id </text>
<text text-anchor="start" x="384.3534" y="-53.9" font-family="Arial" font-size="14.00" fill="#666666">[integer]</text>
</g>
<!-- public.purchase_order_stock_picking_rel&#45;&gt;public.purchase_order -->
<g id="edge1" class="edge">
<title>public.purchase_order_stock_picking_rel:purchase_order_id&#45;&gt;public.purchase_order:id</title>
<path fill="none" stroke="#000000" d="M434.1068,-1176.0118C406.6824,-1166.6524 421.1547,-1115.4041 444,-1087 490.7697,-1028.8503 561.2303,-1109.1497 608,-1051 634.0443,-1018.6186 649.5556,-957.5 608,-957.5"/>
<polygon fill="#000000" stroke="#000000" points="434.1112,-1176.0124 443.3306,-1181.9499 439.0556,-1176.7562 444,-1177.5 444,-1177.5 444,-1177.5 439.0556,-1176.7562 444.6694,-1173.0501 434.1112,-1176.0124 434.1112,-1176.0124"/>
<text text-anchor="start" x="6.9825" y="-1187.5" font-family="Arial" font-size="10.00" fill="#000000">FOREIGN KEY (purchase_order_id) REFERENCES purchase_order(id) ON DELETE CASCADE</text>
</g>
<!-- public.stock_picking -->
<g id="node3" class="node">
<title>public.stock_picking</title>
<polygon fill="#efefef" stroke="transparent" points="712,-927.5 712,-962.5 1013,-962.5 1013,-927.5 712,-927.5"/>
<polygon fill="none" stroke="#000000" points="712,-927.5 712,-962.5 1013,-962.5 1013,-927.5 712,-927.5"/>
<text text-anchor="start" x="733.8577" y="-940.3" font-family="Arial Bold" font-size="18.00" fill="#000000">public.stock_picking</text>
<text text-anchor="start" x="893.8885" y="-940.3" font-family="Arial" font-size="14.00" fill="#000000"> </text>
<text text-anchor="start" x="897.7791" y="-940.3" font-family="Arial" font-size="14.00" fill="#666666">[BASE TABLE]</text>
<polygon fill="none" stroke="#000000" points="712,-897.5 712,-927.5 1013,-927.5 1013,-897.5 712,-897.5"/>
<text text-anchor="start" x="719" y="-908.9" font-family="Arial" font-size="14.00" fill="#000000">id </text>
<text text-anchor="start" x="733.7798" y="-908.9" font-family="Arial" font-size="14.00" fill="#666666">[integer]</text>
<polygon fill="none" stroke="#000000" points="712,-867.5 712,-897.5 1013,-897.5 1013,-867.5 712,-867.5"/>
<text text-anchor="start" x="719" y="-878.9" font-family="Arial" font-size="14.00" fill="#000000">message_main_attachment_id </text>
<text text-anchor="start" x="913.4964" y="-878.9" font-family="Arial" font-size="14.00" fill="#666666">[integer]</text>
<polygon fill="none" stroke="#000000" points="712,-837.5 712,-867.5 1013,-867.5 1013,-837.5 712,-837.5"/>
<text text-anchor="start" x="719" y="-848.9" font-family="Arial" font-size="14.00" fill="#000000">name </text>
<text text-anchor="start" x="757.899" y="-848.9" font-family="Arial" font-size="14.00" fill="#666666">[varchar]</text>
<polygon fill="none" stroke="#000000" points="712,-807.5 712,-837.5 1013,-837.5 1013,-807.5 712,-807.5"/>
<text text-anchor="start" x="719" y="-818.9" font-family="Arial" font-size="14.00" fill="#000000">origin </text>
<text text-anchor="start" x="757.1122" y="-818.9" font-family="Arial" font-size="14.00" fill="#666666">[varchar]</text>
<polygon fill="none" stroke="#000000" points="712,-777.5 712,-807.5 1013,-807.5 1013,-777.5 712,-777.5"/>
<text text-anchor="start" x="719" y="-788.9" font-family="Arial" font-size="14.00" fill="#000000">note </text>
<text text-anchor="start" x="750.129" y="-788.9" font-family="Arial" font-size="14.00" fill="#666666">[text]</text>
<polygon fill="none" stroke="#000000" points="712,-747.5 712,-777.5 1013,-777.5 1013,-747.5 712,-747.5"/>
<text text-anchor="start" x="719" y="-758.9" font-family="Arial" font-size="14.00" fill="#000000">backorder_id </text>
<text text-anchor="start" x="803.7966" y="-758.9" font-family="Arial" font-size="14.00" fill="#666666">[integer]</text>
<polygon fill="none" stroke="#000000" points="712,-717.5 712,-747.5 1013,-747.5 1013,-717.5 712,-717.5"/>
<text text-anchor="start" x="719" y="-728.9" font-family="Arial" font-size="14.00" fill="#000000">move_type </text>
<text text-anchor="start" x="791.3548" y="-728.9" font-family="Arial" font-size="14.00" fill="#666666">[varchar]</text>
<polygon fill="none" stroke="#000000" points="712,-687.5 712,-717.5 1013,-717.5 1013,-687.5 712,-687.5"/>
<text text-anchor="start" x="719" y="-698.9" font-family="Arial" font-size="14.00" fill="#000000">state </text>
<text text-anchor="start" x="753.237" y="-698.9" font-family="Arial" font-size="14.00" fill="#666666">[varchar]</text>
<polygon fill="none" stroke="#000000" points="712,-657.5 712,-687.5 1013,-687.5 1013,-657.5 712,-657.5"/>
<text text-anchor="start" x="719" y="-668.9" font-family="Arial" font-size="14.00" fill="#000000">group_id </text>
<text text-anchor="start" x="777.3534" y="-668.9" font-family="Arial" font-size="14.00" fill="#666666">[integer]</text>
<polygon fill="none" stroke="#000000" points="712,-627.5 712,-657.5 1013,-657.5 1013,-627.5 712,-627.5"/>
<text text-anchor="start" x="719" y="-638.9" font-family="Arial" font-size="14.00" fill="#000000">priority </text>
<text text-anchor="start" x="764.8808" y="-638.9" font-family="Arial" font-size="14.00" fill="#666666">[varchar]</text>
<polygon fill="none" stroke="#000000" points="712,-597.5 712,-627.5 1013,-627.5 1013,-597.5 712,-597.5"/>
<text text-anchor="start" x="718.573" y="-608.9" font-family="Arial" font-size="14.00" fill="#000000">scheduled_date </text>
<text text-anchor="start" x="821.2868" y="-608.9" font-family="Arial" font-size="14.00" fill="#666666">[timestamp without time zone]</text>
<polygon fill="none" stroke="#000000" points="712,-567.5 712,-597.5 1013,-597.5 1013,-567.5 712,-567.5"/>
<text text-anchor="start" x="719" y="-578.9" font-family="Arial" font-size="14.00" fill="#000000">date </text>
<text text-anchor="start" x="750.129" y="-578.9" font-family="Arial" font-size="14.00" fill="#666666">[timestamp without time zone]</text>
<polygon fill="none" stroke="#000000" points="712,-537.5 712,-567.5 1013,-567.5 1013,-537.5 712,-537.5"/>
<text text-anchor="start" x="719" y="-548.9" font-family="Arial" font-size="14.00" fill="#000000">date_done </text>
<text text-anchor="start" x="789.042" y="-548.9" font-family="Arial" font-size="14.00" fill="#666666">[timestamp without time zone]</text>
<polygon fill="none" stroke="#000000" points="712,-507.5 712,-537.5 1013,-537.5 1013,-507.5 712,-507.5"/>
<text text-anchor="start" x="719" y="-518.9" font-family="Arial" font-size="14.00" fill="#000000">location_id </text>
<text text-anchor="start" x="789.7966" y="-518.9" font-family="Arial" font-size="14.00" fill="#666666">[integer]</text>
<polygon fill="none" stroke="#000000" points="712,-477.5 712,-507.5 1013,-507.5 1013,-477.5 712,-477.5"/>
<text text-anchor="start" x="719" y="-488.9" font-family="Arial" font-size="14.00" fill="#000000">location_dest_id </text>
<text text-anchor="start" x="824.035" y="-488.9" font-family="Arial" font-size="14.00" fill="#666666">[integer]</text>
<polygon fill="none" stroke="#000000" points="712,-447.5 712,-477.5 1013,-477.5 1013,-447.5 712,-447.5"/>
<text text-anchor="start" x="719" y="-458.9" font-family="Arial" font-size="14.00" fill="#000000">picking_type_id </text>
<text text-anchor="start" x="819.3618" y="-458.9" font-family="Arial" font-size="14.00" fill="#666666">[integer]</text>
<polygon fill="none" stroke="#000000" points="712,-417.5 712,-447.5 1013,-447.5 1013,-417.5 712,-417.5"/>
<text text-anchor="start" x="719" y="-428.9" font-family="Arial" font-size="14.00" fill="#000000">partner_id </text>
<text text-anchor="start" x="785.9046" y="-428.9" font-family="Arial" font-size="14.00" fill="#666666">[integer]</text>
<polygon fill="none" stroke="#000000" points="712,-387.5 712,-417.5 1013,-417.5 1013,-387.5 712,-387.5"/>
<text text-anchor="start" x="719" y="-398.9" font-family="Arial" font-size="14.00" fill="#000000">company_id </text>
<text text-anchor="start" x="798.3534" y="-398.9" font-family="Arial" font-size="14.00" fill="#666666">[integer]</text>
<polygon fill="none" stroke="#000000" points="712,-357.5 712,-387.5 1013,-387.5 1013,-357.5 712,-357.5"/>
<text text-anchor="start" x="719" y="-368.9" font-family="Arial" font-size="14.00" fill="#000000">owner_id </text>
<text text-anchor="start" x="779.6774" y="-368.9" font-family="Arial" font-size="14.00" fill="#666666">[integer]</text>
<polygon fill="none" stroke="#000000" points="712,-327.5 712,-357.5 1013,-357.5 1013,-327.5 712,-327.5"/>
<text text-anchor="start" x="719" y="-338.9" font-family="Arial" font-size="14.00" fill="#000000">printed </text>
<text text-anchor="start" x="765.6788" y="-338.9" font-family="Arial" font-size="14.00" fill="#666666">[boolean]</text>
<polygon fill="none" stroke="#000000" points="712,-297.5 712,-327.5 1013,-327.5 1013,-297.5 712,-297.5"/>
<text text-anchor="start" x="719" y="-308.9" font-family="Arial" font-size="14.00" fill="#000000">is_locked </text>
<text text-anchor="start" x="781.2342" y="-308.9" font-family="Arial" font-size="14.00" fill="#666666">[boolean]</text>
<polygon fill="none" stroke="#000000" points="712,-267.5 712,-297.5 1013,-297.5 1013,-267.5 712,-267.5"/>
<text text-anchor="start" x="719" y="-278.9" font-family="Arial" font-size="14.00" fill="#000000">immediate_transfer </text>
<text text-anchor="start" x="842.6788" y="-278.9" font-family="Arial" font-size="14.00" fill="#666666">[boolean]</text>
<polygon fill="none" stroke="#000000" points="712,-237.5 712,-267.5 1013,-267.5 1013,-237.5 712,-237.5"/>
<text text-anchor="start" x="719" y="-248.9" font-family="Arial" font-size="14.00" fill="#000000">create_uid </text>
<text text-anchor="start" x="788.244" y="-248.9" font-family="Arial" font-size="14.00" fill="#666666">[integer]</text>
<polygon fill="none" stroke="#000000" points="712,-207.5 712,-237.5 1013,-237.5 1013,-207.5 712,-207.5"/>
<text text-anchor="start" x="719" y="-218.9" font-family="Arial" font-size="14.00" fill="#000000">create_date </text>
<text text-anchor="start" x="796.8106" y="-218.9" font-family="Arial" font-size="14.00" fill="#666666">[timestamp without time zone]</text>
<polygon fill="none" stroke="#000000" points="712,-177.5 712,-207.5 1013,-207.5 1013,-177.5 712,-177.5"/>
<text text-anchor="start" x="719" y="-188.9" font-family="Arial" font-size="14.00" fill="#000000">write_uid </text>
<text text-anchor="start" x="778.892" y="-188.9" font-family="Arial" font-size="14.00" fill="#666666">[integer]</text>
<polygon fill="none" stroke="#000000" points="712,-147.5 712,-177.5 1013,-177.5 1013,-147.5 712,-147.5"/>
<text text-anchor="start" x="719" y="-158.9" font-family="Arial" font-size="14.00" fill="#000000">write_date </text>
<text text-anchor="start" x="787.4586" y="-158.9" font-family="Arial" font-size="14.00" fill="#666666">[timestamp without time zone]</text>
<polygon fill="none" stroke="#000000" points="712,-117.5 712,-147.5 1013,-147.5 1013,-117.5 712,-117.5"/>
<text text-anchor="start" x="719" y="-128.9" font-family="Arial" font-size="14.00" fill="#000000">sale_id </text>
<text text-anchor="start" x="767.2342" y="-128.9" font-family="Arial" font-size="14.00" fill="#666666">[integer]</text>
<polygon fill="none" stroke="#000000" points="712,-87.5 712,-117.5 1013,-117.5 1013,-87.5 712,-87.5"/>
<text text-anchor="start" x="719" y="-98.9" font-family="Arial" font-size="14.00" fill="#000000">website_id </text>
<text text-anchor="start" x="789.014" y="-98.9" font-family="Arial" font-size="14.00" fill="#666666">[integer]</text>
</g>
<!-- public.purchase_order_stock_picking_rel&#45;&gt;public.stock_picking -->
<g id="edge2" class="edge">
<title>public.purchase_order_stock_picking_rel:stock_picking_id&#45;&gt;public.stock_picking:id</title>
<path fill="none" stroke="#000000" d="M890.8585,-1144.9366C903.9202,-1136.0704 893.0883,-1106.1988 881,-1087 836.6202,-1016.5152 756.3798,-1076.4848 712,-1006 689.8585,-970.8344 670.4444,-912.5 712,-912.5"/>
<polygon fill="#000000" stroke="#000000" points="890.6782,-1144.9834 879.8675,-1143.1448 885.8391,-1146.2417 881,-1147.5 881,-1147.5 881,-1147.5 885.8391,-1146.2417 882.1325,-1151.8552 890.6782,-1144.9834 890.6782,-1144.9834"/>
<text text-anchor="start" x="887.9885" y="-1157.5" font-family="Arial" font-size="10.00" fill="#000000">FOREIGN KEY (stock_picking_id) REFERENCES stock_picking(id) ON DELETE CASCADE</text>
</g>
</g>
</svg>
