<?xml version="1.0" encoding="UTF-8" standalone="no"?>
<!DOCTYPE svg PUBLIC "-//W3C//DTD SVG 1.1//EN"
 "http://www.w3.org/Graphics/SVG/1.1/DTD/svg11.dtd">
<!-- Generated by graphviz version 2.40.1 (20161225.0304)
 -->
<!-- Title: public.account_fiscal_position_account Pages: 1 -->
<svg width="1338pt" height="1192pt"
 viewBox="0.00 0.00 1337.50 1192.00" xmlns="http://www.w3.org/2000/svg" xmlns:xlink="http://www.w3.org/1999/xlink">
<g id="graph0" class="graph" transform="scale(1 1) rotate(0) translate(4 1188)">
<title>public.account_fiscal_position_account</title>
<polygon fill="#ffffff" stroke="transparent" points="-4,4 -4,-1188 1333.5,-1188 1333.5,4 -4,4"/>
<!-- public.account_fiscal_position_account -->
<g id="node1" class="node">
<title>public.account_fiscal_position_account</title>
<polygon fill="#efefef" stroke="transparent" points="469.5,-1102.5 469.5,-1137.5 891.5,-1137.5 891.5,-1102.5 469.5,-1102.5"/>
<polygon fill="none" stroke="#000000" points="469.5,-1102.5 469.5,-1137.5 891.5,-1137.5 891.5,-1102.5 469.5,-1102.5"/>
<text text-anchor="start" x="476.3261" y="-1115.3" font-family="Arial Bold" font-size="18.00" fill="#000000">public.account_fiscal_position_account</text>
<text text-anchor="start" x="787.4201" y="-1115.3" font-family="Arial" font-size="14.00" fill="#000000"> </text>
<text text-anchor="start" x="791.3107" y="-1115.3" font-family="Arial" font-size="14.00" fill="#666666">[BASE TABLE]</text>
<polygon fill="none" stroke="#000000" points="469.5,-1072.5 469.5,-1102.5 891.5,-1102.5 891.5,-1072.5 469.5,-1072.5"/>
<text text-anchor="start" x="476.5" y="-1083.9" font-family="Arial" font-size="14.00" fill="#000000">id </text>
<text text-anchor="start" x="491.2798" y="-1083.9" font-family="Arial" font-size="14.00" fill="#666666">[integer]</text>
<polygon fill="none" stroke="#000000" points="469.5,-1042.5 469.5,-1072.5 891.5,-1072.5 891.5,-1042.5 469.5,-1042.5"/>
<text text-anchor="start" x="476.5" y="-1053.9" font-family="Arial" font-size="14.00" fill="#000000">position_id </text>
<text text-anchor="start" x="547.2966" y="-1053.9" font-family="Arial" font-size="14.00" fill="#666666">[integer]</text>
<polygon fill="none" stroke="#000000" points="469.5,-1012.5 469.5,-1042.5 891.5,-1042.5 891.5,-1012.5 469.5,-1012.5"/>
<text text-anchor="start" x="476.5" y="-1023.9" font-family="Arial" font-size="14.00" fill="#000000">account_src_id </text>
<text text-anchor="start" x="574.5266" y="-1023.9" font-family="Arial" font-size="14.00" fill="#666666">[integer]</text>
<polygon fill="none" stroke="#000000" points="469.5,-982.5 469.5,-1012.5 891.5,-1012.5 891.5,-982.5 469.5,-982.5"/>
<text text-anchor="start" x="476.5" y="-993.9" font-family="Arial" font-size="14.00" fill="#000000">account_dest_id </text>
<text text-anchor="start" x="582.3218" y="-993.9" font-family="Arial" font-size="14.00" fill="#666666">[integer]</text>
<polygon fill="none" stroke="#000000" points="469.5,-952.5 469.5,-982.5 891.5,-982.5 891.5,-952.5 469.5,-952.5"/>
<text text-anchor="start" x="476.5" y="-963.9" font-family="Arial" font-size="14.00" fill="#000000">create_uid </text>
<text text-anchor="start" x="545.744" y="-963.9" font-family="Arial" font-size="14.00" fill="#666666">[integer]</text>
<polygon fill="none" stroke="#000000" points="469.5,-922.5 469.5,-952.5 891.5,-952.5 891.5,-922.5 469.5,-922.5"/>
<text text-anchor="start" x="476.5" y="-933.9" font-family="Arial" font-size="14.00" fill="#000000">create_date </text>
<text text-anchor="start" x="554.3106" y="-933.9" font-family="Arial" font-size="14.00" fill="#666666">[timestamp without time zone]</text>
<polygon fill="none" stroke="#000000" points="469.5,-892.5 469.5,-922.5 891.5,-922.5 891.5,-892.5 469.5,-892.5"/>
<text text-anchor="start" x="476.5" y="-903.9" font-family="Arial" font-size="14.00" fill="#000000">write_uid </text>
<text text-anchor="start" x="536.392" y="-903.9" font-family="Arial" font-size="14.00" fill="#666666">[integer]</text>
<polygon fill="none" stroke="#000000" points="469.5,-862.5 469.5,-892.5 891.5,-892.5 891.5,-862.5 469.5,-862.5"/>
<text text-anchor="start" x="476.5" y="-873.9" font-family="Arial" font-size="14.00" fill="#000000">write_date </text>
<text text-anchor="start" x="544.9586" y="-873.9" font-family="Arial" font-size="14.00" fill="#666666">[timestamp without time zone]</text>
<polygon fill="none" stroke="#000000" stroke-width="3" points="468,-861.5 468,-1139.5 893,-1139.5 893,-861.5 468,-861.5"/>
</g>
<!-- public.account_fiscal_position -->
<g id="node2" class="node">
<title>public.account_fiscal_position</title>
<polygon fill="#efefef" stroke="transparent" points="43.5,-612.5 43.5,-647.5 392.5,-647.5 392.5,-612.5 43.5,-612.5"/>
<polygon fill="none" stroke="#000000" points="43.5,-612.5 43.5,-647.5 392.5,-647.5 392.5,-612.5 43.5,-612.5"/>
<text text-anchor="start" x="50.3427" y="-625.3" font-family="Arial Bold" font-size="18.00" fill="#000000">public.account_fiscal_position</text>
<text text-anchor="start" x="288.4035" y="-625.3" font-family="Arial" font-size="14.00" fill="#000000"> </text>
<text text-anchor="start" x="292.2941" y="-625.3" font-family="Arial" font-size="14.00" fill="#666666">[BASE TABLE]</text>
<polygon fill="none" stroke="#000000" points="43.5,-582.5 43.5,-612.5 392.5,-612.5 392.5,-582.5 43.5,-582.5"/>
<text text-anchor="start" x="50.5" y="-593.9" font-family="Arial" font-size="14.00" fill="#000000">id </text>
<text text-anchor="start" x="65.2798" y="-593.9" font-family="Arial" font-size="14.00" fill="#666666">[integer]</text>
<polygon fill="none" stroke="#000000" points="43.5,-552.5 43.5,-582.5 392.5,-582.5 392.5,-552.5 43.5,-552.5"/>
<text text-anchor="start" x="50.5" y="-563.9" font-family="Arial" font-size="14.00" fill="#000000">sequence </text>
<text text-anchor="start" x="115.0862" y="-563.9" font-family="Arial" font-size="14.00" fill="#666666">[integer]</text>
<polygon fill="none" stroke="#000000" points="43.5,-522.5 43.5,-552.5 392.5,-552.5 392.5,-522.5 43.5,-522.5"/>
<text text-anchor="start" x="50.5" y="-533.9" font-family="Arial" font-size="14.00" fill="#000000">name </text>
<text text-anchor="start" x="89.399" y="-533.9" font-family="Arial" font-size="14.00" fill="#666666">[varchar]</text>
<polygon fill="none" stroke="#000000" points="43.5,-492.5 43.5,-522.5 392.5,-522.5 392.5,-492.5 43.5,-492.5"/>
<text text-anchor="start" x="50.5" y="-503.9" font-family="Arial" font-size="14.00" fill="#000000">active </text>
<text text-anchor="start" x="90.953" y="-503.9" font-family="Arial" font-size="14.00" fill="#666666">[boolean]</text>
<polygon fill="none" stroke="#000000" points="43.5,-462.5 43.5,-492.5 392.5,-492.5 392.5,-462.5 43.5,-462.5"/>
<text text-anchor="start" x="50.5" y="-473.9" font-family="Arial" font-size="14.00" fill="#000000">company_id </text>
<text text-anchor="start" x="129.8534" y="-473.9" font-family="Arial" font-size="14.00" fill="#666666">[integer]</text>
<polygon fill="none" stroke="#000000" points="43.5,-432.5 43.5,-462.5 392.5,-462.5 392.5,-432.5 43.5,-432.5"/>
<text text-anchor="start" x="50.5" y="-443.9" font-family="Arial" font-size="14.00" fill="#000000">note </text>
<text text-anchor="start" x="81.629" y="-443.9" font-family="Arial" font-size="14.00" fill="#666666">[text]</text>
<polygon fill="none" stroke="#000000" points="43.5,-402.5 43.5,-432.5 392.5,-432.5 392.5,-402.5 43.5,-402.5"/>
<text text-anchor="start" x="50.5" y="-413.9" font-family="Arial" font-size="14.00" fill="#000000">auto_apply </text>
<text text-anchor="start" x="122.866" y="-413.9" font-family="Arial" font-size="14.00" fill="#666666">[boolean]</text>
<polygon fill="none" stroke="#000000" points="43.5,-372.5 43.5,-402.5 392.5,-402.5 392.5,-372.5 43.5,-372.5"/>
<text text-anchor="start" x="50.5" y="-383.9" font-family="Arial" font-size="14.00" fill="#000000">vat_required </text>
<text text-anchor="start" x="132.1872" y="-383.9" font-family="Arial" font-size="14.00" fill="#666666">[boolean]</text>
<polygon fill="none" stroke="#000000" points="43.5,-342.5 43.5,-372.5 392.5,-372.5 392.5,-342.5 43.5,-342.5"/>
<text text-anchor="start" x="50.5" y="-353.9" font-family="Arial" font-size="14.00" fill="#000000">country_id </text>
<text text-anchor="start" x="118.9614" y="-353.9" font-family="Arial" font-size="14.00" fill="#666666">[integer]</text>
<polygon fill="none" stroke="#000000" points="43.5,-312.5 43.5,-342.5 392.5,-342.5 392.5,-312.5 43.5,-312.5"/>
<text text-anchor="start" x="50.5" y="-323.9" font-family="Arial" font-size="14.00" fill="#000000">country_group_id </text>
<text text-anchor="start" x="162.535" y="-323.9" font-family="Arial" font-size="14.00" fill="#666666">[integer]</text>
<polygon fill="none" stroke="#000000" points="43.5,-282.5 43.5,-312.5 392.5,-312.5 392.5,-282.5 43.5,-282.5"/>
<text text-anchor="start" x="50.5" y="-293.9" font-family="Arial" font-size="14.00" fill="#000000">zip_from </text>
<text text-anchor="start" x="108.0568" y="-293.9" font-family="Arial" font-size="14.00" fill="#666666">[integer]</text>
<polygon fill="none" stroke="#000000" points="43.5,-252.5 43.5,-282.5 392.5,-282.5 392.5,-252.5 43.5,-252.5"/>
<text text-anchor="start" x="50.5" y="-263.9" font-family="Arial" font-size="14.00" fill="#000000">zip_to </text>
<text text-anchor="start" x="91.7356" y="-263.9" font-family="Arial" font-size="14.00" fill="#666666">[integer]</text>
<polygon fill="none" stroke="#000000" points="43.5,-222.5 43.5,-252.5 392.5,-252.5 392.5,-222.5 43.5,-222.5"/>
<text text-anchor="start" x="50.5" y="-233.9" font-family="Arial" font-size="14.00" fill="#000000">create_uid </text>
<text text-anchor="start" x="119.744" y="-233.9" font-family="Arial" font-size="14.00" fill="#666666">[integer]</text>
<polygon fill="none" stroke="#000000" points="43.5,-192.5 43.5,-222.5 392.5,-222.5 392.5,-192.5 43.5,-192.5"/>
<text text-anchor="start" x="50.5" y="-203.9" font-family="Arial" font-size="14.00" fill="#000000">create_date </text>
<text text-anchor="start" x="128.3106" y="-203.9" font-family="Arial" font-size="14.00" fill="#666666">[timestamp without time zone]</text>
<polygon fill="none" stroke="#000000" points="43.5,-162.5 43.5,-192.5 392.5,-192.5 392.5,-162.5 43.5,-162.5"/>
<text text-anchor="start" x="50.5" y="-173.9" font-family="Arial" font-size="14.00" fill="#000000">write_uid </text>
<text text-anchor="start" x="110.392" y="-173.9" font-family="Arial" font-size="14.00" fill="#666666">[integer]</text>
<polygon fill="none" stroke="#000000" points="43.5,-132.5 43.5,-162.5 392.5,-162.5 392.5,-132.5 43.5,-132.5"/>
<text text-anchor="start" x="50.5" y="-143.9" font-family="Arial" font-size="14.00" fill="#000000">write_date </text>
<text text-anchor="start" x="118.9586" y="-143.9" font-family="Arial" font-size="14.00" fill="#666666">[timestamp without time zone]</text>
</g>
<!-- public.account_fiscal_position_account&#45;&gt;public.account_fiscal_position -->
<g id="edge1" class="edge">
<title>public.account_fiscal_position_account:position_id&#45;&gt;public.account_fiscal_position:id</title>
<path fill="none" stroke="#000000" d="M459.4158,-1055.8343C374.7274,-1025.7248 492.5007,-597.5 392.5,-597.5"/>
<polygon fill="#000000" stroke="#000000" points="459.6337,-1055.8703 468.7666,-1061.9398 464.5668,-1056.6851 469.5,-1057.5 469.5,-1057.5 469.5,-1057.5 464.5668,-1056.6851 470.2334,-1053.0602 459.6337,-1055.8703 459.6337,-1055.8703"/>
<text text-anchor="start" x="35.593" y="-1067.5" font-family="Arial" font-size="10.00" fill="#000000">FOREIGN KEY (position_id) REFERENCES account_fiscal_position(id) ON DELETE CASCADE</text>
</g>
<!-- public.account_account -->
<g id="node3" class="node">
<title>public.account_account</title>
<polygon fill="#efefef" stroke="transparent" points="496.5,-627.5 496.5,-662.5 864.5,-662.5 864.5,-627.5 496.5,-627.5"/>
<polygon fill="none" stroke="#000000" points="496.5,-627.5 496.5,-662.5 864.5,-662.5 864.5,-627.5 496.5,-627.5"/>
<text text-anchor="start" x="537.8384" y="-640.3" font-family="Arial Bold" font-size="18.00" fill="#000000">public.account_account</text>
<text text-anchor="start" x="725.9078" y="-640.3" font-family="Arial" font-size="14.00" fill="#000000"> </text>
<text text-anchor="start" x="729.7984" y="-640.3" font-family="Arial" font-size="14.00" fill="#666666">[BASE TABLE]</text>
<polygon fill="none" stroke="#000000" points="496.5,-597.5 496.5,-627.5 864.5,-627.5 864.5,-597.5 496.5,-597.5"/>
<text text-anchor="start" x="503.5" y="-608.9" font-family="Arial" font-size="14.00" fill="#000000">id </text>
<text text-anchor="start" x="518.2798" y="-608.9" font-family="Arial" font-size="14.00" fill="#666666">[integer]</text>
<polygon fill="none" stroke="#000000" points="496.5,-567.5 496.5,-597.5 864.5,-597.5 864.5,-567.5 496.5,-567.5"/>
<text text-anchor="start" x="503.5" y="-578.9" font-family="Arial" font-size="14.00" fill="#000000">name </text>
<text text-anchor="start" x="542.399" y="-578.9" font-family="Arial" font-size="14.00" fill="#666666">[varchar]</text>
<polygon fill="none" stroke="#000000" points="496.5,-537.5 496.5,-567.5 864.5,-567.5 864.5,-537.5 496.5,-537.5"/>
<text text-anchor="start" x="503.5" y="-548.9" font-family="Arial" font-size="14.00" fill="#000000">currency_id </text>
<text text-anchor="start" x="579.7314" y="-548.9" font-family="Arial" font-size="14.00" fill="#666666">[integer]</text>
<polygon fill="none" stroke="#000000" points="496.5,-507.5 496.5,-537.5 864.5,-537.5 864.5,-507.5 496.5,-507.5"/>
<text text-anchor="start" x="503.5" y="-518.9" font-family="Arial" font-size="14.00" fill="#000000">code </text>
<text text-anchor="start" x="537.7384" y="-518.9" font-family="Arial" font-size="14.00" fill="#666666">[varchar(64)]</text>
<polygon fill="none" stroke="#000000" points="496.5,-477.5 496.5,-507.5 864.5,-507.5 864.5,-477.5 496.5,-477.5"/>
<text text-anchor="start" x="503.5" y="-488.9" font-family="Arial" font-size="14.00" fill="#000000">deprecated </text>
<text text-anchor="start" x="577.42" y="-488.9" font-family="Arial" font-size="14.00" fill="#666666">[boolean]</text>
<polygon fill="none" stroke="#000000" points="496.5,-447.5 496.5,-477.5 864.5,-477.5 864.5,-447.5 496.5,-447.5"/>
<text text-anchor="start" x="503.5" y="-458.9" font-family="Arial" font-size="14.00" fill="#000000">user_type_id </text>
<text text-anchor="start" x="587.5266" y="-458.9" font-family="Arial" font-size="14.00" fill="#666666">[integer]</text>
<polygon fill="none" stroke="#000000" points="496.5,-417.5 496.5,-447.5 864.5,-447.5 864.5,-417.5 496.5,-417.5"/>
<text text-anchor="start" x="503.5" y="-428.9" font-family="Arial" font-size="14.00" fill="#000000">internal_type </text>
<text text-anchor="start" x="587.5238" y="-428.9" font-family="Arial" font-size="14.00" fill="#666666">[varchar]</text>
<polygon fill="none" stroke="#000000" points="496.5,-387.5 496.5,-417.5 864.5,-417.5 864.5,-387.5 496.5,-387.5"/>
<text text-anchor="start" x="503.5" y="-398.9" font-family="Arial" font-size="14.00" fill="#000000">internal_group </text>
<text text-anchor="start" x="596.859" y="-398.9" font-family="Arial" font-size="14.00" fill="#666666">[varchar]</text>
<polygon fill="none" stroke="#000000" points="496.5,-357.5 496.5,-387.5 864.5,-387.5 864.5,-357.5 496.5,-357.5"/>
<text text-anchor="start" x="503.1326" y="-368.9" font-family="Arial" font-size="14.00" fill="#000000">last_time_entries_checked </text>
<text text-anchor="start" x="672.7272" y="-368.9" font-family="Arial" font-size="14.00" fill="#666666">[timestamp without time zone]</text>
<polygon fill="none" stroke="#000000" points="496.5,-327.5 496.5,-357.5 864.5,-357.5 864.5,-327.5 496.5,-327.5"/>
<text text-anchor="start" x="503.5" y="-338.9" font-family="Arial" font-size="14.00" fill="#000000">reconcile </text>
<text text-anchor="start" x="563.3948" y="-338.9" font-family="Arial" font-size="14.00" fill="#666666">[boolean]</text>
<polygon fill="none" stroke="#000000" points="496.5,-297.5 496.5,-327.5 864.5,-327.5 864.5,-297.5 496.5,-297.5"/>
<text text-anchor="start" x="503.5" y="-308.9" font-family="Arial" font-size="14.00" fill="#000000">note </text>
<text text-anchor="start" x="534.629" y="-308.9" font-family="Arial" font-size="14.00" fill="#666666">[text]</text>
<polygon fill="none" stroke="#000000" points="496.5,-267.5 496.5,-297.5 864.5,-297.5 864.5,-267.5 496.5,-267.5"/>
<text text-anchor="start" x="503.5" y="-278.9" font-family="Arial" font-size="14.00" fill="#000000">company_id </text>
<text text-anchor="start" x="582.8534" y="-278.9" font-family="Arial" font-size="14.00" fill="#666666">[integer]</text>
<polygon fill="none" stroke="#000000" points="496.5,-237.5 496.5,-267.5 864.5,-267.5 864.5,-237.5 496.5,-237.5"/>
<text text-anchor="start" x="503.5" y="-248.9" font-family="Arial" font-size="14.00" fill="#000000">group_id </text>
<text text-anchor="start" x="561.8534" y="-248.9" font-family="Arial" font-size="14.00" fill="#666666">[integer]</text>
<polygon fill="none" stroke="#000000" points="496.5,-207.5 496.5,-237.5 864.5,-237.5 864.5,-207.5 496.5,-207.5"/>
<text text-anchor="start" x="503.5" y="-218.9" font-family="Arial" font-size="14.00" fill="#000000">create_uid </text>
<text text-anchor="start" x="572.744" y="-218.9" font-family="Arial" font-size="14.00" fill="#666666">[integer]</text>
<polygon fill="none" stroke="#000000" points="496.5,-177.5 496.5,-207.5 864.5,-207.5 864.5,-177.5 496.5,-177.5"/>
<text text-anchor="start" x="503.5" y="-188.9" font-family="Arial" font-size="14.00" fill="#000000">create_date </text>
<text text-anchor="start" x="581.3106" y="-188.9" font-family="Arial" font-size="14.00" fill="#666666">[timestamp without time zone]</text>
<polygon fill="none" stroke="#000000" points="496.5,-147.5 496.5,-177.5 864.5,-177.5 864.5,-147.5 496.5,-147.5"/>
<text text-anchor="start" x="503.5" y="-158.9" font-family="Arial" font-size="14.00" fill="#000000">write_uid </text>
<text text-anchor="start" x="563.392" y="-158.9" font-family="Arial" font-size="14.00" fill="#666666">[integer]</text>
<polygon fill="none" stroke="#000000" points="496.5,-117.5 496.5,-147.5 864.5,-147.5 864.5,-117.5 496.5,-117.5"/>
<text text-anchor="start" x="503.5" y="-128.9" font-family="Arial" font-size="14.00" fill="#000000">write_date </text>
<text text-anchor="start" x="571.9586" y="-128.9" font-family="Arial" font-size="14.00" fill="#666666">[timestamp without time zone]</text>
</g>
<!-- public.account_fiscal_position_account&#45;&gt;public.account_account -->
<g id="edge2" class="edge">
<title>public.account_fiscal_position_account:account_src_id&#45;&gt;public.account_account:id</title>
<path fill="none" stroke="#000000" d="M899.9673,-1021.9472C933.9274,-972.701 907.5498,-612.5 864.5,-612.5"/>
<polygon fill="#000000" stroke="#000000" points="899.8623,-1022.0161 889.0322,-1023.737 895.6811,-1024.758 891.5,-1027.5 891.5,-1027.5 891.5,-1027.5 895.6811,-1024.758 893.9678,-1031.263 899.8623,-1022.0161 899.8623,-1022.0161"/>
<text text-anchor="start" x="898.03" y="-1037.5" font-family="Arial" font-size="10.00" fill="#000000">FOREIGN KEY (account_src_id) REFERENCES account_account(id) ON DELETE SET NULL</text>
</g>
<!-- public.account_fiscal_position_account&#45;&gt;public.account_account -->
<g id="edge3" class="edge">
<title>public.account_fiscal_position_account:account_dest_id&#45;&gt;public.account_account:id</title>
<path fill="none" stroke="#000000" d="M899.7224,-991.7588C930.3976,-943.8661 904.2839,-612.5 864.5,-612.5"/>
<polygon fill="#000000" stroke="#000000" points="899.6991,-991.775 888.9238,-993.8104 895.5996,-994.6375 891.5,-997.5 891.5,-997.5 891.5,-997.5 895.5996,-994.6375 894.0762,-1001.1896 899.6991,-991.775 899.6991,-991.775"/>
<text text-anchor="start" x="898.246" y="-1007.5" font-family="Arial" font-size="10.00" fill="#000000">FOREIGN KEY (account_dest_id) REFERENCES account_account(id) ON DELETE SET NULL</text>
</g>
<!-- public.res_users -->
<g id="node4" class="node">
<title>public.res_users</title>
<polygon fill="#efefef" stroke="transparent" points="968.5,-702.5 968.5,-737.5 1244.5,-737.5 1244.5,-702.5 968.5,-702.5"/>
<polygon fill="none" stroke="#000000" points="968.5,-702.5 968.5,-737.5 1244.5,-737.5 1244.5,-702.5 968.5,-702.5"/>
<text text-anchor="start" x="992.3639" y="-715.3" font-family="Arial Bold" font-size="18.00" fill="#000000">public.res_users</text>
<text text-anchor="start" x="1123.3823" y="-715.3" font-family="Arial" font-size="14.00" fill="#000000"> </text>
<text text-anchor="start" x="1127.2729" y="-715.3" font-family="Arial" font-size="14.00" fill="#666666">[BASE TABLE]</text>
<polygon fill="none" stroke="#000000" points="968.5,-672.5 968.5,-702.5 1244.5,-702.5 1244.5,-672.5 968.5,-672.5"/>
<text text-anchor="start" x="975.5" y="-683.9" font-family="Arial" font-size="14.00" fill="#000000">id </text>
<text text-anchor="start" x="990.2798" y="-683.9" font-family="Arial" font-size="14.00" fill="#666666">[integer]</text>
<polygon fill="none" stroke="#000000" points="968.5,-642.5 968.5,-672.5 1244.5,-672.5 1244.5,-642.5 968.5,-642.5"/>
<text text-anchor="start" x="975.5" y="-653.9" font-family="Arial" font-size="14.00" fill="#000000">active </text>
<text text-anchor="start" x="1015.953" y="-653.9" font-family="Arial" font-size="14.00" fill="#666666">[boolean]</text>
<polygon fill="none" stroke="#000000" points="968.5,-612.5 968.5,-642.5 1244.5,-642.5 1244.5,-612.5 968.5,-612.5"/>
<text text-anchor="start" x="975.5" y="-623.9" font-family="Arial" font-size="14.00" fill="#000000">login </text>
<text text-anchor="start" x="1008.9516" y="-623.9" font-family="Arial" font-size="14.00" fill="#666666">[varchar]</text>
<polygon fill="none" stroke="#000000" points="968.5,-582.5 968.5,-612.5 1244.5,-612.5 1244.5,-582.5 968.5,-582.5"/>
<text text-anchor="start" x="975.5" y="-593.9" font-family="Arial" font-size="14.00" fill="#000000">password </text>
<text text-anchor="start" x="1039.2882" y="-593.9" font-family="Arial" font-size="14.00" fill="#666666">[varchar]</text>
<polygon fill="none" stroke="#000000" points="968.5,-552.5 968.5,-582.5 1244.5,-582.5 1244.5,-552.5 968.5,-552.5"/>
<text text-anchor="start" x="975.5" y="-563.9" font-family="Arial" font-size="14.00" fill="#000000">company_id </text>
<text text-anchor="start" x="1054.8534" y="-563.9" font-family="Arial" font-size="14.00" fill="#666666">[integer]</text>
<polygon fill="none" stroke="#000000" points="968.5,-522.5 968.5,-552.5 1244.5,-552.5 1244.5,-522.5 968.5,-522.5"/>
<text text-anchor="start" x="975.5" y="-533.9" font-family="Arial" font-size="14.00" fill="#000000">partner_id </text>
<text text-anchor="start" x="1042.4046" y="-533.9" font-family="Arial" font-size="14.00" fill="#666666">[integer]</text>
<polygon fill="none" stroke="#000000" points="968.5,-492.5 968.5,-522.5 1244.5,-522.5 1244.5,-492.5 968.5,-492.5"/>
<text text-anchor="start" x="975.0246" y="-503.9" font-family="Arial" font-size="14.00" fill="#000000">create_date </text>
<text text-anchor="start" x="1052.8352" y="-503.9" font-family="Arial" font-size="14.00" fill="#666666">[timestamp without time zone]</text>
<polygon fill="none" stroke="#000000" points="968.5,-462.5 968.5,-492.5 1244.5,-492.5 1244.5,-462.5 968.5,-462.5"/>
<text text-anchor="start" x="975.5" y="-473.9" font-family="Arial" font-size="14.00" fill="#000000">signature </text>
<text text-anchor="start" x="1036.9614" y="-473.9" font-family="Arial" font-size="14.00" fill="#666666">[text]</text>
<polygon fill="none" stroke="#000000" points="968.5,-432.5 968.5,-462.5 1244.5,-462.5 1244.5,-432.5 968.5,-432.5"/>
<text text-anchor="start" x="975.5" y="-443.9" font-family="Arial" font-size="14.00" fill="#000000">action_id </text>
<text text-anchor="start" x="1035.4074" y="-443.9" font-family="Arial" font-size="14.00" fill="#666666">[integer]</text>
<polygon fill="none" stroke="#000000" points="968.5,-402.5 968.5,-432.5 1244.5,-432.5 1244.5,-402.5 968.5,-402.5"/>
<text text-anchor="start" x="975.5" y="-413.9" font-family="Arial" font-size="14.00" fill="#000000">share </text>
<text text-anchor="start" x="1014.399" y="-413.9" font-family="Arial" font-size="14.00" fill="#666666">[boolean]</text>
<polygon fill="none" stroke="#000000" points="968.5,-372.5 968.5,-402.5 1244.5,-402.5 1244.5,-372.5 968.5,-372.5"/>
<text text-anchor="start" x="975.5" y="-383.9" font-family="Arial" font-size="14.00" fill="#000000">create_uid </text>
<text text-anchor="start" x="1044.744" y="-383.9" font-family="Arial" font-size="14.00" fill="#666666">[integer]</text>
<polygon fill="none" stroke="#000000" points="968.5,-342.5 968.5,-372.5 1244.5,-372.5 1244.5,-342.5 968.5,-342.5"/>
<text text-anchor="start" x="975.5" y="-353.9" font-family="Arial" font-size="14.00" fill="#000000">write_uid </text>
<text text-anchor="start" x="1035.392" y="-353.9" font-family="Arial" font-size="14.00" fill="#666666">[integer]</text>
<polygon fill="none" stroke="#000000" points="968.5,-312.5 968.5,-342.5 1244.5,-342.5 1244.5,-312.5 968.5,-312.5"/>
<text text-anchor="start" x="975.5" y="-323.9" font-family="Arial" font-size="14.00" fill="#000000">write_date </text>
<text text-anchor="start" x="1043.9586" y="-323.9" font-family="Arial" font-size="14.00" fill="#666666">[timestamp without time zone]</text>
<polygon fill="none" stroke="#000000" points="968.5,-282.5 968.5,-312.5 1244.5,-312.5 1244.5,-282.5 968.5,-282.5"/>
<text text-anchor="start" x="975.5" y="-293.9" font-family="Arial" font-size="14.00" fill="#000000">alias_id </text>
<text text-anchor="start" x="1026.8408" y="-293.9" font-family="Arial" font-size="14.00" fill="#666666">[integer]</text>
<polygon fill="none" stroke="#000000" points="968.5,-252.5 968.5,-282.5 1244.5,-282.5 1244.5,-252.5 968.5,-252.5"/>
<text text-anchor="start" x="975.5" y="-263.9" font-family="Arial" font-size="14.00" fill="#000000">notification_type </text>
<text text-anchor="start" x="1080.5336" y="-263.9" font-family="Arial" font-size="14.00" fill="#666666">[varchar]</text>
<polygon fill="none" stroke="#000000" points="968.5,-222.5 968.5,-252.5 1244.5,-252.5 1244.5,-222.5 968.5,-222.5"/>
<text text-anchor="start" x="975.5" y="-233.9" font-family="Arial" font-size="14.00" fill="#000000">odoobot_state </text>
<text text-anchor="start" x="1068.1058" y="-233.9" font-family="Arial" font-size="14.00" fill="#666666">[varchar]</text>
<polygon fill="none" stroke="#000000" points="968.5,-192.5 968.5,-222.5 1244.5,-222.5 1244.5,-192.5 968.5,-192.5"/>
<text text-anchor="start" x="975.5" y="-203.9" font-family="Arial" font-size="14.00" fill="#000000">sale_team_id </text>
<text text-anchor="start" x="1062.6332" y="-203.9" font-family="Arial" font-size="14.00" fill="#666666">[integer]</text>
<polygon fill="none" stroke="#000000" points="968.5,-162.5 968.5,-192.5 1244.5,-192.5 1244.5,-162.5 968.5,-162.5"/>
<text text-anchor="start" x="975.5" y="-173.9" font-family="Arial" font-size="14.00" fill="#000000">target_sales_won </text>
<text text-anchor="start" x="1089.089" y="-173.9" font-family="Arial" font-size="14.00" fill="#666666">[integer]</text>
<polygon fill="none" stroke="#000000" points="968.5,-132.5 968.5,-162.5 1244.5,-162.5 1244.5,-132.5 968.5,-132.5"/>
<text text-anchor="start" x="975.5" y="-143.9" font-family="Arial" font-size="14.00" fill="#000000">target_sales_done </text>
<text text-anchor="start" x="1094.5476" y="-143.9" font-family="Arial" font-size="14.00" fill="#666666">[integer]</text>
<polygon fill="none" stroke="#000000" points="968.5,-102.5 968.5,-132.5 1244.5,-132.5 1244.5,-102.5 968.5,-102.5"/>
<text text-anchor="start" x="975.5" y="-113.9" font-family="Arial" font-size="14.00" fill="#000000">website_id </text>
<text text-anchor="start" x="1045.514" y="-113.9" font-family="Arial" font-size="14.00" fill="#666666">[integer]</text>
<polygon fill="none" stroke="#000000" points="968.5,-72.5 968.5,-102.5 1244.5,-102.5 1244.5,-72.5 968.5,-72.5"/>
<text text-anchor="start" x="975.5" y="-83.9" font-family="Arial" font-size="14.00" fill="#000000">target_sales_invoiced </text>
<text text-anchor="start" x="1114.7608" y="-83.9" font-family="Arial" font-size="14.00" fill="#666666">[integer]</text>
<polygon fill="none" stroke="#000000" points="968.5,-42.5 968.5,-72.5 1244.5,-72.5 1244.5,-42.5 968.5,-42.5"/>
<text text-anchor="start" x="975.5" y="-53.9" font-family="Arial" font-size="14.00" fill="#000000">pos_security_pin </text>
<text text-anchor="start" x="1084.4158" y="-53.9" font-family="Arial" font-size="14.00" fill="#666666">[varchar(32)]</text>
</g>
<!-- public.account_fiscal_position_account&#45;&gt;public.res_users -->
<g id="edge4" class="edge">
<title>public.account_fiscal_position_account:create_uid&#45;&gt;public.res_users:id</title>
<path fill="none" stroke="#000000" d="M901.7331,-966.839C1010.5538,-951.8652 843.0909,-687.5 968.5,-687.5"/>
<polygon fill="#000000" stroke="#000000" points="901.4792,-966.8553 891.2099,-963.0094 896.4896,-967.1777 891.5,-967.5 891.5,-967.5 891.5,-967.5 896.4896,-967.1777 891.7901,-971.9906 901.4792,-966.8553 901.4792,-966.8553"/>
<text text-anchor="start" x="898.157" y="-977.5" font-family="Arial" font-size="10.00" fill="#000000">FOREIGN KEY (create_uid) REFERENCES res_users(id) ON DELETE SET NULL</text>
</g>
<!-- public.account_fiscal_position_account&#45;&gt;public.res_users -->
<g id="edge5" class="edge">
<title>public.account_fiscal_position_account:write_uid&#45;&gt;public.res_users:id</title>
<path fill="none" stroke="#000000" d="M901.5794,-906.7034C986.2288,-892.3032 868.5483,-687.5 968.5,-687.5"/>
<polygon fill="#000000" stroke="#000000" points="901.4689,-906.712 891.1454,-903.014 896.4845,-907.106 891.5,-907.5 891.5,-907.5 891.5,-907.5 896.4845,-907.106 891.8546,-911.986 901.4689,-906.712 901.4689,-906.712"/>
<text text-anchor="start" x="898.497" y="-917.5" font-family="Arial" font-size="10.00" fill="#000000">FOREIGN KEY (write_uid) REFERENCES res_users(id) ON DELETE SET NULL</text>
</g>
</g>
</svg>
