<?xml version="1.0" encoding="UTF-8" standalone="no"?>
<!DOCTYPE svg PUBLIC "-//W3C//DTD SVG 1.1//EN"
 "http://www.w3.org/Graphics/SVG/1.1/DTD/svg11.dtd">
<!-- Generated by graphviz version 2.40.1 (20161225.0304)
 -->
<!-- Title: public.account_fiscal_position_template Pages: 1 -->
<svg width="1928pt" height="1919pt"
 viewBox="0.00 0.00 1928.00 1919.00" xmlns="http://www.w3.org/2000/svg" xmlns:xlink="http://www.w3.org/1999/xlink">
<g id="graph0" class="graph" transform="scale(1 1) rotate(0) translate(4 1915)">
<title>public.account_fiscal_position_template</title>
<polygon fill="#ffffff" stroke="transparent" points="-4,4 -4,-1915 1924,-1915 1924,4 -4,4"/>
<!-- public.account_fiscal_position_template -->
<g id="node1" class="node">
<title>public.account_fiscal_position_template</title>
<polygon fill="#efefef" stroke="transparent" points="826.5,-1432.5 826.5,-1467.5 1254.5,-1467.5 1254.5,-1432.5 826.5,-1432.5"/>
<polygon fill="none" stroke="#000000" points="826.5,-1432.5 826.5,-1467.5 1254.5,-1467.5 1254.5,-1432.5 826.5,-1432.5"/>
<text text-anchor="start" x="833.3318" y="-1445.3" font-family="Arial Bold" font-size="18.00" fill="#000000">public.account_fiscal_position_template</text>
<text text-anchor="start" x="1150.4144" y="-1445.3" font-family="Arial" font-size="14.00" fill="#000000"> </text>
<text text-anchor="start" x="1154.305" y="-1445.3" font-family="Arial" font-size="14.00" fill="#666666">[BASE TABLE]</text>
<polygon fill="none" stroke="#000000" points="826.5,-1402.5 826.5,-1432.5 1254.5,-1432.5 1254.5,-1402.5 826.5,-1402.5"/>
<text text-anchor="start" x="833.5" y="-1413.9" font-family="Arial" font-size="14.00" fill="#000000">id </text>
<text text-anchor="start" x="848.2798" y="-1413.9" font-family="Arial" font-size="14.00" fill="#666666">[integer]</text>
<polygon fill="none" stroke="#000000" points="826.5,-1372.5 826.5,-1402.5 1254.5,-1402.5 1254.5,-1372.5 826.5,-1372.5"/>
<text text-anchor="start" x="833.5" y="-1383.9" font-family="Arial" font-size="14.00" fill="#000000">sequence </text>
<text text-anchor="start" x="898.0862" y="-1383.9" font-family="Arial" font-size="14.00" fill="#666666">[integer]</text>
<polygon fill="none" stroke="#000000" points="826.5,-1342.5 826.5,-1372.5 1254.5,-1372.5 1254.5,-1342.5 826.5,-1342.5"/>
<text text-anchor="start" x="833.5" y="-1353.9" font-family="Arial" font-size="14.00" fill="#000000">name </text>
<text text-anchor="start" x="872.399" y="-1353.9" font-family="Arial" font-size="14.00" fill="#666666">[varchar]</text>
<polygon fill="none" stroke="#000000" points="826.5,-1312.5 826.5,-1342.5 1254.5,-1342.5 1254.5,-1312.5 826.5,-1312.5"/>
<text text-anchor="start" x="833.5" y="-1323.9" font-family="Arial" font-size="14.00" fill="#000000">chart_template_id </text>
<text text-anchor="start" x="948.6402" y="-1323.9" font-family="Arial" font-size="14.00" fill="#666666">[integer]</text>
<polygon fill="none" stroke="#000000" points="826.5,-1282.5 826.5,-1312.5 1254.5,-1312.5 1254.5,-1282.5 826.5,-1282.5"/>
<text text-anchor="start" x="833.5" y="-1293.9" font-family="Arial" font-size="14.00" fill="#000000">note </text>
<text text-anchor="start" x="864.629" y="-1293.9" font-family="Arial" font-size="14.00" fill="#666666">[text]</text>
<polygon fill="none" stroke="#000000" points="826.5,-1252.5 826.5,-1282.5 1254.5,-1282.5 1254.5,-1252.5 826.5,-1252.5"/>
<text text-anchor="start" x="833.5" y="-1263.9" font-family="Arial" font-size="14.00" fill="#000000">auto_apply </text>
<text text-anchor="start" x="905.866" y="-1263.9" font-family="Arial" font-size="14.00" fill="#666666">[boolean]</text>
<polygon fill="none" stroke="#000000" points="826.5,-1222.5 826.5,-1252.5 1254.5,-1252.5 1254.5,-1222.5 826.5,-1222.5"/>
<text text-anchor="start" x="833.5" y="-1233.9" font-family="Arial" font-size="14.00" fill="#000000">vat_required </text>
<text text-anchor="start" x="915.1872" y="-1233.9" font-family="Arial" font-size="14.00" fill="#666666">[boolean]</text>
<polygon fill="none" stroke="#000000" points="826.5,-1192.5 826.5,-1222.5 1254.5,-1222.5 1254.5,-1192.5 826.5,-1192.5"/>
<text text-anchor="start" x="833.5" y="-1203.9" font-family="Arial" font-size="14.00" fill="#000000">country_id </text>
<text text-anchor="start" x="901.9614" y="-1203.9" font-family="Arial" font-size="14.00" fill="#666666">[integer]</text>
<polygon fill="none" stroke="#000000" points="826.5,-1162.5 826.5,-1192.5 1254.5,-1192.5 1254.5,-1162.5 826.5,-1162.5"/>
<text text-anchor="start" x="833.5" y="-1173.9" font-family="Arial" font-size="14.00" fill="#000000">country_group_id </text>
<text text-anchor="start" x="945.535" y="-1173.9" font-family="Arial" font-size="14.00" fill="#666666">[integer]</text>
<polygon fill="none" stroke="#000000" points="826.5,-1132.5 826.5,-1162.5 1254.5,-1162.5 1254.5,-1132.5 826.5,-1132.5"/>
<text text-anchor="start" x="833.5" y="-1143.9" font-family="Arial" font-size="14.00" fill="#000000">zip_from </text>
<text text-anchor="start" x="891.0568" y="-1143.9" font-family="Arial" font-size="14.00" fill="#666666">[integer]</text>
<polygon fill="none" stroke="#000000" points="826.5,-1102.5 826.5,-1132.5 1254.5,-1132.5 1254.5,-1102.5 826.5,-1102.5"/>
<text text-anchor="start" x="833.5" y="-1113.9" font-family="Arial" font-size="14.00" fill="#000000">zip_to </text>
<text text-anchor="start" x="874.7356" y="-1113.9" font-family="Arial" font-size="14.00" fill="#666666">[integer]</text>
<polygon fill="none" stroke="#000000" points="826.5,-1072.5 826.5,-1102.5 1254.5,-1102.5 1254.5,-1072.5 826.5,-1072.5"/>
<text text-anchor="start" x="833.5" y="-1083.9" font-family="Arial" font-size="14.00" fill="#000000">create_uid </text>
<text text-anchor="start" x="902.744" y="-1083.9" font-family="Arial" font-size="14.00" fill="#666666">[integer]</text>
<polygon fill="none" stroke="#000000" points="826.5,-1042.5 826.5,-1072.5 1254.5,-1072.5 1254.5,-1042.5 826.5,-1042.5"/>
<text text-anchor="start" x="833.5" y="-1053.9" font-family="Arial" font-size="14.00" fill="#000000">create_date </text>
<text text-anchor="start" x="911.3106" y="-1053.9" font-family="Arial" font-size="14.00" fill="#666666">[timestamp without time zone]</text>
<polygon fill="none" stroke="#000000" points="826.5,-1012.5 826.5,-1042.5 1254.5,-1042.5 1254.5,-1012.5 826.5,-1012.5"/>
<text text-anchor="start" x="833.5" y="-1023.9" font-family="Arial" font-size="14.00" fill="#000000">write_uid </text>
<text text-anchor="start" x="893.392" y="-1023.9" font-family="Arial" font-size="14.00" fill="#666666">[integer]</text>
<polygon fill="none" stroke="#000000" points="826.5,-982.5 826.5,-1012.5 1254.5,-1012.5 1254.5,-982.5 826.5,-982.5"/>
<text text-anchor="start" x="833.5" y="-993.9" font-family="Arial" font-size="14.00" fill="#000000">write_date </text>
<text text-anchor="start" x="901.9586" y="-993.9" font-family="Arial" font-size="14.00" fill="#666666">[timestamp without time zone]</text>
<polygon fill="none" stroke="#000000" stroke-width="3" points="825,-981.5 825,-1469.5 1256,-1469.5 1256,-981.5 825,-981.5"/>
</g>
<!-- public.account_chart_template -->
<g id="node5" class="node">
<title>public.account_chart_template</title>
<polygon fill="#efefef" stroke="transparent" points="43.5,-822.5 43.5,-857.5 398.5,-857.5 398.5,-822.5 43.5,-822.5"/>
<polygon fill="none" stroke="#000000" points="43.5,-822.5 43.5,-857.5 398.5,-857.5 398.5,-822.5 43.5,-822.5"/>
<text text-anchor="start" x="50.3376" y="-835.3" font-family="Arial Bold" font-size="18.00" fill="#000000">public.account_chart_template</text>
<text text-anchor="start" x="294.4086" y="-835.3" font-family="Arial" font-size="14.00" fill="#000000"> </text>
<text text-anchor="start" x="298.2992" y="-835.3" font-family="Arial" font-size="14.00" fill="#666666">[BASE TABLE]</text>
<polygon fill="none" stroke="#000000" points="43.5,-792.5 43.5,-822.5 398.5,-822.5 398.5,-792.5 43.5,-792.5"/>
<text text-anchor="start" x="50.5" y="-803.9" font-family="Arial" font-size="14.00" fill="#000000">id </text>
<text text-anchor="start" x="65.2798" y="-803.9" font-family="Arial" font-size="14.00" fill="#666666">[integer]</text>
<polygon fill="none" stroke="#000000" points="43.5,-762.5 43.5,-792.5 398.5,-792.5 398.5,-762.5 43.5,-762.5"/>
<text text-anchor="start" x="50.5" y="-773.9" font-family="Arial" font-size="14.00" fill="#000000">name </text>
<text text-anchor="start" x="89.399" y="-773.9" font-family="Arial" font-size="14.00" fill="#666666">[varchar]</text>
<polygon fill="none" stroke="#000000" points="43.5,-732.5 43.5,-762.5 398.5,-762.5 398.5,-732.5 43.5,-732.5"/>
<text text-anchor="start" x="50.5" y="-743.9" font-family="Arial" font-size="14.00" fill="#000000">parent_id </text>
<text text-anchor="start" x="112.744" y="-743.9" font-family="Arial" font-size="14.00" fill="#666666">[integer]</text>
<polygon fill="none" stroke="#000000" points="43.5,-702.5 43.5,-732.5 398.5,-732.5 398.5,-702.5 43.5,-702.5"/>
<text text-anchor="start" x="50.5" y="-713.9" font-family="Arial" font-size="14.00" fill="#000000">code_digits </text>
<text text-anchor="start" x="125.19" y="-713.9" font-family="Arial" font-size="14.00" fill="#666666">[integer]</text>
<polygon fill="none" stroke="#000000" points="43.5,-672.5 43.5,-702.5 398.5,-702.5 398.5,-672.5 43.5,-672.5"/>
<text text-anchor="start" x="50.5" y="-683.9" font-family="Arial" font-size="14.00" fill="#000000">visible </text>
<text text-anchor="start" x="93.2756" y="-683.9" font-family="Arial" font-size="14.00" fill="#666666">[boolean]</text>
<polygon fill="none" stroke="#000000" points="43.5,-642.5 43.5,-672.5 398.5,-672.5 398.5,-642.5 43.5,-642.5"/>
<text text-anchor="start" x="50.5" y="-653.9" font-family="Arial" font-size="14.00" fill="#000000">currency_id </text>
<text text-anchor="start" x="126.7314" y="-653.9" font-family="Arial" font-size="14.00" fill="#666666">[integer]</text>
<polygon fill="none" stroke="#000000" points="43.5,-612.5 43.5,-642.5 398.5,-642.5 398.5,-612.5 43.5,-612.5"/>
<text text-anchor="start" x="50.5" y="-623.9" font-family="Arial" font-size="14.00" fill="#000000">use_anglo_saxon </text>
<text text-anchor="start" x="164.1058" y="-623.9" font-family="Arial" font-size="14.00" fill="#666666">[boolean]</text>
<polygon fill="none" stroke="#000000" points="43.5,-582.5 43.5,-612.5 398.5,-612.5 398.5,-582.5 43.5,-582.5"/>
<text text-anchor="start" x="50.5" y="-593.9" font-family="Arial" font-size="14.00" fill="#000000">complete_tax_set </text>
<text text-anchor="start" x="164.0904" y="-593.9" font-family="Arial" font-size="14.00" fill="#666666">[boolean]</text>
<polygon fill="none" stroke="#000000" points="43.5,-552.5 43.5,-582.5 398.5,-582.5 398.5,-552.5 43.5,-552.5"/>
<text text-anchor="start" x="50.5" y="-563.9" font-family="Arial" font-size="14.00" fill="#000000">bank_account_code_prefix </text>
<text text-anchor="start" x="221.678" y="-563.9" font-family="Arial" font-size="14.00" fill="#666666">[varchar]</text>
<polygon fill="none" stroke="#000000" points="43.5,-522.5 43.5,-552.5 398.5,-552.5 398.5,-522.5 43.5,-522.5"/>
<text text-anchor="start" x="50.5" y="-533.9" font-family="Arial" font-size="14.00" fill="#000000">cash_account_code_prefix </text>
<text text-anchor="start" x="220.8954" y="-533.9" font-family="Arial" font-size="14.00" fill="#666666">[varchar]</text>
<polygon fill="none" stroke="#000000" points="43.5,-492.5 43.5,-522.5 398.5,-522.5 398.5,-492.5 43.5,-492.5"/>
<text text-anchor="start" x="50.5" y="-503.9" font-family="Arial" font-size="14.00" fill="#000000">transfer_account_code_prefix </text>
<text text-anchor="start" x="238.7804" y="-503.9" font-family="Arial" font-size="14.00" fill="#666666">[varchar]</text>
<polygon fill="none" stroke="#000000" points="43.5,-462.5 43.5,-492.5 398.5,-492.5 398.5,-462.5 43.5,-462.5"/>
<text text-anchor="start" x="50.5" y="-473.9" font-family="Arial" font-size="14.00" fill="#000000">income_currency_exchange_account_id </text>
<text text-anchor="start" x="304.9108" y="-473.9" font-family="Arial" font-size="14.00" fill="#666666">[integer]</text>
<polygon fill="none" stroke="#000000" points="43.5,-432.5 43.5,-462.5 398.5,-462.5 398.5,-432.5 43.5,-432.5"/>
<text text-anchor="start" x="50.5" y="-443.9" font-family="Arial" font-size="14.00" fill="#000000">expense_currency_exchange_account_id </text>
<text text-anchor="start" x="312.7088" y="-443.9" font-family="Arial" font-size="14.00" fill="#666666">[integer]</text>
<polygon fill="none" stroke="#000000" points="43.5,-402.5 43.5,-432.5 398.5,-432.5 398.5,-402.5 43.5,-402.5"/>
<text text-anchor="start" x="50.5" y="-413.9" font-family="Arial" font-size="14.00" fill="#000000">property_account_receivable_id </text>
<text text-anchor="start" x="252.7776" y="-413.9" font-family="Arial" font-size="14.00" fill="#666666">[integer]</text>
<polygon fill="none" stroke="#000000" points="43.5,-372.5 43.5,-402.5 398.5,-402.5 398.5,-372.5 43.5,-372.5"/>
<text text-anchor="start" x="50.5" y="-383.9" font-family="Arial" font-size="14.00" fill="#000000">property_account_payable_id </text>
<text text-anchor="start" x="238.0104" y="-383.9" font-family="Arial" font-size="14.00" fill="#666666">[integer]</text>
<polygon fill="none" stroke="#000000" points="43.5,-342.5 43.5,-372.5 398.5,-372.5 398.5,-342.5 43.5,-342.5"/>
<text text-anchor="start" x="50.5" y="-353.9" font-family="Arial" font-size="14.00" fill="#000000">property_account_expense_categ_id </text>
<text text-anchor="start" x="283.9248" y="-353.9" font-family="Arial" font-size="14.00" fill="#666666">[integer]</text>
<polygon fill="none" stroke="#000000" points="43.5,-312.5 43.5,-342.5 398.5,-342.5 398.5,-312.5 43.5,-312.5"/>
<text text-anchor="start" x="50.5" y="-323.9" font-family="Arial" font-size="14.00" fill="#000000">property_account_income_categ_id </text>
<text text-anchor="start" x="276.1268" y="-323.9" font-family="Arial" font-size="14.00" fill="#666666">[integer]</text>
<polygon fill="none" stroke="#000000" points="43.5,-282.5 43.5,-312.5 398.5,-312.5 398.5,-282.5 43.5,-282.5"/>
<text text-anchor="start" x="50.5" y="-293.9" font-family="Arial" font-size="14.00" fill="#000000">property_account_expense_id </text>
<text text-anchor="start" x="241.9038" y="-293.9" font-family="Arial" font-size="14.00" fill="#666666">[integer]</text>
<polygon fill="none" stroke="#000000" points="43.5,-252.5 43.5,-282.5 398.5,-282.5 398.5,-252.5 43.5,-252.5"/>
<text text-anchor="start" x="50.5" y="-263.9" font-family="Arial" font-size="14.00" fill="#000000">property_account_income_id </text>
<text text-anchor="start" x="234.1058" y="-263.9" font-family="Arial" font-size="14.00" fill="#666666">[integer]</text>
<polygon fill="none" stroke="#000000" points="43.5,-222.5 43.5,-252.5 398.5,-252.5 398.5,-222.5 43.5,-222.5"/>
<text text-anchor="start" x="50.5" y="-233.9" font-family="Arial" font-size="14.00" fill="#000000">property_stock_account_input_categ_id </text>
<text text-anchor="start" x="301.8126" y="-233.9" font-family="Arial" font-size="14.00" fill="#666666">[integer]</text>
<polygon fill="none" stroke="#000000" points="43.5,-192.5 43.5,-222.5 398.5,-222.5 398.5,-192.5 43.5,-192.5"/>
<text text-anchor="start" x="50.5" y="-203.9" font-family="Arial" font-size="14.00" fill="#000000">property_stock_account_output_categ_id </text>
<text text-anchor="start" x="310.3792" y="-203.9" font-family="Arial" font-size="14.00" fill="#666666">[integer]</text>
<polygon fill="none" stroke="#000000" points="43.5,-162.5 43.5,-192.5 398.5,-192.5 398.5,-162.5 43.5,-162.5"/>
<text text-anchor="start" x="50.5" y="-173.9" font-family="Arial" font-size="14.00" fill="#000000">property_stock_valuation_account_id </text>
<text text-anchor="start" x="285.4634" y="-173.9" font-family="Arial" font-size="14.00" fill="#666666">[integer]</text>
<polygon fill="none" stroke="#000000" points="43.5,-132.5 43.5,-162.5 398.5,-162.5 398.5,-132.5 43.5,-132.5"/>
<text text-anchor="start" x="50.5" y="-143.9" font-family="Arial" font-size="14.00" fill="#000000">create_uid </text>
<text text-anchor="start" x="119.744" y="-143.9" font-family="Arial" font-size="14.00" fill="#666666">[integer]</text>
<polygon fill="none" stroke="#000000" points="43.5,-102.5 43.5,-132.5 398.5,-132.5 398.5,-102.5 43.5,-102.5"/>
<text text-anchor="start" x="50.5" y="-113.9" font-family="Arial" font-size="14.00" fill="#000000">create_date </text>
<text text-anchor="start" x="128.3106" y="-113.9" font-family="Arial" font-size="14.00" fill="#666666">[timestamp without time zone]</text>
<polygon fill="none" stroke="#000000" points="43.5,-72.5 43.5,-102.5 398.5,-102.5 398.5,-72.5 43.5,-72.5"/>
<text text-anchor="start" x="50.5" y="-83.9" font-family="Arial" font-size="14.00" fill="#000000">write_uid </text>
<text text-anchor="start" x="110.392" y="-83.9" font-family="Arial" font-size="14.00" fill="#666666">[integer]</text>
<polygon fill="none" stroke="#000000" points="43.5,-42.5 43.5,-72.5 398.5,-72.5 398.5,-42.5 43.5,-42.5"/>
<text text-anchor="start" x="50.5" y="-53.9" font-family="Arial" font-size="14.00" fill="#000000">write_date </text>
<text text-anchor="start" x="118.9586" y="-53.9" font-family="Arial" font-size="14.00" fill="#666666">[timestamp without time zone]</text>
</g>
<!-- public.account_fiscal_position_template&#45;&gt;public.account_chart_template -->
<g id="edge4" class="edge">
<title>public.account_fiscal_position_template:chart_template_id&#45;&gt;public.account_chart_template:id</title>
<path fill="none" stroke="#000000" d="M816.2885,-1327.3772C574.3837,-1321.484 594.315,-1104.5695 450.5,-901 423.0637,-862.164 446.0498,-807.5 398.5,-807.5"/>
<polygon fill="#000000" stroke="#000000" points="816.5007,-1327.3796 826.4458,-1331.9997 821.5004,-1327.4398 826.5,-1327.5 826.5,-1327.5 826.5,-1327.5 821.5004,-1327.4398 826.5542,-1323.0003 816.5007,-1327.3796 816.5007,-1327.3796"/>
<text text-anchor="start" x="357.362" y="-1337.5" font-family="Arial" font-size="10.00" fill="#000000">FOREIGN KEY (chart_template_id) REFERENCES account_chart_template(id) ON DELETE SET NULL</text>
</g>
<!-- public.res_country -->
<g id="node6" class="node">
<title>public.res_country</title>
<polygon fill="#efefef" stroke="transparent" points="502.5,-627.5 502.5,-662.5 778.5,-662.5 778.5,-627.5 502.5,-627.5"/>
<polygon fill="none" stroke="#000000" points="502.5,-627.5 502.5,-662.5 778.5,-662.5 778.5,-627.5 502.5,-627.5"/>
<text text-anchor="start" x="518.8597" y="-640.3" font-family="Arial Bold" font-size="18.00" fill="#000000">public.res_country</text>
<text text-anchor="start" x="664.8865" y="-640.3" font-family="Arial" font-size="14.00" fill="#000000"> </text>
<text text-anchor="start" x="668.7771" y="-640.3" font-family="Arial" font-size="14.00" fill="#666666">[BASE TABLE]</text>
<polygon fill="none" stroke="#000000" points="502.5,-597.5 502.5,-627.5 778.5,-627.5 778.5,-597.5 502.5,-597.5"/>
<text text-anchor="start" x="509.5" y="-608.9" font-family="Arial" font-size="14.00" fill="#000000">id </text>
<text text-anchor="start" x="524.2798" y="-608.9" font-family="Arial" font-size="14.00" fill="#666666">[integer]</text>
<polygon fill="none" stroke="#000000" points="502.5,-567.5 502.5,-597.5 778.5,-597.5 778.5,-567.5 502.5,-567.5"/>
<text text-anchor="start" x="509.5" y="-578.9" font-family="Arial" font-size="14.00" fill="#000000">name </text>
<text text-anchor="start" x="548.399" y="-578.9" font-family="Arial" font-size="14.00" fill="#666666">[varchar]</text>
<polygon fill="none" stroke="#000000" points="502.5,-537.5 502.5,-567.5 778.5,-567.5 778.5,-537.5 502.5,-537.5"/>
<text text-anchor="start" x="509.5" y="-548.9" font-family="Arial" font-size="14.00" fill="#000000">code </text>
<text text-anchor="start" x="543.7384" y="-548.9" font-family="Arial" font-size="14.00" fill="#666666">[varchar(2)]</text>
<polygon fill="none" stroke="#000000" points="502.5,-507.5 502.5,-537.5 778.5,-537.5 778.5,-507.5 502.5,-507.5"/>
<text text-anchor="start" x="509.5" y="-518.9" font-family="Arial" font-size="14.00" fill="#000000">address_format </text>
<text text-anchor="start" x="610.6318" y="-518.9" font-family="Arial" font-size="14.00" fill="#666666">[text]</text>
<polygon fill="none" stroke="#000000" points="502.5,-477.5 502.5,-507.5 778.5,-507.5 778.5,-477.5 502.5,-477.5"/>
<text text-anchor="start" x="509.5" y="-488.9" font-family="Arial" font-size="14.00" fill="#000000">address_view_id </text>
<text text-anchor="start" x="617.6318" y="-488.9" font-family="Arial" font-size="14.00" fill="#666666">[integer]</text>
<polygon fill="none" stroke="#000000" points="502.5,-447.5 502.5,-477.5 778.5,-477.5 778.5,-447.5 502.5,-447.5"/>
<text text-anchor="start" x="509.5" y="-458.9" font-family="Arial" font-size="14.00" fill="#000000">currency_id </text>
<text text-anchor="start" x="585.7314" y="-458.9" font-family="Arial" font-size="14.00" fill="#666666">[integer]</text>
<polygon fill="none" stroke="#000000" points="502.5,-417.5 502.5,-447.5 778.5,-447.5 778.5,-417.5 502.5,-417.5"/>
<text text-anchor="start" x="509.5" y="-428.9" font-family="Arial" font-size="14.00" fill="#000000">phone_code </text>
<text text-anchor="start" x="590.434" y="-428.9" font-family="Arial" font-size="14.00" fill="#666666">[integer]</text>
<polygon fill="none" stroke="#000000" points="502.5,-387.5 502.5,-417.5 778.5,-417.5 778.5,-387.5 502.5,-387.5"/>
<text text-anchor="start" x="509.5" y="-398.9" font-family="Arial" font-size="14.00" fill="#000000">name_position </text>
<text text-anchor="start" x="604.4158" y="-398.9" font-family="Arial" font-size="14.00" fill="#666666">[varchar]</text>
<polygon fill="none" stroke="#000000" points="502.5,-357.5 502.5,-387.5 778.5,-387.5 778.5,-357.5 502.5,-357.5"/>
<text text-anchor="start" x="509.5" y="-368.9" font-family="Arial" font-size="14.00" fill="#000000">vat_label </text>
<text text-anchor="start" x="569.4074" y="-368.9" font-family="Arial" font-size="14.00" fill="#666666">[varchar]</text>
<polygon fill="none" stroke="#000000" points="502.5,-327.5 502.5,-357.5 778.5,-357.5 778.5,-327.5 502.5,-327.5"/>
<text text-anchor="start" x="509.5" y="-338.9" font-family="Arial" font-size="14.00" fill="#000000">create_uid </text>
<text text-anchor="start" x="578.744" y="-338.9" font-family="Arial" font-size="14.00" fill="#666666">[integer]</text>
<polygon fill="none" stroke="#000000" points="502.5,-297.5 502.5,-327.5 778.5,-327.5 778.5,-297.5 502.5,-297.5"/>
<text text-anchor="start" x="509.0246" y="-308.9" font-family="Arial" font-size="14.00" fill="#000000">create_date </text>
<text text-anchor="start" x="586.8352" y="-308.9" font-family="Arial" font-size="14.00" fill="#666666">[timestamp without time zone]</text>
<polygon fill="none" stroke="#000000" points="502.5,-267.5 502.5,-297.5 778.5,-297.5 778.5,-267.5 502.5,-267.5"/>
<text text-anchor="start" x="509.5" y="-278.9" font-family="Arial" font-size="14.00" fill="#000000">write_uid </text>
<text text-anchor="start" x="569.392" y="-278.9" font-family="Arial" font-size="14.00" fill="#666666">[integer]</text>
<polygon fill="none" stroke="#000000" points="502.5,-237.5 502.5,-267.5 778.5,-267.5 778.5,-237.5 502.5,-237.5"/>
<text text-anchor="start" x="509.5" y="-248.9" font-family="Arial" font-size="14.00" fill="#000000">write_date </text>
<text text-anchor="start" x="577.9586" y="-248.9" font-family="Arial" font-size="14.00" fill="#666666">[timestamp without time zone]</text>
</g>
<!-- public.account_fiscal_position_template&#45;&gt;public.res_country -->
<g id="edge5" class="edge">
<title>public.account_fiscal_position_template:country_id&#45;&gt;public.res_country:id</title>
<path fill="none" stroke="#000000" d="M816.3891,-1206.1897C705.4704,-1175.4058 907.5246,-612.5 778.5,-612.5"/>
<polygon fill="#000000" stroke="#000000" points="816.5829,-1206.2148 825.9216,-1211.9627 821.5415,-1206.8574 826.5,-1207.5 826.5,-1207.5 826.5,-1207.5 821.5415,-1206.8574 827.0784,-1203.0373 816.5829,-1206.2148 816.5829,-1206.2148"/>
<text text-anchor="start" x="445.2675" y="-1217.5" font-family="Arial" font-size="10.00" fill="#000000">FOREIGN KEY (country_id) REFERENCES res_country(id) ON DELETE SET NULL</text>
</g>
<!-- public.res_country_group -->
<g id="node7" class="node">
<title>public.res_country_group</title>
<polygon fill="#efefef" stroke="transparent" points="883.5,-522.5 883.5,-557.5 1196.5,-557.5 1196.5,-522.5 883.5,-522.5"/>
<polygon fill="none" stroke="#000000" points="883.5,-522.5 883.5,-557.5 1196.5,-557.5 1196.5,-522.5 883.5,-522.5"/>
<text text-anchor="start" x="890.3481" y="-535.3" font-family="Arial Bold" font-size="18.00" fill="#000000">public.res_country_group</text>
<text text-anchor="start" x="1092.3981" y="-535.3" font-family="Arial" font-size="14.00" fill="#000000"> </text>
<text text-anchor="start" x="1096.2887" y="-535.3" font-family="Arial" font-size="14.00" fill="#666666">[BASE TABLE]</text>
<polygon fill="none" stroke="#000000" points="883.5,-492.5 883.5,-522.5 1196.5,-522.5 1196.5,-492.5 883.5,-492.5"/>
<text text-anchor="start" x="890.5" y="-503.9" font-family="Arial" font-size="14.00" fill="#000000">id </text>
<text text-anchor="start" x="905.2798" y="-503.9" font-family="Arial" font-size="14.00" fill="#666666">[integer]</text>
<polygon fill="none" stroke="#000000" points="883.5,-462.5 883.5,-492.5 1196.5,-492.5 1196.5,-462.5 883.5,-462.5"/>
<text text-anchor="start" x="890.5" y="-473.9" font-family="Arial" font-size="14.00" fill="#000000">name </text>
<text text-anchor="start" x="929.399" y="-473.9" font-family="Arial" font-size="14.00" fill="#666666">[varchar]</text>
<polygon fill="none" stroke="#000000" points="883.5,-432.5 883.5,-462.5 1196.5,-462.5 1196.5,-432.5 883.5,-432.5"/>
<text text-anchor="start" x="890.5" y="-443.9" font-family="Arial" font-size="14.00" fill="#000000">create_uid </text>
<text text-anchor="start" x="959.744" y="-443.9" font-family="Arial" font-size="14.00" fill="#666666">[integer]</text>
<polygon fill="none" stroke="#000000" points="883.5,-402.5 883.5,-432.5 1196.5,-432.5 1196.5,-402.5 883.5,-402.5"/>
<text text-anchor="start" x="890.5" y="-413.9" font-family="Arial" font-size="14.00" fill="#000000">create_date </text>
<text text-anchor="start" x="968.3106" y="-413.9" font-family="Arial" font-size="14.00" fill="#666666">[timestamp without time zone]</text>
<polygon fill="none" stroke="#000000" points="883.5,-372.5 883.5,-402.5 1196.5,-402.5 1196.5,-372.5 883.5,-372.5"/>
<text text-anchor="start" x="890.5" y="-383.9" font-family="Arial" font-size="14.00" fill="#000000">write_uid </text>
<text text-anchor="start" x="950.392" y="-383.9" font-family="Arial" font-size="14.00" fill="#666666">[integer]</text>
<polygon fill="none" stroke="#000000" points="883.5,-342.5 883.5,-372.5 1196.5,-372.5 1196.5,-342.5 883.5,-342.5"/>
<text text-anchor="start" x="890.5" y="-353.9" font-family="Arial" font-size="14.00" fill="#000000">write_date </text>
<text text-anchor="start" x="958.9586" y="-353.9" font-family="Arial" font-size="14.00" fill="#666666">[timestamp without time zone]</text>
</g>
<!-- public.account_fiscal_position_template&#45;&gt;public.res_country_group -->
<g id="edge6" class="edge">
<title>public.account_fiscal_position_template:country_group_id&#45;&gt;public.res_country_group:id</title>
<path fill="none" stroke="#000000" d="M816.4098,-1177.0347C723.8135,-1168.0695 784.6681,-1031.4945 826.5,-937 916.4188,-733.8817 1106.5812,-804.1183 1196.5,-601 1213.3217,-563.0014 1238.0556,-507.5 1196.5,-507.5"/>
<polygon fill="#000000" stroke="#000000" points="816.5106,-1177.0393 826.2927,-1181.9952 821.5053,-1177.2696 826.5,-1177.5 826.5,-1177.5 826.5,-1177.5 821.5053,-1177.2696 826.7073,-1173.0048 816.5106,-1177.0393 816.5106,-1177.0393"/>
<text text-anchor="start" x="383.1435" y="-1187.5" font-family="Arial" font-size="10.00" fill="#000000">FOREIGN KEY (country_group_id) REFERENCES res_country_group(id) ON DELETE SET NULL</text>
</g>
<!-- public.res_users -->
<g id="node8" class="node">
<title>public.res_users</title>
<polygon fill="#efefef" stroke="transparent" points="1300.5,-762.5 1300.5,-797.5 1576.5,-797.5 1576.5,-762.5 1300.5,-762.5"/>
<polygon fill="none" stroke="#000000" points="1300.5,-762.5 1300.5,-797.5 1576.5,-797.5 1576.5,-762.5 1300.5,-762.5"/>
<text text-anchor="start" x="1324.3639" y="-775.3" font-family="Arial Bold" font-size="18.00" fill="#000000">public.res_users</text>
<text text-anchor="start" x="1455.3823" y="-775.3" font-family="Arial" font-size="14.00" fill="#000000"> </text>
<text text-anchor="start" x="1459.2729" y="-775.3" font-family="Arial" font-size="14.00" fill="#666666">[BASE TABLE]</text>
<polygon fill="none" stroke="#000000" points="1300.5,-732.5 1300.5,-762.5 1576.5,-762.5 1576.5,-732.5 1300.5,-732.5"/>
<text text-anchor="start" x="1307.5" y="-743.9" font-family="Arial" font-size="14.00" fill="#000000">id </text>
<text text-anchor="start" x="1322.2798" y="-743.9" font-family="Arial" font-size="14.00" fill="#666666">[integer]</text>
<polygon fill="none" stroke="#000000" points="1300.5,-702.5 1300.5,-732.5 1576.5,-732.5 1576.5,-702.5 1300.5,-702.5"/>
<text text-anchor="start" x="1307.5" y="-713.9" font-family="Arial" font-size="14.00" fill="#000000">active </text>
<text text-anchor="start" x="1347.953" y="-713.9" font-family="Arial" font-size="14.00" fill="#666666">[boolean]</text>
<polygon fill="none" stroke="#000000" points="1300.5,-672.5 1300.5,-702.5 1576.5,-702.5 1576.5,-672.5 1300.5,-672.5"/>
<text text-anchor="start" x="1307.5" y="-683.9" font-family="Arial" font-size="14.00" fill="#000000">login </text>
<text text-anchor="start" x="1340.9516" y="-683.9" font-family="Arial" font-size="14.00" fill="#666666">[varchar]</text>
<polygon fill="none" stroke="#000000" points="1300.5,-642.5 1300.5,-672.5 1576.5,-672.5 1576.5,-642.5 1300.5,-642.5"/>
<text text-anchor="start" x="1307.5" y="-653.9" font-family="Arial" font-size="14.00" fill="#000000">password </text>
<text text-anchor="start" x="1371.2882" y="-653.9" font-family="Arial" font-size="14.00" fill="#666666">[varchar]</text>
<polygon fill="none" stroke="#000000" points="1300.5,-612.5 1300.5,-642.5 1576.5,-642.5 1576.5,-612.5 1300.5,-612.5"/>
<text text-anchor="start" x="1307.5" y="-623.9" font-family="Arial" font-size="14.00" fill="#000000">company_id </text>
<text text-anchor="start" x="1386.8534" y="-623.9" font-family="Arial" font-size="14.00" fill="#666666">[integer]</text>
<polygon fill="none" stroke="#000000" points="1300.5,-582.5 1300.5,-612.5 1576.5,-612.5 1576.5,-582.5 1300.5,-582.5"/>
<text text-anchor="start" x="1307.5" y="-593.9" font-family="Arial" font-size="14.00" fill="#000000">partner_id </text>
<text text-anchor="start" x="1374.4046" y="-593.9" font-family="Arial" font-size="14.00" fill="#666666">[integer]</text>
<polygon fill="none" stroke="#000000" points="1300.5,-552.5 1300.5,-582.5 1576.5,-582.5 1576.5,-552.5 1300.5,-552.5"/>
<text text-anchor="start" x="1307.0246" y="-563.9" font-family="Arial" font-size="14.00" fill="#000000">create_date </text>
<text text-anchor="start" x="1384.8352" y="-563.9" font-family="Arial" font-size="14.00" fill="#666666">[timestamp without time zone]</text>
<polygon fill="none" stroke="#000000" points="1300.5,-522.5 1300.5,-552.5 1576.5,-552.5 1576.5,-522.5 1300.5,-522.5"/>
<text text-anchor="start" x="1307.5" y="-533.9" font-family="Arial" font-size="14.00" fill="#000000">signature </text>
<text text-anchor="start" x="1368.9614" y="-533.9" font-family="Arial" font-size="14.00" fill="#666666">[text]</text>
<polygon fill="none" stroke="#000000" points="1300.5,-492.5 1300.5,-522.5 1576.5,-522.5 1576.5,-492.5 1300.5,-492.5"/>
<text text-anchor="start" x="1307.5" y="-503.9" font-family="Arial" font-size="14.00" fill="#000000">action_id </text>
<text text-anchor="start" x="1367.4074" y="-503.9" font-family="Arial" font-size="14.00" fill="#666666">[integer]</text>
<polygon fill="none" stroke="#000000" points="1300.5,-462.5 1300.5,-492.5 1576.5,-492.5 1576.5,-462.5 1300.5,-462.5"/>
<text text-anchor="start" x="1307.5" y="-473.9" font-family="Arial" font-size="14.00" fill="#000000">share </text>
<text text-anchor="start" x="1346.399" y="-473.9" font-family="Arial" font-size="14.00" fill="#666666">[boolean]</text>
<polygon fill="none" stroke="#000000" points="1300.5,-432.5 1300.5,-462.5 1576.5,-462.5 1576.5,-432.5 1300.5,-432.5"/>
<text text-anchor="start" x="1307.5" y="-443.9" font-family="Arial" font-size="14.00" fill="#000000">create_uid </text>
<text text-anchor="start" x="1376.744" y="-443.9" font-family="Arial" font-size="14.00" fill="#666666">[integer]</text>
<polygon fill="none" stroke="#000000" points="1300.5,-402.5 1300.5,-432.5 1576.5,-432.5 1576.5,-402.5 1300.5,-402.5"/>
<text text-anchor="start" x="1307.5" y="-413.9" font-family="Arial" font-size="14.00" fill="#000000">write_uid </text>
<text text-anchor="start" x="1367.392" y="-413.9" font-family="Arial" font-size="14.00" fill="#666666">[integer]</text>
<polygon fill="none" stroke="#000000" points="1300.5,-372.5 1300.5,-402.5 1576.5,-402.5 1576.5,-372.5 1300.5,-372.5"/>
<text text-anchor="start" x="1307.5" y="-383.9" font-family="Arial" font-size="14.00" fill="#000000">write_date </text>
<text text-anchor="start" x="1375.9586" y="-383.9" font-family="Arial" font-size="14.00" fill="#666666">[timestamp without time zone]</text>
<polygon fill="none" stroke="#000000" points="1300.5,-342.5 1300.5,-372.5 1576.5,-372.5 1576.5,-342.5 1300.5,-342.5"/>
<text text-anchor="start" x="1307.5" y="-353.9" font-family="Arial" font-size="14.00" fill="#000000">alias_id </text>
<text text-anchor="start" x="1358.8408" y="-353.9" font-family="Arial" font-size="14.00" fill="#666666">[integer]</text>
<polygon fill="none" stroke="#000000" points="1300.5,-312.5 1300.5,-342.5 1576.5,-342.5 1576.5,-312.5 1300.5,-312.5"/>
<text text-anchor="start" x="1307.5" y="-323.9" font-family="Arial" font-size="14.00" fill="#000000">notification_type </text>
<text text-anchor="start" x="1412.5336" y="-323.9" font-family="Arial" font-size="14.00" fill="#666666">[varchar]</text>
<polygon fill="none" stroke="#000000" points="1300.5,-282.5 1300.5,-312.5 1576.5,-312.5 1576.5,-282.5 1300.5,-282.5"/>
<text text-anchor="start" x="1307.5" y="-293.9" font-family="Arial" font-size="14.00" fill="#000000">odoobot_state </text>
<text text-anchor="start" x="1400.1058" y="-293.9" font-family="Arial" font-size="14.00" fill="#666666">[varchar]</text>
<polygon fill="none" stroke="#000000" points="1300.5,-252.5 1300.5,-282.5 1576.5,-282.5 1576.5,-252.5 1300.5,-252.5"/>
<text text-anchor="start" x="1307.5" y="-263.9" font-family="Arial" font-size="14.00" fill="#000000">sale_team_id </text>
<text text-anchor="start" x="1394.6332" y="-263.9" font-family="Arial" font-size="14.00" fill="#666666">[integer]</text>
<polygon fill="none" stroke="#000000" points="1300.5,-222.5 1300.5,-252.5 1576.5,-252.5 1576.5,-222.5 1300.5,-222.5"/>
<text text-anchor="start" x="1307.5" y="-233.9" font-family="Arial" font-size="14.00" fill="#000000">target_sales_won </text>
<text text-anchor="start" x="1421.089" y="-233.9" font-family="Arial" font-size="14.00" fill="#666666">[integer]</text>
<polygon fill="none" stroke="#000000" points="1300.5,-192.5 1300.5,-222.5 1576.5,-222.5 1576.5,-192.5 1300.5,-192.5"/>
<text text-anchor="start" x="1307.5" y="-203.9" font-family="Arial" font-size="14.00" fill="#000000">target_sales_done </text>
<text text-anchor="start" x="1426.5476" y="-203.9" font-family="Arial" font-size="14.00" fill="#666666">[integer]</text>
<polygon fill="none" stroke="#000000" points="1300.5,-162.5 1300.5,-192.5 1576.5,-192.5 1576.5,-162.5 1300.5,-162.5"/>
<text text-anchor="start" x="1307.5" y="-173.9" font-family="Arial" font-size="14.00" fill="#000000">website_id </text>
<text text-anchor="start" x="1377.514" y="-173.9" font-family="Arial" font-size="14.00" fill="#666666">[integer]</text>
<polygon fill="none" stroke="#000000" points="1300.5,-132.5 1300.5,-162.5 1576.5,-162.5 1576.5,-132.5 1300.5,-132.5"/>
<text text-anchor="start" x="1307.5" y="-143.9" font-family="Arial" font-size="14.00" fill="#000000">target_sales_invoiced </text>
<text text-anchor="start" x="1446.7608" y="-143.9" font-family="Arial" font-size="14.00" fill="#666666">[integer]</text>
<polygon fill="none" stroke="#000000" points="1300.5,-102.5 1300.5,-132.5 1576.5,-132.5 1576.5,-102.5 1300.5,-102.5"/>
<text text-anchor="start" x="1307.5" y="-113.9" font-family="Arial" font-size="14.00" fill="#000000">pos_security_pin </text>
<text text-anchor="start" x="1416.4158" y="-113.9" font-family="Arial" font-size="14.00" fill="#666666">[varchar(32)]</text>
</g>
<!-- public.account_fiscal_position_template&#45;&gt;public.res_users -->
<g id="edge7" class="edge">
<title>public.account_fiscal_position_template:create_uid&#45;&gt;public.res_users:id</title>
<path fill="none" stroke="#000000" d="M1264.5543,-1086.9485C1395.0744,-1071.7493 1151.5861,-747.5 1300.5,-747.5"/>
<polygon fill="#000000" stroke="#000000" points="1264.485,-1086.9522 1254.2535,-1083.0068 1259.4925,-1087.2261 1254.5,-1087.5 1254.5,-1087.5 1254.5,-1087.5 1259.4925,-1087.2261 1254.7465,-1091.9932 1264.485,-1086.9522 1264.485,-1086.9522"/>
<text text-anchor="start" x="1261.157" y="-1097.5" font-family="Arial" font-size="10.00" fill="#000000">FOREIGN KEY (create_uid) REFERENCES res_users(id) ON DELETE SET NULL</text>
</g>
<!-- public.account_fiscal_position_template&#45;&gt;public.res_users -->
<g id="edge8" class="edge">
<title>public.account_fiscal_position_template:write_uid&#45;&gt;public.res_users:id</title>
<path fill="none" stroke="#000000" d="M1264.7451,-1026.7931C1368.8144,-1011.3341 1178.0821,-747.5 1300.5,-747.5"/>
<polygon fill="#000000" stroke="#000000" points="1264.4763,-1026.8116 1254.1902,-1023.0107 1259.4881,-1027.1558 1254.5,-1027.5 1254.5,-1027.5 1254.5,-1027.5 1259.4881,-1027.1558 1254.8098,-1031.9893 1264.4763,-1026.8116 1264.4763,-1026.8116"/>
<text text-anchor="start" x="1261.497" y="-1037.5" font-family="Arial" font-size="10.00" fill="#000000">FOREIGN KEY (write_uid) REFERENCES res_users(id) ON DELETE SET NULL</text>
</g>
<!-- public.account_fiscal_position_template_res_country_state_rel -->
<g id="node2" class="node">
<title>public.account_fiscal_position_template_res_country_state_rel</title>
<polygon fill="#efefef" stroke="transparent" points="94.5,-1742.5 94.5,-1777.5 705.5,-1777.5 705.5,-1742.5 94.5,-1742.5"/>
<polygon fill="none" stroke="#000000" points="94.5,-1742.5 94.5,-1777.5 705.5,-1777.5 705.5,-1742.5 94.5,-1742.5"/>
<text text-anchor="start" x="101.309" y="-1755.3" font-family="Arial Bold" font-size="18.00" fill="#000000">public.account_fiscal_position_template_res_country_state_rel</text>
<text text-anchor="start" x="601.4372" y="-1755.3" font-family="Arial" font-size="14.00" fill="#000000"> </text>
<text text-anchor="start" x="605.3278" y="-1755.3" font-family="Arial" font-size="14.00" fill="#666666">[BASE TABLE]</text>
<polygon fill="none" stroke="#000000" points="94.5,-1712.5 94.5,-1742.5 705.5,-1742.5 705.5,-1712.5 94.5,-1712.5"/>
<text text-anchor="start" x="101.5" y="-1723.9" font-family="Arial" font-size="14.00" fill="#000000">account_fiscal_position_template_id </text>
<text text-anchor="start" x="330.2306" y="-1723.9" font-family="Arial" font-size="14.00" fill="#666666">[integer]</text>
<polygon fill="none" stroke="#000000" points="94.5,-1682.5 94.5,-1712.5 705.5,-1712.5 705.5,-1682.5 94.5,-1682.5"/>
<text text-anchor="start" x="101.5" y="-1693.9" font-family="Arial" font-size="14.00" fill="#000000">res_country_state_id </text>
<text text-anchor="start" x="235.3162" y="-1693.9" font-family="Arial" font-size="14.00" fill="#666666">[integer]</text>
</g>
<!-- public.account_fiscal_position_template_res_country_state_rel&#45;&gt;public.account_fiscal_position_template -->
<g id="edge1" class="edge">
<title>public.account_fiscal_position_template_res_country_state_rel:account_fiscal_position_template_id&#45;&gt;public.account_fiscal_position_template:id</title>
<path fill="none" stroke="#000000" d="M715.7333,-1726.8986C782.4187,-1718.4548 728.1927,-1622.8366 757.5,-1550 782.2845,-1488.4039 760.1046,-1417.5 826.5,-1417.5"/>
<polygon fill="#000000" stroke="#000000" points="715.4828,-1726.9132 705.2359,-1723.0078 710.4914,-1727.2066 705.5,-1727.5 705.5,-1727.5 705.5,-1727.5 710.4914,-1727.2066 705.7641,-1731.9922 715.4828,-1726.9132 715.4828,-1726.9132"/>
<text text-anchor="start" x="712.2375" y="-1737.5" font-family="Arial" font-size="10.00" fill="#000000">FOREIGN KEY (account_fiscal_position_template_id) REFERENCES account_fiscal_position_template(id) ON DELETE CASCADE</text>
</g>
<!-- public.account_fiscal_position_tax_template -->
<g id="node3" class="node">
<title>public.account_fiscal_position_tax_template</title>
<polygon fill="#efefef" stroke="transparent" points="809.5,-1832.5 809.5,-1867.5 1271.5,-1867.5 1271.5,-1832.5 809.5,-1832.5"/>
<polygon fill="none" stroke="#000000" points="809.5,-1832.5 809.5,-1867.5 1271.5,-1867.5 1271.5,-1832.5 809.5,-1832.5"/>
<text text-anchor="start" x="816.3245" y="-1845.3" font-family="Arial Bold" font-size="18.00" fill="#000000">public.account_fiscal_position_tax_template</text>
<text text-anchor="start" x="1167.4217" y="-1845.3" font-family="Arial" font-size="14.00" fill="#000000"> </text>
<text text-anchor="start" x="1171.3123" y="-1845.3" font-family="Arial" font-size="14.00" fill="#666666">[BASE TABLE]</text>
<polygon fill="none" stroke="#000000" points="809.5,-1802.5 809.5,-1832.5 1271.5,-1832.5 1271.5,-1802.5 809.5,-1802.5"/>
<text text-anchor="start" x="816.5" y="-1813.9" font-family="Arial" font-size="14.00" fill="#000000">id </text>
<text text-anchor="start" x="831.2798" y="-1813.9" font-family="Arial" font-size="14.00" fill="#666666">[integer]</text>
<polygon fill="none" stroke="#000000" points="809.5,-1772.5 809.5,-1802.5 1271.5,-1802.5 1271.5,-1772.5 809.5,-1772.5"/>
<text text-anchor="start" x="816.5" y="-1783.9" font-family="Arial" font-size="14.00" fill="#000000">position_id </text>
<text text-anchor="start" x="887.2966" y="-1783.9" font-family="Arial" font-size="14.00" fill="#666666">[integer]</text>
<polygon fill="none" stroke="#000000" points="809.5,-1742.5 809.5,-1772.5 1271.5,-1772.5 1271.5,-1742.5 809.5,-1742.5"/>
<text text-anchor="start" x="816.5" y="-1753.9" font-family="Arial" font-size="14.00" fill="#000000">tax_src_id </text>
<text text-anchor="start" x="884.1788" y="-1753.9" font-family="Arial" font-size="14.00" fill="#666666">[integer]</text>
<polygon fill="none" stroke="#000000" points="809.5,-1712.5 809.5,-1742.5 1271.5,-1742.5 1271.5,-1712.5 809.5,-1712.5"/>
<text text-anchor="start" x="816.5" y="-1723.9" font-family="Arial" font-size="14.00" fill="#000000">tax_dest_id </text>
<text text-anchor="start" x="891.974" y="-1723.9" font-family="Arial" font-size="14.00" fill="#666666">[integer]</text>
<polygon fill="none" stroke="#000000" points="809.5,-1682.5 809.5,-1712.5 1271.5,-1712.5 1271.5,-1682.5 809.5,-1682.5"/>
<text text-anchor="start" x="816.5" y="-1693.9" font-family="Arial" font-size="14.00" fill="#000000">create_uid </text>
<text text-anchor="start" x="885.744" y="-1693.9" font-family="Arial" font-size="14.00" fill="#666666">[integer]</text>
<polygon fill="none" stroke="#000000" points="809.5,-1652.5 809.5,-1682.5 1271.5,-1682.5 1271.5,-1652.5 809.5,-1652.5"/>
<text text-anchor="start" x="816.5" y="-1663.9" font-family="Arial" font-size="14.00" fill="#000000">create_date </text>
<text text-anchor="start" x="894.3106" y="-1663.9" font-family="Arial" font-size="14.00" fill="#666666">[timestamp without time zone]</text>
<polygon fill="none" stroke="#000000" points="809.5,-1622.5 809.5,-1652.5 1271.5,-1652.5 1271.5,-1622.5 809.5,-1622.5"/>
<text text-anchor="start" x="816.5" y="-1633.9" font-family="Arial" font-size="14.00" fill="#000000">write_uid </text>
<text text-anchor="start" x="876.392" y="-1633.9" font-family="Arial" font-size="14.00" fill="#666666">[integer]</text>
<polygon fill="none" stroke="#000000" points="809.5,-1592.5 809.5,-1622.5 1271.5,-1622.5 1271.5,-1592.5 809.5,-1592.5"/>
<text text-anchor="start" x="816.5" y="-1603.9" font-family="Arial" font-size="14.00" fill="#000000">write_date </text>
<text text-anchor="start" x="884.9586" y="-1603.9" font-family="Arial" font-size="14.00" fill="#666666">[timestamp without time zone]</text>
</g>
<!-- public.account_fiscal_position_tax_template&#45;&gt;public.account_fiscal_position_template -->
<g id="edge2" class="edge">
<title>public.account_fiscal_position_tax_template:position_id&#45;&gt;public.account_fiscal_position_template:id</title>
<path fill="none" stroke="#000000" d="M1279.7162,-1781.6882C1309.998,-1734.6162 1292.6,-1417.5 1254.5,-1417.5"/>
<polygon fill="#000000" stroke="#000000" points="1279.664,-1781.7251 1268.9013,-1783.8262 1275.582,-1784.6125 1271.5,-1787.5 1271.5,-1787.5 1271.5,-1787.5 1275.582,-1784.6125 1274.0987,-1791.1738 1279.664,-1781.7251 1279.664,-1781.7251"/>
<text text-anchor="start" x="1036.1425" y="-1771.5" font-family="Arial" font-size="10.00" fill="#000000">FOREIGN KEY (position_id) REFERENCES account_fiscal_position_template(id) ON DELETE CASCADE</text>
</g>
<!-- public.account_fiscal_position_account_template -->
<g id="node4" class="node">
<title>public.account_fiscal_position_account_template</title>
<polygon fill="#efefef" stroke="transparent" points="1376.5,-1832.5 1376.5,-1867.5 1877.5,-1867.5 1877.5,-1832.5 1376.5,-1832.5"/>
<polygon fill="none" stroke="#000000" points="1376.5,-1832.5 1376.5,-1867.5 1877.5,-1867.5 1877.5,-1832.5 1376.5,-1832.5"/>
<text text-anchor="start" x="1383.3152" y="-1845.3" font-family="Arial Bold" font-size="18.00" fill="#000000">public.account_fiscal_position_account_template</text>
<text text-anchor="start" x="1773.431" y="-1845.3" font-family="Arial" font-size="14.00" fill="#000000"> </text>
<text text-anchor="start" x="1777.3216" y="-1845.3" font-family="Arial" font-size="14.00" fill="#666666">[BASE TABLE]</text>
<polygon fill="none" stroke="#000000" points="1376.5,-1802.5 1376.5,-1832.5 1877.5,-1832.5 1877.5,-1802.5 1376.5,-1802.5"/>
<text text-anchor="start" x="1383.5" y="-1813.9" font-family="Arial" font-size="14.00" fill="#000000">id </text>
<text text-anchor="start" x="1398.2798" y="-1813.9" font-family="Arial" font-size="14.00" fill="#666666">[integer]</text>
<polygon fill="none" stroke="#000000" points="1376.5,-1772.5 1376.5,-1802.5 1877.5,-1802.5 1877.5,-1772.5 1376.5,-1772.5"/>
<text text-anchor="start" x="1383.5" y="-1783.9" font-family="Arial" font-size="14.00" fill="#000000">position_id </text>
<text text-anchor="start" x="1454.2966" y="-1783.9" font-family="Arial" font-size="14.00" fill="#666666">[integer]</text>
<polygon fill="none" stroke="#000000" points="1376.5,-1742.5 1376.5,-1772.5 1877.5,-1772.5 1877.5,-1742.5 1376.5,-1742.5"/>
<text text-anchor="start" x="1383.5" y="-1753.9" font-family="Arial" font-size="14.00" fill="#000000">account_src_id </text>
<text text-anchor="start" x="1481.5266" y="-1753.9" font-family="Arial" font-size="14.00" fill="#666666">[integer]</text>
<polygon fill="none" stroke="#000000" points="1376.5,-1712.5 1376.5,-1742.5 1877.5,-1742.5 1877.5,-1712.5 1376.5,-1712.5"/>
<text text-anchor="start" x="1383.5" y="-1723.9" font-family="Arial" font-size="14.00" fill="#000000">account_dest_id </text>
<text text-anchor="start" x="1489.3218" y="-1723.9" font-family="Arial" font-size="14.00" fill="#666666">[integer]</text>
<polygon fill="none" stroke="#000000" points="1376.5,-1682.5 1376.5,-1712.5 1877.5,-1712.5 1877.5,-1682.5 1376.5,-1682.5"/>
<text text-anchor="start" x="1383.5" y="-1693.9" font-family="Arial" font-size="14.00" fill="#000000">create_uid </text>
<text text-anchor="start" x="1452.744" y="-1693.9" font-family="Arial" font-size="14.00" fill="#666666">[integer]</text>
<polygon fill="none" stroke="#000000" points="1376.5,-1652.5 1376.5,-1682.5 1877.5,-1682.5 1877.5,-1652.5 1376.5,-1652.5"/>
<text text-anchor="start" x="1383.5" y="-1663.9" font-family="Arial" font-size="14.00" fill="#000000">create_date </text>
<text text-anchor="start" x="1461.3106" y="-1663.9" font-family="Arial" font-size="14.00" fill="#666666">[timestamp without time zone]</text>
<polygon fill="none" stroke="#000000" points="1376.5,-1622.5 1376.5,-1652.5 1877.5,-1652.5 1877.5,-1622.5 1376.5,-1622.5"/>
<text text-anchor="start" x="1383.5" y="-1633.9" font-family="Arial" font-size="14.00" fill="#000000">write_uid </text>
<text text-anchor="start" x="1443.392" y="-1633.9" font-family="Arial" font-size="14.00" fill="#666666">[integer]</text>
<polygon fill="none" stroke="#000000" points="1376.5,-1592.5 1376.5,-1622.5 1877.5,-1622.5 1877.5,-1592.5 1376.5,-1592.5"/>
<text text-anchor="start" x="1383.5" y="-1603.9" font-family="Arial" font-size="14.00" fill="#000000">write_date </text>
<text text-anchor="start" x="1451.9586" y="-1603.9" font-family="Arial" font-size="14.00" fill="#666666">[timestamp without time zone]</text>
</g>
<!-- public.account_fiscal_position_account_template&#45;&gt;public.account_fiscal_position_template -->
<g id="edge3" class="edge">
<title>public.account_fiscal_position_account_template:position_id&#45;&gt;public.account_fiscal_position_template:id</title>
<path fill="none" stroke="#000000" d="M1366.6691,-1785.1246C1324.8603,-1763.3033 1340.8034,-1597.427 1323.5,-1550 1300.7434,-1487.6263 1320.8954,-1417.5 1254.5,-1417.5"/>
<polygon fill="#000000" stroke="#000000" points="1366.7797,-1785.1512 1375.443,-1791.8741 1371.6399,-1786.3256 1376.5,-1787.5 1376.5,-1787.5 1376.5,-1787.5 1371.6399,-1786.3256 1377.557,-1783.1259 1366.7797,-1785.1512 1366.7797,-1785.1512"/>
<text text-anchor="start" x="898.6425" y="-1797.5" font-family="Arial" font-size="10.00" fill="#000000">FOREIGN KEY (position_id) REFERENCES account_fiscal_position_template(id) ON DELETE CASCADE</text>
</g>
</g>
</svg>
