<?xml version="1.0" encoding="UTF-8" standalone="no"?>
<!DOCTYPE svg PUBLIC "-//W3C//DTD SVG 1.1//EN"
 "http://www.w3.org/Graphics/SVG/1.1/DTD/svg11.dtd">
<!-- Generated by graphviz version 2.40.1 (20161225.0304)
 -->
<!-- Title: public.stock_move_move_rel Pages: 1 -->
<svg width="802pt" height="1972pt"
 viewBox="0.00 0.00 801.50 1972.00" xmlns="http://www.w3.org/2000/svg" xmlns:xlink="http://www.w3.org/1999/xlink">
<g id="graph0" class="graph" transform="scale(1 1) rotate(0) translate(4 1968)">
<title>public.stock_move_move_rel</title>
<polygon fill="#ffffff" stroke="transparent" points="-4,4 -4,-1968 797.5,-1968 797.5,4 -4,4"/>
<!-- public.stock_move_move_rel -->
<g id="node1" class="node">
<title>public.stock_move_move_rel</title>
<polygon fill="#efefef" stroke="transparent" points="46.5,-1882.5 46.5,-1917.5 389.5,-1917.5 389.5,-1882.5 46.5,-1882.5"/>
<polygon fill="none" stroke="#000000" points="46.5,-1882.5 46.5,-1917.5 389.5,-1917.5 389.5,-1882.5 46.5,-1882.5"/>
<text text-anchor="start" x="53.3541" y="-1895.3" font-family="Arial Bold" font-size="18.00" fill="#000000">public.stock_move_move_rel</text>
<text text-anchor="start" x="285.3921" y="-1895.3" font-family="Arial" font-size="14.00" fill="#000000"> </text>
<text text-anchor="start" x="289.2827" y="-1895.3" font-family="Arial" font-size="14.00" fill="#666666">[BASE TABLE]</text>
<polygon fill="none" stroke="#000000" points="46.5,-1852.5 46.5,-1882.5 389.5,-1882.5 389.5,-1852.5 46.5,-1852.5"/>
<text text-anchor="start" x="53.5" y="-1863.9" font-family="Arial" font-size="14.00" fill="#000000">move_orig_id </text>
<text text-anchor="start" x="141.4032" y="-1863.9" font-family="Arial" font-size="14.00" fill="#666666">[integer]</text>
<polygon fill="none" stroke="#000000" points="46.5,-1822.5 46.5,-1852.5 389.5,-1852.5 389.5,-1822.5 46.5,-1822.5"/>
<text text-anchor="start" x="53.5" y="-1833.9" font-family="Arial" font-size="14.00" fill="#000000">move_dest_id </text>
<text text-anchor="start" x="144.5266" y="-1833.9" font-family="Arial" font-size="14.00" fill="#666666">[integer]</text>
<polygon fill="none" stroke="#000000" stroke-width="3" points="44.5,-1821.5 44.5,-1919.5 390.5,-1919.5 390.5,-1821.5 44.5,-1821.5"/>
</g>
<!-- public.stock_move -->
<g id="node2" class="node">
<title>public.stock_move</title>
<polygon fill="#efefef" stroke="transparent" points="71.5,-1662.5 71.5,-1697.5 365.5,-1697.5 365.5,-1662.5 71.5,-1662.5"/>
<polygon fill="none" stroke="#000000" points="71.5,-1662.5 71.5,-1697.5 365.5,-1697.5 365.5,-1662.5 71.5,-1662.5"/>
<text text-anchor="start" x="95.8589" y="-1675.3" font-family="Arial Bold" font-size="18.00" fill="#000000">public.stock_move</text>
<text text-anchor="start" x="243.8873" y="-1675.3" font-family="Arial" font-size="14.00" fill="#000000"> </text>
<text text-anchor="start" x="247.7779" y="-1675.3" font-family="Arial" font-size="14.00" fill="#666666">[BASE TABLE]</text>
<polygon fill="none" stroke="#000000" points="71.5,-1632.5 71.5,-1662.5 365.5,-1662.5 365.5,-1632.5 71.5,-1632.5"/>
<text text-anchor="start" x="78.5" y="-1643.9" font-family="Arial" font-size="14.00" fill="#000000">id </text>
<text text-anchor="start" x="93.2798" y="-1643.9" font-family="Arial" font-size="14.00" fill="#666666">[integer]</text>
<polygon fill="none" stroke="#000000" points="71.5,-1602.5 71.5,-1632.5 365.5,-1632.5 365.5,-1602.5 71.5,-1602.5"/>
<text text-anchor="start" x="78.5" y="-1613.9" font-family="Arial" font-size="14.00" fill="#000000">name </text>
<text text-anchor="start" x="117.399" y="-1613.9" font-family="Arial" font-size="14.00" fill="#666666">[varchar]</text>
<polygon fill="none" stroke="#000000" points="71.5,-1572.5 71.5,-1602.5 365.5,-1602.5 365.5,-1572.5 71.5,-1572.5"/>
<text text-anchor="start" x="78.5" y="-1583.9" font-family="Arial" font-size="14.00" fill="#000000">sequence </text>
<text text-anchor="start" x="143.0862" y="-1583.9" font-family="Arial" font-size="14.00" fill="#666666">[integer]</text>
<polygon fill="none" stroke="#000000" points="71.5,-1542.5 71.5,-1572.5 365.5,-1572.5 365.5,-1542.5 71.5,-1542.5"/>
<text text-anchor="start" x="78.5" y="-1553.9" font-family="Arial" font-size="14.00" fill="#000000">priority </text>
<text text-anchor="start" x="124.3808" y="-1553.9" font-family="Arial" font-size="14.00" fill="#666666">[varchar]</text>
<polygon fill="none" stroke="#000000" points="71.5,-1512.5 71.5,-1542.5 365.5,-1542.5 365.5,-1512.5 71.5,-1512.5"/>
<text text-anchor="start" x="78.5" y="-1523.9" font-family="Arial" font-size="14.00" fill="#000000">create_date </text>
<text text-anchor="start" x="156.3106" y="-1523.9" font-family="Arial" font-size="14.00" fill="#666666">[timestamp without time zone]</text>
<polygon fill="none" stroke="#000000" points="71.5,-1482.5 71.5,-1512.5 365.5,-1512.5 365.5,-1482.5 71.5,-1482.5"/>
<text text-anchor="start" x="78.5" y="-1493.9" font-family="Arial" font-size="14.00" fill="#000000">date </text>
<text text-anchor="start" x="109.629" y="-1493.9" font-family="Arial" font-size="14.00" fill="#666666">[timestamp without time zone]</text>
<polygon fill="none" stroke="#000000" points="71.5,-1452.5 71.5,-1482.5 365.5,-1482.5 365.5,-1452.5 71.5,-1452.5"/>
<text text-anchor="start" x="78.5" y="-1463.9" font-family="Arial" font-size="14.00" fill="#000000">company_id </text>
<text text-anchor="start" x="157.8534" y="-1463.9" font-family="Arial" font-size="14.00" fill="#666666">[integer]</text>
<polygon fill="none" stroke="#000000" points="71.5,-1422.5 71.5,-1452.5 365.5,-1452.5 365.5,-1422.5 71.5,-1422.5"/>
<text text-anchor="start" x="78.0723" y="-1433.9" font-family="Arial" font-size="14.00" fill="#000000">date_expected </text>
<text text-anchor="start" x="173.7875" y="-1433.9" font-family="Arial" font-size="14.00" fill="#666666">[timestamp without time zone]</text>
<polygon fill="none" stroke="#000000" points="71.5,-1392.5 71.5,-1422.5 365.5,-1422.5 365.5,-1392.5 71.5,-1392.5"/>
<text text-anchor="start" x="78.5" y="-1403.9" font-family="Arial" font-size="14.00" fill="#000000">product_id </text>
<text text-anchor="start" x="147.744" y="-1403.9" font-family="Arial" font-size="14.00" fill="#666666">[integer]</text>
<polygon fill="none" stroke="#000000" points="71.5,-1362.5 71.5,-1392.5 365.5,-1392.5 365.5,-1362.5 71.5,-1362.5"/>
<text text-anchor="start" x="78.5" y="-1373.9" font-family="Arial" font-size="14.00" fill="#000000">product_qty </text>
<text text-anchor="start" x="155.528" y="-1373.9" font-family="Arial" font-size="14.00" fill="#666666">[numeric]</text>
<polygon fill="none" stroke="#000000" points="71.5,-1332.5 71.5,-1362.5 365.5,-1362.5 365.5,-1332.5 71.5,-1332.5"/>
<text text-anchor="start" x="78.5" y="-1343.9" font-family="Arial" font-size="14.00" fill="#000000">product_uom_qty </text>
<text text-anchor="start" x="190.5364" y="-1343.9" font-family="Arial" font-size="14.00" fill="#666666">[numeric]</text>
<polygon fill="none" stroke="#000000" points="71.5,-1302.5 71.5,-1332.5 365.5,-1332.5 365.5,-1302.5 71.5,-1302.5"/>
<text text-anchor="start" x="78.5" y="-1313.9" font-family="Arial" font-size="14.00" fill="#000000">product_uom </text>
<text text-anchor="start" x="164.0806" y="-1313.9" font-family="Arial" font-size="14.00" fill="#666666">[integer]</text>
<polygon fill="none" stroke="#000000" points="71.5,-1272.5 71.5,-1302.5 365.5,-1302.5 365.5,-1272.5 71.5,-1272.5"/>
<text text-anchor="start" x="78.5" y="-1283.9" font-family="Arial" font-size="14.00" fill="#000000">product_packaging </text>
<text text-anchor="start" x="200.657" y="-1283.9" font-family="Arial" font-size="14.00" fill="#666666">[integer]</text>
<polygon fill="none" stroke="#000000" points="71.5,-1242.5 71.5,-1272.5 365.5,-1272.5 365.5,-1242.5 71.5,-1242.5"/>
<text text-anchor="start" x="78.5" y="-1253.9" font-family="Arial" font-size="14.00" fill="#000000">location_id </text>
<text text-anchor="start" x="149.2966" y="-1253.9" font-family="Arial" font-size="14.00" fill="#666666">[integer]</text>
<polygon fill="none" stroke="#000000" points="71.5,-1212.5 71.5,-1242.5 365.5,-1242.5 365.5,-1212.5 71.5,-1212.5"/>
<text text-anchor="start" x="78.5" y="-1223.9" font-family="Arial" font-size="14.00" fill="#000000">location_dest_id </text>
<text text-anchor="start" x="183.535" y="-1223.9" font-family="Arial" font-size="14.00" fill="#666666">[integer]</text>
<polygon fill="none" stroke="#000000" points="71.5,-1182.5 71.5,-1212.5 365.5,-1212.5 365.5,-1182.5 71.5,-1182.5"/>
<text text-anchor="start" x="78.5" y="-1193.9" font-family="Arial" font-size="14.00" fill="#000000">partner_id </text>
<text text-anchor="start" x="145.4046" y="-1193.9" font-family="Arial" font-size="14.00" fill="#666666">[integer]</text>
<polygon fill="none" stroke="#000000" points="71.5,-1152.5 71.5,-1182.5 365.5,-1182.5 365.5,-1152.5 71.5,-1152.5"/>
<text text-anchor="start" x="78.5" y="-1163.9" font-family="Arial" font-size="14.00" fill="#000000">picking_id </text>
<text text-anchor="start" x="144.6234" y="-1163.9" font-family="Arial" font-size="14.00" fill="#666666">[integer]</text>
<polygon fill="none" stroke="#000000" points="71.5,-1122.5 71.5,-1152.5 365.5,-1152.5 365.5,-1122.5 71.5,-1122.5"/>
<text text-anchor="start" x="78.5" y="-1133.9" font-family="Arial" font-size="14.00" fill="#000000">note </text>
<text text-anchor="start" x="109.629" y="-1133.9" font-family="Arial" font-size="14.00" fill="#666666">[text]</text>
<polygon fill="none" stroke="#000000" points="71.5,-1092.5 71.5,-1122.5 365.5,-1122.5 365.5,-1092.5 71.5,-1092.5"/>
<text text-anchor="start" x="78.5" y="-1103.9" font-family="Arial" font-size="14.00" fill="#000000">state </text>
<text text-anchor="start" x="112.737" y="-1103.9" font-family="Arial" font-size="14.00" fill="#666666">[varchar]</text>
<polygon fill="none" stroke="#000000" points="71.5,-1062.5 71.5,-1092.5 365.5,-1092.5 365.5,-1062.5 71.5,-1062.5"/>
<text text-anchor="start" x="78.5" y="-1073.9" font-family="Arial" font-size="14.00" fill="#000000">price_unit </text>
<text text-anchor="start" x="143.068" y="-1073.9" font-family="Arial" font-size="14.00" fill="#666666">[double precision]</text>
<polygon fill="none" stroke="#000000" points="71.5,-1032.5 71.5,-1062.5 365.5,-1062.5 365.5,-1032.5 71.5,-1032.5"/>
<text text-anchor="start" x="78.5" y="-1043.9" font-family="Arial" font-size="14.00" fill="#000000">origin </text>
<text text-anchor="start" x="116.6122" y="-1043.9" font-family="Arial" font-size="14.00" fill="#666666">[varchar]</text>
<polygon fill="none" stroke="#000000" points="71.5,-1002.5 71.5,-1032.5 365.5,-1032.5 365.5,-1002.5 71.5,-1002.5"/>
<text text-anchor="start" x="78.5" y="-1013.9" font-family="Arial" font-size="14.00" fill="#000000">procure_method </text>
<text text-anchor="start" x="184.3064" y="-1013.9" font-family="Arial" font-size="14.00" fill="#666666">[varchar]</text>
<polygon fill="none" stroke="#000000" points="71.5,-972.5 71.5,-1002.5 365.5,-1002.5 365.5,-972.5 71.5,-972.5"/>
<text text-anchor="start" x="78.5" y="-983.9" font-family="Arial" font-size="14.00" fill="#000000">scrapped </text>
<text text-anchor="start" x="139.9642" y="-983.9" font-family="Arial" font-size="14.00" fill="#666666">[boolean]</text>
<polygon fill="none" stroke="#000000" points="71.5,-942.5 71.5,-972.5 365.5,-972.5 365.5,-942.5 71.5,-942.5"/>
<text text-anchor="start" x="78.5" y="-953.9" font-family="Arial" font-size="14.00" fill="#000000">group_id </text>
<text text-anchor="start" x="136.8534" y="-953.9" font-family="Arial" font-size="14.00" fill="#666666">[integer]</text>
<polygon fill="none" stroke="#000000" points="71.5,-912.5 71.5,-942.5 365.5,-942.5 365.5,-912.5 71.5,-912.5"/>
<text text-anchor="start" x="78.5" y="-923.9" font-family="Arial" font-size="14.00" fill="#000000">rule_id </text>
<text text-anchor="start" x="124.3948" y="-923.9" font-family="Arial" font-size="14.00" fill="#666666">[integer]</text>
<polygon fill="none" stroke="#000000" points="71.5,-882.5 71.5,-912.5 365.5,-912.5 365.5,-882.5 71.5,-882.5"/>
<text text-anchor="start" x="78.5" y="-893.9" font-family="Arial" font-size="14.00" fill="#000000">propagate </text>
<text text-anchor="start" x="145.42" y="-893.9" font-family="Arial" font-size="14.00" fill="#666666">[boolean]</text>
<polygon fill="none" stroke="#000000" points="71.5,-852.5 71.5,-882.5 365.5,-882.5 365.5,-852.5 71.5,-852.5"/>
<text text-anchor="start" x="78.5" y="-863.9" font-family="Arial" font-size="14.00" fill="#000000">picking_type_id </text>
<text text-anchor="start" x="178.8618" y="-863.9" font-family="Arial" font-size="14.00" fill="#666666">[integer]</text>
<polygon fill="none" stroke="#000000" points="71.5,-822.5 71.5,-852.5 365.5,-852.5 365.5,-822.5 71.5,-822.5"/>
<text text-anchor="start" x="78.5" y="-833.9" font-family="Arial" font-size="14.00" fill="#000000">inventory_id </text>
<text text-anchor="start" x="157.8506" y="-833.9" font-family="Arial" font-size="14.00" fill="#666666">[integer]</text>
<polygon fill="none" stroke="#000000" points="71.5,-792.5 71.5,-822.5 365.5,-822.5 365.5,-792.5 71.5,-792.5"/>
<text text-anchor="start" x="78.5" y="-803.9" font-family="Arial" font-size="14.00" fill="#000000">origin_returned_move_id </text>
<text text-anchor="start" x="237.1998" y="-803.9" font-family="Arial" font-size="14.00" fill="#666666">[integer]</text>
<polygon fill="none" stroke="#000000" points="71.5,-762.5 71.5,-792.5 365.5,-792.5 365.5,-762.5 71.5,-762.5"/>
<text text-anchor="start" x="78.5" y="-773.9" font-family="Arial" font-size="14.00" fill="#000000">restrict_partner_id </text>
<text text-anchor="start" x="195.1788" y="-773.9" font-family="Arial" font-size="14.00" fill="#666666">[integer]</text>
<polygon fill="none" stroke="#000000" points="71.5,-732.5 71.5,-762.5 365.5,-762.5 365.5,-732.5 71.5,-732.5"/>
<text text-anchor="start" x="78.5" y="-743.9" font-family="Arial" font-size="14.00" fill="#000000">warehouse_id </text>
<text text-anchor="start" x="169.5252" y="-743.9" font-family="Arial" font-size="14.00" fill="#666666">[integer]</text>
<polygon fill="none" stroke="#000000" points="71.5,-702.5 71.5,-732.5 365.5,-732.5 365.5,-702.5 71.5,-702.5"/>
<text text-anchor="start" x="78.5" y="-713.9" font-family="Arial" font-size="14.00" fill="#000000">additional </text>
<text text-anchor="start" x="142.2966" y="-713.9" font-family="Arial" font-size="14.00" fill="#666666">[boolean]</text>
<polygon fill="none" stroke="#000000" points="71.5,-672.5 71.5,-702.5 365.5,-702.5 365.5,-672.5 71.5,-672.5"/>
<text text-anchor="start" x="78.5" y="-683.9" font-family="Arial" font-size="14.00" fill="#000000">reference </text>
<text text-anchor="start" x="141.5154" y="-683.9" font-family="Arial" font-size="14.00" fill="#666666">[varchar]</text>
<polygon fill="none" stroke="#000000" points="71.5,-642.5 71.5,-672.5 365.5,-672.5 365.5,-642.5 71.5,-642.5"/>
<text text-anchor="start" x="78.5" y="-653.9" font-family="Arial" font-size="14.00" fill="#000000">package_level_id </text>
<text text-anchor="start" x="190.5364" y="-653.9" font-family="Arial" font-size="14.00" fill="#666666">[integer]</text>
<polygon fill="none" stroke="#000000" points="71.5,-612.5 71.5,-642.5 365.5,-642.5 365.5,-612.5 71.5,-612.5"/>
<text text-anchor="start" x="78.5" y="-623.9" font-family="Arial" font-size="14.00" fill="#000000">create_uid </text>
<text text-anchor="start" x="147.744" y="-623.9" font-family="Arial" font-size="14.00" fill="#666666">[integer]</text>
<polygon fill="none" stroke="#000000" points="71.5,-582.5 71.5,-612.5 365.5,-612.5 365.5,-582.5 71.5,-582.5"/>
<text text-anchor="start" x="78.5" y="-593.9" font-family="Arial" font-size="14.00" fill="#000000">write_uid </text>
<text text-anchor="start" x="138.392" y="-593.9" font-family="Arial" font-size="14.00" fill="#666666">[integer]</text>
<polygon fill="none" stroke="#000000" points="71.5,-552.5 71.5,-582.5 365.5,-582.5 365.5,-552.5 71.5,-552.5"/>
<text text-anchor="start" x="78.5" y="-563.9" font-family="Arial" font-size="14.00" fill="#000000">write_date </text>
<text text-anchor="start" x="146.9586" y="-563.9" font-family="Arial" font-size="14.00" fill="#666666">[timestamp without time zone]</text>
<polygon fill="none" stroke="#000000" points="71.5,-522.5 71.5,-552.5 365.5,-552.5 365.5,-522.5 71.5,-522.5"/>
<text text-anchor="start" x="78.5" y="-533.9" font-family="Arial" font-size="14.00" fill="#000000">to_refund </text>
<text text-anchor="start" x="141.528" y="-533.9" font-family="Arial" font-size="14.00" fill="#666666">[boolean]</text>
<polygon fill="none" stroke="#000000" points="71.5,-492.5 71.5,-522.5 365.5,-522.5 365.5,-492.5 71.5,-492.5"/>
<text text-anchor="start" x="78.5" y="-503.9" font-family="Arial" font-size="14.00" fill="#000000">value </text>
<text text-anchor="start" x="115.845" y="-503.9" font-family="Arial" font-size="14.00" fill="#666666">[double precision]</text>
<polygon fill="none" stroke="#000000" points="71.5,-462.5 71.5,-492.5 365.5,-492.5 365.5,-462.5 71.5,-462.5"/>
<text text-anchor="start" x="78.5" y="-473.9" font-family="Arial" font-size="14.00" fill="#000000">remaining_qty </text>
<text text-anchor="start" x="170.2938" y="-473.9" font-family="Arial" font-size="14.00" fill="#666666">[double precision]</text>
<polygon fill="none" stroke="#000000" points="71.5,-432.5 71.5,-462.5 365.5,-462.5 365.5,-432.5 71.5,-432.5"/>
<text text-anchor="start" x="78.5" y="-443.9" font-family="Arial" font-size="14.00" fill="#000000">remaining_value </text>
<text text-anchor="start" x="185.075" y="-443.9" font-family="Arial" font-size="14.00" fill="#666666">[double precision]</text>
<polygon fill="none" stroke="#000000" points="71.5,-402.5 71.5,-432.5 365.5,-432.5 365.5,-402.5 71.5,-402.5"/>
<text text-anchor="start" x="78.5" y="-413.9" font-family="Arial" font-size="14.00" fill="#000000">sale_line_id </text>
<text text-anchor="start" x="156.2952" y="-413.9" font-family="Arial" font-size="14.00" fill="#666666">[integer]</text>
<polygon fill="none" stroke="#000000" points="71.5,-372.5 71.5,-402.5 365.5,-402.5 365.5,-372.5 71.5,-372.5"/>
<text text-anchor="start" x="78.5" y="-383.9" font-family="Arial" font-size="14.00" fill="#000000">purchase_line_id </text>
<text text-anchor="start" x="188.197" y="-383.9" font-family="Arial" font-size="14.00" fill="#666666">[integer]</text>
<polygon fill="none" stroke="#000000" points="71.5,-342.5 71.5,-372.5 365.5,-372.5 365.5,-342.5 71.5,-342.5"/>
<text text-anchor="start" x="78.5" y="-353.9" font-family="Arial" font-size="14.00" fill="#000000">created_purchase_line_id </text>
<text text-anchor="start" x="242.6612" y="-353.9" font-family="Arial" font-size="14.00" fill="#666666">[integer]</text>
<polygon fill="none" stroke="#000000" points="71.5,-312.5 71.5,-342.5 365.5,-342.5 365.5,-312.5 71.5,-312.5"/>
<text text-anchor="start" x="78.5" y="-323.9" font-family="Arial" font-size="14.00" fill="#000000">created_production_id </text>
<text text-anchor="start" x="220.88" y="-323.9" font-family="Arial" font-size="14.00" fill="#666666">[integer]</text>
<polygon fill="none" stroke="#000000" points="71.5,-282.5 71.5,-312.5 365.5,-312.5 365.5,-282.5 71.5,-282.5"/>
<text text-anchor="start" x="78.5" y="-293.9" font-family="Arial" font-size="14.00" fill="#000000">production_id </text>
<text text-anchor="start" x="166.4158" y="-293.9" font-family="Arial" font-size="14.00" fill="#666666">[integer]</text>
<polygon fill="none" stroke="#000000" points="71.5,-252.5 71.5,-282.5 365.5,-282.5 365.5,-252.5 71.5,-252.5"/>
<text text-anchor="start" x="78.5" y="-263.9" font-family="Arial" font-size="14.00" fill="#000000">raw_material_production_id </text>
<text text-anchor="start" x="254.3036" y="-263.9" font-family="Arial" font-size="14.00" fill="#666666">[integer]</text>
<polygon fill="none" stroke="#000000" points="71.5,-222.5 71.5,-252.5 365.5,-252.5 365.5,-222.5 71.5,-222.5"/>
<text text-anchor="start" x="78.5" y="-233.9" font-family="Arial" font-size="14.00" fill="#000000">unbuild_id </text>
<text text-anchor="start" x="146.1886" y="-233.9" font-family="Arial" font-size="14.00" fill="#666666">[integer]</text>
<polygon fill="none" stroke="#000000" points="71.5,-192.5 71.5,-222.5 365.5,-222.5 365.5,-192.5 71.5,-192.5"/>
<text text-anchor="start" x="78.5" y="-203.9" font-family="Arial" font-size="14.00" fill="#000000">consume_unbuild_id </text>
<text text-anchor="start" x="210.7622" y="-203.9" font-family="Arial" font-size="14.00" fill="#666666">[integer]</text>
<polygon fill="none" stroke="#000000" points="71.5,-162.5 71.5,-192.5 365.5,-192.5 365.5,-162.5 71.5,-162.5"/>
<text text-anchor="start" x="78.5" y="-173.9" font-family="Arial" font-size="14.00" fill="#000000">operation_id </text>
<text text-anchor="start" x="159.4158" y="-173.9" font-family="Arial" font-size="14.00" fill="#666666">[integer]</text>
<polygon fill="none" stroke="#000000" points="71.5,-132.5 71.5,-162.5 365.5,-162.5 365.5,-132.5 71.5,-132.5"/>
<text text-anchor="start" x="78.5" y="-143.9" font-family="Arial" font-size="14.00" fill="#000000">workorder_id </text>
<text text-anchor="start" x="163.2812" y="-143.9" font-family="Arial" font-size="14.00" fill="#666666">[integer]</text>
<polygon fill="none" stroke="#000000" points="71.5,-102.5 71.5,-132.5 365.5,-132.5 365.5,-102.5 71.5,-102.5"/>
<text text-anchor="start" x="78.5" y="-113.9" font-family="Arial" font-size="14.00" fill="#000000">bom_line_id </text>
<text text-anchor="start" x="157.8492" y="-113.9" font-family="Arial" font-size="14.00" fill="#666666">[integer]</text>
<polygon fill="none" stroke="#000000" points="71.5,-72.5 71.5,-102.5 365.5,-102.5 365.5,-72.5 71.5,-72.5"/>
<text text-anchor="start" x="78.5" y="-83.9" font-family="Arial" font-size="14.00" fill="#000000">unit_factor </text>
<text text-anchor="start" x="147.7426" y="-83.9" font-family="Arial" font-size="14.00" fill="#666666">[double precision]</text>
<polygon fill="none" stroke="#000000" points="71.5,-42.5 71.5,-72.5 365.5,-72.5 365.5,-42.5 71.5,-42.5"/>
<text text-anchor="start" x="78.5" y="-53.9" font-family="Arial" font-size="14.00" fill="#000000">is_done </text>
<text text-anchor="start" x="131.4102" y="-53.9" font-family="Arial" font-size="14.00" fill="#666666">[boolean]</text>
</g>
<!-- public.stock_move_move_rel&#45;&gt;public.stock_move -->
<g id="edge1" class="edge">
<title>public.stock_move_move_rel:move_orig_id&#45;&gt;public.stock_move:id</title>
<path fill="none" stroke="#000000" d="M399.4311,-1865.9797C427.087,-1856.4241 413.7821,-1804.1861 389.5,-1777 294.7495,-1670.9177 166.2505,-1847.0823 71.5,-1741 43.8178,-1710.0071 29.9444,-1647.5 71.5,-1647.5"/>
<polygon fill="#000000" stroke="#000000" points="399.3849,-1865.9867 388.819,-1863.0518 394.4424,-1866.7434 389.5,-1867.5 389.5,-1867.5 389.5,-1867.5 394.4424,-1866.7434 390.181,-1871.9482 399.3849,-1865.9867 399.3849,-1865.9867"/>
<text text-anchor="start" x="396.4925" y="-1877.5" font-family="Arial" font-size="10.00" fill="#000000">FOREIGN KEY (move_orig_id) REFERENCES stock_move(id) ON DELETE CASCADE</text>
</g>
<!-- public.stock_move_move_rel&#45;&gt;public.stock_move -->
<g id="edge2" class="edge">
<title>public.stock_move_move_rel:move_dest_id&#45;&gt;public.stock_move:id</title>
<path fill="none" stroke="#000000" d="M217.7407,-1812.4737C208.0165,-1753.1287 107.5606,-1802.2247 71.5,-1741 50.4105,-1705.1936 29.9444,-1647.5 71.5,-1647.5"/>
<polygon fill="#000000" stroke="#000000" points="217.7448,-1812.5286 214.0128,-1822.8398 218.1224,-1817.5143 218.5,-1822.5 218.5,-1822.5 218.5,-1822.5 218.1224,-1817.5143 222.9872,-1822.1602 217.7448,-1812.5286 217.7448,-1812.5286"/>
<text text-anchor="start" x="225.377" y="-1832.5" font-family="Arial" font-size="10.00" fill="#000000">FOREIGN KEY (move_dest_id) REFERENCES stock_move(id) ON DELETE CASCADE</text>
</g>
</g>
</svg>
