<?xml version="1.0" encoding="UTF-8" standalone="no"?>
<!DOCTYPE svg PUBLIC "-//W3C//DTD SVG 1.1//EN"
 "http://www.w3.org/Graphics/SVG/1.1/DTD/svg11.dtd">
<!-- Generated by graphviz version 2.40.1 (20161225.0304)
 -->
<!-- Title: public.product_replenish_stock_location_route_rel Pages: 1 -->
<svg width="1468pt" height="802pt"
 viewBox="0.00 0.00 1468.00 802.00" xmlns="http://www.w3.org/2000/svg" xmlns:xlink="http://www.w3.org/1999/xlink">
<g id="graph0" class="graph" transform="scale(1 1) rotate(0) translate(4 798)">
<title>public.product_replenish_stock_location_route_rel</title>
<polygon fill="#ffffff" stroke="transparent" points="-4,4 -4,-798 1464,-798 1464,4 -4,4"/>
<!-- public.product_replenish_stock_location_route_rel -->
<g id="node1" class="node">
<title>public.product_replenish_stock_location_route_rel</title>
<polygon fill="#efefef" stroke="transparent" points="462,-712.5 462,-747.5 973,-747.5 973,-712.5 462,-712.5"/>
<polygon fill="none" stroke="#000000" points="462,-712.5 462,-747.5 973,-747.5 973,-712.5 462,-712.5"/>
<text text-anchor="start" x="468.8229" y="-725.3" font-family="Arial Bold" font-size="18.00" fill="#000000">public.product_replenish_stock_location_route_rel</text>
<text text-anchor="start" x="868.9233" y="-725.3" font-family="Arial" font-size="14.00" fill="#000000"> </text>
<text text-anchor="start" x="872.8139" y="-725.3" font-family="Arial" font-size="14.00" fill="#666666">[BASE TABLE]</text>
<polygon fill="none" stroke="#000000" points="462,-682.5 462,-712.5 973,-712.5 973,-682.5 462,-682.5"/>
<text text-anchor="start" x="469" y="-693.9" font-family="Arial" font-size="14.00" fill="#000000">product_replenish_id </text>
<text text-anchor="start" x="602.8134" y="-693.9" font-family="Arial" font-size="14.00" fill="#666666">[integer]</text>
<polygon fill="none" stroke="#000000" points="462,-652.5 462,-682.5 973,-682.5 973,-652.5 462,-652.5"/>
<text text-anchor="start" x="469" y="-663.9" font-family="Arial" font-size="14.00" fill="#000000">stock_location_route_id </text>
<text text-anchor="start" x="619.934" y="-663.9" font-family="Arial" font-size="14.00" fill="#666666">[integer]</text>
<polygon fill="none" stroke="#000000" stroke-width="3" points="460,-651.5 460,-749.5 974,-749.5 974,-651.5 460,-651.5"/>
</g>
<!-- public.product_replenish -->
<g id="node2" class="node">
<title>public.product_replenish</title>
<polygon fill="#efefef" stroke="transparent" points="355,-447.5 355,-482.5 661,-482.5 661,-447.5 355,-447.5"/>
<polygon fill="none" stroke="#000000" points="355,-447.5 355,-482.5 661,-482.5 661,-447.5 355,-447.5"/>
<text text-anchor="start" x="361.85" y="-460.3" font-family="Arial Bold" font-size="18.00" fill="#000000">public.product_replenish</text>
<text text-anchor="start" x="556.8962" y="-460.3" font-family="Arial" font-size="14.00" fill="#000000"> </text>
<text text-anchor="start" x="560.7868" y="-460.3" font-family="Arial" font-size="14.00" fill="#666666">[BASE TABLE]</text>
<polygon fill="none" stroke="#000000" points="355,-417.5 355,-447.5 661,-447.5 661,-417.5 355,-417.5"/>
<text text-anchor="start" x="362" y="-428.9" font-family="Arial" font-size="14.00" fill="#000000">id </text>
<text text-anchor="start" x="376.7798" y="-428.9" font-family="Arial" font-size="14.00" fill="#666666">[integer]</text>
<polygon fill="none" stroke="#000000" points="355,-387.5 355,-417.5 661,-417.5 661,-387.5 355,-387.5"/>
<text text-anchor="start" x="362" y="-398.9" font-family="Arial" font-size="14.00" fill="#000000">product_id </text>
<text text-anchor="start" x="431.244" y="-398.9" font-family="Arial" font-size="14.00" fill="#666666">[integer]</text>
<polygon fill="none" stroke="#000000" points="355,-357.5 355,-387.5 661,-387.5 661,-357.5 355,-357.5"/>
<text text-anchor="start" x="362" y="-368.9" font-family="Arial" font-size="14.00" fill="#000000">product_tmpl_id </text>
<text text-anchor="start" x="465.467" y="-368.9" font-family="Arial" font-size="14.00" fill="#666666">[integer]</text>
<polygon fill="none" stroke="#000000" points="355,-327.5 355,-357.5 661,-357.5 661,-327.5 355,-327.5"/>
<text text-anchor="start" x="362" y="-338.9" font-family="Arial" font-size="14.00" fill="#000000">product_has_variants </text>
<text text-anchor="start" x="499.7082" y="-338.9" font-family="Arial" font-size="14.00" fill="#666666">[boolean]</text>
<polygon fill="none" stroke="#000000" points="355,-297.5 355,-327.5 661,-327.5 661,-297.5 355,-297.5"/>
<text text-anchor="start" x="362" y="-308.9" font-family="Arial" font-size="14.00" fill="#000000">product_uom_id </text>
<text text-anchor="start" x="466.2524" y="-308.9" font-family="Arial" font-size="14.00" fill="#666666">[integer]</text>
<polygon fill="none" stroke="#000000" points="355,-267.5 355,-297.5 661,-297.5 661,-267.5 355,-267.5"/>
<text text-anchor="start" x="362" y="-278.9" font-family="Arial" font-size="14.00" fill="#000000">quantity </text>
<text text-anchor="start" x="414.9088" y="-278.9" font-family="Arial" font-size="14.00" fill="#666666">[double precision]</text>
<polygon fill="none" stroke="#000000" points="355,-237.5 355,-267.5 661,-267.5 661,-237.5 355,-237.5"/>
<text text-anchor="start" x="362" y="-248.9" font-family="Arial" font-size="14.00" fill="#000000">date_planned </text>
<text text-anchor="start" x="450.7138" y="-248.9" font-family="Arial" font-size="14.00" fill="#666666">[timestamp without time zone]</text>
<polygon fill="none" stroke="#000000" points="355,-207.5 355,-237.5 661,-237.5 661,-207.5 355,-207.5"/>
<text text-anchor="start" x="362" y="-218.9" font-family="Arial" font-size="14.00" fill="#000000">warehouse_id </text>
<text text-anchor="start" x="453.0252" y="-218.9" font-family="Arial" font-size="14.00" fill="#666666">[integer]</text>
<polygon fill="none" stroke="#000000" points="355,-177.5 355,-207.5 661,-207.5 661,-177.5 355,-177.5"/>
<text text-anchor="start" x="362" y="-188.9" font-family="Arial" font-size="14.00" fill="#000000">create_uid </text>
<text text-anchor="start" x="431.244" y="-188.9" font-family="Arial" font-size="14.00" fill="#666666">[integer]</text>
<polygon fill="none" stroke="#000000" points="355,-147.5 355,-177.5 661,-177.5 661,-147.5 355,-147.5"/>
<text text-anchor="start" x="362" y="-158.9" font-family="Arial" font-size="14.00" fill="#000000">create_date </text>
<text text-anchor="start" x="439.8106" y="-158.9" font-family="Arial" font-size="14.00" fill="#666666">[timestamp without time zone]</text>
<polygon fill="none" stroke="#000000" points="355,-117.5 355,-147.5 661,-147.5 661,-117.5 355,-117.5"/>
<text text-anchor="start" x="362" y="-128.9" font-family="Arial" font-size="14.00" fill="#000000">write_uid </text>
<text text-anchor="start" x="421.892" y="-128.9" font-family="Arial" font-size="14.00" fill="#666666">[integer]</text>
<polygon fill="none" stroke="#000000" points="355,-87.5 355,-117.5 661,-117.5 661,-87.5 355,-87.5"/>
<text text-anchor="start" x="362" y="-98.9" font-family="Arial" font-size="14.00" fill="#000000">write_date </text>
<text text-anchor="start" x="430.4586" y="-98.9" font-family="Arial" font-size="14.00" fill="#666666">[timestamp without time zone]</text>
</g>
<!-- public.product_replenish_stock_location_route_rel&#45;&gt;public.product_replenish -->
<g id="edge1" class="edge">
<title>public.product_replenish_stock_location_route_rel:product_replenish_id&#45;&gt;public.product_replenish:id</title>
<path fill="none" stroke="#000000" d="M451.8258,-695.941C425.2937,-686.5692 441.7434,-637.1155 462,-607 515.2952,-527.7659 607.7048,-605.2341 661,-526 684.193,-491.5189 702.5556,-432.5 661,-432.5"/>
<polygon fill="#000000" stroke="#000000" points="452.1154,-695.9853 461.3184,-701.9481 457.0577,-696.7426 462,-697.5 462,-697.5 462,-697.5 457.0577,-696.7426 462.6816,-693.0519 452.1154,-695.9853 452.1154,-695.9853"/>
<text text-anchor="start" x="6.5355" y="-707.5" font-family="Arial" font-size="10.00" fill="#000000">FOREIGN KEY (product_replenish_id) REFERENCES product_replenish(id) ON DELETE CASCADE</text>
</g>
<!-- public.stock_location_route -->
<g id="node3" class="node">
<title>public.stock_location_route</title>
<polygon fill="#efefef" stroke="transparent" points="765,-492.5 765,-527.5 1093,-527.5 1093,-492.5 765,-492.5"/>
<polygon fill="none" stroke="#000000" points="765,-492.5 765,-527.5 1093,-527.5 1093,-492.5 765,-492.5"/>
<text text-anchor="start" x="771.8439" y="-505.3" font-family="Arial Bold" font-size="18.00" fill="#000000">public.stock_location_route</text>
<text text-anchor="start" x="988.9023" y="-505.3" font-family="Arial" font-size="14.00" fill="#000000"> </text>
<text text-anchor="start" x="992.7929" y="-505.3" font-family="Arial" font-size="14.00" fill="#666666">[BASE TABLE]</text>
<polygon fill="none" stroke="#000000" points="765,-462.5 765,-492.5 1093,-492.5 1093,-462.5 765,-462.5"/>
<text text-anchor="start" x="772" y="-473.9" font-family="Arial" font-size="14.00" fill="#000000">id </text>
<text text-anchor="start" x="786.7798" y="-473.9" font-family="Arial" font-size="14.00" fill="#666666">[integer]</text>
<polygon fill="none" stroke="#000000" points="765,-432.5 765,-462.5 1093,-462.5 1093,-432.5 765,-432.5"/>
<text text-anchor="start" x="772" y="-443.9" font-family="Arial" font-size="14.00" fill="#000000">name </text>
<text text-anchor="start" x="810.899" y="-443.9" font-family="Arial" font-size="14.00" fill="#666666">[varchar]</text>
<polygon fill="none" stroke="#000000" points="765,-402.5 765,-432.5 1093,-432.5 1093,-402.5 765,-402.5"/>
<text text-anchor="start" x="772" y="-413.9" font-family="Arial" font-size="14.00" fill="#000000">active </text>
<text text-anchor="start" x="812.453" y="-413.9" font-family="Arial" font-size="14.00" fill="#666666">[boolean]</text>
<polygon fill="none" stroke="#000000" points="765,-372.5 765,-402.5 1093,-402.5 1093,-372.5 765,-372.5"/>
<text text-anchor="start" x="772" y="-383.9" font-family="Arial" font-size="14.00" fill="#000000">sequence </text>
<text text-anchor="start" x="836.5862" y="-383.9" font-family="Arial" font-size="14.00" fill="#666666">[integer]</text>
<polygon fill="none" stroke="#000000" points="765,-342.5 765,-372.5 1093,-372.5 1093,-342.5 765,-342.5"/>
<text text-anchor="start" x="772" y="-353.9" font-family="Arial" font-size="14.00" fill="#000000">product_selectable </text>
<text text-anchor="start" x="893.3716" y="-353.9" font-family="Arial" font-size="14.00" fill="#666666">[boolean]</text>
<polygon fill="none" stroke="#000000" points="765,-312.5 765,-342.5 1093,-342.5 1093,-312.5 765,-312.5"/>
<text text-anchor="start" x="772" y="-323.9" font-family="Arial" font-size="14.00" fill="#000000">product_categ_selectable </text>
<text text-anchor="start" x="935.3926" y="-323.9" font-family="Arial" font-size="14.00" fill="#666666">[boolean]</text>
<polygon fill="none" stroke="#000000" points="765,-282.5 765,-312.5 1093,-312.5 1093,-282.5 765,-282.5"/>
<text text-anchor="start" x="772" y="-293.9" font-family="Arial" font-size="14.00" fill="#000000">warehouse_selectable </text>
<text text-anchor="start" x="915.1528" y="-293.9" font-family="Arial" font-size="14.00" fill="#666666">[boolean]</text>
<polygon fill="none" stroke="#000000" points="765,-252.5 765,-282.5 1093,-282.5 1093,-252.5 765,-252.5"/>
<text text-anchor="start" x="772" y="-263.9" font-family="Arial" font-size="14.00" fill="#000000">supplied_wh_id </text>
<text text-anchor="start" x="872.3604" y="-263.9" font-family="Arial" font-size="14.00" fill="#666666">[integer]</text>
<polygon fill="none" stroke="#000000" points="765,-222.5 765,-252.5 1093,-252.5 1093,-222.5 765,-222.5"/>
<text text-anchor="start" x="772" y="-233.9" font-family="Arial" font-size="14.00" fill="#000000">supplier_wh_id </text>
<text text-anchor="start" x="869.2384" y="-233.9" font-family="Arial" font-size="14.00" fill="#666666">[integer]</text>
<polygon fill="none" stroke="#000000" points="765,-192.5 765,-222.5 1093,-222.5 1093,-192.5 765,-192.5"/>
<text text-anchor="start" x="772" y="-203.9" font-family="Arial" font-size="14.00" fill="#000000">company_id </text>
<text text-anchor="start" x="851.3534" y="-203.9" font-family="Arial" font-size="14.00" fill="#666666">[integer]</text>
<polygon fill="none" stroke="#000000" points="765,-162.5 765,-192.5 1093,-192.5 1093,-162.5 765,-162.5"/>
<text text-anchor="start" x="772" y="-173.9" font-family="Arial" font-size="14.00" fill="#000000">create_uid </text>
<text text-anchor="start" x="841.244" y="-173.9" font-family="Arial" font-size="14.00" fill="#666666">[integer]</text>
<polygon fill="none" stroke="#000000" points="765,-132.5 765,-162.5 1093,-162.5 1093,-132.5 765,-132.5"/>
<text text-anchor="start" x="772" y="-143.9" font-family="Arial" font-size="14.00" fill="#000000">create_date </text>
<text text-anchor="start" x="849.8106" y="-143.9" font-family="Arial" font-size="14.00" fill="#666666">[timestamp without time zone]</text>
<polygon fill="none" stroke="#000000" points="765,-102.5 765,-132.5 1093,-132.5 1093,-102.5 765,-102.5"/>
<text text-anchor="start" x="772" y="-113.9" font-family="Arial" font-size="14.00" fill="#000000">write_uid </text>
<text text-anchor="start" x="831.892" y="-113.9" font-family="Arial" font-size="14.00" fill="#666666">[integer]</text>
<polygon fill="none" stroke="#000000" points="765,-72.5 765,-102.5 1093,-102.5 1093,-72.5 765,-72.5"/>
<text text-anchor="start" x="772" y="-83.9" font-family="Arial" font-size="14.00" fill="#000000">write_date </text>
<text text-anchor="start" x="840.4586" y="-83.9" font-family="Arial" font-size="14.00" fill="#666666">[timestamp without time zone]</text>
<polygon fill="none" stroke="#000000" points="765,-42.5 765,-72.5 1093,-72.5 1093,-42.5 765,-42.5"/>
<text text-anchor="start" x="772" y="-53.9" font-family="Arial" font-size="14.00" fill="#000000">sale_selectable </text>
<text text-anchor="start" x="872.3618" y="-53.9" font-family="Arial" font-size="14.00" fill="#666666">[boolean]</text>
</g>
<!-- public.product_replenish_stock_location_route_rel&#45;&gt;public.stock_location_route -->
<g id="edge2" class="edge">
<title>public.product_replenish_stock_location_route_rel:stock_location_route_id&#45;&gt;public.stock_location_route:id</title>
<path fill="none" stroke="#000000" d="M983.0432,-664.8017C996.7084,-655.4947 987.6106,-624.3566 973,-607 912.5812,-535.2258 825.4188,-642.7742 765,-571 738.2384,-539.2088 723.4444,-477.5 765,-477.5"/>
<polygon fill="#000000" stroke="#000000" points="982.6575,-664.9052 971.8323,-663.1541 977.8288,-666.2026 973,-667.5 973,-667.5 973,-667.5 977.8288,-666.2026 974.1677,-671.8459 982.6575,-664.9052 982.6575,-664.9052"/>
<text text-anchor="start" x="980.3065" y="-677.5" font-family="Arial" font-size="10.00" fill="#000000">FOREIGN KEY (stock_location_route_id) REFERENCES stock_location_route(id) ON DELETE CASCADE</text>
</g>
</g>
</svg>
