<?xml version="1.0" encoding="UTF-8" standalone="no"?>
<!DOCTYPE svg PUBLIC "-//W3C//DTD SVG 1.1//EN"
 "http://www.w3.org/Graphics/SVG/1.1/DTD/svg11.dtd">
<!-- Generated by graphviz version 2.40.1 (20161225.0304)
 -->
<!-- Title: public.account_common_report_account_journal_rel Pages: 1 -->
<svg width="1507pt" height="1282pt"
 viewBox="0.00 0.00 1507.00 1282.00" xmlns="http://www.w3.org/2000/svg" xmlns:xlink="http://www.w3.org/1999/xlink">
<g id="graph0" class="graph" transform="scale(1 1) rotate(0) translate(4 1278)">
<title>public.account_common_report_account_journal_rel</title>
<polygon fill="#ffffff" stroke="transparent" points="-4,4 -4,-1278 1503,-1278 1503,4 -4,4"/>
<!-- public.account_common_report_account_journal_rel -->
<g id="node1" class="node">
<title>public.account_common_report_account_journal_rel</title>
<polygon fill="#efefef" stroke="transparent" points="525,-1192.5 525,-1227.5 1054,-1227.5 1054,-1192.5 525,-1192.5"/>
<polygon fill="none" stroke="#000000" points="525,-1192.5 525,-1227.5 1054,-1227.5 1054,-1192.5 525,-1192.5"/>
<text text-anchor="start" x="531.8229" y="-1205.3" font-family="Arial Bold" font-size="18.00" fill="#000000">public.account_common_report_account_journal_rel</text>
<text text-anchor="start" x="949.9233" y="-1205.3" font-family="Arial" font-size="14.00" fill="#000000"> </text>
<text text-anchor="start" x="953.8139" y="-1205.3" font-family="Arial" font-size="14.00" fill="#666666">[BASE TABLE]</text>
<polygon fill="none" stroke="#000000" points="525,-1162.5 525,-1192.5 1054,-1192.5 1054,-1162.5 525,-1162.5"/>
<text text-anchor="start" x="532" y="-1173.9" font-family="Arial" font-size="14.00" fill="#000000">account_common_report_id </text>
<text text-anchor="start" x="709.3772" y="-1173.9" font-family="Arial" font-size="14.00" fill="#666666">[integer]</text>
<polygon fill="none" stroke="#000000" points="525,-1132.5 525,-1162.5 1054,-1162.5 1054,-1132.5 525,-1132.5"/>
<text text-anchor="start" x="532" y="-1143.9" font-family="Arial" font-size="14.00" fill="#000000">account_journal_id </text>
<text text-anchor="start" x="653.3702" y="-1143.9" font-family="Arial" font-size="14.00" fill="#666666">[integer]</text>
<polygon fill="none" stroke="#000000" stroke-width="3" points="523,-1131.5 523,-1229.5 1055,-1229.5 1055,-1131.5 523,-1131.5"/>
</g>
<!-- public.account_common_report -->
<g id="node2" class="node">
<title>public.account_common_report</title>
<polygon fill="#efefef" stroke="transparent" points="394,-642.5 394,-677.5 756,-677.5 756,-642.5 394,-642.5"/>
<polygon fill="none" stroke="#000000" points="394,-642.5 394,-677.5 756,-677.5 756,-642.5 394,-642.5"/>
<text text-anchor="start" x="400.8447" y="-655.3" font-family="Arial Bold" font-size="18.00" fill="#000000">public.account_common_report</text>
<text text-anchor="start" x="651.9015" y="-655.3" font-family="Arial" font-size="14.00" fill="#000000"> </text>
<text text-anchor="start" x="655.7921" y="-655.3" font-family="Arial" font-size="14.00" fill="#666666">[BASE TABLE]</text>
<polygon fill="none" stroke="#000000" points="394,-612.5 394,-642.5 756,-642.5 756,-612.5 394,-612.5"/>
<text text-anchor="start" x="401" y="-623.9" font-family="Arial" font-size="14.00" fill="#000000">id </text>
<text text-anchor="start" x="415.7798" y="-623.9" font-family="Arial" font-size="14.00" fill="#666666">[integer]</text>
<polygon fill="none" stroke="#000000" points="394,-582.5 394,-612.5 756,-612.5 756,-582.5 394,-582.5"/>
<text text-anchor="start" x="401" y="-593.9" font-family="Arial" font-size="14.00" fill="#000000">company_id </text>
<text text-anchor="start" x="480.3534" y="-593.9" font-family="Arial" font-size="14.00" fill="#666666">[integer]</text>
<polygon fill="none" stroke="#000000" points="394,-552.5 394,-582.5 756,-582.5 756,-552.5 394,-552.5"/>
<text text-anchor="start" x="401" y="-563.9" font-family="Arial" font-size="14.00" fill="#000000">date_from </text>
<text text-anchor="start" x="467.906" y="-563.9" font-family="Arial" font-size="14.00" fill="#666666">[date]</text>
<polygon fill="none" stroke="#000000" points="394,-522.5 394,-552.5 756,-552.5 756,-522.5 394,-522.5"/>
<text text-anchor="start" x="401" y="-533.9" font-family="Arial" font-size="14.00" fill="#000000">date_to </text>
<text text-anchor="start" x="451.5848" y="-533.9" font-family="Arial" font-size="14.00" fill="#666666">[date]</text>
<polygon fill="none" stroke="#000000" points="394,-492.5 394,-522.5 756,-522.5 756,-492.5 394,-492.5"/>
<text text-anchor="start" x="401" y="-503.9" font-family="Arial" font-size="14.00" fill="#000000">target_move </text>
<text text-anchor="start" x="482.6886" y="-503.9" font-family="Arial" font-size="14.00" fill="#666666">[varchar]</text>
<polygon fill="none" stroke="#000000" points="394,-462.5 394,-492.5 756,-492.5 756,-462.5 394,-462.5"/>
<text text-anchor="start" x="401" y="-473.9" font-family="Arial" font-size="14.00" fill="#000000">create_uid </text>
<text text-anchor="start" x="470.244" y="-473.9" font-family="Arial" font-size="14.00" fill="#666666">[integer]</text>
<polygon fill="none" stroke="#000000" points="394,-432.5 394,-462.5 756,-462.5 756,-432.5 394,-432.5"/>
<text text-anchor="start" x="401" y="-443.9" font-family="Arial" font-size="14.00" fill="#000000">create_date </text>
<text text-anchor="start" x="478.8106" y="-443.9" font-family="Arial" font-size="14.00" fill="#666666">[timestamp without time zone]</text>
<polygon fill="none" stroke="#000000" points="394,-402.5 394,-432.5 756,-432.5 756,-402.5 394,-402.5"/>
<text text-anchor="start" x="401" y="-413.9" font-family="Arial" font-size="14.00" fill="#000000">write_uid </text>
<text text-anchor="start" x="460.892" y="-413.9" font-family="Arial" font-size="14.00" fill="#666666">[integer]</text>
<polygon fill="none" stroke="#000000" points="394,-372.5 394,-402.5 756,-402.5 756,-372.5 394,-372.5"/>
<text text-anchor="start" x="401" y="-383.9" font-family="Arial" font-size="14.00" fill="#000000">write_date </text>
<text text-anchor="start" x="469.4586" y="-383.9" font-family="Arial" font-size="14.00" fill="#666666">[timestamp without time zone]</text>
</g>
<!-- public.account_common_report_account_journal_rel&#45;&gt;public.account_common_report -->
<g id="edge1" class="edge">
<title>public.account_common_report_account_journal_rel:account_common_report_id&#45;&gt;public.account_common_report:id</title>
<path fill="none" stroke="#000000" d="M514.7971,-1175.9634C490.4939,-1167.1021 514.9611,-1121.7147 525,-1087 578.4367,-902.2152 702.5633,-905.7848 756,-721 767.5442,-681.0801 797.5556,-627.5 756,-627.5"/>
<polygon fill="#000000" stroke="#000000" points="515.1115,-1176.0106 524.3298,-1181.9498 520.0558,-1176.7553 525,-1177.5 525,-1177.5 525,-1177.5 520.0558,-1176.7553 525.6702,-1173.0502 515.1115,-1176.0106 515.1115,-1176.0106"/>
<text text-anchor="start" x="7.4185" y="-1187.5" font-family="Arial" font-size="10.00" fill="#000000">FOREIGN KEY (account_common_report_id) REFERENCES account_common_report(id) ON DELETE CASCADE</text>
</g>
<!-- public.account_journal -->
<g id="node3" class="node">
<title>public.account_journal</title>
<polygon fill="#efefef" stroke="transparent" points="860,-972.5 860,-1007.5 1150,-1007.5 1150,-972.5 860,-972.5"/>
<polygon fill="none" stroke="#000000" points="860,-972.5 860,-1007.5 1150,-1007.5 1150,-972.5 860,-972.5"/>
<text text-anchor="start" x="866.8492" y="-985.3" font-family="Arial Bold" font-size="18.00" fill="#000000">public.account_journal</text>
<text text-anchor="start" x="1045.897" y="-985.3" font-family="Arial" font-size="14.00" fill="#000000"> </text>
<text text-anchor="start" x="1049.7876" y="-985.3" font-family="Arial" font-size="14.00" fill="#666666">[BASE TABLE]</text>
<polygon fill="none" stroke="#000000" points="860,-942.5 860,-972.5 1150,-972.5 1150,-942.5 860,-942.5"/>
<text text-anchor="start" x="867" y="-953.9" font-family="Arial" font-size="14.00" fill="#000000">id </text>
<text text-anchor="start" x="881.7798" y="-953.9" font-family="Arial" font-size="14.00" fill="#666666">[integer]</text>
<polygon fill="none" stroke="#000000" points="860,-912.5 860,-942.5 1150,-942.5 1150,-912.5 860,-912.5"/>
<text text-anchor="start" x="867" y="-923.9" font-family="Arial" font-size="14.00" fill="#000000">name </text>
<text text-anchor="start" x="905.899" y="-923.9" font-family="Arial" font-size="14.00" fill="#666666">[varchar]</text>
<polygon fill="none" stroke="#000000" points="860,-882.5 860,-912.5 1150,-912.5 1150,-882.5 860,-882.5"/>
<text text-anchor="start" x="867" y="-893.9" font-family="Arial" font-size="14.00" fill="#000000">code </text>
<text text-anchor="start" x="901.2384" y="-893.9" font-family="Arial" font-size="14.00" fill="#666666">[varchar(5)]</text>
<polygon fill="none" stroke="#000000" points="860,-852.5 860,-882.5 1150,-882.5 1150,-852.5 860,-852.5"/>
<text text-anchor="start" x="867" y="-863.9" font-family="Arial" font-size="14.00" fill="#000000">active </text>
<text text-anchor="start" x="907.453" y="-863.9" font-family="Arial" font-size="14.00" fill="#666666">[boolean]</text>
<polygon fill="none" stroke="#000000" points="860,-822.5 860,-852.5 1150,-852.5 1150,-822.5 860,-822.5"/>
<text text-anchor="start" x="867" y="-833.9" font-family="Arial" font-size="14.00" fill="#000000">type </text>
<text text-anchor="start" x="897.3464" y="-833.9" font-family="Arial" font-size="14.00" fill="#666666">[varchar]</text>
<polygon fill="none" stroke="#000000" points="860,-792.5 860,-822.5 1150,-822.5 1150,-792.5 860,-792.5"/>
<text text-anchor="start" x="867" y="-803.9" font-family="Arial" font-size="14.00" fill="#000000">default_credit_account_id </text>
<text text-anchor="start" x="1030.3898" y="-803.9" font-family="Arial" font-size="14.00" fill="#666666">[integer]</text>
<polygon fill="none" stroke="#000000" points="860,-762.5 860,-792.5 1150,-792.5 1150,-762.5 860,-762.5"/>
<text text-anchor="start" x="867" y="-773.9" font-family="Arial" font-size="14.00" fill="#000000">default_debit_account_id </text>
<text text-anchor="start" x="1026.5118" y="-773.9" font-family="Arial" font-size="14.00" fill="#666666">[integer]</text>
<polygon fill="none" stroke="#000000" points="860,-732.5 860,-762.5 1150,-762.5 1150,-732.5 860,-732.5"/>
<text text-anchor="start" x="867" y="-743.9" font-family="Arial" font-size="14.00" fill="#000000">update_posted </text>
<text text-anchor="start" x="963.4978" y="-743.9" font-family="Arial" font-size="14.00" fill="#666666">[boolean]</text>
<polygon fill="none" stroke="#000000" points="860,-702.5 860,-732.5 1150,-732.5 1150,-702.5 860,-702.5"/>
<text text-anchor="start" x="867" y="-713.9" font-family="Arial" font-size="14.00" fill="#000000">group_invoice_lines </text>
<text text-anchor="start" x="994.5862" y="-713.9" font-family="Arial" font-size="14.00" fill="#666666">[boolean]</text>
<polygon fill="none" stroke="#000000" points="860,-672.5 860,-702.5 1150,-702.5 1150,-672.5 860,-672.5"/>
<text text-anchor="start" x="867" y="-683.9" font-family="Arial" font-size="14.00" fill="#000000">sequence_id </text>
<text text-anchor="start" x="950.258" y="-683.9" font-family="Arial" font-size="14.00" fill="#666666">[integer]</text>
<polygon fill="none" stroke="#000000" points="860,-642.5 860,-672.5 1150,-672.5 1150,-642.5 860,-642.5"/>
<text text-anchor="start" x="867" y="-653.9" font-family="Arial" font-size="14.00" fill="#000000">refund_sequence_id </text>
<text text-anchor="start" x="997.7222" y="-653.9" font-family="Arial" font-size="14.00" fill="#666666">[integer]</text>
<polygon fill="none" stroke="#000000" points="860,-612.5 860,-642.5 1150,-642.5 1150,-612.5 860,-612.5"/>
<text text-anchor="start" x="867" y="-623.9" font-family="Arial" font-size="14.00" fill="#000000">sequence </text>
<text text-anchor="start" x="931.5862" y="-623.9" font-family="Arial" font-size="14.00" fill="#666666">[integer]</text>
<polygon fill="none" stroke="#000000" points="860,-582.5 860,-612.5 1150,-612.5 1150,-582.5 860,-582.5"/>
<text text-anchor="start" x="867" y="-593.9" font-family="Arial" font-size="14.00" fill="#000000">currency_id </text>
<text text-anchor="start" x="943.2314" y="-593.9" font-family="Arial" font-size="14.00" fill="#666666">[integer]</text>
<polygon fill="none" stroke="#000000" points="860,-552.5 860,-582.5 1150,-582.5 1150,-552.5 860,-552.5"/>
<text text-anchor="start" x="867" y="-563.9" font-family="Arial" font-size="14.00" fill="#000000">company_id </text>
<text text-anchor="start" x="946.3534" y="-563.9" font-family="Arial" font-size="14.00" fill="#666666">[integer]</text>
<polygon fill="none" stroke="#000000" points="860,-522.5 860,-552.5 1150,-552.5 1150,-522.5 860,-522.5"/>
<text text-anchor="start" x="867" y="-533.9" font-family="Arial" font-size="14.00" fill="#000000">refund_sequence </text>
<text text-anchor="start" x="979.0504" y="-533.9" font-family="Arial" font-size="14.00" fill="#666666">[boolean]</text>
<polygon fill="none" stroke="#000000" points="860,-492.5 860,-522.5 1150,-522.5 1150,-492.5 860,-492.5"/>
<text text-anchor="start" x="867" y="-503.9" font-family="Arial" font-size="14.00" fill="#000000">at_least_one_inbound </text>
<text text-anchor="start" x="1008.624" y="-503.9" font-family="Arial" font-size="14.00" fill="#666666">[boolean]</text>
<polygon fill="none" stroke="#000000" points="860,-462.5 860,-492.5 1150,-492.5 1150,-462.5 860,-462.5"/>
<text text-anchor="start" x="867" y="-473.9" font-family="Arial" font-size="14.00" fill="#000000">at_least_one_outbound </text>
<text text-anchor="start" x="1017.1906" y="-473.9" font-family="Arial" font-size="14.00" fill="#666666">[boolean]</text>
<polygon fill="none" stroke="#000000" points="860,-432.5 860,-462.5 1150,-462.5 1150,-432.5 860,-432.5"/>
<text text-anchor="start" x="867" y="-443.9" font-family="Arial" font-size="14.00" fill="#000000">profit_account_id </text>
<text text-anchor="start" x="977.4796" y="-443.9" font-family="Arial" font-size="14.00" fill="#666666">[integer]</text>
<polygon fill="none" stroke="#000000" points="860,-402.5 860,-432.5 1150,-432.5 1150,-402.5 860,-402.5"/>
<text text-anchor="start" x="867" y="-413.9" font-family="Arial" font-size="14.00" fill="#000000">loss_account_id </text>
<text text-anchor="start" x="971.2552" y="-413.9" font-family="Arial" font-size="14.00" fill="#666666">[integer]</text>
<polygon fill="none" stroke="#000000" points="860,-372.5 860,-402.5 1150,-402.5 1150,-372.5 860,-372.5"/>
<text text-anchor="start" x="867" y="-383.9" font-family="Arial" font-size="14.00" fill="#000000">bank_account_id </text>
<text text-anchor="start" x="976.7138" y="-383.9" font-family="Arial" font-size="14.00" fill="#666666">[integer]</text>
<polygon fill="none" stroke="#000000" points="860,-342.5 860,-372.5 1150,-372.5 1150,-342.5 860,-342.5"/>
<text text-anchor="start" x="867" y="-353.9" font-family="Arial" font-size="14.00" fill="#000000">bank_statements_source </text>
<text text-anchor="start" x="1027.2748" y="-353.9" font-family="Arial" font-size="14.00" fill="#666666">[varchar]</text>
<polygon fill="none" stroke="#000000" points="860,-312.5 860,-342.5 1150,-342.5 1150,-312.5 860,-312.5"/>
<text text-anchor="start" x="867" y="-323.9" font-family="Arial" font-size="14.00" fill="#000000">post_at_bank_rec </text>
<text text-anchor="start" x="982.1584" y="-323.9" font-family="Arial" font-size="14.00" fill="#666666">[boolean]</text>
<polygon fill="none" stroke="#000000" points="860,-282.5 860,-312.5 1150,-312.5 1150,-282.5 860,-282.5"/>
<text text-anchor="start" x="867" y="-293.9" font-family="Arial" font-size="14.00" fill="#000000">alias_id </text>
<text text-anchor="start" x="918.3408" y="-293.9" font-family="Arial" font-size="14.00" fill="#666666">[integer]</text>
<polygon fill="none" stroke="#000000" points="860,-252.5 860,-282.5 1150,-282.5 1150,-252.5 860,-252.5"/>
<text text-anchor="start" x="867" y="-263.9" font-family="Arial" font-size="14.00" fill="#000000">show_on_dashboard </text>
<text text-anchor="start" x="1000.8316" y="-263.9" font-family="Arial" font-size="14.00" fill="#666666">[boolean]</text>
<polygon fill="none" stroke="#000000" points="860,-222.5 860,-252.5 1150,-252.5 1150,-222.5 860,-222.5"/>
<text text-anchor="start" x="867" y="-233.9" font-family="Arial" font-size="14.00" fill="#000000">color </text>
<text text-anchor="start" x="901.223" y="-233.9" font-family="Arial" font-size="14.00" fill="#666666">[integer]</text>
<polygon fill="none" stroke="#000000" points="860,-192.5 860,-222.5 1150,-222.5 1150,-192.5 860,-192.5"/>
<text text-anchor="start" x="867" y="-203.9" font-family="Arial" font-size="14.00" fill="#000000">create_uid </text>
<text text-anchor="start" x="936.244" y="-203.9" font-family="Arial" font-size="14.00" fill="#666666">[integer]</text>
<polygon fill="none" stroke="#000000" points="860,-162.5 860,-192.5 1150,-192.5 1150,-162.5 860,-162.5"/>
<text text-anchor="start" x="867" y="-173.9" font-family="Arial" font-size="14.00" fill="#000000">create_date </text>
<text text-anchor="start" x="944.8106" y="-173.9" font-family="Arial" font-size="14.00" fill="#666666">[timestamp without time zone]</text>
<polygon fill="none" stroke="#000000" points="860,-132.5 860,-162.5 1150,-162.5 1150,-132.5 860,-132.5"/>
<text text-anchor="start" x="867" y="-143.9" font-family="Arial" font-size="14.00" fill="#000000">write_uid </text>
<text text-anchor="start" x="926.892" y="-143.9" font-family="Arial" font-size="14.00" fill="#666666">[integer]</text>
<polygon fill="none" stroke="#000000" points="860,-102.5 860,-132.5 1150,-132.5 1150,-102.5 860,-102.5"/>
<text text-anchor="start" x="867" y="-113.9" font-family="Arial" font-size="14.00" fill="#000000">write_date </text>
<text text-anchor="start" x="935.4586" y="-113.9" font-family="Arial" font-size="14.00" fill="#666666">[timestamp without time zone]</text>
<polygon fill="none" stroke="#000000" points="860,-72.5 860,-102.5 1150,-102.5 1150,-72.5 860,-72.5"/>
<text text-anchor="start" x="867" y="-83.9" font-family="Arial" font-size="14.00" fill="#000000">journal_user </text>
<text text-anchor="start" x="947.9032" y="-83.9" font-family="Arial" font-size="14.00" fill="#666666">[boolean]</text>
<polygon fill="none" stroke="#000000" points="860,-42.5 860,-72.5 1150,-72.5 1150,-42.5 860,-42.5"/>
<text text-anchor="start" x="867" y="-53.9" font-family="Arial" font-size="14.00" fill="#000000">amount_authorized_diff </text>
<text text-anchor="start" x="1017.1612" y="-53.9" font-family="Arial" font-size="14.00" fill="#666666">[double precision]</text>
</g>
<!-- public.account_common_report_account_journal_rel&#45;&gt;public.account_journal -->
<g id="edge2" class="edge">
<title>public.account_common_report_account_journal_rel:account_journal_id&#45;&gt;public.account_journal:id</title>
<path fill="none" stroke="#000000" d="M1064.0355,-1144.8081C1077.6755,-1135.5223 1068.5054,-1104.4447 1054,-1087 997.9323,-1019.5709 916.0677,-1118.4291 860,-1051 833.4313,-1019.0474 818.4444,-957.5 860,-957.5"/>
<polygon fill="#000000" stroke="#000000" points="1063.6586,-1144.9091 1052.8341,-1143.1536 1058.8293,-1146.2046 1054,-1147.5 1054,-1147.5 1054,-1147.5 1058.8293,-1146.2046 1055.1659,-1151.8464 1063.6586,-1144.9091 1063.6586,-1144.9091"/>
<text text-anchor="start" x="1061.4235" y="-1157.5" font-family="Arial" font-size="10.00" fill="#000000">FOREIGN KEY (account_journal_id) REFERENCES account_journal(id) ON DELETE CASCADE</text>
</g>
</g>
</svg>
