<?xml version="1.0" encoding="UTF-8" standalone="no"?>
<!DOCTYPE svg PUBLIC "-//W3C//DTD SVG 1.1//EN"
 "http://www.w3.org/Graphics/SVG/1.1/DTD/svg11.dtd">
<!-- Generated by graphviz version 2.40.1 (20161225.0304)
 -->
<!-- Title: public.ir_ui_view_custom Pages: 1 -->
<svg width="1104pt" height="1222pt"
 viewBox="0.00 0.00 1104.00 1222.00" xmlns="http://www.w3.org/2000/svg" xmlns:xlink="http://www.w3.org/1999/xlink">
<g id="graph0" class="graph" transform="scale(1 1) rotate(0) translate(4 1218)">
<title>public.ir_ui_view_custom</title>
<polygon fill="#ffffff" stroke="transparent" points="-4,4 -4,-1218 1100,-1218 1100,4 -4,4"/>
<!-- public.ir_ui_view_custom -->
<g id="node1" class="node">
<title>public.ir_ui_view_custom</title>
<polygon fill="#efefef" stroke="transparent" points="405,-1132.5 405,-1167.5 716,-1167.5 716,-1132.5 405,-1132.5"/>
<polygon fill="none" stroke="#000000" points="405,-1132.5 405,-1167.5 716,-1167.5 716,-1132.5 405,-1132.5"/>
<text text-anchor="start" x="411.8651" y="-1145.3" font-family="Arial Bold" font-size="18.00" fill="#000000">public.ir_ui_view_custom</text>
<text text-anchor="start" x="611.8811" y="-1145.3" font-family="Arial" font-size="14.00" fill="#000000"> </text>
<text text-anchor="start" x="615.7717" y="-1145.3" font-family="Arial" font-size="14.00" fill="#666666">[BASE TABLE]</text>
<polygon fill="none" stroke="#000000" points="405,-1102.5 405,-1132.5 716,-1132.5 716,-1102.5 405,-1102.5"/>
<text text-anchor="start" x="412" y="-1113.9" font-family="Arial" font-size="14.00" fill="#000000">id </text>
<text text-anchor="start" x="426.7798" y="-1113.9" font-family="Arial" font-size="14.00" fill="#666666">[integer]</text>
<polygon fill="none" stroke="#000000" points="405,-1072.5 405,-1102.5 716,-1102.5 716,-1072.5 405,-1072.5"/>
<text text-anchor="start" x="412" y="-1083.9" font-family="Arial" font-size="14.00" fill="#000000">ref_id </text>
<text text-anchor="start" x="450.8962" y="-1083.9" font-family="Arial" font-size="14.00" fill="#666666">[integer]</text>
<polygon fill="none" stroke="#000000" points="405,-1042.5 405,-1072.5 716,-1072.5 716,-1042.5 405,-1042.5"/>
<text text-anchor="start" x="412" y="-1053.9" font-family="Arial" font-size="14.00" fill="#000000">user_id </text>
<text text-anchor="start" x="461.7882" y="-1053.9" font-family="Arial" font-size="14.00" fill="#666666">[integer]</text>
<polygon fill="none" stroke="#000000" points="405,-1012.5 405,-1042.5 716,-1042.5 716,-1012.5 405,-1012.5"/>
<text text-anchor="start" x="412" y="-1023.9" font-family="Arial" font-size="14.00" fill="#000000">arch </text>
<text text-anchor="start" x="443.1164" y="-1023.9" font-family="Arial" font-size="14.00" fill="#666666">[text]</text>
<polygon fill="none" stroke="#000000" points="405,-982.5 405,-1012.5 716,-1012.5 716,-982.5 405,-982.5"/>
<text text-anchor="start" x="412" y="-993.9" font-family="Arial" font-size="14.00" fill="#000000">create_uid </text>
<text text-anchor="start" x="481.244" y="-993.9" font-family="Arial" font-size="14.00" fill="#666666">[integer]</text>
<polygon fill="none" stroke="#000000" points="405,-952.5 405,-982.5 716,-982.5 716,-952.5 405,-952.5"/>
<text text-anchor="start" x="412" y="-963.9" font-family="Arial" font-size="14.00" fill="#000000">create_date </text>
<text text-anchor="start" x="489.8106" y="-963.9" font-family="Arial" font-size="14.00" fill="#666666">[timestamp without time zone]</text>
<polygon fill="none" stroke="#000000" points="405,-922.5 405,-952.5 716,-952.5 716,-922.5 405,-922.5"/>
<text text-anchor="start" x="412" y="-933.9" font-family="Arial" font-size="14.00" fill="#000000">write_uid </text>
<text text-anchor="start" x="471.892" y="-933.9" font-family="Arial" font-size="14.00" fill="#666666">[integer]</text>
<polygon fill="none" stroke="#000000" points="405,-892.5 405,-922.5 716,-922.5 716,-892.5 405,-892.5"/>
<text text-anchor="start" x="412" y="-903.9" font-family="Arial" font-size="14.00" fill="#000000">write_date </text>
<text text-anchor="start" x="480.4586" y="-903.9" font-family="Arial" font-size="14.00" fill="#666666">[timestamp without time zone]</text>
<polygon fill="none" stroke="#000000" stroke-width="3" points="403,-891.5 403,-1169.5 717,-1169.5 717,-891.5 403,-891.5"/>
</g>
<!-- public.ir_ui_view -->
<g id="node2" class="node">
<title>public.ir_ui_view</title>
<polygon fill="#efefef" stroke="transparent" points="43,-732.5 43,-767.5 319,-767.5 319,-732.5 43,-732.5"/>
<polygon fill="none" stroke="#000000" points="43,-732.5 43,-767.5 319,-767.5 319,-732.5 43,-732.5"/>
<text text-anchor="start" x="66.3716" y="-745.3" font-family="Arial Bold" font-size="18.00" fill="#000000">public.ir_ui_view</text>
<text text-anchor="start" x="198.3746" y="-745.3" font-family="Arial" font-size="14.00" fill="#000000"> </text>
<text text-anchor="start" x="202.2652" y="-745.3" font-family="Arial" font-size="14.00" fill="#666666">[BASE TABLE]</text>
<polygon fill="none" stroke="#000000" points="43,-702.5 43,-732.5 319,-732.5 319,-702.5 43,-702.5"/>
<text text-anchor="start" x="50" y="-713.9" font-family="Arial" font-size="14.00" fill="#000000">id </text>
<text text-anchor="start" x="64.7798" y="-713.9" font-family="Arial" font-size="14.00" fill="#666666">[integer]</text>
<polygon fill="none" stroke="#000000" points="43,-672.5 43,-702.5 319,-702.5 319,-672.5 43,-672.5"/>
<text text-anchor="start" x="50" y="-683.9" font-family="Arial" font-size="14.00" fill="#000000">name </text>
<text text-anchor="start" x="88.899" y="-683.9" font-family="Arial" font-size="14.00" fill="#666666">[varchar]</text>
<polygon fill="none" stroke="#000000" points="43,-642.5 43,-672.5 319,-672.5 319,-642.5 43,-642.5"/>
<text text-anchor="start" x="50" y="-653.9" font-family="Arial" font-size="14.00" fill="#000000">model </text>
<text text-anchor="start" x="92.0056" y="-653.9" font-family="Arial" font-size="14.00" fill="#666666">[varchar]</text>
<polygon fill="none" stroke="#000000" points="43,-612.5 43,-642.5 319,-642.5 319,-612.5 43,-612.5"/>
<text text-anchor="start" x="50" y="-623.9" font-family="Arial" font-size="14.00" fill="#000000">key </text>
<text text-anchor="start" x="75.6732" y="-623.9" font-family="Arial" font-size="14.00" fill="#666666">[varchar]</text>
<polygon fill="none" stroke="#000000" points="43,-582.5 43,-612.5 319,-612.5 319,-582.5 43,-582.5"/>
<text text-anchor="start" x="50" y="-593.9" font-family="Arial" font-size="14.00" fill="#000000">priority </text>
<text text-anchor="start" x="95.8808" y="-593.9" font-family="Arial" font-size="14.00" fill="#666666">[integer]</text>
<polygon fill="none" stroke="#000000" points="43,-552.5 43,-582.5 319,-582.5 319,-552.5 43,-552.5"/>
<text text-anchor="start" x="50" y="-563.9" font-family="Arial" font-size="14.00" fill="#000000">type </text>
<text text-anchor="start" x="80.3464" y="-563.9" font-family="Arial" font-size="14.00" fill="#666666">[varchar]</text>
<polygon fill="none" stroke="#000000" points="43,-522.5 43,-552.5 319,-552.5 319,-522.5 43,-522.5"/>
<text text-anchor="start" x="50" y="-533.9" font-family="Arial" font-size="14.00" fill="#000000">arch_db </text>
<text text-anchor="start" x="104.4642" y="-533.9" font-family="Arial" font-size="14.00" fill="#666666">[text]</text>
<polygon fill="none" stroke="#000000" points="43,-492.5 43,-522.5 319,-522.5 319,-492.5 43,-492.5"/>
<text text-anchor="start" x="50" y="-503.9" font-family="Arial" font-size="14.00" fill="#000000">arch_fs </text>
<text text-anchor="start" x="99.7896" y="-503.9" font-family="Arial" font-size="14.00" fill="#666666">[varchar]</text>
<polygon fill="none" stroke="#000000" points="43,-462.5 43,-492.5 319,-492.5 319,-462.5 43,-462.5"/>
<text text-anchor="start" x="50" y="-473.9" font-family="Arial" font-size="14.00" fill="#000000">inherit_id </text>
<text text-anchor="start" x="110.6746" y="-473.9" font-family="Arial" font-size="14.00" fill="#666666">[integer]</text>
<polygon fill="none" stroke="#000000" points="43,-432.5 43,-462.5 319,-462.5 319,-432.5 43,-432.5"/>
<text text-anchor="start" x="50" y="-443.9" font-family="Arial" font-size="14.00" fill="#000000">field_parent </text>
<text text-anchor="start" x="127.0238" y="-443.9" font-family="Arial" font-size="14.00" fill="#666666">[varchar]</text>
<polygon fill="none" stroke="#000000" points="43,-402.5 43,-432.5 319,-432.5 319,-402.5 43,-402.5"/>
<text text-anchor="start" x="50" y="-413.9" font-family="Arial" font-size="14.00" fill="#000000">mode </text>
<text text-anchor="start" x="88.899" y="-413.9" font-family="Arial" font-size="14.00" fill="#666666">[varchar]</text>
<polygon fill="none" stroke="#000000" points="43,-372.5 43,-402.5 319,-402.5 319,-372.5 43,-372.5"/>
<text text-anchor="start" x="50" y="-383.9" font-family="Arial" font-size="14.00" fill="#000000">active </text>
<text text-anchor="start" x="90.453" y="-383.9" font-family="Arial" font-size="14.00" fill="#666666">[boolean]</text>
<polygon fill="none" stroke="#000000" points="43,-342.5 43,-372.5 319,-372.5 319,-342.5 43,-342.5"/>
<text text-anchor="start" x="50" y="-353.9" font-family="Arial" font-size="14.00" fill="#000000">create_uid </text>
<text text-anchor="start" x="119.244" y="-353.9" font-family="Arial" font-size="14.00" fill="#666666">[integer]</text>
<polygon fill="none" stroke="#000000" points="43,-312.5 43,-342.5 319,-342.5 319,-312.5 43,-312.5"/>
<text text-anchor="start" x="49.5246" y="-323.9" font-family="Arial" font-size="14.00" fill="#000000">create_date </text>
<text text-anchor="start" x="127.3352" y="-323.9" font-family="Arial" font-size="14.00" fill="#666666">[timestamp without time zone]</text>
<polygon fill="none" stroke="#000000" points="43,-282.5 43,-312.5 319,-312.5 319,-282.5 43,-282.5"/>
<text text-anchor="start" x="50" y="-293.9" font-family="Arial" font-size="14.00" fill="#000000">write_uid </text>
<text text-anchor="start" x="109.892" y="-293.9" font-family="Arial" font-size="14.00" fill="#666666">[integer]</text>
<polygon fill="none" stroke="#000000" points="43,-252.5 43,-282.5 319,-282.5 319,-252.5 43,-252.5"/>
<text text-anchor="start" x="50" y="-263.9" font-family="Arial" font-size="14.00" fill="#000000">write_date </text>
<text text-anchor="start" x="118.4586" y="-263.9" font-family="Arial" font-size="14.00" fill="#666666">[timestamp without time zone]</text>
<polygon fill="none" stroke="#000000" points="43,-222.5 43,-252.5 319,-252.5 319,-222.5 43,-222.5"/>
<text text-anchor="start" x="50" y="-233.9" font-family="Arial" font-size="14.00" fill="#000000">website_meta_title </text>
<text text-anchor="start" x="169.8008" y="-233.9" font-family="Arial" font-size="14.00" fill="#666666">[varchar]</text>
<polygon fill="none" stroke="#000000" points="43,-192.5 43,-222.5 319,-222.5 319,-192.5 43,-192.5"/>
<text text-anchor="start" x="50" y="-203.9" font-family="Arial" font-size="14.00" fill="#000000">website_meta_description </text>
<text text-anchor="start" x="215.7012" y="-203.9" font-family="Arial" font-size="14.00" fill="#666666">[text]</text>
<polygon fill="none" stroke="#000000" points="43,-162.5 43,-192.5 319,-192.5 319,-162.5 43,-162.5"/>
<text text-anchor="start" x="50" y="-173.9" font-family="Arial" font-size="14.00" fill="#000000">website_meta_keywords </text>
<text text-anchor="start" x="207.1388" y="-173.9" font-family="Arial" font-size="14.00" fill="#666666">[varchar]</text>
<polygon fill="none" stroke="#000000" points="43,-132.5 43,-162.5 319,-162.5 319,-132.5 43,-132.5"/>
<text text-anchor="start" x="50" y="-143.9" font-family="Arial" font-size="14.00" fill="#000000">website_meta_og_img </text>
<text text-anchor="start" x="193.9214" y="-143.9" font-family="Arial" font-size="14.00" fill="#666666">[varchar]</text>
<polygon fill="none" stroke="#000000" points="43,-102.5 43,-132.5 319,-132.5 319,-102.5 43,-102.5"/>
<text text-anchor="start" x="50" y="-113.9" font-family="Arial" font-size="14.00" fill="#000000">customize_show </text>
<text text-anchor="start" x="157.3506" y="-113.9" font-family="Arial" font-size="14.00" fill="#666666">[boolean]</text>
<polygon fill="none" stroke="#000000" points="43,-72.5 43,-102.5 319,-102.5 319,-72.5 43,-72.5"/>
<text text-anchor="start" x="50" y="-83.9" font-family="Arial" font-size="14.00" fill="#000000">website_id </text>
<text text-anchor="start" x="120.014" y="-83.9" font-family="Arial" font-size="14.00" fill="#666666">[integer]</text>
<polygon fill="none" stroke="#000000" points="43,-42.5 43,-72.5 319,-72.5 319,-42.5 43,-42.5"/>
<text text-anchor="start" x="50" y="-53.9" font-family="Arial" font-size="14.00" fill="#000000">theme_template_id </text>
<text text-anchor="start" x="172.9228" y="-53.9" font-family="Arial" font-size="14.00" fill="#666666">[integer]</text>
</g>
<!-- public.ir_ui_view_custom&#45;&gt;public.ir_ui_view -->
<g id="edge1" class="edge">
<title>public.ir_ui_view_custom:ref_id&#45;&gt;public.ir_ui_view:id</title>
<path fill="none" stroke="#000000" d="M395.0183,-1085.5093C327.3952,-1056.3863 399.7869,-717.5 319,-717.5"/>
<polygon fill="#000000" stroke="#000000" points="395.1931,-1085.5441 404.1198,-1091.9131 400.0966,-1086.522 405,-1087.5 405,-1087.5 405,-1087.5 400.0966,-1086.522 405.8802,-1083.0869 395.1931,-1085.5441 395.1931,-1085.5441"/>
<text text-anchor="start" x="51.9465" y="-1097.5" font-family="Arial" font-size="10.00" fill="#000000">FOREIGN KEY (ref_id) REFERENCES ir_ui_view(id) ON DELETE CASCADE</text>
</g>
<!-- public.res_users -->
<g id="node3" class="node">
<title>public.res_users</title>
<polygon fill="#efefef" stroke="transparent" points="423,-717.5 423,-752.5 699,-752.5 699,-717.5 423,-717.5"/>
<polygon fill="none" stroke="#000000" points="423,-717.5 423,-752.5 699,-752.5 699,-717.5 423,-717.5"/>
<text text-anchor="start" x="446.8639" y="-730.3" font-family="Arial Bold" font-size="18.00" fill="#000000">public.res_users</text>
<text text-anchor="start" x="577.8823" y="-730.3" font-family="Arial" font-size="14.00" fill="#000000"> </text>
<text text-anchor="start" x="581.7729" y="-730.3" font-family="Arial" font-size="14.00" fill="#666666">[BASE TABLE]</text>
<polygon fill="none" stroke="#000000" points="423,-687.5 423,-717.5 699,-717.5 699,-687.5 423,-687.5"/>
<text text-anchor="start" x="430" y="-698.9" font-family="Arial" font-size="14.00" fill="#000000">id </text>
<text text-anchor="start" x="444.7798" y="-698.9" font-family="Arial" font-size="14.00" fill="#666666">[integer]</text>
<polygon fill="none" stroke="#000000" points="423,-657.5 423,-687.5 699,-687.5 699,-657.5 423,-657.5"/>
<text text-anchor="start" x="430" y="-668.9" font-family="Arial" font-size="14.00" fill="#000000">active </text>
<text text-anchor="start" x="470.453" y="-668.9" font-family="Arial" font-size="14.00" fill="#666666">[boolean]</text>
<polygon fill="none" stroke="#000000" points="423,-627.5 423,-657.5 699,-657.5 699,-627.5 423,-627.5"/>
<text text-anchor="start" x="430" y="-638.9" font-family="Arial" font-size="14.00" fill="#000000">login </text>
<text text-anchor="start" x="463.4516" y="-638.9" font-family="Arial" font-size="14.00" fill="#666666">[varchar]</text>
<polygon fill="none" stroke="#000000" points="423,-597.5 423,-627.5 699,-627.5 699,-597.5 423,-597.5"/>
<text text-anchor="start" x="430" y="-608.9" font-family="Arial" font-size="14.00" fill="#000000">password </text>
<text text-anchor="start" x="493.7882" y="-608.9" font-family="Arial" font-size="14.00" fill="#666666">[varchar]</text>
<polygon fill="none" stroke="#000000" points="423,-567.5 423,-597.5 699,-597.5 699,-567.5 423,-567.5"/>
<text text-anchor="start" x="430" y="-578.9" font-family="Arial" font-size="14.00" fill="#000000">company_id </text>
<text text-anchor="start" x="509.3534" y="-578.9" font-family="Arial" font-size="14.00" fill="#666666">[integer]</text>
<polygon fill="none" stroke="#000000" points="423,-537.5 423,-567.5 699,-567.5 699,-537.5 423,-537.5"/>
<text text-anchor="start" x="430" y="-548.9" font-family="Arial" font-size="14.00" fill="#000000">partner_id </text>
<text text-anchor="start" x="496.9046" y="-548.9" font-family="Arial" font-size="14.00" fill="#666666">[integer]</text>
<polygon fill="none" stroke="#000000" points="423,-507.5 423,-537.5 699,-537.5 699,-507.5 423,-507.5"/>
<text text-anchor="start" x="429.5246" y="-518.9" font-family="Arial" font-size="14.00" fill="#000000">create_date </text>
<text text-anchor="start" x="507.3352" y="-518.9" font-family="Arial" font-size="14.00" fill="#666666">[timestamp without time zone]</text>
<polygon fill="none" stroke="#000000" points="423,-477.5 423,-507.5 699,-507.5 699,-477.5 423,-477.5"/>
<text text-anchor="start" x="430" y="-488.9" font-family="Arial" font-size="14.00" fill="#000000">signature </text>
<text text-anchor="start" x="491.4614" y="-488.9" font-family="Arial" font-size="14.00" fill="#666666">[text]</text>
<polygon fill="none" stroke="#000000" points="423,-447.5 423,-477.5 699,-477.5 699,-447.5 423,-447.5"/>
<text text-anchor="start" x="430" y="-458.9" font-family="Arial" font-size="14.00" fill="#000000">action_id </text>
<text text-anchor="start" x="489.9074" y="-458.9" font-family="Arial" font-size="14.00" fill="#666666">[integer]</text>
<polygon fill="none" stroke="#000000" points="423,-417.5 423,-447.5 699,-447.5 699,-417.5 423,-417.5"/>
<text text-anchor="start" x="430" y="-428.9" font-family="Arial" font-size="14.00" fill="#000000">share </text>
<text text-anchor="start" x="468.899" y="-428.9" font-family="Arial" font-size="14.00" fill="#666666">[boolean]</text>
<polygon fill="none" stroke="#000000" points="423,-387.5 423,-417.5 699,-417.5 699,-387.5 423,-387.5"/>
<text text-anchor="start" x="430" y="-398.9" font-family="Arial" font-size="14.00" fill="#000000">create_uid </text>
<text text-anchor="start" x="499.244" y="-398.9" font-family="Arial" font-size="14.00" fill="#666666">[integer]</text>
<polygon fill="none" stroke="#000000" points="423,-357.5 423,-387.5 699,-387.5 699,-357.5 423,-357.5"/>
<text text-anchor="start" x="430" y="-368.9" font-family="Arial" font-size="14.00" fill="#000000">write_uid </text>
<text text-anchor="start" x="489.892" y="-368.9" font-family="Arial" font-size="14.00" fill="#666666">[integer]</text>
<polygon fill="none" stroke="#000000" points="423,-327.5 423,-357.5 699,-357.5 699,-327.5 423,-327.5"/>
<text text-anchor="start" x="430" y="-338.9" font-family="Arial" font-size="14.00" fill="#000000">write_date </text>
<text text-anchor="start" x="498.4586" y="-338.9" font-family="Arial" font-size="14.00" fill="#666666">[timestamp without time zone]</text>
<polygon fill="none" stroke="#000000" points="423,-297.5 423,-327.5 699,-327.5 699,-297.5 423,-297.5"/>
<text text-anchor="start" x="430" y="-308.9" font-family="Arial" font-size="14.00" fill="#000000">alias_id </text>
<text text-anchor="start" x="481.3408" y="-308.9" font-family="Arial" font-size="14.00" fill="#666666">[integer]</text>
<polygon fill="none" stroke="#000000" points="423,-267.5 423,-297.5 699,-297.5 699,-267.5 423,-267.5"/>
<text text-anchor="start" x="430" y="-278.9" font-family="Arial" font-size="14.00" fill="#000000">notification_type </text>
<text text-anchor="start" x="535.0336" y="-278.9" font-family="Arial" font-size="14.00" fill="#666666">[varchar]</text>
<polygon fill="none" stroke="#000000" points="423,-237.5 423,-267.5 699,-267.5 699,-237.5 423,-237.5"/>
<text text-anchor="start" x="430" y="-248.9" font-family="Arial" font-size="14.00" fill="#000000">odoobot_state </text>
<text text-anchor="start" x="522.6058" y="-248.9" font-family="Arial" font-size="14.00" fill="#666666">[varchar]</text>
<polygon fill="none" stroke="#000000" points="423,-207.5 423,-237.5 699,-237.5 699,-207.5 423,-207.5"/>
<text text-anchor="start" x="430" y="-218.9" font-family="Arial" font-size="14.00" fill="#000000">sale_team_id </text>
<text text-anchor="start" x="517.1332" y="-218.9" font-family="Arial" font-size="14.00" fill="#666666">[integer]</text>
<polygon fill="none" stroke="#000000" points="423,-177.5 423,-207.5 699,-207.5 699,-177.5 423,-177.5"/>
<text text-anchor="start" x="430" y="-188.9" font-family="Arial" font-size="14.00" fill="#000000">target_sales_won </text>
<text text-anchor="start" x="543.589" y="-188.9" font-family="Arial" font-size="14.00" fill="#666666">[integer]</text>
<polygon fill="none" stroke="#000000" points="423,-147.5 423,-177.5 699,-177.5 699,-147.5 423,-147.5"/>
<text text-anchor="start" x="430" y="-158.9" font-family="Arial" font-size="14.00" fill="#000000">target_sales_done </text>
<text text-anchor="start" x="549.0476" y="-158.9" font-family="Arial" font-size="14.00" fill="#666666">[integer]</text>
<polygon fill="none" stroke="#000000" points="423,-117.5 423,-147.5 699,-147.5 699,-117.5 423,-117.5"/>
<text text-anchor="start" x="430" y="-128.9" font-family="Arial" font-size="14.00" fill="#000000">website_id </text>
<text text-anchor="start" x="500.014" y="-128.9" font-family="Arial" font-size="14.00" fill="#666666">[integer]</text>
<polygon fill="none" stroke="#000000" points="423,-87.5 423,-117.5 699,-117.5 699,-87.5 423,-87.5"/>
<text text-anchor="start" x="430" y="-98.9" font-family="Arial" font-size="14.00" fill="#000000">target_sales_invoiced </text>
<text text-anchor="start" x="569.2608" y="-98.9" font-family="Arial" font-size="14.00" fill="#666666">[integer]</text>
<polygon fill="none" stroke="#000000" points="423,-57.5 423,-87.5 699,-87.5 699,-57.5 423,-57.5"/>
<text text-anchor="start" x="430" y="-68.9" font-family="Arial" font-size="14.00" fill="#000000">pos_security_pin </text>
<text text-anchor="start" x="538.9158" y="-68.9" font-family="Arial" font-size="14.00" fill="#666666">[varchar(32)]</text>
</g>
<!-- public.ir_ui_view_custom&#45;&gt;public.res_users -->
<g id="edge2" class="edge">
<title>public.ir_ui_view_custom:user_id&#45;&gt;public.res_users:id</title>
<path fill="none" stroke="#000000" d="M726.3886,-1056.8765C806.9098,-1046.7512 773.8629,-915.8046 716,-847 630.925,-745.8375 508.075,-897.1625 423,-796 396.2536,-764.196 381.4444,-702.5 423,-702.5"/>
<polygon fill="#000000" stroke="#000000" points="725.982,-1056.9008 715.7303,-1053.0081 720.991,-1057.2004 716,-1057.5 716,-1057.5 716,-1057.5 720.991,-1057.2004 716.2697,-1061.9919 725.982,-1056.9008 725.982,-1056.9008"/>
<text text-anchor="start" x="723.33" y="-1067.5" font-family="Arial" font-size="10.00" fill="#000000">FOREIGN KEY (user_id) REFERENCES res_users(id) ON DELETE CASCADE</text>
</g>
<!-- public.ir_ui_view_custom&#45;&gt;public.res_users -->
<g id="edge3" class="edge">
<title>public.ir_ui_view_custom:create_uid&#45;&gt;public.res_users:id</title>
<path fill="none" stroke="#000000" d="M726.1716,-996.6331C780.2242,-986.7821 756.6973,-895.393 716,-847 630.925,-745.8375 508.075,-897.1625 423,-796 396.2536,-764.196 381.4444,-702.5 423,-702.5"/>
<polygon fill="#000000" stroke="#000000" points="725.9639,-996.6507 715.6178,-993.0163 720.9819,-997.0754 716,-997.5 716,-997.5 716,-997.5 720.9819,-997.0754 716.3822,-1001.9837 725.9639,-996.6507 725.9639,-996.6507"/>
<text text-anchor="start" x="722.657" y="-1007.5" font-family="Arial" font-size="10.00" fill="#000000">FOREIGN KEY (create_uid) REFERENCES res_users(id) ON DELETE SET NULL</text>
</g>
<!-- public.ir_ui_view_custom&#45;&gt;public.res_users -->
<g id="edge4" class="edge">
<title>public.ir_ui_view_custom:write_uid&#45;&gt;public.res_users:id</title>
<path fill="none" stroke="#000000" d="M725.9094,-935.9985C753.433,-926.5575 739.4612,-874.8976 716,-847 630.925,-745.8375 508.075,-897.1625 423,-796 396.2536,-764.196 381.4444,-702.5 423,-702.5"/>
<polygon fill="#000000" stroke="#000000" points="725.8871,-936.0018 715.3258,-933.0508 720.9436,-936.7509 716,-937.5 716,-937.5 716,-937.5 720.9436,-936.7509 716.6742,-941.9492 725.8871,-936.0018 725.8871,-936.0018"/>
<text text-anchor="start" x="722.997" y="-947.5" font-family="Arial" font-size="10.00" fill="#000000">FOREIGN KEY (write_uid) REFERENCES res_users(id) ON DELETE SET NULL</text>
</g>
</g>
</svg>
