<?xml version="1.0" encoding="UTF-8" standalone="no"?>
<!DOCTYPE svg PUBLIC "-//W3C//DTD SVG 1.1//EN"
 "http://www.w3.org/Graphics/SVG/1.1/DTD/svg11.dtd">
<!-- Generated by graphviz version 2.40.1 (20161225.0304)
 -->
<!-- Title: public.resource_calendar_attendance Pages: 1 -->
<svg width="1224pt" height="1342pt"
 viewBox="0.00 0.00 1224.00 1342.00" xmlns="http://www.w3.org/2000/svg" xmlns:xlink="http://www.w3.org/1999/xlink">
<g id="graph0" class="graph" transform="scale(1 1) rotate(0) translate(4 1338)">
<title>public.resource_calendar_attendance</title>
<polygon fill="#ffffff" stroke="transparent" points="-4,4 -4,-1338 1220,-1338 1220,4 -4,4"/>
<!-- public.resource_calendar_attendance -->
<g id="node1" class="node">
<title>public.resource_calendar_attendance</title>
<polygon fill="#efefef" stroke="transparent" points="425,-1252.5 425,-1287.5 836,-1287.5 836,-1252.5 425,-1252.5"/>
<polygon fill="none" stroke="#000000" points="425,-1252.5 425,-1287.5 836,-1287.5 836,-1252.5 425,-1252.5"/>
<text text-anchor="start" x="431.8251" y="-1265.3" font-family="Arial Bold" font-size="18.00" fill="#000000">public.resource_calendar_attendance</text>
<text text-anchor="start" x="731.9211" y="-1265.3" font-family="Arial" font-size="14.00" fill="#000000"> </text>
<text text-anchor="start" x="735.8117" y="-1265.3" font-family="Arial" font-size="14.00" fill="#666666">[BASE TABLE]</text>
<polygon fill="none" stroke="#000000" points="425,-1222.5 425,-1252.5 836,-1252.5 836,-1222.5 425,-1222.5"/>
<text text-anchor="start" x="432" y="-1233.9" font-family="Arial" font-size="14.00" fill="#000000">id </text>
<text text-anchor="start" x="446.7798" y="-1233.9" font-family="Arial" font-size="14.00" fill="#666666">[integer]</text>
<polygon fill="none" stroke="#000000" points="425,-1192.5 425,-1222.5 836,-1222.5 836,-1192.5 425,-1192.5"/>
<text text-anchor="start" x="432" y="-1203.9" font-family="Arial" font-size="14.00" fill="#000000">name </text>
<text text-anchor="start" x="470.899" y="-1203.9" font-family="Arial" font-size="14.00" fill="#666666">[varchar]</text>
<polygon fill="none" stroke="#000000" points="425,-1162.5 425,-1192.5 836,-1192.5 836,-1162.5 425,-1162.5"/>
<text text-anchor="start" x="432" y="-1173.9" font-family="Arial" font-size="14.00" fill="#000000">dayofweek </text>
<text text-anchor="start" x="502.8008" y="-1173.9" font-family="Arial" font-size="14.00" fill="#666666">[varchar]</text>
<polygon fill="none" stroke="#000000" points="425,-1132.5 425,-1162.5 836,-1162.5 836,-1132.5 425,-1132.5"/>
<text text-anchor="start" x="432" y="-1143.9" font-family="Arial" font-size="14.00" fill="#000000">date_from </text>
<text text-anchor="start" x="498.906" y="-1143.9" font-family="Arial" font-size="14.00" fill="#666666">[date]</text>
<polygon fill="none" stroke="#000000" points="425,-1102.5 425,-1132.5 836,-1132.5 836,-1102.5 425,-1102.5"/>
<text text-anchor="start" x="432" y="-1113.9" font-family="Arial" font-size="14.00" fill="#000000">date_to </text>
<text text-anchor="start" x="482.5848" y="-1113.9" font-family="Arial" font-size="14.00" fill="#666666">[date]</text>
<polygon fill="none" stroke="#000000" points="425,-1072.5 425,-1102.5 836,-1102.5 836,-1072.5 425,-1072.5"/>
<text text-anchor="start" x="432" y="-1083.9" font-family="Arial" font-size="14.00" fill="#000000">hour_from </text>
<text text-anchor="start" x="499.676" y="-1083.9" font-family="Arial" font-size="14.00" fill="#666666">[double precision]</text>
<polygon fill="none" stroke="#000000" points="425,-1042.5 425,-1072.5 836,-1072.5 836,-1042.5 425,-1042.5"/>
<text text-anchor="start" x="432" y="-1053.9" font-family="Arial" font-size="14.00" fill="#000000">hour_to </text>
<text text-anchor="start" x="483.3548" y="-1053.9" font-family="Arial" font-size="14.00" fill="#666666">[double precision]</text>
<polygon fill="none" stroke="#000000" points="425,-1012.5 425,-1042.5 836,-1042.5 836,-1012.5 425,-1012.5"/>
<text text-anchor="start" x="432" y="-1023.9" font-family="Arial" font-size="14.00" fill="#000000">calendar_id </text>
<text text-anchor="start" x="508.2426" y="-1023.9" font-family="Arial" font-size="14.00" fill="#666666">[integer]</text>
<polygon fill="none" stroke="#000000" points="425,-982.5 425,-1012.5 836,-1012.5 836,-982.5 425,-982.5"/>
<text text-anchor="start" x="432" y="-993.9" font-family="Arial" font-size="14.00" fill="#000000">day_period </text>
<text text-anchor="start" x="505.136" y="-993.9" font-family="Arial" font-size="14.00" fill="#666666">[varchar]</text>
<polygon fill="none" stroke="#000000" points="425,-952.5 425,-982.5 836,-982.5 836,-952.5 425,-952.5"/>
<text text-anchor="start" x="432" y="-963.9" font-family="Arial" font-size="14.00" fill="#000000">create_uid </text>
<text text-anchor="start" x="501.244" y="-963.9" font-family="Arial" font-size="14.00" fill="#666666">[integer]</text>
<polygon fill="none" stroke="#000000" points="425,-922.5 425,-952.5 836,-952.5 836,-922.5 425,-922.5"/>
<text text-anchor="start" x="432" y="-933.9" font-family="Arial" font-size="14.00" fill="#000000">create_date </text>
<text text-anchor="start" x="509.8106" y="-933.9" font-family="Arial" font-size="14.00" fill="#666666">[timestamp without time zone]</text>
<polygon fill="none" stroke="#000000" points="425,-892.5 425,-922.5 836,-922.5 836,-892.5 425,-892.5"/>
<text text-anchor="start" x="432" y="-903.9" font-family="Arial" font-size="14.00" fill="#000000">write_uid </text>
<text text-anchor="start" x="491.892" y="-903.9" font-family="Arial" font-size="14.00" fill="#666666">[integer]</text>
<polygon fill="none" stroke="#000000" points="425,-862.5 425,-892.5 836,-892.5 836,-862.5 425,-862.5"/>
<text text-anchor="start" x="432" y="-873.9" font-family="Arial" font-size="14.00" fill="#000000">write_date </text>
<text text-anchor="start" x="500.4586" y="-873.9" font-family="Arial" font-size="14.00" fill="#666666">[timestamp without time zone]</text>
<polygon fill="none" stroke="#000000" stroke-width="3" points="423,-861.5 423,-1289.5 837,-1289.5 837,-861.5 423,-861.5"/>
</g>
<!-- public.resource_calendar -->
<g id="node2" class="node">
<title>public.resource_calendar</title>
<polygon fill="#efefef" stroke="transparent" points="77,-507.5 77,-542.5 389,-542.5 389,-507.5 77,-507.5"/>
<polygon fill="none" stroke="#000000" points="77,-507.5 77,-542.5 389,-542.5 389,-507.5 77,-507.5"/>
<text text-anchor="start" x="83.8521" y="-520.3" font-family="Arial Bold" font-size="18.00" fill="#000000">public.resource_calendar</text>
<text text-anchor="start" x="284.8941" y="-520.3" font-family="Arial" font-size="14.00" fill="#000000"> </text>
<text text-anchor="start" x="288.7847" y="-520.3" font-family="Arial" font-size="14.00" fill="#666666">[BASE TABLE]</text>
<polygon fill="none" stroke="#000000" points="77,-477.5 77,-507.5 389,-507.5 389,-477.5 77,-477.5"/>
<text text-anchor="start" x="84" y="-488.9" font-family="Arial" font-size="14.00" fill="#000000">id </text>
<text text-anchor="start" x="98.7798" y="-488.9" font-family="Arial" font-size="14.00" fill="#666666">[integer]</text>
<polygon fill="none" stroke="#000000" points="77,-447.5 77,-477.5 389,-477.5 389,-447.5 77,-447.5"/>
<text text-anchor="start" x="84" y="-458.9" font-family="Arial" font-size="14.00" fill="#000000">name </text>
<text text-anchor="start" x="122.899" y="-458.9" font-family="Arial" font-size="14.00" fill="#666666">[varchar]</text>
<polygon fill="none" stroke="#000000" points="77,-417.5 77,-447.5 389,-447.5 389,-417.5 77,-417.5"/>
<text text-anchor="start" x="84" y="-428.9" font-family="Arial" font-size="14.00" fill="#000000">company_id </text>
<text text-anchor="start" x="163.3534" y="-428.9" font-family="Arial" font-size="14.00" fill="#666666">[integer]</text>
<polygon fill="none" stroke="#000000" points="77,-387.5 77,-417.5 389,-417.5 389,-387.5 77,-387.5"/>
<text text-anchor="start" x="84" y="-398.9" font-family="Arial" font-size="14.00" fill="#000000">hours_per_day </text>
<text text-anchor="start" x="181.2552" y="-398.9" font-family="Arial" font-size="14.00" fill="#666666">[double precision]</text>
<polygon fill="none" stroke="#000000" points="77,-357.5 77,-387.5 389,-387.5 389,-357.5 77,-357.5"/>
<text text-anchor="start" x="84" y="-368.9" font-family="Arial" font-size="14.00" fill="#000000">tz </text>
<text text-anchor="start" x="98.7812" y="-368.9" font-family="Arial" font-size="14.00" fill="#666666">[varchar]</text>
<polygon fill="none" stroke="#000000" points="77,-327.5 77,-357.5 389,-357.5 389,-327.5 77,-327.5"/>
<text text-anchor="start" x="84" y="-338.9" font-family="Arial" font-size="14.00" fill="#000000">create_uid </text>
<text text-anchor="start" x="153.244" y="-338.9" font-family="Arial" font-size="14.00" fill="#666666">[integer]</text>
<polygon fill="none" stroke="#000000" points="77,-297.5 77,-327.5 389,-327.5 389,-297.5 77,-297.5"/>
<text text-anchor="start" x="84" y="-308.9" font-family="Arial" font-size="14.00" fill="#000000">create_date </text>
<text text-anchor="start" x="161.8106" y="-308.9" font-family="Arial" font-size="14.00" fill="#666666">[timestamp without time zone]</text>
<polygon fill="none" stroke="#000000" points="77,-267.5 77,-297.5 389,-297.5 389,-267.5 77,-267.5"/>
<text text-anchor="start" x="84" y="-278.9" font-family="Arial" font-size="14.00" fill="#000000">write_uid </text>
<text text-anchor="start" x="143.892" y="-278.9" font-family="Arial" font-size="14.00" fill="#666666">[integer]</text>
<polygon fill="none" stroke="#000000" points="77,-237.5 77,-267.5 389,-267.5 389,-237.5 77,-237.5"/>
<text text-anchor="start" x="84" y="-248.9" font-family="Arial" font-size="14.00" fill="#000000">write_date </text>
<text text-anchor="start" x="152.4586" y="-248.9" font-family="Arial" font-size="14.00" fill="#666666">[timestamp without time zone]</text>
</g>
<!-- public.resource_calendar_attendance&#45;&gt;public.resource_calendar -->
<g id="edge1" class="edge">
<title>public.resource_calendar_attendance:calendar_id&#45;&gt;public.resource_calendar:id</title>
<path fill="none" stroke="#000000" d="M415.0441,-1026.0587C317.7972,-995.5977 504.5504,-492.5 389,-492.5"/>
<polygon fill="#000000" stroke="#000000" points="415.1032,-1026.0672 424.3552,-1031.9536 420.0516,-1026.7836 425,-1027.5 425,-1027.5 425,-1027.5 420.0516,-1026.7836 425.6448,-1023.0464 415.1032,-1026.0672 415.1032,-1026.0672"/>
<text text-anchor="start" x="7.431" y="-1037.5" font-family="Arial" font-size="10.00" fill="#000000">FOREIGN KEY (calendar_id) REFERENCES resource_calendar(id) ON DELETE CASCADE</text>
</g>
<!-- public.res_users -->
<g id="node3" class="node">
<title>public.res_users</title>
<polygon fill="#efefef" stroke="transparent" points="493,-702.5 493,-737.5 769,-737.5 769,-702.5 493,-702.5"/>
<polygon fill="none" stroke="#000000" points="493,-702.5 493,-737.5 769,-737.5 769,-702.5 493,-702.5"/>
<text text-anchor="start" x="516.8639" y="-715.3" font-family="Arial Bold" font-size="18.00" fill="#000000">public.res_users</text>
<text text-anchor="start" x="647.8823" y="-715.3" font-family="Arial" font-size="14.00" fill="#000000"> </text>
<text text-anchor="start" x="651.7729" y="-715.3" font-family="Arial" font-size="14.00" fill="#666666">[BASE TABLE]</text>
<polygon fill="none" stroke="#000000" points="493,-672.5 493,-702.5 769,-702.5 769,-672.5 493,-672.5"/>
<text text-anchor="start" x="500" y="-683.9" font-family="Arial" font-size="14.00" fill="#000000">id </text>
<text text-anchor="start" x="514.7798" y="-683.9" font-family="Arial" font-size="14.00" fill="#666666">[integer]</text>
<polygon fill="none" stroke="#000000" points="493,-642.5 493,-672.5 769,-672.5 769,-642.5 493,-642.5"/>
<text text-anchor="start" x="500" y="-653.9" font-family="Arial" font-size="14.00" fill="#000000">active </text>
<text text-anchor="start" x="540.453" y="-653.9" font-family="Arial" font-size="14.00" fill="#666666">[boolean]</text>
<polygon fill="none" stroke="#000000" points="493,-612.5 493,-642.5 769,-642.5 769,-612.5 493,-612.5"/>
<text text-anchor="start" x="500" y="-623.9" font-family="Arial" font-size="14.00" fill="#000000">login </text>
<text text-anchor="start" x="533.4516" y="-623.9" font-family="Arial" font-size="14.00" fill="#666666">[varchar]</text>
<polygon fill="none" stroke="#000000" points="493,-582.5 493,-612.5 769,-612.5 769,-582.5 493,-582.5"/>
<text text-anchor="start" x="500" y="-593.9" font-family="Arial" font-size="14.00" fill="#000000">password </text>
<text text-anchor="start" x="563.7882" y="-593.9" font-family="Arial" font-size="14.00" fill="#666666">[varchar]</text>
<polygon fill="none" stroke="#000000" points="493,-552.5 493,-582.5 769,-582.5 769,-552.5 493,-552.5"/>
<text text-anchor="start" x="500" y="-563.9" font-family="Arial" font-size="14.00" fill="#000000">company_id </text>
<text text-anchor="start" x="579.3534" y="-563.9" font-family="Arial" font-size="14.00" fill="#666666">[integer]</text>
<polygon fill="none" stroke="#000000" points="493,-522.5 493,-552.5 769,-552.5 769,-522.5 493,-522.5"/>
<text text-anchor="start" x="500" y="-533.9" font-family="Arial" font-size="14.00" fill="#000000">partner_id </text>
<text text-anchor="start" x="566.9046" y="-533.9" font-family="Arial" font-size="14.00" fill="#666666">[integer]</text>
<polygon fill="none" stroke="#000000" points="493,-492.5 493,-522.5 769,-522.5 769,-492.5 493,-492.5"/>
<text text-anchor="start" x="499.5246" y="-503.9" font-family="Arial" font-size="14.00" fill="#000000">create_date </text>
<text text-anchor="start" x="577.3352" y="-503.9" font-family="Arial" font-size="14.00" fill="#666666">[timestamp without time zone]</text>
<polygon fill="none" stroke="#000000" points="493,-462.5 493,-492.5 769,-492.5 769,-462.5 493,-462.5"/>
<text text-anchor="start" x="500" y="-473.9" font-family="Arial" font-size="14.00" fill="#000000">signature </text>
<text text-anchor="start" x="561.4614" y="-473.9" font-family="Arial" font-size="14.00" fill="#666666">[text]</text>
<polygon fill="none" stroke="#000000" points="493,-432.5 493,-462.5 769,-462.5 769,-432.5 493,-432.5"/>
<text text-anchor="start" x="500" y="-443.9" font-family="Arial" font-size="14.00" fill="#000000">action_id </text>
<text text-anchor="start" x="559.9074" y="-443.9" font-family="Arial" font-size="14.00" fill="#666666">[integer]</text>
<polygon fill="none" stroke="#000000" points="493,-402.5 493,-432.5 769,-432.5 769,-402.5 493,-402.5"/>
<text text-anchor="start" x="500" y="-413.9" font-family="Arial" font-size="14.00" fill="#000000">share </text>
<text text-anchor="start" x="538.899" y="-413.9" font-family="Arial" font-size="14.00" fill="#666666">[boolean]</text>
<polygon fill="none" stroke="#000000" points="493,-372.5 493,-402.5 769,-402.5 769,-372.5 493,-372.5"/>
<text text-anchor="start" x="500" y="-383.9" font-family="Arial" font-size="14.00" fill="#000000">create_uid </text>
<text text-anchor="start" x="569.244" y="-383.9" font-family="Arial" font-size="14.00" fill="#666666">[integer]</text>
<polygon fill="none" stroke="#000000" points="493,-342.5 493,-372.5 769,-372.5 769,-342.5 493,-342.5"/>
<text text-anchor="start" x="500" y="-353.9" font-family="Arial" font-size="14.00" fill="#000000">write_uid </text>
<text text-anchor="start" x="559.892" y="-353.9" font-family="Arial" font-size="14.00" fill="#666666">[integer]</text>
<polygon fill="none" stroke="#000000" points="493,-312.5 493,-342.5 769,-342.5 769,-312.5 493,-312.5"/>
<text text-anchor="start" x="500" y="-323.9" font-family="Arial" font-size="14.00" fill="#000000">write_date </text>
<text text-anchor="start" x="568.4586" y="-323.9" font-family="Arial" font-size="14.00" fill="#666666">[timestamp without time zone]</text>
<polygon fill="none" stroke="#000000" points="493,-282.5 493,-312.5 769,-312.5 769,-282.5 493,-282.5"/>
<text text-anchor="start" x="500" y="-293.9" font-family="Arial" font-size="14.00" fill="#000000">alias_id </text>
<text text-anchor="start" x="551.3408" y="-293.9" font-family="Arial" font-size="14.00" fill="#666666">[integer]</text>
<polygon fill="none" stroke="#000000" points="493,-252.5 493,-282.5 769,-282.5 769,-252.5 493,-252.5"/>
<text text-anchor="start" x="500" y="-263.9" font-family="Arial" font-size="14.00" fill="#000000">notification_type </text>
<text text-anchor="start" x="605.0336" y="-263.9" font-family="Arial" font-size="14.00" fill="#666666">[varchar]</text>
<polygon fill="none" stroke="#000000" points="493,-222.5 493,-252.5 769,-252.5 769,-222.5 493,-222.5"/>
<text text-anchor="start" x="500" y="-233.9" font-family="Arial" font-size="14.00" fill="#000000">odoobot_state </text>
<text text-anchor="start" x="592.6058" y="-233.9" font-family="Arial" font-size="14.00" fill="#666666">[varchar]</text>
<polygon fill="none" stroke="#000000" points="493,-192.5 493,-222.5 769,-222.5 769,-192.5 493,-192.5"/>
<text text-anchor="start" x="500" y="-203.9" font-family="Arial" font-size="14.00" fill="#000000">sale_team_id </text>
<text text-anchor="start" x="587.1332" y="-203.9" font-family="Arial" font-size="14.00" fill="#666666">[integer]</text>
<polygon fill="none" stroke="#000000" points="493,-162.5 493,-192.5 769,-192.5 769,-162.5 493,-162.5"/>
<text text-anchor="start" x="500" y="-173.9" font-family="Arial" font-size="14.00" fill="#000000">target_sales_won </text>
<text text-anchor="start" x="613.589" y="-173.9" font-family="Arial" font-size="14.00" fill="#666666">[integer]</text>
<polygon fill="none" stroke="#000000" points="493,-132.5 493,-162.5 769,-162.5 769,-132.5 493,-132.5"/>
<text text-anchor="start" x="500" y="-143.9" font-family="Arial" font-size="14.00" fill="#000000">target_sales_done </text>
<text text-anchor="start" x="619.0476" y="-143.9" font-family="Arial" font-size="14.00" fill="#666666">[integer]</text>
<polygon fill="none" stroke="#000000" points="493,-102.5 493,-132.5 769,-132.5 769,-102.5 493,-102.5"/>
<text text-anchor="start" x="500" y="-113.9" font-family="Arial" font-size="14.00" fill="#000000">website_id </text>
<text text-anchor="start" x="570.014" y="-113.9" font-family="Arial" font-size="14.00" fill="#666666">[integer]</text>
<polygon fill="none" stroke="#000000" points="493,-72.5 493,-102.5 769,-102.5 769,-72.5 493,-72.5"/>
<text text-anchor="start" x="500" y="-83.9" font-family="Arial" font-size="14.00" fill="#000000">target_sales_invoiced </text>
<text text-anchor="start" x="639.2608" y="-83.9" font-family="Arial" font-size="14.00" fill="#666666">[integer]</text>
<polygon fill="none" stroke="#000000" points="493,-42.5 493,-72.5 769,-72.5 769,-42.5 493,-42.5"/>
<text text-anchor="start" x="500" y="-53.9" font-family="Arial" font-size="14.00" fill="#000000">pos_security_pin </text>
<text text-anchor="start" x="608.9158" y="-53.9" font-family="Arial" font-size="14.00" fill="#666666">[varchar(32)]</text>
</g>
<!-- public.resource_calendar_attendance&#45;&gt;public.res_users -->
<g id="edge2" class="edge">
<title>public.resource_calendar_attendance:create_uid&#45;&gt;public.res_users:id</title>
<path fill="none" stroke="#000000" d="M846.1861,-966.6205C900.401,-956.6283 878.3132,-863.9866 836,-817 784.7131,-760.0485 544.2869,-837.9515 493,-781 465.1916,-750.1202 451.4444,-687.5 493,-687.5"/>
<polygon fill="#000000" stroke="#000000" points="845.9629,-966.6397 835.6129,-963.0167 840.9815,-967.0698 836,-967.5 836,-967.5 836,-967.5 840.9815,-967.0698 836.3871,-971.9833 845.9629,-966.6397 845.9629,-966.6397"/>
<text text-anchor="start" x="842.657" y="-977.5" font-family="Arial" font-size="10.00" fill="#000000">FOREIGN KEY (create_uid) REFERENCES res_users(id) ON DELETE SET NULL</text>
</g>
<!-- public.resource_calendar_attendance&#45;&gt;public.res_users -->
<g id="edge3" class="edge">
<title>public.resource_calendar_attendance:write_uid&#45;&gt;public.res_users:id</title>
<path fill="none" stroke="#000000" d="M845.934,-905.9771C873.6077,-896.4054 860.3927,-844.0869 836,-817 784.7131,-760.0485 544.2869,-837.9515 493,-781 465.1916,-750.1202 451.4444,-687.5 493,-687.5"/>
<polygon fill="#000000" stroke="#000000" points="845.8845,-905.9846 835.3181,-903.052 840.9423,-906.7423 836,-907.5 836,-907.5 836,-907.5 840.9423,-906.7423 836.6819,-911.948 845.8845,-905.9846 845.8845,-905.9846"/>
<text text-anchor="start" x="842.997" y="-917.5" font-family="Arial" font-size="10.00" fill="#000000">FOREIGN KEY (write_uid) REFERENCES res_users(id) ON DELETE SET NULL</text>
</g>
</g>
</svg>
