<?xml version="1.0" encoding="UTF-8" standalone="no"?>
<!DOCTYPE svg PUBLIC "-//W3C//DTD SVG 1.1//EN"
 "http://www.w3.org/Graphics/SVG/1.1/DTD/svg11.dtd">
<!-- Generated by graphviz version 2.40.1 (20161225.0304)
 -->
<!-- Title: public.rel_modules_langexport Pages: 1 -->
<svg width="1202pt" height="1222pt"
 viewBox="0.00 0.00 1202.00 1222.00" xmlns="http://www.w3.org/2000/svg" xmlns:xlink="http://www.w3.org/1999/xlink">
<g id="graph0" class="graph" transform="scale(1 1) rotate(0) translate(4 1218)">
<title>public.rel_modules_langexport</title>
<polygon fill="#ffffff" stroke="transparent" points="-4,4 -4,-1218 1198,-1218 1198,4 -4,4"/>
<!-- public.rel_modules_langexport -->
<g id="node1" class="node">
<title>public.rel_modules_langexport</title>
<polygon fill="#efefef" stroke="transparent" points="420,-1132.5 420,-1167.5 775,-1167.5 775,-1132.5 420,-1132.5"/>
<polygon fill="none" stroke="#000000" points="420,-1132.5 420,-1167.5 775,-1167.5 775,-1132.5 420,-1132.5"/>
<text text-anchor="start" x="426.8475" y="-1145.3" font-family="Arial Bold" font-size="18.00" fill="#000000">public.rel_modules_langexport</text>
<text text-anchor="start" x="670.8987" y="-1145.3" font-family="Arial" font-size="14.00" fill="#000000"> </text>
<text text-anchor="start" x="674.7893" y="-1145.3" font-family="Arial" font-size="14.00" fill="#666666">[BASE TABLE]</text>
<polygon fill="none" stroke="#000000" points="420,-1102.5 420,-1132.5 775,-1132.5 775,-1102.5 420,-1102.5"/>
<text text-anchor="start" x="427" y="-1113.9" font-family="Arial" font-size="14.00" fill="#000000">wiz_id </text>
<text text-anchor="start" x="469.7756" y="-1113.9" font-family="Arial" font-size="14.00" fill="#666666">[integer]</text>
<polygon fill="none" stroke="#000000" points="420,-1072.5 420,-1102.5 775,-1102.5 775,-1072.5 420,-1072.5"/>
<text text-anchor="start" x="427" y="-1083.9" font-family="Arial" font-size="14.00" fill="#000000">module_id </text>
<text text-anchor="start" x="495.46" y="-1083.9" font-family="Arial" font-size="14.00" fill="#666666">[integer]</text>
<polygon fill="none" stroke="#000000" stroke-width="3" points="418,-1071.5 418,-1169.5 776,-1169.5 776,-1071.5 418,-1071.5"/>
</g>
<!-- public.base_language_export -->
<g id="node2" class="node">
<title>public.base_language_export</title>
<polygon fill="#efefef" stroke="transparent" points="208,-627.5 208,-662.5 554,-662.5 554,-627.5 208,-627.5"/>
<polygon fill="none" stroke="#000000" points="208,-627.5 208,-662.5 554,-662.5 554,-627.5 208,-627.5"/>
<text text-anchor="start" x="214.8277" y="-640.3" font-family="Arial Bold" font-size="18.00" fill="#000000">public.base_language_export</text>
<text text-anchor="start" x="449.9185" y="-640.3" font-family="Arial" font-size="14.00" fill="#000000"> </text>
<text text-anchor="start" x="453.8091" y="-640.3" font-family="Arial" font-size="14.00" fill="#666666">[BASE TABLE]</text>
<polygon fill="none" stroke="#000000" points="208,-597.5 208,-627.5 554,-627.5 554,-597.5 208,-597.5"/>
<text text-anchor="start" x="215" y="-608.9" font-family="Arial" font-size="14.00" fill="#000000">id </text>
<text text-anchor="start" x="229.7798" y="-608.9" font-family="Arial" font-size="14.00" fill="#666666">[integer]</text>
<polygon fill="none" stroke="#000000" points="208,-567.5 208,-597.5 554,-597.5 554,-567.5 208,-567.5"/>
<text text-anchor="start" x="215" y="-578.9" font-family="Arial" font-size="14.00" fill="#000000">name </text>
<text text-anchor="start" x="253.899" y="-578.9" font-family="Arial" font-size="14.00" fill="#666666">[varchar]</text>
<polygon fill="none" stroke="#000000" points="208,-537.5 208,-567.5 554,-567.5 554,-537.5 208,-537.5"/>
<text text-anchor="start" x="215" y="-548.9" font-family="Arial" font-size="14.00" fill="#000000">lang </text>
<text text-anchor="start" x="245.345" y="-548.9" font-family="Arial" font-size="14.00" fill="#666666">[varchar]</text>
<polygon fill="none" stroke="#000000" points="208,-507.5 208,-537.5 554,-537.5 554,-507.5 208,-507.5"/>
<text text-anchor="start" x="215" y="-518.9" font-family="Arial" font-size="14.00" fill="#000000">format </text>
<text text-anchor="start" x="258.5582" y="-518.9" font-family="Arial" font-size="14.00" fill="#666666">[varchar]</text>
<polygon fill="none" stroke="#000000" points="208,-477.5 208,-507.5 554,-507.5 554,-477.5 208,-477.5"/>
<text text-anchor="start" x="215" y="-488.9" font-family="Arial" font-size="14.00" fill="#000000">data </text>
<text text-anchor="start" x="246.129" y="-488.9" font-family="Arial" font-size="14.00" fill="#666666">[bytea]</text>
<polygon fill="none" stroke="#000000" points="208,-447.5 208,-477.5 554,-477.5 554,-447.5 208,-447.5"/>
<text text-anchor="start" x="215" y="-458.9" font-family="Arial" font-size="14.00" fill="#000000">state </text>
<text text-anchor="start" x="249.237" y="-458.9" font-family="Arial" font-size="14.00" fill="#666666">[varchar]</text>
<polygon fill="none" stroke="#000000" points="208,-417.5 208,-447.5 554,-447.5 554,-417.5 208,-417.5"/>
<text text-anchor="start" x="215" y="-428.9" font-family="Arial" font-size="14.00" fill="#000000">create_uid </text>
<text text-anchor="start" x="284.244" y="-428.9" font-family="Arial" font-size="14.00" fill="#666666">[integer]</text>
<polygon fill="none" stroke="#000000" points="208,-387.5 208,-417.5 554,-417.5 554,-387.5 208,-387.5"/>
<text text-anchor="start" x="215" y="-398.9" font-family="Arial" font-size="14.00" fill="#000000">create_date </text>
<text text-anchor="start" x="292.8106" y="-398.9" font-family="Arial" font-size="14.00" fill="#666666">[timestamp without time zone]</text>
<polygon fill="none" stroke="#000000" points="208,-357.5 208,-387.5 554,-387.5 554,-357.5 208,-357.5"/>
<text text-anchor="start" x="215" y="-368.9" font-family="Arial" font-size="14.00" fill="#000000">write_uid </text>
<text text-anchor="start" x="274.892" y="-368.9" font-family="Arial" font-size="14.00" fill="#666666">[integer]</text>
<polygon fill="none" stroke="#000000" points="208,-327.5 208,-357.5 554,-357.5 554,-327.5 208,-327.5"/>
<text text-anchor="start" x="215" y="-338.9" font-family="Arial" font-size="14.00" fill="#000000">write_date </text>
<text text-anchor="start" x="283.4586" y="-338.9" font-family="Arial" font-size="14.00" fill="#666666">[timestamp without time zone]</text>
</g>
<!-- public.rel_modules_langexport&#45;&gt;public.base_language_export -->
<g id="edge1" class="edge">
<title>public.rel_modules_langexport:wiz_id&#45;&gt;public.base_language_export:id</title>
<path fill="none" stroke="#000000" d="M409.9947,-1115.8668C327.6813,-1084.5216 666.2507,-612.5 554,-612.5"/>
<polygon fill="#000000" stroke="#000000" points="410.1306,-1115.8889 419.275,-1121.9412 415.0653,-1116.6944 420,-1117.5 420,-1117.5 420,-1117.5 415.0653,-1116.6944 420.725,-1113.0588 410.1306,-1115.8889 410.1306,-1115.8889"/>
<text text-anchor="start" x="6.9255" y="-1127.5" font-family="Arial" font-size="10.00" fill="#000000">FOREIGN KEY (wiz_id) REFERENCES base_language_export(id) ON DELETE CASCADE</text>
</g>
<!-- public.ir_module_module -->
<g id="node3" class="node">
<title>public.ir_module_module</title>
<polygon fill="#efefef" stroke="transparent" points="659,-912.5 659,-947.5 970,-947.5 970,-912.5 659,-912.5"/>
<polygon fill="none" stroke="#000000" points="659,-912.5 659,-947.5 970,-947.5 970,-912.5 659,-912.5"/>
<text text-anchor="start" x="665.8579" y="-925.3" font-family="Arial Bold" font-size="18.00" fill="#000000">public.ir_module_module</text>
<text text-anchor="start" x="865.8883" y="-925.3" font-family="Arial" font-size="14.00" fill="#000000"> </text>
<text text-anchor="start" x="869.7789" y="-925.3" font-family="Arial" font-size="14.00" fill="#666666">[BASE TABLE]</text>
<polygon fill="none" stroke="#000000" points="659,-882.5 659,-912.5 970,-912.5 970,-882.5 659,-882.5"/>
<text text-anchor="start" x="666" y="-893.9" font-family="Arial" font-size="14.00" fill="#000000">id </text>
<text text-anchor="start" x="680.7798" y="-893.9" font-family="Arial" font-size="14.00" fill="#666666">[integer]</text>
<polygon fill="none" stroke="#000000" points="659,-852.5 659,-882.5 970,-882.5 970,-852.5 659,-852.5"/>
<text text-anchor="start" x="666" y="-863.9" font-family="Arial" font-size="14.00" fill="#000000">create_uid </text>
<text text-anchor="start" x="735.244" y="-863.9" font-family="Arial" font-size="14.00" fill="#666666">[integer]</text>
<polygon fill="none" stroke="#000000" points="659,-822.5 659,-852.5 970,-852.5 970,-822.5 659,-822.5"/>
<text text-anchor="start" x="666" y="-833.9" font-family="Arial" font-size="14.00" fill="#000000">create_date </text>
<text text-anchor="start" x="743.8106" y="-833.9" font-family="Arial" font-size="14.00" fill="#666666">[timestamp without time zone]</text>
<polygon fill="none" stroke="#000000" points="659,-792.5 659,-822.5 970,-822.5 970,-792.5 659,-792.5"/>
<text text-anchor="start" x="666" y="-803.9" font-family="Arial" font-size="14.00" fill="#000000">write_date </text>
<text text-anchor="start" x="734.4586" y="-803.9" font-family="Arial" font-size="14.00" fill="#666666">[timestamp without time zone]</text>
<polygon fill="none" stroke="#000000" points="659,-762.5 659,-792.5 970,-792.5 970,-762.5 659,-762.5"/>
<text text-anchor="start" x="666" y="-773.9" font-family="Arial" font-size="14.00" fill="#000000">write_uid </text>
<text text-anchor="start" x="725.892" y="-773.9" font-family="Arial" font-size="14.00" fill="#666666">[integer]</text>
<polygon fill="none" stroke="#000000" points="659,-732.5 659,-762.5 970,-762.5 970,-732.5 659,-732.5"/>
<text text-anchor="start" x="666" y="-743.9" font-family="Arial" font-size="14.00" fill="#000000">website </text>
<text text-anchor="start" x="717.3422" y="-743.9" font-family="Arial" font-size="14.00" fill="#666666">[varchar]</text>
<polygon fill="none" stroke="#000000" points="659,-702.5 659,-732.5 970,-732.5 970,-702.5 659,-702.5"/>
<text text-anchor="start" x="666" y="-713.9" font-family="Arial" font-size="14.00" fill="#000000">summary </text>
<text text-anchor="start" x="727.4376" y="-713.9" font-family="Arial" font-size="14.00" fill="#666666">[varchar]</text>
<polygon fill="none" stroke="#000000" points="659,-672.5 659,-702.5 970,-702.5 970,-672.5 659,-672.5"/>
<text text-anchor="start" x="666" y="-683.9" font-family="Arial" font-size="14.00" fill="#000000">name </text>
<text text-anchor="start" x="704.899" y="-683.9" font-family="Arial" font-size="14.00" fill="#666666">[varchar]</text>
<polygon fill="none" stroke="#000000" points="659,-642.5 659,-672.5 970,-672.5 970,-642.5 659,-642.5"/>
<text text-anchor="start" x="666" y="-653.9" font-family="Arial" font-size="14.00" fill="#000000">author </text>
<text text-anchor="start" x="709.5722" y="-653.9" font-family="Arial" font-size="14.00" fill="#666666">[varchar]</text>
<polygon fill="none" stroke="#000000" points="659,-612.5 659,-642.5 970,-642.5 970,-612.5 659,-612.5"/>
<text text-anchor="start" x="666" y="-623.9" font-family="Arial" font-size="14.00" fill="#000000">icon </text>
<text text-anchor="start" x="695.5624" y="-623.9" font-family="Arial" font-size="14.00" fill="#666666">[varchar]</text>
<polygon fill="none" stroke="#000000" points="659,-582.5 659,-612.5 970,-612.5 970,-582.5 659,-582.5"/>
<text text-anchor="start" x="666" y="-593.9" font-family="Arial" font-size="14.00" fill="#000000">state </text>
<text text-anchor="start" x="700.237" y="-593.9" font-family="Arial" font-size="14.00" fill="#666666">[varchar(16)]</text>
<polygon fill="none" stroke="#000000" points="659,-552.5 659,-582.5 970,-582.5 970,-552.5 659,-552.5"/>
<text text-anchor="start" x="666" y="-563.9" font-family="Arial" font-size="14.00" fill="#000000">latest_version </text>
<text text-anchor="start" x="756.2412" y="-563.9" font-family="Arial" font-size="14.00" fill="#666666">[varchar]</text>
<polygon fill="none" stroke="#000000" points="659,-522.5 659,-552.5 970,-552.5 970,-522.5 659,-522.5"/>
<text text-anchor="start" x="666" y="-533.9" font-family="Arial" font-size="14.00" fill="#000000">shortdesc </text>
<text text-anchor="start" x="730.5722" y="-533.9" font-family="Arial" font-size="14.00" fill="#666666">[varchar]</text>
<polygon fill="none" stroke="#000000" points="659,-492.5 659,-522.5 970,-522.5 970,-492.5 659,-492.5"/>
<text text-anchor="start" x="666" y="-503.9" font-family="Arial" font-size="14.00" fill="#000000">category_id </text>
<text text-anchor="start" x="742.244" y="-503.9" font-family="Arial" font-size="14.00" fill="#666666">[integer]</text>
<polygon fill="none" stroke="#000000" points="659,-462.5 659,-492.5 970,-492.5 970,-462.5 659,-462.5"/>
<text text-anchor="start" x="666" y="-473.9" font-family="Arial" font-size="14.00" fill="#000000">description </text>
<text text-anchor="start" x="737.568" y="-473.9" font-family="Arial" font-size="14.00" fill="#666666">[text]</text>
<polygon fill="none" stroke="#000000" points="659,-432.5 659,-462.5 970,-462.5 970,-432.5 659,-432.5"/>
<text text-anchor="start" x="666" y="-443.9" font-family="Arial" font-size="14.00" fill="#000000">application </text>
<text text-anchor="start" x="736.7966" y="-443.9" font-family="Arial" font-size="14.00" fill="#666666">[boolean]</text>
<polygon fill="none" stroke="#000000" points="659,-402.5 659,-432.5 970,-432.5 970,-402.5 659,-402.5"/>
<text text-anchor="start" x="666" y="-413.9" font-family="Arial" font-size="14.00" fill="#000000">demo </text>
<text text-anchor="start" x="704.899" y="-413.9" font-family="Arial" font-size="14.00" fill="#666666">[boolean]</text>
<polygon fill="none" stroke="#000000" points="659,-372.5 659,-402.5 970,-402.5 970,-372.5 659,-372.5"/>
<text text-anchor="start" x="666" y="-383.9" font-family="Arial" font-size="14.00" fill="#000000">web </text>
<text text-anchor="start" x="695.5624" y="-383.9" font-family="Arial" font-size="14.00" fill="#666666">[boolean]</text>
<polygon fill="none" stroke="#000000" points="659,-342.5 659,-372.5 970,-372.5 970,-342.5 659,-342.5"/>
<text text-anchor="start" x="666" y="-353.9" font-family="Arial" font-size="14.00" fill="#000000">license </text>
<text text-anchor="start" x="713.4516" y="-353.9" font-family="Arial" font-size="14.00" fill="#666666">[varchar(32)]</text>
<polygon fill="none" stroke="#000000" points="659,-312.5 659,-342.5 970,-342.5 970,-312.5 659,-312.5"/>
<text text-anchor="start" x="666" y="-323.9" font-family="Arial" font-size="14.00" fill="#000000">sequence </text>
<text text-anchor="start" x="730.5862" y="-323.9" font-family="Arial" font-size="14.00" fill="#666666">[integer]</text>
<polygon fill="none" stroke="#000000" points="659,-282.5 659,-312.5 970,-312.5 970,-282.5 659,-282.5"/>
<text text-anchor="start" x="666" y="-293.9" font-family="Arial" font-size="14.00" fill="#000000">auto_install </text>
<text text-anchor="start" x="740.6872" y="-293.9" font-family="Arial" font-size="14.00" fill="#666666">[boolean]</text>
<polygon fill="none" stroke="#000000" points="659,-252.5 659,-282.5 970,-282.5 970,-252.5 659,-252.5"/>
<text text-anchor="start" x="666" y="-263.9" font-family="Arial" font-size="14.00" fill="#000000">to_buy </text>
<text text-anchor="start" x="711.9116" y="-263.9" font-family="Arial" font-size="14.00" fill="#666666">[boolean]</text>
<polygon fill="none" stroke="#000000" points="659,-222.5 659,-252.5 970,-252.5 970,-222.5 659,-222.5"/>
<text text-anchor="start" x="666" y="-233.9" font-family="Arial" font-size="14.00" fill="#000000">maintainer </text>
<text text-anchor="start" x="735.2286" y="-233.9" font-family="Arial" font-size="14.00" fill="#666666">[varchar]</text>
<polygon fill="none" stroke="#000000" points="659,-192.5 659,-222.5 970,-222.5 970,-192.5 659,-192.5"/>
<text text-anchor="start" x="666" y="-203.9" font-family="Arial" font-size="14.00" fill="#000000">contributors </text>
<text text-anchor="start" x="743.0126" y="-203.9" font-family="Arial" font-size="14.00" fill="#666666">[text]</text>
<polygon fill="none" stroke="#000000" points="659,-162.5 659,-192.5 970,-192.5 970,-162.5 659,-162.5"/>
<text text-anchor="start" x="666" y="-173.9" font-family="Arial" font-size="14.00" fill="#000000">published_version </text>
<text text-anchor="start" x="782.697" y="-173.9" font-family="Arial" font-size="14.00" fill="#666666">[varchar]</text>
<polygon fill="none" stroke="#000000" points="659,-132.5 659,-162.5 970,-162.5 970,-132.5 659,-132.5"/>
<text text-anchor="start" x="666" y="-143.9" font-family="Arial" font-size="14.00" fill="#000000">url </text>
<text text-anchor="start" x="685.4404" y="-143.9" font-family="Arial" font-size="14.00" fill="#666666">[varchar]</text>
<polygon fill="none" stroke="#000000" points="659,-102.5 659,-132.5 970,-132.5 970,-102.5 659,-102.5"/>
<text text-anchor="start" x="666" y="-113.9" font-family="Arial" font-size="14.00" fill="#000000">menus_by_module </text>
<text text-anchor="start" x="788.1444" y="-113.9" font-family="Arial" font-size="14.00" fill="#666666">[text]</text>
<polygon fill="none" stroke="#000000" points="659,-72.5 659,-102.5 970,-102.5 970,-72.5 659,-72.5"/>
<text text-anchor="start" x="666" y="-83.9" font-family="Arial" font-size="14.00" fill="#000000">reports_by_module </text>
<text text-anchor="start" x="789.6956" y="-83.9" font-family="Arial" font-size="14.00" fill="#666666">[text]</text>
<polygon fill="none" stroke="#000000" points="659,-42.5 659,-72.5 970,-72.5 970,-42.5 659,-42.5"/>
<text text-anchor="start" x="666" y="-53.9" font-family="Arial" font-size="14.00" fill="#000000">views_by_module </text>
<text text-anchor="start" x="781.1318" y="-53.9" font-family="Arial" font-size="14.00" fill="#666666">[text]</text>
</g>
<!-- public.rel_modules_langexport&#45;&gt;public.ir_module_module -->
<g id="edge2" class="edge">
<title>public.rel_modules_langexport:module_id&#45;&gt;public.ir_module_module:id</title>
<path fill="none" stroke="#000000" d="M784.9587,-1084.8683C798.3478,-1075.7789 788.4566,-1045.2659 775,-1027 742.9822,-983.5392 691.0178,-1034.4608 659,-991 634.3523,-957.5433 617.4444,-897.5 659,-897.5"/>
<polygon fill="#000000" stroke="#000000" points="784.6681,-1084.945 773.8502,-1083.1494 779.8341,-1086.2225 775,-1087.5 775,-1087.5 775,-1087.5 779.8341,-1086.2225 776.1498,-1091.8506 784.6681,-1084.945 784.6681,-1084.945"/>
<text text-anchor="start" x="782.4915" y="-1097.5" font-family="Arial" font-size="10.00" fill="#000000">FOREIGN KEY (module_id) REFERENCES ir_module_module(id) ON DELETE CASCADE</text>
</g>
</g>
</svg>
