<?xml version="1.0" encoding="UTF-8" standalone="no"?>
<!DOCTYPE svg PUBLIC "-//W3C//DTD SVG 1.1//EN"
 "http://www.w3.org/Graphics/SVG/1.1/DTD/svg11.dtd">
<!-- Generated by graphviz version 2.40.1 (20161225.0304)
 -->
<!-- Title: public.stock_immediate_transfer Pages: 1 -->
<svg width="1290pt" height="1319pt"
 viewBox="0.00 0.00 1290.00 1319.00" xmlns="http://www.w3.org/2000/svg" xmlns:xlink="http://www.w3.org/1999/xlink">
<g id="graph0" class="graph" transform="scale(1 1) rotate(0) translate(4 1315)">
<title>public.stock_immediate_transfer</title>
<polygon fill="#ffffff" stroke="transparent" points="-4,4 -4,-1315 1286,-1315 1286,4 -4,4"/>
<!-- public.stock_immediate_transfer -->
<g id="node1" class="node">
<title>public.stock_immediate_transfer</title>
<polygon fill="#efefef" stroke="transparent" points="533,-1012.5 533,-1047.5 902,-1047.5 902,-1012.5 533,-1012.5"/>
<polygon fill="none" stroke="#000000" points="533,-1012.5 533,-1047.5 902,-1047.5 902,-1012.5 533,-1012.5"/>
<text text-anchor="start" x="539.8545" y="-1025.3" font-family="Arial Bold" font-size="18.00" fill="#000000">public.stock_immediate_transfer</text>
<text text-anchor="start" x="797.8917" y="-1025.3" font-family="Arial" font-size="14.00" fill="#000000"> </text>
<text text-anchor="start" x="801.7823" y="-1025.3" font-family="Arial" font-size="14.00" fill="#666666">[BASE TABLE]</text>
<polygon fill="none" stroke="#000000" points="533,-982.5 533,-1012.5 902,-1012.5 902,-982.5 533,-982.5"/>
<text text-anchor="start" x="540" y="-993.9" font-family="Arial" font-size="14.00" fill="#000000">id </text>
<text text-anchor="start" x="554.7798" y="-993.9" font-family="Arial" font-size="14.00" fill="#666666">[integer]</text>
<polygon fill="none" stroke="#000000" points="533,-952.5 533,-982.5 902,-982.5 902,-952.5 533,-952.5"/>
<text text-anchor="start" x="540" y="-963.9" font-family="Arial" font-size="14.00" fill="#000000">create_uid </text>
<text text-anchor="start" x="609.244" y="-963.9" font-family="Arial" font-size="14.00" fill="#666666">[integer]</text>
<polygon fill="none" stroke="#000000" points="533,-922.5 533,-952.5 902,-952.5 902,-922.5 533,-922.5"/>
<text text-anchor="start" x="540" y="-933.9" font-family="Arial" font-size="14.00" fill="#000000">create_date </text>
<text text-anchor="start" x="617.8106" y="-933.9" font-family="Arial" font-size="14.00" fill="#666666">[timestamp without time zone]</text>
<polygon fill="none" stroke="#000000" points="533,-892.5 533,-922.5 902,-922.5 902,-892.5 533,-892.5"/>
<text text-anchor="start" x="540" y="-903.9" font-family="Arial" font-size="14.00" fill="#000000">write_uid </text>
<text text-anchor="start" x="599.892" y="-903.9" font-family="Arial" font-size="14.00" fill="#666666">[integer]</text>
<polygon fill="none" stroke="#000000" points="533,-862.5 533,-892.5 902,-892.5 902,-862.5 533,-862.5"/>
<text text-anchor="start" x="540" y="-873.9" font-family="Arial" font-size="14.00" fill="#000000">write_date </text>
<text text-anchor="start" x="608.4586" y="-873.9" font-family="Arial" font-size="14.00" fill="#666666">[timestamp without time zone]</text>
<polygon fill="none" stroke="#000000" stroke-width="3" points="531,-861.5 531,-1049.5 903,-1049.5 903,-861.5 531,-861.5"/>
</g>
<!-- public.res_users -->
<g id="node3" class="node">
<title>public.res_users</title>
<polygon fill="#efefef" stroke="transparent" points="580,-702.5 580,-737.5 856,-737.5 856,-702.5 580,-702.5"/>
<polygon fill="none" stroke="#000000" points="580,-702.5 580,-737.5 856,-737.5 856,-702.5 580,-702.5"/>
<text text-anchor="start" x="603.8639" y="-715.3" font-family="Arial Bold" font-size="18.00" fill="#000000">public.res_users</text>
<text text-anchor="start" x="734.8823" y="-715.3" font-family="Arial" font-size="14.00" fill="#000000"> </text>
<text text-anchor="start" x="738.7729" y="-715.3" font-family="Arial" font-size="14.00" fill="#666666">[BASE TABLE]</text>
<polygon fill="none" stroke="#000000" points="580,-672.5 580,-702.5 856,-702.5 856,-672.5 580,-672.5"/>
<text text-anchor="start" x="587" y="-683.9" font-family="Arial" font-size="14.00" fill="#000000">id </text>
<text text-anchor="start" x="601.7798" y="-683.9" font-family="Arial" font-size="14.00" fill="#666666">[integer]</text>
<polygon fill="none" stroke="#000000" points="580,-642.5 580,-672.5 856,-672.5 856,-642.5 580,-642.5"/>
<text text-anchor="start" x="587" y="-653.9" font-family="Arial" font-size="14.00" fill="#000000">active </text>
<text text-anchor="start" x="627.453" y="-653.9" font-family="Arial" font-size="14.00" fill="#666666">[boolean]</text>
<polygon fill="none" stroke="#000000" points="580,-612.5 580,-642.5 856,-642.5 856,-612.5 580,-612.5"/>
<text text-anchor="start" x="587" y="-623.9" font-family="Arial" font-size="14.00" fill="#000000">login </text>
<text text-anchor="start" x="620.4516" y="-623.9" font-family="Arial" font-size="14.00" fill="#666666">[varchar]</text>
<polygon fill="none" stroke="#000000" points="580,-582.5 580,-612.5 856,-612.5 856,-582.5 580,-582.5"/>
<text text-anchor="start" x="587" y="-593.9" font-family="Arial" font-size="14.00" fill="#000000">password </text>
<text text-anchor="start" x="650.7882" y="-593.9" font-family="Arial" font-size="14.00" fill="#666666">[varchar]</text>
<polygon fill="none" stroke="#000000" points="580,-552.5 580,-582.5 856,-582.5 856,-552.5 580,-552.5"/>
<text text-anchor="start" x="587" y="-563.9" font-family="Arial" font-size="14.00" fill="#000000">company_id </text>
<text text-anchor="start" x="666.3534" y="-563.9" font-family="Arial" font-size="14.00" fill="#666666">[integer]</text>
<polygon fill="none" stroke="#000000" points="580,-522.5 580,-552.5 856,-552.5 856,-522.5 580,-522.5"/>
<text text-anchor="start" x="587" y="-533.9" font-family="Arial" font-size="14.00" fill="#000000">partner_id </text>
<text text-anchor="start" x="653.9046" y="-533.9" font-family="Arial" font-size="14.00" fill="#666666">[integer]</text>
<polygon fill="none" stroke="#000000" points="580,-492.5 580,-522.5 856,-522.5 856,-492.5 580,-492.5"/>
<text text-anchor="start" x="586.5246" y="-503.9" font-family="Arial" font-size="14.00" fill="#000000">create_date </text>
<text text-anchor="start" x="664.3352" y="-503.9" font-family="Arial" font-size="14.00" fill="#666666">[timestamp without time zone]</text>
<polygon fill="none" stroke="#000000" points="580,-462.5 580,-492.5 856,-492.5 856,-462.5 580,-462.5"/>
<text text-anchor="start" x="587" y="-473.9" font-family="Arial" font-size="14.00" fill="#000000">signature </text>
<text text-anchor="start" x="648.4614" y="-473.9" font-family="Arial" font-size="14.00" fill="#666666">[text]</text>
<polygon fill="none" stroke="#000000" points="580,-432.5 580,-462.5 856,-462.5 856,-432.5 580,-432.5"/>
<text text-anchor="start" x="587" y="-443.9" font-family="Arial" font-size="14.00" fill="#000000">action_id </text>
<text text-anchor="start" x="646.9074" y="-443.9" font-family="Arial" font-size="14.00" fill="#666666">[integer]</text>
<polygon fill="none" stroke="#000000" points="580,-402.5 580,-432.5 856,-432.5 856,-402.5 580,-402.5"/>
<text text-anchor="start" x="587" y="-413.9" font-family="Arial" font-size="14.00" fill="#000000">share </text>
<text text-anchor="start" x="625.899" y="-413.9" font-family="Arial" font-size="14.00" fill="#666666">[boolean]</text>
<polygon fill="none" stroke="#000000" points="580,-372.5 580,-402.5 856,-402.5 856,-372.5 580,-372.5"/>
<text text-anchor="start" x="587" y="-383.9" font-family="Arial" font-size="14.00" fill="#000000">create_uid </text>
<text text-anchor="start" x="656.244" y="-383.9" font-family="Arial" font-size="14.00" fill="#666666">[integer]</text>
<polygon fill="none" stroke="#000000" points="580,-342.5 580,-372.5 856,-372.5 856,-342.5 580,-342.5"/>
<text text-anchor="start" x="587" y="-353.9" font-family="Arial" font-size="14.00" fill="#000000">write_uid </text>
<text text-anchor="start" x="646.892" y="-353.9" font-family="Arial" font-size="14.00" fill="#666666">[integer]</text>
<polygon fill="none" stroke="#000000" points="580,-312.5 580,-342.5 856,-342.5 856,-312.5 580,-312.5"/>
<text text-anchor="start" x="587" y="-323.9" font-family="Arial" font-size="14.00" fill="#000000">write_date </text>
<text text-anchor="start" x="655.4586" y="-323.9" font-family="Arial" font-size="14.00" fill="#666666">[timestamp without time zone]</text>
<polygon fill="none" stroke="#000000" points="580,-282.5 580,-312.5 856,-312.5 856,-282.5 580,-282.5"/>
<text text-anchor="start" x="587" y="-293.9" font-family="Arial" font-size="14.00" fill="#000000">alias_id </text>
<text text-anchor="start" x="638.3408" y="-293.9" font-family="Arial" font-size="14.00" fill="#666666">[integer]</text>
<polygon fill="none" stroke="#000000" points="580,-252.5 580,-282.5 856,-282.5 856,-252.5 580,-252.5"/>
<text text-anchor="start" x="587" y="-263.9" font-family="Arial" font-size="14.00" fill="#000000">notification_type </text>
<text text-anchor="start" x="692.0336" y="-263.9" font-family="Arial" font-size="14.00" fill="#666666">[varchar]</text>
<polygon fill="none" stroke="#000000" points="580,-222.5 580,-252.5 856,-252.5 856,-222.5 580,-222.5"/>
<text text-anchor="start" x="587" y="-233.9" font-family="Arial" font-size="14.00" fill="#000000">odoobot_state </text>
<text text-anchor="start" x="679.6058" y="-233.9" font-family="Arial" font-size="14.00" fill="#666666">[varchar]</text>
<polygon fill="none" stroke="#000000" points="580,-192.5 580,-222.5 856,-222.5 856,-192.5 580,-192.5"/>
<text text-anchor="start" x="587" y="-203.9" font-family="Arial" font-size="14.00" fill="#000000">sale_team_id </text>
<text text-anchor="start" x="674.1332" y="-203.9" font-family="Arial" font-size="14.00" fill="#666666">[integer]</text>
<polygon fill="none" stroke="#000000" points="580,-162.5 580,-192.5 856,-192.5 856,-162.5 580,-162.5"/>
<text text-anchor="start" x="587" y="-173.9" font-family="Arial" font-size="14.00" fill="#000000">target_sales_won </text>
<text text-anchor="start" x="700.589" y="-173.9" font-family="Arial" font-size="14.00" fill="#666666">[integer]</text>
<polygon fill="none" stroke="#000000" points="580,-132.5 580,-162.5 856,-162.5 856,-132.5 580,-132.5"/>
<text text-anchor="start" x="587" y="-143.9" font-family="Arial" font-size="14.00" fill="#000000">target_sales_done </text>
<text text-anchor="start" x="706.0476" y="-143.9" font-family="Arial" font-size="14.00" fill="#666666">[integer]</text>
<polygon fill="none" stroke="#000000" points="580,-102.5 580,-132.5 856,-132.5 856,-102.5 580,-102.5"/>
<text text-anchor="start" x="587" y="-113.9" font-family="Arial" font-size="14.00" fill="#000000">website_id </text>
<text text-anchor="start" x="657.014" y="-113.9" font-family="Arial" font-size="14.00" fill="#666666">[integer]</text>
<polygon fill="none" stroke="#000000" points="580,-72.5 580,-102.5 856,-102.5 856,-72.5 580,-72.5"/>
<text text-anchor="start" x="587" y="-83.9" font-family="Arial" font-size="14.00" fill="#000000">target_sales_invoiced </text>
<text text-anchor="start" x="726.2608" y="-83.9" font-family="Arial" font-size="14.00" fill="#666666">[integer]</text>
<polygon fill="none" stroke="#000000" points="580,-42.5 580,-72.5 856,-72.5 856,-42.5 580,-42.5"/>
<text text-anchor="start" x="587" y="-53.9" font-family="Arial" font-size="14.00" fill="#000000">pos_security_pin </text>
<text text-anchor="start" x="695.9158" y="-53.9" font-family="Arial" font-size="14.00" fill="#666666">[varchar(32)]</text>
</g>
<!-- public.stock_immediate_transfer&#45;&gt;public.res_users -->
<g id="edge2" class="edge">
<title>public.stock_immediate_transfer:create_uid&#45;&gt;public.res_users:id</title>
<path fill="none" stroke="#000000" d="M912.1847,-966.6218C966.3836,-956.644 944.154,-864.1295 902,-817 805.9981,-709.6668 676.0019,-888.3332 580,-781 552.2963,-750.0263 538.4444,-687.5 580,-687.5"/>
<polygon fill="#000000" stroke="#000000" points="911.963,-966.6408 901.6134,-963.0166 906.9815,-967.0704 902,-967.5 902,-967.5 902,-967.5 906.9815,-967.0704 902.3866,-971.9834 911.963,-966.6408 911.963,-966.6408"/>
<text text-anchor="start" x="908.657" y="-977.5" font-family="Arial" font-size="10.00" fill="#000000">FOREIGN KEY (create_uid) REFERENCES res_users(id) ON DELETE SET NULL</text>
</g>
<!-- public.stock_immediate_transfer&#45;&gt;public.res_users -->
<g id="edge3" class="edge">
<title>public.stock_immediate_transfer:write_uid&#45;&gt;public.res_users:id</title>
<path fill="none" stroke="#000000" d="M911.9316,-905.9793C939.5905,-896.4209 926.301,-844.1692 902,-817 805.9981,-709.6668 676.0019,-888.3332 580,-781 552.2963,-750.0263 538.4444,-687.5 580,-687.5"/>
<polygon fill="#000000" stroke="#000000" points="911.8848,-905.9864 901.3189,-903.0518 906.9424,-906.7432 902,-907.5 902,-907.5 902,-907.5 906.9424,-906.7432 902.6811,-911.9482 911.8848,-905.9864 911.8848,-905.9864"/>
<text text-anchor="start" x="908.997" y="-917.5" font-family="Arial" font-size="10.00" fill="#000000">FOREIGN KEY (write_uid) REFERENCES res_users(id) ON DELETE SET NULL</text>
</g>
<!-- public.stock_picking_transfer_rel -->
<g id="node2" class="node">
<title>public.stock_picking_transfer_rel</title>
<polygon fill="#efefef" stroke="transparent" points="532,-1232.5 532,-1267.5 904,-1267.5 904,-1232.5 532,-1232.5"/>
<polygon fill="none" stroke="#000000" points="532,-1232.5 532,-1267.5 904,-1267.5 904,-1232.5 532,-1232.5"/>
<text text-anchor="start" x="538.8515" y="-1245.3" font-family="Arial Bold" font-size="18.00" fill="#000000">public.stock_picking_transfer_rel</text>
<text text-anchor="start" x="799.8947" y="-1245.3" font-family="Arial" font-size="14.00" fill="#000000"> </text>
<text text-anchor="start" x="803.7853" y="-1245.3" font-family="Arial" font-size="14.00" fill="#666666">[BASE TABLE]</text>
<polygon fill="none" stroke="#000000" points="532,-1202.5 532,-1232.5 904,-1232.5 904,-1202.5 532,-1202.5"/>
<text text-anchor="start" x="539" y="-1213.9" font-family="Arial" font-size="14.00" fill="#000000">stock_immediate_transfer_id </text>
<text text-anchor="start" x="721.8064" y="-1213.9" font-family="Arial" font-size="14.00" fill="#666666">[integer]</text>
<polygon fill="none" stroke="#000000" points="532,-1172.5 532,-1202.5 904,-1202.5 904,-1172.5 532,-1172.5"/>
<text text-anchor="start" x="539" y="-1183.9" font-family="Arial" font-size="14.00" fill="#000000">stock_picking_id </text>
<text text-anchor="start" x="645.5792" y="-1183.9" font-family="Arial" font-size="14.00" fill="#666666">[integer]</text>
</g>
<!-- public.stock_picking_transfer_rel&#45;&gt;public.stock_immediate_transfer -->
<g id="edge1" class="edge">
<title>public.stock_picking_transfer_rel:stock_immediate_transfer_id&#45;&gt;public.stock_immediate_transfer:id</title>
<path fill="none" stroke="#000000" d="M522.0487,-1215.9031C495.73,-1206.3202 508.4189,-1155.9869 532,-1130 587.514,-1068.8225 846.486,-1155.1775 902,-1094 930.8212,-1062.2385 944.8889,-997.5 902,-997.5"/>
<polygon fill="#000000" stroke="#000000" points="522.1263,-1215.9155 531.287,-1221.9432 527.0632,-1216.7077 532,-1217.5 532,-1217.5 532,-1217.5 527.0632,-1216.7077 532.713,-1213.0568 522.1263,-1215.9155 522.1263,-1215.9155"/>
<text text-anchor="start" x="6.5405" y="-1227.5" font-family="Arial" font-size="10.00" fill="#000000">FOREIGN KEY (stock_immediate_transfer_id) REFERENCES stock_immediate_transfer(id) ON DELETE CASCADE</text>
</g>
</g>
</svg>
