<?xml version="1.0" encoding="UTF-8" standalone="no"?>
<!DOCTYPE svg PUBLIC "-//W3C//DTD SVG 1.1//EN"
 "http://www.w3.org/Graphics/SVG/1.1/DTD/svg11.dtd">
<!-- Generated by graphviz version 2.40.1 (20161225.0304)
 -->
<!-- Title: public.stock_location_route_categ Pages: 1 -->
<svg width="1213pt" height="802pt"
 viewBox="0.00 0.00 1213.00 802.00" xmlns="http://www.w3.org/2000/svg" xmlns:xlink="http://www.w3.org/1999/xlink">
<g id="graph0" class="graph" transform="scale(1 1) rotate(0) translate(4 798)">
<title>public.stock_location_route_categ</title>
<polygon fill="#ffffff" stroke="transparent" points="-4,4 -4,-798 1209,-798 1209,4 -4,4"/>
<!-- public.stock_location_route_categ -->
<g id="node1" class="node">
<title>public.stock_location_route_categ</title>
<polygon fill="#efefef" stroke="transparent" points="418,-712.5 418,-747.5 800,-747.5 800,-712.5 418,-712.5"/>
<polygon fill="none" stroke="#000000" points="418,-712.5 418,-747.5 800,-747.5 800,-712.5 418,-712.5"/>
<text text-anchor="start" x="424.8304" y="-725.3" font-family="Arial Bold" font-size="18.00" fill="#000000">public.stock_location_route_categ</text>
<text text-anchor="start" x="695.9158" y="-725.3" font-family="Arial" font-size="14.00" fill="#000000"> </text>
<text text-anchor="start" x="699.8064" y="-725.3" font-family="Arial" font-size="14.00" fill="#666666">[BASE TABLE]</text>
<polygon fill="none" stroke="#000000" points="418,-682.5 418,-712.5 800,-712.5 800,-682.5 418,-682.5"/>
<text text-anchor="start" x="425" y="-693.9" font-family="Arial" font-size="14.00" fill="#000000">route_id </text>
<text text-anchor="start" x="479.4614" y="-693.9" font-family="Arial" font-size="14.00" fill="#666666">[integer]</text>
<polygon fill="none" stroke="#000000" points="418,-652.5 418,-682.5 800,-682.5 800,-652.5 418,-652.5"/>
<text text-anchor="start" x="425" y="-663.9" font-family="Arial" font-size="14.00" fill="#000000">categ_id </text>
<text text-anchor="start" x="481.8008" y="-663.9" font-family="Arial" font-size="14.00" fill="#666666">[integer]</text>
<polygon fill="none" stroke="#000000" stroke-width="3" points="416.5,-651.5 416.5,-749.5 801.5,-749.5 801.5,-651.5 416.5,-651.5"/>
</g>
<!-- public.stock_location_route -->
<g id="node2" class="node">
<title>public.stock_location_route</title>
<polygon fill="#efefef" stroke="transparent" points="236,-492.5 236,-527.5 564,-527.5 564,-492.5 236,-492.5"/>
<polygon fill="none" stroke="#000000" points="236,-492.5 236,-527.5 564,-527.5 564,-492.5 236,-492.5"/>
<text text-anchor="start" x="242.8439" y="-505.3" font-family="Arial Bold" font-size="18.00" fill="#000000">public.stock_location_route</text>
<text text-anchor="start" x="459.9023" y="-505.3" font-family="Arial" font-size="14.00" fill="#000000"> </text>
<text text-anchor="start" x="463.7929" y="-505.3" font-family="Arial" font-size="14.00" fill="#666666">[BASE TABLE]</text>
<polygon fill="none" stroke="#000000" points="236,-462.5 236,-492.5 564,-492.5 564,-462.5 236,-462.5"/>
<text text-anchor="start" x="243" y="-473.9" font-family="Arial" font-size="14.00" fill="#000000">id </text>
<text text-anchor="start" x="257.7798" y="-473.9" font-family="Arial" font-size="14.00" fill="#666666">[integer]</text>
<polygon fill="none" stroke="#000000" points="236,-432.5 236,-462.5 564,-462.5 564,-432.5 236,-432.5"/>
<text text-anchor="start" x="243" y="-443.9" font-family="Arial" font-size="14.00" fill="#000000">name </text>
<text text-anchor="start" x="281.899" y="-443.9" font-family="Arial" font-size="14.00" fill="#666666">[varchar]</text>
<polygon fill="none" stroke="#000000" points="236,-402.5 236,-432.5 564,-432.5 564,-402.5 236,-402.5"/>
<text text-anchor="start" x="243" y="-413.9" font-family="Arial" font-size="14.00" fill="#000000">active </text>
<text text-anchor="start" x="283.453" y="-413.9" font-family="Arial" font-size="14.00" fill="#666666">[boolean]</text>
<polygon fill="none" stroke="#000000" points="236,-372.5 236,-402.5 564,-402.5 564,-372.5 236,-372.5"/>
<text text-anchor="start" x="243" y="-383.9" font-family="Arial" font-size="14.00" fill="#000000">sequence </text>
<text text-anchor="start" x="307.5862" y="-383.9" font-family="Arial" font-size="14.00" fill="#666666">[integer]</text>
<polygon fill="none" stroke="#000000" points="236,-342.5 236,-372.5 564,-372.5 564,-342.5 236,-342.5"/>
<text text-anchor="start" x="243" y="-353.9" font-family="Arial" font-size="14.00" fill="#000000">product_selectable </text>
<text text-anchor="start" x="364.3716" y="-353.9" font-family="Arial" font-size="14.00" fill="#666666">[boolean]</text>
<polygon fill="none" stroke="#000000" points="236,-312.5 236,-342.5 564,-342.5 564,-312.5 236,-312.5"/>
<text text-anchor="start" x="243" y="-323.9" font-family="Arial" font-size="14.00" fill="#000000">product_categ_selectable </text>
<text text-anchor="start" x="406.3926" y="-323.9" font-family="Arial" font-size="14.00" fill="#666666">[boolean]</text>
<polygon fill="none" stroke="#000000" points="236,-282.5 236,-312.5 564,-312.5 564,-282.5 236,-282.5"/>
<text text-anchor="start" x="243" y="-293.9" font-family="Arial" font-size="14.00" fill="#000000">warehouse_selectable </text>
<text text-anchor="start" x="386.1528" y="-293.9" font-family="Arial" font-size="14.00" fill="#666666">[boolean]</text>
<polygon fill="none" stroke="#000000" points="236,-252.5 236,-282.5 564,-282.5 564,-252.5 236,-252.5"/>
<text text-anchor="start" x="243" y="-263.9" font-family="Arial" font-size="14.00" fill="#000000">supplied_wh_id </text>
<text text-anchor="start" x="343.3604" y="-263.9" font-family="Arial" font-size="14.00" fill="#666666">[integer]</text>
<polygon fill="none" stroke="#000000" points="236,-222.5 236,-252.5 564,-252.5 564,-222.5 236,-222.5"/>
<text text-anchor="start" x="243" y="-233.9" font-family="Arial" font-size="14.00" fill="#000000">supplier_wh_id </text>
<text text-anchor="start" x="340.2384" y="-233.9" font-family="Arial" font-size="14.00" fill="#666666">[integer]</text>
<polygon fill="none" stroke="#000000" points="236,-192.5 236,-222.5 564,-222.5 564,-192.5 236,-192.5"/>
<text text-anchor="start" x="243" y="-203.9" font-family="Arial" font-size="14.00" fill="#000000">company_id </text>
<text text-anchor="start" x="322.3534" y="-203.9" font-family="Arial" font-size="14.00" fill="#666666">[integer]</text>
<polygon fill="none" stroke="#000000" points="236,-162.5 236,-192.5 564,-192.5 564,-162.5 236,-162.5"/>
<text text-anchor="start" x="243" y="-173.9" font-family="Arial" font-size="14.00" fill="#000000">create_uid </text>
<text text-anchor="start" x="312.244" y="-173.9" font-family="Arial" font-size="14.00" fill="#666666">[integer]</text>
<polygon fill="none" stroke="#000000" points="236,-132.5 236,-162.5 564,-162.5 564,-132.5 236,-132.5"/>
<text text-anchor="start" x="243" y="-143.9" font-family="Arial" font-size="14.00" fill="#000000">create_date </text>
<text text-anchor="start" x="320.8106" y="-143.9" font-family="Arial" font-size="14.00" fill="#666666">[timestamp without time zone]</text>
<polygon fill="none" stroke="#000000" points="236,-102.5 236,-132.5 564,-132.5 564,-102.5 236,-102.5"/>
<text text-anchor="start" x="243" y="-113.9" font-family="Arial" font-size="14.00" fill="#000000">write_uid </text>
<text text-anchor="start" x="302.892" y="-113.9" font-family="Arial" font-size="14.00" fill="#666666">[integer]</text>
<polygon fill="none" stroke="#000000" points="236,-72.5 236,-102.5 564,-102.5 564,-72.5 236,-72.5"/>
<text text-anchor="start" x="243" y="-83.9" font-family="Arial" font-size="14.00" fill="#000000">write_date </text>
<text text-anchor="start" x="311.4586" y="-83.9" font-family="Arial" font-size="14.00" fill="#666666">[timestamp without time zone]</text>
<polygon fill="none" stroke="#000000" points="236,-42.5 236,-72.5 564,-72.5 564,-42.5 236,-42.5"/>
<text text-anchor="start" x="243" y="-53.9" font-family="Arial" font-size="14.00" fill="#000000">sale_selectable </text>
<text text-anchor="start" x="343.3618" y="-53.9" font-family="Arial" font-size="14.00" fill="#666666">[boolean]</text>
</g>
<!-- public.stock_location_route_categ&#45;&gt;public.stock_location_route -->
<g id="edge1" class="edge">
<title>public.stock_location_route_categ:route_id&#45;&gt;public.stock_location_route:id</title>
<path fill="none" stroke="#000000" d="M407.7649,-695.8968C380.8786,-686.2676 395.618,-635.5713 418,-607 459.2144,-554.3888 522.7856,-623.6112 564,-571 589.6266,-538.287 605.5556,-477.5 564,-477.5"/>
<polygon fill="#000000" stroke="#000000" points="408.1205,-695.9524 417.3036,-701.9458 413.0602,-696.7262 418,-697.5 418,-697.5 418,-697.5 413.0602,-696.7262 418.6964,-693.0542 408.1205,-695.9524 408.1205,-695.9524"/>
<text text-anchor="start" x="6.761" y="-707.5" font-family="Arial" font-size="10.00" fill="#000000">FOREIGN KEY (route_id) REFERENCES stock_location_route(id) ON DELETE CASCADE</text>
</g>
<!-- public.product_category -->
<g id="node3" class="node">
<title>public.product_category</title>
<polygon fill="#efefef" stroke="transparent" points="668,-417.5 668,-452.5 970,-452.5 970,-417.5 668,-417.5"/>
<polygon fill="none" stroke="#000000" points="668,-417.5 668,-452.5 970,-452.5 970,-417.5 668,-417.5"/>
<text text-anchor="start" x="674.8462" y="-430.3" font-family="Arial Bold" font-size="18.00" fill="#000000">public.product_category</text>
<text text-anchor="start" x="865.9" y="-430.3" font-family="Arial" font-size="14.00" fill="#000000"> </text>
<text text-anchor="start" x="869.7906" y="-430.3" font-family="Arial" font-size="14.00" fill="#666666">[BASE TABLE]</text>
<polygon fill="none" stroke="#000000" points="668,-387.5 668,-417.5 970,-417.5 970,-387.5 668,-387.5"/>
<text text-anchor="start" x="675" y="-398.9" font-family="Arial" font-size="14.00" fill="#000000">id </text>
<text text-anchor="start" x="689.7798" y="-398.9" font-family="Arial" font-size="14.00" fill="#666666">[integer]</text>
<polygon fill="none" stroke="#000000" points="668,-357.5 668,-387.5 970,-387.5 970,-357.5 668,-357.5"/>
<text text-anchor="start" x="675" y="-368.9" font-family="Arial" font-size="14.00" fill="#000000">parent_path </text>
<text text-anchor="start" x="753.5932" y="-368.9" font-family="Arial" font-size="14.00" fill="#666666">[varchar]</text>
<polygon fill="none" stroke="#000000" points="668,-327.5 668,-357.5 970,-357.5 970,-327.5 668,-327.5"/>
<text text-anchor="start" x="675" y="-338.9" font-family="Arial" font-size="14.00" fill="#000000">name </text>
<text text-anchor="start" x="713.899" y="-338.9" font-family="Arial" font-size="14.00" fill="#666666">[varchar]</text>
<polygon fill="none" stroke="#000000" points="668,-297.5 668,-327.5 970,-327.5 970,-297.5 668,-297.5"/>
<text text-anchor="start" x="675" y="-308.9" font-family="Arial" font-size="14.00" fill="#000000">complete_name </text>
<text text-anchor="start" x="778.4698" y="-308.9" font-family="Arial" font-size="14.00" fill="#666666">[varchar]</text>
<polygon fill="none" stroke="#000000" points="668,-267.5 668,-297.5 970,-297.5 970,-267.5 668,-267.5"/>
<text text-anchor="start" x="675" y="-278.9" font-family="Arial" font-size="14.00" fill="#000000">parent_id </text>
<text text-anchor="start" x="737.244" y="-278.9" font-family="Arial" font-size="14.00" fill="#666666">[integer]</text>
<polygon fill="none" stroke="#000000" points="668,-237.5 668,-267.5 970,-267.5 970,-237.5 668,-237.5"/>
<text text-anchor="start" x="675" y="-248.9" font-family="Arial" font-size="14.00" fill="#000000">create_uid </text>
<text text-anchor="start" x="744.244" y="-248.9" font-family="Arial" font-size="14.00" fill="#666666">[integer]</text>
<polygon fill="none" stroke="#000000" points="668,-207.5 668,-237.5 970,-237.5 970,-207.5 668,-207.5"/>
<text text-anchor="start" x="675" y="-218.9" font-family="Arial" font-size="14.00" fill="#000000">create_date </text>
<text text-anchor="start" x="752.8106" y="-218.9" font-family="Arial" font-size="14.00" fill="#666666">[timestamp without time zone]</text>
<polygon fill="none" stroke="#000000" points="668,-177.5 668,-207.5 970,-207.5 970,-177.5 668,-177.5"/>
<text text-anchor="start" x="675" y="-188.9" font-family="Arial" font-size="14.00" fill="#000000">write_uid </text>
<text text-anchor="start" x="734.892" y="-188.9" font-family="Arial" font-size="14.00" fill="#666666">[integer]</text>
<polygon fill="none" stroke="#000000" points="668,-147.5 668,-177.5 970,-177.5 970,-147.5 668,-147.5"/>
<text text-anchor="start" x="675" y="-158.9" font-family="Arial" font-size="14.00" fill="#000000">write_date </text>
<text text-anchor="start" x="743.4586" y="-158.9" font-family="Arial" font-size="14.00" fill="#666666">[timestamp without time zone]</text>
<polygon fill="none" stroke="#000000" points="668,-117.5 668,-147.5 970,-147.5 970,-117.5 668,-117.5"/>
<text text-anchor="start" x="675" y="-128.9" font-family="Arial" font-size="14.00" fill="#000000">removal_strategy_id </text>
<text text-anchor="start" x="804.9102" y="-128.9" font-family="Arial" font-size="14.00" fill="#666666">[integer]</text>
</g>
<!-- public.stock_location_route_categ&#45;&gt;public.product_category -->
<g id="edge2" class="edge">
<title>public.stock_location_route_categ:categ_id&#45;&gt;public.product_category:id</title>
<path fill="none" stroke="#000000" d="M810.0143,-664.7944C821.9032,-655.9629 809.4886,-627.3765 800,-607 767.6422,-537.5124 700.3578,-565.4876 668,-496 650.4578,-458.3286 626.4444,-402.5 668,-402.5"/>
<polygon fill="#000000" stroke="#000000" points="809.6539,-664.8917 798.8263,-663.1558 804.8269,-666.1958 800,-667.5 800,-667.5 800,-667.5 804.8269,-666.1958 801.1737,-671.8442 809.6539,-664.8917 809.6539,-664.8917"/>
<text text-anchor="start" x="807.149" y="-677.5" font-family="Arial" font-size="10.00" fill="#000000">FOREIGN KEY (categ_id) REFERENCES product_category(id) ON DELETE CASCADE</text>
</g>
</g>
</svg>
