<?xml version="1.0" encoding="UTF-8" standalone="no"?>
<!DOCTYPE svg PUBLIC "-//W3C//DTD SVG 1.1//EN"
 "http://www.w3.org/Graphics/SVG/1.1/DTD/svg11.dtd">
<!-- Generated by graphviz version 2.40.1 (20161225.0304)
 -->
<!-- Title: public.website_sale_payment_acquirer_onboarding_wizard Pages: 1 -->
<svg width="1018pt" height="1402pt"
 viewBox="0.00 0.00 1017.50 1402.00" xmlns="http://www.w3.org/2000/svg" xmlns:xlink="http://www.w3.org/1999/xlink">
<g id="graph0" class="graph" transform="scale(1 1) rotate(0) translate(4 1398)">
<title>public.website_sale_payment_acquirer_onboarding_wizard</title>
<polygon fill="#ffffff" stroke="transparent" points="-4,4 -4,-1398 1013.5,-1398 1013.5,4 -4,4"/>
<!-- public.website_sale_payment_acquirer_onboarding_wizard -->
<g id="node1" class="node">
<title>public.website_sale_payment_acquirer_onboarding_wizard</title>
<polygon fill="#efefef" stroke="transparent" points="46.5,-1312.5 46.5,-1347.5 629.5,-1347.5 629.5,-1312.5 46.5,-1312.5"/>
<polygon fill="none" stroke="#000000" points="46.5,-1312.5 46.5,-1347.5 629.5,-1347.5 629.5,-1312.5 46.5,-1312.5"/>
<text text-anchor="start" x="53.3193" y="-1325.3" font-family="Arial Bold" font-size="18.00" fill="#000000">public.website_sale_payment_acquirer_onboarding_wizard</text>
<text text-anchor="start" x="525.4269" y="-1325.3" font-family="Arial" font-size="14.00" fill="#000000"> </text>
<text text-anchor="start" x="529.3175" y="-1325.3" font-family="Arial" font-size="14.00" fill="#666666">[BASE TABLE]</text>
<polygon fill="none" stroke="#000000" points="46.5,-1282.5 46.5,-1312.5 629.5,-1312.5 629.5,-1282.5 46.5,-1282.5"/>
<text text-anchor="start" x="53.5" y="-1293.9" font-family="Arial" font-size="14.00" fill="#000000">id </text>
<text text-anchor="start" x="68.2798" y="-1293.9" font-family="Arial" font-size="14.00" fill="#666666">[integer]</text>
<polygon fill="none" stroke="#000000" points="46.5,-1252.5 46.5,-1282.5 629.5,-1282.5 629.5,-1252.5 46.5,-1252.5"/>
<text text-anchor="start" x="53.5" y="-1263.9" font-family="Arial" font-size="14.00" fill="#000000">payment_method </text>
<text text-anchor="start" x="165.5364" y="-1263.9" font-family="Arial" font-size="14.00" fill="#666666">[varchar]</text>
<polygon fill="none" stroke="#000000" points="46.5,-1222.5 46.5,-1252.5 629.5,-1252.5 629.5,-1222.5 46.5,-1222.5"/>
<text text-anchor="start" x="53.5" y="-1233.9" font-family="Arial" font-size="14.00" fill="#000000">paypal_email_account </text>
<text text-anchor="start" x="196.6528" y="-1233.9" font-family="Arial" font-size="14.00" fill="#666666">[varchar]</text>
<polygon fill="none" stroke="#000000" points="46.5,-1192.5 46.5,-1222.5 629.5,-1222.5 629.5,-1192.5 46.5,-1192.5"/>
<text text-anchor="start" x="53.5" y="-1203.9" font-family="Arial" font-size="14.00" fill="#000000">paypal_seller_account </text>
<text text-anchor="start" x="196.6528" y="-1203.9" font-family="Arial" font-size="14.00" fill="#666666">[varchar]</text>
<polygon fill="none" stroke="#000000" points="46.5,-1162.5 46.5,-1192.5 629.5,-1192.5 629.5,-1162.5 46.5,-1162.5"/>
<text text-anchor="start" x="53.5" y="-1173.9" font-family="Arial" font-size="14.00" fill="#000000">paypal_pdt_token </text>
<text text-anchor="start" x="167.887" y="-1173.9" font-family="Arial" font-size="14.00" fill="#666666">[varchar]</text>
<polygon fill="none" stroke="#000000" points="46.5,-1132.5 46.5,-1162.5 629.5,-1162.5 629.5,-1132.5 46.5,-1132.5"/>
<text text-anchor="start" x="53.5" y="-1143.9" font-family="Arial" font-size="14.00" fill="#000000">stripe_secret_key </text>
<text text-anchor="start" x="167.0778" y="-1143.9" font-family="Arial" font-size="14.00" fill="#666666">[varchar]</text>
<polygon fill="none" stroke="#000000" points="46.5,-1102.5 46.5,-1132.5 629.5,-1132.5 629.5,-1102.5 46.5,-1102.5"/>
<text text-anchor="start" x="53.5" y="-1113.9" font-family="Arial" font-size="14.00" fill="#000000">stripe_publishable_key </text>
<text text-anchor="start" x="199.7594" y="-1113.9" font-family="Arial" font-size="14.00" fill="#666666">[varchar]</text>
<polygon fill="none" stroke="#000000" points="46.5,-1072.5 46.5,-1102.5 629.5,-1102.5 629.5,-1072.5 46.5,-1072.5"/>
<text text-anchor="start" x="53.5" y="-1083.9" font-family="Arial" font-size="14.00" fill="#000000">manual_name </text>
<text text-anchor="start" x="146.0792" y="-1083.9" font-family="Arial" font-size="14.00" fill="#666666">[varchar]</text>
<polygon fill="none" stroke="#000000" points="46.5,-1042.5 46.5,-1072.5 629.5,-1072.5 629.5,-1042.5 46.5,-1042.5"/>
<text text-anchor="start" x="53.5" y="-1053.9" font-family="Arial" font-size="14.00" fill="#000000">journal_name </text>
<text text-anchor="start" x="142.1858" y="-1053.9" font-family="Arial" font-size="14.00" fill="#666666">[varchar]</text>
<polygon fill="none" stroke="#000000" points="46.5,-1012.5 46.5,-1042.5 629.5,-1042.5 629.5,-1012.5 46.5,-1012.5"/>
<text text-anchor="start" x="53.5" y="-1023.9" font-family="Arial" font-size="14.00" fill="#000000">acc_number </text>
<text text-anchor="start" x="134.4074" y="-1023.9" font-family="Arial" font-size="14.00" fill="#666666">[varchar]</text>
<polygon fill="none" stroke="#000000" points="46.5,-982.5 46.5,-1012.5 629.5,-1012.5 629.5,-982.5 46.5,-982.5"/>
<text text-anchor="start" x="53.5" y="-993.9" font-family="Arial" font-size="14.00" fill="#000000">manual_post_msg </text>
<text text-anchor="start" x="171.7524" y="-993.9" font-family="Arial" font-size="14.00" fill="#666666">[text]</text>
<polygon fill="none" stroke="#000000" points="46.5,-952.5 46.5,-982.5 629.5,-982.5 629.5,-952.5 46.5,-952.5"/>
<text text-anchor="start" x="53.5" y="-963.9" font-family="Arial" font-size="14.00" fill="#000000">create_uid </text>
<text text-anchor="start" x="122.744" y="-963.9" font-family="Arial" font-size="14.00" fill="#666666">[integer]</text>
<polygon fill="none" stroke="#000000" points="46.5,-922.5 46.5,-952.5 629.5,-952.5 629.5,-922.5 46.5,-922.5"/>
<text text-anchor="start" x="53.5" y="-933.9" font-family="Arial" font-size="14.00" fill="#000000">create_date </text>
<text text-anchor="start" x="131.3106" y="-933.9" font-family="Arial" font-size="14.00" fill="#666666">[timestamp without time zone]</text>
<polygon fill="none" stroke="#000000" points="46.5,-892.5 46.5,-922.5 629.5,-922.5 629.5,-892.5 46.5,-892.5"/>
<text text-anchor="start" x="53.5" y="-903.9" font-family="Arial" font-size="14.00" fill="#000000">write_uid </text>
<text text-anchor="start" x="113.392" y="-903.9" font-family="Arial" font-size="14.00" fill="#666666">[integer]</text>
<polygon fill="none" stroke="#000000" points="46.5,-862.5 46.5,-892.5 629.5,-892.5 629.5,-862.5 46.5,-862.5"/>
<text text-anchor="start" x="53.5" y="-873.9" font-family="Arial" font-size="14.00" fill="#000000">write_date </text>
<text text-anchor="start" x="121.9586" y="-873.9" font-family="Arial" font-size="14.00" fill="#666666">[timestamp without time zone]</text>
<polygon fill="none" stroke="#000000" stroke-width="3" points="44.5,-861.5 44.5,-1349.5 630.5,-1349.5 630.5,-861.5 44.5,-861.5"/>
</g>
<!-- public.res_users -->
<g id="node2" class="node">
<title>public.res_users</title>
<polygon fill="#efefef" stroke="transparent" points="200.5,-702.5 200.5,-737.5 476.5,-737.5 476.5,-702.5 200.5,-702.5"/>
<polygon fill="none" stroke="#000000" points="200.5,-702.5 200.5,-737.5 476.5,-737.5 476.5,-702.5 200.5,-702.5"/>
<text text-anchor="start" x="224.3639" y="-715.3" font-family="Arial Bold" font-size="18.00" fill="#000000">public.res_users</text>
<text text-anchor="start" x="355.3823" y="-715.3" font-family="Arial" font-size="14.00" fill="#000000"> </text>
<text text-anchor="start" x="359.2729" y="-715.3" font-family="Arial" font-size="14.00" fill="#666666">[BASE TABLE]</text>
<polygon fill="none" stroke="#000000" points="200.5,-672.5 200.5,-702.5 476.5,-702.5 476.5,-672.5 200.5,-672.5"/>
<text text-anchor="start" x="207.5" y="-683.9" font-family="Arial" font-size="14.00" fill="#000000">id </text>
<text text-anchor="start" x="222.2798" y="-683.9" font-family="Arial" font-size="14.00" fill="#666666">[integer]</text>
<polygon fill="none" stroke="#000000" points="200.5,-642.5 200.5,-672.5 476.5,-672.5 476.5,-642.5 200.5,-642.5"/>
<text text-anchor="start" x="207.5" y="-653.9" font-family="Arial" font-size="14.00" fill="#000000">active </text>
<text text-anchor="start" x="247.953" y="-653.9" font-family="Arial" font-size="14.00" fill="#666666">[boolean]</text>
<polygon fill="none" stroke="#000000" points="200.5,-612.5 200.5,-642.5 476.5,-642.5 476.5,-612.5 200.5,-612.5"/>
<text text-anchor="start" x="207.5" y="-623.9" font-family="Arial" font-size="14.00" fill="#000000">login </text>
<text text-anchor="start" x="240.9516" y="-623.9" font-family="Arial" font-size="14.00" fill="#666666">[varchar]</text>
<polygon fill="none" stroke="#000000" points="200.5,-582.5 200.5,-612.5 476.5,-612.5 476.5,-582.5 200.5,-582.5"/>
<text text-anchor="start" x="207.5" y="-593.9" font-family="Arial" font-size="14.00" fill="#000000">password </text>
<text text-anchor="start" x="271.2882" y="-593.9" font-family="Arial" font-size="14.00" fill="#666666">[varchar]</text>
<polygon fill="none" stroke="#000000" points="200.5,-552.5 200.5,-582.5 476.5,-582.5 476.5,-552.5 200.5,-552.5"/>
<text text-anchor="start" x="207.5" y="-563.9" font-family="Arial" font-size="14.00" fill="#000000">company_id </text>
<text text-anchor="start" x="286.8534" y="-563.9" font-family="Arial" font-size="14.00" fill="#666666">[integer]</text>
<polygon fill="none" stroke="#000000" points="200.5,-522.5 200.5,-552.5 476.5,-552.5 476.5,-522.5 200.5,-522.5"/>
<text text-anchor="start" x="207.5" y="-533.9" font-family="Arial" font-size="14.00" fill="#000000">partner_id </text>
<text text-anchor="start" x="274.4046" y="-533.9" font-family="Arial" font-size="14.00" fill="#666666">[integer]</text>
<polygon fill="none" stroke="#000000" points="200.5,-492.5 200.5,-522.5 476.5,-522.5 476.5,-492.5 200.5,-492.5"/>
<text text-anchor="start" x="207.0246" y="-503.9" font-family="Arial" font-size="14.00" fill="#000000">create_date </text>
<text text-anchor="start" x="284.8352" y="-503.9" font-family="Arial" font-size="14.00" fill="#666666">[timestamp without time zone]</text>
<polygon fill="none" stroke="#000000" points="200.5,-462.5 200.5,-492.5 476.5,-492.5 476.5,-462.5 200.5,-462.5"/>
<text text-anchor="start" x="207.5" y="-473.9" font-family="Arial" font-size="14.00" fill="#000000">signature </text>
<text text-anchor="start" x="268.9614" y="-473.9" font-family="Arial" font-size="14.00" fill="#666666">[text]</text>
<polygon fill="none" stroke="#000000" points="200.5,-432.5 200.5,-462.5 476.5,-462.5 476.5,-432.5 200.5,-432.5"/>
<text text-anchor="start" x="207.5" y="-443.9" font-family="Arial" font-size="14.00" fill="#000000">action_id </text>
<text text-anchor="start" x="267.4074" y="-443.9" font-family="Arial" font-size="14.00" fill="#666666">[integer]</text>
<polygon fill="none" stroke="#000000" points="200.5,-402.5 200.5,-432.5 476.5,-432.5 476.5,-402.5 200.5,-402.5"/>
<text text-anchor="start" x="207.5" y="-413.9" font-family="Arial" font-size="14.00" fill="#000000">share </text>
<text text-anchor="start" x="246.399" y="-413.9" font-family="Arial" font-size="14.00" fill="#666666">[boolean]</text>
<polygon fill="none" stroke="#000000" points="200.5,-372.5 200.5,-402.5 476.5,-402.5 476.5,-372.5 200.5,-372.5"/>
<text text-anchor="start" x="207.5" y="-383.9" font-family="Arial" font-size="14.00" fill="#000000">create_uid </text>
<text text-anchor="start" x="276.744" y="-383.9" font-family="Arial" font-size="14.00" fill="#666666">[integer]</text>
<polygon fill="none" stroke="#000000" points="200.5,-342.5 200.5,-372.5 476.5,-372.5 476.5,-342.5 200.5,-342.5"/>
<text text-anchor="start" x="207.5" y="-353.9" font-family="Arial" font-size="14.00" fill="#000000">write_uid </text>
<text text-anchor="start" x="267.392" y="-353.9" font-family="Arial" font-size="14.00" fill="#666666">[integer]</text>
<polygon fill="none" stroke="#000000" points="200.5,-312.5 200.5,-342.5 476.5,-342.5 476.5,-312.5 200.5,-312.5"/>
<text text-anchor="start" x="207.5" y="-323.9" font-family="Arial" font-size="14.00" fill="#000000">write_date </text>
<text text-anchor="start" x="275.9586" y="-323.9" font-family="Arial" font-size="14.00" fill="#666666">[timestamp without time zone]</text>
<polygon fill="none" stroke="#000000" points="200.5,-282.5 200.5,-312.5 476.5,-312.5 476.5,-282.5 200.5,-282.5"/>
<text text-anchor="start" x="207.5" y="-293.9" font-family="Arial" font-size="14.00" fill="#000000">alias_id </text>
<text text-anchor="start" x="258.8408" y="-293.9" font-family="Arial" font-size="14.00" fill="#666666">[integer]</text>
<polygon fill="none" stroke="#000000" points="200.5,-252.5 200.5,-282.5 476.5,-282.5 476.5,-252.5 200.5,-252.5"/>
<text text-anchor="start" x="207.5" y="-263.9" font-family="Arial" font-size="14.00" fill="#000000">notification_type </text>
<text text-anchor="start" x="312.5336" y="-263.9" font-family="Arial" font-size="14.00" fill="#666666">[varchar]</text>
<polygon fill="none" stroke="#000000" points="200.5,-222.5 200.5,-252.5 476.5,-252.5 476.5,-222.5 200.5,-222.5"/>
<text text-anchor="start" x="207.5" y="-233.9" font-family="Arial" font-size="14.00" fill="#000000">odoobot_state </text>
<text text-anchor="start" x="300.1058" y="-233.9" font-family="Arial" font-size="14.00" fill="#666666">[varchar]</text>
<polygon fill="none" stroke="#000000" points="200.5,-192.5 200.5,-222.5 476.5,-222.5 476.5,-192.5 200.5,-192.5"/>
<text text-anchor="start" x="207.5" y="-203.9" font-family="Arial" font-size="14.00" fill="#000000">sale_team_id </text>
<text text-anchor="start" x="294.6332" y="-203.9" font-family="Arial" font-size="14.00" fill="#666666">[integer]</text>
<polygon fill="none" stroke="#000000" points="200.5,-162.5 200.5,-192.5 476.5,-192.5 476.5,-162.5 200.5,-162.5"/>
<text text-anchor="start" x="207.5" y="-173.9" font-family="Arial" font-size="14.00" fill="#000000">target_sales_won </text>
<text text-anchor="start" x="321.089" y="-173.9" font-family="Arial" font-size="14.00" fill="#666666">[integer]</text>
<polygon fill="none" stroke="#000000" points="200.5,-132.5 200.5,-162.5 476.5,-162.5 476.5,-132.5 200.5,-132.5"/>
<text text-anchor="start" x="207.5" y="-143.9" font-family="Arial" font-size="14.00" fill="#000000">target_sales_done </text>
<text text-anchor="start" x="326.5476" y="-143.9" font-family="Arial" font-size="14.00" fill="#666666">[integer]</text>
<polygon fill="none" stroke="#000000" points="200.5,-102.5 200.5,-132.5 476.5,-132.5 476.5,-102.5 200.5,-102.5"/>
<text text-anchor="start" x="207.5" y="-113.9" font-family="Arial" font-size="14.00" fill="#000000">website_id </text>
<text text-anchor="start" x="277.514" y="-113.9" font-family="Arial" font-size="14.00" fill="#666666">[integer]</text>
<polygon fill="none" stroke="#000000" points="200.5,-72.5 200.5,-102.5 476.5,-102.5 476.5,-72.5 200.5,-72.5"/>
<text text-anchor="start" x="207.5" y="-83.9" font-family="Arial" font-size="14.00" fill="#000000">target_sales_invoiced </text>
<text text-anchor="start" x="346.7608" y="-83.9" font-family="Arial" font-size="14.00" fill="#666666">[integer]</text>
<polygon fill="none" stroke="#000000" points="200.5,-42.5 200.5,-72.5 476.5,-72.5 476.5,-42.5 200.5,-42.5"/>
<text text-anchor="start" x="207.5" y="-53.9" font-family="Arial" font-size="14.00" fill="#000000">pos_security_pin </text>
<text text-anchor="start" x="316.4158" y="-53.9" font-family="Arial" font-size="14.00" fill="#666666">[varchar(32)]</text>
</g>
<!-- public.website_sale_payment_acquirer_onboarding_wizard&#45;&gt;public.res_users -->
<g id="edge1" class="edge">
<title>public.website_sale_payment_acquirer_onboarding_wizard:create_uid&#45;&gt;public.res_users:id</title>
<path fill="none" stroke="#000000" d="M639.6905,-966.6165C693.9543,-956.5798 672.3008,-863.5429 629.5,-817 564.7424,-746.5806 265.2576,-851.4194 200.5,-781 172.3712,-750.4119 158.9444,-687.5 200.5,-687.5"/>
<polygon fill="#000000" stroke="#000000" points="639.4626,-966.6362 629.1113,-963.0168 634.4813,-967.0681 629.5,-967.5 629.5,-967.5 629.5,-967.5 634.4813,-967.0681 629.8887,-971.9832 639.4626,-966.6362 639.4626,-966.6362"/>
<text text-anchor="start" x="636.157" y="-977.5" font-family="Arial" font-size="10.00" fill="#000000">FOREIGN KEY (create_uid) REFERENCES res_users(id) ON DELETE SET NULL</text>
</g>
<!-- public.website_sale_payment_acquirer_onboarding_wizard&#45;&gt;public.res_users -->
<g id="edge2" class="edge">
<title>public.website_sale_payment_acquirer_onboarding_wizard:write_uid&#45;&gt;public.res_users:id</title>
<path fill="none" stroke="#000000" d="M639.4414,-905.9704C667.1604,-896.3575 654.1738,-843.8311 629.5,-817 564.7424,-746.5806 265.2576,-851.4194 200.5,-781 172.3712,-750.4119 158.9444,-687.5 200.5,-687.5"/>
<polygon fill="#000000" stroke="#000000" points="639.3837,-905.9792 628.8156,-903.0523 634.4418,-906.7396 629.5,-907.5 629.5,-907.5 629.5,-907.5 634.4418,-906.7396 630.1844,-911.9477 639.3837,-905.9792 639.3837,-905.9792"/>
<text text-anchor="start" x="636.497" y="-917.5" font-family="Arial" font-size="10.00" fill="#000000">FOREIGN KEY (write_uid) REFERENCES res_users(id) ON DELETE SET NULL</text>
</g>
</g>
</svg>
