<?xml version="1.0" encoding="UTF-8" standalone="no"?>
<!DOCTYPE svg PUBLIC "-//W3C//DTD SVG 1.1//EN"
 "http://www.w3.org/Graphics/SVG/1.1/DTD/svg11.dtd">
<!-- Generated by graphviz version 2.40.1 (20161225.0304)
 -->
<!-- Title: public.account_journal_account_reconcile_model_rel Pages: 1 -->
<svg width="1517pt" height="1462pt"
 viewBox="0.00 0.00 1517.00 1462.00" xmlns="http://www.w3.org/2000/svg" xmlns:xlink="http://www.w3.org/1999/xlink">
<g id="graph0" class="graph" transform="scale(1 1) rotate(0) translate(4 1458)">
<title>public.account_journal_account_reconcile_model_rel</title>
<polygon fill="#ffffff" stroke="transparent" points="-4,4 -4,-1458 1513,-1458 1513,4 -4,4"/>
<!-- public.account_journal_account_reconcile_model_rel -->
<g id="node1" class="node">
<title>public.account_journal_account_reconcile_model_rel</title>
<polygon fill="#efefef" stroke="transparent" points="530,-1372.5 530,-1407.5 1064,-1407.5 1064,-1372.5 530,-1372.5"/>
<polygon fill="none" stroke="#000000" points="530,-1372.5 530,-1407.5 1064,-1407.5 1064,-1372.5 530,-1372.5"/>
<text text-anchor="start" x="536.8218" y="-1385.3" font-family="Arial Bold" font-size="18.00" fill="#000000">public.account_journal_account_reconcile_model_rel</text>
<text text-anchor="start" x="959.9244" y="-1385.3" font-family="Arial" font-size="14.00" fill="#000000"> </text>
<text text-anchor="start" x="963.815" y="-1385.3" font-family="Arial" font-size="14.00" fill="#666666">[BASE TABLE]</text>
<polygon fill="none" stroke="#000000" points="530,-1342.5 530,-1372.5 1064,-1372.5 1064,-1342.5 530,-1342.5"/>
<text text-anchor="start" x="537" y="-1353.9" font-family="Arial" font-size="14.00" fill="#000000">account_reconcile_model_id </text>
<text text-anchor="start" x="718.2678" y="-1353.9" font-family="Arial" font-size="14.00" fill="#666666">[integer]</text>
<polygon fill="none" stroke="#000000" points="530,-1312.5 530,-1342.5 1064,-1342.5 1064,-1312.5 530,-1312.5"/>
<text text-anchor="start" x="537" y="-1323.9" font-family="Arial" font-size="14.00" fill="#000000">account_journal_id </text>
<text text-anchor="start" x="658.3702" y="-1323.9" font-family="Arial" font-size="14.00" fill="#666666">[integer]</text>
<polygon fill="none" stroke="#000000" stroke-width="3" points="528.5,-1311.5 528.5,-1409.5 1065.5,-1409.5 1065.5,-1311.5 528.5,-1311.5"/>
</g>
<!-- public.account_reconcile_model -->
<g id="node2" class="node">
<title>public.account_reconcile_model</title>
<polygon fill="#efefef" stroke="transparent" points="397,-1152.5 397,-1187.5 764,-1187.5 764,-1152.5 397,-1152.5"/>
<polygon fill="none" stroke="#000000" points="397,-1152.5 397,-1187.5 764,-1187.5 764,-1152.5 397,-1152.5"/>
<text text-anchor="start" x="403.8436" y="-1165.3" font-family="Arial Bold" font-size="18.00" fill="#000000">public.account_reconcile_model</text>
<text text-anchor="start" x="659.9026" y="-1165.3" font-family="Arial" font-size="14.00" fill="#000000"> </text>
<text text-anchor="start" x="663.7932" y="-1165.3" font-family="Arial" font-size="14.00" fill="#666666">[BASE TABLE]</text>
<polygon fill="none" stroke="#000000" points="397,-1122.5 397,-1152.5 764,-1152.5 764,-1122.5 397,-1122.5"/>
<text text-anchor="start" x="404" y="-1133.9" font-family="Arial" font-size="14.00" fill="#000000">id </text>
<text text-anchor="start" x="418.7798" y="-1133.9" font-family="Arial" font-size="14.00" fill="#666666">[integer]</text>
<polygon fill="none" stroke="#000000" points="397,-1092.5 397,-1122.5 764,-1122.5 764,-1092.5 397,-1092.5"/>
<text text-anchor="start" x="404" y="-1103.9" font-family="Arial" font-size="14.00" fill="#000000">name </text>
<text text-anchor="start" x="442.899" y="-1103.9" font-family="Arial" font-size="14.00" fill="#666666">[varchar]</text>
<polygon fill="none" stroke="#000000" points="397,-1062.5 397,-1092.5 764,-1092.5 764,-1062.5 397,-1062.5"/>
<text text-anchor="start" x="404" y="-1073.9" font-family="Arial" font-size="14.00" fill="#000000">sequence </text>
<text text-anchor="start" x="468.5862" y="-1073.9" font-family="Arial" font-size="14.00" fill="#666666">[integer]</text>
<polygon fill="none" stroke="#000000" points="397,-1032.5 397,-1062.5 764,-1062.5 764,-1032.5 397,-1032.5"/>
<text text-anchor="start" x="404" y="-1043.9" font-family="Arial" font-size="14.00" fill="#000000">company_id </text>
<text text-anchor="start" x="483.3534" y="-1043.9" font-family="Arial" font-size="14.00" fill="#666666">[integer]</text>
<polygon fill="none" stroke="#000000" points="397,-1002.5 397,-1032.5 764,-1032.5 764,-1002.5 397,-1002.5"/>
<text text-anchor="start" x="404" y="-1013.9" font-family="Arial" font-size="14.00" fill="#000000">rule_type </text>
<text text-anchor="start" x="465.4614" y="-1013.9" font-family="Arial" font-size="14.00" fill="#666666">[varchar]</text>
<polygon fill="none" stroke="#000000" points="397,-972.5 397,-1002.5 764,-1002.5 764,-972.5 397,-972.5"/>
<text text-anchor="start" x="404" y="-983.9" font-family="Arial" font-size="14.00" fill="#000000">auto_reconcile </text>
<text text-anchor="start" x="498.9158" y="-983.9" font-family="Arial" font-size="14.00" fill="#666666">[boolean]</text>
<polygon fill="none" stroke="#000000" points="397,-942.5 397,-972.5 764,-972.5 764,-942.5 397,-942.5"/>
<text text-anchor="start" x="404" y="-953.9" font-family="Arial" font-size="14.00" fill="#000000">match_nature </text>
<text text-anchor="start" x="493.4712" y="-953.9" font-family="Arial" font-size="14.00" fill="#666666">[varchar]</text>
<polygon fill="none" stroke="#000000" points="397,-912.5 397,-942.5 764,-942.5 764,-912.5 397,-912.5"/>
<text text-anchor="start" x="404" y="-923.9" font-family="Arial" font-size="14.00" fill="#000000">match_amount </text>
<text text-anchor="start" x="500.4712" y="-923.9" font-family="Arial" font-size="14.00" fill="#666666">[varchar]</text>
<polygon fill="none" stroke="#000000" points="397,-882.5 397,-912.5 764,-912.5 764,-882.5 397,-882.5"/>
<text text-anchor="start" x="404" y="-893.9" font-family="Arial" font-size="14.00" fill="#000000">match_amount_min </text>
<text text-anchor="start" x="530.8036" y="-893.9" font-family="Arial" font-size="14.00" fill="#666666">[double precision]</text>
<polygon fill="none" stroke="#000000" points="397,-852.5 397,-882.5 764,-882.5 764,-852.5 397,-852.5"/>
<text text-anchor="start" x="404" y="-863.9" font-family="Arial" font-size="14.00" fill="#000000">match_amount_max </text>
<text text-anchor="start" x="534.697" y="-863.9" font-family="Arial" font-size="14.00" fill="#666666">[double precision]</text>
<polygon fill="none" stroke="#000000" points="397,-822.5 397,-852.5 764,-852.5 764,-822.5 397,-822.5"/>
<text text-anchor="start" x="404" y="-833.9" font-family="Arial" font-size="14.00" fill="#000000">match_label </text>
<text text-anchor="start" x="483.3506" y="-833.9" font-family="Arial" font-size="14.00" fill="#666666">[varchar]</text>
<polygon fill="none" stroke="#000000" points="397,-792.5 397,-822.5 764,-822.5 764,-792.5 397,-792.5"/>
<text text-anchor="start" x="404" y="-803.9" font-family="Arial" font-size="14.00" fill="#000000">match_label_param </text>
<text text-anchor="start" x="530.8022" y="-803.9" font-family="Arial" font-size="14.00" fill="#666666">[varchar]</text>
<polygon fill="none" stroke="#000000" points="397,-762.5 397,-792.5 764,-792.5 764,-762.5 397,-762.5"/>
<text text-anchor="start" x="404" y="-773.9" font-family="Arial" font-size="14.00" fill="#000000">match_same_currency </text>
<text text-anchor="start" x="549.467" y="-773.9" font-family="Arial" font-size="14.00" fill="#666666">[boolean]</text>
<polygon fill="none" stroke="#000000" points="397,-732.5 397,-762.5 764,-762.5 764,-732.5 397,-732.5"/>
<text text-anchor="start" x="404" y="-743.9" font-family="Arial" font-size="14.00" fill="#000000">match_total_amount </text>
<text text-anchor="start" x="534.7068" y="-743.9" font-family="Arial" font-size="14.00" fill="#666666">[boolean]</text>
<polygon fill="none" stroke="#000000" points="397,-702.5 397,-732.5 764,-732.5 764,-702.5 397,-702.5"/>
<text text-anchor="start" x="404" y="-713.9" font-family="Arial" font-size="14.00" fill="#000000">match_total_amount_param </text>
<text text-anchor="start" x="582.1584" y="-713.9" font-family="Arial" font-size="14.00" fill="#666666">[double precision]</text>
<polygon fill="none" stroke="#000000" points="397,-672.5 397,-702.5 764,-702.5 764,-672.5 397,-672.5"/>
<text text-anchor="start" x="404" y="-683.9" font-family="Arial" font-size="14.00" fill="#000000">match_partner </text>
<text text-anchor="start" x="498.1318" y="-683.9" font-family="Arial" font-size="14.00" fill="#666666">[boolean]</text>
<polygon fill="none" stroke="#000000" points="397,-642.5 397,-672.5 764,-672.5 764,-642.5 397,-642.5"/>
<text text-anchor="start" x="404" y="-653.9" font-family="Arial" font-size="14.00" fill="#000000">account_id </text>
<text text-anchor="start" x="475.5834" y="-653.9" font-family="Arial" font-size="14.00" fill="#666666">[integer]</text>
<polygon fill="none" stroke="#000000" points="397,-612.5 397,-642.5 764,-642.5 764,-612.5 397,-612.5"/>
<text text-anchor="start" x="404" y="-623.9" font-family="Arial" font-size="14.00" fill="#000000">journal_id </text>
<text text-anchor="start" x="468.5666" y="-623.9" font-family="Arial" font-size="14.00" fill="#666666">[integer]</text>
<polygon fill="none" stroke="#000000" points="397,-582.5 397,-612.5 764,-612.5 764,-582.5 397,-582.5"/>
<text text-anchor="start" x="404" y="-593.9" font-family="Arial" font-size="14.00" fill="#000000">label </text>
<text text-anchor="start" x="437.4516" y="-593.9" font-family="Arial" font-size="14.00" fill="#666666">[varchar]</text>
<polygon fill="none" stroke="#000000" points="397,-552.5 397,-582.5 764,-582.5 764,-552.5 397,-552.5"/>
<text text-anchor="start" x="404" y="-563.9" font-family="Arial" font-size="14.00" fill="#000000">amount_type </text>
<text text-anchor="start" x="488.8106" y="-563.9" font-family="Arial" font-size="14.00" fill="#666666">[varchar]</text>
<polygon fill="none" stroke="#000000" points="397,-522.5 397,-552.5 764,-552.5 764,-522.5 397,-522.5"/>
<text text-anchor="start" x="404" y="-533.9" font-family="Arial" font-size="14.00" fill="#000000">force_tax_included </text>
<text text-anchor="start" x="525.3716" y="-533.9" font-family="Arial" font-size="14.00" fill="#666666">[boolean]</text>
<polygon fill="none" stroke="#000000" points="397,-492.5 397,-522.5 764,-522.5 764,-492.5 397,-492.5"/>
<text text-anchor="start" x="404" y="-503.9" font-family="Arial" font-size="14.00" fill="#000000">amount </text>
<text text-anchor="start" x="454.5722" y="-503.9" font-family="Arial" font-size="14.00" fill="#666666">[numeric]</text>
<polygon fill="none" stroke="#000000" points="397,-462.5 397,-492.5 764,-492.5 764,-462.5 397,-462.5"/>
<text text-anchor="start" x="404" y="-473.9" font-family="Arial" font-size="14.00" fill="#000000">tax_id </text>
<text text-anchor="start" x="445.2356" y="-473.9" font-family="Arial" font-size="14.00" fill="#666666">[integer]</text>
<polygon fill="none" stroke="#000000" points="397,-432.5 397,-462.5 764,-462.5 764,-432.5 397,-432.5"/>
<text text-anchor="start" x="404" y="-443.9" font-family="Arial" font-size="14.00" fill="#000000">analytic_account_id </text>
<text text-anchor="start" x="530.8176" y="-443.9" font-family="Arial" font-size="14.00" fill="#666666">[integer]</text>
<polygon fill="none" stroke="#000000" points="397,-402.5 397,-432.5 764,-432.5 764,-402.5 397,-402.5"/>
<text text-anchor="start" x="404" y="-413.9" font-family="Arial" font-size="14.00" fill="#000000">has_second_line </text>
<text text-anchor="start" x="512.9298" y="-413.9" font-family="Arial" font-size="14.00" fill="#666666">[boolean]</text>
<polygon fill="none" stroke="#000000" points="397,-372.5 397,-402.5 764,-402.5 764,-372.5 397,-372.5"/>
<text text-anchor="start" x="404" y="-383.9" font-family="Arial" font-size="14.00" fill="#000000">second_account_id </text>
<text text-anchor="start" x="528.4964" y="-383.9" font-family="Arial" font-size="14.00" fill="#666666">[integer]</text>
<polygon fill="none" stroke="#000000" points="397,-342.5 397,-372.5 764,-372.5 764,-342.5 397,-342.5"/>
<text text-anchor="start" x="404" y="-353.9" font-family="Arial" font-size="14.00" fill="#000000">second_journal_id </text>
<text text-anchor="start" x="521.4796" y="-353.9" font-family="Arial" font-size="14.00" fill="#666666">[integer]</text>
<polygon fill="none" stroke="#000000" points="397,-312.5 397,-342.5 764,-342.5 764,-312.5 397,-312.5"/>
<text text-anchor="start" x="404" y="-323.9" font-family="Arial" font-size="14.00" fill="#000000">second_label </text>
<text text-anchor="start" x="490.3646" y="-323.9" font-family="Arial" font-size="14.00" fill="#666666">[varchar]</text>
<polygon fill="none" stroke="#000000" points="397,-282.5 397,-312.5 764,-312.5 764,-282.5 397,-282.5"/>
<text text-anchor="start" x="404" y="-293.9" font-family="Arial" font-size="14.00" fill="#000000">second_amount_type </text>
<text text-anchor="start" x="541.7236" y="-293.9" font-family="Arial" font-size="14.00" fill="#666666">[varchar]</text>
<polygon fill="none" stroke="#000000" points="397,-252.5 397,-282.5 764,-282.5 764,-252.5 397,-252.5"/>
<text text-anchor="start" x="404" y="-263.9" font-family="Arial" font-size="14.00" fill="#000000">force_second_tax_included </text>
<text text-anchor="start" x="578.2846" y="-263.9" font-family="Arial" font-size="14.00" fill="#666666">[boolean]</text>
<polygon fill="none" stroke="#000000" points="397,-222.5 397,-252.5 764,-252.5 764,-222.5 397,-222.5"/>
<text text-anchor="start" x="404" y="-233.9" font-family="Arial" font-size="14.00" fill="#000000">second_amount </text>
<text text-anchor="start" x="507.4852" y="-233.9" font-family="Arial" font-size="14.00" fill="#666666">[numeric]</text>
<polygon fill="none" stroke="#000000" points="397,-192.5 397,-222.5 764,-222.5 764,-192.5 397,-192.5"/>
<text text-anchor="start" x="404" y="-203.9" font-family="Arial" font-size="14.00" fill="#000000">second_tax_id </text>
<text text-anchor="start" x="498.1486" y="-203.9" font-family="Arial" font-size="14.00" fill="#666666">[integer]</text>
<polygon fill="none" stroke="#000000" points="397,-162.5 397,-192.5 764,-192.5 764,-162.5 397,-162.5"/>
<text text-anchor="start" x="404" y="-173.9" font-family="Arial" font-size="14.00" fill="#000000">second_analytic_account_id </text>
<text text-anchor="start" x="583.7306" y="-173.9" font-family="Arial" font-size="14.00" fill="#666666">[integer]</text>
<polygon fill="none" stroke="#000000" points="397,-132.5 397,-162.5 764,-162.5 764,-132.5 397,-132.5"/>
<text text-anchor="start" x="404" y="-143.9" font-family="Arial" font-size="14.00" fill="#000000">create_uid </text>
<text text-anchor="start" x="473.244" y="-143.9" font-family="Arial" font-size="14.00" fill="#666666">[integer]</text>
<polygon fill="none" stroke="#000000" points="397,-102.5 397,-132.5 764,-132.5 764,-102.5 397,-102.5"/>
<text text-anchor="start" x="404" y="-113.9" font-family="Arial" font-size="14.00" fill="#000000">create_date </text>
<text text-anchor="start" x="481.8106" y="-113.9" font-family="Arial" font-size="14.00" fill="#666666">[timestamp without time zone]</text>
<polygon fill="none" stroke="#000000" points="397,-72.5 397,-102.5 764,-102.5 764,-72.5 397,-72.5"/>
<text text-anchor="start" x="404" y="-83.9" font-family="Arial" font-size="14.00" fill="#000000">write_uid </text>
<text text-anchor="start" x="463.892" y="-83.9" font-family="Arial" font-size="14.00" fill="#666666">[integer]</text>
<polygon fill="none" stroke="#000000" points="397,-42.5 397,-72.5 764,-72.5 764,-42.5 397,-42.5"/>
<text text-anchor="start" x="404" y="-53.9" font-family="Arial" font-size="14.00" fill="#000000">write_date </text>
<text text-anchor="start" x="472.4586" y="-53.9" font-family="Arial" font-size="14.00" fill="#666666">[timestamp without time zone]</text>
</g>
<!-- public.account_journal_account_reconcile_model_rel&#45;&gt;public.account_reconcile_model -->
<g id="edge1" class="edge">
<title>public.account_journal_account_reconcile_model_rel:account_reconcile_model_id&#45;&gt;public.account_reconcile_model:id</title>
<path fill="none" stroke="#000000" d="M520.0834,-1355.9924C492.5157,-1346.5139 506.2654,-1294.6653 530,-1267 598.5143,-1187.1389 695.4857,-1310.8611 764,-1231 791.0581,-1199.4608 805.5556,-1137.5 764,-1137.5"/>
<polygon fill="#000000" stroke="#000000" points="520.1136,-1355.9969 529.3236,-1361.9489 525.0568,-1356.7484 530,-1357.5 530,-1357.5 530,-1357.5 525.0568,-1356.7484 530.6764,-1353.0511 520.1136,-1355.9969 520.1136,-1355.9969"/>
<text text-anchor="start" x="6.6395" y="-1367.5" font-family="Arial" font-size="10.00" fill="#000000">FOREIGN KEY (account_reconcile_model_id) REFERENCES account_reconcile_model(id) ON DELETE CASCADE</text>
</g>
<!-- public.account_journal -->
<g id="node3" class="node">
<title>public.account_journal</title>
<polygon fill="#efefef" stroke="transparent" points="868,-1062.5 868,-1097.5 1158,-1097.5 1158,-1062.5 868,-1062.5"/>
<polygon fill="none" stroke="#000000" points="868,-1062.5 868,-1097.5 1158,-1097.5 1158,-1062.5 868,-1062.5"/>
<text text-anchor="start" x="874.8492" y="-1075.3" font-family="Arial Bold" font-size="18.00" fill="#000000">public.account_journal</text>
<text text-anchor="start" x="1053.897" y="-1075.3" font-family="Arial" font-size="14.00" fill="#000000"> </text>
<text text-anchor="start" x="1057.7876" y="-1075.3" font-family="Arial" font-size="14.00" fill="#666666">[BASE TABLE]</text>
<polygon fill="none" stroke="#000000" points="868,-1032.5 868,-1062.5 1158,-1062.5 1158,-1032.5 868,-1032.5"/>
<text text-anchor="start" x="875" y="-1043.9" font-family="Arial" font-size="14.00" fill="#000000">id </text>
<text text-anchor="start" x="889.7798" y="-1043.9" font-family="Arial" font-size="14.00" fill="#666666">[integer]</text>
<polygon fill="none" stroke="#000000" points="868,-1002.5 868,-1032.5 1158,-1032.5 1158,-1002.5 868,-1002.5"/>
<text text-anchor="start" x="875" y="-1013.9" font-family="Arial" font-size="14.00" fill="#000000">name </text>
<text text-anchor="start" x="913.899" y="-1013.9" font-family="Arial" font-size="14.00" fill="#666666">[varchar]</text>
<polygon fill="none" stroke="#000000" points="868,-972.5 868,-1002.5 1158,-1002.5 1158,-972.5 868,-972.5"/>
<text text-anchor="start" x="875" y="-983.9" font-family="Arial" font-size="14.00" fill="#000000">code </text>
<text text-anchor="start" x="909.2384" y="-983.9" font-family="Arial" font-size="14.00" fill="#666666">[varchar(5)]</text>
<polygon fill="none" stroke="#000000" points="868,-942.5 868,-972.5 1158,-972.5 1158,-942.5 868,-942.5"/>
<text text-anchor="start" x="875" y="-953.9" font-family="Arial" font-size="14.00" fill="#000000">active </text>
<text text-anchor="start" x="915.453" y="-953.9" font-family="Arial" font-size="14.00" fill="#666666">[boolean]</text>
<polygon fill="none" stroke="#000000" points="868,-912.5 868,-942.5 1158,-942.5 1158,-912.5 868,-912.5"/>
<text text-anchor="start" x="875" y="-923.9" font-family="Arial" font-size="14.00" fill="#000000">type </text>
<text text-anchor="start" x="905.3464" y="-923.9" font-family="Arial" font-size="14.00" fill="#666666">[varchar]</text>
<polygon fill="none" stroke="#000000" points="868,-882.5 868,-912.5 1158,-912.5 1158,-882.5 868,-882.5"/>
<text text-anchor="start" x="875" y="-893.9" font-family="Arial" font-size="14.00" fill="#000000">default_credit_account_id </text>
<text text-anchor="start" x="1038.3898" y="-893.9" font-family="Arial" font-size="14.00" fill="#666666">[integer]</text>
<polygon fill="none" stroke="#000000" points="868,-852.5 868,-882.5 1158,-882.5 1158,-852.5 868,-852.5"/>
<text text-anchor="start" x="875" y="-863.9" font-family="Arial" font-size="14.00" fill="#000000">default_debit_account_id </text>
<text text-anchor="start" x="1034.5118" y="-863.9" font-family="Arial" font-size="14.00" fill="#666666">[integer]</text>
<polygon fill="none" stroke="#000000" points="868,-822.5 868,-852.5 1158,-852.5 1158,-822.5 868,-822.5"/>
<text text-anchor="start" x="875" y="-833.9" font-family="Arial" font-size="14.00" fill="#000000">update_posted </text>
<text text-anchor="start" x="971.4978" y="-833.9" font-family="Arial" font-size="14.00" fill="#666666">[boolean]</text>
<polygon fill="none" stroke="#000000" points="868,-792.5 868,-822.5 1158,-822.5 1158,-792.5 868,-792.5"/>
<text text-anchor="start" x="875" y="-803.9" font-family="Arial" font-size="14.00" fill="#000000">group_invoice_lines </text>
<text text-anchor="start" x="1002.5862" y="-803.9" font-family="Arial" font-size="14.00" fill="#666666">[boolean]</text>
<polygon fill="none" stroke="#000000" points="868,-762.5 868,-792.5 1158,-792.5 1158,-762.5 868,-762.5"/>
<text text-anchor="start" x="875" y="-773.9" font-family="Arial" font-size="14.00" fill="#000000">sequence_id </text>
<text text-anchor="start" x="958.258" y="-773.9" font-family="Arial" font-size="14.00" fill="#666666">[integer]</text>
<polygon fill="none" stroke="#000000" points="868,-732.5 868,-762.5 1158,-762.5 1158,-732.5 868,-732.5"/>
<text text-anchor="start" x="875" y="-743.9" font-family="Arial" font-size="14.00" fill="#000000">refund_sequence_id </text>
<text text-anchor="start" x="1005.7222" y="-743.9" font-family="Arial" font-size="14.00" fill="#666666">[integer]</text>
<polygon fill="none" stroke="#000000" points="868,-702.5 868,-732.5 1158,-732.5 1158,-702.5 868,-702.5"/>
<text text-anchor="start" x="875" y="-713.9" font-family="Arial" font-size="14.00" fill="#000000">sequence </text>
<text text-anchor="start" x="939.5862" y="-713.9" font-family="Arial" font-size="14.00" fill="#666666">[integer]</text>
<polygon fill="none" stroke="#000000" points="868,-672.5 868,-702.5 1158,-702.5 1158,-672.5 868,-672.5"/>
<text text-anchor="start" x="875" y="-683.9" font-family="Arial" font-size="14.00" fill="#000000">currency_id </text>
<text text-anchor="start" x="951.2314" y="-683.9" font-family="Arial" font-size="14.00" fill="#666666">[integer]</text>
<polygon fill="none" stroke="#000000" points="868,-642.5 868,-672.5 1158,-672.5 1158,-642.5 868,-642.5"/>
<text text-anchor="start" x="875" y="-653.9" font-family="Arial" font-size="14.00" fill="#000000">company_id </text>
<text text-anchor="start" x="954.3534" y="-653.9" font-family="Arial" font-size="14.00" fill="#666666">[integer]</text>
<polygon fill="none" stroke="#000000" points="868,-612.5 868,-642.5 1158,-642.5 1158,-612.5 868,-612.5"/>
<text text-anchor="start" x="875" y="-623.9" font-family="Arial" font-size="14.00" fill="#000000">refund_sequence </text>
<text text-anchor="start" x="987.0504" y="-623.9" font-family="Arial" font-size="14.00" fill="#666666">[boolean]</text>
<polygon fill="none" stroke="#000000" points="868,-582.5 868,-612.5 1158,-612.5 1158,-582.5 868,-582.5"/>
<text text-anchor="start" x="875" y="-593.9" font-family="Arial" font-size="14.00" fill="#000000">at_least_one_inbound </text>
<text text-anchor="start" x="1016.624" y="-593.9" font-family="Arial" font-size="14.00" fill="#666666">[boolean]</text>
<polygon fill="none" stroke="#000000" points="868,-552.5 868,-582.5 1158,-582.5 1158,-552.5 868,-552.5"/>
<text text-anchor="start" x="875" y="-563.9" font-family="Arial" font-size="14.00" fill="#000000">at_least_one_outbound </text>
<text text-anchor="start" x="1025.1906" y="-563.9" font-family="Arial" font-size="14.00" fill="#666666">[boolean]</text>
<polygon fill="none" stroke="#000000" points="868,-522.5 868,-552.5 1158,-552.5 1158,-522.5 868,-522.5"/>
<text text-anchor="start" x="875" y="-533.9" font-family="Arial" font-size="14.00" fill="#000000">profit_account_id </text>
<text text-anchor="start" x="985.4796" y="-533.9" font-family="Arial" font-size="14.00" fill="#666666">[integer]</text>
<polygon fill="none" stroke="#000000" points="868,-492.5 868,-522.5 1158,-522.5 1158,-492.5 868,-492.5"/>
<text text-anchor="start" x="875" y="-503.9" font-family="Arial" font-size="14.00" fill="#000000">loss_account_id </text>
<text text-anchor="start" x="979.2552" y="-503.9" font-family="Arial" font-size="14.00" fill="#666666">[integer]</text>
<polygon fill="none" stroke="#000000" points="868,-462.5 868,-492.5 1158,-492.5 1158,-462.5 868,-462.5"/>
<text text-anchor="start" x="875" y="-473.9" font-family="Arial" font-size="14.00" fill="#000000">bank_account_id </text>
<text text-anchor="start" x="984.7138" y="-473.9" font-family="Arial" font-size="14.00" fill="#666666">[integer]</text>
<polygon fill="none" stroke="#000000" points="868,-432.5 868,-462.5 1158,-462.5 1158,-432.5 868,-432.5"/>
<text text-anchor="start" x="875" y="-443.9" font-family="Arial" font-size="14.00" fill="#000000">bank_statements_source </text>
<text text-anchor="start" x="1035.2748" y="-443.9" font-family="Arial" font-size="14.00" fill="#666666">[varchar]</text>
<polygon fill="none" stroke="#000000" points="868,-402.5 868,-432.5 1158,-432.5 1158,-402.5 868,-402.5"/>
<text text-anchor="start" x="875" y="-413.9" font-family="Arial" font-size="14.00" fill="#000000">post_at_bank_rec </text>
<text text-anchor="start" x="990.1584" y="-413.9" font-family="Arial" font-size="14.00" fill="#666666">[boolean]</text>
<polygon fill="none" stroke="#000000" points="868,-372.5 868,-402.5 1158,-402.5 1158,-372.5 868,-372.5"/>
<text text-anchor="start" x="875" y="-383.9" font-family="Arial" font-size="14.00" fill="#000000">alias_id </text>
<text text-anchor="start" x="926.3408" y="-383.9" font-family="Arial" font-size="14.00" fill="#666666">[integer]</text>
<polygon fill="none" stroke="#000000" points="868,-342.5 868,-372.5 1158,-372.5 1158,-342.5 868,-342.5"/>
<text text-anchor="start" x="875" y="-353.9" font-family="Arial" font-size="14.00" fill="#000000">show_on_dashboard </text>
<text text-anchor="start" x="1008.8316" y="-353.9" font-family="Arial" font-size="14.00" fill="#666666">[boolean]</text>
<polygon fill="none" stroke="#000000" points="868,-312.5 868,-342.5 1158,-342.5 1158,-312.5 868,-312.5"/>
<text text-anchor="start" x="875" y="-323.9" font-family="Arial" font-size="14.00" fill="#000000">color </text>
<text text-anchor="start" x="909.223" y="-323.9" font-family="Arial" font-size="14.00" fill="#666666">[integer]</text>
<polygon fill="none" stroke="#000000" points="868,-282.5 868,-312.5 1158,-312.5 1158,-282.5 868,-282.5"/>
<text text-anchor="start" x="875" y="-293.9" font-family="Arial" font-size="14.00" fill="#000000">create_uid </text>
<text text-anchor="start" x="944.244" y="-293.9" font-family="Arial" font-size="14.00" fill="#666666">[integer]</text>
<polygon fill="none" stroke="#000000" points="868,-252.5 868,-282.5 1158,-282.5 1158,-252.5 868,-252.5"/>
<text text-anchor="start" x="875" y="-263.9" font-family="Arial" font-size="14.00" fill="#000000">create_date </text>
<text text-anchor="start" x="952.8106" y="-263.9" font-family="Arial" font-size="14.00" fill="#666666">[timestamp without time zone]</text>
<polygon fill="none" stroke="#000000" points="868,-222.5 868,-252.5 1158,-252.5 1158,-222.5 868,-222.5"/>
<text text-anchor="start" x="875" y="-233.9" font-family="Arial" font-size="14.00" fill="#000000">write_uid </text>
<text text-anchor="start" x="934.892" y="-233.9" font-family="Arial" font-size="14.00" fill="#666666">[integer]</text>
<polygon fill="none" stroke="#000000" points="868,-192.5 868,-222.5 1158,-222.5 1158,-192.5 868,-192.5"/>
<text text-anchor="start" x="875" y="-203.9" font-family="Arial" font-size="14.00" fill="#000000">write_date </text>
<text text-anchor="start" x="943.4586" y="-203.9" font-family="Arial" font-size="14.00" fill="#666666">[timestamp without time zone]</text>
<polygon fill="none" stroke="#000000" points="868,-162.5 868,-192.5 1158,-192.5 1158,-162.5 868,-162.5"/>
<text text-anchor="start" x="875" y="-173.9" font-family="Arial" font-size="14.00" fill="#000000">journal_user </text>
<text text-anchor="start" x="955.9032" y="-173.9" font-family="Arial" font-size="14.00" fill="#666666">[boolean]</text>
<polygon fill="none" stroke="#000000" points="868,-132.5 868,-162.5 1158,-162.5 1158,-132.5 868,-132.5"/>
<text text-anchor="start" x="875" y="-143.9" font-family="Arial" font-size="14.00" fill="#000000">amount_authorized_diff </text>
<text text-anchor="start" x="1025.1612" y="-143.9" font-family="Arial" font-size="14.00" fill="#666666">[double precision]</text>
</g>
<!-- public.account_journal_account_reconcile_model_rel&#45;&gt;public.account_journal -->
<g id="edge2" class="edge">
<title>public.account_journal_account_reconcile_model_rel:account_journal_id&#45;&gt;public.account_journal:id</title>
<path fill="none" stroke="#000000" d="M1073.7693,-1324.9889C1086.5399,-1316.2936 1074.8716,-1286.9131 1064,-1267 1014.376,-1176.1055 917.624,-1231.8945 868,-1141 848.0871,-1104.5262 826.4444,-1047.5 868,-1047.5"/>
<polygon fill="#000000" stroke="#000000" points="1073.6852,-1325.0105 1062.8797,-1323.1417 1068.8426,-1326.2552 1064,-1327.5 1064,-1327.5 1064,-1327.5 1068.8426,-1326.2552 1065.1203,-1331.8583 1073.6852,-1325.0105 1073.6852,-1325.0105"/>
<text text-anchor="start" x="1071.4235" y="-1337.5" font-family="Arial" font-size="10.00" fill="#000000">FOREIGN KEY (account_journal_id) REFERENCES account_journal(id) ON DELETE CASCADE</text>
</g>
</g>
</svg>
