<?xml version="1.0" encoding="UTF-8" standalone="no"?>
<!DOCTYPE svg PUBLIC "-//W3C//DTD SVG 1.1//EN"
 "http://www.w3.org/Graphics/SVG/1.1/DTD/svg11.dtd">
<!-- Generated by graphviz version 2.40.1 (20161225.0304)
 -->
<!-- Title: public.crm_stage Pages: 1 -->
<svg width="1127pt" height="3029pt"
 viewBox="0.00 0.00 1126.50 3029.00" xmlns="http://www.w3.org/2000/svg" xmlns:xlink="http://www.w3.org/1999/xlink">
<g id="graph0" class="graph" transform="scale(1 1) rotate(0) translate(4 3025)">
<title>public.crm_stage</title>
<polygon fill="#ffffff" stroke="transparent" points="-4,4 -4,-3025 1122.5,-3025 1122.5,4 -4,4"/>
<!-- public.crm_stage -->
<g id="node1" class="node">
<title>public.crm_stage</title>
<polygon fill="#efefef" stroke="transparent" points="428.5,-1312.5 428.5,-1347.5 704.5,-1347.5 704.5,-1312.5 428.5,-1312.5"/>
<polygon fill="none" stroke="#000000" points="428.5,-1312.5 428.5,-1347.5 704.5,-1347.5 704.5,-1312.5 428.5,-1312.5"/>
<text text-anchor="start" x="449.8628" y="-1325.3" font-family="Arial Bold" font-size="18.00" fill="#000000">public.crm_stage</text>
<text text-anchor="start" x="585.8834" y="-1325.3" font-family="Arial" font-size="14.00" fill="#000000"> </text>
<text text-anchor="start" x="589.774" y="-1325.3" font-family="Arial" font-size="14.00" fill="#666666">[BASE TABLE]</text>
<polygon fill="none" stroke="#000000" points="428.5,-1282.5 428.5,-1312.5 704.5,-1312.5 704.5,-1282.5 428.5,-1282.5"/>
<text text-anchor="start" x="435.5" y="-1293.9" font-family="Arial" font-size="14.00" fill="#000000">id </text>
<text text-anchor="start" x="450.2798" y="-1293.9" font-family="Arial" font-size="14.00" fill="#666666">[integer]</text>
<polygon fill="none" stroke="#000000" points="428.5,-1252.5 428.5,-1282.5 704.5,-1282.5 704.5,-1252.5 428.5,-1252.5"/>
<text text-anchor="start" x="435.5" y="-1263.9" font-family="Arial" font-size="14.00" fill="#000000">name </text>
<text text-anchor="start" x="474.399" y="-1263.9" font-family="Arial" font-size="14.00" fill="#666666">[varchar]</text>
<polygon fill="none" stroke="#000000" points="428.5,-1222.5 428.5,-1252.5 704.5,-1252.5 704.5,-1222.5 428.5,-1222.5"/>
<text text-anchor="start" x="435.5" y="-1233.9" font-family="Arial" font-size="14.00" fill="#000000">sequence </text>
<text text-anchor="start" x="500.0862" y="-1233.9" font-family="Arial" font-size="14.00" fill="#666666">[integer]</text>
<polygon fill="none" stroke="#000000" points="428.5,-1192.5 428.5,-1222.5 704.5,-1222.5 704.5,-1192.5 428.5,-1192.5"/>
<text text-anchor="start" x="435.5" y="-1203.9" font-family="Arial" font-size="14.00" fill="#000000">probability </text>
<text text-anchor="start" x="503.1746" y="-1203.9" font-family="Arial" font-size="14.00" fill="#666666">[double precision]</text>
<polygon fill="none" stroke="#000000" points="428.5,-1162.5 428.5,-1192.5 704.5,-1192.5 704.5,-1162.5 428.5,-1162.5"/>
<text text-anchor="start" x="435.5" y="-1173.9" font-family="Arial" font-size="14.00" fill="#000000">on_change </text>
<text text-anchor="start" x="508.6514" y="-1173.9" font-family="Arial" font-size="14.00" fill="#666666">[boolean]</text>
<polygon fill="none" stroke="#000000" points="428.5,-1132.5 428.5,-1162.5 704.5,-1162.5 704.5,-1132.5 428.5,-1132.5"/>
<text text-anchor="start" x="435.5" y="-1143.9" font-family="Arial" font-size="14.00" fill="#000000">requirements </text>
<text text-anchor="start" x="521.0652" y="-1143.9" font-family="Arial" font-size="14.00" fill="#666666">[text]</text>
<polygon fill="none" stroke="#000000" points="428.5,-1102.5 428.5,-1132.5 704.5,-1132.5 704.5,-1102.5 428.5,-1102.5"/>
<text text-anchor="start" x="435.5" y="-1113.9" font-family="Arial" font-size="14.00" fill="#000000">team_id </text>
<text text-anchor="start" x="489.1788" y="-1113.9" font-family="Arial" font-size="14.00" fill="#666666">[integer]</text>
<polygon fill="none" stroke="#000000" points="428.5,-1072.5 428.5,-1102.5 704.5,-1102.5 704.5,-1072.5 428.5,-1072.5"/>
<text text-anchor="start" x="435.5" y="-1083.9" font-family="Arial" font-size="14.00" fill="#000000">legend_priority </text>
<text text-anchor="start" x="531.183" y="-1083.9" font-family="Arial" font-size="14.00" fill="#666666">[text]</text>
<polygon fill="none" stroke="#000000" points="428.5,-1042.5 428.5,-1072.5 704.5,-1072.5 704.5,-1042.5 428.5,-1042.5"/>
<text text-anchor="start" x="435.5" y="-1053.9" font-family="Arial" font-size="14.00" fill="#000000">fold </text>
<text text-anchor="start" x="461.953" y="-1053.9" font-family="Arial" font-size="14.00" fill="#666666">[boolean]</text>
<polygon fill="none" stroke="#000000" points="428.5,-1012.5 428.5,-1042.5 704.5,-1042.5 704.5,-1012.5 428.5,-1012.5"/>
<text text-anchor="start" x="435.5" y="-1023.9" font-family="Arial" font-size="14.00" fill="#000000">create_uid </text>
<text text-anchor="start" x="504.744" y="-1023.9" font-family="Arial" font-size="14.00" fill="#666666">[integer]</text>
<polygon fill="none" stroke="#000000" points="428.5,-982.5 428.5,-1012.5 704.5,-1012.5 704.5,-982.5 428.5,-982.5"/>
<text text-anchor="start" x="435.0246" y="-993.9" font-family="Arial" font-size="14.00" fill="#000000">create_date </text>
<text text-anchor="start" x="512.8352" y="-993.9" font-family="Arial" font-size="14.00" fill="#666666">[timestamp without time zone]</text>
<polygon fill="none" stroke="#000000" points="428.5,-952.5 428.5,-982.5 704.5,-982.5 704.5,-952.5 428.5,-952.5"/>
<text text-anchor="start" x="435.5" y="-963.9" font-family="Arial" font-size="14.00" fill="#000000">write_uid </text>
<text text-anchor="start" x="495.392" y="-963.9" font-family="Arial" font-size="14.00" fill="#666666">[integer]</text>
<polygon fill="none" stroke="#000000" points="428.5,-922.5 428.5,-952.5 704.5,-952.5 704.5,-922.5 428.5,-922.5"/>
<text text-anchor="start" x="435.5" y="-933.9" font-family="Arial" font-size="14.00" fill="#000000">write_date </text>
<text text-anchor="start" x="503.9586" y="-933.9" font-family="Arial" font-size="14.00" fill="#666666">[timestamp without time zone]</text>
<polygon fill="none" stroke="#000000" stroke-width="3" points="427,-921.5 427,-1349.5 706,-1349.5 706,-921.5 427,-921.5"/>
</g>
<!-- public.crm_team -->
<g id="node3" class="node">
<title>public.crm_team</title>
<polygon fill="#efefef" stroke="transparent" points="43.5,-762.5 43.5,-797.5 324.5,-797.5 324.5,-762.5 43.5,-762.5"/>
<polygon fill="none" stroke="#000000" points="43.5,-762.5 43.5,-797.5 324.5,-797.5 324.5,-762.5 43.5,-762.5"/>
<text text-anchor="start" x="69.3698" y="-775.3" font-family="Arial Bold" font-size="18.00" fill="#000000">public.crm_team</text>
<text text-anchor="start" x="201.3764" y="-775.3" font-family="Arial" font-size="14.00" fill="#000000"> </text>
<text text-anchor="start" x="205.267" y="-775.3" font-family="Arial" font-size="14.00" fill="#666666">[BASE TABLE]</text>
<polygon fill="none" stroke="#000000" points="43.5,-732.5 43.5,-762.5 324.5,-762.5 324.5,-732.5 43.5,-732.5"/>
<text text-anchor="start" x="50.5" y="-743.9" font-family="Arial" font-size="14.00" fill="#000000">id </text>
<text text-anchor="start" x="65.2798" y="-743.9" font-family="Arial" font-size="14.00" fill="#666666">[integer]</text>
<polygon fill="none" stroke="#000000" points="43.5,-702.5 43.5,-732.5 324.5,-732.5 324.5,-702.5 43.5,-702.5"/>
<text text-anchor="start" x="50.5" y="-713.9" font-family="Arial" font-size="14.00" fill="#000000">message_main_attachment_id </text>
<text text-anchor="start" x="244.9964" y="-713.9" font-family="Arial" font-size="14.00" fill="#666666">[integer]</text>
<polygon fill="none" stroke="#000000" points="43.5,-672.5 43.5,-702.5 324.5,-702.5 324.5,-672.5 43.5,-672.5"/>
<text text-anchor="start" x="50.5" y="-683.9" font-family="Arial" font-size="14.00" fill="#000000">name </text>
<text text-anchor="start" x="89.399" y="-683.9" font-family="Arial" font-size="14.00" fill="#666666">[varchar]</text>
<polygon fill="none" stroke="#000000" points="43.5,-642.5 43.5,-672.5 324.5,-672.5 324.5,-642.5 43.5,-642.5"/>
<text text-anchor="start" x="50.5" y="-653.9" font-family="Arial" font-size="14.00" fill="#000000">active </text>
<text text-anchor="start" x="90.953" y="-653.9" font-family="Arial" font-size="14.00" fill="#666666">[boolean]</text>
<polygon fill="none" stroke="#000000" points="43.5,-612.5 43.5,-642.5 324.5,-642.5 324.5,-612.5 43.5,-612.5"/>
<text text-anchor="start" x="50.5" y="-623.9" font-family="Arial" font-size="14.00" fill="#000000">company_id </text>
<text text-anchor="start" x="129.8534" y="-623.9" font-family="Arial" font-size="14.00" fill="#666666">[integer]</text>
<polygon fill="none" stroke="#000000" points="43.5,-582.5 43.5,-612.5 324.5,-612.5 324.5,-582.5 43.5,-582.5"/>
<text text-anchor="start" x="50.5" y="-593.9" font-family="Arial" font-size="14.00" fill="#000000">user_id </text>
<text text-anchor="start" x="100.2882" y="-593.9" font-family="Arial" font-size="14.00" fill="#666666">[integer]</text>
<polygon fill="none" stroke="#000000" points="43.5,-552.5 43.5,-582.5 324.5,-582.5 324.5,-552.5 43.5,-552.5"/>
<text text-anchor="start" x="50.5" y="-563.9" font-family="Arial" font-size="14.00" fill="#000000">reply_to </text>
<text text-anchor="start" x="104.1788" y="-563.9" font-family="Arial" font-size="14.00" fill="#666666">[varchar]</text>
<polygon fill="none" stroke="#000000" points="43.5,-522.5 43.5,-552.5 324.5,-552.5 324.5,-522.5 43.5,-522.5"/>
<text text-anchor="start" x="50.5" y="-533.9" font-family="Arial" font-size="14.00" fill="#000000">color </text>
<text text-anchor="start" x="84.723" y="-533.9" font-family="Arial" font-size="14.00" fill="#666666">[integer]</text>
<polygon fill="none" stroke="#000000" points="43.5,-492.5 43.5,-522.5 324.5,-522.5 324.5,-492.5 43.5,-492.5"/>
<text text-anchor="start" x="50.5" y="-503.9" font-family="Arial" font-size="14.00" fill="#000000">team_type </text>
<text text-anchor="start" x="119.7454" y="-503.9" font-family="Arial" font-size="14.00" fill="#666666">[varchar]</text>
<polygon fill="none" stroke="#000000" points="43.5,-462.5 43.5,-492.5 324.5,-492.5 324.5,-462.5 43.5,-462.5"/>
<text text-anchor="start" x="50.5" y="-473.9" font-family="Arial" font-size="14.00" fill="#000000">dashboard_graph_model </text>
<text text-anchor="start" x="210.0006" y="-473.9" font-family="Arial" font-size="14.00" fill="#666666">[varchar]</text>
<polygon fill="none" stroke="#000000" points="43.5,-432.5 43.5,-462.5 324.5,-462.5 324.5,-432.5 43.5,-432.5"/>
<text text-anchor="start" x="50.5" y="-443.9" font-family="Arial" font-size="14.00" fill="#000000">dashboard_graph_group </text>
<text text-anchor="start" x="207.6766" y="-443.9" font-family="Arial" font-size="14.00" fill="#666666">[varchar]</text>
<polygon fill="none" stroke="#000000" points="43.5,-402.5 43.5,-432.5 324.5,-432.5 324.5,-402.5 43.5,-402.5"/>
<text text-anchor="start" x="50.5" y="-413.9" font-family="Arial" font-size="14.00" fill="#000000">dashboard_graph_period </text>
<text text-anchor="start" x="210.7832" y="-413.9" font-family="Arial" font-size="14.00" fill="#666666">[varchar]</text>
<polygon fill="none" stroke="#000000" points="43.5,-372.5 43.5,-402.5 324.5,-402.5 324.5,-372.5 43.5,-372.5"/>
<text text-anchor="start" x="50.5" y="-383.9" font-family="Arial" font-size="14.00" fill="#000000">create_uid </text>
<text text-anchor="start" x="119.744" y="-383.9" font-family="Arial" font-size="14.00" fill="#666666">[integer]</text>
<polygon fill="none" stroke="#000000" points="43.5,-342.5 43.5,-372.5 324.5,-372.5 324.5,-342.5 43.5,-342.5"/>
<text text-anchor="start" x="50.5" y="-353.9" font-family="Arial" font-size="14.00" fill="#000000">create_date </text>
<text text-anchor="start" x="128.3106" y="-353.9" font-family="Arial" font-size="14.00" fill="#666666">[timestamp without time zone]</text>
<polygon fill="none" stroke="#000000" points="43.5,-312.5 43.5,-342.5 324.5,-342.5 324.5,-312.5 43.5,-312.5"/>
<text text-anchor="start" x="50.5" y="-323.9" font-family="Arial" font-size="14.00" fill="#000000">write_uid </text>
<text text-anchor="start" x="110.392" y="-323.9" font-family="Arial" font-size="14.00" fill="#666666">[integer]</text>
<polygon fill="none" stroke="#000000" points="43.5,-282.5 43.5,-312.5 324.5,-312.5 324.5,-282.5 43.5,-282.5"/>
<text text-anchor="start" x="50.5" y="-293.9" font-family="Arial" font-size="14.00" fill="#000000">write_date </text>
<text text-anchor="start" x="118.9586" y="-293.9" font-family="Arial" font-size="14.00" fill="#666666">[timestamp without time zone]</text>
<polygon fill="none" stroke="#000000" points="43.5,-252.5 43.5,-282.5 324.5,-282.5 324.5,-252.5 43.5,-252.5"/>
<text text-anchor="start" x="50.5" y="-263.9" font-family="Arial" font-size="14.00" fill="#000000">use_leads </text>
<text text-anchor="start" x="118.1928" y="-263.9" font-family="Arial" font-size="14.00" fill="#666666">[boolean]</text>
<polygon fill="none" stroke="#000000" points="43.5,-222.5 43.5,-252.5 324.5,-252.5 324.5,-222.5 43.5,-222.5"/>
<text text-anchor="start" x="50.5" y="-233.9" font-family="Arial" font-size="14.00" fill="#000000">use_opportunities </text>
<text text-anchor="start" x="164.8716" y="-233.9" font-family="Arial" font-size="14.00" fill="#666666">[boolean]</text>
<polygon fill="none" stroke="#000000" points="43.5,-192.5 43.5,-222.5 324.5,-222.5 324.5,-192.5 43.5,-192.5"/>
<text text-anchor="start" x="50.5" y="-203.9" font-family="Arial" font-size="14.00" fill="#000000">alias_id </text>
<text text-anchor="start" x="101.8408" y="-203.9" font-family="Arial" font-size="14.00" fill="#666666">[integer]</text>
<polygon fill="none" stroke="#000000" points="43.5,-162.5 43.5,-192.5 324.5,-192.5 324.5,-162.5 43.5,-162.5"/>
<text text-anchor="start" x="50.1789" y="-173.9" font-family="Arial" font-size="14.00" fill="#000000">dashboard_graph_group_pipeline </text>
<text text-anchor="start" x="263.3709" y="-173.9" font-family="Arial" font-size="14.00" fill="#666666">[varchar]</text>
<polygon fill="none" stroke="#000000" points="43.5,-132.5 43.5,-162.5 324.5,-162.5 324.5,-132.5 43.5,-132.5"/>
<text text-anchor="start" x="50.5" y="-143.9" font-family="Arial" font-size="14.00" fill="#000000">use_quotations </text>
<text text-anchor="start" x="149.3218" y="-143.9" font-family="Arial" font-size="14.00" fill="#666666">[boolean]</text>
<polygon fill="none" stroke="#000000" points="43.5,-102.5 43.5,-132.5 324.5,-132.5 324.5,-102.5 43.5,-102.5"/>
<text text-anchor="start" x="50.5" y="-113.9" font-family="Arial" font-size="14.00" fill="#000000">use_invoices </text>
<text text-anchor="start" x="135.2994" y="-113.9" font-family="Arial" font-size="14.00" fill="#666666">[boolean]</text>
<polygon fill="none" stroke="#000000" points="43.5,-72.5 43.5,-102.5 324.5,-102.5 324.5,-72.5 43.5,-72.5"/>
<text text-anchor="start" x="50.5" y="-83.9" font-family="Arial" font-size="14.00" fill="#000000">invoiced_target </text>
<text text-anchor="start" x="149.3064" y="-83.9" font-family="Arial" font-size="14.00" fill="#666666">[integer]</text>
<polygon fill="none" stroke="#000000" points="43.5,-42.5 43.5,-72.5 324.5,-72.5 324.5,-42.5 43.5,-42.5"/>
<text text-anchor="start" x="50.5" y="-53.9" font-family="Arial" font-size="14.00" fill="#000000">dashboard_graph_group_pos </text>
<text text-anchor="start" x="238.0244" y="-53.9" font-family="Arial" font-size="14.00" fill="#666666">[varchar]</text>
</g>
<!-- public.crm_stage&#45;&gt;public.crm_team -->
<g id="edge2" class="edge">
<title>public.crm_stage:team_id&#45;&gt;public.crm_team:id</title>
<path fill="none" stroke="#000000" d="M418.3093,-1115.5093C348.5525,-1086.3863 406.2386,-747.5 324.5,-747.5"/>
<polygon fill="#000000" stroke="#000000" points="418.6855,-1115.5827 427.6372,-1121.9165 423.5928,-1116.5414 428.5,-1117.5 428.5,-1117.5 428.5,-1117.5 423.5928,-1116.5414 429.3628,-1113.0835 418.6855,-1115.5827 418.6855,-1115.5827"/>
<text text-anchor="start" x="65.4415" y="-1127.5" font-family="Arial" font-size="10.00" fill="#000000">FOREIGN KEY (team_id) REFERENCES crm_team(id) ON DELETE SET NULL</text>
</g>
<!-- public.res_users -->
<g id="node4" class="node">
<title>public.res_users</title>
<polygon fill="#efefef" stroke="transparent" points="428.5,-732.5 428.5,-767.5 704.5,-767.5 704.5,-732.5 428.5,-732.5"/>
<polygon fill="none" stroke="#000000" points="428.5,-732.5 428.5,-767.5 704.5,-767.5 704.5,-732.5 428.5,-732.5"/>
<text text-anchor="start" x="452.3639" y="-745.3" font-family="Arial Bold" font-size="18.00" fill="#000000">public.res_users</text>
<text text-anchor="start" x="583.3823" y="-745.3" font-family="Arial" font-size="14.00" fill="#000000"> </text>
<text text-anchor="start" x="587.2729" y="-745.3" font-family="Arial" font-size="14.00" fill="#666666">[BASE TABLE]</text>
<polygon fill="none" stroke="#000000" points="428.5,-702.5 428.5,-732.5 704.5,-732.5 704.5,-702.5 428.5,-702.5"/>
<text text-anchor="start" x="435.5" y="-713.9" font-family="Arial" font-size="14.00" fill="#000000">id </text>
<text text-anchor="start" x="450.2798" y="-713.9" font-family="Arial" font-size="14.00" fill="#666666">[integer]</text>
<polygon fill="none" stroke="#000000" points="428.5,-672.5 428.5,-702.5 704.5,-702.5 704.5,-672.5 428.5,-672.5"/>
<text text-anchor="start" x="435.5" y="-683.9" font-family="Arial" font-size="14.00" fill="#000000">active </text>
<text text-anchor="start" x="475.953" y="-683.9" font-family="Arial" font-size="14.00" fill="#666666">[boolean]</text>
<polygon fill="none" stroke="#000000" points="428.5,-642.5 428.5,-672.5 704.5,-672.5 704.5,-642.5 428.5,-642.5"/>
<text text-anchor="start" x="435.5" y="-653.9" font-family="Arial" font-size="14.00" fill="#000000">login </text>
<text text-anchor="start" x="468.9516" y="-653.9" font-family="Arial" font-size="14.00" fill="#666666">[varchar]</text>
<polygon fill="none" stroke="#000000" points="428.5,-612.5 428.5,-642.5 704.5,-642.5 704.5,-612.5 428.5,-612.5"/>
<text text-anchor="start" x="435.5" y="-623.9" font-family="Arial" font-size="14.00" fill="#000000">password </text>
<text text-anchor="start" x="499.2882" y="-623.9" font-family="Arial" font-size="14.00" fill="#666666">[varchar]</text>
<polygon fill="none" stroke="#000000" points="428.5,-582.5 428.5,-612.5 704.5,-612.5 704.5,-582.5 428.5,-582.5"/>
<text text-anchor="start" x="435.5" y="-593.9" font-family="Arial" font-size="14.00" fill="#000000">company_id </text>
<text text-anchor="start" x="514.8534" y="-593.9" font-family="Arial" font-size="14.00" fill="#666666">[integer]</text>
<polygon fill="none" stroke="#000000" points="428.5,-552.5 428.5,-582.5 704.5,-582.5 704.5,-552.5 428.5,-552.5"/>
<text text-anchor="start" x="435.5" y="-563.9" font-family="Arial" font-size="14.00" fill="#000000">partner_id </text>
<text text-anchor="start" x="502.4046" y="-563.9" font-family="Arial" font-size="14.00" fill="#666666">[integer]</text>
<polygon fill="none" stroke="#000000" points="428.5,-522.5 428.5,-552.5 704.5,-552.5 704.5,-522.5 428.5,-522.5"/>
<text text-anchor="start" x="435.0246" y="-533.9" font-family="Arial" font-size="14.00" fill="#000000">create_date </text>
<text text-anchor="start" x="512.8352" y="-533.9" font-family="Arial" font-size="14.00" fill="#666666">[timestamp without time zone]</text>
<polygon fill="none" stroke="#000000" points="428.5,-492.5 428.5,-522.5 704.5,-522.5 704.5,-492.5 428.5,-492.5"/>
<text text-anchor="start" x="435.5" y="-503.9" font-family="Arial" font-size="14.00" fill="#000000">signature </text>
<text text-anchor="start" x="496.9614" y="-503.9" font-family="Arial" font-size="14.00" fill="#666666">[text]</text>
<polygon fill="none" stroke="#000000" points="428.5,-462.5 428.5,-492.5 704.5,-492.5 704.5,-462.5 428.5,-462.5"/>
<text text-anchor="start" x="435.5" y="-473.9" font-family="Arial" font-size="14.00" fill="#000000">action_id </text>
<text text-anchor="start" x="495.4074" y="-473.9" font-family="Arial" font-size="14.00" fill="#666666">[integer]</text>
<polygon fill="none" stroke="#000000" points="428.5,-432.5 428.5,-462.5 704.5,-462.5 704.5,-432.5 428.5,-432.5"/>
<text text-anchor="start" x="435.5" y="-443.9" font-family="Arial" font-size="14.00" fill="#000000">share </text>
<text text-anchor="start" x="474.399" y="-443.9" font-family="Arial" font-size="14.00" fill="#666666">[boolean]</text>
<polygon fill="none" stroke="#000000" points="428.5,-402.5 428.5,-432.5 704.5,-432.5 704.5,-402.5 428.5,-402.5"/>
<text text-anchor="start" x="435.5" y="-413.9" font-family="Arial" font-size="14.00" fill="#000000">create_uid </text>
<text text-anchor="start" x="504.744" y="-413.9" font-family="Arial" font-size="14.00" fill="#666666">[integer]</text>
<polygon fill="none" stroke="#000000" points="428.5,-372.5 428.5,-402.5 704.5,-402.5 704.5,-372.5 428.5,-372.5"/>
<text text-anchor="start" x="435.5" y="-383.9" font-family="Arial" font-size="14.00" fill="#000000">write_uid </text>
<text text-anchor="start" x="495.392" y="-383.9" font-family="Arial" font-size="14.00" fill="#666666">[integer]</text>
<polygon fill="none" stroke="#000000" points="428.5,-342.5 428.5,-372.5 704.5,-372.5 704.5,-342.5 428.5,-342.5"/>
<text text-anchor="start" x="435.5" y="-353.9" font-family="Arial" font-size="14.00" fill="#000000">write_date </text>
<text text-anchor="start" x="503.9586" y="-353.9" font-family="Arial" font-size="14.00" fill="#666666">[timestamp without time zone]</text>
<polygon fill="none" stroke="#000000" points="428.5,-312.5 428.5,-342.5 704.5,-342.5 704.5,-312.5 428.5,-312.5"/>
<text text-anchor="start" x="435.5" y="-323.9" font-family="Arial" font-size="14.00" fill="#000000">alias_id </text>
<text text-anchor="start" x="486.8408" y="-323.9" font-family="Arial" font-size="14.00" fill="#666666">[integer]</text>
<polygon fill="none" stroke="#000000" points="428.5,-282.5 428.5,-312.5 704.5,-312.5 704.5,-282.5 428.5,-282.5"/>
<text text-anchor="start" x="435.5" y="-293.9" font-family="Arial" font-size="14.00" fill="#000000">notification_type </text>
<text text-anchor="start" x="540.5336" y="-293.9" font-family="Arial" font-size="14.00" fill="#666666">[varchar]</text>
<polygon fill="none" stroke="#000000" points="428.5,-252.5 428.5,-282.5 704.5,-282.5 704.5,-252.5 428.5,-252.5"/>
<text text-anchor="start" x="435.5" y="-263.9" font-family="Arial" font-size="14.00" fill="#000000">odoobot_state </text>
<text text-anchor="start" x="528.1058" y="-263.9" font-family="Arial" font-size="14.00" fill="#666666">[varchar]</text>
<polygon fill="none" stroke="#000000" points="428.5,-222.5 428.5,-252.5 704.5,-252.5 704.5,-222.5 428.5,-222.5"/>
<text text-anchor="start" x="435.5" y="-233.9" font-family="Arial" font-size="14.00" fill="#000000">sale_team_id </text>
<text text-anchor="start" x="522.6332" y="-233.9" font-family="Arial" font-size="14.00" fill="#666666">[integer]</text>
<polygon fill="none" stroke="#000000" points="428.5,-192.5 428.5,-222.5 704.5,-222.5 704.5,-192.5 428.5,-192.5"/>
<text text-anchor="start" x="435.5" y="-203.9" font-family="Arial" font-size="14.00" fill="#000000">target_sales_won </text>
<text text-anchor="start" x="549.089" y="-203.9" font-family="Arial" font-size="14.00" fill="#666666">[integer]</text>
<polygon fill="none" stroke="#000000" points="428.5,-162.5 428.5,-192.5 704.5,-192.5 704.5,-162.5 428.5,-162.5"/>
<text text-anchor="start" x="435.5" y="-173.9" font-family="Arial" font-size="14.00" fill="#000000">target_sales_done </text>
<text text-anchor="start" x="554.5476" y="-173.9" font-family="Arial" font-size="14.00" fill="#666666">[integer]</text>
<polygon fill="none" stroke="#000000" points="428.5,-132.5 428.5,-162.5 704.5,-162.5 704.5,-132.5 428.5,-132.5"/>
<text text-anchor="start" x="435.5" y="-143.9" font-family="Arial" font-size="14.00" fill="#000000">website_id </text>
<text text-anchor="start" x="505.514" y="-143.9" font-family="Arial" font-size="14.00" fill="#666666">[integer]</text>
<polygon fill="none" stroke="#000000" points="428.5,-102.5 428.5,-132.5 704.5,-132.5 704.5,-102.5 428.5,-102.5"/>
<text text-anchor="start" x="435.5" y="-113.9" font-family="Arial" font-size="14.00" fill="#000000">target_sales_invoiced </text>
<text text-anchor="start" x="574.7608" y="-113.9" font-family="Arial" font-size="14.00" fill="#666666">[integer]</text>
<polygon fill="none" stroke="#000000" points="428.5,-72.5 428.5,-102.5 704.5,-102.5 704.5,-72.5 428.5,-72.5"/>
<text text-anchor="start" x="435.5" y="-83.9" font-family="Arial" font-size="14.00" fill="#000000">pos_security_pin </text>
<text text-anchor="start" x="544.4158" y="-83.9" font-family="Arial" font-size="14.00" fill="#666666">[varchar(32)]</text>
</g>
<!-- public.crm_stage&#45;&gt;public.res_users -->
<g id="edge3" class="edge">
<title>public.crm_stage:create_uid&#45;&gt;public.res_users:id</title>
<path fill="none" stroke="#000000" d="M714.7283,-1026.9106C842.189,-1011.9577 838.7795,-717.5 704.5,-717.5"/>
<polygon fill="#000000" stroke="#000000" points="714.4834,-1026.9246 704.2411,-1023.0075 709.4917,-1027.2123 704.5,-1027.5 704.5,-1027.5 704.5,-1027.5 709.4917,-1027.2123 704.7589,-1031.9925 714.4834,-1026.9246 714.4834,-1026.9246"/>
<text text-anchor="start" x="711.157" y="-1037.5" font-family="Arial" font-size="10.00" fill="#000000">FOREIGN KEY (create_uid) REFERENCES res_users(id) ON DELETE SET NULL</text>
</g>
<!-- public.crm_stage&#45;&gt;public.res_users -->
<g id="edge4" class="edge">
<title>public.crm_stage:write_uid&#45;&gt;public.res_users:id</title>
<path fill="none" stroke="#000000" d="M714.5911,-966.7828C815.5026,-952.1191 812.1389,-717.5 704.5,-717.5"/>
<polygon fill="#000000" stroke="#000000" points="714.4748,-966.791 704.181,-963.0113 709.4874,-967.1455 704.5,-967.5 704.5,-967.5 704.5,-967.5 709.4874,-967.1455 704.819,-971.9887 714.4748,-966.791 714.4748,-966.791"/>
<text text-anchor="start" x="711.497" y="-977.5" font-family="Arial" font-size="10.00" fill="#000000">FOREIGN KEY (write_uid) REFERENCES res_users(id) ON DELETE SET NULL</text>
</g>
<!-- public.crm_lead -->
<g id="node2" class="node">
<title>public.crm_lead</title>
<polygon fill="#efefef" stroke="transparent" points="390.5,-2942.5 390.5,-2977.5 742.5,-2977.5 742.5,-2942.5 390.5,-2942.5"/>
<polygon fill="none" stroke="#000000" points="390.5,-2942.5 390.5,-2977.5 742.5,-2977.5 742.5,-2942.5 390.5,-2942.5"/>
<text text-anchor="start" x="454.8668" y="-2955.3" font-family="Arial Bold" font-size="18.00" fill="#000000">public.crm_lead</text>
<text text-anchor="start" x="580.8794" y="-2955.3" font-family="Arial" font-size="14.00" fill="#000000"> </text>
<text text-anchor="start" x="584.77" y="-2955.3" font-family="Arial" font-size="14.00" fill="#666666">[BASE TABLE]</text>
<polygon fill="none" stroke="#000000" points="390.5,-2912.5 390.5,-2942.5 742.5,-2942.5 742.5,-2912.5 390.5,-2912.5"/>
<text text-anchor="start" x="397.5" y="-2923.9" font-family="Arial" font-size="14.00" fill="#000000">id </text>
<text text-anchor="start" x="412.2798" y="-2923.9" font-family="Arial" font-size="14.00" fill="#666666">[integer]</text>
<polygon fill="none" stroke="#000000" points="390.5,-2882.5 390.5,-2912.5 742.5,-2912.5 742.5,-2882.5 390.5,-2882.5"/>
<text text-anchor="start" x="397.5" y="-2893.9" font-family="Arial" font-size="14.00" fill="#000000">campaign_id </text>
<text text-anchor="start" x="480.7426" y="-2893.9" font-family="Arial" font-size="14.00" fill="#666666">[integer]</text>
<polygon fill="none" stroke="#000000" points="390.5,-2852.5 390.5,-2882.5 742.5,-2882.5 742.5,-2852.5 390.5,-2852.5"/>
<text text-anchor="start" x="397.5" y="-2863.9" font-family="Arial" font-size="14.00" fill="#000000">source_id </text>
<text text-anchor="start" x="462.0708" y="-2863.9" font-family="Arial" font-size="14.00" fill="#666666">[integer]</text>
<polygon fill="none" stroke="#000000" points="390.5,-2822.5 390.5,-2852.5 742.5,-2852.5 742.5,-2822.5 390.5,-2822.5"/>
<text text-anchor="start" x="397.5" y="-2833.9" font-family="Arial" font-size="14.00" fill="#000000">medium_id </text>
<text text-anchor="start" x="469.838" y="-2833.9" font-family="Arial" font-size="14.00" fill="#666666">[integer]</text>
<polygon fill="none" stroke="#000000" points="390.5,-2792.5 390.5,-2822.5 742.5,-2822.5 742.5,-2792.5 390.5,-2792.5"/>
<text text-anchor="start" x="397.5" y="-2803.9" font-family="Arial" font-size="14.00" fill="#000000">message_main_attachment_id </text>
<text text-anchor="start" x="591.9964" y="-2803.9" font-family="Arial" font-size="14.00" fill="#666666">[integer]</text>
<polygon fill="none" stroke="#000000" points="390.5,-2762.5 390.5,-2792.5 742.5,-2792.5 742.5,-2762.5 390.5,-2762.5"/>
<text text-anchor="start" x="397.5" y="-2773.9" font-family="Arial" font-size="14.00" fill="#000000">name </text>
<text text-anchor="start" x="436.399" y="-2773.9" font-family="Arial" font-size="14.00" fill="#666666">[varchar]</text>
<polygon fill="none" stroke="#000000" points="390.5,-2732.5 390.5,-2762.5 742.5,-2762.5 742.5,-2732.5 390.5,-2732.5"/>
<text text-anchor="start" x="397.5" y="-2743.9" font-family="Arial" font-size="14.00" fill="#000000">partner_id </text>
<text text-anchor="start" x="464.4046" y="-2743.9" font-family="Arial" font-size="14.00" fill="#666666">[integer]</text>
<polygon fill="none" stroke="#000000" points="390.5,-2702.5 390.5,-2732.5 742.5,-2732.5 742.5,-2702.5 390.5,-2702.5"/>
<text text-anchor="start" x="397.5" y="-2713.9" font-family="Arial" font-size="14.00" fill="#000000">active </text>
<text text-anchor="start" x="437.953" y="-2713.9" font-family="Arial" font-size="14.00" fill="#666666">[boolean]</text>
<polygon fill="none" stroke="#000000" points="390.5,-2672.5 390.5,-2702.5 742.5,-2702.5 742.5,-2672.5 390.5,-2672.5"/>
<text text-anchor="start" x="397.5" y="-2683.9" font-family="Arial" font-size="14.00" fill="#000000">date_action_last </text>
<text text-anchor="start" x="503.319" y="-2683.9" font-family="Arial" font-size="14.00" fill="#666666">[timestamp without time zone]</text>
<polygon fill="none" stroke="#000000" points="390.5,-2642.5 390.5,-2672.5 742.5,-2672.5 742.5,-2642.5 390.5,-2642.5"/>
<text text-anchor="start" x="397.5" y="-2653.9" font-family="Arial" font-size="14.00" fill="#000000">email_from </text>
<text text-anchor="start" x="470.6066" y="-2653.9" font-family="Arial" font-size="14.00" fill="#666666">[varchar]</text>
<polygon fill="none" stroke="#000000" points="390.5,-2612.5 390.5,-2642.5 742.5,-2642.5 742.5,-2612.5 390.5,-2612.5"/>
<text text-anchor="start" x="397.5" y="-2623.9" font-family="Arial" font-size="14.00" fill="#000000">website </text>
<text text-anchor="start" x="448.8422" y="-2623.9" font-family="Arial" font-size="14.00" fill="#666666">[varchar]</text>
<polygon fill="none" stroke="#000000" points="390.5,-2582.5 390.5,-2612.5 742.5,-2612.5 742.5,-2582.5 390.5,-2582.5"/>
<text text-anchor="start" x="397.5" y="-2593.9" font-family="Arial" font-size="14.00" fill="#000000">team_id </text>
<text text-anchor="start" x="451.1788" y="-2593.9" font-family="Arial" font-size="14.00" fill="#666666">[integer]</text>
<polygon fill="none" stroke="#000000" points="390.5,-2552.5 390.5,-2582.5 742.5,-2582.5 742.5,-2552.5 390.5,-2552.5"/>
<text text-anchor="start" x="397.5" y="-2563.9" font-family="Arial" font-size="14.00" fill="#000000">email_cc </text>
<text text-anchor="start" x="456.6122" y="-2563.9" font-family="Arial" font-size="14.00" fill="#666666">[text]</text>
<polygon fill="none" stroke="#000000" points="390.5,-2522.5 390.5,-2552.5 742.5,-2552.5 742.5,-2522.5 390.5,-2522.5"/>
<text text-anchor="start" x="397.5" y="-2533.9" font-family="Arial" font-size="14.00" fill="#000000">description </text>
<text text-anchor="start" x="469.068" y="-2533.9" font-family="Arial" font-size="14.00" fill="#666666">[text]</text>
<polygon fill="none" stroke="#000000" points="390.5,-2492.5 390.5,-2522.5 742.5,-2522.5 742.5,-2492.5 390.5,-2492.5"/>
<text text-anchor="start" x="397.5" y="-2503.9" font-family="Arial" font-size="14.00" fill="#000000">contact_name </text>
<text text-anchor="start" x="489.3106" y="-2503.9" font-family="Arial" font-size="14.00" fill="#666666">[varchar]</text>
<polygon fill="none" stroke="#000000" points="390.5,-2462.5 390.5,-2492.5 742.5,-2492.5 742.5,-2462.5 390.5,-2462.5"/>
<text text-anchor="start" x="397.5" y="-2473.9" font-family="Arial" font-size="14.00" fill="#000000">partner_name </text>
<text text-anchor="start" x="488.5238" y="-2473.9" font-family="Arial" font-size="14.00" fill="#666666">[varchar]</text>
<polygon fill="none" stroke="#000000" points="390.5,-2432.5 390.5,-2462.5 742.5,-2462.5 742.5,-2432.5 390.5,-2432.5"/>
<text text-anchor="start" x="397.5" y="-2443.9" font-family="Arial" font-size="14.00" fill="#000000">type </text>
<text text-anchor="start" x="427.8464" y="-2443.9" font-family="Arial" font-size="14.00" fill="#666666">[varchar]</text>
<polygon fill="none" stroke="#000000" points="390.5,-2402.5 390.5,-2432.5 742.5,-2432.5 742.5,-2402.5 390.5,-2402.5"/>
<text text-anchor="start" x="397.5" y="-2413.9" font-family="Arial" font-size="14.00" fill="#000000">priority </text>
<text text-anchor="start" x="443.3808" y="-2413.9" font-family="Arial" font-size="14.00" fill="#666666">[varchar]</text>
<polygon fill="none" stroke="#000000" points="390.5,-2372.5 390.5,-2402.5 742.5,-2402.5 742.5,-2372.5 390.5,-2372.5"/>
<text text-anchor="start" x="397.5" y="-2383.9" font-family="Arial" font-size="14.00" fill="#000000">date_closed </text>
<text text-anchor="start" x="476.866" y="-2383.9" font-family="Arial" font-size="14.00" fill="#666666">[timestamp without time zone]</text>
<polygon fill="none" stroke="#000000" points="390.5,-2342.5 390.5,-2372.5 742.5,-2372.5 742.5,-2342.5 390.5,-2342.5"/>
<text text-anchor="start" x="397.5" y="-2353.9" font-family="Arial" font-size="14.00" fill="#000000">stage_id </text>
<text text-anchor="start" x="454.3008" y="-2353.9" font-family="Arial" font-size="14.00" fill="#666666">[integer]</text>
<polygon fill="none" stroke="#000000" points="390.5,-2312.5 390.5,-2342.5 742.5,-2342.5 742.5,-2312.5 390.5,-2312.5"/>
<text text-anchor="start" x="397.5" y="-2323.9" font-family="Arial" font-size="14.00" fill="#000000">user_id </text>
<text text-anchor="start" x="447.2882" y="-2323.9" font-family="Arial" font-size="14.00" fill="#666666">[integer]</text>
<polygon fill="none" stroke="#000000" points="390.5,-2282.5 390.5,-2312.5 742.5,-2312.5 742.5,-2282.5 390.5,-2282.5"/>
<text text-anchor="start" x="397.5" y="-2293.9" font-family="Arial" font-size="14.00" fill="#000000">referred </text>
<text text-anchor="start" x="450.3934" y="-2293.9" font-family="Arial" font-size="14.00" fill="#666666">[varchar]</text>
<polygon fill="none" stroke="#000000" points="390.5,-2252.5 390.5,-2282.5 742.5,-2282.5 742.5,-2252.5 390.5,-2252.5"/>
<text text-anchor="start" x="397.5" y="-2263.9" font-family="Arial" font-size="14.00" fill="#000000">date_open </text>
<text text-anchor="start" x="467.542" y="-2263.9" font-family="Arial" font-size="14.00" fill="#666666">[timestamp without time zone]</text>
<polygon fill="none" stroke="#000000" points="390.5,-2222.5 390.5,-2252.5 742.5,-2252.5 742.5,-2222.5 390.5,-2222.5"/>
<text text-anchor="start" x="397.5" y="-2233.9" font-family="Arial" font-size="14.00" fill="#000000">day_open </text>
<text text-anchor="start" x="462.8688" y="-2233.9" font-family="Arial" font-size="14.00" fill="#666666">[double precision]</text>
<polygon fill="none" stroke="#000000" points="390.5,-2192.5 390.5,-2222.5 742.5,-2222.5 742.5,-2192.5 390.5,-2192.5"/>
<text text-anchor="start" x="397.5" y="-2203.9" font-family="Arial" font-size="14.00" fill="#000000">day_close </text>
<text text-anchor="start" x="464.4102" y="-2203.9" font-family="Arial" font-size="14.00" fill="#666666">[double precision]</text>
<polygon fill="none" stroke="#000000" points="390.5,-2162.5 390.5,-2192.5 742.5,-2192.5 742.5,-2162.5 390.5,-2162.5"/>
<text text-anchor="start" x="397.2806" y="-2173.9" font-family="Arial" font-size="14.00" fill="#000000">date_last_stage_update </text>
<text text-anchor="start" x="550.5792" y="-2173.9" font-family="Arial" font-size="14.00" fill="#666666">[timestamp without time zone]</text>
<polygon fill="none" stroke="#000000" points="390.5,-2132.5 390.5,-2162.5 742.5,-2162.5 742.5,-2132.5 390.5,-2132.5"/>
<text text-anchor="start" x="397.5" y="-2143.9" font-family="Arial" font-size="14.00" fill="#000000">date_conversion </text>
<text text-anchor="start" x="504.0918" y="-2143.9" font-family="Arial" font-size="14.00" fill="#666666">[timestamp without time zone]</text>
<polygon fill="none" stroke="#000000" points="390.5,-2102.5 390.5,-2132.5 742.5,-2132.5 742.5,-2102.5 390.5,-2102.5"/>
<text text-anchor="start" x="397.5" y="-2113.9" font-family="Arial" font-size="14.00" fill="#000000">message_bounce </text>
<text text-anchor="start" x="511.8772" y="-2113.9" font-family="Arial" font-size="14.00" fill="#666666">[integer]</text>
<polygon fill="none" stroke="#000000" points="390.5,-2072.5 390.5,-2102.5 742.5,-2102.5 742.5,-2072.5 390.5,-2072.5"/>
<text text-anchor="start" x="397.5" y="-2083.9" font-family="Arial" font-size="14.00" fill="#000000">probability </text>
<text text-anchor="start" x="465.1746" y="-2083.9" font-family="Arial" font-size="14.00" fill="#666666">[double precision]</text>
<polygon fill="none" stroke="#000000" points="390.5,-2042.5 390.5,-2072.5 742.5,-2072.5 742.5,-2042.5 390.5,-2042.5"/>
<text text-anchor="start" x="397.5" y="-2053.9" font-family="Arial" font-size="14.00" fill="#000000">planned_revenue </text>
<text text-anchor="start" x="509.549" y="-2053.9" font-family="Arial" font-size="14.00" fill="#666666">[numeric]</text>
<polygon fill="none" stroke="#000000" points="390.5,-2012.5 390.5,-2042.5 742.5,-2042.5 742.5,-2012.5 390.5,-2012.5"/>
<text text-anchor="start" x="397.5" y="-2023.9" font-family="Arial" font-size="14.00" fill="#000000">expected_revenue </text>
<text text-anchor="start" x="516.5504" y="-2023.9" font-family="Arial" font-size="14.00" fill="#666666">[numeric]</text>
<polygon fill="none" stroke="#000000" points="390.5,-1982.5 390.5,-2012.5 742.5,-2012.5 742.5,-1982.5 390.5,-1982.5"/>
<text text-anchor="start" x="397.5" y="-1993.9" font-family="Arial" font-size="14.00" fill="#000000">date_deadline </text>
<text text-anchor="start" x="489.3204" y="-1993.9" font-family="Arial" font-size="14.00" fill="#666666">[date]</text>
<polygon fill="none" stroke="#000000" points="390.5,-1952.5 390.5,-1982.5 742.5,-1982.5 742.5,-1952.5 390.5,-1952.5"/>
<text text-anchor="start" x="397.5" y="-1963.9" font-family="Arial" font-size="14.00" fill="#000000">color </text>
<text text-anchor="start" x="431.723" y="-1963.9" font-family="Arial" font-size="14.00" fill="#666666">[integer]</text>
<polygon fill="none" stroke="#000000" points="390.5,-1922.5 390.5,-1952.5 742.5,-1952.5 742.5,-1922.5 390.5,-1922.5"/>
<text text-anchor="start" x="397.5" y="-1933.9" font-family="Arial" font-size="14.00" fill="#000000">street </text>
<text text-anchor="start" x="436.3976" y="-1933.9" font-family="Arial" font-size="14.00" fill="#666666">[varchar]</text>
<polygon fill="none" stroke="#000000" points="390.5,-1892.5 390.5,-1922.5 742.5,-1922.5 742.5,-1892.5 390.5,-1892.5"/>
<text text-anchor="start" x="397.5" y="-1903.9" font-family="Arial" font-size="14.00" fill="#000000">street2 </text>
<text text-anchor="start" x="444.1802" y="-1903.9" font-family="Arial" font-size="14.00" fill="#666666">[varchar]</text>
<polygon fill="none" stroke="#000000" points="390.5,-1862.5 390.5,-1892.5 742.5,-1892.5 742.5,-1862.5 390.5,-1862.5"/>
<text text-anchor="start" x="397.5" y="-1873.9" font-family="Arial" font-size="14.00" fill="#000000">zip </text>
<text text-anchor="start" x="419.2798" y="-1873.9" font-family="Arial" font-size="14.00" fill="#666666">[varchar]</text>
<polygon fill="none" stroke="#000000" points="390.5,-1832.5 390.5,-1862.5 742.5,-1862.5 742.5,-1832.5 390.5,-1832.5"/>
<text text-anchor="start" x="397.5" y="-1843.9" font-family="Arial" font-size="14.00" fill="#000000">city </text>
<text text-anchor="start" x="422.3878" y="-1843.9" font-family="Arial" font-size="14.00" fill="#666666">[varchar]</text>
<polygon fill="none" stroke="#000000" points="390.5,-1802.5 390.5,-1832.5 742.5,-1832.5 742.5,-1802.5 390.5,-1802.5"/>
<text text-anchor="start" x="397.5" y="-1813.9" font-family="Arial" font-size="14.00" fill="#000000">state_id </text>
<text text-anchor="start" x="450.4088" y="-1813.9" font-family="Arial" font-size="14.00" fill="#666666">[integer]</text>
<polygon fill="none" stroke="#000000" points="390.5,-1772.5 390.5,-1802.5 742.5,-1802.5 742.5,-1772.5 390.5,-1772.5"/>
<text text-anchor="start" x="397.5" y="-1783.9" font-family="Arial" font-size="14.00" fill="#000000">country_id </text>
<text text-anchor="start" x="465.9614" y="-1783.9" font-family="Arial" font-size="14.00" fill="#666666">[integer]</text>
<polygon fill="none" stroke="#000000" points="390.5,-1742.5 390.5,-1772.5 742.5,-1772.5 742.5,-1742.5 390.5,-1742.5"/>
<text text-anchor="start" x="397.5" y="-1753.9" font-family="Arial" font-size="14.00" fill="#000000">phone </text>
<text text-anchor="start" x="440.3036" y="-1753.9" font-family="Arial" font-size="14.00" fill="#666666">[varchar]</text>
<polygon fill="none" stroke="#000000" points="390.5,-1712.5 390.5,-1742.5 742.5,-1742.5 742.5,-1712.5 390.5,-1712.5"/>
<text text-anchor="start" x="397.5" y="-1723.9" font-family="Arial" font-size="14.00" fill="#000000">mobile </text>
<text text-anchor="start" x="442.6122" y="-1723.9" font-family="Arial" font-size="14.00" fill="#666666">[varchar]</text>
<polygon fill="none" stroke="#000000" points="390.5,-1682.5 390.5,-1712.5 742.5,-1712.5 742.5,-1682.5 390.5,-1682.5"/>
<text text-anchor="start" x="397.5" y="-1693.9" font-family="Arial" font-size="14.00" fill="#000000">function </text>
<text text-anchor="start" x="450.4088" y="-1693.9" font-family="Arial" font-size="14.00" fill="#666666">[varchar]</text>
<polygon fill="none" stroke="#000000" points="390.5,-1652.5 390.5,-1682.5 742.5,-1682.5 742.5,-1652.5 390.5,-1652.5"/>
<text text-anchor="start" x="397.5" y="-1663.9" font-family="Arial" font-size="14.00" fill="#000000">title </text>
<text text-anchor="start" x="423.1676" y="-1663.9" font-family="Arial" font-size="14.00" fill="#666666">[integer]</text>
<polygon fill="none" stroke="#000000" points="390.5,-1622.5 390.5,-1652.5 742.5,-1652.5 742.5,-1622.5 390.5,-1622.5"/>
<text text-anchor="start" x="397.5" y="-1633.9" font-family="Arial" font-size="14.00" fill="#000000">company_id </text>
<text text-anchor="start" x="476.8534" y="-1633.9" font-family="Arial" font-size="14.00" fill="#666666">[integer]</text>
<polygon fill="none" stroke="#000000" points="390.5,-1592.5 390.5,-1622.5 742.5,-1622.5 742.5,-1592.5 390.5,-1592.5"/>
<text text-anchor="start" x="397.5" y="-1603.9" font-family="Arial" font-size="14.00" fill="#000000">lost_reason </text>
<text text-anchor="start" x="473.744" y="-1603.9" font-family="Arial" font-size="14.00" fill="#666666">[integer]</text>
<polygon fill="none" stroke="#000000" points="390.5,-1562.5 390.5,-1592.5 742.5,-1592.5 742.5,-1562.5 390.5,-1562.5"/>
<text text-anchor="start" x="397.5" y="-1573.9" font-family="Arial" font-size="14.00" fill="#000000">create_uid </text>
<text text-anchor="start" x="466.744" y="-1573.9" font-family="Arial" font-size="14.00" fill="#666666">[integer]</text>
<polygon fill="none" stroke="#000000" points="390.5,-1532.5 390.5,-1562.5 742.5,-1562.5 742.5,-1532.5 390.5,-1532.5"/>
<text text-anchor="start" x="397.5" y="-1543.9" font-family="Arial" font-size="14.00" fill="#000000">create_date </text>
<text text-anchor="start" x="475.3106" y="-1543.9" font-family="Arial" font-size="14.00" fill="#666666">[timestamp without time zone]</text>
<polygon fill="none" stroke="#000000" points="390.5,-1502.5 390.5,-1532.5 742.5,-1532.5 742.5,-1502.5 390.5,-1502.5"/>
<text text-anchor="start" x="397.5" y="-1513.9" font-family="Arial" font-size="14.00" fill="#000000">write_uid </text>
<text text-anchor="start" x="457.392" y="-1513.9" font-family="Arial" font-size="14.00" fill="#666666">[integer]</text>
<polygon fill="none" stroke="#000000" points="390.5,-1472.5 390.5,-1502.5 742.5,-1502.5 742.5,-1472.5 390.5,-1472.5"/>
<text text-anchor="start" x="397.5" y="-1483.9" font-family="Arial" font-size="14.00" fill="#000000">write_date </text>
<text text-anchor="start" x="465.9586" y="-1483.9" font-family="Arial" font-size="14.00" fill="#666666">[timestamp without time zone]</text>
</g>
<!-- public.crm_lead&#45;&gt;public.crm_stage -->
<g id="edge1" class="edge">
<title>public.crm_lead:stage_id&#45;&gt;public.crm_stage:id</title>
<path fill="none" stroke="#000000" d="M752.4588,-2354.8239C858.0583,-2296.3004 818.9007,-1297.5 704.5,-1297.5"/>
<polygon fill="#000000" stroke="#000000" points="752.1574,-2354.9048 741.3322,-2353.1542 747.3287,-2356.2024 742.5,-2357.5 742.5,-2357.5 742.5,-2357.5 747.3287,-2356.2024 743.6678,-2361.8458 752.1574,-2354.9048 752.1574,-2354.9048"/>
<text text-anchor="start" x="749.1065" y="-2367.5" font-family="Arial" font-size="10.00" fill="#000000">FOREIGN KEY (stage_id) REFERENCES crm_stage(id) ON DELETE RESTRICT</text>
</g>
</g>
</svg>
