<?xml version="1.0" encoding="UTF-8" standalone="no"?>
<!DOCTYPE svg PUBLIC "-//W3C//DTD SVG 1.1//EN"
 "http://www.w3.org/Graphics/SVG/1.1/DTD/svg11.dtd">
<!-- Generated by graphviz version 2.40.1 (20161225.0304)
 -->
<!-- Title: public.account_tax_sale_advance_payment_inv_rel Pages: 1 -->
<svg width="1493pt" height="1012pt"
 viewBox="0.00 0.00 1493.00 1012.00" xmlns="http://www.w3.org/2000/svg" xmlns:xlink="http://www.w3.org/1999/xlink">
<g id="graph0" class="graph" transform="scale(1 1) rotate(0) translate(4 1008)">
<title>public.account_tax_sale_advance_payment_inv_rel</title>
<polygon fill="#ffffff" stroke="transparent" points="-4,4 -4,-1008 1489,-1008 1489,4 -4,4"/>
<!-- public.account_tax_sale_advance_payment_inv_rel -->
<g id="node1" class="node">
<title>public.account_tax_sale_advance_payment_inv_rel</title>
<polygon fill="#efefef" stroke="transparent" points="551,-922.5 551,-957.5 1074,-957.5 1074,-922.5 551,-922.5"/>
<polygon fill="none" stroke="#000000" points="551,-922.5 551,-957.5 1074,-957.5 1074,-922.5 551,-922.5"/>
<text text-anchor="start" x="557.8073" y="-935.3" font-family="Arial Bold" font-size="18.00" fill="#000000">public.account_tax_sale_advance_payment_inv_rel</text>
<text text-anchor="start" x="969.9389" y="-935.3" font-family="Arial" font-size="14.00" fill="#000000"> </text>
<text text-anchor="start" x="973.8295" y="-935.3" font-family="Arial" font-size="14.00" fill="#666666">[BASE TABLE]</text>
<polygon fill="none" stroke="#000000" points="551,-892.5 551,-922.5 1074,-922.5 1074,-892.5 551,-892.5"/>
<text text-anchor="start" x="558" y="-903.9" font-family="Arial" font-size="14.00" fill="#000000">sale_advance_payment_inv_id </text>
<text text-anchor="start" x="754.0658" y="-903.9" font-family="Arial" font-size="14.00" fill="#666666">[integer]</text>
<polygon fill="none" stroke="#000000" points="551,-862.5 551,-892.5 1074,-892.5 1074,-862.5 551,-862.5"/>
<text text-anchor="start" x="558" y="-873.9" font-family="Arial" font-size="14.00" fill="#000000">account_tax_id </text>
<text text-anchor="start" x="656.0392" y="-873.9" font-family="Arial" font-size="14.00" fill="#666666">[integer]</text>
<polygon fill="none" stroke="#000000" stroke-width="3" points="549,-861.5 549,-959.5 1075,-959.5 1075,-861.5 549,-861.5"/>
</g>
<!-- public.sale_advance_payment_inv -->
<g id="node2" class="node">
<title>public.sale_advance_payment_inv</title>
<polygon fill="#efefef" stroke="transparent" points="403,-522.5 403,-557.5 789,-557.5 789,-522.5 403,-522.5"/>
<polygon fill="none" stroke="#000000" points="403,-522.5 403,-557.5 789,-557.5 789,-522.5 403,-522.5"/>
<text text-anchor="start" x="409.8306" y="-535.3" font-family="Arial Bold" font-size="18.00" fill="#000000">public.sale_advance_payment_inv</text>
<text text-anchor="start" x="684.9156" y="-535.3" font-family="Arial" font-size="14.00" fill="#000000"> </text>
<text text-anchor="start" x="688.8062" y="-535.3" font-family="Arial" font-size="14.00" fill="#666666">[BASE TABLE]</text>
<polygon fill="none" stroke="#000000" points="403,-492.5 403,-522.5 789,-522.5 789,-492.5 403,-492.5"/>
<text text-anchor="start" x="410" y="-503.9" font-family="Arial" font-size="14.00" fill="#000000">id </text>
<text text-anchor="start" x="424.7798" y="-503.9" font-family="Arial" font-size="14.00" fill="#666666">[integer]</text>
<polygon fill="none" stroke="#000000" points="403,-462.5 403,-492.5 789,-492.5 789,-462.5 403,-462.5"/>
<text text-anchor="start" x="410" y="-473.9" font-family="Arial" font-size="14.00" fill="#000000">advance_payment_method </text>
<text text-anchor="start" x="582.732" y="-473.9" font-family="Arial" font-size="14.00" fill="#666666">[varchar]</text>
<polygon fill="none" stroke="#000000" points="403,-432.5 403,-462.5 789,-462.5 789,-432.5 403,-432.5"/>
<text text-anchor="start" x="410" y="-443.9" font-family="Arial" font-size="14.00" fill="#000000">product_id </text>
<text text-anchor="start" x="479.244" y="-443.9" font-family="Arial" font-size="14.00" fill="#666666">[integer]</text>
<polygon fill="none" stroke="#000000" points="403,-402.5 403,-432.5 789,-432.5 789,-402.5 403,-402.5"/>
<text text-anchor="start" x="410" y="-413.9" font-family="Arial" font-size="14.00" fill="#000000">count </text>
<text text-anchor="start" x="448.129" y="-413.9" font-family="Arial" font-size="14.00" fill="#666666">[integer]</text>
<polygon fill="none" stroke="#000000" points="403,-372.5 403,-402.5 789,-402.5 789,-372.5 403,-372.5"/>
<text text-anchor="start" x="410" y="-383.9" font-family="Arial" font-size="14.00" fill="#000000">amount </text>
<text text-anchor="start" x="460.5722" y="-383.9" font-family="Arial" font-size="14.00" fill="#666666">[numeric]</text>
<polygon fill="none" stroke="#000000" points="403,-342.5 403,-372.5 789,-372.5 789,-342.5 403,-342.5"/>
<text text-anchor="start" x="410" y="-353.9" font-family="Arial" font-size="14.00" fill="#000000">deposit_account_id </text>
<text text-anchor="start" x="534.4936" y="-353.9" font-family="Arial" font-size="14.00" fill="#666666">[integer]</text>
<polygon fill="none" stroke="#000000" points="403,-312.5 403,-342.5 789,-342.5 789,-312.5 403,-312.5"/>
<text text-anchor="start" x="410" y="-323.9" font-family="Arial" font-size="14.00" fill="#000000">create_uid </text>
<text text-anchor="start" x="479.244" y="-323.9" font-family="Arial" font-size="14.00" fill="#666666">[integer]</text>
<polygon fill="none" stroke="#000000" points="403,-282.5 403,-312.5 789,-312.5 789,-282.5 403,-282.5"/>
<text text-anchor="start" x="410" y="-293.9" font-family="Arial" font-size="14.00" fill="#000000">create_date </text>
<text text-anchor="start" x="487.8106" y="-293.9" font-family="Arial" font-size="14.00" fill="#666666">[timestamp without time zone]</text>
<polygon fill="none" stroke="#000000" points="403,-252.5 403,-282.5 789,-282.5 789,-252.5 403,-252.5"/>
<text text-anchor="start" x="410" y="-263.9" font-family="Arial" font-size="14.00" fill="#000000">write_uid </text>
<text text-anchor="start" x="469.892" y="-263.9" font-family="Arial" font-size="14.00" fill="#666666">[integer]</text>
<polygon fill="none" stroke="#000000" points="403,-222.5 403,-252.5 789,-252.5 789,-222.5 403,-222.5"/>
<text text-anchor="start" x="410" y="-233.9" font-family="Arial" font-size="14.00" fill="#000000">write_date </text>
<text text-anchor="start" x="478.4586" y="-233.9" font-family="Arial" font-size="14.00" fill="#666666">[timestamp without time zone]</text>
</g>
<!-- public.account_tax_sale_advance_payment_inv_rel&#45;&gt;public.sale_advance_payment_inv -->
<g id="edge1" class="edge">
<title>public.account_tax_sale_advance_payment_inv_rel:sale_advance_payment_inv_id&#45;&gt;public.sale_advance_payment_inv:id</title>
<path fill="none" stroke="#000000" d="M540.9848,-906.0288C515.3796,-897.1688 536.3031,-850.1855 551,-817 608.8435,-686.3896 731.1565,-731.6104 789,-601 805.8274,-563.0039 830.5556,-507.5 789,-507.5"/>
<polygon fill="#000000" stroke="#000000" points="541.1062,-906.0465 550.3459,-911.9522 546.0531,-906.7733 551,-907.5 551,-907.5 551,-907.5 546.0531,-906.7733 551.6541,-903.0478 541.1062,-906.0465 541.1062,-906.0465"/>
<text text-anchor="start" x="7.0695" y="-917.5" font-family="Arial" font-size="10.00" fill="#000000">FOREIGN KEY (sale_advance_payment_inv_id) REFERENCES sale_advance_payment_inv(id) ON DELETE CASCADE</text>
</g>
<!-- public.account_tax -->
<g id="node3" class="node">
<title>public.account_tax</title>
<polygon fill="#efefef" stroke="transparent" points="893,-702.5 893,-737.5 1169,-737.5 1169,-702.5 893,-702.5"/>
<polygon fill="none" stroke="#000000" points="893,-702.5 893,-737.5 1169,-737.5 1169,-702.5 893,-702.5"/>
<text text-anchor="start" x="907.8477" y="-715.3" font-family="Arial Bold" font-size="18.00" fill="#000000">public.account_tax</text>
<text text-anchor="start" x="1056.8985" y="-715.3" font-family="Arial" font-size="14.00" fill="#000000"> </text>
<text text-anchor="start" x="1060.7891" y="-715.3" font-family="Arial" font-size="14.00" fill="#666666">[BASE TABLE]</text>
<polygon fill="none" stroke="#000000" points="893,-672.5 893,-702.5 1169,-702.5 1169,-672.5 893,-672.5"/>
<text text-anchor="start" x="900" y="-683.9" font-family="Arial" font-size="14.00" fill="#000000">id </text>
<text text-anchor="start" x="914.7798" y="-683.9" font-family="Arial" font-size="14.00" fill="#666666">[integer]</text>
<polygon fill="none" stroke="#000000" points="893,-642.5 893,-672.5 1169,-672.5 1169,-642.5 893,-642.5"/>
<text text-anchor="start" x="900" y="-653.9" font-family="Arial" font-size="14.00" fill="#000000">name </text>
<text text-anchor="start" x="938.899" y="-653.9" font-family="Arial" font-size="14.00" fill="#666666">[varchar]</text>
<polygon fill="none" stroke="#000000" points="893,-612.5 893,-642.5 1169,-642.5 1169,-612.5 893,-612.5"/>
<text text-anchor="start" x="900" y="-623.9" font-family="Arial" font-size="14.00" fill="#000000">type_tax_use </text>
<text text-anchor="start" x="987.15" y="-623.9" font-family="Arial" font-size="14.00" fill="#666666">[varchar]</text>
<polygon fill="none" stroke="#000000" points="893,-582.5 893,-612.5 1169,-612.5 1169,-582.5 893,-582.5"/>
<text text-anchor="start" x="900" y="-593.9" font-family="Arial" font-size="14.00" fill="#000000">amount_type </text>
<text text-anchor="start" x="984.8106" y="-593.9" font-family="Arial" font-size="14.00" fill="#666666">[varchar]</text>
<polygon fill="none" stroke="#000000" points="893,-552.5 893,-582.5 1169,-582.5 1169,-552.5 893,-552.5"/>
<text text-anchor="start" x="900" y="-563.9" font-family="Arial" font-size="14.00" fill="#000000">active </text>
<text text-anchor="start" x="940.453" y="-563.9" font-family="Arial" font-size="14.00" fill="#666666">[boolean]</text>
<polygon fill="none" stroke="#000000" points="893,-522.5 893,-552.5 1169,-552.5 1169,-522.5 893,-522.5"/>
<text text-anchor="start" x="900" y="-533.9" font-family="Arial" font-size="14.00" fill="#000000">company_id </text>
<text text-anchor="start" x="979.3534" y="-533.9" font-family="Arial" font-size="14.00" fill="#666666">[integer]</text>
<polygon fill="none" stroke="#000000" points="893,-492.5 893,-522.5 1169,-522.5 1169,-492.5 893,-492.5"/>
<text text-anchor="start" x="900" y="-503.9" font-family="Arial" font-size="14.00" fill="#000000">sequence </text>
<text text-anchor="start" x="964.5862" y="-503.9" font-family="Arial" font-size="14.00" fill="#666666">[integer]</text>
<polygon fill="none" stroke="#000000" points="893,-462.5 893,-492.5 1169,-492.5 1169,-462.5 893,-462.5"/>
<text text-anchor="start" x="900" y="-473.9" font-family="Arial" font-size="14.00" fill="#000000">amount </text>
<text text-anchor="start" x="950.5722" y="-473.9" font-family="Arial" font-size="14.00" fill="#666666">[numeric]</text>
<polygon fill="none" stroke="#000000" points="893,-432.5 893,-462.5 1169,-462.5 1169,-432.5 893,-432.5"/>
<text text-anchor="start" x="900" y="-443.9" font-family="Arial" font-size="14.00" fill="#000000">account_id </text>
<text text-anchor="start" x="971.5834" y="-443.9" font-family="Arial" font-size="14.00" fill="#666666">[integer]</text>
<polygon fill="none" stroke="#000000" points="893,-402.5 893,-432.5 1169,-432.5 1169,-402.5 893,-402.5"/>
<text text-anchor="start" x="900" y="-413.9" font-family="Arial" font-size="14.00" fill="#000000">refund_account_id </text>
<text text-anchor="start" x="1019.0476" y="-413.9" font-family="Arial" font-size="14.00" fill="#666666">[integer]</text>
<polygon fill="none" stroke="#000000" points="893,-372.5 893,-402.5 1169,-402.5 1169,-372.5 893,-372.5"/>
<text text-anchor="start" x="900" y="-383.9" font-family="Arial" font-size="14.00" fill="#000000">description </text>
<text text-anchor="start" x="971.568" y="-383.9" font-family="Arial" font-size="14.00" fill="#666666">[varchar]</text>
<polygon fill="none" stroke="#000000" points="893,-342.5 893,-372.5 1169,-372.5 1169,-342.5 893,-342.5"/>
<text text-anchor="start" x="900" y="-353.9" font-family="Arial" font-size="14.00" fill="#000000">price_include </text>
<text text-anchor="start" x="986.3492" y="-353.9" font-family="Arial" font-size="14.00" fill="#666666">[boolean]</text>
<polygon fill="none" stroke="#000000" points="893,-312.5 893,-342.5 1169,-342.5 1169,-312.5 893,-312.5"/>
<text text-anchor="start" x="900" y="-323.9" font-family="Arial" font-size="14.00" fill="#000000">include_base_amount </text>
<text text-anchor="start" x="1040.8288" y="-323.9" font-family="Arial" font-size="14.00" fill="#666666">[boolean]</text>
<polygon fill="none" stroke="#000000" points="893,-282.5 893,-312.5 1169,-312.5 1169,-282.5 893,-282.5"/>
<text text-anchor="start" x="900" y="-293.9" font-family="Arial" font-size="14.00" fill="#000000">analytic </text>
<text text-anchor="start" x="951.3422" y="-293.9" font-family="Arial" font-size="14.00" fill="#666666">[boolean]</text>
<polygon fill="none" stroke="#000000" points="893,-252.5 893,-282.5 1169,-282.5 1169,-252.5 893,-252.5"/>
<text text-anchor="start" x="900" y="-263.9" font-family="Arial" font-size="14.00" fill="#000000">tax_group_id </text>
<text text-anchor="start" x="984.8092" y="-263.9" font-family="Arial" font-size="14.00" fill="#666666">[integer]</text>
<polygon fill="none" stroke="#000000" points="893,-222.5 893,-252.5 1169,-252.5 1169,-222.5 893,-222.5"/>
<text text-anchor="start" x="900" y="-233.9" font-family="Arial" font-size="14.00" fill="#000000">tax_exigibility </text>
<text text-anchor="start" x="987.1178" y="-233.9" font-family="Arial" font-size="14.00" fill="#666666">[varchar]</text>
<polygon fill="none" stroke="#000000" points="893,-192.5 893,-222.5 1169,-222.5 1169,-192.5 893,-192.5"/>
<text text-anchor="start" x="900" y="-203.9" font-family="Arial" font-size="14.00" fill="#000000">cash_basis_account_id </text>
<text text-anchor="start" x="1049.3856" y="-203.9" font-family="Arial" font-size="14.00" fill="#666666">[integer]</text>
<polygon fill="none" stroke="#000000" points="893,-162.5 893,-192.5 1169,-192.5 1169,-162.5 893,-162.5"/>
<text text-anchor="start" x="900" y="-173.9" font-family="Arial" font-size="14.00" fill="#000000">cash_basis_base_account_id </text>
<text text-anchor="start" x="1087.516" y="-173.9" font-family="Arial" font-size="14.00" fill="#666666">[integer]</text>
<polygon fill="none" stroke="#000000" points="893,-132.5 893,-162.5 1169,-162.5 1169,-132.5 893,-132.5"/>
<text text-anchor="start" x="900" y="-143.9" font-family="Arial" font-size="14.00" fill="#000000">create_uid </text>
<text text-anchor="start" x="969.244" y="-143.9" font-family="Arial" font-size="14.00" fill="#666666">[integer]</text>
<polygon fill="none" stroke="#000000" points="893,-102.5 893,-132.5 1169,-132.5 1169,-102.5 893,-102.5"/>
<text text-anchor="start" x="899.5246" y="-113.9" font-family="Arial" font-size="14.00" fill="#000000">create_date </text>
<text text-anchor="start" x="977.3352" y="-113.9" font-family="Arial" font-size="14.00" fill="#666666">[timestamp without time zone]</text>
<polygon fill="none" stroke="#000000" points="893,-72.5 893,-102.5 1169,-102.5 1169,-72.5 893,-72.5"/>
<text text-anchor="start" x="900" y="-83.9" font-family="Arial" font-size="14.00" fill="#000000">write_uid </text>
<text text-anchor="start" x="959.892" y="-83.9" font-family="Arial" font-size="14.00" fill="#666666">[integer]</text>
<polygon fill="none" stroke="#000000" points="893,-42.5 893,-72.5 1169,-72.5 1169,-42.5 893,-42.5"/>
<text text-anchor="start" x="900" y="-53.9" font-family="Arial" font-size="14.00" fill="#000000">write_date </text>
<text text-anchor="start" x="968.4586" y="-53.9" font-family="Arial" font-size="14.00" fill="#666666">[timestamp without time zone]</text>
</g>
<!-- public.account_tax_sale_advance_payment_inv_rel&#45;&gt;public.account_tax -->
<g id="edge2" class="edge">
<title>public.account_tax_sale_advance_payment_inv_rel:account_tax_id&#45;&gt;public.account_tax:id</title>
<path fill="none" stroke="#000000" d="M1084.0273,-874.8149C1097.6404,-865.5513 1088.3929,-834.5376 1074,-817 1021.9664,-753.598 945.0336,-844.402 893,-781 866.6372,-748.8773 851.4444,-687.5 893,-687.5"/>
<polygon fill="#000000" stroke="#000000" points="1083.6597,-874.9133 1072.836,-873.1531 1078.8298,-876.2066 1074,-877.5 1074,-877.5 1074,-877.5 1078.8298,-876.2066 1075.164,-881.8469 1083.6597,-874.9133 1083.6597,-874.9133"/>
<text text-anchor="start" x="1081.0885" y="-887.5" font-family="Arial" font-size="10.00" fill="#000000">FOREIGN KEY (account_tax_id) REFERENCES account_tax(id) ON DELETE CASCADE</text>
</g>
</g>
</svg>
