<?xml version="1.0" encoding="UTF-8" standalone="no"?>
<!DOCTYPE svg PUBLIC "-//W3C//DTD SVG 1.1//EN"
 "http://www.w3.org/Graphics/SVG/1.1/DTD/svg11.dtd">
<!-- Generated by graphviz version 2.40.1 (20161225.0304)
 -->
<!-- Title: public.ir_model_relation Pages: 1 -->
<svg width="1316pt" height="1462pt"
 viewBox="0.00 0.00 1316.00 1462.00" xmlns="http://www.w3.org/2000/svg" xmlns:xlink="http://www.w3.org/1999/xlink">
<g id="graph0" class="graph" transform="scale(1 1) rotate(0) translate(4 1458)">
<title>public.ir_model_relation</title>
<polygon fill="#ffffff" stroke="transparent" points="-4,4 -4,-1458 1312,-1458 1312,4 -4,4"/>
<!-- public.ir_model_relation -->
<g id="node1" class="node">
<title>public.ir_model_relation</title>
<polygon fill="#efefef" stroke="transparent" points="627,-1372.5 627,-1407.5 928,-1407.5 928,-1372.5 627,-1372.5"/>
<polygon fill="none" stroke="#000000" points="627,-1372.5 627,-1407.5 928,-1407.5 928,-1372.5 627,-1372.5"/>
<text text-anchor="start" x="633.8628" y="-1385.3" font-family="Arial Bold" font-size="18.00" fill="#000000">public.ir_model_relation</text>
<text text-anchor="start" x="823.8834" y="-1385.3" font-family="Arial" font-size="14.00" fill="#000000"> </text>
<text text-anchor="start" x="827.774" y="-1385.3" font-family="Arial" font-size="14.00" fill="#666666">[BASE TABLE]</text>
<polygon fill="none" stroke="#000000" points="627,-1342.5 627,-1372.5 928,-1372.5 928,-1342.5 627,-1342.5"/>
<text text-anchor="start" x="634" y="-1353.9" font-family="Arial" font-size="14.00" fill="#000000">id </text>
<text text-anchor="start" x="648.7798" y="-1353.9" font-family="Arial" font-size="14.00" fill="#666666">[integer]</text>
<polygon fill="none" stroke="#000000" points="627,-1312.5 627,-1342.5 928,-1342.5 928,-1312.5 627,-1312.5"/>
<text text-anchor="start" x="634" y="-1323.9" font-family="Arial" font-size="14.00" fill="#000000">name </text>
<text text-anchor="start" x="672.899" y="-1323.9" font-family="Arial" font-size="14.00" fill="#666666">[varchar]</text>
<polygon fill="none" stroke="#000000" points="627,-1282.5 627,-1312.5 928,-1312.5 928,-1282.5 627,-1282.5"/>
<text text-anchor="start" x="634" y="-1293.9" font-family="Arial" font-size="14.00" fill="#000000">model </text>
<text text-anchor="start" x="676.0056" y="-1293.9" font-family="Arial" font-size="14.00" fill="#666666">[integer]</text>
<polygon fill="none" stroke="#000000" points="627,-1252.5 627,-1282.5 928,-1282.5 928,-1252.5 627,-1252.5"/>
<text text-anchor="start" x="634" y="-1263.9" font-family="Arial" font-size="14.00" fill="#000000">module </text>
<text text-anchor="start" x="683.7882" y="-1263.9" font-family="Arial" font-size="14.00" fill="#666666">[integer]</text>
<polygon fill="none" stroke="#000000" points="627,-1222.5 627,-1252.5 928,-1252.5 928,-1222.5 627,-1222.5"/>
<text text-anchor="start" x="634" y="-1233.9" font-family="Arial" font-size="14.00" fill="#000000">date_update </text>
<text text-anchor="start" x="715.7152" y="-1233.9" font-family="Arial" font-size="14.00" fill="#666666">[timestamp without time zone]</text>
<polygon fill="none" stroke="#000000" points="627,-1192.5 627,-1222.5 928,-1222.5 928,-1192.5 627,-1192.5"/>
<text text-anchor="start" x="634" y="-1203.9" font-family="Arial" font-size="14.00" fill="#000000">date_init </text>
<text text-anchor="start" x="690.798" y="-1203.9" font-family="Arial" font-size="14.00" fill="#666666">[timestamp without time zone]</text>
<polygon fill="none" stroke="#000000" points="627,-1162.5 627,-1192.5 928,-1192.5 928,-1162.5 627,-1162.5"/>
<text text-anchor="start" x="634" y="-1173.9" font-family="Arial" font-size="14.00" fill="#000000">create_uid </text>
<text text-anchor="start" x="703.244" y="-1173.9" font-family="Arial" font-size="14.00" fill="#666666">[integer]</text>
<polygon fill="none" stroke="#000000" points="627,-1132.5 627,-1162.5 928,-1162.5 928,-1132.5 627,-1132.5"/>
<text text-anchor="start" x="634" y="-1143.9" font-family="Arial" font-size="14.00" fill="#000000">create_date </text>
<text text-anchor="start" x="711.8106" y="-1143.9" font-family="Arial" font-size="14.00" fill="#666666">[timestamp without time zone]</text>
<polygon fill="none" stroke="#000000" points="627,-1102.5 627,-1132.5 928,-1132.5 928,-1102.5 627,-1102.5"/>
<text text-anchor="start" x="634" y="-1113.9" font-family="Arial" font-size="14.00" fill="#000000">write_uid </text>
<text text-anchor="start" x="693.892" y="-1113.9" font-family="Arial" font-size="14.00" fill="#666666">[integer]</text>
<polygon fill="none" stroke="#000000" points="627,-1072.5 627,-1102.5 928,-1102.5 928,-1072.5 627,-1072.5"/>
<text text-anchor="start" x="634" y="-1083.9" font-family="Arial" font-size="14.00" fill="#000000">write_date </text>
<text text-anchor="start" x="702.4586" y="-1083.9" font-family="Arial" font-size="14.00" fill="#666666">[timestamp without time zone]</text>
<polygon fill="none" stroke="#000000" stroke-width="3" points="625,-1071.5 625,-1409.5 929,-1409.5 929,-1071.5 625,-1071.5"/>
</g>
<!-- public.ir_model -->
<g id="node2" class="node">
<title>public.ir_model</title>
<polygon fill="#efefef" stroke="transparent" points="43,-687.5 43,-722.5 319,-722.5 319,-687.5 43,-687.5"/>
<polygon fill="none" stroke="#000000" points="43,-687.5 43,-722.5 319,-722.5 319,-687.5 43,-687.5"/>
<text text-anchor="start" x="71.8697" y="-700.3" font-family="Arial Bold" font-size="18.00" fill="#000000">public.ir_model</text>
<text text-anchor="start" x="192.8765" y="-700.3" font-family="Arial" font-size="14.00" fill="#000000"> </text>
<text text-anchor="start" x="196.7671" y="-700.3" font-family="Arial" font-size="14.00" fill="#666666">[BASE TABLE]</text>
<polygon fill="none" stroke="#000000" points="43,-657.5 43,-687.5 319,-687.5 319,-657.5 43,-657.5"/>
<text text-anchor="start" x="50" y="-668.9" font-family="Arial" font-size="14.00" fill="#000000">id </text>
<text text-anchor="start" x="64.7798" y="-668.9" font-family="Arial" font-size="14.00" fill="#666666">[integer]</text>
<polygon fill="none" stroke="#000000" points="43,-627.5 43,-657.5 319,-657.5 319,-627.5 43,-627.5"/>
<text text-anchor="start" x="50" y="-638.9" font-family="Arial" font-size="14.00" fill="#000000">name </text>
<text text-anchor="start" x="88.899" y="-638.9" font-family="Arial" font-size="14.00" fill="#666666">[varchar]</text>
<polygon fill="none" stroke="#000000" points="43,-597.5 43,-627.5 319,-627.5 319,-597.5 43,-597.5"/>
<text text-anchor="start" x="50" y="-608.9" font-family="Arial" font-size="14.00" fill="#000000">model </text>
<text text-anchor="start" x="92.0056" y="-608.9" font-family="Arial" font-size="14.00" fill="#666666">[varchar]</text>
<polygon fill="none" stroke="#000000" points="43,-567.5 43,-597.5 319,-597.5 319,-567.5 43,-567.5"/>
<text text-anchor="start" x="50" y="-578.9" font-family="Arial" font-size="14.00" fill="#000000">info </text>
<text text-anchor="start" x="76.453" y="-578.9" font-family="Arial" font-size="14.00" fill="#666666">[text]</text>
<polygon fill="none" stroke="#000000" points="43,-537.5 43,-567.5 319,-567.5 319,-537.5 43,-537.5"/>
<text text-anchor="start" x="50" y="-548.9" font-family="Arial" font-size="14.00" fill="#000000">state </text>
<text text-anchor="start" x="84.237" y="-548.9" font-family="Arial" font-size="14.00" fill="#666666">[varchar]</text>
<polygon fill="none" stroke="#000000" points="43,-507.5 43,-537.5 319,-537.5 319,-507.5 43,-507.5"/>
<text text-anchor="start" x="50" y="-518.9" font-family="Arial" font-size="14.00" fill="#000000">transient </text>
<text text-anchor="start" x="107.5694" y="-518.9" font-family="Arial" font-size="14.00" fill="#666666">[boolean]</text>
<polygon fill="none" stroke="#000000" points="43,-477.5 43,-507.5 319,-507.5 319,-477.5 43,-477.5"/>
<text text-anchor="start" x="50" y="-488.9" font-family="Arial" font-size="14.00" fill="#000000">create_uid </text>
<text text-anchor="start" x="119.244" y="-488.9" font-family="Arial" font-size="14.00" fill="#666666">[integer]</text>
<polygon fill="none" stroke="#000000" points="43,-447.5 43,-477.5 319,-477.5 319,-447.5 43,-447.5"/>
<text text-anchor="start" x="49.5246" y="-458.9" font-family="Arial" font-size="14.00" fill="#000000">create_date </text>
<text text-anchor="start" x="127.3352" y="-458.9" font-family="Arial" font-size="14.00" fill="#666666">[timestamp without time zone]</text>
<polygon fill="none" stroke="#000000" points="43,-417.5 43,-447.5 319,-447.5 319,-417.5 43,-417.5"/>
<text text-anchor="start" x="50" y="-428.9" font-family="Arial" font-size="14.00" fill="#000000">write_uid </text>
<text text-anchor="start" x="109.892" y="-428.9" font-family="Arial" font-size="14.00" fill="#666666">[integer]</text>
<polygon fill="none" stroke="#000000" points="43,-387.5 43,-417.5 319,-417.5 319,-387.5 43,-387.5"/>
<text text-anchor="start" x="50" y="-398.9" font-family="Arial" font-size="14.00" fill="#000000">write_date </text>
<text text-anchor="start" x="118.4586" y="-398.9" font-family="Arial" font-size="14.00" fill="#666666">[timestamp without time zone]</text>
<polygon fill="none" stroke="#000000" points="43,-357.5 43,-387.5 319,-387.5 319,-357.5 43,-357.5"/>
<text text-anchor="start" x="50" y="-368.9" font-family="Arial" font-size="14.00" fill="#000000">is_mail_thread </text>
<text text-anchor="start" x="144.9004" y="-368.9" font-family="Arial" font-size="14.00" fill="#666666">[boolean]</text>
<polygon fill="none" stroke="#000000" points="43,-327.5 43,-357.5 319,-357.5 319,-327.5 43,-327.5"/>
<text text-anchor="start" x="50" y="-338.9" font-family="Arial" font-size="14.00" fill="#000000">website_form_access </text>
<text text-anchor="start" x="188.467" y="-338.9" font-family="Arial" font-size="14.00" fill="#666666">[boolean]</text>
<polygon fill="none" stroke="#000000" points="43,-297.5 43,-327.5 319,-327.5 319,-297.5 43,-297.5"/>
<text text-anchor="start" x="50" y="-308.9" font-family="Arial" font-size="14.00" fill="#000000">website_form_default_field_id </text>
<text text-anchor="start" x="239.0434" y="-308.9" font-family="Arial" font-size="14.00" fill="#666666">[integer]</text>
<polygon fill="none" stroke="#000000" points="43,-267.5 43,-297.5 319,-297.5 319,-267.5 43,-267.5"/>
<text text-anchor="start" x="50" y="-278.9" font-family="Arial" font-size="14.00" fill="#000000">website_form_label </text>
<text text-anchor="start" x="174.4628" y="-278.9" font-family="Arial" font-size="14.00" fill="#666666">[varchar]</text>
</g>
<!-- public.ir_model_relation&#45;&gt;public.ir_model -->
<g id="edge1" class="edge">
<title>public.ir_model_relation:model&#45;&gt;public.ir_model:id</title>
<path fill="none" stroke="#000000" d="M616.7963,-1297.3349C449.302,-1291.8264 443.3622,-1149.2626 371,-991 341.1792,-925.7793 390.7149,-672.5 319,-672.5"/>
<polygon fill="#000000" stroke="#000000" points="617.0013,-1297.3381 626.9272,-1301.9994 622.0007,-1297.4191 627,-1297.5 627,-1297.5 627,-1297.5 622.0007,-1297.4191 627.0728,-1293.0006 617.0013,-1297.3381 617.0013,-1297.3381"/>
<text text-anchor="start" x="279.166" y="-1307.5" font-family="Arial" font-size="10.00" fill="#000000">FOREIGN KEY (model) REFERENCES ir_model(id) ON DELETE SET NULL</text>
</g>
<!-- public.ir_module_module -->
<g id="node3" class="node">
<title>public.ir_module_module</title>
<polygon fill="#efefef" stroke="transparent" points="424,-912.5 424,-947.5 735,-947.5 735,-912.5 424,-912.5"/>
<polygon fill="none" stroke="#000000" points="424,-912.5 424,-947.5 735,-947.5 735,-912.5 424,-912.5"/>
<text text-anchor="start" x="430.8579" y="-925.3" font-family="Arial Bold" font-size="18.00" fill="#000000">public.ir_module_module</text>
<text text-anchor="start" x="630.8883" y="-925.3" font-family="Arial" font-size="14.00" fill="#000000"> </text>
<text text-anchor="start" x="634.7789" y="-925.3" font-family="Arial" font-size="14.00" fill="#666666">[BASE TABLE]</text>
<polygon fill="none" stroke="#000000" points="424,-882.5 424,-912.5 735,-912.5 735,-882.5 424,-882.5"/>
<text text-anchor="start" x="431" y="-893.9" font-family="Arial" font-size="14.00" fill="#000000">id </text>
<text text-anchor="start" x="445.7798" y="-893.9" font-family="Arial" font-size="14.00" fill="#666666">[integer]</text>
<polygon fill="none" stroke="#000000" points="424,-852.5 424,-882.5 735,-882.5 735,-852.5 424,-852.5"/>
<text text-anchor="start" x="431" y="-863.9" font-family="Arial" font-size="14.00" fill="#000000">create_uid </text>
<text text-anchor="start" x="500.244" y="-863.9" font-family="Arial" font-size="14.00" fill="#666666">[integer]</text>
<polygon fill="none" stroke="#000000" points="424,-822.5 424,-852.5 735,-852.5 735,-822.5 424,-822.5"/>
<text text-anchor="start" x="431" y="-833.9" font-family="Arial" font-size="14.00" fill="#000000">create_date </text>
<text text-anchor="start" x="508.8106" y="-833.9" font-family="Arial" font-size="14.00" fill="#666666">[timestamp without time zone]</text>
<polygon fill="none" stroke="#000000" points="424,-792.5 424,-822.5 735,-822.5 735,-792.5 424,-792.5"/>
<text text-anchor="start" x="431" y="-803.9" font-family="Arial" font-size="14.00" fill="#000000">write_date </text>
<text text-anchor="start" x="499.4586" y="-803.9" font-family="Arial" font-size="14.00" fill="#666666">[timestamp without time zone]</text>
<polygon fill="none" stroke="#000000" points="424,-762.5 424,-792.5 735,-792.5 735,-762.5 424,-762.5"/>
<text text-anchor="start" x="431" y="-773.9" font-family="Arial" font-size="14.00" fill="#000000">write_uid </text>
<text text-anchor="start" x="490.892" y="-773.9" font-family="Arial" font-size="14.00" fill="#666666">[integer]</text>
<polygon fill="none" stroke="#000000" points="424,-732.5 424,-762.5 735,-762.5 735,-732.5 424,-732.5"/>
<text text-anchor="start" x="431" y="-743.9" font-family="Arial" font-size="14.00" fill="#000000">website </text>
<text text-anchor="start" x="482.3422" y="-743.9" font-family="Arial" font-size="14.00" fill="#666666">[varchar]</text>
<polygon fill="none" stroke="#000000" points="424,-702.5 424,-732.5 735,-732.5 735,-702.5 424,-702.5"/>
<text text-anchor="start" x="431" y="-713.9" font-family="Arial" font-size="14.00" fill="#000000">summary </text>
<text text-anchor="start" x="492.4376" y="-713.9" font-family="Arial" font-size="14.00" fill="#666666">[varchar]</text>
<polygon fill="none" stroke="#000000" points="424,-672.5 424,-702.5 735,-702.5 735,-672.5 424,-672.5"/>
<text text-anchor="start" x="431" y="-683.9" font-family="Arial" font-size="14.00" fill="#000000">name </text>
<text text-anchor="start" x="469.899" y="-683.9" font-family="Arial" font-size="14.00" fill="#666666">[varchar]</text>
<polygon fill="none" stroke="#000000" points="424,-642.5 424,-672.5 735,-672.5 735,-642.5 424,-642.5"/>
<text text-anchor="start" x="431" y="-653.9" font-family="Arial" font-size="14.00" fill="#000000">author </text>
<text text-anchor="start" x="474.5722" y="-653.9" font-family="Arial" font-size="14.00" fill="#666666">[varchar]</text>
<polygon fill="none" stroke="#000000" points="424,-612.5 424,-642.5 735,-642.5 735,-612.5 424,-612.5"/>
<text text-anchor="start" x="431" y="-623.9" font-family="Arial" font-size="14.00" fill="#000000">icon </text>
<text text-anchor="start" x="460.5624" y="-623.9" font-family="Arial" font-size="14.00" fill="#666666">[varchar]</text>
<polygon fill="none" stroke="#000000" points="424,-582.5 424,-612.5 735,-612.5 735,-582.5 424,-582.5"/>
<text text-anchor="start" x="431" y="-593.9" font-family="Arial" font-size="14.00" fill="#000000">state </text>
<text text-anchor="start" x="465.237" y="-593.9" font-family="Arial" font-size="14.00" fill="#666666">[varchar(16)]</text>
<polygon fill="none" stroke="#000000" points="424,-552.5 424,-582.5 735,-582.5 735,-552.5 424,-552.5"/>
<text text-anchor="start" x="431" y="-563.9" font-family="Arial" font-size="14.00" fill="#000000">latest_version </text>
<text text-anchor="start" x="521.2412" y="-563.9" font-family="Arial" font-size="14.00" fill="#666666">[varchar]</text>
<polygon fill="none" stroke="#000000" points="424,-522.5 424,-552.5 735,-552.5 735,-522.5 424,-522.5"/>
<text text-anchor="start" x="431" y="-533.9" font-family="Arial" font-size="14.00" fill="#000000">shortdesc </text>
<text text-anchor="start" x="495.5722" y="-533.9" font-family="Arial" font-size="14.00" fill="#666666">[varchar]</text>
<polygon fill="none" stroke="#000000" points="424,-492.5 424,-522.5 735,-522.5 735,-492.5 424,-492.5"/>
<text text-anchor="start" x="431" y="-503.9" font-family="Arial" font-size="14.00" fill="#000000">category_id </text>
<text text-anchor="start" x="507.244" y="-503.9" font-family="Arial" font-size="14.00" fill="#666666">[integer]</text>
<polygon fill="none" stroke="#000000" points="424,-462.5 424,-492.5 735,-492.5 735,-462.5 424,-462.5"/>
<text text-anchor="start" x="431" y="-473.9" font-family="Arial" font-size="14.00" fill="#000000">description </text>
<text text-anchor="start" x="502.568" y="-473.9" font-family="Arial" font-size="14.00" fill="#666666">[text]</text>
<polygon fill="none" stroke="#000000" points="424,-432.5 424,-462.5 735,-462.5 735,-432.5 424,-432.5"/>
<text text-anchor="start" x="431" y="-443.9" font-family="Arial" font-size="14.00" fill="#000000">application </text>
<text text-anchor="start" x="501.7966" y="-443.9" font-family="Arial" font-size="14.00" fill="#666666">[boolean]</text>
<polygon fill="none" stroke="#000000" points="424,-402.5 424,-432.5 735,-432.5 735,-402.5 424,-402.5"/>
<text text-anchor="start" x="431" y="-413.9" font-family="Arial" font-size="14.00" fill="#000000">demo </text>
<text text-anchor="start" x="469.899" y="-413.9" font-family="Arial" font-size="14.00" fill="#666666">[boolean]</text>
<polygon fill="none" stroke="#000000" points="424,-372.5 424,-402.5 735,-402.5 735,-372.5 424,-372.5"/>
<text text-anchor="start" x="431" y="-383.9" font-family="Arial" font-size="14.00" fill="#000000">web </text>
<text text-anchor="start" x="460.5624" y="-383.9" font-family="Arial" font-size="14.00" fill="#666666">[boolean]</text>
<polygon fill="none" stroke="#000000" points="424,-342.5 424,-372.5 735,-372.5 735,-342.5 424,-342.5"/>
<text text-anchor="start" x="431" y="-353.9" font-family="Arial" font-size="14.00" fill="#000000">license </text>
<text text-anchor="start" x="478.4516" y="-353.9" font-family="Arial" font-size="14.00" fill="#666666">[varchar(32)]</text>
<polygon fill="none" stroke="#000000" points="424,-312.5 424,-342.5 735,-342.5 735,-312.5 424,-312.5"/>
<text text-anchor="start" x="431" y="-323.9" font-family="Arial" font-size="14.00" fill="#000000">sequence </text>
<text text-anchor="start" x="495.5862" y="-323.9" font-family="Arial" font-size="14.00" fill="#666666">[integer]</text>
<polygon fill="none" stroke="#000000" points="424,-282.5 424,-312.5 735,-312.5 735,-282.5 424,-282.5"/>
<text text-anchor="start" x="431" y="-293.9" font-family="Arial" font-size="14.00" fill="#000000">auto_install </text>
<text text-anchor="start" x="505.6872" y="-293.9" font-family="Arial" font-size="14.00" fill="#666666">[boolean]</text>
<polygon fill="none" stroke="#000000" points="424,-252.5 424,-282.5 735,-282.5 735,-252.5 424,-252.5"/>
<text text-anchor="start" x="431" y="-263.9" font-family="Arial" font-size="14.00" fill="#000000">to_buy </text>
<text text-anchor="start" x="476.9116" y="-263.9" font-family="Arial" font-size="14.00" fill="#666666">[boolean]</text>
<polygon fill="none" stroke="#000000" points="424,-222.5 424,-252.5 735,-252.5 735,-222.5 424,-222.5"/>
<text text-anchor="start" x="431" y="-233.9" font-family="Arial" font-size="14.00" fill="#000000">maintainer </text>
<text text-anchor="start" x="500.2286" y="-233.9" font-family="Arial" font-size="14.00" fill="#666666">[varchar]</text>
<polygon fill="none" stroke="#000000" points="424,-192.5 424,-222.5 735,-222.5 735,-192.5 424,-192.5"/>
<text text-anchor="start" x="431" y="-203.9" font-family="Arial" font-size="14.00" fill="#000000">contributors </text>
<text text-anchor="start" x="508.0126" y="-203.9" font-family="Arial" font-size="14.00" fill="#666666">[text]</text>
<polygon fill="none" stroke="#000000" points="424,-162.5 424,-192.5 735,-192.5 735,-162.5 424,-162.5"/>
<text text-anchor="start" x="431" y="-173.9" font-family="Arial" font-size="14.00" fill="#000000">published_version </text>
<text text-anchor="start" x="547.697" y="-173.9" font-family="Arial" font-size="14.00" fill="#666666">[varchar]</text>
<polygon fill="none" stroke="#000000" points="424,-132.5 424,-162.5 735,-162.5 735,-132.5 424,-132.5"/>
<text text-anchor="start" x="431" y="-143.9" font-family="Arial" font-size="14.00" fill="#000000">url </text>
<text text-anchor="start" x="450.4404" y="-143.9" font-family="Arial" font-size="14.00" fill="#666666">[varchar]</text>
<polygon fill="none" stroke="#000000" points="424,-102.5 424,-132.5 735,-132.5 735,-102.5 424,-102.5"/>
<text text-anchor="start" x="431" y="-113.9" font-family="Arial" font-size="14.00" fill="#000000">menus_by_module </text>
<text text-anchor="start" x="553.1444" y="-113.9" font-family="Arial" font-size="14.00" fill="#666666">[text]</text>
<polygon fill="none" stroke="#000000" points="424,-72.5 424,-102.5 735,-102.5 735,-72.5 424,-72.5"/>
<text text-anchor="start" x="431" y="-83.9" font-family="Arial" font-size="14.00" fill="#000000">reports_by_module </text>
<text text-anchor="start" x="554.6956" y="-83.9" font-family="Arial" font-size="14.00" fill="#666666">[text]</text>
<polygon fill="none" stroke="#000000" points="424,-42.5 424,-72.5 735,-72.5 735,-42.5 424,-42.5"/>
<text text-anchor="start" x="431" y="-53.9" font-family="Arial" font-size="14.00" fill="#000000">views_by_module </text>
<text text-anchor="start" x="546.1318" y="-53.9" font-family="Arial" font-size="14.00" fill="#666666">[text]</text>
</g>
<!-- public.ir_model_relation&#45;&gt;public.ir_module_module -->
<g id="edge2" class="edge">
<title>public.ir_model_relation:module&#45;&gt;public.ir_module_module:id</title>
<path fill="none" stroke="#000000" d="M616.8483,-1266.9995C523.0788,-1257.3615 566.5761,-1110.8336 627,-1027 656.5843,-985.954 705.4157,-1032.046 735,-991 759.298,-957.2884 776.5556,-897.5 735,-897.5"/>
<polygon fill="#000000" stroke="#000000" points="617.0121,-1267.0074 626.7783,-1271.9945 622.0061,-1267.2537 627,-1267.5 627,-1267.5 627,-1267.5 622.0061,-1267.2537 627.2217,-1263.0055 617.0121,-1267.0074 617.0121,-1267.0074"/>
<text text-anchor="start" x="229.4355" y="-1277.5" font-family="Arial" font-size="10.00" fill="#000000">FOREIGN KEY (module) REFERENCES ir_module_module(id) ON DELETE SET NULL</text>
</g>
<!-- public.res_users -->
<g id="node4" class="node">
<title>public.res_users</title>
<polygon fill="#efefef" stroke="transparent" points="839,-807.5 839,-842.5 1115,-842.5 1115,-807.5 839,-807.5"/>
<polygon fill="none" stroke="#000000" points="839,-807.5 839,-842.5 1115,-842.5 1115,-807.5 839,-807.5"/>
<text text-anchor="start" x="862.8639" y="-820.3" font-family="Arial Bold" font-size="18.00" fill="#000000">public.res_users</text>
<text text-anchor="start" x="993.8823" y="-820.3" font-family="Arial" font-size="14.00" fill="#000000"> </text>
<text text-anchor="start" x="997.7729" y="-820.3" font-family="Arial" font-size="14.00" fill="#666666">[BASE TABLE]</text>
<polygon fill="none" stroke="#000000" points="839,-777.5 839,-807.5 1115,-807.5 1115,-777.5 839,-777.5"/>
<text text-anchor="start" x="846" y="-788.9" font-family="Arial" font-size="14.00" fill="#000000">id </text>
<text text-anchor="start" x="860.7798" y="-788.9" font-family="Arial" font-size="14.00" fill="#666666">[integer]</text>
<polygon fill="none" stroke="#000000" points="839,-747.5 839,-777.5 1115,-777.5 1115,-747.5 839,-747.5"/>
<text text-anchor="start" x="846" y="-758.9" font-family="Arial" font-size="14.00" fill="#000000">active </text>
<text text-anchor="start" x="886.453" y="-758.9" font-family="Arial" font-size="14.00" fill="#666666">[boolean]</text>
<polygon fill="none" stroke="#000000" points="839,-717.5 839,-747.5 1115,-747.5 1115,-717.5 839,-717.5"/>
<text text-anchor="start" x="846" y="-728.9" font-family="Arial" font-size="14.00" fill="#000000">login </text>
<text text-anchor="start" x="879.4516" y="-728.9" font-family="Arial" font-size="14.00" fill="#666666">[varchar]</text>
<polygon fill="none" stroke="#000000" points="839,-687.5 839,-717.5 1115,-717.5 1115,-687.5 839,-687.5"/>
<text text-anchor="start" x="846" y="-698.9" font-family="Arial" font-size="14.00" fill="#000000">password </text>
<text text-anchor="start" x="909.7882" y="-698.9" font-family="Arial" font-size="14.00" fill="#666666">[varchar]</text>
<polygon fill="none" stroke="#000000" points="839,-657.5 839,-687.5 1115,-687.5 1115,-657.5 839,-657.5"/>
<text text-anchor="start" x="846" y="-668.9" font-family="Arial" font-size="14.00" fill="#000000">company_id </text>
<text text-anchor="start" x="925.3534" y="-668.9" font-family="Arial" font-size="14.00" fill="#666666">[integer]</text>
<polygon fill="none" stroke="#000000" points="839,-627.5 839,-657.5 1115,-657.5 1115,-627.5 839,-627.5"/>
<text text-anchor="start" x="846" y="-638.9" font-family="Arial" font-size="14.00" fill="#000000">partner_id </text>
<text text-anchor="start" x="912.9046" y="-638.9" font-family="Arial" font-size="14.00" fill="#666666">[integer]</text>
<polygon fill="none" stroke="#000000" points="839,-597.5 839,-627.5 1115,-627.5 1115,-597.5 839,-597.5"/>
<text text-anchor="start" x="845.5246" y="-608.9" font-family="Arial" font-size="14.00" fill="#000000">create_date </text>
<text text-anchor="start" x="923.3352" y="-608.9" font-family="Arial" font-size="14.00" fill="#666666">[timestamp without time zone]</text>
<polygon fill="none" stroke="#000000" points="839,-567.5 839,-597.5 1115,-597.5 1115,-567.5 839,-567.5"/>
<text text-anchor="start" x="846" y="-578.9" font-family="Arial" font-size="14.00" fill="#000000">signature </text>
<text text-anchor="start" x="907.4614" y="-578.9" font-family="Arial" font-size="14.00" fill="#666666">[text]</text>
<polygon fill="none" stroke="#000000" points="839,-537.5 839,-567.5 1115,-567.5 1115,-537.5 839,-537.5"/>
<text text-anchor="start" x="846" y="-548.9" font-family="Arial" font-size="14.00" fill="#000000">action_id </text>
<text text-anchor="start" x="905.9074" y="-548.9" font-family="Arial" font-size="14.00" fill="#666666">[integer]</text>
<polygon fill="none" stroke="#000000" points="839,-507.5 839,-537.5 1115,-537.5 1115,-507.5 839,-507.5"/>
<text text-anchor="start" x="846" y="-518.9" font-family="Arial" font-size="14.00" fill="#000000">share </text>
<text text-anchor="start" x="884.899" y="-518.9" font-family="Arial" font-size="14.00" fill="#666666">[boolean]</text>
<polygon fill="none" stroke="#000000" points="839,-477.5 839,-507.5 1115,-507.5 1115,-477.5 839,-477.5"/>
<text text-anchor="start" x="846" y="-488.9" font-family="Arial" font-size="14.00" fill="#000000">create_uid </text>
<text text-anchor="start" x="915.244" y="-488.9" font-family="Arial" font-size="14.00" fill="#666666">[integer]</text>
<polygon fill="none" stroke="#000000" points="839,-447.5 839,-477.5 1115,-477.5 1115,-447.5 839,-447.5"/>
<text text-anchor="start" x="846" y="-458.9" font-family="Arial" font-size="14.00" fill="#000000">write_uid </text>
<text text-anchor="start" x="905.892" y="-458.9" font-family="Arial" font-size="14.00" fill="#666666">[integer]</text>
<polygon fill="none" stroke="#000000" points="839,-417.5 839,-447.5 1115,-447.5 1115,-417.5 839,-417.5"/>
<text text-anchor="start" x="846" y="-428.9" font-family="Arial" font-size="14.00" fill="#000000">write_date </text>
<text text-anchor="start" x="914.4586" y="-428.9" font-family="Arial" font-size="14.00" fill="#666666">[timestamp without time zone]</text>
<polygon fill="none" stroke="#000000" points="839,-387.5 839,-417.5 1115,-417.5 1115,-387.5 839,-387.5"/>
<text text-anchor="start" x="846" y="-398.9" font-family="Arial" font-size="14.00" fill="#000000">alias_id </text>
<text text-anchor="start" x="897.3408" y="-398.9" font-family="Arial" font-size="14.00" fill="#666666">[integer]</text>
<polygon fill="none" stroke="#000000" points="839,-357.5 839,-387.5 1115,-387.5 1115,-357.5 839,-357.5"/>
<text text-anchor="start" x="846" y="-368.9" font-family="Arial" font-size="14.00" fill="#000000">notification_type </text>
<text text-anchor="start" x="951.0336" y="-368.9" font-family="Arial" font-size="14.00" fill="#666666">[varchar]</text>
<polygon fill="none" stroke="#000000" points="839,-327.5 839,-357.5 1115,-357.5 1115,-327.5 839,-327.5"/>
<text text-anchor="start" x="846" y="-338.9" font-family="Arial" font-size="14.00" fill="#000000">odoobot_state </text>
<text text-anchor="start" x="938.6058" y="-338.9" font-family="Arial" font-size="14.00" fill="#666666">[varchar]</text>
<polygon fill="none" stroke="#000000" points="839,-297.5 839,-327.5 1115,-327.5 1115,-297.5 839,-297.5"/>
<text text-anchor="start" x="846" y="-308.9" font-family="Arial" font-size="14.00" fill="#000000">sale_team_id </text>
<text text-anchor="start" x="933.1332" y="-308.9" font-family="Arial" font-size="14.00" fill="#666666">[integer]</text>
<polygon fill="none" stroke="#000000" points="839,-267.5 839,-297.5 1115,-297.5 1115,-267.5 839,-267.5"/>
<text text-anchor="start" x="846" y="-278.9" font-family="Arial" font-size="14.00" fill="#000000">target_sales_won </text>
<text text-anchor="start" x="959.589" y="-278.9" font-family="Arial" font-size="14.00" fill="#666666">[integer]</text>
<polygon fill="none" stroke="#000000" points="839,-237.5 839,-267.5 1115,-267.5 1115,-237.5 839,-237.5"/>
<text text-anchor="start" x="846" y="-248.9" font-family="Arial" font-size="14.00" fill="#000000">target_sales_done </text>
<text text-anchor="start" x="965.0476" y="-248.9" font-family="Arial" font-size="14.00" fill="#666666">[integer]</text>
<polygon fill="none" stroke="#000000" points="839,-207.5 839,-237.5 1115,-237.5 1115,-207.5 839,-207.5"/>
<text text-anchor="start" x="846" y="-218.9" font-family="Arial" font-size="14.00" fill="#000000">website_id </text>
<text text-anchor="start" x="916.014" y="-218.9" font-family="Arial" font-size="14.00" fill="#666666">[integer]</text>
<polygon fill="none" stroke="#000000" points="839,-177.5 839,-207.5 1115,-207.5 1115,-177.5 839,-177.5"/>
<text text-anchor="start" x="846" y="-188.9" font-family="Arial" font-size="14.00" fill="#000000">target_sales_invoiced </text>
<text text-anchor="start" x="985.2608" y="-188.9" font-family="Arial" font-size="14.00" fill="#666666">[integer]</text>
<polygon fill="none" stroke="#000000" points="839,-147.5 839,-177.5 1115,-177.5 1115,-147.5 839,-147.5"/>
<text text-anchor="start" x="846" y="-158.9" font-family="Arial" font-size="14.00" fill="#000000">pos_security_pin </text>
<text text-anchor="start" x="954.9158" y="-158.9" font-family="Arial" font-size="14.00" fill="#666666">[varchar(32)]</text>
</g>
<!-- public.ir_model_relation&#45;&gt;public.res_users -->
<g id="edge3" class="edge">
<title>public.ir_model_relation:create_uid&#45;&gt;public.res_users:id</title>
<path fill="none" stroke="#000000" d="M938.2744,-1177.1235C1072.4514,-1166.7362 855.9057,-944.4554 839,-886 827.455,-846.0804 797.4444,-792.5 839,-792.5"/>
<polygon fill="#000000" stroke="#000000" points="937.9933,-1177.1337 927.8352,-1173.003 932.9966,-1177.3168 928,-1177.5 928,-1177.5 928,-1177.5 932.9966,-1177.3168 928.1648,-1181.997 937.9933,-1177.1337 937.9933,-1177.1337"/>
<text text-anchor="start" x="934.657" y="-1187.5" font-family="Arial" font-size="10.00" fill="#000000">FOREIGN KEY (create_uid) REFERENCES res_users(id) ON DELETE SET NULL</text>
</g>
<!-- public.ir_model_relation&#45;&gt;public.res_users -->
<g id="edge4" class="edge">
<title>public.ir_model_relation:write_uid&#45;&gt;public.res_users:id</title>
<path fill="none" stroke="#000000" d="M938.0221,-1116.9283C1059.1125,-1101.8246 692.8937,-792.5 839,-792.5"/>
<polygon fill="#000000" stroke="#000000" points="937.9838,-1116.9304 927.7437,-1113.0073 932.9919,-1117.2152 928,-1117.5 928,-1117.5 928,-1117.5 932.9919,-1117.2152 928.2563,-1121.9927 937.9838,-1116.9304 937.9838,-1116.9304"/>
<text text-anchor="start" x="934.997" y="-1127.5" font-family="Arial" font-size="10.00" fill="#000000">FOREIGN KEY (write_uid) REFERENCES res_users(id) ON DELETE SET NULL</text>
</g>
</g>
</svg>
