<?xml version="1.0" encoding="UTF-8" standalone="no"?>
<!DOCTYPE svg PUBLIC "-//W3C//DTD SVG 1.1//EN"
 "http://www.w3.org/Graphics/SVG/1.1/DTD/svg11.dtd">
<!-- Generated by graphviz version 2.40.1 (20161225.0304)
 -->
<!-- Title: public.portal_share_res_partner_rel Pages: 1 -->
<svg width="1224pt" height="2422pt"
 viewBox="0.00 0.00 1224.00 2422.00" xmlns="http://www.w3.org/2000/svg" xmlns:xlink="http://www.w3.org/1999/xlink">
<g id="graph0" class="graph" transform="scale(1 1) rotate(0) translate(4 2418)">
<title>public.portal_share_res_partner_rel</title>
<polygon fill="#ffffff" stroke="transparent" points="-4,4 -4,-2418 1220,-2418 1220,4 -4,4"/>
<!-- public.portal_share_res_partner_rel -->
<g id="node1" class="node">
<title>public.portal_share_res_partner_rel</title>
<polygon fill="#efefef" stroke="transparent" points="415,-2332.5 415,-2367.5 810,-2367.5 810,-2332.5 415,-2332.5"/>
<polygon fill="none" stroke="#000000" points="415,-2332.5 415,-2367.5 810,-2367.5 810,-2332.5 415,-2332.5"/>
<text text-anchor="start" x="421.8459" y="-2345.3" font-family="Arial Bold" font-size="18.00" fill="#000000">public.portal_share_res_partner_rel</text>
<text text-anchor="start" x="705.9003" y="-2345.3" font-family="Arial" font-size="14.00" fill="#000000"> </text>
<text text-anchor="start" x="709.7909" y="-2345.3" font-family="Arial" font-size="14.00" fill="#666666">[BASE TABLE]</text>
<polygon fill="none" stroke="#000000" points="415,-2302.5 415,-2332.5 810,-2332.5 810,-2302.5 415,-2302.5"/>
<text text-anchor="start" x="422" y="-2313.9" font-family="Arial" font-size="14.00" fill="#000000">portal_share_id </text>
<text text-anchor="start" x="522.359" y="-2313.9" font-family="Arial" font-size="14.00" fill="#666666">[integer]</text>
<polygon fill="none" stroke="#000000" points="415,-2272.5 415,-2302.5 810,-2302.5 810,-2272.5 415,-2272.5"/>
<text text-anchor="start" x="422" y="-2283.9" font-family="Arial" font-size="14.00" fill="#000000">res_partner_id </text>
<text text-anchor="start" x="516.1304" y="-2283.9" font-family="Arial" font-size="14.00" fill="#666666">[integer]</text>
<polygon fill="none" stroke="#000000" stroke-width="3" points="413,-2271.5 413,-2369.5 811,-2369.5 811,-2271.5 413,-2271.5"/>
</g>
<!-- public.portal_share -->
<g id="node2" class="node">
<title>public.portal_share</title>
<polygon fill="#efefef" stroke="transparent" points="262,-1197.5 262,-1232.5 538,-1232.5 538,-1197.5 262,-1197.5"/>
<polygon fill="none" stroke="#000000" points="262,-1197.5 262,-1232.5 538,-1232.5 538,-1197.5 262,-1197.5"/>
<text text-anchor="start" x="275.3564" y="-1210.3" font-family="Arial Bold" font-size="18.00" fill="#000000">public.portal_share</text>
<text text-anchor="start" x="427.3898" y="-1210.3" font-family="Arial" font-size="14.00" fill="#000000"> </text>
<text text-anchor="start" x="431.2804" y="-1210.3" font-family="Arial" font-size="14.00" fill="#666666">[BASE TABLE]</text>
<polygon fill="none" stroke="#000000" points="262,-1167.5 262,-1197.5 538,-1197.5 538,-1167.5 262,-1167.5"/>
<text text-anchor="start" x="269" y="-1178.9" font-family="Arial" font-size="14.00" fill="#000000">id </text>
<text text-anchor="start" x="283.7798" y="-1178.9" font-family="Arial" font-size="14.00" fill="#666666">[integer]</text>
<polygon fill="none" stroke="#000000" points="262,-1137.5 262,-1167.5 538,-1167.5 538,-1137.5 262,-1137.5"/>
<text text-anchor="start" x="269" y="-1148.9" font-family="Arial" font-size="14.00" fill="#000000">res_model </text>
<text text-anchor="start" x="338.2314" y="-1148.9" font-family="Arial" font-size="14.00" fill="#666666">[varchar]</text>
<polygon fill="none" stroke="#000000" points="262,-1107.5 262,-1137.5 538,-1137.5 538,-1107.5 262,-1107.5"/>
<text text-anchor="start" x="269" y="-1118.9" font-family="Arial" font-size="14.00" fill="#000000">res_id </text>
<text text-anchor="start" x="311.0056" y="-1118.9" font-family="Arial" font-size="14.00" fill="#666666">[integer]</text>
<polygon fill="none" stroke="#000000" points="262,-1077.5 262,-1107.5 538,-1107.5 538,-1077.5 262,-1077.5"/>
<text text-anchor="start" x="269" y="-1088.9" font-family="Arial" font-size="14.00" fill="#000000">note </text>
<text text-anchor="start" x="300.129" y="-1088.9" font-family="Arial" font-size="14.00" fill="#666666">[text]</text>
<polygon fill="none" stroke="#000000" points="262,-1047.5 262,-1077.5 538,-1077.5 538,-1047.5 262,-1047.5"/>
<text text-anchor="start" x="269" y="-1058.9" font-family="Arial" font-size="14.00" fill="#000000">create_uid </text>
<text text-anchor="start" x="338.244" y="-1058.9" font-family="Arial" font-size="14.00" fill="#666666">[integer]</text>
<polygon fill="none" stroke="#000000" points="262,-1017.5 262,-1047.5 538,-1047.5 538,-1017.5 262,-1017.5"/>
<text text-anchor="start" x="268.5246" y="-1028.9" font-family="Arial" font-size="14.00" fill="#000000">create_date </text>
<text text-anchor="start" x="346.3352" y="-1028.9" font-family="Arial" font-size="14.00" fill="#666666">[timestamp without time zone]</text>
<polygon fill="none" stroke="#000000" points="262,-987.5 262,-1017.5 538,-1017.5 538,-987.5 262,-987.5"/>
<text text-anchor="start" x="269" y="-998.9" font-family="Arial" font-size="14.00" fill="#000000">write_uid </text>
<text text-anchor="start" x="328.892" y="-998.9" font-family="Arial" font-size="14.00" fill="#666666">[integer]</text>
<polygon fill="none" stroke="#000000" points="262,-957.5 262,-987.5 538,-987.5 538,-957.5 262,-957.5"/>
<text text-anchor="start" x="269" y="-968.9" font-family="Arial" font-size="14.00" fill="#000000">write_date </text>
<text text-anchor="start" x="337.4586" y="-968.9" font-family="Arial" font-size="14.00" fill="#666666">[timestamp without time zone]</text>
</g>
<!-- public.portal_share_res_partner_rel&#45;&gt;public.portal_share -->
<g id="edge1" class="edge">
<title>public.portal_share_res_partner_rel:portal_share_id&#45;&gt;public.portal_share:id</title>
<path fill="none" stroke="#000000" d="M405.1224,-2314.6345C309.7905,-2251.9703 661.1332,-1182.5 538,-1182.5"/>
<polygon fill="#000000" stroke="#000000" points="405.396,-2314.7138 413.7462,-2321.8218 410.198,-2316.1069 415,-2317.5 415,-2317.5 415,-2317.5 410.198,-2316.1069 416.2538,-2313.1782 405.396,-2314.7138 405.396,-2314.7138"/>
<text text-anchor="start" x="7.4315" y="-2327.5" font-family="Arial" font-size="10.00" fill="#000000">FOREIGN KEY (portal_share_id) REFERENCES portal_share(id) ON DELETE CASCADE</text>
</g>
<!-- public.res_partner -->
<g id="node3" class="node">
<title>public.res_partner</title>
<polygon fill="#efefef" stroke="transparent" points="642,-2112.5 642,-2147.5 1010,-2147.5 1010,-2112.5 642,-2112.5"/>
<polygon fill="none" stroke="#000000" points="642,-2112.5 642,-2147.5 1010,-2147.5 1010,-2112.5 642,-2112.5"/>
<text text-anchor="start" x="705.3605" y="-2125.3" font-family="Arial Bold" font-size="18.00" fill="#000000">public.res_partner</text>
<text text-anchor="start" x="849.3857" y="-2125.3" font-family="Arial" font-size="14.00" fill="#000000"> </text>
<text text-anchor="start" x="853.2763" y="-2125.3" font-family="Arial" font-size="14.00" fill="#666666">[BASE TABLE]</text>
<polygon fill="none" stroke="#000000" points="642,-2082.5 642,-2112.5 1010,-2112.5 1010,-2082.5 642,-2082.5"/>
<text text-anchor="start" x="649" y="-2093.9" font-family="Arial" font-size="14.00" fill="#000000">id </text>
<text text-anchor="start" x="663.7798" y="-2093.9" font-family="Arial" font-size="14.00" fill="#666666">[integer]</text>
<polygon fill="none" stroke="#000000" points="642,-2052.5 642,-2082.5 1010,-2082.5 1010,-2052.5 642,-2052.5"/>
<text text-anchor="start" x="649" y="-2063.9" font-family="Arial" font-size="14.00" fill="#000000">name </text>
<text text-anchor="start" x="687.899" y="-2063.9" font-family="Arial" font-size="14.00" fill="#666666">[varchar]</text>
<polygon fill="none" stroke="#000000" points="642,-2022.5 642,-2052.5 1010,-2052.5 1010,-2022.5 642,-2022.5"/>
<text text-anchor="start" x="649" y="-2033.9" font-family="Arial" font-size="14.00" fill="#000000">company_id </text>
<text text-anchor="start" x="728.3534" y="-2033.9" font-family="Arial" font-size="14.00" fill="#666666">[integer]</text>
<polygon fill="none" stroke="#000000" points="642,-1992.5 642,-2022.5 1010,-2022.5 1010,-1992.5 642,-1992.5"/>
<text text-anchor="start" x="649" y="-2003.9" font-family="Arial" font-size="14.00" fill="#000000">create_date </text>
<text text-anchor="start" x="726.8106" y="-2003.9" font-family="Arial" font-size="14.00" fill="#666666">[timestamp without time zone]</text>
<polygon fill="none" stroke="#000000" points="642,-1962.5 642,-1992.5 1010,-1992.5 1010,-1962.5 642,-1962.5"/>
<text text-anchor="start" x="649" y="-1973.9" font-family="Arial" font-size="14.00" fill="#000000">display_name </text>
<text text-anchor="start" x="739.2426" y="-1973.9" font-family="Arial" font-size="14.00" fill="#666666">[varchar]</text>
<polygon fill="none" stroke="#000000" points="642,-1932.5 642,-1962.5 1010,-1962.5 1010,-1932.5 642,-1932.5"/>
<text text-anchor="start" x="649" y="-1943.9" font-family="Arial" font-size="14.00" fill="#000000">date </text>
<text text-anchor="start" x="680.129" y="-1943.9" font-family="Arial" font-size="14.00" fill="#666666">[date]</text>
<polygon fill="none" stroke="#000000" points="642,-1902.5 642,-1932.5 1010,-1932.5 1010,-1902.5 642,-1902.5"/>
<text text-anchor="start" x="649" y="-1913.9" font-family="Arial" font-size="14.00" fill="#000000">title </text>
<text text-anchor="start" x="674.6676" y="-1913.9" font-family="Arial" font-size="14.00" fill="#666666">[integer]</text>
<polygon fill="none" stroke="#000000" points="642,-1872.5 642,-1902.5 1010,-1902.5 1010,-1872.5 642,-1872.5"/>
<text text-anchor="start" x="649" y="-1883.9" font-family="Arial" font-size="14.00" fill="#000000">parent_id </text>
<text text-anchor="start" x="711.244" y="-1883.9" font-family="Arial" font-size="14.00" fill="#666666">[integer]</text>
<polygon fill="none" stroke="#000000" points="642,-1842.5 642,-1872.5 1010,-1872.5 1010,-1842.5 642,-1842.5"/>
<text text-anchor="start" x="649" y="-1853.9" font-family="Arial" font-size="14.00" fill="#000000">ref </text>
<text text-anchor="start" x="669.2244" y="-1853.9" font-family="Arial" font-size="14.00" fill="#666666">[varchar]</text>
<polygon fill="none" stroke="#000000" points="642,-1812.5 642,-1842.5 1010,-1842.5 1010,-1812.5 642,-1812.5"/>
<text text-anchor="start" x="649" y="-1823.9" font-family="Arial" font-size="14.00" fill="#000000">lang </text>
<text text-anchor="start" x="679.345" y="-1823.9" font-family="Arial" font-size="14.00" fill="#666666">[varchar]</text>
<polygon fill="none" stroke="#000000" points="642,-1782.5 642,-1812.5 1010,-1812.5 1010,-1782.5 642,-1782.5"/>
<text text-anchor="start" x="649" y="-1793.9" font-family="Arial" font-size="14.00" fill="#000000">tz </text>
<text text-anchor="start" x="663.7812" y="-1793.9" font-family="Arial" font-size="14.00" fill="#666666">[varchar]</text>
<polygon fill="none" stroke="#000000" points="642,-1752.5 642,-1782.5 1010,-1782.5 1010,-1752.5 642,-1752.5"/>
<text text-anchor="start" x="649" y="-1763.9" font-family="Arial" font-size="14.00" fill="#000000">user_id </text>
<text text-anchor="start" x="698.7882" y="-1763.9" font-family="Arial" font-size="14.00" fill="#666666">[integer]</text>
<polygon fill="none" stroke="#000000" points="642,-1722.5 642,-1752.5 1010,-1752.5 1010,-1722.5 642,-1722.5"/>
<text text-anchor="start" x="649" y="-1733.9" font-family="Arial" font-size="14.00" fill="#000000">vat </text>
<text text-anchor="start" x="671.5638" y="-1733.9" font-family="Arial" font-size="14.00" fill="#666666">[varchar]</text>
<polygon fill="none" stroke="#000000" points="642,-1692.5 642,-1722.5 1010,-1722.5 1010,-1692.5 642,-1692.5"/>
<text text-anchor="start" x="649" y="-1703.9" font-family="Arial" font-size="14.00" fill="#000000">website </text>
<text text-anchor="start" x="700.3422" y="-1703.9" font-family="Arial" font-size="14.00" fill="#666666">[varchar]</text>
<polygon fill="none" stroke="#000000" points="642,-1662.5 642,-1692.5 1010,-1692.5 1010,-1662.5 642,-1662.5"/>
<text text-anchor="start" x="649" y="-1673.9" font-family="Arial" font-size="14.00" fill="#000000">comment </text>
<text text-anchor="start" x="710.4502" y="-1673.9" font-family="Arial" font-size="14.00" fill="#666666">[text]</text>
<polygon fill="none" stroke="#000000" points="642,-1632.5 642,-1662.5 1010,-1662.5 1010,-1632.5 642,-1632.5"/>
<text text-anchor="start" x="649" y="-1643.9" font-family="Arial" font-size="14.00" fill="#000000">credit_limit </text>
<text text-anchor="start" x="719.7672" y="-1643.9" font-family="Arial" font-size="14.00" fill="#666666">[double precision]</text>
<polygon fill="none" stroke="#000000" points="642,-1602.5 642,-1632.5 1010,-1632.5 1010,-1602.5 642,-1602.5"/>
<text text-anchor="start" x="649" y="-1613.9" font-family="Arial" font-size="14.00" fill="#000000">barcode </text>
<text text-anchor="start" x="703.4642" y="-1613.9" font-family="Arial" font-size="14.00" fill="#666666">[varchar]</text>
<polygon fill="none" stroke="#000000" points="642,-1572.5 642,-1602.5 1010,-1602.5 1010,-1572.5 642,-1572.5"/>
<text text-anchor="start" x="649" y="-1583.9" font-family="Arial" font-size="14.00" fill="#000000">active </text>
<text text-anchor="start" x="689.453" y="-1583.9" font-family="Arial" font-size="14.00" fill="#666666">[boolean]</text>
<polygon fill="none" stroke="#000000" points="642,-1542.5 642,-1572.5 1010,-1572.5 1010,-1542.5 642,-1542.5"/>
<text text-anchor="start" x="649" y="-1553.9" font-family="Arial" font-size="14.00" fill="#000000">customer </text>
<text text-anchor="start" x="710.4502" y="-1553.9" font-family="Arial" font-size="14.00" fill="#666666">[boolean]</text>
<polygon fill="none" stroke="#000000" points="642,-1512.5 642,-1542.5 1010,-1542.5 1010,-1512.5 642,-1512.5"/>
<text text-anchor="start" x="649" y="-1523.9" font-family="Arial" font-size="14.00" fill="#000000">supplier </text>
<text text-anchor="start" x="701.8948" y="-1523.9" font-family="Arial" font-size="14.00" fill="#666666">[boolean]</text>
<polygon fill="none" stroke="#000000" points="642,-1482.5 642,-1512.5 1010,-1512.5 1010,-1482.5 642,-1482.5"/>
<text text-anchor="start" x="649" y="-1493.9" font-family="Arial" font-size="14.00" fill="#000000">employee </text>
<text text-anchor="start" x="713.5708" y="-1493.9" font-family="Arial" font-size="14.00" fill="#666666">[boolean]</text>
<polygon fill="none" stroke="#000000" points="642,-1452.5 642,-1482.5 1010,-1482.5 1010,-1452.5 642,-1452.5"/>
<text text-anchor="start" x="649" y="-1463.9" font-family="Arial" font-size="14.00" fill="#000000">function </text>
<text text-anchor="start" x="701.9088" y="-1463.9" font-family="Arial" font-size="14.00" fill="#666666">[varchar]</text>
<polygon fill="none" stroke="#000000" points="642,-1422.5 642,-1452.5 1010,-1452.5 1010,-1422.5 642,-1422.5"/>
<text text-anchor="start" x="649" y="-1433.9" font-family="Arial" font-size="14.00" fill="#000000">type </text>
<text text-anchor="start" x="679.3464" y="-1433.9" font-family="Arial" font-size="14.00" fill="#666666">[varchar]</text>
<polygon fill="none" stroke="#000000" points="642,-1392.5 642,-1422.5 1010,-1422.5 1010,-1392.5 642,-1392.5"/>
<text text-anchor="start" x="649" y="-1403.9" font-family="Arial" font-size="14.00" fill="#000000">street </text>
<text text-anchor="start" x="687.8976" y="-1403.9" font-family="Arial" font-size="14.00" fill="#666666">[varchar]</text>
<polygon fill="none" stroke="#000000" points="642,-1362.5 642,-1392.5 1010,-1392.5 1010,-1362.5 642,-1362.5"/>
<text text-anchor="start" x="649" y="-1373.9" font-family="Arial" font-size="14.00" fill="#000000">street2 </text>
<text text-anchor="start" x="695.6802" y="-1373.9" font-family="Arial" font-size="14.00" fill="#666666">[varchar]</text>
<polygon fill="none" stroke="#000000" points="642,-1332.5 642,-1362.5 1010,-1362.5 1010,-1332.5 642,-1332.5"/>
<text text-anchor="start" x="649" y="-1343.9" font-family="Arial" font-size="14.00" fill="#000000">zip </text>
<text text-anchor="start" x="670.7798" y="-1343.9" font-family="Arial" font-size="14.00" fill="#666666">[varchar]</text>
<polygon fill="none" stroke="#000000" points="642,-1302.5 642,-1332.5 1010,-1332.5 1010,-1302.5 642,-1302.5"/>
<text text-anchor="start" x="649" y="-1313.9" font-family="Arial" font-size="14.00" fill="#000000">city </text>
<text text-anchor="start" x="673.8878" y="-1313.9" font-family="Arial" font-size="14.00" fill="#666666">[varchar]</text>
<polygon fill="none" stroke="#000000" points="642,-1272.5 642,-1302.5 1010,-1302.5 1010,-1272.5 642,-1272.5"/>
<text text-anchor="start" x="649" y="-1283.9" font-family="Arial" font-size="14.00" fill="#000000">state_id </text>
<text text-anchor="start" x="701.9088" y="-1283.9" font-family="Arial" font-size="14.00" fill="#666666">[integer]</text>
<polygon fill="none" stroke="#000000" points="642,-1242.5 642,-1272.5 1010,-1272.5 1010,-1242.5 642,-1242.5"/>
<text text-anchor="start" x="649" y="-1253.9" font-family="Arial" font-size="14.00" fill="#000000">country_id </text>
<text text-anchor="start" x="717.4614" y="-1253.9" font-family="Arial" font-size="14.00" fill="#666666">[integer]</text>
<polygon fill="none" stroke="#000000" points="642,-1212.5 642,-1242.5 1010,-1242.5 1010,-1212.5 642,-1212.5"/>
<text text-anchor="start" x="649" y="-1223.9" font-family="Arial" font-size="14.00" fill="#000000">email </text>
<text text-anchor="start" x="686.3296" y="-1223.9" font-family="Arial" font-size="14.00" fill="#666666">[varchar]</text>
<polygon fill="none" stroke="#000000" points="642,-1182.5 642,-1212.5 1010,-1212.5 1010,-1182.5 642,-1182.5"/>
<text text-anchor="start" x="649" y="-1193.9" font-family="Arial" font-size="14.00" fill="#000000">phone </text>
<text text-anchor="start" x="691.8036" y="-1193.9" font-family="Arial" font-size="14.00" fill="#666666">[varchar]</text>
<polygon fill="none" stroke="#000000" points="642,-1152.5 642,-1182.5 1010,-1182.5 1010,-1152.5 642,-1152.5"/>
<text text-anchor="start" x="649" y="-1163.9" font-family="Arial" font-size="14.00" fill="#000000">mobile </text>
<text text-anchor="start" x="694.1122" y="-1163.9" font-family="Arial" font-size="14.00" fill="#666666">[varchar]</text>
<polygon fill="none" stroke="#000000" points="642,-1122.5 642,-1152.5 1010,-1152.5 1010,-1122.5 642,-1122.5"/>
<text text-anchor="start" x="649" y="-1133.9" font-family="Arial" font-size="14.00" fill="#000000">is_company </text>
<text text-anchor="start" x="727.5708" y="-1133.9" font-family="Arial" font-size="14.00" fill="#666666">[boolean]</text>
<polygon fill="none" stroke="#000000" points="642,-1092.5 642,-1122.5 1010,-1122.5 1010,-1092.5 642,-1092.5"/>
<text text-anchor="start" x="649" y="-1103.9" font-family="Arial" font-size="14.00" fill="#000000">industry_id </text>
<text text-anchor="start" x="720.568" y="-1103.9" font-family="Arial" font-size="14.00" fill="#666666">[integer]</text>
<polygon fill="none" stroke="#000000" points="642,-1062.5 642,-1092.5 1010,-1092.5 1010,-1062.5 642,-1062.5"/>
<text text-anchor="start" x="649" y="-1073.9" font-family="Arial" font-size="14.00" fill="#000000">color </text>
<text text-anchor="start" x="683.223" y="-1073.9" font-family="Arial" font-size="14.00" fill="#666666">[integer]</text>
<polygon fill="none" stroke="#000000" points="642,-1032.5 642,-1062.5 1010,-1062.5 1010,-1032.5 642,-1032.5"/>
<text text-anchor="start" x="649" y="-1043.9" font-family="Arial" font-size="14.00" fill="#000000">partner_share </text>
<text text-anchor="start" x="740.0238" y="-1043.9" font-family="Arial" font-size="14.00" fill="#666666">[boolean]</text>
<polygon fill="none" stroke="#000000" points="642,-1002.5 642,-1032.5 1010,-1032.5 1010,-1002.5 642,-1002.5"/>
<text text-anchor="start" x="649" y="-1013.9" font-family="Arial" font-size="14.00" fill="#000000">commercial_partner_id </text>
<text text-anchor="start" x="795.23" y="-1013.9" font-family="Arial" font-size="14.00" fill="#666666">[integer]</text>
<polygon fill="none" stroke="#000000" points="642,-972.5 642,-1002.5 1010,-1002.5 1010,-972.5 642,-972.5"/>
<text text-anchor="start" x="649" y="-983.9" font-family="Arial" font-size="14.00" fill="#000000">commercial_company_name </text>
<text text-anchor="start" x="831.798" y="-983.9" font-family="Arial" font-size="14.00" fill="#666666">[varchar]</text>
<polygon fill="none" stroke="#000000" points="642,-942.5 642,-972.5 1010,-972.5 1010,-942.5 642,-942.5"/>
<text text-anchor="start" x="649" y="-953.9" font-family="Arial" font-size="14.00" fill="#000000">company_name </text>
<text text-anchor="start" x="752.4726" y="-953.9" font-family="Arial" font-size="14.00" fill="#666666">[varchar]</text>
<polygon fill="none" stroke="#000000" points="642,-912.5 642,-942.5 1010,-942.5 1010,-912.5 642,-912.5"/>
<text text-anchor="start" x="649" y="-923.9" font-family="Arial" font-size="14.00" fill="#000000">create_uid </text>
<text text-anchor="start" x="718.244" y="-923.9" font-family="Arial" font-size="14.00" fill="#666666">[integer]</text>
<polygon fill="none" stroke="#000000" points="642,-882.5 642,-912.5 1010,-912.5 1010,-882.5 642,-882.5"/>
<text text-anchor="start" x="649" y="-893.9" font-family="Arial" font-size="14.00" fill="#000000">write_uid </text>
<text text-anchor="start" x="708.892" y="-893.9" font-family="Arial" font-size="14.00" fill="#666666">[integer]</text>
<polygon fill="none" stroke="#000000" points="642,-852.5 642,-882.5 1010,-882.5 1010,-852.5 642,-852.5"/>
<text text-anchor="start" x="649" y="-863.9" font-family="Arial" font-size="14.00" fill="#000000">write_date </text>
<text text-anchor="start" x="717.4586" y="-863.9" font-family="Arial" font-size="14.00" fill="#666666">[timestamp without time zone]</text>
<polygon fill="none" stroke="#000000" points="642,-822.5 642,-852.5 1010,-852.5 1010,-822.5 642,-822.5"/>
<text text-anchor="start" x="649" y="-833.9" font-family="Arial" font-size="14.00" fill="#000000">message_main_attachment_id </text>
<text text-anchor="start" x="843.4964" y="-833.9" font-family="Arial" font-size="14.00" fill="#666666">[integer]</text>
<polygon fill="none" stroke="#000000" points="642,-792.5 642,-822.5 1010,-822.5 1010,-792.5 642,-792.5"/>
<text text-anchor="start" x="649" y="-803.9" font-family="Arial" font-size="14.00" fill="#000000">message_bounce </text>
<text text-anchor="start" x="763.3772" y="-803.9" font-family="Arial" font-size="14.00" fill="#666666">[integer]</text>
<polygon fill="none" stroke="#000000" points="642,-762.5 642,-792.5 1010,-792.5 1010,-762.5 642,-762.5"/>
<text text-anchor="start" x="649" y="-773.9" font-family="Arial" font-size="14.00" fill="#000000">signup_token </text>
<text text-anchor="start" x="736.1486" y="-773.9" font-family="Arial" font-size="14.00" fill="#666666">[varchar]</text>
<polygon fill="none" stroke="#000000" points="642,-732.5 642,-762.5 1010,-762.5 1010,-732.5 642,-732.5"/>
<text text-anchor="start" x="649" y="-743.9" font-family="Arial" font-size="14.00" fill="#000000">signup_type </text>
<text text-anchor="start" x="728.366" y="-743.9" font-family="Arial" font-size="14.00" fill="#666666">[varchar]</text>
<polygon fill="none" stroke="#000000" points="642,-702.5 642,-732.5 1010,-732.5 1010,-702.5 642,-702.5"/>
<text text-anchor="start" x="649" y="-713.9" font-family="Arial" font-size="14.00" fill="#000000">signup_expiration </text>
<text text-anchor="start" x="762.5876" y="-713.9" font-family="Arial" font-size="14.00" fill="#666666">[timestamp without time zone]</text>
<polygon fill="none" stroke="#000000" points="642,-672.5 642,-702.5 1010,-702.5 1010,-672.5 642,-672.5"/>
<text text-anchor="start" x="649" y="-683.9" font-family="Arial" font-size="14.00" fill="#000000">calendar_last_notif_ack </text>
<text text-anchor="start" x="799.934" y="-683.9" font-family="Arial" font-size="14.00" fill="#666666">[timestamp without time zone]</text>
<polygon fill="none" stroke="#000000" points="642,-642.5 642,-672.5 1010,-672.5 1010,-642.5 642,-642.5"/>
<text text-anchor="start" x="649" y="-653.9" font-family="Arial" font-size="14.00" fill="#000000">partner_gid </text>
<text text-anchor="start" x="723.6872" y="-653.9" font-family="Arial" font-size="14.00" fill="#666666">[integer]</text>
<polygon fill="none" stroke="#000000" points="642,-612.5 642,-642.5 1010,-642.5 1010,-612.5 642,-612.5"/>
<text text-anchor="start" x="649" y="-623.9" font-family="Arial" font-size="14.00" fill="#000000">additional_info </text>
<text text-anchor="start" x="743.1416" y="-623.9" font-family="Arial" font-size="14.00" fill="#666666">[varchar]</text>
<polygon fill="none" stroke="#000000" points="642,-582.5 642,-612.5 1010,-612.5 1010,-582.5 642,-582.5"/>
<text text-anchor="start" x="649" y="-593.9" font-family="Arial" font-size="14.00" fill="#000000">team_id </text>
<text text-anchor="start" x="702.6788" y="-593.9" font-family="Arial" font-size="14.00" fill="#666666">[integer]</text>
<polygon fill="none" stroke="#000000" points="642,-552.5 642,-582.5 1010,-582.5 1010,-552.5 642,-552.5"/>
<text text-anchor="start" x="649" y="-563.9" font-family="Arial" font-size="14.00" fill="#000000">website_id </text>
<text text-anchor="start" x="719.014" y="-563.9" font-family="Arial" font-size="14.00" fill="#666666">[integer]</text>
<polygon fill="none" stroke="#000000" points="642,-522.5 642,-552.5 1010,-552.5 1010,-522.5 642,-522.5"/>
<text text-anchor="start" x="649" y="-533.9" font-family="Arial" font-size="14.00" fill="#000000">debit_limit </text>
<text text-anchor="start" x="715.8892" y="-533.9" font-family="Arial" font-size="14.00" fill="#666666">[numeric]</text>
<polygon fill="none" stroke="#000000" points="642,-492.5 642,-522.5 1010,-522.5 1010,-492.5 642,-492.5"/>
<text text-anchor="start" x="648.6326" y="-503.9" font-family="Arial" font-size="14.00" fill="#000000">last_time_entries_checked </text>
<text text-anchor="start" x="818.2272" y="-503.9" font-family="Arial" font-size="14.00" fill="#666666">[timestamp without time zone]</text>
<polygon fill="none" stroke="#000000" points="642,-462.5 642,-492.5 1010,-492.5 1010,-462.5 642,-462.5"/>
<text text-anchor="start" x="649" y="-473.9" font-family="Arial" font-size="14.00" fill="#000000">invoice_warn </text>
<text text-anchor="start" x="734.5666" y="-473.9" font-family="Arial" font-size="14.00" fill="#666666">[varchar]</text>
<polygon fill="none" stroke="#000000" points="642,-432.5 642,-462.5 1010,-462.5 1010,-432.5 642,-432.5"/>
<text text-anchor="start" x="649" y="-443.9" font-family="Arial" font-size="14.00" fill="#000000">invoice_warn_msg </text>
<text text-anchor="start" x="768.7924" y="-443.9" font-family="Arial" font-size="14.00" fill="#666666">[text]</text>
<polygon fill="none" stroke="#000000" points="642,-402.5 642,-432.5 1010,-432.5 1010,-402.5 642,-402.5"/>
<text text-anchor="start" x="649" y="-413.9" font-family="Arial" font-size="14.00" fill="#000000">sale_warn </text>
<text text-anchor="start" x="716.6774" y="-413.9" font-family="Arial" font-size="14.00" fill="#666666">[varchar]</text>
<polygon fill="none" stroke="#000000" points="642,-372.5 642,-402.5 1010,-402.5 1010,-372.5 642,-372.5"/>
<text text-anchor="start" x="649" y="-383.9" font-family="Arial" font-size="14.00" fill="#000000">sale_warn_msg </text>
<text text-anchor="start" x="750.9032" y="-383.9" font-family="Arial" font-size="14.00" fill="#666666">[text]</text>
<polygon fill="none" stroke="#000000" points="642,-342.5 642,-372.5 1010,-372.5 1010,-342.5 642,-342.5"/>
<text text-anchor="start" x="649" y="-353.9" font-family="Arial" font-size="14.00" fill="#000000">picking_warn </text>
<text text-anchor="start" x="734.5666" y="-353.9" font-family="Arial" font-size="14.00" fill="#666666">[varchar]</text>
<polygon fill="none" stroke="#000000" points="642,-312.5 642,-342.5 1010,-342.5 1010,-312.5 642,-312.5"/>
<text text-anchor="start" x="649" y="-323.9" font-family="Arial" font-size="14.00" fill="#000000">picking_warn_msg </text>
<text text-anchor="start" x="768.7924" y="-323.9" font-family="Arial" font-size="14.00" fill="#666666">[text]</text>
<polygon fill="none" stroke="#000000" points="642,-282.5 642,-312.5 1010,-312.5 1010,-282.5 642,-282.5"/>
<text text-anchor="start" x="649" y="-293.9" font-family="Arial" font-size="14.00" fill="#000000">purchase_warn </text>
<text text-anchor="start" x="748.5792" y="-293.9" font-family="Arial" font-size="14.00" fill="#666666">[varchar]</text>
<polygon fill="none" stroke="#000000" points="642,-252.5 642,-282.5 1010,-282.5 1010,-252.5 642,-252.5"/>
<text text-anchor="start" x="649" y="-263.9" font-family="Arial" font-size="14.00" fill="#000000">purchase_warn_msg </text>
<text text-anchor="start" x="782.805" y="-263.9" font-family="Arial" font-size="14.00" fill="#666666">[text]</text>
<polygon fill="none" stroke="#000000" points="642,-222.5 642,-252.5 1010,-252.5 1010,-222.5 642,-222.5"/>
<text text-anchor="start" x="649" y="-233.9" font-family="Arial" font-size="14.00" fill="#000000">is_published </text>
<text text-anchor="start" x="730.6886" y="-233.9" font-family="Arial" font-size="14.00" fill="#666666">[boolean]</text>
<polygon fill="none" stroke="#000000" points="642,-192.5 642,-222.5 1010,-222.5 1010,-192.5 642,-192.5"/>
<text text-anchor="start" x="649" y="-203.9" font-family="Arial" font-size="14.00" fill="#000000">website_meta_title </text>
<text text-anchor="start" x="768.8008" y="-203.9" font-family="Arial" font-size="14.00" fill="#666666">[varchar]</text>
<polygon fill="none" stroke="#000000" points="642,-162.5 642,-192.5 1010,-192.5 1010,-162.5 642,-162.5"/>
<text text-anchor="start" x="649" y="-173.9" font-family="Arial" font-size="14.00" fill="#000000">website_meta_description </text>
<text text-anchor="start" x="814.7012" y="-173.9" font-family="Arial" font-size="14.00" fill="#666666">[text]</text>
<polygon fill="none" stroke="#000000" points="642,-132.5 642,-162.5 1010,-162.5 1010,-132.5 642,-132.5"/>
<text text-anchor="start" x="649" y="-143.9" font-family="Arial" font-size="14.00" fill="#000000">website_meta_keywords </text>
<text text-anchor="start" x="806.1388" y="-143.9" font-family="Arial" font-size="14.00" fill="#666666">[varchar]</text>
<polygon fill="none" stroke="#000000" points="642,-102.5 642,-132.5 1010,-132.5 1010,-102.5 642,-102.5"/>
<text text-anchor="start" x="649" y="-113.9" font-family="Arial" font-size="14.00" fill="#000000">website_meta_og_img </text>
<text text-anchor="start" x="792.9214" y="-113.9" font-family="Arial" font-size="14.00" fill="#666666">[varchar]</text>
<polygon fill="none" stroke="#000000" points="642,-72.5 642,-102.5 1010,-102.5 1010,-72.5 642,-72.5"/>
<text text-anchor="start" x="649" y="-83.9" font-family="Arial" font-size="14.00" fill="#000000">website_description </text>
<text text-anchor="start" x="775.8022" y="-83.9" font-family="Arial" font-size="14.00" fill="#666666">[text]</text>
<polygon fill="none" stroke="#000000" points="642,-42.5 642,-72.5 1010,-72.5 1010,-42.5 642,-42.5"/>
<text text-anchor="start" x="649" y="-53.9" font-family="Arial" font-size="14.00" fill="#000000">website_short_description </text>
<text text-anchor="start" x="814.7012" y="-53.9" font-family="Arial" font-size="14.00" fill="#666666">[text]</text>
</g>
<!-- public.portal_share_res_partner_rel&#45;&gt;public.res_partner -->
<g id="edge2" class="edge">
<title>public.portal_share_res_partner_rel:res_partner_id&#45;&gt;public.res_partner:id</title>
<path fill="none" stroke="#000000" d="M820.0177,-2284.8227C833.5998,-2275.5843 824.2631,-2244.6433 810,-2227 761.9931,-2167.6161 690.0069,-2250.3839 642,-2191 615.875,-2158.6837 600.4444,-2097.5 642,-2097.5"/>
<polygon fill="#000000" stroke="#000000" points="819.6609,-2284.918 808.8381,-2283.1526 814.8305,-2286.209 810,-2287.5 810,-2287.5 810,-2287.5 814.8305,-2286.209 811.1619,-2291.8474 819.6609,-2284.918 819.6609,-2284.918"/>
<text text-anchor="start" x="816.8805" y="-2297.5" font-family="Arial" font-size="10.00" fill="#000000">FOREIGN KEY (res_partner_id) REFERENCES res_partner(id) ON DELETE CASCADE</text>
</g>
</g>
</svg>
