<?xml version="1.0" encoding="UTF-8" standalone="no"?>
<!DOCTYPE svg PUBLIC "-//W3C//DTD SVG 1.1//EN"
 "http://www.w3.org/Graphics/SVG/1.1/DTD/svg11.dtd">
<!-- Generated by graphviz version 2.40.1 (20161225.0304)
 -->
<!-- Title: public.account_invoice_account_move_line_rel Pages: 1 -->
<svg width="1418pt" height="2002pt"
 viewBox="0.00 0.00 1418.00 2002.00" xmlns="http://www.w3.org/2000/svg" xmlns:xlink="http://www.w3.org/1999/xlink">
<g id="graph0" class="graph" transform="scale(1 1) rotate(0) translate(4 1998)">
<title>public.account_invoice_account_move_line_rel</title>
<polygon fill="#ffffff" stroke="transparent" points="-4,4 -4,-1998 1414,-1998 1414,4 -4,4"/>
<!-- public.account_invoice_account_move_line_rel -->
<g id="node1" class="node">
<title>public.account_invoice_account_move_line_rel</title>
<polygon fill="#efefef" stroke="transparent" points="447,-1912.5 447,-1947.5 934,-1947.5 934,-1912.5 447,-1912.5"/>
<polygon fill="none" stroke="#000000" points="447,-1912.5 447,-1947.5 934,-1947.5 934,-1912.5 447,-1912.5"/>
<text text-anchor="start" x="453.8235" y="-1925.3" font-family="Arial Bold" font-size="18.00" fill="#000000">public.account_invoice_account_move_line_rel</text>
<text text-anchor="start" x="829.9227" y="-1925.3" font-family="Arial" font-size="14.00" fill="#000000"> </text>
<text text-anchor="start" x="833.8133" y="-1925.3" font-family="Arial" font-size="14.00" fill="#666666">[BASE TABLE]</text>
<polygon fill="none" stroke="#000000" points="447,-1882.5 447,-1912.5 934,-1912.5 934,-1882.5 447,-1882.5"/>
<text text-anchor="start" x="454" y="-1893.9" font-family="Arial" font-size="14.00" fill="#000000">account_invoice_id </text>
<text text-anchor="start" x="576.927" y="-1893.9" font-family="Arial" font-size="14.00" fill="#666666">[integer]</text>
<polygon fill="none" stroke="#000000" points="447,-1852.5 447,-1882.5 934,-1882.5 934,-1852.5 447,-1852.5"/>
<text text-anchor="start" x="454" y="-1863.9" font-family="Arial" font-size="14.00" fill="#000000">account_move_line_id </text>
<text text-anchor="start" x="597.1528" y="-1863.9" font-family="Arial" font-size="14.00" fill="#666666">[integer]</text>
<polygon fill="none" stroke="#000000" stroke-width="3" points="445,-1851.5 445,-1949.5 935,-1949.5 935,-1851.5 445,-1851.5"/>
</g>
<!-- public.account_invoice -->
<g id="node2" class="node">
<title>public.account_invoice</title>
<polygon fill="#efefef" stroke="transparent" points="341,-1692.5 341,-1727.5 633,-1727.5 633,-1692.5 341,-1692.5"/>
<polygon fill="none" stroke="#000000" points="341,-1692.5 341,-1727.5 633,-1727.5 633,-1692.5 341,-1692.5"/>
<text text-anchor="start" x="347.8484" y="-1705.3" font-family="Arial Bold" font-size="18.00" fill="#000000">public.account_invoice</text>
<text text-anchor="start" x="528.8978" y="-1705.3" font-family="Arial" font-size="14.00" fill="#000000"> </text>
<text text-anchor="start" x="532.7884" y="-1705.3" font-family="Arial" font-size="14.00" fill="#666666">[BASE TABLE]</text>
<polygon fill="none" stroke="#000000" points="341,-1662.5 341,-1692.5 633,-1692.5 633,-1662.5 341,-1662.5"/>
<text text-anchor="start" x="348" y="-1673.9" font-family="Arial" font-size="14.00" fill="#000000">id </text>
<text text-anchor="start" x="362.7798" y="-1673.9" font-family="Arial" font-size="14.00" fill="#666666">[integer]</text>
<polygon fill="none" stroke="#000000" points="341,-1632.5 341,-1662.5 633,-1662.5 633,-1632.5 341,-1632.5"/>
<text text-anchor="start" x="348" y="-1643.9" font-family="Arial" font-size="14.00" fill="#000000">access_token </text>
<text text-anchor="start" x="437.4768" y="-1643.9" font-family="Arial" font-size="14.00" fill="#666666">[varchar]</text>
<polygon fill="none" stroke="#000000" points="341,-1602.5 341,-1632.5 633,-1632.5 633,-1602.5 341,-1602.5"/>
<text text-anchor="start" x="348" y="-1613.9" font-family="Arial" font-size="14.00" fill="#000000">message_main_attachment_id </text>
<text text-anchor="start" x="542.4964" y="-1613.9" font-family="Arial" font-size="14.00" fill="#666666">[integer]</text>
<polygon fill="none" stroke="#000000" points="341,-1572.5 341,-1602.5 633,-1602.5 633,-1572.5 341,-1572.5"/>
<text text-anchor="start" x="348" y="-1583.9" font-family="Arial" font-size="14.00" fill="#000000">name </text>
<text text-anchor="start" x="386.899" y="-1583.9" font-family="Arial" font-size="14.00" fill="#666666">[varchar]</text>
<polygon fill="none" stroke="#000000" points="341,-1542.5 341,-1572.5 633,-1572.5 633,-1542.5 341,-1542.5"/>
<text text-anchor="start" x="348" y="-1553.9" font-family="Arial" font-size="14.00" fill="#000000">origin </text>
<text text-anchor="start" x="386.1122" y="-1553.9" font-family="Arial" font-size="14.00" fill="#666666">[varchar]</text>
<polygon fill="none" stroke="#000000" points="341,-1512.5 341,-1542.5 633,-1542.5 633,-1512.5 341,-1512.5"/>
<text text-anchor="start" x="348" y="-1523.9" font-family="Arial" font-size="14.00" fill="#000000">type </text>
<text text-anchor="start" x="378.3464" y="-1523.9" font-family="Arial" font-size="14.00" fill="#666666">[varchar]</text>
<polygon fill="none" stroke="#000000" points="341,-1482.5 341,-1512.5 633,-1512.5 633,-1482.5 341,-1482.5"/>
<text text-anchor="start" x="348" y="-1493.9" font-family="Arial" font-size="14.00" fill="#000000">refund_invoice_id </text>
<text text-anchor="start" x="461.5876" y="-1493.9" font-family="Arial" font-size="14.00" fill="#666666">[integer]</text>
<polygon fill="none" stroke="#000000" points="341,-1452.5 341,-1482.5 633,-1482.5 633,-1452.5 341,-1452.5"/>
<text text-anchor="start" x="348" y="-1463.9" font-family="Arial" font-size="14.00" fill="#000000">number </text>
<text text-anchor="start" x="399.3422" y="-1463.9" font-family="Arial" font-size="14.00" fill="#666666">[varchar]</text>
<polygon fill="none" stroke="#000000" points="341,-1422.5 341,-1452.5 633,-1452.5 633,-1422.5 341,-1422.5"/>
<text text-anchor="start" x="348" y="-1433.9" font-family="Arial" font-size="14.00" fill="#000000">move_name </text>
<text text-anchor="start" x="428.9074" y="-1433.9" font-family="Arial" font-size="14.00" fill="#666666">[varchar]</text>
<polygon fill="none" stroke="#000000" points="341,-1392.5 341,-1422.5 633,-1422.5 633,-1392.5 341,-1392.5"/>
<text text-anchor="start" x="348" y="-1403.9" font-family="Arial" font-size="14.00" fill="#000000">reference </text>
<text text-anchor="start" x="411.0154" y="-1403.9" font-family="Arial" font-size="14.00" fill="#666666">[varchar]</text>
<polygon fill="none" stroke="#000000" points="341,-1362.5 341,-1392.5 633,-1392.5 633,-1362.5 341,-1362.5"/>
<text text-anchor="start" x="348" y="-1373.9" font-family="Arial" font-size="14.00" fill="#000000">comment </text>
<text text-anchor="start" x="409.4502" y="-1373.9" font-family="Arial" font-size="14.00" fill="#666666">[text]</text>
<polygon fill="none" stroke="#000000" points="341,-1332.5 341,-1362.5 633,-1362.5 633,-1332.5 341,-1332.5"/>
<text text-anchor="start" x="348" y="-1343.9" font-family="Arial" font-size="14.00" fill="#000000">state </text>
<text text-anchor="start" x="382.237" y="-1343.9" font-family="Arial" font-size="14.00" fill="#666666">[varchar]</text>
<polygon fill="none" stroke="#000000" points="341,-1302.5 341,-1332.5 633,-1332.5 633,-1302.5 341,-1302.5"/>
<text text-anchor="start" x="348" y="-1313.9" font-family="Arial" font-size="14.00" fill="#000000">sent </text>
<text text-anchor="start" x="378.3464" y="-1313.9" font-family="Arial" font-size="14.00" fill="#666666">[boolean]</text>
<polygon fill="none" stroke="#000000" points="341,-1272.5 341,-1302.5 633,-1302.5 633,-1272.5 341,-1272.5"/>
<text text-anchor="start" x="348" y="-1283.9" font-family="Arial" font-size="14.00" fill="#000000">date_invoice </text>
<text text-anchor="start" x="430.4726" y="-1283.9" font-family="Arial" font-size="14.00" fill="#666666">[date]</text>
<polygon fill="none" stroke="#000000" points="341,-1242.5 341,-1272.5 633,-1272.5 633,-1242.5 341,-1242.5"/>
<text text-anchor="start" x="348" y="-1253.9" font-family="Arial" font-size="14.00" fill="#000000">date_due </text>
<text text-anchor="start" x="410.2594" y="-1253.9" font-family="Arial" font-size="14.00" fill="#666666">[date]</text>
<polygon fill="none" stroke="#000000" points="341,-1212.5 341,-1242.5 633,-1242.5 633,-1212.5 341,-1212.5"/>
<text text-anchor="start" x="348" y="-1223.9" font-family="Arial" font-size="14.00" fill="#000000">partner_id </text>
<text text-anchor="start" x="414.9046" y="-1223.9" font-family="Arial" font-size="14.00" fill="#666666">[integer]</text>
<polygon fill="none" stroke="#000000" points="341,-1182.5 341,-1212.5 633,-1212.5 633,-1182.5 341,-1182.5"/>
<text text-anchor="start" x="348" y="-1193.9" font-family="Arial" font-size="14.00" fill="#000000">vendor_bill_id </text>
<text text-anchor="start" x="438.2384" y="-1193.9" font-family="Arial" font-size="14.00" fill="#666666">[integer]</text>
<polygon fill="none" stroke="#000000" points="341,-1152.5 341,-1182.5 633,-1182.5 633,-1152.5 341,-1152.5"/>
<text text-anchor="start" x="348" y="-1163.9" font-family="Arial" font-size="14.00" fill="#000000">payment_term_id </text>
<text text-anchor="start" x="460.021" y="-1163.9" font-family="Arial" font-size="14.00" fill="#666666">[integer]</text>
<polygon fill="none" stroke="#000000" points="341,-1122.5 341,-1152.5 633,-1152.5 633,-1122.5 341,-1122.5"/>
<text text-anchor="start" x="348" y="-1133.9" font-family="Arial" font-size="14.00" fill="#000000">date </text>
<text text-anchor="start" x="379.129" y="-1133.9" font-family="Arial" font-size="14.00" fill="#666666">[date]</text>
<polygon fill="none" stroke="#000000" points="341,-1092.5 341,-1122.5 633,-1122.5 633,-1092.5 341,-1092.5"/>
<text text-anchor="start" x="348" y="-1103.9" font-family="Arial" font-size="14.00" fill="#000000">account_id </text>
<text text-anchor="start" x="419.5834" y="-1103.9" font-family="Arial" font-size="14.00" fill="#666666">[integer]</text>
<polygon fill="none" stroke="#000000" points="341,-1062.5 341,-1092.5 633,-1092.5 633,-1062.5 341,-1062.5"/>
<text text-anchor="start" x="348" y="-1073.9" font-family="Arial" font-size="14.00" fill="#000000">move_id </text>
<text text-anchor="start" x="404.7882" y="-1073.9" font-family="Arial" font-size="14.00" fill="#666666">[integer]</text>
<polygon fill="none" stroke="#000000" points="341,-1032.5 341,-1062.5 633,-1062.5 633,-1032.5 341,-1032.5"/>
<text text-anchor="start" x="348" y="-1043.9" font-family="Arial" font-size="14.00" fill="#000000">amount_untaxed </text>
<text text-anchor="start" x="456.1584" y="-1043.9" font-family="Arial" font-size="14.00" fill="#666666">[numeric]</text>
<polygon fill="none" stroke="#000000" points="341,-1002.5 341,-1032.5 633,-1032.5 633,-1002.5 341,-1002.5"/>
<text text-anchor="start" x="348" y="-1013.9" font-family="Arial" font-size="14.00" fill="#000000">amount_untaxed_signed </text>
<text text-anchor="start" x="505.178" y="-1013.9" font-family="Arial" font-size="14.00" fill="#666666">[numeric]</text>
<polygon fill="none" stroke="#000000" points="341,-972.5 341,-1002.5 633,-1002.5 633,-972.5 341,-972.5"/>
<text text-anchor="start" x="348" y="-983.9" font-family="Arial" font-size="14.00" fill="#000000">amount_tax </text>
<text text-anchor="start" x="425.028" y="-983.9" font-family="Arial" font-size="14.00" fill="#666666">[numeric]</text>
<polygon fill="none" stroke="#000000" points="341,-942.5 341,-972.5 633,-972.5 633,-942.5 341,-942.5"/>
<text text-anchor="start" x="348" y="-953.9" font-family="Arial" font-size="14.00" fill="#000000">amount_total </text>
<text text-anchor="start" x="432.8078" y="-953.9" font-family="Arial" font-size="14.00" fill="#666666">[numeric]</text>
<polygon fill="none" stroke="#000000" points="341,-912.5 341,-942.5 633,-942.5 633,-912.5 341,-912.5"/>
<text text-anchor="start" x="348" y="-923.9" font-family="Arial" font-size="14.00" fill="#000000">amount_total_signed </text>
<text text-anchor="start" x="481.8274" y="-923.9" font-family="Arial" font-size="14.00" fill="#666666">[numeric]</text>
<polygon fill="none" stroke="#000000" points="341,-882.5 341,-912.5 633,-912.5 633,-882.5 341,-882.5"/>
<text text-anchor="start" x="348" y="-893.9" font-family="Arial" font-size="14.00" fill="#000000">amount_total_company_signed </text>
<text text-anchor="start" x="546.401" y="-893.9" font-family="Arial" font-size="14.00" fill="#666666">[numeric]</text>
<polygon fill="none" stroke="#000000" points="341,-852.5 341,-882.5 633,-882.5 633,-852.5 341,-852.5"/>
<text text-anchor="start" x="348" y="-863.9" font-family="Arial" font-size="14.00" fill="#000000">currency_id </text>
<text text-anchor="start" x="424.2314" y="-863.9" font-family="Arial" font-size="14.00" fill="#666666">[integer]</text>
<polygon fill="none" stroke="#000000" points="341,-822.5 341,-852.5 633,-852.5 633,-822.5 341,-822.5"/>
<text text-anchor="start" x="348" y="-833.9" font-family="Arial" font-size="14.00" fill="#000000">journal_id </text>
<text text-anchor="start" x="412.5666" y="-833.9" font-family="Arial" font-size="14.00" fill="#666666">[integer]</text>
<polygon fill="none" stroke="#000000" points="341,-792.5 341,-822.5 633,-822.5 633,-792.5 341,-792.5"/>
<text text-anchor="start" x="348" y="-803.9" font-family="Arial" font-size="14.00" fill="#000000">company_id </text>
<text text-anchor="start" x="427.3534" y="-803.9" font-family="Arial" font-size="14.00" fill="#666666">[integer]</text>
<polygon fill="none" stroke="#000000" points="341,-762.5 341,-792.5 633,-792.5 633,-762.5 341,-762.5"/>
<text text-anchor="start" x="348" y="-773.9" font-family="Arial" font-size="14.00" fill="#000000">reconciled </text>
<text text-anchor="start" x="415.6774" y="-773.9" font-family="Arial" font-size="14.00" fill="#666666">[boolean]</text>
<polygon fill="none" stroke="#000000" points="341,-732.5 341,-762.5 633,-762.5 633,-732.5 341,-732.5"/>
<text text-anchor="start" x="348" y="-743.9" font-family="Arial" font-size="14.00" fill="#000000">partner_bank_id </text>
<text text-anchor="start" x="453.035" y="-743.9" font-family="Arial" font-size="14.00" fill="#666666">[integer]</text>
<polygon fill="none" stroke="#000000" points="341,-702.5 341,-732.5 633,-732.5 633,-702.5 341,-702.5"/>
<text text-anchor="start" x="348" y="-713.9" font-family="Arial" font-size="14.00" fill="#000000">residual </text>
<text text-anchor="start" x="400.8948" y="-713.9" font-family="Arial" font-size="14.00" fill="#666666">[numeric]</text>
<polygon fill="none" stroke="#000000" points="341,-672.5 341,-702.5 633,-702.5 633,-672.5 341,-672.5"/>
<text text-anchor="start" x="348" y="-683.9" font-family="Arial" font-size="14.00" fill="#000000">residual_signed </text>
<text text-anchor="start" x="449.9144" y="-683.9" font-family="Arial" font-size="14.00" fill="#666666">[numeric]</text>
<polygon fill="none" stroke="#000000" points="341,-642.5 341,-672.5 633,-672.5 633,-642.5 341,-642.5"/>
<text text-anchor="start" x="348" y="-653.9" font-family="Arial" font-size="14.00" fill="#000000">residual_company_signed </text>
<text text-anchor="start" x="514.488" y="-653.9" font-family="Arial" font-size="14.00" fill="#666666">[numeric]</text>
<polygon fill="none" stroke="#000000" points="341,-612.5 341,-642.5 633,-642.5 633,-612.5 341,-612.5"/>
<text text-anchor="start" x="348" y="-623.9" font-family="Arial" font-size="14.00" fill="#000000">user_id </text>
<text text-anchor="start" x="397.7882" y="-623.9" font-family="Arial" font-size="14.00" fill="#666666">[integer]</text>
<polygon fill="none" stroke="#000000" points="341,-582.5 341,-612.5 633,-612.5 633,-582.5 341,-582.5"/>
<text text-anchor="start" x="348" y="-593.9" font-family="Arial" font-size="14.00" fill="#000000">fiscal_position_id </text>
<text text-anchor="start" x="458.4656" y="-593.9" font-family="Arial" font-size="14.00" fill="#666666">[integer]</text>
<polygon fill="none" stroke="#000000" points="341,-552.5 341,-582.5 633,-582.5 633,-552.5 341,-552.5"/>
<text text-anchor="start" x="348" y="-563.9" font-family="Arial" font-size="14.00" fill="#000000">commercial_partner_id </text>
<text text-anchor="start" x="494.23" y="-563.9" font-family="Arial" font-size="14.00" fill="#666666">[integer]</text>
<polygon fill="none" stroke="#000000" points="341,-522.5 341,-552.5 633,-552.5 633,-522.5 341,-522.5"/>
<text text-anchor="start" x="348" y="-533.9" font-family="Arial" font-size="14.00" fill="#000000">cash_rounding_id </text>
<text text-anchor="start" x="462.373" y="-533.9" font-family="Arial" font-size="14.00" fill="#666666">[integer]</text>
<polygon fill="none" stroke="#000000" points="341,-492.5 341,-522.5 633,-522.5 633,-492.5 341,-492.5"/>
<text text-anchor="start" x="348" y="-503.9" font-family="Arial" font-size="14.00" fill="#000000">incoterm_id </text>
<text text-anchor="start" x="424.2286" y="-503.9" font-family="Arial" font-size="14.00" fill="#666666">[integer]</text>
<polygon fill="none" stroke="#000000" points="341,-462.5 341,-492.5 633,-492.5 633,-462.5 341,-462.5"/>
<text text-anchor="start" x="348" y="-473.9" font-family="Arial" font-size="14.00" fill="#000000">source_email </text>
<text text-anchor="start" x="435.1206" y="-473.9" font-family="Arial" font-size="14.00" fill="#666666">[varchar]</text>
<polygon fill="none" stroke="#000000" points="341,-432.5 341,-462.5 633,-462.5 633,-432.5 341,-432.5"/>
<text text-anchor="start" x="348" y="-443.9" font-family="Arial" font-size="14.00" fill="#000000">vendor_display_name </text>
<text text-anchor="start" x="488.8162" y="-443.9" font-family="Arial" font-size="14.00" fill="#666666">[varchar]</text>
<polygon fill="none" stroke="#000000" points="341,-402.5 341,-432.5 633,-432.5 633,-402.5 341,-402.5"/>
<text text-anchor="start" x="348" y="-413.9" font-family="Arial" font-size="14.00" fill="#000000">create_uid </text>
<text text-anchor="start" x="417.244" y="-413.9" font-family="Arial" font-size="14.00" fill="#666666">[integer]</text>
<polygon fill="none" stroke="#000000" points="341,-372.5 341,-402.5 633,-402.5 633,-372.5 341,-372.5"/>
<text text-anchor="start" x="348" y="-383.9" font-family="Arial" font-size="14.00" fill="#000000">create_date </text>
<text text-anchor="start" x="425.8106" y="-383.9" font-family="Arial" font-size="14.00" fill="#666666">[timestamp without time zone]</text>
<polygon fill="none" stroke="#000000" points="341,-342.5 341,-372.5 633,-372.5 633,-342.5 341,-342.5"/>
<text text-anchor="start" x="348" y="-353.9" font-family="Arial" font-size="14.00" fill="#000000">write_uid </text>
<text text-anchor="start" x="407.892" y="-353.9" font-family="Arial" font-size="14.00" fill="#666666">[integer]</text>
<polygon fill="none" stroke="#000000" points="341,-312.5 341,-342.5 633,-342.5 633,-312.5 341,-312.5"/>
<text text-anchor="start" x="348" y="-323.9" font-family="Arial" font-size="14.00" fill="#000000">write_date </text>
<text text-anchor="start" x="416.4586" y="-323.9" font-family="Arial" font-size="14.00" fill="#666666">[timestamp without time zone]</text>
<polygon fill="none" stroke="#000000" points="341,-282.5 341,-312.5 633,-312.5 633,-282.5 341,-282.5"/>
<text text-anchor="start" x="348" y="-293.9" font-family="Arial" font-size="14.00" fill="#000000">team_id </text>
<text text-anchor="start" x="401.6788" y="-293.9" font-family="Arial" font-size="14.00" fill="#666666">[integer]</text>
<polygon fill="none" stroke="#000000" points="341,-252.5 341,-282.5 633,-282.5 633,-252.5 341,-252.5"/>
<text text-anchor="start" x="348" y="-263.9" font-family="Arial" font-size="14.00" fill="#000000">partner_shipping_id </text>
<text text-anchor="start" x="474.8134" y="-263.9" font-family="Arial" font-size="14.00" fill="#666666">[integer]</text>
<polygon fill="none" stroke="#000000" points="341,-222.5 341,-252.5 633,-252.5 633,-222.5 341,-222.5"/>
<text text-anchor="start" x="348" y="-233.9" font-family="Arial" font-size="14.00" fill="#000000">website_id </text>
<text text-anchor="start" x="418.014" y="-233.9" font-family="Arial" font-size="14.00" fill="#666666">[integer]</text>
<polygon fill="none" stroke="#000000" points="341,-192.5 341,-222.5 633,-222.5 633,-192.5 341,-192.5"/>
<text text-anchor="start" x="348" y="-203.9" font-family="Arial" font-size="14.00" fill="#000000">incoterms_id </text>
<text text-anchor="start" x="431.2286" y="-203.9" font-family="Arial" font-size="14.00" fill="#666666">[integer]</text>
<polygon fill="none" stroke="#000000" points="341,-162.5 341,-192.5 633,-192.5 633,-162.5 341,-162.5"/>
<text text-anchor="start" x="348" y="-173.9" font-family="Arial" font-size="14.00" fill="#000000">campaign_id </text>
<text text-anchor="start" x="431.2426" y="-173.9" font-family="Arial" font-size="14.00" fill="#666666">[integer]</text>
<polygon fill="none" stroke="#000000" points="341,-132.5 341,-162.5 633,-162.5 633,-132.5 341,-132.5"/>
<text text-anchor="start" x="348" y="-143.9" font-family="Arial" font-size="14.00" fill="#000000">source_id </text>
<text text-anchor="start" x="412.5708" y="-143.9" font-family="Arial" font-size="14.00" fill="#666666">[integer]</text>
<polygon fill="none" stroke="#000000" points="341,-102.5 341,-132.5 633,-132.5 633,-102.5 341,-102.5"/>
<text text-anchor="start" x="348" y="-113.9" font-family="Arial" font-size="14.00" fill="#000000">medium_id </text>
<text text-anchor="start" x="420.338" y="-113.9" font-family="Arial" font-size="14.00" fill="#666666">[integer]</text>
<polygon fill="none" stroke="#000000" points="341,-72.5 341,-102.5 633,-102.5 633,-72.5 341,-72.5"/>
<text text-anchor="start" x="348" y="-83.9" font-family="Arial" font-size="14.00" fill="#000000">purchase_id </text>
<text text-anchor="start" x="428.136" y="-83.9" font-family="Arial" font-size="14.00" fill="#666666">[integer]</text>
<polygon fill="none" stroke="#000000" points="341,-42.5 341,-72.5 633,-72.5 633,-42.5 341,-42.5"/>
<text text-anchor="start" x="348" y="-53.9" font-family="Arial" font-size="14.00" fill="#000000">vendor_bill_purchase_id </text>
<text text-anchor="start" x="503.5946" y="-53.9" font-family="Arial" font-size="14.00" fill="#666666">[integer]</text>
</g>
<!-- public.account_invoice_account_move_line_rel&#45;&gt;public.account_invoice -->
<g id="edge1" class="edge">
<title>public.account_invoice_account_move_line_rel:account_invoice_id&#45;&gt;public.account_invoice:id</title>
<path fill="none" stroke="#000000" d="M437.0975,-1896.0043C409.6165,-1886.5987 423.8028,-1835.1175 447,-1807 500.5843,-1742.0501 579.4157,-1835.9499 633,-1771 659.4454,-1738.9453 674.5556,-1677.5 633,-1677.5"/>
<polygon fill="#000000" stroke="#000000" points="437.1122,-1896.0064 446.3279,-1901.9495 442.0561,-1896.7532 447,-1897.5 447,-1897.5 447,-1897.5 442.0561,-1896.7532 447.6721,-1893.0505 437.1122,-1896.0064 437.1122,-1896.0064"/>
<text text-anchor="start" x="7.3115" y="-1907.5" font-family="Arial" font-size="10.00" fill="#000000">FOREIGN KEY (account_invoice_id) REFERENCES account_invoice(id) ON DELETE CASCADE</text>
</g>
<!-- public.account_move_line -->
<g id="node3" class="node">
<title>public.account_move_line</title>
<polygon fill="#efefef" stroke="transparent" points="737,-1482.5 737,-1517.5 1055,-1517.5 1055,-1482.5 737,-1482.5"/>
<polygon fill="none" stroke="#000000" points="737,-1482.5 737,-1517.5 1055,-1517.5 1055,-1482.5 737,-1482.5"/>
<text text-anchor="start" x="743.8461" y="-1495.3" font-family="Arial Bold" font-size="18.00" fill="#000000">public.account_move_line</text>
<text text-anchor="start" x="950.9001" y="-1495.3" font-family="Arial" font-size="14.00" fill="#000000"> </text>
<text text-anchor="start" x="954.7907" y="-1495.3" font-family="Arial" font-size="14.00" fill="#666666">[BASE TABLE]</text>
<polygon fill="none" stroke="#000000" points="737,-1452.5 737,-1482.5 1055,-1482.5 1055,-1452.5 737,-1452.5"/>
<text text-anchor="start" x="744" y="-1463.9" font-family="Arial" font-size="14.00" fill="#000000">id </text>
<text text-anchor="start" x="758.7798" y="-1463.9" font-family="Arial" font-size="14.00" fill="#666666">[integer]</text>
<polygon fill="none" stroke="#000000" points="737,-1422.5 737,-1452.5 1055,-1452.5 1055,-1422.5 737,-1422.5"/>
<text text-anchor="start" x="744" y="-1433.9" font-family="Arial" font-size="14.00" fill="#000000">name </text>
<text text-anchor="start" x="782.899" y="-1433.9" font-family="Arial" font-size="14.00" fill="#666666">[varchar]</text>
<polygon fill="none" stroke="#000000" points="737,-1392.5 737,-1422.5 1055,-1422.5 1055,-1392.5 737,-1392.5"/>
<text text-anchor="start" x="744" y="-1403.9" font-family="Arial" font-size="14.00" fill="#000000">quantity </text>
<text text-anchor="start" x="796.9088" y="-1403.9" font-family="Arial" font-size="14.00" fill="#666666">[numeric]</text>
<polygon fill="none" stroke="#000000" points="737,-1362.5 737,-1392.5 1055,-1392.5 1055,-1362.5 737,-1362.5"/>
<text text-anchor="start" x="744" y="-1373.9" font-family="Arial" font-size="14.00" fill="#000000">product_uom_id </text>
<text text-anchor="start" x="848.2524" y="-1373.9" font-family="Arial" font-size="14.00" fill="#666666">[integer]</text>
<polygon fill="none" stroke="#000000" points="737,-1332.5 737,-1362.5 1055,-1362.5 1055,-1332.5 737,-1332.5"/>
<text text-anchor="start" x="744" y="-1343.9" font-family="Arial" font-size="14.00" fill="#000000">product_id </text>
<text text-anchor="start" x="813.244" y="-1343.9" font-family="Arial" font-size="14.00" fill="#666666">[integer]</text>
<polygon fill="none" stroke="#000000" points="737,-1302.5 737,-1332.5 1055,-1332.5 1055,-1302.5 737,-1302.5"/>
<text text-anchor="start" x="744" y="-1313.9" font-family="Arial" font-size="14.00" fill="#000000">debit </text>
<text text-anchor="start" x="778.2356" y="-1313.9" font-family="Arial" font-size="14.00" fill="#666666">[numeric]</text>
<polygon fill="none" stroke="#000000" points="737,-1272.5 737,-1302.5 1055,-1302.5 1055,-1272.5 737,-1272.5"/>
<text text-anchor="start" x="744" y="-1283.9" font-family="Arial" font-size="14.00" fill="#000000">credit </text>
<text text-anchor="start" x="782.1136" y="-1283.9" font-family="Arial" font-size="14.00" fill="#666666">[numeric]</text>
<polygon fill="none" stroke="#000000" points="737,-1242.5 737,-1272.5 1055,-1272.5 1055,-1242.5 737,-1242.5"/>
<text text-anchor="start" x="744" y="-1253.9" font-family="Arial" font-size="14.00" fill="#000000">balance </text>
<text text-anchor="start" x="796.9102" y="-1253.9" font-family="Arial" font-size="14.00" fill="#666666">[numeric]</text>
<polygon fill="none" stroke="#000000" points="737,-1212.5 737,-1242.5 1055,-1242.5 1055,-1212.5 737,-1212.5"/>
<text text-anchor="start" x="744" y="-1223.9" font-family="Arial" font-size="14.00" fill="#000000">debit_cash_basis </text>
<text text-anchor="start" x="856.0378" y="-1223.9" font-family="Arial" font-size="14.00" fill="#666666">[numeric]</text>
<polygon fill="none" stroke="#000000" points="737,-1182.5 737,-1212.5 1055,-1212.5 1055,-1182.5 737,-1182.5"/>
<text text-anchor="start" x="744" y="-1193.9" font-family="Arial" font-size="14.00" fill="#000000">credit_cash_basis </text>
<text text-anchor="start" x="859.9158" y="-1193.9" font-family="Arial" font-size="14.00" fill="#666666">[numeric]</text>
<polygon fill="none" stroke="#000000" points="737,-1152.5 737,-1182.5 1055,-1182.5 1055,-1152.5 737,-1152.5"/>
<text text-anchor="start" x="744" y="-1163.9" font-family="Arial" font-size="14.00" fill="#000000">balance_cash_basis </text>
<text text-anchor="start" x="874.7124" y="-1163.9" font-family="Arial" font-size="14.00" fill="#666666">[numeric]</text>
<polygon fill="none" stroke="#000000" points="737,-1122.5 737,-1152.5 1055,-1152.5 1055,-1122.5 737,-1122.5"/>
<text text-anchor="start" x="744" y="-1133.9" font-family="Arial" font-size="14.00" fill="#000000">amount_currency </text>
<text text-anchor="start" x="856.0238" y="-1133.9" font-family="Arial" font-size="14.00" fill="#666666">[numeric]</text>
<polygon fill="none" stroke="#000000" points="737,-1092.5 737,-1122.5 1055,-1122.5 1055,-1092.5 737,-1092.5"/>
<text text-anchor="start" x="744" y="-1103.9" font-family="Arial" font-size="14.00" fill="#000000">company_currency_id </text>
<text text-anchor="start" x="884.805" y="-1103.9" font-family="Arial" font-size="14.00" fill="#666666">[integer]</text>
<polygon fill="none" stroke="#000000" points="737,-1062.5 737,-1092.5 1055,-1092.5 1055,-1062.5 737,-1062.5"/>
<text text-anchor="start" x="744" y="-1073.9" font-family="Arial" font-size="14.00" fill="#000000">currency_id </text>
<text text-anchor="start" x="820.2314" y="-1073.9" font-family="Arial" font-size="14.00" fill="#666666">[integer]</text>
<polygon fill="none" stroke="#000000" points="737,-1032.5 737,-1062.5 1055,-1062.5 1055,-1032.5 737,-1032.5"/>
<text text-anchor="start" x="744" y="-1043.9" font-family="Arial" font-size="14.00" fill="#000000">amount_residual </text>
<text text-anchor="start" x="851.359" y="-1043.9" font-family="Arial" font-size="14.00" fill="#666666">[numeric]</text>
<polygon fill="none" stroke="#000000" points="737,-1002.5 737,-1032.5 1055,-1032.5 1055,-1002.5 737,-1002.5"/>
<text text-anchor="start" x="744" y="-1013.9" font-family="Arial" font-size="14.00" fill="#000000">amount_residual_currency </text>
<text text-anchor="start" x="912.8106" y="-1013.9" font-family="Arial" font-size="14.00" fill="#666666">[numeric]</text>
<polygon fill="none" stroke="#000000" points="737,-972.5 737,-1002.5 1055,-1002.5 1055,-972.5 737,-972.5"/>
<text text-anchor="start" x="744" y="-983.9" font-family="Arial" font-size="14.00" fill="#000000">tax_base_amount </text>
<text text-anchor="start" x="859.1584" y="-983.9" font-family="Arial" font-size="14.00" fill="#666666">[numeric]</text>
<polygon fill="none" stroke="#000000" points="737,-942.5 737,-972.5 1055,-972.5 1055,-942.5 737,-942.5"/>
<text text-anchor="start" x="744" y="-953.9" font-family="Arial" font-size="14.00" fill="#000000">account_id </text>
<text text-anchor="start" x="815.5834" y="-953.9" font-family="Arial" font-size="14.00" fill="#666666">[integer]</text>
<polygon fill="none" stroke="#000000" points="737,-912.5 737,-942.5 1055,-942.5 1055,-912.5 737,-912.5"/>
<text text-anchor="start" x="744" y="-923.9" font-family="Arial" font-size="14.00" fill="#000000">move_id </text>
<text text-anchor="start" x="800.7882" y="-923.9" font-family="Arial" font-size="14.00" fill="#666666">[integer]</text>
<polygon fill="none" stroke="#000000" points="737,-882.5 737,-912.5 1055,-912.5 1055,-882.5 737,-882.5"/>
<text text-anchor="start" x="744" y="-893.9" font-family="Arial" font-size="14.00" fill="#000000">ref </text>
<text text-anchor="start" x="764.2244" y="-893.9" font-family="Arial" font-size="14.00" fill="#666666">[varchar]</text>
<polygon fill="none" stroke="#000000" points="737,-852.5 737,-882.5 1055,-882.5 1055,-852.5 737,-852.5"/>
<text text-anchor="start" x="744" y="-863.9" font-family="Arial" font-size="14.00" fill="#000000">payment_id </text>
<text text-anchor="start" x="820.244" y="-863.9" font-family="Arial" font-size="14.00" fill="#666666">[integer]</text>
<polygon fill="none" stroke="#000000" points="737,-822.5 737,-852.5 1055,-852.5 1055,-822.5 737,-822.5"/>
<text text-anchor="start" x="744" y="-833.9" font-family="Arial" font-size="14.00" fill="#000000">statement_line_id </text>
<text text-anchor="start" x="857.5862" y="-833.9" font-family="Arial" font-size="14.00" fill="#666666">[integer]</text>
<polygon fill="none" stroke="#000000" points="737,-792.5 737,-822.5 1055,-822.5 1055,-792.5 737,-792.5"/>
<text text-anchor="start" x="744" y="-803.9" font-family="Arial" font-size="14.00" fill="#000000">statement_id </text>
<text text-anchor="start" x="828.0252" y="-803.9" font-family="Arial" font-size="14.00" fill="#666666">[integer]</text>
<polygon fill="none" stroke="#000000" points="737,-762.5 737,-792.5 1055,-792.5 1055,-762.5 737,-762.5"/>
<text text-anchor="start" x="744" y="-773.9" font-family="Arial" font-size="14.00" fill="#000000">reconciled </text>
<text text-anchor="start" x="811.6774" y="-773.9" font-family="Arial" font-size="14.00" fill="#666666">[boolean]</text>
<polygon fill="none" stroke="#000000" points="737,-732.5 737,-762.5 1055,-762.5 1055,-732.5 737,-732.5"/>
<text text-anchor="start" x="744" y="-743.9" font-family="Arial" font-size="14.00" fill="#000000">full_reconcile_id </text>
<text text-anchor="start" x="848.2356" y="-743.9" font-family="Arial" font-size="14.00" fill="#666666">[integer]</text>
<polygon fill="none" stroke="#000000" points="737,-702.5 737,-732.5 1055,-732.5 1055,-702.5 737,-702.5"/>
<text text-anchor="start" x="744" y="-713.9" font-family="Arial" font-size="14.00" fill="#000000">journal_id </text>
<text text-anchor="start" x="808.5666" y="-713.9" font-family="Arial" font-size="14.00" fill="#666666">[integer]</text>
<polygon fill="none" stroke="#000000" points="737,-672.5 737,-702.5 1055,-702.5 1055,-672.5 737,-672.5"/>
<text text-anchor="start" x="744" y="-683.9" font-family="Arial" font-size="14.00" fill="#000000">blocked </text>
<text text-anchor="start" x="796.1276" y="-683.9" font-family="Arial" font-size="14.00" fill="#666666">[boolean]</text>
<polygon fill="none" stroke="#000000" points="737,-642.5 737,-672.5 1055,-672.5 1055,-642.5 737,-642.5"/>
<text text-anchor="start" x="744" y="-653.9" font-family="Arial" font-size="14.00" fill="#000000">date_maturity </text>
<text text-anchor="start" x="832.6858" y="-653.9" font-family="Arial" font-size="14.00" fill="#666666">[date]</text>
<polygon fill="none" stroke="#000000" points="737,-612.5 737,-642.5 1055,-642.5 1055,-612.5 737,-612.5"/>
<text text-anchor="start" x="744" y="-623.9" font-family="Arial" font-size="14.00" fill="#000000">date </text>
<text text-anchor="start" x="775.129" y="-623.9" font-family="Arial" font-size="14.00" fill="#666666">[date]</text>
<polygon fill="none" stroke="#000000" points="737,-582.5 737,-612.5 1055,-612.5 1055,-582.5 737,-582.5"/>
<text text-anchor="start" x="744" y="-593.9" font-family="Arial" font-size="14.00" fill="#000000">tax_line_id </text>
<text text-anchor="start" x="814.7966" y="-593.9" font-family="Arial" font-size="14.00" fill="#666666">[integer]</text>
<polygon fill="none" stroke="#000000" points="737,-552.5 737,-582.5 1055,-582.5 1055,-552.5 737,-552.5"/>
<text text-anchor="start" x="744" y="-563.9" font-family="Arial" font-size="14.00" fill="#000000">analytic_account_id </text>
<text text-anchor="start" x="870.8176" y="-563.9" font-family="Arial" font-size="14.00" fill="#666666">[integer]</text>
<polygon fill="none" stroke="#000000" points="737,-522.5 737,-552.5 1055,-552.5 1055,-522.5 737,-522.5"/>
<text text-anchor="start" x="744" y="-533.9" font-family="Arial" font-size="14.00" fill="#000000">company_id </text>
<text text-anchor="start" x="823.3534" y="-533.9" font-family="Arial" font-size="14.00" fill="#666666">[integer]</text>
<polygon fill="none" stroke="#000000" points="737,-492.5 737,-522.5 1055,-522.5 1055,-492.5 737,-492.5"/>
<text text-anchor="start" x="744" y="-503.9" font-family="Arial" font-size="14.00" fill="#000000">invoice_id </text>
<text text-anchor="start" x="810.1234" y="-503.9" font-family="Arial" font-size="14.00" fill="#666666">[integer]</text>
<polygon fill="none" stroke="#000000" points="737,-462.5 737,-492.5 1055,-492.5 1055,-462.5 737,-462.5"/>
<text text-anchor="start" x="744" y="-473.9" font-family="Arial" font-size="14.00" fill="#000000">partner_id </text>
<text text-anchor="start" x="810.9046" y="-473.9" font-family="Arial" font-size="14.00" fill="#666666">[integer]</text>
<polygon fill="none" stroke="#000000" points="737,-432.5 737,-462.5 1055,-462.5 1055,-432.5 737,-432.5"/>
<text text-anchor="start" x="744" y="-443.9" font-family="Arial" font-size="14.00" fill="#000000">user_type_id </text>
<text text-anchor="start" x="828.0266" y="-443.9" font-family="Arial" font-size="14.00" fill="#666666">[integer]</text>
<polygon fill="none" stroke="#000000" points="737,-402.5 737,-432.5 1055,-432.5 1055,-402.5 737,-402.5"/>
<text text-anchor="start" x="744" y="-413.9" font-family="Arial" font-size="14.00" fill="#000000">tax_exigible </text>
<text text-anchor="start" x="821.7966" y="-413.9" font-family="Arial" font-size="14.00" fill="#666666">[boolean]</text>
<polygon fill="none" stroke="#000000" points="737,-372.5 737,-402.5 1055,-402.5 1055,-372.5 737,-372.5"/>
<text text-anchor="start" x="744" y="-383.9" font-family="Arial" font-size="14.00" fill="#000000">create_uid </text>
<text text-anchor="start" x="813.244" y="-383.9" font-family="Arial" font-size="14.00" fill="#666666">[integer]</text>
<polygon fill="none" stroke="#000000" points="737,-342.5 737,-372.5 1055,-372.5 1055,-342.5 737,-342.5"/>
<text text-anchor="start" x="744" y="-353.9" font-family="Arial" font-size="14.00" fill="#000000">create_date </text>
<text text-anchor="start" x="821.8106" y="-353.9" font-family="Arial" font-size="14.00" fill="#666666">[timestamp without time zone]</text>
<polygon fill="none" stroke="#000000" points="737,-312.5 737,-342.5 1055,-342.5 1055,-312.5 737,-312.5"/>
<text text-anchor="start" x="744" y="-323.9" font-family="Arial" font-size="14.00" fill="#000000">write_uid </text>
<text text-anchor="start" x="803.892" y="-323.9" font-family="Arial" font-size="14.00" fill="#666666">[integer]</text>
<polygon fill="none" stroke="#000000" points="737,-282.5 737,-312.5 1055,-312.5 1055,-282.5 737,-282.5"/>
<text text-anchor="start" x="744" y="-293.9" font-family="Arial" font-size="14.00" fill="#000000">write_date </text>
<text text-anchor="start" x="812.4586" y="-293.9" font-family="Arial" font-size="14.00" fill="#666666">[timestamp without time zone]</text>
<polygon fill="none" stroke="#000000" points="737,-252.5 737,-282.5 1055,-282.5 1055,-252.5 737,-252.5"/>
<text text-anchor="start" x="744" y="-263.9" font-family="Arial" font-size="14.00" fill="#000000">expense_id </text>
<text text-anchor="start" x="819.4754" y="-263.9" font-family="Arial" font-size="14.00" fill="#666666">[integer]</text>
</g>
<!-- public.account_invoice_account_move_line_rel&#45;&gt;public.account_move_line -->
<g id="edge2" class="edge">
<title>public.account_invoice_account_move_line_rel:account_move_line_id&#45;&gt;public.account_move_line:id</title>
<path fill="none" stroke="#000000" d="M944.2235,-1867.092C1110.423,-1852.794 542.5081,-1467.5 737,-1467.5"/>
<polygon fill="#000000" stroke="#000000" points="943.992,-1867.1011 933.8205,-1863.0036 938.996,-1867.3006 934,-1867.5 934,-1867.5 934,-1867.5 938.996,-1867.3006 934.1795,-1871.9964 943.992,-1867.1011 943.992,-1867.1011"/>
<text text-anchor="start" x="940.8645" y="-1877.5" font-family="Arial" font-size="10.00" fill="#000000">FOREIGN KEY (account_move_line_id) REFERENCES account_move_line(id) ON DELETE CASCADE</text>
</g>
</g>
</svg>
