<?xml version="1.0" encoding="UTF-8" standalone="no"?>
<!DOCTYPE svg PUBLIC "-//W3C//DTD SVG 1.1//EN"
 "http://www.w3.org/Graphics/SVG/1.1/DTD/svg11.dtd">
<!-- Generated by graphviz version 2.40.1 (20161225.0304)
 -->
<!-- Title: public.account_invoice_confirm Pages: 1 -->
<svg width="796pt" height="1102pt"
 viewBox="0.00 0.00 795.50 1102.00" xmlns="http://www.w3.org/2000/svg" xmlns:xlink="http://www.w3.org/1999/xlink">
<g id="graph0" class="graph" transform="scale(1 1) rotate(0) translate(4 1098)">
<title>public.account_invoice_confirm</title>
<polygon fill="#ffffff" stroke="transparent" points="-4,4 -4,-1098 791.5,-1098 791.5,4 -4,4"/>
<!-- public.account_invoice_confirm -->
<g id="node1" class="node">
<title>public.account_invoice_confirm</title>
<polygon fill="#efefef" stroke="transparent" points="46.5,-1012.5 46.5,-1047.5 407.5,-1047.5 407.5,-1012.5 46.5,-1012.5"/>
<polygon fill="none" stroke="#000000" points="46.5,-1012.5 46.5,-1047.5 407.5,-1047.5 407.5,-1012.5 46.5,-1012.5"/>
<text text-anchor="start" x="53.3487" y="-1025.3" font-family="Arial Bold" font-size="18.00" fill="#000000">public.account_invoice_confirm</text>
<text text-anchor="start" x="303.3975" y="-1025.3" font-family="Arial" font-size="14.00" fill="#000000"> </text>
<text text-anchor="start" x="307.2881" y="-1025.3" font-family="Arial" font-size="14.00" fill="#666666">[BASE TABLE]</text>
<polygon fill="none" stroke="#000000" points="46.5,-982.5 46.5,-1012.5 407.5,-1012.5 407.5,-982.5 46.5,-982.5"/>
<text text-anchor="start" x="53.5" y="-993.9" font-family="Arial" font-size="14.00" fill="#000000">id </text>
<text text-anchor="start" x="68.2798" y="-993.9" font-family="Arial" font-size="14.00" fill="#666666">[integer]</text>
<polygon fill="none" stroke="#000000" points="46.5,-952.5 46.5,-982.5 407.5,-982.5 407.5,-952.5 46.5,-952.5"/>
<text text-anchor="start" x="53.5" y="-963.9" font-family="Arial" font-size="14.00" fill="#000000">create_uid </text>
<text text-anchor="start" x="122.744" y="-963.9" font-family="Arial" font-size="14.00" fill="#666666">[integer]</text>
<polygon fill="none" stroke="#000000" points="46.5,-922.5 46.5,-952.5 407.5,-952.5 407.5,-922.5 46.5,-922.5"/>
<text text-anchor="start" x="53.5" y="-933.9" font-family="Arial" font-size="14.00" fill="#000000">create_date </text>
<text text-anchor="start" x="131.3106" y="-933.9" font-family="Arial" font-size="14.00" fill="#666666">[timestamp without time zone]</text>
<polygon fill="none" stroke="#000000" points="46.5,-892.5 46.5,-922.5 407.5,-922.5 407.5,-892.5 46.5,-892.5"/>
<text text-anchor="start" x="53.5" y="-903.9" font-family="Arial" font-size="14.00" fill="#000000">write_uid </text>
<text text-anchor="start" x="113.392" y="-903.9" font-family="Arial" font-size="14.00" fill="#666666">[integer]</text>
<polygon fill="none" stroke="#000000" points="46.5,-862.5 46.5,-892.5 407.5,-892.5 407.5,-862.5 46.5,-862.5"/>
<text text-anchor="start" x="53.5" y="-873.9" font-family="Arial" font-size="14.00" fill="#000000">write_date </text>
<text text-anchor="start" x="121.9586" y="-873.9" font-family="Arial" font-size="14.00" fill="#666666">[timestamp without time zone]</text>
<polygon fill="none" stroke="#000000" stroke-width="3" points="44.5,-861.5 44.5,-1049.5 408.5,-1049.5 408.5,-861.5 44.5,-861.5"/>
</g>
<!-- public.res_users -->
<g id="node2" class="node">
<title>public.res_users</title>
<polygon fill="#efefef" stroke="transparent" points="89.5,-702.5 89.5,-737.5 365.5,-737.5 365.5,-702.5 89.5,-702.5"/>
<polygon fill="none" stroke="#000000" points="89.5,-702.5 89.5,-737.5 365.5,-737.5 365.5,-702.5 89.5,-702.5"/>
<text text-anchor="start" x="113.3639" y="-715.3" font-family="Arial Bold" font-size="18.00" fill="#000000">public.res_users</text>
<text text-anchor="start" x="244.3823" y="-715.3" font-family="Arial" font-size="14.00" fill="#000000"> </text>
<text text-anchor="start" x="248.2729" y="-715.3" font-family="Arial" font-size="14.00" fill="#666666">[BASE TABLE]</text>
<polygon fill="none" stroke="#000000" points="89.5,-672.5 89.5,-702.5 365.5,-702.5 365.5,-672.5 89.5,-672.5"/>
<text text-anchor="start" x="96.5" y="-683.9" font-family="Arial" font-size="14.00" fill="#000000">id </text>
<text text-anchor="start" x="111.2798" y="-683.9" font-family="Arial" font-size="14.00" fill="#666666">[integer]</text>
<polygon fill="none" stroke="#000000" points="89.5,-642.5 89.5,-672.5 365.5,-672.5 365.5,-642.5 89.5,-642.5"/>
<text text-anchor="start" x="96.5" y="-653.9" font-family="Arial" font-size="14.00" fill="#000000">active </text>
<text text-anchor="start" x="136.953" y="-653.9" font-family="Arial" font-size="14.00" fill="#666666">[boolean]</text>
<polygon fill="none" stroke="#000000" points="89.5,-612.5 89.5,-642.5 365.5,-642.5 365.5,-612.5 89.5,-612.5"/>
<text text-anchor="start" x="96.5" y="-623.9" font-family="Arial" font-size="14.00" fill="#000000">login </text>
<text text-anchor="start" x="129.9516" y="-623.9" font-family="Arial" font-size="14.00" fill="#666666">[varchar]</text>
<polygon fill="none" stroke="#000000" points="89.5,-582.5 89.5,-612.5 365.5,-612.5 365.5,-582.5 89.5,-582.5"/>
<text text-anchor="start" x="96.5" y="-593.9" font-family="Arial" font-size="14.00" fill="#000000">password </text>
<text text-anchor="start" x="160.2882" y="-593.9" font-family="Arial" font-size="14.00" fill="#666666">[varchar]</text>
<polygon fill="none" stroke="#000000" points="89.5,-552.5 89.5,-582.5 365.5,-582.5 365.5,-552.5 89.5,-552.5"/>
<text text-anchor="start" x="96.5" y="-563.9" font-family="Arial" font-size="14.00" fill="#000000">company_id </text>
<text text-anchor="start" x="175.8534" y="-563.9" font-family="Arial" font-size="14.00" fill="#666666">[integer]</text>
<polygon fill="none" stroke="#000000" points="89.5,-522.5 89.5,-552.5 365.5,-552.5 365.5,-522.5 89.5,-522.5"/>
<text text-anchor="start" x="96.5" y="-533.9" font-family="Arial" font-size="14.00" fill="#000000">partner_id </text>
<text text-anchor="start" x="163.4046" y="-533.9" font-family="Arial" font-size="14.00" fill="#666666">[integer]</text>
<polygon fill="none" stroke="#000000" points="89.5,-492.5 89.5,-522.5 365.5,-522.5 365.5,-492.5 89.5,-492.5"/>
<text text-anchor="start" x="96.0246" y="-503.9" font-family="Arial" font-size="14.00" fill="#000000">create_date </text>
<text text-anchor="start" x="173.8352" y="-503.9" font-family="Arial" font-size="14.00" fill="#666666">[timestamp without time zone]</text>
<polygon fill="none" stroke="#000000" points="89.5,-462.5 89.5,-492.5 365.5,-492.5 365.5,-462.5 89.5,-462.5"/>
<text text-anchor="start" x="96.5" y="-473.9" font-family="Arial" font-size="14.00" fill="#000000">signature </text>
<text text-anchor="start" x="157.9614" y="-473.9" font-family="Arial" font-size="14.00" fill="#666666">[text]</text>
<polygon fill="none" stroke="#000000" points="89.5,-432.5 89.5,-462.5 365.5,-462.5 365.5,-432.5 89.5,-432.5"/>
<text text-anchor="start" x="96.5" y="-443.9" font-family="Arial" font-size="14.00" fill="#000000">action_id </text>
<text text-anchor="start" x="156.4074" y="-443.9" font-family="Arial" font-size="14.00" fill="#666666">[integer]</text>
<polygon fill="none" stroke="#000000" points="89.5,-402.5 89.5,-432.5 365.5,-432.5 365.5,-402.5 89.5,-402.5"/>
<text text-anchor="start" x="96.5" y="-413.9" font-family="Arial" font-size="14.00" fill="#000000">share </text>
<text text-anchor="start" x="135.399" y="-413.9" font-family="Arial" font-size="14.00" fill="#666666">[boolean]</text>
<polygon fill="none" stroke="#000000" points="89.5,-372.5 89.5,-402.5 365.5,-402.5 365.5,-372.5 89.5,-372.5"/>
<text text-anchor="start" x="96.5" y="-383.9" font-family="Arial" font-size="14.00" fill="#000000">create_uid </text>
<text text-anchor="start" x="165.744" y="-383.9" font-family="Arial" font-size="14.00" fill="#666666">[integer]</text>
<polygon fill="none" stroke="#000000" points="89.5,-342.5 89.5,-372.5 365.5,-372.5 365.5,-342.5 89.5,-342.5"/>
<text text-anchor="start" x="96.5" y="-353.9" font-family="Arial" font-size="14.00" fill="#000000">write_uid </text>
<text text-anchor="start" x="156.392" y="-353.9" font-family="Arial" font-size="14.00" fill="#666666">[integer]</text>
<polygon fill="none" stroke="#000000" points="89.5,-312.5 89.5,-342.5 365.5,-342.5 365.5,-312.5 89.5,-312.5"/>
<text text-anchor="start" x="96.5" y="-323.9" font-family="Arial" font-size="14.00" fill="#000000">write_date </text>
<text text-anchor="start" x="164.9586" y="-323.9" font-family="Arial" font-size="14.00" fill="#666666">[timestamp without time zone]</text>
<polygon fill="none" stroke="#000000" points="89.5,-282.5 89.5,-312.5 365.5,-312.5 365.5,-282.5 89.5,-282.5"/>
<text text-anchor="start" x="96.5" y="-293.9" font-family="Arial" font-size="14.00" fill="#000000">alias_id </text>
<text text-anchor="start" x="147.8408" y="-293.9" font-family="Arial" font-size="14.00" fill="#666666">[integer]</text>
<polygon fill="none" stroke="#000000" points="89.5,-252.5 89.5,-282.5 365.5,-282.5 365.5,-252.5 89.5,-252.5"/>
<text text-anchor="start" x="96.5" y="-263.9" font-family="Arial" font-size="14.00" fill="#000000">notification_type </text>
<text text-anchor="start" x="201.5336" y="-263.9" font-family="Arial" font-size="14.00" fill="#666666">[varchar]</text>
<polygon fill="none" stroke="#000000" points="89.5,-222.5 89.5,-252.5 365.5,-252.5 365.5,-222.5 89.5,-222.5"/>
<text text-anchor="start" x="96.5" y="-233.9" font-family="Arial" font-size="14.00" fill="#000000">odoobot_state </text>
<text text-anchor="start" x="189.1058" y="-233.9" font-family="Arial" font-size="14.00" fill="#666666">[varchar]</text>
<polygon fill="none" stroke="#000000" points="89.5,-192.5 89.5,-222.5 365.5,-222.5 365.5,-192.5 89.5,-192.5"/>
<text text-anchor="start" x="96.5" y="-203.9" font-family="Arial" font-size="14.00" fill="#000000">sale_team_id </text>
<text text-anchor="start" x="183.6332" y="-203.9" font-family="Arial" font-size="14.00" fill="#666666">[integer]</text>
<polygon fill="none" stroke="#000000" points="89.5,-162.5 89.5,-192.5 365.5,-192.5 365.5,-162.5 89.5,-162.5"/>
<text text-anchor="start" x="96.5" y="-173.9" font-family="Arial" font-size="14.00" fill="#000000">target_sales_won </text>
<text text-anchor="start" x="210.089" y="-173.9" font-family="Arial" font-size="14.00" fill="#666666">[integer]</text>
<polygon fill="none" stroke="#000000" points="89.5,-132.5 89.5,-162.5 365.5,-162.5 365.5,-132.5 89.5,-132.5"/>
<text text-anchor="start" x="96.5" y="-143.9" font-family="Arial" font-size="14.00" fill="#000000">target_sales_done </text>
<text text-anchor="start" x="215.5476" y="-143.9" font-family="Arial" font-size="14.00" fill="#666666">[integer]</text>
<polygon fill="none" stroke="#000000" points="89.5,-102.5 89.5,-132.5 365.5,-132.5 365.5,-102.5 89.5,-102.5"/>
<text text-anchor="start" x="96.5" y="-113.9" font-family="Arial" font-size="14.00" fill="#000000">website_id </text>
<text text-anchor="start" x="166.514" y="-113.9" font-family="Arial" font-size="14.00" fill="#666666">[integer]</text>
<polygon fill="none" stroke="#000000" points="89.5,-72.5 89.5,-102.5 365.5,-102.5 365.5,-72.5 89.5,-72.5"/>
<text text-anchor="start" x="96.5" y="-83.9" font-family="Arial" font-size="14.00" fill="#000000">target_sales_invoiced </text>
<text text-anchor="start" x="235.7608" y="-83.9" font-family="Arial" font-size="14.00" fill="#666666">[integer]</text>
<polygon fill="none" stroke="#000000" points="89.5,-42.5 89.5,-72.5 365.5,-72.5 365.5,-42.5 89.5,-42.5"/>
<text text-anchor="start" x="96.5" y="-53.9" font-family="Arial" font-size="14.00" fill="#000000">pos_security_pin </text>
<text text-anchor="start" x="205.4158" y="-53.9" font-family="Arial" font-size="14.00" fill="#666666">[varchar(32)]</text>
</g>
<!-- public.account_invoice_confirm&#45;&gt;public.res_users -->
<g id="edge1" class="edge">
<title>public.account_invoice_confirm:create_uid&#45;&gt;public.res_users:id</title>
<path fill="none" stroke="#000000" d="M417.6844,-966.622C471.88,-956.6472 449.6213,-864.1587 407.5,-817 312.7495,-710.9177 184.2505,-887.0823 89.5,-781 61.8178,-750.0071 47.9444,-687.5 89.5,-687.5"/>
<polygon fill="#000000" stroke="#000000" points="417.463,-966.641 407.1135,-963.0166 412.4815,-967.0705 407.5,-967.5 407.5,-967.5 407.5,-967.5 412.4815,-967.0705 407.8865,-971.9834 417.463,-966.641 417.463,-966.641"/>
<text text-anchor="start" x="414.157" y="-977.5" font-family="Arial" font-size="10.00" fill="#000000">FOREIGN KEY (create_uid) REFERENCES res_users(id) ON DELETE SET NULL</text>
</g>
<!-- public.account_invoice_confirm&#45;&gt;public.res_users -->
<g id="edge2" class="edge">
<title>public.account_invoice_confirm:write_uid&#45;&gt;public.res_users:id</title>
<path fill="none" stroke="#000000" d="M417.4311,-905.9797C445.087,-896.4241 431.7821,-844.1861 407.5,-817 312.7495,-710.9177 184.2505,-887.0823 89.5,-781 61.8178,-750.0071 47.9444,-687.5 89.5,-687.5"/>
<polygon fill="#000000" stroke="#000000" points="417.3849,-905.9867 406.819,-903.0518 412.4424,-906.7434 407.5,-907.5 407.5,-907.5 407.5,-907.5 412.4424,-906.7434 408.181,-911.9482 417.3849,-905.9867 417.3849,-905.9867"/>
<text text-anchor="start" x="414.497" y="-917.5" font-family="Arial" font-size="10.00" fill="#000000">FOREIGN KEY (write_uid) REFERENCES res_users(id) ON DELETE SET NULL</text>
</g>
</g>
</svg>
