<?xml version="1.0" encoding="UTF-8" standalone="no"?>
<!DOCTYPE svg PUBLIC "-//W3C//DTD SVG 1.1//EN"
 "http://www.w3.org/Graphics/SVG/1.1/DTD/svg11.dtd">
<!-- Generated by graphviz version 2.40.1 (20161225.0304)
 -->
<!-- Title: public.account_invoice_purchase_order_rel Pages: 1 -->
<svg width="1357pt" height="2002pt"
 viewBox="0.00 0.00 1357.00 2002.00" xmlns="http://www.w3.org/2000/svg" xmlns:xlink="http://www.w3.org/1999/xlink">
<g id="graph0" class="graph" transform="scale(1 1) rotate(0) translate(4 1998)">
<title>public.account_invoice_purchase_order_rel</title>
<polygon fill="#ffffff" stroke="transparent" points="-4,4 -4,-1998 1353,-1998 1353,4 -4,4"/>
<!-- public.account_invoice_purchase_order_rel -->
<g id="node1" class="node">
<title>public.account_invoice_purchase_order_rel</title>
<polygon fill="#efefef" stroke="transparent" points="444,-1912.5 444,-1947.5 902,-1947.5 902,-1912.5 444,-1912.5"/>
<polygon fill="none" stroke="#000000" points="444,-1912.5 444,-1947.5 902,-1947.5 902,-1912.5 444,-1912.5"/>
<text text-anchor="start" x="450.8297" y="-1925.3" font-family="Arial Bold" font-size="18.00" fill="#000000">public.account_invoice_purchase_order_rel</text>
<text text-anchor="start" x="797.9165" y="-1925.3" font-family="Arial" font-size="14.00" fill="#000000"> </text>
<text text-anchor="start" x="801.8071" y="-1925.3" font-family="Arial" font-size="14.00" fill="#666666">[BASE TABLE]</text>
<polygon fill="none" stroke="#000000" points="444,-1882.5 444,-1912.5 902,-1912.5 902,-1882.5 444,-1882.5"/>
<text text-anchor="start" x="451" y="-1893.9" font-family="Arial" font-size="14.00" fill="#000000">purchase_order_id </text>
<text text-anchor="start" x="571.5876" y="-1893.9" font-family="Arial" font-size="14.00" fill="#666666">[integer]</text>
<polygon fill="none" stroke="#000000" points="444,-1852.5 444,-1882.5 902,-1882.5 902,-1852.5 444,-1852.5"/>
<text text-anchor="start" x="451" y="-1863.9" font-family="Arial" font-size="14.00" fill="#000000">account_invoice_id </text>
<text text-anchor="start" x="573.927" y="-1863.9" font-family="Arial" font-size="14.00" fill="#666666">[integer]</text>
<polygon fill="none" stroke="#000000" stroke-width="3" points="442.5,-1851.5 442.5,-1949.5 903.5,-1949.5 903.5,-1851.5 442.5,-1851.5"/>
</g>
<!-- public.purchase_order -->
<g id="node2" class="node">
<title>public.purchase_order</title>
<polygon fill="#efefef" stroke="transparent" points="331,-1332.5 331,-1367.5 620,-1367.5 620,-1332.5 331,-1332.5"/>
<polygon fill="none" stroke="#000000" points="331,-1332.5 331,-1367.5 620,-1367.5 620,-1332.5 331,-1332.5"/>
<text text-anchor="start" x="337.8523" y="-1345.3" font-family="Arial Bold" font-size="18.00" fill="#000000">public.purchase_order</text>
<text text-anchor="start" x="515.8939" y="-1345.3" font-family="Arial" font-size="14.00" fill="#000000"> </text>
<text text-anchor="start" x="519.7845" y="-1345.3" font-family="Arial" font-size="14.00" fill="#666666">[BASE TABLE]</text>
<polygon fill="none" stroke="#000000" points="331,-1302.5 331,-1332.5 620,-1332.5 620,-1302.5 331,-1302.5"/>
<text text-anchor="start" x="338" y="-1313.9" font-family="Arial" font-size="14.00" fill="#000000">id </text>
<text text-anchor="start" x="352.7798" y="-1313.9" font-family="Arial" font-size="14.00" fill="#666666">[integer]</text>
<polygon fill="none" stroke="#000000" points="331,-1272.5 331,-1302.5 620,-1302.5 620,-1272.5 331,-1272.5"/>
<text text-anchor="start" x="338" y="-1283.9" font-family="Arial" font-size="14.00" fill="#000000">access_token </text>
<text text-anchor="start" x="427.4768" y="-1283.9" font-family="Arial" font-size="14.00" fill="#666666">[varchar]</text>
<polygon fill="none" stroke="#000000" points="331,-1242.5 331,-1272.5 620,-1272.5 620,-1242.5 331,-1242.5"/>
<text text-anchor="start" x="338" y="-1253.9" font-family="Arial" font-size="14.00" fill="#000000">message_main_attachment_id </text>
<text text-anchor="start" x="532.4964" y="-1253.9" font-family="Arial" font-size="14.00" fill="#666666">[integer]</text>
<polygon fill="none" stroke="#000000" points="331,-1212.5 331,-1242.5 620,-1242.5 620,-1212.5 331,-1212.5"/>
<text text-anchor="start" x="338" y="-1223.9" font-family="Arial" font-size="14.00" fill="#000000">name </text>
<text text-anchor="start" x="376.899" y="-1223.9" font-family="Arial" font-size="14.00" fill="#666666">[varchar]</text>
<polygon fill="none" stroke="#000000" points="331,-1182.5 331,-1212.5 620,-1212.5 620,-1182.5 331,-1182.5"/>
<text text-anchor="start" x="338" y="-1193.9" font-family="Arial" font-size="14.00" fill="#000000">origin </text>
<text text-anchor="start" x="376.1122" y="-1193.9" font-family="Arial" font-size="14.00" fill="#666666">[varchar]</text>
<polygon fill="none" stroke="#000000" points="331,-1152.5 331,-1182.5 620,-1182.5 620,-1152.5 331,-1152.5"/>
<text text-anchor="start" x="338" y="-1163.9" font-family="Arial" font-size="14.00" fill="#000000">partner_ref </text>
<text text-anchor="start" x="410.3492" y="-1163.9" font-family="Arial" font-size="14.00" fill="#666666">[varchar]</text>
<polygon fill="none" stroke="#000000" points="331,-1122.5 331,-1152.5 620,-1152.5 620,-1122.5 331,-1122.5"/>
<text text-anchor="start" x="338" y="-1133.9" font-family="Arial" font-size="14.00" fill="#000000">date_order </text>
<text text-anchor="start" x="409.5806" y="-1133.9" font-family="Arial" font-size="14.00" fill="#666666">[timestamp without time zone]</text>
<polygon fill="none" stroke="#000000" points="331,-1092.5 331,-1122.5 620,-1122.5 620,-1092.5 331,-1092.5"/>
<text text-anchor="start" x="338" y="-1103.9" font-family="Arial" font-size="14.00" fill="#000000">date_approve </text>
<text text-anchor="start" x="427.4852" y="-1103.9" font-family="Arial" font-size="14.00" fill="#666666">[date]</text>
<polygon fill="none" stroke="#000000" points="331,-1062.5 331,-1092.5 620,-1092.5 620,-1062.5 331,-1062.5"/>
<text text-anchor="start" x="338" y="-1073.9" font-family="Arial" font-size="14.00" fill="#000000">partner_id </text>
<text text-anchor="start" x="404.9046" y="-1073.9" font-family="Arial" font-size="14.00" fill="#666666">[integer]</text>
<polygon fill="none" stroke="#000000" points="331,-1032.5 331,-1062.5 620,-1062.5 620,-1032.5 331,-1032.5"/>
<text text-anchor="start" x="338" y="-1043.9" font-family="Arial" font-size="14.00" fill="#000000">dest_address_id </text>
<text text-anchor="start" x="444.5918" y="-1043.9" font-family="Arial" font-size="14.00" fill="#666666">[integer]</text>
<polygon fill="none" stroke="#000000" points="331,-1002.5 331,-1032.5 620,-1032.5 620,-1002.5 331,-1002.5"/>
<text text-anchor="start" x="338" y="-1013.9" font-family="Arial" font-size="14.00" fill="#000000">currency_id </text>
<text text-anchor="start" x="414.2314" y="-1013.9" font-family="Arial" font-size="14.00" fill="#666666">[integer]</text>
<polygon fill="none" stroke="#000000" points="331,-972.5 331,-1002.5 620,-1002.5 620,-972.5 331,-972.5"/>
<text text-anchor="start" x="338" y="-983.9" font-family="Arial" font-size="14.00" fill="#000000">state </text>
<text text-anchor="start" x="372.237" y="-983.9" font-family="Arial" font-size="14.00" fill="#666666">[varchar]</text>
<polygon fill="none" stroke="#000000" points="331,-942.5 331,-972.5 620,-972.5 620,-942.5 331,-942.5"/>
<text text-anchor="start" x="338" y="-953.9" font-family="Arial" font-size="14.00" fill="#000000">notes </text>
<text text-anchor="start" x="376.129" y="-953.9" font-family="Arial" font-size="14.00" fill="#666666">[text]</text>
<polygon fill="none" stroke="#000000" points="331,-912.5 331,-942.5 620,-942.5 620,-912.5 331,-912.5"/>
<text text-anchor="start" x="338" y="-923.9" font-family="Arial" font-size="14.00" fill="#000000">invoice_count </text>
<text text-anchor="start" x="427.4726" y="-923.9" font-family="Arial" font-size="14.00" fill="#666666">[integer]</text>
<polygon fill="none" stroke="#000000" points="331,-882.5 331,-912.5 620,-912.5 620,-882.5 331,-882.5"/>
<text text-anchor="start" x="338" y="-893.9" font-family="Arial" font-size="14.00" fill="#000000">invoice_status </text>
<text text-anchor="start" x="430.5806" y="-893.9" font-family="Arial" font-size="14.00" fill="#666666">[varchar]</text>
<polygon fill="none" stroke="#000000" points="331,-852.5 331,-882.5 620,-882.5 620,-852.5 331,-852.5"/>
<text text-anchor="start" x="338" y="-863.9" font-family="Arial" font-size="14.00" fill="#000000">date_planned </text>
<text text-anchor="start" x="426.7138" y="-863.9" font-family="Arial" font-size="14.00" fill="#666666">[timestamp without time zone]</text>
<polygon fill="none" stroke="#000000" points="331,-822.5 331,-852.5 620,-852.5 620,-822.5 331,-822.5"/>
<text text-anchor="start" x="338" y="-833.9" font-family="Arial" font-size="14.00" fill="#000000">amount_untaxed </text>
<text text-anchor="start" x="446.1584" y="-833.9" font-family="Arial" font-size="14.00" fill="#666666">[numeric]</text>
<polygon fill="none" stroke="#000000" points="331,-792.5 331,-822.5 620,-822.5 620,-792.5 331,-792.5"/>
<text text-anchor="start" x="338" y="-803.9" font-family="Arial" font-size="14.00" fill="#000000">amount_tax </text>
<text text-anchor="start" x="415.028" y="-803.9" font-family="Arial" font-size="14.00" fill="#666666">[numeric]</text>
<polygon fill="none" stroke="#000000" points="331,-762.5 331,-792.5 620,-792.5 620,-762.5 331,-762.5"/>
<text text-anchor="start" x="338" y="-773.9" font-family="Arial" font-size="14.00" fill="#000000">amount_total </text>
<text text-anchor="start" x="422.8078" y="-773.9" font-family="Arial" font-size="14.00" fill="#666666">[numeric]</text>
<polygon fill="none" stroke="#000000" points="331,-732.5 331,-762.5 620,-762.5 620,-732.5 331,-732.5"/>
<text text-anchor="start" x="338" y="-743.9" font-family="Arial" font-size="14.00" fill="#000000">fiscal_position_id </text>
<text text-anchor="start" x="448.4656" y="-743.9" font-family="Arial" font-size="14.00" fill="#666666">[integer]</text>
<polygon fill="none" stroke="#000000" points="331,-702.5 331,-732.5 620,-732.5 620,-702.5 331,-702.5"/>
<text text-anchor="start" x="338" y="-713.9" font-family="Arial" font-size="14.00" fill="#000000">payment_term_id </text>
<text text-anchor="start" x="450.021" y="-713.9" font-family="Arial" font-size="14.00" fill="#666666">[integer]</text>
<polygon fill="none" stroke="#000000" points="331,-672.5 331,-702.5 620,-702.5 620,-672.5 331,-672.5"/>
<text text-anchor="start" x="338" y="-683.9" font-family="Arial" font-size="14.00" fill="#000000">incoterm_id </text>
<text text-anchor="start" x="414.2286" y="-683.9" font-family="Arial" font-size="14.00" fill="#666666">[integer]</text>
<polygon fill="none" stroke="#000000" points="331,-642.5 331,-672.5 620,-672.5 620,-642.5 331,-642.5"/>
<text text-anchor="start" x="338" y="-653.9" font-family="Arial" font-size="14.00" fill="#000000">user_id </text>
<text text-anchor="start" x="387.7882" y="-653.9" font-family="Arial" font-size="14.00" fill="#666666">[integer]</text>
<polygon fill="none" stroke="#000000" points="331,-612.5 331,-642.5 620,-642.5 620,-612.5 331,-612.5"/>
<text text-anchor="start" x="338" y="-623.9" font-family="Arial" font-size="14.00" fill="#000000">company_id </text>
<text text-anchor="start" x="417.3534" y="-623.9" font-family="Arial" font-size="14.00" fill="#666666">[integer]</text>
<polygon fill="none" stroke="#000000" points="331,-582.5 331,-612.5 620,-612.5 620,-582.5 331,-582.5"/>
<text text-anchor="start" x="338" y="-593.9" font-family="Arial" font-size="14.00" fill="#000000">create_uid </text>
<text text-anchor="start" x="407.244" y="-593.9" font-family="Arial" font-size="14.00" fill="#666666">[integer]</text>
<polygon fill="none" stroke="#000000" points="331,-552.5 331,-582.5 620,-582.5 620,-552.5 331,-552.5"/>
<text text-anchor="start" x="338" y="-563.9" font-family="Arial" font-size="14.00" fill="#000000">create_date </text>
<text text-anchor="start" x="415.8106" y="-563.9" font-family="Arial" font-size="14.00" fill="#666666">[timestamp without time zone]</text>
<polygon fill="none" stroke="#000000" points="331,-522.5 331,-552.5 620,-552.5 620,-522.5 331,-522.5"/>
<text text-anchor="start" x="338" y="-533.9" font-family="Arial" font-size="14.00" fill="#000000">write_uid </text>
<text text-anchor="start" x="397.892" y="-533.9" font-family="Arial" font-size="14.00" fill="#666666">[integer]</text>
<polygon fill="none" stroke="#000000" points="331,-492.5 331,-522.5 620,-522.5 620,-492.5 331,-492.5"/>
<text text-anchor="start" x="338" y="-503.9" font-family="Arial" font-size="14.00" fill="#000000">write_date </text>
<text text-anchor="start" x="406.4586" y="-503.9" font-family="Arial" font-size="14.00" fill="#666666">[timestamp without time zone]</text>
<polygon fill="none" stroke="#000000" points="331,-462.5 331,-492.5 620,-492.5 620,-462.5 331,-462.5"/>
<text text-anchor="start" x="338" y="-473.9" font-family="Arial" font-size="14.00" fill="#000000">picking_count </text>
<text text-anchor="start" x="427.4726" y="-473.9" font-family="Arial" font-size="14.00" fill="#666666">[integer]</text>
<polygon fill="none" stroke="#000000" points="331,-432.5 331,-462.5 620,-462.5 620,-432.5 331,-432.5"/>
<text text-anchor="start" x="338" y="-443.9" font-family="Arial" font-size="14.00" fill="#000000">picking_type_id </text>
<text text-anchor="start" x="438.3618" y="-443.9" font-family="Arial" font-size="14.00" fill="#666666">[integer]</text>
<polygon fill="none" stroke="#000000" points="331,-402.5 331,-432.5 620,-432.5 620,-402.5 331,-402.5"/>
<text text-anchor="start" x="338" y="-413.9" font-family="Arial" font-size="14.00" fill="#000000">group_id </text>
<text text-anchor="start" x="396.3534" y="-413.9" font-family="Arial" font-size="14.00" fill="#666666">[integer]</text>
</g>
<!-- public.account_invoice_purchase_order_rel&#45;&gt;public.purchase_order -->
<g id="edge1" class="edge">
<title>public.account_invoice_purchase_order_rel:purchase_order_id&#45;&gt;public.purchase_order:id</title>
<path fill="none" stroke="#000000" d="M433.9258,-1896.1308C334.0693,-1865.1136 750.8778,-1317.5 620,-1317.5"/>
<polygon fill="#000000" stroke="#000000" points="434.0911,-1896.1532 443.3939,-1901.959 439.0455,-1896.8266 444,-1897.5 444,-1897.5 444,-1897.5 439.0455,-1896.8266 444.6061,-1893.041 434.0911,-1896.1532 434.0911,-1896.1532"/>
<text text-anchor="start" x="6.9825" y="-1907.5" font-family="Arial" font-size="10.00" fill="#000000">FOREIGN KEY (purchase_order_id) REFERENCES purchase_order(id) ON DELETE CASCADE</text>
</g>
<!-- public.account_invoice -->
<g id="node3" class="node">
<title>public.account_invoice</title>
<polygon fill="#efefef" stroke="transparent" points="724,-1692.5 724,-1727.5 1016,-1727.5 1016,-1692.5 724,-1692.5"/>
<polygon fill="none" stroke="#000000" points="724,-1692.5 724,-1727.5 1016,-1727.5 1016,-1692.5 724,-1692.5"/>
<text text-anchor="start" x="730.8484" y="-1705.3" font-family="Arial Bold" font-size="18.00" fill="#000000">public.account_invoice</text>
<text text-anchor="start" x="911.8978" y="-1705.3" font-family="Arial" font-size="14.00" fill="#000000"> </text>
<text text-anchor="start" x="915.7884" y="-1705.3" font-family="Arial" font-size="14.00" fill="#666666">[BASE TABLE]</text>
<polygon fill="none" stroke="#000000" points="724,-1662.5 724,-1692.5 1016,-1692.5 1016,-1662.5 724,-1662.5"/>
<text text-anchor="start" x="731" y="-1673.9" font-family="Arial" font-size="14.00" fill="#000000">id </text>
<text text-anchor="start" x="745.7798" y="-1673.9" font-family="Arial" font-size="14.00" fill="#666666">[integer]</text>
<polygon fill="none" stroke="#000000" points="724,-1632.5 724,-1662.5 1016,-1662.5 1016,-1632.5 724,-1632.5"/>
<text text-anchor="start" x="731" y="-1643.9" font-family="Arial" font-size="14.00" fill="#000000">access_token </text>
<text text-anchor="start" x="820.4768" y="-1643.9" font-family="Arial" font-size="14.00" fill="#666666">[varchar]</text>
<polygon fill="none" stroke="#000000" points="724,-1602.5 724,-1632.5 1016,-1632.5 1016,-1602.5 724,-1602.5"/>
<text text-anchor="start" x="731" y="-1613.9" font-family="Arial" font-size="14.00" fill="#000000">message_main_attachment_id </text>
<text text-anchor="start" x="925.4964" y="-1613.9" font-family="Arial" font-size="14.00" fill="#666666">[integer]</text>
<polygon fill="none" stroke="#000000" points="724,-1572.5 724,-1602.5 1016,-1602.5 1016,-1572.5 724,-1572.5"/>
<text text-anchor="start" x="731" y="-1583.9" font-family="Arial" font-size="14.00" fill="#000000">name </text>
<text text-anchor="start" x="769.899" y="-1583.9" font-family="Arial" font-size="14.00" fill="#666666">[varchar]</text>
<polygon fill="none" stroke="#000000" points="724,-1542.5 724,-1572.5 1016,-1572.5 1016,-1542.5 724,-1542.5"/>
<text text-anchor="start" x="731" y="-1553.9" font-family="Arial" font-size="14.00" fill="#000000">origin </text>
<text text-anchor="start" x="769.1122" y="-1553.9" font-family="Arial" font-size="14.00" fill="#666666">[varchar]</text>
<polygon fill="none" stroke="#000000" points="724,-1512.5 724,-1542.5 1016,-1542.5 1016,-1512.5 724,-1512.5"/>
<text text-anchor="start" x="731" y="-1523.9" font-family="Arial" font-size="14.00" fill="#000000">type </text>
<text text-anchor="start" x="761.3464" y="-1523.9" font-family="Arial" font-size="14.00" fill="#666666">[varchar]</text>
<polygon fill="none" stroke="#000000" points="724,-1482.5 724,-1512.5 1016,-1512.5 1016,-1482.5 724,-1482.5"/>
<text text-anchor="start" x="731" y="-1493.9" font-family="Arial" font-size="14.00" fill="#000000">refund_invoice_id </text>
<text text-anchor="start" x="844.5876" y="-1493.9" font-family="Arial" font-size="14.00" fill="#666666">[integer]</text>
<polygon fill="none" stroke="#000000" points="724,-1452.5 724,-1482.5 1016,-1482.5 1016,-1452.5 724,-1452.5"/>
<text text-anchor="start" x="731" y="-1463.9" font-family="Arial" font-size="14.00" fill="#000000">number </text>
<text text-anchor="start" x="782.3422" y="-1463.9" font-family="Arial" font-size="14.00" fill="#666666">[varchar]</text>
<polygon fill="none" stroke="#000000" points="724,-1422.5 724,-1452.5 1016,-1452.5 1016,-1422.5 724,-1422.5"/>
<text text-anchor="start" x="731" y="-1433.9" font-family="Arial" font-size="14.00" fill="#000000">move_name </text>
<text text-anchor="start" x="811.9074" y="-1433.9" font-family="Arial" font-size="14.00" fill="#666666">[varchar]</text>
<polygon fill="none" stroke="#000000" points="724,-1392.5 724,-1422.5 1016,-1422.5 1016,-1392.5 724,-1392.5"/>
<text text-anchor="start" x="731" y="-1403.9" font-family="Arial" font-size="14.00" fill="#000000">reference </text>
<text text-anchor="start" x="794.0154" y="-1403.9" font-family="Arial" font-size="14.00" fill="#666666">[varchar]</text>
<polygon fill="none" stroke="#000000" points="724,-1362.5 724,-1392.5 1016,-1392.5 1016,-1362.5 724,-1362.5"/>
<text text-anchor="start" x="731" y="-1373.9" font-family="Arial" font-size="14.00" fill="#000000">comment </text>
<text text-anchor="start" x="792.4502" y="-1373.9" font-family="Arial" font-size="14.00" fill="#666666">[text]</text>
<polygon fill="none" stroke="#000000" points="724,-1332.5 724,-1362.5 1016,-1362.5 1016,-1332.5 724,-1332.5"/>
<text text-anchor="start" x="731" y="-1343.9" font-family="Arial" font-size="14.00" fill="#000000">state </text>
<text text-anchor="start" x="765.237" y="-1343.9" font-family="Arial" font-size="14.00" fill="#666666">[varchar]</text>
<polygon fill="none" stroke="#000000" points="724,-1302.5 724,-1332.5 1016,-1332.5 1016,-1302.5 724,-1302.5"/>
<text text-anchor="start" x="731" y="-1313.9" font-family="Arial" font-size="14.00" fill="#000000">sent </text>
<text text-anchor="start" x="761.3464" y="-1313.9" font-family="Arial" font-size="14.00" fill="#666666">[boolean]</text>
<polygon fill="none" stroke="#000000" points="724,-1272.5 724,-1302.5 1016,-1302.5 1016,-1272.5 724,-1272.5"/>
<text text-anchor="start" x="731" y="-1283.9" font-family="Arial" font-size="14.00" fill="#000000">date_invoice </text>
<text text-anchor="start" x="813.4726" y="-1283.9" font-family="Arial" font-size="14.00" fill="#666666">[date]</text>
<polygon fill="none" stroke="#000000" points="724,-1242.5 724,-1272.5 1016,-1272.5 1016,-1242.5 724,-1242.5"/>
<text text-anchor="start" x="731" y="-1253.9" font-family="Arial" font-size="14.00" fill="#000000">date_due </text>
<text text-anchor="start" x="793.2594" y="-1253.9" font-family="Arial" font-size="14.00" fill="#666666">[date]</text>
<polygon fill="none" stroke="#000000" points="724,-1212.5 724,-1242.5 1016,-1242.5 1016,-1212.5 724,-1212.5"/>
<text text-anchor="start" x="731" y="-1223.9" font-family="Arial" font-size="14.00" fill="#000000">partner_id </text>
<text text-anchor="start" x="797.9046" y="-1223.9" font-family="Arial" font-size="14.00" fill="#666666">[integer]</text>
<polygon fill="none" stroke="#000000" points="724,-1182.5 724,-1212.5 1016,-1212.5 1016,-1182.5 724,-1182.5"/>
<text text-anchor="start" x="731" y="-1193.9" font-family="Arial" font-size="14.00" fill="#000000">vendor_bill_id </text>
<text text-anchor="start" x="821.2384" y="-1193.9" font-family="Arial" font-size="14.00" fill="#666666">[integer]</text>
<polygon fill="none" stroke="#000000" points="724,-1152.5 724,-1182.5 1016,-1182.5 1016,-1152.5 724,-1152.5"/>
<text text-anchor="start" x="731" y="-1163.9" font-family="Arial" font-size="14.00" fill="#000000">payment_term_id </text>
<text text-anchor="start" x="843.021" y="-1163.9" font-family="Arial" font-size="14.00" fill="#666666">[integer]</text>
<polygon fill="none" stroke="#000000" points="724,-1122.5 724,-1152.5 1016,-1152.5 1016,-1122.5 724,-1122.5"/>
<text text-anchor="start" x="731" y="-1133.9" font-family="Arial" font-size="14.00" fill="#000000">date </text>
<text text-anchor="start" x="762.129" y="-1133.9" font-family="Arial" font-size="14.00" fill="#666666">[date]</text>
<polygon fill="none" stroke="#000000" points="724,-1092.5 724,-1122.5 1016,-1122.5 1016,-1092.5 724,-1092.5"/>
<text text-anchor="start" x="731" y="-1103.9" font-family="Arial" font-size="14.00" fill="#000000">account_id </text>
<text text-anchor="start" x="802.5834" y="-1103.9" font-family="Arial" font-size="14.00" fill="#666666">[integer]</text>
<polygon fill="none" stroke="#000000" points="724,-1062.5 724,-1092.5 1016,-1092.5 1016,-1062.5 724,-1062.5"/>
<text text-anchor="start" x="731" y="-1073.9" font-family="Arial" font-size="14.00" fill="#000000">move_id </text>
<text text-anchor="start" x="787.7882" y="-1073.9" font-family="Arial" font-size="14.00" fill="#666666">[integer]</text>
<polygon fill="none" stroke="#000000" points="724,-1032.5 724,-1062.5 1016,-1062.5 1016,-1032.5 724,-1032.5"/>
<text text-anchor="start" x="731" y="-1043.9" font-family="Arial" font-size="14.00" fill="#000000">amount_untaxed </text>
<text text-anchor="start" x="839.1584" y="-1043.9" font-family="Arial" font-size="14.00" fill="#666666">[numeric]</text>
<polygon fill="none" stroke="#000000" points="724,-1002.5 724,-1032.5 1016,-1032.5 1016,-1002.5 724,-1002.5"/>
<text text-anchor="start" x="731" y="-1013.9" font-family="Arial" font-size="14.00" fill="#000000">amount_untaxed_signed </text>
<text text-anchor="start" x="888.178" y="-1013.9" font-family="Arial" font-size="14.00" fill="#666666">[numeric]</text>
<polygon fill="none" stroke="#000000" points="724,-972.5 724,-1002.5 1016,-1002.5 1016,-972.5 724,-972.5"/>
<text text-anchor="start" x="731" y="-983.9" font-family="Arial" font-size="14.00" fill="#000000">amount_tax </text>
<text text-anchor="start" x="808.028" y="-983.9" font-family="Arial" font-size="14.00" fill="#666666">[numeric]</text>
<polygon fill="none" stroke="#000000" points="724,-942.5 724,-972.5 1016,-972.5 1016,-942.5 724,-942.5"/>
<text text-anchor="start" x="731" y="-953.9" font-family="Arial" font-size="14.00" fill="#000000">amount_total </text>
<text text-anchor="start" x="815.8078" y="-953.9" font-family="Arial" font-size="14.00" fill="#666666">[numeric]</text>
<polygon fill="none" stroke="#000000" points="724,-912.5 724,-942.5 1016,-942.5 1016,-912.5 724,-912.5"/>
<text text-anchor="start" x="731" y="-923.9" font-family="Arial" font-size="14.00" fill="#000000">amount_total_signed </text>
<text text-anchor="start" x="864.8274" y="-923.9" font-family="Arial" font-size="14.00" fill="#666666">[numeric]</text>
<polygon fill="none" stroke="#000000" points="724,-882.5 724,-912.5 1016,-912.5 1016,-882.5 724,-882.5"/>
<text text-anchor="start" x="731" y="-893.9" font-family="Arial" font-size="14.00" fill="#000000">amount_total_company_signed </text>
<text text-anchor="start" x="929.401" y="-893.9" font-family="Arial" font-size="14.00" fill="#666666">[numeric]</text>
<polygon fill="none" stroke="#000000" points="724,-852.5 724,-882.5 1016,-882.5 1016,-852.5 724,-852.5"/>
<text text-anchor="start" x="731" y="-863.9" font-family="Arial" font-size="14.00" fill="#000000">currency_id </text>
<text text-anchor="start" x="807.2314" y="-863.9" font-family="Arial" font-size="14.00" fill="#666666">[integer]</text>
<polygon fill="none" stroke="#000000" points="724,-822.5 724,-852.5 1016,-852.5 1016,-822.5 724,-822.5"/>
<text text-anchor="start" x="731" y="-833.9" font-family="Arial" font-size="14.00" fill="#000000">journal_id </text>
<text text-anchor="start" x="795.5666" y="-833.9" font-family="Arial" font-size="14.00" fill="#666666">[integer]</text>
<polygon fill="none" stroke="#000000" points="724,-792.5 724,-822.5 1016,-822.5 1016,-792.5 724,-792.5"/>
<text text-anchor="start" x="731" y="-803.9" font-family="Arial" font-size="14.00" fill="#000000">company_id </text>
<text text-anchor="start" x="810.3534" y="-803.9" font-family="Arial" font-size="14.00" fill="#666666">[integer]</text>
<polygon fill="none" stroke="#000000" points="724,-762.5 724,-792.5 1016,-792.5 1016,-762.5 724,-762.5"/>
<text text-anchor="start" x="731" y="-773.9" font-family="Arial" font-size="14.00" fill="#000000">reconciled </text>
<text text-anchor="start" x="798.6774" y="-773.9" font-family="Arial" font-size="14.00" fill="#666666">[boolean]</text>
<polygon fill="none" stroke="#000000" points="724,-732.5 724,-762.5 1016,-762.5 1016,-732.5 724,-732.5"/>
<text text-anchor="start" x="731" y="-743.9" font-family="Arial" font-size="14.00" fill="#000000">partner_bank_id </text>
<text text-anchor="start" x="836.035" y="-743.9" font-family="Arial" font-size="14.00" fill="#666666">[integer]</text>
<polygon fill="none" stroke="#000000" points="724,-702.5 724,-732.5 1016,-732.5 1016,-702.5 724,-702.5"/>
<text text-anchor="start" x="731" y="-713.9" font-family="Arial" font-size="14.00" fill="#000000">residual </text>
<text text-anchor="start" x="783.8948" y="-713.9" font-family="Arial" font-size="14.00" fill="#666666">[numeric]</text>
<polygon fill="none" stroke="#000000" points="724,-672.5 724,-702.5 1016,-702.5 1016,-672.5 724,-672.5"/>
<text text-anchor="start" x="731" y="-683.9" font-family="Arial" font-size="14.00" fill="#000000">residual_signed </text>
<text text-anchor="start" x="832.9144" y="-683.9" font-family="Arial" font-size="14.00" fill="#666666">[numeric]</text>
<polygon fill="none" stroke="#000000" points="724,-642.5 724,-672.5 1016,-672.5 1016,-642.5 724,-642.5"/>
<text text-anchor="start" x="731" y="-653.9" font-family="Arial" font-size="14.00" fill="#000000">residual_company_signed </text>
<text text-anchor="start" x="897.488" y="-653.9" font-family="Arial" font-size="14.00" fill="#666666">[numeric]</text>
<polygon fill="none" stroke="#000000" points="724,-612.5 724,-642.5 1016,-642.5 1016,-612.5 724,-612.5"/>
<text text-anchor="start" x="731" y="-623.9" font-family="Arial" font-size="14.00" fill="#000000">user_id </text>
<text text-anchor="start" x="780.7882" y="-623.9" font-family="Arial" font-size="14.00" fill="#666666">[integer]</text>
<polygon fill="none" stroke="#000000" points="724,-582.5 724,-612.5 1016,-612.5 1016,-582.5 724,-582.5"/>
<text text-anchor="start" x="731" y="-593.9" font-family="Arial" font-size="14.00" fill="#000000">fiscal_position_id </text>
<text text-anchor="start" x="841.4656" y="-593.9" font-family="Arial" font-size="14.00" fill="#666666">[integer]</text>
<polygon fill="none" stroke="#000000" points="724,-552.5 724,-582.5 1016,-582.5 1016,-552.5 724,-552.5"/>
<text text-anchor="start" x="731" y="-563.9" font-family="Arial" font-size="14.00" fill="#000000">commercial_partner_id </text>
<text text-anchor="start" x="877.23" y="-563.9" font-family="Arial" font-size="14.00" fill="#666666">[integer]</text>
<polygon fill="none" stroke="#000000" points="724,-522.5 724,-552.5 1016,-552.5 1016,-522.5 724,-522.5"/>
<text text-anchor="start" x="731" y="-533.9" font-family="Arial" font-size="14.00" fill="#000000">cash_rounding_id </text>
<text text-anchor="start" x="845.373" y="-533.9" font-family="Arial" font-size="14.00" fill="#666666">[integer]</text>
<polygon fill="none" stroke="#000000" points="724,-492.5 724,-522.5 1016,-522.5 1016,-492.5 724,-492.5"/>
<text text-anchor="start" x="731" y="-503.9" font-family="Arial" font-size="14.00" fill="#000000">incoterm_id </text>
<text text-anchor="start" x="807.2286" y="-503.9" font-family="Arial" font-size="14.00" fill="#666666">[integer]</text>
<polygon fill="none" stroke="#000000" points="724,-462.5 724,-492.5 1016,-492.5 1016,-462.5 724,-462.5"/>
<text text-anchor="start" x="731" y="-473.9" font-family="Arial" font-size="14.00" fill="#000000">source_email </text>
<text text-anchor="start" x="818.1206" y="-473.9" font-family="Arial" font-size="14.00" fill="#666666">[varchar]</text>
<polygon fill="none" stroke="#000000" points="724,-432.5 724,-462.5 1016,-462.5 1016,-432.5 724,-432.5"/>
<text text-anchor="start" x="731" y="-443.9" font-family="Arial" font-size="14.00" fill="#000000">vendor_display_name </text>
<text text-anchor="start" x="871.8162" y="-443.9" font-family="Arial" font-size="14.00" fill="#666666">[varchar]</text>
<polygon fill="none" stroke="#000000" points="724,-402.5 724,-432.5 1016,-432.5 1016,-402.5 724,-402.5"/>
<text text-anchor="start" x="731" y="-413.9" font-family="Arial" font-size="14.00" fill="#000000">create_uid </text>
<text text-anchor="start" x="800.244" y="-413.9" font-family="Arial" font-size="14.00" fill="#666666">[integer]</text>
<polygon fill="none" stroke="#000000" points="724,-372.5 724,-402.5 1016,-402.5 1016,-372.5 724,-372.5"/>
<text text-anchor="start" x="731" y="-383.9" font-family="Arial" font-size="14.00" fill="#000000">create_date </text>
<text text-anchor="start" x="808.8106" y="-383.9" font-family="Arial" font-size="14.00" fill="#666666">[timestamp without time zone]</text>
<polygon fill="none" stroke="#000000" points="724,-342.5 724,-372.5 1016,-372.5 1016,-342.5 724,-342.5"/>
<text text-anchor="start" x="731" y="-353.9" font-family="Arial" font-size="14.00" fill="#000000">write_uid </text>
<text text-anchor="start" x="790.892" y="-353.9" font-family="Arial" font-size="14.00" fill="#666666">[integer]</text>
<polygon fill="none" stroke="#000000" points="724,-312.5 724,-342.5 1016,-342.5 1016,-312.5 724,-312.5"/>
<text text-anchor="start" x="731" y="-323.9" font-family="Arial" font-size="14.00" fill="#000000">write_date </text>
<text text-anchor="start" x="799.4586" y="-323.9" font-family="Arial" font-size="14.00" fill="#666666">[timestamp without time zone]</text>
<polygon fill="none" stroke="#000000" points="724,-282.5 724,-312.5 1016,-312.5 1016,-282.5 724,-282.5"/>
<text text-anchor="start" x="731" y="-293.9" font-family="Arial" font-size="14.00" fill="#000000">team_id </text>
<text text-anchor="start" x="784.6788" y="-293.9" font-family="Arial" font-size="14.00" fill="#666666">[integer]</text>
<polygon fill="none" stroke="#000000" points="724,-252.5 724,-282.5 1016,-282.5 1016,-252.5 724,-252.5"/>
<text text-anchor="start" x="731" y="-263.9" font-family="Arial" font-size="14.00" fill="#000000">partner_shipping_id </text>
<text text-anchor="start" x="857.8134" y="-263.9" font-family="Arial" font-size="14.00" fill="#666666">[integer]</text>
<polygon fill="none" stroke="#000000" points="724,-222.5 724,-252.5 1016,-252.5 1016,-222.5 724,-222.5"/>
<text text-anchor="start" x="731" y="-233.9" font-family="Arial" font-size="14.00" fill="#000000">website_id </text>
<text text-anchor="start" x="801.014" y="-233.9" font-family="Arial" font-size="14.00" fill="#666666">[integer]</text>
<polygon fill="none" stroke="#000000" points="724,-192.5 724,-222.5 1016,-222.5 1016,-192.5 724,-192.5"/>
<text text-anchor="start" x="731" y="-203.9" font-family="Arial" font-size="14.00" fill="#000000">incoterms_id </text>
<text text-anchor="start" x="814.2286" y="-203.9" font-family="Arial" font-size="14.00" fill="#666666">[integer]</text>
<polygon fill="none" stroke="#000000" points="724,-162.5 724,-192.5 1016,-192.5 1016,-162.5 724,-162.5"/>
<text text-anchor="start" x="731" y="-173.9" font-family="Arial" font-size="14.00" fill="#000000">campaign_id </text>
<text text-anchor="start" x="814.2426" y="-173.9" font-family="Arial" font-size="14.00" fill="#666666">[integer]</text>
<polygon fill="none" stroke="#000000" points="724,-132.5 724,-162.5 1016,-162.5 1016,-132.5 724,-132.5"/>
<text text-anchor="start" x="731" y="-143.9" font-family="Arial" font-size="14.00" fill="#000000">source_id </text>
<text text-anchor="start" x="795.5708" y="-143.9" font-family="Arial" font-size="14.00" fill="#666666">[integer]</text>
<polygon fill="none" stroke="#000000" points="724,-102.5 724,-132.5 1016,-132.5 1016,-102.5 724,-102.5"/>
<text text-anchor="start" x="731" y="-113.9" font-family="Arial" font-size="14.00" fill="#000000">medium_id </text>
<text text-anchor="start" x="803.338" y="-113.9" font-family="Arial" font-size="14.00" fill="#666666">[integer]</text>
<polygon fill="none" stroke="#000000" points="724,-72.5 724,-102.5 1016,-102.5 1016,-72.5 724,-72.5"/>
<text text-anchor="start" x="731" y="-83.9" font-family="Arial" font-size="14.00" fill="#000000">purchase_id </text>
<text text-anchor="start" x="811.136" y="-83.9" font-family="Arial" font-size="14.00" fill="#666666">[integer]</text>
<polygon fill="none" stroke="#000000" points="724,-42.5 724,-72.5 1016,-72.5 1016,-42.5 724,-42.5"/>
<text text-anchor="start" x="731" y="-53.9" font-family="Arial" font-size="14.00" fill="#000000">vendor_bill_purchase_id </text>
<text text-anchor="start" x="886.5946" y="-53.9" font-family="Arial" font-size="14.00" fill="#666666">[integer]</text>
</g>
<!-- public.account_invoice_purchase_order_rel&#45;&gt;public.account_invoice -->
<g id="edge2" class="edge">
<title>public.account_invoice_purchase_order_rel:account_invoice_id&#45;&gt;public.account_invoice:id</title>
<path fill="none" stroke="#000000" d="M912.0252,-1864.8166C925.6315,-1855.5585 916.3647,-1824.5607 902,-1807 850.8964,-1744.5261 775.1036,-1833.4739 724,-1771 697.689,-1738.8349 682.4444,-1677.5 724,-1677.5"/>
<polygon fill="#000000" stroke="#000000" points="911.6599,-1864.9143 900.8364,-1863.153 906.83,-1866.2072 902,-1867.5 902,-1867.5 902,-1867.5 906.83,-1866.2072 903.1636,-1871.847 911.6599,-1864.9143 911.6599,-1864.9143"/>
<text text-anchor="start" x="909.3115" y="-1877.5" font-family="Arial" font-size="10.00" fill="#000000">FOREIGN KEY (account_invoice_id) REFERENCES account_invoice(id) ON DELETE CASCADE</text>
</g>
</g>
</svg>
