<?xml version="1.0" encoding="UTF-8" standalone="no"?>
<!DOCTYPE svg PUBLIC "-//W3C//DTD SVG 1.1//EN"
 "http://www.w3.org/Graphics/SVG/1.1/DTD/svg11.dtd">
<!-- Generated by graphviz version 2.40.1 (20161225.0304)
 -->
<!-- Title: public.product_style Pages: 1 -->
<svg width="795pt" height="1379pt"
 viewBox="0.00 0.00 794.50 1379.00" xmlns="http://www.w3.org/2000/svg" xmlns:xlink="http://www.w3.org/1999/xlink">
<g id="graph0" class="graph" transform="scale(1 1) rotate(0) translate(4 1375)">
<title>public.product_style</title>
<polygon fill="#ffffff" stroke="transparent" points="-4,4 -4,-1375 790.5,-1375 790.5,4 -4,4"/>
<!-- public.product_style -->
<g id="node1" class="node">
<title>public.product_style</title>
<polygon fill="#efefef" stroke="transparent" points="130.5,-1072.5 130.5,-1107.5 406.5,-1107.5 406.5,-1072.5 130.5,-1072.5"/>
<polygon fill="none" stroke="#000000" points="130.5,-1072.5 130.5,-1107.5 406.5,-1107.5 406.5,-1072.5 130.5,-1072.5"/>
<text text-anchor="start" x="140.3545" y="-1085.3" font-family="Arial Bold" font-size="18.00" fill="#000000">public.product_style</text>
<text text-anchor="start" x="299.3917" y="-1085.3" font-family="Arial" font-size="14.00" fill="#000000"> </text>
<text text-anchor="start" x="303.2823" y="-1085.3" font-family="Arial" font-size="14.00" fill="#666666">[BASE TABLE]</text>
<polygon fill="none" stroke="#000000" points="130.5,-1042.5 130.5,-1072.5 406.5,-1072.5 406.5,-1042.5 130.5,-1042.5"/>
<text text-anchor="start" x="137.5" y="-1053.9" font-family="Arial" font-size="14.00" fill="#000000">id </text>
<text text-anchor="start" x="152.2798" y="-1053.9" font-family="Arial" font-size="14.00" fill="#666666">[integer]</text>
<polygon fill="none" stroke="#000000" points="130.5,-1012.5 130.5,-1042.5 406.5,-1042.5 406.5,-1012.5 130.5,-1012.5"/>
<text text-anchor="start" x="137.5" y="-1023.9" font-family="Arial" font-size="14.00" fill="#000000">name </text>
<text text-anchor="start" x="176.399" y="-1023.9" font-family="Arial" font-size="14.00" fill="#666666">[varchar]</text>
<polygon fill="none" stroke="#000000" points="130.5,-982.5 130.5,-1012.5 406.5,-1012.5 406.5,-982.5 130.5,-982.5"/>
<text text-anchor="start" x="137.5" y="-993.9" font-family="Arial" font-size="14.00" fill="#000000">html_class </text>
<text text-anchor="start" x="207.5028" y="-993.9" font-family="Arial" font-size="14.00" fill="#666666">[varchar]</text>
<polygon fill="none" stroke="#000000" points="130.5,-952.5 130.5,-982.5 406.5,-982.5 406.5,-952.5 130.5,-952.5"/>
<text text-anchor="start" x="137.5" y="-963.9" font-family="Arial" font-size="14.00" fill="#000000">create_uid </text>
<text text-anchor="start" x="206.744" y="-963.9" font-family="Arial" font-size="14.00" fill="#666666">[integer]</text>
<polygon fill="none" stroke="#000000" points="130.5,-922.5 130.5,-952.5 406.5,-952.5 406.5,-922.5 130.5,-922.5"/>
<text text-anchor="start" x="137.0246" y="-933.9" font-family="Arial" font-size="14.00" fill="#000000">create_date </text>
<text text-anchor="start" x="214.8352" y="-933.9" font-family="Arial" font-size="14.00" fill="#666666">[timestamp without time zone]</text>
<polygon fill="none" stroke="#000000" points="130.5,-892.5 130.5,-922.5 406.5,-922.5 406.5,-892.5 130.5,-892.5"/>
<text text-anchor="start" x="137.5" y="-903.9" font-family="Arial" font-size="14.00" fill="#000000">write_uid </text>
<text text-anchor="start" x="197.392" y="-903.9" font-family="Arial" font-size="14.00" fill="#666666">[integer]</text>
<polygon fill="none" stroke="#000000" points="130.5,-862.5 130.5,-892.5 406.5,-892.5 406.5,-862.5 130.5,-862.5"/>
<text text-anchor="start" x="137.5" y="-873.9" font-family="Arial" font-size="14.00" fill="#000000">write_date </text>
<text text-anchor="start" x="205.9586" y="-873.9" font-family="Arial" font-size="14.00" fill="#666666">[timestamp without time zone]</text>
<polygon fill="none" stroke="#000000" stroke-width="3" points="129,-861.5 129,-1109.5 408,-1109.5 408,-861.5 129,-861.5"/>
</g>
<!-- public.res_users -->
<g id="node3" class="node">
<title>public.res_users</title>
<polygon fill="#efefef" stroke="transparent" points="130.5,-702.5 130.5,-737.5 406.5,-737.5 406.5,-702.5 130.5,-702.5"/>
<polygon fill="none" stroke="#000000" points="130.5,-702.5 130.5,-737.5 406.5,-737.5 406.5,-702.5 130.5,-702.5"/>
<text text-anchor="start" x="154.3639" y="-715.3" font-family="Arial Bold" font-size="18.00" fill="#000000">public.res_users</text>
<text text-anchor="start" x="285.3823" y="-715.3" font-family="Arial" font-size="14.00" fill="#000000"> </text>
<text text-anchor="start" x="289.2729" y="-715.3" font-family="Arial" font-size="14.00" fill="#666666">[BASE TABLE]</text>
<polygon fill="none" stroke="#000000" points="130.5,-672.5 130.5,-702.5 406.5,-702.5 406.5,-672.5 130.5,-672.5"/>
<text text-anchor="start" x="137.5" y="-683.9" font-family="Arial" font-size="14.00" fill="#000000">id </text>
<text text-anchor="start" x="152.2798" y="-683.9" font-family="Arial" font-size="14.00" fill="#666666">[integer]</text>
<polygon fill="none" stroke="#000000" points="130.5,-642.5 130.5,-672.5 406.5,-672.5 406.5,-642.5 130.5,-642.5"/>
<text text-anchor="start" x="137.5" y="-653.9" font-family="Arial" font-size="14.00" fill="#000000">active </text>
<text text-anchor="start" x="177.953" y="-653.9" font-family="Arial" font-size="14.00" fill="#666666">[boolean]</text>
<polygon fill="none" stroke="#000000" points="130.5,-612.5 130.5,-642.5 406.5,-642.5 406.5,-612.5 130.5,-612.5"/>
<text text-anchor="start" x="137.5" y="-623.9" font-family="Arial" font-size="14.00" fill="#000000">login </text>
<text text-anchor="start" x="170.9516" y="-623.9" font-family="Arial" font-size="14.00" fill="#666666">[varchar]</text>
<polygon fill="none" stroke="#000000" points="130.5,-582.5 130.5,-612.5 406.5,-612.5 406.5,-582.5 130.5,-582.5"/>
<text text-anchor="start" x="137.5" y="-593.9" font-family="Arial" font-size="14.00" fill="#000000">password </text>
<text text-anchor="start" x="201.2882" y="-593.9" font-family="Arial" font-size="14.00" fill="#666666">[varchar]</text>
<polygon fill="none" stroke="#000000" points="130.5,-552.5 130.5,-582.5 406.5,-582.5 406.5,-552.5 130.5,-552.5"/>
<text text-anchor="start" x="137.5" y="-563.9" font-family="Arial" font-size="14.00" fill="#000000">company_id </text>
<text text-anchor="start" x="216.8534" y="-563.9" font-family="Arial" font-size="14.00" fill="#666666">[integer]</text>
<polygon fill="none" stroke="#000000" points="130.5,-522.5 130.5,-552.5 406.5,-552.5 406.5,-522.5 130.5,-522.5"/>
<text text-anchor="start" x="137.5" y="-533.9" font-family="Arial" font-size="14.00" fill="#000000">partner_id </text>
<text text-anchor="start" x="204.4046" y="-533.9" font-family="Arial" font-size="14.00" fill="#666666">[integer]</text>
<polygon fill="none" stroke="#000000" points="130.5,-492.5 130.5,-522.5 406.5,-522.5 406.5,-492.5 130.5,-492.5"/>
<text text-anchor="start" x="137.0246" y="-503.9" font-family="Arial" font-size="14.00" fill="#000000">create_date </text>
<text text-anchor="start" x="214.8352" y="-503.9" font-family="Arial" font-size="14.00" fill="#666666">[timestamp without time zone]</text>
<polygon fill="none" stroke="#000000" points="130.5,-462.5 130.5,-492.5 406.5,-492.5 406.5,-462.5 130.5,-462.5"/>
<text text-anchor="start" x="137.5" y="-473.9" font-family="Arial" font-size="14.00" fill="#000000">signature </text>
<text text-anchor="start" x="198.9614" y="-473.9" font-family="Arial" font-size="14.00" fill="#666666">[text]</text>
<polygon fill="none" stroke="#000000" points="130.5,-432.5 130.5,-462.5 406.5,-462.5 406.5,-432.5 130.5,-432.5"/>
<text text-anchor="start" x="137.5" y="-443.9" font-family="Arial" font-size="14.00" fill="#000000">action_id </text>
<text text-anchor="start" x="197.4074" y="-443.9" font-family="Arial" font-size="14.00" fill="#666666">[integer]</text>
<polygon fill="none" stroke="#000000" points="130.5,-402.5 130.5,-432.5 406.5,-432.5 406.5,-402.5 130.5,-402.5"/>
<text text-anchor="start" x="137.5" y="-413.9" font-family="Arial" font-size="14.00" fill="#000000">share </text>
<text text-anchor="start" x="176.399" y="-413.9" font-family="Arial" font-size="14.00" fill="#666666">[boolean]</text>
<polygon fill="none" stroke="#000000" points="130.5,-372.5 130.5,-402.5 406.5,-402.5 406.5,-372.5 130.5,-372.5"/>
<text text-anchor="start" x="137.5" y="-383.9" font-family="Arial" font-size="14.00" fill="#000000">create_uid </text>
<text text-anchor="start" x="206.744" y="-383.9" font-family="Arial" font-size="14.00" fill="#666666">[integer]</text>
<polygon fill="none" stroke="#000000" points="130.5,-342.5 130.5,-372.5 406.5,-372.5 406.5,-342.5 130.5,-342.5"/>
<text text-anchor="start" x="137.5" y="-353.9" font-family="Arial" font-size="14.00" fill="#000000">write_uid </text>
<text text-anchor="start" x="197.392" y="-353.9" font-family="Arial" font-size="14.00" fill="#666666">[integer]</text>
<polygon fill="none" stroke="#000000" points="130.5,-312.5 130.5,-342.5 406.5,-342.5 406.5,-312.5 130.5,-312.5"/>
<text text-anchor="start" x="137.5" y="-323.9" font-family="Arial" font-size="14.00" fill="#000000">write_date </text>
<text text-anchor="start" x="205.9586" y="-323.9" font-family="Arial" font-size="14.00" fill="#666666">[timestamp without time zone]</text>
<polygon fill="none" stroke="#000000" points="130.5,-282.5 130.5,-312.5 406.5,-312.5 406.5,-282.5 130.5,-282.5"/>
<text text-anchor="start" x="137.5" y="-293.9" font-family="Arial" font-size="14.00" fill="#000000">alias_id </text>
<text text-anchor="start" x="188.8408" y="-293.9" font-family="Arial" font-size="14.00" fill="#666666">[integer]</text>
<polygon fill="none" stroke="#000000" points="130.5,-252.5 130.5,-282.5 406.5,-282.5 406.5,-252.5 130.5,-252.5"/>
<text text-anchor="start" x="137.5" y="-263.9" font-family="Arial" font-size="14.00" fill="#000000">notification_type </text>
<text text-anchor="start" x="242.5336" y="-263.9" font-family="Arial" font-size="14.00" fill="#666666">[varchar]</text>
<polygon fill="none" stroke="#000000" points="130.5,-222.5 130.5,-252.5 406.5,-252.5 406.5,-222.5 130.5,-222.5"/>
<text text-anchor="start" x="137.5" y="-233.9" font-family="Arial" font-size="14.00" fill="#000000">odoobot_state </text>
<text text-anchor="start" x="230.1058" y="-233.9" font-family="Arial" font-size="14.00" fill="#666666">[varchar]</text>
<polygon fill="none" stroke="#000000" points="130.5,-192.5 130.5,-222.5 406.5,-222.5 406.5,-192.5 130.5,-192.5"/>
<text text-anchor="start" x="137.5" y="-203.9" font-family="Arial" font-size="14.00" fill="#000000">sale_team_id </text>
<text text-anchor="start" x="224.6332" y="-203.9" font-family="Arial" font-size="14.00" fill="#666666">[integer]</text>
<polygon fill="none" stroke="#000000" points="130.5,-162.5 130.5,-192.5 406.5,-192.5 406.5,-162.5 130.5,-162.5"/>
<text text-anchor="start" x="137.5" y="-173.9" font-family="Arial" font-size="14.00" fill="#000000">target_sales_won </text>
<text text-anchor="start" x="251.089" y="-173.9" font-family="Arial" font-size="14.00" fill="#666666">[integer]</text>
<polygon fill="none" stroke="#000000" points="130.5,-132.5 130.5,-162.5 406.5,-162.5 406.5,-132.5 130.5,-132.5"/>
<text text-anchor="start" x="137.5" y="-143.9" font-family="Arial" font-size="14.00" fill="#000000">target_sales_done </text>
<text text-anchor="start" x="256.5476" y="-143.9" font-family="Arial" font-size="14.00" fill="#666666">[integer]</text>
<polygon fill="none" stroke="#000000" points="130.5,-102.5 130.5,-132.5 406.5,-132.5 406.5,-102.5 130.5,-102.5"/>
<text text-anchor="start" x="137.5" y="-113.9" font-family="Arial" font-size="14.00" fill="#000000">website_id </text>
<text text-anchor="start" x="207.514" y="-113.9" font-family="Arial" font-size="14.00" fill="#666666">[integer]</text>
<polygon fill="none" stroke="#000000" points="130.5,-72.5 130.5,-102.5 406.5,-102.5 406.5,-72.5 130.5,-72.5"/>
<text text-anchor="start" x="137.5" y="-83.9" font-family="Arial" font-size="14.00" fill="#000000">target_sales_invoiced </text>
<text text-anchor="start" x="276.7608" y="-83.9" font-family="Arial" font-size="14.00" fill="#666666">[integer]</text>
<polygon fill="none" stroke="#000000" points="130.5,-42.5 130.5,-72.5 406.5,-72.5 406.5,-42.5 130.5,-42.5"/>
<text text-anchor="start" x="137.5" y="-53.9" font-family="Arial" font-size="14.00" fill="#000000">pos_security_pin </text>
<text text-anchor="start" x="246.4158" y="-53.9" font-family="Arial" font-size="14.00" fill="#666666">[varchar(32)]</text>
</g>
<!-- public.product_style&#45;&gt;public.res_users -->
<g id="edge2" class="edge">
<title>public.product_style:create_uid&#45;&gt;public.res_users:id</title>
<path fill="none" stroke="#000000" d="M416.7735,-966.839C530.8446,-951.8652 527.4201,-687.5 406.5,-687.5"/>
<polygon fill="#000000" stroke="#000000" points="416.4794,-966.8578 406.211,-963.0093 411.4897,-967.1789 406.5,-967.5 406.5,-967.5 406.5,-967.5 411.4897,-967.1789 406.789,-971.9907 416.4794,-966.8578 416.4794,-966.8578"/>
<text text-anchor="start" x="413.157" y="-977.5" font-family="Arial" font-size="10.00" fill="#000000">FOREIGN KEY (create_uid) REFERENCES res_users(id) ON DELETE SET NULL</text>
</g>
<!-- public.product_style&#45;&gt;public.res_users -->
<g id="edge3" class="edge">
<title>public.product_style:write_uid&#45;&gt;public.res_users:id</title>
<path fill="none" stroke="#000000" d="M416.716,-906.6591C504.1501,-891.8888 500.7448,-687.5 406.5,-687.5"/>
<polygon fill="#000000" stroke="#000000" points="416.4663,-906.6795 406.1308,-903.0152 411.4831,-907.0898 406.5,-907.5 406.5,-907.5 406.5,-907.5 411.4831,-907.0898 406.8692,-911.9848 416.4663,-906.6795 416.4663,-906.6795"/>
<text text-anchor="start" x="413.497" y="-917.5" font-family="Arial" font-size="10.00" fill="#000000">FOREIGN KEY (write_uid) REFERENCES res_users(id) ON DELETE SET NULL</text>
</g>
<!-- public.product_style_product_template_rel -->
<g id="node2" class="node">
<title>public.product_style_product_template_rel</title>
<polygon fill="#efefef" stroke="transparent" points="43.5,-1292.5 43.5,-1327.5 492.5,-1327.5 492.5,-1292.5 43.5,-1292.5"/>
<polygon fill="none" stroke="#000000" points="43.5,-1292.5 43.5,-1327.5 492.5,-1327.5 492.5,-1292.5 43.5,-1292.5"/>
<text text-anchor="start" x="50.3315" y="-1305.3" font-family="Arial Bold" font-size="18.00" fill="#000000">public.product_style_product_template_rel</text>
<text text-anchor="start" x="388.4147" y="-1305.3" font-family="Arial" font-size="14.00" fill="#000000"> </text>
<text text-anchor="start" x="392.3053" y="-1305.3" font-family="Arial" font-size="14.00" fill="#666666">[BASE TABLE]</text>
<polygon fill="none" stroke="#000000" points="43.5,-1262.5 43.5,-1292.5 492.5,-1292.5 492.5,-1262.5 43.5,-1262.5"/>
<text text-anchor="start" x="50.5" y="-1273.9" font-family="Arial" font-size="14.00" fill="#000000">product_template_id </text>
<text text-anchor="start" x="181.2054" y="-1273.9" font-family="Arial" font-size="14.00" fill="#666666">[integer]</text>
<polygon fill="none" stroke="#000000" points="43.5,-1232.5 43.5,-1262.5 492.5,-1262.5 492.5,-1232.5 43.5,-1232.5"/>
<text text-anchor="start" x="50.5" y="-1243.9" font-family="Arial" font-size="14.00" fill="#000000">product_style_id </text>
<text text-anchor="start" x="156.3064" y="-1243.9" font-family="Arial" font-size="14.00" fill="#666666">[integer]</text>
</g>
<!-- public.product_style_product_template_rel&#45;&gt;public.product_style -->
<g id="edge1" class="edge">
<title>public.product_style_product_template_rel:product_style_id&#45;&gt;public.product_style:id</title>
<path fill="none" stroke="#000000" d="M267.6695,-1222.3333C257.8734,-1167.2166 164.1058,-1211.7787 130.5,-1154 108.9367,-1116.926 87.6111,-1057.5 130.5,-1057.5"/>
<polygon fill="#000000" stroke="#000000" points="267.6858,-1222.5332 264.0149,-1232.8664 268.0929,-1227.5166 268.5,-1232.5 268.5,-1232.5 268.5,-1232.5 268.0929,-1227.5166 272.9851,-1232.1336 267.6858,-1222.5332 267.6858,-1222.5332"/>
<text text-anchor="start" x="275.0405" y="-1242.5" font-family="Arial" font-size="10.00" fill="#000000">FOREIGN KEY (product_style_id) REFERENCES product_style(id) ON DELETE CASCADE</text>
</g>
</g>
</svg>
