<?xml version="1.0" encoding="UTF-8" standalone="no"?>
<!DOCTYPE svg PUBLIC "-//W3C//DTD SVG 1.1//EN"
 "http://www.w3.org/Graphics/SVG/1.1/DTD/svg11.dtd">
<!-- Generated by graphviz version 2.40.1 (20161225.0304)
 -->
<!-- Title: public.website_redirect Pages: 1 -->
<svg width="1110pt" height="1762pt"
 viewBox="0.00 0.00 1110.00 1762.00" xmlns="http://www.w3.org/2000/svg" xmlns:xlink="http://www.w3.org/1999/xlink">
<g id="graph0" class="graph" transform="scale(1 1) rotate(0) translate(4 1758)">
<title>public.website_redirect</title>
<polygon fill="#ffffff" stroke="transparent" points="-4,4 -4,-1758 1106,-1758 1106,4 -4,4"/>
<!-- public.website_redirect -->
<g id="node1" class="node">
<title>public.website_redirect</title>
<polygon fill="#efefef" stroke="transparent" points="428,-1672.5 428,-1707.5 722,-1707.5 722,-1672.5 428,-1672.5"/>
<polygon fill="none" stroke="#000000" points="428,-1672.5 428,-1707.5 722,-1707.5 722,-1672.5 428,-1672.5"/>
<text text-anchor="start" x="434.8611" y="-1685.3" font-family="Arial Bold" font-size="18.00" fill="#000000">public.website_redirect</text>
<text text-anchor="start" x="617.8851" y="-1685.3" font-family="Arial" font-size="14.00" fill="#000000"> </text>
<text text-anchor="start" x="621.7757" y="-1685.3" font-family="Arial" font-size="14.00" fill="#666666">[BASE TABLE]</text>
<polygon fill="none" stroke="#000000" points="428,-1642.5 428,-1672.5 722,-1672.5 722,-1642.5 428,-1642.5"/>
<text text-anchor="start" x="435" y="-1653.9" font-family="Arial" font-size="14.00" fill="#000000">id </text>
<text text-anchor="start" x="449.7798" y="-1653.9" font-family="Arial" font-size="14.00" fill="#666666">[integer]</text>
<polygon fill="none" stroke="#000000" points="428,-1612.5 428,-1642.5 722,-1642.5 722,-1612.5 428,-1612.5"/>
<text text-anchor="start" x="435" y="-1623.9" font-family="Arial" font-size="14.00" fill="#000000">type </text>
<text text-anchor="start" x="465.3464" y="-1623.9" font-family="Arial" font-size="14.00" fill="#666666">[varchar]</text>
<polygon fill="none" stroke="#000000" points="428,-1582.5 428,-1612.5 722,-1612.5 722,-1582.5 428,-1582.5"/>
<text text-anchor="start" x="435" y="-1593.9" font-family="Arial" font-size="14.00" fill="#000000">url_from </text>
<text text-anchor="start" x="490.2174" y="-1593.9" font-family="Arial" font-size="14.00" fill="#666666">[varchar]</text>
<polygon fill="none" stroke="#000000" points="428,-1552.5 428,-1582.5 722,-1582.5 722,-1552.5 428,-1552.5"/>
<text text-anchor="start" x="435" y="-1563.9" font-family="Arial" font-size="14.00" fill="#000000">url_to </text>
<text text-anchor="start" x="473.8962" y="-1563.9" font-family="Arial" font-size="14.00" fill="#666666">[varchar]</text>
<polygon fill="none" stroke="#000000" points="428,-1522.5 428,-1552.5 722,-1552.5 722,-1522.5 428,-1522.5"/>
<text text-anchor="start" x="435" y="-1533.9" font-family="Arial" font-size="14.00" fill="#000000">website_id </text>
<text text-anchor="start" x="505.014" y="-1533.9" font-family="Arial" font-size="14.00" fill="#666666">[integer]</text>
<polygon fill="none" stroke="#000000" points="428,-1492.5 428,-1522.5 722,-1522.5 722,-1492.5 428,-1492.5"/>
<text text-anchor="start" x="435" y="-1503.9" font-family="Arial" font-size="14.00" fill="#000000">active </text>
<text text-anchor="start" x="475.453" y="-1503.9" font-family="Arial" font-size="14.00" fill="#666666">[boolean]</text>
<polygon fill="none" stroke="#000000" points="428,-1462.5 428,-1492.5 722,-1492.5 722,-1462.5 428,-1462.5"/>
<text text-anchor="start" x="435" y="-1473.9" font-family="Arial" font-size="14.00" fill="#000000">sequence </text>
<text text-anchor="start" x="499.5862" y="-1473.9" font-family="Arial" font-size="14.00" fill="#666666">[integer]</text>
<polygon fill="none" stroke="#000000" points="428,-1432.5 428,-1462.5 722,-1462.5 722,-1432.5 428,-1432.5"/>
<text text-anchor="start" x="435" y="-1443.9" font-family="Arial" font-size="14.00" fill="#000000">create_uid </text>
<text text-anchor="start" x="504.244" y="-1443.9" font-family="Arial" font-size="14.00" fill="#666666">[integer]</text>
<polygon fill="none" stroke="#000000" points="428,-1402.5 428,-1432.5 722,-1432.5 722,-1402.5 428,-1402.5"/>
<text text-anchor="start" x="435" y="-1413.9" font-family="Arial" font-size="14.00" fill="#000000">create_date </text>
<text text-anchor="start" x="512.8106" y="-1413.9" font-family="Arial" font-size="14.00" fill="#666666">[timestamp without time zone]</text>
<polygon fill="none" stroke="#000000" points="428,-1372.5 428,-1402.5 722,-1402.5 722,-1372.5 428,-1372.5"/>
<text text-anchor="start" x="435" y="-1383.9" font-family="Arial" font-size="14.00" fill="#000000">write_uid </text>
<text text-anchor="start" x="494.892" y="-1383.9" font-family="Arial" font-size="14.00" fill="#666666">[integer]</text>
<polygon fill="none" stroke="#000000" points="428,-1342.5 428,-1372.5 722,-1372.5 722,-1342.5 428,-1342.5"/>
<text text-anchor="start" x="435" y="-1353.9" font-family="Arial" font-size="14.00" fill="#000000">write_date </text>
<text text-anchor="start" x="503.4586" y="-1353.9" font-family="Arial" font-size="14.00" fill="#666666">[timestamp without time zone]</text>
<polygon fill="none" stroke="#000000" stroke-width="3" points="426.5,-1341.5 426.5,-1709.5 723.5,-1709.5 723.5,-1341.5 426.5,-1341.5"/>
</g>
<!-- public.website -->
<g id="node2" class="node">
<title>public.website</title>
<polygon fill="#efefef" stroke="transparent" points="43,-1182.5 43,-1217.5 333,-1217.5 333,-1182.5 43,-1182.5"/>
<polygon fill="none" stroke="#000000" points="43,-1182.5 43,-1217.5 333,-1217.5 333,-1182.5 43,-1182.5"/>
<text text-anchor="start" x="82.8639" y="-1195.3" font-family="Arial Bold" font-size="18.00" fill="#000000">public.website</text>
<text text-anchor="start" x="195.8823" y="-1195.3" font-family="Arial" font-size="14.00" fill="#000000"> </text>
<text text-anchor="start" x="199.7729" y="-1195.3" font-family="Arial" font-size="14.00" fill="#666666">[BASE TABLE]</text>
<polygon fill="none" stroke="#000000" points="43,-1152.5 43,-1182.5 333,-1182.5 333,-1152.5 43,-1152.5"/>
<text text-anchor="start" x="50" y="-1163.9" font-family="Arial" font-size="14.00" fill="#000000">id </text>
<text text-anchor="start" x="64.7798" y="-1163.9" font-family="Arial" font-size="14.00" fill="#666666">[integer]</text>
<polygon fill="none" stroke="#000000" points="43,-1122.5 43,-1152.5 333,-1152.5 333,-1122.5 43,-1122.5"/>
<text text-anchor="start" x="50" y="-1133.9" font-family="Arial" font-size="14.00" fill="#000000">name </text>
<text text-anchor="start" x="88.899" y="-1133.9" font-family="Arial" font-size="14.00" fill="#666666">[varchar]</text>
<polygon fill="none" stroke="#000000" points="43,-1092.5 43,-1122.5 333,-1122.5 333,-1092.5 43,-1092.5"/>
<text text-anchor="start" x="50" y="-1103.9" font-family="Arial" font-size="14.00" fill="#000000">domain </text>
<text text-anchor="start" x="99.7882" y="-1103.9" font-family="Arial" font-size="14.00" fill="#666666">[varchar]</text>
<polygon fill="none" stroke="#000000" points="43,-1062.5 43,-1092.5 333,-1092.5 333,-1062.5 43,-1062.5"/>
<text text-anchor="start" x="50" y="-1073.9" font-family="Arial" font-size="14.00" fill="#000000">company_id </text>
<text text-anchor="start" x="129.3534" y="-1073.9" font-family="Arial" font-size="14.00" fill="#666666">[integer]</text>
<polygon fill="none" stroke="#000000" points="43,-1032.5 43,-1062.5 333,-1062.5 333,-1032.5 43,-1032.5"/>
<text text-anchor="start" x="50" y="-1043.9" font-family="Arial" font-size="14.00" fill="#000000">default_lang_id </text>
<text text-anchor="start" x="148.8176" y="-1043.9" font-family="Arial" font-size="14.00" fill="#666666">[integer]</text>
<polygon fill="none" stroke="#000000" points="43,-1002.5 43,-1032.5 333,-1032.5 333,-1002.5 43,-1002.5"/>
<text text-anchor="start" x="50" y="-1013.9" font-family="Arial" font-size="14.00" fill="#000000">default_lang_code </text>
<text text-anchor="start" x="168.2762" y="-1013.9" font-family="Arial" font-size="14.00" fill="#666666">[varchar]</text>
<polygon fill="none" stroke="#000000" points="43,-972.5 43,-1002.5 333,-1002.5 333,-972.5 43,-972.5"/>
<text text-anchor="start" x="50" y="-983.9" font-family="Arial" font-size="14.00" fill="#000000">auto_redirect_lang </text>
<text text-anchor="start" x="169.8148" y="-983.9" font-family="Arial" font-size="14.00" fill="#666666">[boolean]</text>
<polygon fill="none" stroke="#000000" points="43,-942.5 43,-972.5 333,-972.5 333,-942.5 43,-942.5"/>
<text text-anchor="start" x="50" y="-953.9" font-family="Arial" font-size="14.00" fill="#000000">social_twitter </text>
<text text-anchor="start" x="134.7798" y="-953.9" font-family="Arial" font-size="14.00" fill="#666666">[varchar]</text>
<polygon fill="none" stroke="#000000" points="43,-912.5 43,-942.5 333,-942.5 333,-912.5 43,-912.5"/>
<text text-anchor="start" x="50" y="-923.9" font-family="Arial" font-size="14.00" fill="#000000">social_facebook </text>
<text text-anchor="start" x="154.2552" y="-923.9" font-family="Arial" font-size="14.00" fill="#666666">[varchar]</text>
<polygon fill="none" stroke="#000000" points="43,-882.5 43,-912.5 333,-912.5 333,-882.5 43,-882.5"/>
<text text-anchor="start" x="50" y="-893.9" font-family="Arial" font-size="14.00" fill="#000000">social_github </text>
<text text-anchor="start" x="135.5792" y="-893.9" font-family="Arial" font-size="14.00" fill="#666666">[varchar]</text>
<polygon fill="none" stroke="#000000" points="43,-852.5 43,-882.5 333,-882.5 333,-852.5 43,-852.5"/>
<text text-anchor="start" x="50" y="-863.9" font-family="Arial" font-size="14.00" fill="#000000">social_linkedin </text>
<text text-anchor="start" x="144.9018" y="-863.9" font-family="Arial" font-size="14.00" fill="#666666">[varchar]</text>
<polygon fill="none" stroke="#000000" points="43,-822.5 43,-852.5 333,-852.5 333,-822.5 43,-822.5"/>
<text text-anchor="start" x="50" y="-833.9" font-family="Arial" font-size="14.00" fill="#000000">social_youtube </text>
<text text-anchor="start" x="147.2552" y="-833.9" font-family="Arial" font-size="14.00" fill="#666666">[varchar]</text>
<polygon fill="none" stroke="#000000" points="43,-792.5 43,-822.5 333,-822.5 333,-792.5 43,-792.5"/>
<text text-anchor="start" x="50" y="-803.9" font-family="Arial" font-size="14.00" fill="#000000">social_googleplus </text>
<text text-anchor="start" x="165.143" y="-803.9" font-family="Arial" font-size="14.00" fill="#666666">[varchar]</text>
<polygon fill="none" stroke="#000000" points="43,-762.5 43,-792.5 333,-792.5 333,-762.5 43,-762.5"/>
<text text-anchor="start" x="50" y="-773.9" font-family="Arial" font-size="14.00" fill="#000000">social_instagram </text>
<text text-anchor="start" x="158.9004" y="-773.9" font-family="Arial" font-size="14.00" fill="#666666">[varchar]</text>
<polygon fill="none" stroke="#000000" points="43,-732.5 43,-762.5 333,-762.5 333,-732.5 43,-732.5"/>
<text text-anchor="start" x="50" y="-743.9" font-family="Arial" font-size="14.00" fill="#000000">google_analytics_key </text>
<text text-anchor="start" x="187.7096" y="-743.9" font-family="Arial" font-size="14.00" fill="#666666">[varchar]</text>
<polygon fill="none" stroke="#000000" points="43,-702.5 43,-732.5 333,-732.5 333,-702.5 43,-702.5"/>
<text text-anchor="start" x="50" y="-713.9" font-family="Arial" font-size="14.00" fill="#000000">google_management_client_id </text>
<text text-anchor="start" x="244.5062" y="-713.9" font-family="Arial" font-size="14.00" fill="#666666">[varchar]</text>
<polygon fill="none" stroke="#000000" points="43,-672.5 43,-702.5 333,-702.5 333,-672.5 43,-672.5"/>
<text text-anchor="start" x="49.9082" y="-683.9" font-family="Arial" font-size="14.00" fill="#000000">google_management_client_secret </text>
<text text-anchor="start" x="271.6416" y="-683.9" font-family="Arial" font-size="14.00" fill="#666666">[varchar]</text>
<polygon fill="none" stroke="#000000" points="43,-642.5 43,-672.5 333,-672.5 333,-642.5 43,-642.5"/>
<text text-anchor="start" x="50" y="-653.9" font-family="Arial" font-size="14.00" fill="#000000">google_maps_api_key </text>
<text text-anchor="start" x="193.9382" y="-653.9" font-family="Arial" font-size="14.00" fill="#666666">[varchar]</text>
<polygon fill="none" stroke="#000000" points="43,-612.5 43,-642.5 333,-642.5 333,-612.5 43,-612.5"/>
<text text-anchor="start" x="50" y="-623.9" font-family="Arial" font-size="14.00" fill="#000000">user_id </text>
<text text-anchor="start" x="99.7882" y="-623.9" font-family="Arial" font-size="14.00" fill="#666666">[integer]</text>
<polygon fill="none" stroke="#000000" points="43,-582.5 43,-612.5 333,-612.5 333,-582.5 43,-582.5"/>
<text text-anchor="start" x="50" y="-593.9" font-family="Arial" font-size="14.00" fill="#000000">cdn_activated </text>
<text text-anchor="start" x="140.2566" y="-593.9" font-family="Arial" font-size="14.00" fill="#666666">[boolean]</text>
<polygon fill="none" stroke="#000000" points="43,-552.5 43,-582.5 333,-582.5 333,-552.5 43,-552.5"/>
<text text-anchor="start" x="50" y="-563.9" font-family="Arial" font-size="14.00" fill="#000000">cdn_url </text>
<text text-anchor="start" x="99.7882" y="-563.9" font-family="Arial" font-size="14.00" fill="#666666">[varchar]</text>
<polygon fill="none" stroke="#000000" points="43,-522.5 43,-552.5 333,-552.5 333,-522.5 43,-522.5"/>
<text text-anchor="start" x="50" y="-533.9" font-family="Arial" font-size="14.00" fill="#000000">cdn_filters </text>
<text text-anchor="start" x="117.676" y="-533.9" font-family="Arial" font-size="14.00" fill="#666666">[text]</text>
<polygon fill="none" stroke="#000000" points="43,-492.5 43,-522.5 333,-522.5 333,-492.5 43,-492.5"/>
<text text-anchor="start" x="50" y="-503.9" font-family="Arial" font-size="14.00" fill="#000000">homepage_id </text>
<text text-anchor="start" x="138.7012" y="-503.9" font-family="Arial" font-size="14.00" fill="#666666">[integer]</text>
<polygon fill="none" stroke="#000000" points="43,-462.5 43,-492.5 333,-492.5 333,-462.5 43,-462.5"/>
<text text-anchor="start" x="50" y="-473.9" font-family="Arial" font-size="14.00" fill="#000000">favicon </text>
<text text-anchor="start" x="98.2356" y="-473.9" font-family="Arial" font-size="14.00" fill="#666666">[bytea]</text>
<polygon fill="none" stroke="#000000" points="43,-432.5 43,-462.5 333,-462.5 333,-432.5 43,-432.5"/>
<text text-anchor="start" x="50" y="-443.9" font-family="Arial" font-size="14.00" fill="#000000">theme_id </text>
<text text-anchor="start" x="111.4614" y="-443.9" font-family="Arial" font-size="14.00" fill="#666666">[integer]</text>
<polygon fill="none" stroke="#000000" points="43,-402.5 43,-432.5 333,-432.5 333,-402.5 43,-402.5"/>
<text text-anchor="start" x="50" y="-413.9" font-family="Arial" font-size="14.00" fill="#000000">specific_user_account </text>
<text text-anchor="start" x="192.3716" y="-413.9" font-family="Arial" font-size="14.00" fill="#666666">[boolean]</text>
<polygon fill="none" stroke="#000000" points="43,-372.5 43,-402.5 333,-402.5 333,-372.5 43,-372.5"/>
<text text-anchor="start" x="50" y="-383.9" font-family="Arial" font-size="14.00" fill="#000000">auth_signup_uninvited </text>
<text text-anchor="start" x="193.948" y="-383.9" font-family="Arial" font-size="14.00" fill="#666666">[varchar]</text>
<polygon fill="none" stroke="#000000" points="43,-342.5 43,-372.5 333,-372.5 333,-342.5 43,-342.5"/>
<text text-anchor="start" x="50" y="-353.9" font-family="Arial" font-size="14.00" fill="#000000">create_uid </text>
<text text-anchor="start" x="119.244" y="-353.9" font-family="Arial" font-size="14.00" fill="#666666">[integer]</text>
<polygon fill="none" stroke="#000000" points="43,-312.5 43,-342.5 333,-342.5 333,-312.5 43,-312.5"/>
<text text-anchor="start" x="50" y="-323.9" font-family="Arial" font-size="14.00" fill="#000000">create_date </text>
<text text-anchor="start" x="127.8106" y="-323.9" font-family="Arial" font-size="14.00" fill="#666666">[timestamp without time zone]</text>
<polygon fill="none" stroke="#000000" points="43,-282.5 43,-312.5 333,-312.5 333,-282.5 43,-282.5"/>
<text text-anchor="start" x="50" y="-293.9" font-family="Arial" font-size="14.00" fill="#000000">write_uid </text>
<text text-anchor="start" x="109.892" y="-293.9" font-family="Arial" font-size="14.00" fill="#666666">[integer]</text>
<polygon fill="none" stroke="#000000" points="43,-252.5 43,-282.5 333,-282.5 333,-252.5 43,-252.5"/>
<text text-anchor="start" x="50" y="-263.9" font-family="Arial" font-size="14.00" fill="#000000">write_date </text>
<text text-anchor="start" x="118.4586" y="-263.9" font-family="Arial" font-size="14.00" fill="#666666">[timestamp without time zone]</text>
<polygon fill="none" stroke="#000000" points="43,-222.5 43,-252.5 333,-252.5 333,-222.5 43,-222.5"/>
<text text-anchor="start" x="50" y="-233.9" font-family="Arial" font-size="14.00" fill="#000000">website_form_enable_metadata </text>
<text text-anchor="start" x="253.0588" y="-233.9" font-family="Arial" font-size="14.00" fill="#666666">[boolean]</text>
<polygon fill="none" stroke="#000000" points="43,-192.5 43,-222.5 333,-222.5 333,-192.5 43,-192.5"/>
<text text-anchor="start" x="50" y="-203.9" font-family="Arial" font-size="14.00" fill="#000000">salesperson_id </text>
<text text-anchor="start" x="148.0252" y="-203.9" font-family="Arial" font-size="14.00" fill="#666666">[integer]</text>
<polygon fill="none" stroke="#000000" points="43,-162.5 43,-192.5 333,-192.5 333,-162.5 43,-162.5"/>
<text text-anchor="start" x="50" y="-173.9" font-family="Arial" font-size="14.00" fill="#000000">salesteam_id </text>
<text text-anchor="start" x="136.3506" y="-173.9" font-family="Arial" font-size="14.00" fill="#666666">[integer]</text>
<polygon fill="none" stroke="#000000" points="43,-132.5 43,-162.5 333,-162.5 333,-132.5 43,-132.5"/>
<text text-anchor="start" x="50" y="-143.9" font-family="Arial" font-size="14.00" fill="#000000">cart_recovery_mail_template_id </text>
<text text-anchor="start" x="252.2482" y="-143.9" font-family="Arial" font-size="14.00" fill="#666666">[integer]</text>
<polygon fill="none" stroke="#000000" points="43,-102.5 43,-132.5 333,-132.5 333,-102.5 43,-102.5"/>
<text text-anchor="start" x="50" y="-113.9" font-family="Arial" font-size="14.00" fill="#000000">cart_abandoned_delay </text>
<text text-anchor="start" x="196.2874" y="-113.9" font-family="Arial" font-size="14.00" fill="#666666">[double precision]</text>
<polygon fill="none" stroke="#000000" points="43,-72.5 43,-102.5 333,-102.5 333,-72.5 43,-72.5"/>
<text text-anchor="start" x="50" y="-83.9" font-family="Arial" font-size="14.00" fill="#000000">crm_default_team_id </text>
<text text-anchor="start" x="184.5834" y="-83.9" font-family="Arial" font-size="14.00" fill="#666666">[integer]</text>
<polygon fill="none" stroke="#000000" points="43,-42.5 43,-72.5 333,-72.5 333,-42.5 43,-42.5"/>
<text text-anchor="start" x="50" y="-53.9" font-family="Arial" font-size="14.00" fill="#000000">crm_default_user_id </text>
<text text-anchor="start" x="180.6928" y="-53.9" font-family="Arial" font-size="14.00" fill="#666666">[integer]</text>
</g>
<!-- public.website_redirect&#45;&gt;public.website -->
<g id="edge1" class="edge">
<title>public.website_redirect:website_id&#45;&gt;public.website:id</title>
<path fill="none" stroke="#000000" d="M417.9163,-1535.5093C349.2423,-1506.3863 414.2416,-1167.5 333,-1167.5"/>
<polygon fill="#000000" stroke="#000000" points="418.1894,-1535.5631 427.1284,-1541.9148 423.0947,-1536.5316 428,-1537.5 428,-1537.5 428,-1537.5 423.0947,-1536.5316 428.8716,-1533.0852 418.1894,-1535.5631 418.1894,-1535.5631"/>
<text text-anchor="start" x="64.1065" y="-1547.5" font-family="Arial" font-size="10.00" fill="#000000">FOREIGN KEY (website_id) REFERENCES website(id) ON DELETE CASCADE</text>
</g>
<!-- public.res_users -->
<g id="node3" class="node">
<title>public.res_users</title>
<polygon fill="#efefef" stroke="transparent" points="437,-942.5 437,-977.5 713,-977.5 713,-942.5 437,-942.5"/>
<polygon fill="none" stroke="#000000" points="437,-942.5 437,-977.5 713,-977.5 713,-942.5 437,-942.5"/>
<text text-anchor="start" x="460.8639" y="-955.3" font-family="Arial Bold" font-size="18.00" fill="#000000">public.res_users</text>
<text text-anchor="start" x="591.8823" y="-955.3" font-family="Arial" font-size="14.00" fill="#000000"> </text>
<text text-anchor="start" x="595.7729" y="-955.3" font-family="Arial" font-size="14.00" fill="#666666">[BASE TABLE]</text>
<polygon fill="none" stroke="#000000" points="437,-912.5 437,-942.5 713,-942.5 713,-912.5 437,-912.5"/>
<text text-anchor="start" x="444" y="-923.9" font-family="Arial" font-size="14.00" fill="#000000">id </text>
<text text-anchor="start" x="458.7798" y="-923.9" font-family="Arial" font-size="14.00" fill="#666666">[integer]</text>
<polygon fill="none" stroke="#000000" points="437,-882.5 437,-912.5 713,-912.5 713,-882.5 437,-882.5"/>
<text text-anchor="start" x="444" y="-893.9" font-family="Arial" font-size="14.00" fill="#000000">active </text>
<text text-anchor="start" x="484.453" y="-893.9" font-family="Arial" font-size="14.00" fill="#666666">[boolean]</text>
<polygon fill="none" stroke="#000000" points="437,-852.5 437,-882.5 713,-882.5 713,-852.5 437,-852.5"/>
<text text-anchor="start" x="444" y="-863.9" font-family="Arial" font-size="14.00" fill="#000000">login </text>
<text text-anchor="start" x="477.4516" y="-863.9" font-family="Arial" font-size="14.00" fill="#666666">[varchar]</text>
<polygon fill="none" stroke="#000000" points="437,-822.5 437,-852.5 713,-852.5 713,-822.5 437,-822.5"/>
<text text-anchor="start" x="444" y="-833.9" font-family="Arial" font-size="14.00" fill="#000000">password </text>
<text text-anchor="start" x="507.7882" y="-833.9" font-family="Arial" font-size="14.00" fill="#666666">[varchar]</text>
<polygon fill="none" stroke="#000000" points="437,-792.5 437,-822.5 713,-822.5 713,-792.5 437,-792.5"/>
<text text-anchor="start" x="444" y="-803.9" font-family="Arial" font-size="14.00" fill="#000000">company_id </text>
<text text-anchor="start" x="523.3534" y="-803.9" font-family="Arial" font-size="14.00" fill="#666666">[integer]</text>
<polygon fill="none" stroke="#000000" points="437,-762.5 437,-792.5 713,-792.5 713,-762.5 437,-762.5"/>
<text text-anchor="start" x="444" y="-773.9" font-family="Arial" font-size="14.00" fill="#000000">partner_id </text>
<text text-anchor="start" x="510.9046" y="-773.9" font-family="Arial" font-size="14.00" fill="#666666">[integer]</text>
<polygon fill="none" stroke="#000000" points="437,-732.5 437,-762.5 713,-762.5 713,-732.5 437,-732.5"/>
<text text-anchor="start" x="443.5246" y="-743.9" font-family="Arial" font-size="14.00" fill="#000000">create_date </text>
<text text-anchor="start" x="521.3352" y="-743.9" font-family="Arial" font-size="14.00" fill="#666666">[timestamp without time zone]</text>
<polygon fill="none" stroke="#000000" points="437,-702.5 437,-732.5 713,-732.5 713,-702.5 437,-702.5"/>
<text text-anchor="start" x="444" y="-713.9" font-family="Arial" font-size="14.00" fill="#000000">signature </text>
<text text-anchor="start" x="505.4614" y="-713.9" font-family="Arial" font-size="14.00" fill="#666666">[text]</text>
<polygon fill="none" stroke="#000000" points="437,-672.5 437,-702.5 713,-702.5 713,-672.5 437,-672.5"/>
<text text-anchor="start" x="444" y="-683.9" font-family="Arial" font-size="14.00" fill="#000000">action_id </text>
<text text-anchor="start" x="503.9074" y="-683.9" font-family="Arial" font-size="14.00" fill="#666666">[integer]</text>
<polygon fill="none" stroke="#000000" points="437,-642.5 437,-672.5 713,-672.5 713,-642.5 437,-642.5"/>
<text text-anchor="start" x="444" y="-653.9" font-family="Arial" font-size="14.00" fill="#000000">share </text>
<text text-anchor="start" x="482.899" y="-653.9" font-family="Arial" font-size="14.00" fill="#666666">[boolean]</text>
<polygon fill="none" stroke="#000000" points="437,-612.5 437,-642.5 713,-642.5 713,-612.5 437,-612.5"/>
<text text-anchor="start" x="444" y="-623.9" font-family="Arial" font-size="14.00" fill="#000000">create_uid </text>
<text text-anchor="start" x="513.244" y="-623.9" font-family="Arial" font-size="14.00" fill="#666666">[integer]</text>
<polygon fill="none" stroke="#000000" points="437,-582.5 437,-612.5 713,-612.5 713,-582.5 437,-582.5"/>
<text text-anchor="start" x="444" y="-593.9" font-family="Arial" font-size="14.00" fill="#000000">write_uid </text>
<text text-anchor="start" x="503.892" y="-593.9" font-family="Arial" font-size="14.00" fill="#666666">[integer]</text>
<polygon fill="none" stroke="#000000" points="437,-552.5 437,-582.5 713,-582.5 713,-552.5 437,-552.5"/>
<text text-anchor="start" x="444" y="-563.9" font-family="Arial" font-size="14.00" fill="#000000">write_date </text>
<text text-anchor="start" x="512.4586" y="-563.9" font-family="Arial" font-size="14.00" fill="#666666">[timestamp without time zone]</text>
<polygon fill="none" stroke="#000000" points="437,-522.5 437,-552.5 713,-552.5 713,-522.5 437,-522.5"/>
<text text-anchor="start" x="444" y="-533.9" font-family="Arial" font-size="14.00" fill="#000000">alias_id </text>
<text text-anchor="start" x="495.3408" y="-533.9" font-family="Arial" font-size="14.00" fill="#666666">[integer]</text>
<polygon fill="none" stroke="#000000" points="437,-492.5 437,-522.5 713,-522.5 713,-492.5 437,-492.5"/>
<text text-anchor="start" x="444" y="-503.9" font-family="Arial" font-size="14.00" fill="#000000">notification_type </text>
<text text-anchor="start" x="549.0336" y="-503.9" font-family="Arial" font-size="14.00" fill="#666666">[varchar]</text>
<polygon fill="none" stroke="#000000" points="437,-462.5 437,-492.5 713,-492.5 713,-462.5 437,-462.5"/>
<text text-anchor="start" x="444" y="-473.9" font-family="Arial" font-size="14.00" fill="#000000">odoobot_state </text>
<text text-anchor="start" x="536.6058" y="-473.9" font-family="Arial" font-size="14.00" fill="#666666">[varchar]</text>
<polygon fill="none" stroke="#000000" points="437,-432.5 437,-462.5 713,-462.5 713,-432.5 437,-432.5"/>
<text text-anchor="start" x="444" y="-443.9" font-family="Arial" font-size="14.00" fill="#000000">sale_team_id </text>
<text text-anchor="start" x="531.1332" y="-443.9" font-family="Arial" font-size="14.00" fill="#666666">[integer]</text>
<polygon fill="none" stroke="#000000" points="437,-402.5 437,-432.5 713,-432.5 713,-402.5 437,-402.5"/>
<text text-anchor="start" x="444" y="-413.9" font-family="Arial" font-size="14.00" fill="#000000">target_sales_won </text>
<text text-anchor="start" x="557.589" y="-413.9" font-family="Arial" font-size="14.00" fill="#666666">[integer]</text>
<polygon fill="none" stroke="#000000" points="437,-372.5 437,-402.5 713,-402.5 713,-372.5 437,-372.5"/>
<text text-anchor="start" x="444" y="-383.9" font-family="Arial" font-size="14.00" fill="#000000">target_sales_done </text>
<text text-anchor="start" x="563.0476" y="-383.9" font-family="Arial" font-size="14.00" fill="#666666">[integer]</text>
<polygon fill="none" stroke="#000000" points="437,-342.5 437,-372.5 713,-372.5 713,-342.5 437,-342.5"/>
<text text-anchor="start" x="444" y="-353.9" font-family="Arial" font-size="14.00" fill="#000000">website_id </text>
<text text-anchor="start" x="514.014" y="-353.9" font-family="Arial" font-size="14.00" fill="#666666">[integer]</text>
<polygon fill="none" stroke="#000000" points="437,-312.5 437,-342.5 713,-342.5 713,-312.5 437,-312.5"/>
<text text-anchor="start" x="444" y="-323.9" font-family="Arial" font-size="14.00" fill="#000000">target_sales_invoiced </text>
<text text-anchor="start" x="583.2608" y="-323.9" font-family="Arial" font-size="14.00" fill="#666666">[integer]</text>
<polygon fill="none" stroke="#000000" points="437,-282.5 437,-312.5 713,-312.5 713,-282.5 437,-282.5"/>
<text text-anchor="start" x="444" y="-293.9" font-family="Arial" font-size="14.00" fill="#000000">pos_security_pin </text>
<text text-anchor="start" x="552.9158" y="-293.9" font-family="Arial" font-size="14.00" fill="#666666">[varchar(32)]</text>
</g>
<!-- public.website_redirect&#45;&gt;public.res_users -->
<g id="edge2" class="edge">
<title>public.website_redirect:create_uid&#45;&gt;public.res_users:id</title>
<path fill="none" stroke="#000000" d="M731.1797,-1442.6843C778.6104,-1390.262 767.5134,-927.5 713,-927.5"/>
<polygon fill="#000000" stroke="#000000" points="730.8554,-1442.8543 719.9094,-1443.5151 726.4277,-1445.1772 722,-1447.5 722,-1447.5 722,-1447.5 726.4277,-1445.1772 724.0906,-1451.4849 730.8554,-1442.8543 730.8554,-1442.8543"/>
<text text-anchor="start" x="728.657" y="-1457.5" font-family="Arial" font-size="10.00" fill="#000000">FOREIGN KEY (create_uid) REFERENCES res_users(id) ON DELETE SET NULL</text>
</g>
<!-- public.website_redirect&#45;&gt;public.res_users -->
<g id="edge3" class="edge">
<title>public.website_redirect:write_uid&#45;&gt;public.res_users:id</title>
<path fill="none" stroke="#000000" d="M732.0946,-1385.9245C823.5176,-1356.5921 811.7472,-927.5 713,-927.5"/>
<polygon fill="#000000" stroke="#000000" points="731.8804,-1385.9579 721.3061,-1383.0538 726.9402,-1386.729 722,-1387.5 722,-1387.5 722,-1387.5 726.9402,-1386.729 722.6939,-1391.9462 731.8804,-1385.9579 731.8804,-1385.9579"/>
<text text-anchor="start" x="728.997" y="-1397.5" font-family="Arial" font-size="10.00" fill="#000000">FOREIGN KEY (write_uid) REFERENCES res_users(id) ON DELETE SET NULL</text>
</g>
</g>
</svg>
