<?xml version="1.0" encoding="UTF-8" standalone="no"?>
<!DOCTYPE svg PUBLIC "-//W3C//DTD SVG 1.1//EN"
 "http://www.w3.org/Graphics/SVG/1.1/DTD/svg11.dtd">
<!-- Generated by graphviz version 2.40.1 (20161225.0304)
 -->
<!-- Title: public.wizard_ir_model_menu_create Pages: 1 -->
<svg width="1175pt" height="1162pt"
 viewBox="0.00 0.00 1175.00 1162.00" xmlns="http://www.w3.org/2000/svg" xmlns:xlink="http://www.w3.org/1999/xlink">
<g id="graph0" class="graph" transform="scale(1 1) rotate(0) translate(4 1158)">
<title>public.wizard_ir_model_menu_create</title>
<polygon fill="#ffffff" stroke="transparent" points="-4,4 -4,-1158 1171,-1158 1171,4 -4,4"/>
<!-- public.wizard_ir_model_menu_create -->
<g id="node1" class="node">
<title>public.wizard_ir_model_menu_create</title>
<polygon fill="#efefef" stroke="transparent" points="378,-1072.5 378,-1107.5 787,-1107.5 787,-1072.5 378,-1072.5"/>
<polygon fill="none" stroke="#000000" points="378,-1072.5 378,-1107.5 787,-1107.5 787,-1072.5 378,-1072.5"/>
<text text-anchor="start" x="384.852" y="-1085.3" font-family="Arial Bold" font-size="18.00" fill="#000000">public.wizard_ir_model_menu_create</text>
<text text-anchor="start" x="682.8942" y="-1085.3" font-family="Arial" font-size="14.00" fill="#000000"> </text>
<text text-anchor="start" x="686.7848" y="-1085.3" font-family="Arial" font-size="14.00" fill="#666666">[BASE TABLE]</text>
<polygon fill="none" stroke="#000000" points="378,-1042.5 378,-1072.5 787,-1072.5 787,-1042.5 378,-1042.5"/>
<text text-anchor="start" x="385" y="-1053.9" font-family="Arial" font-size="14.00" fill="#000000">id </text>
<text text-anchor="start" x="399.7798" y="-1053.9" font-family="Arial" font-size="14.00" fill="#666666">[integer]</text>
<polygon fill="none" stroke="#000000" points="378,-1012.5 378,-1042.5 787,-1042.5 787,-1012.5 378,-1012.5"/>
<text text-anchor="start" x="385" y="-1023.9" font-family="Arial" font-size="14.00" fill="#000000">menu_id </text>
<text text-anchor="start" x="442.5708" y="-1023.9" font-family="Arial" font-size="14.00" fill="#666666">[integer]</text>
<polygon fill="none" stroke="#000000" points="378,-982.5 378,-1012.5 787,-1012.5 787,-982.5 378,-982.5"/>
<text text-anchor="start" x="385" y="-993.9" font-family="Arial" font-size="14.00" fill="#000000">name </text>
<text text-anchor="start" x="423.899" y="-993.9" font-family="Arial" font-size="14.00" fill="#666666">[varchar]</text>
<polygon fill="none" stroke="#000000" points="378,-952.5 378,-982.5 787,-982.5 787,-952.5 378,-952.5"/>
<text text-anchor="start" x="385" y="-963.9" font-family="Arial" font-size="14.00" fill="#000000">create_uid </text>
<text text-anchor="start" x="454.244" y="-963.9" font-family="Arial" font-size="14.00" fill="#666666">[integer]</text>
<polygon fill="none" stroke="#000000" points="378,-922.5 378,-952.5 787,-952.5 787,-922.5 378,-922.5"/>
<text text-anchor="start" x="385" y="-933.9" font-family="Arial" font-size="14.00" fill="#000000">create_date </text>
<text text-anchor="start" x="462.8106" y="-933.9" font-family="Arial" font-size="14.00" fill="#666666">[timestamp without time zone]</text>
<polygon fill="none" stroke="#000000" points="378,-892.5 378,-922.5 787,-922.5 787,-892.5 378,-892.5"/>
<text text-anchor="start" x="385" y="-903.9" font-family="Arial" font-size="14.00" fill="#000000">write_uid </text>
<text text-anchor="start" x="444.892" y="-903.9" font-family="Arial" font-size="14.00" fill="#666666">[integer]</text>
<polygon fill="none" stroke="#000000" points="378,-862.5 378,-892.5 787,-892.5 787,-862.5 378,-862.5"/>
<text text-anchor="start" x="385" y="-873.9" font-family="Arial" font-size="14.00" fill="#000000">write_date </text>
<text text-anchor="start" x="453.4586" y="-873.9" font-family="Arial" font-size="14.00" fill="#666666">[timestamp without time zone]</text>
<polygon fill="none" stroke="#000000" stroke-width="3" points="376,-861.5 376,-1109.5 788,-1109.5 788,-861.5 376,-861.5"/>
</g>
<!-- public.ir_ui_menu -->
<g id="node2" class="node">
<title>public.ir_ui_menu</title>
<polygon fill="#efefef" stroke="transparent" points="65,-552.5 65,-587.5 341,-587.5 341,-552.5 65,-552.5"/>
<polygon fill="none" stroke="#000000" points="65,-552.5 65,-587.5 341,-587.5 341,-552.5 65,-552.5"/>
<text text-anchor="start" x="83.8635" y="-565.3" font-family="Arial Bold" font-size="18.00" fill="#000000">public.ir_ui_menu</text>
<text text-anchor="start" x="224.8827" y="-565.3" font-family="Arial" font-size="14.00" fill="#000000"> </text>
<text text-anchor="start" x="228.7733" y="-565.3" font-family="Arial" font-size="14.00" fill="#666666">[BASE TABLE]</text>
<polygon fill="none" stroke="#000000" points="65,-522.5 65,-552.5 341,-552.5 341,-522.5 65,-522.5"/>
<text text-anchor="start" x="72" y="-533.9" font-family="Arial" font-size="14.00" fill="#000000">id </text>
<text text-anchor="start" x="86.7798" y="-533.9" font-family="Arial" font-size="14.00" fill="#666666">[integer]</text>
<polygon fill="none" stroke="#000000" points="65,-492.5 65,-522.5 341,-522.5 341,-492.5 65,-492.5"/>
<text text-anchor="start" x="72" y="-503.9" font-family="Arial" font-size="14.00" fill="#000000">parent_path </text>
<text text-anchor="start" x="150.5932" y="-503.9" font-family="Arial" font-size="14.00" fill="#666666">[varchar]</text>
<polygon fill="none" stroke="#000000" points="65,-462.5 65,-492.5 341,-492.5 341,-462.5 65,-462.5"/>
<text text-anchor="start" x="72" y="-473.9" font-family="Arial" font-size="14.00" fill="#000000">name </text>
<text text-anchor="start" x="110.899" y="-473.9" font-family="Arial" font-size="14.00" fill="#666666">[varchar]</text>
<polygon fill="none" stroke="#000000" points="65,-432.5 65,-462.5 341,-462.5 341,-432.5 65,-432.5"/>
<text text-anchor="start" x="72" y="-443.9" font-family="Arial" font-size="14.00" fill="#000000">active </text>
<text text-anchor="start" x="112.453" y="-443.9" font-family="Arial" font-size="14.00" fill="#666666">[boolean]</text>
<polygon fill="none" stroke="#000000" points="65,-402.5 65,-432.5 341,-432.5 341,-402.5 65,-402.5"/>
<text text-anchor="start" x="72" y="-413.9" font-family="Arial" font-size="14.00" fill="#000000">sequence </text>
<text text-anchor="start" x="136.5862" y="-413.9" font-family="Arial" font-size="14.00" fill="#666666">[integer]</text>
<polygon fill="none" stroke="#000000" points="65,-372.5 65,-402.5 341,-402.5 341,-372.5 65,-372.5"/>
<text text-anchor="start" x="72" y="-383.9" font-family="Arial" font-size="14.00" fill="#000000">parent_id </text>
<text text-anchor="start" x="134.244" y="-383.9" font-family="Arial" font-size="14.00" fill="#666666">[integer]</text>
<polygon fill="none" stroke="#000000" points="65,-342.5 65,-372.5 341,-372.5 341,-342.5 65,-342.5"/>
<text text-anchor="start" x="72" y="-353.9" font-family="Arial" font-size="14.00" fill="#000000">web_icon </text>
<text text-anchor="start" x="135.0168" y="-353.9" font-family="Arial" font-size="14.00" fill="#666666">[varchar]</text>
<polygon fill="none" stroke="#000000" points="65,-312.5 65,-342.5 341,-342.5 341,-312.5 65,-312.5"/>
<text text-anchor="start" x="72" y="-323.9" font-family="Arial" font-size="14.00" fill="#000000">action </text>
<text text-anchor="start" x="113.2356" y="-323.9" font-family="Arial" font-size="14.00" fill="#666666">[varchar]</text>
<polygon fill="none" stroke="#000000" points="65,-282.5 65,-312.5 341,-312.5 341,-282.5 65,-282.5"/>
<text text-anchor="start" x="72" y="-293.9" font-family="Arial" font-size="14.00" fill="#000000">create_uid </text>
<text text-anchor="start" x="141.244" y="-293.9" font-family="Arial" font-size="14.00" fill="#666666">[integer]</text>
<polygon fill="none" stroke="#000000" points="65,-252.5 65,-282.5 341,-282.5 341,-252.5 65,-252.5"/>
<text text-anchor="start" x="71.5246" y="-263.9" font-family="Arial" font-size="14.00" fill="#000000">create_date </text>
<text text-anchor="start" x="149.3352" y="-263.9" font-family="Arial" font-size="14.00" fill="#666666">[timestamp without time zone]</text>
<polygon fill="none" stroke="#000000" points="65,-222.5 65,-252.5 341,-252.5 341,-222.5 65,-222.5"/>
<text text-anchor="start" x="72" y="-233.9" font-family="Arial" font-size="14.00" fill="#000000">write_uid </text>
<text text-anchor="start" x="131.892" y="-233.9" font-family="Arial" font-size="14.00" fill="#666666">[integer]</text>
<polygon fill="none" stroke="#000000" points="65,-192.5 65,-222.5 341,-222.5 341,-192.5 65,-192.5"/>
<text text-anchor="start" x="72" y="-203.9" font-family="Arial" font-size="14.00" fill="#000000">write_date </text>
<text text-anchor="start" x="140.4586" y="-203.9" font-family="Arial" font-size="14.00" fill="#666666">[timestamp without time zone]</text>
</g>
<!-- public.wizard_ir_model_menu_create&#45;&gt;public.ir_ui_menu -->
<g id="edge1" class="edge">
<title>public.wizard_ir_model_menu_create:menu_id&#45;&gt;public.ir_ui_menu:id</title>
<path fill="none" stroke="#000000" d="M368.0626,-1025.9153C280.5267,-995.5011 446.5731,-537.5 341,-537.5"/>
<polygon fill="#000000" stroke="#000000" points="368.1248,-1025.9251 377.2913,-1031.9438 373.0624,-1026.7126 378,-1027.5 378,-1027.5 378,-1027.5 373.0624,-1026.7126 378.7087,-1023.0562 368.1248,-1025.9251 368.1248,-1025.9251"/>
<text text-anchor="start" x="6.7725" y="-1037.5" font-family="Arial" font-size="10.00" fill="#000000">FOREIGN KEY (menu_id) REFERENCES ir_ui_menu(id) ON DELETE CASCADE</text>
</g>
<!-- public.res_users -->
<g id="node3" class="node">
<title>public.res_users</title>
<polygon fill="#efefef" stroke="transparent" points="445,-702.5 445,-737.5 721,-737.5 721,-702.5 445,-702.5"/>
<polygon fill="none" stroke="#000000" points="445,-702.5 445,-737.5 721,-737.5 721,-702.5 445,-702.5"/>
<text text-anchor="start" x="468.8639" y="-715.3" font-family="Arial Bold" font-size="18.00" fill="#000000">public.res_users</text>
<text text-anchor="start" x="599.8823" y="-715.3" font-family="Arial" font-size="14.00" fill="#000000"> </text>
<text text-anchor="start" x="603.7729" y="-715.3" font-family="Arial" font-size="14.00" fill="#666666">[BASE TABLE]</text>
<polygon fill="none" stroke="#000000" points="445,-672.5 445,-702.5 721,-702.5 721,-672.5 445,-672.5"/>
<text text-anchor="start" x="452" y="-683.9" font-family="Arial" font-size="14.00" fill="#000000">id </text>
<text text-anchor="start" x="466.7798" y="-683.9" font-family="Arial" font-size="14.00" fill="#666666">[integer]</text>
<polygon fill="none" stroke="#000000" points="445,-642.5 445,-672.5 721,-672.5 721,-642.5 445,-642.5"/>
<text text-anchor="start" x="452" y="-653.9" font-family="Arial" font-size="14.00" fill="#000000">active </text>
<text text-anchor="start" x="492.453" y="-653.9" font-family="Arial" font-size="14.00" fill="#666666">[boolean]</text>
<polygon fill="none" stroke="#000000" points="445,-612.5 445,-642.5 721,-642.5 721,-612.5 445,-612.5"/>
<text text-anchor="start" x="452" y="-623.9" font-family="Arial" font-size="14.00" fill="#000000">login </text>
<text text-anchor="start" x="485.4516" y="-623.9" font-family="Arial" font-size="14.00" fill="#666666">[varchar]</text>
<polygon fill="none" stroke="#000000" points="445,-582.5 445,-612.5 721,-612.5 721,-582.5 445,-582.5"/>
<text text-anchor="start" x="452" y="-593.9" font-family="Arial" font-size="14.00" fill="#000000">password </text>
<text text-anchor="start" x="515.7882" y="-593.9" font-family="Arial" font-size="14.00" fill="#666666">[varchar]</text>
<polygon fill="none" stroke="#000000" points="445,-552.5 445,-582.5 721,-582.5 721,-552.5 445,-552.5"/>
<text text-anchor="start" x="452" y="-563.9" font-family="Arial" font-size="14.00" fill="#000000">company_id </text>
<text text-anchor="start" x="531.3534" y="-563.9" font-family="Arial" font-size="14.00" fill="#666666">[integer]</text>
<polygon fill="none" stroke="#000000" points="445,-522.5 445,-552.5 721,-552.5 721,-522.5 445,-522.5"/>
<text text-anchor="start" x="452" y="-533.9" font-family="Arial" font-size="14.00" fill="#000000">partner_id </text>
<text text-anchor="start" x="518.9046" y="-533.9" font-family="Arial" font-size="14.00" fill="#666666">[integer]</text>
<polygon fill="none" stroke="#000000" points="445,-492.5 445,-522.5 721,-522.5 721,-492.5 445,-492.5"/>
<text text-anchor="start" x="451.5246" y="-503.9" font-family="Arial" font-size="14.00" fill="#000000">create_date </text>
<text text-anchor="start" x="529.3352" y="-503.9" font-family="Arial" font-size="14.00" fill="#666666">[timestamp without time zone]</text>
<polygon fill="none" stroke="#000000" points="445,-462.5 445,-492.5 721,-492.5 721,-462.5 445,-462.5"/>
<text text-anchor="start" x="452" y="-473.9" font-family="Arial" font-size="14.00" fill="#000000">signature </text>
<text text-anchor="start" x="513.4614" y="-473.9" font-family="Arial" font-size="14.00" fill="#666666">[text]</text>
<polygon fill="none" stroke="#000000" points="445,-432.5 445,-462.5 721,-462.5 721,-432.5 445,-432.5"/>
<text text-anchor="start" x="452" y="-443.9" font-family="Arial" font-size="14.00" fill="#000000">action_id </text>
<text text-anchor="start" x="511.9074" y="-443.9" font-family="Arial" font-size="14.00" fill="#666666">[integer]</text>
<polygon fill="none" stroke="#000000" points="445,-402.5 445,-432.5 721,-432.5 721,-402.5 445,-402.5"/>
<text text-anchor="start" x="452" y="-413.9" font-family="Arial" font-size="14.00" fill="#000000">share </text>
<text text-anchor="start" x="490.899" y="-413.9" font-family="Arial" font-size="14.00" fill="#666666">[boolean]</text>
<polygon fill="none" stroke="#000000" points="445,-372.5 445,-402.5 721,-402.5 721,-372.5 445,-372.5"/>
<text text-anchor="start" x="452" y="-383.9" font-family="Arial" font-size="14.00" fill="#000000">create_uid </text>
<text text-anchor="start" x="521.244" y="-383.9" font-family="Arial" font-size="14.00" fill="#666666">[integer]</text>
<polygon fill="none" stroke="#000000" points="445,-342.5 445,-372.5 721,-372.5 721,-342.5 445,-342.5"/>
<text text-anchor="start" x="452" y="-353.9" font-family="Arial" font-size="14.00" fill="#000000">write_uid </text>
<text text-anchor="start" x="511.892" y="-353.9" font-family="Arial" font-size="14.00" fill="#666666">[integer]</text>
<polygon fill="none" stroke="#000000" points="445,-312.5 445,-342.5 721,-342.5 721,-312.5 445,-312.5"/>
<text text-anchor="start" x="452" y="-323.9" font-family="Arial" font-size="14.00" fill="#000000">write_date </text>
<text text-anchor="start" x="520.4586" y="-323.9" font-family="Arial" font-size="14.00" fill="#666666">[timestamp without time zone]</text>
<polygon fill="none" stroke="#000000" points="445,-282.5 445,-312.5 721,-312.5 721,-282.5 445,-282.5"/>
<text text-anchor="start" x="452" y="-293.9" font-family="Arial" font-size="14.00" fill="#000000">alias_id </text>
<text text-anchor="start" x="503.3408" y="-293.9" font-family="Arial" font-size="14.00" fill="#666666">[integer]</text>
<polygon fill="none" stroke="#000000" points="445,-252.5 445,-282.5 721,-282.5 721,-252.5 445,-252.5"/>
<text text-anchor="start" x="452" y="-263.9" font-family="Arial" font-size="14.00" fill="#000000">notification_type </text>
<text text-anchor="start" x="557.0336" y="-263.9" font-family="Arial" font-size="14.00" fill="#666666">[varchar]</text>
<polygon fill="none" stroke="#000000" points="445,-222.5 445,-252.5 721,-252.5 721,-222.5 445,-222.5"/>
<text text-anchor="start" x="452" y="-233.9" font-family="Arial" font-size="14.00" fill="#000000">odoobot_state </text>
<text text-anchor="start" x="544.6058" y="-233.9" font-family="Arial" font-size="14.00" fill="#666666">[varchar]</text>
<polygon fill="none" stroke="#000000" points="445,-192.5 445,-222.5 721,-222.5 721,-192.5 445,-192.5"/>
<text text-anchor="start" x="452" y="-203.9" font-family="Arial" font-size="14.00" fill="#000000">sale_team_id </text>
<text text-anchor="start" x="539.1332" y="-203.9" font-family="Arial" font-size="14.00" fill="#666666">[integer]</text>
<polygon fill="none" stroke="#000000" points="445,-162.5 445,-192.5 721,-192.5 721,-162.5 445,-162.5"/>
<text text-anchor="start" x="452" y="-173.9" font-family="Arial" font-size="14.00" fill="#000000">target_sales_won </text>
<text text-anchor="start" x="565.589" y="-173.9" font-family="Arial" font-size="14.00" fill="#666666">[integer]</text>
<polygon fill="none" stroke="#000000" points="445,-132.5 445,-162.5 721,-162.5 721,-132.5 445,-132.5"/>
<text text-anchor="start" x="452" y="-143.9" font-family="Arial" font-size="14.00" fill="#000000">target_sales_done </text>
<text text-anchor="start" x="571.0476" y="-143.9" font-family="Arial" font-size="14.00" fill="#666666">[integer]</text>
<polygon fill="none" stroke="#000000" points="445,-102.5 445,-132.5 721,-132.5 721,-102.5 445,-102.5"/>
<text text-anchor="start" x="452" y="-113.9" font-family="Arial" font-size="14.00" fill="#000000">website_id </text>
<text text-anchor="start" x="522.014" y="-113.9" font-family="Arial" font-size="14.00" fill="#666666">[integer]</text>
<polygon fill="none" stroke="#000000" points="445,-72.5 445,-102.5 721,-102.5 721,-72.5 445,-72.5"/>
<text text-anchor="start" x="452" y="-83.9" font-family="Arial" font-size="14.00" fill="#000000">target_sales_invoiced </text>
<text text-anchor="start" x="591.2608" y="-83.9" font-family="Arial" font-size="14.00" fill="#666666">[integer]</text>
<polygon fill="none" stroke="#000000" points="445,-42.5 445,-72.5 721,-72.5 721,-42.5 445,-42.5"/>
<text text-anchor="start" x="452" y="-53.9" font-family="Arial" font-size="14.00" fill="#000000">pos_security_pin </text>
<text text-anchor="start" x="560.9158" y="-53.9" font-family="Arial" font-size="14.00" fill="#666666">[varchar(32)]</text>
</g>
<!-- public.wizard_ir_model_menu_create&#45;&gt;public.res_users -->
<g id="edge2" class="edge">
<title>public.wizard_ir_model_menu_create:create_uid&#45;&gt;public.res_users:id</title>
<path fill="none" stroke="#000000" d="M797.1861,-966.6205C851.4002,-956.629 829.306,-863.993 787,-817 735.8696,-760.2049 496.1304,-837.7951 445,-781 417.1963,-750.116 403.4444,-687.5 445,-687.5"/>
<polygon fill="#000000" stroke="#000000" points="796.9629,-966.6397 786.6129,-963.0167 791.9815,-967.0699 787,-967.5 787,-967.5 787,-967.5 791.9815,-967.0699 787.3871,-971.9833 796.9629,-966.6397 796.9629,-966.6397"/>
<text text-anchor="start" x="793.657" y="-977.5" font-family="Arial" font-size="10.00" fill="#000000">FOREIGN KEY (create_uid) REFERENCES res_users(id) ON DELETE SET NULL</text>
</g>
<!-- public.wizard_ir_model_menu_create&#45;&gt;public.res_users -->
<g id="edge3" class="edge">
<title>public.wizard_ir_model_menu_create:write_uid&#45;&gt;public.res_users:id</title>
<path fill="none" stroke="#000000" d="M796.9339,-905.9772C824.6069,-896.4061 811.3886,-844.0906 787,-817 735.8696,-760.2049 496.1304,-837.7951 445,-781 417.1963,-750.116 403.4444,-687.5 445,-687.5"/>
<polygon fill="#000000" stroke="#000000" points="796.8845,-905.9847 786.3181,-903.052 791.9423,-906.7423 787,-907.5 787,-907.5 787,-907.5 791.9423,-906.7423 787.6819,-911.948 796.8845,-905.9847 796.8845,-905.9847"/>
<text text-anchor="start" x="793.997" y="-917.5" font-family="Arial" font-size="10.00" fill="#000000">FOREIGN KEY (write_uid) REFERENCES res_users(id) ON DELETE SET NULL</text>
</g>
</g>
</svg>
