<?xml version="1.0" encoding="UTF-8" standalone="no"?>
<!DOCTYPE svg PUBLIC "-//W3C//DTD SVG 1.1//EN"
 "http://www.w3.org/Graphics/SVG/1.1/DTD/svg11.dtd">
<!-- Generated by graphviz version 2.40.1 (20161225.0304)
 -->
<!-- Title: public.calendar_alarm_calendar_event_rel Pages: 1 -->
<svg width="1339pt" height="1762pt"
 viewBox="0.00 0.00 1339.00 1762.00" xmlns="http://www.w3.org/2000/svg" xmlns:xlink="http://www.w3.org/1999/xlink">
<g id="graph0" class="graph" transform="scale(1 1) rotate(0) translate(4 1758)">
<title>public.calendar_alarm_calendar_event_rel</title>
<polygon fill="#ffffff" stroke="transparent" points="-4,4 -4,-1758 1335,-1758 1335,4 -4,4"/>
<!-- public.calendar_alarm_calendar_event_rel -->
<g id="node1" class="node">
<title>public.calendar_alarm_calendar_event_rel</title>
<polygon fill="#efefef" stroke="transparent" points="440,-1672.5 440,-1707.5 890,-1707.5 890,-1672.5 440,-1672.5"/>
<polygon fill="none" stroke="#000000" points="440,-1672.5 440,-1707.5 890,-1707.5 890,-1672.5 440,-1672.5"/>
<text text-anchor="start" x="446.8365" y="-1685.3" font-family="Arial Bold" font-size="18.00" fill="#000000">public.calendar_alarm_calendar_event_rel</text>
<text text-anchor="start" x="785.9097" y="-1685.3" font-family="Arial" font-size="14.00" fill="#000000"> </text>
<text text-anchor="start" x="789.8003" y="-1685.3" font-family="Arial" font-size="14.00" fill="#666666">[BASE TABLE]</text>
<polygon fill="none" stroke="#000000" points="440,-1642.5 440,-1672.5 890,-1672.5 890,-1642.5 440,-1642.5"/>
<text text-anchor="start" x="447" y="-1653.9" font-family="Arial" font-size="14.00" fill="#000000">calendar_event_id </text>
<text text-anchor="start" x="565.2636" y="-1653.9" font-family="Arial" font-size="14.00" fill="#666666">[integer]</text>
<polygon fill="none" stroke="#000000" points="440,-1612.5 440,-1642.5 890,-1642.5 890,-1612.5 440,-1612.5"/>
<text text-anchor="start" x="447" y="-1623.9" font-family="Arial" font-size="14.00" fill="#000000">calendar_alarm_id </text>
<text text-anchor="start" x="566.0182" y="-1623.9" font-family="Arial" font-size="14.00" fill="#666666">[integer]</text>
<polygon fill="none" stroke="#000000" stroke-width="3" points="438.5,-1611.5 438.5,-1709.5 891.5,-1709.5 891.5,-1611.5 438.5,-1611.5"/>
</g>
<!-- public.calendar_event -->
<g id="node2" class="node">
<title>public.calendar_event</title>
<polygon fill="#efefef" stroke="transparent" points="307,-1452.5 307,-1487.5 619,-1487.5 619,-1452.5 307,-1452.5"/>
<polygon fill="none" stroke="#000000" points="307,-1452.5 307,-1487.5 619,-1487.5 619,-1452.5 307,-1452.5"/>
<text text-anchor="start" x="326.8463" y="-1465.3" font-family="Arial Bold" font-size="18.00" fill="#000000">public.calendar_event</text>
<text text-anchor="start" x="501.8999" y="-1465.3" font-family="Arial" font-size="14.00" fill="#000000"> </text>
<text text-anchor="start" x="505.7905" y="-1465.3" font-family="Arial" font-size="14.00" fill="#666666">[BASE TABLE]</text>
<polygon fill="none" stroke="#000000" points="307,-1422.5 307,-1452.5 619,-1452.5 619,-1422.5 307,-1422.5"/>
<text text-anchor="start" x="314" y="-1433.9" font-family="Arial" font-size="14.00" fill="#000000">id </text>
<text text-anchor="start" x="328.7798" y="-1433.9" font-family="Arial" font-size="14.00" fill="#666666">[integer]</text>
<polygon fill="none" stroke="#000000" points="307,-1392.5 307,-1422.5 619,-1422.5 619,-1392.5 307,-1392.5"/>
<text text-anchor="start" x="314" y="-1403.9" font-family="Arial" font-size="14.00" fill="#000000">message_main_attachment_id </text>
<text text-anchor="start" x="508.4964" y="-1403.9" font-family="Arial" font-size="14.00" fill="#666666">[integer]</text>
<polygon fill="none" stroke="#000000" points="307,-1362.5 307,-1392.5 619,-1392.5 619,-1362.5 307,-1362.5"/>
<text text-anchor="start" x="314" y="-1373.9" font-family="Arial" font-size="14.00" fill="#000000">name </text>
<text text-anchor="start" x="352.899" y="-1373.9" font-family="Arial" font-size="14.00" fill="#666666">[varchar]</text>
<polygon fill="none" stroke="#000000" points="307,-1332.5 307,-1362.5 619,-1362.5 619,-1332.5 307,-1332.5"/>
<text text-anchor="start" x="314" y="-1343.9" font-family="Arial" font-size="14.00" fill="#000000">state </text>
<text text-anchor="start" x="348.237" y="-1343.9" font-family="Arial" font-size="14.00" fill="#666666">[varchar]</text>
<polygon fill="none" stroke="#000000" points="307,-1302.5 307,-1332.5 619,-1332.5 619,-1302.5 307,-1302.5"/>
<text text-anchor="start" x="314" y="-1313.9" font-family="Arial" font-size="14.00" fill="#000000">display_start </text>
<text text-anchor="start" x="396.4586" y="-1313.9" font-family="Arial" font-size="14.00" fill="#666666">[varchar]</text>
<polygon fill="none" stroke="#000000" points="307,-1272.5 307,-1302.5 619,-1302.5 619,-1272.5 307,-1272.5"/>
<text text-anchor="start" x="314" y="-1283.9" font-family="Arial" font-size="14.00" fill="#000000">start </text>
<text text-anchor="start" x="345.115" y="-1283.9" font-family="Arial" font-size="14.00" fill="#666666">[timestamp without time zone]</text>
<polygon fill="none" stroke="#000000" points="307,-1242.5 307,-1272.5 619,-1272.5 619,-1242.5 307,-1242.5"/>
<text text-anchor="start" x="314" y="-1253.9" font-family="Arial" font-size="14.00" fill="#000000">stop </text>
<text text-anchor="start" x="344.3464" y="-1253.9" font-family="Arial" font-size="14.00" fill="#666666">[timestamp without time zone]</text>
<polygon fill="none" stroke="#000000" points="307,-1212.5 307,-1242.5 619,-1242.5 619,-1212.5 307,-1212.5"/>
<text text-anchor="start" x="314" y="-1223.9" font-family="Arial" font-size="14.00" fill="#000000">allday </text>
<text text-anchor="start" x="354.4516" y="-1223.9" font-family="Arial" font-size="14.00" fill="#666666">[boolean]</text>
<polygon fill="none" stroke="#000000" points="307,-1182.5 307,-1212.5 619,-1212.5 619,-1182.5 307,-1182.5"/>
<text text-anchor="start" x="314" y="-1193.9" font-family="Arial" font-size="14.00" fill="#000000">start_date </text>
<text text-anchor="start" x="380.136" y="-1193.9" font-family="Arial" font-size="14.00" fill="#666666">[date]</text>
<polygon fill="none" stroke="#000000" points="307,-1152.5 307,-1182.5 619,-1182.5 619,-1152.5 307,-1152.5"/>
<text text-anchor="start" x="314" y="-1163.9" font-family="Arial" font-size="14.00" fill="#000000">start_datetime </text>
<text text-anchor="start" x="406.5764" y="-1163.9" font-family="Arial" font-size="14.00" fill="#666666">[timestamp without time zone]</text>
<polygon fill="none" stroke="#000000" points="307,-1122.5 307,-1152.5 619,-1152.5 619,-1122.5 307,-1122.5"/>
<text text-anchor="start" x="314" y="-1133.9" font-family="Arial" font-size="14.00" fill="#000000">stop_date </text>
<text text-anchor="start" x="379.3674" y="-1133.9" font-family="Arial" font-size="14.00" fill="#666666">[date]</text>
<polygon fill="none" stroke="#000000" points="307,-1092.5 307,-1122.5 619,-1122.5 619,-1092.5 307,-1092.5"/>
<text text-anchor="start" x="314" y="-1103.9" font-family="Arial" font-size="14.00" fill="#000000">stop_datetime </text>
<text text-anchor="start" x="405.8078" y="-1103.9" font-family="Arial" font-size="14.00" fill="#666666">[timestamp without time zone]</text>
<polygon fill="none" stroke="#000000" points="307,-1062.5 307,-1092.5 619,-1092.5 619,-1062.5 307,-1062.5"/>
<text text-anchor="start" x="314" y="-1073.9" font-family="Arial" font-size="14.00" fill="#000000">duration </text>
<text text-anchor="start" x="368.4614" y="-1073.9" font-family="Arial" font-size="14.00" fill="#666666">[double precision]</text>
<polygon fill="none" stroke="#000000" points="307,-1032.5 307,-1062.5 619,-1062.5 619,-1032.5 307,-1032.5"/>
<text text-anchor="start" x="314" y="-1043.9" font-family="Arial" font-size="14.00" fill="#000000">description </text>
<text text-anchor="start" x="385.568" y="-1043.9" font-family="Arial" font-size="14.00" fill="#666666">[text]</text>
<polygon fill="none" stroke="#000000" points="307,-1002.5 307,-1032.5 619,-1032.5 619,-1002.5 307,-1002.5"/>
<text text-anchor="start" x="314" y="-1013.9" font-family="Arial" font-size="14.00" fill="#000000">privacy </text>
<text text-anchor="start" x="362.223" y="-1013.9" font-family="Arial" font-size="14.00" fill="#666666">[varchar]</text>
<polygon fill="none" stroke="#000000" points="307,-972.5 307,-1002.5 619,-1002.5 619,-972.5 307,-972.5"/>
<text text-anchor="start" x="314" y="-983.9" font-family="Arial" font-size="14.00" fill="#000000">location </text>
<text text-anchor="start" x="366.1248" y="-983.9" font-family="Arial" font-size="14.00" fill="#666666">[varchar]</text>
<polygon fill="none" stroke="#000000" points="307,-942.5 307,-972.5 619,-972.5 619,-942.5 307,-942.5"/>
<text text-anchor="start" x="314" y="-953.9" font-family="Arial" font-size="14.00" fill="#000000">show_as </text>
<text text-anchor="start" x="373.1276" y="-953.9" font-family="Arial" font-size="14.00" fill="#666666">[varchar]</text>
<polygon fill="none" stroke="#000000" points="307,-912.5 307,-942.5 619,-942.5 619,-912.5 307,-912.5"/>
<text text-anchor="start" x="314" y="-923.9" font-family="Arial" font-size="14.00" fill="#000000">res_id </text>
<text text-anchor="start" x="356.0056" y="-923.9" font-family="Arial" font-size="14.00" fill="#666666">[integer]</text>
<polygon fill="none" stroke="#000000" points="307,-882.5 307,-912.5 619,-912.5 619,-882.5 307,-882.5"/>
<text text-anchor="start" x="314" y="-893.9" font-family="Arial" font-size="14.00" fill="#000000">res_model_id </text>
<text text-anchor="start" x="401.9032" y="-893.9" font-family="Arial" font-size="14.00" fill="#666666">[integer]</text>
<polygon fill="none" stroke="#000000" points="307,-852.5 307,-882.5 619,-882.5 619,-852.5 307,-852.5"/>
<text text-anchor="start" x="314" y="-863.9" font-family="Arial" font-size="14.00" fill="#000000">res_model </text>
<text text-anchor="start" x="383.2314" y="-863.9" font-family="Arial" font-size="14.00" fill="#666666">[varchar]</text>
<polygon fill="none" stroke="#000000" points="307,-822.5 307,-852.5 619,-852.5 619,-822.5 307,-822.5"/>
<text text-anchor="start" x="314" y="-833.9" font-family="Arial" font-size="14.00" fill="#000000">rrule </text>
<text text-anchor="start" x="345.8836" y="-833.9" font-family="Arial" font-size="14.00" fill="#666666">[varchar]</text>
<polygon fill="none" stroke="#000000" points="307,-792.5 307,-822.5 619,-822.5 619,-792.5 307,-792.5"/>
<text text-anchor="start" x="314" y="-803.9" font-family="Arial" font-size="14.00" fill="#000000">rrule_type </text>
<text text-anchor="start" x="380.122" y="-803.9" font-family="Arial" font-size="14.00" fill="#666666">[varchar]</text>
<polygon fill="none" stroke="#000000" points="307,-762.5 307,-792.5 619,-792.5 619,-762.5 307,-762.5"/>
<text text-anchor="start" x="314" y="-773.9" font-family="Arial" font-size="14.00" fill="#000000">recurrency </text>
<text text-anchor="start" x="384.0028" y="-773.9" font-family="Arial" font-size="14.00" fill="#666666">[boolean]</text>
<polygon fill="none" stroke="#000000" points="307,-732.5 307,-762.5 619,-762.5 619,-732.5 307,-732.5"/>
<text text-anchor="start" x="314" y="-743.9" font-family="Arial" font-size="14.00" fill="#000000">recurrent_id </text>
<text text-anchor="start" x="392.5652" y="-743.9" font-family="Arial" font-size="14.00" fill="#666666">[integer]</text>
<polygon fill="none" stroke="#000000" points="307,-702.5 307,-732.5 619,-732.5 619,-702.5 307,-702.5"/>
<text text-anchor="start" x="313.6368" y="-713.9" font-family="Arial" font-size="14.00" fill="#000000">recurrent_id_date </text>
<text text-anchor="start" x="427.223" y="-713.9" font-family="Arial" font-size="14.00" fill="#666666">[timestamp without time zone]</text>
<polygon fill="none" stroke="#000000" points="307,-672.5 307,-702.5 619,-702.5 619,-672.5 307,-672.5"/>
<text text-anchor="start" x="314" y="-683.9" font-family="Arial" font-size="14.00" fill="#000000">end_type </text>
<text text-anchor="start" x="375.4768" y="-683.9" font-family="Arial" font-size="14.00" fill="#666666">[varchar]</text>
<polygon fill="none" stroke="#000000" points="307,-642.5 307,-672.5 619,-672.5 619,-642.5 307,-642.5"/>
<text text-anchor="start" x="314" y="-653.9" font-family="Arial" font-size="14.00" fill="#000000">interval </text>
<text text-anchor="start" x="363.0028" y="-653.9" font-family="Arial" font-size="14.00" fill="#666666">[integer]</text>
<polygon fill="none" stroke="#000000" points="307,-612.5 307,-642.5 619,-642.5 619,-612.5 307,-612.5"/>
<text text-anchor="start" x="314" y="-623.9" font-family="Arial" font-size="14.00" fill="#000000">count </text>
<text text-anchor="start" x="352.129" y="-623.9" font-family="Arial" font-size="14.00" fill="#666666">[integer]</text>
<polygon fill="none" stroke="#000000" points="307,-582.5 307,-612.5 619,-612.5 619,-582.5 307,-582.5"/>
<text text-anchor="start" x="314" y="-593.9" font-family="Arial" font-size="14.00" fill="#000000">mo </text>
<text text-anchor="start" x="337.3338" y="-593.9" font-family="Arial" font-size="14.00" fill="#666666">[boolean]</text>
<polygon fill="none" stroke="#000000" points="307,-552.5 307,-582.5 619,-582.5 619,-552.5 307,-552.5"/>
<text text-anchor="start" x="314" y="-563.9" font-family="Arial" font-size="14.00" fill="#000000">tu </text>
<text text-anchor="start" x="329.5638" y="-563.9" font-family="Arial" font-size="14.00" fill="#666666">[boolean]</text>
<polygon fill="none" stroke="#000000" points="307,-522.5 307,-552.5 619,-552.5 619,-522.5 307,-522.5"/>
<text text-anchor="start" x="314" y="-533.9" font-family="Arial" font-size="14.00" fill="#000000">we </text>
<text text-anchor="start" x="335.7798" y="-533.9" font-family="Arial" font-size="14.00" fill="#666666">[boolean]</text>
<polygon fill="none" stroke="#000000" points="307,-492.5 307,-522.5 619,-522.5 619,-492.5 307,-492.5"/>
<text text-anchor="start" x="314" y="-503.9" font-family="Arial" font-size="14.00" fill="#000000">th </text>
<text text-anchor="start" x="329.5638" y="-503.9" font-family="Arial" font-size="14.00" fill="#666666">[boolean]</text>
<polygon fill="none" stroke="#000000" points="307,-462.5 307,-492.5 619,-492.5 619,-462.5 307,-462.5"/>
<text text-anchor="start" x="314" y="-473.9" font-family="Arial" font-size="14.00" fill="#000000">fr </text>
<text text-anchor="start" x="326.4418" y="-473.9" font-family="Arial" font-size="14.00" fill="#666666">[boolean]</text>
<polygon fill="none" stroke="#000000" points="307,-432.5 307,-462.5 619,-462.5 619,-432.5 307,-432.5"/>
<text text-anchor="start" x="314" y="-443.9" font-family="Arial" font-size="14.00" fill="#000000">sa </text>
<text text-anchor="start" x="332.6732" y="-443.9" font-family="Arial" font-size="14.00" fill="#666666">[boolean]</text>
<polygon fill="none" stroke="#000000" points="307,-402.5 307,-432.5 619,-432.5 619,-402.5 307,-402.5"/>
<text text-anchor="start" x="314" y="-413.9" font-family="Arial" font-size="14.00" fill="#000000">su </text>
<text text-anchor="start" x="332.6732" y="-413.9" font-family="Arial" font-size="14.00" fill="#666666">[boolean]</text>
<polygon fill="none" stroke="#000000" points="307,-372.5 307,-402.5 619,-402.5 619,-372.5 307,-372.5"/>
<text text-anchor="start" x="314" y="-383.9" font-family="Arial" font-size="14.00" fill="#000000">month_by </text>
<text text-anchor="start" x="379.3548" y="-383.9" font-family="Arial" font-size="14.00" fill="#666666">[varchar]</text>
<polygon fill="none" stroke="#000000" points="307,-342.5 307,-372.5 619,-372.5 619,-342.5 307,-342.5"/>
<text text-anchor="start" x="314" y="-353.9" font-family="Arial" font-size="14.00" fill="#000000">day </text>
<text text-anchor="start" x="340.4558" y="-353.9" font-family="Arial" font-size="14.00" fill="#666666">[integer]</text>
<polygon fill="none" stroke="#000000" points="307,-312.5 307,-342.5 619,-342.5 619,-312.5 307,-312.5"/>
<text text-anchor="start" x="314" y="-323.9" font-family="Arial" font-size="14.00" fill="#000000">week_list </text>
<text text-anchor="start" x="375.4488" y="-323.9" font-family="Arial" font-size="14.00" fill="#666666">[varchar]</text>
<polygon fill="none" stroke="#000000" points="307,-282.5 307,-312.5 619,-312.5 619,-282.5 307,-282.5"/>
<text text-anchor="start" x="314" y="-293.9" font-family="Arial" font-size="14.00" fill="#000000">byday </text>
<text text-anchor="start" x="355.2384" y="-293.9" font-family="Arial" font-size="14.00" fill="#666666">[varchar]</text>
<polygon fill="none" stroke="#000000" points="307,-252.5 307,-282.5 619,-282.5 619,-252.5 307,-252.5"/>
<text text-anchor="start" x="314" y="-263.9" font-family="Arial" font-size="14.00" fill="#000000">final_date </text>
<text text-anchor="start" x="378.5806" y="-263.9" font-family="Arial" font-size="14.00" fill="#666666">[date]</text>
<polygon fill="none" stroke="#000000" points="307,-222.5 307,-252.5 619,-252.5 619,-222.5 307,-222.5"/>
<text text-anchor="start" x="314" y="-233.9" font-family="Arial" font-size="14.00" fill="#000000">user_id </text>
<text text-anchor="start" x="363.7882" y="-233.9" font-family="Arial" font-size="14.00" fill="#666666">[integer]</text>
<polygon fill="none" stroke="#000000" points="307,-192.5 307,-222.5 619,-222.5 619,-192.5 307,-192.5"/>
<text text-anchor="start" x="314" y="-203.9" font-family="Arial" font-size="14.00" fill="#000000">active </text>
<text text-anchor="start" x="354.453" y="-203.9" font-family="Arial" font-size="14.00" fill="#666666">[boolean]</text>
<polygon fill="none" stroke="#000000" points="307,-162.5 307,-192.5 619,-192.5 619,-162.5 307,-162.5"/>
<text text-anchor="start" x="314" y="-173.9" font-family="Arial" font-size="14.00" fill="#000000">create_uid </text>
<text text-anchor="start" x="383.244" y="-173.9" font-family="Arial" font-size="14.00" fill="#666666">[integer]</text>
<polygon fill="none" stroke="#000000" points="307,-132.5 307,-162.5 619,-162.5 619,-132.5 307,-132.5"/>
<text text-anchor="start" x="314" y="-143.9" font-family="Arial" font-size="14.00" fill="#000000">create_date </text>
<text text-anchor="start" x="391.8106" y="-143.9" font-family="Arial" font-size="14.00" fill="#666666">[timestamp without time zone]</text>
<polygon fill="none" stroke="#000000" points="307,-102.5 307,-132.5 619,-132.5 619,-102.5 307,-102.5"/>
<text text-anchor="start" x="314" y="-113.9" font-family="Arial" font-size="14.00" fill="#000000">write_uid </text>
<text text-anchor="start" x="373.892" y="-113.9" font-family="Arial" font-size="14.00" fill="#666666">[integer]</text>
<polygon fill="none" stroke="#000000" points="307,-72.5 307,-102.5 619,-102.5 619,-72.5 307,-72.5"/>
<text text-anchor="start" x="314" y="-83.9" font-family="Arial" font-size="14.00" fill="#000000">write_date </text>
<text text-anchor="start" x="382.4586" y="-83.9" font-family="Arial" font-size="14.00" fill="#666666">[timestamp without time zone]</text>
<polygon fill="none" stroke="#000000" points="307,-42.5 307,-72.5 619,-72.5 619,-42.5 307,-42.5"/>
<text text-anchor="start" x="314" y="-53.9" font-family="Arial" font-size="14.00" fill="#000000">opportunity_id </text>
<text text-anchor="start" x="405.8064" y="-53.9" font-family="Arial" font-size="14.00" fill="#666666">[integer]</text>
</g>
<!-- public.calendar_alarm_calendar_event_rel&#45;&gt;public.calendar_event -->
<g id="edge1" class="edge">
<title>public.calendar_alarm_calendar_event_rel:calendar_event_id&#45;&gt;public.calendar_event:id</title>
<path fill="none" stroke="#000000" d="M430.1002,-1656.0065C402.6357,-1646.6145 416.9054,-1595.2018 440,-1567 491.4136,-1504.2168 567.5864,-1593.7832 619,-1531 645.3285,-1498.8492 660.5556,-1437.5 619,-1437.5"/>
<polygon fill="#000000" stroke="#000000" points="430.1119,-1656.0082 439.3287,-1661.9497 435.0559,-1656.7541 440,-1657.5 440,-1657.5 440,-1657.5 435.0559,-1656.7541 440.6713,-1653.0503 430.1119,-1656.0082 430.1119,-1656.0082"/>
<text text-anchor="start" x="6.6425" y="-1667.5" font-family="Arial" font-size="10.00" fill="#000000">FOREIGN KEY (calendar_event_id) REFERENCES calendar_event(id) ON DELETE CASCADE</text>
</g>
<!-- public.calendar_alarm -->
<g id="node3" class="node">
<title>public.calendar_alarm</title>
<polygon fill="#efefef" stroke="transparent" points="724,-897.5 724,-932.5 1011,-932.5 1011,-897.5 724,-897.5"/>
<polygon fill="none" stroke="#000000" points="724,-897.5 724,-932.5 1011,-932.5 1011,-897.5 724,-897.5"/>
<text text-anchor="start" x="730.8612" y="-910.3" font-family="Arial Bold" font-size="18.00" fill="#000000">public.calendar_alarm</text>
<text text-anchor="start" x="906.885" y="-910.3" font-family="Arial" font-size="14.00" fill="#000000"> </text>
<text text-anchor="start" x="910.7756" y="-910.3" font-family="Arial" font-size="14.00" fill="#666666">[BASE TABLE]</text>
<polygon fill="none" stroke="#000000" points="724,-867.5 724,-897.5 1011,-897.5 1011,-867.5 724,-867.5"/>
<text text-anchor="start" x="731" y="-878.9" font-family="Arial" font-size="14.00" fill="#000000">id </text>
<text text-anchor="start" x="745.7798" y="-878.9" font-family="Arial" font-size="14.00" fill="#666666">[integer]</text>
<polygon fill="none" stroke="#000000" points="724,-837.5 724,-867.5 1011,-867.5 1011,-837.5 724,-837.5"/>
<text text-anchor="start" x="731" y="-848.9" font-family="Arial" font-size="14.00" fill="#000000">name </text>
<text text-anchor="start" x="769.899" y="-848.9" font-family="Arial" font-size="14.00" fill="#666666">[varchar]</text>
<polygon fill="none" stroke="#000000" points="724,-807.5 724,-837.5 1011,-837.5 1011,-807.5 724,-807.5"/>
<text text-anchor="start" x="731" y="-818.9" font-family="Arial" font-size="14.00" fill="#000000">type </text>
<text text-anchor="start" x="761.3464" y="-818.9" font-family="Arial" font-size="14.00" fill="#666666">[varchar]</text>
<polygon fill="none" stroke="#000000" points="724,-777.5 724,-807.5 1011,-807.5 1011,-777.5 724,-777.5"/>
<text text-anchor="start" x="731" y="-788.9" font-family="Arial" font-size="14.00" fill="#000000">duration </text>
<text text-anchor="start" x="785.4614" y="-788.9" font-family="Arial" font-size="14.00" fill="#666666">[integer]</text>
<polygon fill="none" stroke="#000000" points="724,-747.5 724,-777.5 1011,-777.5 1011,-747.5 724,-747.5"/>
<text text-anchor="start" x="731" y="-758.9" font-family="Arial" font-size="14.00" fill="#000000">interval </text>
<text text-anchor="start" x="780.0028" y="-758.9" font-family="Arial" font-size="14.00" fill="#666666">[varchar]</text>
<polygon fill="none" stroke="#000000" points="724,-717.5 724,-747.5 1011,-747.5 1011,-717.5 724,-717.5"/>
<text text-anchor="start" x="731" y="-728.9" font-family="Arial" font-size="14.00" fill="#000000">duration_minutes </text>
<text text-anchor="start" x="842.2496" y="-728.9" font-family="Arial" font-size="14.00" fill="#666666">[integer]</text>
<polygon fill="none" stroke="#000000" points="724,-687.5 724,-717.5 1011,-717.5 1011,-687.5 724,-687.5"/>
<text text-anchor="start" x="731" y="-698.9" font-family="Arial" font-size="14.00" fill="#000000">create_uid </text>
<text text-anchor="start" x="800.244" y="-698.9" font-family="Arial" font-size="14.00" fill="#666666">[integer]</text>
<polygon fill="none" stroke="#000000" points="724,-657.5 724,-687.5 1011,-687.5 1011,-657.5 724,-657.5"/>
<text text-anchor="start" x="731" y="-668.9" font-family="Arial" font-size="14.00" fill="#000000">create_date </text>
<text text-anchor="start" x="808.8106" y="-668.9" font-family="Arial" font-size="14.00" fill="#666666">[timestamp without time zone]</text>
<polygon fill="none" stroke="#000000" points="724,-627.5 724,-657.5 1011,-657.5 1011,-627.5 724,-627.5"/>
<text text-anchor="start" x="731" y="-638.9" font-family="Arial" font-size="14.00" fill="#000000">write_uid </text>
<text text-anchor="start" x="790.892" y="-638.9" font-family="Arial" font-size="14.00" fill="#666666">[integer]</text>
<polygon fill="none" stroke="#000000" points="724,-597.5 724,-627.5 1011,-627.5 1011,-597.5 724,-597.5"/>
<text text-anchor="start" x="731" y="-608.9" font-family="Arial" font-size="14.00" fill="#000000">write_date </text>
<text text-anchor="start" x="799.4586" y="-608.9" font-family="Arial" font-size="14.00" fill="#666666">[timestamp without time zone]</text>
</g>
<!-- public.calendar_alarm_calendar_event_rel&#45;&gt;public.calendar_alarm -->
<g id="edge2" class="edge">
<title>public.calendar_alarm_calendar_event_rel:calendar_alarm_id&#45;&gt;public.calendar_alarm:id</title>
<path fill="none" stroke="#000000" d="M900.0112,-1626.4831C1038.2179,-1595.8322 558.0285,-882.5 724,-882.5"/>
<polygon fill="#000000" stroke="#000000" points="899.9488,-1626.4894 889.5452,-1623.023 894.9744,-1626.9947 890,-1627.5 890,-1627.5 890,-1627.5 894.9744,-1626.9947 890.4548,-1631.977 899.9488,-1626.4894 899.9488,-1626.4894"/>
<text text-anchor="start" x="897.1035" y="-1637.5" font-family="Arial" font-size="10.00" fill="#000000">FOREIGN KEY (calendar_alarm_id) REFERENCES calendar_alarm(id) ON DELETE CASCADE</text>
</g>
</g>
</svg>
