<?xml version="1.0" encoding="UTF-8" standalone="no"?>
<!DOCTYPE svg PUBLIC "-//W3C//DTD SVG 1.1//EN"
 "http://www.w3.org/Graphics/SVG/1.1/DTD/svg11.dtd">
<!-- Generated by graphviz version 2.40.1 (20161225.0304)
 -->
<!-- Title: public.stock_location_route_move Pages: 1 -->
<svg width="1189pt" height="1972pt"
 viewBox="0.00 0.00 1189.00 1972.00" xmlns="http://www.w3.org/2000/svg" xmlns:xlink="http://www.w3.org/1999/xlink">
<g id="graph0" class="graph" transform="scale(1 1) rotate(0) translate(4 1968)">
<title>public.stock_location_route_move</title>
<polygon fill="#ffffff" stroke="transparent" points="-4,4 -4,-1968 1185,-1968 1185,4 -4,4"/>
<!-- public.stock_location_route_move -->
<g id="node1" class="node">
<title>public.stock_location_route_move</title>
<polygon fill="#efefef" stroke="transparent" points="381,-1882.5 381,-1917.5 763,-1917.5 763,-1882.5 381,-1882.5"/>
<polygon fill="none" stroke="#000000" points="381,-1882.5 381,-1917.5 763,-1917.5 763,-1882.5 381,-1882.5"/>
<text text-anchor="start" x="387.8385" y="-1895.3" font-family="Arial Bold" font-size="18.00" fill="#000000">public.stock_location_route_move</text>
<text text-anchor="start" x="658.9077" y="-1895.3" font-family="Arial" font-size="14.00" fill="#000000"> </text>
<text text-anchor="start" x="662.7983" y="-1895.3" font-family="Arial" font-size="14.00" fill="#666666">[BASE TABLE]</text>
<polygon fill="none" stroke="#000000" points="381,-1852.5 381,-1882.5 763,-1882.5 763,-1852.5 381,-1852.5"/>
<text text-anchor="start" x="388" y="-1863.9" font-family="Arial" font-size="14.00" fill="#000000">move_id </text>
<text text-anchor="start" x="444.7882" y="-1863.9" font-family="Arial" font-size="14.00" fill="#666666">[integer]</text>
<polygon fill="none" stroke="#000000" points="381,-1822.5 381,-1852.5 763,-1852.5 763,-1822.5 381,-1822.5"/>
<text text-anchor="start" x="388" y="-1833.9" font-family="Arial" font-size="14.00" fill="#000000">route_id </text>
<text text-anchor="start" x="442.4614" y="-1833.9" font-family="Arial" font-size="14.00" fill="#666666">[integer]</text>
<polygon fill="none" stroke="#000000" stroke-width="3" points="379.5,-1821.5 379.5,-1919.5 764.5,-1919.5 764.5,-1821.5 379.5,-1821.5"/>
</g>
<!-- public.stock_move -->
<g id="node2" class="node">
<title>public.stock_move</title>
<polygon fill="#efefef" stroke="transparent" points="218,-1662.5 218,-1697.5 512,-1697.5 512,-1662.5 218,-1662.5"/>
<polygon fill="none" stroke="#000000" points="218,-1662.5 218,-1697.5 512,-1697.5 512,-1662.5 218,-1662.5"/>
<text text-anchor="start" x="242.3589" y="-1675.3" font-family="Arial Bold" font-size="18.00" fill="#000000">public.stock_move</text>
<text text-anchor="start" x="390.3873" y="-1675.3" font-family="Arial" font-size="14.00" fill="#000000"> </text>
<text text-anchor="start" x="394.2779" y="-1675.3" font-family="Arial" font-size="14.00" fill="#666666">[BASE TABLE]</text>
<polygon fill="none" stroke="#000000" points="218,-1632.5 218,-1662.5 512,-1662.5 512,-1632.5 218,-1632.5"/>
<text text-anchor="start" x="225" y="-1643.9" font-family="Arial" font-size="14.00" fill="#000000">id </text>
<text text-anchor="start" x="239.7798" y="-1643.9" font-family="Arial" font-size="14.00" fill="#666666">[integer]</text>
<polygon fill="none" stroke="#000000" points="218,-1602.5 218,-1632.5 512,-1632.5 512,-1602.5 218,-1602.5"/>
<text text-anchor="start" x="225" y="-1613.9" font-family="Arial" font-size="14.00" fill="#000000">name </text>
<text text-anchor="start" x="263.899" y="-1613.9" font-family="Arial" font-size="14.00" fill="#666666">[varchar]</text>
<polygon fill="none" stroke="#000000" points="218,-1572.5 218,-1602.5 512,-1602.5 512,-1572.5 218,-1572.5"/>
<text text-anchor="start" x="225" y="-1583.9" font-family="Arial" font-size="14.00" fill="#000000">sequence </text>
<text text-anchor="start" x="289.5862" y="-1583.9" font-family="Arial" font-size="14.00" fill="#666666">[integer]</text>
<polygon fill="none" stroke="#000000" points="218,-1542.5 218,-1572.5 512,-1572.5 512,-1542.5 218,-1542.5"/>
<text text-anchor="start" x="225" y="-1553.9" font-family="Arial" font-size="14.00" fill="#000000">priority </text>
<text text-anchor="start" x="270.8808" y="-1553.9" font-family="Arial" font-size="14.00" fill="#666666">[varchar]</text>
<polygon fill="none" stroke="#000000" points="218,-1512.5 218,-1542.5 512,-1542.5 512,-1512.5 218,-1512.5"/>
<text text-anchor="start" x="225" y="-1523.9" font-family="Arial" font-size="14.00" fill="#000000">create_date </text>
<text text-anchor="start" x="302.8106" y="-1523.9" font-family="Arial" font-size="14.00" fill="#666666">[timestamp without time zone]</text>
<polygon fill="none" stroke="#000000" points="218,-1482.5 218,-1512.5 512,-1512.5 512,-1482.5 218,-1482.5"/>
<text text-anchor="start" x="225" y="-1493.9" font-family="Arial" font-size="14.00" fill="#000000">date </text>
<text text-anchor="start" x="256.129" y="-1493.9" font-family="Arial" font-size="14.00" fill="#666666">[timestamp without time zone]</text>
<polygon fill="none" stroke="#000000" points="218,-1452.5 218,-1482.5 512,-1482.5 512,-1452.5 218,-1452.5"/>
<text text-anchor="start" x="225" y="-1463.9" font-family="Arial" font-size="14.00" fill="#000000">company_id </text>
<text text-anchor="start" x="304.3534" y="-1463.9" font-family="Arial" font-size="14.00" fill="#666666">[integer]</text>
<polygon fill="none" stroke="#000000" points="218,-1422.5 218,-1452.5 512,-1452.5 512,-1422.5 218,-1422.5"/>
<text text-anchor="start" x="224.5723" y="-1433.9" font-family="Arial" font-size="14.00" fill="#000000">date_expected </text>
<text text-anchor="start" x="320.2875" y="-1433.9" font-family="Arial" font-size="14.00" fill="#666666">[timestamp without time zone]</text>
<polygon fill="none" stroke="#000000" points="218,-1392.5 218,-1422.5 512,-1422.5 512,-1392.5 218,-1392.5"/>
<text text-anchor="start" x="225" y="-1403.9" font-family="Arial" font-size="14.00" fill="#000000">product_id </text>
<text text-anchor="start" x="294.244" y="-1403.9" font-family="Arial" font-size="14.00" fill="#666666">[integer]</text>
<polygon fill="none" stroke="#000000" points="218,-1362.5 218,-1392.5 512,-1392.5 512,-1362.5 218,-1362.5"/>
<text text-anchor="start" x="225" y="-1373.9" font-family="Arial" font-size="14.00" fill="#000000">product_qty </text>
<text text-anchor="start" x="302.028" y="-1373.9" font-family="Arial" font-size="14.00" fill="#666666">[numeric]</text>
<polygon fill="none" stroke="#000000" points="218,-1332.5 218,-1362.5 512,-1362.5 512,-1332.5 218,-1332.5"/>
<text text-anchor="start" x="225" y="-1343.9" font-family="Arial" font-size="14.00" fill="#000000">product_uom_qty </text>
<text text-anchor="start" x="337.0364" y="-1343.9" font-family="Arial" font-size="14.00" fill="#666666">[numeric]</text>
<polygon fill="none" stroke="#000000" points="218,-1302.5 218,-1332.5 512,-1332.5 512,-1302.5 218,-1302.5"/>
<text text-anchor="start" x="225" y="-1313.9" font-family="Arial" font-size="14.00" fill="#000000">product_uom </text>
<text text-anchor="start" x="310.5806" y="-1313.9" font-family="Arial" font-size="14.00" fill="#666666">[integer]</text>
<polygon fill="none" stroke="#000000" points="218,-1272.5 218,-1302.5 512,-1302.5 512,-1272.5 218,-1272.5"/>
<text text-anchor="start" x="225" y="-1283.9" font-family="Arial" font-size="14.00" fill="#000000">product_packaging </text>
<text text-anchor="start" x="347.157" y="-1283.9" font-family="Arial" font-size="14.00" fill="#666666">[integer]</text>
<polygon fill="none" stroke="#000000" points="218,-1242.5 218,-1272.5 512,-1272.5 512,-1242.5 218,-1242.5"/>
<text text-anchor="start" x="225" y="-1253.9" font-family="Arial" font-size="14.00" fill="#000000">location_id </text>
<text text-anchor="start" x="295.7966" y="-1253.9" font-family="Arial" font-size="14.00" fill="#666666">[integer]</text>
<polygon fill="none" stroke="#000000" points="218,-1212.5 218,-1242.5 512,-1242.5 512,-1212.5 218,-1212.5"/>
<text text-anchor="start" x="225" y="-1223.9" font-family="Arial" font-size="14.00" fill="#000000">location_dest_id </text>
<text text-anchor="start" x="330.035" y="-1223.9" font-family="Arial" font-size="14.00" fill="#666666">[integer]</text>
<polygon fill="none" stroke="#000000" points="218,-1182.5 218,-1212.5 512,-1212.5 512,-1182.5 218,-1182.5"/>
<text text-anchor="start" x="225" y="-1193.9" font-family="Arial" font-size="14.00" fill="#000000">partner_id </text>
<text text-anchor="start" x="291.9046" y="-1193.9" font-family="Arial" font-size="14.00" fill="#666666">[integer]</text>
<polygon fill="none" stroke="#000000" points="218,-1152.5 218,-1182.5 512,-1182.5 512,-1152.5 218,-1152.5"/>
<text text-anchor="start" x="225" y="-1163.9" font-family="Arial" font-size="14.00" fill="#000000">picking_id </text>
<text text-anchor="start" x="291.1234" y="-1163.9" font-family="Arial" font-size="14.00" fill="#666666">[integer]</text>
<polygon fill="none" stroke="#000000" points="218,-1122.5 218,-1152.5 512,-1152.5 512,-1122.5 218,-1122.5"/>
<text text-anchor="start" x="225" y="-1133.9" font-family="Arial" font-size="14.00" fill="#000000">note </text>
<text text-anchor="start" x="256.129" y="-1133.9" font-family="Arial" font-size="14.00" fill="#666666">[text]</text>
<polygon fill="none" stroke="#000000" points="218,-1092.5 218,-1122.5 512,-1122.5 512,-1092.5 218,-1092.5"/>
<text text-anchor="start" x="225" y="-1103.9" font-family="Arial" font-size="14.00" fill="#000000">state </text>
<text text-anchor="start" x="259.237" y="-1103.9" font-family="Arial" font-size="14.00" fill="#666666">[varchar]</text>
<polygon fill="none" stroke="#000000" points="218,-1062.5 218,-1092.5 512,-1092.5 512,-1062.5 218,-1062.5"/>
<text text-anchor="start" x="225" y="-1073.9" font-family="Arial" font-size="14.00" fill="#000000">price_unit </text>
<text text-anchor="start" x="289.568" y="-1073.9" font-family="Arial" font-size="14.00" fill="#666666">[double precision]</text>
<polygon fill="none" stroke="#000000" points="218,-1032.5 218,-1062.5 512,-1062.5 512,-1032.5 218,-1032.5"/>
<text text-anchor="start" x="225" y="-1043.9" font-family="Arial" font-size="14.00" fill="#000000">origin </text>
<text text-anchor="start" x="263.1122" y="-1043.9" font-family="Arial" font-size="14.00" fill="#666666">[varchar]</text>
<polygon fill="none" stroke="#000000" points="218,-1002.5 218,-1032.5 512,-1032.5 512,-1002.5 218,-1002.5"/>
<text text-anchor="start" x="225" y="-1013.9" font-family="Arial" font-size="14.00" fill="#000000">procure_method </text>
<text text-anchor="start" x="330.8064" y="-1013.9" font-family="Arial" font-size="14.00" fill="#666666">[varchar]</text>
<polygon fill="none" stroke="#000000" points="218,-972.5 218,-1002.5 512,-1002.5 512,-972.5 218,-972.5"/>
<text text-anchor="start" x="225" y="-983.9" font-family="Arial" font-size="14.00" fill="#000000">scrapped </text>
<text text-anchor="start" x="286.4642" y="-983.9" font-family="Arial" font-size="14.00" fill="#666666">[boolean]</text>
<polygon fill="none" stroke="#000000" points="218,-942.5 218,-972.5 512,-972.5 512,-942.5 218,-942.5"/>
<text text-anchor="start" x="225" y="-953.9" font-family="Arial" font-size="14.00" fill="#000000">group_id </text>
<text text-anchor="start" x="283.3534" y="-953.9" font-family="Arial" font-size="14.00" fill="#666666">[integer]</text>
<polygon fill="none" stroke="#000000" points="218,-912.5 218,-942.5 512,-942.5 512,-912.5 218,-912.5"/>
<text text-anchor="start" x="225" y="-923.9" font-family="Arial" font-size="14.00" fill="#000000">rule_id </text>
<text text-anchor="start" x="270.8948" y="-923.9" font-family="Arial" font-size="14.00" fill="#666666">[integer]</text>
<polygon fill="none" stroke="#000000" points="218,-882.5 218,-912.5 512,-912.5 512,-882.5 218,-882.5"/>
<text text-anchor="start" x="225" y="-893.9" font-family="Arial" font-size="14.00" fill="#000000">propagate </text>
<text text-anchor="start" x="291.92" y="-893.9" font-family="Arial" font-size="14.00" fill="#666666">[boolean]</text>
<polygon fill="none" stroke="#000000" points="218,-852.5 218,-882.5 512,-882.5 512,-852.5 218,-852.5"/>
<text text-anchor="start" x="225" y="-863.9" font-family="Arial" font-size="14.00" fill="#000000">picking_type_id </text>
<text text-anchor="start" x="325.3618" y="-863.9" font-family="Arial" font-size="14.00" fill="#666666">[integer]</text>
<polygon fill="none" stroke="#000000" points="218,-822.5 218,-852.5 512,-852.5 512,-822.5 218,-822.5"/>
<text text-anchor="start" x="225" y="-833.9" font-family="Arial" font-size="14.00" fill="#000000">inventory_id </text>
<text text-anchor="start" x="304.3506" y="-833.9" font-family="Arial" font-size="14.00" fill="#666666">[integer]</text>
<polygon fill="none" stroke="#000000" points="218,-792.5 218,-822.5 512,-822.5 512,-792.5 218,-792.5"/>
<text text-anchor="start" x="225" y="-803.9" font-family="Arial" font-size="14.00" fill="#000000">origin_returned_move_id </text>
<text text-anchor="start" x="383.6998" y="-803.9" font-family="Arial" font-size="14.00" fill="#666666">[integer]</text>
<polygon fill="none" stroke="#000000" points="218,-762.5 218,-792.5 512,-792.5 512,-762.5 218,-762.5"/>
<text text-anchor="start" x="225" y="-773.9" font-family="Arial" font-size="14.00" fill="#000000">restrict_partner_id </text>
<text text-anchor="start" x="341.6788" y="-773.9" font-family="Arial" font-size="14.00" fill="#666666">[integer]</text>
<polygon fill="none" stroke="#000000" points="218,-732.5 218,-762.5 512,-762.5 512,-732.5 218,-732.5"/>
<text text-anchor="start" x="225" y="-743.9" font-family="Arial" font-size="14.00" fill="#000000">warehouse_id </text>
<text text-anchor="start" x="316.0252" y="-743.9" font-family="Arial" font-size="14.00" fill="#666666">[integer]</text>
<polygon fill="none" stroke="#000000" points="218,-702.5 218,-732.5 512,-732.5 512,-702.5 218,-702.5"/>
<text text-anchor="start" x="225" y="-713.9" font-family="Arial" font-size="14.00" fill="#000000">additional </text>
<text text-anchor="start" x="288.7966" y="-713.9" font-family="Arial" font-size="14.00" fill="#666666">[boolean]</text>
<polygon fill="none" stroke="#000000" points="218,-672.5 218,-702.5 512,-702.5 512,-672.5 218,-672.5"/>
<text text-anchor="start" x="225" y="-683.9" font-family="Arial" font-size="14.00" fill="#000000">reference </text>
<text text-anchor="start" x="288.0154" y="-683.9" font-family="Arial" font-size="14.00" fill="#666666">[varchar]</text>
<polygon fill="none" stroke="#000000" points="218,-642.5 218,-672.5 512,-672.5 512,-642.5 218,-642.5"/>
<text text-anchor="start" x="225" y="-653.9" font-family="Arial" font-size="14.00" fill="#000000">package_level_id </text>
<text text-anchor="start" x="337.0364" y="-653.9" font-family="Arial" font-size="14.00" fill="#666666">[integer]</text>
<polygon fill="none" stroke="#000000" points="218,-612.5 218,-642.5 512,-642.5 512,-612.5 218,-612.5"/>
<text text-anchor="start" x="225" y="-623.9" font-family="Arial" font-size="14.00" fill="#000000">create_uid </text>
<text text-anchor="start" x="294.244" y="-623.9" font-family="Arial" font-size="14.00" fill="#666666">[integer]</text>
<polygon fill="none" stroke="#000000" points="218,-582.5 218,-612.5 512,-612.5 512,-582.5 218,-582.5"/>
<text text-anchor="start" x="225" y="-593.9" font-family="Arial" font-size="14.00" fill="#000000">write_uid </text>
<text text-anchor="start" x="284.892" y="-593.9" font-family="Arial" font-size="14.00" fill="#666666">[integer]</text>
<polygon fill="none" stroke="#000000" points="218,-552.5 218,-582.5 512,-582.5 512,-552.5 218,-552.5"/>
<text text-anchor="start" x="225" y="-563.9" font-family="Arial" font-size="14.00" fill="#000000">write_date </text>
<text text-anchor="start" x="293.4586" y="-563.9" font-family="Arial" font-size="14.00" fill="#666666">[timestamp without time zone]</text>
<polygon fill="none" stroke="#000000" points="218,-522.5 218,-552.5 512,-552.5 512,-522.5 218,-522.5"/>
<text text-anchor="start" x="225" y="-533.9" font-family="Arial" font-size="14.00" fill="#000000">to_refund </text>
<text text-anchor="start" x="288.028" y="-533.9" font-family="Arial" font-size="14.00" fill="#666666">[boolean]</text>
<polygon fill="none" stroke="#000000" points="218,-492.5 218,-522.5 512,-522.5 512,-492.5 218,-492.5"/>
<text text-anchor="start" x="225" y="-503.9" font-family="Arial" font-size="14.00" fill="#000000">value </text>
<text text-anchor="start" x="262.345" y="-503.9" font-family="Arial" font-size="14.00" fill="#666666">[double precision]</text>
<polygon fill="none" stroke="#000000" points="218,-462.5 218,-492.5 512,-492.5 512,-462.5 218,-462.5"/>
<text text-anchor="start" x="225" y="-473.9" font-family="Arial" font-size="14.00" fill="#000000">remaining_qty </text>
<text text-anchor="start" x="316.7938" y="-473.9" font-family="Arial" font-size="14.00" fill="#666666">[double precision]</text>
<polygon fill="none" stroke="#000000" points="218,-432.5 218,-462.5 512,-462.5 512,-432.5 218,-432.5"/>
<text text-anchor="start" x="225" y="-443.9" font-family="Arial" font-size="14.00" fill="#000000">remaining_value </text>
<text text-anchor="start" x="331.575" y="-443.9" font-family="Arial" font-size="14.00" fill="#666666">[double precision]</text>
<polygon fill="none" stroke="#000000" points="218,-402.5 218,-432.5 512,-432.5 512,-402.5 218,-402.5"/>
<text text-anchor="start" x="225" y="-413.9" font-family="Arial" font-size="14.00" fill="#000000">sale_line_id </text>
<text text-anchor="start" x="302.7952" y="-413.9" font-family="Arial" font-size="14.00" fill="#666666">[integer]</text>
<polygon fill="none" stroke="#000000" points="218,-372.5 218,-402.5 512,-402.5 512,-372.5 218,-372.5"/>
<text text-anchor="start" x="225" y="-383.9" font-family="Arial" font-size="14.00" fill="#000000">purchase_line_id </text>
<text text-anchor="start" x="334.697" y="-383.9" font-family="Arial" font-size="14.00" fill="#666666">[integer]</text>
<polygon fill="none" stroke="#000000" points="218,-342.5 218,-372.5 512,-372.5 512,-342.5 218,-342.5"/>
<text text-anchor="start" x="225" y="-353.9" font-family="Arial" font-size="14.00" fill="#000000">created_purchase_line_id </text>
<text text-anchor="start" x="389.1612" y="-353.9" font-family="Arial" font-size="14.00" fill="#666666">[integer]</text>
<polygon fill="none" stroke="#000000" points="218,-312.5 218,-342.5 512,-342.5 512,-312.5 218,-312.5"/>
<text text-anchor="start" x="225" y="-323.9" font-family="Arial" font-size="14.00" fill="#000000">created_production_id </text>
<text text-anchor="start" x="367.38" y="-323.9" font-family="Arial" font-size="14.00" fill="#666666">[integer]</text>
<polygon fill="none" stroke="#000000" points="218,-282.5 218,-312.5 512,-312.5 512,-282.5 218,-282.5"/>
<text text-anchor="start" x="225" y="-293.9" font-family="Arial" font-size="14.00" fill="#000000">production_id </text>
<text text-anchor="start" x="312.9158" y="-293.9" font-family="Arial" font-size="14.00" fill="#666666">[integer]</text>
<polygon fill="none" stroke="#000000" points="218,-252.5 218,-282.5 512,-282.5 512,-252.5 218,-252.5"/>
<text text-anchor="start" x="225" y="-263.9" font-family="Arial" font-size="14.00" fill="#000000">raw_material_production_id </text>
<text text-anchor="start" x="400.8036" y="-263.9" font-family="Arial" font-size="14.00" fill="#666666">[integer]</text>
<polygon fill="none" stroke="#000000" points="218,-222.5 218,-252.5 512,-252.5 512,-222.5 218,-222.5"/>
<text text-anchor="start" x="225" y="-233.9" font-family="Arial" font-size="14.00" fill="#000000">unbuild_id </text>
<text text-anchor="start" x="292.6886" y="-233.9" font-family="Arial" font-size="14.00" fill="#666666">[integer]</text>
<polygon fill="none" stroke="#000000" points="218,-192.5 218,-222.5 512,-222.5 512,-192.5 218,-192.5"/>
<text text-anchor="start" x="225" y="-203.9" font-family="Arial" font-size="14.00" fill="#000000">consume_unbuild_id </text>
<text text-anchor="start" x="357.2622" y="-203.9" font-family="Arial" font-size="14.00" fill="#666666">[integer]</text>
<polygon fill="none" stroke="#000000" points="218,-162.5 218,-192.5 512,-192.5 512,-162.5 218,-162.5"/>
<text text-anchor="start" x="225" y="-173.9" font-family="Arial" font-size="14.00" fill="#000000">operation_id </text>
<text text-anchor="start" x="305.9158" y="-173.9" font-family="Arial" font-size="14.00" fill="#666666">[integer]</text>
<polygon fill="none" stroke="#000000" points="218,-132.5 218,-162.5 512,-162.5 512,-132.5 218,-132.5"/>
<text text-anchor="start" x="225" y="-143.9" font-family="Arial" font-size="14.00" fill="#000000">workorder_id </text>
<text text-anchor="start" x="309.7812" y="-143.9" font-family="Arial" font-size="14.00" fill="#666666">[integer]</text>
<polygon fill="none" stroke="#000000" points="218,-102.5 218,-132.5 512,-132.5 512,-102.5 218,-102.5"/>
<text text-anchor="start" x="225" y="-113.9" font-family="Arial" font-size="14.00" fill="#000000">bom_line_id </text>
<text text-anchor="start" x="304.3492" y="-113.9" font-family="Arial" font-size="14.00" fill="#666666">[integer]</text>
<polygon fill="none" stroke="#000000" points="218,-72.5 218,-102.5 512,-102.5 512,-72.5 218,-72.5"/>
<text text-anchor="start" x="225" y="-83.9" font-family="Arial" font-size="14.00" fill="#000000">unit_factor </text>
<text text-anchor="start" x="294.2426" y="-83.9" font-family="Arial" font-size="14.00" fill="#666666">[double precision]</text>
<polygon fill="none" stroke="#000000" points="218,-42.5 218,-72.5 512,-72.5 512,-42.5 218,-42.5"/>
<text text-anchor="start" x="225" y="-53.9" font-family="Arial" font-size="14.00" fill="#000000">is_done </text>
<text text-anchor="start" x="277.9102" y="-53.9" font-family="Arial" font-size="14.00" fill="#666666">[boolean]</text>
</g>
<!-- public.stock_location_route_move&#45;&gt;public.stock_move -->
<g id="edge1" class="edge">
<title>public.stock_location_route_move:move_id&#45;&gt;public.stock_move:id</title>
<path fill="none" stroke="#000000" d="M370.7758,-1865.9052C343.9527,-1856.3249 358.9975,-1805.8646 381,-1777 417.6042,-1728.9796 475.3958,-1789.0204 512,-1741 537.192,-1707.9511 553.5556,-1647.5 512,-1647.5"/>
<polygon fill="#000000" stroke="#000000" points="371.1195,-1865.9587 380.3064,-1871.9462 376.0597,-1866.7293 381,-1867.5 381,-1867.5 381,-1867.5 376.0597,-1866.7293 381.6936,-1863.0538 371.1195,-1865.9587 371.1195,-1865.9587"/>
<text text-anchor="start" x="7.105" y="-1877.5" font-family="Arial" font-size="10.00" fill="#000000">FOREIGN KEY (move_id) REFERENCES stock_move(id) ON DELETE CASCADE</text>
</g>
<!-- public.stock_location_route -->
<g id="node3" class="node">
<title>public.stock_location_route</title>
<polygon fill="#efefef" stroke="transparent" points="616,-1077.5 616,-1112.5 944,-1112.5 944,-1077.5 616,-1077.5"/>
<polygon fill="none" stroke="#000000" points="616,-1077.5 616,-1112.5 944,-1112.5 944,-1077.5 616,-1077.5"/>
<text text-anchor="start" x="622.8439" y="-1090.3" font-family="Arial Bold" font-size="18.00" fill="#000000">public.stock_location_route</text>
<text text-anchor="start" x="839.9023" y="-1090.3" font-family="Arial" font-size="14.00" fill="#000000"> </text>
<text text-anchor="start" x="843.7929" y="-1090.3" font-family="Arial" font-size="14.00" fill="#666666">[BASE TABLE]</text>
<polygon fill="none" stroke="#000000" points="616,-1047.5 616,-1077.5 944,-1077.5 944,-1047.5 616,-1047.5"/>
<text text-anchor="start" x="623" y="-1058.9" font-family="Arial" font-size="14.00" fill="#000000">id </text>
<text text-anchor="start" x="637.7798" y="-1058.9" font-family="Arial" font-size="14.00" fill="#666666">[integer]</text>
<polygon fill="none" stroke="#000000" points="616,-1017.5 616,-1047.5 944,-1047.5 944,-1017.5 616,-1017.5"/>
<text text-anchor="start" x="623" y="-1028.9" font-family="Arial" font-size="14.00" fill="#000000">name </text>
<text text-anchor="start" x="661.899" y="-1028.9" font-family="Arial" font-size="14.00" fill="#666666">[varchar]</text>
<polygon fill="none" stroke="#000000" points="616,-987.5 616,-1017.5 944,-1017.5 944,-987.5 616,-987.5"/>
<text text-anchor="start" x="623" y="-998.9" font-family="Arial" font-size="14.00" fill="#000000">active </text>
<text text-anchor="start" x="663.453" y="-998.9" font-family="Arial" font-size="14.00" fill="#666666">[boolean]</text>
<polygon fill="none" stroke="#000000" points="616,-957.5 616,-987.5 944,-987.5 944,-957.5 616,-957.5"/>
<text text-anchor="start" x="623" y="-968.9" font-family="Arial" font-size="14.00" fill="#000000">sequence </text>
<text text-anchor="start" x="687.5862" y="-968.9" font-family="Arial" font-size="14.00" fill="#666666">[integer]</text>
<polygon fill="none" stroke="#000000" points="616,-927.5 616,-957.5 944,-957.5 944,-927.5 616,-927.5"/>
<text text-anchor="start" x="623" y="-938.9" font-family="Arial" font-size="14.00" fill="#000000">product_selectable </text>
<text text-anchor="start" x="744.3716" y="-938.9" font-family="Arial" font-size="14.00" fill="#666666">[boolean]</text>
<polygon fill="none" stroke="#000000" points="616,-897.5 616,-927.5 944,-927.5 944,-897.5 616,-897.5"/>
<text text-anchor="start" x="623" y="-908.9" font-family="Arial" font-size="14.00" fill="#000000">product_categ_selectable </text>
<text text-anchor="start" x="786.3926" y="-908.9" font-family="Arial" font-size="14.00" fill="#666666">[boolean]</text>
<polygon fill="none" stroke="#000000" points="616,-867.5 616,-897.5 944,-897.5 944,-867.5 616,-867.5"/>
<text text-anchor="start" x="623" y="-878.9" font-family="Arial" font-size="14.00" fill="#000000">warehouse_selectable </text>
<text text-anchor="start" x="766.1528" y="-878.9" font-family="Arial" font-size="14.00" fill="#666666">[boolean]</text>
<polygon fill="none" stroke="#000000" points="616,-837.5 616,-867.5 944,-867.5 944,-837.5 616,-837.5"/>
<text text-anchor="start" x="623" y="-848.9" font-family="Arial" font-size="14.00" fill="#000000">supplied_wh_id </text>
<text text-anchor="start" x="723.3604" y="-848.9" font-family="Arial" font-size="14.00" fill="#666666">[integer]</text>
<polygon fill="none" stroke="#000000" points="616,-807.5 616,-837.5 944,-837.5 944,-807.5 616,-807.5"/>
<text text-anchor="start" x="623" y="-818.9" font-family="Arial" font-size="14.00" fill="#000000">supplier_wh_id </text>
<text text-anchor="start" x="720.2384" y="-818.9" font-family="Arial" font-size="14.00" fill="#666666">[integer]</text>
<polygon fill="none" stroke="#000000" points="616,-777.5 616,-807.5 944,-807.5 944,-777.5 616,-777.5"/>
<text text-anchor="start" x="623" y="-788.9" font-family="Arial" font-size="14.00" fill="#000000">company_id </text>
<text text-anchor="start" x="702.3534" y="-788.9" font-family="Arial" font-size="14.00" fill="#666666">[integer]</text>
<polygon fill="none" stroke="#000000" points="616,-747.5 616,-777.5 944,-777.5 944,-747.5 616,-747.5"/>
<text text-anchor="start" x="623" y="-758.9" font-family="Arial" font-size="14.00" fill="#000000">create_uid </text>
<text text-anchor="start" x="692.244" y="-758.9" font-family="Arial" font-size="14.00" fill="#666666">[integer]</text>
<polygon fill="none" stroke="#000000" points="616,-717.5 616,-747.5 944,-747.5 944,-717.5 616,-717.5"/>
<text text-anchor="start" x="623" y="-728.9" font-family="Arial" font-size="14.00" fill="#000000">create_date </text>
<text text-anchor="start" x="700.8106" y="-728.9" font-family="Arial" font-size="14.00" fill="#666666">[timestamp without time zone]</text>
<polygon fill="none" stroke="#000000" points="616,-687.5 616,-717.5 944,-717.5 944,-687.5 616,-687.5"/>
<text text-anchor="start" x="623" y="-698.9" font-family="Arial" font-size="14.00" fill="#000000">write_uid </text>
<text text-anchor="start" x="682.892" y="-698.9" font-family="Arial" font-size="14.00" fill="#666666">[integer]</text>
<polygon fill="none" stroke="#000000" points="616,-657.5 616,-687.5 944,-687.5 944,-657.5 616,-657.5"/>
<text text-anchor="start" x="623" y="-668.9" font-family="Arial" font-size="14.00" fill="#000000">write_date </text>
<text text-anchor="start" x="691.4586" y="-668.9" font-family="Arial" font-size="14.00" fill="#666666">[timestamp without time zone]</text>
<polygon fill="none" stroke="#000000" points="616,-627.5 616,-657.5 944,-657.5 944,-627.5 616,-627.5"/>
<text text-anchor="start" x="623" y="-638.9" font-family="Arial" font-size="14.00" fill="#000000">sale_selectable </text>
<text text-anchor="start" x="723.3618" y="-638.9" font-family="Arial" font-size="14.00" fill="#666666">[boolean]</text>
</g>
<!-- public.stock_location_route_move&#45;&gt;public.stock_location_route -->
<g id="edge2" class="edge">
<title>public.stock_location_route_move:route_id&#45;&gt;public.stock_location_route:id</title>
<path fill="none" stroke="#000000" d="M773.3798,-1836.4422C917.2229,-1804.5569 444.4731,-1062.5 616,-1062.5"/>
<polygon fill="#000000" stroke="#000000" points="772.9485,-1836.4861 762.5437,-1833.0232 767.9742,-1836.993 763,-1837.5 763,-1837.5 763,-1837.5 767.9742,-1836.993 763.4563,-1841.9768 772.9485,-1836.4861 772.9485,-1836.4861"/>
<text text-anchor="start" x="769.761" y="-1847.5" font-family="Arial" font-size="10.00" fill="#000000">FOREIGN KEY (route_id) REFERENCES stock_location_route(id) ON DELETE CASCADE</text>
</g>
</g>
</svg>
