<?xml version="1.0" encoding="UTF-8" standalone="no"?>
<!DOCTYPE svg PUBLIC "-//W3C//DTD SVG 1.1//EN"
 "http://www.w3.org/Graphics/SVG/1.1/DTD/svg11.dtd">
<!-- Generated by graphviz version 2.40.1 (20161225.0304)
 -->
<!-- Title: public.ir_act_window_group_rel Pages: 1 -->
<svg width="1105pt" height="1102pt"
 viewBox="0.00 0.00 1105.00 1102.00" xmlns="http://www.w3.org/2000/svg" xmlns:xlink="http://www.w3.org/1999/xlink">
<g id="graph0" class="graph" transform="scale(1 1) rotate(0) translate(4 1098)">
<title>public.ir_act_window_group_rel</title>
<polygon fill="#ffffff" stroke="transparent" points="-4,4 -4,-1098 1101,-1098 1101,4 -4,4"/>
<!-- public.ir_act_window_group_rel -->
<g id="node1" class="node">
<title>public.ir_act_window_group_rel</title>
<polygon fill="#efefef" stroke="transparent" points="380,-1012.5 380,-1047.5 743,-1047.5 743,-1012.5 380,-1012.5"/>
<polygon fill="none" stroke="#000000" points="380,-1012.5 380,-1047.5 743,-1047.5 743,-1012.5 380,-1012.5"/>
<text text-anchor="start" x="386.8533" y="-1025.3" font-family="Arial Bold" font-size="18.00" fill="#000000">public.ir_act_window_group_rel</text>
<text text-anchor="start" x="638.8929" y="-1025.3" font-family="Arial" font-size="14.00" fill="#000000"> </text>
<text text-anchor="start" x="642.7835" y="-1025.3" font-family="Arial" font-size="14.00" fill="#666666">[BASE TABLE]</text>
<polygon fill="none" stroke="#000000" points="380,-982.5 380,-1012.5 743,-1012.5 743,-982.5 380,-982.5"/>
<text text-anchor="start" x="387" y="-993.9" font-family="Arial" font-size="14.00" fill="#000000">act_id </text>
<text text-anchor="start" x="428.2356" y="-993.9" font-family="Arial" font-size="14.00" fill="#666666">[integer]</text>
<polygon fill="none" stroke="#000000" points="380,-952.5 380,-982.5 743,-982.5 743,-952.5 380,-952.5"/>
<text text-anchor="start" x="387" y="-963.9" font-family="Arial" font-size="14.00" fill="#000000">gid </text>
<text text-anchor="start" x="409.5624" y="-963.9" font-family="Arial" font-size="14.00" fill="#666666">[integer]</text>
<polygon fill="none" stroke="#000000" stroke-width="3" points="378,-951.5 378,-1049.5 744,-1049.5 744,-951.5 378,-951.5"/>
</g>
<!-- public.ir_act_window -->
<g id="node2" class="node">
<title>public.ir_act_window</title>
<polygon fill="#efefef" stroke="transparent" points="233,-792.5 233,-827.5 510,-827.5 510,-792.5 233,-792.5"/>
<polygon fill="none" stroke="#000000" points="233,-792.5 233,-827.5 510,-827.5 510,-792.5 233,-792.5"/>
<text text-anchor="start" x="239.8643" y="-805.3" font-family="Arial Bold" font-size="18.00" fill="#000000">public.ir_act_window</text>
<text text-anchor="start" x="405.8819" y="-805.3" font-family="Arial" font-size="14.00" fill="#000000"> </text>
<text text-anchor="start" x="409.7725" y="-805.3" font-family="Arial" font-size="14.00" fill="#666666">[BASE TABLE]</text>
<polygon fill="none" stroke="#000000" points="233,-762.5 233,-792.5 510,-792.5 510,-762.5 233,-762.5"/>
<text text-anchor="start" x="240" y="-773.9" font-family="Arial" font-size="14.00" fill="#000000">id </text>
<text text-anchor="start" x="254.7798" y="-773.9" font-family="Arial" font-size="14.00" fill="#666666">[integer]</text>
<polygon fill="none" stroke="#000000" points="233,-732.5 233,-762.5 510,-762.5 510,-732.5 233,-732.5"/>
<text text-anchor="start" x="240" y="-743.9" font-family="Arial" font-size="14.00" fill="#000000">name </text>
<text text-anchor="start" x="278.899" y="-743.9" font-family="Arial" font-size="14.00" fill="#666666">[varchar]</text>
<polygon fill="none" stroke="#000000" points="233,-702.5 233,-732.5 510,-732.5 510,-702.5 233,-702.5"/>
<text text-anchor="start" x="240" y="-713.9" font-family="Arial" font-size="14.00" fill="#000000">type </text>
<text text-anchor="start" x="270.3464" y="-713.9" font-family="Arial" font-size="14.00" fill="#666666">[varchar]</text>
<polygon fill="none" stroke="#000000" points="233,-672.5 233,-702.5 510,-702.5 510,-672.5 233,-672.5"/>
<text text-anchor="start" x="240" y="-683.9" font-family="Arial" font-size="14.00" fill="#000000">help </text>
<text text-anchor="start" x="270.345" y="-683.9" font-family="Arial" font-size="14.00" fill="#666666">[text]</text>
<polygon fill="none" stroke="#000000" points="233,-642.5 233,-672.5 510,-672.5 510,-642.5 233,-642.5"/>
<text text-anchor="start" x="240" y="-653.9" font-family="Arial" font-size="14.00" fill="#000000">binding_model_id </text>
<text text-anchor="start" x="353.5862" y="-653.9" font-family="Arial" font-size="14.00" fill="#666666">[integer]</text>
<polygon fill="none" stroke="#000000" points="233,-612.5 233,-642.5 510,-642.5 510,-612.5 233,-612.5"/>
<text text-anchor="start" x="240" y="-623.9" font-family="Arial" font-size="14.00" fill="#000000">binding_type </text>
<text text-anchor="start" x="323.2552" y="-623.9" font-family="Arial" font-size="14.00" fill="#666666">[varchar]</text>
<polygon fill="none" stroke="#000000" points="233,-582.5 233,-612.5 510,-612.5 510,-582.5 233,-582.5"/>
<text text-anchor="start" x="240" y="-593.9" font-family="Arial" font-size="14.00" fill="#000000">create_uid </text>
<text text-anchor="start" x="309.244" y="-593.9" font-family="Arial" font-size="14.00" fill="#666666">[integer]</text>
<polygon fill="none" stroke="#000000" points="233,-552.5 233,-582.5 510,-582.5 510,-552.5 233,-552.5"/>
<text text-anchor="start" x="240" y="-563.9" font-family="Arial" font-size="14.00" fill="#000000">create_date </text>
<text text-anchor="start" x="317.8106" y="-563.9" font-family="Arial" font-size="14.00" fill="#666666">[timestamp without time zone]</text>
<polygon fill="none" stroke="#000000" points="233,-522.5 233,-552.5 510,-552.5 510,-522.5 233,-522.5"/>
<text text-anchor="start" x="240" y="-533.9" font-family="Arial" font-size="14.00" fill="#000000">write_uid </text>
<text text-anchor="start" x="299.892" y="-533.9" font-family="Arial" font-size="14.00" fill="#666666">[integer]</text>
<polygon fill="none" stroke="#000000" points="233,-492.5 233,-522.5 510,-522.5 510,-492.5 233,-492.5"/>
<text text-anchor="start" x="240" y="-503.9" font-family="Arial" font-size="14.00" fill="#000000">write_date </text>
<text text-anchor="start" x="308.4586" y="-503.9" font-family="Arial" font-size="14.00" fill="#666666">[timestamp without time zone]</text>
<polygon fill="none" stroke="#000000" points="233,-462.5 233,-492.5 510,-492.5 510,-462.5 233,-462.5"/>
<text text-anchor="start" x="240" y="-473.9" font-family="Arial" font-size="14.00" fill="#000000">view_id </text>
<text text-anchor="start" x="290.5582" y="-473.9" font-family="Arial" font-size="14.00" fill="#666666">[integer]</text>
<polygon fill="none" stroke="#000000" points="233,-432.5 233,-462.5 510,-462.5 510,-432.5 233,-432.5"/>
<text text-anchor="start" x="240" y="-443.9" font-family="Arial" font-size="14.00" fill="#000000">domain </text>
<text text-anchor="start" x="289.7882" y="-443.9" font-family="Arial" font-size="14.00" fill="#666666">[varchar]</text>
<polygon fill="none" stroke="#000000" points="233,-402.5 233,-432.5 510,-432.5 510,-402.5 233,-402.5"/>
<text text-anchor="start" x="240" y="-413.9" font-family="Arial" font-size="14.00" fill="#000000">context </text>
<text text-anchor="start" x="289.0196" y="-413.9" font-family="Arial" font-size="14.00" fill="#666666">[varchar]</text>
<polygon fill="none" stroke="#000000" points="233,-372.5 233,-402.5 510,-402.5 510,-372.5 233,-372.5"/>
<text text-anchor="start" x="240" y="-383.9" font-family="Arial" font-size="14.00" fill="#000000">res_id </text>
<text text-anchor="start" x="282.0056" y="-383.9" font-family="Arial" font-size="14.00" fill="#666666">[integer]</text>
<polygon fill="none" stroke="#000000" points="233,-342.5 233,-372.5 510,-372.5 510,-342.5 233,-342.5"/>
<text text-anchor="start" x="240" y="-353.9" font-family="Arial" font-size="14.00" fill="#000000">res_model </text>
<text text-anchor="start" x="309.2314" y="-353.9" font-family="Arial" font-size="14.00" fill="#666666">[varchar]</text>
<polygon fill="none" stroke="#000000" points="233,-312.5 233,-342.5 510,-342.5 510,-312.5 233,-312.5"/>
<text text-anchor="start" x="240" y="-323.9" font-family="Arial" font-size="14.00" fill="#000000">src_model </text>
<text text-anchor="start" x="308.4488" y="-323.9" font-family="Arial" font-size="14.00" fill="#666666">[varchar]</text>
<polygon fill="none" stroke="#000000" points="233,-282.5 233,-312.5 510,-312.5 510,-282.5 233,-282.5"/>
<text text-anchor="start" x="240" y="-293.9" font-family="Arial" font-size="14.00" fill="#000000">target </text>
<text text-anchor="start" x="279.6802" y="-293.9" font-family="Arial" font-size="14.00" fill="#666666">[varchar]</text>
<polygon fill="none" stroke="#000000" points="233,-252.5 233,-282.5 510,-282.5 510,-252.5 233,-252.5"/>
<text text-anchor="start" x="240" y="-263.9" font-family="Arial" font-size="14.00" fill="#000000">view_mode </text>
<text text-anchor="start" x="314.6774" y="-263.9" font-family="Arial" font-size="14.00" fill="#666666">[varchar]</text>
<polygon fill="none" stroke="#000000" points="233,-222.5 233,-252.5 510,-252.5 510,-222.5 233,-222.5"/>
<text text-anchor="start" x="240" y="-233.9" font-family="Arial" font-size="14.00" fill="#000000">view_type </text>
<text text-anchor="start" x="306.1248" y="-233.9" font-family="Arial" font-size="14.00" fill="#666666">[varchar]</text>
<polygon fill="none" stroke="#000000" points="233,-192.5 233,-222.5 510,-222.5 510,-192.5 233,-192.5"/>
<text text-anchor="start" x="240" y="-203.9" font-family="Arial" font-size="14.00" fill="#000000">usage </text>
<text text-anchor="start" x="282.021" y="-203.9" font-family="Arial" font-size="14.00" fill="#666666">[varchar]</text>
<polygon fill="none" stroke="#000000" points="233,-162.5 233,-192.5 510,-192.5 510,-162.5 233,-162.5"/>
<text text-anchor="start" x="240" y="-173.9" font-family="Arial" font-size="14.00" fill="#000000">limit </text>
<text text-anchor="start" x="268.7616" y="-173.9" font-family="Arial" font-size="14.00" fill="#666666">[integer]</text>
<polygon fill="none" stroke="#000000" points="233,-132.5 233,-162.5 510,-162.5 510,-132.5 233,-132.5"/>
<text text-anchor="start" x="240" y="-143.9" font-family="Arial" font-size="14.00" fill="#000000">search_view_id </text>
<text text-anchor="start" x="340.3492" y="-143.9" font-family="Arial" font-size="14.00" fill="#666666">[integer]</text>
<polygon fill="none" stroke="#000000" points="233,-102.5 233,-132.5 510,-132.5 510,-102.5 233,-102.5"/>
<text text-anchor="start" x="240" y="-113.9" font-family="Arial" font-size="14.00" fill="#000000">filter </text>
<text text-anchor="start" x="270.3282" y="-113.9" font-family="Arial" font-size="14.00" fill="#666666">[boolean]</text>
<polygon fill="none" stroke="#000000" points="233,-72.5 233,-102.5 510,-102.5 510,-72.5 233,-72.5"/>
<text text-anchor="start" x="240" y="-83.9" font-family="Arial" font-size="14.00" fill="#000000">auto_search </text>
<text text-anchor="start" x="320.92" y="-83.9" font-family="Arial" font-size="14.00" fill="#666666">[boolean]</text>
<polygon fill="none" stroke="#000000" points="233,-42.5 233,-72.5 510,-72.5 510,-42.5 233,-42.5"/>
<text text-anchor="start" x="240" y="-53.9" font-family="Arial" font-size="14.00" fill="#000000">multi </text>
<text text-anchor="start" x="273.4376" y="-53.9" font-family="Arial" font-size="14.00" fill="#666666">[boolean]</text>
</g>
<!-- public.ir_act_window_group_rel&#45;&gt;public.ir_act_window -->
<g id="edge1" class="edge">
<title>public.ir_act_window_group_rel:act_id&#45;&gt;public.ir_act_window:id</title>
<path fill="none" stroke="#000000" d="M369.7766,-995.9058C342.9583,-986.3291 358.0259,-935.8862 380,-907 416.2976,-859.2847 473.7024,-918.7153 510,-871 535.1595,-837.9264 551.5556,-777.5 510,-777.5"/>
<polygon fill="#000000" stroke="#000000" points="370.1194,-995.9592 379.3066,-1001.9463 375.0597,-996.7296 380,-997.5 380,-997.5 380,-997.5 375.0597,-996.7296 380.6934,-993.0537 370.1194,-995.9592 370.1194,-995.9592"/>
<text text-anchor="start" x="6.6625" y="-1007.5" font-family="Arial" font-size="10.00" fill="#000000">FOREIGN KEY (act_id) REFERENCES ir_act_window(id) ON DELETE CASCADE</text>
</g>
<!-- public.res_groups -->
<g id="node3" class="node">
<title>public.res_groups</title>
<polygon fill="#efefef" stroke="transparent" points="614,-567.5 614,-602.5 890,-602.5 890,-567.5 614,-567.5"/>
<polygon fill="none" stroke="#000000" points="614,-567.5 614,-602.5 890,-602.5 890,-567.5 614,-567.5"/>
<text text-anchor="start" x="632.3577" y="-580.3" font-family="Arial Bold" font-size="18.00" fill="#000000">public.res_groups</text>
<text text-anchor="start" x="774.3885" y="-580.3" font-family="Arial" font-size="14.00" fill="#000000"> </text>
<text text-anchor="start" x="778.2791" y="-580.3" font-family="Arial" font-size="14.00" fill="#666666">[BASE TABLE]</text>
<polygon fill="none" stroke="#000000" points="614,-537.5 614,-567.5 890,-567.5 890,-537.5 614,-537.5"/>
<text text-anchor="start" x="621" y="-548.9" font-family="Arial" font-size="14.00" fill="#000000">id </text>
<text text-anchor="start" x="635.7798" y="-548.9" font-family="Arial" font-size="14.00" fill="#666666">[integer]</text>
<polygon fill="none" stroke="#000000" points="614,-507.5 614,-537.5 890,-537.5 890,-507.5 614,-507.5"/>
<text text-anchor="start" x="621" y="-518.9" font-family="Arial" font-size="14.00" fill="#000000">name </text>
<text text-anchor="start" x="659.899" y="-518.9" font-family="Arial" font-size="14.00" fill="#666666">[varchar]</text>
<polygon fill="none" stroke="#000000" points="614,-477.5 614,-507.5 890,-507.5 890,-477.5 614,-477.5"/>
<text text-anchor="start" x="621" y="-488.9" font-family="Arial" font-size="14.00" fill="#000000">comment </text>
<text text-anchor="start" x="682.4502" y="-488.9" font-family="Arial" font-size="14.00" fill="#666666">[text]</text>
<polygon fill="none" stroke="#000000" points="614,-447.5 614,-477.5 890,-477.5 890,-447.5 614,-447.5"/>
<text text-anchor="start" x="621" y="-458.9" font-family="Arial" font-size="14.00" fill="#000000">category_id </text>
<text text-anchor="start" x="697.244" y="-458.9" font-family="Arial" font-size="14.00" fill="#666666">[integer]</text>
<polygon fill="none" stroke="#000000" points="614,-417.5 614,-447.5 890,-447.5 890,-417.5 614,-417.5"/>
<text text-anchor="start" x="621" y="-428.9" font-family="Arial" font-size="14.00" fill="#000000">color </text>
<text text-anchor="start" x="655.223" y="-428.9" font-family="Arial" font-size="14.00" fill="#666666">[integer]</text>
<polygon fill="none" stroke="#000000" points="614,-387.5 614,-417.5 890,-417.5 890,-387.5 614,-387.5"/>
<text text-anchor="start" x="621" y="-398.9" font-family="Arial" font-size="14.00" fill="#000000">share </text>
<text text-anchor="start" x="659.899" y="-398.9" font-family="Arial" font-size="14.00" fill="#666666">[boolean]</text>
<polygon fill="none" stroke="#000000" points="614,-357.5 614,-387.5 890,-387.5 890,-357.5 614,-357.5"/>
<text text-anchor="start" x="621" y="-368.9" font-family="Arial" font-size="14.00" fill="#000000">create_uid </text>
<text text-anchor="start" x="690.244" y="-368.9" font-family="Arial" font-size="14.00" fill="#666666">[integer]</text>
<polygon fill="none" stroke="#000000" points="614,-327.5 614,-357.5 890,-357.5 890,-327.5 614,-327.5"/>
<text text-anchor="start" x="620.5246" y="-338.9" font-family="Arial" font-size="14.00" fill="#000000">create_date </text>
<text text-anchor="start" x="698.3352" y="-338.9" font-family="Arial" font-size="14.00" fill="#666666">[timestamp without time zone]</text>
<polygon fill="none" stroke="#000000" points="614,-297.5 614,-327.5 890,-327.5 890,-297.5 614,-297.5"/>
<text text-anchor="start" x="621" y="-308.9" font-family="Arial" font-size="14.00" fill="#000000">write_uid </text>
<text text-anchor="start" x="680.892" y="-308.9" font-family="Arial" font-size="14.00" fill="#666666">[integer]</text>
<polygon fill="none" stroke="#000000" points="614,-267.5 614,-297.5 890,-297.5 890,-267.5 614,-267.5"/>
<text text-anchor="start" x="621" y="-278.9" font-family="Arial" font-size="14.00" fill="#000000">write_date </text>
<text text-anchor="start" x="689.4586" y="-278.9" font-family="Arial" font-size="14.00" fill="#666666">[timestamp without time zone]</text>
</g>
<!-- public.ir_act_window_group_rel&#45;&gt;public.res_groups -->
<g id="edge2" class="edge">
<title>public.ir_act_window_group_rel:gid&#45;&gt;public.res_groups:id</title>
<path fill="none" stroke="#000000" d="M753.0288,-967.0767C917.2713,-952.2425 424.434,-552.5 614,-552.5"/>
<polygon fill="#000000" stroke="#000000" points="752.9911,-967.0782 742.8102,-963.004 747.9956,-967.2891 743,-967.5 743,-967.5 743,-967.5 747.9956,-967.2891 743.1898,-971.996 752.9911,-967.0782 752.9911,-967.0782"/>
<text text-anchor="start" x="749.9945" y="-977.5" font-family="Arial" font-size="10.00" fill="#000000">FOREIGN KEY (gid) REFERENCES res_groups(id) ON DELETE CASCADE</text>
</g>
</g>
</svg>
