<?xml version="1.0" encoding="UTF-8" standalone="no"?>
<!DOCTYPE svg PUBLIC "-//W3C//DTD SVG 1.1//EN"
 "http://www.w3.org/Graphics/SVG/1.1/DTD/svg11.dtd">
<!-- Generated by graphviz version 2.40.1 (20161225.0304)
 -->
<!-- Title: public.product_public_category_product_template_rel Pages: 1 -->
<svg width="1525pt" height="2122pt"
 viewBox="0.00 0.00 1525.00 2122.00" xmlns="http://www.w3.org/2000/svg" xmlns:xlink="http://www.w3.org/1999/xlink">
<g id="graph0" class="graph" transform="scale(1 1) rotate(0) translate(4 2118)">
<title>public.product_public_category_product_template_rel</title>
<polygon fill="#ffffff" stroke="transparent" points="-4,4 -4,-2118 1521,-2118 1521,4 -4,4"/>
<!-- public.product_public_category_product_template_rel -->
<g id="node1" class="node">
<title>public.product_public_category_product_template_rel</title>
<polygon fill="#efefef" stroke="transparent" points="458,-2032.5 458,-2067.5 996,-2067.5 996,-2032.5 458,-2032.5"/>
<polygon fill="none" stroke="#000000" points="458,-2032.5 458,-2067.5 996,-2067.5 996,-2032.5 458,-2032.5"/>
<text text-anchor="start" x="464.8166" y="-2045.3" font-family="Arial Bold" font-size="18.00" fill="#000000">public.product_public_category_product_template_rel</text>
<text text-anchor="start" x="891.9296" y="-2045.3" font-family="Arial" font-size="14.00" fill="#000000"> </text>
<text text-anchor="start" x="895.8202" y="-2045.3" font-family="Arial" font-size="14.00" fill="#666666">[BASE TABLE]</text>
<polygon fill="none" stroke="#000000" points="458,-2002.5 458,-2032.5 996,-2032.5 996,-2002.5 458,-2002.5"/>
<text text-anchor="start" x="465" y="-2013.9" font-family="Arial" font-size="14.00" fill="#000000">product_template_id </text>
<text text-anchor="start" x="595.7054" y="-2013.9" font-family="Arial" font-size="14.00" fill="#666666">[integer]</text>
<polygon fill="none" stroke="#000000" points="458,-1972.5 458,-2002.5 996,-2002.5 996,-1972.5 458,-1972.5"/>
<text text-anchor="start" x="465" y="-1983.9" font-family="Arial" font-size="14.00" fill="#000000">product_public_category_id </text>
<text text-anchor="start" x="640.0518" y="-1983.9" font-family="Arial" font-size="14.00" fill="#666666">[integer]</text>
<polygon fill="none" stroke="#000000" stroke-width="3" points="456.5,-1971.5 456.5,-2069.5 997.5,-2069.5 997.5,-1971.5 456.5,-1971.5"/>
</g>
<!-- public.product_template -->
<g id="node2" class="node">
<title>public.product_template</title>
<polygon fill="#efefef" stroke="transparent" points="358,-1812.5 358,-1847.5 660,-1847.5 660,-1812.5 358,-1812.5"/>
<polygon fill="none" stroke="#000000" points="358,-1812.5 358,-1847.5 660,-1847.5 660,-1812.5 358,-1812.5"/>
<text text-anchor="start" x="364.848" y="-1825.3" font-family="Arial Bold" font-size="18.00" fill="#000000">public.product_template</text>
<text text-anchor="start" x="555.8982" y="-1825.3" font-family="Arial" font-size="14.00" fill="#000000"> </text>
<text text-anchor="start" x="559.7888" y="-1825.3" font-family="Arial" font-size="14.00" fill="#666666">[BASE TABLE]</text>
<polygon fill="none" stroke="#000000" points="358,-1782.5 358,-1812.5 660,-1812.5 660,-1782.5 358,-1782.5"/>
<text text-anchor="start" x="365" y="-1793.9" font-family="Arial" font-size="14.00" fill="#000000">id </text>
<text text-anchor="start" x="379.7798" y="-1793.9" font-family="Arial" font-size="14.00" fill="#666666">[integer]</text>
<polygon fill="none" stroke="#000000" points="358,-1752.5 358,-1782.5 660,-1782.5 660,-1752.5 358,-1752.5"/>
<text text-anchor="start" x="365" y="-1763.9" font-family="Arial" font-size="14.00" fill="#000000">message_main_attachment_id </text>
<text text-anchor="start" x="559.4964" y="-1763.9" font-family="Arial" font-size="14.00" fill="#666666">[integer]</text>
<polygon fill="none" stroke="#000000" points="358,-1722.5 358,-1752.5 660,-1752.5 660,-1722.5 358,-1722.5"/>
<text text-anchor="start" x="365" y="-1733.9" font-family="Arial" font-size="14.00" fill="#000000">name </text>
<text text-anchor="start" x="403.899" y="-1733.9" font-family="Arial" font-size="14.00" fill="#666666">[varchar]</text>
<polygon fill="none" stroke="#000000" points="358,-1692.5 358,-1722.5 660,-1722.5 660,-1692.5 358,-1692.5"/>
<text text-anchor="start" x="365" y="-1703.9" font-family="Arial" font-size="14.00" fill="#000000">sequence </text>
<text text-anchor="start" x="429.5862" y="-1703.9" font-family="Arial" font-size="14.00" fill="#666666">[integer]</text>
<polygon fill="none" stroke="#000000" points="358,-1662.5 358,-1692.5 660,-1692.5 660,-1662.5 358,-1662.5"/>
<text text-anchor="start" x="365" y="-1673.9" font-family="Arial" font-size="14.00" fill="#000000">description </text>
<text text-anchor="start" x="436.568" y="-1673.9" font-family="Arial" font-size="14.00" fill="#666666">[text]</text>
<polygon fill="none" stroke="#000000" points="358,-1632.5 358,-1662.5 660,-1662.5 660,-1632.5 358,-1632.5"/>
<text text-anchor="start" x="365" y="-1643.9" font-family="Arial" font-size="14.00" fill="#000000">description_purchase </text>
<text text-anchor="start" x="501.9242" y="-1643.9" font-family="Arial" font-size="14.00" fill="#666666">[text]</text>
<polygon fill="none" stroke="#000000" points="358,-1602.5 358,-1632.5 660,-1632.5 660,-1602.5 358,-1602.5"/>
<text text-anchor="start" x="365" y="-1613.9" font-family="Arial" font-size="14.00" fill="#000000">description_sale </text>
<text text-anchor="start" x="470.0224" y="-1613.9" font-family="Arial" font-size="14.00" fill="#666666">[text]</text>
<polygon fill="none" stroke="#000000" points="358,-1572.5 358,-1602.5 660,-1602.5 660,-1572.5 358,-1572.5"/>
<text text-anchor="start" x="365" y="-1583.9" font-family="Arial" font-size="14.00" fill="#000000">type </text>
<text text-anchor="start" x="395.3464" y="-1583.9" font-family="Arial" font-size="14.00" fill="#666666">[varchar]</text>
<polygon fill="none" stroke="#000000" points="358,-1542.5 358,-1572.5 660,-1572.5 660,-1542.5 358,-1542.5"/>
<text text-anchor="start" x="365" y="-1553.9" font-family="Arial" font-size="14.00" fill="#000000">rental </text>
<text text-anchor="start" x="403.8962" y="-1553.9" font-family="Arial" font-size="14.00" fill="#666666">[boolean]</text>
<polygon fill="none" stroke="#000000" points="358,-1512.5 358,-1542.5 660,-1542.5 660,-1512.5 358,-1512.5"/>
<text text-anchor="start" x="365" y="-1523.9" font-family="Arial" font-size="14.00" fill="#000000">categ_id </text>
<text text-anchor="start" x="421.8008" y="-1523.9" font-family="Arial" font-size="14.00" fill="#666666">[integer]</text>
<polygon fill="none" stroke="#000000" points="358,-1482.5 358,-1512.5 660,-1512.5 660,-1482.5 358,-1482.5"/>
<text text-anchor="start" x="365" y="-1493.9" font-family="Arial" font-size="14.00" fill="#000000">list_price </text>
<text text-anchor="start" x="424.1094" y="-1493.9" font-family="Arial" font-size="14.00" fill="#666666">[numeric]</text>
<polygon fill="none" stroke="#000000" points="358,-1452.5 358,-1482.5 660,-1482.5 660,-1452.5 358,-1452.5"/>
<text text-anchor="start" x="365" y="-1463.9" font-family="Arial" font-size="14.00" fill="#000000">volume </text>
<text text-anchor="start" x="414.0056" y="-1463.9" font-family="Arial" font-size="14.00" fill="#666666">[double precision]</text>
<polygon fill="none" stroke="#000000" points="358,-1422.5 358,-1452.5 660,-1452.5 660,-1422.5 358,-1422.5"/>
<text text-anchor="start" x="365" y="-1433.9" font-family="Arial" font-size="14.00" fill="#000000">weight </text>
<text text-anchor="start" x="409.3422" y="-1433.9" font-family="Arial" font-size="14.00" fill="#666666">[numeric]</text>
<polygon fill="none" stroke="#000000" points="358,-1392.5 358,-1422.5 660,-1422.5 660,-1392.5 358,-1392.5"/>
<text text-anchor="start" x="365" y="-1403.9" font-family="Arial" font-size="14.00" fill="#000000">sale_ok </text>
<text text-anchor="start" x="417.1276" y="-1403.9" font-family="Arial" font-size="14.00" fill="#666666">[boolean]</text>
<polygon fill="none" stroke="#000000" points="358,-1362.5 358,-1392.5 660,-1392.5 660,-1362.5 358,-1362.5"/>
<text text-anchor="start" x="365" y="-1373.9" font-family="Arial" font-size="14.00" fill="#000000">purchase_ok </text>
<text text-anchor="start" x="449.0294" y="-1373.9" font-family="Arial" font-size="14.00" fill="#666666">[boolean]</text>
<polygon fill="none" stroke="#000000" points="358,-1332.5 358,-1362.5 660,-1362.5 660,-1332.5 358,-1332.5"/>
<text text-anchor="start" x="365" y="-1343.9" font-family="Arial" font-size="14.00" fill="#000000">uom_id </text>
<text text-anchor="start" x="414.7882" y="-1343.9" font-family="Arial" font-size="14.00" fill="#666666">[integer]</text>
<polygon fill="none" stroke="#000000" points="358,-1302.5 358,-1332.5 660,-1332.5 660,-1302.5 358,-1302.5"/>
<text text-anchor="start" x="365" y="-1313.9" font-family="Arial" font-size="14.00" fill="#000000">uom_po_id </text>
<text text-anchor="start" x="438.136" y="-1313.9" font-family="Arial" font-size="14.00" fill="#666666">[integer]</text>
<polygon fill="none" stroke="#000000" points="358,-1272.5 358,-1302.5 660,-1302.5 660,-1272.5 358,-1272.5"/>
<text text-anchor="start" x="365" y="-1283.9" font-family="Arial" font-size="14.00" fill="#000000">company_id </text>
<text text-anchor="start" x="444.3534" y="-1283.9" font-family="Arial" font-size="14.00" fill="#666666">[integer]</text>
<polygon fill="none" stroke="#000000" points="358,-1242.5 358,-1272.5 660,-1272.5 660,-1242.5 358,-1242.5"/>
<text text-anchor="start" x="365" y="-1253.9" font-family="Arial" font-size="14.00" fill="#000000">active </text>
<text text-anchor="start" x="405.453" y="-1253.9" font-family="Arial" font-size="14.00" fill="#666666">[boolean]</text>
<polygon fill="none" stroke="#000000" points="358,-1212.5 358,-1242.5 660,-1242.5 660,-1212.5 358,-1212.5"/>
<text text-anchor="start" x="365" y="-1223.9" font-family="Arial" font-size="14.00" fill="#000000">color </text>
<text text-anchor="start" x="399.223" y="-1223.9" font-family="Arial" font-size="14.00" fill="#666666">[integer]</text>
<polygon fill="none" stroke="#000000" points="358,-1182.5 358,-1212.5 660,-1212.5 660,-1182.5 358,-1182.5"/>
<text text-anchor="start" x="365" y="-1193.9" font-family="Arial" font-size="14.00" fill="#000000">default_code </text>
<text text-anchor="start" x="449.0392" y="-1193.9" font-family="Arial" font-size="14.00" fill="#666666">[varchar]</text>
<polygon fill="none" stroke="#000000" points="358,-1152.5 358,-1182.5 660,-1182.5 660,-1152.5 358,-1152.5"/>
<text text-anchor="start" x="365" y="-1163.9" font-family="Arial" font-size="14.00" fill="#000000">create_uid </text>
<text text-anchor="start" x="434.244" y="-1163.9" font-family="Arial" font-size="14.00" fill="#666666">[integer]</text>
<polygon fill="none" stroke="#000000" points="358,-1122.5 358,-1152.5 660,-1152.5 660,-1122.5 358,-1122.5"/>
<text text-anchor="start" x="365" y="-1133.9" font-family="Arial" font-size="14.00" fill="#000000">create_date </text>
<text text-anchor="start" x="442.8106" y="-1133.9" font-family="Arial" font-size="14.00" fill="#666666">[timestamp without time zone]</text>
<polygon fill="none" stroke="#000000" points="358,-1092.5 358,-1122.5 660,-1122.5 660,-1092.5 358,-1092.5"/>
<text text-anchor="start" x="365" y="-1103.9" font-family="Arial" font-size="14.00" fill="#000000">write_uid </text>
<text text-anchor="start" x="424.892" y="-1103.9" font-family="Arial" font-size="14.00" fill="#666666">[integer]</text>
<polygon fill="none" stroke="#000000" points="358,-1062.5 358,-1092.5 660,-1092.5 660,-1062.5 358,-1062.5"/>
<text text-anchor="start" x="365" y="-1073.9" font-family="Arial" font-size="14.00" fill="#000000">write_date </text>
<text text-anchor="start" x="433.4586" y="-1073.9" font-family="Arial" font-size="14.00" fill="#666666">[timestamp without time zone]</text>
<polygon fill="none" stroke="#000000" points="358,-1032.5 358,-1062.5 660,-1062.5 660,-1032.5 358,-1032.5"/>
<text text-anchor="start" x="365" y="-1043.9" font-family="Arial" font-size="14.00" fill="#000000">service_type </text>
<text text-anchor="start" x="447.4614" y="-1043.9" font-family="Arial" font-size="14.00" fill="#666666">[varchar]</text>
<polygon fill="none" stroke="#000000" points="358,-1002.5 358,-1032.5 660,-1032.5 660,-1002.5 358,-1002.5"/>
<text text-anchor="start" x="365" y="-1013.9" font-family="Arial" font-size="14.00" fill="#000000">sale_line_warn </text>
<text text-anchor="start" x="462.2384" y="-1013.9" font-family="Arial" font-size="14.00" fill="#666666">[varchar]</text>
<polygon fill="none" stroke="#000000" points="358,-972.5 358,-1002.5 660,-1002.5 660,-972.5 358,-972.5"/>
<text text-anchor="start" x="365" y="-983.9" font-family="Arial" font-size="14.00" fill="#000000">sale_line_warn_msg </text>
<text text-anchor="start" x="496.4642" y="-983.9" font-family="Arial" font-size="14.00" fill="#666666">[text]</text>
<polygon fill="none" stroke="#000000" points="358,-942.5 358,-972.5 660,-972.5 660,-942.5 358,-942.5"/>
<text text-anchor="start" x="365" y="-953.9" font-family="Arial" font-size="14.00" fill="#000000">expense_policy </text>
<text text-anchor="start" x="465.3646" y="-953.9" font-family="Arial" font-size="14.00" fill="#666666">[varchar]</text>
<polygon fill="none" stroke="#000000" points="358,-912.5 358,-942.5 660,-942.5 660,-912.5 358,-912.5"/>
<text text-anchor="start" x="365" y="-923.9" font-family="Arial" font-size="14.00" fill="#000000">invoice_policy </text>
<text text-anchor="start" x="456.0126" y="-923.9" font-family="Arial" font-size="14.00" fill="#666666">[varchar]</text>
<polygon fill="none" stroke="#000000" points="358,-882.5 358,-912.5 660,-912.5 660,-882.5 358,-882.5"/>
<text text-anchor="start" x="365" y="-893.9" font-family="Arial" font-size="14.00" fill="#000000">website_id </text>
<text text-anchor="start" x="435.014" y="-893.9" font-family="Arial" font-size="14.00" fill="#666666">[integer]</text>
<polygon fill="none" stroke="#000000" points="358,-852.5 358,-882.5 660,-882.5 660,-852.5 358,-852.5"/>
<text text-anchor="start" x="365" y="-863.9" font-family="Arial" font-size="14.00" fill="#000000">is_published </text>
<text text-anchor="start" x="446.6886" y="-863.9" font-family="Arial" font-size="14.00" fill="#666666">[boolean]</text>
<polygon fill="none" stroke="#000000" points="358,-822.5 358,-852.5 660,-852.5 660,-822.5 358,-822.5"/>
<text text-anchor="start" x="365" y="-833.9" font-family="Arial" font-size="14.00" fill="#000000">website_meta_title </text>
<text text-anchor="start" x="484.8008" y="-833.9" font-family="Arial" font-size="14.00" fill="#666666">[varchar]</text>
<polygon fill="none" stroke="#000000" points="358,-792.5 358,-822.5 660,-822.5 660,-792.5 358,-792.5"/>
<text text-anchor="start" x="365" y="-803.9" font-family="Arial" font-size="14.00" fill="#000000">website_meta_description </text>
<text text-anchor="start" x="530.7012" y="-803.9" font-family="Arial" font-size="14.00" fill="#666666">[text]</text>
<polygon fill="none" stroke="#000000" points="358,-762.5 358,-792.5 660,-792.5 660,-762.5 358,-762.5"/>
<text text-anchor="start" x="365" y="-773.9" font-family="Arial" font-size="14.00" fill="#000000">website_meta_keywords </text>
<text text-anchor="start" x="522.1388" y="-773.9" font-family="Arial" font-size="14.00" fill="#666666">[varchar]</text>
<polygon fill="none" stroke="#000000" points="358,-732.5 358,-762.5 660,-762.5 660,-732.5 358,-732.5"/>
<text text-anchor="start" x="365" y="-743.9" font-family="Arial" font-size="14.00" fill="#000000">website_meta_og_img </text>
<text text-anchor="start" x="508.9214" y="-743.9" font-family="Arial" font-size="14.00" fill="#666666">[varchar]</text>
<polygon fill="none" stroke="#000000" points="358,-702.5 358,-732.5 660,-732.5 660,-702.5 358,-702.5"/>
<text text-anchor="start" x="365" y="-713.9" font-family="Arial" font-size="14.00" fill="#000000">rating_last_value </text>
<text text-anchor="start" x="474.6956" y="-713.9" font-family="Arial" font-size="14.00" fill="#666666">[double precision]</text>
<polygon fill="none" stroke="#000000" points="358,-672.5 358,-702.5 660,-702.5 660,-672.5 358,-672.5"/>
<text text-anchor="start" x="365" y="-683.9" font-family="Arial" font-size="14.00" fill="#000000">website_description </text>
<text text-anchor="start" x="491.8022" y="-683.9" font-family="Arial" font-size="14.00" fill="#666666">[text]</text>
<polygon fill="none" stroke="#000000" points="358,-642.5 358,-672.5 660,-672.5 660,-642.5 358,-642.5"/>
<text text-anchor="start" x="365" y="-653.9" font-family="Arial" font-size="14.00" fill="#000000">website_size_x </text>
<text text-anchor="start" x="463.7966" y="-653.9" font-family="Arial" font-size="14.00" fill="#666666">[integer]</text>
<polygon fill="none" stroke="#000000" points="358,-612.5 358,-642.5 660,-642.5 660,-612.5 358,-612.5"/>
<text text-anchor="start" x="365" y="-623.9" font-family="Arial" font-size="14.00" fill="#000000">website_size_y </text>
<text text-anchor="start" x="463.7966" y="-623.9" font-family="Arial" font-size="14.00" fill="#666666">[integer]</text>
<polygon fill="none" stroke="#000000" points="358,-582.5 358,-612.5 660,-612.5 660,-582.5 358,-582.5"/>
<text text-anchor="start" x="365" y="-593.9" font-family="Arial" font-size="14.00" fill="#000000">website_sequence </text>
<text text-anchor="start" x="484.8204" y="-593.9" font-family="Arial" font-size="14.00" fill="#666666">[integer]</text>
<polygon fill="none" stroke="#000000" points="358,-552.5 358,-582.5 660,-582.5 660,-552.5 358,-552.5"/>
<text text-anchor="start" x="365" y="-563.9" font-family="Arial" font-size="14.00" fill="#000000">responsible_id </text>
<text text-anchor="start" x="459.1318" y="-563.9" font-family="Arial" font-size="14.00" fill="#666666">[integer]</text>
<polygon fill="none" stroke="#000000" points="358,-522.5 358,-552.5 660,-552.5 660,-522.5 358,-522.5"/>
<text text-anchor="start" x="365" y="-533.9" font-family="Arial" font-size="14.00" fill="#000000">sale_delay </text>
<text text-anchor="start" x="435.7994" y="-533.9" font-family="Arial" font-size="14.00" fill="#666666">[double precision]</text>
<polygon fill="none" stroke="#000000" points="358,-492.5 358,-522.5 660,-522.5 660,-492.5 358,-492.5"/>
<text text-anchor="start" x="365" y="-503.9" font-family="Arial" font-size="14.00" fill="#000000">tracking </text>
<text text-anchor="start" x="417.8962" y="-503.9" font-family="Arial" font-size="14.00" fill="#666666">[varchar]</text>
<polygon fill="none" stroke="#000000" points="358,-462.5 358,-492.5 660,-492.5 660,-462.5 358,-462.5"/>
<text text-anchor="start" x="365" y="-473.9" font-family="Arial" font-size="14.00" fill="#000000">description_picking </text>
<text text-anchor="start" x="487.9116" y="-473.9" font-family="Arial" font-size="14.00" fill="#666666">[text]</text>
<polygon fill="none" stroke="#000000" points="358,-432.5 358,-462.5 660,-462.5 660,-432.5 358,-432.5"/>
<text text-anchor="start" x="365" y="-443.9" font-family="Arial" font-size="14.00" fill="#000000">description_pickingout </text>
<text text-anchor="start" x="507.3674" y="-443.9" font-family="Arial" font-size="14.00" fill="#666666">[text]</text>
<polygon fill="none" stroke="#000000" points="358,-402.5 358,-432.5 660,-432.5 660,-402.5 358,-402.5"/>
<text text-anchor="start" x="365" y="-413.9" font-family="Arial" font-size="14.00" fill="#000000">description_pickingin </text>
<text text-anchor="start" x="498.8008" y="-413.9" font-family="Arial" font-size="14.00" fill="#666666">[text]</text>
<polygon fill="none" stroke="#000000" points="358,-372.5 358,-402.5 660,-402.5 660,-372.5 358,-372.5"/>
<text text-anchor="start" x="365" y="-383.9" font-family="Arial" font-size="14.00" fill="#000000">inventory_availability </text>
<text text-anchor="start" x="498.0154" y="-383.9" font-family="Arial" font-size="14.00" fill="#666666">[varchar]</text>
<polygon fill="none" stroke="#000000" points="358,-342.5 358,-372.5 660,-372.5 660,-342.5 358,-342.5"/>
<text text-anchor="start" x="365" y="-353.9" font-family="Arial" font-size="14.00" fill="#000000">available_threshold </text>
<text text-anchor="start" x="489.4768" y="-353.9" font-family="Arial" font-size="14.00" fill="#666666">[double precision]</text>
<polygon fill="none" stroke="#000000" points="358,-312.5 358,-342.5 660,-342.5 660,-312.5 358,-312.5"/>
<text text-anchor="start" x="365" y="-323.9" font-family="Arial" font-size="14.00" fill="#000000">custom_message </text>
<text text-anchor="start" x="478.5806" y="-323.9" font-family="Arial" font-size="14.00" fill="#666666">[text]</text>
<polygon fill="none" stroke="#000000" points="358,-282.5 358,-312.5 660,-312.5 660,-282.5 358,-282.5"/>
<text text-anchor="start" x="365" y="-293.9" font-family="Arial" font-size="14.00" fill="#000000">purchase_method </text>
<text text-anchor="start" x="480.9284" y="-293.9" font-family="Arial" font-size="14.00" fill="#666666">[varchar]</text>
<polygon fill="none" stroke="#000000" points="358,-252.5 358,-282.5 660,-282.5 660,-252.5 358,-252.5"/>
<text text-anchor="start" x="365" y="-263.9" font-family="Arial" font-size="14.00" fill="#000000">purchase_line_warn </text>
<text text-anchor="start" x="494.1402" y="-263.9" font-family="Arial" font-size="14.00" fill="#666666">[varchar]</text>
<polygon fill="none" stroke="#000000" points="358,-222.5 358,-252.5 660,-252.5 660,-222.5 358,-222.5"/>
<text text-anchor="start" x="365" y="-233.9" font-family="Arial" font-size="14.00" fill="#000000">purchase_line_warn_msg </text>
<text text-anchor="start" x="528.366" y="-233.9" font-family="Arial" font-size="14.00" fill="#666666">[text]</text>
<polygon fill="none" stroke="#000000" points="358,-192.5 358,-222.5 660,-222.5 660,-192.5 358,-192.5"/>
<text text-anchor="start" x="365" y="-203.9" font-family="Arial" font-size="14.00" fill="#000000">service_to_purchase </text>
<text text-anchor="start" x="498.035" y="-203.9" font-family="Arial" font-size="14.00" fill="#666666">[boolean]</text>
<polygon fill="none" stroke="#000000" points="358,-162.5 358,-192.5 660,-192.5 660,-162.5 358,-162.5"/>
<text text-anchor="start" x="365" y="-173.9" font-family="Arial" font-size="14.00" fill="#000000">can_be_expensed </text>
<text text-anchor="start" x="483.2818" y="-173.9" font-family="Arial" font-size="14.00" fill="#666666">[boolean]</text>
<polygon fill="none" stroke="#000000" points="358,-132.5 358,-162.5 660,-162.5 660,-132.5 358,-132.5"/>
<text text-anchor="start" x="365" y="-143.9" font-family="Arial" font-size="14.00" fill="#000000">available_in_pos </text>
<text text-anchor="start" x="473.143" y="-143.9" font-family="Arial" font-size="14.00" fill="#666666">[boolean]</text>
<polygon fill="none" stroke="#000000" points="358,-102.5 358,-132.5 660,-132.5 660,-102.5 358,-102.5"/>
<text text-anchor="start" x="365" y="-113.9" font-family="Arial" font-size="14.00" fill="#000000">to_weight </text>
<text text-anchor="start" x="428.798" y="-113.9" font-family="Arial" font-size="14.00" fill="#666666">[boolean]</text>
<polygon fill="none" stroke="#000000" points="358,-72.5 358,-102.5 660,-102.5 660,-72.5 358,-72.5"/>
<text text-anchor="start" x="365" y="-83.9" font-family="Arial" font-size="14.00" fill="#000000">pos_categ_id </text>
<text text-anchor="start" x="452.1486" y="-83.9" font-family="Arial" font-size="14.00" fill="#666666">[integer]</text>
<polygon fill="none" stroke="#000000" points="358,-42.5 358,-72.5 660,-72.5 660,-42.5 358,-42.5"/>
<text text-anchor="start" x="365" y="-53.9" font-family="Arial" font-size="14.00" fill="#000000">produce_delay </text>
<text text-anchor="start" x="460.7012" y="-53.9" font-family="Arial" font-size="14.00" fill="#666666">[double precision]</text>
</g>
<!-- public.product_public_category_product_template_rel&#45;&gt;public.product_template -->
<g id="edge1" class="edge">
<title>public.product_public_category_product_template_rel:product_template_id&#45;&gt;public.product_template:id</title>
<path fill="none" stroke="#000000" d="M448.092,-2015.9997C420.5775,-2006.5663 434.5951,-1954.9448 458,-1927 516.5533,-1857.0889 601.4467,-1960.9111 660,-1891 686.6822,-1859.1421 701.5556,-1797.5 660,-1797.5"/>
<polygon fill="#000000" stroke="#000000" points="448.1127,-2016.0028 457.3263,-2021.9493 453.0564,-2016.7514 458,-2017.5 458,-2017.5 458,-2017.5 453.0564,-2016.7514 458.6737,-2013.0507 448.1127,-2016.0028 448.1127,-2016.0028"/>
<text text-anchor="start" x="6.7555" y="-2027.5" font-family="Arial" font-size="10.00" fill="#000000">FOREIGN KEY (product_template_id) REFERENCES product_template(id) ON DELETE CASCADE</text>
</g>
<!-- public.product_public_category -->
<g id="node3" class="node">
<title>public.product_public_category</title>
<polygon fill="#efefef" stroke="transparent" points="765,-1122.5 765,-1157.5 1124,-1157.5 1124,-1122.5 765,-1122.5"/>
<polygon fill="none" stroke="#000000" points="765,-1122.5 765,-1157.5 1124,-1157.5 1124,-1122.5 765,-1122.5"/>
<text text-anchor="start" x="771.8396" y="-1135.3" font-family="Arial Bold" font-size="18.00" fill="#000000">public.product_public_category</text>
<text text-anchor="start" x="1019.9066" y="-1135.3" font-family="Arial" font-size="14.00" fill="#000000"> </text>
<text text-anchor="start" x="1023.7972" y="-1135.3" font-family="Arial" font-size="14.00" fill="#666666">[BASE TABLE]</text>
<polygon fill="none" stroke="#000000" points="765,-1092.5 765,-1122.5 1124,-1122.5 1124,-1092.5 765,-1092.5"/>
<text text-anchor="start" x="772" y="-1103.9" font-family="Arial" font-size="14.00" fill="#000000">id </text>
<text text-anchor="start" x="786.7798" y="-1103.9" font-family="Arial" font-size="14.00" fill="#666666">[integer]</text>
<polygon fill="none" stroke="#000000" points="765,-1062.5 765,-1092.5 1124,-1092.5 1124,-1062.5 765,-1062.5"/>
<text text-anchor="start" x="772" y="-1073.9" font-family="Arial" font-size="14.00" fill="#000000">website_id </text>
<text text-anchor="start" x="842.014" y="-1073.9" font-family="Arial" font-size="14.00" fill="#666666">[integer]</text>
<polygon fill="none" stroke="#000000" points="765,-1032.5 765,-1062.5 1124,-1062.5 1124,-1032.5 765,-1032.5"/>
<text text-anchor="start" x="772" y="-1043.9" font-family="Arial" font-size="14.00" fill="#000000">website_meta_title </text>
<text text-anchor="start" x="891.8008" y="-1043.9" font-family="Arial" font-size="14.00" fill="#666666">[varchar]</text>
<polygon fill="none" stroke="#000000" points="765,-1002.5 765,-1032.5 1124,-1032.5 1124,-1002.5 765,-1002.5"/>
<text text-anchor="start" x="772" y="-1013.9" font-family="Arial" font-size="14.00" fill="#000000">website_meta_description </text>
<text text-anchor="start" x="937.7012" y="-1013.9" font-family="Arial" font-size="14.00" fill="#666666">[text]</text>
<polygon fill="none" stroke="#000000" points="765,-972.5 765,-1002.5 1124,-1002.5 1124,-972.5 765,-972.5"/>
<text text-anchor="start" x="772" y="-983.9" font-family="Arial" font-size="14.00" fill="#000000">website_meta_keywords </text>
<text text-anchor="start" x="929.1388" y="-983.9" font-family="Arial" font-size="14.00" fill="#666666">[varchar]</text>
<polygon fill="none" stroke="#000000" points="765,-942.5 765,-972.5 1124,-972.5 1124,-942.5 765,-942.5"/>
<text text-anchor="start" x="772" y="-953.9" font-family="Arial" font-size="14.00" fill="#000000">website_meta_og_img </text>
<text text-anchor="start" x="915.9214" y="-953.9" font-family="Arial" font-size="14.00" fill="#666666">[varchar]</text>
<polygon fill="none" stroke="#000000" points="765,-912.5 765,-942.5 1124,-942.5 1124,-912.5 765,-912.5"/>
<text text-anchor="start" x="772" y="-923.9" font-family="Arial" font-size="14.00" fill="#000000">name </text>
<text text-anchor="start" x="810.899" y="-923.9" font-family="Arial" font-size="14.00" fill="#666666">[varchar]</text>
<polygon fill="none" stroke="#000000" points="765,-882.5 765,-912.5 1124,-912.5 1124,-882.5 765,-882.5"/>
<text text-anchor="start" x="772" y="-893.9" font-family="Arial" font-size="14.00" fill="#000000">parent_id </text>
<text text-anchor="start" x="834.244" y="-893.9" font-family="Arial" font-size="14.00" fill="#666666">[integer]</text>
<polygon fill="none" stroke="#000000" points="765,-852.5 765,-882.5 1124,-882.5 1124,-852.5 765,-852.5"/>
<text text-anchor="start" x="772" y="-863.9" font-family="Arial" font-size="14.00" fill="#000000">sequence </text>
<text text-anchor="start" x="836.5862" y="-863.9" font-family="Arial" font-size="14.00" fill="#666666">[integer]</text>
<polygon fill="none" stroke="#000000" points="765,-822.5 765,-852.5 1124,-852.5 1124,-822.5 765,-822.5"/>
<text text-anchor="start" x="772" y="-833.9" font-family="Arial" font-size="14.00" fill="#000000">create_uid </text>
<text text-anchor="start" x="841.244" y="-833.9" font-family="Arial" font-size="14.00" fill="#666666">[integer]</text>
<polygon fill="none" stroke="#000000" points="765,-792.5 765,-822.5 1124,-822.5 1124,-792.5 765,-792.5"/>
<text text-anchor="start" x="772" y="-803.9" font-family="Arial" font-size="14.00" fill="#000000">create_date </text>
<text text-anchor="start" x="849.8106" y="-803.9" font-family="Arial" font-size="14.00" fill="#666666">[timestamp without time zone]</text>
<polygon fill="none" stroke="#000000" points="765,-762.5 765,-792.5 1124,-792.5 1124,-762.5 765,-762.5"/>
<text text-anchor="start" x="772" y="-773.9" font-family="Arial" font-size="14.00" fill="#000000">write_uid </text>
<text text-anchor="start" x="831.892" y="-773.9" font-family="Arial" font-size="14.00" fill="#666666">[integer]</text>
<polygon fill="none" stroke="#000000" points="765,-732.5 765,-762.5 1124,-762.5 1124,-732.5 765,-732.5"/>
<text text-anchor="start" x="772" y="-743.9" font-family="Arial" font-size="14.00" fill="#000000">write_date </text>
<text text-anchor="start" x="840.4586" y="-743.9" font-family="Arial" font-size="14.00" fill="#666666">[timestamp without time zone]</text>
</g>
<!-- public.product_public_category_product_template_rel&#45;&gt;public.product_public_category -->
<g id="edge2" class="edge">
<title>public.product_public_category_product_template_rel:product_public_category_id&#45;&gt;public.product_public_category:id</title>
<path fill="none" stroke="#000000" d="M1006.1478,-1986.6487C1175.4968,-1955.9904 566.4719,-1107.5 765,-1107.5"/>
<polygon fill="#000000" stroke="#000000" points="1005.965,-1986.6639 995.6238,-1983.0158 1000.9825,-1987.082 996,-1987.5 996,-1987.5 996,-1987.5 1000.9825,-1987.082 996.3762,-1991.9842 1005.965,-1986.6639 1005.965,-1986.6639"/>
<text text-anchor="start" x="1003.0795" y="-1997.5" font-family="Arial" font-size="10.00" fill="#000000">FOREIGN KEY (product_public_category_id) REFERENCES product_public_category(id) ON DELETE CASCADE</text>
</g>
</g>
</svg>
