<?xml version="1.0" encoding="UTF-8" standalone="no"?>
<!DOCTYPE svg PUBLIC "-//W3C//DTD SVG 1.1//EN"
 "http://www.w3.org/Graphics/SVG/1.1/DTD/svg11.dtd">
<!-- Generated by graphviz version 2.40.1 (20161225.0304)
 -->
<!-- Title: public.ir_server_object_lines Pages: 1 -->
<svg width="1326pt" height="1642pt"
 viewBox="0.00 0.00 1326.00 1642.00" xmlns="http://www.w3.org/2000/svg" xmlns:xlink="http://www.w3.org/1999/xlink">
<g id="graph0" class="graph" transform="scale(1 1) rotate(0) translate(4 1638)">
<title>public.ir_server_object_lines</title>
<polygon fill="#ffffff" stroke="transparent" points="-4,4 -4,-1638 1322,-1638 1322,4 -4,4"/>
<!-- public.ir_server_object_lines -->
<g id="node1" class="node">
<title>public.ir_server_object_lines</title>
<polygon fill="#efefef" stroke="transparent" points="600,-1552.5 600,-1587.5 938,-1587.5 938,-1552.5 600,-1552.5"/>
<polygon fill="none" stroke="#000000" points="600,-1552.5 600,-1587.5 938,-1587.5 938,-1552.5 600,-1552.5"/>
<text text-anchor="start" x="606.8597" y="-1565.3" font-family="Arial Bold" font-size="18.00" fill="#000000">public.ir_server_object_lines</text>
<text text-anchor="start" x="833.8865" y="-1565.3" font-family="Arial" font-size="14.00" fill="#000000"> </text>
<text text-anchor="start" x="837.7771" y="-1565.3" font-family="Arial" font-size="14.00" fill="#666666">[BASE TABLE]</text>
<polygon fill="none" stroke="#000000" points="600,-1522.5 600,-1552.5 938,-1552.5 938,-1522.5 600,-1522.5"/>
<text text-anchor="start" x="607" y="-1533.9" font-family="Arial" font-size="14.00" fill="#000000">id </text>
<text text-anchor="start" x="621.7798" y="-1533.9" font-family="Arial" font-size="14.00" fill="#666666">[integer]</text>
<polygon fill="none" stroke="#000000" points="600,-1492.5 600,-1522.5 938,-1522.5 938,-1492.5 600,-1492.5"/>
<text text-anchor="start" x="607" y="-1503.9" font-family="Arial" font-size="14.00" fill="#000000">server_id </text>
<text text-anchor="start" x="668.4488" y="-1503.9" font-family="Arial" font-size="14.00" fill="#666666">[integer]</text>
<polygon fill="none" stroke="#000000" points="600,-1462.5 600,-1492.5 938,-1492.5 938,-1462.5 600,-1462.5"/>
<text text-anchor="start" x="607" y="-1473.9" font-family="Arial" font-size="14.00" fill="#000000">col1 </text>
<text text-anchor="start" x="636.5624" y="-1473.9" font-family="Arial" font-size="14.00" fill="#666666">[integer]</text>
<polygon fill="none" stroke="#000000" points="600,-1432.5 600,-1462.5 938,-1462.5 938,-1432.5 600,-1432.5"/>
<text text-anchor="start" x="607" y="-1443.9" font-family="Arial" font-size="14.00" fill="#000000">value </text>
<text text-anchor="start" x="644.345" y="-1443.9" font-family="Arial" font-size="14.00" fill="#666666">[text]</text>
<polygon fill="none" stroke="#000000" points="600,-1402.5 600,-1432.5 938,-1432.5 938,-1402.5 600,-1402.5"/>
<text text-anchor="start" x="607" y="-1413.9" font-family="Arial" font-size="14.00" fill="#000000">type </text>
<text text-anchor="start" x="637.3464" y="-1413.9" font-family="Arial" font-size="14.00" fill="#666666">[varchar]</text>
<polygon fill="none" stroke="#000000" points="600,-1372.5 600,-1402.5 938,-1402.5 938,-1372.5 600,-1372.5"/>
<text text-anchor="start" x="607" y="-1383.9" font-family="Arial" font-size="14.00" fill="#000000">create_uid </text>
<text text-anchor="start" x="676.244" y="-1383.9" font-family="Arial" font-size="14.00" fill="#666666">[integer]</text>
<polygon fill="none" stroke="#000000" points="600,-1342.5 600,-1372.5 938,-1372.5 938,-1342.5 600,-1342.5"/>
<text text-anchor="start" x="607" y="-1353.9" font-family="Arial" font-size="14.00" fill="#000000">create_date </text>
<text text-anchor="start" x="684.8106" y="-1353.9" font-family="Arial" font-size="14.00" fill="#666666">[timestamp without time zone]</text>
<polygon fill="none" stroke="#000000" points="600,-1312.5 600,-1342.5 938,-1342.5 938,-1312.5 600,-1312.5"/>
<text text-anchor="start" x="607" y="-1323.9" font-family="Arial" font-size="14.00" fill="#000000">write_uid </text>
<text text-anchor="start" x="666.892" y="-1323.9" font-family="Arial" font-size="14.00" fill="#666666">[integer]</text>
<polygon fill="none" stroke="#000000" points="600,-1282.5 600,-1312.5 938,-1312.5 938,-1282.5 600,-1282.5"/>
<text text-anchor="start" x="607" y="-1293.9" font-family="Arial" font-size="14.00" fill="#000000">write_date </text>
<text text-anchor="start" x="675.4586" y="-1293.9" font-family="Arial" font-size="14.00" fill="#666666">[timestamp without time zone]</text>
<polygon fill="none" stroke="#000000" stroke-width="3" points="598.5,-1281.5 598.5,-1589.5 939.5,-1589.5 939.5,-1281.5 598.5,-1281.5"/>
</g>
<!-- public.ir_act_server -->
<g id="node2" class="node">
<title>public.ir_act_server</title>
<polygon fill="#efefef" stroke="transparent" points="43,-1017.5 43,-1052.5 331,-1052.5 331,-1017.5 43,-1017.5"/>
<polygon fill="none" stroke="#000000" points="43,-1017.5 43,-1052.5 331,-1052.5 331,-1017.5 43,-1017.5"/>
<text text-anchor="start" x="60.3665" y="-1030.3" font-family="Arial Bold" font-size="18.00" fill="#000000">public.ir_act_server</text>
<text text-anchor="start" x="216.3797" y="-1030.3" font-family="Arial" font-size="14.00" fill="#000000"> </text>
<text text-anchor="start" x="220.2703" y="-1030.3" font-family="Arial" font-size="14.00" fill="#666666">[BASE TABLE]</text>
<polygon fill="none" stroke="#000000" points="43,-987.5 43,-1017.5 331,-1017.5 331,-987.5 43,-987.5"/>
<text text-anchor="start" x="50" y="-998.9" font-family="Arial" font-size="14.00" fill="#000000">id </text>
<text text-anchor="start" x="64.7798" y="-998.9" font-family="Arial" font-size="14.00" fill="#666666">[integer]</text>
<polygon fill="none" stroke="#000000" points="43,-957.5 43,-987.5 331,-987.5 331,-957.5 43,-957.5"/>
<text text-anchor="start" x="50" y="-968.9" font-family="Arial" font-size="14.00" fill="#000000">name </text>
<text text-anchor="start" x="88.899" y="-968.9" font-family="Arial" font-size="14.00" fill="#666666">[varchar]</text>
<polygon fill="none" stroke="#000000" points="43,-927.5 43,-957.5 331,-957.5 331,-927.5 43,-927.5"/>
<text text-anchor="start" x="50" y="-938.9" font-family="Arial" font-size="14.00" fill="#000000">type </text>
<text text-anchor="start" x="80.3464" y="-938.9" font-family="Arial" font-size="14.00" fill="#666666">[varchar]</text>
<polygon fill="none" stroke="#000000" points="43,-897.5 43,-927.5 331,-927.5 331,-897.5 43,-897.5"/>
<text text-anchor="start" x="50" y="-908.9" font-family="Arial" font-size="14.00" fill="#000000">help </text>
<text text-anchor="start" x="80.345" y="-908.9" font-family="Arial" font-size="14.00" fill="#666666">[text]</text>
<polygon fill="none" stroke="#000000" points="43,-867.5 43,-897.5 331,-897.5 331,-867.5 43,-867.5"/>
<text text-anchor="start" x="50" y="-878.9" font-family="Arial" font-size="14.00" fill="#000000">binding_model_id </text>
<text text-anchor="start" x="163.5862" y="-878.9" font-family="Arial" font-size="14.00" fill="#666666">[integer]</text>
<polygon fill="none" stroke="#000000" points="43,-837.5 43,-867.5 331,-867.5 331,-837.5 43,-837.5"/>
<text text-anchor="start" x="50" y="-848.9" font-family="Arial" font-size="14.00" fill="#000000">binding_type </text>
<text text-anchor="start" x="133.2552" y="-848.9" font-family="Arial" font-size="14.00" fill="#666666">[varchar]</text>
<polygon fill="none" stroke="#000000" points="43,-807.5 43,-837.5 331,-837.5 331,-807.5 43,-807.5"/>
<text text-anchor="start" x="50" y="-818.9" font-family="Arial" font-size="14.00" fill="#000000">create_uid </text>
<text text-anchor="start" x="119.244" y="-818.9" font-family="Arial" font-size="14.00" fill="#666666">[integer]</text>
<polygon fill="none" stroke="#000000" points="43,-777.5 43,-807.5 331,-807.5 331,-777.5 43,-777.5"/>
<text text-anchor="start" x="50" y="-788.9" font-family="Arial" font-size="14.00" fill="#000000">create_date </text>
<text text-anchor="start" x="127.8106" y="-788.9" font-family="Arial" font-size="14.00" fill="#666666">[timestamp without time zone]</text>
<polygon fill="none" stroke="#000000" points="43,-747.5 43,-777.5 331,-777.5 331,-747.5 43,-747.5"/>
<text text-anchor="start" x="50" y="-758.9" font-family="Arial" font-size="14.00" fill="#000000">write_uid </text>
<text text-anchor="start" x="109.892" y="-758.9" font-family="Arial" font-size="14.00" fill="#666666">[integer]</text>
<polygon fill="none" stroke="#000000" points="43,-717.5 43,-747.5 331,-747.5 331,-717.5 43,-717.5"/>
<text text-anchor="start" x="50" y="-728.9" font-family="Arial" font-size="14.00" fill="#000000">write_date </text>
<text text-anchor="start" x="118.4586" y="-728.9" font-family="Arial" font-size="14.00" fill="#666666">[timestamp without time zone]</text>
<polygon fill="none" stroke="#000000" points="43,-687.5 43,-717.5 331,-717.5 331,-687.5 43,-687.5"/>
<text text-anchor="start" x="50" y="-698.9" font-family="Arial" font-size="14.00" fill="#000000">usage </text>
<text text-anchor="start" x="92.021" y="-698.9" font-family="Arial" font-size="14.00" fill="#666666">[varchar]</text>
<polygon fill="none" stroke="#000000" points="43,-657.5 43,-687.5 331,-687.5 331,-657.5 43,-657.5"/>
<text text-anchor="start" x="50" y="-668.9" font-family="Arial" font-size="14.00" fill="#000000">state </text>
<text text-anchor="start" x="84.237" y="-668.9" font-family="Arial" font-size="14.00" fill="#666666">[varchar]</text>
<polygon fill="none" stroke="#000000" points="43,-627.5 43,-657.5 331,-657.5 331,-627.5 43,-627.5"/>
<text text-anchor="start" x="50" y="-638.9" font-family="Arial" font-size="14.00" fill="#000000">sequence </text>
<text text-anchor="start" x="114.5862" y="-638.9" font-family="Arial" font-size="14.00" fill="#666666">[integer]</text>
<polygon fill="none" stroke="#000000" points="43,-597.5 43,-627.5 331,-627.5 331,-597.5 43,-597.5"/>
<text text-anchor="start" x="50" y="-608.9" font-family="Arial" font-size="14.00" fill="#000000">model_id </text>
<text text-anchor="start" x="110.6774" y="-608.9" font-family="Arial" font-size="14.00" fill="#666666">[integer]</text>
<polygon fill="none" stroke="#000000" points="43,-567.5 43,-597.5 331,-597.5 331,-567.5 43,-567.5"/>
<text text-anchor="start" x="50" y="-578.9" font-family="Arial" font-size="14.00" fill="#000000">model_name </text>
<text text-anchor="start" x="134.7966" y="-578.9" font-family="Arial" font-size="14.00" fill="#666666">[varchar]</text>
<polygon fill="none" stroke="#000000" points="43,-537.5 43,-567.5 331,-567.5 331,-537.5 43,-537.5"/>
<text text-anchor="start" x="50" y="-548.9" font-family="Arial" font-size="14.00" fill="#000000">code </text>
<text text-anchor="start" x="84.2384" y="-548.9" font-family="Arial" font-size="14.00" fill="#666666">[text]</text>
<polygon fill="none" stroke="#000000" points="43,-507.5 43,-537.5 331,-537.5 331,-507.5 43,-507.5"/>
<text text-anchor="start" x="50" y="-518.9" font-family="Arial" font-size="14.00" fill="#000000">crud_model_id </text>
<text text-anchor="start" x="145.6858" y="-518.9" font-family="Arial" font-size="14.00" fill="#666666">[integer]</text>
<polygon fill="none" stroke="#000000" points="43,-477.5 43,-507.5 331,-507.5 331,-477.5 43,-477.5"/>
<text text-anchor="start" x="50" y="-488.9" font-family="Arial" font-size="14.00" fill="#000000">link_field_id </text>
<text text-anchor="start" x="127.0098" y="-488.9" font-family="Arial" font-size="14.00" fill="#666666">[integer]</text>
<polygon fill="none" stroke="#000000" points="43,-447.5 43,-477.5 331,-477.5 331,-447.5 43,-447.5"/>
<text text-anchor="start" x="50" y="-458.9" font-family="Arial" font-size="14.00" fill="#000000">template_id </text>
<text text-anchor="start" x="126.2412" y="-458.9" font-family="Arial" font-size="14.00" fill="#666666">[integer]</text>
<polygon fill="none" stroke="#000000" points="43,-417.5 43,-447.5 331,-447.5 331,-417.5 43,-417.5"/>
<text text-anchor="start" x="50" y="-428.9" font-family="Arial" font-size="14.00" fill="#000000">activity_type_id </text>
<text text-anchor="start" x="149.5778" y="-428.9" font-family="Arial" font-size="14.00" fill="#666666">[integer]</text>
<polygon fill="none" stroke="#000000" points="43,-387.5 43,-417.5 331,-417.5 331,-387.5 43,-387.5"/>
<text text-anchor="start" x="50" y="-398.9" font-family="Arial" font-size="14.00" fill="#000000">activity_summary </text>
<text text-anchor="start" x="161.9972" y="-398.9" font-family="Arial" font-size="14.00" fill="#666666">[varchar]</text>
<polygon fill="none" stroke="#000000" points="43,-357.5 43,-387.5 331,-387.5 331,-357.5 43,-357.5"/>
<text text-anchor="start" x="50" y="-368.9" font-family="Arial" font-size="14.00" fill="#000000">activity_note </text>
<text text-anchor="start" x="131.6886" y="-368.9" font-family="Arial" font-size="14.00" fill="#666666">[text]</text>
<polygon fill="none" stroke="#000000" points="43,-327.5 43,-357.5 331,-357.5 331,-327.5 43,-327.5"/>
<text text-anchor="start" x="50" y="-338.9" font-family="Arial" font-size="14.00" fill="#000000">activity_date_deadline_range </text>
<text text-anchor="start" x="235.9536" y="-338.9" font-family="Arial" font-size="14.00" fill="#666666">[integer]</text>
<polygon fill="none" stroke="#000000" points="43,-297.5 43,-327.5 331,-327.5 331,-297.5 43,-297.5"/>
<text text-anchor="start" x="49.6789" y="-308.9" font-family="Arial" font-size="14.00" fill="#000000">activity_date_deadline_range_type </text>
<text text-anchor="start" x="269.8709" y="-308.9" font-family="Arial" font-size="14.00" fill="#666666">[varchar]</text>
<polygon fill="none" stroke="#000000" points="43,-267.5 43,-297.5 331,-297.5 331,-267.5 43,-267.5"/>
<text text-anchor="start" x="50" y="-278.9" font-family="Arial" font-size="14.00" fill="#000000">activity_user_type </text>
<text text-anchor="start" x="165.9144" y="-278.9" font-family="Arial" font-size="14.00" fill="#666666">[varchar]</text>
<polygon fill="none" stroke="#000000" points="43,-237.5 43,-267.5 331,-267.5 331,-237.5 43,-237.5"/>
<text text-anchor="start" x="50" y="-248.9" font-family="Arial" font-size="14.00" fill="#000000">activity_user_id </text>
<text text-anchor="start" x="150.3478" y="-248.9" font-family="Arial" font-size="14.00" fill="#666666">[integer]</text>
<polygon fill="none" stroke="#000000" points="43,-207.5 43,-237.5 331,-237.5 331,-207.5 43,-207.5"/>
<text text-anchor="start" x="50" y="-218.9" font-family="Arial" font-size="14.00" fill="#000000">activity_user_field_name </text>
<text text-anchor="start" x="207.9186" y="-218.9" font-family="Arial" font-size="14.00" fill="#666666">[varchar]</text>
<polygon fill="none" stroke="#000000" points="43,-177.5 43,-207.5 331,-207.5 331,-177.5 43,-177.5"/>
<text text-anchor="start" x="50" y="-188.9" font-family="Arial" font-size="14.00" fill="#000000">website_path </text>
<text text-anchor="start" x="136.3632" y="-188.9" font-family="Arial" font-size="14.00" fill="#666666">[varchar]</text>
<polygon fill="none" stroke="#000000" points="43,-147.5 43,-177.5 331,-177.5 331,-147.5 43,-147.5"/>
<text text-anchor="start" x="50" y="-158.9" font-family="Arial" font-size="14.00" fill="#000000">website_published </text>
<text text-anchor="start" x="169.0336" y="-158.9" font-family="Arial" font-size="14.00" fill="#666666">[boolean]</text>
</g>
<!-- public.ir_server_object_lines&#45;&gt;public.ir_act_server -->
<g id="edge1" class="edge">
<title>public.ir_server_object_lines:server_id&#45;&gt;public.ir_act_server:id</title>
<path fill="none" stroke="#000000" d="M589.9652,-1507.3055C433.8919,-1501.1353 452.0628,-1349.1805 383,-1201 344.4736,-1118.3381 422.1991,-1002.5 331,-1002.5"/>
<polygon fill="#000000" stroke="#000000" points="590.0019,-1507.3061 599.9128,-1511.9992 595.0009,-1507.4031 600,-1507.5 600,-1507.5 600,-1507.5 595.0009,-1507.4031 600.0872,-1503.0008 590.0019,-1507.3061 590.0019,-1507.3061"/>
<text text-anchor="start" x="218.2225" y="-1517.5" font-family="Arial" font-size="10.00" fill="#000000">FOREIGN KEY (server_id) REFERENCES ir_act_server(id) ON DELETE CASCADE</text>
</g>
<!-- public.ir_model_fields -->
<g id="node3" class="node">
<title>public.ir_model_fields</title>
<polygon fill="#efefef" stroke="transparent" points="435,-1122.5 435,-1157.5 719,-1157.5 719,-1122.5 435,-1122.5"/>
<polygon fill="none" stroke="#000000" points="435,-1122.5 435,-1157.5 719,-1157.5 719,-1122.5 435,-1122.5"/>
<text text-anchor="start" x="441.8651" y="-1135.3" font-family="Arial Bold" font-size="18.00" fill="#000000">public.ir_model_fields</text>
<text text-anchor="start" x="614.8811" y="-1135.3" font-family="Arial" font-size="14.00" fill="#000000"> </text>
<text text-anchor="start" x="618.7717" y="-1135.3" font-family="Arial" font-size="14.00" fill="#666666">[BASE TABLE]</text>
<polygon fill="none" stroke="#000000" points="435,-1092.5 435,-1122.5 719,-1122.5 719,-1092.5 435,-1092.5"/>
<text text-anchor="start" x="442" y="-1103.9" font-family="Arial" font-size="14.00" fill="#000000">id </text>
<text text-anchor="start" x="456.7798" y="-1103.9" font-family="Arial" font-size="14.00" fill="#666666">[integer]</text>
<polygon fill="none" stroke="#000000" points="435,-1062.5 435,-1092.5 719,-1092.5 719,-1062.5 435,-1062.5"/>
<text text-anchor="start" x="442" y="-1073.9" font-family="Arial" font-size="14.00" fill="#000000">name </text>
<text text-anchor="start" x="480.899" y="-1073.9" font-family="Arial" font-size="14.00" fill="#666666">[varchar]</text>
<polygon fill="none" stroke="#000000" points="435,-1032.5 435,-1062.5 719,-1062.5 719,-1032.5 435,-1032.5"/>
<text text-anchor="start" x="442" y="-1043.9" font-family="Arial" font-size="14.00" fill="#000000">complete_name </text>
<text text-anchor="start" x="545.4698" y="-1043.9" font-family="Arial" font-size="14.00" fill="#666666">[varchar]</text>
<polygon fill="none" stroke="#000000" points="435,-1002.5 435,-1032.5 719,-1032.5 719,-1002.5 435,-1002.5"/>
<text text-anchor="start" x="442" y="-1013.9" font-family="Arial" font-size="14.00" fill="#000000">model </text>
<text text-anchor="start" x="484.0056" y="-1013.9" font-family="Arial" font-size="14.00" fill="#666666">[varchar]</text>
<polygon fill="none" stroke="#000000" points="435,-972.5 435,-1002.5 719,-1002.5 719,-972.5 435,-972.5"/>
<text text-anchor="start" x="442" y="-983.9" font-family="Arial" font-size="14.00" fill="#000000">relation </text>
<text text-anchor="start" x="491.7854" y="-983.9" font-family="Arial" font-size="14.00" fill="#666666">[varchar]</text>
<polygon fill="none" stroke="#000000" points="435,-942.5 435,-972.5 719,-972.5 719,-942.5 435,-942.5"/>
<text text-anchor="start" x="442" y="-953.9" font-family="Arial" font-size="14.00" fill="#000000">relation_field </text>
<text text-anchor="start" x="525.237" y="-953.9" font-family="Arial" font-size="14.00" fill="#666666">[varchar]</text>
<polygon fill="none" stroke="#000000" points="435,-912.5 435,-942.5 719,-942.5 719,-912.5 435,-912.5"/>
<text text-anchor="start" x="442" y="-923.9" font-family="Arial" font-size="14.00" fill="#000000">relation_field_id </text>
<text text-anchor="start" x="543.9088" y="-923.9" font-family="Arial" font-size="14.00" fill="#666666">[integer]</text>
<polygon fill="none" stroke="#000000" points="435,-882.5 435,-912.5 719,-912.5 719,-882.5 435,-882.5"/>
<text text-anchor="start" x="442" y="-893.9" font-family="Arial" font-size="14.00" fill="#000000">model_id </text>
<text text-anchor="start" x="502.6774" y="-893.9" font-family="Arial" font-size="14.00" fill="#666666">[integer]</text>
<polygon fill="none" stroke="#000000" points="435,-852.5 435,-882.5 719,-882.5 719,-852.5 435,-852.5"/>
<text text-anchor="start" x="442" y="-863.9" font-family="Arial" font-size="14.00" fill="#000000">field_description </text>
<text text-anchor="start" x="547.0196" y="-863.9" font-family="Arial" font-size="14.00" fill="#666666">[varchar]</text>
<polygon fill="none" stroke="#000000" points="435,-822.5 435,-852.5 719,-852.5 719,-822.5 435,-822.5"/>
<text text-anchor="start" x="442" y="-833.9" font-family="Arial" font-size="14.00" fill="#000000">help </text>
<text text-anchor="start" x="472.345" y="-833.9" font-family="Arial" font-size="14.00" fill="#666666">[text]</text>
<polygon fill="none" stroke="#000000" points="435,-792.5 435,-822.5 719,-822.5 719,-792.5 435,-792.5"/>
<text text-anchor="start" x="442" y="-803.9" font-family="Arial" font-size="14.00" fill="#000000">ttype </text>
<text text-anchor="start" x="476.237" y="-803.9" font-family="Arial" font-size="14.00" fill="#666666">[varchar]</text>
<polygon fill="none" stroke="#000000" points="435,-762.5 435,-792.5 719,-792.5 719,-762.5 435,-762.5"/>
<text text-anchor="start" x="442" y="-773.9" font-family="Arial" font-size="14.00" fill="#000000">selection </text>
<text text-anchor="start" x="501.1248" y="-773.9" font-family="Arial" font-size="14.00" fill="#666666">[varchar]</text>
<polygon fill="none" stroke="#000000" points="435,-732.5 435,-762.5 719,-762.5 719,-732.5 435,-732.5"/>
<text text-anchor="start" x="442" y="-743.9" font-family="Arial" font-size="14.00" fill="#000000">copied </text>
<text text-anchor="start" x="487.1276" y="-743.9" font-family="Arial" font-size="14.00" fill="#666666">[boolean]</text>
<polygon fill="none" stroke="#000000" points="435,-702.5 435,-732.5 719,-732.5 719,-702.5 435,-702.5"/>
<text text-anchor="start" x="442" y="-713.9" font-family="Arial" font-size="14.00" fill="#000000">related </text>
<text text-anchor="start" x="488.6788" y="-713.9" font-family="Arial" font-size="14.00" fill="#666666">[varchar]</text>
<polygon fill="none" stroke="#000000" points="435,-672.5 435,-702.5 719,-702.5 719,-672.5 435,-672.5"/>
<text text-anchor="start" x="442" y="-683.9" font-family="Arial" font-size="14.00" fill="#000000">related_field_id </text>
<text text-anchor="start" x="540.8022" y="-683.9" font-family="Arial" font-size="14.00" fill="#666666">[integer]</text>
<polygon fill="none" stroke="#000000" points="435,-642.5 435,-672.5 719,-672.5 719,-642.5 435,-642.5"/>
<text text-anchor="start" x="442" y="-653.9" font-family="Arial" font-size="14.00" fill="#000000">required </text>
<text text-anchor="start" x="497.2314" y="-653.9" font-family="Arial" font-size="14.00" fill="#666666">[boolean]</text>
<polygon fill="none" stroke="#000000" points="435,-612.5 435,-642.5 719,-642.5 719,-612.5 435,-612.5"/>
<text text-anchor="start" x="442" y="-623.9" font-family="Arial" font-size="14.00" fill="#000000">readonly </text>
<text text-anchor="start" x="499.5708" y="-623.9" font-family="Arial" font-size="14.00" fill="#666666">[boolean]</text>
<polygon fill="none" stroke="#000000" points="435,-582.5 435,-612.5 719,-612.5 719,-582.5 435,-582.5"/>
<text text-anchor="start" x="442" y="-593.9" font-family="Arial" font-size="14.00" fill="#000000">index </text>
<text text-anchor="start" x="479.345" y="-593.9" font-family="Arial" font-size="14.00" fill="#666666">[boolean]</text>
<polygon fill="none" stroke="#000000" points="435,-552.5 435,-582.5 719,-582.5 719,-552.5 435,-552.5"/>
<text text-anchor="start" x="442" y="-563.9" font-family="Arial" font-size="14.00" fill="#000000">translate </text>
<text text-anchor="start" x="499.5694" y="-563.9" font-family="Arial" font-size="14.00" fill="#666666">[boolean]</text>
<polygon fill="none" stroke="#000000" points="435,-522.5 435,-552.5 719,-552.5 719,-522.5 435,-522.5"/>
<text text-anchor="start" x="442" y="-533.9" font-family="Arial" font-size="14.00" fill="#000000">size </text>
<text text-anchor="start" x="470.7798" y="-533.9" font-family="Arial" font-size="14.00" fill="#666666">[integer]</text>
<polygon fill="none" stroke="#000000" points="435,-492.5 435,-522.5 719,-522.5 719,-492.5 435,-492.5"/>
<text text-anchor="start" x="442" y="-503.9" font-family="Arial" font-size="14.00" fill="#000000">state </text>
<text text-anchor="start" x="476.237" y="-503.9" font-family="Arial" font-size="14.00" fill="#666666">[varchar]</text>
<polygon fill="none" stroke="#000000" points="435,-462.5 435,-492.5 719,-492.5 719,-462.5 435,-462.5"/>
<text text-anchor="start" x="442" y="-473.9" font-family="Arial" font-size="14.00" fill="#000000">on_delete </text>
<text text-anchor="start" x="507.366" y="-473.9" font-family="Arial" font-size="14.00" fill="#666666">[varchar]</text>
<polygon fill="none" stroke="#000000" points="435,-432.5 435,-462.5 719,-462.5 719,-432.5 435,-432.5"/>
<text text-anchor="start" x="442" y="-443.9" font-family="Arial" font-size="14.00" fill="#000000">domain </text>
<text text-anchor="start" x="491.7882" y="-443.9" font-family="Arial" font-size="14.00" fill="#666666">[varchar]</text>
<polygon fill="none" stroke="#000000" points="435,-402.5 435,-432.5 719,-432.5 719,-402.5 435,-402.5"/>
<text text-anchor="start" x="442" y="-413.9" font-family="Arial" font-size="14.00" fill="#000000">selectable </text>
<text text-anchor="start" x="508.9074" y="-413.9" font-family="Arial" font-size="14.00" fill="#666666">[boolean]</text>
<polygon fill="none" stroke="#000000" points="435,-372.5 435,-402.5 719,-402.5 719,-372.5 435,-372.5"/>
<text text-anchor="start" x="442" y="-383.9" font-family="Arial" font-size="14.00" fill="#000000">relation_table </text>
<text text-anchor="start" x="529.913" y="-383.9" font-family="Arial" font-size="14.00" fill="#666666">[varchar]</text>
<polygon fill="none" stroke="#000000" points="435,-342.5 435,-372.5 719,-372.5 719,-342.5 435,-342.5"/>
<text text-anchor="start" x="442" y="-353.9" font-family="Arial" font-size="14.00" fill="#000000">column1 </text>
<text text-anchor="start" x="498.7882" y="-353.9" font-family="Arial" font-size="14.00" fill="#666666">[varchar]</text>
<polygon fill="none" stroke="#000000" points="435,-312.5 435,-342.5 719,-342.5 719,-312.5 435,-312.5"/>
<text text-anchor="start" x="442" y="-323.9" font-family="Arial" font-size="14.00" fill="#000000">column2 </text>
<text text-anchor="start" x="498.7882" y="-323.9" font-family="Arial" font-size="14.00" fill="#666666">[varchar]</text>
<polygon fill="none" stroke="#000000" points="435,-282.5 435,-312.5 719,-312.5 719,-282.5 435,-282.5"/>
<text text-anchor="start" x="442" y="-293.9" font-family="Arial" font-size="14.00" fill="#000000">compute </text>
<text text-anchor="start" x="499.5722" y="-293.9" font-family="Arial" font-size="14.00" fill="#666666">[text]</text>
<polygon fill="none" stroke="#000000" points="435,-252.5 435,-282.5 719,-282.5 719,-252.5 435,-252.5"/>
<text text-anchor="start" x="442" y="-263.9" font-family="Arial" font-size="14.00" fill="#000000">depends </text>
<text text-anchor="start" x="499.5862" y="-263.9" font-family="Arial" font-size="14.00" fill="#666666">[varchar]</text>
<polygon fill="none" stroke="#000000" points="435,-222.5 435,-252.5 719,-252.5 719,-222.5 435,-222.5"/>
<text text-anchor="start" x="442" y="-233.9" font-family="Arial" font-size="14.00" fill="#000000">store </text>
<text text-anchor="start" x="477.007" y="-233.9" font-family="Arial" font-size="14.00" fill="#666666">[boolean]</text>
<polygon fill="none" stroke="#000000" points="435,-192.5 435,-222.5 719,-222.5 719,-192.5 435,-192.5"/>
<text text-anchor="start" x="442" y="-203.9" font-family="Arial" font-size="14.00" fill="#000000">create_uid </text>
<text text-anchor="start" x="511.244" y="-203.9" font-family="Arial" font-size="14.00" fill="#666666">[integer]</text>
<polygon fill="none" stroke="#000000" points="435,-162.5 435,-192.5 719,-192.5 719,-162.5 435,-162.5"/>
<text text-anchor="start" x="442" y="-173.9" font-family="Arial" font-size="14.00" fill="#000000">create_date </text>
<text text-anchor="start" x="519.8106" y="-173.9" font-family="Arial" font-size="14.00" fill="#666666">[timestamp without time zone]</text>
<polygon fill="none" stroke="#000000" points="435,-132.5 435,-162.5 719,-162.5 719,-132.5 435,-132.5"/>
<text text-anchor="start" x="442" y="-143.9" font-family="Arial" font-size="14.00" fill="#000000">write_uid </text>
<text text-anchor="start" x="501.892" y="-143.9" font-family="Arial" font-size="14.00" fill="#666666">[integer]</text>
<polygon fill="none" stroke="#000000" points="435,-102.5 435,-132.5 719,-132.5 719,-102.5 435,-102.5"/>
<text text-anchor="start" x="442" y="-113.9" font-family="Arial" font-size="14.00" fill="#000000">write_date </text>
<text text-anchor="start" x="510.4586" y="-113.9" font-family="Arial" font-size="14.00" fill="#666666">[timestamp without time zone]</text>
<polygon fill="none" stroke="#000000" points="435,-72.5 435,-102.5 719,-102.5 719,-72.5 435,-72.5"/>
<text text-anchor="start" x="442" y="-83.9" font-family="Arial" font-size="14.00" fill="#000000">track_visibility </text>
<text text-anchor="start" x="532.2132" y="-83.9" font-family="Arial" font-size="14.00" fill="#666666">[varchar]</text>
<polygon fill="none" stroke="#000000" points="435,-42.5 435,-72.5 719,-72.5 719,-42.5 435,-42.5"/>
<text text-anchor="start" x="442" y="-53.9" font-family="Arial" font-size="14.00" fill="#000000">website_form_blacklisted </text>
<text text-anchor="start" x="602.2426" y="-53.9" font-family="Arial" font-size="14.00" fill="#666666">[boolean]</text>
</g>
<!-- public.ir_server_object_lines&#45;&gt;public.ir_model_fields -->
<g id="edge2" class="edge">
<title>public.ir_server_object_lines:col1&#45;&gt;public.ir_model_fields:id</title>
<path fill="none" stroke="#000000" d="M589.8445,-1476.9966C496.0013,-1467.3048 538.4091,-1319.9801 600,-1237 632.9328,-1192.6303 686.0672,-1245.3697 719,-1201 743.7672,-1167.6316 760.5556,-1107.5 719,-1107.5"/>
<polygon fill="#000000" stroke="#000000" points="590.0123,-1477.0049 599.7772,-1481.9945 595.0061,-1477.2524 600,-1477.5 600,-1477.5 600,-1477.5 595.0061,-1477.2524 600.2228,-1473.0055 590.0123,-1477.0049 590.0123,-1477.0049"/>
<text text-anchor="start" x="232.163" y="-1487.5" font-family="Arial" font-size="10.00" fill="#000000">FOREIGN KEY (col1) REFERENCES ir_model_fields(id) ON DELETE SET NULL</text>
</g>
<!-- public.res_users -->
<g id="node4" class="node">
<title>public.res_users</title>
<polygon fill="#efefef" stroke="transparent" points="823,-912.5 823,-947.5 1099,-947.5 1099,-912.5 823,-912.5"/>
<polygon fill="none" stroke="#000000" points="823,-912.5 823,-947.5 1099,-947.5 1099,-912.5 823,-912.5"/>
<text text-anchor="start" x="846.8639" y="-925.3" font-family="Arial Bold" font-size="18.00" fill="#000000">public.res_users</text>
<text text-anchor="start" x="977.8823" y="-925.3" font-family="Arial" font-size="14.00" fill="#000000"> </text>
<text text-anchor="start" x="981.7729" y="-925.3" font-family="Arial" font-size="14.00" fill="#666666">[BASE TABLE]</text>
<polygon fill="none" stroke="#000000" points="823,-882.5 823,-912.5 1099,-912.5 1099,-882.5 823,-882.5"/>
<text text-anchor="start" x="830" y="-893.9" font-family="Arial" font-size="14.00" fill="#000000">id </text>
<text text-anchor="start" x="844.7798" y="-893.9" font-family="Arial" font-size="14.00" fill="#666666">[integer]</text>
<polygon fill="none" stroke="#000000" points="823,-852.5 823,-882.5 1099,-882.5 1099,-852.5 823,-852.5"/>
<text text-anchor="start" x="830" y="-863.9" font-family="Arial" font-size="14.00" fill="#000000">active </text>
<text text-anchor="start" x="870.453" y="-863.9" font-family="Arial" font-size="14.00" fill="#666666">[boolean]</text>
<polygon fill="none" stroke="#000000" points="823,-822.5 823,-852.5 1099,-852.5 1099,-822.5 823,-822.5"/>
<text text-anchor="start" x="830" y="-833.9" font-family="Arial" font-size="14.00" fill="#000000">login </text>
<text text-anchor="start" x="863.4516" y="-833.9" font-family="Arial" font-size="14.00" fill="#666666">[varchar]</text>
<polygon fill="none" stroke="#000000" points="823,-792.5 823,-822.5 1099,-822.5 1099,-792.5 823,-792.5"/>
<text text-anchor="start" x="830" y="-803.9" font-family="Arial" font-size="14.00" fill="#000000">password </text>
<text text-anchor="start" x="893.7882" y="-803.9" font-family="Arial" font-size="14.00" fill="#666666">[varchar]</text>
<polygon fill="none" stroke="#000000" points="823,-762.5 823,-792.5 1099,-792.5 1099,-762.5 823,-762.5"/>
<text text-anchor="start" x="830" y="-773.9" font-family="Arial" font-size="14.00" fill="#000000">company_id </text>
<text text-anchor="start" x="909.3534" y="-773.9" font-family="Arial" font-size="14.00" fill="#666666">[integer]</text>
<polygon fill="none" stroke="#000000" points="823,-732.5 823,-762.5 1099,-762.5 1099,-732.5 823,-732.5"/>
<text text-anchor="start" x="830" y="-743.9" font-family="Arial" font-size="14.00" fill="#000000">partner_id </text>
<text text-anchor="start" x="896.9046" y="-743.9" font-family="Arial" font-size="14.00" fill="#666666">[integer]</text>
<polygon fill="none" stroke="#000000" points="823,-702.5 823,-732.5 1099,-732.5 1099,-702.5 823,-702.5"/>
<text text-anchor="start" x="829.5246" y="-713.9" font-family="Arial" font-size="14.00" fill="#000000">create_date </text>
<text text-anchor="start" x="907.3352" y="-713.9" font-family="Arial" font-size="14.00" fill="#666666">[timestamp without time zone]</text>
<polygon fill="none" stroke="#000000" points="823,-672.5 823,-702.5 1099,-702.5 1099,-672.5 823,-672.5"/>
<text text-anchor="start" x="830" y="-683.9" font-family="Arial" font-size="14.00" fill="#000000">signature </text>
<text text-anchor="start" x="891.4614" y="-683.9" font-family="Arial" font-size="14.00" fill="#666666">[text]</text>
<polygon fill="none" stroke="#000000" points="823,-642.5 823,-672.5 1099,-672.5 1099,-642.5 823,-642.5"/>
<text text-anchor="start" x="830" y="-653.9" font-family="Arial" font-size="14.00" fill="#000000">action_id </text>
<text text-anchor="start" x="889.9074" y="-653.9" font-family="Arial" font-size="14.00" fill="#666666">[integer]</text>
<polygon fill="none" stroke="#000000" points="823,-612.5 823,-642.5 1099,-642.5 1099,-612.5 823,-612.5"/>
<text text-anchor="start" x="830" y="-623.9" font-family="Arial" font-size="14.00" fill="#000000">share </text>
<text text-anchor="start" x="868.899" y="-623.9" font-family="Arial" font-size="14.00" fill="#666666">[boolean]</text>
<polygon fill="none" stroke="#000000" points="823,-582.5 823,-612.5 1099,-612.5 1099,-582.5 823,-582.5"/>
<text text-anchor="start" x="830" y="-593.9" font-family="Arial" font-size="14.00" fill="#000000">create_uid </text>
<text text-anchor="start" x="899.244" y="-593.9" font-family="Arial" font-size="14.00" fill="#666666">[integer]</text>
<polygon fill="none" stroke="#000000" points="823,-552.5 823,-582.5 1099,-582.5 1099,-552.5 823,-552.5"/>
<text text-anchor="start" x="830" y="-563.9" font-family="Arial" font-size="14.00" fill="#000000">write_uid </text>
<text text-anchor="start" x="889.892" y="-563.9" font-family="Arial" font-size="14.00" fill="#666666">[integer]</text>
<polygon fill="none" stroke="#000000" points="823,-522.5 823,-552.5 1099,-552.5 1099,-522.5 823,-522.5"/>
<text text-anchor="start" x="830" y="-533.9" font-family="Arial" font-size="14.00" fill="#000000">write_date </text>
<text text-anchor="start" x="898.4586" y="-533.9" font-family="Arial" font-size="14.00" fill="#666666">[timestamp without time zone]</text>
<polygon fill="none" stroke="#000000" points="823,-492.5 823,-522.5 1099,-522.5 1099,-492.5 823,-492.5"/>
<text text-anchor="start" x="830" y="-503.9" font-family="Arial" font-size="14.00" fill="#000000">alias_id </text>
<text text-anchor="start" x="881.3408" y="-503.9" font-family="Arial" font-size="14.00" fill="#666666">[integer]</text>
<polygon fill="none" stroke="#000000" points="823,-462.5 823,-492.5 1099,-492.5 1099,-462.5 823,-462.5"/>
<text text-anchor="start" x="830" y="-473.9" font-family="Arial" font-size="14.00" fill="#000000">notification_type </text>
<text text-anchor="start" x="935.0336" y="-473.9" font-family="Arial" font-size="14.00" fill="#666666">[varchar]</text>
<polygon fill="none" stroke="#000000" points="823,-432.5 823,-462.5 1099,-462.5 1099,-432.5 823,-432.5"/>
<text text-anchor="start" x="830" y="-443.9" font-family="Arial" font-size="14.00" fill="#000000">odoobot_state </text>
<text text-anchor="start" x="922.6058" y="-443.9" font-family="Arial" font-size="14.00" fill="#666666">[varchar]</text>
<polygon fill="none" stroke="#000000" points="823,-402.5 823,-432.5 1099,-432.5 1099,-402.5 823,-402.5"/>
<text text-anchor="start" x="830" y="-413.9" font-family="Arial" font-size="14.00" fill="#000000">sale_team_id </text>
<text text-anchor="start" x="917.1332" y="-413.9" font-family="Arial" font-size="14.00" fill="#666666">[integer]</text>
<polygon fill="none" stroke="#000000" points="823,-372.5 823,-402.5 1099,-402.5 1099,-372.5 823,-372.5"/>
<text text-anchor="start" x="830" y="-383.9" font-family="Arial" font-size="14.00" fill="#000000">target_sales_won </text>
<text text-anchor="start" x="943.589" y="-383.9" font-family="Arial" font-size="14.00" fill="#666666">[integer]</text>
<polygon fill="none" stroke="#000000" points="823,-342.5 823,-372.5 1099,-372.5 1099,-342.5 823,-342.5"/>
<text text-anchor="start" x="830" y="-353.9" font-family="Arial" font-size="14.00" fill="#000000">target_sales_done </text>
<text text-anchor="start" x="949.0476" y="-353.9" font-family="Arial" font-size="14.00" fill="#666666">[integer]</text>
<polygon fill="none" stroke="#000000" points="823,-312.5 823,-342.5 1099,-342.5 1099,-312.5 823,-312.5"/>
<text text-anchor="start" x="830" y="-323.9" font-family="Arial" font-size="14.00" fill="#000000">website_id </text>
<text text-anchor="start" x="900.014" y="-323.9" font-family="Arial" font-size="14.00" fill="#666666">[integer]</text>
<polygon fill="none" stroke="#000000" points="823,-282.5 823,-312.5 1099,-312.5 1099,-282.5 823,-282.5"/>
<text text-anchor="start" x="830" y="-293.9" font-family="Arial" font-size="14.00" fill="#000000">target_sales_invoiced </text>
<text text-anchor="start" x="969.2608" y="-293.9" font-family="Arial" font-size="14.00" fill="#666666">[integer]</text>
<polygon fill="none" stroke="#000000" points="823,-252.5 823,-282.5 1099,-282.5 1099,-252.5 823,-252.5"/>
<text text-anchor="start" x="830" y="-263.9" font-family="Arial" font-size="14.00" fill="#000000">pos_security_pin </text>
<text text-anchor="start" x="938.9158" y="-263.9" font-family="Arial" font-size="14.00" fill="#666666">[varchar(32)]</text>
</g>
<!-- public.ir_server_object_lines&#45;&gt;public.res_users -->
<g id="edge3" class="edge">
<title>public.ir_server_object_lines:create_uid&#45;&gt;public.res_users:id</title>
<path fill="none" stroke="#000000" d="M948.2465,-1386.6991C999.0767,-1377.9119 951.687,-1298.598 938,-1237 911.8212,-1119.1832 849.1788,-1108.8168 823,-991 813.9862,-950.4338 781.4444,-897.5 823,-897.5"/>
<polygon fill="#000000" stroke="#000000" points="947.9696,-1386.7206 937.6493,-1383.0137 942.9848,-1387.1103 938,-1387.5 938,-1387.5 938,-1387.5 942.9848,-1387.1103 938.3507,-1391.9863 947.9696,-1386.7206 947.9696,-1386.7206"/>
<text text-anchor="start" x="944.657" y="-1397.5" font-family="Arial" font-size="10.00" fill="#000000">FOREIGN KEY (create_uid) REFERENCES res_users(id) ON DELETE SET NULL</text>
</g>
<!-- public.ir_server_object_lines&#45;&gt;public.res_users -->
<g id="edge4" class="edge">
<title>public.ir_server_object_lines:write_uid&#45;&gt;public.res_users:id</title>
<path fill="none" stroke="#000000" d="M948.0367,-1327.084C1117.6075,-1312.1032 628.7463,-897.5 823,-897.5"/>
<polygon fill="#000000" stroke="#000000" points="947.9914,-1327.0858 937.8136,-1323.0039 942.9957,-1327.2929 938,-1327.5 938,-1327.5 938,-1327.5 942.9957,-1327.2929 938.1864,-1331.9961 947.9914,-1327.0858 947.9914,-1327.0858"/>
<text text-anchor="start" x="944.997" y="-1337.5" font-family="Arial" font-size="10.00" fill="#000000">FOREIGN KEY (write_uid) REFERENCES res_users(id) ON DELETE SET NULL</text>
</g>
</g>
</svg>
