<?xml version="1.0" encoding="UTF-8" standalone="no"?>
<!DOCTYPE svg PUBLIC "-//W3C//DTD SVG 1.1//EN"
 "http://www.w3.org/Graphics/SVG/1.1/DTD/svg11.dtd">
<!-- Generated by graphviz version 2.40.1 (20161225.0304)
 -->
<!-- Title: addresses Pages: 1 -->
<svg width="766pt" height="1859pt"
 viewBox="0.00 0.00 766.00 1859.00" xmlns="http://www.w3.org/2000/svg" xmlns:xlink="http://www.w3.org/1999/xlink">
<g id="graph0" class="graph" transform="scale(1 1) rotate(0) translate(4 1855)">
<title>addresses</title>
<polygon fill="#ffffff" stroke="transparent" points="-4,4 -4,-1855 762,-1855 762,4 -4,4"/>
<!-- addresses -->
<g id="node1" class="node">
<title>addresses</title>
<polygon fill="#efefef" stroke="transparent" points="269,-1042.5 269,-1077.5 471,-1077.5 471,-1042.5 269,-1042.5"/>
<polygon fill="none" stroke="#000000" points="269,-1042.5 269,-1077.5 471,-1077.5 471,-1042.5 269,-1042.5"/>
<text text-anchor="start" x="279.8615" y="-1055.3" font-family="Arial Bold" font-size="18.00" fill="#000000">addresses</text>
<text text-anchor="start" x="362.8847" y="-1055.3" font-family="Arial" font-size="14.00" fill="#000000"> </text>
<text text-anchor="start" x="366.7753" y="-1055.3" font-family="Arial" font-size="14.00" fill="#666666">[BASE TABLE]</text>
<polygon fill="none" stroke="#000000" points="269,-1012.5 269,-1042.5 471,-1042.5 471,-1012.5 269,-1012.5"/>
<text text-anchor="start" x="276" y="-1023.9" font-family="Arial" font-size="14.00" fill="#000000">id </text>
<text text-anchor="start" x="290.7798" y="-1023.9" font-family="Arial" font-size="14.00" fill="#666666">[int(10) unsigned]</text>
<polygon fill="none" stroke="#000000" points="269,-982.5 269,-1012.5 471,-1012.5 471,-982.5 269,-982.5"/>
<text text-anchor="start" x="276" y="-993.9" font-family="Arial" font-size="14.00" fill="#000000">alias </text>
<text text-anchor="start" x="308.669" y="-993.9" font-family="Arial" font-size="14.00" fill="#666666">[varchar(255)]</text>
<polygon fill="none" stroke="#000000" points="269,-952.5 269,-982.5 471,-982.5 471,-952.5 269,-952.5"/>
<text text-anchor="start" x="276" y="-963.9" font-family="Arial" font-size="14.00" fill="#000000">address_1 </text>
<text text-anchor="start" x="345.2468" y="-963.9" font-family="Arial" font-size="14.00" fill="#666666">[varchar(255)]</text>
<polygon fill="none" stroke="#000000" points="269,-922.5 269,-952.5 471,-952.5 471,-922.5 269,-922.5"/>
<text text-anchor="start" x="276" y="-933.9" font-family="Arial" font-size="14.00" fill="#000000">address_2 </text>
<text text-anchor="start" x="345.2468" y="-933.9" font-family="Arial" font-size="14.00" fill="#666666">[varchar(255)]</text>
<polygon fill="none" stroke="#000000" points="269,-892.5 269,-922.5 471,-922.5 471,-892.5 269,-892.5"/>
<text text-anchor="start" x="276" y="-903.9" font-family="Arial" font-size="14.00" fill="#000000">zip </text>
<text text-anchor="start" x="297.7798" y="-903.9" font-family="Arial" font-size="14.00" fill="#666666">[varchar(255)]</text>
<polygon fill="none" stroke="#000000" points="269,-862.5 269,-892.5 471,-892.5 471,-862.5 269,-862.5"/>
<text text-anchor="start" x="276" y="-873.9" font-family="Arial" font-size="14.00" fill="#000000">state_code </text>
<text text-anchor="start" x="348.3674" y="-873.9" font-family="Arial" font-size="14.00" fill="#666666">[varchar(255)]</text>
<polygon fill="none" stroke="#000000" points="269,-832.5 269,-862.5 471,-862.5 471,-832.5 269,-832.5"/>
<text text-anchor="start" x="276" y="-843.9" font-family="Arial" font-size="14.00" fill="#000000">city </text>
<text text-anchor="start" x="300.8878" y="-843.9" font-family="Arial" font-size="14.00" fill="#666666">[varchar(255)]</text>
<polygon fill="none" stroke="#000000" points="269,-802.5 269,-832.5 471,-832.5 471,-802.5 269,-802.5"/>
<text text-anchor="start" x="276" y="-813.9" font-family="Arial" font-size="14.00" fill="#000000">province_id </text>
<text text-anchor="start" x="351.46" y="-813.9" font-family="Arial" font-size="14.00" fill="#666666">[int(11)]</text>
<polygon fill="none" stroke="#000000" points="269,-772.5 269,-802.5 471,-802.5 471,-772.5 269,-772.5"/>
<text text-anchor="start" x="276" y="-783.9" font-family="Arial" font-size="14.00" fill="#000000">country_id </text>
<text text-anchor="start" x="344.4614" y="-783.9" font-family="Arial" font-size="14.00" fill="#666666">[int(10) unsigned]</text>
<polygon fill="none" stroke="#000000" points="269,-742.5 269,-772.5 471,-772.5 471,-742.5 269,-742.5"/>
<text text-anchor="start" x="275.8689" y="-753.9" font-family="Arial" font-size="14.00" fill="#000000">customer_id </text>
<text text-anchor="start" x="355.9909" y="-753.9" font-family="Arial" font-size="14.00" fill="#666666">[int(10) unsigned]</text>
<polygon fill="none" stroke="#000000" points="269,-712.5 269,-742.5 471,-742.5 471,-712.5 269,-712.5"/>
<text text-anchor="start" x="276" y="-723.9" font-family="Arial" font-size="14.00" fill="#000000">status </text>
<text text-anchor="start" x="317.237" y="-723.9" font-family="Arial" font-size="14.00" fill="#666666">[int(11)]</text>
<polygon fill="none" stroke="#000000" points="269,-682.5 269,-712.5 471,-712.5 471,-682.5 269,-682.5"/>
<text text-anchor="start" x="276" y="-693.9" font-family="Arial" font-size="14.00" fill="#000000">phone </text>
<text text-anchor="start" x="318.8036" y="-693.9" font-family="Arial" font-size="14.00" fill="#666666">[varchar(255)]</text>
<polygon fill="none" stroke="#000000" points="269,-652.5 269,-682.5 471,-682.5 471,-652.5 269,-652.5"/>
<text text-anchor="start" x="276" y="-663.9" font-family="Arial" font-size="14.00" fill="#000000">deleted_at </text>
<text text-anchor="start" x="345.2566" y="-663.9" font-family="Arial" font-size="14.00" fill="#666666">[timestamp]</text>
<polygon fill="none" stroke="#000000" points="269,-622.5 269,-652.5 471,-652.5 471,-622.5 269,-622.5"/>
<text text-anchor="start" x="276" y="-633.9" font-family="Arial" font-size="14.00" fill="#000000">created_at </text>
<text text-anchor="start" x="346.028" y="-633.9" font-family="Arial" font-size="14.00" fill="#666666">[timestamp]</text>
<polygon fill="none" stroke="#000000" points="269,-592.5 269,-622.5 471,-622.5 471,-592.5 269,-592.5"/>
<text text-anchor="start" x="276" y="-603.9" font-family="Arial" font-size="14.00" fill="#000000">updated_at </text>
<text text-anchor="start" x="349.9326" y="-603.9" font-family="Arial" font-size="14.00" fill="#666666">[timestamp]</text>
<polygon fill="none" stroke="#000000" stroke-width="3" points="267.5,-591.5 267.5,-1079.5 472.5,-1079.5 472.5,-591.5 267.5,-591.5"/>
</g>
<!-- countries -->
<g id="node3" class="node">
<title>countries</title>
<polygon fill="#efefef" stroke="transparent" points="128,-372.5 128,-407.5 312,-407.5 312,-372.5 128,-372.5"/>
<polygon fill="none" stroke="#000000" points="128,-372.5 128,-407.5 312,-407.5 312,-372.5 128,-372.5"/>
<text text-anchor="start" x="134.8664" y="-385.3" font-family="Arial Bold" font-size="18.00" fill="#000000">countries</text>
<text text-anchor="start" x="207.8798" y="-385.3" font-family="Arial" font-size="14.00" fill="#000000"> </text>
<text text-anchor="start" x="211.7704" y="-385.3" font-family="Arial" font-size="14.00" fill="#666666">[BASE TABLE]</text>
<polygon fill="none" stroke="#000000" points="128,-342.5 128,-372.5 312,-372.5 312,-342.5 128,-342.5"/>
<text text-anchor="start" x="135" y="-353.9" font-family="Arial" font-size="14.00" fill="#000000">id </text>
<text text-anchor="start" x="149.7798" y="-353.9" font-family="Arial" font-size="14.00" fill="#666666">[int(10) unsigned]</text>
<polygon fill="none" stroke="#000000" points="128,-312.5 128,-342.5 312,-342.5 312,-312.5 128,-312.5"/>
<text text-anchor="start" x="135" y="-323.9" font-family="Arial" font-size="14.00" fill="#000000">name </text>
<text text-anchor="start" x="173.899" y="-323.9" font-family="Arial" font-size="14.00" fill="#666666">[varchar(255)]</text>
<polygon fill="none" stroke="#000000" points="128,-282.5 128,-312.5 312,-312.5 312,-282.5 128,-282.5"/>
<text text-anchor="start" x="135" y="-293.9" font-family="Arial" font-size="14.00" fill="#000000">iso </text>
<text text-anchor="start" x="156.7798" y="-293.9" font-family="Arial" font-size="14.00" fill="#666666">[varchar(255)]</text>
<polygon fill="none" stroke="#000000" points="128,-252.5 128,-282.5 312,-282.5 312,-252.5 128,-252.5"/>
<text text-anchor="start" x="135" y="-263.9" font-family="Arial" font-size="14.00" fill="#000000">iso3 </text>
<text text-anchor="start" x="164.5624" y="-263.9" font-family="Arial" font-size="14.00" fill="#666666">[varchar(255)]</text>
<polygon fill="none" stroke="#000000" points="128,-222.5 128,-252.5 312,-252.5 312,-222.5 128,-222.5"/>
<text text-anchor="start" x="135" y="-233.9" font-family="Arial" font-size="14.00" fill="#000000">numcode </text>
<text text-anchor="start" x="196.4642" y="-233.9" font-family="Arial" font-size="14.00" fill="#666666">[int(11)]</text>
<polygon fill="none" stroke="#000000" points="128,-192.5 128,-222.5 312,-222.5 312,-192.5 128,-192.5"/>
<text text-anchor="start" x="135" y="-203.9" font-family="Arial" font-size="14.00" fill="#000000">phonecode </text>
<text text-anchor="start" x="208.1514" y="-203.9" font-family="Arial" font-size="14.00" fill="#666666">[int(11)]</text>
<polygon fill="none" stroke="#000000" points="128,-162.5 128,-192.5 312,-192.5 312,-162.5 128,-162.5"/>
<text text-anchor="start" x="135" y="-173.9" font-family="Arial" font-size="14.00" fill="#000000">status </text>
<text text-anchor="start" x="176.237" y="-173.9" font-family="Arial" font-size="14.00" fill="#666666">[int(11)]</text>
<polygon fill="none" stroke="#000000" points="128,-132.5 128,-162.5 312,-162.5 312,-132.5 128,-132.5"/>
<text text-anchor="start" x="135" y="-143.9" font-family="Arial" font-size="14.00" fill="#000000">created_at </text>
<text text-anchor="start" x="205.028" y="-143.9" font-family="Arial" font-size="14.00" fill="#666666">[timestamp]</text>
<polygon fill="none" stroke="#000000" points="128,-102.5 128,-132.5 312,-132.5 312,-102.5 128,-102.5"/>
<text text-anchor="start" x="135" y="-113.9" font-family="Arial" font-size="14.00" fill="#000000">updated_at </text>
<text text-anchor="start" x="208.9326" y="-113.9" font-family="Arial" font-size="14.00" fill="#666666">[timestamp]</text>
</g>
<!-- addresses&#45;&gt;countries -->
<g id="edge2" class="edge">
<title>addresses:country_id&#45;&gt;countries:id</title>
<path fill="none" stroke="#000000" d="M258.9767,-787.0564C167.6571,-778.5053 247.4012,-648.0575 269,-547 278.7714,-501.2813 302.2286,-496.7187 312,-451 320.6854,-410.3622 353.5556,-357.5 312,-357.5"/>
<polygon fill="#000000" stroke="#000000" points="259.0098,-787.0578 268.801,-791.9956 264.0049,-787.2789 269,-787.5 269,-787.5 269,-787.5 264.0049,-787.2789 269.199,-783.0044 259.0098,-787.0578 259.0098,-787.0578"/>
<text text-anchor="start" x="7.218" y="-797.5" font-family="Arial" font-size="10.00" fill="#000000">FOREIGN KEY (country_id) REFERENCES countries (id)</text>
</g>
<!-- customers -->
<g id="node4" class="node">
<title>customers</title>
<polygon fill="#efefef" stroke="transparent" points="416,-432.5 416,-467.5 626,-467.5 626,-432.5 416,-432.5"/>
<polygon fill="none" stroke="#000000" points="416,-432.5 416,-467.5 626,-467.5 626,-432.5 416,-432.5"/>
<text text-anchor="start" x="430.8705" y="-445.3" font-family="Arial Bold" font-size="18.00" fill="#000000">customers</text>
<text text-anchor="start" x="513.8757" y="-445.3" font-family="Arial" font-size="14.00" fill="#000000"> </text>
<text text-anchor="start" x="517.7663" y="-445.3" font-family="Arial" font-size="14.00" fill="#666666">[BASE TABLE]</text>
<polygon fill="none" stroke="#000000" points="416,-402.5 416,-432.5 626,-432.5 626,-402.5 416,-402.5"/>
<text text-anchor="start" x="423" y="-413.9" font-family="Arial" font-size="14.00" fill="#000000">id </text>
<text text-anchor="start" x="437.7798" y="-413.9" font-family="Arial" font-size="14.00" fill="#666666">[int(10) unsigned]</text>
<polygon fill="none" stroke="#000000" points="416,-372.5 416,-402.5 626,-402.5 626,-372.5 416,-372.5"/>
<text text-anchor="start" x="423" y="-383.9" font-family="Arial" font-size="14.00" fill="#000000">name </text>
<text text-anchor="start" x="461.899" y="-383.9" font-family="Arial" font-size="14.00" fill="#666666">[varchar(255)]</text>
<polygon fill="none" stroke="#000000" points="416,-342.5 416,-372.5 626,-372.5 626,-342.5 416,-342.5"/>
<text text-anchor="start" x="423" y="-353.9" font-family="Arial" font-size="14.00" fill="#000000">email </text>
<text text-anchor="start" x="460.3296" y="-353.9" font-family="Arial" font-size="14.00" fill="#666666">[varchar(255)]</text>
<polygon fill="none" stroke="#000000" points="416,-312.5 416,-342.5 626,-342.5 626,-312.5 416,-312.5"/>
<text text-anchor="start" x="423" y="-323.9" font-family="Arial" font-size="14.00" fill="#000000">password </text>
<text text-anchor="start" x="486.7882" y="-323.9" font-family="Arial" font-size="14.00" fill="#666666">[varchar(255)]</text>
<polygon fill="none" stroke="#000000" points="416,-282.5 416,-312.5 626,-312.5 626,-282.5 416,-282.5"/>
<text text-anchor="start" x="423" y="-293.9" font-family="Arial" font-size="14.00" fill="#000000">status </text>
<text text-anchor="start" x="464.237" y="-293.9" font-family="Arial" font-size="14.00" fill="#666666">[int(11)]</text>
<polygon fill="none" stroke="#000000" points="416,-252.5 416,-282.5 626,-282.5 626,-252.5 416,-252.5"/>
<text text-anchor="start" x="423" y="-263.9" font-family="Arial" font-size="14.00" fill="#000000">stripe_id </text>
<text text-anchor="start" x="479.7854" y="-263.9" font-family="Arial" font-size="14.00" fill="#666666">[varchar(255)]</text>
<polygon fill="none" stroke="#000000" points="416,-222.5 416,-252.5 626,-252.5 626,-222.5 416,-222.5"/>
<text text-anchor="start" x="423" y="-233.9" font-family="Arial" font-size="14.00" fill="#000000">card_brand </text>
<text text-anchor="start" x="497.69" y="-233.9" font-family="Arial" font-size="14.00" fill="#666666">[varchar(255)]</text>
<polygon fill="none" stroke="#000000" points="416,-192.5 416,-222.5 626,-222.5 626,-192.5 416,-192.5"/>
<text text-anchor="start" x="423" y="-203.9" font-family="Arial" font-size="14.00" fill="#000000">card_last_four </text>
<text text-anchor="start" x="515.5778" y="-203.9" font-family="Arial" font-size="14.00" fill="#666666">[varchar(255)]</text>
<polygon fill="none" stroke="#000000" points="416,-162.5 416,-192.5 626,-192.5 626,-162.5 416,-162.5"/>
<text text-anchor="start" x="423" y="-173.9" font-family="Arial" font-size="14.00" fill="#000000">trial_ends_at </text>
<text text-anchor="start" x="507.0238" y="-173.9" font-family="Arial" font-size="14.00" fill="#666666">[timestamp]</text>
<polygon fill="none" stroke="#000000" points="416,-132.5 416,-162.5 626,-162.5 626,-132.5 416,-132.5"/>
<text text-anchor="start" x="423" y="-143.9" font-family="Arial" font-size="14.00" fill="#000000">deleted_at </text>
<text text-anchor="start" x="492.2566" y="-143.9" font-family="Arial" font-size="14.00" fill="#666666">[timestamp]</text>
<polygon fill="none" stroke="#000000" points="416,-102.5 416,-132.5 626,-132.5 626,-102.5 416,-102.5"/>
<text text-anchor="start" x="422.5982" y="-113.9" font-family="Arial" font-size="14.00" fill="#000000">remember_token </text>
<text text-anchor="start" x="532.2826" y="-113.9" font-family="Arial" font-size="14.00" fill="#666666">[varchar(100)]</text>
<polygon fill="none" stroke="#000000" points="416,-72.5 416,-102.5 626,-102.5 626,-72.5 416,-72.5"/>
<text text-anchor="start" x="423" y="-83.9" font-family="Arial" font-size="14.00" fill="#000000">created_at </text>
<text text-anchor="start" x="493.028" y="-83.9" font-family="Arial" font-size="14.00" fill="#666666">[timestamp]</text>
<polygon fill="none" stroke="#000000" points="416,-42.5 416,-72.5 626,-72.5 626,-42.5 416,-42.5"/>
<text text-anchor="start" x="423" y="-53.9" font-family="Arial" font-size="14.00" fill="#000000">updated_at </text>
<text text-anchor="start" x="496.9326" y="-53.9" font-family="Arial" font-size="14.00" fill="#666666">[timestamp]</text>
</g>
<!-- addresses&#45;&gt;customers -->
<g id="edge3" class="edge">
<title>addresses:customer_id&#45;&gt;customers:id</title>
<path fill="none" stroke="#000000" d="M481.3195,-756.9235C560.7295,-747.5543 513.7546,-626.0838 471,-547 457.106,-521.3 429.894,-536.7 416,-511 396.2373,-474.4446 374.4444,-417.5 416,-417.5"/>
<polygon fill="#000000" stroke="#000000" points="480.9844,-756.9421 470.749,-753.007 475.9922,-757.2211 471,-757.5 471,-757.5 471,-757.5 475.9922,-757.2211 471.251,-761.993 480.9844,-756.9421 480.9844,-756.9421"/>
<text text-anchor="start" x="478.278" y="-767.5" font-family="Arial" font-size="10.00" fill="#000000">FOREIGN KEY (customer_id) REFERENCES customers (id)</text>
</g>
<!-- orders -->
<g id="node2" class="node">
<title>orders</title>
<polygon fill="#efefef" stroke="transparent" points="259,-1772.5 259,-1807.5 481,-1807.5 481,-1772.5 259,-1772.5"/>
<polygon fill="none" stroke="#000000" points="259,-1772.5 259,-1807.5 481,-1807.5 481,-1772.5 259,-1772.5"/>
<text text-anchor="start" x="295.8716" y="-1785.3" font-family="Arial Bold" font-size="18.00" fill="#000000">orders</text>
<text text-anchor="start" x="346.8746" y="-1785.3" font-family="Arial" font-size="14.00" fill="#000000"> </text>
<text text-anchor="start" x="350.7652" y="-1785.3" font-family="Arial" font-size="14.00" fill="#666666">[BASE TABLE]</text>
<polygon fill="none" stroke="#000000" points="259,-1742.5 259,-1772.5 481,-1772.5 481,-1742.5 259,-1742.5"/>
<text text-anchor="start" x="266" y="-1753.9" font-family="Arial" font-size="14.00" fill="#000000">id </text>
<text text-anchor="start" x="280.7798" y="-1753.9" font-family="Arial" font-size="14.00" fill="#666666">[int(10) unsigned]</text>
<polygon fill="none" stroke="#000000" points="259,-1712.5 259,-1742.5 481,-1742.5 481,-1712.5 259,-1712.5"/>
<text text-anchor="start" x="266" y="-1723.9" font-family="Arial" font-size="14.00" fill="#000000">reference </text>
<text text-anchor="start" x="329.0154" y="-1723.9" font-family="Arial" font-size="14.00" fill="#666666">[varchar(255)]</text>
<polygon fill="none" stroke="#000000" points="259,-1682.5 259,-1712.5 481,-1712.5 481,-1682.5 259,-1682.5"/>
<text text-anchor="start" x="266" y="-1693.9" font-family="Arial" font-size="14.00" fill="#000000">courier_id </text>
<text text-anchor="start" x="331.338" y="-1693.9" font-family="Arial" font-size="14.00" fill="#666666">[int(10) unsigned]</text>
<polygon fill="none" stroke="#000000" points="259,-1652.5 259,-1682.5 481,-1682.5 481,-1652.5 259,-1652.5"/>
<text text-anchor="start" x="266" y="-1663.9" font-family="Arial" font-size="14.00" fill="#000000">courier </text>
<text text-anchor="start" x="312.6662" y="-1663.9" font-family="Arial" font-size="14.00" fill="#666666">[varchar(255)]</text>
<polygon fill="none" stroke="#000000" points="259,-1622.5 259,-1652.5 481,-1652.5 481,-1622.5 259,-1622.5"/>
<text text-anchor="start" x="266" y="-1633.9" font-family="Arial" font-size="14.00" fill="#000000">customer_id </text>
<text text-anchor="start" x="346.122" y="-1633.9" font-family="Arial" font-size="14.00" fill="#666666">[int(10) unsigned]</text>
<polygon fill="none" stroke="#000000" points="259,-1592.5 259,-1622.5 481,-1622.5 481,-1592.5 259,-1592.5"/>
<text text-anchor="start" x="266" y="-1603.9" font-family="Arial" font-size="14.00" fill="#000000">address_id </text>
<text text-anchor="start" x="338.3534" y="-1603.9" font-family="Arial" font-size="14.00" fill="#666666">[int(10) unsigned]</text>
<polygon fill="none" stroke="#000000" points="259,-1562.5 259,-1592.5 481,-1592.5 481,-1562.5 259,-1562.5"/>
<text text-anchor="start" x="265.7497" y="-1573.9" font-family="Arial" font-size="14.00" fill="#000000">order_status_id </text>
<text text-anchor="start" x="366.1101" y="-1573.9" font-family="Arial" font-size="14.00" fill="#666666">[int(10) unsigned]</text>
<polygon fill="none" stroke="#000000" points="259,-1532.5 259,-1562.5 481,-1562.5 481,-1532.5 259,-1532.5"/>
<text text-anchor="start" x="266" y="-1543.9" font-family="Arial" font-size="14.00" fill="#000000">payment </text>
<text text-anchor="start" x="323.5722" y="-1543.9" font-family="Arial" font-size="14.00" fill="#666666">[varchar(255)]</text>
<polygon fill="none" stroke="#000000" points="259,-1502.5 259,-1532.5 481,-1532.5 481,-1502.5 259,-1502.5"/>
<text text-anchor="start" x="266" y="-1513.9" font-family="Arial" font-size="14.00" fill="#000000">discounts </text>
<text text-anchor="start" x="329.0182" y="-1513.9" font-family="Arial" font-size="14.00" fill="#666666">[decimal(8,2)]</text>
<polygon fill="none" stroke="#000000" points="259,-1472.5 259,-1502.5 481,-1502.5 481,-1472.5 259,-1472.5"/>
<text text-anchor="start" x="266" y="-1483.9" font-family="Arial" font-size="14.00" fill="#000000">total_products </text>
<text text-anchor="start" x="357.8078" y="-1483.9" font-family="Arial" font-size="14.00" fill="#666666">[decimal(8,2)]</text>
<polygon fill="none" stroke="#000000" points="259,-1442.5 259,-1472.5 481,-1472.5 481,-1442.5 259,-1442.5"/>
<text text-anchor="start" x="266" y="-1453.9" font-family="Arial" font-size="14.00" fill="#000000">total_shipping </text>
<text text-anchor="start" x="356.2524" y="-1453.9" font-family="Arial" font-size="14.00" fill="#666666">[decimal(8,2)]</text>
<polygon fill="none" stroke="#000000" points="259,-1412.5 259,-1442.5 481,-1442.5 481,-1412.5 259,-1412.5"/>
<text text-anchor="start" x="266" y="-1423.9" font-family="Arial" font-size="14.00" fill="#000000">tax </text>
<text text-anchor="start" x="288.5638" y="-1423.9" font-family="Arial" font-size="14.00" fill="#666666">[decimal(8,2)]</text>
<polygon fill="none" stroke="#000000" points="259,-1382.5 259,-1412.5 481,-1412.5 481,-1382.5 259,-1382.5"/>
<text text-anchor="start" x="266" y="-1393.9" font-family="Arial" font-size="14.00" fill="#000000">total </text>
<text text-anchor="start" x="296.3436" y="-1393.9" font-family="Arial" font-size="14.00" fill="#666666">[decimal(8,2)]</text>
<polygon fill="none" stroke="#000000" points="259,-1352.5 259,-1382.5 481,-1382.5 481,-1352.5 259,-1352.5"/>
<text text-anchor="start" x="266" y="-1363.9" font-family="Arial" font-size="14.00" fill="#000000">total_paid </text>
<text text-anchor="start" x="330.5806" y="-1363.9" font-family="Arial" font-size="14.00" fill="#666666">[decimal(8,2)]</text>
<polygon fill="none" stroke="#000000" points="259,-1322.5 259,-1352.5 481,-1352.5 481,-1322.5 259,-1322.5"/>
<text text-anchor="start" x="266" y="-1333.9" font-family="Arial" font-size="14.00" fill="#000000">invoice </text>
<text text-anchor="start" x="313.4516" y="-1333.9" font-family="Arial" font-size="14.00" fill="#666666">[varchar(255)]</text>
<polygon fill="none" stroke="#000000" points="259,-1292.5 259,-1322.5 481,-1322.5 481,-1292.5 259,-1292.5"/>
<text text-anchor="start" x="266" y="-1303.9" font-family="Arial" font-size="14.00" fill="#000000">label_url </text>
<text text-anchor="start" x="322.784" y="-1303.9" font-family="Arial" font-size="14.00" fill="#666666">[varchar(255)]</text>
<polygon fill="none" stroke="#000000" points="259,-1262.5 259,-1292.5 481,-1292.5 481,-1262.5 259,-1262.5"/>
<text text-anchor="start" x="266" y="-1273.9" font-family="Arial" font-size="14.00" fill="#000000">tracking_number </text>
<text text-anchor="start" x="374.1304" y="-1273.9" font-family="Arial" font-size="14.00" fill="#666666">[varchar(255)]</text>
<polygon fill="none" stroke="#000000" points="259,-1232.5 259,-1262.5 481,-1262.5 481,-1232.5 259,-1232.5"/>
<text text-anchor="start" x="266" y="-1243.9" font-family="Arial" font-size="14.00" fill="#000000">created_at </text>
<text text-anchor="start" x="336.028" y="-1243.9" font-family="Arial" font-size="14.00" fill="#666666">[timestamp]</text>
<polygon fill="none" stroke="#000000" points="259,-1202.5 259,-1232.5 481,-1232.5 481,-1202.5 259,-1202.5"/>
<text text-anchor="start" x="266" y="-1213.9" font-family="Arial" font-size="14.00" fill="#000000">updated_at </text>
<text text-anchor="start" x="339.9326" y="-1213.9" font-family="Arial" font-size="14.00" fill="#666666">[timestamp]</text>
</g>
<!-- orders&#45;&gt;addresses -->
<g id="edge1" class="edge">
<title>orders:address_id&#45;&gt;addresses:id</title>
<path fill="none" stroke="#000000" d="M491.0572,-1607.2002C738.5093,-1592.3078 725.4171,-1027.5 471,-1027.5"/>
<polygon fill="#000000" stroke="#000000" points="490.9956,-1607.202 480.8659,-1603.002 485.9978,-1607.351 481,-1607.5 481,-1607.5 481,-1607.5 485.9978,-1607.351 481.1341,-1611.998 490.9956,-1607.202 490.9956,-1607.202"/>
<text text-anchor="start" x="488.0475" y="-1617.5" font-family="Arial" font-size="10.00" fill="#000000">FOREIGN KEY (address_id) REFERENCES addresses (id)</text>
</g>
</g>
</svg>
