<?xml version="1.0" encoding="UTF-8" standalone="no"?>
<!DOCTYPE svg PUBLIC "-//W3C//DTD SVG 1.1//EN"
 "http://www.w3.org/Graphics/SVG/1.1/DTD/svg11.dtd">
<!-- Generated by graphviz version 2.40.1 (20161225.0304)
 -->
<!-- Title: attributes Pages: 1 -->
<svg width="562pt" height="562pt"
 viewBox="0.00 0.00 562.00 562.00" xmlns="http://www.w3.org/2000/svg" xmlns:xlink="http://www.w3.org/1999/xlink">
<g id="graph0" class="graph" transform="scale(1 1) rotate(0) translate(4 558)">
<title>attributes</title>
<polygon fill="#ffffff" stroke="transparent" points="-4,4 -4,-558 558,-558 558,4 -4,4"/>
<!-- attributes -->
<g id="node1" class="node">
<title>attributes</title>
<polygon fill="#efefef" stroke="transparent" points="299,-165.5 299,-200.5 484,-200.5 484,-165.5 299,-165.5"/>
<polygon fill="none" stroke="#000000" points="299,-165.5 299,-200.5 484,-200.5 484,-165.5 299,-165.5"/>
<text text-anchor="start" x="305.8642" y="-178.3" font-family="Arial Bold" font-size="18.00" fill="#000000">attributes</text>
<text text-anchor="start" x="379.882" y="-178.3" font-family="Arial" font-size="14.00" fill="#000000"> </text>
<text text-anchor="start" x="383.7726" y="-178.3" font-family="Arial" font-size="14.00" fill="#666666">[BASE TABLE]</text>
<polygon fill="none" stroke="#000000" points="299,-135.5 299,-165.5 484,-165.5 484,-135.5 299,-135.5"/>
<text text-anchor="start" x="306" y="-146.9" font-family="Arial" font-size="14.00" fill="#000000">id </text>
<text text-anchor="start" x="320.7798" y="-146.9" font-family="Arial" font-size="14.00" fill="#666666">[int(10) unsigned]</text>
<polygon fill="none" stroke="#000000" points="299,-105.5 299,-135.5 484,-135.5 484,-105.5 299,-105.5"/>
<text text-anchor="start" x="306" y="-116.9" font-family="Arial" font-size="14.00" fill="#000000">name </text>
<text text-anchor="start" x="344.899" y="-116.9" font-family="Arial" font-size="14.00" fill="#666666">[varchar(255)]</text>
<polygon fill="none" stroke="#000000" points="299,-75.5 299,-105.5 484,-105.5 484,-75.5 299,-75.5"/>
<text text-anchor="start" x="306" y="-86.9" font-family="Arial" font-size="14.00" fill="#000000">created_at </text>
<text text-anchor="start" x="376.028" y="-86.9" font-family="Arial" font-size="14.00" fill="#666666">[timestamp]</text>
<polygon fill="none" stroke="#000000" points="299,-45.5 299,-75.5 484,-75.5 484,-45.5 299,-45.5"/>
<text text-anchor="start" x="306" y="-56.9" font-family="Arial" font-size="14.00" fill="#000000">updated_at </text>
<text text-anchor="start" x="379.9326" y="-56.9" font-family="Arial" font-size="14.00" fill="#666666">[timestamp]</text>
<polygon fill="none" stroke="#000000" stroke-width="3" points="297,-44.5 297,-202.5 485,-202.5 485,-44.5 297,-44.5"/>
</g>
<!-- attribute_values -->
<g id="node2" class="node">
<title>attribute_values</title>
<polygon fill="#efefef" stroke="transparent" points="273,-475.5 273,-510.5 511,-510.5 511,-475.5 273,-475.5"/>
<polygon fill="none" stroke="#000000" points="273,-475.5 273,-510.5 511,-510.5 511,-475.5 273,-475.5"/>
<text text-anchor="start" x="279.8547" y="-488.3" font-family="Arial Bold" font-size="18.00" fill="#000000">attribute_values</text>
<text text-anchor="start" x="406.8915" y="-488.3" font-family="Arial" font-size="14.00" fill="#000000"> </text>
<text text-anchor="start" x="410.7821" y="-488.3" font-family="Arial" font-size="14.00" fill="#666666">[BASE TABLE]</text>
<polygon fill="none" stroke="#000000" points="273,-445.5 273,-475.5 511,-475.5 511,-445.5 273,-445.5"/>
<text text-anchor="start" x="280" y="-456.9" font-family="Arial" font-size="14.00" fill="#000000">id </text>
<text text-anchor="start" x="294.7798" y="-456.9" font-family="Arial" font-size="14.00" fill="#666666">[int(10) unsigned]</text>
<polygon fill="none" stroke="#000000" points="273,-415.5 273,-445.5 511,-445.5 511,-415.5 273,-415.5"/>
<text text-anchor="start" x="280" y="-426.9" font-family="Arial" font-size="14.00" fill="#000000">value </text>
<text text-anchor="start" x="317.345" y="-426.9" font-family="Arial" font-size="14.00" fill="#666666">[varchar(255)]</text>
<polygon fill="none" stroke="#000000" points="273,-385.5 273,-415.5 511,-415.5 511,-385.5 273,-385.5"/>
<text text-anchor="start" x="280" y="-396.9" font-family="Arial" font-size="14.00" fill="#000000">attribute_id </text>
<text text-anchor="start" x="353.1318" y="-396.9" font-family="Arial" font-size="14.00" fill="#666666">[int(10) unsigned]</text>
<polygon fill="none" stroke="#000000" points="273,-355.5 273,-385.5 511,-385.5 511,-355.5 273,-355.5"/>
<text text-anchor="start" x="280" y="-366.9" font-family="Arial" font-size="14.00" fill="#000000">created_at </text>
<text text-anchor="start" x="350.028" y="-366.9" font-family="Arial" font-size="14.00" fill="#666666">[timestamp]</text>
<polygon fill="none" stroke="#000000" points="273,-325.5 273,-355.5 511,-355.5 511,-325.5 273,-325.5"/>
<text text-anchor="start" x="280" y="-336.9" font-family="Arial" font-size="14.00" fill="#000000">updated_at </text>
<text text-anchor="start" x="353.9326" y="-336.9" font-family="Arial" font-size="14.00" fill="#666666">[timestamp]</text>
</g>
<!-- attribute_values&#45;&gt;attributes -->
<g id="edge1" class="edge">
<title>attribute_values:attribute_id&#45;&gt;attributes:id</title>
<path fill="none" stroke="#000000" d="M263.0146,-399.3893C223.4603,-389.7754 241.6895,-320.1051 273,-283 334.352,-210.2937 422.648,-319.7063 484,-247 511.6594,-214.2218 526.8889,-150.5 484,-150.5"/>
<polygon fill="#000000" stroke="#000000" points="263.0613,-399.3944 272.5025,-404.9724 268.0306,-399.9472 273,-400.5 273,-400.5 273,-400.5 268.0306,-399.9472 273.4975,-396.0276 263.0613,-399.3944 263.0613,-399.3944"/>
<text text-anchor="start" x="7.271" y="-410.5" font-family="Arial" font-size="10.00" fill="#000000">FOREIGN KEY (attribute_id) REFERENCES attributes (id)</text>
</g>
</g>
</svg>
