<?xml version="1.0" encoding="UTF-8" standalone="no"?>
<!DOCTYPE svg PUBLIC "-//W3C//DTD SVG 1.1//EN"
 "http://www.w3.org/Graphics/SVG/1.1/DTD/svg11.dtd">
<!-- Generated by graphviz version 2.40.1 (20161225.0304)
 -->
<!-- Title: attribute_values Pages: 1 -->
<svg width="919pt" height="779pt"
 viewBox="0.00 0.00 919.00 779.00" xmlns="http://www.w3.org/2000/svg" xmlns:xlink="http://www.w3.org/1999/xlink">
<g id="graph0" class="graph" transform="scale(1 1) rotate(0) translate(4 775)">
<title>attribute_values</title>
<polygon fill="#ffffff" stroke="transparent" points="-4,4 -4,-775 915,-775 915,4 -4,4"/>
<!-- attribute_values -->
<g id="node1" class="node">
<title>attribute_values</title>
<polygon fill="#efefef" stroke="transparent" points="273,-472.5 273,-507.5 511,-507.5 511,-472.5 273,-472.5"/>
<polygon fill="none" stroke="#000000" points="273,-472.5 273,-507.5 511,-507.5 511,-472.5 273,-472.5"/>
<text text-anchor="start" x="279.8547" y="-485.3" font-family="Arial Bold" font-size="18.00" fill="#000000">attribute_values</text>
<text text-anchor="start" x="406.8915" y="-485.3" font-family="Arial" font-size="14.00" fill="#000000"> </text>
<text text-anchor="start" x="410.7821" y="-485.3" font-family="Arial" font-size="14.00" fill="#666666">[BASE TABLE]</text>
<polygon fill="none" stroke="#000000" points="273,-442.5 273,-472.5 511,-472.5 511,-442.5 273,-442.5"/>
<text text-anchor="start" x="280" y="-453.9" font-family="Arial" font-size="14.00" fill="#000000">id </text>
<text text-anchor="start" x="294.7798" y="-453.9" font-family="Arial" font-size="14.00" fill="#666666">[int(10) unsigned]</text>
<polygon fill="none" stroke="#000000" points="273,-412.5 273,-442.5 511,-442.5 511,-412.5 273,-412.5"/>
<text text-anchor="start" x="280" y="-423.9" font-family="Arial" font-size="14.00" fill="#000000">value </text>
<text text-anchor="start" x="317.345" y="-423.9" font-family="Arial" font-size="14.00" fill="#666666">[varchar(255)]</text>
<polygon fill="none" stroke="#000000" points="273,-382.5 273,-412.5 511,-412.5 511,-382.5 273,-382.5"/>
<text text-anchor="start" x="280" y="-393.9" font-family="Arial" font-size="14.00" fill="#000000">attribute_id </text>
<text text-anchor="start" x="353.1318" y="-393.9" font-family="Arial" font-size="14.00" fill="#666666">[int(10) unsigned]</text>
<polygon fill="none" stroke="#000000" points="273,-352.5 273,-382.5 511,-382.5 511,-352.5 273,-352.5"/>
<text text-anchor="start" x="280" y="-363.9" font-family="Arial" font-size="14.00" fill="#000000">created_at </text>
<text text-anchor="start" x="350.028" y="-363.9" font-family="Arial" font-size="14.00" fill="#666666">[timestamp]</text>
<polygon fill="none" stroke="#000000" points="273,-322.5 273,-352.5 511,-352.5 511,-322.5 273,-322.5"/>
<text text-anchor="start" x="280" y="-333.9" font-family="Arial" font-size="14.00" fill="#000000">updated_at </text>
<text text-anchor="start" x="353.9326" y="-333.9" font-family="Arial" font-size="14.00" fill="#666666">[timestamp]</text>
<polygon fill="none" stroke="#000000" stroke-width="3" points="271.5,-321.5 271.5,-509.5 512.5,-509.5 512.5,-321.5 271.5,-321.5"/>
</g>
<!-- attributes -->
<g id="node3" class="node">
<title>attributes</title>
<polygon fill="#efefef" stroke="transparent" points="299,-162.5 299,-197.5 484,-197.5 484,-162.5 299,-162.5"/>
<polygon fill="none" stroke="#000000" points="299,-162.5 299,-197.5 484,-197.5 484,-162.5 299,-162.5"/>
<text text-anchor="start" x="305.8642" y="-175.3" font-family="Arial Bold" font-size="18.00" fill="#000000">attributes</text>
<text text-anchor="start" x="379.882" y="-175.3" font-family="Arial" font-size="14.00" fill="#000000"> </text>
<text text-anchor="start" x="383.7726" y="-175.3" font-family="Arial" font-size="14.00" fill="#666666">[BASE TABLE]</text>
<polygon fill="none" stroke="#000000" points="299,-132.5 299,-162.5 484,-162.5 484,-132.5 299,-132.5"/>
<text text-anchor="start" x="306" y="-143.9" font-family="Arial" font-size="14.00" fill="#000000">id </text>
<text text-anchor="start" x="320.7798" y="-143.9" font-family="Arial" font-size="14.00" fill="#666666">[int(10) unsigned]</text>
<polygon fill="none" stroke="#000000" points="299,-102.5 299,-132.5 484,-132.5 484,-102.5 299,-102.5"/>
<text text-anchor="start" x="306" y="-113.9" font-family="Arial" font-size="14.00" fill="#000000">name </text>
<text text-anchor="start" x="344.899" y="-113.9" font-family="Arial" font-size="14.00" fill="#666666">[varchar(255)]</text>
<polygon fill="none" stroke="#000000" points="299,-72.5 299,-102.5 484,-102.5 484,-72.5 299,-72.5"/>
<text text-anchor="start" x="306" y="-83.9" font-family="Arial" font-size="14.00" fill="#000000">created_at </text>
<text text-anchor="start" x="376.028" y="-83.9" font-family="Arial" font-size="14.00" fill="#666666">[timestamp]</text>
<polygon fill="none" stroke="#000000" points="299,-42.5 299,-72.5 484,-72.5 484,-42.5 299,-42.5"/>
<text text-anchor="start" x="306" y="-53.9" font-family="Arial" font-size="14.00" fill="#000000">updated_at </text>
<text text-anchor="start" x="379.9326" y="-53.9" font-family="Arial" font-size="14.00" fill="#666666">[timestamp]</text>
</g>
<!-- attribute_values&#45;&gt;attributes -->
<g id="edge2" class="edge">
<title>attribute_values:attribute_id&#45;&gt;attributes:id</title>
<path fill="none" stroke="#000000" d="M263.0161,-396.4223C222.117,-386.8019 240.8226,-315.1324 273,-277 334.352,-204.2937 422.648,-313.7063 484,-241 510.7995,-209.2408 525.5556,-147.5 484,-147.5"/>
<polygon fill="#000000" stroke="#000000" points="263.0578,-396.4267 272.517,-401.974 268.0289,-396.9633 273,-397.5 273,-397.5 273,-397.5 268.0289,-396.9633 273.483,-393.026 263.0578,-396.4267 263.0578,-396.4267"/>
<text text-anchor="start" x="7.271" y="-407.5" font-family="Arial" font-size="10.00" fill="#000000">FOREIGN KEY (attribute_id) REFERENCES attributes (id)</text>
</g>
<!-- attribute_value_product_attribute -->
<g id="node2" class="node">
<title>attribute_value_product_attribute</title>
<polygon fill="#efefef" stroke="transparent" points="205,-692.5 205,-727.5 579,-727.5 579,-692.5 205,-692.5"/>
<polygon fill="none" stroke="#000000" points="205,-692.5 205,-727.5 579,-727.5 579,-692.5 205,-692.5"/>
<text text-anchor="start" x="211.83" y="-705.3" font-family="Arial Bold" font-size="18.00" fill="#000000">attribute_value_product_attribute</text>
<text text-anchor="start" x="474.9162" y="-705.3" font-family="Arial" font-size="14.00" fill="#000000"> </text>
<text text-anchor="start" x="478.8068" y="-705.3" font-family="Arial" font-size="14.00" fill="#666666">[BASE TABLE]</text>
<polygon fill="none" stroke="#000000" points="205,-662.5 205,-692.5 579,-692.5 579,-662.5 205,-662.5"/>
<text text-anchor="start" x="212" y="-673.9" font-family="Arial" font-size="14.00" fill="#000000">attribute_value_id </text>
<text text-anchor="start" x="326.3688" y="-673.9" font-family="Arial" font-size="14.00" fill="#666666">[int(10) unsigned]</text>
<polygon fill="none" stroke="#000000" points="205,-632.5 205,-662.5 579,-662.5 579,-632.5 205,-632.5"/>
<text text-anchor="start" x="212" y="-643.9" font-family="Arial" font-size="14.00" fill="#000000">product_attribute_id </text>
<text text-anchor="start" x="339.596" y="-643.9" font-family="Arial" font-size="14.00" fill="#666666">[int(10) unsigned]</text>
</g>
<!-- attribute_value_product_attribute&#45;&gt;attribute_values -->
<g id="edge1" class="edge">
<title>attribute_value_product_attribute:attribute_value_id&#45;&gt;attribute_values:id</title>
<path fill="none" stroke="#000000" d="M589.1682,-676.7034C676.5183,-662.3032 609.744,-457.5 511,-457.5"/>
<polygon fill="#000000" stroke="#000000" points="588.9695,-676.7189 578.6485,-673.0137 583.9847,-677.1094 579,-677.5 579,-677.5 579,-677.5 583.9847,-677.1094 579.3515,-681.9863 588.9695,-676.7189 588.9695,-676.7189"/>
<text text-anchor="start" x="585.816" y="-687.5" font-family="Arial" font-size="10.00" fill="#000000">FOREIGN KEY (attribute_value_id) REFERENCES attribute_values (id)</text>
</g>
</g>
</svg>
