<?xml version="1.0" encoding="UTF-8" standalone="no"?>
<!DOCTYPE svg PUBLIC "-//W3C//DTD SVG 1.1//EN"
 "http://www.w3.org/Graphics/SVG/1.1/DTD/svg11.dtd">
<!-- Generated by graphviz version 2.40.1 (20161225.0304)
 -->
<!-- Title: category_product Pages: 1 -->
<svg width="805pt" height="952pt"
 viewBox="0.00 0.00 805.00 952.00" xmlns="http://www.w3.org/2000/svg" xmlns:xlink="http://www.w3.org/1999/xlink">
<g id="graph0" class="graph" transform="scale(1 1) rotate(0) translate(4 948)">
<title>category_product</title>
<polygon fill="#ffffff" stroke="transparent" points="-4,4 -4,-948 801,-948 801,4 -4,4"/>
<!-- category_product -->
<g id="node1" class="node">
<title>category_product</title>
<polygon fill="#efefef" stroke="transparent" points="280,-862.5 280,-897.5 530,-897.5 530,-862.5 280,-862.5"/>
<polygon fill="none" stroke="#000000" points="280,-862.5 280,-897.5 530,-897.5 530,-862.5 280,-862.5"/>
<text text-anchor="start" x="286.8508" y="-875.3" font-family="Arial Bold" font-size="18.00" fill="#000000">category_product</text>
<text text-anchor="start" x="425.8954" y="-875.3" font-family="Arial" font-size="14.00" fill="#000000"> </text>
<text text-anchor="start" x="429.786" y="-875.3" font-family="Arial" font-size="14.00" fill="#666666">[BASE TABLE]</text>
<polygon fill="none" stroke="#000000" points="280,-832.5 280,-862.5 530,-862.5 530,-832.5 280,-832.5"/>
<text text-anchor="start" x="287" y="-843.9" font-family="Arial" font-size="14.00" fill="#000000">id </text>
<text text-anchor="start" x="301.7798" y="-843.9" font-family="Arial" font-size="14.00" fill="#666666">[int(10) unsigned]</text>
<polygon fill="none" stroke="#000000" points="280,-802.5 280,-832.5 530,-832.5 530,-802.5 280,-802.5"/>
<text text-anchor="start" x="287" y="-813.9" font-family="Arial" font-size="14.00" fill="#000000">category_id </text>
<text text-anchor="start" x="363.244" y="-813.9" font-family="Arial" font-size="14.00" fill="#666666">[int(10) unsigned]</text>
<polygon fill="none" stroke="#000000" points="280,-772.5 280,-802.5 530,-802.5 530,-772.5 280,-772.5"/>
<text text-anchor="start" x="287" y="-783.9" font-family="Arial" font-size="14.00" fill="#000000">product_id </text>
<text text-anchor="start" x="356.244" y="-783.9" font-family="Arial" font-size="14.00" fill="#666666">[int(10) unsigned]</text>
<polygon fill="none" stroke="#000000" stroke-width="3" points="278.5,-771.5 278.5,-899.5 531.5,-899.5 531.5,-771.5 278.5,-771.5"/>
</g>
<!-- categories -->
<g id="node2" class="node">
<title>categories</title>
<polygon fill="#efefef" stroke="transparent" points="160,-492.5 160,-527.5 354,-527.5 354,-492.5 160,-492.5"/>
<polygon fill="none" stroke="#000000" points="160,-492.5 160,-527.5 354,-527.5 354,-492.5 160,-492.5"/>
<text text-anchor="start" x="166.8633" y="-505.3" font-family="Arial Bold" font-size="18.00" fill="#000000">categories</text>
<text text-anchor="start" x="249.8829" y="-505.3" font-family="Arial" font-size="14.00" fill="#000000"> </text>
<text text-anchor="start" x="253.7735" y="-505.3" font-family="Arial" font-size="14.00" fill="#666666">[BASE TABLE]</text>
<polygon fill="none" stroke="#000000" points="160,-462.5 160,-492.5 354,-492.5 354,-462.5 160,-462.5"/>
<text text-anchor="start" x="167" y="-473.9" font-family="Arial" font-size="14.00" fill="#000000">id </text>
<text text-anchor="start" x="181.7798" y="-473.9" font-family="Arial" font-size="14.00" fill="#666666">[int(10) unsigned]</text>
<polygon fill="none" stroke="#000000" points="160,-432.5 160,-462.5 354,-462.5 354,-432.5 160,-432.5"/>
<text text-anchor="start" x="167" y="-443.9" font-family="Arial" font-size="14.00" fill="#000000">name </text>
<text text-anchor="start" x="205.899" y="-443.9" font-family="Arial" font-size="14.00" fill="#666666">[varchar(255)]</text>
<polygon fill="none" stroke="#000000" points="160,-402.5 160,-432.5 354,-432.5 354,-402.5 160,-402.5"/>
<text text-anchor="start" x="167" y="-413.9" font-family="Arial" font-size="14.00" fill="#000000">slug </text>
<text text-anchor="start" x="196.5624" y="-413.9" font-family="Arial" font-size="14.00" fill="#666666">[varchar(255)]</text>
<polygon fill="none" stroke="#000000" points="160,-372.5 160,-402.5 354,-402.5 354,-372.5 160,-372.5"/>
<text text-anchor="start" x="167" y="-383.9" font-family="Arial" font-size="14.00" fill="#000000">description </text>
<text text-anchor="start" x="238.568" y="-383.9" font-family="Arial" font-size="14.00" fill="#666666">[text]</text>
<polygon fill="none" stroke="#000000" points="160,-342.5 160,-372.5 354,-372.5 354,-342.5 160,-342.5"/>
<text text-anchor="start" x="167" y="-353.9" font-family="Arial" font-size="14.00" fill="#000000">cover </text>
<text text-anchor="start" x="205.1164" y="-353.9" font-family="Arial" font-size="14.00" fill="#666666">[varchar(255)]</text>
<polygon fill="none" stroke="#000000" points="160,-312.5 160,-342.5 354,-342.5 354,-312.5 160,-312.5"/>
<text text-anchor="start" x="167" y="-323.9" font-family="Arial" font-size="14.00" fill="#000000">status </text>
<text text-anchor="start" x="208.237" y="-323.9" font-family="Arial" font-size="14.00" fill="#666666">[int(11)]</text>
<polygon fill="none" stroke="#000000" points="160,-282.5 160,-312.5 354,-312.5 354,-282.5 160,-282.5"/>
<text text-anchor="start" x="167" y="-293.9" font-family="Arial" font-size="14.00" fill="#000000">created_at </text>
<text text-anchor="start" x="237.028" y="-293.9" font-family="Arial" font-size="14.00" fill="#666666">[timestamp]</text>
<polygon fill="none" stroke="#000000" points="160,-252.5 160,-282.5 354,-282.5 354,-252.5 160,-252.5"/>
<text text-anchor="start" x="167" y="-263.9" font-family="Arial" font-size="14.00" fill="#000000">updated_at </text>
<text text-anchor="start" x="240.9326" y="-263.9" font-family="Arial" font-size="14.00" fill="#666666">[timestamp]</text>
<polygon fill="none" stroke="#000000" points="160,-222.5 160,-252.5 354,-252.5 354,-222.5 160,-222.5"/>
<text text-anchor="start" x="167" y="-233.9" font-family="Arial" font-size="14.00" fill="#000000">_lft </text>
<text text-anchor="start" x="189.561" y="-233.9" font-family="Arial" font-size="14.00" fill="#666666">[int(10) unsigned]</text>
<polygon fill="none" stroke="#000000" points="160,-192.5 160,-222.5 354,-222.5 354,-192.5 160,-192.5"/>
<text text-anchor="start" x="167" y="-203.9" font-family="Arial" font-size="14.00" fill="#000000">_rgt </text>
<text text-anchor="start" x="195.007" y="-203.9" font-family="Arial" font-size="14.00" fill="#666666">[int(10) unsigned]</text>
<polygon fill="none" stroke="#000000" points="160,-162.5 160,-192.5 354,-192.5 354,-162.5 160,-162.5"/>
<text text-anchor="start" x="167" y="-173.9" font-family="Arial" font-size="14.00" fill="#000000">parent_id </text>
<text text-anchor="start" x="229.244" y="-173.9" font-family="Arial" font-size="14.00" fill="#666666">[int(10) unsigned]</text>
</g>
<!-- category_product&#45;&gt;categories -->
<g id="edge1" class="edge">
<title>category_product:category_id&#45;&gt;categories:id</title>
<path fill="none" stroke="#000000" d="M269.9989,-816.9485C143.0228,-801.7493 505.0242,-477.5 354,-477.5"/>
<polygon fill="#000000" stroke="#000000" points="270.0152,-816.9493 279.7522,-821.9932 275.0076,-817.2246 280,-817.5 280,-817.5 280,-817.5 275.0076,-817.2246 280.2478,-813.0068 270.0152,-816.9493 270.0152,-816.9493"/>
<text text-anchor="start" x="6.659" y="-827.5" font-family="Arial" font-size="10.00" fill="#000000">FOREIGN KEY (category_id) REFERENCES categories (id)</text>
</g>
<!-- products -->
<g id="node3" class="node">
<title>products</title>
<polygon fill="#efefef" stroke="transparent" points="459,-612.5 459,-647.5 646,-647.5 646,-612.5 459,-612.5"/>
<polygon fill="none" stroke="#000000" points="459,-612.5 459,-647.5 646,-647.5 646,-612.5 459,-612.5"/>
<text text-anchor="start" x="469.3635" y="-625.3" font-family="Arial Bold" font-size="18.00" fill="#000000">products</text>
<text text-anchor="start" x="538.3827" y="-625.3" font-family="Arial" font-size="14.00" fill="#000000"> </text>
<text text-anchor="start" x="542.2733" y="-625.3" font-family="Arial" font-size="14.00" fill="#666666">[BASE TABLE]</text>
<polygon fill="none" stroke="#000000" points="459,-582.5 459,-612.5 646,-612.5 646,-582.5 459,-582.5"/>
<text text-anchor="start" x="466" y="-593.9" font-family="Arial" font-size="14.00" fill="#000000">id </text>
<text text-anchor="start" x="480.7798" y="-593.9" font-family="Arial" font-size="14.00" fill="#666666">[int(10) unsigned]</text>
<polygon fill="none" stroke="#000000" points="459,-552.5 459,-582.5 646,-582.5 646,-552.5 459,-552.5"/>
<text text-anchor="start" x="466" y="-563.9" font-family="Arial" font-size="14.00" fill="#000000">brand_id </text>
<text text-anchor="start" x="524.3534" y="-563.9" font-family="Arial" font-size="14.00" fill="#666666">[int(10) unsigned]</text>
<polygon fill="none" stroke="#000000" points="459,-522.5 459,-552.5 646,-552.5 646,-522.5 459,-522.5"/>
<text text-anchor="start" x="466" y="-533.9" font-family="Arial" font-size="14.00" fill="#000000">sku </text>
<text text-anchor="start" x="491.6732" y="-533.9" font-family="Arial" font-size="14.00" fill="#666666">[varchar(255)]</text>
<polygon fill="none" stroke="#000000" points="459,-492.5 459,-522.5 646,-522.5 646,-492.5 459,-492.5"/>
<text text-anchor="start" x="466" y="-503.9" font-family="Arial" font-size="14.00" fill="#000000">name </text>
<text text-anchor="start" x="504.899" y="-503.9" font-family="Arial" font-size="14.00" fill="#666666">[varchar(255)]</text>
<polygon fill="none" stroke="#000000" points="459,-462.5 459,-492.5 646,-492.5 646,-462.5 459,-462.5"/>
<text text-anchor="start" x="466" y="-473.9" font-family="Arial" font-size="14.00" fill="#000000">slug </text>
<text text-anchor="start" x="495.5624" y="-473.9" font-family="Arial" font-size="14.00" fill="#666666">[varchar(255)]</text>
<polygon fill="none" stroke="#000000" points="459,-432.5 459,-462.5 646,-462.5 646,-432.5 459,-432.5"/>
<text text-anchor="start" x="466" y="-443.9" font-family="Arial" font-size="14.00" fill="#000000">description </text>
<text text-anchor="start" x="537.568" y="-443.9" font-family="Arial" font-size="14.00" fill="#666666">[text]</text>
<polygon fill="none" stroke="#000000" points="459,-402.5 459,-432.5 646,-432.5 646,-402.5 459,-402.5"/>
<text text-anchor="start" x="466" y="-413.9" font-family="Arial" font-size="14.00" fill="#000000">cover </text>
<text text-anchor="start" x="504.1164" y="-413.9" font-family="Arial" font-size="14.00" fill="#666666">[varchar(255)]</text>
<polygon fill="none" stroke="#000000" points="459,-372.5 459,-402.5 646,-402.5 646,-372.5 459,-372.5"/>
<text text-anchor="start" x="466" y="-383.9" font-family="Arial" font-size="14.00" fill="#000000">quantity </text>
<text text-anchor="start" x="518.9088" y="-383.9" font-family="Arial" font-size="14.00" fill="#666666">[int(11)]</text>
<polygon fill="none" stroke="#000000" points="459,-342.5 459,-372.5 646,-372.5 646,-342.5 459,-342.5"/>
<text text-anchor="start" x="466" y="-353.9" font-family="Arial" font-size="14.00" fill="#000000">price </text>
<text text-anchor="start" x="500.223" y="-353.9" font-family="Arial" font-size="14.00" fill="#666666">[decimal(8,2)]</text>
<polygon fill="none" stroke="#000000" points="459,-312.5 459,-342.5 646,-342.5 646,-312.5 459,-312.5"/>
<text text-anchor="start" x="466" y="-323.9" font-family="Arial" font-size="14.00" fill="#000000">sale_price </text>
<text text-anchor="start" x="533.6774" y="-323.9" font-family="Arial" font-size="14.00" fill="#666666">[decimal(8,2)]</text>
<polygon fill="none" stroke="#000000" points="459,-282.5 459,-312.5 646,-312.5 646,-282.5 459,-282.5"/>
<text text-anchor="start" x="466" y="-293.9" font-family="Arial" font-size="14.00" fill="#000000">status </text>
<text text-anchor="start" x="507.237" y="-293.9" font-family="Arial" font-size="14.00" fill="#666666">[int(11)]</text>
<polygon fill="none" stroke="#000000" points="459,-252.5 459,-282.5 646,-282.5 646,-252.5 459,-252.5"/>
<text text-anchor="start" x="466" y="-263.9" font-family="Arial" font-size="14.00" fill="#000000">length </text>
<text text-anchor="start" x="508.0182" y="-263.9" font-family="Arial" font-size="14.00" fill="#666666">[decimal(8,2)]</text>
<polygon fill="none" stroke="#000000" points="459,-222.5 459,-252.5 646,-252.5 646,-222.5 459,-222.5"/>
<text text-anchor="start" x="466" y="-233.9" font-family="Arial" font-size="14.00" fill="#000000">width </text>
<text text-anchor="start" x="502.5596" y="-233.9" font-family="Arial" font-size="14.00" fill="#666666">[decimal(8,2)]</text>
<polygon fill="none" stroke="#000000" points="459,-192.5 459,-222.5 646,-222.5 646,-192.5 459,-192.5"/>
<text text-anchor="start" x="466" y="-203.9" font-family="Arial" font-size="14.00" fill="#000000">height </text>
<text text-anchor="start" x="508.0182" y="-203.9" font-family="Arial" font-size="14.00" fill="#666666">[decimal(8,2)]</text>
<polygon fill="none" stroke="#000000" points="459,-162.5 459,-192.5 646,-192.5 646,-162.5 459,-162.5"/>
<text text-anchor="start" x="465.7588" y="-173.9" font-family="Arial" font-size="14.00" fill="#000000">distance_unit </text>
<text text-anchor="start" x="552.122" y="-173.9" font-family="Arial" font-size="14.00" fill="#666666">[varchar(255)]</text>
<polygon fill="none" stroke="#000000" points="459,-132.5 459,-162.5 646,-162.5 646,-132.5 459,-132.5"/>
<text text-anchor="start" x="466" y="-143.9" font-family="Arial" font-size="14.00" fill="#000000">weight </text>
<text text-anchor="start" x="510.3422" y="-143.9" font-family="Arial" font-size="14.00" fill="#666666">[decimal(8,2)]</text>
<polygon fill="none" stroke="#000000" points="459,-102.5 459,-132.5 646,-132.5 646,-102.5 459,-102.5"/>
<text text-anchor="start" x="466" y="-113.9" font-family="Arial" font-size="14.00" fill="#000000">mass_unit </text>
<text text-anchor="start" x="533.6788" y="-113.9" font-family="Arial" font-size="14.00" fill="#666666">[varchar(255)]</text>
<polygon fill="none" stroke="#000000" points="459,-72.5 459,-102.5 646,-102.5 646,-72.5 459,-72.5"/>
<text text-anchor="start" x="466" y="-83.9" font-family="Arial" font-size="14.00" fill="#000000">created_at </text>
<text text-anchor="start" x="536.028" y="-83.9" font-family="Arial" font-size="14.00" fill="#666666">[timestamp]</text>
<polygon fill="none" stroke="#000000" points="459,-42.5 459,-72.5 646,-72.5 646,-42.5 459,-42.5"/>
<text text-anchor="start" x="466" y="-53.9" font-family="Arial" font-size="14.00" fill="#000000">updated_at </text>
<text text-anchor="start" x="539.9326" y="-53.9" font-family="Arial" font-size="14.00" fill="#666666">[timestamp]</text>
</g>
<!-- category_product&#45;&gt;products -->
<g id="edge2" class="edge">
<title>category_product:product_id&#45;&gt;products:id</title>
<path fill="none" stroke="#000000" d="M539.8427,-784.9464C552.853,-776.1122 541.8733,-746.3326 530,-727 511.4842,-696.8517 477.5158,-721.1483 459,-691 437.2523,-655.5895 417.4444,-597.5 459,-597.5"/>
<polygon fill="#000000" stroke="#000000" points="539.6795,-784.9886 528.8699,-783.1442 534.8398,-786.2443 530,-787.5 530,-787.5 530,-787.5 534.8398,-786.2443 531.1301,-791.8558 539.6795,-784.9886 539.6795,-784.9886"/>
<text text-anchor="start" x="537.048" y="-797.5" font-family="Arial" font-size="10.00" fill="#000000">FOREIGN KEY (product_id) REFERENCES products (id)</text>
</g>
</g>
</svg>
