<?xml version="1.0" encoding="UTF-8" standalone="no"?>
<!DOCTYPE svg PUBLIC "-//W3C//DTD SVG 1.1//EN"
 "http://www.w3.org/Graphics/SVG/1.1/DTD/svg11.dtd">
<!-- Generated by graphviz version 2.40.1 (20161225.0304)
 -->
<!-- Title: categories Pages: 1 -->
<svg width="581pt" height="712pt"
 viewBox="0.00 0.00 581.00 712.00" xmlns="http://www.w3.org/2000/svg" xmlns:xlink="http://www.w3.org/1999/xlink">
<g id="graph0" class="graph" transform="scale(1 1) rotate(0) translate(4 708)">
<title>categories</title>
<polygon fill="#ffffff" stroke="transparent" points="-4,4 -4,-708 577,-708 577,4 -4,4"/>
<!-- categories -->
<g id="node1" class="node">
<title>categories</title>
<polygon fill="#efefef" stroke="transparent" points="71,-375.5 71,-410.5 265,-410.5 265,-375.5 71,-375.5"/>
<polygon fill="none" stroke="#000000" points="71,-375.5 71,-410.5 265,-410.5 265,-375.5 71,-375.5"/>
<text text-anchor="start" x="77.8633" y="-388.3" font-family="Arial Bold" font-size="18.00" fill="#000000">categories</text>
<text text-anchor="start" x="160.8829" y="-388.3" font-family="Arial" font-size="14.00" fill="#000000"> </text>
<text text-anchor="start" x="164.7735" y="-388.3" font-family="Arial" font-size="14.00" fill="#666666">[BASE TABLE]</text>
<polygon fill="none" stroke="#000000" points="71,-345.5 71,-375.5 265,-375.5 265,-345.5 71,-345.5"/>
<text text-anchor="start" x="78" y="-356.9" font-family="Arial" font-size="14.00" fill="#000000">id </text>
<text text-anchor="start" x="92.7798" y="-356.9" font-family="Arial" font-size="14.00" fill="#666666">[int(10) unsigned]</text>
<polygon fill="none" stroke="#000000" points="71,-315.5 71,-345.5 265,-345.5 265,-315.5 71,-315.5"/>
<text text-anchor="start" x="78" y="-326.9" font-family="Arial" font-size="14.00" fill="#000000">name </text>
<text text-anchor="start" x="116.899" y="-326.9" font-family="Arial" font-size="14.00" fill="#666666">[varchar(255)]</text>
<polygon fill="none" stroke="#000000" points="71,-285.5 71,-315.5 265,-315.5 265,-285.5 71,-285.5"/>
<text text-anchor="start" x="78" y="-296.9" font-family="Arial" font-size="14.00" fill="#000000">slug </text>
<text text-anchor="start" x="107.5624" y="-296.9" font-family="Arial" font-size="14.00" fill="#666666">[varchar(255)]</text>
<polygon fill="none" stroke="#000000" points="71,-255.5 71,-285.5 265,-285.5 265,-255.5 71,-255.5"/>
<text text-anchor="start" x="78" y="-266.9" font-family="Arial" font-size="14.00" fill="#000000">description </text>
<text text-anchor="start" x="149.568" y="-266.9" font-family="Arial" font-size="14.00" fill="#666666">[text]</text>
<polygon fill="none" stroke="#000000" points="71,-225.5 71,-255.5 265,-255.5 265,-225.5 71,-225.5"/>
<text text-anchor="start" x="78" y="-236.9" font-family="Arial" font-size="14.00" fill="#000000">cover </text>
<text text-anchor="start" x="116.1164" y="-236.9" font-family="Arial" font-size="14.00" fill="#666666">[varchar(255)]</text>
<polygon fill="none" stroke="#000000" points="71,-195.5 71,-225.5 265,-225.5 265,-195.5 71,-195.5"/>
<text text-anchor="start" x="78" y="-206.9" font-family="Arial" font-size="14.00" fill="#000000">status </text>
<text text-anchor="start" x="119.237" y="-206.9" font-family="Arial" font-size="14.00" fill="#666666">[int(11)]</text>
<polygon fill="none" stroke="#000000" points="71,-165.5 71,-195.5 265,-195.5 265,-165.5 71,-165.5"/>
<text text-anchor="start" x="78" y="-176.9" font-family="Arial" font-size="14.00" fill="#000000">created_at </text>
<text text-anchor="start" x="148.028" y="-176.9" font-family="Arial" font-size="14.00" fill="#666666">[timestamp]</text>
<polygon fill="none" stroke="#000000" points="71,-135.5 71,-165.5 265,-165.5 265,-135.5 71,-135.5"/>
<text text-anchor="start" x="78" y="-146.9" font-family="Arial" font-size="14.00" fill="#000000">updated_at </text>
<text text-anchor="start" x="151.9326" y="-146.9" font-family="Arial" font-size="14.00" fill="#666666">[timestamp]</text>
<polygon fill="none" stroke="#000000" points="71,-105.5 71,-135.5 265,-135.5 265,-105.5 71,-105.5"/>
<text text-anchor="start" x="78" y="-116.9" font-family="Arial" font-size="14.00" fill="#000000">_lft </text>
<text text-anchor="start" x="100.561" y="-116.9" font-family="Arial" font-size="14.00" fill="#666666">[int(10) unsigned]</text>
<polygon fill="none" stroke="#000000" points="71,-75.5 71,-105.5 265,-105.5 265,-75.5 71,-75.5"/>
<text text-anchor="start" x="78" y="-86.9" font-family="Arial" font-size="14.00" fill="#000000">_rgt </text>
<text text-anchor="start" x="106.007" y="-86.9" font-family="Arial" font-size="14.00" fill="#666666">[int(10) unsigned]</text>
<polygon fill="none" stroke="#000000" points="71,-45.5 71,-75.5 265,-75.5 265,-45.5 71,-45.5"/>
<text text-anchor="start" x="78" y="-56.9" font-family="Arial" font-size="14.00" fill="#000000">parent_id </text>
<text text-anchor="start" x="140.244" y="-56.9" font-family="Arial" font-size="14.00" fill="#666666">[int(10) unsigned]</text>
<polygon fill="none" stroke="#000000" stroke-width="3" points="69.5,-44.5 69.5,-412.5 266.5,-412.5 266.5,-44.5 69.5,-44.5"/>
</g>
<!-- category_product -->
<g id="node2" class="node">
<title>category_product</title>
<polygon fill="#efefef" stroke="transparent" points="43,-625.5 43,-660.5 293,-660.5 293,-625.5 43,-625.5"/>
<polygon fill="none" stroke="#000000" points="43,-625.5 43,-660.5 293,-660.5 293,-625.5 43,-625.5"/>
<text text-anchor="start" x="49.8508" y="-638.3" font-family="Arial Bold" font-size="18.00" fill="#000000">category_product</text>
<text text-anchor="start" x="188.8954" y="-638.3" font-family="Arial" font-size="14.00" fill="#000000"> </text>
<text text-anchor="start" x="192.786" y="-638.3" font-family="Arial" font-size="14.00" fill="#666666">[BASE TABLE]</text>
<polygon fill="none" stroke="#000000" points="43,-595.5 43,-625.5 293,-625.5 293,-595.5 43,-595.5"/>
<text text-anchor="start" x="50" y="-606.9" font-family="Arial" font-size="14.00" fill="#000000">id </text>
<text text-anchor="start" x="64.7798" y="-606.9" font-family="Arial" font-size="14.00" fill="#666666">[int(10) unsigned]</text>
<polygon fill="none" stroke="#000000" points="43,-565.5 43,-595.5 293,-595.5 293,-565.5 43,-565.5"/>
<text text-anchor="start" x="50" y="-576.9" font-family="Arial" font-size="14.00" fill="#000000">category_id </text>
<text text-anchor="start" x="126.244" y="-576.9" font-family="Arial" font-size="14.00" fill="#666666">[int(10) unsigned]</text>
<polygon fill="none" stroke="#000000" points="43,-535.5 43,-565.5 293,-565.5 293,-535.5 43,-535.5"/>
<text text-anchor="start" x="50" y="-546.9" font-family="Arial" font-size="14.00" fill="#000000">product_id </text>
<text text-anchor="start" x="119.244" y="-546.9" font-family="Arial" font-size="14.00" fill="#666666">[int(10) unsigned]</text>
</g>
<!-- category_product&#45;&gt;categories -->
<g id="edge1" class="edge">
<title>category_product:category_id&#45;&gt;categories:id</title>
<path fill="none" stroke="#000000" d="M303.1914,-579.6591C389.4509,-564.8888 360.005,-360.5 265,-360.5"/>
<polygon fill="#000000" stroke="#000000" points="302.9661,-579.6776 292.6299,-576.0152 297.9831,-580.0888 293,-580.5 293,-580.5 293,-580.5 297.9831,-580.0888 293.3701,-584.9848 302.9661,-579.6776 302.9661,-579.6776"/>
<text text-anchor="start" x="299.659" y="-590.5" font-family="Arial" font-size="10.00" fill="#000000">FOREIGN KEY (category_id) REFERENCES categories (id)</text>
</g>
</g>
</svg>
