<?xml version="1.0" encoding="UTF-8" standalone="no"?>
<!DOCTYPE svg PUBLIC "-//W3C//DTD SVG 1.1//EN"
 "http://www.w3.org/Graphics/SVG/1.1/DTD/svg11.dtd">
<!-- Generated by graphviz version 2.40.1 (20161225.0304)
 -->
<!-- Title: customers Pages: 1 -->
<svg width="678pt" height="1252pt"
 viewBox="0.00 0.00 678.00 1252.00" xmlns="http://www.w3.org/2000/svg" xmlns:xlink="http://www.w3.org/1999/xlink">
<g id="graph0" class="graph" transform="scale(1 1) rotate(0) translate(4 1248)">
<title>customers</title>
<polygon fill="#ffffff" stroke="transparent" points="-4,4 -4,-1248 674,-1248 674,4 -4,4"/>
<!-- customers -->
<g id="node1" class="node">
<title>customers</title>
<polygon fill="#efefef" stroke="transparent" points="235,-435.5 235,-470.5 445,-470.5 445,-435.5 235,-435.5"/>
<polygon fill="none" stroke="#000000" points="235,-435.5 235,-470.5 445,-470.5 445,-435.5 235,-435.5"/>
<text text-anchor="start" x="249.8705" y="-448.3" font-family="Arial Bold" font-size="18.00" fill="#000000">customers</text>
<text text-anchor="start" x="332.8757" y="-448.3" font-family="Arial" font-size="14.00" fill="#000000"> </text>
<text text-anchor="start" x="336.7663" y="-448.3" font-family="Arial" font-size="14.00" fill="#666666">[BASE TABLE]</text>
<polygon fill="none" stroke="#000000" points="235,-405.5 235,-435.5 445,-435.5 445,-405.5 235,-405.5"/>
<text text-anchor="start" x="242" y="-416.9" font-family="Arial" font-size="14.00" fill="#000000">id </text>
<text text-anchor="start" x="256.7798" y="-416.9" font-family="Arial" font-size="14.00" fill="#666666">[int(10) unsigned]</text>
<polygon fill="none" stroke="#000000" points="235,-375.5 235,-405.5 445,-405.5 445,-375.5 235,-375.5"/>
<text text-anchor="start" x="242" y="-386.9" font-family="Arial" font-size="14.00" fill="#000000">name </text>
<text text-anchor="start" x="280.899" y="-386.9" font-family="Arial" font-size="14.00" fill="#666666">[varchar(255)]</text>
<polygon fill="none" stroke="#000000" points="235,-345.5 235,-375.5 445,-375.5 445,-345.5 235,-345.5"/>
<text text-anchor="start" x="242" y="-356.9" font-family="Arial" font-size="14.00" fill="#000000">email </text>
<text text-anchor="start" x="279.3296" y="-356.9" font-family="Arial" font-size="14.00" fill="#666666">[varchar(255)]</text>
<polygon fill="none" stroke="#000000" points="235,-315.5 235,-345.5 445,-345.5 445,-315.5 235,-315.5"/>
<text text-anchor="start" x="242" y="-326.9" font-family="Arial" font-size="14.00" fill="#000000">password </text>
<text text-anchor="start" x="305.7882" y="-326.9" font-family="Arial" font-size="14.00" fill="#666666">[varchar(255)]</text>
<polygon fill="none" stroke="#000000" points="235,-285.5 235,-315.5 445,-315.5 445,-285.5 235,-285.5"/>
<text text-anchor="start" x="242" y="-296.9" font-family="Arial" font-size="14.00" fill="#000000">status </text>
<text text-anchor="start" x="283.237" y="-296.9" font-family="Arial" font-size="14.00" fill="#666666">[int(11)]</text>
<polygon fill="none" stroke="#000000" points="235,-255.5 235,-285.5 445,-285.5 445,-255.5 235,-255.5"/>
<text text-anchor="start" x="242" y="-266.9" font-family="Arial" font-size="14.00" fill="#000000">stripe_id </text>
<text text-anchor="start" x="298.7854" y="-266.9" font-family="Arial" font-size="14.00" fill="#666666">[varchar(255)]</text>
<polygon fill="none" stroke="#000000" points="235,-225.5 235,-255.5 445,-255.5 445,-225.5 235,-225.5"/>
<text text-anchor="start" x="242" y="-236.9" font-family="Arial" font-size="14.00" fill="#000000">card_brand </text>
<text text-anchor="start" x="316.69" y="-236.9" font-family="Arial" font-size="14.00" fill="#666666">[varchar(255)]</text>
<polygon fill="none" stroke="#000000" points="235,-195.5 235,-225.5 445,-225.5 445,-195.5 235,-195.5"/>
<text text-anchor="start" x="242" y="-206.9" font-family="Arial" font-size="14.00" fill="#000000">card_last_four </text>
<text text-anchor="start" x="334.5778" y="-206.9" font-family="Arial" font-size="14.00" fill="#666666">[varchar(255)]</text>
<polygon fill="none" stroke="#000000" points="235,-165.5 235,-195.5 445,-195.5 445,-165.5 235,-165.5"/>
<text text-anchor="start" x="242" y="-176.9" font-family="Arial" font-size="14.00" fill="#000000">trial_ends_at </text>
<text text-anchor="start" x="326.0238" y="-176.9" font-family="Arial" font-size="14.00" fill="#666666">[timestamp]</text>
<polygon fill="none" stroke="#000000" points="235,-135.5 235,-165.5 445,-165.5 445,-135.5 235,-135.5"/>
<text text-anchor="start" x="242" y="-146.9" font-family="Arial" font-size="14.00" fill="#000000">deleted_at </text>
<text text-anchor="start" x="311.2566" y="-146.9" font-family="Arial" font-size="14.00" fill="#666666">[timestamp]</text>
<polygon fill="none" stroke="#000000" points="235,-105.5 235,-135.5 445,-135.5 445,-105.5 235,-105.5"/>
<text text-anchor="start" x="241.5982" y="-116.9" font-family="Arial" font-size="14.00" fill="#000000">remember_token </text>
<text text-anchor="start" x="351.2826" y="-116.9" font-family="Arial" font-size="14.00" fill="#666666">[varchar(100)]</text>
<polygon fill="none" stroke="#000000" points="235,-75.5 235,-105.5 445,-105.5 445,-75.5 235,-75.5"/>
<text text-anchor="start" x="242" y="-86.9" font-family="Arial" font-size="14.00" fill="#000000">created_at </text>
<text text-anchor="start" x="312.028" y="-86.9" font-family="Arial" font-size="14.00" fill="#666666">[timestamp]</text>
<polygon fill="none" stroke="#000000" points="235,-45.5 235,-75.5 445,-75.5 445,-45.5 235,-45.5"/>
<text text-anchor="start" x="242" y="-56.9" font-family="Arial" font-size="14.00" fill="#000000">updated_at </text>
<text text-anchor="start" x="315.9326" y="-56.9" font-family="Arial" font-size="14.00" fill="#666666">[timestamp]</text>
<polygon fill="none" stroke="#000000" stroke-width="3" points="233.5,-44.5 233.5,-472.5 446.5,-472.5 446.5,-44.5 233.5,-44.5"/>
</g>
<!-- addresses -->
<g id="node2" class="node">
<title>addresses</title>
<polygon fill="#efefef" stroke="transparent" points="81,-1105.5 81,-1140.5 283,-1140.5 283,-1105.5 81,-1105.5"/>
<polygon fill="none" stroke="#000000" points="81,-1105.5 81,-1140.5 283,-1140.5 283,-1105.5 81,-1105.5"/>
<text text-anchor="start" x="91.8615" y="-1118.3" font-family="Arial Bold" font-size="18.00" fill="#000000">addresses</text>
<text text-anchor="start" x="174.8847" y="-1118.3" font-family="Arial" font-size="14.00" fill="#000000"> </text>
<text text-anchor="start" x="178.7753" y="-1118.3" font-family="Arial" font-size="14.00" fill="#666666">[BASE TABLE]</text>
<polygon fill="none" stroke="#000000" points="81,-1075.5 81,-1105.5 283,-1105.5 283,-1075.5 81,-1075.5"/>
<text text-anchor="start" x="88" y="-1086.9" font-family="Arial" font-size="14.00" fill="#000000">id </text>
<text text-anchor="start" x="102.7798" y="-1086.9" font-family="Arial" font-size="14.00" fill="#666666">[int(10) unsigned]</text>
<polygon fill="none" stroke="#000000" points="81,-1045.5 81,-1075.5 283,-1075.5 283,-1045.5 81,-1045.5"/>
<text text-anchor="start" x="88" y="-1056.9" font-family="Arial" font-size="14.00" fill="#000000">alias </text>
<text text-anchor="start" x="120.669" y="-1056.9" font-family="Arial" font-size="14.00" fill="#666666">[varchar(255)]</text>
<polygon fill="none" stroke="#000000" points="81,-1015.5 81,-1045.5 283,-1045.5 283,-1015.5 81,-1015.5"/>
<text text-anchor="start" x="88" y="-1026.9" font-family="Arial" font-size="14.00" fill="#000000">address_1 </text>
<text text-anchor="start" x="157.2468" y="-1026.9" font-family="Arial" font-size="14.00" fill="#666666">[varchar(255)]</text>
<polygon fill="none" stroke="#000000" points="81,-985.5 81,-1015.5 283,-1015.5 283,-985.5 81,-985.5"/>
<text text-anchor="start" x="88" y="-996.9" font-family="Arial" font-size="14.00" fill="#000000">address_2 </text>
<text text-anchor="start" x="157.2468" y="-996.9" font-family="Arial" font-size="14.00" fill="#666666">[varchar(255)]</text>
<polygon fill="none" stroke="#000000" points="81,-955.5 81,-985.5 283,-985.5 283,-955.5 81,-955.5"/>
<text text-anchor="start" x="88" y="-966.9" font-family="Arial" font-size="14.00" fill="#000000">zip </text>
<text text-anchor="start" x="109.7798" y="-966.9" font-family="Arial" font-size="14.00" fill="#666666">[varchar(255)]</text>
<polygon fill="none" stroke="#000000" points="81,-925.5 81,-955.5 283,-955.5 283,-925.5 81,-925.5"/>
<text text-anchor="start" x="88" y="-936.9" font-family="Arial" font-size="14.00" fill="#000000">state_code </text>
<text text-anchor="start" x="160.3674" y="-936.9" font-family="Arial" font-size="14.00" fill="#666666">[varchar(255)]</text>
<polygon fill="none" stroke="#000000" points="81,-895.5 81,-925.5 283,-925.5 283,-895.5 81,-895.5"/>
<text text-anchor="start" x="88" y="-906.9" font-family="Arial" font-size="14.00" fill="#000000">city </text>
<text text-anchor="start" x="112.8878" y="-906.9" font-family="Arial" font-size="14.00" fill="#666666">[varchar(255)]</text>
<polygon fill="none" stroke="#000000" points="81,-865.5 81,-895.5 283,-895.5 283,-865.5 81,-865.5"/>
<text text-anchor="start" x="88" y="-876.9" font-family="Arial" font-size="14.00" fill="#000000">province_id </text>
<text text-anchor="start" x="163.46" y="-876.9" font-family="Arial" font-size="14.00" fill="#666666">[int(11)]</text>
<polygon fill="none" stroke="#000000" points="81,-835.5 81,-865.5 283,-865.5 283,-835.5 81,-835.5"/>
<text text-anchor="start" x="88" y="-846.9" font-family="Arial" font-size="14.00" fill="#000000">country_id </text>
<text text-anchor="start" x="156.4614" y="-846.9" font-family="Arial" font-size="14.00" fill="#666666">[int(10) unsigned]</text>
<polygon fill="none" stroke="#000000" points="81,-805.5 81,-835.5 283,-835.5 283,-805.5 81,-805.5"/>
<text text-anchor="start" x="87.8689" y="-816.9" font-family="Arial" font-size="14.00" fill="#000000">customer_id </text>
<text text-anchor="start" x="167.9909" y="-816.9" font-family="Arial" font-size="14.00" fill="#666666">[int(10) unsigned]</text>
<polygon fill="none" stroke="#000000" points="81,-775.5 81,-805.5 283,-805.5 283,-775.5 81,-775.5"/>
<text text-anchor="start" x="88" y="-786.9" font-family="Arial" font-size="14.00" fill="#000000">status </text>
<text text-anchor="start" x="129.237" y="-786.9" font-family="Arial" font-size="14.00" fill="#666666">[int(11)]</text>
<polygon fill="none" stroke="#000000" points="81,-745.5 81,-775.5 283,-775.5 283,-745.5 81,-745.5"/>
<text text-anchor="start" x="88" y="-756.9" font-family="Arial" font-size="14.00" fill="#000000">phone </text>
<text text-anchor="start" x="130.8036" y="-756.9" font-family="Arial" font-size="14.00" fill="#666666">[varchar(255)]</text>
<polygon fill="none" stroke="#000000" points="81,-715.5 81,-745.5 283,-745.5 283,-715.5 81,-715.5"/>
<text text-anchor="start" x="88" y="-726.9" font-family="Arial" font-size="14.00" fill="#000000">deleted_at </text>
<text text-anchor="start" x="157.2566" y="-726.9" font-family="Arial" font-size="14.00" fill="#666666">[timestamp]</text>
<polygon fill="none" stroke="#000000" points="81,-685.5 81,-715.5 283,-715.5 283,-685.5 81,-685.5"/>
<text text-anchor="start" x="88" y="-696.9" font-family="Arial" font-size="14.00" fill="#000000">created_at </text>
<text text-anchor="start" x="158.028" y="-696.9" font-family="Arial" font-size="14.00" fill="#666666">[timestamp]</text>
<polygon fill="none" stroke="#000000" points="81,-655.5 81,-685.5 283,-685.5 283,-655.5 81,-655.5"/>
<text text-anchor="start" x="88" y="-666.9" font-family="Arial" font-size="14.00" fill="#000000">updated_at </text>
<text text-anchor="start" x="161.9326" y="-666.9" font-family="Arial" font-size="14.00" fill="#666666">[timestamp]</text>
</g>
<!-- addresses&#45;&gt;customers -->
<g id="edge1" class="edge">
<title>addresses:customer_id&#45;&gt;customers:id</title>
<path fill="none" stroke="#000000" d="M293.0727,-819.9697C369.7488,-811.3439 303.3607,-699.2491 283,-613 272.0401,-566.5733 245.9599,-563.4267 235,-517 225.1462,-475.2584 192.1111,-420.5 235,-420.5"/>
<polygon fill="#000000" stroke="#000000" points="292.9862,-819.9742 282.7634,-816.0062 287.9931,-820.2371 283,-820.5 283,-820.5 283,-820.5 287.9931,-820.2371 283.2366,-824.9938 292.9862,-819.9742 292.9862,-819.9742"/>
<text text-anchor="start" x="7.278" y="-830.5" font-family="Arial" font-size="10.00" fill="#000000">FOREIGN KEY (customer_id) REFERENCES customers (id)</text>
</g>
<!-- orders -->
<g id="node3" class="node">
<title>orders</title>
<polygon fill="#efefef" stroke="transparent" points="387,-1165.5 387,-1200.5 609,-1200.5 609,-1165.5 387,-1165.5"/>
<polygon fill="none" stroke="#000000" points="387,-1165.5 387,-1200.5 609,-1200.5 609,-1165.5 387,-1165.5"/>
<text text-anchor="start" x="423.8716" y="-1178.3" font-family="Arial Bold" font-size="18.00" fill="#000000">orders</text>
<text text-anchor="start" x="474.8746" y="-1178.3" font-family="Arial" font-size="14.00" fill="#000000"> </text>
<text text-anchor="start" x="478.7652" y="-1178.3" font-family="Arial" font-size="14.00" fill="#666666">[BASE TABLE]</text>
<polygon fill="none" stroke="#000000" points="387,-1135.5 387,-1165.5 609,-1165.5 609,-1135.5 387,-1135.5"/>
<text text-anchor="start" x="394" y="-1146.9" font-family="Arial" font-size="14.00" fill="#000000">id </text>
<text text-anchor="start" x="408.7798" y="-1146.9" font-family="Arial" font-size="14.00" fill="#666666">[int(10) unsigned]</text>
<polygon fill="none" stroke="#000000" points="387,-1105.5 387,-1135.5 609,-1135.5 609,-1105.5 387,-1105.5"/>
<text text-anchor="start" x="394" y="-1116.9" font-family="Arial" font-size="14.00" fill="#000000">reference </text>
<text text-anchor="start" x="457.0154" y="-1116.9" font-family="Arial" font-size="14.00" fill="#666666">[varchar(255)]</text>
<polygon fill="none" stroke="#000000" points="387,-1075.5 387,-1105.5 609,-1105.5 609,-1075.5 387,-1075.5"/>
<text text-anchor="start" x="394" y="-1086.9" font-family="Arial" font-size="14.00" fill="#000000">courier_id </text>
<text text-anchor="start" x="459.338" y="-1086.9" font-family="Arial" font-size="14.00" fill="#666666">[int(10) unsigned]</text>
<polygon fill="none" stroke="#000000" points="387,-1045.5 387,-1075.5 609,-1075.5 609,-1045.5 387,-1045.5"/>
<text text-anchor="start" x="394" y="-1056.9" font-family="Arial" font-size="14.00" fill="#000000">courier </text>
<text text-anchor="start" x="440.6662" y="-1056.9" font-family="Arial" font-size="14.00" fill="#666666">[varchar(255)]</text>
<polygon fill="none" stroke="#000000" points="387,-1015.5 387,-1045.5 609,-1045.5 609,-1015.5 387,-1015.5"/>
<text text-anchor="start" x="394" y="-1026.9" font-family="Arial" font-size="14.00" fill="#000000">customer_id </text>
<text text-anchor="start" x="474.122" y="-1026.9" font-family="Arial" font-size="14.00" fill="#666666">[int(10) unsigned]</text>
<polygon fill="none" stroke="#000000" points="387,-985.5 387,-1015.5 609,-1015.5 609,-985.5 387,-985.5"/>
<text text-anchor="start" x="394" y="-996.9" font-family="Arial" font-size="14.00" fill="#000000">address_id </text>
<text text-anchor="start" x="466.3534" y="-996.9" font-family="Arial" font-size="14.00" fill="#666666">[int(10) unsigned]</text>
<polygon fill="none" stroke="#000000" points="387,-955.5 387,-985.5 609,-985.5 609,-955.5 387,-955.5"/>
<text text-anchor="start" x="393.7497" y="-966.9" font-family="Arial" font-size="14.00" fill="#000000">order_status_id </text>
<text text-anchor="start" x="494.1101" y="-966.9" font-family="Arial" font-size="14.00" fill="#666666">[int(10) unsigned]</text>
<polygon fill="none" stroke="#000000" points="387,-925.5 387,-955.5 609,-955.5 609,-925.5 387,-925.5"/>
<text text-anchor="start" x="394" y="-936.9" font-family="Arial" font-size="14.00" fill="#000000">payment </text>
<text text-anchor="start" x="451.5722" y="-936.9" font-family="Arial" font-size="14.00" fill="#666666">[varchar(255)]</text>
<polygon fill="none" stroke="#000000" points="387,-895.5 387,-925.5 609,-925.5 609,-895.5 387,-895.5"/>
<text text-anchor="start" x="394" y="-906.9" font-family="Arial" font-size="14.00" fill="#000000">discounts </text>
<text text-anchor="start" x="457.0182" y="-906.9" font-family="Arial" font-size="14.00" fill="#666666">[decimal(8,2)]</text>
<polygon fill="none" stroke="#000000" points="387,-865.5 387,-895.5 609,-895.5 609,-865.5 387,-865.5"/>
<text text-anchor="start" x="394" y="-876.9" font-family="Arial" font-size="14.00" fill="#000000">total_products </text>
<text text-anchor="start" x="485.8078" y="-876.9" font-family="Arial" font-size="14.00" fill="#666666">[decimal(8,2)]</text>
<polygon fill="none" stroke="#000000" points="387,-835.5 387,-865.5 609,-865.5 609,-835.5 387,-835.5"/>
<text text-anchor="start" x="394" y="-846.9" font-family="Arial" font-size="14.00" fill="#000000">total_shipping </text>
<text text-anchor="start" x="484.2524" y="-846.9" font-family="Arial" font-size="14.00" fill="#666666">[decimal(8,2)]</text>
<polygon fill="none" stroke="#000000" points="387,-805.5 387,-835.5 609,-835.5 609,-805.5 387,-805.5"/>
<text text-anchor="start" x="394" y="-816.9" font-family="Arial" font-size="14.00" fill="#000000">tax </text>
<text text-anchor="start" x="416.5638" y="-816.9" font-family="Arial" font-size="14.00" fill="#666666">[decimal(8,2)]</text>
<polygon fill="none" stroke="#000000" points="387,-775.5 387,-805.5 609,-805.5 609,-775.5 387,-775.5"/>
<text text-anchor="start" x="394" y="-786.9" font-family="Arial" font-size="14.00" fill="#000000">total </text>
<text text-anchor="start" x="424.3436" y="-786.9" font-family="Arial" font-size="14.00" fill="#666666">[decimal(8,2)]</text>
<polygon fill="none" stroke="#000000" points="387,-745.5 387,-775.5 609,-775.5 609,-745.5 387,-745.5"/>
<text text-anchor="start" x="394" y="-756.9" font-family="Arial" font-size="14.00" fill="#000000">total_paid </text>
<text text-anchor="start" x="458.5806" y="-756.9" font-family="Arial" font-size="14.00" fill="#666666">[decimal(8,2)]</text>
<polygon fill="none" stroke="#000000" points="387,-715.5 387,-745.5 609,-745.5 609,-715.5 387,-715.5"/>
<text text-anchor="start" x="394" y="-726.9" font-family="Arial" font-size="14.00" fill="#000000">invoice </text>
<text text-anchor="start" x="441.4516" y="-726.9" font-family="Arial" font-size="14.00" fill="#666666">[varchar(255)]</text>
<polygon fill="none" stroke="#000000" points="387,-685.5 387,-715.5 609,-715.5 609,-685.5 387,-685.5"/>
<text text-anchor="start" x="394" y="-696.9" font-family="Arial" font-size="14.00" fill="#000000">label_url </text>
<text text-anchor="start" x="450.784" y="-696.9" font-family="Arial" font-size="14.00" fill="#666666">[varchar(255)]</text>
<polygon fill="none" stroke="#000000" points="387,-655.5 387,-685.5 609,-685.5 609,-655.5 387,-655.5"/>
<text text-anchor="start" x="394" y="-666.9" font-family="Arial" font-size="14.00" fill="#000000">tracking_number </text>
<text text-anchor="start" x="502.1304" y="-666.9" font-family="Arial" font-size="14.00" fill="#666666">[varchar(255)]</text>
<polygon fill="none" stroke="#000000" points="387,-625.5 387,-655.5 609,-655.5 609,-625.5 387,-625.5"/>
<text text-anchor="start" x="394" y="-636.9" font-family="Arial" font-size="14.00" fill="#000000">created_at </text>
<text text-anchor="start" x="464.028" y="-636.9" font-family="Arial" font-size="14.00" fill="#666666">[timestamp]</text>
<polygon fill="none" stroke="#000000" points="387,-595.5 387,-625.5 609,-625.5 609,-595.5 387,-595.5"/>
<text text-anchor="start" x="394" y="-606.9" font-family="Arial" font-size="14.00" fill="#000000">updated_at </text>
<text text-anchor="start" x="467.9326" y="-606.9" font-family="Arial" font-size="14.00" fill="#666666">[timestamp]</text>
</g>
<!-- orders&#45;&gt;customers -->
<g id="edge2" class="edge">
<title>orders:customer_id&#45;&gt;customers:id</title>
<path fill="none" stroke="#000000" d="M377.9734,-1025.6468C337.3467,-978.1111 362.8203,-596.4669 387,-553 401.7489,-526.4865 430.2511,-543.5135 445,-517 465.8494,-479.5199 487.8889,-420.5 445,-420.5"/>
<polygon fill="#000000" stroke="#000000" points="378.1923,-1025.7645 384.869,-1034.4635 382.5961,-1028.1322 387,-1030.5 387,-1030.5 387,-1030.5 382.5961,-1028.1322 389.131,-1026.5365 378.1923,-1025.7645 378.1923,-1025.7645"/>
<text text-anchor="start" x="394.278" y="-1040.5" font-family="Arial" font-size="10.00" fill="#000000">FOREIGN KEY (customer_id) REFERENCES customers (id)</text>
</g>
</g>
</svg>
