<?xml version="1.0" encoding="UTF-8" standalone="no"?>
<!DOCTYPE svg PUBLIC "-//W3C//DTD SVG 1.1//EN"
 "http://www.w3.org/Graphics/SVG/1.1/DTD/svg11.dtd">
<!-- Generated by graphviz version 2.40.1 (20161225.0304)
 -->
<!-- Title: employees Pages: 1 -->
<svg width="310pt" height="405pt"
 viewBox="0.00 0.00 310.00 405.00" xmlns="http://www.w3.org/2000/svg" xmlns:xlink="http://www.w3.org/1999/xlink">
<g id="graph0" class="graph" transform="scale(1 1) rotate(0) translate(4 401)">
<title>employees</title>
<polygon fill="#ffffff" stroke="transparent" points="-4,4 -4,-401 306,-401 306,4 -4,4"/>
<!-- employees -->
<g id="node1" class="node">
<title>employees</title>
<polygon fill="#efefef" stroke="transparent" points="46,-315.5 46,-350.5 256,-350.5 256,-315.5 46,-315.5"/>
<polygon fill="none" stroke="#000000" points="46,-315.5 46,-350.5 256,-350.5 256,-315.5 46,-315.5"/>
<text text-anchor="start" x="58.8644" y="-328.3" font-family="Arial Bold" font-size="18.00" fill="#000000">employees</text>
<text text-anchor="start" x="145.8818" y="-328.3" font-family="Arial" font-size="14.00" fill="#000000"> </text>
<text text-anchor="start" x="149.7724" y="-328.3" font-family="Arial" font-size="14.00" fill="#666666">[BASE TABLE]</text>
<polygon fill="none" stroke="#000000" points="46,-285.5 46,-315.5 256,-315.5 256,-285.5 46,-285.5"/>
<text text-anchor="start" x="53" y="-296.9" font-family="Arial" font-size="14.00" fill="#000000">id </text>
<text text-anchor="start" x="67.7798" y="-296.9" font-family="Arial" font-size="14.00" fill="#666666">[int(10) unsigned]</text>
<polygon fill="none" stroke="#000000" points="46,-255.5 46,-285.5 256,-285.5 256,-255.5 46,-255.5"/>
<text text-anchor="start" x="53" y="-266.9" font-family="Arial" font-size="14.00" fill="#000000">name </text>
<text text-anchor="start" x="91.899" y="-266.9" font-family="Arial" font-size="14.00" fill="#666666">[varchar(255)]</text>
<polygon fill="none" stroke="#000000" points="46,-225.5 46,-255.5 256,-255.5 256,-225.5 46,-225.5"/>
<text text-anchor="start" x="53" y="-236.9" font-family="Arial" font-size="14.00" fill="#000000">email </text>
<text text-anchor="start" x="90.3296" y="-236.9" font-family="Arial" font-size="14.00" fill="#666666">[varchar(255)]</text>
<polygon fill="none" stroke="#000000" points="46,-195.5 46,-225.5 256,-225.5 256,-195.5 46,-195.5"/>
<text text-anchor="start" x="53" y="-206.9" font-family="Arial" font-size="14.00" fill="#000000">password </text>
<text text-anchor="start" x="116.7882" y="-206.9" font-family="Arial" font-size="14.00" fill="#666666">[varchar(255)]</text>
<polygon fill="none" stroke="#000000" points="46,-165.5 46,-195.5 256,-195.5 256,-165.5 46,-165.5"/>
<text text-anchor="start" x="53" y="-176.9" font-family="Arial" font-size="14.00" fill="#000000">status </text>
<text text-anchor="start" x="94.237" y="-176.9" font-family="Arial" font-size="14.00" fill="#666666">[int(11)]</text>
<polygon fill="none" stroke="#000000" points="46,-135.5 46,-165.5 256,-165.5 256,-135.5 46,-135.5"/>
<text text-anchor="start" x="53" y="-146.9" font-family="Arial" font-size="14.00" fill="#000000">deleted_at </text>
<text text-anchor="start" x="122.2566" y="-146.9" font-family="Arial" font-size="14.00" fill="#666666">[timestamp]</text>
<polygon fill="none" stroke="#000000" points="46,-105.5 46,-135.5 256,-135.5 256,-105.5 46,-105.5"/>
<text text-anchor="start" x="52.5982" y="-116.9" font-family="Arial" font-size="14.00" fill="#000000">remember_token </text>
<text text-anchor="start" x="162.2826" y="-116.9" font-family="Arial" font-size="14.00" fill="#666666">[varchar(100)]</text>
<polygon fill="none" stroke="#000000" points="46,-75.5 46,-105.5 256,-105.5 256,-75.5 46,-75.5"/>
<text text-anchor="start" x="53" y="-86.9" font-family="Arial" font-size="14.00" fill="#000000">created_at </text>
<text text-anchor="start" x="123.028" y="-86.9" font-family="Arial" font-size="14.00" fill="#666666">[timestamp]</text>
<polygon fill="none" stroke="#000000" points="46,-45.5 46,-75.5 256,-75.5 256,-45.5 46,-45.5"/>
<text text-anchor="start" x="53" y="-56.9" font-family="Arial" font-size="14.00" fill="#000000">updated_at </text>
<text text-anchor="start" x="126.9326" y="-56.9" font-family="Arial" font-size="14.00" fill="#666666">[timestamp]</text>
<polygon fill="none" stroke="#000000" stroke-width="3" points="44.5,-44.5 44.5,-352.5 257.5,-352.5 257.5,-44.5 44.5,-44.5"/>
</g>
</g>
</svg>
