<?xml version="1.0" encoding="UTF-8" standalone="no"?>
<!DOCTYPE svg PUBLIC "-//W3C//DTD SVG 1.1//EN"
 "http://www.w3.org/Graphics/SVG/1.1/DTD/svg11.dtd">
<!-- Generated by graphviz version 2.40.1 (20161225.0304)
 -->
<!-- Title: order_product Pages: 1 -->
<svg width="771pt" height="1132pt"
 viewBox="0.00 0.00 771.00 1132.00" xmlns="http://www.w3.org/2000/svg" xmlns:xlink="http://www.w3.org/1999/xlink">
<g id="graph0" class="graph" transform="scale(1 1) rotate(0) translate(4 1128)">
<title>order_product</title>
<polygon fill="#ffffff" stroke="transparent" points="-4,4 -4,-1128 767,-1128 767,4 -4,4"/>
<!-- order_product -->
<g id="node1" class="node">
<title>order_product</title>
<polygon fill="#efefef" stroke="transparent" points="247,-1042.5 247,-1077.5 496,-1077.5 496,-1042.5 247,-1042.5"/>
<polygon fill="none" stroke="#000000" points="247,-1042.5 247,-1077.5 496,-1077.5 496,-1042.5 247,-1042.5"/>
<text text-anchor="start" x="266.8589" y="-1055.3" font-family="Arial Bold" font-size="18.00" fill="#000000">order_product</text>
<text text-anchor="start" x="378.8873" y="-1055.3" font-family="Arial" font-size="14.00" fill="#000000"> </text>
<text text-anchor="start" x="382.7779" y="-1055.3" font-family="Arial" font-size="14.00" fill="#666666">[BASE TABLE]</text>
<polygon fill="none" stroke="#000000" points="247,-1012.5 247,-1042.5 496,-1042.5 496,-1012.5 247,-1012.5"/>
<text text-anchor="start" x="254" y="-1023.9" font-family="Arial" font-size="14.00" fill="#000000">id </text>
<text text-anchor="start" x="268.7798" y="-1023.9" font-family="Arial" font-size="14.00" fill="#666666">[int(10) unsigned]</text>
<polygon fill="none" stroke="#000000" points="247,-982.5 247,-1012.5 496,-1012.5 496,-982.5 247,-982.5"/>
<text text-anchor="start" x="254" y="-993.9" font-family="Arial" font-size="14.00" fill="#000000">order_id </text>
<text text-anchor="start" x="309.2314" y="-993.9" font-family="Arial" font-size="14.00" fill="#666666">[int(10) unsigned]</text>
<polygon fill="none" stroke="#000000" points="247,-952.5 247,-982.5 496,-982.5 496,-952.5 247,-952.5"/>
<text text-anchor="start" x="254" y="-963.9" font-family="Arial" font-size="14.00" fill="#000000">product_id </text>
<text text-anchor="start" x="323.244" y="-963.9" font-family="Arial" font-size="14.00" fill="#666666">[int(10) unsigned]</text>
<polygon fill="none" stroke="#000000" points="247,-922.5 247,-952.5 496,-952.5 496,-922.5 247,-922.5"/>
<text text-anchor="start" x="253.6319" y="-933.9" font-family="Arial" font-size="14.00" fill="#000000">product_attribute_id </text>
<text text-anchor="start" x="381.2279" y="-933.9" font-family="Arial" font-size="14.00" fill="#666666">[int(10) unsigned]</text>
<polygon fill="none" stroke="#000000" points="247,-892.5 247,-922.5 496,-922.5 496,-892.5 247,-892.5"/>
<text text-anchor="start" x="254" y="-903.9" font-family="Arial" font-size="14.00" fill="#000000">quantity </text>
<text text-anchor="start" x="306.9088" y="-903.9" font-family="Arial" font-size="14.00" fill="#666666">[int(11)]</text>
<polygon fill="none" stroke="#000000" points="247,-862.5 247,-892.5 496,-892.5 496,-862.5 247,-862.5"/>
<text text-anchor="start" x="254" y="-873.9" font-family="Arial" font-size="14.00" fill="#000000">product_name </text>
<text text-anchor="start" x="347.3632" y="-873.9" font-family="Arial" font-size="14.00" fill="#666666">[varchar(255)]</text>
<polygon fill="none" stroke="#000000" points="247,-832.5 247,-862.5 496,-862.5 496,-832.5 247,-832.5"/>
<text text-anchor="start" x="254" y="-843.9" font-family="Arial" font-size="14.00" fill="#000000">product_sku </text>
<text text-anchor="start" x="334.1374" y="-843.9" font-family="Arial" font-size="14.00" fill="#666666">[varchar(255)]</text>
<polygon fill="none" stroke="#000000" points="247,-802.5 247,-832.5 496,-832.5 496,-802.5 247,-802.5"/>
<text text-anchor="start" x="254" y="-813.9" font-family="Arial" font-size="14.00" fill="#000000">product_description </text>
<text text-anchor="start" x="380.0322" y="-813.9" font-family="Arial" font-size="14.00" fill="#666666">[text]</text>
<polygon fill="none" stroke="#000000" points="247,-772.5 247,-802.5 496,-802.5 496,-772.5 247,-772.5"/>
<text text-anchor="start" x="254" y="-783.9" font-family="Arial" font-size="14.00" fill="#000000">product_price </text>
<text text-anchor="start" x="342.6872" y="-783.9" font-family="Arial" font-size="14.00" fill="#666666">[decimal(8,2)]</text>
<polygon fill="none" stroke="#000000" stroke-width="3" points="245,-771.5 245,-1079.5 497,-1079.5 497,-771.5 245,-771.5"/>
</g>
<!-- orders -->
<g id="node2" class="node">
<title>orders</title>
<polygon fill="#efefef" stroke="transparent" points="106,-612.5 106,-647.5 328,-647.5 328,-612.5 106,-612.5"/>
<polygon fill="none" stroke="#000000" points="106,-612.5 106,-647.5 328,-647.5 328,-612.5 106,-612.5"/>
<text text-anchor="start" x="142.8716" y="-625.3" font-family="Arial Bold" font-size="18.00" fill="#000000">orders</text>
<text text-anchor="start" x="193.8746" y="-625.3" font-family="Arial" font-size="14.00" fill="#000000"> </text>
<text text-anchor="start" x="197.7652" y="-625.3" font-family="Arial" font-size="14.00" fill="#666666">[BASE TABLE]</text>
<polygon fill="none" stroke="#000000" points="106,-582.5 106,-612.5 328,-612.5 328,-582.5 106,-582.5"/>
<text text-anchor="start" x="113" y="-593.9" font-family="Arial" font-size="14.00" fill="#000000">id </text>
<text text-anchor="start" x="127.7798" y="-593.9" font-family="Arial" font-size="14.00" fill="#666666">[int(10) unsigned]</text>
<polygon fill="none" stroke="#000000" points="106,-552.5 106,-582.5 328,-582.5 328,-552.5 106,-552.5"/>
<text text-anchor="start" x="113" y="-563.9" font-family="Arial" font-size="14.00" fill="#000000">reference </text>
<text text-anchor="start" x="176.0154" y="-563.9" font-family="Arial" font-size="14.00" fill="#666666">[varchar(255)]</text>
<polygon fill="none" stroke="#000000" points="106,-522.5 106,-552.5 328,-552.5 328,-522.5 106,-522.5"/>
<text text-anchor="start" x="113" y="-533.9" font-family="Arial" font-size="14.00" fill="#000000">courier_id </text>
<text text-anchor="start" x="178.338" y="-533.9" font-family="Arial" font-size="14.00" fill="#666666">[int(10) unsigned]</text>
<polygon fill="none" stroke="#000000" points="106,-492.5 106,-522.5 328,-522.5 328,-492.5 106,-492.5"/>
<text text-anchor="start" x="113" y="-503.9" font-family="Arial" font-size="14.00" fill="#000000">courier </text>
<text text-anchor="start" x="159.6662" y="-503.9" font-family="Arial" font-size="14.00" fill="#666666">[varchar(255)]</text>
<polygon fill="none" stroke="#000000" points="106,-462.5 106,-492.5 328,-492.5 328,-462.5 106,-462.5"/>
<text text-anchor="start" x="113" y="-473.9" font-family="Arial" font-size="14.00" fill="#000000">customer_id </text>
<text text-anchor="start" x="193.122" y="-473.9" font-family="Arial" font-size="14.00" fill="#666666">[int(10) unsigned]</text>
<polygon fill="none" stroke="#000000" points="106,-432.5 106,-462.5 328,-462.5 328,-432.5 106,-432.5"/>
<text text-anchor="start" x="113" y="-443.9" font-family="Arial" font-size="14.00" fill="#000000">address_id </text>
<text text-anchor="start" x="185.3534" y="-443.9" font-family="Arial" font-size="14.00" fill="#666666">[int(10) unsigned]</text>
<polygon fill="none" stroke="#000000" points="106,-402.5 106,-432.5 328,-432.5 328,-402.5 106,-402.5"/>
<text text-anchor="start" x="112.7497" y="-413.9" font-family="Arial" font-size="14.00" fill="#000000">order_status_id </text>
<text text-anchor="start" x="213.1101" y="-413.9" font-family="Arial" font-size="14.00" fill="#666666">[int(10) unsigned]</text>
<polygon fill="none" stroke="#000000" points="106,-372.5 106,-402.5 328,-402.5 328,-372.5 106,-372.5"/>
<text text-anchor="start" x="113" y="-383.9" font-family="Arial" font-size="14.00" fill="#000000">payment </text>
<text text-anchor="start" x="170.5722" y="-383.9" font-family="Arial" font-size="14.00" fill="#666666">[varchar(255)]</text>
<polygon fill="none" stroke="#000000" points="106,-342.5 106,-372.5 328,-372.5 328,-342.5 106,-342.5"/>
<text text-anchor="start" x="113" y="-353.9" font-family="Arial" font-size="14.00" fill="#000000">discounts </text>
<text text-anchor="start" x="176.0182" y="-353.9" font-family="Arial" font-size="14.00" fill="#666666">[decimal(8,2)]</text>
<polygon fill="none" stroke="#000000" points="106,-312.5 106,-342.5 328,-342.5 328,-312.5 106,-312.5"/>
<text text-anchor="start" x="113" y="-323.9" font-family="Arial" font-size="14.00" fill="#000000">total_products </text>
<text text-anchor="start" x="204.8078" y="-323.9" font-family="Arial" font-size="14.00" fill="#666666">[decimal(8,2)]</text>
<polygon fill="none" stroke="#000000" points="106,-282.5 106,-312.5 328,-312.5 328,-282.5 106,-282.5"/>
<text text-anchor="start" x="113" y="-293.9" font-family="Arial" font-size="14.00" fill="#000000">total_shipping </text>
<text text-anchor="start" x="203.2524" y="-293.9" font-family="Arial" font-size="14.00" fill="#666666">[decimal(8,2)]</text>
<polygon fill="none" stroke="#000000" points="106,-252.5 106,-282.5 328,-282.5 328,-252.5 106,-252.5"/>
<text text-anchor="start" x="113" y="-263.9" font-family="Arial" font-size="14.00" fill="#000000">tax </text>
<text text-anchor="start" x="135.5638" y="-263.9" font-family="Arial" font-size="14.00" fill="#666666">[decimal(8,2)]</text>
<polygon fill="none" stroke="#000000" points="106,-222.5 106,-252.5 328,-252.5 328,-222.5 106,-222.5"/>
<text text-anchor="start" x="113" y="-233.9" font-family="Arial" font-size="14.00" fill="#000000">total </text>
<text text-anchor="start" x="143.3436" y="-233.9" font-family="Arial" font-size="14.00" fill="#666666">[decimal(8,2)]</text>
<polygon fill="none" stroke="#000000" points="106,-192.5 106,-222.5 328,-222.5 328,-192.5 106,-192.5"/>
<text text-anchor="start" x="113" y="-203.9" font-family="Arial" font-size="14.00" fill="#000000">total_paid </text>
<text text-anchor="start" x="177.5806" y="-203.9" font-family="Arial" font-size="14.00" fill="#666666">[decimal(8,2)]</text>
<polygon fill="none" stroke="#000000" points="106,-162.5 106,-192.5 328,-192.5 328,-162.5 106,-162.5"/>
<text text-anchor="start" x="113" y="-173.9" font-family="Arial" font-size="14.00" fill="#000000">invoice </text>
<text text-anchor="start" x="160.4516" y="-173.9" font-family="Arial" font-size="14.00" fill="#666666">[varchar(255)]</text>
<polygon fill="none" stroke="#000000" points="106,-132.5 106,-162.5 328,-162.5 328,-132.5 106,-132.5"/>
<text text-anchor="start" x="113" y="-143.9" font-family="Arial" font-size="14.00" fill="#000000">label_url </text>
<text text-anchor="start" x="169.784" y="-143.9" font-family="Arial" font-size="14.00" fill="#666666">[varchar(255)]</text>
<polygon fill="none" stroke="#000000" points="106,-102.5 106,-132.5 328,-132.5 328,-102.5 106,-102.5"/>
<text text-anchor="start" x="113" y="-113.9" font-family="Arial" font-size="14.00" fill="#000000">tracking_number </text>
<text text-anchor="start" x="221.1304" y="-113.9" font-family="Arial" font-size="14.00" fill="#666666">[varchar(255)]</text>
<polygon fill="none" stroke="#000000" points="106,-72.5 106,-102.5 328,-102.5 328,-72.5 106,-72.5"/>
<text text-anchor="start" x="113" y="-83.9" font-family="Arial" font-size="14.00" fill="#000000">created_at </text>
<text text-anchor="start" x="183.028" y="-83.9" font-family="Arial" font-size="14.00" fill="#666666">[timestamp]</text>
<polygon fill="none" stroke="#000000" points="106,-42.5 106,-72.5 328,-72.5 328,-42.5 106,-42.5"/>
<text text-anchor="start" x="113" y="-53.9" font-family="Arial" font-size="14.00" fill="#000000">updated_at </text>
<text text-anchor="start" x="186.9326" y="-53.9" font-family="Arial" font-size="14.00" fill="#666666">[timestamp]</text>
</g>
<!-- order_product&#45;&gt;orders -->
<g id="edge1" class="edge">
<title>order_product:order_id&#45;&gt;orders:id</title>
<path fill="none" stroke="#000000" d="M236.8799,-997.069C129.9928,-987.6161 183.4085,-824.8521 247,-727 268.4671,-693.9672 306.5329,-724.0328 328,-691 350.6442,-656.156 369.5556,-597.5 328,-597.5"/>
<polygon fill="#000000" stroke="#000000" points="237.0091,-997.0745 246.8085,-1001.9959 242.0045,-997.2872 247,-997.5 247,-997.5 247,-997.5 242.0045,-997.2872 247.1915,-993.0041 237.0091,-997.0745 237.0091,-997.0745"/>
<text text-anchor="start" x="7.057" y="-1007.5" font-family="Arial" font-size="10.00" fill="#000000">FOREIGN KEY (order_id) REFERENCES orders (id)</text>
</g>
<!-- products -->
<g id="node3" class="node">
<title>products</title>
<polygon fill="#efefef" stroke="transparent" points="433,-612.5 433,-647.5 620,-647.5 620,-612.5 433,-612.5"/>
<polygon fill="none" stroke="#000000" points="433,-612.5 433,-647.5 620,-647.5 620,-612.5 433,-612.5"/>
<text text-anchor="start" x="443.3635" y="-625.3" font-family="Arial Bold" font-size="18.00" fill="#000000">products</text>
<text text-anchor="start" x="512.3827" y="-625.3" font-family="Arial" font-size="14.00" fill="#000000"> </text>
<text text-anchor="start" x="516.2733" y="-625.3" font-family="Arial" font-size="14.00" fill="#666666">[BASE TABLE]</text>
<polygon fill="none" stroke="#000000" points="433,-582.5 433,-612.5 620,-612.5 620,-582.5 433,-582.5"/>
<text text-anchor="start" x="440" y="-593.9" font-family="Arial" font-size="14.00" fill="#000000">id </text>
<text text-anchor="start" x="454.7798" y="-593.9" font-family="Arial" font-size="14.00" fill="#666666">[int(10) unsigned]</text>
<polygon fill="none" stroke="#000000" points="433,-552.5 433,-582.5 620,-582.5 620,-552.5 433,-552.5"/>
<text text-anchor="start" x="440" y="-563.9" font-family="Arial" font-size="14.00" fill="#000000">brand_id </text>
<text text-anchor="start" x="498.3534" y="-563.9" font-family="Arial" font-size="14.00" fill="#666666">[int(10) unsigned]</text>
<polygon fill="none" stroke="#000000" points="433,-522.5 433,-552.5 620,-552.5 620,-522.5 433,-522.5"/>
<text text-anchor="start" x="440" y="-533.9" font-family="Arial" font-size="14.00" fill="#000000">sku </text>
<text text-anchor="start" x="465.6732" y="-533.9" font-family="Arial" font-size="14.00" fill="#666666">[varchar(255)]</text>
<polygon fill="none" stroke="#000000" points="433,-492.5 433,-522.5 620,-522.5 620,-492.5 433,-492.5"/>
<text text-anchor="start" x="440" y="-503.9" font-family="Arial" font-size="14.00" fill="#000000">name </text>
<text text-anchor="start" x="478.899" y="-503.9" font-family="Arial" font-size="14.00" fill="#666666">[varchar(255)]</text>
<polygon fill="none" stroke="#000000" points="433,-462.5 433,-492.5 620,-492.5 620,-462.5 433,-462.5"/>
<text text-anchor="start" x="440" y="-473.9" font-family="Arial" font-size="14.00" fill="#000000">slug </text>
<text text-anchor="start" x="469.5624" y="-473.9" font-family="Arial" font-size="14.00" fill="#666666">[varchar(255)]</text>
<polygon fill="none" stroke="#000000" points="433,-432.5 433,-462.5 620,-462.5 620,-432.5 433,-432.5"/>
<text text-anchor="start" x="440" y="-443.9" font-family="Arial" font-size="14.00" fill="#000000">description </text>
<text text-anchor="start" x="511.568" y="-443.9" font-family="Arial" font-size="14.00" fill="#666666">[text]</text>
<polygon fill="none" stroke="#000000" points="433,-402.5 433,-432.5 620,-432.5 620,-402.5 433,-402.5"/>
<text text-anchor="start" x="440" y="-413.9" font-family="Arial" font-size="14.00" fill="#000000">cover </text>
<text text-anchor="start" x="478.1164" y="-413.9" font-family="Arial" font-size="14.00" fill="#666666">[varchar(255)]</text>
<polygon fill="none" stroke="#000000" points="433,-372.5 433,-402.5 620,-402.5 620,-372.5 433,-372.5"/>
<text text-anchor="start" x="440" y="-383.9" font-family="Arial" font-size="14.00" fill="#000000">quantity </text>
<text text-anchor="start" x="492.9088" y="-383.9" font-family="Arial" font-size="14.00" fill="#666666">[int(11)]</text>
<polygon fill="none" stroke="#000000" points="433,-342.5 433,-372.5 620,-372.5 620,-342.5 433,-342.5"/>
<text text-anchor="start" x="440" y="-353.9" font-family="Arial" font-size="14.00" fill="#000000">price </text>
<text text-anchor="start" x="474.223" y="-353.9" font-family="Arial" font-size="14.00" fill="#666666">[decimal(8,2)]</text>
<polygon fill="none" stroke="#000000" points="433,-312.5 433,-342.5 620,-342.5 620,-312.5 433,-312.5"/>
<text text-anchor="start" x="440" y="-323.9" font-family="Arial" font-size="14.00" fill="#000000">sale_price </text>
<text text-anchor="start" x="507.6774" y="-323.9" font-family="Arial" font-size="14.00" fill="#666666">[decimal(8,2)]</text>
<polygon fill="none" stroke="#000000" points="433,-282.5 433,-312.5 620,-312.5 620,-282.5 433,-282.5"/>
<text text-anchor="start" x="440" y="-293.9" font-family="Arial" font-size="14.00" fill="#000000">status </text>
<text text-anchor="start" x="481.237" y="-293.9" font-family="Arial" font-size="14.00" fill="#666666">[int(11)]</text>
<polygon fill="none" stroke="#000000" points="433,-252.5 433,-282.5 620,-282.5 620,-252.5 433,-252.5"/>
<text text-anchor="start" x="440" y="-263.9" font-family="Arial" font-size="14.00" fill="#000000">length </text>
<text text-anchor="start" x="482.0182" y="-263.9" font-family="Arial" font-size="14.00" fill="#666666">[decimal(8,2)]</text>
<polygon fill="none" stroke="#000000" points="433,-222.5 433,-252.5 620,-252.5 620,-222.5 433,-222.5"/>
<text text-anchor="start" x="440" y="-233.9" font-family="Arial" font-size="14.00" fill="#000000">width </text>
<text text-anchor="start" x="476.5596" y="-233.9" font-family="Arial" font-size="14.00" fill="#666666">[decimal(8,2)]</text>
<polygon fill="none" stroke="#000000" points="433,-192.5 433,-222.5 620,-222.5 620,-192.5 433,-192.5"/>
<text text-anchor="start" x="440" y="-203.9" font-family="Arial" font-size="14.00" fill="#000000">height </text>
<text text-anchor="start" x="482.0182" y="-203.9" font-family="Arial" font-size="14.00" fill="#666666">[decimal(8,2)]</text>
<polygon fill="none" stroke="#000000" points="433,-162.5 433,-192.5 620,-192.5 620,-162.5 433,-162.5"/>
<text text-anchor="start" x="439.7588" y="-173.9" font-family="Arial" font-size="14.00" fill="#000000">distance_unit </text>
<text text-anchor="start" x="526.122" y="-173.9" font-family="Arial" font-size="14.00" fill="#666666">[varchar(255)]</text>
<polygon fill="none" stroke="#000000" points="433,-132.5 433,-162.5 620,-162.5 620,-132.5 433,-132.5"/>
<text text-anchor="start" x="440" y="-143.9" font-family="Arial" font-size="14.00" fill="#000000">weight </text>
<text text-anchor="start" x="484.3422" y="-143.9" font-family="Arial" font-size="14.00" fill="#666666">[decimal(8,2)]</text>
<polygon fill="none" stroke="#000000" points="433,-102.5 433,-132.5 620,-132.5 620,-102.5 433,-102.5"/>
<text text-anchor="start" x="440" y="-113.9" font-family="Arial" font-size="14.00" fill="#000000">mass_unit </text>
<text text-anchor="start" x="507.6788" y="-113.9" font-family="Arial" font-size="14.00" fill="#666666">[varchar(255)]</text>
<polygon fill="none" stroke="#000000" points="433,-72.5 433,-102.5 620,-102.5 620,-72.5 433,-72.5"/>
<text text-anchor="start" x="440" y="-83.9" font-family="Arial" font-size="14.00" fill="#000000">created_at </text>
<text text-anchor="start" x="510.028" y="-83.9" font-family="Arial" font-size="14.00" fill="#666666">[timestamp]</text>
<polygon fill="none" stroke="#000000" points="433,-42.5 433,-72.5 620,-72.5 620,-42.5 433,-42.5"/>
<text text-anchor="start" x="440" y="-53.9" font-family="Arial" font-size="14.00" fill="#000000">updated_at </text>
<text text-anchor="start" x="513.9326" y="-53.9" font-family="Arial" font-size="14.00" fill="#666666">[timestamp]</text>
</g>
<!-- order_product&#45;&gt;products -->
<g id="edge2" class="edge">
<title>order_product:product_id&#45;&gt;products:id</title>
<path fill="none" stroke="#000000" d="M506.1234,-967.0178C599.3531,-957.7298 547.869,-816.3797 496,-727 479.8133,-699.1075 449.1867,-718.8925 433,-691 412.1422,-655.0582 391.4444,-597.5 433,-597.5"/>
<polygon fill="#000000" stroke="#000000" points="505.9887,-967.0241 495.7859,-963.0051 500.9943,-967.2621 496,-967.5 496,-967.5 496,-967.5 500.9943,-967.2621 496.2141,-971.9949 505.9887,-967.0241 505.9887,-967.0241"/>
<text text-anchor="start" x="503.048" y="-977.5" font-family="Arial" font-size="10.00" fill="#000000">FOREIGN KEY (product_id) REFERENCES products (id)</text>
</g>
</g>
</svg>
