<?xml version="1.0" encoding="UTF-8" standalone="no"?>
<!DOCTYPE svg PUBLIC "-//W3C//DTD SVG 1.1//EN"
 "http://www.w3.org/Graphics/SVG/1.1/DTD/svg11.dtd">
<!-- Generated by graphviz version 2.40.1 (20161225.0304)
 -->
<!-- Title: orders Pages: 1 -->
<svg width="1224pt" height="1739pt"
 viewBox="0.00 0.00 1223.50 1739.00" xmlns="http://www.w3.org/2000/svg" xmlns:xlink="http://www.w3.org/1999/xlink">
<g id="graph0" class="graph" transform="scale(1 1) rotate(0) translate(4 1735)">
<title>orders</title>
<polygon fill="#ffffff" stroke="transparent" points="-4,4 -4,-1735 1219.5,-1735 1219.5,4 -4,4"/>
<!-- orders -->
<g id="node1" class="node">
<title>orders</title>
<polygon fill="#efefef" stroke="transparent" points="471.5,-1222.5 471.5,-1257.5 693.5,-1257.5 693.5,-1222.5 471.5,-1222.5"/>
<polygon fill="none" stroke="#000000" points="471.5,-1222.5 471.5,-1257.5 693.5,-1257.5 693.5,-1222.5 471.5,-1222.5"/>
<text text-anchor="start" x="508.3716" y="-1235.3" font-family="Arial Bold" font-size="18.00" fill="#000000">orders</text>
<text text-anchor="start" x="559.3746" y="-1235.3" font-family="Arial" font-size="14.00" fill="#000000"> </text>
<text text-anchor="start" x="563.2652" y="-1235.3" font-family="Arial" font-size="14.00" fill="#666666">[BASE TABLE]</text>
<polygon fill="none" stroke="#000000" points="471.5,-1192.5 471.5,-1222.5 693.5,-1222.5 693.5,-1192.5 471.5,-1192.5"/>
<text text-anchor="start" x="478.5" y="-1203.9" font-family="Arial" font-size="14.00" fill="#000000">id </text>
<text text-anchor="start" x="493.2798" y="-1203.9" font-family="Arial" font-size="14.00" fill="#666666">[int(10) unsigned]</text>
<polygon fill="none" stroke="#000000" points="471.5,-1162.5 471.5,-1192.5 693.5,-1192.5 693.5,-1162.5 471.5,-1162.5"/>
<text text-anchor="start" x="478.5" y="-1173.9" font-family="Arial" font-size="14.00" fill="#000000">reference </text>
<text text-anchor="start" x="541.5154" y="-1173.9" font-family="Arial" font-size="14.00" fill="#666666">[varchar(255)]</text>
<polygon fill="none" stroke="#000000" points="471.5,-1132.5 471.5,-1162.5 693.5,-1162.5 693.5,-1132.5 471.5,-1132.5"/>
<text text-anchor="start" x="478.5" y="-1143.9" font-family="Arial" font-size="14.00" fill="#000000">courier_id </text>
<text text-anchor="start" x="543.838" y="-1143.9" font-family="Arial" font-size="14.00" fill="#666666">[int(10) unsigned]</text>
<polygon fill="none" stroke="#000000" points="471.5,-1102.5 471.5,-1132.5 693.5,-1132.5 693.5,-1102.5 471.5,-1102.5"/>
<text text-anchor="start" x="478.5" y="-1113.9" font-family="Arial" font-size="14.00" fill="#000000">courier </text>
<text text-anchor="start" x="525.1662" y="-1113.9" font-family="Arial" font-size="14.00" fill="#666666">[varchar(255)]</text>
<polygon fill="none" stroke="#000000" points="471.5,-1072.5 471.5,-1102.5 693.5,-1102.5 693.5,-1072.5 471.5,-1072.5"/>
<text text-anchor="start" x="478.5" y="-1083.9" font-family="Arial" font-size="14.00" fill="#000000">customer_id </text>
<text text-anchor="start" x="558.622" y="-1083.9" font-family="Arial" font-size="14.00" fill="#666666">[int(10) unsigned]</text>
<polygon fill="none" stroke="#000000" points="471.5,-1042.5 471.5,-1072.5 693.5,-1072.5 693.5,-1042.5 471.5,-1042.5"/>
<text text-anchor="start" x="478.5" y="-1053.9" font-family="Arial" font-size="14.00" fill="#000000">address_id </text>
<text text-anchor="start" x="550.8534" y="-1053.9" font-family="Arial" font-size="14.00" fill="#666666">[int(10) unsigned]</text>
<polygon fill="none" stroke="#000000" points="471.5,-1012.5 471.5,-1042.5 693.5,-1042.5 693.5,-1012.5 471.5,-1012.5"/>
<text text-anchor="start" x="478.2497" y="-1023.9" font-family="Arial" font-size="14.00" fill="#000000">order_status_id </text>
<text text-anchor="start" x="578.6101" y="-1023.9" font-family="Arial" font-size="14.00" fill="#666666">[int(10) unsigned]</text>
<polygon fill="none" stroke="#000000" points="471.5,-982.5 471.5,-1012.5 693.5,-1012.5 693.5,-982.5 471.5,-982.5"/>
<text text-anchor="start" x="478.5" y="-993.9" font-family="Arial" font-size="14.00" fill="#000000">payment </text>
<text text-anchor="start" x="536.0722" y="-993.9" font-family="Arial" font-size="14.00" fill="#666666">[varchar(255)]</text>
<polygon fill="none" stroke="#000000" points="471.5,-952.5 471.5,-982.5 693.5,-982.5 693.5,-952.5 471.5,-952.5"/>
<text text-anchor="start" x="478.5" y="-963.9" font-family="Arial" font-size="14.00" fill="#000000">discounts </text>
<text text-anchor="start" x="541.5182" y="-963.9" font-family="Arial" font-size="14.00" fill="#666666">[decimal(8,2)]</text>
<polygon fill="none" stroke="#000000" points="471.5,-922.5 471.5,-952.5 693.5,-952.5 693.5,-922.5 471.5,-922.5"/>
<text text-anchor="start" x="478.5" y="-933.9" font-family="Arial" font-size="14.00" fill="#000000">total_products </text>
<text text-anchor="start" x="570.3078" y="-933.9" font-family="Arial" font-size="14.00" fill="#666666">[decimal(8,2)]</text>
<polygon fill="none" stroke="#000000" points="471.5,-892.5 471.5,-922.5 693.5,-922.5 693.5,-892.5 471.5,-892.5"/>
<text text-anchor="start" x="478.5" y="-903.9" font-family="Arial" font-size="14.00" fill="#000000">total_shipping </text>
<text text-anchor="start" x="568.7524" y="-903.9" font-family="Arial" font-size="14.00" fill="#666666">[decimal(8,2)]</text>
<polygon fill="none" stroke="#000000" points="471.5,-862.5 471.5,-892.5 693.5,-892.5 693.5,-862.5 471.5,-862.5"/>
<text text-anchor="start" x="478.5" y="-873.9" font-family="Arial" font-size="14.00" fill="#000000">tax </text>
<text text-anchor="start" x="501.0638" y="-873.9" font-family="Arial" font-size="14.00" fill="#666666">[decimal(8,2)]</text>
<polygon fill="none" stroke="#000000" points="471.5,-832.5 471.5,-862.5 693.5,-862.5 693.5,-832.5 471.5,-832.5"/>
<text text-anchor="start" x="478.5" y="-843.9" font-family="Arial" font-size="14.00" fill="#000000">total </text>
<text text-anchor="start" x="508.8436" y="-843.9" font-family="Arial" font-size="14.00" fill="#666666">[decimal(8,2)]</text>
<polygon fill="none" stroke="#000000" points="471.5,-802.5 471.5,-832.5 693.5,-832.5 693.5,-802.5 471.5,-802.5"/>
<text text-anchor="start" x="478.5" y="-813.9" font-family="Arial" font-size="14.00" fill="#000000">total_paid </text>
<text text-anchor="start" x="543.0806" y="-813.9" font-family="Arial" font-size="14.00" fill="#666666">[decimal(8,2)]</text>
<polygon fill="none" stroke="#000000" points="471.5,-772.5 471.5,-802.5 693.5,-802.5 693.5,-772.5 471.5,-772.5"/>
<text text-anchor="start" x="478.5" y="-783.9" font-family="Arial" font-size="14.00" fill="#000000">invoice </text>
<text text-anchor="start" x="525.9516" y="-783.9" font-family="Arial" font-size="14.00" fill="#666666">[varchar(255)]</text>
<polygon fill="none" stroke="#000000" points="471.5,-742.5 471.5,-772.5 693.5,-772.5 693.5,-742.5 471.5,-742.5"/>
<text text-anchor="start" x="478.5" y="-753.9" font-family="Arial" font-size="14.00" fill="#000000">label_url </text>
<text text-anchor="start" x="535.284" y="-753.9" font-family="Arial" font-size="14.00" fill="#666666">[varchar(255)]</text>
<polygon fill="none" stroke="#000000" points="471.5,-712.5 471.5,-742.5 693.5,-742.5 693.5,-712.5 471.5,-712.5"/>
<text text-anchor="start" x="478.5" y="-723.9" font-family="Arial" font-size="14.00" fill="#000000">tracking_number </text>
<text text-anchor="start" x="586.6304" y="-723.9" font-family="Arial" font-size="14.00" fill="#666666">[varchar(255)]</text>
<polygon fill="none" stroke="#000000" points="471.5,-682.5 471.5,-712.5 693.5,-712.5 693.5,-682.5 471.5,-682.5"/>
<text text-anchor="start" x="478.5" y="-693.9" font-family="Arial" font-size="14.00" fill="#000000">created_at </text>
<text text-anchor="start" x="548.528" y="-693.9" font-family="Arial" font-size="14.00" fill="#666666">[timestamp]</text>
<polygon fill="none" stroke="#000000" points="471.5,-652.5 471.5,-682.5 693.5,-682.5 693.5,-652.5 471.5,-652.5"/>
<text text-anchor="start" x="478.5" y="-663.9" font-family="Arial" font-size="14.00" fill="#000000">updated_at </text>
<text text-anchor="start" x="552.4326" y="-663.9" font-family="Arial" font-size="14.00" fill="#666666">[timestamp]</text>
<polygon fill="none" stroke="#000000" stroke-width="3" points="470,-651.5 470,-1259.5 695,-1259.5 695,-651.5 470,-651.5"/>
</g>
<!-- couriers -->
<g id="node3" class="node">
<title>couriers</title>
<polygon fill="#efefef" stroke="transparent" points="43.5,-402.5 43.5,-437.5 218.5,-437.5 218.5,-402.5 43.5,-402.5"/>
<polygon fill="none" stroke="#000000" points="43.5,-402.5 43.5,-437.5 218.5,-437.5 218.5,-402.5 43.5,-402.5"/>
<text text-anchor="start" x="50.3745" y="-415.3" font-family="Arial Bold" font-size="18.00" fill="#000000">couriers</text>
<text text-anchor="start" x="114.3717" y="-415.3" font-family="Arial" font-size="14.00" fill="#000000"> </text>
<text text-anchor="start" x="118.2623" y="-415.3" font-family="Arial" font-size="14.00" fill="#666666">[BASE TABLE]</text>
<polygon fill="none" stroke="#000000" points="43.5,-372.5 43.5,-402.5 218.5,-402.5 218.5,-372.5 43.5,-372.5"/>
<text text-anchor="start" x="50.5" y="-383.9" font-family="Arial" font-size="14.00" fill="#000000">id </text>
<text text-anchor="start" x="65.2798" y="-383.9" font-family="Arial" font-size="14.00" fill="#666666">[int(10) unsigned]</text>
<polygon fill="none" stroke="#000000" points="43.5,-342.5 43.5,-372.5 218.5,-372.5 218.5,-342.5 43.5,-342.5"/>
<text text-anchor="start" x="50.5" y="-353.9" font-family="Arial" font-size="14.00" fill="#000000">name </text>
<text text-anchor="start" x="89.399" y="-353.9" font-family="Arial" font-size="14.00" fill="#666666">[varchar(255)]</text>
<polygon fill="none" stroke="#000000" points="43.5,-312.5 43.5,-342.5 218.5,-342.5 218.5,-312.5 43.5,-312.5"/>
<text text-anchor="start" x="50.5" y="-323.9" font-family="Arial" font-size="14.00" fill="#000000">description </text>
<text text-anchor="start" x="122.068" y="-323.9" font-family="Arial" font-size="14.00" fill="#666666">[text]</text>
<polygon fill="none" stroke="#000000" points="43.5,-282.5 43.5,-312.5 218.5,-312.5 218.5,-282.5 43.5,-282.5"/>
<text text-anchor="start" x="50.5" y="-293.9" font-family="Arial" font-size="14.00" fill="#000000">url </text>
<text text-anchor="start" x="69.9404" y="-293.9" font-family="Arial" font-size="14.00" fill="#666666">[varchar(255)]</text>
<polygon fill="none" stroke="#000000" points="43.5,-252.5 43.5,-282.5 218.5,-282.5 218.5,-252.5 43.5,-252.5"/>
<text text-anchor="start" x="50.5" y="-263.9" font-family="Arial" font-size="14.00" fill="#000000">is_free </text>
<text text-anchor="start" x="96.3962" y="-263.9" font-family="Arial" font-size="14.00" fill="#666666">[int(11)]</text>
<polygon fill="none" stroke="#000000" points="43.5,-222.5 43.5,-252.5 218.5,-252.5 218.5,-222.5 43.5,-222.5"/>
<text text-anchor="start" x="50.5" y="-233.9" font-family="Arial" font-size="14.00" fill="#000000">cost </text>
<text text-anchor="start" x="80.0638" y="-233.9" font-family="Arial" font-size="14.00" fill="#666666">[decimal(8,2)]</text>
<polygon fill="none" stroke="#000000" points="43.5,-192.5 43.5,-222.5 218.5,-222.5 218.5,-192.5 43.5,-192.5"/>
<text text-anchor="start" x="50.5" y="-203.9" font-family="Arial" font-size="14.00" fill="#000000">status </text>
<text text-anchor="start" x="91.737" y="-203.9" font-family="Arial" font-size="14.00" fill="#666666">[int(11)]</text>
<polygon fill="none" stroke="#000000" points="43.5,-162.5 43.5,-192.5 218.5,-192.5 218.5,-162.5 43.5,-162.5"/>
<text text-anchor="start" x="50.5" y="-173.9" font-family="Arial" font-size="14.00" fill="#000000">created_at </text>
<text text-anchor="start" x="120.528" y="-173.9" font-family="Arial" font-size="14.00" fill="#666666">[timestamp]</text>
<polygon fill="none" stroke="#000000" points="43.5,-132.5 43.5,-162.5 218.5,-162.5 218.5,-132.5 43.5,-132.5"/>
<text text-anchor="start" x="50.5" y="-143.9" font-family="Arial" font-size="14.00" fill="#000000">updated_at </text>
<text text-anchor="start" x="124.4326" y="-143.9" font-family="Arial" font-size="14.00" fill="#666666">[timestamp]</text>
</g>
<!-- orders&#45;&gt;couriers -->
<g id="edge2" class="edge">
<title>orders:courier_id&#45;&gt;couriers:id</title>
<path fill="none" stroke="#000000" d="M461.3688,-1147.3471C203.9738,-1139.4419 351.1562,-826.4745 270.5,-571 244.9798,-490.1659 303.2669,-387.5 218.5,-387.5"/>
<polygon fill="#000000" stroke="#000000" points="461.5011,-1147.349 471.4321,-1151.9995 466.5006,-1147.4245 471.5,-1147.5 471.5,-1147.5 471.5,-1147.5 466.5006,-1147.4245 471.5679,-1143.0005 461.5011,-1147.349 461.5011,-1147.349"/>
<text text-anchor="start" x="216.338" y="-1157.5" font-family="Arial" font-size="10.00" fill="#000000">FOREIGN KEY (courier_id) REFERENCES couriers (id)</text>
</g>
<!-- customers -->
<g id="node4" class="node">
<title>customers</title>
<polygon fill="#efefef" stroke="transparent" points="322.5,-462.5 322.5,-497.5 532.5,-497.5 532.5,-462.5 322.5,-462.5"/>
<polygon fill="none" stroke="#000000" points="322.5,-462.5 322.5,-497.5 532.5,-497.5 532.5,-462.5 322.5,-462.5"/>
<text text-anchor="start" x="337.3705" y="-475.3" font-family="Arial Bold" font-size="18.00" fill="#000000">customers</text>
<text text-anchor="start" x="420.3757" y="-475.3" font-family="Arial" font-size="14.00" fill="#000000"> </text>
<text text-anchor="start" x="424.2663" y="-475.3" font-family="Arial" font-size="14.00" fill="#666666">[BASE TABLE]</text>
<polygon fill="none" stroke="#000000" points="322.5,-432.5 322.5,-462.5 532.5,-462.5 532.5,-432.5 322.5,-432.5"/>
<text text-anchor="start" x="329.5" y="-443.9" font-family="Arial" font-size="14.00" fill="#000000">id </text>
<text text-anchor="start" x="344.2798" y="-443.9" font-family="Arial" font-size="14.00" fill="#666666">[int(10) unsigned]</text>
<polygon fill="none" stroke="#000000" points="322.5,-402.5 322.5,-432.5 532.5,-432.5 532.5,-402.5 322.5,-402.5"/>
<text text-anchor="start" x="329.5" y="-413.9" font-family="Arial" font-size="14.00" fill="#000000">name </text>
<text text-anchor="start" x="368.399" y="-413.9" font-family="Arial" font-size="14.00" fill="#666666">[varchar(255)]</text>
<polygon fill="none" stroke="#000000" points="322.5,-372.5 322.5,-402.5 532.5,-402.5 532.5,-372.5 322.5,-372.5"/>
<text text-anchor="start" x="329.5" y="-383.9" font-family="Arial" font-size="14.00" fill="#000000">email </text>
<text text-anchor="start" x="366.8296" y="-383.9" font-family="Arial" font-size="14.00" fill="#666666">[varchar(255)]</text>
<polygon fill="none" stroke="#000000" points="322.5,-342.5 322.5,-372.5 532.5,-372.5 532.5,-342.5 322.5,-342.5"/>
<text text-anchor="start" x="329.5" y="-353.9" font-family="Arial" font-size="14.00" fill="#000000">password </text>
<text text-anchor="start" x="393.2882" y="-353.9" font-family="Arial" font-size="14.00" fill="#666666">[varchar(255)]</text>
<polygon fill="none" stroke="#000000" points="322.5,-312.5 322.5,-342.5 532.5,-342.5 532.5,-312.5 322.5,-312.5"/>
<text text-anchor="start" x="329.5" y="-323.9" font-family="Arial" font-size="14.00" fill="#000000">status </text>
<text text-anchor="start" x="370.737" y="-323.9" font-family="Arial" font-size="14.00" fill="#666666">[int(11)]</text>
<polygon fill="none" stroke="#000000" points="322.5,-282.5 322.5,-312.5 532.5,-312.5 532.5,-282.5 322.5,-282.5"/>
<text text-anchor="start" x="329.5" y="-293.9" font-family="Arial" font-size="14.00" fill="#000000">stripe_id </text>
<text text-anchor="start" x="386.2854" y="-293.9" font-family="Arial" font-size="14.00" fill="#666666">[varchar(255)]</text>
<polygon fill="none" stroke="#000000" points="322.5,-252.5 322.5,-282.5 532.5,-282.5 532.5,-252.5 322.5,-252.5"/>
<text text-anchor="start" x="329.5" y="-263.9" font-family="Arial" font-size="14.00" fill="#000000">card_brand </text>
<text text-anchor="start" x="404.19" y="-263.9" font-family="Arial" font-size="14.00" fill="#666666">[varchar(255)]</text>
<polygon fill="none" stroke="#000000" points="322.5,-222.5 322.5,-252.5 532.5,-252.5 532.5,-222.5 322.5,-222.5"/>
<text text-anchor="start" x="329.5" y="-233.9" font-family="Arial" font-size="14.00" fill="#000000">card_last_four </text>
<text text-anchor="start" x="422.0778" y="-233.9" font-family="Arial" font-size="14.00" fill="#666666">[varchar(255)]</text>
<polygon fill="none" stroke="#000000" points="322.5,-192.5 322.5,-222.5 532.5,-222.5 532.5,-192.5 322.5,-192.5"/>
<text text-anchor="start" x="329.5" y="-203.9" font-family="Arial" font-size="14.00" fill="#000000">trial_ends_at </text>
<text text-anchor="start" x="413.5238" y="-203.9" font-family="Arial" font-size="14.00" fill="#666666">[timestamp]</text>
<polygon fill="none" stroke="#000000" points="322.5,-162.5 322.5,-192.5 532.5,-192.5 532.5,-162.5 322.5,-162.5"/>
<text text-anchor="start" x="329.5" y="-173.9" font-family="Arial" font-size="14.00" fill="#000000">deleted_at </text>
<text text-anchor="start" x="398.7566" y="-173.9" font-family="Arial" font-size="14.00" fill="#666666">[timestamp]</text>
<polygon fill="none" stroke="#000000" points="322.5,-132.5 322.5,-162.5 532.5,-162.5 532.5,-132.5 322.5,-132.5"/>
<text text-anchor="start" x="329.0982" y="-143.9" font-family="Arial" font-size="14.00" fill="#000000">remember_token </text>
<text text-anchor="start" x="438.7826" y="-143.9" font-family="Arial" font-size="14.00" fill="#666666">[varchar(100)]</text>
<polygon fill="none" stroke="#000000" points="322.5,-102.5 322.5,-132.5 532.5,-132.5 532.5,-102.5 322.5,-102.5"/>
<text text-anchor="start" x="329.5" y="-113.9" font-family="Arial" font-size="14.00" fill="#000000">created_at </text>
<text text-anchor="start" x="399.528" y="-113.9" font-family="Arial" font-size="14.00" fill="#666666">[timestamp]</text>
<polygon fill="none" stroke="#000000" points="322.5,-72.5 322.5,-102.5 532.5,-102.5 532.5,-72.5 322.5,-72.5"/>
<text text-anchor="start" x="329.5" y="-83.9" font-family="Arial" font-size="14.00" fill="#000000">updated_at </text>
<text text-anchor="start" x="403.4326" y="-83.9" font-family="Arial" font-size="14.00" fill="#666666">[timestamp]</text>
</g>
<!-- orders&#45;&gt;customers -->
<g id="edge3" class="edge">
<title>orders:customer_id&#45;&gt;customers:id</title>
<path fill="none" stroke="#000000" d="M461.4471,-1087.2822C262.3035,-1078.4455 394.9273,-802.6648 471.5,-607 486.0566,-569.8037 517.9434,-578.1963 532.5,-541 547.6442,-502.3022 574.0556,-447.5 532.5,-447.5"/>
<polygon fill="#000000" stroke="#000000" points="461.5023,-1087.2833 471.4025,-1091.9989 466.5012,-1087.3916 471.5,-1087.5 471.5,-1087.5 471.5,-1087.5 466.5012,-1087.3916 471.5975,-1083.0011 461.5023,-1087.2833 461.5023,-1087.2833"/>
<text text-anchor="start" x="195.778" y="-1097.5" font-family="Arial" font-size="10.00" fill="#000000">FOREIGN KEY (customer_id) REFERENCES customers (id)</text>
</g>
<!-- addresses -->
<g id="node5" class="node">
<title>addresses</title>
<polygon fill="#efefef" stroke="transparent" points="636.5,-492.5 636.5,-527.5 838.5,-527.5 838.5,-492.5 636.5,-492.5"/>
<polygon fill="none" stroke="#000000" points="636.5,-492.5 636.5,-527.5 838.5,-527.5 838.5,-492.5 636.5,-492.5"/>
<text text-anchor="start" x="647.3615" y="-505.3" font-family="Arial Bold" font-size="18.00" fill="#000000">addresses</text>
<text text-anchor="start" x="730.3847" y="-505.3" font-family="Arial" font-size="14.00" fill="#000000"> </text>
<text text-anchor="start" x="734.2753" y="-505.3" font-family="Arial" font-size="14.00" fill="#666666">[BASE TABLE]</text>
<polygon fill="none" stroke="#000000" points="636.5,-462.5 636.5,-492.5 838.5,-492.5 838.5,-462.5 636.5,-462.5"/>
<text text-anchor="start" x="643.5" y="-473.9" font-family="Arial" font-size="14.00" fill="#000000">id </text>
<text text-anchor="start" x="658.2798" y="-473.9" font-family="Arial" font-size="14.00" fill="#666666">[int(10) unsigned]</text>
<polygon fill="none" stroke="#000000" points="636.5,-432.5 636.5,-462.5 838.5,-462.5 838.5,-432.5 636.5,-432.5"/>
<text text-anchor="start" x="643.5" y="-443.9" font-family="Arial" font-size="14.00" fill="#000000">alias </text>
<text text-anchor="start" x="676.169" y="-443.9" font-family="Arial" font-size="14.00" fill="#666666">[varchar(255)]</text>
<polygon fill="none" stroke="#000000" points="636.5,-402.5 636.5,-432.5 838.5,-432.5 838.5,-402.5 636.5,-402.5"/>
<text text-anchor="start" x="643.5" y="-413.9" font-family="Arial" font-size="14.00" fill="#000000">address_1 </text>
<text text-anchor="start" x="712.7468" y="-413.9" font-family="Arial" font-size="14.00" fill="#666666">[varchar(255)]</text>
<polygon fill="none" stroke="#000000" points="636.5,-372.5 636.5,-402.5 838.5,-402.5 838.5,-372.5 636.5,-372.5"/>
<text text-anchor="start" x="643.5" y="-383.9" font-family="Arial" font-size="14.00" fill="#000000">address_2 </text>
<text text-anchor="start" x="712.7468" y="-383.9" font-family="Arial" font-size="14.00" fill="#666666">[varchar(255)]</text>
<polygon fill="none" stroke="#000000" points="636.5,-342.5 636.5,-372.5 838.5,-372.5 838.5,-342.5 636.5,-342.5"/>
<text text-anchor="start" x="643.5" y="-353.9" font-family="Arial" font-size="14.00" fill="#000000">zip </text>
<text text-anchor="start" x="665.2798" y="-353.9" font-family="Arial" font-size="14.00" fill="#666666">[varchar(255)]</text>
<polygon fill="none" stroke="#000000" points="636.5,-312.5 636.5,-342.5 838.5,-342.5 838.5,-312.5 636.5,-312.5"/>
<text text-anchor="start" x="643.5" y="-323.9" font-family="Arial" font-size="14.00" fill="#000000">state_code </text>
<text text-anchor="start" x="715.8674" y="-323.9" font-family="Arial" font-size="14.00" fill="#666666">[varchar(255)]</text>
<polygon fill="none" stroke="#000000" points="636.5,-282.5 636.5,-312.5 838.5,-312.5 838.5,-282.5 636.5,-282.5"/>
<text text-anchor="start" x="643.5" y="-293.9" font-family="Arial" font-size="14.00" fill="#000000">city </text>
<text text-anchor="start" x="668.3878" y="-293.9" font-family="Arial" font-size="14.00" fill="#666666">[varchar(255)]</text>
<polygon fill="none" stroke="#000000" points="636.5,-252.5 636.5,-282.5 838.5,-282.5 838.5,-252.5 636.5,-252.5"/>
<text text-anchor="start" x="643.5" y="-263.9" font-family="Arial" font-size="14.00" fill="#000000">province_id </text>
<text text-anchor="start" x="718.96" y="-263.9" font-family="Arial" font-size="14.00" fill="#666666">[int(11)]</text>
<polygon fill="none" stroke="#000000" points="636.5,-222.5 636.5,-252.5 838.5,-252.5 838.5,-222.5 636.5,-222.5"/>
<text text-anchor="start" x="643.5" y="-233.9" font-family="Arial" font-size="14.00" fill="#000000">country_id </text>
<text text-anchor="start" x="711.9614" y="-233.9" font-family="Arial" font-size="14.00" fill="#666666">[int(10) unsigned]</text>
<polygon fill="none" stroke="#000000" points="636.5,-192.5 636.5,-222.5 838.5,-222.5 838.5,-192.5 636.5,-192.5"/>
<text text-anchor="start" x="643.3689" y="-203.9" font-family="Arial" font-size="14.00" fill="#000000">customer_id </text>
<text text-anchor="start" x="723.4909" y="-203.9" font-family="Arial" font-size="14.00" fill="#666666">[int(10) unsigned]</text>
<polygon fill="none" stroke="#000000" points="636.5,-162.5 636.5,-192.5 838.5,-192.5 838.5,-162.5 636.5,-162.5"/>
<text text-anchor="start" x="643.5" y="-173.9" font-family="Arial" font-size="14.00" fill="#000000">status </text>
<text text-anchor="start" x="684.737" y="-173.9" font-family="Arial" font-size="14.00" fill="#666666">[int(11)]</text>
<polygon fill="none" stroke="#000000" points="636.5,-132.5 636.5,-162.5 838.5,-162.5 838.5,-132.5 636.5,-132.5"/>
<text text-anchor="start" x="643.5" y="-143.9" font-family="Arial" font-size="14.00" fill="#000000">phone </text>
<text text-anchor="start" x="686.3036" y="-143.9" font-family="Arial" font-size="14.00" fill="#666666">[varchar(255)]</text>
<polygon fill="none" stroke="#000000" points="636.5,-102.5 636.5,-132.5 838.5,-132.5 838.5,-102.5 636.5,-102.5"/>
<text text-anchor="start" x="643.5" y="-113.9" font-family="Arial" font-size="14.00" fill="#000000">deleted_at </text>
<text text-anchor="start" x="712.7566" y="-113.9" font-family="Arial" font-size="14.00" fill="#666666">[timestamp]</text>
<polygon fill="none" stroke="#000000" points="636.5,-72.5 636.5,-102.5 838.5,-102.5 838.5,-72.5 636.5,-72.5"/>
<text text-anchor="start" x="643.5" y="-83.9" font-family="Arial" font-size="14.00" fill="#000000">created_at </text>
<text text-anchor="start" x="713.528" y="-83.9" font-family="Arial" font-size="14.00" fill="#666666">[timestamp]</text>
<polygon fill="none" stroke="#000000" points="636.5,-42.5 636.5,-72.5 838.5,-72.5 838.5,-42.5 636.5,-42.5"/>
<text text-anchor="start" x="643.5" y="-53.9" font-family="Arial" font-size="14.00" fill="#000000">updated_at </text>
<text text-anchor="start" x="717.4326" y="-53.9" font-family="Arial" font-size="14.00" fill="#666666">[timestamp]</text>
</g>
<!-- orders&#45;&gt;addresses -->
<g id="edge4" class="edge">
<title>orders:address_id&#45;&gt;addresses:id</title>
<path fill="none" stroke="#000000" d="M703.5007,-1057.2608C890.1841,-1048.1247 788.4964,-779.3546 693.5,-607 679.0368,-580.759 650.9632,-597.241 636.5,-571 616.441,-534.6063 594.9444,-477.5 636.5,-477.5"/>
<polygon fill="#000000" stroke="#000000" points="703.4971,-1057.2608 693.3923,-1053.0013 698.4986,-1057.3804 693.5,-1057.5 693.5,-1057.5 693.5,-1057.5 698.4986,-1057.3804 693.6077,-1061.9987 703.4971,-1057.2608 703.4971,-1057.2608"/>
<text text-anchor="start" x="700.5475" y="-1067.5" font-family="Arial" font-size="10.00" fill="#000000">FOREIGN KEY (address_id) REFERENCES addresses (id)</text>
</g>
<!-- order_statuses -->
<g id="node6" class="node">
<title>order_statuses</title>
<polygon fill="#efefef" stroke="transparent" points="942.5,-342.5 942.5,-377.5 1172.5,-377.5 1172.5,-342.5 942.5,-342.5"/>
<polygon fill="none" stroke="#000000" points="942.5,-342.5 942.5,-377.5 1172.5,-377.5 1172.5,-342.5 942.5,-342.5"/>
<text text-anchor="start" x="949.357" y="-355.3" font-family="Arial Bold" font-size="18.00" fill="#000000">order_statuses</text>
<text text-anchor="start" x="1068.3892" y="-355.3" font-family="Arial" font-size="14.00" fill="#000000"> </text>
<text text-anchor="start" x="1072.2798" y="-355.3" font-family="Arial" font-size="14.00" fill="#666666">[BASE TABLE]</text>
<polygon fill="none" stroke="#000000" points="942.5,-312.5 942.5,-342.5 1172.5,-342.5 1172.5,-312.5 942.5,-312.5"/>
<text text-anchor="start" x="949.5" y="-323.9" font-family="Arial" font-size="14.00" fill="#000000">id </text>
<text text-anchor="start" x="964.2798" y="-323.9" font-family="Arial" font-size="14.00" fill="#666666">[int(10) unsigned]</text>
<polygon fill="none" stroke="#000000" points="942.5,-282.5 942.5,-312.5 1172.5,-312.5 1172.5,-282.5 942.5,-282.5"/>
<text text-anchor="start" x="949.5" y="-293.9" font-family="Arial" font-size="14.00" fill="#000000">name </text>
<text text-anchor="start" x="988.399" y="-293.9" font-family="Arial" font-size="14.00" fill="#666666">[varchar(255)]</text>
<polygon fill="none" stroke="#000000" points="942.5,-252.5 942.5,-282.5 1172.5,-282.5 1172.5,-252.5 942.5,-252.5"/>
<text text-anchor="start" x="949.5" y="-263.9" font-family="Arial" font-size="14.00" fill="#000000">color </text>
<text text-anchor="start" x="983.723" y="-263.9" font-family="Arial" font-size="14.00" fill="#666666">[varchar(255)]</text>
<polygon fill="none" stroke="#000000" points="942.5,-222.5 942.5,-252.5 1172.5,-252.5 1172.5,-222.5 942.5,-222.5"/>
<text text-anchor="start" x="949.5" y="-233.9" font-family="Arial" font-size="14.00" fill="#000000">created_at </text>
<text text-anchor="start" x="1019.528" y="-233.9" font-family="Arial" font-size="14.00" fill="#666666">[timestamp]</text>
<polygon fill="none" stroke="#000000" points="942.5,-192.5 942.5,-222.5 1172.5,-222.5 1172.5,-192.5 942.5,-192.5"/>
<text text-anchor="start" x="949.5" y="-203.9" font-family="Arial" font-size="14.00" fill="#000000">updated_at </text>
<text text-anchor="start" x="1023.4326" y="-203.9" font-family="Arial" font-size="14.00" fill="#666666">[timestamp]</text>
</g>
<!-- orders&#45;&gt;order_statuses -->
<g id="edge5" class="edge">
<title>orders:order_status_id&#45;&gt;order_statuses:id</title>
<path fill="none" stroke="#000000" d="M703.6314,-1027.3209C911.665,-1019.8217 824.3717,-778.2267 890.5,-571 907.3211,-518.2876 887.1688,-327.5 942.5,-327.5"/>
<polygon fill="#000000" stroke="#000000" points="703.4984,-1027.3232 693.4204,-1023.0007 698.4992,-1027.4116 693.5,-1027.5 693.5,-1027.5 693.5,-1027.5 698.4992,-1027.4116 693.5796,-1031.9993 703.4984,-1027.3232 703.4984,-1027.3232"/>
<text text-anchor="start" x="700.5425" y="-1037.5" font-family="Arial" font-size="10.00" fill="#000000">FOREIGN KEY (order_status_id) REFERENCES order_statuses (id)</text>
</g>
<!-- order_product -->
<g id="node2" class="node">
<title>order_product</title>
<polygon fill="#efefef" stroke="transparent" points="457.5,-1652.5 457.5,-1687.5 706.5,-1687.5 706.5,-1652.5 457.5,-1652.5"/>
<polygon fill="none" stroke="#000000" points="457.5,-1652.5 457.5,-1687.5 706.5,-1687.5 706.5,-1652.5 457.5,-1652.5"/>
<text text-anchor="start" x="477.3589" y="-1665.3" font-family="Arial Bold" font-size="18.00" fill="#000000">order_product</text>
<text text-anchor="start" x="589.3873" y="-1665.3" font-family="Arial" font-size="14.00" fill="#000000"> </text>
<text text-anchor="start" x="593.2779" y="-1665.3" font-family="Arial" font-size="14.00" fill="#666666">[BASE TABLE]</text>
<polygon fill="none" stroke="#000000" points="457.5,-1622.5 457.5,-1652.5 706.5,-1652.5 706.5,-1622.5 457.5,-1622.5"/>
<text text-anchor="start" x="464.5" y="-1633.9" font-family="Arial" font-size="14.00" fill="#000000">id </text>
<text text-anchor="start" x="479.2798" y="-1633.9" font-family="Arial" font-size="14.00" fill="#666666">[int(10) unsigned]</text>
<polygon fill="none" stroke="#000000" points="457.5,-1592.5 457.5,-1622.5 706.5,-1622.5 706.5,-1592.5 457.5,-1592.5"/>
<text text-anchor="start" x="464.5" y="-1603.9" font-family="Arial" font-size="14.00" fill="#000000">order_id </text>
<text text-anchor="start" x="519.7314" y="-1603.9" font-family="Arial" font-size="14.00" fill="#666666">[int(10) unsigned]</text>
<polygon fill="none" stroke="#000000" points="457.5,-1562.5 457.5,-1592.5 706.5,-1592.5 706.5,-1562.5 457.5,-1562.5"/>
<text text-anchor="start" x="464.5" y="-1573.9" font-family="Arial" font-size="14.00" fill="#000000">product_id </text>
<text text-anchor="start" x="533.744" y="-1573.9" font-family="Arial" font-size="14.00" fill="#666666">[int(10) unsigned]</text>
<polygon fill="none" stroke="#000000" points="457.5,-1532.5 457.5,-1562.5 706.5,-1562.5 706.5,-1532.5 457.5,-1532.5"/>
<text text-anchor="start" x="464.1319" y="-1543.9" font-family="Arial" font-size="14.00" fill="#000000">product_attribute_id </text>
<text text-anchor="start" x="591.7279" y="-1543.9" font-family="Arial" font-size="14.00" fill="#666666">[int(10) unsigned]</text>
<polygon fill="none" stroke="#000000" points="457.5,-1502.5 457.5,-1532.5 706.5,-1532.5 706.5,-1502.5 457.5,-1502.5"/>
<text text-anchor="start" x="464.5" y="-1513.9" font-family="Arial" font-size="14.00" fill="#000000">quantity </text>
<text text-anchor="start" x="517.4088" y="-1513.9" font-family="Arial" font-size="14.00" fill="#666666">[int(11)]</text>
<polygon fill="none" stroke="#000000" points="457.5,-1472.5 457.5,-1502.5 706.5,-1502.5 706.5,-1472.5 457.5,-1472.5"/>
<text text-anchor="start" x="464.5" y="-1483.9" font-family="Arial" font-size="14.00" fill="#000000">product_name </text>
<text text-anchor="start" x="557.8632" y="-1483.9" font-family="Arial" font-size="14.00" fill="#666666">[varchar(255)]</text>
<polygon fill="none" stroke="#000000" points="457.5,-1442.5 457.5,-1472.5 706.5,-1472.5 706.5,-1442.5 457.5,-1442.5"/>
<text text-anchor="start" x="464.5" y="-1453.9" font-family="Arial" font-size="14.00" fill="#000000">product_sku </text>
<text text-anchor="start" x="544.6374" y="-1453.9" font-family="Arial" font-size="14.00" fill="#666666">[varchar(255)]</text>
<polygon fill="none" stroke="#000000" points="457.5,-1412.5 457.5,-1442.5 706.5,-1442.5 706.5,-1412.5 457.5,-1412.5"/>
<text text-anchor="start" x="464.5" y="-1423.9" font-family="Arial" font-size="14.00" fill="#000000">product_description </text>
<text text-anchor="start" x="590.5322" y="-1423.9" font-family="Arial" font-size="14.00" fill="#666666">[text]</text>
<polygon fill="none" stroke="#000000" points="457.5,-1382.5 457.5,-1412.5 706.5,-1412.5 706.5,-1382.5 457.5,-1382.5"/>
<text text-anchor="start" x="464.5" y="-1393.9" font-family="Arial" font-size="14.00" fill="#000000">product_price </text>
<text text-anchor="start" x="553.1872" y="-1393.9" font-family="Arial" font-size="14.00" fill="#666666">[decimal(8,2)]</text>
</g>
<!-- order_product&#45;&gt;orders -->
<g id="edge1" class="edge">
<title>order_product:order_id&#45;&gt;orders:id</title>
<path fill="none" stroke="#000000" d="M716.5395,-1607.0501C822.9294,-1597.1865 781.6723,-1427.565 706.5,-1340 637.674,-1259.8275 540.326,-1384.1725 471.5,-1304 443.5633,-1271.4577 428.6111,-1207.5 471.5,-1207.5"/>
<polygon fill="#000000" stroke="#000000" points="716.49,-1607.0523 706.2985,-1603.0045 711.495,-1607.2761 706.5,-1607.5 706.5,-1607.5 706.5,-1607.5 711.495,-1607.2761 706.7015,-1611.9955 716.49,-1607.0523 716.49,-1607.0523"/>
<text text-anchor="start" x="713.557" y="-1617.5" font-family="Arial" font-size="10.00" fill="#000000">FOREIGN KEY (order_id) REFERENCES orders (id)</text>
</g>
</g>
</svg>
