<?xml version="1.0" encoding="UTF-8" standalone="no"?>
<!DOCTYPE svg PUBLIC "-//W3C//DTD SVG 1.1//EN"
 "http://www.w3.org/Graphics/SVG/1.1/DTD/svg11.dtd">
<!-- Generated by graphviz version 2.40.1 (20161225.0304)
 -->
<!-- Title: order_statuses Pages: 1 -->
<svg width="597pt" height="1012pt"
 viewBox="0.00 0.00 597.00 1012.00" xmlns="http://www.w3.org/2000/svg" xmlns:xlink="http://www.w3.org/1999/xlink">
<g id="graph0" class="graph" transform="scale(1 1) rotate(0) translate(4 1008)">
<title>order_statuses</title>
<polygon fill="#ffffff" stroke="transparent" points="-4,4 -4,-1008 593,-1008 593,4 -4,4"/>
<!-- order_statuses -->
<g id="node1" class="node">
<title>order_statuses</title>
<polygon fill="#efefef" stroke="transparent" points="46,-195.5 46,-230.5 276,-230.5 276,-195.5 46,-195.5"/>
<polygon fill="none" stroke="#000000" points="46,-195.5 46,-230.5 276,-230.5 276,-195.5 46,-195.5"/>
<text text-anchor="start" x="52.857" y="-208.3" font-family="Arial Bold" font-size="18.00" fill="#000000">order_statuses</text>
<text text-anchor="start" x="171.8892" y="-208.3" font-family="Arial" font-size="14.00" fill="#000000"> </text>
<text text-anchor="start" x="175.7798" y="-208.3" font-family="Arial" font-size="14.00" fill="#666666">[BASE TABLE]</text>
<polygon fill="none" stroke="#000000" points="46,-165.5 46,-195.5 276,-195.5 276,-165.5 46,-165.5"/>
<text text-anchor="start" x="53" y="-176.9" font-family="Arial" font-size="14.00" fill="#000000">id </text>
<text text-anchor="start" x="67.7798" y="-176.9" font-family="Arial" font-size="14.00" fill="#666666">[int(10) unsigned]</text>
<polygon fill="none" stroke="#000000" points="46,-135.5 46,-165.5 276,-165.5 276,-135.5 46,-135.5"/>
<text text-anchor="start" x="53" y="-146.9" font-family="Arial" font-size="14.00" fill="#000000">name </text>
<text text-anchor="start" x="91.899" y="-146.9" font-family="Arial" font-size="14.00" fill="#666666">[varchar(255)]</text>
<polygon fill="none" stroke="#000000" points="46,-105.5 46,-135.5 276,-135.5 276,-105.5 46,-105.5"/>
<text text-anchor="start" x="53" y="-116.9" font-family="Arial" font-size="14.00" fill="#000000">color </text>
<text text-anchor="start" x="87.223" y="-116.9" font-family="Arial" font-size="14.00" fill="#666666">[varchar(255)]</text>
<polygon fill="none" stroke="#000000" points="46,-75.5 46,-105.5 276,-105.5 276,-75.5 46,-75.5"/>
<text text-anchor="start" x="53" y="-86.9" font-family="Arial" font-size="14.00" fill="#000000">created_at </text>
<text text-anchor="start" x="123.028" y="-86.9" font-family="Arial" font-size="14.00" fill="#666666">[timestamp]</text>
<polygon fill="none" stroke="#000000" points="46,-45.5 46,-75.5 276,-75.5 276,-45.5 46,-45.5"/>
<text text-anchor="start" x="53" y="-56.9" font-family="Arial" font-size="14.00" fill="#000000">updated_at </text>
<text text-anchor="start" x="126.9326" y="-56.9" font-family="Arial" font-size="14.00" fill="#666666">[timestamp]</text>
<polygon fill="none" stroke="#000000" stroke-width="3" points="44.5,-44.5 44.5,-232.5 277.5,-232.5 277.5,-44.5 44.5,-44.5"/>
</g>
<!-- orders -->
<g id="node2" class="node">
<title>orders</title>
<polygon fill="#efefef" stroke="transparent" points="50,-925.5 50,-960.5 272,-960.5 272,-925.5 50,-925.5"/>
<polygon fill="none" stroke="#000000" points="50,-925.5 50,-960.5 272,-960.5 272,-925.5 50,-925.5"/>
<text text-anchor="start" x="86.8716" y="-938.3" font-family="Arial Bold" font-size="18.00" fill="#000000">orders</text>
<text text-anchor="start" x="137.8746" y="-938.3" font-family="Arial" font-size="14.00" fill="#000000"> </text>
<text text-anchor="start" x="141.7652" y="-938.3" font-family="Arial" font-size="14.00" fill="#666666">[BASE TABLE]</text>
<polygon fill="none" stroke="#000000" points="50,-895.5 50,-925.5 272,-925.5 272,-895.5 50,-895.5"/>
<text text-anchor="start" x="57" y="-906.9" font-family="Arial" font-size="14.00" fill="#000000">id </text>
<text text-anchor="start" x="71.7798" y="-906.9" font-family="Arial" font-size="14.00" fill="#666666">[int(10) unsigned]</text>
<polygon fill="none" stroke="#000000" points="50,-865.5 50,-895.5 272,-895.5 272,-865.5 50,-865.5"/>
<text text-anchor="start" x="57" y="-876.9" font-family="Arial" font-size="14.00" fill="#000000">reference </text>
<text text-anchor="start" x="120.0154" y="-876.9" font-family="Arial" font-size="14.00" fill="#666666">[varchar(255)]</text>
<polygon fill="none" stroke="#000000" points="50,-835.5 50,-865.5 272,-865.5 272,-835.5 50,-835.5"/>
<text text-anchor="start" x="57" y="-846.9" font-family="Arial" font-size="14.00" fill="#000000">courier_id </text>
<text text-anchor="start" x="122.338" y="-846.9" font-family="Arial" font-size="14.00" fill="#666666">[int(10) unsigned]</text>
<polygon fill="none" stroke="#000000" points="50,-805.5 50,-835.5 272,-835.5 272,-805.5 50,-805.5"/>
<text text-anchor="start" x="57" y="-816.9" font-family="Arial" font-size="14.00" fill="#000000">courier </text>
<text text-anchor="start" x="103.6662" y="-816.9" font-family="Arial" font-size="14.00" fill="#666666">[varchar(255)]</text>
<polygon fill="none" stroke="#000000" points="50,-775.5 50,-805.5 272,-805.5 272,-775.5 50,-775.5"/>
<text text-anchor="start" x="57" y="-786.9" font-family="Arial" font-size="14.00" fill="#000000">customer_id </text>
<text text-anchor="start" x="137.122" y="-786.9" font-family="Arial" font-size="14.00" fill="#666666">[int(10) unsigned]</text>
<polygon fill="none" stroke="#000000" points="50,-745.5 50,-775.5 272,-775.5 272,-745.5 50,-745.5"/>
<text text-anchor="start" x="57" y="-756.9" font-family="Arial" font-size="14.00" fill="#000000">address_id </text>
<text text-anchor="start" x="129.3534" y="-756.9" font-family="Arial" font-size="14.00" fill="#666666">[int(10) unsigned]</text>
<polygon fill="none" stroke="#000000" points="50,-715.5 50,-745.5 272,-745.5 272,-715.5 50,-715.5"/>
<text text-anchor="start" x="56.7497" y="-726.9" font-family="Arial" font-size="14.00" fill="#000000">order_status_id </text>
<text text-anchor="start" x="157.1101" y="-726.9" font-family="Arial" font-size="14.00" fill="#666666">[int(10) unsigned]</text>
<polygon fill="none" stroke="#000000" points="50,-685.5 50,-715.5 272,-715.5 272,-685.5 50,-685.5"/>
<text text-anchor="start" x="57" y="-696.9" font-family="Arial" font-size="14.00" fill="#000000">payment </text>
<text text-anchor="start" x="114.5722" y="-696.9" font-family="Arial" font-size="14.00" fill="#666666">[varchar(255)]</text>
<polygon fill="none" stroke="#000000" points="50,-655.5 50,-685.5 272,-685.5 272,-655.5 50,-655.5"/>
<text text-anchor="start" x="57" y="-666.9" font-family="Arial" font-size="14.00" fill="#000000">discounts </text>
<text text-anchor="start" x="120.0182" y="-666.9" font-family="Arial" font-size="14.00" fill="#666666">[decimal(8,2)]</text>
<polygon fill="none" stroke="#000000" points="50,-625.5 50,-655.5 272,-655.5 272,-625.5 50,-625.5"/>
<text text-anchor="start" x="57" y="-636.9" font-family="Arial" font-size="14.00" fill="#000000">total_products </text>
<text text-anchor="start" x="148.8078" y="-636.9" font-family="Arial" font-size="14.00" fill="#666666">[decimal(8,2)]</text>
<polygon fill="none" stroke="#000000" points="50,-595.5 50,-625.5 272,-625.5 272,-595.5 50,-595.5"/>
<text text-anchor="start" x="57" y="-606.9" font-family="Arial" font-size="14.00" fill="#000000">total_shipping </text>
<text text-anchor="start" x="147.2524" y="-606.9" font-family="Arial" font-size="14.00" fill="#666666">[decimal(8,2)]</text>
<polygon fill="none" stroke="#000000" points="50,-565.5 50,-595.5 272,-595.5 272,-565.5 50,-565.5"/>
<text text-anchor="start" x="57" y="-576.9" font-family="Arial" font-size="14.00" fill="#000000">tax </text>
<text text-anchor="start" x="79.5638" y="-576.9" font-family="Arial" font-size="14.00" fill="#666666">[decimal(8,2)]</text>
<polygon fill="none" stroke="#000000" points="50,-535.5 50,-565.5 272,-565.5 272,-535.5 50,-535.5"/>
<text text-anchor="start" x="57" y="-546.9" font-family="Arial" font-size="14.00" fill="#000000">total </text>
<text text-anchor="start" x="87.3436" y="-546.9" font-family="Arial" font-size="14.00" fill="#666666">[decimal(8,2)]</text>
<polygon fill="none" stroke="#000000" points="50,-505.5 50,-535.5 272,-535.5 272,-505.5 50,-505.5"/>
<text text-anchor="start" x="57" y="-516.9" font-family="Arial" font-size="14.00" fill="#000000">total_paid </text>
<text text-anchor="start" x="121.5806" y="-516.9" font-family="Arial" font-size="14.00" fill="#666666">[decimal(8,2)]</text>
<polygon fill="none" stroke="#000000" points="50,-475.5 50,-505.5 272,-505.5 272,-475.5 50,-475.5"/>
<text text-anchor="start" x="57" y="-486.9" font-family="Arial" font-size="14.00" fill="#000000">invoice </text>
<text text-anchor="start" x="104.4516" y="-486.9" font-family="Arial" font-size="14.00" fill="#666666">[varchar(255)]</text>
<polygon fill="none" stroke="#000000" points="50,-445.5 50,-475.5 272,-475.5 272,-445.5 50,-445.5"/>
<text text-anchor="start" x="57" y="-456.9" font-family="Arial" font-size="14.00" fill="#000000">label_url </text>
<text text-anchor="start" x="113.784" y="-456.9" font-family="Arial" font-size="14.00" fill="#666666">[varchar(255)]</text>
<polygon fill="none" stroke="#000000" points="50,-415.5 50,-445.5 272,-445.5 272,-415.5 50,-415.5"/>
<text text-anchor="start" x="57" y="-426.9" font-family="Arial" font-size="14.00" fill="#000000">tracking_number </text>
<text text-anchor="start" x="165.1304" y="-426.9" font-family="Arial" font-size="14.00" fill="#666666">[varchar(255)]</text>
<polygon fill="none" stroke="#000000" points="50,-385.5 50,-415.5 272,-415.5 272,-385.5 50,-385.5"/>
<text text-anchor="start" x="57" y="-396.9" font-family="Arial" font-size="14.00" fill="#000000">created_at </text>
<text text-anchor="start" x="127.028" y="-396.9" font-family="Arial" font-size="14.00" fill="#666666">[timestamp]</text>
<polygon fill="none" stroke="#000000" points="50,-355.5 50,-385.5 272,-385.5 272,-355.5 50,-355.5"/>
<text text-anchor="start" x="57" y="-366.9" font-family="Arial" font-size="14.00" fill="#000000">updated_at </text>
<text text-anchor="start" x="130.9326" y="-366.9" font-family="Arial" font-size="14.00" fill="#666666">[timestamp]</text>
</g>
<!-- orders&#45;&gt;order_statuses -->
<g id="edge1" class="edge">
<title>orders:order_status_id&#45;&gt;order_statuses:id</title>
<path fill="none" stroke="#000000" d="M281.1906,-726.0728C333.3535,-674.0217 333.89,-180.5 276,-180.5"/>
<polygon fill="#000000" stroke="#000000" points="281.0092,-726.1601 270.0471,-726.4459 276.5046,-728.3301 272,-730.5 272,-730.5 272,-730.5 276.5046,-728.3301 273.9529,-734.5541 281.0092,-726.1601 281.0092,-726.1601"/>
<text text-anchor="start" x="279.0425" y="-740.5" font-family="Arial" font-size="10.00" fill="#000000">FOREIGN KEY (order_status_id) REFERENCES order_statuses (id)</text>
</g>
</g>
</svg>
