<?xml version="1.0" encoding="UTF-8" standalone="no"?>
<!DOCTYPE svg PUBLIC "-//W3C//DTD SVG 1.1//EN"
 "http://www.w3.org/Graphics/SVG/1.1/DTD/svg11.dtd">
<!-- Generated by graphviz version 2.40.1 (20161225.0304)
 -->
<!-- Title: permission_user Pages: 1 -->
<svg width="594pt" height="562pt"
 viewBox="0.00 0.00 593.50 562.00" xmlns="http://www.w3.org/2000/svg" xmlns:xlink="http://www.w3.org/1999/xlink">
<g id="graph0" class="graph" transform="scale(1 1) rotate(0) translate(4 558)">
<title>permission_user</title>
<polygon fill="#ffffff" stroke="transparent" points="-4,4 -4,-558 589.5,-558 589.5,4 -4,4"/>
<!-- permission_user -->
<g id="node1" class="node">
<title>permission_user</title>
<polygon fill="#efefef" stroke="transparent" points="297,-472.5 297,-507.5 540,-507.5 540,-472.5 297,-472.5"/>
<polygon fill="none" stroke="#000000" points="297,-472.5 297,-507.5 540,-507.5 540,-472.5 297,-472.5"/>
<text text-anchor="start" x="303.8689" y="-485.3" font-family="Arial Bold" font-size="18.00" fill="#000000">permission_user</text>
<text text-anchor="start" x="435.8773" y="-485.3" font-family="Arial" font-size="14.00" fill="#000000"> </text>
<text text-anchor="start" x="439.7679" y="-485.3" font-family="Arial" font-size="14.00" fill="#666666">[BASE TABLE]</text>
<polygon fill="none" stroke="#000000" points="297,-442.5 297,-472.5 540,-472.5 540,-442.5 297,-442.5"/>
<text text-anchor="start" x="304" y="-453.9" font-family="Arial" font-size="14.00" fill="#000000">permission_id </text>
<text text-anchor="start" x="394.2272" y="-453.9" font-family="Arial" font-size="14.00" fill="#666666">[int(10) unsigned]</text>
<polygon fill="none" stroke="#000000" points="297,-412.5 297,-442.5 540,-442.5 540,-412.5 297,-412.5"/>
<text text-anchor="start" x="304" y="-423.9" font-family="Arial" font-size="14.00" fill="#000000">user_id </text>
<text text-anchor="start" x="353.7882" y="-423.9" font-family="Arial" font-size="14.00" fill="#666666">[int(10) unsigned]</text>
<polygon fill="none" stroke="#000000" points="297,-382.5 297,-412.5 540,-412.5 540,-382.5 297,-382.5"/>
<text text-anchor="start" x="304" y="-393.9" font-family="Arial" font-size="14.00" fill="#000000">user_type </text>
<text text-anchor="start" x="369.3548" y="-393.9" font-family="Arial" font-size="14.00" fill="#666666">[varchar(255)]</text>
<polygon fill="none" stroke="#000000" stroke-width="3" points="295,-381.5 295,-509.5 541,-509.5 541,-381.5 295,-381.5"/>
</g>
<!-- permissions -->
<g id="node2" class="node">
<title>permissions</title>
<polygon fill="#efefef" stroke="transparent" points="315,-222.5 315,-257.5 522,-257.5 522,-222.5 315,-222.5"/>
<polygon fill="none" stroke="#000000" points="315,-222.5 315,-257.5 522,-257.5 522,-222.5 315,-222.5"/>
<text text-anchor="start" x="321.8743" y="-235.3" font-family="Arial Bold" font-size="18.00" fill="#000000">permissions</text>
<text text-anchor="start" x="417.8719" y="-235.3" font-family="Arial" font-size="14.00" fill="#000000"> </text>
<text text-anchor="start" x="421.7625" y="-235.3" font-family="Arial" font-size="14.00" fill="#666666">[BASE TABLE]</text>
<polygon fill="none" stroke="#000000" points="315,-192.5 315,-222.5 522,-222.5 522,-192.5 315,-192.5"/>
<text text-anchor="start" x="322" y="-203.9" font-family="Arial" font-size="14.00" fill="#000000">id </text>
<text text-anchor="start" x="336.7798" y="-203.9" font-family="Arial" font-size="14.00" fill="#666666">[int(10) unsigned]</text>
<polygon fill="none" stroke="#000000" points="315,-162.5 315,-192.5 522,-192.5 522,-162.5 315,-162.5"/>
<text text-anchor="start" x="322" y="-173.9" font-family="Arial" font-size="14.00" fill="#000000">name </text>
<text text-anchor="start" x="360.899" y="-173.9" font-family="Arial" font-size="14.00" fill="#666666">[varchar(255)]</text>
<polygon fill="none" stroke="#000000" points="315,-132.5 315,-162.5 522,-162.5 522,-132.5 315,-132.5"/>
<text text-anchor="start" x="322" y="-143.9" font-family="Arial" font-size="14.00" fill="#000000">display_name </text>
<text text-anchor="start" x="412.2426" y="-143.9" font-family="Arial" font-size="14.00" fill="#666666">[varchar(255)]</text>
<polygon fill="none" stroke="#000000" points="315,-102.5 315,-132.5 522,-132.5 522,-102.5 315,-102.5"/>
<text text-anchor="start" x="322" y="-113.9" font-family="Arial" font-size="14.00" fill="#000000">description </text>
<text text-anchor="start" x="393.568" y="-113.9" font-family="Arial" font-size="14.00" fill="#666666">[varchar(255)]</text>
<polygon fill="none" stroke="#000000" points="315,-72.5 315,-102.5 522,-102.5 522,-72.5 315,-72.5"/>
<text text-anchor="start" x="322" y="-83.9" font-family="Arial" font-size="14.00" fill="#000000">created_at </text>
<text text-anchor="start" x="392.028" y="-83.9" font-family="Arial" font-size="14.00" fill="#666666">[timestamp]</text>
<polygon fill="none" stroke="#000000" points="315,-42.5 315,-72.5 522,-72.5 522,-42.5 315,-42.5"/>
<text text-anchor="start" x="322" y="-53.9" font-family="Arial" font-size="14.00" fill="#000000">updated_at </text>
<text text-anchor="start" x="395.9326" y="-53.9" font-family="Arial" font-size="14.00" fill="#666666">[timestamp]</text>
</g>
<!-- permission_user&#45;&gt;permissions -->
<g id="edge1" class="edge">
<title>permission_user:permission_id&#45;&gt;permissions:id</title>
<path fill="none" stroke="#000000" d="M286.9344,-456.7828C186.8175,-442.1191 207.0825,-207.5 315,-207.5"/>
<polygon fill="#000000" stroke="#000000" points="287.0253,-456.7892 296.6802,-461.9886 292.0126,-457.1446 297,-457.5 297,-457.5 297,-457.5 292.0126,-457.1446 297.3198,-453.0114 287.0253,-456.7892 287.0253,-456.7892"/>
<text text-anchor="start" x="7.06" y="-467.5" font-family="Arial" font-size="10.00" fill="#000000">FOREIGN KEY (permission_id) REFERENCES permissions (id)</text>
</g>
</g>
</svg>
