<?xml version="1.0" encoding="UTF-8" standalone="no"?>
<!DOCTYPE svg PUBLIC "-//W3C//DTD SVG 1.1//EN"
 "http://www.w3.org/Graphics/SVG/1.1/DTD/svg11.dtd">
<!-- Generated by graphviz version 2.40.1 (20161225.0304)
 -->
<!-- Title: products Pages: 1 -->
<svg width="1400pt" height="1132pt"
 viewBox="0.00 0.00 1399.50 1132.00" xmlns="http://www.w3.org/2000/svg" xmlns:xlink="http://www.w3.org/1999/xlink">
<g id="graph0" class="graph" transform="scale(1 1) rotate(0) translate(4 1128)">
<title>products</title>
<polygon fill="#ffffff" stroke="transparent" points="-4,4 -4,-1128 1395.5,-1128 1395.5,4 -4,4"/>
<!-- products -->
<g id="node1" class="node">
<title>products</title>
<polygon fill="#efefef" stroke="transparent" points="607,-615.5 607,-650.5 794,-650.5 794,-615.5 607,-615.5"/>
<polygon fill="none" stroke="#000000" points="607,-615.5 607,-650.5 794,-650.5 794,-615.5 607,-615.5"/>
<text text-anchor="start" x="617.3635" y="-628.3" font-family="Arial Bold" font-size="18.00" fill="#000000">products</text>
<text text-anchor="start" x="686.3827" y="-628.3" font-family="Arial" font-size="14.00" fill="#000000"> </text>
<text text-anchor="start" x="690.2733" y="-628.3" font-family="Arial" font-size="14.00" fill="#666666">[BASE TABLE]</text>
<polygon fill="none" stroke="#000000" points="607,-585.5 607,-615.5 794,-615.5 794,-585.5 607,-585.5"/>
<text text-anchor="start" x="614" y="-596.9" font-family="Arial" font-size="14.00" fill="#000000">id </text>
<text text-anchor="start" x="628.7798" y="-596.9" font-family="Arial" font-size="14.00" fill="#666666">[int(10) unsigned]</text>
<polygon fill="none" stroke="#000000" points="607,-555.5 607,-585.5 794,-585.5 794,-555.5 607,-555.5"/>
<text text-anchor="start" x="614" y="-566.9" font-family="Arial" font-size="14.00" fill="#000000">brand_id </text>
<text text-anchor="start" x="672.3534" y="-566.9" font-family="Arial" font-size="14.00" fill="#666666">[int(10) unsigned]</text>
<polygon fill="none" stroke="#000000" points="607,-525.5 607,-555.5 794,-555.5 794,-525.5 607,-525.5"/>
<text text-anchor="start" x="614" y="-536.9" font-family="Arial" font-size="14.00" fill="#000000">sku </text>
<text text-anchor="start" x="639.6732" y="-536.9" font-family="Arial" font-size="14.00" fill="#666666">[varchar(255)]</text>
<polygon fill="none" stroke="#000000" points="607,-495.5 607,-525.5 794,-525.5 794,-495.5 607,-495.5"/>
<text text-anchor="start" x="614" y="-506.9" font-family="Arial" font-size="14.00" fill="#000000">name </text>
<text text-anchor="start" x="652.899" y="-506.9" font-family="Arial" font-size="14.00" fill="#666666">[varchar(255)]</text>
<polygon fill="none" stroke="#000000" points="607,-465.5 607,-495.5 794,-495.5 794,-465.5 607,-465.5"/>
<text text-anchor="start" x="614" y="-476.9" font-family="Arial" font-size="14.00" fill="#000000">slug </text>
<text text-anchor="start" x="643.5624" y="-476.9" font-family="Arial" font-size="14.00" fill="#666666">[varchar(255)]</text>
<polygon fill="none" stroke="#000000" points="607,-435.5 607,-465.5 794,-465.5 794,-435.5 607,-435.5"/>
<text text-anchor="start" x="614" y="-446.9" font-family="Arial" font-size="14.00" fill="#000000">description </text>
<text text-anchor="start" x="685.568" y="-446.9" font-family="Arial" font-size="14.00" fill="#666666">[text]</text>
<polygon fill="none" stroke="#000000" points="607,-405.5 607,-435.5 794,-435.5 794,-405.5 607,-405.5"/>
<text text-anchor="start" x="614" y="-416.9" font-family="Arial" font-size="14.00" fill="#000000">cover </text>
<text text-anchor="start" x="652.1164" y="-416.9" font-family="Arial" font-size="14.00" fill="#666666">[varchar(255)]</text>
<polygon fill="none" stroke="#000000" points="607,-375.5 607,-405.5 794,-405.5 794,-375.5 607,-375.5"/>
<text text-anchor="start" x="614" y="-386.9" font-family="Arial" font-size="14.00" fill="#000000">quantity </text>
<text text-anchor="start" x="666.9088" y="-386.9" font-family="Arial" font-size="14.00" fill="#666666">[int(11)]</text>
<polygon fill="none" stroke="#000000" points="607,-345.5 607,-375.5 794,-375.5 794,-345.5 607,-345.5"/>
<text text-anchor="start" x="614" y="-356.9" font-family="Arial" font-size="14.00" fill="#000000">price </text>
<text text-anchor="start" x="648.223" y="-356.9" font-family="Arial" font-size="14.00" fill="#666666">[decimal(8,2)]</text>
<polygon fill="none" stroke="#000000" points="607,-315.5 607,-345.5 794,-345.5 794,-315.5 607,-315.5"/>
<text text-anchor="start" x="614" y="-326.9" font-family="Arial" font-size="14.00" fill="#000000">sale_price </text>
<text text-anchor="start" x="681.6774" y="-326.9" font-family="Arial" font-size="14.00" fill="#666666">[decimal(8,2)]</text>
<polygon fill="none" stroke="#000000" points="607,-285.5 607,-315.5 794,-315.5 794,-285.5 607,-285.5"/>
<text text-anchor="start" x="614" y="-296.9" font-family="Arial" font-size="14.00" fill="#000000">status </text>
<text text-anchor="start" x="655.237" y="-296.9" font-family="Arial" font-size="14.00" fill="#666666">[int(11)]</text>
<polygon fill="none" stroke="#000000" points="607,-255.5 607,-285.5 794,-285.5 794,-255.5 607,-255.5"/>
<text text-anchor="start" x="614" y="-266.9" font-family="Arial" font-size="14.00" fill="#000000">length </text>
<text text-anchor="start" x="656.0182" y="-266.9" font-family="Arial" font-size="14.00" fill="#666666">[decimal(8,2)]</text>
<polygon fill="none" stroke="#000000" points="607,-225.5 607,-255.5 794,-255.5 794,-225.5 607,-225.5"/>
<text text-anchor="start" x="614" y="-236.9" font-family="Arial" font-size="14.00" fill="#000000">width </text>
<text text-anchor="start" x="650.5596" y="-236.9" font-family="Arial" font-size="14.00" fill="#666666">[decimal(8,2)]</text>
<polygon fill="none" stroke="#000000" points="607,-195.5 607,-225.5 794,-225.5 794,-195.5 607,-195.5"/>
<text text-anchor="start" x="614" y="-206.9" font-family="Arial" font-size="14.00" fill="#000000">height </text>
<text text-anchor="start" x="656.0182" y="-206.9" font-family="Arial" font-size="14.00" fill="#666666">[decimal(8,2)]</text>
<polygon fill="none" stroke="#000000" points="607,-165.5 607,-195.5 794,-195.5 794,-165.5 607,-165.5"/>
<text text-anchor="start" x="613.7588" y="-176.9" font-family="Arial" font-size="14.00" fill="#000000">distance_unit </text>
<text text-anchor="start" x="700.122" y="-176.9" font-family="Arial" font-size="14.00" fill="#666666">[varchar(255)]</text>
<polygon fill="none" stroke="#000000" points="607,-135.5 607,-165.5 794,-165.5 794,-135.5 607,-135.5"/>
<text text-anchor="start" x="614" y="-146.9" font-family="Arial" font-size="14.00" fill="#000000">weight </text>
<text text-anchor="start" x="658.3422" y="-146.9" font-family="Arial" font-size="14.00" fill="#666666">[decimal(8,2)]</text>
<polygon fill="none" stroke="#000000" points="607,-105.5 607,-135.5 794,-135.5 794,-105.5 607,-105.5"/>
<text text-anchor="start" x="614" y="-116.9" font-family="Arial" font-size="14.00" fill="#000000">mass_unit </text>
<text text-anchor="start" x="681.6788" y="-116.9" font-family="Arial" font-size="14.00" fill="#666666">[varchar(255)]</text>
<polygon fill="none" stroke="#000000" points="607,-75.5 607,-105.5 794,-105.5 794,-75.5 607,-75.5"/>
<text text-anchor="start" x="614" y="-86.9" font-family="Arial" font-size="14.00" fill="#000000">created_at </text>
<text text-anchor="start" x="684.028" y="-86.9" font-family="Arial" font-size="14.00" fill="#666666">[timestamp]</text>
<polygon fill="none" stroke="#000000" points="607,-45.5 607,-75.5 794,-75.5 794,-45.5 607,-45.5"/>
<text text-anchor="start" x="614" y="-56.9" font-family="Arial" font-size="14.00" fill="#000000">updated_at </text>
<text text-anchor="start" x="687.9326" y="-56.9" font-family="Arial" font-size="14.00" fill="#666666">[timestamp]</text>
<polygon fill="none" stroke="#000000" stroke-width="3" points="605,-44.5 605,-652.5 795,-652.5 795,-44.5 605,-44.5"/>
</g>
<!-- category_product -->
<g id="node2" class="node">
<title>category_product</title>
<polygon fill="#efefef" stroke="transparent" points="43,-955.5 43,-990.5 293,-990.5 293,-955.5 43,-955.5"/>
<polygon fill="none" stroke="#000000" points="43,-955.5 43,-990.5 293,-990.5 293,-955.5 43,-955.5"/>
<text text-anchor="start" x="49.8508" y="-968.3" font-family="Arial Bold" font-size="18.00" fill="#000000">category_product</text>
<text text-anchor="start" x="188.8954" y="-968.3" font-family="Arial" font-size="14.00" fill="#000000"> </text>
<text text-anchor="start" x="192.786" y="-968.3" font-family="Arial" font-size="14.00" fill="#666666">[BASE TABLE]</text>
<polygon fill="none" stroke="#000000" points="43,-925.5 43,-955.5 293,-955.5 293,-925.5 43,-925.5"/>
<text text-anchor="start" x="50" y="-936.9" font-family="Arial" font-size="14.00" fill="#000000">id </text>
<text text-anchor="start" x="64.7798" y="-936.9" font-family="Arial" font-size="14.00" fill="#666666">[int(10) unsigned]</text>
<polygon fill="none" stroke="#000000" points="43,-895.5 43,-925.5 293,-925.5 293,-895.5 43,-895.5"/>
<text text-anchor="start" x="50" y="-906.9" font-family="Arial" font-size="14.00" fill="#000000">category_id </text>
<text text-anchor="start" x="126.244" y="-906.9" font-family="Arial" font-size="14.00" fill="#666666">[int(10) unsigned]</text>
<polygon fill="none" stroke="#000000" points="43,-865.5 43,-895.5 293,-895.5 293,-865.5 43,-865.5"/>
<text text-anchor="start" x="50" y="-876.9" font-family="Arial" font-size="14.00" fill="#000000">product_id </text>
<text text-anchor="start" x="119.244" y="-876.9" font-family="Arial" font-size="14.00" fill="#666666">[int(10) unsigned]</text>
</g>
<!-- category_product&#45;&gt;products -->
<g id="edge1" class="edge">
<title>category_product:product_id&#45;&gt;products:id</title>
<path fill="none" stroke="#000000" d="M303.2513,-879.6678C355.9043,-870.2079 301.6352,-782.3674 345,-733 431.1164,-634.9634 476.5116,-600.5 607,-600.5"/>
<polygon fill="#000000" stroke="#000000" points="302.9672,-879.6908 292.6358,-876.0148 297.9836,-880.0954 293,-880.5 293,-880.5 293,-880.5 297.9836,-880.0954 293.3642,-884.9852 302.9672,-879.6908 302.9672,-879.6908"/>
<text text-anchor="start" x="300.048" y="-890.5" font-family="Arial" font-size="10.00" fill="#000000">FOREIGN KEY (product_id) REFERENCES products (id)</text>
</g>
<!-- order_product -->
<g id="node3" class="node">
<title>order_product</title>
<polygon fill="#efefef" stroke="transparent" points="398,-1045.5 398,-1080.5 647,-1080.5 647,-1045.5 398,-1045.5"/>
<polygon fill="none" stroke="#000000" points="398,-1045.5 398,-1080.5 647,-1080.5 647,-1045.5 398,-1045.5"/>
<text text-anchor="start" x="417.8589" y="-1058.3" font-family="Arial Bold" font-size="18.00" fill="#000000">order_product</text>
<text text-anchor="start" x="529.8873" y="-1058.3" font-family="Arial" font-size="14.00" fill="#000000"> </text>
<text text-anchor="start" x="533.7779" y="-1058.3" font-family="Arial" font-size="14.00" fill="#666666">[BASE TABLE]</text>
<polygon fill="none" stroke="#000000" points="398,-1015.5 398,-1045.5 647,-1045.5 647,-1015.5 398,-1015.5"/>
<text text-anchor="start" x="405" y="-1026.9" font-family="Arial" font-size="14.00" fill="#000000">id </text>
<text text-anchor="start" x="419.7798" y="-1026.9" font-family="Arial" font-size="14.00" fill="#666666">[int(10) unsigned]</text>
<polygon fill="none" stroke="#000000" points="398,-985.5 398,-1015.5 647,-1015.5 647,-985.5 398,-985.5"/>
<text text-anchor="start" x="405" y="-996.9" font-family="Arial" font-size="14.00" fill="#000000">order_id </text>
<text text-anchor="start" x="460.2314" y="-996.9" font-family="Arial" font-size="14.00" fill="#666666">[int(10) unsigned]</text>
<polygon fill="none" stroke="#000000" points="398,-955.5 398,-985.5 647,-985.5 647,-955.5 398,-955.5"/>
<text text-anchor="start" x="405" y="-966.9" font-family="Arial" font-size="14.00" fill="#000000">product_id </text>
<text text-anchor="start" x="474.244" y="-966.9" font-family="Arial" font-size="14.00" fill="#666666">[int(10) unsigned]</text>
<polygon fill="none" stroke="#000000" points="398,-925.5 398,-955.5 647,-955.5 647,-925.5 398,-925.5"/>
<text text-anchor="start" x="404.6319" y="-936.9" font-family="Arial" font-size="14.00" fill="#000000">product_attribute_id </text>
<text text-anchor="start" x="532.2279" y="-936.9" font-family="Arial" font-size="14.00" fill="#666666">[int(10) unsigned]</text>
<polygon fill="none" stroke="#000000" points="398,-895.5 398,-925.5 647,-925.5 647,-895.5 398,-895.5"/>
<text text-anchor="start" x="405" y="-906.9" font-family="Arial" font-size="14.00" fill="#000000">quantity </text>
<text text-anchor="start" x="457.9088" y="-906.9" font-family="Arial" font-size="14.00" fill="#666666">[int(11)]</text>
<polygon fill="none" stroke="#000000" points="398,-865.5 398,-895.5 647,-895.5 647,-865.5 398,-865.5"/>
<text text-anchor="start" x="405" y="-876.9" font-family="Arial" font-size="14.00" fill="#000000">product_name </text>
<text text-anchor="start" x="498.3632" y="-876.9" font-family="Arial" font-size="14.00" fill="#666666">[varchar(255)]</text>
<polygon fill="none" stroke="#000000" points="398,-835.5 398,-865.5 647,-865.5 647,-835.5 398,-835.5"/>
<text text-anchor="start" x="405" y="-846.9" font-family="Arial" font-size="14.00" fill="#000000">product_sku </text>
<text text-anchor="start" x="485.1374" y="-846.9" font-family="Arial" font-size="14.00" fill="#666666">[varchar(255)]</text>
<polygon fill="none" stroke="#000000" points="398,-805.5 398,-835.5 647,-835.5 647,-805.5 398,-805.5"/>
<text text-anchor="start" x="405" y="-816.9" font-family="Arial" font-size="14.00" fill="#000000">product_description </text>
<text text-anchor="start" x="531.0322" y="-816.9" font-family="Arial" font-size="14.00" fill="#666666">[text]</text>
<polygon fill="none" stroke="#000000" points="398,-775.5 398,-805.5 647,-805.5 647,-775.5 398,-775.5"/>
<text text-anchor="start" x="405" y="-786.9" font-family="Arial" font-size="14.00" fill="#000000">product_price </text>
<text text-anchor="start" x="493.6872" y="-786.9" font-family="Arial" font-size="14.00" fill="#666666">[decimal(8,2)]</text>
</g>
<!-- order_product&#45;&gt;products -->
<g id="edge2" class="edge">
<title>order_product:product_id&#45;&gt;products:id</title>
<path fill="none" stroke="#000000" d="M656.9184,-967.8074C695.424,-944.5789 666.9623,-777.8226 647,-733 637.2694,-711.1513 616.7306,-718.8487 607,-697 589.5511,-657.821 564.1111,-600.5 607,-600.5"/>
<polygon fill="#000000" stroke="#000000" points="656.6507,-967.88 645.821,-966.1572 651.8254,-969.19 647,-970.5 647,-970.5 647,-970.5 651.8254,-969.19 648.179,-974.8428 656.6507,-967.88 656.6507,-967.88"/>
<text text-anchor="start" x="654.048" y="-980.5" font-family="Arial" font-size="10.00" fill="#000000">FOREIGN KEY (product_id) REFERENCES products (id)</text>
</g>
<!-- product_attributes -->
<g id="node4" class="node">
<title>product_attributes</title>
<polygon fill="#efefef" stroke="transparent" points="751,-1030.5 751,-1065.5 1006,-1065.5 1006,-1030.5 751,-1030.5"/>
<polygon fill="none" stroke="#000000" points="751,-1030.5 751,-1065.5 1006,-1065.5 1006,-1030.5 751,-1030.5"/>
<text text-anchor="start" x="757.8515" y="-1043.3" font-family="Arial Bold" font-size="18.00" fill="#000000">product_attributes</text>
<text text-anchor="start" x="901.8947" y="-1043.3" font-family="Arial" font-size="14.00" fill="#000000"> </text>
<text text-anchor="start" x="905.7853" y="-1043.3" font-family="Arial" font-size="14.00" fill="#666666">[BASE TABLE]</text>
<polygon fill="none" stroke="#000000" points="751,-1000.5 751,-1030.5 1006,-1030.5 1006,-1000.5 751,-1000.5"/>
<text text-anchor="start" x="758" y="-1011.9" font-family="Arial" font-size="14.00" fill="#000000">id </text>
<text text-anchor="start" x="772.7798" y="-1011.9" font-family="Arial" font-size="14.00" fill="#666666">[int(10) unsigned]</text>
<polygon fill="none" stroke="#000000" points="751,-970.5 751,-1000.5 1006,-1000.5 1006,-970.5 751,-970.5"/>
<text text-anchor="start" x="758" y="-981.9" font-family="Arial" font-size="14.00" fill="#000000">quantity </text>
<text text-anchor="start" x="810.9088" y="-981.9" font-family="Arial" font-size="14.00" fill="#666666">[int(11)]</text>
<polygon fill="none" stroke="#000000" points="751,-940.5 751,-970.5 1006,-970.5 1006,-940.5 751,-940.5"/>
<text text-anchor="start" x="758" y="-951.9" font-family="Arial" font-size="14.00" fill="#000000">price </text>
<text text-anchor="start" x="792.223" y="-951.9" font-family="Arial" font-size="14.00" fill="#666666">[decimal(8,2)]</text>
<polygon fill="none" stroke="#000000" points="751,-910.5 751,-940.5 1006,-940.5 1006,-910.5 751,-910.5"/>
<text text-anchor="start" x="758" y="-921.9" font-family="Arial" font-size="14.00" fill="#000000">sale_price </text>
<text text-anchor="start" x="825.6774" y="-921.9" font-family="Arial" font-size="14.00" fill="#666666">[varchar(255)]</text>
<polygon fill="none" stroke="#000000" points="751,-880.5 751,-910.5 1006,-910.5 1006,-880.5 751,-880.5"/>
<text text-anchor="start" x="758" y="-891.9" font-family="Arial" font-size="14.00" fill="#000000">default </text>
<text text-anchor="start" x="803.9088" y="-891.9" font-family="Arial" font-size="14.00" fill="#666666">[tinyint(4)]</text>
<polygon fill="none" stroke="#000000" points="751,-850.5 751,-880.5 1006,-880.5 1006,-850.5 751,-850.5"/>
<text text-anchor="start" x="758" y="-861.9" font-family="Arial" font-size="14.00" fill="#000000">product_id </text>
<text text-anchor="start" x="827.244" y="-861.9" font-family="Arial" font-size="14.00" fill="#666666">[int(10) unsigned]</text>
<polygon fill="none" stroke="#000000" points="751,-820.5 751,-850.5 1006,-850.5 1006,-820.5 751,-820.5"/>
<text text-anchor="start" x="758" y="-831.9" font-family="Arial" font-size="14.00" fill="#000000">created_at </text>
<text text-anchor="start" x="828.028" y="-831.9" font-family="Arial" font-size="14.00" fill="#666666">[timestamp]</text>
<polygon fill="none" stroke="#000000" points="751,-790.5 751,-820.5 1006,-820.5 1006,-790.5 751,-790.5"/>
<text text-anchor="start" x="758" y="-801.9" font-family="Arial" font-size="14.00" fill="#000000">updated_at </text>
<text text-anchor="start" x="831.9326" y="-801.9" font-family="Arial" font-size="14.00" fill="#666666">[timestamp]</text>
</g>
<!-- product_attributes&#45;&gt;products -->
<g id="edge3" class="edge">
<title>product_attributes:product_id&#45;&gt;products:id</title>
<path fill="none" stroke="#000000" d="M740.7602,-864.4048C703.7794,-855.4465 734.4109,-793.4111 751,-748 761.1732,-720.1519 783.8268,-724.8481 794,-697 808.7165,-656.715 836.8889,-600.5 794,-600.5"/>
<polygon fill="#000000" stroke="#000000" points="741.0567,-864.4364 750.5214,-869.9745 746.0284,-864.9682 751,-865.5 751,-865.5 751,-865.5 746.0284,-864.9682 751.4786,-861.0255 741.0567,-864.4364 741.0567,-864.4364"/>
<text text-anchor="start" x="758.048" y="-875.5" font-family="Arial" font-size="10.00" fill="#000000">FOREIGN KEY (product_id) REFERENCES products (id)</text>
</g>
<!-- product_images -->
<g id="node5" class="node">
<title>product_images</title>
<polygon fill="#efefef" stroke="transparent" points="1110,-955.5 1110,-990.5 1349,-990.5 1349,-955.5 1110,-955.5"/>
<polygon fill="none" stroke="#000000" points="1110,-955.5 1110,-990.5 1349,-990.5 1349,-955.5 1110,-955.5"/>
<text text-anchor="start" x="1116.8579" y="-968.3" font-family="Arial Bold" font-size="18.00" fill="#000000">product_images</text>
<text text-anchor="start" x="1244.8883" y="-968.3" font-family="Arial" font-size="14.00" fill="#000000"> </text>
<text text-anchor="start" x="1248.7789" y="-968.3" font-family="Arial" font-size="14.00" fill="#666666">[BASE TABLE]</text>
<polygon fill="none" stroke="#000000" points="1110,-925.5 1110,-955.5 1349,-955.5 1349,-925.5 1110,-925.5"/>
<text text-anchor="start" x="1117" y="-936.9" font-family="Arial" font-size="14.00" fill="#000000">id </text>
<text text-anchor="start" x="1131.7798" y="-936.9" font-family="Arial" font-size="14.00" fill="#666666">[int(10) unsigned]</text>
<polygon fill="none" stroke="#000000" points="1110,-895.5 1110,-925.5 1349,-925.5 1349,-895.5 1110,-895.5"/>
<text text-anchor="start" x="1117" y="-906.9" font-family="Arial" font-size="14.00" fill="#000000">product_id </text>
<text text-anchor="start" x="1186.244" y="-906.9" font-family="Arial" font-size="14.00" fill="#666666">[int(10) unsigned]</text>
<polygon fill="none" stroke="#000000" points="1110,-865.5 1110,-895.5 1349,-895.5 1349,-865.5 1110,-865.5"/>
<text text-anchor="start" x="1117" y="-876.9" font-family="Arial" font-size="14.00" fill="#000000">src </text>
<text text-anchor="start" x="1139.5512" y="-876.9" font-family="Arial" font-size="14.00" fill="#666666">[varchar(255)]</text>
</g>
<!-- product_images&#45;&gt;products -->
<g id="edge4" class="edge">
<title>product_images:product_id&#45;&gt;products:id</title>
<path fill="none" stroke="#000000" d="M1099.8937,-909.8226C1034.967,-900.3272 1108.2964,-793.2857 1058,-733 973.8976,-632.1942 925.2822,-600.5 794,-600.5"/>
<polygon fill="#000000" stroke="#000000" points="1100.0224,-909.8311 1109.699,-914.9899 1105.0112,-910.1656 1110,-910.5 1110,-910.5 1110,-910.5 1105.0112,-910.1656 1110.301,-906.0101 1100.0224,-909.8311 1100.0224,-909.8311"/>
<text text-anchor="start" x="1117.048" y="-920.5" font-family="Arial" font-size="10.00" fill="#000000">FOREIGN KEY (product_id) REFERENCES products (id)</text>
</g>
</g>
</svg>
