<?xml version="1.0" encoding="UTF-8" standalone="no"?>
<!DOCTYPE svg PUBLIC "-//W3C//DTD SVG 1.1//EN"
 "http://www.w3.org/Graphics/SVG/1.1/DTD/svg11.dtd">
<!-- Generated by graphviz version 2.40.1 (20161225.0304)
 -->
<!-- Title: product_attributes Pages: 1 -->
<svg width="633pt" height="1319pt"
 viewBox="0.00 0.00 633.00 1319.00" xmlns="http://www.w3.org/2000/svg" xmlns:xlink="http://www.w3.org/1999/xlink">
<g id="graph0" class="graph" transform="scale(1 1) rotate(0) translate(4 1315)">
<title>product_attributes</title>
<polygon fill="#ffffff" stroke="transparent" points="-4,4 -4,-1315 629,-1315 629,4 -4,4"/>
<!-- product_attributes -->
<g id="node1" class="node">
<title>product_attributes</title>
<polygon fill="#efefef" stroke="transparent" points="267,-1012.5 267,-1047.5 522,-1047.5 522,-1012.5 267,-1012.5"/>
<polygon fill="none" stroke="#000000" points="267,-1012.5 267,-1047.5 522,-1047.5 522,-1012.5 267,-1012.5"/>
<text text-anchor="start" x="273.8515" y="-1025.3" font-family="Arial Bold" font-size="18.00" fill="#000000">product_attributes</text>
<text text-anchor="start" x="417.8947" y="-1025.3" font-family="Arial" font-size="14.00" fill="#000000"> </text>
<text text-anchor="start" x="421.7853" y="-1025.3" font-family="Arial" font-size="14.00" fill="#666666">[BASE TABLE]</text>
<polygon fill="none" stroke="#000000" points="267,-982.5 267,-1012.5 522,-1012.5 522,-982.5 267,-982.5"/>
<text text-anchor="start" x="274" y="-993.9" font-family="Arial" font-size="14.00" fill="#000000">id </text>
<text text-anchor="start" x="288.7798" y="-993.9" font-family="Arial" font-size="14.00" fill="#666666">[int(10) unsigned]</text>
<polygon fill="none" stroke="#000000" points="267,-952.5 267,-982.5 522,-982.5 522,-952.5 267,-952.5"/>
<text text-anchor="start" x="274" y="-963.9" font-family="Arial" font-size="14.00" fill="#000000">quantity </text>
<text text-anchor="start" x="326.9088" y="-963.9" font-family="Arial" font-size="14.00" fill="#666666">[int(11)]</text>
<polygon fill="none" stroke="#000000" points="267,-922.5 267,-952.5 522,-952.5 522,-922.5 267,-922.5"/>
<text text-anchor="start" x="274" y="-933.9" font-family="Arial" font-size="14.00" fill="#000000">price </text>
<text text-anchor="start" x="308.223" y="-933.9" font-family="Arial" font-size="14.00" fill="#666666">[decimal(8,2)]</text>
<polygon fill="none" stroke="#000000" points="267,-892.5 267,-922.5 522,-922.5 522,-892.5 267,-892.5"/>
<text text-anchor="start" x="274" y="-903.9" font-family="Arial" font-size="14.00" fill="#000000">sale_price </text>
<text text-anchor="start" x="341.6774" y="-903.9" font-family="Arial" font-size="14.00" fill="#666666">[varchar(255)]</text>
<polygon fill="none" stroke="#000000" points="267,-862.5 267,-892.5 522,-892.5 522,-862.5 267,-862.5"/>
<text text-anchor="start" x="274" y="-873.9" font-family="Arial" font-size="14.00" fill="#000000">default </text>
<text text-anchor="start" x="319.9088" y="-873.9" font-family="Arial" font-size="14.00" fill="#666666">[tinyint(4)]</text>
<polygon fill="none" stroke="#000000" points="267,-832.5 267,-862.5 522,-862.5 522,-832.5 267,-832.5"/>
<text text-anchor="start" x="274" y="-843.9" font-family="Arial" font-size="14.00" fill="#000000">product_id </text>
<text text-anchor="start" x="343.244" y="-843.9" font-family="Arial" font-size="14.00" fill="#666666">[int(10) unsigned]</text>
<polygon fill="none" stroke="#000000" points="267,-802.5 267,-832.5 522,-832.5 522,-802.5 267,-802.5"/>
<text text-anchor="start" x="274" y="-813.9" font-family="Arial" font-size="14.00" fill="#000000">created_at </text>
<text text-anchor="start" x="344.028" y="-813.9" font-family="Arial" font-size="14.00" fill="#666666">[timestamp]</text>
<polygon fill="none" stroke="#000000" points="267,-772.5 267,-802.5 522,-802.5 522,-772.5 267,-772.5"/>
<text text-anchor="start" x="274" y="-783.9" font-family="Arial" font-size="14.00" fill="#000000">updated_at </text>
<text text-anchor="start" x="347.9326" y="-783.9" font-family="Arial" font-size="14.00" fill="#666666">[timestamp]</text>
<polygon fill="none" stroke="#000000" stroke-width="3" points="265,-771.5 265,-1049.5 523,-1049.5 523,-771.5 265,-771.5"/>
</g>
<!-- products -->
<g id="node3" class="node">
<title>products</title>
<polygon fill="#efefef" stroke="transparent" points="301,-612.5 301,-647.5 488,-647.5 488,-612.5 301,-612.5"/>
<polygon fill="none" stroke="#000000" points="301,-612.5 301,-647.5 488,-647.5 488,-612.5 301,-612.5"/>
<text text-anchor="start" x="311.3635" y="-625.3" font-family="Arial Bold" font-size="18.00" fill="#000000">products</text>
<text text-anchor="start" x="380.3827" y="-625.3" font-family="Arial" font-size="14.00" fill="#000000"> </text>
<text text-anchor="start" x="384.2733" y="-625.3" font-family="Arial" font-size="14.00" fill="#666666">[BASE TABLE]</text>
<polygon fill="none" stroke="#000000" points="301,-582.5 301,-612.5 488,-612.5 488,-582.5 301,-582.5"/>
<text text-anchor="start" x="308" y="-593.9" font-family="Arial" font-size="14.00" fill="#000000">id </text>
<text text-anchor="start" x="322.7798" y="-593.9" font-family="Arial" font-size="14.00" fill="#666666">[int(10) unsigned]</text>
<polygon fill="none" stroke="#000000" points="301,-552.5 301,-582.5 488,-582.5 488,-552.5 301,-552.5"/>
<text text-anchor="start" x="308" y="-563.9" font-family="Arial" font-size="14.00" fill="#000000">brand_id </text>
<text text-anchor="start" x="366.3534" y="-563.9" font-family="Arial" font-size="14.00" fill="#666666">[int(10) unsigned]</text>
<polygon fill="none" stroke="#000000" points="301,-522.5 301,-552.5 488,-552.5 488,-522.5 301,-522.5"/>
<text text-anchor="start" x="308" y="-533.9" font-family="Arial" font-size="14.00" fill="#000000">sku </text>
<text text-anchor="start" x="333.6732" y="-533.9" font-family="Arial" font-size="14.00" fill="#666666">[varchar(255)]</text>
<polygon fill="none" stroke="#000000" points="301,-492.5 301,-522.5 488,-522.5 488,-492.5 301,-492.5"/>
<text text-anchor="start" x="308" y="-503.9" font-family="Arial" font-size="14.00" fill="#000000">name </text>
<text text-anchor="start" x="346.899" y="-503.9" font-family="Arial" font-size="14.00" fill="#666666">[varchar(255)]</text>
<polygon fill="none" stroke="#000000" points="301,-462.5 301,-492.5 488,-492.5 488,-462.5 301,-462.5"/>
<text text-anchor="start" x="308" y="-473.9" font-family="Arial" font-size="14.00" fill="#000000">slug </text>
<text text-anchor="start" x="337.5624" y="-473.9" font-family="Arial" font-size="14.00" fill="#666666">[varchar(255)]</text>
<polygon fill="none" stroke="#000000" points="301,-432.5 301,-462.5 488,-462.5 488,-432.5 301,-432.5"/>
<text text-anchor="start" x="308" y="-443.9" font-family="Arial" font-size="14.00" fill="#000000">description </text>
<text text-anchor="start" x="379.568" y="-443.9" font-family="Arial" font-size="14.00" fill="#666666">[text]</text>
<polygon fill="none" stroke="#000000" points="301,-402.5 301,-432.5 488,-432.5 488,-402.5 301,-402.5"/>
<text text-anchor="start" x="308" y="-413.9" font-family="Arial" font-size="14.00" fill="#000000">cover </text>
<text text-anchor="start" x="346.1164" y="-413.9" font-family="Arial" font-size="14.00" fill="#666666">[varchar(255)]</text>
<polygon fill="none" stroke="#000000" points="301,-372.5 301,-402.5 488,-402.5 488,-372.5 301,-372.5"/>
<text text-anchor="start" x="308" y="-383.9" font-family="Arial" font-size="14.00" fill="#000000">quantity </text>
<text text-anchor="start" x="360.9088" y="-383.9" font-family="Arial" font-size="14.00" fill="#666666">[int(11)]</text>
<polygon fill="none" stroke="#000000" points="301,-342.5 301,-372.5 488,-372.5 488,-342.5 301,-342.5"/>
<text text-anchor="start" x="308" y="-353.9" font-family="Arial" font-size="14.00" fill="#000000">price </text>
<text text-anchor="start" x="342.223" y="-353.9" font-family="Arial" font-size="14.00" fill="#666666">[decimal(8,2)]</text>
<polygon fill="none" stroke="#000000" points="301,-312.5 301,-342.5 488,-342.5 488,-312.5 301,-312.5"/>
<text text-anchor="start" x="308" y="-323.9" font-family="Arial" font-size="14.00" fill="#000000">sale_price </text>
<text text-anchor="start" x="375.6774" y="-323.9" font-family="Arial" font-size="14.00" fill="#666666">[decimal(8,2)]</text>
<polygon fill="none" stroke="#000000" points="301,-282.5 301,-312.5 488,-312.5 488,-282.5 301,-282.5"/>
<text text-anchor="start" x="308" y="-293.9" font-family="Arial" font-size="14.00" fill="#000000">status </text>
<text text-anchor="start" x="349.237" y="-293.9" font-family="Arial" font-size="14.00" fill="#666666">[int(11)]</text>
<polygon fill="none" stroke="#000000" points="301,-252.5 301,-282.5 488,-282.5 488,-252.5 301,-252.5"/>
<text text-anchor="start" x="308" y="-263.9" font-family="Arial" font-size="14.00" fill="#000000">length </text>
<text text-anchor="start" x="350.0182" y="-263.9" font-family="Arial" font-size="14.00" fill="#666666">[decimal(8,2)]</text>
<polygon fill="none" stroke="#000000" points="301,-222.5 301,-252.5 488,-252.5 488,-222.5 301,-222.5"/>
<text text-anchor="start" x="308" y="-233.9" font-family="Arial" font-size="14.00" fill="#000000">width </text>
<text text-anchor="start" x="344.5596" y="-233.9" font-family="Arial" font-size="14.00" fill="#666666">[decimal(8,2)]</text>
<polygon fill="none" stroke="#000000" points="301,-192.5 301,-222.5 488,-222.5 488,-192.5 301,-192.5"/>
<text text-anchor="start" x="308" y="-203.9" font-family="Arial" font-size="14.00" fill="#000000">height </text>
<text text-anchor="start" x="350.0182" y="-203.9" font-family="Arial" font-size="14.00" fill="#666666">[decimal(8,2)]</text>
<polygon fill="none" stroke="#000000" points="301,-162.5 301,-192.5 488,-192.5 488,-162.5 301,-162.5"/>
<text text-anchor="start" x="307.7588" y="-173.9" font-family="Arial" font-size="14.00" fill="#000000">distance_unit </text>
<text text-anchor="start" x="394.122" y="-173.9" font-family="Arial" font-size="14.00" fill="#666666">[varchar(255)]</text>
<polygon fill="none" stroke="#000000" points="301,-132.5 301,-162.5 488,-162.5 488,-132.5 301,-132.5"/>
<text text-anchor="start" x="308" y="-143.9" font-family="Arial" font-size="14.00" fill="#000000">weight </text>
<text text-anchor="start" x="352.3422" y="-143.9" font-family="Arial" font-size="14.00" fill="#666666">[decimal(8,2)]</text>
<polygon fill="none" stroke="#000000" points="301,-102.5 301,-132.5 488,-132.5 488,-102.5 301,-102.5"/>
<text text-anchor="start" x="308" y="-113.9" font-family="Arial" font-size="14.00" fill="#000000">mass_unit </text>
<text text-anchor="start" x="375.6788" y="-113.9" font-family="Arial" font-size="14.00" fill="#666666">[varchar(255)]</text>
<polygon fill="none" stroke="#000000" points="301,-72.5 301,-102.5 488,-102.5 488,-72.5 301,-72.5"/>
<text text-anchor="start" x="308" y="-83.9" font-family="Arial" font-size="14.00" fill="#000000">created_at </text>
<text text-anchor="start" x="378.028" y="-83.9" font-family="Arial" font-size="14.00" fill="#666666">[timestamp]</text>
<polygon fill="none" stroke="#000000" points="301,-42.5 301,-72.5 488,-72.5 488,-42.5 301,-42.5"/>
<text text-anchor="start" x="308" y="-53.9" font-family="Arial" font-size="14.00" fill="#000000">updated_at </text>
<text text-anchor="start" x="381.9326" y="-53.9" font-family="Arial" font-size="14.00" fill="#666666">[timestamp]</text>
</g>
<!-- product_attributes&#45;&gt;products -->
<g id="edge2" class="edge">
<title>product_attributes:product_id&#45;&gt;products:id</title>
<path fill="none" stroke="#000000" d="M256.9135,-846.7828C157.0673,-832.1191 192.3702,-597.5 301,-597.5"/>
<polygon fill="#000000" stroke="#000000" points="257.0252,-846.7907 266.6808,-851.9887 262.0126,-847.1453 267,-847.5 267,-847.5 267,-847.5 262.0126,-847.1453 267.3192,-843.0113 257.0252,-846.7907 257.0252,-846.7907"/>
<text text-anchor="start" x="7.048" y="-857.5" font-family="Arial" font-size="10.00" fill="#000000">FOREIGN KEY (product_id) REFERENCES products (id)</text>
</g>
<!-- attribute_value_product_attribute -->
<g id="node2" class="node">
<title>attribute_value_product_attribute</title>
<polygon fill="#efefef" stroke="transparent" points="208,-1232.5 208,-1267.5 582,-1267.5 582,-1232.5 208,-1232.5"/>
<polygon fill="none" stroke="#000000" points="208,-1232.5 208,-1267.5 582,-1267.5 582,-1232.5 208,-1232.5"/>
<text text-anchor="start" x="214.83" y="-1245.3" font-family="Arial Bold" font-size="18.00" fill="#000000">attribute_value_product_attribute</text>
<text text-anchor="start" x="477.9162" y="-1245.3" font-family="Arial" font-size="14.00" fill="#000000"> </text>
<text text-anchor="start" x="481.8068" y="-1245.3" font-family="Arial" font-size="14.00" fill="#666666">[BASE TABLE]</text>
<polygon fill="none" stroke="#000000" points="208,-1202.5 208,-1232.5 582,-1232.5 582,-1202.5 208,-1202.5"/>
<text text-anchor="start" x="215" y="-1213.9" font-family="Arial" font-size="14.00" fill="#000000">attribute_value_id </text>
<text text-anchor="start" x="329.3688" y="-1213.9" font-family="Arial" font-size="14.00" fill="#666666">[int(10) unsigned]</text>
<polygon fill="none" stroke="#000000" points="208,-1172.5 208,-1202.5 582,-1202.5 582,-1172.5 208,-1172.5"/>
<text text-anchor="start" x="215" y="-1183.9" font-family="Arial" font-size="14.00" fill="#000000">product_attribute_id </text>
<text text-anchor="start" x="342.596" y="-1183.9" font-family="Arial" font-size="14.00" fill="#666666">[int(10) unsigned]</text>
</g>
<!-- attribute_value_product_attribute&#45;&gt;product_attributes -->
<g id="edge1" class="edge">
<title>attribute_value_product_attribute:product_attribute_id&#45;&gt;product_attributes:id</title>
<path fill="none" stroke="#000000" d="M395.8828,-1162.2649C405.5263,-1111.0004 491.5184,-1148.6755 522,-1094 542.8843,-1056.5393 564.8889,-997.5 522,-997.5"/>
<polygon fill="#000000" stroke="#000000" points="395.8594,-1162.537 390.5166,-1172.1133 395.4297,-1167.5185 395,-1172.5 395,-1172.5 395,-1172.5 395.4297,-1167.5185 399.4834,-1172.8867 395.8594,-1162.537 395.8594,-1162.537"/>
<text text-anchor="start" x="51.368" y="-1182.5" font-family="Arial" font-size="10.00" fill="#000000">FOREIGN KEY (product_attribute_id) REFERENCES product_attributes (id)</text>
</g>
</g>
</svg>
