<?xml version="1.0" encoding="UTF-8" standalone="no"?>
<!DOCTYPE svg PUBLIC "-//W3C//DTD SVG 1.1//EN"
 "http://www.w3.org/Graphics/SVG/1.1/DTD/svg11.dtd">
<!-- Generated by graphviz version 2.40.1 (20161225.0304)
 -->
<!-- Title: provinces Pages: 1 -->
<svg width="515pt" height="989pt"
 viewBox="0.00 0.00 514.50 989.00" xmlns="http://www.w3.org/2000/svg" xmlns:xlink="http://www.w3.org/1999/xlink">
<g id="graph0" class="graph" transform="scale(1 1) rotate(0) translate(4 985)">
<title>provinces</title>
<polygon fill="#ffffff" stroke="transparent" points="-4,4 -4,-985 510.5,-985 510.5,4 -4,4"/>
<!-- provinces -->
<g id="node1" class="node">
<title>provinces</title>
<polygon fill="#efefef" stroke="transparent" points="47.5,-652.5 47.5,-687.5 237.5,-687.5 237.5,-652.5 47.5,-652.5"/>
<polygon fill="none" stroke="#000000" points="47.5,-652.5 47.5,-687.5 237.5,-687.5 237.5,-652.5 47.5,-652.5"/>
<text text-anchor="start" x="55.3675" y="-665.3" font-family="Arial Bold" font-size="18.00" fill="#000000">provinces</text>
<text text-anchor="start" x="132.3787" y="-665.3" font-family="Arial" font-size="14.00" fill="#000000"> </text>
<text text-anchor="start" x="136.2693" y="-665.3" font-family="Arial" font-size="14.00" fill="#666666">[BASE TABLE]</text>
<polygon fill="none" stroke="#000000" points="47.5,-622.5 47.5,-652.5 237.5,-652.5 237.5,-622.5 47.5,-622.5"/>
<text text-anchor="start" x="54.5" y="-633.9" font-family="Arial" font-size="14.00" fill="#000000">id </text>
<text text-anchor="start" x="69.2798" y="-633.9" font-family="Arial" font-size="14.00" fill="#666666">[int(10) unsigned]</text>
<polygon fill="none" stroke="#000000" points="47.5,-592.5 47.5,-622.5 237.5,-622.5 237.5,-592.5 47.5,-592.5"/>
<text text-anchor="start" x="54.5" y="-603.9" font-family="Arial" font-size="14.00" fill="#000000">name </text>
<text text-anchor="start" x="93.399" y="-603.9" font-family="Arial" font-size="14.00" fill="#666666">[varchar(255)]</text>
<polygon fill="none" stroke="#000000" points="47.5,-562.5 47.5,-592.5 237.5,-592.5 237.5,-562.5 47.5,-562.5"/>
<text text-anchor="start" x="54.1992" y="-573.9" font-family="Arial" font-size="14.00" fill="#000000">country_id </text>
<text text-anchor="start" x="122.6606" y="-573.9" font-family="Arial" font-size="14.00" fill="#666666">[int(10) unsigned]</text>
<polygon fill="none" stroke="#000000" points="47.5,-532.5 47.5,-562.5 237.5,-562.5 237.5,-532.5 47.5,-532.5"/>
<text text-anchor="start" x="54.5" y="-543.9" font-family="Arial" font-size="14.00" fill="#000000">status </text>
<text text-anchor="start" x="95.737" y="-543.9" font-family="Arial" font-size="14.00" fill="#666666">[int(11)]</text>
<polygon fill="none" stroke="#000000" points="47.5,-502.5 47.5,-532.5 237.5,-532.5 237.5,-502.5 47.5,-502.5"/>
<text text-anchor="start" x="54.5" y="-513.9" font-family="Arial" font-size="14.00" fill="#000000">created_at </text>
<text text-anchor="start" x="124.528" y="-513.9" font-family="Arial" font-size="14.00" fill="#666666">[timestamp]</text>
<polygon fill="none" stroke="#000000" points="47.5,-472.5 47.5,-502.5 237.5,-502.5 237.5,-472.5 47.5,-472.5"/>
<text text-anchor="start" x="54.5" y="-483.9" font-family="Arial" font-size="14.00" fill="#000000">updated_at </text>
<text text-anchor="start" x="128.4326" y="-483.9" font-family="Arial" font-size="14.00" fill="#666666">[timestamp]</text>
<polygon fill="none" stroke="#000000" stroke-width="3" points="46,-471.5 46,-689.5 239,-689.5 239,-471.5 46,-471.5"/>
</g>
<!-- countries -->
<g id="node3" class="node">
<title>countries</title>
<polygon fill="#efefef" stroke="transparent" points="50.5,-312.5 50.5,-347.5 234.5,-347.5 234.5,-312.5 50.5,-312.5"/>
<polygon fill="none" stroke="#000000" points="50.5,-312.5 50.5,-347.5 234.5,-347.5 234.5,-312.5 50.5,-312.5"/>
<text text-anchor="start" x="57.3664" y="-325.3" font-family="Arial Bold" font-size="18.00" fill="#000000">countries</text>
<text text-anchor="start" x="130.3798" y="-325.3" font-family="Arial" font-size="14.00" fill="#000000"> </text>
<text text-anchor="start" x="134.2704" y="-325.3" font-family="Arial" font-size="14.00" fill="#666666">[BASE TABLE]</text>
<polygon fill="none" stroke="#000000" points="50.5,-282.5 50.5,-312.5 234.5,-312.5 234.5,-282.5 50.5,-282.5"/>
<text text-anchor="start" x="57.5" y="-293.9" font-family="Arial" font-size="14.00" fill="#000000">id </text>
<text text-anchor="start" x="72.2798" y="-293.9" font-family="Arial" font-size="14.00" fill="#666666">[int(10) unsigned]</text>
<polygon fill="none" stroke="#000000" points="50.5,-252.5 50.5,-282.5 234.5,-282.5 234.5,-252.5 50.5,-252.5"/>
<text text-anchor="start" x="57.5" y="-263.9" font-family="Arial" font-size="14.00" fill="#000000">name </text>
<text text-anchor="start" x="96.399" y="-263.9" font-family="Arial" font-size="14.00" fill="#666666">[varchar(255)]</text>
<polygon fill="none" stroke="#000000" points="50.5,-222.5 50.5,-252.5 234.5,-252.5 234.5,-222.5 50.5,-222.5"/>
<text text-anchor="start" x="57.5" y="-233.9" font-family="Arial" font-size="14.00" fill="#000000">iso </text>
<text text-anchor="start" x="79.2798" y="-233.9" font-family="Arial" font-size="14.00" fill="#666666">[varchar(255)]</text>
<polygon fill="none" stroke="#000000" points="50.5,-192.5 50.5,-222.5 234.5,-222.5 234.5,-192.5 50.5,-192.5"/>
<text text-anchor="start" x="57.5" y="-203.9" font-family="Arial" font-size="14.00" fill="#000000">iso3 </text>
<text text-anchor="start" x="87.0624" y="-203.9" font-family="Arial" font-size="14.00" fill="#666666">[varchar(255)]</text>
<polygon fill="none" stroke="#000000" points="50.5,-162.5 50.5,-192.5 234.5,-192.5 234.5,-162.5 50.5,-162.5"/>
<text text-anchor="start" x="57.5" y="-173.9" font-family="Arial" font-size="14.00" fill="#000000">numcode </text>
<text text-anchor="start" x="118.9642" y="-173.9" font-family="Arial" font-size="14.00" fill="#666666">[int(11)]</text>
<polygon fill="none" stroke="#000000" points="50.5,-132.5 50.5,-162.5 234.5,-162.5 234.5,-132.5 50.5,-132.5"/>
<text text-anchor="start" x="57.5" y="-143.9" font-family="Arial" font-size="14.00" fill="#000000">phonecode </text>
<text text-anchor="start" x="130.6514" y="-143.9" font-family="Arial" font-size="14.00" fill="#666666">[int(11)]</text>
<polygon fill="none" stroke="#000000" points="50.5,-102.5 50.5,-132.5 234.5,-132.5 234.5,-102.5 50.5,-102.5"/>
<text text-anchor="start" x="57.5" y="-113.9" font-family="Arial" font-size="14.00" fill="#000000">status </text>
<text text-anchor="start" x="98.737" y="-113.9" font-family="Arial" font-size="14.00" fill="#666666">[int(11)]</text>
<polygon fill="none" stroke="#000000" points="50.5,-72.5 50.5,-102.5 234.5,-102.5 234.5,-72.5 50.5,-72.5"/>
<text text-anchor="start" x="57.5" y="-83.9" font-family="Arial" font-size="14.00" fill="#000000">created_at </text>
<text text-anchor="start" x="127.528" y="-83.9" font-family="Arial" font-size="14.00" fill="#666666">[timestamp]</text>
<polygon fill="none" stroke="#000000" points="50.5,-42.5 50.5,-72.5 234.5,-72.5 234.5,-42.5 50.5,-42.5"/>
<text text-anchor="start" x="57.5" y="-53.9" font-family="Arial" font-size="14.00" fill="#000000">updated_at </text>
<text text-anchor="start" x="131.4326" y="-53.9" font-family="Arial" font-size="14.00" fill="#666666">[timestamp]</text>
</g>
<!-- provinces&#45;&gt;countries -->
<g id="edge2" class="edge">
<title>provinces:country_id&#45;&gt;countries:id</title>
<path fill="none" stroke="#000000" d="M247.767,-576.839C361.6843,-561.8652 355.4271,-297.5 234.5,-297.5"/>
<polygon fill="#000000" stroke="#000000" points="247.4793,-576.8574 237.2108,-573.0093 242.4897,-577.1787 237.5,-577.5 237.5,-577.5 237.5,-577.5 242.4897,-577.1787 237.7892,-581.9907 247.4793,-576.8574 247.4793,-576.8574"/>
<text text-anchor="start" x="244.718" y="-587.5" font-family="Arial" font-size="10.00" fill="#000000">FOREIGN KEY (country_id) REFERENCES countries (id)</text>
</g>
<!-- cities -->
<g id="node2" class="node">
<title>cities</title>
<polygon fill="#efefef" stroke="transparent" points="43.5,-902.5 43.5,-937.5 240.5,-937.5 240.5,-902.5 43.5,-902.5"/>
<polygon fill="none" stroke="#000000" points="43.5,-902.5 43.5,-937.5 240.5,-937.5 240.5,-902.5 43.5,-902.5"/>
<text text-anchor="start" x="72.8747" y="-915.3" font-family="Arial Bold" font-size="18.00" fill="#000000">cities</text>
<text text-anchor="start" x="113.8715" y="-915.3" font-family="Arial" font-size="14.00" fill="#000000"> </text>
<text text-anchor="start" x="117.7621" y="-915.3" font-family="Arial" font-size="14.00" fill="#666666">[BASE TABLE]</text>
<polygon fill="none" stroke="#000000" points="43.5,-872.5 43.5,-902.5 240.5,-902.5 240.5,-872.5 43.5,-872.5"/>
<text text-anchor="start" x="50.5" y="-883.9" font-family="Arial" font-size="14.00" fill="#000000">name </text>
<text text-anchor="start" x="89.399" y="-883.9" font-family="Arial" font-size="14.00" fill="#666666">[varchar(255)]</text>
<polygon fill="none" stroke="#000000" points="43.5,-842.5 43.5,-872.5 240.5,-872.5 240.5,-842.5 43.5,-842.5"/>
<text text-anchor="start" x="50.5" y="-853.9" font-family="Arial" font-size="14.00" fill="#000000">state_code </text>
<text text-anchor="start" x="122.8674" y="-853.9" font-family="Arial" font-size="14.00" fill="#666666">[varchar(255)]</text>
<polygon fill="none" stroke="#000000" points="43.5,-812.5 43.5,-842.5 240.5,-842.5 240.5,-812.5 43.5,-812.5"/>
<text text-anchor="start" x="50.1999" y="-823.9" font-family="Arial" font-size="14.00" fill="#000000">province_id </text>
<text text-anchor="start" x="125.6599" y="-823.9" font-family="Arial" font-size="14.00" fill="#666666">[int(10) unsigned]</text>
</g>
<!-- cities&#45;&gt;provinces -->
<g id="edge1" class="edge">
<title>cities:province_id&#45;&gt;provinces:id</title>
<path fill="none" stroke="#000000" d="M141.5337,-802.3476C132.9279,-760.9066 69.2396,-780.165 47.5,-734 29.2278,-695.1982 4.6111,-637.5 47.5,-637.5"/>
<polygon fill="#000000" stroke="#000000" points="141.5524,-802.545 138.0202,-812.9264 142.0262,-807.5225 142.5,-812.5 142.5,-812.5 142.5,-812.5 142.0262,-807.5225 146.9798,-812.0736 141.5524,-802.545 141.5524,-802.545"/>
<text text-anchor="start" x="149.108" y="-822.5" font-family="Arial" font-size="10.00" fill="#000000">FOREIGN KEY (province_id) REFERENCES provinces (id)</text>
</g>
</g>
</svg>
