<?xml version="1.0" encoding="UTF-8" standalone="no"?>
<!DOCTYPE svg PUBLIC "-//W3C//DTD SVG 1.1//EN"
 "http://www.w3.org/Graphics/SVG/1.1/DTD/svg11.dtd">
<!-- Generated by graphviz version 2.40.1 (20161225.0304)
 -->
<!-- Title: roles Pages: 1 -->
<svg width="627pt" height="562pt"
 viewBox="0.00 0.00 627.00 562.00" xmlns="http://www.w3.org/2000/svg" xmlns:xlink="http://www.w3.org/1999/xlink">
<g id="graph0" class="graph" transform="scale(1 1) rotate(0) translate(4 558)">
<title>roles</title>
<polygon fill="#ffffff" stroke="transparent" points="-4,4 -4,-558 623,-558 623,4 -4,4"/>
<!-- roles -->
<g id="node1" class="node">
<title>roles</title>
<polygon fill="#efefef" stroke="transparent" points="224,-225.5 224,-260.5 415,-260.5 415,-225.5 224,-225.5"/>
<polygon fill="none" stroke="#000000" points="224,-225.5 224,-260.5 415,-260.5 415,-225.5 224,-225.5"/>
<text text-anchor="start" x="251.3737" y="-238.3" font-family="Arial Bold" font-size="18.00" fill="#000000">roles</text>
<text text-anchor="start" x="290.3725" y="-238.3" font-family="Arial" font-size="14.00" fill="#000000"> </text>
<text text-anchor="start" x="294.2631" y="-238.3" font-family="Arial" font-size="14.00" fill="#666666">[BASE TABLE]</text>
<polygon fill="none" stroke="#000000" points="224,-195.5 224,-225.5 415,-225.5 415,-195.5 224,-195.5"/>
<text text-anchor="start" x="231" y="-206.9" font-family="Arial" font-size="14.00" fill="#000000">id </text>
<text text-anchor="start" x="245.7798" y="-206.9" font-family="Arial" font-size="14.00" fill="#666666">[int(10) unsigned]</text>
<polygon fill="none" stroke="#000000" points="224,-165.5 224,-195.5 415,-195.5 415,-165.5 224,-165.5"/>
<text text-anchor="start" x="231" y="-176.9" font-family="Arial" font-size="14.00" fill="#000000">name </text>
<text text-anchor="start" x="269.899" y="-176.9" font-family="Arial" font-size="14.00" fill="#666666">[varchar(255)]</text>
<polygon fill="none" stroke="#000000" points="224,-135.5 224,-165.5 415,-165.5 415,-135.5 224,-135.5"/>
<text text-anchor="start" x="230.8191" y="-146.9" font-family="Arial" font-size="14.00" fill="#000000">display_name </text>
<text text-anchor="start" x="321.0617" y="-146.9" font-family="Arial" font-size="14.00" fill="#666666">[varchar(255)]</text>
<polygon fill="none" stroke="#000000" points="224,-105.5 224,-135.5 415,-135.5 415,-105.5 224,-105.5"/>
<text text-anchor="start" x="231" y="-116.9" font-family="Arial" font-size="14.00" fill="#000000">description </text>
<text text-anchor="start" x="302.568" y="-116.9" font-family="Arial" font-size="14.00" fill="#666666">[varchar(255)]</text>
<polygon fill="none" stroke="#000000" points="224,-75.5 224,-105.5 415,-105.5 415,-75.5 224,-75.5"/>
<text text-anchor="start" x="231" y="-86.9" font-family="Arial" font-size="14.00" fill="#000000">created_at </text>
<text text-anchor="start" x="301.028" y="-86.9" font-family="Arial" font-size="14.00" fill="#666666">[timestamp]</text>
<polygon fill="none" stroke="#000000" points="224,-45.5 224,-75.5 415,-75.5 415,-45.5 224,-45.5"/>
<text text-anchor="start" x="231" y="-56.9" font-family="Arial" font-size="14.00" fill="#000000">updated_at </text>
<text text-anchor="start" x="304.9326" y="-56.9" font-family="Arial" font-size="14.00" fill="#666666">[timestamp]</text>
<polygon fill="none" stroke="#000000" stroke-width="3" points="222,-44.5 222,-262.5 416,-262.5 416,-44.5 222,-44.5"/>
</g>
<!-- permission_role -->
<g id="node2" class="node">
<title>permission_role</title>
<polygon fill="#efefef" stroke="transparent" points="43,-460.5 43,-495.5 281,-495.5 281,-460.5 43,-460.5"/>
<polygon fill="none" stroke="#000000" points="43,-460.5 43,-495.5 281,-495.5 281,-460.5 43,-460.5"/>
<text text-anchor="start" x="49.8718" y="-473.3" font-family="Arial Bold" font-size="18.00" fill="#000000">permission_role</text>
<text text-anchor="start" x="176.8744" y="-473.3" font-family="Arial" font-size="14.00" fill="#000000"> </text>
<text text-anchor="start" x="180.765" y="-473.3" font-family="Arial" font-size="14.00" fill="#666666">[BASE TABLE]</text>
<polygon fill="none" stroke="#000000" points="43,-430.5 43,-460.5 281,-460.5 281,-430.5 43,-430.5"/>
<text text-anchor="start" x="50" y="-441.9" font-family="Arial" font-size="14.00" fill="#000000">permission_id </text>
<text text-anchor="start" x="140.2272" y="-441.9" font-family="Arial" font-size="14.00" fill="#666666">[int(10) unsigned]</text>
<polygon fill="none" stroke="#000000" points="43,-400.5 43,-430.5 281,-430.5 281,-400.5 43,-400.5"/>
<text text-anchor="start" x="50" y="-411.9" font-family="Arial" font-size="14.00" fill="#000000">role_id </text>
<text text-anchor="start" x="95.8948" y="-411.9" font-family="Arial" font-size="14.00" fill="#666666">[int(10) unsigned]</text>
</g>
<!-- permission_role&#45;&gt;roles -->
<g id="edge1" class="edge">
<title>permission_role:role_id&#45;&gt;roles:id</title>
<path fill="none" stroke="#000000" d="M290.8023,-412.7003C301.4951,-404.0742 289.6382,-377.32 281,-358 267.1249,-326.9672 237.8751,-338.0328 224,-307 206.4941,-267.8465 181.1111,-210.5 224,-210.5"/>
<polygon fill="#000000" stroke="#000000" points="290.6155,-412.7535 279.7641,-411.173 285.8077,-414.1268 281,-415.5 281,-415.5 281,-415.5 285.8077,-414.1268 282.2359,-419.827 290.6155,-412.7535 290.6155,-412.7535"/>
<text text-anchor="start" x="287.726" y="-425.5" font-family="Arial" font-size="10.00" fill="#000000">FOREIGN KEY (role_id) REFERENCES roles (id)</text>
</g>
<!-- role_user -->
<g id="node3" class="node">
<title>role_user</title>
<polygon fill="#efefef" stroke="transparent" points="385,-475.5 385,-510.5 571,-510.5 571,-475.5 385,-475.5"/>
<polygon fill="none" stroke="#000000" points="385,-475.5 385,-510.5 571,-510.5 571,-475.5 385,-475.5"/>
<text text-anchor="start" x="391.8683" y="-488.3" font-family="Arial Bold" font-size="18.00" fill="#000000">role_user</text>
<text text-anchor="start" x="466.8779" y="-488.3" font-family="Arial" font-size="14.00" fill="#000000"> </text>
<text text-anchor="start" x="470.7685" y="-488.3" font-family="Arial" font-size="14.00" fill="#666666">[BASE TABLE]</text>
<polygon fill="none" stroke="#000000" points="385,-445.5 385,-475.5 571,-475.5 571,-445.5 385,-445.5"/>
<text text-anchor="start" x="392" y="-456.9" font-family="Arial" font-size="14.00" fill="#000000">role_id </text>
<text text-anchor="start" x="437.8948" y="-456.9" font-family="Arial" font-size="14.00" fill="#666666">[int(10) unsigned]</text>
<polygon fill="none" stroke="#000000" points="385,-415.5 385,-445.5 571,-445.5 571,-415.5 385,-415.5"/>
<text text-anchor="start" x="392" y="-426.9" font-family="Arial" font-size="14.00" fill="#000000">user_id </text>
<text text-anchor="start" x="441.7882" y="-426.9" font-family="Arial" font-size="14.00" fill="#666666">[int(10) unsigned]</text>
<polygon fill="none" stroke="#000000" points="385,-385.5 385,-415.5 571,-415.5 571,-385.5 385,-385.5"/>
<text text-anchor="start" x="392" y="-396.9" font-family="Arial" font-size="14.00" fill="#000000">user_type </text>
<text text-anchor="start" x="457.3548" y="-396.9" font-family="Arial" font-size="14.00" fill="#666666">[varchar(255)]</text>
</g>
<!-- role_user&#45;&gt;roles -->
<g id="edge2" class="edge">
<title>role_user:role_id&#45;&gt;roles:id</title>
<path fill="none" stroke="#000000" d="M374.7623,-459.4056C337.7988,-450.4536 368.5417,-388.4587 385,-343 392.0902,-323.4167 407.9098,-326.5833 415,-307 429.6005,-266.6728 457.8889,-210.5 415,-210.5"/>
<polygon fill="#000000" stroke="#000000" points="375.0567,-459.4369 384.5216,-464.9745 380.0283,-459.9685 385,-460.5 385,-460.5 385,-460.5 380.0283,-459.9685 385.4784,-456.0255 375.0567,-459.4369 375.0567,-459.4369"/>
<text text-anchor="start" x="391.726" y="-470.5" font-family="Arial" font-size="10.00" fill="#000000">FOREIGN KEY (role_id) REFERENCES roles (id)</text>
</g>
</g>
</svg>
