<?xml version="1.0" encoding="UTF-8" standalone="no"?>
<!DOCTYPE svg PUBLIC "-//W3C//DTD SVG 1.1//EN"
 "http://www.w3.org/Graphics/SVG/1.1/DTD/svg11.dtd">
<!-- Generated by graphviz version 2.40.1 (20161225.0304)
 -->
<!-- Title: states Pages: 1 -->
<svg width="418pt" height="652pt"
 viewBox="0.00 0.00 418.00 652.00" xmlns="http://www.w3.org/2000/svg" xmlns:xlink="http://www.w3.org/1999/xlink">
<g id="graph0" class="graph" transform="scale(1 1) rotate(0) translate(4 648)">
<title>states</title>
<polygon fill="#ffffff" stroke="transparent" points="-4,4 -4,-648 414,-648 414,4 -4,4"/>
<!-- states -->
<g id="node1" class="node">
<title>states</title>
<polygon fill="#efefef" stroke="transparent" points="174,-562.5 174,-597.5 364,-597.5 364,-562.5 174,-562.5"/>
<polygon fill="none" stroke="#000000" points="174,-562.5 174,-597.5 364,-597.5 364,-562.5 174,-562.5"/>
<text text-anchor="start" x="196.3647" y="-575.3" font-family="Arial Bold" font-size="18.00" fill="#000000">states</text>
<text text-anchor="start" x="244.3815" y="-575.3" font-family="Arial" font-size="14.00" fill="#000000"> </text>
<text text-anchor="start" x="248.2721" y="-575.3" font-family="Arial" font-size="14.00" fill="#666666">[BASE TABLE]</text>
<polygon fill="none" stroke="#000000" points="174,-532.5 174,-562.5 364,-562.5 364,-532.5 174,-532.5"/>
<text text-anchor="start" x="181" y="-543.9" font-family="Arial" font-size="14.00" fill="#000000">state </text>
<text text-anchor="start" x="215.237" y="-543.9" font-family="Arial" font-size="14.00" fill="#666666">[varchar(255)]</text>
<polygon fill="none" stroke="#000000" points="174,-502.5 174,-532.5 364,-532.5 364,-502.5 174,-502.5"/>
<text text-anchor="start" x="181" y="-513.9" font-family="Arial" font-size="14.00" fill="#000000">state_code </text>
<text text-anchor="start" x="253.3674" y="-513.9" font-family="Arial" font-size="14.00" fill="#666666">[varchar(255)]</text>
<polygon fill="none" stroke="#000000" points="174,-472.5 174,-502.5 364,-502.5 364,-472.5 174,-472.5"/>
<text text-anchor="start" x="180.6992" y="-483.9" font-family="Arial" font-size="14.00" fill="#000000">country_id </text>
<text text-anchor="start" x="249.1606" y="-483.9" font-family="Arial" font-size="14.00" fill="#666666">[int(10) unsigned]</text>
<polygon fill="none" stroke="#000000" stroke-width="3" points="172.5,-471.5 172.5,-599.5 365.5,-599.5 365.5,-471.5 172.5,-471.5"/>
</g>
<!-- countries -->
<g id="node2" class="node">
<title>countries</title>
<polygon fill="#efefef" stroke="transparent" points="177,-312.5 177,-347.5 361,-347.5 361,-312.5 177,-312.5"/>
<polygon fill="none" stroke="#000000" points="177,-312.5 177,-347.5 361,-347.5 361,-312.5 177,-312.5"/>
<text text-anchor="start" x="183.8664" y="-325.3" font-family="Arial Bold" font-size="18.00" fill="#000000">countries</text>
<text text-anchor="start" x="256.8798" y="-325.3" font-family="Arial" font-size="14.00" fill="#000000"> </text>
<text text-anchor="start" x="260.7704" y="-325.3" font-family="Arial" font-size="14.00" fill="#666666">[BASE TABLE]</text>
<polygon fill="none" stroke="#000000" points="177,-282.5 177,-312.5 361,-312.5 361,-282.5 177,-282.5"/>
<text text-anchor="start" x="184" y="-293.9" font-family="Arial" font-size="14.00" fill="#000000">id </text>
<text text-anchor="start" x="198.7798" y="-293.9" font-family="Arial" font-size="14.00" fill="#666666">[int(10) unsigned]</text>
<polygon fill="none" stroke="#000000" points="177,-252.5 177,-282.5 361,-282.5 361,-252.5 177,-252.5"/>
<text text-anchor="start" x="184" y="-263.9" font-family="Arial" font-size="14.00" fill="#000000">name </text>
<text text-anchor="start" x="222.899" y="-263.9" font-family="Arial" font-size="14.00" fill="#666666">[varchar(255)]</text>
<polygon fill="none" stroke="#000000" points="177,-222.5 177,-252.5 361,-252.5 361,-222.5 177,-222.5"/>
<text text-anchor="start" x="184" y="-233.9" font-family="Arial" font-size="14.00" fill="#000000">iso </text>
<text text-anchor="start" x="205.7798" y="-233.9" font-family="Arial" font-size="14.00" fill="#666666">[varchar(255)]</text>
<polygon fill="none" stroke="#000000" points="177,-192.5 177,-222.5 361,-222.5 361,-192.5 177,-192.5"/>
<text text-anchor="start" x="184" y="-203.9" font-family="Arial" font-size="14.00" fill="#000000">iso3 </text>
<text text-anchor="start" x="213.5624" y="-203.9" font-family="Arial" font-size="14.00" fill="#666666">[varchar(255)]</text>
<polygon fill="none" stroke="#000000" points="177,-162.5 177,-192.5 361,-192.5 361,-162.5 177,-162.5"/>
<text text-anchor="start" x="184" y="-173.9" font-family="Arial" font-size="14.00" fill="#000000">numcode </text>
<text text-anchor="start" x="245.4642" y="-173.9" font-family="Arial" font-size="14.00" fill="#666666">[int(11)]</text>
<polygon fill="none" stroke="#000000" points="177,-132.5 177,-162.5 361,-162.5 361,-132.5 177,-132.5"/>
<text text-anchor="start" x="184" y="-143.9" font-family="Arial" font-size="14.00" fill="#000000">phonecode </text>
<text text-anchor="start" x="257.1514" y="-143.9" font-family="Arial" font-size="14.00" fill="#666666">[int(11)]</text>
<polygon fill="none" stroke="#000000" points="177,-102.5 177,-132.5 361,-132.5 361,-102.5 177,-102.5"/>
<text text-anchor="start" x="184" y="-113.9" font-family="Arial" font-size="14.00" fill="#000000">status </text>
<text text-anchor="start" x="225.237" y="-113.9" font-family="Arial" font-size="14.00" fill="#666666">[int(11)]</text>
<polygon fill="none" stroke="#000000" points="177,-72.5 177,-102.5 361,-102.5 361,-72.5 177,-72.5"/>
<text text-anchor="start" x="184" y="-83.9" font-family="Arial" font-size="14.00" fill="#000000">created_at </text>
<text text-anchor="start" x="254.028" y="-83.9" font-family="Arial" font-size="14.00" fill="#666666">[timestamp]</text>
<polygon fill="none" stroke="#000000" points="177,-42.5 177,-72.5 361,-72.5 361,-42.5 177,-42.5"/>
<text text-anchor="start" x="184" y="-53.9" font-family="Arial" font-size="14.00" fill="#000000">updated_at </text>
<text text-anchor="start" x="257.9326" y="-53.9" font-family="Arial" font-size="14.00" fill="#666666">[timestamp]</text>
</g>
<!-- states&#45;&gt;countries -->
<g id="edge1" class="edge">
<title>states:country_id&#45;&gt;countries:id</title>
<path fill="none" stroke="#000000" d="M269.9382,-462.3368C278.2925,-420.6706 340.1128,-437.4075 361,-391 378.0555,-353.1057 402.5556,-297.5 361,-297.5"/>
<polygon fill="#000000" stroke="#000000" points="269.9193,-462.5423 264.5191,-472.0863 269.4596,-467.5212 269,-472.5 269,-472.5 269,-472.5 269.4596,-467.5212 273.4809,-472.9137 269.9193,-462.5423 269.9193,-462.5423"/>
<text text-anchor="start" x="7.218" y="-482.5" font-family="Arial" font-size="10.00" fill="#000000">FOREIGN KEY (country_id) REFERENCES countries (id)</text>
</g>
</g>
</svg>
